<?xml version="1.0" encoding="UTF-8" standalone="no"?>
<!DOCTYPE svg PUBLIC "-//W3C//DTD SVG 1.1//EN"
 "http://www.w3.org/Graphics/SVG/1.1/DTD/svg11.dtd">
<!-- Generated by graphviz version 3.0.0 (20220226.1711)
 -->
<!-- Title: dependencies Pages: 1 -->
<svg width="370pt" height="247pt"
 viewBox="0.00 0.00 370.00 246.80" xmlns="http://www.w3.org/2000/svg" xmlns:xlink="http://www.w3.org/1999/xlink">
<g id="graph0" class="graph" transform="scale(1 1) rotate(0) translate(4 242.8)">
<title>dependencies</title>
<polygon fill="white" stroke="transparent" points="-4,4 -4,-242.8 366,-242.8 366,4 -4,4"/>
<text text-anchor="middle" x="181" y="-8.2" font-family="sans-serif" font-size="14.00">dependencies</text>
<g id="clust1" class="cluster">
<title>cluster_AddResourceModalModule</title>
<polygon fill="none" stroke="black" stroke-dasharray="1,5" points="8,-32.8 8,-230.8 354,-230.8 354,-32.8 8,-32.8"/>
</g>
<g id="clust5" class="cluster">
<title>cluster_AddResourceModalModule_exports</title>
<polygon fill="none" stroke="black" points="74,-170.8 74,-222.8 288,-222.8 288,-170.8 74,-170.8"/>
</g>
<g id="clust2" class="cluster">
<title>cluster_AddResourceModalModule_declarations</title>
<polygon fill="none" stroke="black" points="136,-40.8 136,-92.8 346,-92.8 346,-40.8 136,-40.8"/>
</g>
<g id="clust4" class="cluster">
<title>cluster_AddResourceModalModule_imports</title>
<polygon fill="none" stroke="black" points="16,-40.8 16,-92.8 128,-92.8 128,-40.8 16,-40.8"/>
</g>
<!-- AddResourceModalComponent -->
<g id="node1" class="node">
<title>AddResourceModalComponent</title>
<polygon fill="#ffffb3" stroke="black" points="338.08,-84.8 143.92,-84.8 143.92,-48.8 338.08,-48.8 338.08,-84.8"/>
<text text-anchor="middle" x="241" y="-62.6" font-family="Times,serif" font-size="14.00">AddResourceModalComponent</text>
</g>
<!-- AddResourceModalModule -->
<g id="node2" class="node">
<title>AddResourceModalModule</title>
<polygon fill="#8dd3c7" stroke="black" points="267.3,-149.8 264.3,-153.8 243.3,-153.8 240.3,-149.8 94.7,-149.8 94.7,-113.8 267.3,-113.8 267.3,-149.8"/>
<text text-anchor="middle" x="181" y="-127.6" font-family="Times,serif" font-size="14.00">AddResourceModalModule</text>
</g>
<!-- AddResourceModalComponent&#45;&gt;AddResourceModalModule -->
<g id="edge1" class="edge">
<title>AddResourceModalComponent&#45;&gt;AddResourceModalModule</title>
<path fill="none" stroke="black" d="M205.56,-84.91C205.56,-84.91 205.56,-103.79 205.56,-103.79"/>
<polygon fill="black" stroke="black" points="202.06,-103.79 205.56,-113.79 209.06,-103.79 202.06,-103.79"/>
</g>
<!-- AddResourceModalComponent  -->
<g id="node4" class="node">
<title>AddResourceModalComponent </title>
<polygon fill="#fb8072" stroke="black" points="279.58,-214.8 82.42,-214.8 82.42,-178.8 279.58,-178.8 279.58,-214.8"/>
<text text-anchor="middle" x="181" y="-192.6" font-family="Times,serif" font-size="14.00">AddResourceModalComponent </text>
</g>
<!-- AddResourceModalModule&#45;&gt;AddResourceModalComponent  -->
<g id="edge3" class="edge">
<title>AddResourceModalModule&#45;&gt;AddResourceModalComponent </title>
<path fill="none" stroke="black" stroke-dasharray="5,2" d="M181,-149.91C181,-149.91 181,-168.79 181,-168.79"/>
<polygon fill="black" stroke="black" points="177.5,-168.79 181,-178.79 184.5,-168.79 177.5,-168.79"/>
</g>
<!-- FormsModule -->
<g id="node3" class="node">
<title>FormsModule</title>
<polygon fill="#8dd3c7" stroke="black" points="119.84,-84.8 116.84,-88.8 95.84,-88.8 92.84,-84.8 24.16,-84.8 24.16,-48.8 119.84,-48.8 119.84,-84.8"/>
<text text-anchor="middle" x="72" y="-62.6" font-family="Times,serif" font-size="14.00">FormsModule</text>
</g>
<!-- FormsModule&#45;&gt;AddResourceModalModule -->
<g id="edge2" class="edge">
<title>FormsModule&#45;&gt;AddResourceModalModule</title>
<path fill="none" stroke="black" d="M107.26,-84.91C107.26,-84.91 107.26,-103.79 107.26,-103.79"/>
<polygon fill="black" stroke="black" points="103.76,-103.79 107.26,-113.79 110.76,-103.79 103.76,-103.79"/>
</g>
</g>
</svg>
