<?xml version="1.0" encoding="UTF-8" standalone="no"?>
<!DOCTYPE svg PUBLIC "-//W3C//DTD SVG 1.1//EN"
 "http://www.w3.org/Graphics/SVG/1.1/DTD/svg11.dtd">
<!-- Generated by graphviz version 2.47.0 (20210316.0004)
 -->
<!-- Title: dependencies Pages: 1 -->
<svg width="504pt" height="284pt"
 viewBox="0.00 0.00 504.00 284.00" xmlns="http://www.w3.org/2000/svg" xmlns:xlink="http://www.w3.org/1999/xlink">
<g id="graph0" class="graph" transform="scale(1 1) rotate(0) translate(4 280)">
<title>dependencies</title>
<polygon fill="white" stroke="transparent" points="-4,4 -4,-280 500,-280 500,4 -4,4"/>
<text text-anchor="start" x="227.01" y="-42.4" font-family="sans-serif" font-weight="bold" font-size="14.00">Legend</text>
<polygon fill="#ffffb3" stroke="transparent" points="14,-10 14,-30 34,-30 34,-10 14,-10"/>
<text text-anchor="start" x="37.63" y="-15.4" font-family="sans-serif" font-size="14.00"> &#160;Declarations</text>
<polygon fill="#8dd3c7" stroke="transparent" points="127,-10 127,-30 147,-30 147,-10 127,-10"/>
<text text-anchor="start" x="150.73" y="-15.4" font-family="sans-serif" font-size="14.00"> &#160;Module</text>
<polygon fill="#80b1d3" stroke="transparent" points="213,-10 213,-30 233,-30 233,-10 213,-10"/>
<text text-anchor="start" x="236.78" y="-15.4" font-family="sans-serif" font-size="14.00"> &#160;Bootstrap</text>
<polygon fill="#fdb462" stroke="transparent" points="310,-10 310,-30 330,-30 330,-10 310,-10"/>
<text text-anchor="start" x="333.67" y="-15.4" font-family="sans-serif" font-size="14.00"> &#160;Providers</text>
<polygon fill="#fb8072" stroke="transparent" points="406,-10 406,-30 426,-30 426,-10 406,-10"/>
<text text-anchor="start" x="429.73" y="-15.4" font-family="sans-serif" font-size="14.00"> &#160;Exports</text>
<g id="clust1" class="cluster">
<title>cluster_SafeRecordHistoryModule</title>
<polygon fill="none" stroke="black" stroke-dasharray="1,5" points="65,-70 65,-268 431,-268 431,-70 65,-70"/>
</g>
<g id="clust2" class="cluster">
<title>cluster_SafeRecordHistoryModule_declarations</title>
<polygon fill="none" stroke="black" points="219,-78 219,-130 423,-130 423,-78 219,-78"/>
</g>
<g id="clust5" class="cluster">
<title>cluster_SafeRecordHistoryModule_exports</title>
<polygon fill="none" stroke="black" points="144,-208 144,-260 352,-260 352,-208 144,-208"/>
</g>
<g id="clust4" class="cluster">
<title>cluster_SafeRecordHistoryModule_imports</title>
<polygon fill="none" stroke="black" points="73,-78 73,-130 211,-130 211,-78 73,-78"/>
</g>
<!-- SafeRecordHistoryComponent -->
<g id="node1" class="node">
<title>SafeRecordHistoryComponent</title>
<polygon fill="#ffffb3" stroke="black" points="415.12,-122 226.88,-122 226.88,-86 415.12,-86 415.12,-122"/>
<text text-anchor="middle" x="321" y="-99.8" font-family="Times,serif" font-size="14.00">SafeRecordHistoryComponent</text>
</g>
<!-- SafeRecordHistoryModule -->
<g id="node2" class="node">
<title>SafeRecordHistoryModule</title>
<polygon fill="#8dd3c7" stroke="black" points="331.34,-187 328.34,-191 307.34,-191 304.34,-187 164.66,-187 164.66,-151 331.34,-151 331.34,-187"/>
<text text-anchor="middle" x="248" y="-164.8" font-family="Times,serif" font-size="14.00">SafeRecordHistoryModule</text>
</g>
<!-- SafeRecordHistoryComponent&#45;&gt;SafeRecordHistoryModule -->
<g id="edge1" class="edge">
<title>SafeRecordHistoryComponent&#45;&gt;SafeRecordHistoryModule</title>
<path fill="none" stroke="black" d="M279.05,-122.11C279.05,-122.11 279.05,-140.99 279.05,-140.99"/>
<polygon fill="black" stroke="black" points="275.55,-140.99 279.05,-150.99 282.55,-140.99 275.55,-140.99"/>
</g>
<!-- SafeRecordHistoryComponent  -->
<g id="node4" class="node">
<title>SafeRecordHistoryComponent </title>
<polygon fill="#fb8072" stroke="black" points="344.12,-252 151.88,-252 151.88,-216 344.12,-216 344.12,-252"/>
<text text-anchor="middle" x="248" y="-229.8" font-family="Times,serif" font-size="14.00">SafeRecordHistoryComponent </text>
</g>
<!-- SafeRecordHistoryModule&#45;&gt;SafeRecordHistoryComponent  -->
<g id="edge3" class="edge">
<title>SafeRecordHistoryModule&#45;&gt;SafeRecordHistoryComponent </title>
<path fill="none" stroke="black" stroke-dasharray="5,2" d="M248,-187.11C248,-187.11 248,-205.99 248,-205.99"/>
<polygon fill="black" stroke="black" points="244.5,-205.99 248,-215.99 251.5,-205.99 244.5,-205.99"/>
</g>
<!-- SafeButtonModule -->
<g id="node3" class="node">
<title>SafeButtonModule</title>
<polygon fill="#8dd3c7" stroke="black" points="203.04,-122 200.04,-126 179.04,-126 176.04,-122 80.96,-122 80.96,-86 203.04,-86 203.04,-122"/>
<text text-anchor="middle" x="142" y="-99.8" font-family="Times,serif" font-size="14.00">SafeButtonModule</text>
</g>
<!-- SafeButtonModule&#45;&gt;SafeRecordHistoryModule -->
<g id="edge2" class="edge">
<title>SafeButtonModule&#45;&gt;SafeRecordHistoryModule</title>
<path fill="none" stroke="black" d="M183.92,-122.11C183.92,-122.11 183.92,-140.99 183.92,-140.99"/>
<polygon fill="black" stroke="black" points="180.42,-140.99 183.92,-150.99 187.42,-140.99 180.42,-140.99"/>
</g>
</g>
</svg>
