<?xml version="1.0" encoding="UTF-8" standalone="no"?>
<!DOCTYPE svg PUBLIC "-//W3C//DTD SVG 1.1//EN"
 "http://www.w3.org/Graphics/SVG/1.1/DTD/svg11.dtd">
<!-- Generated by graphviz version 3.0.0 (20220226.1711)
 -->
<!-- Title: dependencies Pages: 1 -->
<svg width="676pt" height="247pt"
 viewBox="0.00 0.00 676.00 246.80" xmlns="http://www.w3.org/2000/svg" xmlns:xlink="http://www.w3.org/1999/xlink">
<g id="graph0" class="graph" transform="scale(1 1) rotate(0) translate(4 242.8)">
<title>dependencies</title>
<polygon fill="white" stroke="transparent" points="-4,4 -4,-242.8 672,-242.8 672,4 -4,4"/>
<text text-anchor="middle" x="334" y="-8.2" font-family="sans-serif" font-size="14.00">dependencies</text>
<g id="clust1" class="cluster">
<title>cluster_SafeUserSummaryModule</title>
<polygon fill="none" stroke="black" stroke-dasharray="1,5" points="8,-32.8 8,-230.8 660,-230.8 660,-32.8 8,-32.8"/>
</g>
<g id="clust5" class="cluster">
<title>cluster_SafeUserSummaryModule_exports</title>
<polygon fill="none" stroke="black" points="192,-170.8 192,-222.8 398,-222.8 398,-170.8 192,-170.8"/>
</g>
<g id="clust2" class="cluster">
<title>cluster_SafeUserSummaryModule_declarations</title>
<polygon fill="none" stroke="black" points="448,-40.8 448,-92.8 652,-92.8 652,-40.8 448,-40.8"/>
</g>
<g id="clust4" class="cluster">
<title>cluster_SafeUserSummaryModule_imports</title>
<polygon fill="none" stroke="black" points="16,-40.8 16,-92.8 440,-92.8 440,-40.8 16,-40.8"/>
</g>
<!-- SafeUserSummaryComponent -->
<g id="node1" class="node">
<title>SafeUserSummaryComponent</title>
<polygon fill="#ffffb3" stroke="black" points="643.58,-84.8 456.42,-84.8 456.42,-48.8 643.58,-48.8 643.58,-84.8"/>
<text text-anchor="middle" x="550" y="-62.6" font-family="Times,serif" font-size="14.00">SafeUserSummaryComponent</text>
</g>
<!-- SafeUserSummaryModule -->
<g id="node2" class="node">
<title>SafeUserSummaryModule</title>
<polygon fill="#8dd3c7" stroke="black" points="377.8,-149.8 374.8,-153.8 353.8,-153.8 350.8,-149.8 212.2,-149.8 212.2,-113.8 377.8,-113.8 377.8,-149.8"/>
<text text-anchor="middle" x="295" y="-127.6" font-family="Times,serif" font-size="14.00">SafeUserSummaryModule</text>
</g>
<!-- SafeUserSummaryComponent&#45;&gt;SafeUserSummaryModule -->
<g id="edge1" class="edge">
<title>SafeUserSummaryComponent&#45;&gt;SafeUserSummaryModule</title>
<path fill="none" stroke="black" d="M550,-84.91C550,-104.14 550,-131.8 550,-131.8 550,-131.8 387.79,-131.8 387.79,-131.8"/>
<polygon fill="black" stroke="black" points="387.79,-128.3 377.79,-131.8 387.79,-135.3 387.79,-128.3"/>
</g>
<!-- SafeUserSummaryComponent  -->
<g id="node6" class="node">
<title>SafeUserSummaryComponent </title>
<polygon fill="#fb8072" stroke="black" points="390.08,-214.8 199.92,-214.8 199.92,-178.8 390.08,-178.8 390.08,-214.8"/>
<text text-anchor="middle" x="295" y="-192.6" font-family="Times,serif" font-size="14.00">SafeUserSummaryComponent </text>
</g>
<!-- SafeUserSummaryModule&#45;&gt;SafeUserSummaryComponent  -->
<g id="edge5" class="edge">
<title>SafeUserSummaryModule&#45;&gt;SafeUserSummaryComponent </title>
<path fill="none" stroke="black" stroke-dasharray="5,2" d="M295,-149.91C295,-149.91 295,-168.79 295,-168.79"/>
<polygon fill="black" stroke="black" points="291.5,-168.79 295,-178.79 298.5,-168.79 291.5,-168.79"/>
</g>
<!-- SafeSpinnerModule -->
<g id="node3" class="node">
<title>SafeSpinnerModule</title>
<polygon fill="#8dd3c7" stroke="black" points="431.98,-84.8 428.98,-88.8 407.98,-88.8 404.98,-84.8 304.02,-84.8 304.02,-48.8 431.98,-48.8 431.98,-84.8"/>
<text text-anchor="middle" x="368" y="-62.6" font-family="Times,serif" font-size="14.00">SafeSpinnerModule</text>
</g>
<!-- SafeSpinnerModule&#45;&gt;SafeUserSummaryModule -->
<g id="edge2" class="edge">
<title>SafeSpinnerModule&#45;&gt;SafeUserSummaryModule</title>
<path fill="none" stroke="black" d="M340.83,-84.91C340.83,-84.91 340.83,-103.79 340.83,-103.79"/>
<polygon fill="black" stroke="black" points="337.33,-103.79 340.83,-113.79 344.33,-103.79 337.33,-103.79"/>
</g>
<!-- UserDetailsModule -->
<g id="node4" class="node">
<title>UserDetailsModule</title>
<polygon fill="#8dd3c7" stroke="black" points="285.64,-84.8 282.64,-88.8 261.64,-88.8 258.64,-84.8 160.36,-84.8 160.36,-48.8 285.64,-48.8 285.64,-84.8"/>
<text text-anchor="middle" x="223" y="-62.6" font-family="Times,serif" font-size="14.00">UserDetailsModule</text>
</g>
<!-- UserDetailsModule&#45;&gt;SafeUserSummaryModule -->
<g id="edge3" class="edge">
<title>UserDetailsModule&#45;&gt;SafeUserSummaryModule</title>
<path fill="none" stroke="black" d="M249.08,-84.91C249.08,-84.91 249.08,-103.79 249.08,-103.79"/>
<polygon fill="black" stroke="black" points="245.58,-103.79 249.08,-113.79 252.58,-103.79 245.58,-103.79"/>
</g>
<!-- UserRolesModule -->
<g id="node5" class="node">
<title>UserRolesModule</title>
<polygon fill="#8dd3c7" stroke="black" points="141.88,-84.8 138.88,-88.8 117.88,-88.8 114.88,-84.8 24.12,-84.8 24.12,-48.8 141.88,-48.8 141.88,-84.8"/>
<text text-anchor="middle" x="83" y="-62.6" font-family="Times,serif" font-size="14.00">UserRolesModule</text>
</g>
<!-- UserRolesModule&#45;&gt;SafeUserSummaryModule -->
<g id="edge4" class="edge">
<title>UserRolesModule&#45;&gt;SafeUserSummaryModule</title>
<path fill="none" stroke="black" d="M83,-84.91C83,-104.14 83,-131.8 83,-131.8 83,-131.8 202.12,-131.8 202.12,-131.8"/>
<polygon fill="black" stroke="black" points="202.12,-135.3 212.12,-131.8 202.12,-128.3 202.12,-135.3"/>
</g>
</g>
</svg>
