<?xml version="1.0" encoding="UTF-8" standalone="no"?>
<!DOCTYPE svg PUBLIC "-//W3C//DTD SVG 1.1//EN"
 "http://www.w3.org/Graphics/SVG/1.1/DTD/svg11.dtd">
<!-- Generated by graphviz version 3.0.0 (20220226.1711)
 -->
<!-- Title: dependencies Pages: 1 -->
<svg width="676pt" height="247pt"
 viewBox="0.00 0.00 676.00 246.80" xmlns="http://www.w3.org/2000/svg" xmlns:xlink="http://www.w3.org/1999/xlink">
<g id="graph0" class="graph" transform="scale(1 1) rotate(0) translate(4 242.8)">
<title>dependencies</title>
<polygon fill="white" stroke="transparent" points="-4,4 -4,-242.8 672,-242.8 672,4 -4,4"/>
<text text-anchor="middle" x="334" y="-8.2" font-family="sans-serif" font-size="14.00">dependencies</text>
<g id="clust1" class="cluster">
<title>cluster_SafeUserSummaryModule</title>
<polygon fill="none" stroke="black" stroke-dasharray="1,5" points="8,-32.8 8,-230.8 660,-230.8 660,-32.8 8,-32.8"/>
</g>
<g id="clust4" class="cluster">
<title>cluster_SafeUserSummaryModule_imports</title>
<polygon fill="none" stroke="black" points="228,-40.8 228,-92.8 652,-92.8 652,-40.8 228,-40.8"/>
</g>
<g id="clust2" class="cluster">
<title>cluster_SafeUserSummaryModule_declarations</title>
<polygon fill="none" stroke="black" points="16,-40.8 16,-92.8 220,-92.8 220,-40.8 16,-40.8"/>
</g>
<g id="clust5" class="cluster">
<title>cluster_SafeUserSummaryModule_exports</title>
<polygon fill="none" stroke="black" points="262,-170.8 262,-222.8 468,-222.8 468,-170.8 262,-170.8"/>
</g>
<!-- SafeUserSummaryComponent -->
<g id="node1" class="node">
<title>SafeUserSummaryComponent</title>
<polygon fill="#ffffb3" stroke="black" points="211.58,-84.8 24.42,-84.8 24.42,-48.8 211.58,-48.8 211.58,-84.8"/>
<text text-anchor="middle" x="118" y="-62.6" font-family="Times,serif" font-size="14.00">SafeUserSummaryComponent</text>
</g>
<!-- SafeUserSummaryModule -->
<g id="node2" class="node">
<title>SafeUserSummaryModule</title>
<polygon fill="#8dd3c7" stroke="black" points="447.8,-149.8 444.8,-153.8 423.8,-153.8 420.8,-149.8 282.2,-149.8 282.2,-113.8 447.8,-113.8 447.8,-149.8"/>
<text text-anchor="middle" x="365" y="-127.6" font-family="Times,serif" font-size="14.00">SafeUserSummaryModule</text>
</g>
<!-- SafeUserSummaryComponent&#45;&gt;SafeUserSummaryModule -->
<g id="edge1" class="edge">
<title>SafeUserSummaryComponent&#45;&gt;SafeUserSummaryModule</title>
<path fill="none" stroke="black" d="M118,-84.91C118,-104.14 118,-131.8 118,-131.8 118,-131.8 272.07,-131.8 272.07,-131.8"/>
<polygon fill="black" stroke="black" points="272.07,-135.3 282.07,-131.8 272.07,-128.3 272.07,-135.3"/>
</g>
<!-- SafeUserSummaryComponent  -->
<g id="node6" class="node">
<title>SafeUserSummaryComponent </title>
<polygon fill="#fb8072" stroke="black" points="460.08,-214.8 269.92,-214.8 269.92,-178.8 460.08,-178.8 460.08,-214.8"/>
<text text-anchor="middle" x="365" y="-192.6" font-family="Times,serif" font-size="14.00">SafeUserSummaryComponent </text>
</g>
<!-- SafeUserSummaryModule&#45;&gt;SafeUserSummaryComponent  -->
<g id="edge5" class="edge">
<title>SafeUserSummaryModule&#45;&gt;SafeUserSummaryComponent </title>
<path fill="none" stroke="black" stroke-dasharray="5,2" d="M365,-149.91C365,-149.91 365,-168.79 365,-168.79"/>
<polygon fill="black" stroke="black" points="361.5,-168.79 365,-178.79 368.5,-168.79 361.5,-168.79"/>
</g>
<!-- SafeSpinnerModule -->
<g id="node3" class="node">
<title>SafeSpinnerModule</title>
<polygon fill="#8dd3c7" stroke="black" points="643.98,-84.8 640.98,-88.8 619.98,-88.8 616.98,-84.8 516.02,-84.8 516.02,-48.8 643.98,-48.8 643.98,-84.8"/>
<text text-anchor="middle" x="580" y="-62.6" font-family="Times,serif" font-size="14.00">SafeSpinnerModule</text>
</g>
<!-- SafeSpinnerModule&#45;&gt;SafeUserSummaryModule -->
<g id="edge2" class="edge">
<title>SafeSpinnerModule&#45;&gt;SafeUserSummaryModule</title>
<path fill="none" stroke="black" d="M580,-84.91C580,-104.14 580,-131.8 580,-131.8 580,-131.8 457.82,-131.8 457.82,-131.8"/>
<polygon fill="black" stroke="black" points="457.82,-128.3 447.82,-131.8 457.82,-135.3 457.82,-128.3"/>
</g>
<!-- UserDetailsModule -->
<g id="node4" class="node">
<title>UserDetailsModule</title>
<polygon fill="#8dd3c7" stroke="black" points="497.64,-84.8 494.64,-88.8 473.64,-88.8 470.64,-84.8 372.36,-84.8 372.36,-48.8 497.64,-48.8 497.64,-84.8"/>
<text text-anchor="middle" x="435" y="-62.6" font-family="Times,serif" font-size="14.00">UserDetailsModule</text>
</g>
<!-- UserDetailsModule&#45;&gt;SafeUserSummaryModule -->
<g id="edge3" class="edge">
<title>UserDetailsModule&#45;&gt;SafeUserSummaryModule</title>
<path fill="none" stroke="black" d="M409.92,-84.91C409.92,-84.91 409.92,-103.79 409.92,-103.79"/>
<polygon fill="black" stroke="black" points="406.42,-103.79 409.92,-113.79 413.42,-103.79 406.42,-103.79"/>
</g>
<!-- UserRolesModule -->
<g id="node5" class="node">
<title>UserRolesModule</title>
<polygon fill="#8dd3c7" stroke="black" points="353.88,-84.8 350.88,-88.8 329.88,-88.8 326.88,-84.8 236.12,-84.8 236.12,-48.8 353.88,-48.8 353.88,-84.8"/>
<text text-anchor="middle" x="295" y="-62.6" font-family="Times,serif" font-size="14.00">UserRolesModule</text>
</g>
<!-- UserRolesModule&#45;&gt;SafeUserSummaryModule -->
<g id="edge4" class="edge">
<title>UserRolesModule&#45;&gt;SafeUserSummaryModule</title>
<path fill="none" stroke="black" d="M318.14,-84.91C318.14,-84.91 318.14,-103.79 318.14,-103.79"/>
<polygon fill="black" stroke="black" points="314.64,-103.79 318.14,-113.79 321.64,-103.79 314.64,-103.79"/>
</g>
</g>
</svg>
