<?xml version="1.0" encoding="UTF-8" standalone="no"?>
<!DOCTYPE svg PUBLIC "-//W3C//DTD SVG 1.1//EN"
 "http://www.w3.org/Graphics/SVG/1.1/DTD/svg11.dtd">
<!-- Generated by graphviz version 3.0.0 (20220226.1711)
 -->
<!-- Title: dependencies Pages: 1 -->
<svg width="524pt" height="247pt"
 viewBox="0.00 0.00 524.00 246.80" xmlns="http://www.w3.org/2000/svg" xmlns:xlink="http://www.w3.org/1999/xlink">
<g id="graph0" class="graph" transform="scale(1 1) rotate(0) translate(4 242.8)">
<title>dependencies</title>
<polygon fill="white" stroke="transparent" points="-4,4 -4,-242.8 520,-242.8 520,4 -4,4"/>
<text text-anchor="middle" x="258" y="-8.2" font-family="sans-serif" font-size="14.00">dependencies</text>
<g id="clust1" class="cluster">
<title>cluster_SafeSearchMenuModule</title>
<polygon fill="none" stroke="black" stroke-dasharray="1,5" points="8,-32.8 8,-230.8 508,-230.8 508,-32.8 8,-32.8"/>
</g>
<g id="clust4" class="cluster">
<title>cluster_SafeSearchMenuModule_imports</title>
<polygon fill="none" stroke="black" points="216,-40.8 216,-92.8 500,-92.8 500,-40.8 216,-40.8"/>
</g>
<g id="clust5" class="cluster">
<title>cluster_SafeSearchMenuModule_exports</title>
<polygon fill="none" stroke="black" points="190,-170.8 190,-222.8 386,-222.8 386,-170.8 190,-170.8"/>
</g>
<g id="clust2" class="cluster">
<title>cluster_SafeSearchMenuModule_declarations</title>
<polygon fill="none" stroke="black" points="16,-40.8 16,-92.8 208,-92.8 208,-40.8 16,-40.8"/>
</g>
<!-- SafeSearchMenuComponent -->
<g id="node1" class="node">
<title>SafeSearchMenuComponent</title>
<polygon fill="#ffffb3" stroke="black" points="200.46,-84.8 23.54,-84.8 23.54,-48.8 200.46,-48.8 200.46,-84.8"/>
<text text-anchor="middle" x="112" y="-62.6" font-family="Times,serif" font-size="14.00">SafeSearchMenuComponent</text>
</g>
<!-- SafeSearchMenuModule -->
<g id="node2" class="node">
<title>SafeSearchMenuModule</title>
<polygon fill="#8dd3c7" stroke="black" points="365.68,-149.8 362.68,-153.8 341.68,-153.8 338.68,-149.8 210.32,-149.8 210.32,-113.8 365.68,-113.8 365.68,-149.8"/>
<text text-anchor="middle" x="288" y="-127.6" font-family="Times,serif" font-size="14.00">SafeSearchMenuModule</text>
</g>
<!-- SafeSearchMenuComponent&#45;&gt;SafeSearchMenuModule -->
<g id="edge1" class="edge">
<title>SafeSearchMenuComponent&#45;&gt;SafeSearchMenuModule</title>
<path fill="none" stroke="black" d="M200.47,-66.8C210.61,-66.8 217.41,-66.8 217.41,-66.8 217.41,-66.8 217.41,-103.69 217.41,-103.69"/>
<polygon fill="black" stroke="black" points="213.91,-103.69 217.41,-113.69 220.91,-103.69 213.91,-103.69"/>
</g>
<!-- SafeSearchMenuComponent  -->
<g id="node5" class="node">
<title>SafeSearchMenuComponent </title>
<polygon fill="#fb8072" stroke="black" points="378.46,-214.8 197.54,-214.8 197.54,-178.8 378.46,-178.8 378.46,-214.8"/>
<text text-anchor="middle" x="288" y="-192.6" font-family="Times,serif" font-size="14.00">SafeSearchMenuComponent </text>
</g>
<!-- SafeSearchMenuModule&#45;&gt;SafeSearchMenuComponent  -->
<g id="edge4" class="edge">
<title>SafeSearchMenuModule&#45;&gt;SafeSearchMenuComponent </title>
<path fill="none" stroke="black" stroke-dasharray="5,2" d="M288,-149.91C288,-149.91 288,-168.79 288,-168.79"/>
<polygon fill="black" stroke="black" points="284.5,-168.79 288,-178.79 291.5,-168.79 284.5,-168.79"/>
</g>
<!-- SafeButtonModule -->
<g id="node3" class="node">
<title>SafeButtonModule</title>
<polygon fill="#8dd3c7" stroke="black" points="492.05,-84.8 489.05,-88.8 468.05,-88.8 465.05,-84.8 369.95,-84.8 369.95,-48.8 492.05,-48.8 492.05,-84.8"/>
<text text-anchor="middle" x="431" y="-62.6" font-family="Times,serif" font-size="14.00">SafeButtonModule</text>
</g>
<!-- SafeButtonModule&#45;&gt;SafeSearchMenuModule -->
<g id="edge2" class="edge">
<title>SafeButtonModule&#45;&gt;SafeSearchMenuModule</title>
<path fill="none" stroke="black" d="M373.98,-84.91C373.98,-104.14 373.98,-131.8 373.98,-131.8 373.98,-131.8 373.15,-131.8 373.15,-131.8"/>
<polygon fill="black" stroke="black" points="375.73,-128.3 365.73,-131.8 375.73,-135.3 375.73,-128.3"/>
</g>
<!-- SafeDividerModule -->
<g id="node4" class="node">
<title>SafeDividerModule</title>
<polygon fill="#8dd3c7" stroke="black" points="351.69,-84.8 348.69,-88.8 327.69,-88.8 324.69,-84.8 224.31,-84.8 224.31,-48.8 351.69,-48.8 351.69,-84.8"/>
<text text-anchor="middle" x="288" y="-62.6" font-family="Times,serif" font-size="14.00">SafeDividerModule</text>
</g>
<!-- SafeDividerModule&#45;&gt;SafeSearchMenuModule -->
<g id="edge3" class="edge">
<title>SafeDividerModule&#45;&gt;SafeSearchMenuModule</title>
<path fill="none" stroke="black" d="M288,-84.91C288,-84.91 288,-103.79 288,-103.79"/>
<polygon fill="black" stroke="black" points="284.5,-103.79 288,-113.79 291.5,-103.79 284.5,-103.79"/>
</g>
</g>
</svg>
