<?xml version="1.0" encoding="UTF-8" standalone="no"?>
<!DOCTYPE svg PUBLIC "-//W3C//DTD SVG 1.1//EN"
 "http://www.w3.org/Graphics/SVG/1.1/DTD/svg11.dtd">
<!-- Generated by graphviz version 3.0.0 (20220226.1711)
 -->
<!-- Title: dependencies Pages: 1 -->
<svg width="524pt" height="247pt"
 viewBox="0.00 0.00 524.00 246.80" xmlns="http://www.w3.org/2000/svg" xmlns:xlink="http://www.w3.org/1999/xlink">
<g id="graph0" class="graph" transform="scale(1 1) rotate(0) translate(4 242.8)">
<title>dependencies</title>
<polygon fill="white" stroke="transparent" points="-4,4 -4,-242.8 520,-242.8 520,4 -4,4"/>
<text text-anchor="middle" x="258" y="-8.2" font-family="sans-serif" font-size="14.00">dependencies</text>
<g id="clust1" class="cluster">
<title>cluster_SafeSearchMenuModule</title>
<polygon fill="none" stroke="black" stroke-dasharray="1,5" points="8,-32.8 8,-230.8 508,-230.8 508,-32.8 8,-32.8"/>
</g>
<g id="clust2" class="cluster">
<title>cluster_SafeSearchMenuModule_declarations</title>
<polygon fill="none" stroke="black" points="308,-40.8 308,-92.8 500,-92.8 500,-40.8 308,-40.8"/>
</g>
<g id="clust5" class="cluster">
<title>cluster_SafeSearchMenuModule_exports</title>
<polygon fill="none" stroke="black" points="133,-170.8 133,-222.8 329,-222.8 329,-170.8 133,-170.8"/>
</g>
<g id="clust4" class="cluster">
<title>cluster_SafeSearchMenuModule_imports</title>
<polygon fill="none" stroke="black" points="16,-40.8 16,-92.8 300,-92.8 300,-40.8 16,-40.8"/>
</g>
<!-- SafeSearchMenuComponent -->
<g id="node1" class="node">
<title>SafeSearchMenuComponent</title>
<polygon fill="#ffffb3" stroke="black" points="492.46,-84.8 315.54,-84.8 315.54,-48.8 492.46,-48.8 492.46,-84.8"/>
<text text-anchor="middle" x="404" y="-62.6" font-family="Times,serif" font-size="14.00">SafeSearchMenuComponent</text>
</g>
<!-- SafeSearchMenuModule -->
<g id="node2" class="node">
<title>SafeSearchMenuModule</title>
<polygon fill="#8dd3c7" stroke="black" points="308.68,-149.8 305.68,-153.8 284.68,-153.8 281.68,-149.8 153.32,-149.8 153.32,-113.8 308.68,-113.8 308.68,-149.8"/>
<text text-anchor="middle" x="231" y="-127.6" font-family="Times,serif" font-size="14.00">SafeSearchMenuModule</text>
</g>
<!-- SafeSearchMenuComponent&#45;&gt;SafeSearchMenuModule -->
<g id="edge1" class="edge">
<title>SafeSearchMenuComponent&#45;&gt;SafeSearchMenuModule</title>
<path fill="none" stroke="black" d="M315.27,-66.8C306.31,-66.8 300.43,-66.8 300.43,-66.8 300.43,-66.8 300.43,-103.69 300.43,-103.69"/>
<polygon fill="black" stroke="black" points="296.93,-103.69 300.43,-113.69 303.93,-103.69 296.93,-103.69"/>
</g>
<!-- SafeSearchMenuComponent  -->
<g id="node5" class="node">
<title>SafeSearchMenuComponent </title>
<polygon fill="#fb8072" stroke="black" points="321.46,-214.8 140.54,-214.8 140.54,-178.8 321.46,-178.8 321.46,-214.8"/>
<text text-anchor="middle" x="231" y="-192.6" font-family="Times,serif" font-size="14.00">SafeSearchMenuComponent </text>
</g>
<!-- SafeSearchMenuModule&#45;&gt;SafeSearchMenuComponent  -->
<g id="edge4" class="edge">
<title>SafeSearchMenuModule&#45;&gt;SafeSearchMenuComponent </title>
<path fill="none" stroke="black" stroke-dasharray="5,2" d="M231,-149.91C231,-149.91 231,-168.79 231,-168.79"/>
<polygon fill="black" stroke="black" points="227.5,-168.79 231,-178.79 234.5,-168.79 227.5,-168.79"/>
</g>
<!-- SafeButtonModule -->
<g id="node3" class="node">
<title>SafeButtonModule</title>
<polygon fill="#8dd3c7" stroke="black" points="292.05,-84.8 289.05,-88.8 268.05,-88.8 265.05,-84.8 169.95,-84.8 169.95,-48.8 292.05,-48.8 292.05,-84.8"/>
<text text-anchor="middle" x="231" y="-62.6" font-family="Times,serif" font-size="14.00">SafeButtonModule</text>
</g>
<!-- SafeButtonModule&#45;&gt;SafeSearchMenuModule -->
<g id="edge2" class="edge">
<title>SafeButtonModule&#45;&gt;SafeSearchMenuModule</title>
<path fill="none" stroke="black" d="M231,-84.91C231,-84.91 231,-103.79 231,-103.79"/>
<polygon fill="black" stroke="black" points="227.5,-103.79 231,-113.79 234.5,-103.79 227.5,-103.79"/>
</g>
<!-- SafeDividerModule -->
<g id="node4" class="node">
<title>SafeDividerModule</title>
<polygon fill="#8dd3c7" stroke="black" points="151.69,-84.8 148.69,-88.8 127.69,-88.8 124.69,-84.8 24.31,-84.8 24.31,-48.8 151.69,-48.8 151.69,-84.8"/>
<text text-anchor="middle" x="88" y="-62.6" font-family="Times,serif" font-size="14.00">SafeDividerModule</text>
</g>
<!-- SafeDividerModule&#45;&gt;SafeSearchMenuModule -->
<g id="edge3" class="edge">
<title>SafeDividerModule&#45;&gt;SafeSearchMenuModule</title>
<path fill="none" stroke="black" d="M146.18,-84.91C146.18,-104.14 146.18,-131.8 146.18,-131.8 146.18,-131.8 146.88,-131.8 146.88,-131.8"/>
<polygon fill="black" stroke="black" points="143.12,-135.3 153.12,-131.8 143.12,-128.3 143.12,-135.3"/>
</g>
</g>
</svg>
