<?xml version="1.0" encoding="UTF-8" standalone="no"?>
<!DOCTYPE svg PUBLIC "-//W3C//DTD SVG 1.1//EN"
 "http://www.w3.org/Graphics/SVG/1.1/DTD/svg11.dtd">
<!-- Generated by graphviz version 3.0.0 (20220226.1711)
 -->
<!-- Title: dependencies Pages: 1 -->
<svg width="711pt" height="247pt"
 viewBox="0.00 0.00 711.00 246.80" xmlns="http://www.w3.org/2000/svg" xmlns:xlink="http://www.w3.org/1999/xlink">
<g id="graph0" class="graph" transform="scale(1 1) rotate(0) translate(4 242.8)">
<title>dependencies</title>
<polygon fill="white" stroke="transparent" points="-4,4 -4,-242.8 707,-242.8 707,4 -4,4"/>
<text text-anchor="middle" x="351.5" y="-8.2" font-family="sans-serif" font-size="14.00">dependencies</text>
<g id="clust1" class="cluster">
<title>cluster_LayoutsParametersModule</title>
<polygon fill="none" stroke="black" stroke-dasharray="1,5" points="8,-32.8 8,-230.8 695,-230.8 695,-32.8 8,-32.8"/>
</g>
<g id="clust2" class="cluster">
<title>cluster_LayoutsParametersModule_declarations</title>
<polygon fill="none" stroke="black" points="483,-40.8 483,-92.8 687,-92.8 687,-40.8 483,-40.8"/>
</g>
<g id="clust4" class="cluster">
<title>cluster_LayoutsParametersModule_imports</title>
<polygon fill="none" stroke="black" points="16,-40.8 16,-92.8 475,-92.8 475,-40.8 16,-40.8"/>
</g>
<g id="clust5" class="cluster">
<title>cluster_LayoutsParametersModule_exports</title>
<polygon fill="none" stroke="black" points="230,-170.8 230,-222.8 438,-222.8 438,-170.8 230,-170.8"/>
</g>
<!-- LayoutsParametersComponent -->
<g id="node1" class="node">
<title>LayoutsParametersComponent</title>
<polygon fill="#ffffb3" stroke="black" points="679.13,-84.8 490.87,-84.8 490.87,-48.8 679.13,-48.8 679.13,-84.8"/>
<text text-anchor="middle" x="585" y="-62.6" font-family="Times,serif" font-size="14.00">LayoutsParametersComponent</text>
</g>
<!-- LayoutsParametersModule -->
<g id="node2" class="node">
<title>LayoutsParametersModule</title>
<polygon fill="#8dd3c7" stroke="black" points="417.35,-149.8 414.35,-153.8 393.35,-153.8 390.35,-149.8 250.65,-149.8 250.65,-113.8 417.35,-113.8 417.35,-149.8"/>
<text text-anchor="middle" x="334" y="-127.6" font-family="Times,serif" font-size="14.00">LayoutsParametersModule</text>
</g>
<!-- LayoutsParametersComponent&#45;&gt;LayoutsParametersModule -->
<g id="edge1" class="edge">
<title>LayoutsParametersComponent&#45;&gt;LayoutsParametersModule</title>
<path fill="none" stroke="black" d="M585,-84.91C585,-104.14 585,-131.8 585,-131.8 585,-131.8 427.58,-131.8 427.58,-131.8"/>
<polygon fill="black" stroke="black" points="427.58,-128.3 417.58,-131.8 427.58,-135.3 427.58,-128.3"/>
</g>
<!-- LayoutsParametersComponent  -->
<g id="node6" class="node">
<title>LayoutsParametersComponent </title>
<polygon fill="#fb8072" stroke="black" points="430.13,-214.8 237.87,-214.8 237.87,-178.8 430.13,-178.8 430.13,-214.8"/>
<text text-anchor="middle" x="334" y="-192.6" font-family="Times,serif" font-size="14.00">LayoutsParametersComponent </text>
</g>
<!-- LayoutsParametersModule&#45;&gt;LayoutsParametersComponent  -->
<g id="edge5" class="edge">
<title>LayoutsParametersModule&#45;&gt;LayoutsParametersComponent </title>
<path fill="none" stroke="black" stroke-dasharray="5,2" d="M334,-149.91C334,-149.91 334,-168.79 334,-168.79"/>
<polygon fill="black" stroke="black" points="330.5,-168.79 334,-178.79 337.5,-168.79 330.5,-168.79"/>
</g>
<!-- AddLayoutModule -->
<g id="node3" class="node">
<title>AddLayoutModule</title>
<polygon fill="#8dd3c7" stroke="black" points="466.82,-84.8 463.82,-88.8 442.82,-88.8 439.82,-84.8 343.18,-84.8 343.18,-48.8 466.82,-48.8 466.82,-84.8"/>
<text text-anchor="middle" x="405" y="-62.6" font-family="Times,serif" font-size="14.00">AddLayoutModule</text>
</g>
<!-- AddLayoutModule&#45;&gt;LayoutsParametersModule -->
<g id="edge2" class="edge">
<title>AddLayoutModule&#45;&gt;LayoutsParametersModule</title>
<path fill="none" stroke="black" d="M380.38,-84.91C380.38,-84.91 380.38,-103.79 380.38,-103.79"/>
<polygon fill="black" stroke="black" points="376.88,-103.79 380.38,-113.79 383.88,-103.79 376.88,-103.79"/>
</g>
<!-- SafeButtonModule -->
<g id="node4" class="node">
<title>SafeButtonModule</title>
<polygon fill="#8dd3c7" stroke="black" points="325.05,-84.8 322.05,-88.8 301.05,-88.8 298.05,-84.8 202.95,-84.8 202.95,-48.8 325.05,-48.8 325.05,-84.8"/>
<text text-anchor="middle" x="264" y="-62.6" font-family="Times,serif" font-size="14.00">SafeButtonModule</text>
</g>
<!-- SafeButtonModule&#45;&gt;LayoutsParametersModule -->
<g id="edge3" class="edge">
<title>SafeButtonModule&#45;&gt;LayoutsParametersModule</title>
<path fill="none" stroke="black" d="M287.92,-84.91C287.92,-84.91 287.92,-103.79 287.92,-103.79"/>
<polygon fill="black" stroke="black" points="284.42,-103.79 287.92,-113.79 291.42,-103.79 284.42,-103.79"/>
</g>
<!-- SafeLayoutModalModule -->
<g id="node5" class="node">
<title>SafeLayoutModalModule</title>
<polygon fill="#8dd3c7" stroke="black" points="184.14,-84.8 181.14,-88.8 160.14,-88.8 157.14,-84.8 23.86,-84.8 23.86,-48.8 184.14,-48.8 184.14,-84.8"/>
<text text-anchor="middle" x="104" y="-62.6" font-family="Times,serif" font-size="14.00">SafeLayoutModalModule</text>
</g>
<!-- SafeLayoutModalModule&#45;&gt;LayoutsParametersModule -->
<g id="edge4" class="edge">
<title>SafeLayoutModalModule&#45;&gt;LayoutsParametersModule</title>
<path fill="none" stroke="black" d="M104,-84.91C104,-104.14 104,-131.8 104,-131.8 104,-131.8 240.64,-131.8 240.64,-131.8"/>
<polygon fill="black" stroke="black" points="240.64,-135.3 250.64,-131.8 240.64,-128.3 240.64,-135.3"/>
</g>
</g>
</svg>
