<?xml version="1.0" encoding="UTF-8" standalone="no"?>
<!DOCTYPE svg PUBLIC "-//W3C//DTD SVG 1.1//EN"
 "http://www.w3.org/Graphics/SVG/1.1/DTD/svg11.dtd">
<!-- Generated by graphviz version 3.0.0 (20220226.1711)
 -->
<!-- Title: dependencies Pages: 1 -->
<svg width="1446pt" height="247pt"
 viewBox="0.00 0.00 1446.00 246.80" xmlns="http://www.w3.org/2000/svg" xmlns:xlink="http://www.w3.org/1999/xlink">
<g id="graph0" class="graph" transform="scale(1 1) rotate(0) translate(4 242.8)">
<title>dependencies</title>
<polygon fill="white" stroke="transparent" points="-4,4 -4,-242.8 1442,-242.8 1442,4 -4,4"/>
<text text-anchor="middle" x="719" y="-8.2" font-family="sans-serif" font-size="14.00">dependencies</text>
<g id="clust1" class="cluster">
<title>cluster_SafeApplicationsSummaryModule</title>
<polygon fill="none" stroke="black" stroke-dasharray="1,5" points="8,-32.8 8,-230.8 1430,-230.8 1430,-32.8 8,-32.8"/>
</g>
<g id="clust6" class="cluster">
<title>cluster_SafeApplicationsSummaryModule_imports</title>
<polygon fill="none" stroke="black" points="731,-40.8 731,-92.8 1422,-92.8 1422,-40.8 731,-40.8"/>
</g>
<g id="clust7" class="cluster">
<title>cluster_SafeApplicationsSummaryModule_exports</title>
<polygon fill="none" stroke="black" points="498,-170.8 498,-222.8 1216,-222.8 1216,-170.8 498,-170.8"/>
</g>
<g id="clust2" class="cluster">
<title>cluster_SafeApplicationsSummaryModule_declarations</title>
<polygon fill="none" stroke="black" points="16,-40.8 16,-92.8 723,-92.8 723,-40.8 16,-40.8"/>
</g>
<!-- SafeAddApplicationComponent -->
<g id="node1" class="node">
<title>SafeAddApplicationComponent</title>
<polygon fill="#ffffb3" stroke="black" points="715.41,-84.8 518.59,-84.8 518.59,-48.8 715.41,-48.8 715.41,-84.8"/>
<text text-anchor="middle" x="617" y="-62.6" font-family="Times,serif" font-size="14.00">SafeAddApplicationComponent</text>
</g>
<!-- SafeApplicationsSummaryModule -->
<g id="node4" class="node">
<title>SafeApplicationsSummaryModule</title>
<polygon fill="#8dd3c7" stroke="black" points="980.41,-149.8 977.41,-153.8 956.41,-153.8 953.41,-149.8 769.59,-149.8 769.59,-113.8 980.41,-113.8 980.41,-149.8"/>
<text text-anchor="middle" x="875" y="-127.6" font-family="Times,serif" font-size="14.00">SafeApplicationsSummaryModule</text>
</g>
<!-- SafeAddApplicationComponent&#45;&gt;SafeApplicationsSummaryModule -->
<g id="edge1" class="edge">
<title>SafeAddApplicationComponent&#45;&gt;SafeApplicationsSummaryModule</title>
<path fill="none" stroke="black" d="M617,-84.81C617,-100.85 617,-121.8 617,-121.8 617,-121.8 759.69,-121.8 759.69,-121.8"/>
<polygon fill="black" stroke="black" points="759.69,-125.3 769.69,-121.8 759.69,-118.3 759.69,-125.3"/>
</g>
<!-- SafeApplicationSummaryComponent -->
<g id="node2" class="node">
<title>SafeApplicationSummaryComponent</title>
<polygon fill="#ffffb3" stroke="black" points="500.25,-84.8 273.75,-84.8 273.75,-48.8 500.25,-48.8 500.25,-84.8"/>
<text text-anchor="middle" x="387" y="-62.6" font-family="Times,serif" font-size="14.00">SafeApplicationSummaryComponent</text>
</g>
<!-- SafeApplicationSummaryComponent&#45;&gt;SafeApplicationsSummaryModule -->
<g id="edge2" class="edge">
<title>SafeApplicationSummaryComponent&#45;&gt;SafeApplicationsSummaryModule</title>
<path fill="none" stroke="black" d="M387,-85.07C387,-103.36 387,-128.8 387,-128.8 387,-128.8 759.71,-128.8 759.71,-128.8"/>
<polygon fill="black" stroke="black" points="759.71,-132.3 769.71,-128.8 759.71,-125.3 759.71,-132.3"/>
</g>
<!-- SafeApplicationsSummaryComponent -->
<g id="node3" class="node">
<title>SafeApplicationsSummaryComponent</title>
<polygon fill="#ffffb3" stroke="black" points="256.19,-84.8 23.81,-84.8 23.81,-48.8 256.19,-48.8 256.19,-84.8"/>
<text text-anchor="middle" x="140" y="-62.6" font-family="Times,serif" font-size="14.00">SafeApplicationsSummaryComponent</text>
</g>
<!-- SafeApplicationsSummaryComponent&#45;&gt;SafeApplicationsSummaryModule -->
<g id="edge3" class="edge">
<title>SafeApplicationsSummaryComponent&#45;&gt;SafeApplicationsSummaryModule</title>
<path fill="none" stroke="black" d="M140,-84.93C140,-105.37 140,-135.8 140,-135.8 140,-135.8 759.69,-135.8 759.69,-135.8"/>
<polygon fill="black" stroke="black" points="759.69,-139.3 769.69,-135.8 759.69,-132.3 759.69,-139.3"/>
</g>
<!-- SafeAddApplicationComponent  -->
<g id="node10" class="node">
<title>SafeAddApplicationComponent </title>
<polygon fill="#fb8072" stroke="black" points="1207.91,-214.8 1008.09,-214.8 1008.09,-178.8 1207.91,-178.8 1207.91,-214.8"/>
<text text-anchor="middle" x="1108" y="-192.6" font-family="Times,serif" font-size="14.00">SafeAddApplicationComponent </text>
</g>
<!-- SafeApplicationsSummaryModule&#45;&gt;SafeAddApplicationComponent  -->
<g id="edge9" class="edge">
<title>SafeApplicationsSummaryModule&#45;&gt;SafeAddApplicationComponent </title>
<path fill="none" stroke="black" stroke-dasharray="5,2" d="M980.43,-142.8C999.1,-142.8 1012.72,-142.8 1012.72,-142.8 1012.72,-142.8 1012.72,-168.52 1012.72,-168.52"/>
<polygon fill="black" stroke="black" points="1009.22,-168.52 1012.72,-178.52 1016.22,-168.52 1009.22,-168.52"/>
</g>
<!-- SafeApplicationSummaryComponent  -->
<g id="node11" class="node">
<title>SafeApplicationSummaryComponent </title>
<polygon fill="#fb8072" stroke="black" points="990.25,-214.8 759.75,-214.8 759.75,-178.8 990.25,-178.8 990.25,-214.8"/>
<text text-anchor="middle" x="875" y="-192.6" font-family="Times,serif" font-size="14.00">SafeApplicationSummaryComponent </text>
</g>
<!-- SafeApplicationsSummaryModule&#45;&gt;SafeApplicationSummaryComponent  -->
<g id="edge10" class="edge">
<title>SafeApplicationsSummaryModule&#45;&gt;SafeApplicationSummaryComponent </title>
<path fill="none" stroke="black" stroke-dasharray="5,2" d="M875,-149.91C875,-149.91 875,-168.79 875,-168.79"/>
<polygon fill="black" stroke="black" points="871.5,-168.79 875,-178.79 878.5,-168.79 871.5,-168.79"/>
</g>
<!-- SafeApplicationsSummaryComponent  -->
<g id="node12" class="node">
<title>SafeApplicationsSummaryComponent </title>
<polygon fill="#fb8072" stroke="black" points="741.69,-214.8 506.31,-214.8 506.31,-178.8 741.69,-178.8 741.69,-214.8"/>
<text text-anchor="middle" x="624" y="-192.6" font-family="Times,serif" font-size="14.00">SafeApplicationsSummaryComponent </text>
</g>
<!-- SafeApplicationsSummaryModule&#45;&gt;SafeApplicationsSummaryComponent  -->
<g id="edge11" class="edge">
<title>SafeApplicationsSummaryModule&#45;&gt;SafeApplicationsSummaryComponent </title>
<path fill="none" stroke="black" stroke-dasharray="5,2" d="M769.59,-142.8C745.71,-142.8 727.25,-142.8 727.25,-142.8 727.25,-142.8 727.25,-168.52 727.25,-168.52"/>
<polygon fill="black" stroke="black" points="723.75,-168.52 727.25,-178.52 730.75,-168.52 723.75,-168.52"/>
</g>
<!-- SafeButtonModule -->
<g id="node5" class="node">
<title>SafeButtonModule</title>
<polygon fill="#8dd3c7" stroke="black" points="1414.05,-84.8 1411.05,-88.8 1390.05,-88.8 1387.05,-84.8 1291.95,-84.8 1291.95,-48.8 1414.05,-48.8 1414.05,-84.8"/>
<text text-anchor="middle" x="1353" y="-62.6" font-family="Times,serif" font-size="14.00">SafeButtonModule</text>
</g>
<!-- SafeButtonModule&#45;&gt;SafeApplicationsSummaryModule -->
<g id="edge4" class="edge">
<title>SafeButtonModule&#45;&gt;SafeApplicationsSummaryModule</title>
<path fill="none" stroke="black" d="M1353,-84.93C1353,-105.37 1353,-135.8 1353,-135.8 1353,-135.8 990.49,-135.8 990.49,-135.8"/>
<polygon fill="black" stroke="black" points="990.49,-132.3 980.49,-135.8 990.49,-139.3 990.49,-132.3"/>
</g>
<!-- SafeDateModule -->
<g id="node6" class="node">
<title>SafeDateModule</title>
<polygon fill="#8dd3c7" stroke="black" points="1273.36,-84.8 1270.36,-88.8 1249.36,-88.8 1246.36,-84.8 1162.64,-84.8 1162.64,-48.8 1273.36,-48.8 1273.36,-84.8"/>
<text text-anchor="middle" x="1218" y="-62.6" font-family="Times,serif" font-size="14.00">SafeDateModule</text>
</g>
<!-- SafeDateModule&#45;&gt;SafeApplicationsSummaryModule -->
<g id="edge5" class="edge">
<title>SafeDateModule&#45;&gt;SafeApplicationsSummaryModule</title>
<path fill="none" stroke="black" d="M1185.26,-85.07C1185.26,-103.36 1185.26,-128.8 1185.26,-128.8 1185.26,-128.8 990.47,-128.8 990.47,-128.8"/>
<polygon fill="black" stroke="black" points="990.47,-125.3 980.47,-128.8 990.47,-132.3 990.47,-125.3"/>
</g>
<!-- SafeDividerModule -->
<g id="node7" class="node">
<title>SafeDividerModule</title>
<polygon fill="#8dd3c7" stroke="black" points="1144.69,-84.8 1141.69,-88.8 1120.69,-88.8 1117.69,-84.8 1017.31,-84.8 1017.31,-48.8 1144.69,-48.8 1144.69,-84.8"/>
<text text-anchor="middle" x="1081" y="-62.6" font-family="Times,serif" font-size="14.00">SafeDividerModule</text>
</g>
<!-- SafeDividerModule&#45;&gt;SafeApplicationsSummaryModule -->
<g id="edge6" class="edge">
<title>SafeDividerModule&#45;&gt;SafeApplicationsSummaryModule</title>
<path fill="none" stroke="black" d="M1081,-84.81C1081,-100.85 1081,-121.8 1081,-121.8 1081,-121.8 990.41,-121.8 990.41,-121.8"/>
<polygon fill="black" stroke="black" points="990.41,-118.3 980.41,-121.8 990.41,-125.3 990.41,-118.3"/>
</g>
<!-- SafeIconModule -->
<g id="node8" class="node">
<title>SafeIconModule</title>
<polygon fill="#8dd3c7" stroke="black" points="999.8,-84.8 996.8,-88.8 975.8,-88.8 972.8,-84.8 890.2,-84.8 890.2,-48.8 999.8,-48.8 999.8,-84.8"/>
<text text-anchor="middle" x="945" y="-62.6" font-family="Times,serif" font-size="14.00">SafeIconModule</text>
</g>
<!-- SafeIconModule&#45;&gt;SafeApplicationsSummaryModule -->
<g id="edge7" class="edge">
<title>SafeIconModule&#45;&gt;SafeApplicationsSummaryModule</title>
<path fill="none" stroke="black" d="M935.28,-84.91C935.28,-84.91 935.28,-103.79 935.28,-103.79"/>
<polygon fill="black" stroke="black" points="931.78,-103.79 935.28,-113.79 938.78,-103.79 931.78,-103.79"/>
</g>
<!-- SafeSkeletonModule -->
<g id="node9" class="node">
<title>SafeSkeletonModule</title>
<polygon fill="#8dd3c7" stroke="black" points="872.92,-84.8 869.92,-88.8 848.92,-88.8 845.92,-84.8 739.08,-84.8 739.08,-48.8 872.92,-48.8 872.92,-84.8"/>
<text text-anchor="middle" x="806" y="-62.6" font-family="Times,serif" font-size="14.00">SafeSkeletonModule</text>
</g>
<!-- SafeSkeletonModule&#45;&gt;SafeApplicationsSummaryModule -->
<g id="edge8" class="edge">
<title>SafeSkeletonModule&#45;&gt;SafeApplicationsSummaryModule</title>
<path fill="none" stroke="black" d="M821.25,-84.91C821.25,-84.91 821.25,-103.79 821.25,-103.79"/>
<polygon fill="black" stroke="black" points="817.75,-103.79 821.25,-113.79 824.75,-103.79 817.75,-103.79"/>
</g>
</g>
</svg>
