<?xml version="1.0" encoding="UTF-8" standalone="no"?>
<!DOCTYPE svg PUBLIC "-//W3C//DTD SVG 1.1//EN"
 "http://www.w3.org/Graphics/SVG/1.1/DTD/svg11.dtd">
<!-- Generated by graphviz version 3.0.0 (20220226.1711)
 -->
<!-- Title: dependencies Pages: 1 -->
<svg width="652pt" height="247pt"
 viewBox="0.00 0.00 652.00 246.80" xmlns="http://www.w3.org/2000/svg" xmlns:xlink="http://www.w3.org/1999/xlink">
<g id="graph0" class="graph" transform="scale(1 1) rotate(0) translate(4 242.8)">
<title>dependencies</title>
<polygon fill="white" stroke="transparent" points="-4,4 -4,-242.8 648,-242.8 648,4 -4,4"/>
<text text-anchor="middle" x="322" y="-8.2" font-family="sans-serif" font-size="14.00">dependencies</text>
<g id="clust1" class="cluster">
<title>cluster_MapGeneralModule</title>
<polygon fill="none" stroke="black" stroke-dasharray="1,5" points="8,-32.8 8,-230.8 636,-230.8 636,-32.8 8,-32.8"/>
</g>
<g id="clust5" class="cluster">
<title>cluster_MapGeneralModule_exports</title>
<polygon fill="none" stroke="black" points="272,-170.8 272,-222.8 442,-222.8 442,-170.8 272,-170.8"/>
</g>
<g id="clust4" class="cluster">
<title>cluster_MapGeneralModule_imports</title>
<polygon fill="none" stroke="black" points="192,-40.8 192,-92.8 628,-92.8 628,-40.8 192,-40.8"/>
</g>
<g id="clust2" class="cluster">
<title>cluster_MapGeneralModule_declarations</title>
<polygon fill="none" stroke="black" points="16,-40.8 16,-92.8 184,-92.8 184,-40.8 16,-40.8"/>
</g>
<!-- MapGeneralComponent -->
<g id="node1" class="node">
<title>MapGeneralComponent</title>
<polygon fill="#ffffb3" stroke="black" points="175.8,-84.8 24.2,-84.8 24.2,-48.8 175.8,-48.8 175.8,-84.8"/>
<text text-anchor="middle" x="100" y="-62.6" font-family="Times,serif" font-size="14.00">MapGeneralComponent</text>
</g>
<!-- MapGeneralModule -->
<g id="node2" class="node">
<title>MapGeneralModule</title>
<polygon fill="#8dd3c7" stroke="black" points="421.52,-149.8 418.52,-153.8 397.52,-153.8 394.52,-149.8 292.48,-149.8 292.48,-113.8 421.52,-113.8 421.52,-149.8"/>
<text text-anchor="middle" x="357" y="-127.6" font-family="Times,serif" font-size="14.00">MapGeneralModule</text>
</g>
<!-- MapGeneralComponent&#45;&gt;MapGeneralModule -->
<g id="edge1" class="edge">
<title>MapGeneralComponent&#45;&gt;MapGeneralModule</title>
<path fill="none" stroke="black" d="M100,-84.91C100,-104.14 100,-131.8 100,-131.8 100,-131.8 282.48,-131.8 282.48,-131.8"/>
<polygon fill="black" stroke="black" points="282.48,-135.3 292.48,-131.8 282.48,-128.3 282.48,-135.3"/>
</g>
<!-- MapGeneralComponent  -->
<g id="node6" class="node">
<title>MapGeneralComponent </title>
<polygon fill="#fb8072" stroke="black" points="434.3,-214.8 279.7,-214.8 279.7,-178.8 434.3,-178.8 434.3,-214.8"/>
<text text-anchor="middle" x="357" y="-192.6" font-family="Times,serif" font-size="14.00">MapGeneralComponent </text>
</g>
<!-- MapGeneralModule&#45;&gt;MapGeneralComponent  -->
<g id="edge5" class="edge">
<title>MapGeneralModule&#45;&gt;MapGeneralComponent </title>
<path fill="none" stroke="black" stroke-dasharray="5,2" d="M357,-149.91C357,-149.91 357,-168.79 357,-168.79"/>
<polygon fill="black" stroke="black" points="353.5,-168.79 357,-178.79 360.5,-168.79 353.5,-168.79"/>
</g>
<!-- SafeAlertModule -->
<g id="node3" class="node">
<title>SafeAlertModule</title>
<polygon fill="#8dd3c7" stroke="black" points="619.69,-84.8 616.69,-88.8 595.69,-88.8 592.69,-84.8 506.31,-84.8 506.31,-48.8 619.69,-48.8 619.69,-84.8"/>
<text text-anchor="middle" x="563" y="-62.6" font-family="Times,serif" font-size="14.00">SafeAlertModule</text>
</g>
<!-- SafeAlertModule&#45;&gt;MapGeneralModule -->
<g id="edge2" class="edge">
<title>SafeAlertModule&#45;&gt;MapGeneralModule</title>
<path fill="none" stroke="black" d="M563,-84.91C563,-104.14 563,-131.8 563,-131.8 563,-131.8 431.61,-131.8 431.61,-131.8"/>
<polygon fill="black" stroke="black" points="431.61,-128.3 421.61,-131.8 431.61,-135.3 431.61,-128.3"/>
</g>
<!-- SafeIconModule -->
<g id="node4" class="node">
<title>SafeIconModule</title>
<polygon fill="#8dd3c7" stroke="black" points="488.8,-84.8 485.8,-88.8 464.8,-88.8 461.8,-84.8 379.2,-84.8 379.2,-48.8 488.8,-48.8 488.8,-84.8"/>
<text text-anchor="middle" x="434" y="-62.6" font-family="Times,serif" font-size="14.00">SafeIconModule</text>
</g>
<!-- SafeIconModule&#45;&gt;MapGeneralModule -->
<g id="edge3" class="edge">
<title>SafeIconModule&#45;&gt;MapGeneralModule</title>
<path fill="none" stroke="black" d="M400.55,-84.91C400.55,-84.91 400.55,-103.79 400.55,-103.79"/>
<polygon fill="black" stroke="black" points="397.05,-103.79 400.55,-113.79 404.05,-103.79 397.05,-103.79"/>
</g>
<!-- SafeQueryBuilderModule -->
<g id="node5" class="node">
<title>SafeQueryBuilderModule</title>
<polygon fill="#8dd3c7" stroke="black" points="361.91,-84.8 358.91,-88.8 337.91,-88.8 334.91,-84.8 200.09,-84.8 200.09,-48.8 361.91,-48.8 361.91,-84.8"/>
<text text-anchor="middle" x="281" y="-62.6" font-family="Times,serif" font-size="14.00">SafeQueryBuilderModule</text>
</g>
<!-- SafeQueryBuilderModule&#45;&gt;MapGeneralModule -->
<g id="edge4" class="edge">
<title>SafeQueryBuilderModule&#45;&gt;MapGeneralModule</title>
<path fill="none" stroke="black" d="M326.97,-84.91C326.97,-84.91 326.97,-103.79 326.97,-103.79"/>
<polygon fill="black" stroke="black" points="323.47,-103.79 326.97,-113.79 330.47,-103.79 323.47,-103.79"/>
</g>
</g>
</svg>
