<?xml version="1.0" encoding="UTF-8" standalone="no"?>
<!DOCTYPE svg PUBLIC "-//W3C//DTD SVG 1.1//EN"
 "http://www.w3.org/Graphics/SVG/1.1/DTD/svg11.dtd">
<!-- Generated by graphviz version 3.0.0 (20220226.1711)
 -->
<!-- Title: dependencies Pages: 1 -->
<svg width="652pt" height="247pt"
 viewBox="0.00 0.00 652.00 246.80" xmlns="http://www.w3.org/2000/svg" xmlns:xlink="http://www.w3.org/1999/xlink">
<g id="graph0" class="graph" transform="scale(1 1) rotate(0) translate(4 242.8)">
<title>dependencies</title>
<polygon fill="white" stroke="transparent" points="-4,4 -4,-242.8 648,-242.8 648,4 -4,4"/>
<text text-anchor="middle" x="322" y="-8.2" font-family="sans-serif" font-size="14.00">dependencies</text>
<g id="clust1" class="cluster">
<title>cluster_MapGeneralModule</title>
<polygon fill="none" stroke="black" stroke-dasharray="1,5" points="8,-32.8 8,-230.8 636,-230.8 636,-32.8 8,-32.8"/>
</g>
<g id="clust2" class="cluster">
<title>cluster_MapGeneralModule_declarations</title>
<polygon fill="none" stroke="black" points="460,-40.8 460,-92.8 628,-92.8 628,-40.8 460,-40.8"/>
</g>
<g id="clust5" class="cluster">
<title>cluster_MapGeneralModule_exports</title>
<polygon fill="none" stroke="black" points="237,-170.8 237,-222.8 407,-222.8 407,-170.8 237,-170.8"/>
</g>
<g id="clust4" class="cluster">
<title>cluster_MapGeneralModule_imports</title>
<polygon fill="none" stroke="black" points="16,-40.8 16,-92.8 452,-92.8 452,-40.8 16,-40.8"/>
</g>
<!-- MapGeneralComponent -->
<g id="node1" class="node">
<title>MapGeneralComponent</title>
<polygon fill="#ffffb3" stroke="black" points="619.8,-84.8 468.2,-84.8 468.2,-48.8 619.8,-48.8 619.8,-84.8"/>
<text text-anchor="middle" x="544" y="-62.6" font-family="Times,serif" font-size="14.00">MapGeneralComponent</text>
</g>
<!-- MapGeneralModule -->
<g id="node2" class="node">
<title>MapGeneralModule</title>
<polygon fill="#8dd3c7" stroke="black" points="386.52,-149.8 383.52,-153.8 362.52,-153.8 359.52,-149.8 257.48,-149.8 257.48,-113.8 386.52,-113.8 386.52,-149.8"/>
<text text-anchor="middle" x="322" y="-127.6" font-family="Times,serif" font-size="14.00">MapGeneralModule</text>
</g>
<!-- MapGeneralComponent&#45;&gt;MapGeneralModule -->
<g id="edge1" class="edge">
<title>MapGeneralComponent&#45;&gt;MapGeneralModule</title>
<path fill="none" stroke="black" d="M544,-84.91C544,-104.14 544,-131.8 544,-131.8 544,-131.8 396.81,-131.8 396.81,-131.8"/>
<polygon fill="black" stroke="black" points="396.81,-128.3 386.81,-131.8 396.81,-135.3 396.81,-128.3"/>
</g>
<!-- MapGeneralComponent  -->
<g id="node6" class="node">
<title>MapGeneralComponent </title>
<polygon fill="#fb8072" stroke="black" points="399.3,-214.8 244.7,-214.8 244.7,-178.8 399.3,-178.8 399.3,-214.8"/>
<text text-anchor="middle" x="322" y="-192.6" font-family="Times,serif" font-size="14.00">MapGeneralComponent </text>
</g>
<!-- MapGeneralModule&#45;&gt;MapGeneralComponent  -->
<g id="edge5" class="edge">
<title>MapGeneralModule&#45;&gt;MapGeneralComponent </title>
<path fill="none" stroke="black" stroke-dasharray="5,2" d="M322,-149.91C322,-149.91 322,-168.79 322,-168.79"/>
<polygon fill="black" stroke="black" points="318.5,-168.79 322,-178.79 325.5,-168.79 318.5,-168.79"/>
</g>
<!-- SafeAlertModule -->
<g id="node3" class="node">
<title>SafeAlertModule</title>
<polygon fill="#8dd3c7" stroke="black" points="443.69,-84.8 440.69,-88.8 419.69,-88.8 416.69,-84.8 330.31,-84.8 330.31,-48.8 443.69,-48.8 443.69,-84.8"/>
<text text-anchor="middle" x="387" y="-62.6" font-family="Times,serif" font-size="14.00">SafeAlertModule</text>
</g>
<!-- SafeAlertModule&#45;&gt;MapGeneralModule -->
<g id="edge2" class="edge">
<title>SafeAlertModule&#45;&gt;MapGeneralModule</title>
<path fill="none" stroke="black" d="M358.58,-84.91C358.58,-84.91 358.58,-103.79 358.58,-103.79"/>
<polygon fill="black" stroke="black" points="355.08,-103.79 358.58,-113.79 362.08,-103.79 355.08,-103.79"/>
</g>
<!-- SafeIconModule -->
<g id="node4" class="node">
<title>SafeIconModule</title>
<polygon fill="#8dd3c7" stroke="black" points="312.8,-84.8 309.8,-88.8 288.8,-88.8 285.8,-84.8 203.2,-84.8 203.2,-48.8 312.8,-48.8 312.8,-84.8"/>
<text text-anchor="middle" x="258" y="-62.6" font-family="Times,serif" font-size="14.00">SafeIconModule</text>
</g>
<!-- SafeIconModule&#45;&gt;MapGeneralModule -->
<g id="edge3" class="edge">
<title>SafeIconModule&#45;&gt;MapGeneralModule</title>
<path fill="none" stroke="black" d="M284.95,-84.91C284.95,-84.91 284.95,-103.79 284.95,-103.79"/>
<polygon fill="black" stroke="black" points="281.45,-103.79 284.95,-113.79 288.45,-103.79 281.45,-103.79"/>
</g>
<!-- SafeQueryBuilderModule -->
<g id="node5" class="node">
<title>SafeQueryBuilderModule</title>
<polygon fill="#8dd3c7" stroke="black" points="185.91,-84.8 182.91,-88.8 161.91,-88.8 158.91,-84.8 24.09,-84.8 24.09,-48.8 185.91,-48.8 185.91,-84.8"/>
<text text-anchor="middle" x="105" y="-62.6" font-family="Times,serif" font-size="14.00">SafeQueryBuilderModule</text>
</g>
<!-- SafeQueryBuilderModule&#45;&gt;MapGeneralModule -->
<g id="edge4" class="edge">
<title>SafeQueryBuilderModule&#45;&gt;MapGeneralModule</title>
<path fill="none" stroke="black" d="M105,-84.91C105,-104.14 105,-131.8 105,-131.8 105,-131.8 247.48,-131.8 247.48,-131.8"/>
<polygon fill="black" stroke="black" points="247.48,-135.3 257.48,-131.8 247.48,-128.3 247.48,-135.3"/>
</g>
</g>
</svg>
