<?xml version="1.0" encoding="UTF-8" standalone="no"?>
<!DOCTYPE svg PUBLIC "-//W3C//DTD SVG 1.1//EN"
 "http://www.w3.org/Graphics/SVG/1.1/DTD/svg11.dtd">
<!-- Generated by graphviz version 3.0.0 (20220226.1711)
 -->
<!-- Title: dependencies Pages: 1 -->
<svg width="528pt" height="247pt"
 viewBox="0.00 0.00 528.00 246.80" xmlns="http://www.w3.org/2000/svg" xmlns:xlink="http://www.w3.org/1999/xlink">
<g id="graph0" class="graph" transform="scale(1 1) rotate(0) translate(4 242.8)">
<title>dependencies</title>
<polygon fill="white" stroke="transparent" points="-4,4 -4,-242.8 524,-242.8 524,4 -4,4"/>
<text text-anchor="middle" x="260" y="-8.2" font-family="sans-serif" font-size="14.00">dependencies</text>
<g id="clust1" class="cluster">
<title>cluster_FormAnswerModule</title>
<polygon fill="none" stroke="black" stroke-dasharray="1,5" points="8,-32.8 8,-230.8 512,-230.8 512,-32.8 8,-32.8"/>
</g>
<g id="clust5" class="cluster">
<title>cluster_FormAnswerModule_exports</title>
<polygon fill="none" stroke="black" points="140,-170.8 140,-222.8 314,-222.8 314,-170.8 140,-170.8"/>
</g>
<g id="clust2" class="cluster">
<title>cluster_FormAnswerModule_declarations</title>
<polygon fill="none" stroke="black" points="332,-40.8 332,-92.8 504,-92.8 504,-40.8 332,-40.8"/>
</g>
<g id="clust4" class="cluster">
<title>cluster_FormAnswerModule_imports</title>
<polygon fill="none" stroke="black" points="16,-40.8 16,-92.8 324,-92.8 324,-40.8 16,-40.8"/>
</g>
<!-- FormAnswerComponent -->
<g id="node1" class="node">
<title>FormAnswerComponent</title>
<polygon fill="#ffffb3" stroke="black" points="495.71,-84.8 340.29,-84.8 340.29,-48.8 495.71,-48.8 495.71,-84.8"/>
<text text-anchor="middle" x="418" y="-62.6" font-family="Times,serif" font-size="14.00">FormAnswerComponent</text>
</g>
<!-- FormAnswerModule -->
<g id="node2" class="node">
<title>FormAnswerModule</title>
<polygon fill="#8dd3c7" stroke="black" points="293.94,-149.8 290.94,-153.8 269.94,-153.8 266.94,-149.8 160.06,-149.8 160.06,-113.8 293.94,-113.8 293.94,-149.8"/>
<text text-anchor="middle" x="227" y="-127.6" font-family="Times,serif" font-size="14.00">FormAnswerModule</text>
</g>
<!-- FormAnswerComponent&#45;&gt;FormAnswerModule -->
<g id="edge1" class="edge">
<title>FormAnswerComponent&#45;&gt;FormAnswerModule</title>
<path fill="none" stroke="black" d="M418,-84.91C418,-104.14 418,-131.8 418,-131.8 418,-131.8 303.8,-131.8 303.8,-131.8"/>
<polygon fill="black" stroke="black" points="303.8,-128.3 293.8,-131.8 303.8,-135.3 303.8,-128.3"/>
</g>
<!-- FormAnswerComponent  -->
<g id="node5" class="node">
<title>FormAnswerComponent </title>
<polygon fill="#fb8072" stroke="black" points="306.21,-214.8 147.79,-214.8 147.79,-178.8 306.21,-178.8 306.21,-214.8"/>
<text text-anchor="middle" x="227" y="-192.6" font-family="Times,serif" font-size="14.00">FormAnswerComponent </text>
</g>
<!-- FormAnswerModule&#45;&gt;FormAnswerComponent  -->
<g id="edge4" class="edge">
<title>FormAnswerModule&#45;&gt;FormAnswerComponent </title>
<path fill="none" stroke="black" stroke-dasharray="5,2" d="M227,-149.91C227,-149.91 227,-168.79 227,-168.79"/>
<polygon fill="black" stroke="black" points="223.5,-168.79 227,-178.79 230.5,-168.79 223.5,-168.79"/>
</g>
<!-- FormAnswerRoutingModule -->
<g id="node3" class="node">
<title>FormAnswerRoutingModule</title>
<polygon fill="#8dd3c7" stroke="black" points="316.05,-84.8 313.05,-88.8 292.05,-88.8 289.05,-84.8 137.95,-84.8 137.95,-48.8 316.05,-48.8 316.05,-84.8"/>
<text text-anchor="middle" x="227" y="-62.6" font-family="Times,serif" font-size="14.00">FormAnswerRoutingModule</text>
</g>
<!-- FormAnswerRoutingModule&#45;&gt;FormAnswerModule -->
<g id="edge2" class="edge">
<title>FormAnswerRoutingModule&#45;&gt;FormAnswerModule</title>
<path fill="none" stroke="black" d="M227,-84.91C227,-84.91 227,-103.79 227,-103.79"/>
<polygon fill="black" stroke="black" points="223.5,-103.79 227,-113.79 230.5,-103.79 223.5,-103.79"/>
</g>
<!-- FormsModule -->
<g id="node4" class="node">
<title>FormsModule</title>
<polygon fill="#8dd3c7" stroke="black" points="119.84,-84.8 116.84,-88.8 95.84,-88.8 92.84,-84.8 24.16,-84.8 24.16,-48.8 119.84,-48.8 119.84,-84.8"/>
<text text-anchor="middle" x="72" y="-62.6" font-family="Times,serif" font-size="14.00">FormsModule</text>
</g>
<!-- FormsModule&#45;&gt;FormAnswerModule -->
<g id="edge3" class="edge">
<title>FormsModule&#45;&gt;FormAnswerModule</title>
<path fill="none" stroke="black" d="M72,-84.91C72,-104.14 72,-131.8 72,-131.8 72,-131.8 149.92,-131.8 149.92,-131.8"/>
<polygon fill="black" stroke="black" points="149.92,-135.3 159.92,-131.8 149.92,-128.3 149.92,-135.3"/>
</g>
</g>
</svg>
