<?xml version="1.0" encoding="UTF-8" standalone="no"?>
<!DOCTYPE svg PUBLIC "-//W3C//DTD SVG 1.1//EN"
 "http://www.w3.org/Graphics/SVG/1.1/DTD/svg11.dtd">
<!-- Generated by graphviz version 3.0.0 (20220226.1711)
 -->
<!-- Title: dependencies Pages: 1 -->
<svg width="246pt" height="247pt"
 viewBox="0.00 0.00 246.00 246.80" xmlns="http://www.w3.org/2000/svg" xmlns:xlink="http://www.w3.org/1999/xlink">
<g id="graph0" class="graph" transform="scale(1 1) rotate(0) translate(4 242.8)">
<title>dependencies</title>
<polygon fill="white" stroke="transparent" points="-4,4 -4,-242.8 242,-242.8 242,4 -4,4"/>
<text text-anchor="middle" x="119" y="-8.2" font-family="sans-serif" font-size="14.00">dependencies</text>
<g id="clust1" class="cluster">
<title>cluster_SafeWidgetChoiceModule</title>
<polygon fill="none" stroke="black" stroke-dasharray="1,5" points="8,-32.8 8,-230.8 230,-230.8 230,-32.8 8,-32.8"/>
</g>
<g id="clust5" class="cluster">
<title>cluster_SafeWidgetChoiceModule_exports</title>
<polygon fill="none" stroke="black" points="16,-170.8 16,-222.8 222,-222.8 222,-170.8 16,-170.8"/>
</g>
<g id="clust2" class="cluster">
<title>cluster_SafeWidgetChoiceModule_declarations</title>
<polygon fill="none" stroke="black" points="17,-40.8 17,-92.8 221,-92.8 221,-40.8 17,-40.8"/>
</g>
<!-- SafeWidgetChoiceComponent -->
<g id="node1" class="node">
<title>SafeWidgetChoiceComponent</title>
<polygon fill="#ffffb3" stroke="black" points="212.57,-84.8 25.43,-84.8 25.43,-48.8 212.57,-48.8 212.57,-84.8"/>
<text text-anchor="middle" x="119" y="-62.6" font-family="Times,serif" font-size="14.00">SafeWidgetChoiceComponent</text>
</g>
<!-- SafeWidgetChoiceModule -->
<g id="node2" class="node">
<title>SafeWidgetChoiceModule</title>
<polygon fill="#8dd3c7" stroke="black" points="201.79,-149.8 198.79,-153.8 177.79,-153.8 174.79,-149.8 36.21,-149.8 36.21,-113.8 201.79,-113.8 201.79,-149.8"/>
<text text-anchor="middle" x="119" y="-127.6" font-family="Times,serif" font-size="14.00">SafeWidgetChoiceModule</text>
</g>
<!-- SafeWidgetChoiceComponent&#45;&gt;SafeWidgetChoiceModule -->
<g id="edge1" class="edge">
<title>SafeWidgetChoiceComponent&#45;&gt;SafeWidgetChoiceModule</title>
<path fill="none" stroke="black" d="M119,-84.91C119,-84.91 119,-103.79 119,-103.79"/>
<polygon fill="black" stroke="black" points="115.5,-103.79 119,-113.79 122.5,-103.79 115.5,-103.79"/>
</g>
<!-- SafeWidgetChoiceComponent  -->
<g id="node3" class="node">
<title>SafeWidgetChoiceComponent </title>
<polygon fill="#fb8072" stroke="black" points="214.07,-214.8 23.93,-214.8 23.93,-178.8 214.07,-178.8 214.07,-214.8"/>
<text text-anchor="middle" x="119" y="-192.6" font-family="Times,serif" font-size="14.00">SafeWidgetChoiceComponent </text>
</g>
<!-- SafeWidgetChoiceModule&#45;&gt;SafeWidgetChoiceComponent  -->
<g id="edge2" class="edge">
<title>SafeWidgetChoiceModule&#45;&gt;SafeWidgetChoiceComponent </title>
<path fill="none" stroke="black" stroke-dasharray="5,2" d="M119,-149.91C119,-149.91 119,-168.79 119,-168.79"/>
<polygon fill="black" stroke="black" points="115.5,-168.79 119,-178.79 122.5,-168.79 115.5,-168.79"/>
</g>
</g>
</svg>
