<?xml version="1.0" encoding="UTF-8" standalone="no"?>
<!DOCTYPE svg PUBLIC "-//W3C//DTD SVG 1.1//EN"
 "http://www.w3.org/Graphics/SVG/1.1/DTD/svg11.dtd">
<!-- Generated by graphviz version 3.0.0 (20220226.1711)
 -->
<!-- Title: dependencies Pages: 1 -->
<svg width="262pt" height="247pt"
 viewBox="0.00 0.00 262.00 246.80" xmlns="http://www.w3.org/2000/svg" xmlns:xlink="http://www.w3.org/1999/xlink">
<g id="graph0" class="graph" transform="scale(1 1) rotate(0) translate(4 242.8)">
<title>dependencies</title>
<polygon fill="white" stroke="transparent" points="-4,4 -4,-242.8 258,-242.8 258,4 -4,4"/>
<text text-anchor="middle" x="127" y="-8.2" font-family="sans-serif" font-size="14.00">dependencies</text>
<g id="clust1" class="cluster">
<title>cluster_SafeGridRowActionsModule</title>
<polygon fill="none" stroke="black" stroke-dasharray="1,5" points="8,-32.8 8,-230.8 246,-230.8 246,-32.8 8,-32.8"/>
</g>
<g id="clust5" class="cluster">
<title>cluster_SafeGridRowActionsModule_exports</title>
<polygon fill="none" stroke="black" points="16,-170.8 16,-222.8 238,-222.8 238,-170.8 16,-170.8"/>
</g>
<g id="clust2" class="cluster">
<title>cluster_SafeGridRowActionsModule_declarations</title>
<polygon fill="none" stroke="black" points="18,-40.8 18,-92.8 236,-92.8 236,-40.8 18,-40.8"/>
</g>
<!-- SafeGridRowActionsComponent -->
<g id="node1" class="node">
<title>SafeGridRowActionsComponent</title>
<polygon fill="#ffffb3" stroke="black" points="227.87,-84.8 26.13,-84.8 26.13,-48.8 227.87,-48.8 227.87,-84.8"/>
<text text-anchor="middle" x="127" y="-62.6" font-family="Times,serif" font-size="14.00">SafeGridRowActionsComponent</text>
</g>
<!-- SafeGridRowActionsModule -->
<g id="node2" class="node">
<title>SafeGridRowActionsModule</title>
<polygon fill="#8dd3c7" stroke="black" points="217.09,-149.8 214.09,-153.8 193.09,-153.8 190.09,-149.8 36.91,-149.8 36.91,-113.8 217.09,-113.8 217.09,-149.8"/>
<text text-anchor="middle" x="127" y="-127.6" font-family="Times,serif" font-size="14.00">SafeGridRowActionsModule</text>
</g>
<!-- SafeGridRowActionsComponent&#45;&gt;SafeGridRowActionsModule -->
<g id="edge1" class="edge">
<title>SafeGridRowActionsComponent&#45;&gt;SafeGridRowActionsModule</title>
<path fill="none" stroke="black" d="M127,-84.91C127,-84.91 127,-103.79 127,-103.79"/>
<polygon fill="black" stroke="black" points="123.5,-103.79 127,-113.79 130.5,-103.79 123.5,-103.79"/>
</g>
<!-- SafeGridRowActionsComponent  -->
<g id="node3" class="node">
<title>SafeGridRowActionsComponent </title>
<polygon fill="#fb8072" stroke="black" points="229.87,-214.8 24.13,-214.8 24.13,-178.8 229.87,-178.8 229.87,-214.8"/>
<text text-anchor="middle" x="127" y="-192.6" font-family="Times,serif" font-size="14.00">SafeGridRowActionsComponent </text>
</g>
<!-- SafeGridRowActionsModule&#45;&gt;SafeGridRowActionsComponent  -->
<g id="edge2" class="edge">
<title>SafeGridRowActionsModule&#45;&gt;SafeGridRowActionsComponent </title>
<path fill="none" stroke="black" stroke-dasharray="5,2" d="M127,-149.91C127,-149.91 127,-168.79 127,-168.79"/>
<polygon fill="black" stroke="black" points="123.5,-168.79 127,-178.79 130.5,-168.79 123.5,-168.79"/>
</g>
</g>
</svg>
