<?xml version="1.0" encoding="UTF-8" standalone="no"?>
<!DOCTYPE svg PUBLIC "-//W3C//DTD SVG 1.1//EN"
 "http://www.w3.org/Graphics/SVG/1.1/DTD/svg11.dtd">
<!-- Generated by graphviz version 3.0.0 (20220226.1711)
 -->
<!-- Title: dependencies Pages: 1 -->
<svg width="330pt" height="174pt"
 viewBox="0.00 0.00 330.00 173.80" xmlns="http://www.w3.org/2000/svg" xmlns:xlink="http://www.w3.org/1999/xlink">
<g id="graph0" class="graph" transform="scale(1 1) rotate(0) translate(4 169.8)">
<title>dependencies</title>
<polygon fill="white" stroke="transparent" points="-4,4 -4,-169.8 326,-169.8 326,4 -4,4"/>
<text text-anchor="middle" x="161" y="-8.2" font-family="sans-serif" font-size="14.00">dependencies</text>
<g id="clust1" class="cluster">
<title>cluster_ShareModule</title>
<polygon fill="none" stroke="black" stroke-dasharray="1,5" points="8,-32.8 8,-157.8 314,-157.8 314,-32.8 8,-32.8"/>
</g>
<g id="clust4" class="cluster">
<title>cluster_ShareModule_imports</title>
<polygon fill="none" stroke="black" points="154,-40.8 154,-92.8 306,-92.8 306,-40.8 154,-40.8"/>
</g>
<g id="clust2" class="cluster">
<title>cluster_ShareModule_declarations</title>
<polygon fill="none" stroke="black" points="16,-40.8 16,-92.8 146,-92.8 146,-40.8 16,-40.8"/>
</g>
<!-- ShareComponent -->
<g id="node1" class="node">
<title>ShareComponent</title>
<polygon fill="#ffffb3" stroke="black" points="137.71,-84.8 24.29,-84.8 24.29,-48.8 137.71,-48.8 137.71,-84.8"/>
<text text-anchor="middle" x="81" y="-62.6" font-family="Times,serif" font-size="14.00">ShareComponent</text>
</g>
<!-- ShareModule -->
<g id="node2" class="node">
<title>ShareModule</title>
<polygon fill="#8dd3c7" stroke="black" points="200.93,-149.8 197.93,-153.8 176.93,-153.8 173.93,-149.8 109.07,-149.8 109.07,-113.8 200.93,-113.8 200.93,-149.8"/>
<text text-anchor="middle" x="155" y="-127.6" font-family="Times,serif" font-size="14.00">ShareModule</text>
</g>
<!-- ShareComponent&#45;&gt;ShareModule -->
<g id="edge1" class="edge">
<title>ShareComponent&#45;&gt;ShareModule</title>
<path fill="none" stroke="black" d="M123.44,-84.91C123.44,-84.91 123.44,-103.79 123.44,-103.79"/>
<polygon fill="black" stroke="black" points="119.94,-103.79 123.44,-113.79 126.94,-103.79 119.94,-103.79"/>
</g>
<!-- ShareRoutingModule -->
<g id="node3" class="node">
<title>ShareRoutingModule</title>
<polygon fill="#8dd3c7" stroke="black" points="298.05,-84.8 295.05,-88.8 274.05,-88.8 271.05,-84.8 161.95,-84.8 161.95,-48.8 298.05,-48.8 298.05,-84.8"/>
<text text-anchor="middle" x="230" y="-62.6" font-family="Times,serif" font-size="14.00">ShareRoutingModule</text>
</g>
<!-- ShareRoutingModule&#45;&gt;ShareModule -->
<g id="edge2" class="edge">
<title>ShareRoutingModule&#45;&gt;ShareModule</title>
<path fill="none" stroke="black" d="M181.22,-84.91C181.22,-84.91 181.22,-103.79 181.22,-103.79"/>
<polygon fill="black" stroke="black" points="177.72,-103.79 181.22,-113.79 184.72,-103.79 177.72,-103.79"/>
</g>
</g>
</svg>
