<?xml version="1.0" encoding="UTF-8" standalone="no"?>
<!DOCTYPE svg PUBLIC "-//W3C//DTD SVG 1.1//EN"
 "http://www.w3.org/Graphics/SVG/1.1/DTD/svg11.dtd">
<!-- Generated by graphviz version 3.0.0 (20220226.1711)
 -->
<!-- Title: dependencies Pages: 1 -->
<svg width="641pt" height="247pt"
 viewBox="0.00 0.00 641.00 246.80" xmlns="http://www.w3.org/2000/svg" xmlns:xlink="http://www.w3.org/1999/xlink">
<g id="graph0" class="graph" transform="scale(1 1) rotate(0) translate(4 242.8)">
<title>dependencies</title>
<polygon fill="white" stroke="transparent" points="-4,4 -4,-242.8 637,-242.8 637,4 -4,4"/>
<text text-anchor="middle" x="316.5" y="-8.2" font-family="sans-serif" font-size="14.00">dependencies</text>
<g id="clust1" class="cluster">
<title>cluster_PositionModule</title>
<polygon fill="none" stroke="black" stroke-dasharray="1,5" points="8,-32.8 8,-230.8 625,-230.8 625,-32.8 8,-32.8"/>
</g>
<g id="clust6" class="cluster">
<title>cluster_PositionModule_exports</title>
<polygon fill="none" stroke="black" points="235,-170.8 235,-222.8 381,-222.8 381,-170.8 235,-170.8"/>
</g>
<g id="clust2" class="cluster">
<title>cluster_PositionModule_declarations</title>
<polygon fill="none" stroke="black" points="304,-40.8 304,-92.8 617,-92.8 617,-40.8 304,-40.8"/>
</g>
<g id="clust5" class="cluster">
<title>cluster_PositionModule_imports</title>
<polygon fill="none" stroke="black" points="16,-40.8 16,-92.8 296,-92.8 296,-40.8 16,-40.8"/>
</g>
<!-- AddPositionComponent -->
<g id="node1" class="node">
<title>AddPositionComponent</title>
<polygon fill="#ffffb3" stroke="black" points="608.85,-84.8 457.15,-84.8 457.15,-48.8 608.85,-48.8 608.85,-84.8"/>
<text text-anchor="middle" x="533" y="-62.6" font-family="Times,serif" font-size="14.00">AddPositionComponent</text>
</g>
<!-- PositionModule -->
<g id="node3" class="node">
<title>PositionModule</title>
<polygon fill="#8dd3c7" stroke="black" points="360.96,-149.8 357.96,-153.8 336.96,-153.8 333.96,-149.8 255.04,-149.8 255.04,-113.8 360.96,-113.8 360.96,-149.8"/>
<text text-anchor="middle" x="308" y="-127.6" font-family="Times,serif" font-size="14.00">PositionModule</text>
</g>
<!-- AddPositionComponent&#45;&gt;PositionModule -->
<g id="edge1" class="edge">
<title>AddPositionComponent&#45;&gt;PositionModule</title>
<path fill="none" stroke="black" d="M533,-84.91C533,-104.14 533,-131.8 533,-131.8 533,-131.8 370.75,-131.8 370.75,-131.8"/>
<polygon fill="black" stroke="black" points="370.75,-128.3 360.75,-131.8 370.75,-135.3 370.75,-128.3"/>
</g>
<!-- PositionComponent -->
<g id="node2" class="node">
<title>PositionComponent</title>
<polygon fill="#ffffb3" stroke="black" points="439.73,-84.8 312.27,-84.8 312.27,-48.8 439.73,-48.8 439.73,-84.8"/>
<text text-anchor="middle" x="376" y="-62.6" font-family="Times,serif" font-size="14.00">PositionComponent</text>
</g>
<!-- PositionComponent&#45;&gt;PositionModule -->
<g id="edge2" class="edge">
<title>PositionComponent&#45;&gt;PositionModule</title>
<path fill="none" stroke="black" d="M336.56,-84.91C336.56,-84.91 336.56,-103.79 336.56,-103.79"/>
<polygon fill="black" stroke="black" points="333.06,-103.79 336.56,-113.79 340.06,-103.79 333.06,-103.79"/>
</g>
<!-- PositionComponent  -->
<g id="node6" class="node">
<title>PositionComponent </title>
<polygon fill="#fb8072" stroke="black" points="373.23,-214.8 242.77,-214.8 242.77,-178.8 373.23,-178.8 373.23,-214.8"/>
<text text-anchor="middle" x="308" y="-192.6" font-family="Times,serif" font-size="14.00">PositionComponent </text>
</g>
<!-- PositionModule&#45;&gt;PositionComponent  -->
<g id="edge5" class="edge">
<title>PositionModule&#45;&gt;PositionComponent </title>
<path fill="none" stroke="black" stroke-dasharray="5,2" d="M308,-149.91C308,-149.91 308,-168.79 308,-168.79"/>
<polygon fill="black" stroke="black" points="304.5,-168.79 308,-178.79 311.5,-168.79 304.5,-168.79"/>
</g>
<!-- FormsModule -->
<g id="node4" class="node">
<title>FormsModule</title>
<polygon fill="#8dd3c7" stroke="black" points="287.84,-84.8 284.84,-88.8 263.84,-88.8 260.84,-84.8 192.16,-84.8 192.16,-48.8 287.84,-48.8 287.84,-84.8"/>
<text text-anchor="middle" x="240" y="-62.6" font-family="Times,serif" font-size="14.00">FormsModule</text>
</g>
<!-- FormsModule&#45;&gt;PositionModule -->
<g id="edge3" class="edge">
<title>FormsModule&#45;&gt;PositionModule</title>
<path fill="none" stroke="black" d="M271.47,-84.91C271.47,-84.91 271.47,-103.79 271.47,-103.79"/>
<polygon fill="black" stroke="black" points="267.97,-103.79 271.47,-113.79 274.97,-103.79 267.97,-103.79"/>
</g>
<!-- PositionRoutingModule -->
<g id="node5" class="node">
<title>PositionRoutingModule</title>
<polygon fill="#8dd3c7" stroke="black" points="174.07,-84.8 171.07,-88.8 150.07,-88.8 147.07,-84.8 23.93,-84.8 23.93,-48.8 174.07,-48.8 174.07,-84.8"/>
<text text-anchor="middle" x="99" y="-62.6" font-family="Times,serif" font-size="14.00">PositionRoutingModule</text>
</g>
<!-- PositionRoutingModule&#45;&gt;PositionModule -->
<g id="edge4" class="edge">
<title>PositionRoutingModule&#45;&gt;PositionModule</title>
<path fill="none" stroke="black" d="M99,-84.91C99,-104.14 99,-131.8 99,-131.8 99,-131.8 245.26,-131.8 245.26,-131.8"/>
<polygon fill="black" stroke="black" points="245.26,-135.3 255.26,-131.8 245.26,-128.3 245.26,-135.3"/>
</g>
</g>
</svg>
