<?xml version="1.0" encoding="UTF-8" standalone="no"?>
<!DOCTYPE svg PUBLIC "-//W3C//DTD SVG 1.1//EN"
 "http://www.w3.org/Graphics/SVG/1.1/DTD/svg11.dtd">
<!-- Generated by graphviz version 3.0.0 (20220226.1711)
 -->
<!-- Title: dependencies Pages: 1 -->
<svg width="823pt" height="247pt"
 viewBox="0.00 0.00 823.00 246.80" xmlns="http://www.w3.org/2000/svg" xmlns:xlink="http://www.w3.org/1999/xlink">
<g id="graph0" class="graph" transform="scale(1 1) rotate(0) translate(4 242.8)">
<title>dependencies</title>
<polygon fill="white" stroke="transparent" points="-4,4 -4,-242.8 819,-242.8 819,4 -4,4"/>
<text text-anchor="middle" x="407.5" y="-8.2" font-family="sans-serif" font-size="14.00">dependencies</text>
<g id="clust1" class="cluster">
<title>cluster_SafeRolesModule</title>
<polygon fill="none" stroke="black" stroke-dasharray="1,5" points="8,-32.8 8,-230.8 807,-230.8 807,-32.8 8,-32.8"/>
</g>
<g id="clust5" class="cluster">
<title>cluster_SafeRolesModule_imports</title>
<polygon fill="none" stroke="black" points="352,-40.8 352,-92.8 799,-92.8 799,-40.8 352,-40.8"/>
</g>
<g id="clust2" class="cluster">
<title>cluster_SafeRolesModule_declarations</title>
<polygon fill="none" stroke="black" points="16,-40.8 16,-92.8 344,-92.8 344,-40.8 16,-40.8"/>
</g>
<g id="clust6" class="cluster">
<title>cluster_SafeRolesModule_exports</title>
<polygon fill="none" stroke="black" points="347,-170.8 347,-222.8 505,-222.8 505,-170.8 347,-170.8"/>
</g>
<!-- SafeAddRoleComponent -->
<g id="node1" class="node">
<title>SafeAddRoleComponent</title>
<polygon fill="#ffffb3" stroke="black" points="336.26,-84.8 179.74,-84.8 179.74,-48.8 336.26,-48.8 336.26,-84.8"/>
<text text-anchor="middle" x="258" y="-62.6" font-family="Times,serif" font-size="14.00">SafeAddRoleComponent</text>
</g>
<!-- SafeRolesModule -->
<g id="node3" class="node">
<title>SafeRolesModule</title>
<polygon fill="#8dd3c7" stroke="black" points="484.32,-149.8 481.32,-153.8 460.32,-153.8 457.32,-149.8 367.68,-149.8 367.68,-113.8 484.32,-113.8 484.32,-149.8"/>
<text text-anchor="middle" x="426" y="-127.6" font-family="Times,serif" font-size="14.00">SafeRolesModule</text>
</g>
<!-- SafeAddRoleComponent&#45;&gt;SafeRolesModule -->
<g id="edge1" class="edge">
<title>SafeAddRoleComponent&#45;&gt;SafeRolesModule</title>
<path fill="none" stroke="black" d="M258,-84.82C258,-102.17 258,-125.8 258,-125.8 258,-125.8 357.71,-125.8 357.71,-125.8"/>
<polygon fill="black" stroke="black" points="357.71,-129.3 367.71,-125.8 357.71,-122.3 357.71,-129.3"/>
</g>
<!-- SafeRolesComponent -->
<g id="node2" class="node">
<title>SafeRolesComponent</title>
<polygon fill="#ffffb3" stroke="black" points="162.1,-84.8 23.9,-84.8 23.9,-48.8 162.1,-48.8 162.1,-84.8"/>
<text text-anchor="middle" x="93" y="-62.6" font-family="Times,serif" font-size="14.00">SafeRolesComponent</text>
</g>
<!-- SafeRolesComponent&#45;&gt;SafeRolesModule -->
<g id="edge2" class="edge">
<title>SafeRolesComponent&#45;&gt;SafeRolesModule</title>
<path fill="none" stroke="black" d="M93,-85.08C93,-106.12 93,-137.8 93,-137.8 93,-137.8 357.61,-137.8 357.61,-137.8"/>
<polygon fill="black" stroke="black" points="357.61,-141.3 367.61,-137.8 357.61,-134.3 357.61,-141.3"/>
</g>
<!-- SafeRolesComponent  -->
<g id="node7" class="node">
<title>SafeRolesComponent </title>
<polygon fill="#fb8072" stroke="black" points="496.6,-214.8 355.4,-214.8 355.4,-178.8 496.6,-178.8 496.6,-214.8"/>
<text text-anchor="middle" x="426" y="-192.6" font-family="Times,serif" font-size="14.00">SafeRolesComponent </text>
</g>
<!-- SafeRolesModule&#45;&gt;SafeRolesComponent  -->
<g id="edge6" class="edge">
<title>SafeRolesModule&#45;&gt;SafeRolesComponent </title>
<path fill="none" stroke="black" stroke-dasharray="5,2" d="M426,-149.91C426,-149.91 426,-168.79 426,-168.79"/>
<polygon fill="black" stroke="black" points="422.5,-168.79 426,-178.79 429.5,-168.79 422.5,-168.79"/>
</g>
<!-- SafeGroupListModule -->
<g id="node4" class="node">
<title>SafeGroupListModule</title>
<polygon fill="#8dd3c7" stroke="black" points="790.98,-84.8 787.98,-88.8 766.98,-88.8 763.98,-84.8 649.02,-84.8 649.02,-48.8 790.98,-48.8 790.98,-84.8"/>
<text text-anchor="middle" x="720" y="-62.6" font-family="Times,serif" font-size="14.00">SafeGroupListModule</text>
</g>
<!-- SafeGroupListModule&#45;&gt;SafeRolesModule -->
<g id="edge3" class="edge">
<title>SafeGroupListModule&#45;&gt;SafeRolesModule</title>
<path fill="none" stroke="black" d="M720,-85.08C720,-106.12 720,-137.8 720,-137.8 720,-137.8 494.44,-137.8 494.44,-137.8"/>
<polygon fill="black" stroke="black" points="494.44,-134.3 484.44,-137.8 494.44,-141.3 494.44,-134.3"/>
</g>
<!-- SafeModalModule -->
<g id="node5" class="node">
<title>SafeModalModule</title>
<polygon fill="#8dd3c7" stroke="black" points="631.48,-84.8 628.48,-88.8 607.48,-88.8 604.48,-84.8 510.52,-84.8 510.52,-48.8 631.48,-48.8 631.48,-84.8"/>
<text text-anchor="middle" x="571" y="-62.6" font-family="Times,serif" font-size="14.00">SafeModalModule</text>
</g>
<!-- SafeModalModule&#45;&gt;SafeRolesModule -->
<g id="edge4" class="edge">
<title>SafeModalModule&#45;&gt;SafeRolesModule</title>
<path fill="none" stroke="black" d="M571,-84.82C571,-102.17 571,-125.8 571,-125.8 571,-125.8 494.56,-125.8 494.56,-125.8"/>
<polygon fill="black" stroke="black" points="494.56,-122.3 484.56,-125.8 494.56,-129.3 494.56,-122.3"/>
</g>
<!-- SafeRoleListModule -->
<g id="node6" class="node">
<title>SafeRoleListModule</title>
<polygon fill="#8dd3c7" stroke="black" points="492.15,-84.8 489.15,-88.8 468.15,-88.8 465.15,-84.8 359.85,-84.8 359.85,-48.8 492.15,-48.8 492.15,-84.8"/>
<text text-anchor="middle" x="426" y="-62.6" font-family="Times,serif" font-size="14.00">SafeRoleListModule</text>
</g>
<!-- SafeRoleListModule&#45;&gt;SafeRolesModule -->
<g id="edge5" class="edge">
<title>SafeRoleListModule&#45;&gt;SafeRolesModule</title>
<path fill="none" stroke="black" d="M426,-84.91C426,-84.91 426,-103.79 426,-103.79"/>
<polygon fill="black" stroke="black" points="422.5,-103.79 426,-113.79 429.5,-103.79 422.5,-103.79"/>
</g>
</g>
</svg>
