<?xml version="1.0" encoding="UTF-8" standalone="no"?>
<!DOCTYPE svg PUBLIC "-//W3C//DTD SVG 1.1//EN"
 "http://www.w3.org/Graphics/SVG/1.1/DTD/svg11.dtd">
<!-- Generated by graphviz version 3.0.0 (20220226.1711)
 -->
<!-- Title: dependencies Pages: 1 -->
<svg width="823pt" height="247pt"
 viewBox="0.00 0.00 823.00 246.80" xmlns="http://www.w3.org/2000/svg" xmlns:xlink="http://www.w3.org/1999/xlink">
<g id="graph0" class="graph" transform="scale(1 1) rotate(0) translate(4 242.8)">
<title>dependencies</title>
<polygon fill="white" stroke="transparent" points="-4,4 -4,-242.8 819,-242.8 819,4 -4,4"/>
<text text-anchor="middle" x="407.5" y="-8.2" font-family="sans-serif" font-size="14.00">dependencies</text>
<g id="clust1" class="cluster">
<title>cluster_SafeRolesModule</title>
<polygon fill="none" stroke="black" stroke-dasharray="1,5" points="8,-32.8 8,-230.8 807,-230.8 807,-32.8 8,-32.8"/>
</g>
<g id="clust6" class="cluster">
<title>cluster_SafeRolesModule_exports</title>
<polygon fill="none" stroke="black" points="305,-170.8 305,-222.8 463,-222.8 463,-170.8 305,-170.8"/>
</g>
<g id="clust2" class="cluster">
<title>cluster_SafeRolesModule_declarations</title>
<polygon fill="none" stroke="black" points="471,-40.8 471,-92.8 799,-92.8 799,-40.8 471,-40.8"/>
</g>
<g id="clust5" class="cluster">
<title>cluster_SafeRolesModule_imports</title>
<polygon fill="none" stroke="black" points="16,-40.8 16,-92.8 463,-92.8 463,-40.8 16,-40.8"/>
</g>
<!-- SafeAddRoleComponent -->
<g id="node1" class="node">
<title>SafeAddRoleComponent</title>
<polygon fill="#ffffb3" stroke="black" points="791.26,-84.8 634.74,-84.8 634.74,-48.8 791.26,-48.8 791.26,-84.8"/>
<text text-anchor="middle" x="713" y="-62.6" font-family="Times,serif" font-size="14.00">SafeAddRoleComponent</text>
</g>
<!-- SafeRolesModule -->
<g id="node3" class="node">
<title>SafeRolesModule</title>
<polygon fill="#8dd3c7" stroke="black" points="442.32,-149.8 439.32,-153.8 418.32,-153.8 415.32,-149.8 325.68,-149.8 325.68,-113.8 442.32,-113.8 442.32,-149.8"/>
<text text-anchor="middle" x="384" y="-127.6" font-family="Times,serif" font-size="14.00">SafeRolesModule</text>
</g>
<!-- SafeAddRoleComponent&#45;&gt;SafeRolesModule -->
<g id="edge1" class="edge">
<title>SafeAddRoleComponent&#45;&gt;SafeRolesModule</title>
<path fill="none" stroke="black" d="M713,-85.08C713,-106.12 713,-137.8 713,-137.8 713,-137.8 452.44,-137.8 452.44,-137.8"/>
<polygon fill="black" stroke="black" points="452.44,-134.3 442.44,-137.8 452.44,-141.3 452.44,-134.3"/>
</g>
<!-- SafeRolesComponent -->
<g id="node2" class="node">
<title>SafeRolesComponent</title>
<polygon fill="#ffffb3" stroke="black" points="617.1,-84.8 478.9,-84.8 478.9,-48.8 617.1,-48.8 617.1,-84.8"/>
<text text-anchor="middle" x="548" y="-62.6" font-family="Times,serif" font-size="14.00">SafeRolesComponent</text>
</g>
<!-- SafeRolesComponent&#45;&gt;SafeRolesModule -->
<g id="edge2" class="edge">
<title>SafeRolesComponent&#45;&gt;SafeRolesModule</title>
<path fill="none" stroke="black" d="M548,-84.82C548,-102.17 548,-125.8 548,-125.8 548,-125.8 452.28,-125.8 452.28,-125.8"/>
<polygon fill="black" stroke="black" points="452.28,-122.3 442.28,-125.8 452.28,-129.3 452.28,-122.3"/>
</g>
<!-- SafeRolesComponent  -->
<g id="node7" class="node">
<title>SafeRolesComponent </title>
<polygon fill="#fb8072" stroke="black" points="454.6,-214.8 313.4,-214.8 313.4,-178.8 454.6,-178.8 454.6,-214.8"/>
<text text-anchor="middle" x="384" y="-192.6" font-family="Times,serif" font-size="14.00">SafeRolesComponent </text>
</g>
<!-- SafeRolesModule&#45;&gt;SafeRolesComponent  -->
<g id="edge6" class="edge">
<title>SafeRolesModule&#45;&gt;SafeRolesComponent </title>
<path fill="none" stroke="black" stroke-dasharray="5,2" d="M384,-149.91C384,-149.91 384,-168.79 384,-168.79"/>
<polygon fill="black" stroke="black" points="380.5,-168.79 384,-178.79 387.5,-168.79 380.5,-168.79"/>
</g>
<!-- SafeGroupListModule -->
<g id="node4" class="node">
<title>SafeGroupListModule</title>
<polygon fill="#8dd3c7" stroke="black" points="454.98,-84.8 451.98,-88.8 430.98,-88.8 427.98,-84.8 313.02,-84.8 313.02,-48.8 454.98,-48.8 454.98,-84.8"/>
<text text-anchor="middle" x="384" y="-62.6" font-family="Times,serif" font-size="14.00">SafeGroupListModule</text>
</g>
<!-- SafeGroupListModule&#45;&gt;SafeRolesModule -->
<g id="edge3" class="edge">
<title>SafeGroupListModule&#45;&gt;SafeRolesModule</title>
<path fill="none" stroke="black" d="M384,-84.91C384,-84.91 384,-103.79 384,-103.79"/>
<polygon fill="black" stroke="black" points="380.5,-103.79 384,-113.79 387.5,-103.79 380.5,-103.79"/>
</g>
<!-- SafeModalModule -->
<g id="node5" class="node">
<title>SafeModalModule</title>
<polygon fill="#8dd3c7" stroke="black" points="295.48,-84.8 292.48,-88.8 271.48,-88.8 268.48,-84.8 174.52,-84.8 174.52,-48.8 295.48,-48.8 295.48,-84.8"/>
<text text-anchor="middle" x="235" y="-62.6" font-family="Times,serif" font-size="14.00">SafeModalModule</text>
</g>
<!-- SafeModalModule&#45;&gt;SafeRolesModule -->
<g id="edge4" class="edge">
<title>SafeModalModule&#45;&gt;SafeRolesModule</title>
<path fill="none" stroke="black" d="M235,-84.82C235,-102.17 235,-125.8 235,-125.8 235,-125.8 315.54,-125.8 315.54,-125.8"/>
<polygon fill="black" stroke="black" points="315.54,-129.3 325.54,-125.8 315.54,-122.3 315.54,-129.3"/>
</g>
<!-- SafeRoleListModule -->
<g id="node6" class="node">
<title>SafeRoleListModule</title>
<polygon fill="#8dd3c7" stroke="black" points="156.15,-84.8 153.15,-88.8 132.15,-88.8 129.15,-84.8 23.85,-84.8 23.85,-48.8 156.15,-48.8 156.15,-84.8"/>
<text text-anchor="middle" x="90" y="-62.6" font-family="Times,serif" font-size="14.00">SafeRoleListModule</text>
</g>
<!-- SafeRoleListModule&#45;&gt;SafeRolesModule -->
<g id="edge5" class="edge">
<title>SafeRoleListModule&#45;&gt;SafeRolesModule</title>
<path fill="none" stroke="black" d="M90,-85.08C90,-106.12 90,-137.8 90,-137.8 90,-137.8 315.56,-137.8 315.56,-137.8"/>
<polygon fill="black" stroke="black" points="315.56,-141.3 325.56,-137.8 315.56,-134.3 315.56,-141.3"/>
</g>
</g>
</svg>
