<?xml version="1.0" encoding="UTF-8" standalone="no"?>
<!DOCTYPE svg PUBLIC "-//W3C//DTD SVG 1.1//EN"
 "http://www.w3.org/Graphics/SVG/1.1/DTD/svg11.dtd">
<!-- Generated by graphviz version 3.0.0 (20220226.1711)
 -->
<!-- Title: dependencies Pages: 1 -->
<svg width="204pt" height="247pt"
 viewBox="0.00 0.00 204.00 246.80" xmlns="http://www.w3.org/2000/svg" xmlns:xlink="http://www.w3.org/1999/xlink">
<g id="graph0" class="graph" transform="scale(1 1) rotate(0) translate(4 242.8)">
<title>dependencies</title>
<polygon fill="white" stroke="transparent" points="-4,4 -4,-242.8 200,-242.8 200,4 -4,4"/>
<text text-anchor="middle" x="98" y="-8.2" font-family="sans-serif" font-size="14.00">dependencies</text>
<g id="clust1" class="cluster">
<title>cluster_SafeReadableCronModule</title>
<polygon fill="none" stroke="black" stroke-dasharray="1,5" points="8,-32.8 8,-230.8 188,-230.8 188,-32.8 8,-32.8"/>
</g>
<g id="clust5" class="cluster">
<title>cluster_SafeReadableCronModule_exports</title>
<polygon fill="none" stroke="black" points="28,-170.8 28,-222.8 168,-222.8 168,-170.8 28,-170.8"/>
</g>
<g id="clust2" class="cluster">
<title>cluster_SafeReadableCronModule_declarations</title>
<polygon fill="none" stroke="black" points="30,-40.8 30,-92.8 166,-92.8 166,-40.8 30,-40.8"/>
</g>
<!-- ReadableCronPipe -->
<g id="node1" class="node">
<title>ReadableCronPipe</title>
<polygon fill="#ffffb3" stroke="black" points="158.47,-84.8 37.53,-84.8 37.53,-48.8 158.47,-48.8 158.47,-84.8"/>
<text text-anchor="middle" x="98" y="-62.6" font-family="Times,serif" font-size="14.00">ReadableCronPipe</text>
</g>
<!-- SafeReadableCronModule -->
<g id="node2" class="node">
<title>SafeReadableCronModule</title>
<polygon fill="#8dd3c7" stroke="black" points="180.01,-149.8 177.01,-153.8 156.01,-153.8 153.01,-149.8 15.99,-149.8 15.99,-113.8 180.01,-113.8 180.01,-149.8"/>
<text text-anchor="middle" x="98" y="-127.6" font-family="Times,serif" font-size="14.00">SafeReadableCronModule</text>
</g>
<!-- ReadableCronPipe&#45;&gt;SafeReadableCronModule -->
<g id="edge1" class="edge">
<title>ReadableCronPipe&#45;&gt;SafeReadableCronModule</title>
<path fill="none" stroke="black" d="M98,-84.91C98,-84.91 98,-103.79 98,-103.79"/>
<polygon fill="black" stroke="black" points="94.5,-103.79 98,-113.79 101.5,-103.79 94.5,-103.79"/>
</g>
<!-- ReadableCronPipe  -->
<g id="node3" class="node">
<title>ReadableCronPipe </title>
<polygon fill="#fb8072" stroke="black" points="160.47,-214.8 35.53,-214.8 35.53,-178.8 160.47,-178.8 160.47,-214.8"/>
<text text-anchor="middle" x="98" y="-192.6" font-family="Times,serif" font-size="14.00">ReadableCronPipe </text>
</g>
<!-- SafeReadableCronModule&#45;&gt;ReadableCronPipe  -->
<g id="edge2" class="edge">
<title>SafeReadableCronModule&#45;&gt;ReadableCronPipe </title>
<path fill="none" stroke="black" stroke-dasharray="5,2" d="M98,-149.91C98,-149.91 98,-168.79 98,-168.79"/>
<polygon fill="black" stroke="black" points="94.5,-168.79 98,-178.79 101.5,-168.79 94.5,-168.79"/>
</g>
</g>
</svg>
