<?xml version="1.0" encoding="UTF-8" standalone="no"?>
<!DOCTYPE svg PUBLIC "-//W3C//DTD SVG 1.1//EN"
 "http://www.w3.org/Graphics/SVG/1.1/DTD/svg11.dtd">
<!-- Generated by graphviz version 3.0.0 (20220226.1711)
 -->
<!-- Title: dependencies Pages: 1 -->
<svg width="805pt" height="247pt"
 viewBox="0.00 0.00 805.00 246.80" xmlns="http://www.w3.org/2000/svg" xmlns:xlink="http://www.w3.org/1999/xlink">
<g id="graph0" class="graph" transform="scale(1 1) rotate(0) translate(4 242.8)">
<title>dependencies</title>
<polygon fill="white" stroke="transparent" points="-4,4 -4,-242.8 801,-242.8 801,4 -4,4"/>
<text text-anchor="middle" x="398.5" y="-8.2" font-family="sans-serif" font-size="14.00">dependencies</text>
<g id="clust1" class="cluster">
<title>cluster_SafeRecordModalModule</title>
<polygon fill="none" stroke="black" stroke-dasharray="1,5" points="8,-32.8 8,-230.8 789,-230.8 789,-32.8 8,-32.8"/>
</g>
<g id="clust2" class="cluster">
<title>cluster_SafeRecordModalModule_declarations</title>
<polygon fill="none" stroke="black" points="581,-40.8 581,-92.8 781,-92.8 781,-40.8 581,-40.8"/>
</g>
<g id="clust5" class="cluster">
<title>cluster_SafeRecordModalModule_exports</title>
<polygon fill="none" stroke="black" points="312,-170.8 312,-222.8 514,-222.8 514,-170.8 312,-170.8"/>
</g>
<g id="clust4" class="cluster">
<title>cluster_SafeRecordModalModule_imports</title>
<polygon fill="none" stroke="black" points="16,-40.8 16,-92.8 573,-92.8 573,-40.8 16,-40.8"/>
</g>
<!-- SafeRecordModalComponent -->
<g id="node1" class="node">
<title>SafeRecordModalComponent</title>
<polygon fill="#ffffb3" stroke="black" points="772.69,-84.8 589.31,-84.8 589.31,-48.8 772.69,-48.8 772.69,-84.8"/>
<text text-anchor="middle" x="681" y="-62.6" font-family="Times,serif" font-size="14.00">SafeRecordModalComponent</text>
</g>
<!-- SafeRecordModalModule -->
<g id="node2" class="node">
<title>SafeRecordModalModule</title>
<polygon fill="#8dd3c7" stroke="black" points="493.91,-149.8 490.91,-153.8 469.91,-153.8 466.91,-149.8 332.09,-149.8 332.09,-113.8 493.91,-113.8 493.91,-149.8"/>
<text text-anchor="middle" x="413" y="-127.6" font-family="Times,serif" font-size="14.00">SafeRecordModalModule</text>
</g>
<!-- SafeRecordModalComponent&#45;&gt;SafeRecordModalModule -->
<g id="edge1" class="edge">
<title>SafeRecordModalComponent&#45;&gt;SafeRecordModalModule</title>
<path fill="none" stroke="black" d="M681,-84.91C681,-104.14 681,-131.8 681,-131.8 681,-131.8 503.77,-131.8 503.77,-131.8"/>
<polygon fill="black" stroke="black" points="503.77,-128.3 493.77,-131.8 503.77,-135.3 503.77,-128.3"/>
</g>
<!-- SafeRecordModalComponent  -->
<g id="node6" class="node">
<title>SafeRecordModalComponent </title>
<polygon fill="#fb8072" stroke="black" points="506.19,-214.8 319.81,-214.8 319.81,-178.8 506.19,-178.8 506.19,-214.8"/>
<text text-anchor="middle" x="413" y="-192.6" font-family="Times,serif" font-size="14.00">SafeRecordModalComponent </text>
</g>
<!-- SafeRecordModalModule&#45;&gt;SafeRecordModalComponent  -->
<g id="edge5" class="edge">
<title>SafeRecordModalModule&#45;&gt;SafeRecordModalComponent </title>
<path fill="none" stroke="black" stroke-dasharray="5,2" d="M413,-149.91C413,-149.91 413,-168.79 413,-168.79"/>
<polygon fill="black" stroke="black" points="409.5,-168.79 413,-178.79 416.5,-168.79 409.5,-168.79"/>
</g>
<!-- SafeButtonModule -->
<g id="node3" class="node">
<title>SafeButtonModule</title>
<polygon fill="#8dd3c7" stroke="black" points="565.05,-84.8 562.05,-88.8 541.05,-88.8 538.05,-84.8 442.95,-84.8 442.95,-48.8 565.05,-48.8 565.05,-84.8"/>
<text text-anchor="middle" x="504" y="-62.6" font-family="Times,serif" font-size="14.00">SafeButtonModule</text>
</g>
<!-- SafeButtonModule&#45;&gt;SafeRecordModalModule -->
<g id="edge2" class="edge">
<title>SafeButtonModule&#45;&gt;SafeRecordModalModule</title>
<path fill="none" stroke="black" d="M468.22,-84.91C468.22,-84.91 468.22,-103.79 468.22,-103.79"/>
<polygon fill="black" stroke="black" points="464.72,-103.79 468.22,-113.79 471.72,-103.79 464.72,-103.79"/>
</g>
<!-- SafeRecordHistoryModalModule -->
<g id="node4" class="node">
<title>SafeRecordHistoryModalModule</title>
<polygon fill="#8dd3c7" stroke="black" points="424.91,-84.8 421.91,-88.8 400.91,-88.8 397.91,-84.8 221.09,-84.8 221.09,-48.8 424.91,-48.8 424.91,-84.8"/>
<text text-anchor="middle" x="323" y="-62.6" font-family="Times,serif" font-size="14.00">SafeRecordHistoryModalModule</text>
</g>
<!-- SafeRecordHistoryModalModule&#45;&gt;SafeRecordModalModule -->
<g id="edge3" class="edge">
<title>SafeRecordHistoryModalModule&#45;&gt;SafeRecordModalModule</title>
<path fill="none" stroke="black" d="M378.5,-84.91C378.5,-84.91 378.5,-103.79 378.5,-103.79"/>
<polygon fill="black" stroke="black" points="375,-103.79 378.5,-113.79 382,-103.79 375,-103.79"/>
</g>
<!-- SafeRecordSummaryModule -->
<g id="node5" class="node">
<title>SafeRecordSummaryModule</title>
<polygon fill="#8dd3c7" stroke="black" points="203.8,-84.8 200.8,-88.8 179.8,-88.8 176.8,-84.8 24.2,-84.8 24.2,-48.8 203.8,-48.8 203.8,-84.8"/>
<text text-anchor="middle" x="114" y="-62.6" font-family="Times,serif" font-size="14.00">SafeRecordSummaryModule</text>
</g>
<!-- SafeRecordSummaryModule&#45;&gt;SafeRecordModalModule -->
<g id="edge4" class="edge">
<title>SafeRecordSummaryModule&#45;&gt;SafeRecordModalModule</title>
<path fill="none" stroke="black" d="M114,-84.91C114,-104.14 114,-131.8 114,-131.8 114,-131.8 322.09,-131.8 322.09,-131.8"/>
<polygon fill="black" stroke="black" points="322.09,-135.3 332.09,-131.8 322.09,-128.3 322.09,-135.3"/>
</g>
</g>
</svg>
