<?xml version="1.0" encoding="UTF-8" standalone="no"?>
<!DOCTYPE svg PUBLIC "-//W3C//DTD SVG 1.1//EN"
 "http://www.w3.org/Graphics/SVG/1.1/DTD/svg11.dtd">
<!-- Generated by graphviz version 2.47.0 (20210316.0004)
 -->
<!-- Title: dependencies Pages: 1 -->
<svg width="1021pt" height="284pt"
 viewBox="0.00 0.00 1021.00 284.00" xmlns="http://www.w3.org/2000/svg" xmlns:xlink="http://www.w3.org/1999/xlink">
<g id="graph0" class="graph" transform="scale(1 1) rotate(0) translate(4 280)">
<title>dependencies</title>
<polygon fill="white" stroke="transparent" points="-4,4 -4,-280 1017,-280 1017,4 -4,4"/>
<text text-anchor="start" x="485.51" y="-42.4" font-family="sans-serif" font-weight="bold" font-size="14.00">Legend</text>
<polygon fill="#ffffb3" stroke="transparent" points="272.5,-10 272.5,-30 292.5,-30 292.5,-10 272.5,-10"/>
<text text-anchor="start" x="296.13" y="-15.4" font-family="sans-serif" font-size="14.00"> &#160;Declarations</text>
<polygon fill="#8dd3c7" stroke="transparent" points="385.5,-10 385.5,-30 405.5,-30 405.5,-10 385.5,-10"/>
<text text-anchor="start" x="409.23" y="-15.4" font-family="sans-serif" font-size="14.00"> &#160;Module</text>
<polygon fill="#80b1d3" stroke="transparent" points="471.5,-10 471.5,-30 491.5,-30 491.5,-10 471.5,-10"/>
<text text-anchor="start" x="495.28" y="-15.4" font-family="sans-serif" font-size="14.00"> &#160;Bootstrap</text>
<polygon fill="#fdb462" stroke="transparent" points="568.5,-10 568.5,-30 588.5,-30 588.5,-10 568.5,-10"/>
<text text-anchor="start" x="592.17" y="-15.4" font-family="sans-serif" font-size="14.00"> &#160;Providers</text>
<polygon fill="#fb8072" stroke="transparent" points="664.5,-10 664.5,-30 684.5,-30 684.5,-10 664.5,-10"/>
<text text-anchor="start" x="688.23" y="-15.4" font-family="sans-serif" font-size="14.00"> &#160;Exports</text>
<g id="clust1" class="cluster">
<title>cluster_SafeApplicationsSummaryModule</title>
<polygon fill="none" stroke="black" stroke-dasharray="1,5" points="8,-70 8,-268 1005,-268 1005,-70 8,-70"/>
</g>
<g id="clust2" class="cluster">
<title>cluster_SafeApplicationsSummaryModule_declarations</title>
<polygon fill="none" stroke="black" points="290,-78 290,-130 997,-130 997,-78 290,-78"/>
</g>
<g id="clust6" class="cluster">
<title>cluster_SafeApplicationsSummaryModule_imports</title>
<polygon fill="none" stroke="black" points="16,-78 16,-130 282,-130 282,-78 16,-78"/>
</g>
<g id="clust7" class="cluster">
<title>cluster_SafeApplicationsSummaryModule_exports</title>
<polygon fill="none" stroke="black" points="37,-208 37,-260 755,-260 755,-208 37,-208"/>
</g>
<!-- SafeAddApplicationComponent -->
<g id="node1" class="node">
<title>SafeAddApplicationComponent</title>
<polygon fill="#ffffb3" stroke="black" points="989.41,-122 792.59,-122 792.59,-86 989.41,-86 989.41,-122"/>
<text text-anchor="middle" x="891" y="-99.8" font-family="Times,serif" font-size="14.00">SafeAddApplicationComponent</text>
</g>
<!-- SafeApplicationsSummaryModule -->
<g id="node4" class="node">
<title>SafeApplicationsSummaryModule</title>
<polygon fill="#8dd3c7" stroke="black" points="519.4,-187 516.4,-191 495.4,-191 492.4,-187 308.6,-187 308.6,-151 519.4,-151 519.4,-187"/>
<text text-anchor="middle" x="414" y="-164.8" font-family="Times,serif" font-size="14.00">SafeApplicationsSummaryModule</text>
</g>
<!-- SafeAddApplicationComponent&#45;&gt;SafeApplicationsSummaryModule -->
<g id="edge1" class="edge">
<title>SafeAddApplicationComponent&#45;&gt;SafeApplicationsSummaryModule</title>
<path fill="none" stroke="black" d="M891,-122.11C891,-141.34 891,-169 891,-169 891,-169 529.27,-169 529.27,-169"/>
<polygon fill="black" stroke="black" points="529.27,-165.5 519.27,-169 529.27,-172.5 529.27,-165.5"/>
</g>
<!-- SafeApplicationSummaryComponent -->
<g id="node2" class="node">
<title>SafeApplicationSummaryComponent</title>
<polygon fill="#ffffb3" stroke="black" points="774.24,-122 547.76,-122 547.76,-86 774.24,-86 774.24,-122"/>
<text text-anchor="middle" x="661" y="-99.8" font-family="Times,serif" font-size="14.00">SafeApplicationSummaryComponent</text>
</g>
<!-- SafeApplicationSummaryComponent&#45;&gt;SafeApplicationsSummaryModule -->
<g id="edge2" class="edge">
<title>SafeApplicationSummaryComponent&#45;&gt;SafeApplicationsSummaryModule</title>
<path fill="none" stroke="black" d="M614.07,-122.03C614.07,-138.4 614.07,-160 614.07,-160 614.07,-160 529.31,-160 529.31,-160"/>
<polygon fill="black" stroke="black" points="529.31,-156.5 519.31,-160 529.31,-163.5 529.31,-156.5"/>
</g>
<!-- SafeApplicationsSummaryComponent -->
<g id="node3" class="node">
<title>SafeApplicationsSummaryComponent</title>
<polygon fill="#ffffb3" stroke="black" points="530.19,-122 297.81,-122 297.81,-86 530.19,-86 530.19,-122"/>
<text text-anchor="middle" x="414" y="-99.8" font-family="Times,serif" font-size="14.00">SafeApplicationsSummaryComponent</text>
</g>
<!-- SafeApplicationsSummaryComponent&#45;&gt;SafeApplicationsSummaryModule -->
<g id="edge3" class="edge">
<title>SafeApplicationsSummaryComponent&#45;&gt;SafeApplicationsSummaryModule</title>
<path fill="none" stroke="black" d="M414,-122.11C414,-122.11 414,-140.99 414,-140.99"/>
<polygon fill="black" stroke="black" points="410.5,-140.99 414,-150.99 417.5,-140.99 410.5,-140.99"/>
</g>
<!-- SafeAddApplicationComponent  -->
<g id="node7" class="node">
<title>SafeAddApplicationComponent </title>
<polygon fill="#fb8072" stroke="black" points="746.91,-252 547.09,-252 547.09,-216 746.91,-216 746.91,-252"/>
<text text-anchor="middle" x="647" y="-229.8" font-family="Times,serif" font-size="14.00">SafeAddApplicationComponent </text>
</g>
<!-- SafeApplicationsSummaryModule&#45;&gt;SafeAddApplicationComponent  -->
<g id="edge6" class="edge">
<title>SafeApplicationsSummaryModule&#45;&gt;SafeAddApplicationComponent </title>
<path fill="none" stroke="black" stroke-dasharray="5,2" d="M519.33,-178C593.83,-178 680.51,-178 680.51,-178 680.51,-178 680.51,-205.97 680.51,-205.97"/>
<polygon fill="black" stroke="black" points="677.01,-205.97 680.51,-215.97 684.01,-205.97 677.01,-205.97"/>
</g>
<!-- SafeApplicationSummaryComponent  -->
<g id="node8" class="node">
<title>SafeApplicationSummaryComponent </title>
<polygon fill="#fb8072" stroke="black" points="529.24,-252 298.76,-252 298.76,-216 529.24,-216 529.24,-252"/>
<text text-anchor="middle" x="414" y="-229.8" font-family="Times,serif" font-size="14.00">SafeApplicationSummaryComponent </text>
</g>
<!-- SafeApplicationsSummaryModule&#45;&gt;SafeApplicationSummaryComponent  -->
<g id="edge7" class="edge">
<title>SafeApplicationsSummaryModule&#45;&gt;SafeApplicationSummaryComponent </title>
<path fill="none" stroke="black" stroke-dasharray="5,2" d="M414,-187.11C414,-187.11 414,-205.99 414,-205.99"/>
<polygon fill="black" stroke="black" points="410.5,-205.99 414,-215.99 417.5,-205.99 410.5,-205.99"/>
</g>
<!-- SafeApplicationsSummaryComponent  -->
<g id="node9" class="node">
<title>SafeApplicationsSummaryComponent </title>
<polygon fill="#fb8072" stroke="black" points="280.69,-252 45.31,-252 45.31,-216 280.69,-216 280.69,-252"/>
<text text-anchor="middle" x="163" y="-229.8" font-family="Times,serif" font-size="14.00">SafeApplicationsSummaryComponent </text>
</g>
<!-- SafeApplicationsSummaryModule&#45;&gt;SafeApplicationsSummaryComponent  -->
<g id="edge8" class="edge">
<title>SafeApplicationsSummaryModule&#45;&gt;SafeApplicationsSummaryComponent </title>
<path fill="none" stroke="black" stroke-dasharray="5,2" d="M308.48,-178C251.45,-178 192.58,-178 192.58,-178 192.58,-178 192.58,-205.97 192.58,-205.97"/>
<polygon fill="black" stroke="black" points="189.08,-205.97 192.58,-215.97 196.08,-205.97 189.08,-205.97"/>
</g>
<!-- SafeButtonModule -->
<g id="node5" class="node">
<title>SafeButtonModule</title>
<polygon fill="#8dd3c7" stroke="black" points="274.04,-122 271.04,-126 250.04,-126 247.04,-122 151.96,-122 151.96,-86 274.04,-86 274.04,-122"/>
<text text-anchor="middle" x="213" y="-99.8" font-family="Times,serif" font-size="14.00">SafeButtonModule</text>
</g>
<!-- SafeButtonModule&#45;&gt;SafeApplicationsSummaryModule -->
<g id="edge4" class="edge">
<title>SafeButtonModule&#45;&gt;SafeApplicationsSummaryModule</title>
<path fill="none" stroke="black" d="M233.42,-122.03C233.42,-138.4 233.42,-160 233.42,-160 233.42,-160 298.7,-160 298.7,-160"/>
<polygon fill="black" stroke="black" points="298.7,-163.5 308.7,-160 298.7,-156.5 298.7,-163.5"/>
</g>
<!-- SafeIconModule -->
<g id="node6" class="node">
<title>SafeIconModule</title>
<polygon fill="#8dd3c7" stroke="black" points="133.8,-122 130.8,-126 109.8,-126 106.8,-122 24.2,-122 24.2,-86 133.8,-86 133.8,-122"/>
<text text-anchor="middle" x="79" y="-99.8" font-family="Times,serif" font-size="14.00">SafeIconModule</text>
</g>
<!-- SafeIconModule&#45;&gt;SafeApplicationsSummaryModule -->
<g id="edge5" class="edge">
<title>SafeIconModule&#45;&gt;SafeApplicationsSummaryModule</title>
<path fill="none" stroke="black" d="M89.4,-122.11C89.4,-141.34 89.4,-169 89.4,-169 89.4,-169 298.61,-169 298.61,-169"/>
<polygon fill="black" stroke="black" points="298.61,-172.5 308.61,-169 298.61,-165.5 298.61,-172.5"/>
</g>
</g>
</svg>
