<?xml version="1.0" encoding="UTF-8" standalone="no"?>
<!DOCTYPE svg PUBLIC "-//W3C//DTD SVG 1.1//EN"
 "http://www.w3.org/Graphics/SVG/1.1/DTD/svg11.dtd">
<!-- Generated by graphviz version 3.0.0 (20220226.1711)
 -->
<!-- Title: dependencies Pages: 1 -->
<svg width="740pt" height="247pt"
 viewBox="0.00 0.00 740.00 246.80" xmlns="http://www.w3.org/2000/svg" xmlns:xlink="http://www.w3.org/1999/xlink">
<g id="graph0" class="graph" transform="scale(1 1) rotate(0) translate(4 242.8)">
<title>dependencies</title>
<polygon fill="white" stroke="transparent" points="-4,4 -4,-242.8 736,-242.8 736,4 -4,4"/>
<text text-anchor="middle" x="366" y="-8.2" font-family="sans-serif" font-size="14.00">dependencies</text>
<g id="clust1" class="cluster">
<title>cluster_SafeTemplatesModule</title>
<polygon fill="none" stroke="black" stroke-dasharray="1,5" points="8,-32.8 8,-230.8 724,-230.8 724,-32.8 8,-32.8"/>
</g>
<g id="clust2" class="cluster">
<title>cluster_SafeTemplatesModule_declarations</title>
<polygon fill="none" stroke="black" points="536,-40.8 536,-92.8 716,-92.8 716,-40.8 536,-40.8"/>
</g>
<g id="clust4" class="cluster">
<title>cluster_SafeTemplatesModule_imports</title>
<polygon fill="none" stroke="black" points="16,-40.8 16,-92.8 528,-92.8 528,-40.8 16,-40.8"/>
</g>
<g id="clust5" class="cluster">
<title>cluster_SafeTemplatesModule_exports</title>
<polygon fill="none" stroke="black" points="259,-170.8 259,-222.8 443,-222.8 443,-170.8 259,-170.8"/>
</g>
<!-- SafeTemplatesComponent -->
<g id="node1" class="node">
<title>SafeTemplatesComponent</title>
<polygon fill="#ffffb3" stroke="black" points="708.02,-84.8 543.98,-84.8 543.98,-48.8 708.02,-48.8 708.02,-84.8"/>
<text text-anchor="middle" x="626" y="-62.6" font-family="Times,serif" font-size="14.00">SafeTemplatesComponent</text>
</g>
<!-- SafeTemplatesModule -->
<g id="node2" class="node">
<title>SafeTemplatesModule</title>
<polygon fill="#8dd3c7" stroke="black" points="422.24,-149.8 419.24,-153.8 398.24,-153.8 395.24,-149.8 279.76,-149.8 279.76,-113.8 422.24,-113.8 422.24,-149.8"/>
<text text-anchor="middle" x="351" y="-127.6" font-family="Times,serif" font-size="14.00">SafeTemplatesModule</text>
</g>
<!-- SafeTemplatesComponent&#45;&gt;SafeTemplatesModule -->
<g id="edge1" class="edge">
<title>SafeTemplatesComponent&#45;&gt;SafeTemplatesModule</title>
<path fill="none" stroke="black" d="M626,-84.91C626,-104.14 626,-131.8 626,-131.8 626,-131.8 432.54,-131.8 432.54,-131.8"/>
<polygon fill="black" stroke="black" points="432.54,-128.3 422.54,-131.8 432.54,-135.3 432.54,-128.3"/>
</g>
<!-- SafeTemplatesComponent  -->
<g id="node6" class="node">
<title>SafeTemplatesComponent </title>
<polygon fill="#fb8072" stroke="black" points="435.02,-214.8 266.98,-214.8 266.98,-178.8 435.02,-178.8 435.02,-214.8"/>
<text text-anchor="middle" x="351" y="-192.6" font-family="Times,serif" font-size="14.00">SafeTemplatesComponent </text>
</g>
<!-- SafeTemplatesModule&#45;&gt;SafeTemplatesComponent  -->
<g id="edge5" class="edge">
<title>SafeTemplatesModule&#45;&gt;SafeTemplatesComponent </title>
<path fill="none" stroke="black" stroke-dasharray="5,2" d="M351,-149.91C351,-149.91 351,-168.79 351,-168.79"/>
<polygon fill="black" stroke="black" points="347.5,-168.79 351,-178.79 354.5,-168.79 347.5,-168.79"/>
</g>
<!-- EditTemplateModalModule -->
<g id="node3" class="node">
<title>EditTemplateModalModule</title>
<polygon fill="#8dd3c7" stroke="black" points="520.3,-84.8 517.3,-88.8 496.3,-88.8 493.3,-84.8 347.7,-84.8 347.7,-48.8 520.3,-48.8 520.3,-84.8"/>
<text text-anchor="middle" x="434" y="-62.6" font-family="Times,serif" font-size="14.00">EditTemplateModalModule</text>
</g>
<!-- EditTemplateModalModule&#45;&gt;SafeTemplatesModule -->
<g id="edge2" class="edge">
<title>EditTemplateModalModule&#45;&gt;SafeTemplatesModule</title>
<path fill="none" stroke="black" d="M385.11,-84.91C385.11,-84.91 385.11,-103.79 385.11,-103.79"/>
<polygon fill="black" stroke="black" points="381.61,-103.79 385.11,-113.79 388.61,-103.79 381.61,-103.79"/>
</g>
<!-- SafeButtonModule -->
<g id="node4" class="node">
<title>SafeButtonModule</title>
<polygon fill="#8dd3c7" stroke="black" points="330.05,-84.8 327.05,-88.8 306.05,-88.8 303.05,-84.8 207.95,-84.8 207.95,-48.8 330.05,-48.8 330.05,-84.8"/>
<text text-anchor="middle" x="269" y="-62.6" font-family="Times,serif" font-size="14.00">SafeButtonModule</text>
</g>
<!-- SafeButtonModule&#45;&gt;SafeTemplatesModule -->
<g id="edge3" class="edge">
<title>SafeButtonModule&#45;&gt;SafeTemplatesModule</title>
<path fill="none" stroke="black" d="M304.95,-84.91C304.95,-84.91 304.95,-103.79 304.95,-103.79"/>
<polygon fill="black" stroke="black" points="301.45,-103.79 304.95,-113.79 308.45,-103.79 301.45,-103.79"/>
</g>
<!-- SafeSkeletonTableModule -->
<g id="node5" class="node">
<title>SafeSkeletonTableModule</title>
<polygon fill="#8dd3c7" stroke="black" points="189.79,-84.8 186.79,-88.8 165.79,-88.8 162.79,-84.8 24.21,-84.8 24.21,-48.8 189.79,-48.8 189.79,-84.8"/>
<text text-anchor="middle" x="107" y="-62.6" font-family="Times,serif" font-size="14.00">SafeSkeletonTableModule</text>
</g>
<!-- SafeSkeletonTableModule&#45;&gt;SafeTemplatesModule -->
<g id="edge4" class="edge">
<title>SafeSkeletonTableModule&#45;&gt;SafeTemplatesModule</title>
<path fill="none" stroke="black" d="M107,-84.91C107,-104.14 107,-131.8 107,-131.8 107,-131.8 269.44,-131.8 269.44,-131.8"/>
<polygon fill="black" stroke="black" points="269.44,-135.3 279.44,-131.8 269.44,-128.3 269.44,-135.3"/>
</g>
</g>
</svg>
