<?xml version="1.0" encoding="UTF-8" standalone="no"?>
<!DOCTYPE svg PUBLIC "-//W3C//DTD SVG 1.1//EN"
 "http://www.w3.org/Graphics/SVG/1.1/DTD/svg11.dtd">
<!-- Generated by graphviz version 3.0.0 (20220226.1711)
 -->
<!-- Title: dependencies Pages: 1 -->
<svg width="740pt" height="247pt"
 viewBox="0.00 0.00 740.00 246.80" xmlns="http://www.w3.org/2000/svg" xmlns:xlink="http://www.w3.org/1999/xlink">
<g id="graph0" class="graph" transform="scale(1 1) rotate(0) translate(4 242.8)">
<title>dependencies</title>
<polygon fill="white" stroke="transparent" points="-4,4 -4,-242.8 736,-242.8 736,4 -4,4"/>
<text text-anchor="middle" x="366" y="-8.2" font-family="sans-serif" font-size="14.00">dependencies</text>
<g id="clust1" class="cluster">
<title>cluster_SafeTemplatesModule</title>
<polygon fill="none" stroke="black" stroke-dasharray="1,5" points="8,-32.8 8,-230.8 724,-230.8 724,-32.8 8,-32.8"/>
</g>
<g id="clust4" class="cluster">
<title>cluster_SafeTemplatesModule_imports</title>
<polygon fill="none" stroke="black" points="204,-40.8 204,-92.8 716,-92.8 716,-40.8 204,-40.8"/>
</g>
<g id="clust2" class="cluster">
<title>cluster_SafeTemplatesModule_declarations</title>
<polygon fill="none" stroke="black" points="16,-40.8 16,-92.8 196,-92.8 196,-40.8 16,-40.8"/>
</g>
<g id="clust5" class="cluster">
<title>cluster_SafeTemplatesModule_exports</title>
<polygon fill="none" stroke="black" points="284,-170.8 284,-222.8 468,-222.8 468,-170.8 284,-170.8"/>
</g>
<!-- SafeTemplatesComponent -->
<g id="node1" class="node">
<title>SafeTemplatesComponent</title>
<polygon fill="#ffffb3" stroke="black" points="188.02,-84.8 23.98,-84.8 23.98,-48.8 188.02,-48.8 188.02,-84.8"/>
<text text-anchor="middle" x="106" y="-62.6" font-family="Times,serif" font-size="14.00">SafeTemplatesComponent</text>
</g>
<!-- SafeTemplatesModule -->
<g id="node2" class="node">
<title>SafeTemplatesModule</title>
<polygon fill="#8dd3c7" stroke="black" points="447.24,-149.8 444.24,-153.8 423.24,-153.8 420.24,-149.8 304.76,-149.8 304.76,-113.8 447.24,-113.8 447.24,-149.8"/>
<text text-anchor="middle" x="376" y="-127.6" font-family="Times,serif" font-size="14.00">SafeTemplatesModule</text>
</g>
<!-- SafeTemplatesComponent&#45;&gt;SafeTemplatesModule -->
<g id="edge1" class="edge">
<title>SafeTemplatesComponent&#45;&gt;SafeTemplatesModule</title>
<path fill="none" stroke="black" d="M106,-84.91C106,-104.14 106,-131.8 106,-131.8 106,-131.8 294.71,-131.8 294.71,-131.8"/>
<polygon fill="black" stroke="black" points="294.71,-135.3 304.71,-131.8 294.71,-128.3 294.71,-135.3"/>
</g>
<!-- SafeTemplatesComponent  -->
<g id="node6" class="node">
<title>SafeTemplatesComponent </title>
<polygon fill="#fb8072" stroke="black" points="460.02,-214.8 291.98,-214.8 291.98,-178.8 460.02,-178.8 460.02,-214.8"/>
<text text-anchor="middle" x="376" y="-192.6" font-family="Times,serif" font-size="14.00">SafeTemplatesComponent </text>
</g>
<!-- SafeTemplatesModule&#45;&gt;SafeTemplatesComponent  -->
<g id="edge5" class="edge">
<title>SafeTemplatesModule&#45;&gt;SafeTemplatesComponent </title>
<path fill="none" stroke="black" stroke-dasharray="5,2" d="M376,-149.91C376,-149.91 376,-168.79 376,-168.79"/>
<polygon fill="black" stroke="black" points="372.5,-168.79 376,-178.79 379.5,-168.79 372.5,-168.79"/>
</g>
<!-- EditTemplateModalModule -->
<g id="node3" class="node">
<title>EditTemplateModalModule</title>
<polygon fill="#8dd3c7" stroke="black" points="708.3,-84.8 705.3,-88.8 684.3,-88.8 681.3,-84.8 535.7,-84.8 535.7,-48.8 708.3,-48.8 708.3,-84.8"/>
<text text-anchor="middle" x="622" y="-62.6" font-family="Times,serif" font-size="14.00">EditTemplateModalModule</text>
</g>
<!-- EditTemplateModalModule&#45;&gt;SafeTemplatesModule -->
<g id="edge2" class="edge">
<title>EditTemplateModalModule&#45;&gt;SafeTemplatesModule</title>
<path fill="none" stroke="black" d="M622,-84.91C622,-104.14 622,-131.8 622,-131.8 622,-131.8 457.48,-131.8 457.48,-131.8"/>
<polygon fill="black" stroke="black" points="457.48,-128.3 447.48,-131.8 457.48,-135.3 457.48,-128.3"/>
</g>
<!-- SafeButtonModule -->
<g id="node4" class="node">
<title>SafeButtonModule</title>
<polygon fill="#8dd3c7" stroke="black" points="518.05,-84.8 515.05,-88.8 494.05,-88.8 491.05,-84.8 395.95,-84.8 395.95,-48.8 518.05,-48.8 518.05,-84.8"/>
<text text-anchor="middle" x="457" y="-62.6" font-family="Times,serif" font-size="14.00">SafeButtonModule</text>
</g>
<!-- SafeButtonModule&#45;&gt;SafeTemplatesModule -->
<g id="edge3" class="edge">
<title>SafeButtonModule&#45;&gt;SafeTemplatesModule</title>
<path fill="none" stroke="black" d="M421.55,-84.91C421.55,-84.91 421.55,-103.79 421.55,-103.79"/>
<polygon fill="black" stroke="black" points="418.05,-103.79 421.55,-113.79 425.05,-103.79 418.05,-103.79"/>
</g>
<!-- SafeSkeletonTableModule -->
<g id="node5" class="node">
<title>SafeSkeletonTableModule</title>
<polygon fill="#8dd3c7" stroke="black" points="377.79,-84.8 374.79,-88.8 353.79,-88.8 350.79,-84.8 212.21,-84.8 212.21,-48.8 377.79,-48.8 377.79,-84.8"/>
<text text-anchor="middle" x="295" y="-62.6" font-family="Times,serif" font-size="14.00">SafeSkeletonTableModule</text>
</g>
<!-- SafeSkeletonTableModule&#45;&gt;SafeTemplatesModule -->
<g id="edge4" class="edge">
<title>SafeSkeletonTableModule&#45;&gt;SafeTemplatesModule</title>
<path fill="none" stroke="black" d="M341.14,-84.91C341.14,-84.91 341.14,-103.79 341.14,-103.79"/>
<polygon fill="black" stroke="black" points="337.64,-103.79 341.14,-113.79 344.64,-103.79 337.64,-103.79"/>
</g>
</g>
</svg>
