<?xml version="1.0" encoding="UTF-8" standalone="no"?>
<!DOCTYPE svg PUBLIC "-//W3C//DTD SVG 1.1//EN"
 "http://www.w3.org/Graphics/SVG/1.1/DTD/svg11.dtd">
<!-- Generated by graphviz version 3.0.0 (20220226.1711)
 -->
<!-- Title: dependencies Pages: 1 -->
<svg width="885pt" height="247pt"
 viewBox="0.00 0.00 885.00 246.80" xmlns="http://www.w3.org/2000/svg" xmlns:xlink="http://www.w3.org/1999/xlink">
<g id="graph0" class="graph" transform="scale(1 1) rotate(0) translate(4 242.8)">
<title>dependencies</title>
<polygon fill="white" stroke="transparent" points="-4,4 -4,-242.8 881,-242.8 881,4 -4,4"/>
<text text-anchor="middle" x="438.5" y="-8.2" font-family="sans-serif" font-size="14.00">dependencies</text>
<g id="clust1" class="cluster">
<title>cluster_SafeTemplatesModule</title>
<polygon fill="none" stroke="black" stroke-dasharray="1,5" points="8,-32.8 8,-230.8 869,-230.8 869,-32.8 8,-32.8"/>
</g>
<g id="clust5" class="cluster">
<title>cluster_SafeTemplatesModule_exports</title>
<polygon fill="none" stroke="black" points="367,-170.8 367,-222.8 551,-222.8 551,-170.8 367,-170.8"/>
</g>
<g id="clust4" class="cluster">
<title>cluster_SafeTemplatesModule_imports</title>
<polygon fill="none" stroke="black" points="204,-40.8 204,-92.8 861,-92.8 861,-40.8 204,-40.8"/>
</g>
<g id="clust2" class="cluster">
<title>cluster_SafeTemplatesModule_declarations</title>
<polygon fill="none" stroke="black" points="16,-40.8 16,-92.8 196,-92.8 196,-40.8 16,-40.8"/>
</g>
<!-- SafeTemplatesComponent -->
<g id="node1" class="node">
<title>SafeTemplatesComponent</title>
<polygon fill="#ffffb3" stroke="black" points="188.02,-84.8 23.98,-84.8 23.98,-48.8 188.02,-48.8 188.02,-84.8"/>
<text text-anchor="middle" x="106" y="-62.6" font-family="Times,serif" font-size="14.00">SafeTemplatesComponent</text>
</g>
<!-- SafeTemplatesModule -->
<g id="node2" class="node">
<title>SafeTemplatesModule</title>
<polygon fill="#8dd3c7" stroke="black" points="530.24,-149.8 527.24,-153.8 506.24,-153.8 503.24,-149.8 387.76,-149.8 387.76,-113.8 530.24,-113.8 530.24,-149.8"/>
<text text-anchor="middle" x="459" y="-127.6" font-family="Times,serif" font-size="14.00">SafeTemplatesModule</text>
</g>
<!-- SafeTemplatesComponent&#45;&gt;SafeTemplatesModule -->
<g id="edge1" class="edge">
<title>SafeTemplatesComponent&#45;&gt;SafeTemplatesModule</title>
<path fill="none" stroke="black" d="M106,-84.91C106,-104.14 106,-131.8 106,-131.8 106,-131.8 377.57,-131.8 377.57,-131.8"/>
<polygon fill="black" stroke="black" points="377.57,-135.3 387.57,-131.8 377.57,-128.3 377.57,-135.3"/>
</g>
<!-- SafeTemplatesComponent  -->
<g id="node7" class="node">
<title>SafeTemplatesComponent </title>
<polygon fill="#fb8072" stroke="black" points="543.02,-214.8 374.98,-214.8 374.98,-178.8 543.02,-178.8 543.02,-214.8"/>
<text text-anchor="middle" x="459" y="-192.6" font-family="Times,serif" font-size="14.00">SafeTemplatesComponent </text>
</g>
<!-- SafeTemplatesModule&#45;&gt;SafeTemplatesComponent  -->
<g id="edge6" class="edge">
<title>SafeTemplatesModule&#45;&gt;SafeTemplatesComponent </title>
<path fill="none" stroke="black" stroke-dasharray="5,2" d="M459,-149.91C459,-149.91 459,-168.79 459,-168.79"/>
<polygon fill="black" stroke="black" points="455.5,-168.79 459,-178.79 462.5,-168.79 455.5,-168.79"/>
</g>
<!-- EditTemplateModalModule -->
<g id="node3" class="node">
<title>EditTemplateModalModule</title>
<polygon fill="#8dd3c7" stroke="black" points="853.3,-84.8 850.3,-88.8 829.3,-88.8 826.3,-84.8 680.7,-84.8 680.7,-48.8 853.3,-48.8 853.3,-84.8"/>
<text text-anchor="middle" x="767" y="-62.6" font-family="Times,serif" font-size="14.00">EditTemplateModalModule</text>
</g>
<!-- EditTemplateModalModule&#45;&gt;SafeTemplatesModule -->
<g id="edge2" class="edge">
<title>EditTemplateModalModule&#45;&gt;SafeTemplatesModule</title>
<path fill="none" stroke="black" d="M767,-84.91C767,-104.14 767,-131.8 767,-131.8 767,-131.8 540.44,-131.8 540.44,-131.8"/>
<polygon fill="black" stroke="black" points="540.44,-128.3 530.44,-131.8 540.44,-135.3 540.44,-128.3"/>
</g>
<!-- SafeButtonModule -->
<g id="node4" class="node">
<title>SafeButtonModule</title>
<polygon fill="#8dd3c7" stroke="black" points="663.05,-84.8 660.05,-88.8 639.05,-88.8 636.05,-84.8 540.95,-84.8 540.95,-48.8 663.05,-48.8 663.05,-84.8"/>
<text text-anchor="middle" x="602" y="-62.6" font-family="Times,serif" font-size="14.00">SafeButtonModule</text>
</g>
<!-- SafeButtonModule&#45;&gt;SafeTemplatesModule -->
<g id="edge3" class="edge">
<title>SafeButtonModule&#45;&gt;SafeTemplatesModule</title>
<path fill="none" stroke="black" d="M540.69,-66.8C532.29,-66.8 526.48,-66.8 526.48,-66.8 526.48,-66.8 526.48,-103.69 526.48,-103.69"/>
<polygon fill="black" stroke="black" points="522.98,-103.69 526.48,-113.69 529.98,-103.69 522.98,-103.69"/>
</g>
<!-- SafeDividerModule -->
<g id="node5" class="node">
<title>SafeDividerModule</title>
<polygon fill="#8dd3c7" stroke="black" points="522.69,-84.8 519.69,-88.8 498.69,-88.8 495.69,-84.8 395.31,-84.8 395.31,-48.8 522.69,-48.8 522.69,-84.8"/>
<text text-anchor="middle" x="459" y="-62.6" font-family="Times,serif" font-size="14.00">SafeDividerModule</text>
</g>
<!-- SafeDividerModule&#45;&gt;SafeTemplatesModule -->
<g id="edge4" class="edge">
<title>SafeDividerModule&#45;&gt;SafeTemplatesModule</title>
<path fill="none" stroke="black" d="M459,-84.91C459,-84.91 459,-103.79 459,-103.79"/>
<polygon fill="black" stroke="black" points="455.5,-103.79 459,-113.79 462.5,-103.79 455.5,-103.79"/>
</g>
<!-- SafeSkeletonTableModule -->
<g id="node6" class="node">
<title>SafeSkeletonTableModule</title>
<polygon fill="#8dd3c7" stroke="black" points="377.79,-84.8 374.79,-88.8 353.79,-88.8 350.79,-84.8 212.21,-84.8 212.21,-48.8 377.79,-48.8 377.79,-84.8"/>
<text text-anchor="middle" x="295" y="-62.6" font-family="Times,serif" font-size="14.00">SafeSkeletonTableModule</text>
</g>
<!-- SafeSkeletonTableModule&#45;&gt;SafeTemplatesModule -->
<g id="edge5" class="edge">
<title>SafeSkeletonTableModule&#45;&gt;SafeTemplatesModule</title>
<path fill="none" stroke="black" d="M377.69,-66.8C386.04,-66.8 391.52,-66.8 391.52,-66.8 391.52,-66.8 391.52,-103.69 391.52,-103.69"/>
<polygon fill="black" stroke="black" points="388.02,-103.69 391.52,-113.69 395.02,-103.69 388.02,-103.69"/>
</g>
</g>
</svg>
