<?xml version="1.0" encoding="UTF-8" standalone="no"?>
<!DOCTYPE svg PUBLIC "-//W3C//DTD SVG 1.1//EN"
 "http://www.w3.org/Graphics/SVG/1.1/DTD/svg11.dtd">
<!-- Generated by graphviz version 2.47.0 (20210316.0004)
 -->
<!-- Title: dependencies Pages: 1 -->
<svg width="652pt" height="211pt"
 viewBox="0.00 0.00 652.00 211.00" xmlns="http://www.w3.org/2000/svg" xmlns:xlink="http://www.w3.org/1999/xlink">
<g id="graph0" class="graph" transform="scale(1 1) rotate(0) translate(4 207)">
<title>dependencies</title>
<polygon fill="white" stroke="transparent" points="-4,4 -4,-207 648,-207 648,4 -4,4"/>
<text text-anchor="start" x="301.01" y="-42.4" font-family="sans-serif" font-weight="bold" font-size="14.00">Legend</text>
<polygon fill="#ffffb3" stroke="transparent" points="88,-10 88,-30 108,-30 108,-10 88,-10"/>
<text text-anchor="start" x="111.63" y="-15.4" font-family="sans-serif" font-size="14.00"> &#160;Declarations</text>
<polygon fill="#8dd3c7" stroke="transparent" points="201,-10 201,-30 221,-30 221,-10 201,-10"/>
<text text-anchor="start" x="224.73" y="-15.4" font-family="sans-serif" font-size="14.00"> &#160;Module</text>
<polygon fill="#80b1d3" stroke="transparent" points="287,-10 287,-30 307,-30 307,-10 287,-10"/>
<text text-anchor="start" x="310.78" y="-15.4" font-family="sans-serif" font-size="14.00"> &#160;Bootstrap</text>
<polygon fill="#fdb462" stroke="transparent" points="384,-10 384,-30 404,-30 404,-10 384,-10"/>
<text text-anchor="start" x="407.67" y="-15.4" font-family="sans-serif" font-size="14.00"> &#160;Providers</text>
<polygon fill="#fb8072" stroke="transparent" points="480,-10 480,-30 500,-30 500,-10 480,-10"/>
<text text-anchor="start" x="503.73" y="-15.4" font-family="sans-serif" font-size="14.00"> &#160;Exports</text>
<g id="clust1" class="cluster">
<title>cluster_PullJobsModule</title>
<polygon fill="none" stroke="black" stroke-dasharray="1,5" points="8,-70 8,-195 636,-195 636,-70 8,-70"/>
</g>
<g id="clust2" class="cluster">
<title>cluster_PullJobsModule_declarations</title>
<polygon fill="none" stroke="black" points="306,-78 306,-130 628,-130 628,-78 306,-78"/>
</g>
<g id="clust5" class="cluster">
<title>cluster_PullJobsModule_imports</title>
<polygon fill="none" stroke="black" points="16,-78 16,-130 298,-130 298,-78 16,-78"/>
</g>
<!-- PullJobModalComponent -->
<g id="node1" class="node">
<title>PullJobModalComponent</title>
<polygon fill="#ffffb3" stroke="black" points="619.89,-122 460.11,-122 460.11,-86 619.89,-86 619.89,-122"/>
<text text-anchor="middle" x="540" y="-99.8" font-family="Times,serif" font-size="14.00">PullJobModalComponent</text>
</g>
<!-- PullJobsModule -->
<g id="node3" class="node">
<title>PullJobsModule</title>
<polygon fill="#8dd3c7" stroke="black" points="363.5,-187 360.5,-191 339.5,-191 336.5,-187 256.5,-187 256.5,-151 363.5,-151 363.5,-187"/>
<text text-anchor="middle" x="310" y="-164.8" font-family="Times,serif" font-size="14.00">PullJobsModule</text>
</g>
<!-- PullJobModalComponent&#45;&gt;PullJobsModule -->
<g id="edge1" class="edge">
<title>PullJobModalComponent&#45;&gt;PullJobsModule</title>
<path fill="none" stroke="black" d="M540,-122.11C540,-141.34 540,-169 540,-169 540,-169 373.63,-169 373.63,-169"/>
<polygon fill="black" stroke="black" points="373.63,-165.5 363.63,-169 373.63,-172.5 373.63,-165.5"/>
</g>
<!-- PullJobsComponent -->
<g id="node2" class="node">
<title>PullJobsComponent</title>
<polygon fill="#ffffb3" stroke="black" points="442.29,-122 313.71,-122 313.71,-86 442.29,-86 442.29,-122"/>
<text text-anchor="middle" x="378" y="-99.8" font-family="Times,serif" font-size="14.00">PullJobsComponent</text>
</g>
<!-- PullJobsComponent&#45;&gt;PullJobsModule -->
<g id="edge2" class="edge">
<title>PullJobsComponent&#45;&gt;PullJobsModule</title>
<path fill="none" stroke="black" d="M338.55,-122.11C338.55,-122.11 338.55,-140.99 338.55,-140.99"/>
<polygon fill="black" stroke="black" points="335.05,-140.99 338.55,-150.99 342.05,-140.99 335.05,-140.99"/>
</g>
<!-- FormsModule -->
<g id="node4" class="node">
<title>FormsModule</title>
<polygon fill="#8dd3c7" stroke="black" points="289.83,-122 286.83,-126 265.83,-126 262.83,-122 194.17,-122 194.17,-86 289.83,-86 289.83,-122"/>
<text text-anchor="middle" x="242" y="-99.8" font-family="Times,serif" font-size="14.00">FormsModule</text>
</g>
<!-- FormsModule&#45;&gt;PullJobsModule -->
<g id="edge3" class="edge">
<title>FormsModule&#45;&gt;PullJobsModule</title>
<path fill="none" stroke="black" d="M273.08,-122.11C273.08,-122.11 273.08,-140.99 273.08,-140.99"/>
<polygon fill="black" stroke="black" points="269.58,-140.99 273.08,-150.99 276.58,-140.99 269.58,-140.99"/>
</g>
<!-- PullJobsRoutingModule -->
<g id="node5" class="node">
<title>PullJobsRoutingModule</title>
<polygon fill="#8dd3c7" stroke="black" points="176.12,-122 173.12,-126 152.12,-126 149.12,-122 23.88,-122 23.88,-86 176.12,-86 176.12,-122"/>
<text text-anchor="middle" x="100" y="-99.8" font-family="Times,serif" font-size="14.00">PullJobsRoutingModule</text>
</g>
<!-- PullJobsRoutingModule&#45;&gt;PullJobsModule -->
<g id="edge4" class="edge">
<title>PullJobsRoutingModule&#45;&gt;PullJobsModule</title>
<path fill="none" stroke="black" d="M100,-122.11C100,-141.34 100,-169 100,-169 100,-169 246.46,-169 246.46,-169"/>
<polygon fill="black" stroke="black" points="246.46,-172.5 256.46,-169 246.46,-165.5 246.46,-172.5"/>
</g>
</g>
</svg>
