<?xml version="1.0" encoding="UTF-8" standalone="no"?>
<!DOCTYPE svg PUBLIC "-//W3C//DTD SVG 1.1//EN"
 "http://www.w3.org/Graphics/SVG/1.1/DTD/svg11.dtd">
<!-- Generated by graphviz version 3.0.0 (20220226.1711)
 -->
<!-- Title: dependencies Pages: 1 -->
<svg width="784pt" height="247pt"
 viewBox="0.00 0.00 784.00 246.80" xmlns="http://www.w3.org/2000/svg" xmlns:xlink="http://www.w3.org/1999/xlink">
<g id="graph0" class="graph" transform="scale(1 1) rotate(0) translate(4 242.8)">
<title>dependencies</title>
<polygon fill="white" stroke="transparent" points="-4,4 -4,-242.8 780,-242.8 780,4 -4,4"/>
<text text-anchor="middle" x="388" y="-8.2" font-family="sans-serif" font-size="14.00">dependencies</text>
<g id="clust1" class="cluster">
<title>cluster_MapOnlineLayersModule</title>
<polygon fill="none" stroke="black" stroke-dasharray="1,5" points="8,-32.8 8,-230.8 768,-230.8 768,-32.8 8,-32.8"/>
</g>
<g id="clust4" class="cluster">
<title>cluster_MapOnlineLayersModule_imports</title>
<polygon fill="none" stroke="black" points="224,-40.8 224,-92.8 760,-92.8 760,-40.8 224,-40.8"/>
</g>
<g id="clust2" class="cluster">
<title>cluster_MapOnlineLayersModule_declarations</title>
<polygon fill="none" stroke="black" points="16,-40.8 16,-92.8 216,-92.8 216,-40.8 16,-40.8"/>
</g>
<g id="clust5" class="cluster">
<title>cluster_MapOnlineLayersModule_exports</title>
<polygon fill="none" stroke="black" points="320,-170.8 320,-222.8 522,-222.8 522,-170.8 320,-170.8"/>
</g>
<!-- MapOnlineLayersComponent -->
<g id="node1" class="node">
<title>MapOnlineLayersComponent</title>
<polygon fill="#ffffb3" stroke="black" points="207.69,-84.8 24.31,-84.8 24.31,-48.8 207.69,-48.8 207.69,-84.8"/>
<text text-anchor="middle" x="116" y="-62.6" font-family="Times,serif" font-size="14.00">MapOnlineLayersComponent</text>
</g>
<!-- MapOnlineLayersModule -->
<g id="node2" class="node">
<title>MapOnlineLayersModule</title>
<polygon fill="#8dd3c7" stroke="black" points="501.91,-149.8 498.91,-153.8 477.91,-153.8 474.91,-149.8 340.09,-149.8 340.09,-113.8 501.91,-113.8 501.91,-149.8"/>
<text text-anchor="middle" x="421" y="-127.6" font-family="Times,serif" font-size="14.00">MapOnlineLayersModule</text>
</g>
<!-- MapOnlineLayersComponent&#45;&gt;MapOnlineLayersModule -->
<g id="edge1" class="edge">
<title>MapOnlineLayersComponent&#45;&gt;MapOnlineLayersModule</title>
<path fill="none" stroke="black" d="M116,-84.82C116,-102.17 116,-125.8 116,-125.8 116,-125.8 330.07,-125.8 330.07,-125.8"/>
<polygon fill="black" stroke="black" points="330.07,-129.3 340.07,-125.8 330.07,-122.3 330.07,-129.3"/>
</g>
<!-- MapOnlineLayersComponent  -->
<g id="node7" class="node">
<title>MapOnlineLayersComponent </title>
<polygon fill="#fb8072" stroke="black" points="514.19,-214.8 327.81,-214.8 327.81,-178.8 514.19,-178.8 514.19,-214.8"/>
<text text-anchor="middle" x="421" y="-192.6" font-family="Times,serif" font-size="14.00">MapOnlineLayersComponent </text>
</g>
<!-- MapOnlineLayersModule&#45;&gt;MapOnlineLayersComponent  -->
<g id="edge6" class="edge">
<title>MapOnlineLayersModule&#45;&gt;MapOnlineLayersComponent </title>
<path fill="none" stroke="black" stroke-dasharray="5,2" d="M421,-149.91C421,-149.91 421,-168.79 421,-168.79"/>
<polygon fill="black" stroke="black" points="417.5,-168.79 421,-178.79 424.5,-168.79 417.5,-168.79"/>
</g>
<!-- SafeAlertModule -->
<g id="node3" class="node">
<title>SafeAlertModule</title>
<polygon fill="#8dd3c7" stroke="black" points="751.69,-84.8 748.69,-88.8 727.69,-88.8 724.69,-84.8 638.31,-84.8 638.31,-48.8 751.69,-48.8 751.69,-84.8"/>
<text text-anchor="middle" x="695" y="-62.6" font-family="Times,serif" font-size="14.00">SafeAlertModule</text>
</g>
<!-- SafeAlertModule&#45;&gt;MapOnlineLayersModule -->
<g id="edge2" class="edge">
<title>SafeAlertModule&#45;&gt;MapOnlineLayersModule</title>
<path fill="none" stroke="black" d="M695,-85.08C695,-106.12 695,-137.8 695,-137.8 695,-137.8 511.73,-137.8 511.73,-137.8"/>
<polygon fill="black" stroke="black" points="511.73,-134.3 501.73,-137.8 511.73,-141.3 511.73,-134.3"/>
</g>
<!-- SafeBadgeModule -->
<g id="node4" class="node">
<title>SafeBadgeModule</title>
<polygon fill="#8dd3c7" stroke="black" points="620.19,-84.8 617.19,-88.8 596.19,-88.8 593.19,-84.8 499.81,-84.8 499.81,-48.8 620.19,-48.8 620.19,-84.8"/>
<text text-anchor="middle" x="560" y="-62.6" font-family="Times,serif" font-size="14.00">SafeBadgeModule</text>
</g>
<!-- SafeBadgeModule&#45;&gt;MapOnlineLayersModule -->
<g id="edge3" class="edge">
<title>SafeBadgeModule&#45;&gt;MapOnlineLayersModule</title>
<path fill="none" stroke="black" d="M508.02,-84.82C508.02,-102.17 508.02,-125.8 508.02,-125.8 508.02,-125.8 507.4,-125.8 507.4,-125.8"/>
<polygon fill="black" stroke="black" points="511.76,-122.3 501.76,-125.8 511.76,-129.3 511.76,-122.3"/>
</g>
<!-- SafeButtonModule -->
<g id="node5" class="node">
<title>SafeButtonModule</title>
<polygon fill="#8dd3c7" stroke="black" points="482.05,-84.8 479.05,-88.8 458.05,-88.8 455.05,-84.8 359.95,-84.8 359.95,-48.8 482.05,-48.8 482.05,-84.8"/>
<text text-anchor="middle" x="421" y="-62.6" font-family="Times,serif" font-size="14.00">SafeButtonModule</text>
</g>
<!-- SafeButtonModule&#45;&gt;MapOnlineLayersModule -->
<g id="edge4" class="edge">
<title>SafeButtonModule&#45;&gt;MapOnlineLayersModule</title>
<path fill="none" stroke="black" d="M421,-84.91C421,-84.91 421,-103.79 421,-103.79"/>
<polygon fill="black" stroke="black" points="417.5,-103.79 421,-113.79 424.5,-103.79 417.5,-103.79"/>
</g>
<!-- SafeIconModule -->
<g id="node6" class="node">
<title>SafeIconModule</title>
<polygon fill="#8dd3c7" stroke="black" points="341.8,-84.8 338.8,-88.8 317.8,-88.8 314.8,-84.8 232.2,-84.8 232.2,-48.8 341.8,-48.8 341.8,-84.8"/>
<text text-anchor="middle" x="287" y="-62.6" font-family="Times,serif" font-size="14.00">SafeIconModule</text>
</g>
<!-- SafeIconModule&#45;&gt;MapOnlineLayersModule -->
<g id="edge5" class="edge">
<title>SafeIconModule&#45;&gt;MapOnlineLayersModule</title>
<path fill="none" stroke="black" d="M333.98,-85.08C333.98,-106.12 333.98,-137.8 333.98,-137.8 333.98,-137.8 334.6,-137.8 334.6,-137.8"/>
<polygon fill="black" stroke="black" points="330.24,-141.3 340.24,-137.8 330.24,-134.3 330.24,-141.3"/>
</g>
</g>
</svg>
