<?xml version="1.0" encoding="UTF-8" standalone="no"?>
<!DOCTYPE svg PUBLIC "-//W3C//DTD SVG 1.1//EN"
 "http://www.w3.org/Graphics/SVG/1.1/DTD/svg11.dtd">
<!-- Generated by graphviz version 3.0.0 (20220226.1711)
 -->
<!-- Title: dependencies Pages: 1 -->
<svg width="5353pt" height="358pt"
 viewBox="0.00 0.00 5353.00 358.39" xmlns="http://www.w3.org/2000/svg" xmlns:xlink="http://www.w3.org/1999/xlink">
<g id="graph0" class="graph" transform="scale(1 1) rotate(0) translate(4 354.39)">
<title>dependencies</title>
<polygon fill="white" stroke="transparent" points="-4,4 -4,-354.39 5349,-354.39 5349,4 -4,4"/>
<text text-anchor="middle" x="2672.5" y="-8.2" font-family="sans-serif" font-size="14.00">dependencies</text>
<g id="clust1" class="cluster">
<title>cluster_SafeGridModule</title>
<polygon fill="none" stroke="black" stroke-dasharray="1,5" points="8,-32.8 8,-342.39 5337,-342.39 5337,-32.8 8,-32.8"/>
</g>
<g id="clust3" class="cluster">
<title>cluster_SafeGridModule_SafeGridComponent_providers</title>
<polygon fill="none" stroke="black" points="1971,-40.8 1971,-204.39 5329,-204.39 5329,-40.8 1971,-40.8"/>
</g>
<g id="clust4" class="cluster">
<title>cluster_SafeGridModule_imports</title>
<polygon fill="none" stroke="black" points="16,-152.39 16,-204.39 1963,-204.39 1963,-152.39 16,-152.39"/>
</g>
<g id="clust5" class="cluster">
<title>cluster_SafeGridModule_exports</title>
<polygon fill="none" stroke="black" points="1037,-282.39 1037,-334.39 1189,-334.39 1189,-282.39 1037,-282.39"/>
</g>
<!-- SafeGridComponent -->
<g id="node1" class="node">
<title>SafeGridComponent</title>
<polygon fill="#ffffb3" stroke="black" points="4550.87,-196.39 4419.13,-196.39 4419.13,-160.39 4550.87,-160.39 4550.87,-196.39"/>
<text text-anchor="middle" x="4485" y="-174.19" font-family="Times,serif" font-size="14.00">SafeGridComponent</text>
</g>
<!-- SafeGridModule -->
<g id="node2" class="node">
<title>SafeGridModule</title>
<polygon fill="#8dd3c7" stroke="black" points="1168.09,-261.39 1165.09,-265.39 1144.09,-265.39 1141.09,-261.39 1057.91,-261.39 1057.91,-225.39 1168.09,-225.39 1168.09,-261.39"/>
<text text-anchor="middle" x="1113" y="-239.19" font-family="Times,serif" font-size="14.00">SafeGridModule</text>
</g>
<!-- SafeGridComponent&#45;&gt;SafeGridModule -->
<g id="edge1" class="edge">
<title>SafeGridComponent&#45;&gt;SafeGridModule</title>
<path fill="none" stroke="black" d="M4485,-196.64C4485,-219.41 4485,-255.39 4485,-255.39 4485,-255.39 1178.37,-255.39 1178.37,-255.39"/>
<polygon fill="black" stroke="black" points="1178.37,-251.89 1168.37,-255.39 1178.37,-258.89 1178.37,-251.89"/>
</g>
<!-- SafeGridComponent  -->
<g id="node22" class="node">
<title>SafeGridComponent </title>
<polygon fill="#fb8072" stroke="black" points="1180.87,-326.39 1045.13,-326.39 1045.13,-290.39 1180.87,-290.39 1180.87,-326.39"/>
<text text-anchor="middle" x="1113" y="-304.19" font-family="Times,serif" font-size="14.00">SafeGridComponent </text>
</g>
<!-- SafeGridModule&#45;&gt;SafeGridComponent  -->
<g id="edge21" class="edge">
<title>SafeGridModule&#45;&gt;SafeGridComponent </title>
<path fill="none" stroke="black" stroke-dasharray="5,2" d="M1113,-261.5C1113,-261.5 1113,-280.38 1113,-280.38"/>
<polygon fill="black" stroke="black" points="1109.5,-280.38 1113,-290.38 1116.5,-280.38 1109.5,-280.38"/>
</g>
<!-- PopupService -->
<g id="node3" class="node">
<title>PopupService</title>
<ellipse fill="#fdb462" stroke="black" cx="5256" cy="-90.1" rx="64.86" ry="18"/>
<text text-anchor="middle" x="5256" y="-85.9" font-family="Times,serif" font-size="14.00">PopupService</text>
</g>
<!-- PopupService&#45;&gt;SafeGridComponent -->
<g id="edge2" class="edge">
<title>PopupService&#45;&gt;SafeGridComponent</title>
<path fill="none" stroke="black" d="M5256,-108.31C5256,-136.97 5256,-189.39 5256,-189.39 5256,-189.39 4561.07,-189.39 4561.07,-189.39"/>
<polygon fill="black" stroke="black" points="4561.07,-185.89 4551.07,-189.39 4561.07,-192.89 4561.07,-185.89"/>
</g>
<!-- ResizeBatchService -->
<g id="node4" class="node">
<title>ResizeBatchService</title>
<ellipse fill="#fdb462" stroke="black" cx="5085" cy="-90.1" rx="88.02" ry="18"/>
<text text-anchor="middle" x="5085" y="-85.9" font-family="Times,serif" font-size="14.00">ResizeBatchService</text>
</g>
<!-- ResizeBatchService&#45;&gt;SafeGridComponent -->
<g id="edge3" class="edge">
<title>ResizeBatchService&#45;&gt;SafeGridComponent</title>
<path fill="none" stroke="black" d="M5085,-108.33C5085,-135.23 5085,-182.39 5085,-182.39 5085,-182.39 4560.93,-182.39 4560.93,-182.39"/>
<polygon fill="black" stroke="black" points="4560.93,-178.89 4550.93,-182.39 4560.93,-185.89 4560.93,-178.89"/>
</g>
<!-- CalendarDOMService -->
<g id="node5" class="node">
<title>CalendarDOMService</title>
<ellipse fill="#fdb462" stroke="black" cx="4881" cy="-90.1" rx="97.27" ry="18"/>
<text text-anchor="middle" x="4881" y="-85.9" font-family="Times,serif" font-size="14.00">CalendarDOMService</text>
</g>
<!-- CalendarDOMService&#45;&gt;SafeGridComponent -->
<g id="edge4" class="edge">
<title>CalendarDOMService&#45;&gt;SafeGridComponent</title>
<path fill="none" stroke="black" d="M4881,-108.18C4881,-133.22 4881,-175.39 4881,-175.39 4881,-175.39 4561.28,-175.39 4561.28,-175.39"/>
<polygon fill="black" stroke="black" points="4561.28,-171.89 4551.28,-175.39 4561.28,-178.89 4561.28,-171.89"/>
</g>
<!-- MonthViewService -->
<g id="node6" class="node">
<title>MonthViewService</title>
<ellipse fill="#fdb462" stroke="black" cx="4679" cy="-90.1" rx="86.83" ry="18"/>
<text text-anchor="middle" x="4679" y="-85.9" font-family="Times,serif" font-size="14.00">MonthViewService</text>
</g>
<!-- MonthViewService&#45;&gt;SafeGridComponent -->
<g id="edge5" class="edge">
<title>MonthViewService&#45;&gt;SafeGridComponent</title>
<path fill="none" stroke="black" d="M4679,-108.25C4679,-131.38 4679,-168.39 4679,-168.39 4679,-168.39 4560.95,-168.39 4560.95,-168.39"/>
<polygon fill="black" stroke="black" points="4560.95,-164.89 4550.95,-168.39 4560.95,-171.89 4560.95,-164.89"/>
</g>
<!-- WeekNamesService -->
<g id="node7" class="node">
<title>WeekNamesService</title>
<ellipse fill="#fdb462" stroke="black" cx="4485" cy="-90.1" rx="89.15" ry="18"/>
<text text-anchor="middle" x="4485" y="-85.9" font-family="Times,serif" font-size="14.00">WeekNamesService</text>
</g>
<!-- WeekNamesService&#45;&gt;SafeGridComponent -->
<g id="edge6" class="edge">
<title>WeekNamesService&#45;&gt;SafeGridComponent</title>
<path fill="none" stroke="black" d="M4506.98,-107.96C4506.98,-107.96 4506.98,-150.25 4506.98,-150.25"/>
<polygon fill="black" stroke="black" points="4503.48,-150.25 4506.98,-160.25 4510.48,-150.25 4503.48,-150.25"/>
</g>
<!-- {
 &#160;&#160;&#160;provide: MAT_SELECT_SCROLL_STRATEGY, useFactory: scrollFactory, deps: [Overlay],
} -->
<g id="node8" class="node">
<title>{
 &#160;&#160;&#160;provide: MAT_SELECT_SCROLL_STRATEGY, useFactory: scrollFactory, deps: [Overlay],
}</title>
<ellipse fill="#fdb462" stroke="black" cx="3983" cy="-90.1" rx="394.68" ry="41.09"/>
<text text-anchor="middle" x="3983" y="-102.7" font-family="Times,serif" font-size="14.00">{</text>
<text text-anchor="middle" x="3983" y="-85.9" font-family="Times,serif" font-size="14.00"> &#160;&#160;&#160;provide: MAT_SELECT_SCROLL_STRATEGY, useFactory: scrollFactory, deps: [Overlay],</text>
<text text-anchor="middle" x="3983" y="-69.1" font-family="Times,serif" font-size="14.00">}</text>
</g>
<!-- {
 &#160;&#160;&#160;provide: MAT_SELECT_SCROLL_STRATEGY, useFactory: scrollFactory, deps: [Overlay],
}&#45;&gt;SafeGridComponent -->
<g id="edge7" class="edge">
<title>{
 &#160;&#160;&#160;provide: MAT_SELECT_SCROLL_STRATEGY, useFactory: scrollFactory, deps: [Overlay],
}&#45;&gt;SafeGridComponent</title>
<path fill="none" stroke="black" d="M4251.43,-120.39C4361.25,-120.39 4463.02,-120.39 4463.02,-120.39 4463.02,-120.39 4463.02,-150.36 4463.02,-150.36"/>
<polygon fill="black" stroke="black" points="4459.52,-150.36 4463.02,-160.36 4466.52,-150.36 4459.52,-150.36"/>
</g>
<!-- {
 &#160;&#160;&#160;provide: MAT_TOOLTIP_SCROLL_STRATEGY, useFactory: scrollFactory, deps: [Overlay],
} -->
<g id="node9" class="node">
<title>{
 &#160;&#160;&#160;provide: MAT_TOOLTIP_SCROLL_STRATEGY, useFactory: scrollFactory, deps: [Overlay],
}</title>
<ellipse fill="#fdb462" stroke="black" cx="3171" cy="-90.1" rx="399.57" ry="41.09"/>
<text text-anchor="middle" x="3171" y="-102.7" font-family="Times,serif" font-size="14.00">{</text>
<text text-anchor="middle" x="3171" y="-85.9" font-family="Times,serif" font-size="14.00"> &#160;&#160;&#160;provide: MAT_TOOLTIP_SCROLL_STRATEGY, useFactory: scrollFactory, deps: [Overlay],</text>
<text text-anchor="middle" x="3171" y="-69.1" font-family="Times,serif" font-size="14.00">}</text>
</g>
<!-- {
 &#160;&#160;&#160;provide: MAT_TOOLTIP_SCROLL_STRATEGY, useFactory: scrollFactory, deps: [Overlay],
}&#45;&gt;SafeGridComponent -->
<g id="edge8" class="edge">
<title>{
 &#160;&#160;&#160;provide: MAT_TOOLTIP_SCROLL_STRATEGY, useFactory: scrollFactory, deps: [Overlay],
}&#45;&gt;SafeGridComponent</title>
<path fill="none" stroke="black" d="M3171,-131.72C3171,-152.14 3171,-172.39 3171,-172.39 3171,-172.39 4408.94,-172.39 4408.94,-172.39"/>
<polygon fill="black" stroke="black" points="4408.94,-175.89 4418.94,-172.39 4408.94,-168.89 4408.94,-175.89"/>
</g>
<!-- {
 &#160;&#160;&#160;provide: MAT_MENU_SCROLL_STRATEGY, useFactory: scrollFactory, deps: [Overlay],
} -->
<g id="node10" class="node">
<title>{
 &#160;&#160;&#160;provide: MAT_MENU_SCROLL_STRATEGY, useFactory: scrollFactory, deps: [Overlay],
}</title>
<ellipse fill="#fdb462" stroke="black" cx="2366" cy="-90.1" rx="387.38" ry="41.09"/>
<text text-anchor="middle" x="2366" y="-102.7" font-family="Times,serif" font-size="14.00">{</text>
<text text-anchor="middle" x="2366" y="-85.9" font-family="Times,serif" font-size="14.00"> &#160;&#160;&#160;provide: MAT_MENU_SCROLL_STRATEGY, useFactory: scrollFactory, deps: [Overlay],</text>
<text text-anchor="middle" x="2366" y="-69.1" font-family="Times,serif" font-size="14.00">}</text>
</g>
<!-- {
 &#160;&#160;&#160;provide: MAT_MENU_SCROLL_STRATEGY, useFactory: scrollFactory, deps: [Overlay],
}&#45;&gt;SafeGridComponent -->
<g id="edge9" class="edge">
<title>{
 &#160;&#160;&#160;provide: MAT_MENU_SCROLL_STRATEGY, useFactory: scrollFactory, deps: [Overlay],
}&#45;&gt;SafeGridComponent</title>
<path fill="none" stroke="black" d="M2366,-131.45C2366,-156.79 2366,-184.39 2366,-184.39 2366,-184.39 4408.97,-184.39 4408.97,-184.39"/>
<polygon fill="black" stroke="black" points="4408.97,-187.89 4418.97,-184.39 4408.97,-180.89 4408.97,-187.89"/>
</g>
<!-- SafeArrayFilterMenuModule -->
<g id="node11" class="node">
<title>SafeArrayFilterMenuModule</title>
<polygon fill="#8dd3c7" stroke="black" points="1955.07,-196.39 1952.07,-200.39 1931.07,-200.39 1928.07,-196.39 1774.93,-196.39 1774.93,-160.39 1955.07,-160.39 1955.07,-196.39"/>
<text text-anchor="middle" x="1865" y="-174.19" font-family="Times,serif" font-size="14.00">SafeArrayFilterMenuModule</text>
</g>
<!-- SafeArrayFilterMenuModule&#45;&gt;SafeGridModule -->
<g id="edge10" class="edge">
<title>SafeArrayFilterMenuModule&#45;&gt;SafeGridModule</title>
<path fill="none" stroke="black" d="M1865,-196.67C1865,-217.71 1865,-249.39 1865,-249.39 1865,-249.39 1178.3,-249.39 1178.3,-249.39"/>
<polygon fill="black" stroke="black" points="1178.3,-245.89 1168.3,-249.39 1178.3,-252.89 1178.3,-245.89"/>
</g>
<!-- SafeArrayFilterModule -->
<g id="node12" class="node">
<title>SafeArrayFilterModule</title>
<polygon fill="#8dd3c7" stroke="black" points="1756.91,-196.39 1753.91,-200.39 1732.91,-200.39 1729.91,-196.39 1609.09,-196.39 1609.09,-160.39 1756.91,-160.39 1756.91,-196.39"/>
<text text-anchor="middle" x="1683" y="-174.19" font-family="Times,serif" font-size="14.00">SafeArrayFilterModule</text>
</g>
<!-- SafeArrayFilterModule&#45;&gt;SafeGridModule -->
<g id="edge11" class="edge">
<title>SafeArrayFilterModule&#45;&gt;SafeGridModule</title>
<path fill="none" stroke="black" d="M1683,-196.5C1683,-215.73 1683,-243.39 1683,-243.39 1683,-243.39 1178.17,-243.39 1178.17,-243.39"/>
<polygon fill="black" stroke="black" points="1178.17,-239.89 1168.17,-243.39 1178.17,-246.89 1178.17,-239.89"/>
</g>
<!-- SafeButtonModule -->
<g id="node13" class="node">
<title>SafeButtonModule</title>
<polygon fill="#8dd3c7" stroke="black" points="1591.05,-196.39 1588.05,-200.39 1567.05,-200.39 1564.05,-196.39 1468.95,-196.39 1468.95,-160.39 1591.05,-160.39 1591.05,-196.39"/>
<text text-anchor="middle" x="1530" y="-174.19" font-family="Times,serif" font-size="14.00">SafeButtonModule</text>
</g>
<!-- SafeButtonModule&#45;&gt;SafeGridModule -->
<g id="edge12" class="edge">
<title>SafeButtonModule&#45;&gt;SafeGridModule</title>
<path fill="none" stroke="black" d="M1530,-196.41C1530,-213.76 1530,-237.39 1530,-237.39 1530,-237.39 1178.37,-237.39 1178.37,-237.39"/>
<polygon fill="black" stroke="black" points="1178.37,-233.89 1168.37,-237.39 1178.37,-240.89 1178.37,-233.89"/>
</g>
<!-- SafeDateModule -->
<g id="node14" class="node">
<title>SafeDateModule</title>
<polygon fill="#8dd3c7" stroke="black" points="1450.36,-196.39 1447.36,-200.39 1426.36,-200.39 1423.36,-196.39 1339.64,-196.39 1339.64,-160.39 1450.36,-160.39 1450.36,-196.39"/>
<text text-anchor="middle" x="1395" y="-174.19" font-family="Times,serif" font-size="14.00">SafeDateModule</text>
</g>
<!-- SafeDateModule&#45;&gt;SafeGridModule -->
<g id="edge13" class="edge">
<title>SafeDateModule&#45;&gt;SafeGridModule</title>
<path fill="none" stroke="black" d="M1395,-196.63C1395,-211.96 1395,-231.39 1395,-231.39 1395,-231.39 1178.38,-231.39 1178.38,-231.39"/>
<polygon fill="black" stroke="black" points="1178.38,-227.89 1168.38,-231.39 1178.38,-234.89 1178.38,-227.89"/>
</g>
<!-- SafeDropdownFilterMenuModule -->
<g id="node15" class="node">
<title>SafeDropdownFilterMenuModule</title>
<polygon fill="#8dd3c7" stroke="black" points="1321.8,-196.39 1318.8,-200.39 1297.8,-200.39 1294.8,-196.39 1114.2,-196.39 1114.2,-160.39 1321.8,-160.39 1321.8,-196.39"/>
<text text-anchor="middle" x="1218" y="-174.19" font-family="Times,serif" font-size="14.00">SafeDropdownFilterMenuModule</text>
</g>
<!-- SafeDropdownFilterMenuModule&#45;&gt;SafeGridModule -->
<g id="edge14" class="edge">
<title>SafeDropdownFilterMenuModule&#45;&gt;SafeGridModule</title>
<path fill="none" stroke="black" d="M1141.2,-196.5C1141.2,-196.5 1141.2,-215.38 1141.2,-215.38"/>
<polygon fill="black" stroke="black" points="1137.7,-215.38 1141.2,-225.38 1144.7,-215.38 1137.7,-215.38"/>
</g>
<!-- SafeDropdownFilterModule -->
<g id="node16" class="node">
<title>SafeDropdownFilterModule</title>
<polygon fill="#8dd3c7" stroke="black" points="1096.14,-196.39 1093.14,-200.39 1072.14,-200.39 1069.14,-196.39 921.86,-196.39 921.86,-160.39 1096.14,-160.39 1096.14,-196.39"/>
<text text-anchor="middle" x="1009" y="-174.19" font-family="Times,serif" font-size="14.00">SafeDropdownFilterModule</text>
</g>
<!-- SafeDropdownFilterModule&#45;&gt;SafeGridModule -->
<g id="edge15" class="edge">
<title>SafeDropdownFilterModule&#45;&gt;SafeGridModule</title>
<path fill="none" stroke="black" d="M1077.14,-196.5C1077.14,-196.5 1077.14,-215.38 1077.14,-215.38"/>
<polygon fill="black" stroke="black" points="1073.64,-215.38 1077.14,-225.38 1080.64,-215.38 1073.64,-215.38"/>
</g>
<!-- SafeErrorsModalModule -->
<g id="node17" class="node">
<title>SafeErrorsModalModule</title>
<polygon fill="#8dd3c7" stroke="black" points="903.97,-196.39 900.97,-200.39 879.97,-200.39 876.97,-196.39 748.03,-196.39 748.03,-160.39 903.97,-160.39 903.97,-196.39"/>
<text text-anchor="middle" x="826" y="-174.19" font-family="Times,serif" font-size="14.00">SafeErrorsModalModule</text>
</g>
<!-- SafeErrorsModalModule&#45;&gt;SafeGridModule -->
<g id="edge16" class="edge">
<title>SafeErrorsModalModule&#45;&gt;SafeGridModule</title>
<path fill="none" stroke="black" d="M826,-196.63C826,-211.96 826,-231.39 826,-231.39 826,-231.39 1047.66,-231.39 1047.66,-231.39"/>
<polygon fill="black" stroke="black" points="1047.66,-234.89 1057.66,-231.39 1047.66,-227.89 1047.66,-234.89"/>
</g>
<!-- SafeExpandedCommentModule -->
<g id="node18" class="node">
<title>SafeExpandedCommentModule</title>
<polygon fill="#8dd3c7" stroke="black" points="729.63,-196.39 726.63,-200.39 705.63,-200.39 702.63,-196.39 534.37,-196.39 534.37,-160.39 729.63,-160.39 729.63,-196.39"/>
<text text-anchor="middle" x="632" y="-174.19" font-family="Times,serif" font-size="14.00">SafeExpandedCommentModule</text>
</g>
<!-- SafeExpandedCommentModule&#45;&gt;SafeGridModule -->
<g id="edge17" class="edge">
<title>SafeExpandedCommentModule&#45;&gt;SafeGridModule</title>
<path fill="none" stroke="black" d="M632,-196.41C632,-213.76 632,-237.39 632,-237.39 632,-237.39 1047.82,-237.39 1047.82,-237.39"/>
<polygon fill="black" stroke="black" points="1047.82,-240.89 1057.82,-237.39 1047.82,-233.89 1047.82,-240.89"/>
</g>
<!-- SafeExportModule -->
<g id="node19" class="node">
<title>SafeExportModule</title>
<polygon fill="#8dd3c7" stroke="black" points="516.03,-196.39 513.03,-200.39 492.03,-200.39 489.03,-196.39 393.97,-196.39 393.97,-160.39 516.03,-160.39 516.03,-196.39"/>
<text text-anchor="middle" x="455" y="-174.19" font-family="Times,serif" font-size="14.00">SafeExportModule</text>
</g>
<!-- SafeExportModule&#45;&gt;SafeGridModule -->
<g id="edge18" class="edge">
<title>SafeExportModule&#45;&gt;SafeGridModule</title>
<path fill="none" stroke="black" d="M455,-196.5C455,-215.73 455,-243.39 455,-243.39 455,-243.39 1047.75,-243.39 1047.75,-243.39"/>
<polygon fill="black" stroke="black" points="1047.75,-246.89 1057.75,-243.39 1047.75,-239.89 1047.75,-246.89"/>
</g>
<!-- SafeGridRowActionsModule -->
<g id="node20" class="node">
<title>SafeGridRowActionsModule</title>
<polygon fill="#8dd3c7" stroke="black" points="376.09,-196.39 373.09,-200.39 352.09,-200.39 349.09,-196.39 195.91,-196.39 195.91,-160.39 376.09,-160.39 376.09,-196.39"/>
<text text-anchor="middle" x="286" y="-174.19" font-family="Times,serif" font-size="14.00">SafeGridRowActionsModule</text>
</g>
<!-- SafeGridRowActionsModule&#45;&gt;SafeGridModule -->
<g id="edge19" class="edge">
<title>SafeGridRowActionsModule&#45;&gt;SafeGridModule</title>
<path fill="none" stroke="black" d="M286,-196.67C286,-217.71 286,-249.39 286,-249.39 286,-249.39 1047.78,-249.39 1047.78,-249.39"/>
<polygon fill="black" stroke="black" points="1047.78,-252.89 1057.78,-249.39 1047.78,-245.89 1047.78,-252.89"/>
</g>
<!-- SafeGridToolbarModule -->
<g id="node21" class="node">
<title>SafeGridToolbarModule</title>
<polygon fill="#8dd3c7" stroke="black" points="178.41,-196.39 175.41,-200.39 154.41,-200.39 151.41,-196.39 23.59,-196.39 23.59,-160.39 178.41,-160.39 178.41,-196.39"/>
<text text-anchor="middle" x="101" y="-174.19" font-family="Times,serif" font-size="14.00">SafeGridToolbarModule</text>
</g>
<!-- SafeGridToolbarModule&#45;&gt;SafeGridModule -->
<g id="edge20" class="edge">
<title>SafeGridToolbarModule&#45;&gt;SafeGridModule</title>
<path fill="none" stroke="black" d="M101,-196.64C101,-219.41 101,-255.39 101,-255.39 101,-255.39 1047.87,-255.39 1047.87,-255.39"/>
<polygon fill="black" stroke="black" points="1047.87,-258.89 1057.87,-255.39 1047.87,-251.89 1047.87,-258.89"/>
</g>
</g>
</svg>
