<?xml version="1.0" encoding="UTF-8" standalone="no"?>
<!DOCTYPE svg PUBLIC "-//W3C//DTD SVG 1.1//EN"
 "http://www.w3.org/Graphics/SVG/1.1/DTD/svg11.dtd">
<!-- Generated by graphviz version 3.0.0 (20220226.1711)
 -->
<!-- Title: dependencies Pages: 1 -->
<svg width="400pt" height="174pt"
 viewBox="0.00 0.00 400.00 173.80" xmlns="http://www.w3.org/2000/svg" xmlns:xlink="http://www.w3.org/1999/xlink">
<g id="graph0" class="graph" transform="scale(1 1) rotate(0) translate(4 169.8)">
<title>dependencies</title>
<polygon fill="white" stroke="transparent" points="-4,4 -4,-169.8 396,-169.8 396,4 -4,4"/>
<text text-anchor="middle" x="196" y="-8.2" font-family="sans-serif" font-size="14.00">dependencies</text>
<g id="clust1" class="cluster">
<title>cluster_LayoutsTabModule</title>
<polygon fill="none" stroke="black" stroke-dasharray="1,5" points="8,-32.8 8,-157.8 384,-157.8 384,-32.8 8,-32.8"/>
</g>
<g id="clust4" class="cluster">
<title>cluster_LayoutsTabModule_imports</title>
<polygon fill="none" stroke="black" points="188,-40.8 188,-92.8 376,-92.8 376,-40.8 188,-40.8"/>
</g>
<g id="clust2" class="cluster">
<title>cluster_LayoutsTabModule_declarations</title>
<polygon fill="none" stroke="black" points="16,-40.8 16,-92.8 180,-92.8 180,-40.8 16,-40.8"/>
</g>
<!-- LayoutsTabComponent -->
<g id="node1" class="node">
<title>LayoutsTabComponent</title>
<polygon fill="#ffffb3" stroke="black" points="172.2,-84.8 23.8,-84.8 23.8,-48.8 172.2,-48.8 172.2,-84.8"/>
<text text-anchor="middle" x="98" y="-62.6" font-family="Times,serif" font-size="14.00">LayoutsTabComponent</text>
</g>
<!-- LayoutsTabModule -->
<g id="node2" class="node">
<title>LayoutsTabModule</title>
<polygon fill="#8dd3c7" stroke="black" points="253.42,-149.8 250.42,-153.8 229.42,-153.8 226.42,-149.8 126.58,-149.8 126.58,-113.8 253.42,-113.8 253.42,-149.8"/>
<text text-anchor="middle" x="190" y="-127.6" font-family="Times,serif" font-size="14.00">LayoutsTabModule</text>
</g>
<!-- LayoutsTabComponent&#45;&gt;LayoutsTabModule -->
<g id="edge1" class="edge">
<title>LayoutsTabComponent&#45;&gt;LayoutsTabModule</title>
<path fill="none" stroke="black" d="M149.44,-84.91C149.44,-84.91 149.44,-103.79 149.44,-103.79"/>
<polygon fill="black" stroke="black" points="145.94,-103.79 149.44,-113.79 152.94,-103.79 145.94,-103.79"/>
</g>
<!-- LayoutsTabRoutingModule -->
<g id="node3" class="node">
<title>LayoutsTabRoutingModule</title>
<polygon fill="#8dd3c7" stroke="black" points="367.54,-84.8 364.54,-88.8 343.54,-88.8 340.54,-84.8 196.46,-84.8 196.46,-48.8 367.54,-48.8 367.54,-84.8"/>
<text text-anchor="middle" x="282" y="-62.6" font-family="Times,serif" font-size="14.00">LayoutsTabRoutingModule</text>
</g>
<!-- LayoutsTabRoutingModule&#45;&gt;LayoutsTabModule -->
<g id="edge2" class="edge">
<title>LayoutsTabRoutingModule&#45;&gt;LayoutsTabModule</title>
<path fill="none" stroke="black" d="M224.72,-84.91C224.72,-84.91 224.72,-103.79 224.72,-103.79"/>
<polygon fill="black" stroke="black" points="221.22,-103.79 224.72,-113.79 228.22,-103.79 221.22,-103.79"/>
</g>
</g>
</svg>
