<?xml version="1.0" encoding="UTF-8" standalone="no"?>
<!DOCTYPE svg PUBLIC "-//W3C//DTD SVG 1.1//EN"
 "http://www.w3.org/Graphics/SVG/1.1/DTD/svg11.dtd">
<!-- Generated by graphviz version 3.0.0 (20220226.1711)
 -->
<!-- Title: dependencies Pages: 1 -->
<svg width="1439pt" height="247pt"
 viewBox="0.00 0.00 1439.00 246.80" xmlns="http://www.w3.org/2000/svg" xmlns:xlink="http://www.w3.org/1999/xlink">
<g id="graph0" class="graph" transform="scale(1 1) rotate(0) translate(4 242.8)">
<title>dependencies</title>
<polygon fill="white" stroke="transparent" points="-4,4 -4,-242.8 1435,-242.8 1435,4 -4,4"/>
<text text-anchor="middle" x="715.5" y="-8.2" font-family="sans-serif" font-size="14.00">dependencies</text>
<g id="clust1" class="cluster">
<title>cluster_SafeWidgetGridModule</title>
<polygon fill="none" stroke="black" stroke-dasharray="1,5" points="8,-32.8 8,-230.8 1423,-230.8 1423,-32.8 8,-32.8"/>
</g>
<g id="clust2" class="cluster">
<title>cluster_SafeWidgetGridModule_declarations</title>
<polygon fill="none" stroke="black" points="616,-40.8 616,-92.8 1415,-92.8 1415,-40.8 616,-40.8"/>
</g>
<g id="clust7" class="cluster">
<title>cluster_SafeWidgetGridModule_imports</title>
<polygon fill="none" stroke="black" points="16,-40.8 16,-92.8 608,-92.8 608,-40.8 16,-40.8"/>
</g>
<g id="clust8" class="cluster">
<title>cluster_SafeWidgetGridModule_exports</title>
<polygon fill="none" stroke="black" points="529,-170.8 529,-222.8 721,-222.8 721,-170.8 529,-170.8"/>
</g>
<!-- SafeExpandedWidgetComponent -->
<g id="node1" class="node">
<title>SafeExpandedWidgetComponent</title>
<polygon fill="#ffffb3" stroke="black" points="1406.89,-84.8 1203.11,-84.8 1203.11,-48.8 1406.89,-48.8 1406.89,-84.8"/>
<text text-anchor="middle" x="1305" y="-62.6" font-family="Times,serif" font-size="14.00">SafeExpandedWidgetComponent</text>
</g>
<!-- SafeWidgetGridModule -->
<g id="node5" class="node">
<title>SafeWidgetGridModule</title>
<polygon fill="#8dd3c7" stroke="black" points="700.8,-149.8 697.8,-153.8 676.8,-153.8 673.8,-149.8 549.2,-149.8 549.2,-113.8 700.8,-113.8 700.8,-149.8"/>
<text text-anchor="middle" x="625" y="-127.6" font-family="Times,serif" font-size="14.00">SafeWidgetGridModule</text>
</g>
<!-- SafeExpandedWidgetComponent&#45;&gt;SafeWidgetGridModule -->
<g id="edge1" class="edge">
<title>SafeExpandedWidgetComponent&#45;&gt;SafeWidgetGridModule</title>
<path fill="none" stroke="black" d="M1305,-85.09C1305,-107.01 1305,-140.8 1305,-140.8 1305,-140.8 710.7,-140.8 710.7,-140.8"/>
<polygon fill="black" stroke="black" points="710.7,-137.3 700.7,-140.8 710.7,-144.3 710.7,-137.3"/>
</g>
<!-- SafeFloatingOptionsComponent -->
<g id="node2" class="node">
<title>SafeFloatingOptionsComponent</title>
<polygon fill="#ffffb3" stroke="black" points="1185.71,-84.8 988.29,-84.8 988.29,-48.8 1185.71,-48.8 1185.71,-84.8"/>
<text text-anchor="middle" x="1087" y="-62.6" font-family="Times,serif" font-size="14.00">SafeFloatingOptionsComponent</text>
</g>
<!-- SafeFloatingOptionsComponent&#45;&gt;SafeWidgetGridModule -->
<g id="edge2" class="edge">
<title>SafeFloatingOptionsComponent&#45;&gt;SafeWidgetGridModule</title>
<path fill="none" stroke="black" d="M1087,-84.91C1087,-104.14 1087,-131.8 1087,-131.8 1087,-131.8 710.77,-131.8 710.77,-131.8"/>
<polygon fill="black" stroke="black" points="710.77,-128.3 700.77,-131.8 710.77,-135.3 710.77,-128.3"/>
</g>
<!-- SafeTileDataComponent -->
<g id="node3" class="node">
<title>SafeTileDataComponent</title>
<polygon fill="#ffffb3" stroke="black" points="970.68,-84.8 815.32,-84.8 815.32,-48.8 970.68,-48.8 970.68,-84.8"/>
<text text-anchor="middle" x="893" y="-62.6" font-family="Times,serif" font-size="14.00">SafeTileDataComponent</text>
</g>
<!-- SafeTileDataComponent&#45;&gt;SafeWidgetGridModule -->
<g id="edge3" class="edge">
<title>SafeTileDataComponent&#45;&gt;SafeWidgetGridModule</title>
<path fill="none" stroke="black" d="M893,-84.83C893,-101.2 893,-122.8 893,-122.8 893,-122.8 710.72,-122.8 710.72,-122.8"/>
<polygon fill="black" stroke="black" points="710.72,-119.3 700.72,-122.8 710.72,-126.3 710.72,-119.3"/>
</g>
<!-- SafeWidgetGridComponent -->
<g id="node4" class="node">
<title>SafeWidgetGridComponent</title>
<polygon fill="#ffffb3" stroke="black" points="797.58,-84.8 624.42,-84.8 624.42,-48.8 797.58,-48.8 797.58,-84.8"/>
<text text-anchor="middle" x="711" y="-62.6" font-family="Times,serif" font-size="14.00">SafeWidgetGridComponent</text>
</g>
<!-- SafeWidgetGridComponent&#45;&gt;SafeWidgetGridModule -->
<g id="edge4" class="edge">
<title>SafeWidgetGridComponent&#45;&gt;SafeWidgetGridModule</title>
<path fill="none" stroke="black" d="M662.56,-84.91C662.56,-84.91 662.56,-103.79 662.56,-103.79"/>
<polygon fill="black" stroke="black" points="659.06,-103.79 662.56,-113.79 666.06,-103.79 659.06,-103.79"/>
</g>
<!-- SafeWidgetGridComponent  -->
<g id="node10" class="node">
<title>SafeWidgetGridComponent </title>
<polygon fill="#fb8072" stroke="black" points="713.08,-214.8 536.92,-214.8 536.92,-178.8 713.08,-178.8 713.08,-214.8"/>
<text text-anchor="middle" x="625" y="-192.6" font-family="Times,serif" font-size="14.00">SafeWidgetGridComponent </text>
</g>
<!-- SafeWidgetGridModule&#45;&gt;SafeWidgetGridComponent  -->
<g id="edge9" class="edge">
<title>SafeWidgetGridModule&#45;&gt;SafeWidgetGridComponent </title>
<path fill="none" stroke="black" stroke-dasharray="5,2" d="M625,-149.91C625,-149.91 625,-168.79 625,-168.79"/>
<polygon fill="black" stroke="black" points="621.5,-168.79 625,-178.79 628.5,-168.79 621.5,-168.79"/>
</g>
<!-- SafeButtonModule -->
<g id="node6" class="node">
<title>SafeButtonModule</title>
<polygon fill="#8dd3c7" stroke="black" points="600.05,-84.8 597.05,-88.8 576.05,-88.8 573.05,-84.8 477.95,-84.8 477.95,-48.8 600.05,-48.8 600.05,-84.8"/>
<text text-anchor="middle" x="539" y="-62.6" font-family="Times,serif" font-size="14.00">SafeButtonModule</text>
</g>
<!-- SafeButtonModule&#45;&gt;SafeWidgetGridModule -->
<g id="edge5" class="edge">
<title>SafeButtonModule&#45;&gt;SafeWidgetGridModule</title>
<path fill="none" stroke="black" d="M574.81,-84.91C574.81,-84.91 574.81,-103.79 574.81,-103.79"/>
<polygon fill="black" stroke="black" points="571.31,-103.79 574.81,-113.79 578.31,-103.79 571.31,-103.79"/>
</g>
<!-- SafeIconModule -->
<g id="node7" class="node">
<title>SafeIconModule</title>
<polygon fill="#8dd3c7" stroke="black" points="459.8,-84.8 456.8,-88.8 435.8,-88.8 432.8,-84.8 350.2,-84.8 350.2,-48.8 459.8,-48.8 459.8,-84.8"/>
<text text-anchor="middle" x="405" y="-62.6" font-family="Times,serif" font-size="14.00">SafeIconModule</text>
</g>
<!-- SafeIconModule&#45;&gt;SafeWidgetGridModule -->
<g id="edge6" class="edge">
<title>SafeIconModule&#45;&gt;SafeWidgetGridModule</title>
<path fill="none" stroke="black" d="M405,-84.83C405,-101.2 405,-122.8 405,-122.8 405,-122.8 539.29,-122.8 539.29,-122.8"/>
<polygon fill="black" stroke="black" points="539.29,-126.3 549.29,-122.8 539.29,-119.3 539.29,-126.3"/>
</g>
<!-- SafeWidgetChoiceModule -->
<g id="node8" class="node">
<title>SafeWidgetChoiceModule</title>
<polygon fill="#8dd3c7" stroke="black" points="332.79,-84.8 329.79,-88.8 308.79,-88.8 305.79,-84.8 167.21,-84.8 167.21,-48.8 332.79,-48.8 332.79,-84.8"/>
<text text-anchor="middle" x="250" y="-62.6" font-family="Times,serif" font-size="14.00">SafeWidgetChoiceModule</text>
</g>
<!-- SafeWidgetChoiceModule&#45;&gt;SafeWidgetGridModule -->
<g id="edge7" class="edge">
<title>SafeWidgetChoiceModule&#45;&gt;SafeWidgetGridModule</title>
<path fill="none" stroke="black" d="M250,-84.91C250,-104.14 250,-131.8 250,-131.8 250,-131.8 539.11,-131.8 539.11,-131.8"/>
<polygon fill="black" stroke="black" points="539.11,-135.3 549.11,-131.8 539.11,-128.3 539.11,-135.3"/>
</g>
<!-- SafeWidgetModule -->
<g id="node9" class="node">
<title>SafeWidgetModule</title>
<polygon fill="#8dd3c7" stroke="black" points="149.64,-84.8 146.64,-88.8 125.64,-88.8 122.64,-84.8 24.36,-84.8 24.36,-48.8 149.64,-48.8 149.64,-84.8"/>
<text text-anchor="middle" x="87" y="-62.6" font-family="Times,serif" font-size="14.00">SafeWidgetModule</text>
</g>
<!-- SafeWidgetModule&#45;&gt;SafeWidgetGridModule -->
<g id="edge8" class="edge">
<title>SafeWidgetModule&#45;&gt;SafeWidgetGridModule</title>
<path fill="none" stroke="black" d="M87,-85.09C87,-107.01 87,-140.8 87,-140.8 87,-140.8 539.34,-140.8 539.34,-140.8"/>
<polygon fill="black" stroke="black" points="539.34,-144.3 549.34,-140.8 539.34,-137.3 539.34,-144.3"/>
</g>
</g>
</svg>
