<?xml version="1.0" encoding="UTF-8" standalone="no"?>
<!DOCTYPE svg PUBLIC "-//W3C//DTD SVG 1.1//EN"
 "http://www.w3.org/Graphics/SVG/1.1/DTD/svg11.dtd">
<!-- Generated by graphviz version 3.0.0 (20220226.1711)
 -->
<!-- Title: dependencies Pages: 1 -->
<svg width="1439pt" height="247pt"
 viewBox="0.00 0.00 1439.00 246.80" xmlns="http://www.w3.org/2000/svg" xmlns:xlink="http://www.w3.org/1999/xlink">
<g id="graph0" class="graph" transform="scale(1 1) rotate(0) translate(4 242.8)">
<title>dependencies</title>
<polygon fill="white" stroke="transparent" points="-4,4 -4,-242.8 1435,-242.8 1435,4 -4,4"/>
<text text-anchor="middle" x="715.5" y="-8.2" font-family="sans-serif" font-size="14.00">dependencies</text>
<g id="clust1" class="cluster">
<title>cluster_SafeWidgetGridModule</title>
<polygon fill="none" stroke="black" stroke-dasharray="1,5" points="8,-32.8 8,-230.8 1423,-230.8 1423,-32.8 8,-32.8"/>
</g>
<g id="clust7" class="cluster">
<title>cluster_SafeWidgetGridModule_imports</title>
<polygon fill="none" stroke="black" points="823,-40.8 823,-92.8 1415,-92.8 1415,-40.8 823,-40.8"/>
</g>
<g id="clust8" class="cluster">
<title>cluster_SafeWidgetGridModule_exports</title>
<polygon fill="none" stroke="black" points="703,-170.8 703,-222.8 895,-222.8 895,-170.8 703,-170.8"/>
</g>
<g id="clust2" class="cluster">
<title>cluster_SafeWidgetGridModule_declarations</title>
<polygon fill="none" stroke="black" points="16,-40.8 16,-92.8 815,-92.8 815,-40.8 16,-40.8"/>
</g>
<!-- SafeExpandedWidgetComponent -->
<g id="node1" class="node">
<title>SafeExpandedWidgetComponent</title>
<polygon fill="#ffffb3" stroke="black" points="806.89,-84.8 603.11,-84.8 603.11,-48.8 806.89,-48.8 806.89,-84.8"/>
<text text-anchor="middle" x="705" y="-62.6" font-family="Times,serif" font-size="14.00">SafeExpandedWidgetComponent</text>
</g>
<!-- SafeWidgetGridModule -->
<g id="node5" class="node">
<title>SafeWidgetGridModule</title>
<polygon fill="#8dd3c7" stroke="black" points="874.8,-149.8 871.8,-153.8 850.8,-153.8 847.8,-149.8 723.2,-149.8 723.2,-113.8 874.8,-113.8 874.8,-149.8"/>
<text text-anchor="middle" x="799" y="-127.6" font-family="Times,serif" font-size="14.00">SafeWidgetGridModule</text>
</g>
<!-- SafeExpandedWidgetComponent&#45;&gt;SafeWidgetGridModule -->
<g id="edge1" class="edge">
<title>SafeExpandedWidgetComponent&#45;&gt;SafeWidgetGridModule</title>
<path fill="none" stroke="black" d="M765.02,-84.91C765.02,-84.91 765.02,-103.79 765.02,-103.79"/>
<polygon fill="black" stroke="black" points="761.52,-103.79 765.02,-113.79 768.52,-103.79 761.52,-103.79"/>
</g>
<!-- SafeFloatingOptionsComponent -->
<g id="node2" class="node">
<title>SafeFloatingOptionsComponent</title>
<polygon fill="#ffffb3" stroke="black" points="585.71,-84.8 388.29,-84.8 388.29,-48.8 585.71,-48.8 585.71,-84.8"/>
<text text-anchor="middle" x="487" y="-62.6" font-family="Times,serif" font-size="14.00">SafeFloatingOptionsComponent</text>
</g>
<!-- SafeFloatingOptionsComponent&#45;&gt;SafeWidgetGridModule -->
<g id="edge2" class="edge">
<title>SafeFloatingOptionsComponent&#45;&gt;SafeWidgetGridModule</title>
<path fill="none" stroke="black" d="M487,-84.83C487,-101.2 487,-122.8 487,-122.8 487,-122.8 713.08,-122.8 713.08,-122.8"/>
<polygon fill="black" stroke="black" points="713.08,-126.3 723.08,-122.8 713.08,-119.3 713.08,-126.3"/>
</g>
<!-- SafeTileDataComponent -->
<g id="node3" class="node">
<title>SafeTileDataComponent</title>
<polygon fill="#ffffb3" stroke="black" points="370.68,-84.8 215.32,-84.8 215.32,-48.8 370.68,-48.8 370.68,-84.8"/>
<text text-anchor="middle" x="293" y="-62.6" font-family="Times,serif" font-size="14.00">SafeTileDataComponent</text>
</g>
<!-- SafeTileDataComponent&#45;&gt;SafeWidgetGridModule -->
<g id="edge3" class="edge">
<title>SafeTileDataComponent&#45;&gt;SafeWidgetGridModule</title>
<path fill="none" stroke="black" d="M293,-84.91C293,-104.14 293,-131.8 293,-131.8 293,-131.8 713.25,-131.8 713.25,-131.8"/>
<polygon fill="black" stroke="black" points="713.25,-135.3 723.25,-131.8 713.25,-128.3 713.25,-135.3"/>
</g>
<!-- SafeWidgetGridComponent -->
<g id="node4" class="node">
<title>SafeWidgetGridComponent</title>
<polygon fill="#ffffb3" stroke="black" points="197.58,-84.8 24.42,-84.8 24.42,-48.8 197.58,-48.8 197.58,-84.8"/>
<text text-anchor="middle" x="111" y="-62.6" font-family="Times,serif" font-size="14.00">SafeWidgetGridComponent</text>
</g>
<!-- SafeWidgetGridComponent&#45;&gt;SafeWidgetGridModule -->
<g id="edge4" class="edge">
<title>SafeWidgetGridComponent&#45;&gt;SafeWidgetGridModule</title>
<path fill="none" stroke="black" d="M111,-85.09C111,-107.01 111,-140.8 111,-140.8 111,-140.8 713.07,-140.8 713.07,-140.8"/>
<polygon fill="black" stroke="black" points="713.07,-144.3 723.07,-140.8 713.07,-137.3 713.07,-144.3"/>
</g>
<!-- SafeWidgetGridComponent  -->
<g id="node10" class="node">
<title>SafeWidgetGridComponent </title>
<polygon fill="#fb8072" stroke="black" points="887.08,-214.8 710.92,-214.8 710.92,-178.8 887.08,-178.8 887.08,-214.8"/>
<text text-anchor="middle" x="799" y="-192.6" font-family="Times,serif" font-size="14.00">SafeWidgetGridComponent </text>
</g>
<!-- SafeWidgetGridModule&#45;&gt;SafeWidgetGridComponent  -->
<g id="edge9" class="edge">
<title>SafeWidgetGridModule&#45;&gt;SafeWidgetGridComponent </title>
<path fill="none" stroke="black" stroke-dasharray="5,2" d="M799,-149.91C799,-149.91 799,-168.79 799,-168.79"/>
<polygon fill="black" stroke="black" points="795.5,-168.79 799,-178.79 802.5,-168.79 795.5,-168.79"/>
</g>
<!-- SafeButtonModule -->
<g id="node6" class="node">
<title>SafeButtonModule</title>
<polygon fill="#8dd3c7" stroke="black" points="1407.05,-84.8 1404.05,-88.8 1383.05,-88.8 1380.05,-84.8 1284.95,-84.8 1284.95,-48.8 1407.05,-48.8 1407.05,-84.8"/>
<text text-anchor="middle" x="1346" y="-62.6" font-family="Times,serif" font-size="14.00">SafeButtonModule</text>
</g>
<!-- SafeButtonModule&#45;&gt;SafeWidgetGridModule -->
<g id="edge5" class="edge">
<title>SafeButtonModule&#45;&gt;SafeWidgetGridModule</title>
<path fill="none" stroke="black" d="M1346,-85.09C1346,-107.01 1346,-140.8 1346,-140.8 1346,-140.8 884.77,-140.8 884.77,-140.8"/>
<polygon fill="black" stroke="black" points="884.77,-137.3 874.77,-140.8 884.77,-144.3 884.77,-137.3"/>
</g>
<!-- SafeIconModule -->
<g id="node7" class="node">
<title>SafeIconModule</title>
<polygon fill="#8dd3c7" stroke="black" points="1266.8,-84.8 1263.8,-88.8 1242.8,-88.8 1239.8,-84.8 1157.2,-84.8 1157.2,-48.8 1266.8,-48.8 1266.8,-84.8"/>
<text text-anchor="middle" x="1212" y="-62.6" font-family="Times,serif" font-size="14.00">SafeIconModule</text>
</g>
<!-- SafeIconModule&#45;&gt;SafeWidgetGridModule -->
<g id="edge6" class="edge">
<title>SafeIconModule&#45;&gt;SafeWidgetGridModule</title>
<path fill="none" stroke="black" d="M1212,-84.91C1212,-104.14 1212,-131.8 1212,-131.8 1212,-131.8 884.75,-131.8 884.75,-131.8"/>
<polygon fill="black" stroke="black" points="884.75,-128.3 874.75,-131.8 884.75,-135.3 884.75,-128.3"/>
</g>
<!-- SafeWidgetChoiceModule -->
<g id="node8" class="node">
<title>SafeWidgetChoiceModule</title>
<polygon fill="#8dd3c7" stroke="black" points="1139.79,-84.8 1136.79,-88.8 1115.79,-88.8 1112.79,-84.8 974.21,-84.8 974.21,-48.8 1139.79,-48.8 1139.79,-84.8"/>
<text text-anchor="middle" x="1057" y="-62.6" font-family="Times,serif" font-size="14.00">SafeWidgetChoiceModule</text>
</g>
<!-- SafeWidgetChoiceModule&#45;&gt;SafeWidgetGridModule -->
<g id="edge7" class="edge">
<title>SafeWidgetChoiceModule&#45;&gt;SafeWidgetGridModule</title>
<path fill="none" stroke="black" d="M1057,-84.83C1057,-101.2 1057,-122.8 1057,-122.8 1057,-122.8 884.67,-122.8 884.67,-122.8"/>
<polygon fill="black" stroke="black" points="884.67,-119.3 874.67,-122.8 884.67,-126.3 884.67,-119.3"/>
</g>
<!-- SafeWidgetModule -->
<g id="node9" class="node">
<title>SafeWidgetModule</title>
<polygon fill="#8dd3c7" stroke="black" points="956.64,-84.8 953.64,-88.8 932.64,-88.8 929.64,-84.8 831.36,-84.8 831.36,-48.8 956.64,-48.8 956.64,-84.8"/>
<text text-anchor="middle" x="894" y="-62.6" font-family="Times,serif" font-size="14.00">SafeWidgetModule</text>
</g>
<!-- SafeWidgetModule&#45;&gt;SafeWidgetGridModule -->
<g id="edge8" class="edge">
<title>SafeWidgetModule&#45;&gt;SafeWidgetGridModule</title>
<path fill="none" stroke="black" d="M852.92,-84.91C852.92,-84.91 852.92,-103.79 852.92,-103.79"/>
<polygon fill="black" stroke="black" points="849.42,-103.79 852.92,-113.79 856.42,-103.79 849.42,-103.79"/>
</g>
</g>
</svg>
