<?xml version="1.0" encoding="UTF-8" standalone="no"?>
<!DOCTYPE svg PUBLIC "-//W3C//DTD SVG 1.1//EN"
 "http://www.w3.org/Graphics/SVG/1.1/DTD/svg11.dtd">
<!-- Generated by graphviz version 3.0.0 (20220226.1711)
 -->
<!-- Title: dependencies Pages: 1 -->
<svg width="392pt" height="247pt"
 viewBox="0.00 0.00 392.00 246.80" xmlns="http://www.w3.org/2000/svg" xmlns:xlink="http://www.w3.org/1999/xlink">
<g id="graph0" class="graph" transform="scale(1 1) rotate(0) translate(4 242.8)">
<title>dependencies</title>
<polygon fill="white" stroke="transparent" points="-4,4 -4,-242.8 388,-242.8 388,4 -4,4"/>
<text text-anchor="middle" x="192" y="-8.2" font-family="sans-serif" font-size="14.00">dependencies</text>
<g id="clust1" class="cluster">
<title>cluster_SafeFormsDropdownModule</title>
<polygon fill="none" stroke="black" stroke-dasharray="1,5" points="8,-32.8 8,-230.8 376,-230.8 376,-32.8 8,-32.8"/>
</g>
<g id="clust4" class="cluster">
<title>cluster_SafeFormsDropdownModule_imports</title>
<polygon fill="none" stroke="black" points="242,-40.8 242,-92.8 368,-92.8 368,-40.8 242,-40.8"/>
</g>
<g id="clust5" class="cluster">
<title>cluster_SafeFormsDropdownModule_exports</title>
<polygon fill="none" stroke="black" points="81,-170.8 81,-222.8 303,-222.8 303,-170.8 81,-170.8"/>
</g>
<g id="clust2" class="cluster">
<title>cluster_SafeFormsDropdownModule_declarations</title>
<polygon fill="none" stroke="black" points="16,-40.8 16,-92.8 234,-92.8 234,-40.8 16,-40.8"/>
</g>
<!-- SafeFormsDropdownComponent -->
<g id="node1" class="node">
<title>SafeFormsDropdownComponent</title>
<polygon fill="#ffffb3" stroke="black" points="225.88,-84.8 24.12,-84.8 24.12,-48.8 225.88,-48.8 225.88,-84.8"/>
<text text-anchor="middle" x="125" y="-62.6" font-family="Times,serif" font-size="14.00">SafeFormsDropdownComponent</text>
</g>
<!-- SafeFormsDropdownModule -->
<g id="node2" class="node">
<title>SafeFormsDropdownModule</title>
<polygon fill="#8dd3c7" stroke="black" points="282.1,-149.8 279.1,-153.8 258.1,-153.8 255.1,-149.8 101.9,-149.8 101.9,-113.8 282.1,-113.8 282.1,-149.8"/>
<text text-anchor="middle" x="192" y="-127.6" font-family="Times,serif" font-size="14.00">SafeFormsDropdownModule</text>
</g>
<!-- SafeFormsDropdownComponent&#45;&gt;SafeFormsDropdownModule -->
<g id="edge1" class="edge">
<title>SafeFormsDropdownComponent&#45;&gt;SafeFormsDropdownModule</title>
<path fill="none" stroke="black" d="M163.94,-84.91C163.94,-84.91 163.94,-103.79 163.94,-103.79"/>
<polygon fill="black" stroke="black" points="160.44,-103.79 163.94,-113.79 167.44,-103.79 160.44,-103.79"/>
</g>
<!-- SafeFormsDropdownComponent  -->
<g id="node4" class="node">
<title>SafeFormsDropdownComponent </title>
<polygon fill="#fb8072" stroke="black" points="294.88,-214.8 89.12,-214.8 89.12,-178.8 294.88,-178.8 294.88,-214.8"/>
<text text-anchor="middle" x="192" y="-192.6" font-family="Times,serif" font-size="14.00">SafeFormsDropdownComponent </text>
</g>
<!-- SafeFormsDropdownModule&#45;&gt;SafeFormsDropdownComponent  -->
<g id="edge3" class="edge">
<title>SafeFormsDropdownModule&#45;&gt;SafeFormsDropdownComponent </title>
<path fill="none" stroke="black" stroke-dasharray="5,2" d="M192,-149.91C192,-149.91 192,-168.79 192,-168.79"/>
<polygon fill="black" stroke="black" points="188.5,-168.79 192,-178.79 195.5,-168.79 188.5,-168.79"/>
</g>
<!-- SafeIconModule -->
<g id="node3" class="node">
<title>SafeIconModule</title>
<polygon fill="#8dd3c7" stroke="black" points="359.8,-84.8 356.8,-88.8 335.8,-88.8 332.8,-84.8 250.2,-84.8 250.2,-48.8 359.8,-48.8 359.8,-84.8"/>
<text text-anchor="middle" x="305" y="-62.6" font-family="Times,serif" font-size="14.00">SafeIconModule</text>
</g>
<!-- SafeIconModule&#45;&gt;SafeFormsDropdownModule -->
<g id="edge2" class="edge">
<title>SafeIconModule&#45;&gt;SafeFormsDropdownModule</title>
<path fill="none" stroke="black" d="M266.2,-84.91C266.2,-84.91 266.2,-103.79 266.2,-103.79"/>
<polygon fill="black" stroke="black" points="262.7,-103.79 266.2,-113.79 269.7,-103.79 262.7,-103.79"/>
</g>
</g>
</svg>
