<?xml version="1.0" encoding="UTF-8" standalone="no"?>
<!DOCTYPE svg PUBLIC "-//W3C//DTD SVG 1.1//EN"
 "http://www.w3.org/Graphics/SVG/1.1/DTD/svg11.dtd">
<!-- Generated by graphviz version 3.0.0 (20220226.1711)
 -->
<!-- Title: dependencies Pages: 1 -->
<svg width="470pt" height="247pt"
 viewBox="0.00 0.00 470.00 246.80" xmlns="http://www.w3.org/2000/svg" xmlns:xlink="http://www.w3.org/1999/xlink">
<g id="graph0" class="graph" transform="scale(1 1) rotate(0) translate(4 242.8)">
<title>dependencies</title>
<polygon fill="white" stroke="transparent" points="-4,4 -4,-242.8 466,-242.8 466,4 -4,4"/>
<text text-anchor="middle" x="231" y="-8.2" font-family="sans-serif" font-size="14.00">dependencies</text>
<g id="clust1" class="cluster">
<title>cluster_FormsModule</title>
<polygon fill="none" stroke="black" stroke-dasharray="1,5" points="8,-32.8 8,-230.8 454,-230.8 454,-32.8 8,-32.8"/>
</g>
<g id="clust5" class="cluster">
<title>cluster_FormsModule_exports</title>
<polygon fill="none" stroke="black" points="168,-170.8 168,-222.8 304,-222.8 304,-170.8 168,-170.8"/>
</g>
<g id="clust4" class="cluster">
<title>cluster_FormsModule_imports</title>
<polygon fill="none" stroke="black" points="158,-40.8 158,-92.8 446,-92.8 446,-40.8 158,-40.8"/>
</g>
<g id="clust2" class="cluster">
<title>cluster_FormsModule_declarations</title>
<polygon fill="none" stroke="black" points="16,-40.8 16,-92.8 150,-92.8 150,-40.8 16,-40.8"/>
</g>
<!-- FormsComponent -->
<g id="node1" class="node">
<title>FormsComponent</title>
<polygon fill="#ffffb3" stroke="black" points="141.62,-84.8 24.38,-84.8 24.38,-48.8 141.62,-48.8 141.62,-84.8"/>
<text text-anchor="middle" x="83" y="-62.6" font-family="Times,serif" font-size="14.00">FormsComponent</text>
</g>
<!-- FormsModule -->
<g id="node2" class="node">
<title>FormsModule</title>
<polygon fill="#8dd3c7" stroke="black" points="283.84,-149.8 280.84,-153.8 259.84,-153.8 256.84,-149.8 188.16,-149.8 188.16,-113.8 283.84,-113.8 283.84,-149.8"/>
<text text-anchor="middle" x="236" y="-127.6" font-family="Times,serif" font-size="14.00">FormsModule</text>
</g>
<!-- FormsComponent&#45;&gt;FormsModule -->
<g id="edge1" class="edge">
<title>FormsComponent&#45;&gt;FormsModule</title>
<path fill="none" stroke="black" d="M83,-84.91C83,-104.14 83,-131.8 83,-131.8 83,-131.8 178.01,-131.8 178.01,-131.8"/>
<polygon fill="black" stroke="black" points="178.01,-135.3 188.01,-131.8 178.01,-128.3 178.01,-135.3"/>
</g>
<!-- FormsComponent  -->
<g id="node5" class="node">
<title>FormsComponent </title>
<polygon fill="#fb8072" stroke="black" points="296.12,-214.8 175.88,-214.8 175.88,-178.8 296.12,-178.8 296.12,-214.8"/>
<text text-anchor="middle" x="236" y="-192.6" font-family="Times,serif" font-size="14.00">FormsComponent </text>
</g>
<!-- FormsModule&#45;&gt;FormsComponent  -->
<g id="edge4" class="edge">
<title>FormsModule&#45;&gt;FormsComponent </title>
<path fill="none" stroke="black" stroke-dasharray="5,2" d="M236,-149.91C236,-149.91 236,-168.79 236,-168.79"/>
<polygon fill="black" stroke="black" points="232.5,-168.79 236,-178.79 239.5,-168.79 232.5,-168.79"/>
</g>
<!-- AddFormModule -->
<g id="node3" class="node">
<title>AddFormModule</title>
<polygon fill="#8dd3c7" stroke="black" points="438,-84.8 435,-88.8 414,-88.8 411,-84.8 324,-84.8 324,-48.8 438,-48.8 438,-84.8"/>
<text text-anchor="middle" x="381" y="-62.6" font-family="Times,serif" font-size="14.00">AddFormModule</text>
</g>
<!-- AddFormModule&#45;&gt;FormsModule -->
<g id="edge2" class="edge">
<title>AddFormModule&#45;&gt;FormsModule</title>
<path fill="none" stroke="black" d="M381,-84.91C381,-104.14 381,-131.8 381,-131.8 381,-131.8 293.88,-131.8 293.88,-131.8"/>
<polygon fill="black" stroke="black" points="293.88,-128.3 283.88,-131.8 293.88,-135.3 293.88,-128.3"/>
</g>
<!-- FormsRoutingModule -->
<g id="node4" class="node">
<title>FormsRoutingModule</title>
<polygon fill="#8dd3c7" stroke="black" points="306.46,-84.8 303.46,-88.8 282.46,-88.8 279.46,-84.8 165.54,-84.8 165.54,-48.8 306.46,-48.8 306.46,-84.8"/>
<text text-anchor="middle" x="236" y="-62.6" font-family="Times,serif" font-size="14.00">FormsRoutingModule</text>
</g>
<!-- FormsRoutingModule&#45;&gt;FormsModule -->
<g id="edge3" class="edge">
<title>FormsRoutingModule&#45;&gt;FormsModule</title>
<path fill="none" stroke="black" d="M236,-84.91C236,-84.91 236,-103.79 236,-103.79"/>
<polygon fill="black" stroke="black" points="232.5,-103.79 236,-113.79 239.5,-103.79 232.5,-103.79"/>
</g>
</g>
</svg>
