<?xml version="1.0" encoding="UTF-8" standalone="no"?>
<!DOCTYPE svg PUBLIC "-//W3C//DTD SVG 1.1//EN"
 "http://www.w3.org/Graphics/SVG/1.1/DTD/svg11.dtd">
<!-- Generated by graphviz version 3.0.0 (20220226.1711)
 -->
<!-- Title: dependencies Pages: 1 -->
<svg width="552pt" height="174pt"
 viewBox="0.00 0.00 552.00 173.80" xmlns="http://www.w3.org/2000/svg" xmlns:xlink="http://www.w3.org/1999/xlink">
<g id="graph0" class="graph" transform="scale(1 1) rotate(0) translate(4 169.8)">
<title>dependencies</title>
<polygon fill="white" stroke="transparent" points="-4,4 -4,-169.8 548,-169.8 548,4 -4,4"/>
<text text-anchor="middle" x="272" y="-8.2" font-family="sans-serif" font-size="14.00">dependencies</text>
<g id="clust1" class="cluster">
<title>cluster_RecordsTabModule</title>
<polygon fill="none" stroke="black" stroke-dasharray="1,5" points="8,-32.8 8,-157.8 536,-157.8 536,-32.8 8,-32.8"/>
</g>
<g id="clust2" class="cluster">
<title>cluster_RecordsTabModule_declarations</title>
<polygon fill="none" stroke="black" points="364,-40.8 364,-92.8 528,-92.8 528,-40.8 364,-40.8"/>
</g>
<g id="clust4" class="cluster">
<title>cluster_RecordsTabModule_imports</title>
<polygon fill="none" stroke="black" points="16,-40.8 16,-92.8 356,-92.8 356,-40.8 16,-40.8"/>
</g>
<!-- RecordsTabComponent -->
<g id="node1" class="node">
<title>RecordsTabComponent</title>
<polygon fill="#ffffb3" stroke="black" points="520.47,-84.8 371.53,-84.8 371.53,-48.8 520.47,-48.8 520.47,-84.8"/>
<text text-anchor="middle" x="446" y="-62.6" font-family="Times,serif" font-size="14.00">RecordsTabComponent</text>
</g>
<!-- RecordsTabModule -->
<g id="node2" class="node">
<title>RecordsTabModule</title>
<polygon fill="#8dd3c7" stroke="black" points="325.69,-149.8 322.69,-153.8 301.69,-153.8 298.69,-149.8 198.31,-149.8 198.31,-113.8 325.69,-113.8 325.69,-149.8"/>
<text text-anchor="middle" x="262" y="-127.6" font-family="Times,serif" font-size="14.00">RecordsTabModule</text>
</g>
<!-- RecordsTabComponent&#45;&gt;RecordsTabModule -->
<g id="edge1" class="edge">
<title>RecordsTabComponent&#45;&gt;RecordsTabModule</title>
<path fill="none" stroke="black" d="M446,-84.91C446,-104.14 446,-131.8 446,-131.8 446,-131.8 335.84,-131.8 335.84,-131.8"/>
<polygon fill="black" stroke="black" points="335.84,-128.3 325.84,-131.8 335.84,-135.3 335.84,-128.3"/>
</g>
<!-- RecordsTabRoutingModule -->
<g id="node3" class="node">
<title>RecordsTabRoutingModule</title>
<polygon fill="#8dd3c7" stroke="black" points="348.31,-84.8 345.31,-88.8 324.31,-88.8 321.31,-84.8 175.69,-84.8 175.69,-48.8 348.31,-48.8 348.31,-84.8"/>
<text text-anchor="middle" x="262" y="-62.6" font-family="Times,serif" font-size="14.00">RecordsTabRoutingModule</text>
</g>
<!-- RecordsTabRoutingModule&#45;&gt;RecordsTabModule -->
<g id="edge2" class="edge">
<title>RecordsTabRoutingModule&#45;&gt;RecordsTabModule</title>
<path fill="none" stroke="black" d="M262,-84.91C262,-84.91 262,-103.79 262,-103.79"/>
<polygon fill="black" stroke="black" points="258.5,-103.79 262,-113.79 265.5,-103.79 258.5,-103.79"/>
</g>
<!-- UploadMenuModule -->
<g id="node4" class="node">
<title>UploadMenuModule</title>
<polygon fill="#8dd3c7" stroke="black" points="157.93,-84.8 154.93,-88.8 133.93,-88.8 130.93,-84.8 24.07,-84.8 24.07,-48.8 157.93,-48.8 157.93,-84.8"/>
<text text-anchor="middle" x="91" y="-62.6" font-family="Times,serif" font-size="14.00">UploadMenuModule</text>
</g>
<!-- UploadMenuModule&#45;&gt;RecordsTabModule -->
<g id="edge3" class="edge">
<title>UploadMenuModule&#45;&gt;RecordsTabModule</title>
<path fill="none" stroke="black" d="M91,-84.91C91,-104.14 91,-131.8 91,-131.8 91,-131.8 188.33,-131.8 188.33,-131.8"/>
<polygon fill="black" stroke="black" points="188.33,-135.3 198.33,-131.8 188.33,-128.3 188.33,-135.3"/>
</g>
</g>
</svg>
