<?xml version="1.0" encoding="UTF-8" standalone="no"?>
<!DOCTYPE svg PUBLIC "-//W3C//DTD SVG 1.1//EN"
 "http://www.w3.org/Graphics/SVG/1.1/DTD/svg11.dtd">
<!-- Generated by graphviz version 3.0.0 (20220226.1711)
 -->
<!-- Title: dependencies Pages: 1 -->
<svg width="1300pt" height="247pt"
 viewBox="0.00 0.00 1300.00 246.80" xmlns="http://www.w3.org/2000/svg" xmlns:xlink="http://www.w3.org/1999/xlink">
<g id="graph0" class="graph" transform="scale(1 1) rotate(0) translate(4 242.8)">
<title>dependencies</title>
<polygon fill="white" stroke="transparent" points="-4,4 -4,-242.8 1296,-242.8 1296,4 -4,4"/>
<text text-anchor="middle" x="646" y="-8.2" font-family="sans-serif" font-size="14.00">dependencies</text>
<g id="clust1" class="cluster">
<title>cluster_SafeLayoutModule</title>
<polygon fill="none" stroke="black" stroke-dasharray="1,5" points="8,-32.8 8,-230.8 1284,-230.8 1284,-32.8 8,-32.8"/>
</g>
<g id="clust2" class="cluster">
<title>cluster_SafeLayoutModule_declarations</title>
<polygon fill="none" stroke="black" points="1114,-40.8 1114,-92.8 1276,-92.8 1276,-40.8 1114,-40.8"/>
</g>
<g id="clust4" class="cluster">
<title>cluster_SafeLayoutModule_imports</title>
<polygon fill="none" stroke="black" points="16,-40.8 16,-92.8 1106,-92.8 1106,-40.8 16,-40.8"/>
</g>
<g id="clust5" class="cluster">
<title>cluster_SafeLayoutModule_exports</title>
<polygon fill="none" stroke="black" points="578,-170.8 578,-222.8 744,-222.8 744,-170.8 578,-170.8"/>
</g>
<!-- SafeLayoutComponent -->
<g id="node1" class="node">
<title>SafeLayoutComponent</title>
<polygon fill="#ffffb3" stroke="black" points="1267.86,-84.8 1122.14,-84.8 1122.14,-48.8 1267.86,-48.8 1267.86,-84.8"/>
<text text-anchor="middle" x="1195" y="-62.6" font-family="Times,serif" font-size="14.00">SafeLayoutComponent</text>
</g>
<!-- SafeLayoutModule -->
<g id="node2" class="node">
<title>SafeLayoutModule</title>
<polygon fill="#8dd3c7" stroke="black" points="723.08,-149.8 720.08,-153.8 699.08,-153.8 696.08,-149.8 598.92,-149.8 598.92,-113.8 723.08,-113.8 723.08,-149.8"/>
<text text-anchor="middle" x="661" y="-127.6" font-family="Times,serif" font-size="14.00">SafeLayoutModule</text>
</g>
<!-- SafeLayoutComponent&#45;&gt;SafeLayoutModule -->
<g id="edge1" class="edge">
<title>SafeLayoutComponent&#45;&gt;SafeLayoutModule</title>
<path fill="none" stroke="black" d="M1195,-85.09C1195,-107.01 1195,-140.8 1195,-140.8 1195,-140.8 733.3,-140.8 733.3,-140.8"/>
<polygon fill="black" stroke="black" points="733.3,-137.3 723.3,-140.8 733.3,-144.3 733.3,-137.3"/>
</g>
<!-- SafeLayoutComponent  -->
<g id="node10" class="node">
<title>SafeLayoutComponent </title>
<polygon fill="#fb8072" stroke="black" points="735.86,-214.8 586.14,-214.8 586.14,-178.8 735.86,-178.8 735.86,-214.8"/>
<text text-anchor="middle" x="661" y="-192.6" font-family="Times,serif" font-size="14.00">SafeLayoutComponent </text>
</g>
<!-- SafeLayoutModule&#45;&gt;SafeLayoutComponent  -->
<g id="edge9" class="edge">
<title>SafeLayoutModule&#45;&gt;SafeLayoutComponent </title>
<path fill="none" stroke="black" stroke-dasharray="5,2" d="M661,-149.91C661,-149.91 661,-168.79 661,-168.79"/>
<polygon fill="black" stroke="black" points="657.5,-168.79 661,-178.79 664.5,-168.79 657.5,-168.79"/>
</g>
<!-- SafeBreadcrumbModule -->
<g id="node3" class="node">
<title>SafeBreadcrumbModule</title>
<polygon fill="#8dd3c7" stroke="black" points="1097.62,-84.8 1094.62,-88.8 1073.62,-88.8 1070.62,-84.8 944.38,-84.8 944.38,-48.8 1097.62,-48.8 1097.62,-84.8"/>
<text text-anchor="middle" x="1021" y="-62.6" font-family="Times,serif" font-size="14.00">SafeBreadcrumbModule</text>
</g>
<!-- SafeBreadcrumbModule&#45;&gt;SafeLayoutModule -->
<g id="edge2" class="edge">
<title>SafeBreadcrumbModule&#45;&gt;SafeLayoutModule</title>
<path fill="none" stroke="black" d="M1021,-84.91C1021,-104.14 1021,-131.8 1021,-131.8 1021,-131.8 733.3,-131.8 733.3,-131.8"/>
<polygon fill="black" stroke="black" points="733.3,-128.3 723.3,-131.8 733.3,-135.3 733.3,-128.3"/>
</g>
<!-- SafeButtonModule -->
<g id="node4" class="node">
<title>SafeButtonModule</title>
<polygon fill="#8dd3c7" stroke="black" points="926.05,-84.8 923.05,-88.8 902.05,-88.8 899.05,-84.8 803.95,-84.8 803.95,-48.8 926.05,-48.8 926.05,-84.8"/>
<text text-anchor="middle" x="865" y="-62.6" font-family="Times,serif" font-size="14.00">SafeButtonModule</text>
</g>
<!-- SafeButtonModule&#45;&gt;SafeLayoutModule -->
<g id="edge3" class="edge">
<title>SafeButtonModule&#45;&gt;SafeLayoutModule</title>
<path fill="none" stroke="black" d="M865,-84.83C865,-101.2 865,-122.8 865,-122.8 865,-122.8 733.32,-122.8 733.32,-122.8"/>
<polygon fill="black" stroke="black" points="733.32,-119.3 723.32,-122.8 733.32,-126.3 733.32,-119.3"/>
</g>
<!-- SafeDateModule -->
<g id="node5" class="node">
<title>SafeDateModule</title>
<polygon fill="#8dd3c7" stroke="black" points="785.36,-84.8 782.36,-88.8 761.36,-88.8 758.36,-84.8 674.64,-84.8 674.64,-48.8 785.36,-48.8 785.36,-84.8"/>
<text text-anchor="middle" x="730" y="-62.6" font-family="Times,serif" font-size="14.00">SafeDateModule</text>
</g>
<!-- SafeDateModule&#45;&gt;SafeLayoutModule -->
<g id="edge4" class="edge">
<title>SafeDateModule&#45;&gt;SafeLayoutModule</title>
<path fill="none" stroke="black" d="M698.81,-84.91C698.81,-84.91 698.81,-103.79 698.81,-103.79"/>
<polygon fill="black" stroke="black" points="695.31,-103.79 698.81,-113.79 702.31,-103.79 695.31,-103.79"/>
</g>
<!-- SafeDividerModule -->
<g id="node6" class="node">
<title>SafeDividerModule</title>
<polygon fill="#8dd3c7" stroke="black" points="656.69,-84.8 653.69,-88.8 632.69,-88.8 629.69,-84.8 529.31,-84.8 529.31,-48.8 656.69,-48.8 656.69,-84.8"/>
<text text-anchor="middle" x="593" y="-62.6" font-family="Times,serif" font-size="14.00">SafeDividerModule</text>
</g>
<!-- SafeDividerModule&#45;&gt;SafeLayoutModule -->
<g id="edge5" class="edge">
<title>SafeDividerModule&#45;&gt;SafeLayoutModule</title>
<path fill="none" stroke="black" d="M627.78,-84.91C627.78,-84.91 627.78,-103.79 627.78,-103.79"/>
<polygon fill="black" stroke="black" points="624.28,-103.79 627.78,-113.79 631.28,-103.79 624.28,-103.79"/>
</g>
<!-- SafeIconModule -->
<g id="node7" class="node">
<title>SafeIconModule</title>
<polygon fill="#8dd3c7" stroke="black" points="511.8,-84.8 508.8,-88.8 487.8,-88.8 484.8,-84.8 402.2,-84.8 402.2,-48.8 511.8,-48.8 511.8,-84.8"/>
<text text-anchor="middle" x="457" y="-62.6" font-family="Times,serif" font-size="14.00">SafeIconModule</text>
</g>
<!-- SafeIconModule&#45;&gt;SafeLayoutModule -->
<g id="edge6" class="edge">
<title>SafeIconModule&#45;&gt;SafeLayoutModule</title>
<path fill="none" stroke="black" d="M457,-84.83C457,-101.2 457,-122.8 457,-122.8 457,-122.8 588.68,-122.8 588.68,-122.8"/>
<polygon fill="black" stroke="black" points="588.68,-126.3 598.68,-122.8 588.68,-119.3 588.68,-126.3"/>
</g>
<!-- SafePreferencesModalModule -->
<g id="node8" class="node">
<title>SafePreferencesModalModule</title>
<polygon fill="#8dd3c7" stroke="black" points="384.27,-84.8 381.27,-88.8 360.27,-88.8 357.27,-84.8 197.73,-84.8 197.73,-48.8 384.27,-48.8 384.27,-84.8"/>
<text text-anchor="middle" x="291" y="-62.6" font-family="Times,serif" font-size="14.00">SafePreferencesModalModule</text>
</g>
<!-- SafePreferencesModalModule&#45;&gt;SafeLayoutModule -->
<g id="edge7" class="edge">
<title>SafePreferencesModalModule&#45;&gt;SafeLayoutModule</title>
<path fill="none" stroke="black" d="M291,-84.91C291,-104.14 291,-131.8 291,-131.8 291,-131.8 588.65,-131.8 588.65,-131.8"/>
<polygon fill="black" stroke="black" points="588.65,-135.3 598.65,-131.8 588.65,-128.3 588.65,-135.3"/>
</g>
<!-- SafeSearchMenuModule -->
<g id="node9" class="node">
<title>SafeSearchMenuModule</title>
<polygon fill="#8dd3c7" stroke="black" points="179.68,-84.8 176.68,-88.8 155.68,-88.8 152.68,-84.8 24.32,-84.8 24.32,-48.8 179.68,-48.8 179.68,-84.8"/>
<text text-anchor="middle" x="102" y="-62.6" font-family="Times,serif" font-size="14.00">SafeSearchMenuModule</text>
</g>
<!-- SafeSearchMenuModule&#45;&gt;SafeLayoutModule -->
<g id="edge8" class="edge">
<title>SafeSearchMenuModule&#45;&gt;SafeLayoutModule</title>
<path fill="none" stroke="black" d="M102,-85.09C102,-107.01 102,-140.8 102,-140.8 102,-140.8 588.77,-140.8 588.77,-140.8"/>
<polygon fill="black" stroke="black" points="588.77,-144.3 598.77,-140.8 588.77,-137.3 588.77,-144.3"/>
</g>
</g>
</svg>
