<?xml version="1.0" encoding="UTF-8" standalone="no"?>
<!DOCTYPE svg PUBLIC "-//W3C//DTD SVG 1.1//EN"
 "http://www.w3.org/Graphics/SVG/1.1/DTD/svg11.dtd">
<!-- Generated by graphviz version 3.0.0 (20220226.1711)
 -->
<!-- Title: dependencies Pages: 1 -->
<svg width="328pt" height="247pt"
 viewBox="0.00 0.00 328.00 246.80" xmlns="http://www.w3.org/2000/svg" xmlns:xlink="http://www.w3.org/1999/xlink">
<g id="graph0" class="graph" transform="scale(1 1) rotate(0) translate(4 242.8)">
<title>dependencies</title>
<polygon fill="white" stroke="transparent" points="-4,4 -4,-242.8 324,-242.8 324,4 -4,4"/>
<text text-anchor="middle" x="160" y="-8.2" font-family="sans-serif" font-size="14.00">dependencies</text>
<g id="clust1" class="cluster">
<title>cluster_FormModule</title>
<polygon fill="none" stroke="black" stroke-dasharray="1,5" points="8,-32.8 8,-230.8 312,-230.8 312,-32.8 8,-32.8"/>
</g>
<g id="clust4" class="cluster">
<title>cluster_FormModule_imports</title>
<polygon fill="none" stroke="black" points="152,-40.8 152,-92.8 304,-92.8 304,-40.8 152,-40.8"/>
</g>
<g id="clust5" class="cluster">
<title>cluster_FormModule_exports</title>
<polygon fill="none" stroke="black" points="89,-170.8 89,-222.8 221,-222.8 221,-170.8 89,-170.8"/>
</g>
<g id="clust2" class="cluster">
<title>cluster_FormModule_declarations</title>
<polygon fill="none" stroke="black" points="16,-40.8 16,-92.8 144,-92.8 144,-40.8 16,-40.8"/>
</g>
<!-- FormComponent -->
<g id="node1" class="node">
<title>FormComponent</title>
<polygon fill="#ffffb3" stroke="black" points="135.67,-84.8 24.33,-84.8 24.33,-48.8 135.67,-48.8 135.67,-84.8"/>
<text text-anchor="middle" x="80" y="-62.6" font-family="Times,serif" font-size="14.00">FormComponent</text>
</g>
<!-- FormModule -->
<g id="node2" class="node">
<title>FormModule</title>
<polygon fill="#8dd3c7" stroke="black" points="199.89,-149.8 196.89,-153.8 175.89,-153.8 172.89,-149.8 110.11,-149.8 110.11,-113.8 199.89,-113.8 199.89,-149.8"/>
<text text-anchor="middle" x="155" y="-127.6" font-family="Times,serif" font-size="14.00">FormModule</text>
</g>
<!-- FormComponent&#45;&gt;FormModule -->
<g id="edge1" class="edge">
<title>FormComponent&#45;&gt;FormModule</title>
<path fill="none" stroke="black" d="M122.94,-84.91C122.94,-84.91 122.94,-103.79 122.94,-103.79"/>
<polygon fill="black" stroke="black" points="119.44,-103.79 122.94,-113.79 126.44,-103.79 119.44,-103.79"/>
</g>
<!-- FormComponent  -->
<g id="node4" class="node">
<title>FormComponent </title>
<polygon fill="#fb8072" stroke="black" points="212.67,-214.8 97.33,-214.8 97.33,-178.8 212.67,-178.8 212.67,-214.8"/>
<text text-anchor="middle" x="155" y="-192.6" font-family="Times,serif" font-size="14.00">FormComponent </text>
</g>
<!-- FormModule&#45;&gt;FormComponent  -->
<g id="edge3" class="edge">
<title>FormModule&#45;&gt;FormComponent </title>
<path fill="none" stroke="black" stroke-dasharray="5,2" d="M155,-149.91C155,-149.91 155,-168.79 155,-168.79"/>
<polygon fill="black" stroke="black" points="151.5,-168.79 155,-178.79 158.5,-168.79 151.5,-168.79"/>
</g>
<!-- FormRoutingModule -->
<g id="node3" class="node">
<title>FormRoutingModule</title>
<polygon fill="#8dd3c7" stroke="black" points="295.51,-84.8 292.51,-88.8 271.51,-88.8 268.51,-84.8 160.49,-84.8 160.49,-48.8 295.51,-48.8 295.51,-84.8"/>
<text text-anchor="middle" x="228" y="-62.6" font-family="Times,serif" font-size="14.00">FormRoutingModule</text>
</g>
<!-- FormRoutingModule&#45;&gt;FormModule -->
<g id="edge2" class="edge">
<title>FormRoutingModule&#45;&gt;FormModule</title>
<path fill="none" stroke="black" d="M180.22,-84.91C180.22,-84.91 180.22,-103.79 180.22,-103.79"/>
<polygon fill="black" stroke="black" points="176.72,-103.79 180.22,-113.79 183.72,-103.79 176.72,-103.79"/>
</g>
</g>
</svg>
