<?xml version="1.0" encoding="UTF-8" standalone="no"?>
<!DOCTYPE svg PUBLIC "-//W3C//DTD SVG 1.1//EN"
 "http://www.w3.org/Graphics/SVG/1.1/DTD/svg11.dtd">
<!-- Generated by graphviz version 3.0.0 (20220226.1711)
 -->
<!-- Title: dependencies Pages: 1 -->
<svg width="559pt" height="247pt"
 viewBox="0.00 0.00 559.00 246.80" xmlns="http://www.w3.org/2000/svg" xmlns:xlink="http://www.w3.org/1999/xlink">
<g id="graph0" class="graph" transform="scale(1 1) rotate(0) translate(4 242.8)">
<title>dependencies</title>
<polygon fill="white" stroke="transparent" points="-4,4 -4,-242.8 555,-242.8 555,4 -4,4"/>
<text text-anchor="middle" x="275.5" y="-8.2" font-family="sans-serif" font-size="14.00">dependencies</text>
<g id="clust1" class="cluster">
<title>cluster_AppModule</title>
<polygon fill="none" stroke="black" stroke-dasharray="1,5" points="8,-32.8 8,-230.8 543,-230.8 543,-32.8 8,-32.8"/>
</g>
<g id="clust2" class="cluster">
<title>cluster_AppModule_declarations</title>
<polygon fill="none" stroke="black" points="413,-40.8 413,-92.8 535,-92.8 535,-40.8 413,-40.8"/>
</g>
<g id="clust4" class="cluster">
<title>cluster_AppModule_imports</title>
<polygon fill="none" stroke="black" points="16,-40.8 16,-92.8 405,-92.8 405,-40.8 16,-40.8"/>
</g>
<g id="clust6" class="cluster">
<title>cluster_AppModule_bootstrap</title>
<polygon fill="none" stroke="black" points="206,-170.8 206,-222.8 330,-222.8 330,-170.8 206,-170.8"/>
</g>
<!-- AppComponent -->
<g id="node1" class="node">
<title>AppComponent</title>
<polygon fill="#ffffb3" stroke="black" points="526.94,-84.8 421.06,-84.8 421.06,-48.8 526.94,-48.8 526.94,-84.8"/>
<text text-anchor="middle" x="474" y="-62.6" font-family="Times,serif" font-size="14.00">AppComponent</text>
</g>
<!-- AppModule -->
<g id="node2" class="node">
<title>AppModule</title>
<polygon fill="#8dd3c7" stroke="black" points="309.66,-149.8 306.66,-153.8 285.66,-153.8 282.66,-149.8 226.34,-149.8 226.34,-113.8 309.66,-113.8 309.66,-149.8"/>
<text text-anchor="middle" x="268" y="-127.6" font-family="Times,serif" font-size="14.00">AppModule</text>
</g>
<!-- AppComponent&#45;&gt;AppModule -->
<g id="edge1" class="edge">
<title>AppComponent&#45;&gt;AppModule</title>
<path fill="none" stroke="black" d="M474,-84.91C474,-104.14 474,-131.8 474,-131.8 474,-131.8 319.69,-131.8 319.69,-131.8"/>
<polygon fill="black" stroke="black" points="319.69,-128.3 309.69,-131.8 319.69,-135.3 319.69,-128.3"/>
</g>
<!-- AppComponent  -->
<g id="node6" class="node">
<title>AppComponent </title>
<polygon fill="#80b1d3" stroke="black" points="322.44,-214.8 213.56,-214.8 213.56,-178.8 322.44,-178.8 322.44,-214.8"/>
<text text-anchor="middle" x="268" y="-192.6" font-family="Times,serif" font-size="14.00">AppComponent </text>
</g>
<!-- AppModule&#45;&gt;AppComponent  -->
<g id="edge5" class="edge">
<title>AppModule&#45;&gt;AppComponent </title>
<path fill="none" stroke="black" stroke-dasharray="1,5" d="M268,-149.91C268,-149.91 268,-168.79 268,-168.79"/>
<polygon fill="black" stroke="black" points="264.5,-168.79 268,-178.79 271.5,-168.79 264.5,-168.79"/>
</g>
<!-- AppRoutingModule -->
<g id="node3" class="node">
<title>AppRoutingModule</title>
<polygon fill="#8dd3c7" stroke="black" points="397.28,-84.8 394.28,-88.8 373.28,-88.8 370.28,-84.8 268.72,-84.8 268.72,-48.8 397.28,-48.8 397.28,-84.8"/>
<text text-anchor="middle" x="333" y="-62.6" font-family="Times,serif" font-size="14.00">AppRoutingModule</text>
</g>
<!-- AppRoutingModule&#45;&gt;AppModule -->
<g id="edge2" class="edge">
<title>AppRoutingModule&#45;&gt;AppModule</title>
<path fill="none" stroke="black" d="M289.22,-84.91C289.22,-84.91 289.22,-103.79 289.22,-103.79"/>
<polygon fill="black" stroke="black" points="285.72,-103.79 289.22,-113.79 292.72,-103.79 285.72,-103.79"/>
</g>
<!-- FormsModule -->
<g id="node4" class="node">
<title>FormsModule</title>
<polygon fill="#8dd3c7" stroke="black" points="250.84,-84.8 247.84,-88.8 226.84,-88.8 223.84,-84.8 155.16,-84.8 155.16,-48.8 250.84,-48.8 250.84,-84.8"/>
<text text-anchor="middle" x="203" y="-62.6" font-family="Times,serif" font-size="14.00">FormsModule</text>
</g>
<!-- FormsModule&#45;&gt;AppModule -->
<g id="edge3" class="edge">
<title>FormsModule&#45;&gt;AppModule</title>
<path fill="none" stroke="black" d="M238.42,-84.91C238.42,-84.91 238.42,-103.79 238.42,-103.79"/>
<polygon fill="black" stroke="black" points="234.92,-103.79 238.42,-113.79 241.92,-103.79 234.92,-103.79"/>
</g>
<!-- GraphQLModule -->
<g id="node5" class="node">
<title>GraphQLModule</title>
<polygon fill="#8dd3c7" stroke="black" points="137.7,-84.8 134.7,-88.8 113.7,-88.8 110.7,-84.8 24.3,-84.8 24.3,-48.8 137.7,-48.8 137.7,-84.8"/>
<text text-anchor="middle" x="81" y="-62.6" font-family="Times,serif" font-size="14.00">GraphQLModule</text>
</g>
<!-- GraphQLModule&#45;&gt;AppModule -->
<g id="edge4" class="edge">
<title>GraphQLModule&#45;&gt;AppModule</title>
<path fill="none" stroke="black" d="M81,-84.91C81,-104.14 81,-131.8 81,-131.8 81,-131.8 216.03,-131.8 216.03,-131.8"/>
<polygon fill="black" stroke="black" points="216.03,-135.3 226.03,-131.8 216.03,-128.3 216.03,-135.3"/>
</g>
</g>
</svg>
