<?xml version="1.0" encoding="UTF-8" standalone="no"?>
<!DOCTYPE svg PUBLIC "-//W3C//DTD SVG 1.1//EN"
 "http://www.w3.org/Graphics/SVG/1.1/DTD/svg11.dtd">
<!-- Generated by graphviz version 3.0.0 (20220226.1711)
 -->
<!-- Title: dependencies Pages: 1 -->
<svg width="278pt" height="247pt"
 viewBox="0.00 0.00 278.00 246.80" xmlns="http://www.w3.org/2000/svg" xmlns:xlink="http://www.w3.org/1999/xlink">
<g id="graph0" class="graph" transform="scale(1 1) rotate(0) translate(4 242.8)">
<title>dependencies</title>
<polygon fill="white" stroke="transparent" points="-4,4 -4,-242.8 274,-242.8 274,4 -4,4"/>
<text text-anchor="middle" x="135" y="-8.2" font-family="sans-serif" font-size="14.00">dependencies</text>
<g id="clust1" class="cluster">
<title>cluster_SafeResourceDropdownModule</title>
<polygon fill="none" stroke="black" stroke-dasharray="1,5" points="8,-32.8 8,-230.8 262,-230.8 262,-32.8 8,-32.8"/>
</g>
<g id="clust5" class="cluster">
<title>cluster_SafeResourceDropdownModule_exports</title>
<polygon fill="none" stroke="black" points="16,-170.8 16,-222.8 254,-222.8 254,-170.8 16,-170.8"/>
</g>
<g id="clust2" class="cluster">
<title>cluster_SafeResourceDropdownModule_declarations</title>
<polygon fill="none" stroke="black" points="18,-40.8 18,-92.8 252,-92.8 252,-40.8 18,-40.8"/>
</g>
<!-- SafeResourceDropdownComponent -->
<g id="node1" class="node">
<title>SafeResourceDropdownComponent</title>
<polygon fill="#ffffb3" stroke="black" points="244.18,-84.8 25.82,-84.8 25.82,-48.8 244.18,-48.8 244.18,-84.8"/>
<text text-anchor="middle" x="135" y="-62.6" font-family="Times,serif" font-size="14.00">SafeResourceDropdownComponent</text>
</g>
<!-- SafeResourceDropdownModule -->
<g id="node2" class="node">
<title>SafeResourceDropdownModule</title>
<polygon fill="#8dd3c7" stroke="black" points="233.4,-149.8 230.4,-153.8 209.4,-153.8 206.4,-149.8 36.6,-149.8 36.6,-113.8 233.4,-113.8 233.4,-149.8"/>
<text text-anchor="middle" x="135" y="-127.6" font-family="Times,serif" font-size="14.00">SafeResourceDropdownModule</text>
</g>
<!-- SafeResourceDropdownComponent&#45;&gt;SafeResourceDropdownModule -->
<g id="edge1" class="edge">
<title>SafeResourceDropdownComponent&#45;&gt;SafeResourceDropdownModule</title>
<path fill="none" stroke="black" d="M135,-84.91C135,-84.91 135,-103.79 135,-103.79"/>
<polygon fill="black" stroke="black" points="131.5,-103.79 135,-113.79 138.5,-103.79 131.5,-103.79"/>
</g>
<!-- SafeResourceDropdownComponent  -->
<g id="node3" class="node">
<title>SafeResourceDropdownComponent </title>
<polygon fill="#fb8072" stroke="black" points="245.68,-214.8 24.32,-214.8 24.32,-178.8 245.68,-178.8 245.68,-214.8"/>
<text text-anchor="middle" x="135" y="-192.6" font-family="Times,serif" font-size="14.00">SafeResourceDropdownComponent </text>
</g>
<!-- SafeResourceDropdownModule&#45;&gt;SafeResourceDropdownComponent  -->
<g id="edge2" class="edge">
<title>SafeResourceDropdownModule&#45;&gt;SafeResourceDropdownComponent </title>
<path fill="none" stroke="black" stroke-dasharray="5,2" d="M135,-149.91C135,-149.91 135,-168.79 135,-168.79"/>
<polygon fill="black" stroke="black" points="131.5,-168.79 135,-178.79 138.5,-168.79 131.5,-168.79"/>
</g>
</g>
</svg>
