<?xml version="1.0" encoding="UTF-8" standalone="no"?>
<!DOCTYPE svg PUBLIC "-//W3C//DTD SVG 1.1//EN"
 "http://www.w3.org/Graphics/SVG/1.1/DTD/svg11.dtd">
<!-- Generated by graphviz version 3.0.0 (20220226.1711)
 -->
<!-- Title: dependencies Pages: 1 -->
<svg width="846pt" height="358pt"
 viewBox="0.00 0.00 846.00 358.39" xmlns="http://www.w3.org/2000/svg" xmlns:xlink="http://www.w3.org/1999/xlink">
<g id="graph0" class="graph" transform="scale(1 1) rotate(0) translate(4 354.39)">
<title>dependencies</title>
<polygon fill="white" stroke="transparent" points="-4,4 -4,-354.39 842,-354.39 842,4 -4,4"/>
<text text-anchor="middle" x="419" y="-8.2" font-family="sans-serif" font-size="14.00">dependencies</text>
<g id="clust1" class="cluster">
<title>cluster_SafeResourceDropdownModule</title>
<polygon fill="none" stroke="black" stroke-dasharray="1,5" points="8,-32.8 8,-342.39 830,-342.39 830,-32.8 8,-32.8"/>
</g>
<g id="clust5" class="cluster">
<title>cluster_SafeResourceDropdownModule_exports</title>
<polygon fill="none" stroke="black" points="300,-282.39 300,-334.39 538,-334.39 538,-282.39 300,-282.39"/>
</g>
<g id="clust3" class="cluster">
<title>cluster_SafeResourceDropdownModule_SafeResourceDropdownComponent_providers</title>
<polygon fill="none" stroke="black" points="16,-40.8 16,-204.39 822,-204.39 822,-40.8 16,-40.8"/>
</g>
<!-- SafeResourceDropdownComponent -->
<g id="node1" class="node">
<title>SafeResourceDropdownComponent</title>
<polygon fill="#ffffb3" stroke="black" points="528.18,-196.39 309.82,-196.39 309.82,-160.39 528.18,-160.39 528.18,-196.39"/>
<text text-anchor="middle" x="419" y="-174.19" font-family="Times,serif" font-size="14.00">SafeResourceDropdownComponent</text>
</g>
<!-- SafeResourceDropdownModule -->
<g id="node2" class="node">
<title>SafeResourceDropdownModule</title>
<polygon fill="#8dd3c7" stroke="black" points="517.4,-261.39 514.4,-265.39 493.4,-265.39 490.4,-261.39 320.6,-261.39 320.6,-225.39 517.4,-225.39 517.4,-261.39"/>
<text text-anchor="middle" x="419" y="-239.19" font-family="Times,serif" font-size="14.00">SafeResourceDropdownModule</text>
</g>
<!-- SafeResourceDropdownComponent&#45;&gt;SafeResourceDropdownModule -->
<g id="edge1" class="edge">
<title>SafeResourceDropdownComponent&#45;&gt;SafeResourceDropdownModule</title>
<path fill="none" stroke="black" d="M419,-196.5C419,-196.5 419,-215.38 419,-215.38"/>
<polygon fill="black" stroke="black" points="415.5,-215.38 419,-225.38 422.5,-215.38 415.5,-215.38"/>
</g>
<!-- SafeResourceDropdownComponent  -->
<g id="node4" class="node">
<title>SafeResourceDropdownComponent </title>
<polygon fill="#fb8072" stroke="black" points="529.68,-326.39 308.32,-326.39 308.32,-290.39 529.68,-290.39 529.68,-326.39"/>
<text text-anchor="middle" x="419" y="-304.19" font-family="Times,serif" font-size="14.00">SafeResourceDropdownComponent </text>
</g>
<!-- SafeResourceDropdownModule&#45;&gt;SafeResourceDropdownComponent  -->
<g id="edge3" class="edge">
<title>SafeResourceDropdownModule&#45;&gt;SafeResourceDropdownComponent </title>
<path fill="none" stroke="black" stroke-dasharray="5,2" d="M419,-261.5C419,-261.5 419,-280.38 419,-280.38"/>
<polygon fill="black" stroke="black" points="415.5,-280.38 419,-290.38 422.5,-280.38 415.5,-280.38"/>
</g>
<!-- {
 &#160;&#160;&#160;provide: MAT_SELECT_SCROLL_STRATEGY, useFactory: scrollFactory, deps: [Overlay],
} -->
<g id="node3" class="node">
<title>{
 &#160;&#160;&#160;provide: MAT_SELECT_SCROLL_STRATEGY, useFactory: scrollFactory, deps: [Overlay],
}</title>
<ellipse fill="#fdb462" stroke="black" cx="419" cy="-90.1" rx="394.68" ry="41.09"/>
<text text-anchor="middle" x="419" y="-102.7" font-family="Times,serif" font-size="14.00">{</text>
<text text-anchor="middle" x="419" y="-85.9" font-family="Times,serif" font-size="14.00"> &#160;&#160;&#160;provide: MAT_SELECT_SCROLL_STRATEGY, useFactory: scrollFactory, deps: [Overlay],</text>
<text text-anchor="middle" x="419" y="-69.1" font-family="Times,serif" font-size="14.00">}</text>
</g>
<!-- {
 &#160;&#160;&#160;provide: MAT_SELECT_SCROLL_STRATEGY, useFactory: scrollFactory, deps: [Overlay],
}&#45;&gt;SafeResourceDropdownComponent -->
<g id="edge2" class="edge">
<title>{
 &#160;&#160;&#160;provide: MAT_SELECT_SCROLL_STRATEGY, useFactory: scrollFactory, deps: [Overlay],
}&#45;&gt;SafeResourceDropdownComponent</title>
<path fill="none" stroke="black" d="M419,-131.4C419,-131.4 419,-150.06 419,-150.06"/>
<polygon fill="black" stroke="black" points="415.5,-150.06 419,-160.06 422.5,-150.06 415.5,-150.06"/>
</g>
</g>
</svg>
