<?xml version="1.0" encoding="UTF-8" standalone="no"?>
<!DOCTYPE svg PUBLIC "-//W3C//DTD SVG 1.1//EN"
 "http://www.w3.org/Graphics/SVG/1.1/DTD/svg11.dtd">
<!-- Generated by graphviz version 3.0.0 (20220226.1711)
 -->
<!-- Title: dependencies Pages: 1 -->
<svg width="810pt" height="247pt"
 viewBox="0.00 0.00 810.00 246.80" xmlns="http://www.w3.org/2000/svg" xmlns:xlink="http://www.w3.org/1999/xlink">
<g id="graph0" class="graph" transform="scale(1 1) rotate(0) translate(4 242.8)">
<title>dependencies</title>
<polygon fill="white" stroke="transparent" points="-4,4 -4,-242.8 806,-242.8 806,4 -4,4"/>
<text text-anchor="middle" x="401" y="-8.2" font-family="sans-serif" font-size="14.00">dependencies</text>
<g id="clust1" class="cluster">
<title>cluster_SafeApplicationDistributionListsModule</title>
<polygon fill="none" stroke="black" stroke-dasharray="1,5" points="8,-32.8 8,-230.8 794,-230.8 794,-32.8 8,-32.8"/>
</g>
<g id="clust2" class="cluster">
<title>cluster_SafeApplicationDistributionListsModule_declarations</title>
<polygon fill="none" stroke="black" points="502,-40.8 502,-92.8 786,-92.8 786,-40.8 502,-40.8"/>
</g>
<g id="clust5" class="cluster">
<title>cluster_SafeApplicationDistributionListsModule_exports</title>
<polygon fill="none" stroke="black" points="266,-170.8 266,-222.8 552,-222.8 552,-170.8 266,-170.8"/>
</g>
<g id="clust4" class="cluster">
<title>cluster_SafeApplicationDistributionListsModule_imports</title>
<polygon fill="none" stroke="black" points="16,-40.8 16,-92.8 494,-92.8 494,-40.8 16,-40.8"/>
</g>
<!-- SafeApplicationDistributionListsComponent -->
<g id="node1" class="node">
<title>SafeApplicationDistributionListsComponent</title>
<polygon fill="#ffffb3" stroke="black" points="777.7,-84.8 510.3,-84.8 510.3,-48.8 777.7,-48.8 777.7,-84.8"/>
<text text-anchor="middle" x="644" y="-62.6" font-family="Times,serif" font-size="14.00">SafeApplicationDistributionListsComponent</text>
</g>
<!-- SafeApplicationDistributionListsModule -->
<g id="node2" class="node">
<title>SafeApplicationDistributionListsModule</title>
<polygon fill="#8dd3c7" stroke="black" points="531.92,-149.8 528.92,-153.8 507.92,-153.8 504.92,-149.8 286.08,-149.8 286.08,-113.8 531.92,-113.8 531.92,-149.8"/>
<text text-anchor="middle" x="409" y="-127.6" font-family="Times,serif" font-size="14.00">SafeApplicationDistributionListsModule</text>
</g>
<!-- SafeApplicationDistributionListsComponent&#45;&gt;SafeApplicationDistributionListsModule -->
<g id="edge1" class="edge">
<title>SafeApplicationDistributionListsComponent&#45;&gt;SafeApplicationDistributionListsModule</title>
<path fill="none" stroke="black" d="M521.06,-84.91C521.06,-84.91 521.06,-103.79 521.06,-103.79"/>
<polygon fill="black" stroke="black" points="517.56,-103.79 521.06,-113.79 524.56,-103.79 517.56,-103.79"/>
</g>
<!-- SafeApplicationDistributionListsComponent  -->
<g id="node5" class="node">
<title>SafeApplicationDistributionListsComponent </title>
<polygon fill="#fb8072" stroke="black" points="544.2,-214.8 273.8,-214.8 273.8,-178.8 544.2,-178.8 544.2,-214.8"/>
<text text-anchor="middle" x="409" y="-192.6" font-family="Times,serif" font-size="14.00">SafeApplicationDistributionListsComponent </text>
</g>
<!-- SafeApplicationDistributionListsModule&#45;&gt;SafeApplicationDistributionListsComponent  -->
<g id="edge4" class="edge">
<title>SafeApplicationDistributionListsModule&#45;&gt;SafeApplicationDistributionListsComponent </title>
<path fill="none" stroke="black" stroke-dasharray="5,2" d="M409,-149.91C409,-149.91 409,-168.79 409,-168.79"/>
<polygon fill="black" stroke="black" points="405.5,-168.79 409,-178.79 412.5,-168.79 405.5,-168.79"/>
</g>
<!-- DistributionListsModule -->
<g id="node3" class="node">
<title>DistributionListsModule</title>
<polygon fill="#8dd3c7" stroke="black" points="486.45,-84.8 483.45,-88.8 462.45,-88.8 459.45,-84.8 331.55,-84.8 331.55,-48.8 486.45,-48.8 486.45,-84.8"/>
<text text-anchor="middle" x="409" y="-62.6" font-family="Times,serif" font-size="14.00">DistributionListsModule</text>
</g>
<!-- DistributionListsModule&#45;&gt;SafeApplicationDistributionListsModule -->
<g id="edge2" class="edge">
<title>DistributionListsModule&#45;&gt;SafeApplicationDistributionListsModule</title>
<path fill="none" stroke="black" d="M409,-84.91C409,-84.91 409,-103.79 409,-103.79"/>
<polygon fill="black" stroke="black" points="405.5,-103.79 409,-113.79 412.5,-103.79 405.5,-103.79"/>
</g>
<!-- SafeApplicationDistributionListsRoutingModule -->
<g id="node4" class="node">
<title>SafeApplicationDistributionListsRoutingModule</title>
<polygon fill="#8dd3c7" stroke="black" points="314.04,-84.8 311.04,-88.8 290.04,-88.8 287.04,-84.8 23.96,-84.8 23.96,-48.8 314.04,-48.8 314.04,-84.8"/>
<text text-anchor="middle" x="169" y="-62.6" font-family="Times,serif" font-size="14.00">SafeApplicationDistributionListsRoutingModule</text>
</g>
<!-- SafeApplicationDistributionListsRoutingModule&#45;&gt;SafeApplicationDistributionListsModule -->
<g id="edge3" class="edge">
<title>SafeApplicationDistributionListsRoutingModule&#45;&gt;SafeApplicationDistributionListsModule</title>
<path fill="none" stroke="black" d="M300.28,-84.91C300.28,-84.91 300.28,-103.79 300.28,-103.79"/>
<polygon fill="black" stroke="black" points="296.78,-103.79 300.28,-113.79 303.78,-103.79 296.78,-103.79"/>
</g>
</g>
</svg>
