<?xml version="1.0" encoding="UTF-8" standalone="no"?>
<!DOCTYPE svg PUBLIC "-//W3C//DTD SVG 1.1//EN"
 "http://www.w3.org/Graphics/SVG/1.1/DTD/svg11.dtd">
<!-- Generated by graphviz version 3.0.0 (20220226.1711)
 -->
<!-- Title: dependencies Pages: 1 -->
<svg width="477pt" height="247pt"
 viewBox="0.00 0.00 477.00 246.80" xmlns="http://www.w3.org/2000/svg" xmlns:xlink="http://www.w3.org/1999/xlink">
<g id="graph0" class="graph" transform="scale(1 1) rotate(0) translate(4 242.8)">
<title>dependencies</title>
<polygon fill="white" stroke="transparent" points="-4,4 -4,-242.8 473,-242.8 473,4 -4,4"/>
<text text-anchor="middle" x="234.5" y="-8.2" font-family="sans-serif" font-size="14.00">dependencies</text>
<g id="clust1" class="cluster">
<title>cluster_SafeModalModule</title>
<polygon fill="none" stroke="black" stroke-dasharray="1,5" points="8,-32.8 8,-230.8 461,-230.8 461,-32.8 8,-32.8"/>
</g>
<g id="clust4" class="cluster">
<title>cluster_SafeModalModule_imports</title>
<polygon fill="none" stroke="black" points="182,-40.8 182,-92.8 448,-92.8 448,-40.8 182,-40.8"/>
</g>
<g id="clust5" class="cluster">
<title>cluster_SafeModalModule_exports</title>
<polygon fill="none" stroke="black" points="16,-170.8 16,-222.8 453,-222.8 453,-170.8 16,-170.8"/>
</g>
<g id="clust2" class="cluster">
<title>cluster_SafeModalModule_declarations</title>
<polygon fill="none" stroke="black" points="16,-40.8 16,-92.8 174,-92.8 174,-40.8 16,-40.8"/>
</g>
<!-- SafeModalComponent -->
<g id="node1" class="node">
<title>SafeModalComponent</title>
<polygon fill="#ffffb3" stroke="black" points="166.26,-84.8 23.74,-84.8 23.74,-48.8 166.26,-48.8 166.26,-84.8"/>
<text text-anchor="middle" x="95" y="-62.6" font-family="Times,serif" font-size="14.00">SafeModalComponent</text>
</g>
<!-- SafeModalModule -->
<g id="node2" class="node">
<title>SafeModalModule</title>
<polygon fill="#8dd3c7" stroke="black" points="305.48,-149.8 302.48,-153.8 281.48,-153.8 278.48,-149.8 184.52,-149.8 184.52,-113.8 305.48,-113.8 305.48,-149.8"/>
<text text-anchor="middle" x="245" y="-127.6" font-family="Times,serif" font-size="14.00">SafeModalModule</text>
</g>
<!-- SafeModalComponent&#45;&gt;SafeModalModule -->
<g id="edge1" class="edge">
<title>SafeModalComponent&#45;&gt;SafeModalModule</title>
<path fill="none" stroke="black" d="M71.37,-84.82C71.37,-102.17 71.37,-125.8 71.37,-125.8 71.37,-125.8 174.27,-125.8 174.27,-125.8"/>
<polygon fill="black" stroke="black" points="174.27,-129.3 184.27,-125.8 174.27,-122.3 174.27,-129.3"/>
</g>
<!-- SafeButtonModule  -->
<g id="node5" class="node">
<title>SafeButtonModule </title>
<polygon fill="#fb8072" stroke="black" points="445.04,-214.8 318.96,-214.8 318.96,-178.8 445.04,-178.8 445.04,-214.8"/>
<text text-anchor="middle" x="382" y="-192.6" font-family="Times,serif" font-size="14.00">SafeButtonModule </text>
</g>
<!-- SafeModalModule&#45;&gt;SafeButtonModule  -->
<g id="edge4" class="edge">
<title>SafeModalModule&#45;&gt;SafeButtonModule </title>
<path fill="none" stroke="black" stroke-dasharray="5,2" d="M305.55,-137.8C333,-137.8 359.41,-137.8 359.41,-137.8 359.41,-137.8 359.41,-168.78 359.41,-168.78"/>
<polygon fill="black" stroke="black" points="355.91,-168.78 359.41,-178.78 362.91,-168.78 355.91,-168.78"/>
</g>
<!-- SafeIconModule  -->
<g id="node6" class="node">
<title>SafeIconModule </title>
<polygon fill="#fb8072" stroke="black" points="301.3,-214.8 188.7,-214.8 188.7,-178.8 301.3,-178.8 301.3,-214.8"/>
<text text-anchor="middle" x="245" y="-192.6" font-family="Times,serif" font-size="14.00">SafeIconModule </text>
</g>
<!-- SafeModalModule&#45;&gt;SafeIconModule  -->
<g id="edge5" class="edge">
<title>SafeModalModule&#45;&gt;SafeIconModule </title>
<path fill="none" stroke="black" stroke-dasharray="5,2" d="M245,-149.91C245,-149.91 245,-168.79 245,-168.79"/>
<polygon fill="black" stroke="black" points="241.5,-168.79 245,-178.79 248.5,-168.79 241.5,-168.79"/>
</g>
<!-- SafeModalComponent  -->
<g id="node7" class="node">
<title>SafeModalComponent </title>
<polygon fill="#fb8072" stroke="black" points="170.26,-214.8 23.74,-214.8 23.74,-178.8 170.26,-178.8 170.26,-214.8"/>
<text text-anchor="middle" x="97" y="-192.6" font-family="Times,serif" font-size="14.00">SafeModalComponent </text>
</g>
<!-- SafeModalModule&#45;&gt;SafeModalComponent  -->
<g id="edge6" class="edge">
<title>SafeModalModule&#45;&gt;SafeModalComponent </title>
<path fill="none" stroke="black" stroke-dasharray="5,2" d="M184.15,-137.8C151.9,-137.8 118.88,-137.8 118.88,-137.8 118.88,-137.8 118.88,-168.78 118.88,-168.78"/>
<polygon fill="black" stroke="black" points="115.38,-168.78 118.88,-178.78 122.38,-168.78 115.38,-168.78"/>
</g>
<!-- SafeButtonModule -->
<g id="node3" class="node">
<title>SafeButtonModule</title>
<polygon fill="#8dd3c7" stroke="black" points="440.05,-84.8 437.05,-88.8 416.05,-88.8 413.05,-84.8 317.95,-84.8 317.95,-48.8 440.05,-48.8 440.05,-84.8"/>
<text text-anchor="middle" x="379" y="-62.6" font-family="Times,serif" font-size="14.00">SafeButtonModule</text>
</g>
<!-- SafeButtonModule&#45;&gt;SafeModalModule -->
<g id="edge2" class="edge">
<title>SafeButtonModule&#45;&gt;SafeModalModule</title>
<path fill="none" stroke="black" d="M399.84,-84.82C399.84,-102.17 399.84,-125.8 399.84,-125.8 399.84,-125.8 315.75,-125.8 315.75,-125.8"/>
<polygon fill="black" stroke="black" points="315.75,-122.3 305.75,-125.8 315.75,-129.3 315.75,-122.3"/>
</g>
<!-- SafeIconModule -->
<g id="node4" class="node">
<title>SafeIconModule</title>
<polygon fill="#8dd3c7" stroke="black" points="299.8,-84.8 296.8,-88.8 275.8,-88.8 272.8,-84.8 190.2,-84.8 190.2,-48.8 299.8,-48.8 299.8,-84.8"/>
<text text-anchor="middle" x="245" y="-62.6" font-family="Times,serif" font-size="14.00">SafeIconModule</text>
</g>
<!-- SafeIconModule&#45;&gt;SafeModalModule -->
<g id="edge3" class="edge">
<title>SafeIconModule&#45;&gt;SafeModalModule</title>
<path fill="none" stroke="black" d="M245,-84.91C245,-84.91 245,-103.79 245,-103.79"/>
<polygon fill="black" stroke="black" points="241.5,-103.79 245,-113.79 248.5,-103.79 241.5,-103.79"/>
</g>
</g>
</svg>
