<?xml version="1.0" encoding="UTF-8" standalone="no"?>
<!DOCTYPE svg PUBLIC "-//W3C//DTD SVG 1.1//EN"
 "http://www.w3.org/Graphics/SVG/1.1/DTD/svg11.dtd">
<!-- Generated by graphviz version 3.0.0 (20220226.1711)
 -->
<!-- Title: dependencies Pages: 1 -->
<svg width="428pt" height="247pt"
 viewBox="0.00 0.00 428.00 246.80" xmlns="http://www.w3.org/2000/svg" xmlns:xlink="http://www.w3.org/1999/xlink">
<g id="graph0" class="graph" transform="scale(1 1) rotate(0) translate(4 242.8)">
<title>dependencies</title>
<polygon fill="white" stroke="transparent" points="-4,4 -4,-242.8 424,-242.8 424,4 -4,4"/>
<text text-anchor="middle" x="210" y="-8.2" font-family="sans-serif" font-size="14.00">dependencies</text>
<g id="clust1" class="cluster">
<title>cluster_UpdateRecordModule</title>
<polygon fill="none" stroke="black" stroke-dasharray="1,5" points="8,-32.8 8,-230.8 412,-230.8 412,-32.8 8,-32.8"/>
</g>
<g id="clust2" class="cluster">
<title>cluster_UpdateRecordModule_declarations</title>
<polygon fill="none" stroke="black" points="226,-40.8 226,-92.8 404,-92.8 404,-40.8 226,-40.8"/>
</g>
<g id="clust5" class="cluster">
<title>cluster_UpdateRecordModule_exports</title>
<polygon fill="none" stroke="black" points="124,-170.8 124,-222.8 306,-222.8 306,-170.8 124,-170.8"/>
</g>
<g id="clust4" class="cluster">
<title>cluster_UpdateRecordModule_imports</title>
<polygon fill="none" stroke="black" points="16,-40.8 16,-92.8 218,-92.8 218,-40.8 16,-40.8"/>
</g>
<!-- UpdateRecordComponent -->
<g id="node1" class="node">
<title>UpdateRecordComponent</title>
<polygon fill="#ffffb3" stroke="black" points="396.19,-84.8 233.81,-84.8 233.81,-48.8 396.19,-48.8 396.19,-84.8"/>
<text text-anchor="middle" x="315" y="-62.6" font-family="Times,serif" font-size="14.00">UpdateRecordComponent</text>
</g>
<!-- UpdateRecordModule -->
<g id="node2" class="node">
<title>UpdateRecordModule</title>
<polygon fill="#8dd3c7" stroke="black" points="285.41,-149.8 282.41,-153.8 261.41,-153.8 258.41,-149.8 144.59,-149.8 144.59,-113.8 285.41,-113.8 285.41,-149.8"/>
<text text-anchor="middle" x="215" y="-127.6" font-family="Times,serif" font-size="14.00">UpdateRecordModule</text>
</g>
<!-- UpdateRecordComponent&#45;&gt;UpdateRecordModule -->
<g id="edge1" class="edge">
<title>UpdateRecordComponent&#45;&gt;UpdateRecordModule</title>
<path fill="none" stroke="black" d="M259.56,-84.91C259.56,-84.91 259.56,-103.79 259.56,-103.79"/>
<polygon fill="black" stroke="black" points="256.06,-103.79 259.56,-113.79 263.06,-103.79 256.06,-103.79"/>
</g>
<!-- UpdateRecordComponent  -->
<g id="node4" class="node">
<title>UpdateRecordComponent </title>
<polygon fill="#fb8072" stroke="black" points="297.69,-214.8 132.31,-214.8 132.31,-178.8 297.69,-178.8 297.69,-214.8"/>
<text text-anchor="middle" x="215" y="-192.6" font-family="Times,serif" font-size="14.00">UpdateRecordComponent </text>
</g>
<!-- UpdateRecordModule&#45;&gt;UpdateRecordComponent  -->
<g id="edge3" class="edge">
<title>UpdateRecordModule&#45;&gt;UpdateRecordComponent </title>
<path fill="none" stroke="black" stroke-dasharray="5,2" d="M215,-149.91C215,-149.91 215,-168.79 215,-168.79"/>
<polygon fill="black" stroke="black" points="211.5,-168.79 215,-178.79 218.5,-168.79 211.5,-168.79"/>
</g>
<!-- UpdateRecordRoutingModule -->
<g id="node3" class="node">
<title>UpdateRecordRoutingModule</title>
<polygon fill="#8dd3c7" stroke="black" points="209.53,-84.8 206.53,-88.8 185.53,-88.8 182.53,-84.8 24.47,-84.8 24.47,-48.8 209.53,-48.8 209.53,-84.8"/>
<text text-anchor="middle" x="117" y="-62.6" font-family="Times,serif" font-size="14.00">UpdateRecordRoutingModule</text>
</g>
<!-- UpdateRecordRoutingModule&#45;&gt;UpdateRecordModule -->
<g id="edge2" class="edge">
<title>UpdateRecordRoutingModule&#45;&gt;UpdateRecordModule</title>
<path fill="none" stroke="black" d="M177.28,-84.91C177.28,-84.91 177.28,-103.79 177.28,-103.79"/>
<polygon fill="black" stroke="black" points="173.78,-103.79 177.28,-113.79 180.78,-103.79 173.78,-103.79"/>
</g>
</g>
</svg>
