<?xml version="1.0" encoding="UTF-8" standalone="no"?>
<!DOCTYPE svg PUBLIC "-//W3C//DTD SVG 1.1//EN"
 "http://www.w3.org/Graphics/SVG/1.1/DTD/svg11.dtd">
<!-- Generated by graphviz version 3.0.0 (20220226.1711)
 -->
<!-- Title: dependencies Pages: 1 -->
<svg width="847pt" height="247pt"
 viewBox="0.00 0.00 847.00 246.80" xmlns="http://www.w3.org/2000/svg" xmlns:xlink="http://www.w3.org/1999/xlink">
<g id="graph0" class="graph" transform="scale(1 1) rotate(0) translate(4 242.8)">
<title>dependencies</title>
<polygon fill="white" stroke="transparent" points="-4,4 -4,-242.8 843,-242.8 843,4 -4,4"/>
<text text-anchor="middle" x="419.5" y="-8.2" font-family="sans-serif" font-size="14.00">dependencies</text>
<g id="clust1" class="cluster">
<title>cluster_RoleAutoAssignmentModule</title>
<polygon fill="none" stroke="black" stroke-dasharray="1,5" points="8,-32.8 8,-230.8 831,-230.8 831,-32.8 8,-32.8"/>
</g>
<g id="clust5" class="cluster">
<title>cluster_RoleAutoAssignmentModule_exports</title>
<polygon fill="none" stroke="black" points="303,-170.8 303,-222.8 525,-222.8 525,-170.8 303,-170.8"/>
</g>
<g id="clust4" class="cluster">
<title>cluster_RoleAutoAssignmentModule_imports</title>
<polygon fill="none" stroke="black" points="242,-40.8 242,-92.8 823,-92.8 823,-40.8 242,-40.8"/>
</g>
<g id="clust2" class="cluster">
<title>cluster_RoleAutoAssignmentModule_declarations</title>
<polygon fill="none" stroke="black" points="16,-40.8 16,-92.8 234,-92.8 234,-40.8 16,-40.8"/>
</g>
<!-- RoleAutoAssignmentComponent -->
<g id="node1" class="node">
<title>RoleAutoAssignmentComponent</title>
<polygon fill="#ffffb3" stroke="black" points="226.16,-84.8 23.84,-84.8 23.84,-48.8 226.16,-48.8 226.16,-84.8"/>
<text text-anchor="middle" x="125" y="-62.6" font-family="Times,serif" font-size="14.00">RoleAutoAssignmentComponent</text>
</g>
<!-- RoleAutoAssignmentModule -->
<g id="node2" class="node">
<title>RoleAutoAssignmentModule</title>
<polygon fill="#8dd3c7" stroke="black" points="504.38,-149.8 501.38,-153.8 480.38,-153.8 477.38,-149.8 323.62,-149.8 323.62,-113.8 504.38,-113.8 504.38,-149.8"/>
<text text-anchor="middle" x="414" y="-127.6" font-family="Times,serif" font-size="14.00">RoleAutoAssignmentModule</text>
</g>
<!-- RoleAutoAssignmentComponent&#45;&gt;RoleAutoAssignmentModule -->
<g id="edge1" class="edge">
<title>RoleAutoAssignmentComponent&#45;&gt;RoleAutoAssignmentModule</title>
<path fill="none" stroke="black" d="M125,-84.91C125,-104.14 125,-131.8 125,-131.8 125,-131.8 313.35,-131.8 313.35,-131.8"/>
<polygon fill="black" stroke="black" points="313.35,-135.3 323.35,-131.8 313.35,-128.3 313.35,-135.3"/>
</g>
<!-- RoleAutoAssignmentComponent  -->
<g id="node6" class="node">
<title>RoleAutoAssignmentComponent </title>
<polygon fill="#fb8072" stroke="black" points="517.16,-214.8 310.84,-214.8 310.84,-178.8 517.16,-178.8 517.16,-214.8"/>
<text text-anchor="middle" x="414" y="-192.6" font-family="Times,serif" font-size="14.00">RoleAutoAssignmentComponent </text>
</g>
<!-- RoleAutoAssignmentModule&#45;&gt;RoleAutoAssignmentComponent  -->
<g id="edge5" class="edge">
<title>RoleAutoAssignmentModule&#45;&gt;RoleAutoAssignmentComponent </title>
<path fill="none" stroke="black" stroke-dasharray="5,2" d="M414,-149.91C414,-149.91 414,-168.79 414,-168.79"/>
<polygon fill="black" stroke="black" points="410.5,-168.79 414,-178.79 417.5,-168.79 410.5,-168.79"/>
</g>
<!-- EditRoleAutoAssignmentModalModule -->
<g id="node3" class="node">
<title>EditRoleAutoAssignmentModalModule</title>
<polygon fill="#8dd3c7" stroke="black" points="815.27,-84.8 812.27,-88.8 791.27,-88.8 788.27,-84.8 574.73,-84.8 574.73,-48.8 815.27,-48.8 815.27,-84.8"/>
<text text-anchor="middle" x="695" y="-62.6" font-family="Times,serif" font-size="14.00">EditRoleAutoAssignmentModalModule</text>
</g>
<!-- EditRoleAutoAssignmentModalModule&#45;&gt;RoleAutoAssignmentModule -->
<g id="edge2" class="edge">
<title>EditRoleAutoAssignmentModalModule&#45;&gt;RoleAutoAssignmentModule</title>
<path fill="none" stroke="black" d="M695,-84.91C695,-104.14 695,-131.8 695,-131.8 695,-131.8 514.46,-131.8 514.46,-131.8"/>
<polygon fill="black" stroke="black" points="514.46,-128.3 504.46,-131.8 514.46,-135.3 514.46,-128.3"/>
</g>
<!-- SafeButtonModule -->
<g id="node4" class="node">
<title>SafeButtonModule</title>
<polygon fill="#8dd3c7" stroke="black" points="556.05,-84.8 553.05,-88.8 532.05,-88.8 529.05,-84.8 433.95,-84.8 433.95,-48.8 556.05,-48.8 556.05,-84.8"/>
<text text-anchor="middle" x="495" y="-62.6" font-family="Times,serif" font-size="14.00">SafeButtonModule</text>
</g>
<!-- SafeButtonModule&#45;&gt;RoleAutoAssignmentModule -->
<g id="edge3" class="edge">
<title>SafeButtonModule&#45;&gt;RoleAutoAssignmentModule</title>
<path fill="none" stroke="black" d="M469.08,-84.91C469.08,-84.91 469.08,-103.79 469.08,-103.79"/>
<polygon fill="black" stroke="black" points="465.58,-103.79 469.08,-113.79 472.58,-103.79 465.58,-103.79"/>
</g>
<!-- SafeSkeletonTableModule -->
<g id="node5" class="node">
<title>SafeSkeletonTableModule</title>
<polygon fill="#8dd3c7" stroke="black" points="415.79,-84.8 412.79,-88.8 391.79,-88.8 388.79,-84.8 250.21,-84.8 250.21,-48.8 415.79,-48.8 415.79,-84.8"/>
<text text-anchor="middle" x="333" y="-62.6" font-family="Times,serif" font-size="14.00">SafeSkeletonTableModule</text>
</g>
<!-- SafeSkeletonTableModule&#45;&gt;RoleAutoAssignmentModule -->
<g id="edge4" class="edge">
<title>SafeSkeletonTableModule&#45;&gt;RoleAutoAssignmentModule</title>
<path fill="none" stroke="black" d="M369.6,-84.91C369.6,-84.91 369.6,-103.79 369.6,-103.79"/>
<polygon fill="black" stroke="black" points="366.1,-103.79 369.6,-113.79 373.1,-103.79 366.1,-103.79"/>
</g>
</g>
</svg>
