<?xml version="1.0" encoding="UTF-8" standalone="no"?>
<!DOCTYPE svg PUBLIC "-//W3C//DTD SVG 1.1//EN"
 "http://www.w3.org/Graphics/SVG/1.1/DTD/svg11.dtd">
<!-- Generated by graphviz version 3.0.0 (20220226.1711)
 -->
<!-- Title: dependencies Pages: 1 -->
<svg width="538pt" height="247pt"
 viewBox="0.00 0.00 538.00 246.80" xmlns="http://www.w3.org/2000/svg" xmlns:xlink="http://www.w3.org/1999/xlink">
<g id="graph0" class="graph" transform="scale(1 1) rotate(0) translate(4 242.8)">
<title>dependencies</title>
<polygon fill="white" stroke="transparent" points="-4,4 -4,-242.8 534,-242.8 534,4 -4,4"/>
<text text-anchor="middle" x="265" y="-8.2" font-family="sans-serif" font-size="14.00">dependencies</text>
<g id="clust1" class="cluster">
<title>cluster_SafePreferencesModalModule</title>
<polygon fill="none" stroke="black" stroke-dasharray="1,5" points="8,-32.8 8,-230.8 522,-230.8 522,-32.8 8,-32.8"/>
</g>
<g id="clust2" class="cluster">
<title>cluster_SafePreferencesModalModule_declarations</title>
<polygon fill="none" stroke="black" points="290,-40.8 290,-92.8 514,-92.8 514,-40.8 290,-40.8"/>
</g>
<g id="clust5" class="cluster">
<title>cluster_SafePreferencesModalModule_exports</title>
<polygon fill="none" stroke="black" points="99,-170.8 99,-222.8 327,-222.8 327,-170.8 99,-170.8"/>
</g>
<g id="clust4" class="cluster">
<title>cluster_SafePreferencesModalModule_imports</title>
<polygon fill="none" stroke="black" points="16,-40.8 16,-92.8 282,-92.8 282,-40.8 16,-40.8"/>
</g>
<!-- SafePreferencesModalComponent -->
<g id="node1" class="node">
<title>SafePreferencesModalComponent</title>
<polygon fill="#ffffb3" stroke="black" points="506.05,-84.8 297.95,-84.8 297.95,-48.8 506.05,-48.8 506.05,-84.8"/>
<text text-anchor="middle" x="402" y="-62.6" font-family="Times,serif" font-size="14.00">SafePreferencesModalComponent</text>
</g>
<!-- SafePreferencesModalModule -->
<g id="node2" class="node">
<title>SafePreferencesModalModule</title>
<polygon fill="#8dd3c7" stroke="black" points="306.27,-149.8 303.27,-153.8 282.27,-153.8 279.27,-149.8 119.73,-149.8 119.73,-113.8 306.27,-113.8 306.27,-149.8"/>
<text text-anchor="middle" x="213" y="-127.6" font-family="Times,serif" font-size="14.00">SafePreferencesModalModule</text>
</g>
<!-- SafePreferencesModalComponent&#45;&gt;SafePreferencesModalModule -->
<g id="edge1" class="edge">
<title>SafePreferencesModalComponent&#45;&gt;SafePreferencesModalModule</title>
<path fill="none" stroke="black" d="M302.06,-84.91C302.06,-84.91 302.06,-103.79 302.06,-103.79"/>
<polygon fill="black" stroke="black" points="298.56,-103.79 302.06,-113.79 305.56,-103.79 298.56,-103.79"/>
</g>
<!-- SafePreferencesModalComponent  -->
<g id="node5" class="node">
<title>SafePreferencesModalComponent </title>
<polygon fill="#fb8072" stroke="black" points="318.55,-214.8 107.45,-214.8 107.45,-178.8 318.55,-178.8 318.55,-214.8"/>
<text text-anchor="middle" x="213" y="-192.6" font-family="Times,serif" font-size="14.00">SafePreferencesModalComponent </text>
</g>
<!-- SafePreferencesModalModule&#45;&gt;SafePreferencesModalComponent  -->
<g id="edge4" class="edge">
<title>SafePreferencesModalModule&#45;&gt;SafePreferencesModalComponent </title>
<path fill="none" stroke="black" stroke-dasharray="5,2" d="M213,-149.91C213,-149.91 213,-168.79 213,-168.79"/>
<polygon fill="black" stroke="black" points="209.5,-168.79 213,-178.79 216.5,-168.79 209.5,-168.79"/>
</g>
<!-- SafeButtonModule -->
<g id="node3" class="node">
<title>SafeButtonModule</title>
<polygon fill="#8dd3c7" stroke="black" points="274.05,-84.8 271.05,-88.8 250.05,-88.8 247.05,-84.8 151.95,-84.8 151.95,-48.8 274.05,-48.8 274.05,-84.8"/>
<text text-anchor="middle" x="213" y="-62.6" font-family="Times,serif" font-size="14.00">SafeButtonModule</text>
</g>
<!-- SafeButtonModule&#45;&gt;SafePreferencesModalModule -->
<g id="edge2" class="edge">
<title>SafeButtonModule&#45;&gt;SafePreferencesModalModule</title>
<path fill="none" stroke="black" d="M213,-84.91C213,-84.91 213,-103.79 213,-103.79"/>
<polygon fill="black" stroke="black" points="209.5,-103.79 213,-113.79 216.5,-103.79 209.5,-103.79"/>
</g>
<!-- SafeIconModule -->
<g id="node4" class="node">
<title>SafeIconModule</title>
<polygon fill="#8dd3c7" stroke="black" points="133.8,-84.8 130.8,-88.8 109.8,-88.8 106.8,-84.8 24.2,-84.8 24.2,-48.8 133.8,-48.8 133.8,-84.8"/>
<text text-anchor="middle" x="79" y="-62.6" font-family="Times,serif" font-size="14.00">SafeIconModule</text>
</g>
<!-- SafeIconModule&#45;&gt;SafePreferencesModalModule -->
<g id="edge3" class="edge">
<title>SafeIconModule&#45;&gt;SafePreferencesModalModule</title>
<path fill="none" stroke="black" d="M126.76,-84.91C126.76,-84.91 126.76,-103.79 126.76,-103.79"/>
<polygon fill="black" stroke="black" points="123.26,-103.79 126.76,-113.79 130.26,-103.79 123.26,-103.79"/>
</g>
</g>
</svg>
