<?xml version="1.0" encoding="UTF-8" standalone="no"?>
<!DOCTYPE svg PUBLIC "-//W3C//DTD SVG 1.1//EN"
 "http://www.w3.org/Graphics/SVG/1.1/DTD/svg11.dtd">
<!-- Generated by graphviz version 3.0.0 (20220226.1711)
 -->
<!-- Title: dependencies Pages: 1 -->
<svg width="559pt" height="247pt"
 viewBox="0.00 0.00 559.00 246.80" xmlns="http://www.w3.org/2000/svg" xmlns:xlink="http://www.w3.org/1999/xlink">
<g id="graph0" class="graph" transform="scale(1 1) rotate(0) translate(4 242.8)">
<title>dependencies</title>
<polygon fill="white" stroke="transparent" points="-4,4 -4,-242.8 555,-242.8 555,4 -4,4"/>
<text text-anchor="middle" x="275.5" y="-8.2" font-family="sans-serif" font-size="14.00">dependencies</text>
<g id="clust1" class="cluster">
<title>cluster_AppModule</title>
<polygon fill="none" stroke="black" stroke-dasharray="1,5" points="8,-32.8 8,-230.8 543,-230.8 543,-32.8 8,-32.8"/>
</g>
<g id="clust4" class="cluster">
<title>cluster_AppModule_imports</title>
<polygon fill="none" stroke="black" points="146,-40.8 146,-92.8 535,-92.8 535,-40.8 146,-40.8"/>
</g>
<g id="clust2" class="cluster">
<title>cluster_AppModule_declarations</title>
<polygon fill="none" stroke="black" points="16,-40.8 16,-92.8 138,-92.8 138,-40.8 16,-40.8"/>
</g>
<g id="clust6" class="cluster">
<title>cluster_AppModule_bootstrap</title>
<polygon fill="none" stroke="black" points="210,-170.8 210,-222.8 334,-222.8 334,-170.8 210,-170.8"/>
</g>
<!-- AppComponent -->
<g id="node1" class="node">
<title>AppComponent</title>
<polygon fill="#ffffb3" stroke="black" points="129.94,-84.8 24.06,-84.8 24.06,-48.8 129.94,-48.8 129.94,-84.8"/>
<text text-anchor="middle" x="77" y="-62.6" font-family="Times,serif" font-size="14.00">AppComponent</text>
</g>
<!-- AppModule -->
<g id="node2" class="node">
<title>AppModule</title>
<polygon fill="#8dd3c7" stroke="black" points="313.66,-149.8 310.66,-153.8 289.66,-153.8 286.66,-149.8 230.34,-149.8 230.34,-113.8 313.66,-113.8 313.66,-149.8"/>
<text text-anchor="middle" x="272" y="-127.6" font-family="Times,serif" font-size="14.00">AppModule</text>
</g>
<!-- AppComponent&#45;&gt;AppModule -->
<g id="edge1" class="edge">
<title>AppComponent&#45;&gt;AppModule</title>
<path fill="none" stroke="black" d="M77,-84.91C77,-104.14 77,-131.8 77,-131.8 77,-131.8 220.17,-131.8 220.17,-131.8"/>
<polygon fill="black" stroke="black" points="220.17,-135.3 230.17,-131.8 220.17,-128.3 220.17,-135.3"/>
</g>
<!-- AppComponent  -->
<g id="node6" class="node">
<title>AppComponent </title>
<polygon fill="#80b1d3" stroke="black" points="326.44,-214.8 217.56,-214.8 217.56,-178.8 326.44,-178.8 326.44,-214.8"/>
<text text-anchor="middle" x="272" y="-192.6" font-family="Times,serif" font-size="14.00">AppComponent </text>
</g>
<!-- AppModule&#45;&gt;AppComponent  -->
<g id="edge5" class="edge">
<title>AppModule&#45;&gt;AppComponent </title>
<path fill="none" stroke="black" stroke-dasharray="1,5" d="M272,-149.91C272,-149.91 272,-168.79 272,-168.79"/>
<polygon fill="black" stroke="black" points="268.5,-168.79 272,-178.79 275.5,-168.79 268.5,-168.79"/>
</g>
<!-- AppRoutingModule -->
<g id="node3" class="node">
<title>AppRoutingModule</title>
<polygon fill="#8dd3c7" stroke="black" points="527.28,-84.8 524.28,-88.8 503.28,-88.8 500.28,-84.8 398.72,-84.8 398.72,-48.8 527.28,-48.8 527.28,-84.8"/>
<text text-anchor="middle" x="463" y="-62.6" font-family="Times,serif" font-size="14.00">AppRoutingModule</text>
</g>
<!-- AppRoutingModule&#45;&gt;AppModule -->
<g id="edge2" class="edge">
<title>AppRoutingModule&#45;&gt;AppModule</title>
<path fill="none" stroke="black" d="M463,-84.91C463,-104.14 463,-131.8 463,-131.8 463,-131.8 323.92,-131.8 323.92,-131.8"/>
<polygon fill="black" stroke="black" points="323.92,-128.3 313.92,-131.8 323.92,-135.3 323.92,-128.3"/>
</g>
<!-- FormsModule -->
<g id="node4" class="node">
<title>FormsModule</title>
<polygon fill="#8dd3c7" stroke="black" points="380.84,-84.8 377.84,-88.8 356.84,-88.8 353.84,-84.8 285.16,-84.8 285.16,-48.8 380.84,-48.8 380.84,-84.8"/>
<text text-anchor="middle" x="333" y="-62.6" font-family="Times,serif" font-size="14.00">FormsModule</text>
</g>
<!-- FormsModule&#45;&gt;AppModule -->
<g id="edge3" class="edge">
<title>FormsModule&#45;&gt;AppModule</title>
<path fill="none" stroke="black" d="M299.58,-84.91C299.58,-84.91 299.58,-103.79 299.58,-103.79"/>
<polygon fill="black" stroke="black" points="296.08,-103.79 299.58,-113.79 303.08,-103.79 296.08,-103.79"/>
</g>
<!-- GraphQLModule -->
<g id="node5" class="node">
<title>GraphQLModule</title>
<polygon fill="#8dd3c7" stroke="black" points="267.7,-84.8 264.7,-88.8 243.7,-88.8 240.7,-84.8 154.3,-84.8 154.3,-48.8 267.7,-48.8 267.7,-84.8"/>
<text text-anchor="middle" x="211" y="-62.6" font-family="Times,serif" font-size="14.00">GraphQLModule</text>
</g>
<!-- GraphQLModule&#45;&gt;AppModule -->
<g id="edge4" class="edge">
<title>GraphQLModule&#45;&gt;AppModule</title>
<path fill="none" stroke="black" d="M248.88,-84.91C248.88,-84.91 248.88,-103.79 248.88,-103.79"/>
<polygon fill="black" stroke="black" points="245.38,-103.79 248.88,-113.79 252.38,-103.79 245.38,-103.79"/>
</g>
</g>
</svg>
