<?xml version="1.0" encoding="UTF-8" standalone="no"?>
<!DOCTYPE svg PUBLIC "-//W3C//DTD SVG 1.1//EN"
 "http://www.w3.org/Graphics/SVG/1.1/DTD/svg11.dtd">
<!-- Generated by graphviz version 3.0.0 (20220226.1711)
 -->
<!-- Title: dependencies Pages: 1 -->
<svg width="1008pt" height="247pt"
 viewBox="0.00 0.00 1008.00 246.80" xmlns="http://www.w3.org/2000/svg" xmlns:xlink="http://www.w3.org/1999/xlink">
<g id="graph0" class="graph" transform="scale(1 1) rotate(0) translate(4 242.8)">
<title>dependencies</title>
<polygon fill="white" stroke="transparent" points="-4,4 -4,-242.8 1004,-242.8 1004,4 -4,4"/>
<text text-anchor="middle" x="500" y="-8.2" font-family="sans-serif" font-size="14.00">dependencies</text>
<g id="clust1" class="cluster">
<title>cluster_SafeFormModule</title>
<polygon fill="none" stroke="black" stroke-dasharray="1,5" points="8,-32.8 8,-230.8 992,-230.8 992,-32.8 8,-32.8"/>
</g>
<g id="clust2" class="cluster">
<title>cluster_SafeFormModule_declarations</title>
<polygon fill="none" stroke="black" points="832,-40.8 832,-92.8 984,-92.8 984,-40.8 832,-40.8"/>
</g>
<g id="clust4" class="cluster">
<title>cluster_SafeFormModule_imports</title>
<polygon fill="none" stroke="black" points="16,-40.8 16,-92.8 824,-92.8 824,-40.8 16,-40.8"/>
</g>
<g id="clust5" class="cluster">
<title>cluster_SafeFormModule_exports</title>
<polygon fill="none" stroke="black" points="432,-170.8 432,-222.8 588,-222.8 588,-170.8 432,-170.8"/>
</g>
<!-- SafeFormComponent -->
<g id="node1" class="node">
<title>SafeFormComponent</title>
<polygon fill="#ffffb3" stroke="black" points="976.05,-84.8 839.95,-84.8 839.95,-48.8 976.05,-48.8 976.05,-84.8"/>
<text text-anchor="middle" x="908" y="-62.6" font-family="Times,serif" font-size="14.00">SafeFormComponent</text>
</g>
<!-- SafeFormModule -->
<g id="node2" class="node">
<title>SafeFormModule</title>
<polygon fill="#8dd3c7" stroke="black" points="567.27,-149.8 564.27,-153.8 543.27,-153.8 540.27,-149.8 452.73,-149.8 452.73,-113.8 567.27,-113.8 567.27,-149.8"/>
<text text-anchor="middle" x="510" y="-127.6" font-family="Times,serif" font-size="14.00">SafeFormModule</text>
</g>
<!-- SafeFormComponent&#45;&gt;SafeFormModule -->
<g id="edge1" class="edge">
<title>SafeFormComponent&#45;&gt;SafeFormModule</title>
<path fill="none" stroke="black" d="M908,-85.08C908,-106.12 908,-137.8 908,-137.8 908,-137.8 577.45,-137.8 577.45,-137.8"/>
<polygon fill="black" stroke="black" points="577.45,-134.3 567.45,-137.8 577.45,-141.3 577.45,-134.3"/>
</g>
<!-- SafeFormComponent  -->
<g id="node8" class="node">
<title>SafeFormComponent </title>
<polygon fill="#fb8072" stroke="black" points="580.04,-214.8 439.96,-214.8 439.96,-178.8 580.04,-178.8 580.04,-214.8"/>
<text text-anchor="middle" x="510" y="-192.6" font-family="Times,serif" font-size="14.00">SafeFormComponent </text>
</g>
<!-- SafeFormModule&#45;&gt;SafeFormComponent  -->
<g id="edge7" class="edge">
<title>SafeFormModule&#45;&gt;SafeFormComponent </title>
<path fill="none" stroke="black" stroke-dasharray="5,2" d="M510,-149.91C510,-149.91 510,-168.79 510,-168.79"/>
<polygon fill="black" stroke="black" points="506.5,-168.79 510,-178.79 513.5,-168.79 506.5,-168.79"/>
</g>
<!-- SafeButtonModule -->
<g id="node3" class="node">
<title>SafeButtonModule</title>
<polygon fill="#8dd3c7" stroke="black" points="816.05,-84.8 813.05,-88.8 792.05,-88.8 789.05,-84.8 693.95,-84.8 693.95,-48.8 816.05,-48.8 816.05,-84.8"/>
<text text-anchor="middle" x="755" y="-62.6" font-family="Times,serif" font-size="14.00">SafeButtonModule</text>
</g>
<!-- SafeButtonModule&#45;&gt;SafeFormModule -->
<g id="edge2" class="edge">
<title>SafeButtonModule&#45;&gt;SafeFormModule</title>
<path fill="none" stroke="black" d="M755,-84.82C755,-102.17 755,-125.8 755,-125.8 755,-125.8 577.44,-125.8 577.44,-125.8"/>
<polygon fill="black" stroke="black" points="577.44,-122.3 567.44,-125.8 577.44,-129.3 577.44,-122.3"/>
</g>
<!-- SafeFormActionsModule -->
<g id="node4" class="node">
<title>SafeFormActionsModule</title>
<polygon fill="#8dd3c7" stroke="black" points="676.32,-84.8 673.32,-88.8 652.32,-88.8 649.32,-84.8 517.68,-84.8 517.68,-48.8 676.32,-48.8 676.32,-84.8"/>
<text text-anchor="middle" x="597" y="-62.6" font-family="Times,serif" font-size="14.00">SafeFormActionsModule</text>
</g>
<!-- SafeFormActionsModule&#45;&gt;SafeFormModule -->
<g id="edge3" class="edge">
<title>SafeFormActionsModule&#45;&gt;SafeFormModule</title>
<path fill="none" stroke="black" d="M542.61,-84.91C542.61,-84.91 542.61,-103.79 542.61,-103.79"/>
<polygon fill="black" stroke="black" points="539.11,-103.79 542.61,-113.79 546.11,-103.79 539.11,-103.79"/>
</g>
<!-- SafeFormModalModule -->
<g id="node5" class="node">
<title>SafeFormModalModule</title>
<polygon fill="#8dd3c7" stroke="black" points="499.82,-84.8 496.82,-88.8 475.82,-88.8 472.82,-84.8 348.18,-84.8 348.18,-48.8 499.82,-48.8 499.82,-84.8"/>
<text text-anchor="middle" x="424" y="-62.6" font-family="Times,serif" font-size="14.00">SafeFormModalModule</text>
</g>
<!-- SafeFormModalModule&#45;&gt;SafeFormModule -->
<g id="edge4" class="edge">
<title>SafeFormModalModule&#45;&gt;SafeFormModule</title>
<path fill="none" stroke="black" d="M476.14,-84.91C476.14,-84.91 476.14,-103.79 476.14,-103.79"/>
<polygon fill="black" stroke="black" points="472.64,-103.79 476.14,-113.79 479.64,-103.79 472.64,-103.79"/>
</g>
<!-- SafeIconModule -->
<g id="node6" class="node">
<title>SafeIconModule</title>
<polygon fill="#8dd3c7" stroke="black" points="330.8,-84.8 327.8,-88.8 306.8,-88.8 303.8,-84.8 221.2,-84.8 221.2,-48.8 330.8,-48.8 330.8,-84.8"/>
<text text-anchor="middle" x="276" y="-62.6" font-family="Times,serif" font-size="14.00">SafeIconModule</text>
</g>
<!-- SafeIconModule&#45;&gt;SafeFormModule -->
<g id="edge5" class="edge">
<title>SafeIconModule&#45;&gt;SafeFormModule</title>
<path fill="none" stroke="black" d="M276,-84.82C276,-102.17 276,-125.8 276,-125.8 276,-125.8 442.46,-125.8 442.46,-125.8"/>
<polygon fill="black" stroke="black" points="442.46,-129.3 452.46,-125.8 442.46,-122.3 442.46,-129.3"/>
</g>
<!-- SafeRecordSummaryModule -->
<g id="node7" class="node">
<title>SafeRecordSummaryModule</title>
<polygon fill="#8dd3c7" stroke="black" points="203.8,-84.8 200.8,-88.8 179.8,-88.8 176.8,-84.8 24.2,-84.8 24.2,-48.8 203.8,-48.8 203.8,-84.8"/>
<text text-anchor="middle" x="114" y="-62.6" font-family="Times,serif" font-size="14.00">SafeRecordSummaryModule</text>
</g>
<!-- SafeRecordSummaryModule&#45;&gt;SafeFormModule -->
<g id="edge6" class="edge">
<title>SafeRecordSummaryModule&#45;&gt;SafeFormModule</title>
<path fill="none" stroke="black" d="M114,-85.08C114,-106.12 114,-137.8 114,-137.8 114,-137.8 442.42,-137.8 442.42,-137.8"/>
<polygon fill="black" stroke="black" points="442.42,-141.3 452.42,-137.8 442.42,-134.3 442.42,-141.3"/>
</g>
</g>
</svg>
