<?xml version="1.0" encoding="UTF-8" standalone="no"?>
<!DOCTYPE svg PUBLIC "-//W3C//DTD SVG 1.1//EN"
 "http://www.w3.org/Graphics/SVG/1.1/DTD/svg11.dtd">
<!-- Generated by graphviz version 3.0.0 (20220226.1711)
 -->
<!-- Title: dependencies Pages: 1 -->
<svg width="652pt" height="174pt"
 viewBox="0.00 0.00 652.00 173.80" xmlns="http://www.w3.org/2000/svg" xmlns:xlink="http://www.w3.org/1999/xlink">
<g id="graph0" class="graph" transform="scale(1 1) rotate(0) translate(4 169.8)">
<title>dependencies</title>
<polygon fill="white" stroke="transparent" points="-4,4 -4,-169.8 648,-169.8 648,4 -4,4"/>
<text text-anchor="middle" x="322" y="-8.2" font-family="sans-serif" font-size="14.00">dependencies</text>
<g id="clust1" class="cluster">
<title>cluster_PullJobsModule</title>
<polygon fill="none" stroke="black" stroke-dasharray="1,5" points="8,-32.8 8,-157.8 636,-157.8 636,-32.8 8,-32.8"/>
</g>
<g id="clust2" class="cluster">
<title>cluster_PullJobsModule_declarations</title>
<polygon fill="none" stroke="black" points="306,-40.8 306,-92.8 628,-92.8 628,-40.8 306,-40.8"/>
</g>
<g id="clust5" class="cluster">
<title>cluster_PullJobsModule_imports</title>
<polygon fill="none" stroke="black" points="16,-40.8 16,-92.8 298,-92.8 298,-40.8 16,-40.8"/>
</g>
<!-- PullJobModalComponent -->
<g id="node1" class="node">
<title>PullJobModalComponent</title>
<polygon fill="#ffffb3" stroke="black" points="619.9,-84.8 460.1,-84.8 460.1,-48.8 619.9,-48.8 619.9,-84.8"/>
<text text-anchor="middle" x="540" y="-62.6" font-family="Times,serif" font-size="14.00">PullJobModalComponent</text>
</g>
<!-- PullJobsModule -->
<g id="node3" class="node">
<title>PullJobsModule</title>
<polygon fill="#8dd3c7" stroke="black" points="363.51,-149.8 360.51,-153.8 339.51,-153.8 336.51,-149.8 256.49,-149.8 256.49,-113.8 363.51,-113.8 363.51,-149.8"/>
<text text-anchor="middle" x="310" y="-127.6" font-family="Times,serif" font-size="14.00">PullJobsModule</text>
</g>
<!-- PullJobModalComponent&#45;&gt;PullJobsModule -->
<g id="edge1" class="edge">
<title>PullJobModalComponent&#45;&gt;PullJobsModule</title>
<path fill="none" stroke="black" d="M540,-84.91C540,-104.14 540,-131.8 540,-131.8 540,-131.8 373.63,-131.8 373.63,-131.8"/>
<polygon fill="black" stroke="black" points="373.63,-128.3 363.63,-131.8 373.63,-135.3 373.63,-128.3"/>
</g>
<!-- PullJobsComponent -->
<g id="node2" class="node">
<title>PullJobsComponent</title>
<polygon fill="#ffffb3" stroke="black" points="442.29,-84.8 313.71,-84.8 313.71,-48.8 442.29,-48.8 442.29,-84.8"/>
<text text-anchor="middle" x="378" y="-62.6" font-family="Times,serif" font-size="14.00">PullJobsComponent</text>
</g>
<!-- PullJobsComponent&#45;&gt;PullJobsModule -->
<g id="edge2" class="edge">
<title>PullJobsComponent&#45;&gt;PullJobsModule</title>
<path fill="none" stroke="black" d="M338.56,-84.91C338.56,-84.91 338.56,-103.79 338.56,-103.79"/>
<polygon fill="black" stroke="black" points="335.06,-103.79 338.56,-113.79 342.06,-103.79 335.06,-103.79"/>
</g>
<!-- FormsModule -->
<g id="node4" class="node">
<title>FormsModule</title>
<polygon fill="#8dd3c7" stroke="black" points="289.84,-84.8 286.84,-88.8 265.84,-88.8 262.84,-84.8 194.16,-84.8 194.16,-48.8 289.84,-48.8 289.84,-84.8"/>
<text text-anchor="middle" x="242" y="-62.6" font-family="Times,serif" font-size="14.00">FormsModule</text>
</g>
<!-- FormsModule&#45;&gt;PullJobsModule -->
<g id="edge3" class="edge">
<title>FormsModule&#45;&gt;PullJobsModule</title>
<path fill="none" stroke="black" d="M273.08,-84.91C273.08,-84.91 273.08,-103.79 273.08,-103.79"/>
<polygon fill="black" stroke="black" points="269.58,-103.79 273.08,-113.79 276.58,-103.79 269.58,-103.79"/>
</g>
<!-- PullJobsRoutingModule -->
<g id="node5" class="node">
<title>PullJobsRoutingModule</title>
<polygon fill="#8dd3c7" stroke="black" points="176.13,-84.8 173.13,-88.8 152.13,-88.8 149.13,-84.8 23.87,-84.8 23.87,-48.8 176.13,-48.8 176.13,-84.8"/>
<text text-anchor="middle" x="100" y="-62.6" font-family="Times,serif" font-size="14.00">PullJobsRoutingModule</text>
</g>
<!-- PullJobsRoutingModule&#45;&gt;PullJobsModule -->
<g id="edge4" class="edge">
<title>PullJobsRoutingModule&#45;&gt;PullJobsModule</title>
<path fill="none" stroke="black" d="M100,-84.91C100,-104.14 100,-131.8 100,-131.8 100,-131.8 246.46,-131.8 246.46,-131.8"/>
<polygon fill="black" stroke="black" points="246.46,-135.3 256.46,-131.8 246.46,-128.3 246.46,-135.3"/>
</g>
</g>
</svg>
