<?xml version="1.0" encoding="UTF-8" standalone="no"?>
<!DOCTYPE svg PUBLIC "-//W3C//DTD SVG 1.1//EN"
 "http://www.w3.org/Graphics/SVG/1.1/DTD/svg11.dtd">
<!-- Generated by graphviz version 3.0.0 (20220226.1711)
 -->
<!-- Title: dependencies Pages: 1 -->
<svg width="591pt" height="247pt"
 viewBox="0.00 0.00 591.00 246.80" xmlns="http://www.w3.org/2000/svg" xmlns:xlink="http://www.w3.org/1999/xlink">
<g id="graph0" class="graph" transform="scale(1 1) rotate(0) translate(4 242.8)">
<title>dependencies</title>
<polygon fill="white" stroke="transparent" points="-4,4 -4,-242.8 587,-242.8 587,4 -4,4"/>
<text text-anchor="middle" x="291.5" y="-8.2" font-family="sans-serif" font-size="14.00">dependencies</text>
<g id="clust1" class="cluster">
<title>cluster_ApplicationModule</title>
<polygon fill="none" stroke="black" stroke-dasharray="1,5" points="8,-32.8 8,-230.8 575,-230.8 575,-32.8 8,-32.8"/>
</g>
<g id="clust4" class="cluster">
<title>cluster_ApplicationModule_imports</title>
<polygon fill="none" stroke="black" points="188,-40.8 188,-92.8 567,-92.8 567,-40.8 188,-40.8"/>
</g>
<g id="clust2" class="cluster">
<title>cluster_ApplicationModule_declarations</title>
<polygon fill="none" stroke="black" points="16,-40.8 16,-92.8 180,-92.8 180,-40.8 16,-40.8"/>
</g>
<g id="clust5" class="cluster">
<title>cluster_ApplicationModule_exports</title>
<polygon fill="none" stroke="black" points="232,-170.8 232,-222.8 398,-222.8 398,-170.8 232,-170.8"/>
</g>
<!-- ApplicationComponent -->
<g id="node1" class="node">
<title>ApplicationComponent</title>
<polygon fill="#ffffb3" stroke="black" points="171.93,-84.8 24.07,-84.8 24.07,-48.8 171.93,-48.8 171.93,-84.8"/>
<text text-anchor="middle" x="98" y="-62.6" font-family="Times,serif" font-size="14.00">ApplicationComponent</text>
</g>
<!-- ApplicationModule -->
<g id="node2" class="node">
<title>ApplicationModule</title>
<polygon fill="#8dd3c7" stroke="black" points="377.65,-149.8 374.65,-153.8 353.65,-153.8 350.65,-149.8 252.35,-149.8 252.35,-113.8 377.65,-113.8 377.65,-149.8"/>
<text text-anchor="middle" x="315" y="-127.6" font-family="Times,serif" font-size="14.00">ApplicationModule</text>
</g>
<!-- ApplicationComponent&#45;&gt;ApplicationModule -->
<g id="edge1" class="edge">
<title>ApplicationComponent&#45;&gt;ApplicationModule</title>
<path fill="none" stroke="black" d="M98,-84.91C98,-104.14 98,-131.8 98,-131.8 98,-131.8 242.23,-131.8 242.23,-131.8"/>
<polygon fill="black" stroke="black" points="242.23,-135.3 252.23,-131.8 242.23,-128.3 242.23,-135.3"/>
</g>
<!-- ApplicationComponent  -->
<g id="node6" class="node">
<title>ApplicationComponent </title>
<polygon fill="#fb8072" stroke="black" points="390.43,-214.8 239.57,-214.8 239.57,-178.8 390.43,-178.8 390.43,-214.8"/>
<text text-anchor="middle" x="315" y="-192.6" font-family="Times,serif" font-size="14.00">ApplicationComponent </text>
</g>
<!-- ApplicationModule&#45;&gt;ApplicationComponent  -->
<g id="edge5" class="edge">
<title>ApplicationModule&#45;&gt;ApplicationComponent </title>
<path fill="none" stroke="black" stroke-dasharray="5,2" d="M315,-149.91C315,-149.91 315,-168.79 315,-168.79"/>
<polygon fill="black" stroke="black" points="311.5,-168.79 315,-178.79 318.5,-168.79 311.5,-168.79"/>
</g>
<!-- DashboardModule -->
<g id="node3" class="node">
<title>DashboardModule</title>
<polygon fill="#8dd3c7" stroke="black" points="559.2,-84.8 556.2,-88.8 535.2,-88.8 532.2,-84.8 438.8,-84.8 438.8,-48.8 559.2,-48.8 559.2,-84.8"/>
<text text-anchor="middle" x="499" y="-62.6" font-family="Times,serif" font-size="14.00">DashboardModule</text>
</g>
<!-- DashboardModule&#45;&gt;ApplicationModule -->
<g id="edge2" class="edge">
<title>DashboardModule&#45;&gt;ApplicationModule</title>
<path fill="none" stroke="black" d="M499,-84.91C499,-104.14 499,-131.8 499,-131.8 499,-131.8 387.81,-131.8 387.81,-131.8"/>
<polygon fill="black" stroke="black" points="387.81,-128.3 377.81,-131.8 387.81,-135.3 387.81,-128.3"/>
</g>
<!-- FormModule -->
<g id="node4" class="node">
<title>FormModule</title>
<polygon fill="#8dd3c7" stroke="black" points="420.89,-84.8 417.89,-88.8 396.89,-88.8 393.89,-84.8 331.11,-84.8 331.11,-48.8 420.89,-48.8 420.89,-84.8"/>
<text text-anchor="middle" x="376" y="-62.6" font-family="Times,serif" font-size="14.00">FormModule</text>
</g>
<!-- FormModule&#45;&gt;ApplicationModule -->
<g id="edge3" class="edge">
<title>FormModule&#45;&gt;ApplicationModule</title>
<path fill="none" stroke="black" d="M354.44,-84.91C354.44,-84.91 354.44,-103.79 354.44,-103.79"/>
<polygon fill="black" stroke="black" points="350.94,-103.79 354.44,-113.79 357.94,-103.79 350.94,-103.79"/>
</g>
<!-- WorkflowModule -->
<g id="node5" class="node">
<title>WorkflowModule</title>
<polygon fill="#8dd3c7" stroke="black" points="313.59,-84.8 310.59,-88.8 289.59,-88.8 286.59,-84.8 196.41,-84.8 196.41,-48.8 313.59,-48.8 313.59,-84.8"/>
<text text-anchor="middle" x="255" y="-62.6" font-family="Times,serif" font-size="14.00">WorkflowModule</text>
</g>
<!-- WorkflowModule&#45;&gt;ApplicationModule -->
<g id="edge4" class="edge">
<title>WorkflowModule&#45;&gt;ApplicationModule</title>
<path fill="none" stroke="black" d="M282.86,-84.91C282.86,-84.91 282.86,-103.79 282.86,-103.79"/>
<polygon fill="black" stroke="black" points="279.36,-103.79 282.86,-113.79 286.36,-103.79 279.36,-103.79"/>
</g>
</g>
</svg>
