<?xml version="1.0" encoding="UTF-8" standalone="no"?>
<!DOCTYPE svg PUBLIC "-//W3C//DTD SVG 1.1//EN"
 "http://www.w3.org/Graphics/SVG/1.1/DTD/svg11.dtd">
<!-- Generated by graphviz version 3.0.0 (20220226.1711)
 -->
<!-- Title: dependencies Pages: 1 -->
<svg width="591pt" height="247pt"
 viewBox="0.00 0.00 591.00 246.80" xmlns="http://www.w3.org/2000/svg" xmlns:xlink="http://www.w3.org/1999/xlink">
<g id="graph0" class="graph" transform="scale(1 1) rotate(0) translate(4 242.8)">
<title>dependencies</title>
<polygon fill="white" stroke="transparent" points="-4,4 -4,-242.8 587,-242.8 587,4 -4,4"/>
<text text-anchor="middle" x="291.5" y="-8.2" font-family="sans-serif" font-size="14.00">dependencies</text>
<g id="clust1" class="cluster">
<title>cluster_ApplicationModule</title>
<polygon fill="none" stroke="black" stroke-dasharray="1,5" points="8,-32.8 8,-230.8 575,-230.8 575,-32.8 8,-32.8"/>
</g>
<g id="clust5" class="cluster">
<title>cluster_ApplicationModule_exports</title>
<polygon fill="none" stroke="black" points="182,-170.8 182,-222.8 348,-222.8 348,-170.8 182,-170.8"/>
</g>
<g id="clust2" class="cluster">
<title>cluster_ApplicationModule_declarations</title>
<polygon fill="none" stroke="black" points="403,-40.8 403,-92.8 567,-92.8 567,-40.8 403,-40.8"/>
</g>
<g id="clust4" class="cluster">
<title>cluster_ApplicationModule_imports</title>
<polygon fill="none" stroke="black" points="16,-40.8 16,-92.8 395,-92.8 395,-40.8 16,-40.8"/>
</g>
<!-- ApplicationComponent -->
<g id="node1" class="node">
<title>ApplicationComponent</title>
<polygon fill="#ffffb3" stroke="black" points="558.93,-84.8 411.07,-84.8 411.07,-48.8 558.93,-48.8 558.93,-84.8"/>
<text text-anchor="middle" x="485" y="-62.6" font-family="Times,serif" font-size="14.00">ApplicationComponent</text>
</g>
<!-- ApplicationModule -->
<g id="node2" class="node">
<title>ApplicationModule</title>
<polygon fill="#8dd3c7" stroke="black" points="327.65,-149.8 324.65,-153.8 303.65,-153.8 300.65,-149.8 202.35,-149.8 202.35,-113.8 327.65,-113.8 327.65,-149.8"/>
<text text-anchor="middle" x="265" y="-127.6" font-family="Times,serif" font-size="14.00">ApplicationModule</text>
</g>
<!-- ApplicationComponent&#45;&gt;ApplicationModule -->
<g id="edge1" class="edge">
<title>ApplicationComponent&#45;&gt;ApplicationModule</title>
<path fill="none" stroke="black" d="M485,-84.91C485,-104.14 485,-131.8 485,-131.8 485,-131.8 337.75,-131.8 337.75,-131.8"/>
<polygon fill="black" stroke="black" points="337.75,-128.3 327.75,-131.8 337.75,-135.3 337.75,-128.3"/>
</g>
<!-- ApplicationComponent  -->
<g id="node6" class="node">
<title>ApplicationComponent </title>
<polygon fill="#fb8072" stroke="black" points="340.43,-214.8 189.57,-214.8 189.57,-178.8 340.43,-178.8 340.43,-214.8"/>
<text text-anchor="middle" x="265" y="-192.6" font-family="Times,serif" font-size="14.00">ApplicationComponent </text>
</g>
<!-- ApplicationModule&#45;&gt;ApplicationComponent  -->
<g id="edge5" class="edge">
<title>ApplicationModule&#45;&gt;ApplicationComponent </title>
<path fill="none" stroke="black" stroke-dasharray="5,2" d="M265,-149.91C265,-149.91 265,-168.79 265,-168.79"/>
<polygon fill="black" stroke="black" points="261.5,-168.79 265,-178.79 268.5,-168.79 261.5,-168.79"/>
</g>
<!-- DashboardModule -->
<g id="node3" class="node">
<title>DashboardModule</title>
<polygon fill="#8dd3c7" stroke="black" points="387.2,-84.8 384.2,-88.8 363.2,-88.8 360.2,-84.8 266.8,-84.8 266.8,-48.8 387.2,-48.8 387.2,-84.8"/>
<text text-anchor="middle" x="327" y="-62.6" font-family="Times,serif" font-size="14.00">DashboardModule</text>
</g>
<!-- DashboardModule&#45;&gt;ApplicationModule -->
<g id="edge2" class="edge">
<title>DashboardModule&#45;&gt;ApplicationModule</title>
<path fill="none" stroke="black" d="M297.36,-84.91C297.36,-84.91 297.36,-103.79 297.36,-103.79"/>
<polygon fill="black" stroke="black" points="293.86,-103.79 297.36,-113.79 300.86,-103.79 293.86,-103.79"/>
</g>
<!-- FormModule -->
<g id="node4" class="node">
<title>FormModule</title>
<polygon fill="#8dd3c7" stroke="black" points="248.89,-84.8 245.89,-88.8 224.89,-88.8 221.89,-84.8 159.11,-84.8 159.11,-48.8 248.89,-48.8 248.89,-84.8"/>
<text text-anchor="middle" x="204" y="-62.6" font-family="Times,serif" font-size="14.00">FormModule</text>
</g>
<!-- FormModule&#45;&gt;ApplicationModule -->
<g id="edge3" class="edge">
<title>FormModule&#45;&gt;ApplicationModule</title>
<path fill="none" stroke="black" d="M225.56,-84.91C225.56,-84.91 225.56,-103.79 225.56,-103.79"/>
<polygon fill="black" stroke="black" points="222.06,-103.79 225.56,-113.79 229.06,-103.79 222.06,-103.79"/>
</g>
<!-- WorkflowModule -->
<g id="node5" class="node">
<title>WorkflowModule</title>
<polygon fill="#8dd3c7" stroke="black" points="141.59,-84.8 138.59,-88.8 117.59,-88.8 114.59,-84.8 24.41,-84.8 24.41,-48.8 141.59,-48.8 141.59,-84.8"/>
<text text-anchor="middle" x="83" y="-62.6" font-family="Times,serif" font-size="14.00">WorkflowModule</text>
</g>
<!-- WorkflowModule&#45;&gt;ApplicationModule -->
<g id="edge4" class="edge">
<title>WorkflowModule&#45;&gt;ApplicationModule</title>
<path fill="none" stroke="black" d="M83,-84.91C83,-104.14 83,-131.8 83,-131.8 83,-131.8 192.11,-131.8 192.11,-131.8"/>
<polygon fill="black" stroke="black" points="192.11,-135.3 202.11,-131.8 192.11,-128.3 192.11,-135.3"/>
</g>
</g>
</svg>
