<?xml version="1.0" encoding="UTF-8" standalone="no"?>
<!DOCTYPE svg PUBLIC "-//W3C//DTD SVG 1.1//EN"
 "http://www.w3.org/Graphics/SVG/1.1/DTD/svg11.dtd">
<!-- Generated by graphviz version 3.0.0 (20220226.1711)
 -->
<!-- Title: dependencies Pages: 1 -->
<svg width="706pt" height="247pt"
 viewBox="0.00 0.00 706.00 246.80" xmlns="http://www.w3.org/2000/svg" xmlns:xlink="http://www.w3.org/1999/xlink">
<g id="graph0" class="graph" transform="scale(1 1) rotate(0) translate(4 242.8)">
<title>dependencies</title>
<polygon fill="white" stroke="transparent" points="-4,4 -4,-242.8 702,-242.8 702,4 -4,4"/>
<text text-anchor="middle" x="349" y="-8.2" font-family="sans-serif" font-size="14.00">dependencies</text>
<g id="clust1" class="cluster">
<title>cluster_MapLayersModule</title>
<polygon fill="none" stroke="black" stroke-dasharray="1,5" points="8,-32.8 8,-230.8 690,-230.8 690,-32.8 8,-32.8"/>
</g>
<g id="clust4" class="cluster">
<title>cluster_MapLayersModule_imports</title>
<polygon fill="none" stroke="black" points="186,-40.8 186,-92.8 682,-92.8 682,-40.8 186,-40.8"/>
</g>
<g id="clust2" class="cluster">
<title>cluster_MapLayersModule_declarations</title>
<polygon fill="none" stroke="black" points="16,-40.8 16,-92.8 178,-92.8 178,-40.8 16,-40.8"/>
</g>
<g id="clust5" class="cluster">
<title>cluster_MapLayersModule_exports</title>
<polygon fill="none" stroke="black" points="275,-170.8 275,-222.8 439,-222.8 439,-170.8 275,-170.8"/>
</g>
<!-- MapLayersComponent -->
<g id="node1" class="node">
<title>MapLayersComponent</title>
<polygon fill="#ffffb3" stroke="black" points="169.58,-84.8 24.42,-84.8 24.42,-48.8 169.58,-48.8 169.58,-84.8"/>
<text text-anchor="middle" x="97" y="-62.6" font-family="Times,serif" font-size="14.00">MapLayersComponent</text>
</g>
<!-- MapLayersModule -->
<g id="node2" class="node">
<title>MapLayersModule</title>
<polygon fill="#8dd3c7" stroke="black" points="418.8,-149.8 415.8,-153.8 394.8,-153.8 391.8,-149.8 295.2,-149.8 295.2,-113.8 418.8,-113.8 418.8,-149.8"/>
<text text-anchor="middle" x="357" y="-127.6" font-family="Times,serif" font-size="14.00">MapLayersModule</text>
</g>
<!-- MapLayersComponent&#45;&gt;MapLayersModule -->
<g id="edge1" class="edge">
<title>MapLayersComponent&#45;&gt;MapLayersModule</title>
<path fill="none" stroke="black" d="M97,-84.91C97,-104.14 97,-131.8 97,-131.8 97,-131.8 285.05,-131.8 285.05,-131.8"/>
<polygon fill="black" stroke="black" points="285.05,-135.3 295.05,-131.8 285.05,-128.3 285.05,-135.3"/>
</g>
<!-- MapLayersComponent  -->
<g id="node6" class="node">
<title>MapLayersComponent </title>
<polygon fill="#fb8072" stroke="black" points="431.08,-214.8 282.92,-214.8 282.92,-178.8 431.08,-178.8 431.08,-214.8"/>
<text text-anchor="middle" x="357" y="-192.6" font-family="Times,serif" font-size="14.00">MapLayersComponent </text>
</g>
<!-- MapLayersModule&#45;&gt;MapLayersComponent  -->
<g id="edge5" class="edge">
<title>MapLayersModule&#45;&gt;MapLayersComponent </title>
<path fill="none" stroke="black" stroke-dasharray="5,2" d="M357,-149.91C357,-149.91 357,-168.79 357,-168.79"/>
<polygon fill="black" stroke="black" points="353.5,-168.79 357,-178.79 360.5,-168.79 353.5,-168.79"/>
</g>
<!-- MapClorophletsModule -->
<g id="node3" class="node">
<title>MapClorophletsModule</title>
<polygon fill="#8dd3c7" stroke="black" points="674.05,-84.8 671.05,-88.8 650.05,-88.8 647.05,-84.8 523.95,-84.8 523.95,-48.8 674.05,-48.8 674.05,-84.8"/>
<text text-anchor="middle" x="599" y="-62.6" font-family="Times,serif" font-size="14.00">MapClorophletsModule</text>
</g>
<!-- MapClorophletsModule&#45;&gt;MapLayersModule -->
<g id="edge2" class="edge">
<title>MapClorophletsModule&#45;&gt;MapLayersModule</title>
<path fill="none" stroke="black" d="M599,-84.91C599,-104.14 599,-131.8 599,-131.8 599,-131.8 428.69,-131.8 428.69,-131.8"/>
<polygon fill="black" stroke="black" points="428.69,-128.3 418.69,-131.8 428.69,-135.3 428.69,-128.3"/>
</g>
<!-- MapMarkersModule -->
<g id="node4" class="node">
<title>MapMarkersModule</title>
<polygon fill="#8dd3c7" stroke="black" points="505.86,-84.8 502.86,-88.8 481.86,-88.8 478.86,-84.8 374.14,-84.8 374.14,-48.8 505.86,-48.8 505.86,-84.8"/>
<text text-anchor="middle" x="440" y="-62.6" font-family="Times,serif" font-size="14.00">MapMarkersModule</text>
</g>
<!-- MapMarkersModule&#45;&gt;MapLayersModule -->
<g id="edge3" class="edge">
<title>MapMarkersModule&#45;&gt;MapLayersModule</title>
<path fill="none" stroke="black" d="M396.36,-84.91C396.36,-84.91 396.36,-103.79 396.36,-103.79"/>
<polygon fill="black" stroke="black" points="392.86,-103.79 396.36,-113.79 399.86,-103.79 392.86,-103.79"/>
</g>
<!-- MapOnlineLayersModule -->
<g id="node5" class="node">
<title>MapOnlineLayersModule</title>
<polygon fill="#8dd3c7" stroke="black" points="355.91,-84.8 352.91,-88.8 331.91,-88.8 328.91,-84.8 194.09,-84.8 194.09,-48.8 355.91,-48.8 355.91,-84.8"/>
<text text-anchor="middle" x="275" y="-62.6" font-family="Times,serif" font-size="14.00">MapOnlineLayersModule</text>
</g>
<!-- MapOnlineLayersModule&#45;&gt;MapLayersModule -->
<g id="edge4" class="edge">
<title>MapOnlineLayersModule&#45;&gt;MapLayersModule</title>
<path fill="none" stroke="black" d="M325.53,-84.91C325.53,-84.91 325.53,-103.79 325.53,-103.79"/>
<polygon fill="black" stroke="black" points="322.03,-103.79 325.53,-113.79 329.03,-103.79 322.03,-103.79"/>
</g>
</g>
</svg>
