<?xml version="1.0" encoding="UTF-8" standalone="no"?>
<!DOCTYPE svg PUBLIC "-//W3C//DTD SVG 1.1//EN"
 "http://www.w3.org/Graphics/SVG/1.1/DTD/svg11.dtd">
<!-- Generated by graphviz version 3.0.0 (20220226.1711)
 -->
<!-- Title: dependencies Pages: 1 -->
<svg width="706pt" height="247pt"
 viewBox="0.00 0.00 706.00 246.80" xmlns="http://www.w3.org/2000/svg" xmlns:xlink="http://www.w3.org/1999/xlink">
<g id="graph0" class="graph" transform="scale(1 1) rotate(0) translate(4 242.8)">
<title>dependencies</title>
<polygon fill="white" stroke="transparent" points="-4,4 -4,-242.8 702,-242.8 702,4 -4,4"/>
<text text-anchor="middle" x="349" y="-8.2" font-family="sans-serif" font-size="14.00">dependencies</text>
<g id="clust1" class="cluster">
<title>cluster_MapLayersModule</title>
<polygon fill="none" stroke="black" stroke-dasharray="1,5" points="8,-32.8 8,-230.8 690,-230.8 690,-32.8 8,-32.8"/>
</g>
<g id="clust2" class="cluster">
<title>cluster_MapLayersModule_declarations</title>
<polygon fill="none" stroke="black" points="520,-40.8 520,-92.8 682,-92.8 682,-40.8 520,-40.8"/>
</g>
<g id="clust4" class="cluster">
<title>cluster_MapLayersModule_imports</title>
<polygon fill="none" stroke="black" points="16,-40.8 16,-92.8 512,-92.8 512,-40.8 16,-40.8"/>
</g>
<g id="clust5" class="cluster">
<title>cluster_MapLayersModule_exports</title>
<polygon fill="none" stroke="black" points="267,-170.8 267,-222.8 431,-222.8 431,-170.8 267,-170.8"/>
</g>
<!-- MapLayersComponent -->
<g id="node1" class="node">
<title>MapLayersComponent</title>
<polygon fill="#ffffb3" stroke="black" points="673.58,-84.8 528.42,-84.8 528.42,-48.8 673.58,-48.8 673.58,-84.8"/>
<text text-anchor="middle" x="601" y="-62.6" font-family="Times,serif" font-size="14.00">MapLayersComponent</text>
</g>
<!-- MapLayersModule -->
<g id="node2" class="node">
<title>MapLayersModule</title>
<polygon fill="#8dd3c7" stroke="black" points="410.8,-149.8 407.8,-153.8 386.8,-153.8 383.8,-149.8 287.2,-149.8 287.2,-113.8 410.8,-113.8 410.8,-149.8"/>
<text text-anchor="middle" x="349" y="-127.6" font-family="Times,serif" font-size="14.00">MapLayersModule</text>
</g>
<!-- MapLayersComponent&#45;&gt;MapLayersModule -->
<g id="edge1" class="edge">
<title>MapLayersComponent&#45;&gt;MapLayersModule</title>
<path fill="none" stroke="black" d="M601,-84.91C601,-104.14 601,-131.8 601,-131.8 601,-131.8 420.97,-131.8 420.97,-131.8"/>
<polygon fill="black" stroke="black" points="420.97,-128.3 410.97,-131.8 420.97,-135.3 420.97,-128.3"/>
</g>
<!-- MapLayersComponent  -->
<g id="node6" class="node">
<title>MapLayersComponent </title>
<polygon fill="#fb8072" stroke="black" points="423.08,-214.8 274.92,-214.8 274.92,-178.8 423.08,-178.8 423.08,-214.8"/>
<text text-anchor="middle" x="349" y="-192.6" font-family="Times,serif" font-size="14.00">MapLayersComponent </text>
</g>
<!-- MapLayersModule&#45;&gt;MapLayersComponent  -->
<g id="edge5" class="edge">
<title>MapLayersModule&#45;&gt;MapLayersComponent </title>
<path fill="none" stroke="black" stroke-dasharray="5,2" d="M349,-149.91C349,-149.91 349,-168.79 349,-168.79"/>
<polygon fill="black" stroke="black" points="345.5,-168.79 349,-178.79 352.5,-168.79 345.5,-168.79"/>
</g>
<!-- MapClorophletsModule -->
<g id="node3" class="node">
<title>MapClorophletsModule</title>
<polygon fill="#8dd3c7" stroke="black" points="504.05,-84.8 501.05,-88.8 480.05,-88.8 477.05,-84.8 353.95,-84.8 353.95,-48.8 504.05,-48.8 504.05,-84.8"/>
<text text-anchor="middle" x="429" y="-62.6" font-family="Times,serif" font-size="14.00">MapClorophletsModule</text>
</g>
<!-- MapClorophletsModule&#45;&gt;MapLayersModule -->
<g id="edge2" class="edge">
<title>MapClorophletsModule&#45;&gt;MapLayersModule</title>
<path fill="none" stroke="black" d="M382.19,-84.91C382.19,-84.91 382.19,-103.79 382.19,-103.79"/>
<polygon fill="black" stroke="black" points="378.69,-103.79 382.19,-113.79 385.69,-103.79 378.69,-103.79"/>
</g>
<!-- MapMarkersModule -->
<g id="node4" class="node">
<title>MapMarkersModule</title>
<polygon fill="#8dd3c7" stroke="black" points="335.86,-84.8 332.86,-88.8 311.86,-88.8 308.86,-84.8 204.14,-84.8 204.14,-48.8 335.86,-48.8 335.86,-84.8"/>
<text text-anchor="middle" x="270" y="-62.6" font-family="Times,serif" font-size="14.00">MapMarkersModule</text>
</g>
<!-- MapMarkersModule&#45;&gt;MapLayersModule -->
<g id="edge3" class="edge">
<title>MapMarkersModule&#45;&gt;MapLayersModule</title>
<path fill="none" stroke="black" d="M311.64,-84.91C311.64,-84.91 311.64,-103.79 311.64,-103.79"/>
<polygon fill="black" stroke="black" points="308.14,-103.79 311.64,-113.79 315.14,-103.79 308.14,-103.79"/>
</g>
<!-- MapOnlineLayersModule -->
<g id="node5" class="node">
<title>MapOnlineLayersModule</title>
<polygon fill="#8dd3c7" stroke="black" points="185.91,-84.8 182.91,-88.8 161.91,-88.8 158.91,-84.8 24.09,-84.8 24.09,-48.8 185.91,-48.8 185.91,-84.8"/>
<text text-anchor="middle" x="105" y="-62.6" font-family="Times,serif" font-size="14.00">MapOnlineLayersModule</text>
</g>
<!-- MapOnlineLayersModule&#45;&gt;MapLayersModule -->
<g id="edge4" class="edge">
<title>MapOnlineLayersModule&#45;&gt;MapLayersModule</title>
<path fill="none" stroke="black" d="M105,-84.91C105,-104.14 105,-131.8 105,-131.8 105,-131.8 277.11,-131.8 277.11,-131.8"/>
<polygon fill="black" stroke="black" points="277.11,-135.3 287.11,-131.8 277.11,-128.3 277.11,-135.3"/>
</g>
</g>
</svg>
