<?xml version="1.0" encoding="UTF-8" standalone="no"?>
<!DOCTYPE svg PUBLIC "-//W3C//DTD SVG 1.1//EN"
 "http://www.w3.org/Graphics/SVG/1.1/DTD/svg11.dtd">
<!-- Generated by graphviz version 3.0.0 (20220226.1711)
 -->
<!-- Title: dependencies Pages: 1 -->
<svg width="762pt" height="247pt"
 viewBox="0.00 0.00 762.00 246.80" xmlns="http://www.w3.org/2000/svg" xmlns:xlink="http://www.w3.org/1999/xlink">
<g id="graph0" class="graph" transform="scale(1 1) rotate(0) translate(4 242.8)">
<title>dependencies</title>
<polygon fill="white" stroke="transparent" points="-4,4 -4,-242.8 758,-242.8 758,4 -4,4"/>
<text text-anchor="middle" x="377" y="-8.2" font-family="sans-serif" font-size="14.00">dependencies</text>
<g id="clust1" class="cluster">
<title>cluster_TabButtonsModule</title>
<polygon fill="none" stroke="black" stroke-dasharray="1,5" points="8,-32.8 8,-230.8 746,-230.8 746,-32.8 8,-32.8"/>
</g>
<g id="clust2" class="cluster">
<title>cluster_TabButtonsModule_declarations</title>
<polygon fill="none" stroke="black" points="576,-40.8 576,-92.8 738,-92.8 738,-40.8 576,-40.8"/>
</g>
<g id="clust4" class="cluster">
<title>cluster_TabButtonsModule_imports</title>
<polygon fill="none" stroke="black" points="16,-40.8 16,-92.8 568,-92.8 568,-40.8 16,-40.8"/>
</g>
<g id="clust5" class="cluster">
<title>cluster_TabButtonsModule_exports</title>
<polygon fill="none" stroke="black" points="266,-170.8 266,-222.8 432,-222.8 432,-170.8 266,-170.8"/>
</g>
<!-- TabButtonsComponent -->
<g id="node1" class="node">
<title>TabButtonsComponent</title>
<polygon fill="#ffffb3" stroke="black" points="730.16,-84.8 583.84,-84.8 583.84,-48.8 730.16,-48.8 730.16,-84.8"/>
<text text-anchor="middle" x="657" y="-62.6" font-family="Times,serif" font-size="14.00">TabButtonsComponent</text>
</g>
<!-- TabButtonsModule -->
<g id="node2" class="node">
<title>TabButtonsModule</title>
<polygon fill="#8dd3c7" stroke="black" points="411.38,-149.8 408.38,-153.8 387.38,-153.8 384.38,-149.8 286.62,-149.8 286.62,-113.8 411.38,-113.8 411.38,-149.8"/>
<text text-anchor="middle" x="349" y="-127.6" font-family="Times,serif" font-size="14.00">TabButtonsModule</text>
</g>
<!-- TabButtonsComponent&#45;&gt;TabButtonsModule -->
<g id="edge1" class="edge">
<title>TabButtonsComponent&#45;&gt;TabButtonsModule</title>
<path fill="none" stroke="black" d="M657,-85.08C657,-106.12 657,-137.8 657,-137.8 657,-137.8 421.7,-137.8 421.7,-137.8"/>
<polygon fill="black" stroke="black" points="421.7,-134.3 411.7,-137.8 421.7,-141.3 421.7,-134.3"/>
</g>
<!-- TabButtonsComponent  -->
<g id="node7" class="node">
<title>TabButtonsComponent </title>
<polygon fill="#fb8072" stroke="black" points="424.16,-214.8 273.84,-214.8 273.84,-178.8 424.16,-178.8 424.16,-214.8"/>
<text text-anchor="middle" x="349" y="-192.6" font-family="Times,serif" font-size="14.00">TabButtonsComponent </text>
</g>
<!-- TabButtonsModule&#45;&gt;TabButtonsComponent  -->
<g id="edge6" class="edge">
<title>TabButtonsModule&#45;&gt;TabButtonsComponent </title>
<path fill="none" stroke="black" stroke-dasharray="5,2" d="M349,-149.91C349,-149.91 349,-168.79 349,-168.79"/>
<polygon fill="black" stroke="black" points="345.5,-168.79 349,-178.79 352.5,-168.79 345.5,-168.79"/>
</g>
<!-- ButtonConfigModule -->
<g id="node3" class="node">
<title>ButtonConfigModule</title>
<polygon fill="#8dd3c7" stroke="black" points="560.06,-84.8 557.06,-88.8 536.06,-88.8 533.06,-84.8 423.94,-84.8 423.94,-48.8 560.06,-48.8 560.06,-84.8"/>
<text text-anchor="middle" x="492" y="-62.6" font-family="Times,serif" font-size="14.00">ButtonConfigModule</text>
</g>
<!-- ButtonConfigModule&#45;&gt;TabButtonsModule -->
<g id="edge2" class="edge">
<title>ButtonConfigModule&#45;&gt;TabButtonsModule</title>
<path fill="none" stroke="black" d="M492.18,-84.82C492.18,-102.17 492.18,-125.8 492.18,-125.8 492.18,-125.8 421.38,-125.8 421.38,-125.8"/>
<polygon fill="black" stroke="black" points="421.38,-122.3 411.38,-125.8 421.38,-129.3 421.38,-122.3"/>
</g>
<!-- SafeAlertModule -->
<g id="node4" class="node">
<title>SafeAlertModule</title>
<polygon fill="#8dd3c7" stroke="black" points="405.69,-84.8 402.69,-88.8 381.69,-88.8 378.69,-84.8 292.31,-84.8 292.31,-48.8 405.69,-48.8 405.69,-84.8"/>
<text text-anchor="middle" x="349" y="-62.6" font-family="Times,serif" font-size="14.00">SafeAlertModule</text>
</g>
<!-- SafeAlertModule&#45;&gt;TabButtonsModule -->
<g id="edge3" class="edge">
<title>SafeAlertModule&#45;&gt;TabButtonsModule</title>
<path fill="none" stroke="black" d="M349,-84.91C349,-84.91 349,-103.79 349,-103.79"/>
<polygon fill="black" stroke="black" points="345.5,-103.79 349,-113.79 352.5,-103.79 345.5,-103.79"/>
</g>
<!-- SafeButtonModule -->
<g id="node5" class="node">
<title>SafeButtonModule</title>
<polygon fill="#8dd3c7" stroke="black" points="274.05,-84.8 271.05,-88.8 250.05,-88.8 247.05,-84.8 151.95,-84.8 151.95,-48.8 274.05,-48.8 274.05,-84.8"/>
<text text-anchor="middle" x="213" y="-62.6" font-family="Times,serif" font-size="14.00">SafeButtonModule</text>
</g>
<!-- SafeButtonModule&#45;&gt;TabButtonsModule -->
<g id="edge4" class="edge">
<title>SafeButtonModule&#45;&gt;TabButtonsModule</title>
<path fill="none" stroke="black" d="M212.82,-84.82C212.82,-102.17 212.82,-125.8 212.82,-125.8 212.82,-125.8 276.49,-125.8 276.49,-125.8"/>
<polygon fill="black" stroke="black" points="276.49,-129.3 286.49,-125.8 276.49,-122.3 276.49,-129.3"/>
</g>
<!-- SafeIconModule -->
<g id="node6" class="node">
<title>SafeIconModule</title>
<polygon fill="#8dd3c7" stroke="black" points="133.8,-84.8 130.8,-88.8 109.8,-88.8 106.8,-84.8 24.2,-84.8 24.2,-48.8 133.8,-48.8 133.8,-84.8"/>
<text text-anchor="middle" x="79" y="-62.6" font-family="Times,serif" font-size="14.00">SafeIconModule</text>
</g>
<!-- SafeIconModule&#45;&gt;TabButtonsModule -->
<g id="edge5" class="edge">
<title>SafeIconModule&#45;&gt;TabButtonsModule</title>
<path fill="none" stroke="black" d="M79,-85.08C79,-106.12 79,-137.8 79,-137.8 79,-137.8 276.38,-137.8 276.38,-137.8"/>
<polygon fill="black" stroke="black" points="276.38,-141.3 286.38,-137.8 276.38,-134.3 276.38,-141.3"/>
</g>
</g>
</svg>
