<?xml version="1.0" encoding="UTF-8" standalone="no"?>
<!DOCTYPE svg PUBLIC "-//W3C//DTD SVG 1.1//EN"
 "http://www.w3.org/Graphics/SVG/1.1/DTD/svg11.dtd">
<!-- Generated by graphviz version 3.0.0 (20220226.1711)
 -->
<!-- Title: dependencies Pages: 1 -->
<svg width="631pt" height="247pt"
 viewBox="0.00 0.00 631.00 246.80" xmlns="http://www.w3.org/2000/svg" xmlns:xlink="http://www.w3.org/1999/xlink">
<g id="graph0" class="graph" transform="scale(1 1) rotate(0) translate(4 242.8)">
<title>dependencies</title>
<polygon fill="white" stroke="transparent" points="-4,4 -4,-242.8 627,-242.8 627,4 -4,4"/>
<text text-anchor="middle" x="311.5" y="-8.2" font-family="sans-serif" font-size="14.00">dependencies</text>
<g id="clust1" class="cluster">
<title>cluster_TabButtonsModule</title>
<polygon fill="none" stroke="black" stroke-dasharray="1,5" points="8,-32.8 8,-230.8 615,-230.8 615,-32.8 8,-32.8"/>
</g>
<g id="clust5" class="cluster">
<title>cluster_TabButtonsModule_exports</title>
<polygon fill="none" stroke="black" points="204,-170.8 204,-222.8 370,-222.8 370,-170.8 204,-170.8"/>
</g>
<g id="clust2" class="cluster">
<title>cluster_TabButtonsModule_declarations</title>
<polygon fill="none" stroke="black" points="445,-40.8 445,-92.8 607,-92.8 607,-40.8 445,-40.8"/>
</g>
<g id="clust4" class="cluster">
<title>cluster_TabButtonsModule_imports</title>
<polygon fill="none" stroke="black" points="16,-40.8 16,-92.8 437,-92.8 437,-40.8 16,-40.8"/>
</g>
<!-- TabButtonsComponent -->
<g id="node1" class="node">
<title>TabButtonsComponent</title>
<polygon fill="#ffffb3" stroke="black" points="599.16,-84.8 452.84,-84.8 452.84,-48.8 599.16,-48.8 599.16,-84.8"/>
<text text-anchor="middle" x="526" y="-62.6" font-family="Times,serif" font-size="14.00">TabButtonsComponent</text>
</g>
<!-- TabButtonsModule -->
<g id="node2" class="node">
<title>TabButtonsModule</title>
<polygon fill="#8dd3c7" stroke="black" points="349.38,-149.8 346.38,-153.8 325.38,-153.8 322.38,-149.8 224.62,-149.8 224.62,-113.8 349.38,-113.8 349.38,-149.8"/>
<text text-anchor="middle" x="287" y="-127.6" font-family="Times,serif" font-size="14.00">TabButtonsModule</text>
</g>
<!-- TabButtonsComponent&#45;&gt;TabButtonsModule -->
<g id="edge1" class="edge">
<title>TabButtonsComponent&#45;&gt;TabButtonsModule</title>
<path fill="none" stroke="black" d="M526,-84.91C526,-104.14 526,-131.8 526,-131.8 526,-131.8 359.48,-131.8 359.48,-131.8"/>
<polygon fill="black" stroke="black" points="359.48,-128.3 349.48,-131.8 359.48,-135.3 359.48,-128.3"/>
</g>
<!-- TabButtonsComponent  -->
<g id="node6" class="node">
<title>TabButtonsComponent </title>
<polygon fill="#fb8072" stroke="black" points="362.16,-214.8 211.84,-214.8 211.84,-178.8 362.16,-178.8 362.16,-214.8"/>
<text text-anchor="middle" x="287" y="-192.6" font-family="Times,serif" font-size="14.00">TabButtonsComponent </text>
</g>
<!-- TabButtonsModule&#45;&gt;TabButtonsComponent  -->
<g id="edge5" class="edge">
<title>TabButtonsModule&#45;&gt;TabButtonsComponent </title>
<path fill="none" stroke="black" stroke-dasharray="5,2" d="M287,-149.91C287,-149.91 287,-168.79 287,-168.79"/>
<polygon fill="black" stroke="black" points="283.5,-168.79 287,-178.79 290.5,-168.79 283.5,-168.79"/>
</g>
<!-- ButtonConfigModule -->
<g id="node3" class="node">
<title>ButtonConfigModule</title>
<polygon fill="#8dd3c7" stroke="black" points="429.06,-84.8 426.06,-88.8 405.06,-88.8 402.06,-84.8 292.94,-84.8 292.94,-48.8 429.06,-48.8 429.06,-84.8"/>
<text text-anchor="middle" x="361" y="-62.6" font-family="Times,serif" font-size="14.00">ButtonConfigModule</text>
</g>
<!-- ButtonConfigModule&#45;&gt;TabButtonsModule -->
<g id="edge2" class="edge">
<title>ButtonConfigModule&#45;&gt;TabButtonsModule</title>
<path fill="none" stroke="black" d="M321.08,-84.91C321.08,-84.91 321.08,-103.79 321.08,-103.79"/>
<polygon fill="black" stroke="black" points="317.58,-103.79 321.08,-113.79 324.58,-103.79 317.58,-103.79"/>
</g>
<!-- SafeButtonModule -->
<g id="node4" class="node">
<title>SafeButtonModule</title>
<polygon fill="#8dd3c7" stroke="black" points="274.05,-84.8 271.05,-88.8 250.05,-88.8 247.05,-84.8 151.95,-84.8 151.95,-48.8 274.05,-48.8 274.05,-84.8"/>
<text text-anchor="middle" x="213" y="-62.6" font-family="Times,serif" font-size="14.00">SafeButtonModule</text>
</g>
<!-- SafeButtonModule&#45;&gt;TabButtonsModule -->
<g id="edge3" class="edge">
<title>SafeButtonModule&#45;&gt;TabButtonsModule</title>
<path fill="none" stroke="black" d="M249.42,-84.91C249.42,-84.91 249.42,-103.79 249.42,-103.79"/>
<polygon fill="black" stroke="black" points="245.92,-103.79 249.42,-113.79 252.92,-103.79 245.92,-103.79"/>
</g>
<!-- SafeIconModule -->
<g id="node5" class="node">
<title>SafeIconModule</title>
<polygon fill="#8dd3c7" stroke="black" points="133.8,-84.8 130.8,-88.8 109.8,-88.8 106.8,-84.8 24.2,-84.8 24.2,-48.8 133.8,-48.8 133.8,-84.8"/>
<text text-anchor="middle" x="79" y="-62.6" font-family="Times,serif" font-size="14.00">SafeIconModule</text>
</g>
<!-- SafeIconModule&#45;&gt;TabButtonsModule -->
<g id="edge4" class="edge">
<title>SafeIconModule&#45;&gt;TabButtonsModule</title>
<path fill="none" stroke="black" d="M79,-84.91C79,-104.14 79,-131.8 79,-131.8 79,-131.8 214.59,-131.8 214.59,-131.8"/>
<polygon fill="black" stroke="black" points="214.59,-135.3 224.59,-131.8 214.59,-128.3 214.59,-135.3"/>
</g>
</g>
</svg>
