<?xml version="1.0" encoding="UTF-8" standalone="no"?>
<!DOCTYPE svg PUBLIC "-//W3C//DTD SVG 1.1//EN"
 "http://www.w3.org/Graphics/SVG/1.1/DTD/svg11.dtd">
<!-- Generated by graphviz version 3.0.0 (20220226.1711)
 -->
<!-- Title: dependencies Pages: 1 -->
<svg width="631pt" height="247pt"
 viewBox="0.00 0.00 631.00 246.80" xmlns="http://www.w3.org/2000/svg" xmlns:xlink="http://www.w3.org/1999/xlink">
<g id="graph0" class="graph" transform="scale(1 1) rotate(0) translate(4 242.8)">
<title>dependencies</title>
<polygon fill="white" stroke="transparent" points="-4,4 -4,-242.8 627,-242.8 627,4 -4,4"/>
<text text-anchor="middle" x="311.5" y="-8.2" font-family="sans-serif" font-size="14.00">dependencies</text>
<g id="clust1" class="cluster">
<title>cluster_TabButtonsModule</title>
<polygon fill="none" stroke="black" stroke-dasharray="1,5" points="8,-32.8 8,-230.8 615,-230.8 615,-32.8 8,-32.8"/>
</g>
<g id="clust4" class="cluster">
<title>cluster_TabButtonsModule_imports</title>
<polygon fill="none" stroke="black" points="186,-40.8 186,-92.8 607,-92.8 607,-40.8 186,-40.8"/>
</g>
<g id="clust5" class="cluster">
<title>cluster_TabButtonsModule_exports</title>
<polygon fill="none" stroke="black" points="233,-170.8 233,-222.8 399,-222.8 399,-170.8 233,-170.8"/>
</g>
<g id="clust2" class="cluster">
<title>cluster_TabButtonsModule_declarations</title>
<polygon fill="none" stroke="black" points="16,-40.8 16,-92.8 178,-92.8 178,-40.8 16,-40.8"/>
</g>
<!-- TabButtonsComponent -->
<g id="node1" class="node">
<title>TabButtonsComponent</title>
<polygon fill="#ffffb3" stroke="black" points="170.16,-84.8 23.84,-84.8 23.84,-48.8 170.16,-48.8 170.16,-84.8"/>
<text text-anchor="middle" x="97" y="-62.6" font-family="Times,serif" font-size="14.00">TabButtonsComponent</text>
</g>
<!-- TabButtonsModule -->
<g id="node2" class="node">
<title>TabButtonsModule</title>
<polygon fill="#8dd3c7" stroke="black" points="378.38,-149.8 375.38,-153.8 354.38,-153.8 351.38,-149.8 253.62,-149.8 253.62,-113.8 378.38,-113.8 378.38,-149.8"/>
<text text-anchor="middle" x="316" y="-127.6" font-family="Times,serif" font-size="14.00">TabButtonsModule</text>
</g>
<!-- TabButtonsComponent&#45;&gt;TabButtonsModule -->
<g id="edge1" class="edge">
<title>TabButtonsComponent&#45;&gt;TabButtonsModule</title>
<path fill="none" stroke="black" d="M97,-84.91C97,-104.14 97,-131.8 97,-131.8 97,-131.8 243.54,-131.8 243.54,-131.8"/>
<polygon fill="black" stroke="black" points="243.54,-135.3 253.54,-131.8 243.54,-128.3 243.54,-135.3"/>
</g>
<!-- TabButtonsComponent  -->
<g id="node6" class="node">
<title>TabButtonsComponent </title>
<polygon fill="#fb8072" stroke="black" points="391.16,-214.8 240.84,-214.8 240.84,-178.8 391.16,-178.8 391.16,-214.8"/>
<text text-anchor="middle" x="316" y="-192.6" font-family="Times,serif" font-size="14.00">TabButtonsComponent </text>
</g>
<!-- TabButtonsModule&#45;&gt;TabButtonsComponent  -->
<g id="edge5" class="edge">
<title>TabButtonsModule&#45;&gt;TabButtonsComponent </title>
<path fill="none" stroke="black" stroke-dasharray="5,2" d="M316,-149.91C316,-149.91 316,-168.79 316,-168.79"/>
<polygon fill="black" stroke="black" points="312.5,-168.79 316,-178.79 319.5,-168.79 312.5,-168.79"/>
</g>
<!-- ButtonConfigModule -->
<g id="node3" class="node">
<title>ButtonConfigModule</title>
<polygon fill="#8dd3c7" stroke="black" points="599.06,-84.8 596.06,-88.8 575.06,-88.8 572.06,-84.8 462.94,-84.8 462.94,-48.8 599.06,-48.8 599.06,-84.8"/>
<text text-anchor="middle" x="531" y="-62.6" font-family="Times,serif" font-size="14.00">ButtonConfigModule</text>
</g>
<!-- ButtonConfigModule&#45;&gt;TabButtonsModule -->
<g id="edge2" class="edge">
<title>ButtonConfigModule&#45;&gt;TabButtonsModule</title>
<path fill="none" stroke="black" d="M531,-84.91C531,-104.14 531,-131.8 531,-131.8 531,-131.8 388.48,-131.8 388.48,-131.8"/>
<polygon fill="black" stroke="black" points="388.48,-128.3 378.48,-131.8 388.48,-135.3 388.48,-128.3"/>
</g>
<!-- SafeButtonModule -->
<g id="node4" class="node">
<title>SafeButtonModule</title>
<polygon fill="#8dd3c7" stroke="black" points="444.05,-84.8 441.05,-88.8 420.05,-88.8 417.05,-84.8 321.95,-84.8 321.95,-48.8 444.05,-48.8 444.05,-84.8"/>
<text text-anchor="middle" x="383" y="-62.6" font-family="Times,serif" font-size="14.00">SafeButtonModule</text>
</g>
<!-- SafeButtonModule&#45;&gt;TabButtonsModule -->
<g id="edge3" class="edge">
<title>SafeButtonModule&#45;&gt;TabButtonsModule</title>
<path fill="none" stroke="black" d="M350.08,-84.91C350.08,-84.91 350.08,-103.79 350.08,-103.79"/>
<polygon fill="black" stroke="black" points="346.58,-103.79 350.08,-113.79 353.58,-103.79 346.58,-103.79"/>
</g>
<!-- SafeIconModule -->
<g id="node5" class="node">
<title>SafeIconModule</title>
<polygon fill="#8dd3c7" stroke="black" points="303.8,-84.8 300.8,-88.8 279.8,-88.8 276.8,-84.8 194.2,-84.8 194.2,-48.8 303.8,-48.8 303.8,-84.8"/>
<text text-anchor="middle" x="249" y="-62.6" font-family="Times,serif" font-size="14.00">SafeIconModule</text>
</g>
<!-- SafeIconModule&#45;&gt;TabButtonsModule -->
<g id="edge4" class="edge">
<title>SafeIconModule&#45;&gt;TabButtonsModule</title>
<path fill="none" stroke="black" d="M278.61,-84.91C278.61,-84.91 278.61,-103.79 278.61,-103.79"/>
<polygon fill="black" stroke="black" points="275.11,-103.79 278.61,-113.79 282.11,-103.79 275.11,-103.79"/>
</g>
</g>
</svg>
