<?xml version="1.0" encoding="UTF-8" standalone="no"?>
<!DOCTYPE svg PUBLIC "-//W3C//DTD SVG 1.1//EN"
 "http://www.w3.org/Graphics/SVG/1.1/DTD/svg11.dtd">
<!-- Generated by graphviz version 3.0.0 (20220226.1711)
 -->
<!-- Title: dependencies Pages: 1 -->
<svg width="418pt" height="247pt"
 viewBox="0.00 0.00 418.00 246.80" xmlns="http://www.w3.org/2000/svg" xmlns:xlink="http://www.w3.org/1999/xlink">
<g id="graph0" class="graph" transform="scale(1 1) rotate(0) translate(4 242.8)">
<title>dependencies</title>
<polygon fill="white" stroke="transparent" points="-4,4 -4,-242.8 414,-242.8 414,4 -4,4"/>
<text text-anchor="middle" x="205" y="-8.2" font-family="sans-serif" font-size="14.00">dependencies</text>
<g id="clust1" class="cluster">
<title>cluster_SafeMapSettingsModule</title>
<polygon fill="none" stroke="black" stroke-dasharray="1,5" points="8,-32.8 8,-230.8 402,-230.8 402,-32.8 8,-32.8"/>
</g>
<g id="clust5" class="cluster">
<title>cluster_SafeMapSettingsModule_exports</title>
<polygon fill="none" stroke="black" points="107,-170.8 107,-222.8 303,-222.8 303,-170.8 107,-170.8"/>
</g>
<g id="clust2" class="cluster">
<title>cluster_SafeMapSettingsModule_declarations</title>
<polygon fill="none" stroke="black" points="202,-40.8 202,-92.8 394,-92.8 394,-40.8 202,-40.8"/>
</g>
<g id="clust4" class="cluster">
<title>cluster_SafeMapSettingsModule_imports</title>
<polygon fill="none" stroke="black" points="16,-40.8 16,-92.8 194,-92.8 194,-40.8 16,-40.8"/>
</g>
<!-- SafeMapSettingsComponent -->
<g id="node1" class="node">
<title>SafeMapSettingsComponent</title>
<polygon fill="#ffffb3" stroke="black" points="386.49,-84.8 209.51,-84.8 209.51,-48.8 386.49,-48.8 386.49,-84.8"/>
<text text-anchor="middle" x="298" y="-62.6" font-family="Times,serif" font-size="14.00">SafeMapSettingsComponent</text>
</g>
<!-- SafeMapSettingsModule -->
<g id="node2" class="node">
<title>SafeMapSettingsModule</title>
<polygon fill="#8dd3c7" stroke="black" points="282.71,-149.8 279.71,-153.8 258.71,-153.8 255.71,-149.8 127.29,-149.8 127.29,-113.8 282.71,-113.8 282.71,-149.8"/>
<text text-anchor="middle" x="205" y="-127.6" font-family="Times,serif" font-size="14.00">SafeMapSettingsModule</text>
</g>
<!-- SafeMapSettingsComponent&#45;&gt;SafeMapSettingsModule -->
<g id="edge1" class="edge">
<title>SafeMapSettingsComponent&#45;&gt;SafeMapSettingsModule</title>
<path fill="none" stroke="black" d="M246.06,-84.91C246.06,-84.91 246.06,-103.79 246.06,-103.79"/>
<polygon fill="black" stroke="black" points="242.56,-103.79 246.06,-113.79 249.56,-103.79 242.56,-103.79"/>
</g>
<!-- SafeMapSettingsComponent  -->
<g id="node4" class="node">
<title>SafeMapSettingsComponent </title>
<polygon fill="#fb8072" stroke="black" points="295.49,-214.8 114.51,-214.8 114.51,-178.8 295.49,-178.8 295.49,-214.8"/>
<text text-anchor="middle" x="205" y="-192.6" font-family="Times,serif" font-size="14.00">SafeMapSettingsComponent </text>
</g>
<!-- SafeMapSettingsModule&#45;&gt;SafeMapSettingsComponent  -->
<g id="edge3" class="edge">
<title>SafeMapSettingsModule&#45;&gt;SafeMapSettingsComponent </title>
<path fill="none" stroke="black" stroke-dasharray="5,2" d="M205,-149.91C205,-149.91 205,-168.79 205,-168.79"/>
<polygon fill="black" stroke="black" points="201.5,-168.79 205,-178.79 208.5,-168.79 201.5,-168.79"/>
</g>
<!-- SafeQueryBuilderModule -->
<g id="node3" class="node">
<title>SafeQueryBuilderModule</title>
<polygon fill="#8dd3c7" stroke="black" points="185.91,-84.8 182.91,-88.8 161.91,-88.8 158.91,-84.8 24.09,-84.8 24.09,-48.8 185.91,-48.8 185.91,-84.8"/>
<text text-anchor="middle" x="105" y="-62.6" font-family="Times,serif" font-size="14.00">SafeQueryBuilderModule</text>
</g>
<!-- SafeQueryBuilderModule&#45;&gt;SafeMapSettingsModule -->
<g id="edge2" class="edge">
<title>SafeQueryBuilderModule&#45;&gt;SafeMapSettingsModule</title>
<path fill="none" stroke="black" d="M156.55,-84.91C156.55,-84.91 156.55,-103.79 156.55,-103.79"/>
<polygon fill="black" stroke="black" points="153.05,-103.79 156.55,-113.79 160.05,-103.79 153.05,-103.79"/>
</g>
</g>
</svg>
