<?xml version="1.0" encoding="UTF-8" standalone="no"?>
<!DOCTYPE svg PUBLIC "-//W3C//DTD SVG 1.1//EN"
 "http://www.w3.org/Graphics/SVG/1.1/DTD/svg11.dtd">
<!-- Generated by graphviz version 3.0.0 (20220226.1711)
 -->
<!-- Title: dependencies Pages: 1 -->
<svg width="454pt" height="247pt"
 viewBox="0.00 0.00 454.00 246.80" xmlns="http://www.w3.org/2000/svg" xmlns:xlink="http://www.w3.org/1999/xlink">
<g id="graph0" class="graph" transform="scale(1 1) rotate(0) translate(4 242.8)">
<title>dependencies</title>
<polygon fill="white" stroke="transparent" points="-4,4 -4,-242.8 450,-242.8 450,4 -4,4"/>
<text text-anchor="middle" x="223" y="-8.2" font-family="sans-serif" font-size="14.00">dependencies</text>
<g id="clust1" class="cluster">
<title>cluster_SafeEditCalculatedFieldModalModule</title>
<polygon fill="none" stroke="black" stroke-dasharray="1,5" points="8,-32.8 8,-230.8 438,-230.8 438,-32.8 8,-32.8"/>
</g>
<g id="clust4" class="cluster">
<title>cluster_SafeEditCalculatedFieldModalModule_imports</title>
<polygon fill="none" stroke="black" points="294,-40.8 294,-92.8 430,-92.8 430,-40.8 294,-40.8"/>
</g>
<g id="clust5" class="cluster">
<title>cluster_SafeEditCalculatedFieldModalModule_exports</title>
<polygon fill="none" stroke="black" points="86,-170.8 86,-222.8 360,-222.8 360,-170.8 86,-170.8"/>
</g>
<g id="clust2" class="cluster">
<title>cluster_SafeEditCalculatedFieldModalModule_declarations</title>
<polygon fill="none" stroke="black" points="16,-40.8 16,-92.8 286,-92.8 286,-40.8 16,-40.8"/>
</g>
<!-- SafeEditCalculatedFieldModalComponent -->
<g id="node1" class="node">
<title>SafeEditCalculatedFieldModalComponent</title>
<polygon fill="#ffffb3" stroke="black" points="278.23,-84.8 23.77,-84.8 23.77,-48.8 278.23,-48.8 278.23,-84.8"/>
<text text-anchor="middle" x="151" y="-62.6" font-family="Times,serif" font-size="14.00">SafeEditCalculatedFieldModalComponent</text>
</g>
<!-- SafeEditCalculatedFieldModalModule -->
<g id="node2" class="node">
<title>SafeEditCalculatedFieldModalModule</title>
<polygon fill="#8dd3c7" stroke="black" points="339.45,-149.8 336.45,-153.8 315.45,-153.8 312.45,-149.8 106.55,-149.8 106.55,-113.8 339.45,-113.8 339.45,-149.8"/>
<text text-anchor="middle" x="223" y="-127.6" font-family="Times,serif" font-size="14.00">SafeEditCalculatedFieldModalModule</text>
</g>
<!-- SafeEditCalculatedFieldModalComponent&#45;&gt;SafeEditCalculatedFieldModalModule -->
<g id="edge1" class="edge">
<title>SafeEditCalculatedFieldModalComponent&#45;&gt;SafeEditCalculatedFieldModalModule</title>
<path fill="none" stroke="black" d="M192.44,-84.91C192.44,-84.91 192.44,-103.79 192.44,-103.79"/>
<polygon fill="black" stroke="black" points="188.94,-103.79 192.44,-113.79 195.94,-103.79 188.94,-103.79"/>
</g>
<!-- SafeEditCalculatedFieldModalComponent  -->
<g id="node4" class="node">
<title>SafeEditCalculatedFieldModalComponent </title>
<polygon fill="#fb8072" stroke="black" points="352.23,-214.8 93.77,-214.8 93.77,-178.8 352.23,-178.8 352.23,-214.8"/>
<text text-anchor="middle" x="223" y="-192.6" font-family="Times,serif" font-size="14.00">SafeEditCalculatedFieldModalComponent </text>
</g>
<!-- SafeEditCalculatedFieldModalModule&#45;&gt;SafeEditCalculatedFieldModalComponent  -->
<g id="edge3" class="edge">
<title>SafeEditCalculatedFieldModalModule&#45;&gt;SafeEditCalculatedFieldModalComponent </title>
<path fill="none" stroke="black" stroke-dasharray="5,2" d="M223,-149.91C223,-149.91 223,-168.79 223,-168.79"/>
<polygon fill="black" stroke="black" points="219.5,-168.79 223,-178.79 226.5,-168.79 219.5,-168.79"/>
</g>
<!-- SafeModalModule -->
<g id="node3" class="node">
<title>SafeModalModule</title>
<polygon fill="#8dd3c7" stroke="black" points="422.48,-84.8 419.48,-88.8 398.48,-88.8 395.48,-84.8 301.52,-84.8 301.52,-48.8 422.48,-48.8 422.48,-84.8"/>
<text text-anchor="middle" x="362" y="-62.6" font-family="Times,serif" font-size="14.00">SafeModalModule</text>
</g>
<!-- SafeModalModule&#45;&gt;SafeEditCalculatedFieldModalModule -->
<g id="edge2" class="edge">
<title>SafeModalModule&#45;&gt;SafeEditCalculatedFieldModalModule</title>
<path fill="none" stroke="black" d="M320.49,-84.91C320.49,-84.91 320.49,-103.79 320.49,-103.79"/>
<polygon fill="black" stroke="black" points="316.99,-103.79 320.49,-113.79 323.99,-103.79 316.99,-103.79"/>
</g>
</g>
</svg>
