<?xml version="1.0" encoding="UTF-8" standalone="no"?>
<!DOCTYPE svg PUBLIC "-//W3C//DTD SVG 1.1//EN"
 "http://www.w3.org/Graphics/SVG/1.1/DTD/svg11.dtd">
<!-- Generated by graphviz version 3.0.0 (20220226.1711)
 -->
<!-- Title: dependencies Pages: 1 -->
<svg width="917pt" height="247pt"
 viewBox="0.00 0.00 917.00 246.80" xmlns="http://www.w3.org/2000/svg" xmlns:xlink="http://www.w3.org/1999/xlink">
<g id="graph0" class="graph" transform="scale(1 1) rotate(0) translate(4 242.8)">
<title>dependencies</title>
<polygon fill="white" stroke="transparent" points="-4,4 -4,-242.8 913,-242.8 913,4 -4,4"/>
<text text-anchor="middle" x="454.5" y="-8.2" font-family="sans-serif" font-size="14.00">dependencies</text>
<g id="clust1" class="cluster">
<title>cluster_ApplicationsModule</title>
<polygon fill="none" stroke="black" stroke-dasharray="1,5" points="8,-32.8 8,-230.8 901,-230.8 901,-32.8 8,-32.8"/>
</g>
<g id="clust6" class="cluster">
<title>cluster_ApplicationsModule_exports</title>
<polygon fill="none" stroke="black" points="374,-170.8 374,-222.8 546,-222.8 546,-170.8 374,-170.8"/>
</g>
<g id="clust2" class="cluster">
<title>cluster_ApplicationsModule_declarations</title>
<polygon fill="none" stroke="black" points="564,-40.8 564,-92.8 893,-92.8 893,-40.8 564,-40.8"/>
</g>
<g id="clust5" class="cluster">
<title>cluster_ApplicationsModule_imports</title>
<polygon fill="none" stroke="black" points="16,-40.8 16,-92.8 556,-92.8 556,-40.8 16,-40.8"/>
</g>
<!-- ApplicationsComponent -->
<g id="node1" class="node">
<title>ApplicationsComponent</title>
<polygon fill="#ffffb3" stroke="black" points="885.38,-84.8 732.62,-84.8 732.62,-48.8 885.38,-48.8 885.38,-84.8"/>
<text text-anchor="middle" x="809" y="-62.6" font-family="Times,serif" font-size="14.00">ApplicationsComponent</text>
</g>
<!-- ApplicationsModule -->
<g id="node3" class="node">
<title>ApplicationsModule</title>
<polygon fill="#8dd3c7" stroke="black" points="525.6,-149.8 522.6,-153.8 501.6,-153.8 498.6,-149.8 394.4,-149.8 394.4,-113.8 525.6,-113.8 525.6,-149.8"/>
<text text-anchor="middle" x="460" y="-127.6" font-family="Times,serif" font-size="14.00">ApplicationsModule</text>
</g>
<!-- ApplicationsComponent&#45;&gt;ApplicationsModule -->
<g id="edge1" class="edge">
<title>ApplicationsComponent&#45;&gt;ApplicationsModule</title>
<path fill="none" stroke="black" d="M809,-85.08C809,-106.12 809,-137.8 809,-137.8 809,-137.8 535.64,-137.8 535.64,-137.8"/>
<polygon fill="black" stroke="black" points="535.64,-134.3 525.64,-137.8 535.64,-141.3 535.64,-134.3"/>
</g>
<!-- ChoseRoleComponent -->
<g id="node2" class="node">
<title>ChoseRoleComponent</title>
<polygon fill="#ffffb3" stroke="black" points="714.27,-84.8 571.73,-84.8 571.73,-48.8 714.27,-48.8 714.27,-84.8"/>
<text text-anchor="middle" x="643" y="-62.6" font-family="Times,serif" font-size="14.00">ChoseRoleComponent</text>
</g>
<!-- ChoseRoleComponent&#45;&gt;ApplicationsModule -->
<g id="edge2" class="edge">
<title>ChoseRoleComponent&#45;&gt;ApplicationsModule</title>
<path fill="none" stroke="black" d="M643,-84.82C643,-102.17 643,-125.8 643,-125.8 643,-125.8 535.55,-125.8 535.55,-125.8"/>
<polygon fill="black" stroke="black" points="535.55,-122.3 525.55,-125.8 535.55,-129.3 535.55,-122.3"/>
</g>
<!-- ApplicationsComponent  -->
<g id="node7" class="node">
<title>ApplicationsComponent </title>
<polygon fill="#fb8072" stroke="black" points="538.38,-214.8 381.62,-214.8 381.62,-178.8 538.38,-178.8 538.38,-214.8"/>
<text text-anchor="middle" x="460" y="-192.6" font-family="Times,serif" font-size="14.00">ApplicationsComponent </text>
</g>
<!-- ApplicationsModule&#45;&gt;ApplicationsComponent  -->
<g id="edge6" class="edge">
<title>ApplicationsModule&#45;&gt;ApplicationsComponent </title>
<path fill="none" stroke="black" stroke-dasharray="5,2" d="M460,-149.91C460,-149.91 460,-168.79 460,-168.79"/>
<polygon fill="black" stroke="black" points="456.5,-168.79 460,-178.79 463.5,-168.79 456.5,-168.79"/>
</g>
<!-- ApplicationsRoutingModule -->
<g id="node4" class="node">
<title>ApplicationsRoutingModule</title>
<polygon fill="#8dd3c7" stroke="black" points="548.21,-84.8 545.21,-88.8 524.21,-88.8 521.21,-84.8 371.79,-84.8 371.79,-48.8 548.21,-48.8 548.21,-84.8"/>
<text text-anchor="middle" x="460" y="-62.6" font-family="Times,serif" font-size="14.00">ApplicationsRoutingModule</text>
</g>
<!-- ApplicationsRoutingModule&#45;&gt;ApplicationsModule -->
<g id="edge3" class="edge">
<title>ApplicationsRoutingModule&#45;&gt;ApplicationsModule</title>
<path fill="none" stroke="black" d="M460,-84.91C460,-84.91 460,-103.79 460,-103.79"/>
<polygon fill="black" stroke="black" points="456.5,-103.79 460,-113.79 463.5,-103.79 456.5,-103.79"/>
</g>
<!-- DuplicateApplicationModalModule -->
<g id="node5" class="node">
<title>DuplicateApplicationModalModule</title>
<polygon fill="#8dd3c7" stroke="black" points="354.12,-84.8 351.12,-88.8 330.12,-88.8 327.12,-84.8 137.88,-84.8 137.88,-48.8 354.12,-48.8 354.12,-84.8"/>
<text text-anchor="middle" x="246" y="-62.6" font-family="Times,serif" font-size="14.00">DuplicateApplicationModalModule</text>
</g>
<!-- DuplicateApplicationModalModule&#45;&gt;ApplicationsModule -->
<g id="edge4" class="edge">
<title>DuplicateApplicationModalModule&#45;&gt;ApplicationsModule</title>
<path fill="none" stroke="black" d="M246,-84.82C246,-102.17 246,-125.8 246,-125.8 246,-125.8 384.34,-125.8 384.34,-125.8"/>
<polygon fill="black" stroke="black" points="384.34,-129.3 394.34,-125.8 384.34,-122.3 384.34,-129.3"/>
</g>
<!-- FormsModule -->
<g id="node6" class="node">
<title>FormsModule</title>
<polygon fill="#8dd3c7" stroke="black" points="119.84,-84.8 116.84,-88.8 95.84,-88.8 92.84,-84.8 24.16,-84.8 24.16,-48.8 119.84,-48.8 119.84,-84.8"/>
<text text-anchor="middle" x="72" y="-62.6" font-family="Times,serif" font-size="14.00">FormsModule</text>
</g>
<!-- FormsModule&#45;&gt;ApplicationsModule -->
<g id="edge5" class="edge">
<title>FormsModule&#45;&gt;ApplicationsModule</title>
<path fill="none" stroke="black" d="M72,-85.08C72,-106.12 72,-137.8 72,-137.8 72,-137.8 384.18,-137.8 384.18,-137.8"/>
<polygon fill="black" stroke="black" points="384.18,-141.3 394.18,-137.8 384.18,-134.3 384.18,-141.3"/>
</g>
</g>
</svg>
