<?xml version="1.0" encoding="UTF-8" standalone="no"?>
<!DOCTYPE svg PUBLIC "-//W3C//DTD SVG 1.1//EN"
 "http://www.w3.org/Graphics/SVG/1.1/DTD/svg11.dtd">
<!-- Generated by graphviz version 3.0.0 (20220226.1711)
 -->
<!-- Title: dependencies Pages: 1 -->
<svg width="482pt" height="247pt"
 viewBox="0.00 0.00 482.00 246.80" xmlns="http://www.w3.org/2000/svg" xmlns:xlink="http://www.w3.org/1999/xlink">
<g id="graph0" class="graph" transform="scale(1 1) rotate(0) translate(4 242.8)">
<title>dependencies</title>
<polygon fill="white" stroke="transparent" points="-4,4 -4,-242.8 478,-242.8 478,4 -4,4"/>
<text text-anchor="middle" x="237" y="-8.2" font-family="sans-serif" font-size="14.00">dependencies</text>
<g id="clust1" class="cluster">
<title>cluster_MapPropertiesModule</title>
<polygon fill="none" stroke="black" stroke-dasharray="1,5" points="8,-32.8 8,-230.8 466,-230.8 466,-32.8 8,-32.8"/>
</g>
<g id="clust4" class="cluster">
<title>cluster_MapPropertiesModule_imports</title>
<polygon fill="none" stroke="black" points="204,-40.8 204,-92.8 458,-92.8 458,-40.8 204,-40.8"/>
</g>
<g id="clust2" class="cluster">
<title>cluster_MapPropertiesModule_declarations</title>
<polygon fill="none" stroke="black" points="16,-40.8 16,-92.8 196,-92.8 196,-40.8 16,-40.8"/>
</g>
<g id="clust5" class="cluster">
<title>cluster_MapPropertiesModule_exports</title>
<polygon fill="none" stroke="black" points="175,-170.8 175,-222.8 359,-222.8 359,-170.8 175,-170.8"/>
</g>
<!-- MapPropertiesComponent -->
<g id="node1" class="node">
<title>MapPropertiesComponent</title>
<polygon fill="#ffffb3" stroke="black" points="187.76,-84.8 24.24,-84.8 24.24,-48.8 187.76,-48.8 187.76,-84.8"/>
<text text-anchor="middle" x="106" y="-62.6" font-family="Times,serif" font-size="14.00">MapPropertiesComponent</text>
</g>
<!-- MapPropertiesModule -->
<g id="node2" class="node">
<title>MapPropertiesModule</title>
<polygon fill="#8dd3c7" stroke="black" points="337.98,-149.8 334.98,-153.8 313.98,-153.8 310.98,-149.8 196.02,-149.8 196.02,-113.8 337.98,-113.8 337.98,-149.8"/>
<text text-anchor="middle" x="267" y="-127.6" font-family="Times,serif" font-size="14.00">MapPropertiesModule</text>
</g>
<!-- MapPropertiesComponent&#45;&gt;MapPropertiesModule -->
<g id="edge1" class="edge">
<title>MapPropertiesComponent&#45;&gt;MapPropertiesModule</title>
<path fill="none" stroke="black" d="M187.8,-66.8C197.47,-66.8 203.98,-66.8 203.98,-66.8 203.98,-66.8 203.98,-103.69 203.98,-103.69"/>
<polygon fill="black" stroke="black" points="200.48,-103.69 203.98,-113.69 207.48,-103.69 200.48,-103.69"/>
</g>
<!-- MapPropertiesComponent  -->
<g id="node5" class="node">
<title>MapPropertiesComponent </title>
<polygon fill="#fb8072" stroke="black" points="350.76,-214.8 183.24,-214.8 183.24,-178.8 350.76,-178.8 350.76,-214.8"/>
<text text-anchor="middle" x="267" y="-192.6" font-family="Times,serif" font-size="14.00">MapPropertiesComponent </text>
</g>
<!-- MapPropertiesModule&#45;&gt;MapPropertiesComponent  -->
<g id="edge4" class="edge">
<title>MapPropertiesModule&#45;&gt;MapPropertiesComponent </title>
<path fill="none" stroke="black" stroke-dasharray="5,2" d="M267,-149.91C267,-149.91 267,-168.79 267,-168.79"/>
<polygon fill="black" stroke="black" points="263.5,-168.79 267,-178.79 270.5,-168.79 263.5,-168.79"/>
</g>
<!-- SafeIconModule -->
<g id="node3" class="node">
<title>SafeIconModule</title>
<polygon fill="#8dd3c7" stroke="black" points="449.8,-84.8 446.8,-88.8 425.8,-88.8 422.8,-84.8 340.2,-84.8 340.2,-48.8 449.8,-48.8 449.8,-84.8"/>
<text text-anchor="middle" x="395" y="-62.6" font-family="Times,serif" font-size="14.00">SafeIconModule</text>
</g>
<!-- SafeIconModule&#45;&gt;MapPropertiesModule -->
<g id="edge2" class="edge">
<title>SafeIconModule&#45;&gt;MapPropertiesModule</title>
<path fill="none" stroke="black" d="M345.49,-84.91C345.49,-104.14 345.49,-131.8 345.49,-131.8 345.49,-131.8 344.76,-131.8 344.76,-131.8"/>
<polygon fill="black" stroke="black" points="348.25,-128.3 338.25,-131.8 348.25,-135.3 348.25,-128.3"/>
</g>
<!-- SafeMapModule -->
<g id="node4" class="node">
<title>SafeMapModule</title>
<polygon fill="#8dd3c7" stroke="black" points="322.09,-84.8 319.09,-88.8 298.09,-88.8 295.09,-84.8 211.91,-84.8 211.91,-48.8 322.09,-48.8 322.09,-84.8"/>
<text text-anchor="middle" x="267" y="-62.6" font-family="Times,serif" font-size="14.00">SafeMapModule</text>
</g>
<!-- SafeMapModule&#45;&gt;MapPropertiesModule -->
<g id="edge3" class="edge">
<title>SafeMapModule&#45;&gt;MapPropertiesModule</title>
<path fill="none" stroke="black" d="M267,-84.91C267,-84.91 267,-103.79 267,-103.79"/>
<polygon fill="black" stroke="black" points="263.5,-103.79 267,-113.79 270.5,-103.79 263.5,-103.79"/>
</g>
</g>
</svg>
