<?xml version="1.0" encoding="UTF-8" standalone="no"?>
<!DOCTYPE svg PUBLIC "-//W3C//DTD SVG 1.1//EN"
 "http://www.w3.org/Graphics/SVG/1.1/DTD/svg11.dtd">
<!-- Generated by graphviz version 3.0.0 (20220226.1711)
 -->
<!-- Title: dependencies Pages: 1 -->
<svg width="482pt" height="247pt"
 viewBox="0.00 0.00 482.00 246.80" xmlns="http://www.w3.org/2000/svg" xmlns:xlink="http://www.w3.org/1999/xlink">
<g id="graph0" class="graph" transform="scale(1 1) rotate(0) translate(4 242.8)">
<title>dependencies</title>
<polygon fill="white" stroke="transparent" points="-4,4 -4,-242.8 478,-242.8 478,4 -4,4"/>
<text text-anchor="middle" x="237" y="-8.2" font-family="sans-serif" font-size="14.00">dependencies</text>
<g id="clust1" class="cluster">
<title>cluster_MapPropertiesModule</title>
<polygon fill="none" stroke="black" stroke-dasharray="1,5" points="8,-32.8 8,-230.8 466,-230.8 466,-32.8 8,-32.8"/>
</g>
<g id="clust2" class="cluster">
<title>cluster_MapPropertiesModule_declarations</title>
<polygon fill="none" stroke="black" points="278,-40.8 278,-92.8 458,-92.8 458,-40.8 278,-40.8"/>
</g>
<g id="clust4" class="cluster">
<title>cluster_MapPropertiesModule_imports</title>
<polygon fill="none" stroke="black" points="16,-40.8 16,-92.8 270,-92.8 270,-40.8 16,-40.8"/>
</g>
<g id="clust5" class="cluster">
<title>cluster_MapPropertiesModule_exports</title>
<polygon fill="none" stroke="black" points="115,-170.8 115,-222.8 299,-222.8 299,-170.8 115,-170.8"/>
</g>
<!-- MapPropertiesComponent -->
<g id="node1" class="node">
<title>MapPropertiesComponent</title>
<polygon fill="#ffffb3" stroke="black" points="449.76,-84.8 286.24,-84.8 286.24,-48.8 449.76,-48.8 449.76,-84.8"/>
<text text-anchor="middle" x="368" y="-62.6" font-family="Times,serif" font-size="14.00">MapPropertiesComponent</text>
</g>
<!-- MapPropertiesModule -->
<g id="node2" class="node">
<title>MapPropertiesModule</title>
<polygon fill="#8dd3c7" stroke="black" points="277.98,-149.8 274.98,-153.8 253.98,-153.8 250.98,-149.8 136.02,-149.8 136.02,-113.8 277.98,-113.8 277.98,-149.8"/>
<text text-anchor="middle" x="207" y="-127.6" font-family="Times,serif" font-size="14.00">MapPropertiesModule</text>
</g>
<!-- MapPropertiesComponent&#45;&gt;MapPropertiesModule -->
<g id="edge1" class="edge">
<title>MapPropertiesComponent&#45;&gt;MapPropertiesModule</title>
<path fill="none" stroke="black" d="M286.03,-66.8C276.35,-66.8 269.82,-66.8 269.82,-66.8 269.82,-66.8 269.82,-103.69 269.82,-103.69"/>
<polygon fill="black" stroke="black" points="266.32,-103.69 269.82,-113.69 273.32,-103.69 266.32,-103.69"/>
</g>
<!-- MapPropertiesComponent  -->
<g id="node5" class="node">
<title>MapPropertiesComponent </title>
<polygon fill="#fb8072" stroke="black" points="290.76,-214.8 123.24,-214.8 123.24,-178.8 290.76,-178.8 290.76,-214.8"/>
<text text-anchor="middle" x="207" y="-192.6" font-family="Times,serif" font-size="14.00">MapPropertiesComponent </text>
</g>
<!-- MapPropertiesModule&#45;&gt;MapPropertiesComponent  -->
<g id="edge4" class="edge">
<title>MapPropertiesModule&#45;&gt;MapPropertiesComponent </title>
<path fill="none" stroke="black" stroke-dasharray="5,2" d="M207,-149.91C207,-149.91 207,-168.79 207,-168.79"/>
<polygon fill="black" stroke="black" points="203.5,-168.79 207,-178.79 210.5,-168.79 203.5,-168.79"/>
</g>
<!-- SafeIconModule -->
<g id="node3" class="node">
<title>SafeIconModule</title>
<polygon fill="#8dd3c7" stroke="black" points="261.8,-84.8 258.8,-88.8 237.8,-88.8 234.8,-84.8 152.2,-84.8 152.2,-48.8 261.8,-48.8 261.8,-84.8"/>
<text text-anchor="middle" x="207" y="-62.6" font-family="Times,serif" font-size="14.00">SafeIconModule</text>
</g>
<!-- SafeIconModule&#45;&gt;MapPropertiesModule -->
<g id="edge2" class="edge">
<title>SafeIconModule&#45;&gt;MapPropertiesModule</title>
<path fill="none" stroke="black" d="M207,-84.91C207,-84.91 207,-103.79 207,-103.79"/>
<polygon fill="black" stroke="black" points="203.5,-103.79 207,-113.79 210.5,-103.79 203.5,-103.79"/>
</g>
<!-- SafeMapModule -->
<g id="node4" class="node">
<title>SafeMapModule</title>
<polygon fill="#8dd3c7" stroke="black" points="134.09,-84.8 131.09,-88.8 110.09,-88.8 107.09,-84.8 23.91,-84.8 23.91,-48.8 134.09,-48.8 134.09,-84.8"/>
<text text-anchor="middle" x="79" y="-62.6" font-family="Times,serif" font-size="14.00">SafeMapModule</text>
</g>
<!-- SafeMapModule&#45;&gt;MapPropertiesModule -->
<g id="edge3" class="edge">
<title>SafeMapModule&#45;&gt;MapPropertiesModule</title>
<path fill="none" stroke="black" d="M128.71,-84.91C128.71,-104.14 128.71,-131.8 128.71,-131.8 128.71,-131.8 129.43,-131.8 129.43,-131.8"/>
<polygon fill="black" stroke="black" points="125.93,-135.3 135.93,-131.8 125.93,-128.3 125.93,-135.3"/>
</g>
</g>
</svg>
