<?xml version="1.0" encoding="UTF-8" standalone="no"?>
<!DOCTYPE svg PUBLIC "-//W3C//DTD SVG 1.1//EN"
 "http://www.w3.org/Graphics/SVG/1.1/DTD/svg11.dtd">
<!-- Generated by graphviz version 3.0.0 (20220226.1711)
 -->
<!-- Title: dependencies Pages: 1 -->
<svg width="699pt" height="247pt"
 viewBox="0.00 0.00 699.00 246.80" xmlns="http://www.w3.org/2000/svg" xmlns:xlink="http://www.w3.org/1999/xlink">
<g id="graph0" class="graph" transform="scale(1 1) rotate(0) translate(4 242.8)">
<title>dependencies</title>
<polygon fill="white" stroke="transparent" points="-4,4 -4,-242.8 695,-242.8 695,4 -4,4"/>
<text text-anchor="middle" x="345.5" y="-8.2" font-family="sans-serif" font-size="14.00">dependencies</text>
<g id="clust1" class="cluster">
<title>cluster_ApiConfigurationsModule</title>
<polygon fill="none" stroke="black" stroke-dasharray="1,5" points="8,-32.8 8,-230.8 683,-230.8 683,-32.8 8,-32.8"/>
</g>
<g id="clust2" class="cluster">
<title>cluster_ApiConfigurationsModule_declarations</title>
<polygon fill="none" stroke="black" points="250,-40.8 250,-92.8 675,-92.8 675,-40.8 250,-40.8"/>
</g>
<g id="clust6" class="cluster">
<title>cluster_ApiConfigurationsModule_exports</title>
<polygon fill="none" stroke="black" points="248,-170.8 248,-222.8 454,-222.8 454,-170.8 248,-170.8"/>
</g>
<g id="clust5" class="cluster">
<title>cluster_ApiConfigurationsModule_imports</title>
<polygon fill="none" stroke="black" points="16,-40.8 16,-92.8 242,-92.8 242,-40.8 16,-40.8"/>
</g>
<!-- AddApiConfigurationComponent -->
<g id="node1" class="node">
<title>AddApiConfigurationComponent</title>
<polygon fill="#ffffb3" stroke="black" points="667.49,-84.8 462.51,-84.8 462.51,-48.8 667.49,-48.8 667.49,-84.8"/>
<text text-anchor="middle" x="565" y="-62.6" font-family="Times,serif" font-size="14.00">AddApiConfigurationComponent</text>
</g>
<!-- ApiConfigurationsModule -->
<g id="node3" class="node">
<title>ApiConfigurationsModule</title>
<polygon fill="#8dd3c7" stroke="black" points="433.05,-149.8 430.05,-153.8 409.05,-153.8 406.05,-149.8 268.95,-149.8 268.95,-113.8 433.05,-113.8 433.05,-149.8"/>
<text text-anchor="middle" x="351" y="-127.6" font-family="Times,serif" font-size="14.00">ApiConfigurationsModule</text>
</g>
<!-- AddApiConfigurationComponent&#45;&gt;ApiConfigurationsModule -->
<g id="edge1" class="edge">
<title>AddApiConfigurationComponent&#45;&gt;ApiConfigurationsModule</title>
<path fill="none" stroke="black" d="M565,-84.91C565,-104.14 565,-131.8 565,-131.8 565,-131.8 443.13,-131.8 443.13,-131.8"/>
<polygon fill="black" stroke="black" points="443.13,-128.3 433.13,-131.8 443.13,-135.3 443.13,-128.3"/>
</g>
<!-- ApiConfigurationsComponent -->
<g id="node2" class="node">
<title>ApiConfigurationsComponent</title>
<polygon fill="#ffffb3" stroke="black" points="444.32,-84.8 257.68,-84.8 257.68,-48.8 444.32,-48.8 444.32,-84.8"/>
<text text-anchor="middle" x="351" y="-62.6" font-family="Times,serif" font-size="14.00">ApiConfigurationsComponent</text>
</g>
<!-- ApiConfigurationsComponent&#45;&gt;ApiConfigurationsModule -->
<g id="edge2" class="edge">
<title>ApiConfigurationsComponent&#45;&gt;ApiConfigurationsModule</title>
<path fill="none" stroke="black" d="M351,-84.91C351,-84.91 351,-103.79 351,-103.79"/>
<polygon fill="black" stroke="black" points="347.5,-103.79 351,-113.79 354.5,-103.79 347.5,-103.79"/>
</g>
<!-- ApiConfigurationsComponent  -->
<g id="node5" class="node">
<title>ApiConfigurationsComponent </title>
<polygon fill="#fb8072" stroke="black" points="445.82,-214.8 256.18,-214.8 256.18,-178.8 445.82,-178.8 445.82,-214.8"/>
<text text-anchor="middle" x="351" y="-192.6" font-family="Times,serif" font-size="14.00">ApiConfigurationsComponent </text>
</g>
<!-- ApiConfigurationsModule&#45;&gt;ApiConfigurationsComponent  -->
<g id="edge4" class="edge">
<title>ApiConfigurationsModule&#45;&gt;ApiConfigurationsComponent </title>
<path fill="none" stroke="black" stroke-dasharray="5,2" d="M351,-149.91C351,-149.91 351,-168.79 351,-168.79"/>
<polygon fill="black" stroke="black" points="347.5,-168.79 351,-178.79 354.5,-168.79 347.5,-168.79"/>
</g>
<!-- ApiConfigurationsRoutingModule -->
<g id="node4" class="node">
<title>ApiConfigurationsRoutingModule</title>
<polygon fill="#8dd3c7" stroke="black" points="233.66,-84.8 230.66,-88.8 209.66,-88.8 206.66,-84.8 24.34,-84.8 24.34,-48.8 233.66,-48.8 233.66,-84.8"/>
<text text-anchor="middle" x="129" y="-62.6" font-family="Times,serif" font-size="14.00">ApiConfigurationsRoutingModule</text>
</g>
<!-- ApiConfigurationsRoutingModule&#45;&gt;ApiConfigurationsModule -->
<g id="edge3" class="edge">
<title>ApiConfigurationsRoutingModule&#45;&gt;ApiConfigurationsModule</title>
<path fill="none" stroke="black" d="M129,-84.91C129,-104.14 129,-131.8 129,-131.8 129,-131.8 258.65,-131.8 258.65,-131.8"/>
<polygon fill="black" stroke="black" points="258.65,-135.3 268.65,-131.8 258.65,-128.3 258.65,-135.3"/>
</g>
</g>
</svg>
