<?xml version="1.0" encoding="UTF-8" standalone="no"?>
<!DOCTYPE svg PUBLIC "-//W3C//DTD SVG 1.1//EN"
 "http://www.w3.org/Graphics/SVG/1.1/DTD/svg11.dtd">
<!-- Generated by graphviz version 2.47.0 (20210316.0004)
 -->
<!-- Title: dependencies Pages: 1 -->
<svg width="922pt" height="284pt"
 viewBox="0.00 0.00 922.00 284.00" xmlns="http://www.w3.org/2000/svg" xmlns:xlink="http://www.w3.org/1999/xlink">
<g id="graph0" class="graph" transform="scale(1 1) rotate(0) translate(4 280)">
<title>dependencies</title>
<polygon fill="white" stroke="transparent" points="-4,4 -4,-280 918,-280 918,4 -4,4"/>
<text text-anchor="start" x="436.01" y="-42.4" font-family="sans-serif" font-weight="bold" font-size="14.00">Legend</text>
<polygon fill="#ffffb3" stroke="transparent" points="223,-10 223,-30 243,-30 243,-10 223,-10"/>
<text text-anchor="start" x="246.63" y="-15.4" font-family="sans-serif" font-size="14.00"> &#160;Declarations</text>
<polygon fill="#8dd3c7" stroke="transparent" points="336,-10 336,-30 356,-30 356,-10 336,-10"/>
<text text-anchor="start" x="359.73" y="-15.4" font-family="sans-serif" font-size="14.00"> &#160;Module</text>
<polygon fill="#80b1d3" stroke="transparent" points="422,-10 422,-30 442,-30 442,-10 422,-10"/>
<text text-anchor="start" x="445.78" y="-15.4" font-family="sans-serif" font-size="14.00"> &#160;Bootstrap</text>
<polygon fill="#fdb462" stroke="transparent" points="519,-10 519,-30 539,-30 539,-10 519,-10"/>
<text text-anchor="start" x="542.67" y="-15.4" font-family="sans-serif" font-size="14.00"> &#160;Providers</text>
<polygon fill="#fb8072" stroke="transparent" points="615,-10 615,-30 635,-30 635,-10 615,-10"/>
<text text-anchor="start" x="638.73" y="-15.4" font-family="sans-serif" font-size="14.00"> &#160;Exports</text>
<g id="clust1" class="cluster">
<title>cluster_SafeFormModalModule</title>
<polygon fill="none" stroke="black" stroke-dasharray="1,5" points="8,-70 8,-268 906,-268 906,-70 8,-70"/>
</g>
<g id="clust2" class="cluster">
<title>cluster_SafeFormModalModule_declarations</title>
<polygon fill="none" stroke="black" points="708,-78 708,-130 898,-130 898,-78 708,-78"/>
</g>
<g id="clust5" class="cluster">
<title>cluster_SafeFormModalModule_exports</title>
<polygon fill="none" stroke="black" points="401,-208 401,-260 593,-260 593,-208 401,-208"/>
</g>
<g id="clust4" class="cluster">
<title>cluster_SafeFormModalModule_imports</title>
<polygon fill="none" stroke="black" points="16,-78 16,-130 700,-130 700,-78 16,-78"/>
</g>
<!-- SafeFormModalComponent -->
<g id="node1" class="node">
<title>SafeFormModalComponent</title>
<polygon fill="#ffffb3" stroke="black" points="889.59,-122 716.41,-122 716.41,-86 889.59,-86 889.59,-122"/>
<text text-anchor="middle" x="803" y="-99.8" font-family="Times,serif" font-size="14.00">SafeFormModalComponent</text>
</g>
<!-- SafeFormModalModule -->
<g id="node2" class="node">
<title>SafeFormModalModule</title>
<polygon fill="#8dd3c7" stroke="black" points="572.81,-187 569.81,-191 548.81,-191 545.81,-187 421.19,-187 421.19,-151 572.81,-151 572.81,-187"/>
<text text-anchor="middle" x="497" y="-164.8" font-family="Times,serif" font-size="14.00">SafeFormModalModule</text>
</g>
<!-- SafeFormModalComponent&#45;&gt;SafeFormModalModule -->
<g id="edge1" class="edge">
<title>SafeFormModalComponent&#45;&gt;SafeFormModalModule</title>
<path fill="none" stroke="black" d="M803,-122.28C803,-143.32 803,-175 803,-175 803,-175 583.03,-175 583.03,-175"/>
<polygon fill="black" stroke="black" points="583.03,-171.5 573.03,-175 583.03,-178.5 583.03,-171.5"/>
</g>
<!-- SafeFormModalComponent  -->
<g id="node7" class="node">
<title>SafeFormModalComponent </title>
<polygon fill="#fb8072" stroke="black" points="585.09,-252 408.91,-252 408.91,-216 585.09,-216 585.09,-252"/>
<text text-anchor="middle" x="497" y="-229.8" font-family="Times,serif" font-size="14.00">SafeFormModalComponent </text>
</g>
<!-- SafeFormModalModule&#45;&gt;SafeFormModalComponent  -->
<g id="edge6" class="edge">
<title>SafeFormModalModule&#45;&gt;SafeFormModalComponent </title>
<path fill="none" stroke="black" stroke-dasharray="5,2" d="M497,-187.11C497,-187.11 497,-205.99 497,-205.99"/>
<polygon fill="black" stroke="black" points="493.5,-205.99 497,-215.99 500.5,-205.99 493.5,-205.99"/>
</g>
<!-- SafeButtonModule -->
<g id="node3" class="node">
<title>SafeButtonModule</title>
<polygon fill="#8dd3c7" stroke="black" points="692.04,-122 689.04,-126 668.04,-126 665.04,-122 569.96,-122 569.96,-86 692.04,-86 692.04,-122"/>
<text text-anchor="middle" x="631" y="-99.8" font-family="Times,serif" font-size="14.00">SafeButtonModule</text>
</g>
<!-- SafeButtonModule&#45;&gt;SafeFormModalModule -->
<g id="edge2" class="edge">
<title>SafeButtonModule&#45;&gt;SafeFormModalModule</title>
<path fill="none" stroke="black" d="M578.97,-122.02C578.97,-139.37 578.97,-163 578.97,-163 578.97,-163 578.36,-163 578.36,-163"/>
<polygon fill="black" stroke="black" points="582.81,-159.5 572.81,-163 582.81,-166.5 582.81,-159.5"/>
</g>
<!-- SafeIconModule -->
<g id="node4" class="node">
<title>SafeIconModule</title>
<polygon fill="#8dd3c7" stroke="black" points="551.8,-122 548.8,-126 527.8,-126 524.8,-122 442.2,-122 442.2,-86 551.8,-86 551.8,-122"/>
<text text-anchor="middle" x="497" y="-99.8" font-family="Times,serif" font-size="14.00">SafeIconModule</text>
</g>
<!-- SafeIconModule&#45;&gt;SafeFormModalModule -->
<g id="edge3" class="edge">
<title>SafeIconModule&#45;&gt;SafeFormModalModule</title>
<path fill="none" stroke="black" d="M497,-122.11C497,-122.11 497,-140.99 497,-140.99"/>
<polygon fill="black" stroke="black" points="493.5,-140.99 497,-150.99 500.5,-140.99 493.5,-140.99"/>
</g>
<!-- SafeRecordHistoryModalModule -->
<g id="node5" class="node">
<title>SafeRecordHistoryModalModule</title>
<polygon fill="#8dd3c7" stroke="black" points="424.89,-122 421.89,-126 400.89,-126 397.89,-122 221.11,-122 221.11,-86 424.89,-86 424.89,-122"/>
<text text-anchor="middle" x="323" y="-99.8" font-family="Times,serif" font-size="14.00">SafeRecordHistoryModalModule</text>
</g>
<!-- SafeRecordHistoryModalModule&#45;&gt;SafeFormModalModule -->
<g id="edge4" class="edge">
<title>SafeRecordHistoryModalModule&#45;&gt;SafeFormModalModule</title>
<path fill="none" stroke="black" d="M415.03,-122.28C415.03,-143.32 415.03,-175 415.03,-175 415.03,-175 415.64,-175 415.64,-175"/>
<polygon fill="black" stroke="black" points="411.19,-178.5 421.19,-175 411.19,-171.5 411.19,-178.5"/>
</g>
<!-- SafeRecordSummaryModule -->
<g id="node6" class="node">
<title>SafeRecordSummaryModule</title>
<polygon fill="#8dd3c7" stroke="black" points="203.79,-122 200.79,-126 179.79,-126 176.79,-122 24.21,-122 24.21,-86 203.79,-86 203.79,-122"/>
<text text-anchor="middle" x="114" y="-99.8" font-family="Times,serif" font-size="14.00">SafeRecordSummaryModule</text>
</g>
<!-- SafeRecordSummaryModule&#45;&gt;SafeFormModalModule -->
<g id="edge5" class="edge">
<title>SafeRecordSummaryModule&#45;&gt;SafeFormModalModule</title>
<path fill="none" stroke="black" d="M114,-122.02C114,-139.37 114,-163 114,-163 114,-163 411.33,-163 411.33,-163"/>
<polygon fill="black" stroke="black" points="411.33,-166.5 421.33,-163 411.33,-159.5 411.33,-166.5"/>
</g>
</g>
</svg>
