<?xml version="1.0" encoding="UTF-8" standalone="no"?>
<!DOCTYPE svg PUBLIC "-//W3C//DTD SVG 1.1//EN"
 "http://www.w3.org/Graphics/SVG/1.1/DTD/svg11.dtd">
<!-- Generated by graphviz version 2.47.0 (20210316.0004)
 -->
<!-- Title: dependencies Pages: 1 -->
<svg width="922pt" height="284pt"
 viewBox="0.00 0.00 922.00 284.00" xmlns="http://www.w3.org/2000/svg" xmlns:xlink="http://www.w3.org/1999/xlink">
<g id="graph0" class="graph" transform="scale(1 1) rotate(0) translate(4 280)">
<title>dependencies</title>
<polygon fill="white" stroke="transparent" points="-4,4 -4,-280 918,-280 918,4 -4,4"/>
<text text-anchor="start" x="436.01" y="-42.4" font-family="sans-serif" font-weight="bold" font-size="14.00">Legend</text>
<polygon fill="#ffffb3" stroke="transparent" points="223,-10 223,-30 243,-30 243,-10 223,-10"/>
<text text-anchor="start" x="246.63" y="-15.4" font-family="sans-serif" font-size="14.00"> &#160;Declarations</text>
<polygon fill="#8dd3c7" stroke="transparent" points="336,-10 336,-30 356,-30 356,-10 336,-10"/>
<text text-anchor="start" x="359.73" y="-15.4" font-family="sans-serif" font-size="14.00"> &#160;Module</text>
<polygon fill="#80b1d3" stroke="transparent" points="422,-10 422,-30 442,-30 442,-10 422,-10"/>
<text text-anchor="start" x="445.78" y="-15.4" font-family="sans-serif" font-size="14.00"> &#160;Bootstrap</text>
<polygon fill="#fdb462" stroke="transparent" points="519,-10 519,-30 539,-30 539,-10 519,-10"/>
<text text-anchor="start" x="542.67" y="-15.4" font-family="sans-serif" font-size="14.00"> &#160;Providers</text>
<polygon fill="#fb8072" stroke="transparent" points="615,-10 615,-30 635,-30 635,-10 615,-10"/>
<text text-anchor="start" x="638.73" y="-15.4" font-family="sans-serif" font-size="14.00"> &#160;Exports</text>
<g id="clust1" class="cluster">
<title>cluster_SafeFormModalModule</title>
<polygon fill="none" stroke="black" stroke-dasharray="1,5" points="8,-70 8,-268 906,-268 906,-70 8,-70"/>
</g>
<g id="clust5" class="cluster">
<title>cluster_SafeFormModalModule_exports</title>
<polygon fill="none" stroke="black" points="425,-208 425,-260 617,-260 617,-208 425,-208"/>
</g>
<g id="clust4" class="cluster">
<title>cluster_SafeFormModalModule_imports</title>
<polygon fill="none" stroke="black" points="214,-78 214,-130 898,-130 898,-78 214,-78"/>
</g>
<g id="clust2" class="cluster">
<title>cluster_SafeFormModalModule_declarations</title>
<polygon fill="none" stroke="black" points="16,-78 16,-130 206,-130 206,-78 16,-78"/>
</g>
<!-- SafeFormModalComponent -->
<g id="node1" class="node">
<title>SafeFormModalComponent</title>
<polygon fill="#ffffb3" stroke="black" points="197.59,-122 24.41,-122 24.41,-86 197.59,-86 197.59,-122"/>
<text text-anchor="middle" x="111" y="-99.8" font-family="Times,serif" font-size="14.00">SafeFormModalComponent</text>
</g>
<!-- SafeFormModalModule -->
<g id="node2" class="node">
<title>SafeFormModalModule</title>
<polygon fill="#8dd3c7" stroke="black" points="596.81,-187 593.81,-191 572.81,-191 569.81,-187 445.19,-187 445.19,-151 596.81,-151 596.81,-187"/>
<text text-anchor="middle" x="521" y="-164.8" font-family="Times,serif" font-size="14.00">SafeFormModalModule</text>
</g>
<!-- SafeFormModalComponent&#45;&gt;SafeFormModalModule -->
<g id="edge1" class="edge">
<title>SafeFormModalComponent&#45;&gt;SafeFormModalModule</title>
<path fill="none" stroke="black" d="M111,-122.28C111,-143.32 111,-175 111,-175 111,-175 435.32,-175 435.32,-175"/>
<polygon fill="black" stroke="black" points="435.32,-178.5 445.32,-175 435.32,-171.5 435.32,-178.5"/>
</g>
<!-- SafeFormModalComponent  -->
<g id="node7" class="node">
<title>SafeFormModalComponent </title>
<polygon fill="#fb8072" stroke="black" points="609.09,-252 432.91,-252 432.91,-216 609.09,-216 609.09,-252"/>
<text text-anchor="middle" x="521" y="-229.8" font-family="Times,serif" font-size="14.00">SafeFormModalComponent </text>
</g>
<!-- SafeFormModalModule&#45;&gt;SafeFormModalComponent  -->
<g id="edge6" class="edge">
<title>SafeFormModalModule&#45;&gt;SafeFormModalComponent </title>
<path fill="none" stroke="black" stroke-dasharray="5,2" d="M521,-187.11C521,-187.11 521,-205.99 521,-205.99"/>
<polygon fill="black" stroke="black" points="517.5,-205.99 521,-215.99 524.5,-205.99 517.5,-205.99"/>
</g>
<!-- SafeButtonModule -->
<g id="node3" class="node">
<title>SafeButtonModule</title>
<polygon fill="#8dd3c7" stroke="black" points="890.04,-122 887.04,-126 866.04,-126 863.04,-122 767.96,-122 767.96,-86 890.04,-86 890.04,-122"/>
<text text-anchor="middle" x="829" y="-99.8" font-family="Times,serif" font-size="14.00">SafeButtonModule</text>
</g>
<!-- SafeButtonModule&#45;&gt;SafeFormModalModule -->
<g id="edge2" class="edge">
<title>SafeButtonModule&#45;&gt;SafeFormModalModule</title>
<path fill="none" stroke="black" d="M829,-122.28C829,-143.32 829,-175 829,-175 829,-175 606.74,-175 606.74,-175"/>
<polygon fill="black" stroke="black" points="606.74,-171.5 596.74,-175 606.74,-178.5 606.74,-171.5"/>
</g>
<!-- SafeIconModule -->
<g id="node4" class="node">
<title>SafeIconModule</title>
<polygon fill="#8dd3c7" stroke="black" points="749.8,-122 746.8,-126 725.8,-126 722.8,-122 640.2,-122 640.2,-86 749.8,-86 749.8,-122"/>
<text text-anchor="middle" x="695" y="-99.8" font-family="Times,serif" font-size="14.00">SafeIconModule</text>
</g>
<!-- SafeIconModule&#45;&gt;SafeFormModalModule -->
<g id="edge3" class="edge">
<title>SafeIconModule&#45;&gt;SafeFormModalModule</title>
<path fill="none" stroke="black" d="M695,-122.02C695,-139.37 695,-163 695,-163 695,-163 606.81,-163 606.81,-163"/>
<polygon fill="black" stroke="black" points="606.81,-159.5 596.81,-163 606.81,-166.5 606.81,-159.5"/>
</g>
<!-- SafeRecordHistoryModalModule -->
<g id="node5" class="node">
<title>SafeRecordHistoryModalModule</title>
<polygon fill="#8dd3c7" stroke="black" points="622.89,-122 619.89,-126 598.89,-126 595.89,-122 419.11,-122 419.11,-86 622.89,-86 622.89,-122"/>
<text text-anchor="middle" x="521" y="-99.8" font-family="Times,serif" font-size="14.00">SafeRecordHistoryModalModule</text>
</g>
<!-- SafeRecordHistoryModalModule&#45;&gt;SafeFormModalModule -->
<g id="edge4" class="edge">
<title>SafeRecordHistoryModalModule&#45;&gt;SafeFormModalModule</title>
<path fill="none" stroke="black" d="M521,-122.11C521,-122.11 521,-140.99 521,-140.99"/>
<polygon fill="black" stroke="black" points="517.5,-140.99 521,-150.99 524.5,-140.99 517.5,-140.99"/>
</g>
<!-- SafeRecordSummaryModule -->
<g id="node6" class="node">
<title>SafeRecordSummaryModule</title>
<polygon fill="#8dd3c7" stroke="black" points="401.79,-122 398.79,-126 377.79,-126 374.79,-122 222.21,-122 222.21,-86 401.79,-86 401.79,-122"/>
<text text-anchor="middle" x="312" y="-99.8" font-family="Times,serif" font-size="14.00">SafeRecordSummaryModule</text>
</g>
<!-- SafeRecordSummaryModule&#45;&gt;SafeFormModalModule -->
<g id="edge5" class="edge">
<title>SafeRecordSummaryModule&#45;&gt;SafeFormModalModule</title>
<path fill="none" stroke="black" d="M312,-122.02C312,-139.37 312,-163 312,-163 312,-163 435.25,-163 435.25,-163"/>
<polygon fill="black" stroke="black" points="435.25,-166.5 445.25,-163 435.25,-159.5 435.25,-166.5"/>
</g>
</g>
</svg>
