<?xml version="1.0" encoding="UTF-8" standalone="no"?>
<!DOCTYPE svg PUBLIC "-//W3C//DTD SVG 1.1//EN"
 "http://www.w3.org/Graphics/SVG/1.1/DTD/svg11.dtd">
<!-- Generated by graphviz version 3.0.0 (20220226.1711)
 -->
<!-- Title: dependencies Pages: 1 -->
<svg width="922pt" height="247pt"
 viewBox="0.00 0.00 922.00 246.80" xmlns="http://www.w3.org/2000/svg" xmlns:xlink="http://www.w3.org/1999/xlink">
<g id="graph0" class="graph" transform="scale(1 1) rotate(0) translate(4 242.8)">
<title>dependencies</title>
<polygon fill="white" stroke="transparent" points="-4,4 -4,-242.8 918,-242.8 918,4 -4,4"/>
<text text-anchor="middle" x="457" y="-8.2" font-family="sans-serif" font-size="14.00">dependencies</text>
<g id="clust1" class="cluster">
<title>cluster_SafeFormModalModule</title>
<polygon fill="none" stroke="black" stroke-dasharray="1,5" points="8,-32.8 8,-230.8 906,-230.8 906,-32.8 8,-32.8"/>
</g>
<g id="clust5" class="cluster">
<title>cluster_SafeFormModalModule_exports</title>
<polygon fill="none" stroke="black" points="401,-170.8 401,-222.8 593,-222.8 593,-170.8 401,-170.8"/>
</g>
<g id="clust2" class="cluster">
<title>cluster_SafeFormModalModule_declarations</title>
<polygon fill="none" stroke="black" points="708,-40.8 708,-92.8 898,-92.8 898,-40.8 708,-40.8"/>
</g>
<g id="clust4" class="cluster">
<title>cluster_SafeFormModalModule_imports</title>
<polygon fill="none" stroke="black" points="16,-40.8 16,-92.8 700,-92.8 700,-40.8 16,-40.8"/>
</g>
<!-- SafeFormModalComponent -->
<g id="node1" class="node">
<title>SafeFormModalComponent</title>
<polygon fill="#ffffb3" stroke="black" points="889.6,-84.8 716.4,-84.8 716.4,-48.8 889.6,-48.8 889.6,-84.8"/>
<text text-anchor="middle" x="803" y="-62.6" font-family="Times,serif" font-size="14.00">SafeFormModalComponent</text>
</g>
<!-- SafeFormModalModule -->
<g id="node2" class="node">
<title>SafeFormModalModule</title>
<polygon fill="#8dd3c7" stroke="black" points="572.82,-149.8 569.82,-153.8 548.82,-153.8 545.82,-149.8 421.18,-149.8 421.18,-113.8 572.82,-113.8 572.82,-149.8"/>
<text text-anchor="middle" x="497" y="-127.6" font-family="Times,serif" font-size="14.00">SafeFormModalModule</text>
</g>
<!-- SafeFormModalComponent&#45;&gt;SafeFormModalModule -->
<g id="edge1" class="edge">
<title>SafeFormModalComponent&#45;&gt;SafeFormModalModule</title>
<path fill="none" stroke="black" d="M803,-85.08C803,-106.12 803,-137.8 803,-137.8 803,-137.8 583.03,-137.8 583.03,-137.8"/>
<polygon fill="black" stroke="black" points="583.03,-134.3 573.03,-137.8 583.03,-141.3 583.03,-134.3"/>
</g>
<!-- SafeFormModalComponent  -->
<g id="node7" class="node">
<title>SafeFormModalComponent </title>
<polygon fill="#fb8072" stroke="black" points="585.1,-214.8 408.9,-214.8 408.9,-178.8 585.1,-178.8 585.1,-214.8"/>
<text text-anchor="middle" x="497" y="-192.6" font-family="Times,serif" font-size="14.00">SafeFormModalComponent </text>
</g>
<!-- SafeFormModalModule&#45;&gt;SafeFormModalComponent  -->
<g id="edge6" class="edge">
<title>SafeFormModalModule&#45;&gt;SafeFormModalComponent </title>
<path fill="none" stroke="black" stroke-dasharray="5,2" d="M497,-149.91C497,-149.91 497,-168.79 497,-168.79"/>
<polygon fill="black" stroke="black" points="493.5,-168.79 497,-178.79 500.5,-168.79 493.5,-168.79"/>
</g>
<!-- SafeButtonModule -->
<g id="node3" class="node">
<title>SafeButtonModule</title>
<polygon fill="#8dd3c7" stroke="black" points="692.05,-84.8 689.05,-88.8 668.05,-88.8 665.05,-84.8 569.95,-84.8 569.95,-48.8 692.05,-48.8 692.05,-84.8"/>
<text text-anchor="middle" x="631" y="-62.6" font-family="Times,serif" font-size="14.00">SafeButtonModule</text>
</g>
<!-- SafeButtonModule&#45;&gt;SafeFormModalModule -->
<g id="edge2" class="edge">
<title>SafeButtonModule&#45;&gt;SafeFormModalModule</title>
<path fill="none" stroke="black" d="M578.98,-84.82C578.98,-102.17 578.98,-125.8 578.98,-125.8 578.98,-125.8 578.36,-125.8 578.36,-125.8"/>
<polygon fill="black" stroke="black" points="582.82,-122.3 572.82,-125.8 582.82,-129.3 582.82,-122.3"/>
</g>
<!-- SafeIconModule -->
<g id="node4" class="node">
<title>SafeIconModule</title>
<polygon fill="#8dd3c7" stroke="black" points="551.8,-84.8 548.8,-88.8 527.8,-88.8 524.8,-84.8 442.2,-84.8 442.2,-48.8 551.8,-48.8 551.8,-84.8"/>
<text text-anchor="middle" x="497" y="-62.6" font-family="Times,serif" font-size="14.00">SafeIconModule</text>
</g>
<!-- SafeIconModule&#45;&gt;SafeFormModalModule -->
<g id="edge3" class="edge">
<title>SafeIconModule&#45;&gt;SafeFormModalModule</title>
<path fill="none" stroke="black" d="M497,-84.91C497,-84.91 497,-103.79 497,-103.79"/>
<polygon fill="black" stroke="black" points="493.5,-103.79 497,-113.79 500.5,-103.79 493.5,-103.79"/>
</g>
<!-- SafeRecordHistoryModalModule -->
<g id="node5" class="node">
<title>SafeRecordHistoryModalModule</title>
<polygon fill="#8dd3c7" stroke="black" points="424.91,-84.8 421.91,-88.8 400.91,-88.8 397.91,-84.8 221.09,-84.8 221.09,-48.8 424.91,-48.8 424.91,-84.8"/>
<text text-anchor="middle" x="323" y="-62.6" font-family="Times,serif" font-size="14.00">SafeRecordHistoryModalModule</text>
</g>
<!-- SafeRecordHistoryModalModule&#45;&gt;SafeFormModalModule -->
<g id="edge4" class="edge">
<title>SafeRecordHistoryModalModule&#45;&gt;SafeFormModalModule</title>
<path fill="none" stroke="black" d="M415.02,-85.08C415.02,-106.12 415.02,-137.8 415.02,-137.8 415.02,-137.8 415.64,-137.8 415.64,-137.8"/>
<polygon fill="black" stroke="black" points="411.18,-141.3 421.18,-137.8 411.18,-134.3 411.18,-141.3"/>
</g>
<!-- SafeRecordSummaryModule -->
<g id="node6" class="node">
<title>SafeRecordSummaryModule</title>
<polygon fill="#8dd3c7" stroke="black" points="203.8,-84.8 200.8,-88.8 179.8,-88.8 176.8,-84.8 24.2,-84.8 24.2,-48.8 203.8,-48.8 203.8,-84.8"/>
<text text-anchor="middle" x="114" y="-62.6" font-family="Times,serif" font-size="14.00">SafeRecordSummaryModule</text>
</g>
<!-- SafeRecordSummaryModule&#45;&gt;SafeFormModalModule -->
<g id="edge5" class="edge">
<title>SafeRecordSummaryModule&#45;&gt;SafeFormModalModule</title>
<path fill="none" stroke="black" d="M114,-84.82C114,-102.17 114,-125.8 114,-125.8 114,-125.8 411.33,-125.8 411.33,-125.8"/>
<polygon fill="black" stroke="black" points="411.33,-129.3 421.33,-125.8 411.33,-122.3 411.33,-129.3"/>
</g>
</g>
</svg>
