<?xml version="1.0" encoding="UTF-8" standalone="no"?>
<!DOCTYPE svg PUBLIC "-//W3C//DTD SVG 1.1//EN"
 "http://www.w3.org/Graphics/SVG/1.1/DTD/svg11.dtd">
<!-- Generated by graphviz version 3.0.0 (20220226.1711)
 -->
<!-- Title: dependencies Pages: 1 -->
<svg width="432pt" height="174pt"
 viewBox="0.00 0.00 432.00 173.80" xmlns="http://www.w3.org/2000/svg" xmlns:xlink="http://www.w3.org/1999/xlink">
<g id="graph0" class="graph" transform="scale(1 1) rotate(0) translate(4 169.8)">
<title>dependencies</title>
<polygon fill="white" stroke="transparent" points="-4,4 -4,-169.8 428,-169.8 428,4 -4,4"/>
<text text-anchor="middle" x="212" y="-8.2" font-family="sans-serif" font-size="14.00">dependencies</text>
<g id="clust1" class="cluster">
<title>cluster_ReferenceDataModule</title>
<polygon fill="none" stroke="black" stroke-dasharray="1,5" points="8,-32.8 8,-157.8 416,-157.8 416,-32.8 8,-32.8"/>
</g>
<g id="clust2" class="cluster">
<title>cluster_ReferenceDataModule_declarations</title>
<polygon fill="none" stroke="black" points="228,-40.8 228,-92.8 408,-92.8 408,-40.8 228,-40.8"/>
</g>
<g id="clust4" class="cluster">
<title>cluster_ReferenceDataModule_imports</title>
<polygon fill="none" stroke="black" points="16,-40.8 16,-92.8 220,-92.8 220,-40.8 16,-40.8"/>
</g>
<!-- ReferenceDataComponent -->
<g id="node1" class="node">
<title>ReferenceDataComponent</title>
<polygon fill="#ffffb3" stroke="black" points="400.49,-84.8 235.51,-84.8 235.51,-48.8 400.49,-48.8 400.49,-84.8"/>
<text text-anchor="middle" x="318" y="-62.6" font-family="Times,serif" font-size="14.00">ReferenceDataComponent</text>
</g>
<!-- ReferenceDataModule -->
<g id="node2" class="node">
<title>ReferenceDataModule</title>
<polygon fill="#8dd3c7" stroke="black" points="289.21,-149.8 286.21,-153.8 265.21,-153.8 262.21,-149.8 146.79,-149.8 146.79,-113.8 289.21,-113.8 289.21,-149.8"/>
<text text-anchor="middle" x="218" y="-127.6" font-family="Times,serif" font-size="14.00">ReferenceDataModule</text>
</g>
<!-- ReferenceDataComponent&#45;&gt;ReferenceDataModule -->
<g id="edge1" class="edge">
<title>ReferenceDataComponent&#45;&gt;ReferenceDataModule</title>
<path fill="none" stroke="black" d="M262.56,-84.91C262.56,-84.91 262.56,-103.79 262.56,-103.79"/>
<polygon fill="black" stroke="black" points="259.06,-103.79 262.56,-113.79 266.06,-103.79 259.06,-103.79"/>
</g>
<!-- ReferenceDataRoutingModule -->
<g id="node3" class="node">
<title>ReferenceDataRoutingModule</title>
<polygon fill="#8dd3c7" stroke="black" points="211.83,-84.8 208.83,-88.8 187.83,-88.8 184.83,-84.8 24.17,-84.8 24.17,-48.8 211.83,-48.8 211.83,-84.8"/>
<text text-anchor="middle" x="118" y="-62.6" font-family="Times,serif" font-size="14.00">ReferenceDataRoutingModule</text>
</g>
<!-- ReferenceDataRoutingModule&#45;&gt;ReferenceDataModule -->
<g id="edge2" class="edge">
<title>ReferenceDataRoutingModule&#45;&gt;ReferenceDataModule</title>
<path fill="none" stroke="black" d="M179.28,-84.91C179.28,-84.91 179.28,-103.79 179.28,-103.79"/>
<polygon fill="black" stroke="black" points="175.78,-103.79 179.28,-113.79 182.78,-103.79 175.78,-103.79"/>
</g>
</g>
</svg>
