<?xml version="1.0" encoding="UTF-8" standalone="no"?>
<!DOCTYPE svg PUBLIC "-//W3C//DTD SVG 1.1//EN"
 "http://www.w3.org/Graphics/SVG/1.1/DTD/svg11.dtd">
<!-- Generated by graphviz version 3.0.0 (20220226.1711)
 -->
<!-- Title: dependencies Pages: 1 -->
<svg width="482pt" height="174pt"
 viewBox="0.00 0.00 482.00 173.80" xmlns="http://www.w3.org/2000/svg" xmlns:xlink="http://www.w3.org/1999/xlink">
<g id="graph0" class="graph" transform="scale(1 1) rotate(0) translate(4 169.8)">
<title>dependencies</title>
<polygon fill="white" stroke="transparent" points="-4,4 -4,-169.8 478,-169.8 478,4 -4,4"/>
<text text-anchor="middle" x="237" y="-8.2" font-family="sans-serif" font-size="14.00">dependencies</text>
<g id="clust1" class="cluster">
<title>cluster_AddPageModule</title>
<polygon fill="none" stroke="black" stroke-dasharray="1,5" points="8,-32.8 8,-157.8 466,-157.8 466,-32.8 8,-32.8"/>
</g>
<g id="clust2" class="cluster">
<title>cluster_AddPageModule_declarations</title>
<polygon fill="none" stroke="black" points="310,-40.8 310,-92.8 458,-92.8 458,-40.8 310,-40.8"/>
</g>
<g id="clust4" class="cluster">
<title>cluster_AddPageModule_imports</title>
<polygon fill="none" stroke="black" points="16,-40.8 16,-92.8 302,-92.8 302,-40.8 16,-40.8"/>
</g>
<!-- AddPageComponent -->
<g id="node1" class="node">
<title>AddPageComponent</title>
<polygon fill="#ffffb3" stroke="black" points="450.16,-84.8 317.84,-84.8 317.84,-48.8 450.16,-48.8 450.16,-84.8"/>
<text text-anchor="middle" x="384" y="-62.6" font-family="Times,serif" font-size="14.00">AddPageComponent</text>
</g>
<!-- AddPageModule -->
<g id="node2" class="node">
<title>AddPageModule</title>
<polygon fill="#8dd3c7" stroke="black" points="271.38,-149.8 268.38,-153.8 247.38,-153.8 244.38,-149.8 160.62,-149.8 160.62,-113.8 271.38,-113.8 271.38,-149.8"/>
<text text-anchor="middle" x="216" y="-127.6" font-family="Times,serif" font-size="14.00">AddPageModule</text>
</g>
<!-- AddPageComponent&#45;&gt;AddPageModule -->
<g id="edge1" class="edge">
<title>AddPageComponent&#45;&gt;AddPageModule</title>
<path fill="none" stroke="black" d="M384,-84.91C384,-104.14 384,-131.8 384,-131.8 384,-131.8 281.48,-131.8 281.48,-131.8"/>
<polygon fill="black" stroke="black" points="281.48,-128.3 271.48,-131.8 281.48,-135.3 281.48,-128.3"/>
</g>
<!-- AddPageRoutingModule -->
<g id="node3" class="node">
<title>AddPageRoutingModule</title>
<polygon fill="#8dd3c7" stroke="black" points="293.99,-84.8 290.99,-88.8 269.99,-88.8 266.99,-84.8 138.01,-84.8 138.01,-48.8 293.99,-48.8 293.99,-84.8"/>
<text text-anchor="middle" x="216" y="-62.6" font-family="Times,serif" font-size="14.00">AddPageRoutingModule</text>
</g>
<!-- AddPageRoutingModule&#45;&gt;AddPageModule -->
<g id="edge2" class="edge">
<title>AddPageRoutingModule&#45;&gt;AddPageModule</title>
<path fill="none" stroke="black" d="M216,-84.91C216,-84.91 216,-103.79 216,-103.79"/>
<polygon fill="black" stroke="black" points="212.5,-103.79 216,-113.79 219.5,-103.79 212.5,-103.79"/>
</g>
<!-- FormsModule -->
<g id="node4" class="node">
<title>FormsModule</title>
<polygon fill="#8dd3c7" stroke="black" points="119.84,-84.8 116.84,-88.8 95.84,-88.8 92.84,-84.8 24.16,-84.8 24.16,-48.8 119.84,-48.8 119.84,-84.8"/>
<text text-anchor="middle" x="72" y="-62.6" font-family="Times,serif" font-size="14.00">FormsModule</text>
</g>
<!-- FormsModule&#45;&gt;AddPageModule -->
<g id="edge3" class="edge">
<title>FormsModule&#45;&gt;AddPageModule</title>
<path fill="none" stroke="black" d="M72,-84.91C72,-104.14 72,-131.8 72,-131.8 72,-131.8 150.33,-131.8 150.33,-131.8"/>
<polygon fill="black" stroke="black" points="150.33,-135.3 160.33,-131.8 150.33,-128.3 150.33,-135.3"/>
</g>
</g>
</svg>
