<?xml version="1.0" encoding="UTF-8" standalone="no"?>
<!DOCTYPE svg PUBLIC "-//W3C//DTD SVG 1.1//EN"
 "http://www.w3.org/Graphics/SVG/1.1/DTD/svg11.dtd">
<!-- Generated by graphviz version 2.47.0 (20210316.0004)
 -->
<!-- Title: dependencies Pages: 1 -->
<svg width="699pt" height="284pt"
 viewBox="0.00 0.00 699.00 284.00" xmlns="http://www.w3.org/2000/svg" xmlns:xlink="http://www.w3.org/1999/xlink">
<g id="graph0" class="graph" transform="scale(1 1) rotate(0) translate(4 280)">
<title>dependencies</title>
<polygon fill="white" stroke="transparent" points="-4,4 -4,-280 695,-280 695,4 -4,4"/>
<text text-anchor="start" x="324.51" y="-42.4" font-family="sans-serif" font-weight="bold" font-size="14.00">Legend</text>
<polygon fill="#ffffb3" stroke="transparent" points="111.5,-10 111.5,-30 131.5,-30 131.5,-10 111.5,-10"/>
<text text-anchor="start" x="135.13" y="-15.4" font-family="sans-serif" font-size="14.00"> &#160;Declarations</text>
<polygon fill="#8dd3c7" stroke="transparent" points="224.5,-10 224.5,-30 244.5,-30 244.5,-10 224.5,-10"/>
<text text-anchor="start" x="248.23" y="-15.4" font-family="sans-serif" font-size="14.00"> &#160;Module</text>
<polygon fill="#80b1d3" stroke="transparent" points="310.5,-10 310.5,-30 330.5,-30 330.5,-10 310.5,-10"/>
<text text-anchor="start" x="334.28" y="-15.4" font-family="sans-serif" font-size="14.00"> &#160;Bootstrap</text>
<polygon fill="#fdb462" stroke="transparent" points="407.5,-10 407.5,-30 427.5,-30 427.5,-10 407.5,-10"/>
<text text-anchor="start" x="431.17" y="-15.4" font-family="sans-serif" font-size="14.00"> &#160;Providers</text>
<polygon fill="#fb8072" stroke="transparent" points="503.5,-10 503.5,-30 523.5,-30 523.5,-10 503.5,-10"/>
<text text-anchor="start" x="527.23" y="-15.4" font-family="sans-serif" font-size="14.00"> &#160;Exports</text>
<g id="clust1" class="cluster">
<title>cluster_ApiConfigurationsModule</title>
<polygon fill="none" stroke="black" stroke-dasharray="1,5" points="8,-70 8,-268 683,-268 683,-70 8,-70"/>
</g>
<g id="clust5" class="cluster">
<title>cluster_ApiConfigurationsModule_imports</title>
<polygon fill="none" stroke="black" points="449,-78 449,-130 675,-130 675,-78 449,-78"/>
</g>
<g id="clust2" class="cluster">
<title>cluster_ApiConfigurationsModule_declarations</title>
<polygon fill="none" stroke="black" points="16,-78 16,-130 441,-130 441,-78 16,-78"/>
</g>
<g id="clust6" class="cluster">
<title>cluster_ApiConfigurationsModule_exports</title>
<polygon fill="none" stroke="black" points="228,-208 228,-260 434,-260 434,-208 228,-208"/>
</g>
<!-- AddApiConfigurationComponent -->
<g id="node1" class="node">
<title>AddApiConfigurationComponent</title>
<polygon fill="#ffffb3" stroke="black" points="433.48,-122 228.52,-122 228.52,-86 433.48,-86 433.48,-122"/>
<text text-anchor="middle" x="331" y="-99.8" font-family="Times,serif" font-size="14.00">AddApiConfigurationComponent</text>
</g>
<!-- ApiConfigurationsModule -->
<g id="node3" class="node">
<title>ApiConfigurationsModule</title>
<polygon fill="#8dd3c7" stroke="black" points="413.04,-187 410.04,-191 389.04,-191 386.04,-187 248.96,-187 248.96,-151 413.04,-151 413.04,-187"/>
<text text-anchor="middle" x="331" y="-164.8" font-family="Times,serif" font-size="14.00">ApiConfigurationsModule</text>
</g>
<!-- AddApiConfigurationComponent&#45;&gt;ApiConfigurationsModule -->
<g id="edge1" class="edge">
<title>AddApiConfigurationComponent&#45;&gt;ApiConfigurationsModule</title>
<path fill="none" stroke="black" d="M331,-122.11C331,-122.11 331,-140.99 331,-140.99"/>
<polygon fill="black" stroke="black" points="327.5,-140.99 331,-150.99 334.5,-140.99 327.5,-140.99"/>
</g>
<!-- ApiConfigurationsComponent -->
<g id="node2" class="node">
<title>ApiConfigurationsComponent</title>
<polygon fill="#ffffb3" stroke="black" points="210.32,-122 23.68,-122 23.68,-86 210.32,-86 210.32,-122"/>
<text text-anchor="middle" x="117" y="-99.8" font-family="Times,serif" font-size="14.00">ApiConfigurationsComponent</text>
</g>
<!-- ApiConfigurationsComponent&#45;&gt;ApiConfigurationsModule -->
<g id="edge2" class="edge">
<title>ApiConfigurationsComponent&#45;&gt;ApiConfigurationsModule</title>
<path fill="none" stroke="black" d="M117,-122.11C117,-141.34 117,-169 117,-169 117,-169 238.87,-169 238.87,-169"/>
<polygon fill="black" stroke="black" points="238.87,-172.5 248.87,-169 238.87,-165.5 238.87,-172.5"/>
</g>
<!-- ApiConfigurationsComponent  -->
<g id="node5" class="node">
<title>ApiConfigurationsComponent </title>
<polygon fill="#fb8072" stroke="black" points="425.82,-252 236.18,-252 236.18,-216 425.82,-216 425.82,-252"/>
<text text-anchor="middle" x="331" y="-229.8" font-family="Times,serif" font-size="14.00">ApiConfigurationsComponent </text>
</g>
<!-- ApiConfigurationsModule&#45;&gt;ApiConfigurationsComponent  -->
<g id="edge4" class="edge">
<title>ApiConfigurationsModule&#45;&gt;ApiConfigurationsComponent </title>
<path fill="none" stroke="black" stroke-dasharray="5,2" d="M331,-187.11C331,-187.11 331,-205.99 331,-205.99"/>
<polygon fill="black" stroke="black" points="327.5,-205.99 331,-215.99 334.5,-205.99 327.5,-205.99"/>
</g>
<!-- ApiConfigurationsRoutingModule -->
<g id="node4" class="node">
<title>ApiConfigurationsRoutingModule</title>
<polygon fill="#8dd3c7" stroke="black" points="666.65,-122 663.65,-126 642.65,-126 639.65,-122 457.35,-122 457.35,-86 666.65,-86 666.65,-122"/>
<text text-anchor="middle" x="562" y="-99.8" font-family="Times,serif" font-size="14.00">ApiConfigurationsRoutingModule</text>
</g>
<!-- ApiConfigurationsRoutingModule&#45;&gt;ApiConfigurationsModule -->
<g id="edge3" class="edge">
<title>ApiConfigurationsRoutingModule&#45;&gt;ApiConfigurationsModule</title>
<path fill="none" stroke="black" d="M562,-122.11C562,-141.34 562,-169 562,-169 562,-169 423.09,-169 423.09,-169"/>
<polygon fill="black" stroke="black" points="423.09,-165.5 413.09,-169 423.09,-172.5 423.09,-165.5"/>
</g>
</g>
</svg>
