<?xml version="1.0" encoding="UTF-8" standalone="no"?>
<!DOCTYPE svg PUBLIC "-//W3C//DTD SVG 1.1//EN"
 "http://www.w3.org/Graphics/SVG/1.1/DTD/svg11.dtd">
<!-- Generated by graphviz version 3.0.0 (20220226.1711)
 -->
<!-- Title: dependencies Pages: 1 -->
<svg width="362pt" height="247pt"
 viewBox="0.00 0.00 362.00 246.80" xmlns="http://www.w3.org/2000/svg" xmlns:xlink="http://www.w3.org/1999/xlink">
<g id="graph0" class="graph" transform="scale(1 1) rotate(0) translate(4 242.8)">
<title>dependencies</title>
<polygon fill="white" stroke="transparent" points="-4,4 -4,-242.8 358,-242.8 358,4 -4,4"/>
<text text-anchor="middle" x="177" y="-8.2" font-family="sans-serif" font-size="14.00">dependencies</text>
<g id="clust1" class="cluster">
<title>cluster_RoleChannelsModule</title>
<polygon fill="none" stroke="black" stroke-dasharray="1,5" points="8,-32.8 8,-230.8 346,-230.8 346,-32.8 8,-32.8"/>
</g>
<g id="clust4" class="cluster">
<title>cluster_RoleChannelsModule_imports</title>
<polygon fill="none" stroke="black" points="200,-40.8 200,-92.8 338,-92.8 338,-40.8 200,-40.8"/>
</g>
<g id="clust2" class="cluster">
<title>cluster_RoleChannelsModule_declarations</title>
<polygon fill="none" stroke="black" points="16,-40.8 16,-92.8 192,-92.8 192,-40.8 16,-40.8"/>
</g>
<g id="clust5" class="cluster">
<title>cluster_RoleChannelsModule_exports</title>
<polygon fill="none" stroke="black" points="87,-170.8 87,-222.8 267,-222.8 267,-170.8 87,-170.8"/>
</g>
<!-- RoleChannelsComponent -->
<g id="node1" class="node">
<title>RoleChannelsComponent</title>
<polygon fill="#ffffb3" stroke="black" points="183.88,-84.8 24.12,-84.8 24.12,-48.8 183.88,-48.8 183.88,-84.8"/>
<text text-anchor="middle" x="104" y="-62.6" font-family="Times,serif" font-size="14.00">RoleChannelsComponent</text>
</g>
<!-- RoleChannelsModule -->
<g id="node2" class="node">
<title>RoleChannelsModule</title>
<polygon fill="#8dd3c7" stroke="black" points="246.1,-149.8 243.1,-153.8 222.1,-153.8 219.1,-149.8 107.9,-149.8 107.9,-113.8 246.1,-113.8 246.1,-149.8"/>
<text text-anchor="middle" x="177" y="-127.6" font-family="Times,serif" font-size="14.00">RoleChannelsModule</text>
</g>
<!-- RoleChannelsComponent&#45;&gt;RoleChannelsModule -->
<g id="edge1" class="edge">
<title>RoleChannelsComponent&#45;&gt;RoleChannelsModule</title>
<path fill="none" stroke="black" d="M145.94,-84.91C145.94,-84.91 145.94,-103.79 145.94,-103.79"/>
<polygon fill="black" stroke="black" points="142.44,-103.79 145.94,-113.79 149.44,-103.79 142.44,-103.79"/>
</g>
<!-- RoleChannelsComponent  -->
<g id="node4" class="node">
<title>RoleChannelsComponent </title>
<polygon fill="#fb8072" stroke="black" points="258.88,-214.8 95.12,-214.8 95.12,-178.8 258.88,-178.8 258.88,-214.8"/>
<text text-anchor="middle" x="177" y="-192.6" font-family="Times,serif" font-size="14.00">RoleChannelsComponent </text>
</g>
<!-- RoleChannelsModule&#45;&gt;RoleChannelsComponent  -->
<g id="edge3" class="edge">
<title>RoleChannelsModule&#45;&gt;RoleChannelsComponent </title>
<path fill="none" stroke="black" stroke-dasharray="5,2" d="M177,-149.91C177,-149.91 177,-168.79 177,-168.79"/>
<polygon fill="black" stroke="black" points="173.5,-168.79 177,-178.79 180.5,-168.79 173.5,-168.79"/>
</g>
<!-- SafeButtonModule -->
<g id="node3" class="node">
<title>SafeButtonModule</title>
<polygon fill="#8dd3c7" stroke="black" points="330.05,-84.8 327.05,-88.8 306.05,-88.8 303.05,-84.8 207.95,-84.8 207.95,-48.8 330.05,-48.8 330.05,-84.8"/>
<text text-anchor="middle" x="269" y="-62.6" font-family="Times,serif" font-size="14.00">SafeButtonModule</text>
</g>
<!-- SafeButtonModule&#45;&gt;RoleChannelsModule -->
<g id="edge2" class="edge">
<title>SafeButtonModule&#45;&gt;RoleChannelsModule</title>
<path fill="none" stroke="black" d="M226.89,-84.91C226.89,-84.91 226.89,-103.79 226.89,-103.79"/>
<polygon fill="black" stroke="black" points="223.39,-103.79 226.89,-113.79 230.39,-103.79 223.39,-103.79"/>
</g>
</g>
</svg>
