<?xml version="1.0" encoding="UTF-8" standalone="no"?>
<!DOCTYPE svg PUBLIC "-//W3C//DTD SVG 1.1//EN"
 "http://www.w3.org/Graphics/SVG/1.1/DTD/svg11.dtd">
<!-- Generated by graphviz version 2.47.0 (20210316.0004)
 -->
<!-- Title: dependencies Pages: 1 -->
<svg width="881pt" height="284pt"
 viewBox="0.00 0.00 881.00 284.00" xmlns="http://www.w3.org/2000/svg" xmlns:xlink="http://www.w3.org/1999/xlink">
<g id="graph0" class="graph" transform="scale(1 1) rotate(0) translate(4 280)">
<title>dependencies</title>
<polygon fill="white" stroke="transparent" points="-4,4 -4,-280 877,-280 877,4 -4,4"/>
<text text-anchor="start" x="415.51" y="-42.4" font-family="sans-serif" font-weight="bold" font-size="14.00">Legend</text>
<polygon fill="#ffffb3" stroke="transparent" points="202.5,-10 202.5,-30 222.5,-30 222.5,-10 202.5,-10"/>
<text text-anchor="start" x="226.13" y="-15.4" font-family="sans-serif" font-size="14.00"> &#160;Declarations</text>
<polygon fill="#8dd3c7" stroke="transparent" points="315.5,-10 315.5,-30 335.5,-30 335.5,-10 315.5,-10"/>
<text text-anchor="start" x="339.23" y="-15.4" font-family="sans-serif" font-size="14.00"> &#160;Module</text>
<polygon fill="#80b1d3" stroke="transparent" points="401.5,-10 401.5,-30 421.5,-30 421.5,-10 401.5,-10"/>
<text text-anchor="start" x="425.28" y="-15.4" font-family="sans-serif" font-size="14.00"> &#160;Bootstrap</text>
<polygon fill="#fdb462" stroke="transparent" points="498.5,-10 498.5,-30 518.5,-30 518.5,-10 498.5,-10"/>
<text text-anchor="start" x="522.17" y="-15.4" font-family="sans-serif" font-size="14.00"> &#160;Providers</text>
<polygon fill="#fb8072" stroke="transparent" points="594.5,-10 594.5,-30 614.5,-30 614.5,-10 594.5,-10"/>
<text text-anchor="start" x="618.23" y="-15.4" font-family="sans-serif" font-size="14.00"> &#160;Exports</text>
<g id="clust1" class="cluster">
<title>cluster_ApplicationsModule</title>
<polygon fill="none" stroke="black" stroke-dasharray="1,5" points="8,-70 8,-268 865,-268 865,-70 8,-70"/>
</g>
<g id="clust5" class="cluster">
<title>cluster_ApplicationsModule_imports</title>
<polygon fill="none" stroke="black" points="353,-78 353,-130 857,-130 857,-78 353,-78"/>
</g>
<g id="clust6" class="cluster">
<title>cluster_ApplicationsModule_exports</title>
<polygon fill="none" stroke="black" points="323,-208 323,-260 495,-260 495,-208 323,-208"/>
</g>
<g id="clust2" class="cluster">
<title>cluster_ApplicationsModule_declarations</title>
<polygon fill="none" stroke="black" points="16,-78 16,-130 345,-130 345,-78 16,-78"/>
</g>
<!-- ApplicationsComponent -->
<g id="node1" class="node">
<title>ApplicationsComponent</title>
<polygon fill="#ffffb3" stroke="black" points="337.38,-122 184.62,-122 184.62,-86 337.38,-86 337.38,-122"/>
<text text-anchor="middle" x="261" y="-99.8" font-family="Times,serif" font-size="14.00">ApplicationsComponent</text>
</g>
<!-- ApplicationsModule -->
<g id="node3" class="node">
<title>ApplicationsModule</title>
<polygon fill="#8dd3c7" stroke="black" points="474.59,-187 471.59,-191 450.59,-191 447.59,-187 343.41,-187 343.41,-151 474.59,-151 474.59,-187"/>
<text text-anchor="middle" x="409" y="-164.8" font-family="Times,serif" font-size="14.00">ApplicationsModule</text>
</g>
<!-- ApplicationsComponent&#45;&gt;ApplicationsModule -->
<g id="edge1" class="edge">
<title>ApplicationsComponent&#45;&gt;ApplicationsModule</title>
<path fill="none" stroke="black" d="M337.71,-104C346.5,-104 352.39,-104 352.39,-104 352.39,-104 352.39,-140.89 352.39,-140.89"/>
<polygon fill="black" stroke="black" points="348.89,-140.89 352.39,-150.89 355.89,-140.89 348.89,-140.89"/>
</g>
<!-- ChoseRoleComponent -->
<g id="node2" class="node">
<title>ChoseRoleComponent</title>
<polygon fill="#ffffb3" stroke="black" points="166.27,-122 23.73,-122 23.73,-86 166.27,-86 166.27,-122"/>
<text text-anchor="middle" x="95" y="-99.8" font-family="Times,serif" font-size="14.00">ChoseRoleComponent</text>
</g>
<!-- ChoseRoleComponent&#45;&gt;ApplicationsModule -->
<g id="edge2" class="edge">
<title>ChoseRoleComponent&#45;&gt;ApplicationsModule</title>
<path fill="none" stroke="black" d="M95,-122.11C95,-141.34 95,-169 95,-169 95,-169 333.18,-169 333.18,-169"/>
<polygon fill="black" stroke="black" points="333.18,-172.5 343.18,-169 333.18,-165.5 333.18,-172.5"/>
</g>
<!-- ApplicationsComponent  -->
<g id="node7" class="node">
<title>ApplicationsComponent </title>
<polygon fill="#fb8072" stroke="black" points="487.38,-252 330.62,-252 330.62,-216 487.38,-216 487.38,-252"/>
<text text-anchor="middle" x="409" y="-229.8" font-family="Times,serif" font-size="14.00">ApplicationsComponent </text>
</g>
<!-- ApplicationsModule&#45;&gt;ApplicationsComponent  -->
<g id="edge6" class="edge">
<title>ApplicationsModule&#45;&gt;ApplicationsComponent </title>
<path fill="none" stroke="black" stroke-dasharray="5,2" d="M409,-187.11C409,-187.11 409,-205.99 409,-205.99"/>
<polygon fill="black" stroke="black" points="405.5,-205.99 409,-215.99 412.5,-205.99 405.5,-205.99"/>
</g>
<!-- ApplicationsRoutingModule -->
<g id="node4" class="node">
<title>ApplicationsRoutingModule</title>
<polygon fill="#8dd3c7" stroke="black" points="849.21,-122 846.21,-126 825.21,-126 822.21,-122 672.79,-122 672.79,-86 849.21,-86 849.21,-122"/>
<text text-anchor="middle" x="761" y="-99.8" font-family="Times,serif" font-size="14.00">ApplicationsRoutingModule</text>
</g>
<!-- ApplicationsRoutingModule&#45;&gt;ApplicationsModule -->
<g id="edge3" class="edge">
<title>ApplicationsRoutingModule&#45;&gt;ApplicationsModule</title>
<path fill="none" stroke="black" d="M761,-122.28C761,-143.32 761,-175 761,-175 761,-175 484.8,-175 484.8,-175"/>
<polygon fill="black" stroke="black" points="484.8,-171.5 474.8,-175 484.8,-178.5 484.8,-171.5"/>
</g>
<!-- DuplicateApplicationModule -->
<g id="node5" class="node">
<title>DuplicateApplicationModule</title>
<polygon fill="#8dd3c7" stroke="black" points="655.07,-122 652.07,-126 631.07,-126 628.07,-122 474.93,-122 474.93,-86 655.07,-86 655.07,-122"/>
<text text-anchor="middle" x="565" y="-99.8" font-family="Times,serif" font-size="14.00">DuplicateApplicationModule</text>
</g>
<!-- DuplicateApplicationModule&#45;&gt;ApplicationsModule -->
<g id="edge4" class="edge">
<title>DuplicateApplicationModule&#45;&gt;ApplicationsModule</title>
<path fill="none" stroke="black" d="M481.08,-122.02C481.08,-139.37 481.08,-163 481.08,-163 481.08,-163 480.46,-163 480.46,-163"/>
<polygon fill="black" stroke="black" points="484.93,-159.5 474.93,-163 484.93,-166.5 484.93,-159.5"/>
</g>
<!-- FormsModule -->
<g id="node6" class="node">
<title>FormsModule</title>
<polygon fill="#8dd3c7" stroke="black" points="456.83,-122 453.83,-126 432.83,-126 429.83,-122 361.17,-122 361.17,-86 456.83,-86 456.83,-122"/>
<text text-anchor="middle" x="409" y="-99.8" font-family="Times,serif" font-size="14.00">FormsModule</text>
</g>
<!-- FormsModule&#45;&gt;ApplicationsModule -->
<g id="edge5" class="edge">
<title>FormsModule&#45;&gt;ApplicationsModule</title>
<path fill="none" stroke="black" d="M409,-122.11C409,-122.11 409,-140.99 409,-140.99"/>
<polygon fill="black" stroke="black" points="405.5,-140.99 409,-150.99 412.5,-140.99 405.5,-140.99"/>
</g>
</g>
</svg>
