<?xml version="1.0" encoding="UTF-8" standalone="no"?>
<!DOCTYPE svg PUBLIC "-//W3C//DTD SVG 1.1//EN"
 "http://www.w3.org/Graphics/SVG/1.1/DTD/svg11.dtd">
<!-- Generated by graphviz version 2.47.0 (20210316.0004)
 -->
<!-- Title: dependencies Pages: 1 -->
<svg width="1011pt" height="284pt"
 viewBox="0.00 0.00 1011.00 284.00" xmlns="http://www.w3.org/2000/svg" xmlns:xlink="http://www.w3.org/1999/xlink">
<g id="graph0" class="graph" transform="scale(1 1) rotate(0) translate(4 280)">
<title>dependencies</title>
<polygon fill="white" stroke="transparent" points="-4,4 -4,-280 1007,-280 1007,4 -4,4"/>
<text text-anchor="start" x="480.51" y="-42.4" font-family="sans-serif" font-weight="bold" font-size="14.00">Legend</text>
<polygon fill="#ffffb3" stroke="transparent" points="267.5,-10 267.5,-30 287.5,-30 287.5,-10 267.5,-10"/>
<text text-anchor="start" x="291.13" y="-15.4" font-family="sans-serif" font-size="14.00"> &#160;Declarations</text>
<polygon fill="#8dd3c7" stroke="transparent" points="380.5,-10 380.5,-30 400.5,-30 400.5,-10 380.5,-10"/>
<text text-anchor="start" x="404.23" y="-15.4" font-family="sans-serif" font-size="14.00"> &#160;Module</text>
<polygon fill="#80b1d3" stroke="transparent" points="466.5,-10 466.5,-30 486.5,-30 486.5,-10 466.5,-10"/>
<text text-anchor="start" x="490.28" y="-15.4" font-family="sans-serif" font-size="14.00"> &#160;Bootstrap</text>
<polygon fill="#fdb462" stroke="transparent" points="563.5,-10 563.5,-30 583.5,-30 583.5,-10 563.5,-10"/>
<text text-anchor="start" x="587.17" y="-15.4" font-family="sans-serif" font-size="14.00"> &#160;Providers</text>
<polygon fill="#fb8072" stroke="transparent" points="659.5,-10 659.5,-30 679.5,-30 679.5,-10 659.5,-10"/>
<text text-anchor="start" x="683.23" y="-15.4" font-family="sans-serif" font-size="14.00"> &#160;Exports</text>
<g id="clust1" class="cluster">
<title>cluster_ApplicationsModule</title>
<polygon fill="none" stroke="black" stroke-dasharray="1,5" points="8,-70 8,-268 995,-268 995,-70 8,-70"/>
</g>
<g id="clust2" class="cluster">
<title>cluster_ApplicationsModule_declarations</title>
<polygon fill="none" stroke="black" points="528,-78 528,-130 987,-130 987,-78 528,-78"/>
</g>
<g id="clust6" class="cluster">
<title>cluster_ApplicationsModule_imports</title>
<polygon fill="none" stroke="black" points="16,-78 16,-130 520,-130 520,-78 16,-78"/>
</g>
<g id="clust7" class="cluster">
<title>cluster_ApplicationsModule_exports</title>
<polygon fill="none" stroke="black" points="422,-208 422,-260 594,-260 594,-208 422,-208"/>
</g>
<!-- ApplicationsComponent -->
<g id="node1" class="node">
<title>ApplicationsComponent</title>
<polygon fill="#ffffb3" stroke="black" points="979.38,-122 826.62,-122 826.62,-86 979.38,-86 979.38,-122"/>
<text text-anchor="middle" x="903" y="-99.8" font-family="Times,serif" font-size="14.00">ApplicationsComponent</text>
</g>
<!-- ApplicationsModule -->
<g id="node4" class="node">
<title>ApplicationsModule</title>
<polygon fill="#8dd3c7" stroke="black" points="573.59,-187 570.59,-191 549.59,-191 546.59,-187 442.41,-187 442.41,-151 573.59,-151 573.59,-187"/>
<text text-anchor="middle" x="508" y="-164.8" font-family="Times,serif" font-size="14.00">ApplicationsModule</text>
</g>
<!-- ApplicationsComponent&#45;&gt;ApplicationsModule -->
<g id="edge1" class="edge">
<title>ApplicationsComponent&#45;&gt;ApplicationsModule</title>
<path fill="none" stroke="black" d="M903,-122.28C903,-143.32 903,-175 903,-175 903,-175 583.67,-175 583.67,-175"/>
<polygon fill="black" stroke="black" points="583.67,-171.5 573.67,-175 583.67,-178.5 583.67,-171.5"/>
</g>
<!-- ChoseRoleComponent -->
<g id="node2" class="node">
<title>ChoseRoleComponent</title>
<polygon fill="#ffffb3" stroke="black" points="808.27,-122 665.73,-122 665.73,-86 808.27,-86 808.27,-122"/>
<text text-anchor="middle" x="737" y="-99.8" font-family="Times,serif" font-size="14.00">ChoseRoleComponent</text>
</g>
<!-- ChoseRoleComponent&#45;&gt;ApplicationsModule -->
<g id="edge2" class="edge">
<title>ChoseRoleComponent&#45;&gt;ApplicationsModule</title>
<path fill="none" stroke="black" d="M737,-122.02C737,-139.37 737,-163 737,-163 737,-163 583.62,-163 583.62,-163"/>
<polygon fill="black" stroke="black" points="583.62,-159.5 573.62,-163 583.62,-166.5 583.62,-159.5"/>
</g>
<!-- FilterComponent -->
<g id="node3" class="node">
<title>FilterComponent</title>
<polygon fill="#ffffb3" stroke="black" points="647.66,-122 536.34,-122 536.34,-86 647.66,-86 647.66,-122"/>
<text text-anchor="middle" x="592" y="-99.8" font-family="Times,serif" font-size="14.00">FilterComponent</text>
</g>
<!-- FilterComponent&#45;&gt;ApplicationsModule -->
<g id="edge3" class="edge">
<title>FilterComponent&#45;&gt;ApplicationsModule</title>
<path fill="none" stroke="black" d="M554.86,-122.11C554.86,-122.11 554.86,-140.99 554.86,-140.99"/>
<polygon fill="black" stroke="black" points="551.36,-140.99 554.86,-150.99 558.36,-140.99 551.36,-140.99"/>
</g>
<!-- ApplicationsComponent  -->
<g id="node8" class="node">
<title>ApplicationsComponent </title>
<polygon fill="#fb8072" stroke="black" points="586.38,-252 429.62,-252 429.62,-216 586.38,-216 586.38,-252"/>
<text text-anchor="middle" x="508" y="-229.8" font-family="Times,serif" font-size="14.00">ApplicationsComponent </text>
</g>
<!-- ApplicationsModule&#45;&gt;ApplicationsComponent  -->
<g id="edge7" class="edge">
<title>ApplicationsModule&#45;&gt;ApplicationsComponent </title>
<path fill="none" stroke="black" stroke-dasharray="5,2" d="M508,-187.11C508,-187.11 508,-205.99 508,-205.99"/>
<polygon fill="black" stroke="black" points="504.5,-205.99 508,-215.99 511.5,-205.99 504.5,-205.99"/>
</g>
<!-- ApplicationsRoutingModule -->
<g id="node5" class="node">
<title>ApplicationsRoutingModule</title>
<polygon fill="#8dd3c7" stroke="black" points="512.21,-122 509.21,-126 488.21,-126 485.21,-122 335.79,-122 335.79,-86 512.21,-86 512.21,-122"/>
<text text-anchor="middle" x="424" y="-99.8" font-family="Times,serif" font-size="14.00">ApplicationsRoutingModule</text>
</g>
<!-- ApplicationsRoutingModule&#45;&gt;ApplicationsModule -->
<g id="edge4" class="edge">
<title>ApplicationsRoutingModule&#45;&gt;ApplicationsModule</title>
<path fill="none" stroke="black" d="M477.28,-122.11C477.28,-122.11 477.28,-140.99 477.28,-140.99"/>
<polygon fill="black" stroke="black" points="473.78,-140.99 477.28,-150.99 480.78,-140.99 473.78,-140.99"/>
</g>
<!-- DuplicateApplicationModule -->
<g id="node6" class="node">
<title>DuplicateApplicationModule</title>
<polygon fill="#8dd3c7" stroke="black" points="318.07,-122 315.07,-126 294.07,-126 291.07,-122 137.93,-122 137.93,-86 318.07,-86 318.07,-122"/>
<text text-anchor="middle" x="228" y="-99.8" font-family="Times,serif" font-size="14.00">DuplicateApplicationModule</text>
</g>
<!-- DuplicateApplicationModule&#45;&gt;ApplicationsModule -->
<g id="edge5" class="edge">
<title>DuplicateApplicationModule&#45;&gt;ApplicationsModule</title>
<path fill="none" stroke="black" d="M228,-122.02C228,-139.37 228,-163 228,-163 228,-163 432.35,-163 432.35,-163"/>
<polygon fill="black" stroke="black" points="432.35,-166.5 442.35,-163 432.35,-159.5 432.35,-166.5"/>
</g>
<!-- FormsModule -->
<g id="node7" class="node">
<title>FormsModule</title>
<polygon fill="#8dd3c7" stroke="black" points="119.83,-122 116.83,-126 95.83,-126 92.83,-122 24.17,-122 24.17,-86 119.83,-86 119.83,-122"/>
<text text-anchor="middle" x="72" y="-99.8" font-family="Times,serif" font-size="14.00">FormsModule</text>
</g>
<!-- FormsModule&#45;&gt;ApplicationsModule -->
<g id="edge6" class="edge">
<title>FormsModule&#45;&gt;ApplicationsModule</title>
<path fill="none" stroke="black" d="M72,-122.28C72,-143.32 72,-175 72,-175 72,-175 432.25,-175 432.25,-175"/>
<polygon fill="black" stroke="black" points="432.25,-178.5 442.25,-175 432.25,-171.5 432.25,-178.5"/>
</g>
</g>
</svg>
