<?xml version="1.0" encoding="UTF-8" standalone="no"?>
<!DOCTYPE svg PUBLIC "-//W3C//DTD SVG 1.1//EN"
 "http://www.w3.org/Graphics/SVG/1.1/DTD/svg11.dtd">
<!-- Generated by graphviz version 3.0.0 (20220226.1711)
 -->
<!-- Title: dependencies Pages: 1 -->
<svg width="891pt" height="247pt"
 viewBox="0.00 0.00 891.00 246.80" xmlns="http://www.w3.org/2000/svg" xmlns:xlink="http://www.w3.org/1999/xlink">
<g id="graph0" class="graph" transform="scale(1 1) rotate(0) translate(4 242.8)">
<title>dependencies</title>
<polygon fill="white" stroke="transparent" points="-4,4 -4,-242.8 887,-242.8 887,4 -4,4"/>
<text text-anchor="middle" x="441.5" y="-8.2" font-family="sans-serif" font-size="14.00">dependencies</text>
<g id="clust1" class="cluster">
<title>cluster_NotificationsModule</title>
<polygon fill="none" stroke="black" stroke-dasharray="1,5" points="8,-32.8 8,-230.8 875,-230.8 875,-32.8 8,-32.8"/>
</g>
<g id="clust4" class="cluster">
<title>cluster_NotificationsModule_imports</title>
<polygon fill="none" stroke="black" points="194,-40.8 194,-92.8 867,-92.8 867,-40.8 194,-40.8"/>
</g>
<g id="clust5" class="cluster">
<title>cluster_NotificationsModule_exports</title>
<polygon fill="none" stroke="black" points="362,-170.8 362,-222.8 536,-222.8 536,-170.8 362,-170.8"/>
</g>
<g id="clust2" class="cluster">
<title>cluster_NotificationsModule_declarations</title>
<polygon fill="none" stroke="black" points="16,-40.8 16,-92.8 186,-92.8 186,-40.8 16,-40.8"/>
</g>
<!-- NotificationsComponent -->
<g id="node1" class="node">
<title>NotificationsComponent</title>
<polygon fill="#ffffb3" stroke="black" points="178.43,-84.8 23.57,-84.8 23.57,-48.8 178.43,-48.8 178.43,-84.8"/>
<text text-anchor="middle" x="101" y="-62.6" font-family="Times,serif" font-size="14.00">NotificationsComponent</text>
</g>
<!-- NotificationsModule -->
<g id="node2" class="node">
<title>NotificationsModule</title>
<polygon fill="#8dd3c7" stroke="black" points="515.15,-149.8 512.15,-153.8 491.15,-153.8 488.15,-149.8 382.85,-149.8 382.85,-113.8 515.15,-113.8 515.15,-149.8"/>
<text text-anchor="middle" x="449" y="-127.6" font-family="Times,serif" font-size="14.00">NotificationsModule</text>
</g>
<!-- NotificationsComponent&#45;&gt;NotificationsModule -->
<g id="edge1" class="edge">
<title>NotificationsComponent&#45;&gt;NotificationsModule</title>
<path fill="none" stroke="black" d="M101,-85.08C101,-106.12 101,-137.8 101,-137.8 101,-137.8 372.72,-137.8 372.72,-137.8"/>
<polygon fill="black" stroke="black" points="372.72,-141.3 382.72,-137.8 372.72,-134.3 372.72,-141.3"/>
</g>
<!-- NotificationsComponent  -->
<g id="node7" class="node">
<title>NotificationsComponent </title>
<polygon fill="#fb8072" stroke="black" points="527.93,-214.8 370.07,-214.8 370.07,-178.8 527.93,-178.8 527.93,-214.8"/>
<text text-anchor="middle" x="449" y="-192.6" font-family="Times,serif" font-size="14.00">NotificationsComponent </text>
</g>
<!-- NotificationsModule&#45;&gt;NotificationsComponent  -->
<g id="edge6" class="edge">
<title>NotificationsModule&#45;&gt;NotificationsComponent </title>
<path fill="none" stroke="black" stroke-dasharray="5,2" d="M449,-149.91C449,-149.91 449,-168.79 449,-168.79"/>
<polygon fill="black" stroke="black" points="445.5,-168.79 449,-178.79 452.5,-168.79 445.5,-168.79"/>
</g>
<!-- EditNotificationModalModule -->
<g id="node3" class="node">
<title>EditNotificationModalModule</title>
<polygon fill="#8dd3c7" stroke="black" points="858.58,-84.8 855.58,-88.8 834.58,-88.8 831.58,-84.8 671.42,-84.8 671.42,-48.8 858.58,-48.8 858.58,-84.8"/>
<text text-anchor="middle" x="765" y="-62.6" font-family="Times,serif" font-size="14.00">EditNotificationModalModule</text>
</g>
<!-- EditNotificationModalModule&#45;&gt;NotificationsModule -->
<g id="edge2" class="edge">
<title>EditNotificationModalModule&#45;&gt;NotificationsModule</title>
<path fill="none" stroke="black" d="M765,-85.08C765,-106.12 765,-137.8 765,-137.8 765,-137.8 525.24,-137.8 525.24,-137.8"/>
<polygon fill="black" stroke="black" points="525.24,-134.3 515.24,-137.8 525.24,-141.3 525.24,-134.3"/>
</g>
<!-- SafeButtonModule -->
<g id="node4" class="node">
<title>SafeButtonModule</title>
<polygon fill="#8dd3c7" stroke="black" points="653.05,-84.8 650.05,-88.8 629.05,-88.8 626.05,-84.8 530.95,-84.8 530.95,-48.8 653.05,-48.8 653.05,-84.8"/>
<text text-anchor="middle" x="592" y="-62.6" font-family="Times,serif" font-size="14.00">SafeButtonModule</text>
</g>
<!-- SafeButtonModule&#45;&gt;NotificationsModule -->
<g id="edge3" class="edge">
<title>SafeButtonModule&#45;&gt;NotificationsModule</title>
<path fill="none" stroke="black" d="M592,-84.82C592,-102.17 592,-125.8 592,-125.8 592,-125.8 525.48,-125.8 525.48,-125.8"/>
<polygon fill="black" stroke="black" points="525.48,-122.3 515.48,-125.8 525.48,-129.3 525.48,-122.3"/>
</g>
<!-- SafeDividerModule -->
<g id="node5" class="node">
<title>SafeDividerModule</title>
<polygon fill="#8dd3c7" stroke="black" points="512.69,-84.8 509.69,-88.8 488.69,-88.8 485.69,-84.8 385.31,-84.8 385.31,-48.8 512.69,-48.8 512.69,-84.8"/>
<text text-anchor="middle" x="449" y="-62.6" font-family="Times,serif" font-size="14.00">SafeDividerModule</text>
</g>
<!-- SafeDividerModule&#45;&gt;NotificationsModule -->
<g id="edge4" class="edge">
<title>SafeDividerModule&#45;&gt;NotificationsModule</title>
<path fill="none" stroke="black" d="M449,-84.91C449,-84.91 449,-103.79 449,-103.79"/>
<polygon fill="black" stroke="black" points="445.5,-103.79 449,-113.79 452.5,-103.79 445.5,-103.79"/>
</g>
<!-- SafeSkeletonTableModule -->
<g id="node6" class="node">
<title>SafeSkeletonTableModule</title>
<polygon fill="#8dd3c7" stroke="black" points="367.79,-84.8 364.79,-88.8 343.79,-88.8 340.79,-84.8 202.21,-84.8 202.21,-48.8 367.79,-48.8 367.79,-84.8"/>
<text text-anchor="middle" x="285" y="-62.6" font-family="Times,serif" font-size="14.00">SafeSkeletonTableModule</text>
</g>
<!-- SafeSkeletonTableModule&#45;&gt;NotificationsModule -->
<g id="edge5" class="edge">
<title>SafeSkeletonTableModule&#45;&gt;NotificationsModule</title>
<path fill="none" stroke="black" d="M285,-84.82C285,-102.17 285,-125.8 285,-125.8 285,-125.8 372.77,-125.8 372.77,-125.8"/>
<polygon fill="black" stroke="black" points="372.77,-129.3 382.77,-125.8 372.77,-122.3 372.77,-129.3"/>
</g>
</g>
</svg>
