<?xml version="1.0" encoding="UTF-8" standalone="no"?>
<!DOCTYPE svg PUBLIC "-//W3C//DTD SVG 1.1//EN"
 "http://www.w3.org/Graphics/SVG/1.1/DTD/svg11.dtd">
<!-- Generated by graphviz version 3.0.0 (20220226.1711)
 -->
<!-- Title: dependencies Pages: 1 -->
<svg width="891pt" height="247pt"
 viewBox="0.00 0.00 891.00 246.80" xmlns="http://www.w3.org/2000/svg" xmlns:xlink="http://www.w3.org/1999/xlink">
<g id="graph0" class="graph" transform="scale(1 1) rotate(0) translate(4 242.8)">
<title>dependencies</title>
<polygon fill="white" stroke="transparent" points="-4,4 -4,-242.8 887,-242.8 887,4 -4,4"/>
<text text-anchor="middle" x="441.5" y="-8.2" font-family="sans-serif" font-size="14.00">dependencies</text>
<g id="clust1" class="cluster">
<title>cluster_NotificationsModule</title>
<polygon fill="none" stroke="black" stroke-dasharray="1,5" points="8,-32.8 8,-230.8 875,-230.8 875,-32.8 8,-32.8"/>
</g>
<g id="clust5" class="cluster">
<title>cluster_NotificationsModule_exports</title>
<polygon fill="none" stroke="black" points="327,-170.8 327,-222.8 501,-222.8 501,-170.8 327,-170.8"/>
</g>
<g id="clust2" class="cluster">
<title>cluster_NotificationsModule_declarations</title>
<polygon fill="none" stroke="black" points="697,-40.8 697,-92.8 867,-92.8 867,-40.8 697,-40.8"/>
</g>
<g id="clust4" class="cluster">
<title>cluster_NotificationsModule_imports</title>
<polygon fill="none" stroke="black" points="16,-40.8 16,-92.8 689,-92.8 689,-40.8 16,-40.8"/>
</g>
<!-- NotificationsComponent -->
<g id="node1" class="node">
<title>NotificationsComponent</title>
<polygon fill="#ffffb3" stroke="black" points="859.43,-84.8 704.57,-84.8 704.57,-48.8 859.43,-48.8 859.43,-84.8"/>
<text text-anchor="middle" x="782" y="-62.6" font-family="Times,serif" font-size="14.00">NotificationsComponent</text>
</g>
<!-- NotificationsModule -->
<g id="node2" class="node">
<title>NotificationsModule</title>
<polygon fill="#8dd3c7" stroke="black" points="480.15,-149.8 477.15,-153.8 456.15,-153.8 453.15,-149.8 347.85,-149.8 347.85,-113.8 480.15,-113.8 480.15,-149.8"/>
<text text-anchor="middle" x="414" y="-127.6" font-family="Times,serif" font-size="14.00">NotificationsModule</text>
</g>
<!-- NotificationsComponent&#45;&gt;NotificationsModule -->
<g id="edge1" class="edge">
<title>NotificationsComponent&#45;&gt;NotificationsModule</title>
<path fill="none" stroke="black" d="M782,-85.08C782,-106.12 782,-137.8 782,-137.8 782,-137.8 490.22,-137.8 490.22,-137.8"/>
<polygon fill="black" stroke="black" points="490.22,-134.3 480.22,-137.8 490.22,-141.3 490.22,-134.3"/>
</g>
<!-- NotificationsComponent  -->
<g id="node7" class="node">
<title>NotificationsComponent </title>
<polygon fill="#fb8072" stroke="black" points="492.93,-214.8 335.07,-214.8 335.07,-178.8 492.93,-178.8 492.93,-214.8"/>
<text text-anchor="middle" x="414" y="-192.6" font-family="Times,serif" font-size="14.00">NotificationsComponent </text>
</g>
<!-- NotificationsModule&#45;&gt;NotificationsComponent  -->
<g id="edge6" class="edge">
<title>NotificationsModule&#45;&gt;NotificationsComponent </title>
<path fill="none" stroke="black" stroke-dasharray="5,2" d="M414,-149.91C414,-149.91 414,-168.79 414,-168.79"/>
<polygon fill="black" stroke="black" points="410.5,-168.79 414,-178.79 417.5,-168.79 410.5,-168.79"/>
</g>
<!-- EditNotificationModalModule -->
<g id="node3" class="node">
<title>EditNotificationModalModule</title>
<polygon fill="#8dd3c7" stroke="black" points="680.58,-84.8 677.58,-88.8 656.58,-88.8 653.58,-84.8 493.42,-84.8 493.42,-48.8 680.58,-48.8 680.58,-84.8"/>
<text text-anchor="middle" x="587" y="-62.6" font-family="Times,serif" font-size="14.00">EditNotificationModalModule</text>
</g>
<!-- EditNotificationModalModule&#45;&gt;NotificationsModule -->
<g id="edge2" class="edge">
<title>EditNotificationModalModule&#45;&gt;NotificationsModule</title>
<path fill="none" stroke="black" d="M587,-84.82C587,-102.17 587,-125.8 587,-125.8 587,-125.8 490.39,-125.8 490.39,-125.8"/>
<polygon fill="black" stroke="black" points="490.39,-122.3 480.39,-125.8 490.39,-129.3 490.39,-122.3"/>
</g>
<!-- SafeButtonModule -->
<g id="node4" class="node">
<title>SafeButtonModule</title>
<polygon fill="#8dd3c7" stroke="black" points="475.05,-84.8 472.05,-88.8 451.05,-88.8 448.05,-84.8 352.95,-84.8 352.95,-48.8 475.05,-48.8 475.05,-84.8"/>
<text text-anchor="middle" x="414" y="-62.6" font-family="Times,serif" font-size="14.00">SafeButtonModule</text>
</g>
<!-- SafeButtonModule&#45;&gt;NotificationsModule -->
<g id="edge3" class="edge">
<title>SafeButtonModule&#45;&gt;NotificationsModule</title>
<path fill="none" stroke="black" d="M414,-84.91C414,-84.91 414,-103.79 414,-103.79"/>
<polygon fill="black" stroke="black" points="410.5,-103.79 414,-113.79 417.5,-103.79 410.5,-103.79"/>
</g>
<!-- SafeDividerModule -->
<g id="node5" class="node">
<title>SafeDividerModule</title>
<polygon fill="#8dd3c7" stroke="black" points="334.69,-84.8 331.69,-88.8 310.69,-88.8 307.69,-84.8 207.31,-84.8 207.31,-48.8 334.69,-48.8 334.69,-84.8"/>
<text text-anchor="middle" x="271" y="-62.6" font-family="Times,serif" font-size="14.00">SafeDividerModule</text>
</g>
<!-- SafeDividerModule&#45;&gt;NotificationsModule -->
<g id="edge4" class="edge">
<title>SafeDividerModule&#45;&gt;NotificationsModule</title>
<path fill="none" stroke="black" d="M271,-84.82C271,-102.17 271,-125.8 271,-125.8 271,-125.8 337.52,-125.8 337.52,-125.8"/>
<polygon fill="black" stroke="black" points="337.52,-129.3 347.52,-125.8 337.52,-122.3 337.52,-129.3"/>
</g>
<!-- SafeSkeletonTableModule -->
<g id="node6" class="node">
<title>SafeSkeletonTableModule</title>
<polygon fill="#8dd3c7" stroke="black" points="189.79,-84.8 186.79,-88.8 165.79,-88.8 162.79,-84.8 24.21,-84.8 24.21,-48.8 189.79,-48.8 189.79,-84.8"/>
<text text-anchor="middle" x="107" y="-62.6" font-family="Times,serif" font-size="14.00">SafeSkeletonTableModule</text>
</g>
<!-- SafeSkeletonTableModule&#45;&gt;NotificationsModule -->
<g id="edge5" class="edge">
<title>SafeSkeletonTableModule&#45;&gt;NotificationsModule</title>
<path fill="none" stroke="black" d="M107,-85.08C107,-106.12 107,-137.8 107,-137.8 107,-137.8 337.76,-137.8 337.76,-137.8"/>
<polygon fill="black" stroke="black" points="337.76,-141.3 347.76,-137.8 337.76,-134.3 337.76,-141.3"/>
</g>
</g>
</svg>
