<?xml version="1.0" encoding="UTF-8" standalone="no"?>
<!DOCTYPE svg PUBLIC "-//W3C//DTD SVG 1.1//EN"
 "http://www.w3.org/Graphics/SVG/1.1/DTD/svg11.dtd">
<!-- Generated by graphviz version 2.47.0 (20210316.0004)
 -->
<!-- Title: dependencies Pages: 1 -->
<svg width="1780pt" height="349pt"
 viewBox="0.00 0.00 1780.00 349.00" xmlns="http://www.w3.org/2000/svg" xmlns:xlink="http://www.w3.org/1999/xlink">
<g id="graph0" class="graph" transform="scale(1 1) rotate(0) translate(4 345)">
<title>dependencies</title>
<polygon fill="white" stroke="transparent" points="-4,4 -4,-345 1776,-345 1776,4 -4,4"/>
<text text-anchor="start" x="865.01" y="-42.4" font-family="sans-serif" font-weight="bold" font-size="14.00">Legend</text>
<polygon fill="#ffffb3" stroke="transparent" points="652,-10 652,-30 672,-30 672,-10 652,-10"/>
<text text-anchor="start" x="675.63" y="-15.4" font-family="sans-serif" font-size="14.00"> &#160;Declarations</text>
<polygon fill="#8dd3c7" stroke="transparent" points="765,-10 765,-30 785,-30 785,-10 765,-10"/>
<text text-anchor="start" x="788.73" y="-15.4" font-family="sans-serif" font-size="14.00"> &#160;Module</text>
<polygon fill="#80b1d3" stroke="transparent" points="851,-10 851,-30 871,-30 871,-10 851,-10"/>
<text text-anchor="start" x="874.78" y="-15.4" font-family="sans-serif" font-size="14.00"> &#160;Bootstrap</text>
<polygon fill="#fdb462" stroke="transparent" points="948,-10 948,-30 968,-30 968,-10 948,-10"/>
<text text-anchor="start" x="971.67" y="-15.4" font-family="sans-serif" font-size="14.00"> &#160;Providers</text>
<polygon fill="#fb8072" stroke="transparent" points="1044,-10 1044,-30 1064,-30 1064,-10 1044,-10"/>
<text text-anchor="start" x="1067.73" y="-15.4" font-family="sans-serif" font-size="14.00"> &#160;Exports</text>
<g id="clust1" class="cluster">
<title>cluster_SafeResourceGridModule</title>
<polygon fill="none" stroke="black" stroke-dasharray="1,5" points="8,-70 8,-333 1764,-333 1764,-70 8,-70"/>
</g>
<g id="clust5" class="cluster">
<title>cluster_SafeResourceGridModule_exports</title>
<polygon fill="none" stroke="black" points="1111,-273 1111,-325 1315,-325 1315,-273 1111,-273"/>
</g>
<g id="clust2" class="cluster">
<title>cluster_SafeResourceGridModule_declarations</title>
<polygon fill="none" stroke="black" points="1113,-143 1113,-195 1313,-195 1313,-143 1113,-143"/>
</g>
<g id="clust3" class="cluster">
<title>cluster_SafeResourceGridModule_SafeResourceGridComponent_providers</title>
<polygon fill="none" stroke="black" points="16,-78 16,-130 1756,-130 1756,-78 16,-78"/>
</g>
<!-- SafeResourceGridComponent -->
<g id="node1" class="node">
<title>SafeResourceGridComponent</title>
<polygon fill="#ffffb3" stroke="black" points="1304.95,-187 1121.05,-187 1121.05,-151 1304.95,-151 1304.95,-187"/>
<text text-anchor="middle" x="1213" y="-164.8" font-family="Times,serif" font-size="14.00">SafeResourceGridComponent</text>
</g>
<!-- SafeResourceGridModule -->
<g id="node2" class="node">
<title>SafeResourceGridModule</title>
<polygon fill="#8dd3c7" stroke="black" points="1294.17,-252 1291.17,-256 1270.17,-256 1267.17,-252 1131.83,-252 1131.83,-216 1294.17,-216 1294.17,-252"/>
<text text-anchor="middle" x="1213" y="-229.8" font-family="Times,serif" font-size="14.00">SafeResourceGridModule</text>
</g>
<!-- SafeResourceGridComponent&#45;&gt;SafeResourceGridModule -->
<g id="edge1" class="edge">
<title>SafeResourceGridComponent&#45;&gt;SafeResourceGridModule</title>
<path fill="none" stroke="black" d="M1213,-187.11C1213,-187.11 1213,-205.99 1213,-205.99"/>
<polygon fill="black" stroke="black" points="1209.5,-205.99 1213,-215.99 1216.5,-205.99 1209.5,-205.99"/>
</g>
<!-- SafeResourceGridComponent  -->
<g id="node6" class="node">
<title>SafeResourceGridComponent </title>
<polygon fill="#fb8072" stroke="black" points="1306.95,-317 1119.05,-317 1119.05,-281 1306.95,-281 1306.95,-317"/>
<text text-anchor="middle" x="1213" y="-294.8" font-family="Times,serif" font-size="14.00">SafeResourceGridComponent </text>
</g>
<!-- SafeResourceGridModule&#45;&gt;SafeResourceGridComponent  -->
<g id="edge5" class="edge">
<title>SafeResourceGridModule&#45;&gt;SafeResourceGridComponent </title>
<path fill="none" stroke="black" stroke-dasharray="5,2" d="M1213,-252.11C1213,-252.11 1213,-270.99 1213,-270.99"/>
<polygon fill="black" stroke="black" points="1209.5,-270.99 1213,-280.99 1216.5,-270.99 1209.5,-270.99"/>
</g>
<!-- PopupService -->
<g id="node3" class="node">
<title>PopupService</title>
<ellipse fill="#fdb462" stroke="black" cx="1683" cy="-104" rx="64.85" ry="18"/>
<text text-anchor="middle" x="1683" y="-99.8" font-family="Times,serif" font-size="14.00">PopupService</text>
</g>
<!-- PopupService&#45;&gt;SafeResourceGridComponent -->
<g id="edge2" class="edge">
<title>PopupService&#45;&gt;SafeResourceGridComponent</title>
<path fill="none" stroke="black" d="M1683,-122.11C1683,-141.34 1683,-169 1683,-169 1683,-169 1315.02,-169 1315.02,-169"/>
<polygon fill="black" stroke="black" points="1315.02,-165.5 1305.02,-169 1315.02,-172.5 1315.02,-165.5"/>
</g>
<!-- { provide: MAT_SELECT_SCROLL_STRATEGY, useFactory: scrollFactory, deps: [Overlay] } -->
<g id="node4" class="node">
<title>{ provide: MAT_SELECT_SCROLL_STRATEGY, useFactory: scrollFactory, deps: [Overlay] }</title>
<ellipse fill="#fdb462" stroke="black" cx="1213" cy="-104" rx="386.83" ry="18"/>
<text text-anchor="middle" x="1213" y="-99.8" font-family="Times,serif" font-size="14.00">{ provide: MAT_SELECT_SCROLL_STRATEGY, useFactory: scrollFactory, deps: [Overlay] }</text>
</g>
<!-- { provide: MAT_SELECT_SCROLL_STRATEGY, useFactory: scrollFactory, deps: [Overlay] }&#45;&gt;SafeResourceGridComponent -->
<g id="edge3" class="edge">
<title>{ provide: MAT_SELECT_SCROLL_STRATEGY, useFactory: scrollFactory, deps: [Overlay] }&#45;&gt;SafeResourceGridComponent</title>
<path fill="none" stroke="black" d="M1213,-122.11C1213,-122.11 1213,-140.99 1213,-140.99"/>
<polygon fill="black" stroke="black" points="1209.5,-140.99 1213,-150.99 1216.5,-140.99 1209.5,-140.99"/>
</g>
<!-- { provide: MAT_TOOLTIP_SCROLL_STRATEGY, useFactory: scrollFactory, deps: [Overlay] } -->
<g id="node5" class="node">
<title>{ provide: MAT_TOOLTIP_SCROLL_STRATEGY, useFactory: scrollFactory, deps: [Overlay] }</title>
<ellipse fill="#fdb462" stroke="black" cx="416" cy="-104" rx="391.97" ry="18"/>
<text text-anchor="middle" x="416" y="-99.8" font-family="Times,serif" font-size="14.00">{ provide: MAT_TOOLTIP_SCROLL_STRATEGY, useFactory: scrollFactory, deps: [Overlay] }</text>
</g>
<!-- { provide: MAT_TOOLTIP_SCROLL_STRATEGY, useFactory: scrollFactory, deps: [Overlay] }&#45;&gt;SafeResourceGridComponent -->
<g id="edge4" class="edge">
<title>{ provide: MAT_TOOLTIP_SCROLL_STRATEGY, useFactory: scrollFactory, deps: [Overlay] }&#45;&gt;SafeResourceGridComponent</title>
<path fill="none" stroke="black" d="M416,-122.11C416,-141.34 416,-169 416,-169 416,-169 1110.8,-169 1110.8,-169"/>
<polygon fill="black" stroke="black" points="1110.8,-172.5 1120.8,-169 1110.8,-165.5 1110.8,-172.5"/>
</g>
</g>
</svg>
