<?xml version="1.0" encoding="UTF-8" standalone="no"?>
<!DOCTYPE svg PUBLIC "-//W3C//DTD SVG 1.1//EN"
 "http://www.w3.org/Graphics/SVG/1.1/DTD/svg11.dtd">
<!-- Generated by graphviz version 3.0.0 (20220226.1711)
 -->
<!-- Title: dependencies Pages: 1 -->
<svg width="3080pt" height="247pt"
 viewBox="0.00 0.00 3080.00 246.80" xmlns="http://www.w3.org/2000/svg" xmlns:xlink="http://www.w3.org/1999/xlink">
<g id="graph0" class="graph" transform="scale(1 1) rotate(0) translate(4 242.8)">
<title>dependencies</title>
<polygon fill="white" stroke="transparent" points="-4,4 -4,-242.8 3076,-242.8 3076,4 -4,4"/>
<text text-anchor="middle" x="1536" y="-8.2" font-family="sans-serif" font-size="14.00">dependencies</text>
<g id="clust1" class="cluster">
<title>cluster_SafeQueryBuilderModule</title>
<polygon fill="none" stroke="black" stroke-dasharray="1,5" points="8,-32.8 8,-230.8 3064,-230.8 3064,-32.8 8,-32.8"/>
</g>
<g id="clust15" class="cluster">
<title>cluster_SafeQueryBuilderModule_exports</title>
<polygon fill="none" stroke="black" points="870,-170.8 870,-222.8 1818,-222.8 1818,-170.8 870,-170.8"/>
</g>
<g id="clust2" class="cluster">
<title>cluster_SafeQueryBuilderModule_declarations</title>
<polygon fill="none" stroke="black" points="895,-40.8 895,-92.8 3056,-92.8 3056,-40.8 895,-40.8"/>
</g>
<g id="clust14" class="cluster">
<title>cluster_SafeQueryBuilderModule_imports</title>
<polygon fill="none" stroke="black" points="16,-40.8 16,-92.8 887,-92.8 887,-40.8 16,-40.8"/>
</g>
<!-- DateFilterEditorComponent -->
<g id="node1" class="node">
<title>DateFilterEditorComponent</title>
<polygon fill="#ffffb3" stroke="black" points="3047.58,-84.8 2874.42,-84.8 2874.42,-48.8 3047.58,-48.8 3047.58,-84.8"/>
<text text-anchor="middle" x="2961" y="-62.6" font-family="Times,serif" font-size="14.00">DateFilterEditorComponent</text>
</g>
<!-- SafeQueryBuilderModule -->
<g id="node12" class="node">
<title>SafeQueryBuilderModule</title>
<polygon fill="#8dd3c7" stroke="black" points="1421.91,-149.8 1418.91,-153.8 1397.91,-153.8 1394.91,-149.8 1260.09,-149.8 1260.09,-113.8 1421.91,-113.8 1421.91,-149.8"/>
<text text-anchor="middle" x="1341" y="-127.6" font-family="Times,serif" font-size="14.00">SafeQueryBuilderModule</text>
</g>
<!-- DateFilterEditorComponent&#45;&gt;SafeQueryBuilderModule -->
<g id="edge1" class="edge">
<title>DateFilterEditorComponent&#45;&gt;SafeQueryBuilderModule</title>
<path fill="none" stroke="black" d="M2961,-85.09C2961,-107.01 2961,-140.8 2961,-140.8 2961,-140.8 1431.89,-140.8 1431.89,-140.8"/>
<polygon fill="black" stroke="black" points="1431.89,-137.3 1421.89,-140.8 1431.89,-144.3 1431.89,-137.3"/>
</g>
<!-- SafeQueryBuilderComponent -->
<g id="node2" class="node">
<title>SafeQueryBuilderComponent</title>
<polygon fill="#ffffb3" stroke="black" points="2856.69,-84.8 2673.31,-84.8 2673.31,-48.8 2856.69,-48.8 2856.69,-84.8"/>
<text text-anchor="middle" x="2765" y="-62.6" font-family="Times,serif" font-size="14.00">SafeQueryBuilderComponent</text>
</g>
<!-- SafeQueryBuilderComponent&#45;&gt;SafeQueryBuilderModule -->
<g id="edge2" class="edge">
<title>SafeQueryBuilderComponent&#45;&gt;SafeQueryBuilderModule</title>
<path fill="none" stroke="black" d="M2765,-84.83C2765,-105.57 2765,-136.8 2765,-136.8 2765,-136.8 1431.9,-136.8 1431.9,-136.8"/>
<polygon fill="black" stroke="black" points="1431.9,-133.3 1421.9,-136.8 1431.9,-140.3 1431.9,-133.3"/>
</g>
<!-- SafeQueryStyleComponent -->
<g id="node3" class="node">
<title>SafeQueryStyleComponent</title>
<polygon fill="#ffffb3" stroke="black" points="2654.97,-84.8 2485.03,-84.8 2485.03,-48.8 2654.97,-48.8 2654.97,-84.8"/>
<text text-anchor="middle" x="2570" y="-62.6" font-family="Times,serif" font-size="14.00">SafeQueryStyleComponent</text>
</g>
<!-- SafeQueryStyleComponent&#45;&gt;SafeQueryBuilderModule -->
<g id="edge3" class="edge">
<title>SafeQueryStyleComponent&#45;&gt;SafeQueryBuilderModule</title>
<path fill="none" stroke="black" d="M2570,-85.11C2570,-104.95 2570,-133.8 2570,-133.8 2570,-133.8 1432.11,-133.8 1432.11,-133.8"/>
<polygon fill="black" stroke="black" points="1432.11,-130.3 1422.11,-133.8 1432.11,-137.3 1432.11,-130.3"/>
</g>
<!-- SafeQueryStyleListComponent -->
<g id="node4" class="node">
<title>SafeQueryStyleListComponent</title>
<polygon fill="#ffffb3" stroke="black" points="2466.75,-84.8 2275.25,-84.8 2275.25,-48.8 2466.75,-48.8 2466.75,-84.8"/>
<text text-anchor="middle" x="2371" y="-62.6" font-family="Times,serif" font-size="14.00">SafeQueryStyleListComponent</text>
</g>
<!-- SafeQueryStyleListComponent&#45;&gt;SafeQueryBuilderModule -->
<g id="edge4" class="edge">
<title>SafeQueryStyleListComponent&#45;&gt;SafeQueryBuilderModule</title>
<path fill="none" stroke="black" d="M2371,-84.97C2371,-103.89 2371,-130.8 2371,-130.8 2371,-130.8 1431.82,-130.8 1431.82,-130.8"/>
<polygon fill="black" stroke="black" points="1431.82,-127.3 1421.82,-130.8 1431.82,-134.3 1431.82,-127.3"/>
</g>
<!-- SafeQueryStylePreviewComponent -->
<g id="node5" class="node">
<title>SafeQueryStylePreviewComponent</title>
<polygon fill="#ffffb3" stroke="black" points="2256.85,-84.8 2041.15,-84.8 2041.15,-48.8 2256.85,-48.8 2256.85,-84.8"/>
<text text-anchor="middle" x="2149" y="-62.6" font-family="Times,serif" font-size="14.00">SafeQueryStylePreviewComponent</text>
</g>
<!-- SafeQueryStylePreviewComponent&#45;&gt;SafeQueryBuilderModule -->
<g id="edge5" class="edge">
<title>SafeQueryStylePreviewComponent&#45;&gt;SafeQueryBuilderModule</title>
<path fill="none" stroke="black" d="M2149,-85.1C2149,-103.07 2149,-127.8 2149,-127.8 2149,-127.8 1431.8,-127.8 1431.8,-127.8"/>
<polygon fill="black" stroke="black" points="1431.8,-124.3 1421.8,-127.8 1431.8,-131.3 1431.8,-124.3"/>
</g>
<!-- SafeTabFieldsComponent -->
<g id="node6" class="node">
<title>SafeTabFieldsComponent</title>
<polygon fill="#ffffb3" stroke="black" points="2023.2,-84.8 1860.8,-84.8 1860.8,-48.8 2023.2,-48.8 2023.2,-84.8"/>
<text text-anchor="middle" x="1942" y="-62.6" font-family="Times,serif" font-size="14.00">SafeTabFieldsComponent</text>
</g>
<!-- SafeTabFieldsComponent&#45;&gt;SafeQueryBuilderModule -->
<g id="edge6" class="edge">
<title>SafeTabFieldsComponent&#45;&gt;SafeQueryBuilderModule</title>
<path fill="none" stroke="black" d="M1942,-84.84C1942,-101.53 1942,-123.8 1942,-123.8 1942,-123.8 1431.74,-123.8 1431.74,-123.8"/>
<polygon fill="black" stroke="black" points="1431.74,-120.3 1421.74,-123.8 1431.74,-127.3 1431.74,-120.3"/>
</g>
<!-- SafeTabFilterComponent -->
<g id="node7" class="node">
<title>SafeTabFilterComponent</title>
<polygon fill="#ffffb3" stroke="black" points="1843.3,-84.8 1684.7,-84.8 1684.7,-48.8 1843.3,-48.8 1843.3,-84.8"/>
<text text-anchor="middle" x="1764" y="-62.6" font-family="Times,serif" font-size="14.00">SafeTabFilterComponent</text>
</g>
<!-- SafeTabFilterComponent&#45;&gt;SafeQueryBuilderModule -->
<g id="edge7" class="edge">
<title>SafeTabFilterComponent&#45;&gt;SafeQueryBuilderModule</title>
<path fill="none" stroke="black" d="M1747.6,-85.08C1747.6,-100.75 1747.6,-120.8 1747.6,-120.8 1747.6,-120.8 1431.82,-120.8 1431.82,-120.8"/>
<polygon fill="black" stroke="black" points="1431.82,-117.3 1421.82,-120.8 1431.82,-124.3 1431.82,-117.3"/>
</g>
<!-- SafeTabLayoutPreviewComponent -->
<g id="node8" class="node">
<title>SafeTabLayoutPreviewComponent</title>
<polygon fill="#ffffb3" stroke="black" points="1666.5,-84.8 1453.5,-84.8 1453.5,-48.8 1666.5,-48.8 1666.5,-84.8"/>
<text text-anchor="middle" x="1560" y="-62.6" font-family="Times,serif" font-size="14.00">SafeTabLayoutPreviewComponent</text>
</g>
<!-- SafeTabLayoutPreviewComponent&#45;&gt;SafeQueryBuilderModule -->
<g id="edge8" class="edge">
<title>SafeTabLayoutPreviewComponent&#45;&gt;SafeQueryBuilderModule</title>
<path fill="none" stroke="black" d="M1529.55,-84.92C1529.55,-99.58 1529.55,-117.8 1529.55,-117.8 1529.55,-117.8 1431.78,-117.8 1431.78,-117.8"/>
<polygon fill="black" stroke="black" points="1431.78,-114.3 1421.78,-117.8 1431.78,-121.3 1431.78,-114.3"/>
</g>
<!-- SafeTabPaginationComponent -->
<g id="node9" class="node">
<title>SafeTabPaginationComponent</title>
<polygon fill="#ffffb3" stroke="black" points="1434.86,-84.8 1247.14,-84.8 1247.14,-48.8 1434.86,-48.8 1434.86,-84.8"/>
<text text-anchor="middle" x="1341" y="-62.6" font-family="Times,serif" font-size="14.00">SafeTabPaginationComponent</text>
</g>
<!-- SafeTabPaginationComponent&#45;&gt;SafeQueryBuilderModule -->
<g id="edge9" class="edge">
<title>SafeTabPaginationComponent&#45;&gt;SafeQueryBuilderModule</title>
<path fill="none" stroke="black" d="M1341,-84.91C1341,-84.91 1341,-103.79 1341,-103.79"/>
<polygon fill="black" stroke="black" points="1337.5,-103.79 1341,-113.79 1344.5,-103.79 1337.5,-103.79"/>
</g>
<!-- SafeTabSortComponent -->
<g id="node10" class="node">
<title>SafeTabSortComponent</title>
<polygon fill="#ffffb3" stroke="black" points="1228.81,-84.8 1077.19,-84.8 1077.19,-48.8 1228.81,-48.8 1228.81,-84.8"/>
<text text-anchor="middle" x="1153" y="-62.6" font-family="Times,serif" font-size="14.00">SafeTabSortComponent</text>
</g>
<!-- SafeTabSortComponent&#45;&gt;SafeQueryBuilderModule -->
<g id="edge10" class="edge">
<title>SafeTabSortComponent&#45;&gt;SafeQueryBuilderModule</title>
<path fill="none" stroke="black" d="M1153,-84.92C1153,-99.58 1153,-117.8 1153,-117.8 1153,-117.8 1250.18,-117.8 1250.18,-117.8"/>
<polygon fill="black" stroke="black" points="1250.18,-121.3 1260.18,-117.8 1250.18,-114.3 1250.18,-121.3"/>
</g>
<!-- SafeTabStyleComponent -->
<g id="node11" class="node">
<title>SafeTabStyleComponent</title>
<polygon fill="#ffffb3" stroke="black" points="1059.25,-84.8 902.75,-84.8 902.75,-48.8 1059.25,-48.8 1059.25,-84.8"/>
<text text-anchor="middle" x="981" y="-62.6" font-family="Times,serif" font-size="14.00">SafeTabStyleComponent</text>
</g>
<!-- SafeTabStyleComponent&#45;&gt;SafeQueryBuilderModule -->
<g id="edge11" class="edge">
<title>SafeTabStyleComponent&#45;&gt;SafeQueryBuilderModule</title>
<path fill="none" stroke="black" d="M1054.85,-85.08C1054.85,-100.75 1054.85,-120.8 1054.85,-120.8 1054.85,-120.8 1250.15,-120.8 1250.15,-120.8"/>
<polygon fill="black" stroke="black" points="1250.15,-124.3 1260.15,-120.8 1250.15,-117.3 1250.15,-124.3"/>
</g>
<!-- SafeQueryBuilderComponent  -->
<g id="node19" class="node">
<title>SafeQueryBuilderComponent </title>
<polygon fill="#fb8072" stroke="black" points="1810.19,-214.8 1623.81,-214.8 1623.81,-178.8 1810.19,-178.8 1810.19,-214.8"/>
<text text-anchor="middle" x="1717" y="-192.6" font-family="Times,serif" font-size="14.00">SafeQueryBuilderComponent </text>
</g>
<!-- SafeQueryBuilderModule&#45;&gt;SafeQueryBuilderComponent  -->
<g id="edge18" class="edge">
<title>SafeQueryBuilderModule&#45;&gt;SafeQueryBuilderComponent </title>
<path fill="none" stroke="black" stroke-dasharray="5,2" d="M1421.72,-143.8C1511.84,-143.8 1645.2,-143.8 1645.2,-143.8 1645.2,-143.8 1645.2,-168.56 1645.2,-168.56"/>
<polygon fill="black" stroke="black" points="1641.7,-168.56 1645.2,-178.56 1648.7,-168.56 1641.7,-168.56"/>
</g>
<!-- SafeTabFieldsComponent  -->
<g id="node20" class="node">
<title>SafeTabFieldsComponent </title>
<polygon fill="#fb8072" stroke="black" points="1605.7,-214.8 1440.3,-214.8 1440.3,-178.8 1605.7,-178.8 1605.7,-214.8"/>
<text text-anchor="middle" x="1523" y="-192.6" font-family="Times,serif" font-size="14.00">SafeTabFieldsComponent </text>
</g>
<!-- SafeQueryBuilderModule&#45;&gt;SafeTabFieldsComponent  -->
<g id="edge19" class="edge">
<title>SafeQueryBuilderModule&#45;&gt;SafeTabFieldsComponent </title>
<path fill="none" stroke="black" stroke-dasharray="5,2" d="M1421.92,-146.8C1436.25,-146.8 1446.7,-146.8 1446.7,-146.8 1446.7,-146.8 1446.7,-168.75 1446.7,-168.75"/>
<polygon fill="black" stroke="black" points="1443.2,-168.75 1446.7,-178.75 1450.2,-168.75 1443.2,-168.75"/>
</g>
<!-- SafeTabFilterComponent  -->
<g id="node21" class="node">
<title>SafeTabFilterComponent </title>
<polygon fill="#fb8072" stroke="black" points="1421.8,-214.8 1260.2,-214.8 1260.2,-178.8 1421.8,-178.8 1421.8,-214.8"/>
<text text-anchor="middle" x="1341" y="-192.6" font-family="Times,serif" font-size="14.00">SafeTabFilterComponent </text>
</g>
<!-- SafeQueryBuilderModule&#45;&gt;SafeTabFilterComponent  -->
<g id="edge20" class="edge">
<title>SafeQueryBuilderModule&#45;&gt;SafeTabFilterComponent </title>
<path fill="none" stroke="black" stroke-dasharray="5,2" d="M1341,-149.91C1341,-149.91 1341,-168.79 1341,-168.79"/>
<polygon fill="black" stroke="black" points="1337.5,-168.79 1341,-178.79 1344.5,-168.79 1337.5,-168.79"/>
</g>
<!-- SafeTabPaginationComponent  -->
<g id="node22" class="node">
<title>SafeTabPaginationComponent </title>
<polygon fill="#fb8072" stroke="black" points="1241.86,-214.8 1050.14,-214.8 1050.14,-178.8 1241.86,-178.8 1241.86,-214.8"/>
<text text-anchor="middle" x="1146" y="-192.6" font-family="Times,serif" font-size="14.00">SafeTabPaginationComponent </text>
</g>
<!-- SafeQueryBuilderModule&#45;&gt;SafeTabPaginationComponent  -->
<g id="edge21" class="edge">
<title>SafeQueryBuilderModule&#45;&gt;SafeTabPaginationComponent </title>
<path fill="none" stroke="black" stroke-dasharray="5,2" d="M1260.25,-146.8C1245.76,-146.8 1235.17,-146.8 1235.17,-146.8 1235.17,-146.8 1235.17,-168.75 1235.17,-168.75"/>
<polygon fill="black" stroke="black" points="1231.67,-168.75 1235.17,-178.75 1238.67,-168.75 1231.67,-168.75"/>
</g>
<!-- SafeTabSortComponent  -->
<g id="node23" class="node">
<title>SafeTabSortComponent </title>
<polygon fill="#fb8072" stroke="black" points="1032.31,-214.8 877.69,-214.8 877.69,-178.8 1032.31,-178.8 1032.31,-214.8"/>
<text text-anchor="middle" x="955" y="-192.6" font-family="Times,serif" font-size="14.00">SafeTabSortComponent </text>
</g>
<!-- SafeQueryBuilderModule&#45;&gt;SafeTabSortComponent  -->
<g id="edge22" class="edge">
<title>SafeQueryBuilderModule&#45;&gt;SafeTabSortComponent </title>
<path fill="none" stroke="black" stroke-dasharray="5,2" d="M1259.96,-143.8C1150.11,-143.8 967.51,-143.8 967.51,-143.8 967.51,-143.8 967.51,-168.56 967.51,-168.56"/>
<polygon fill="black" stroke="black" points="964.01,-168.56 967.51,-178.56 971.01,-168.56 964.01,-168.56"/>
</g>
<!-- SafeAlertModule -->
<g id="node13" class="node">
<title>SafeAlertModule</title>
<polygon fill="#8dd3c7" stroke="black" points="878.69,-84.8 875.69,-88.8 854.69,-88.8 851.69,-84.8 765.31,-84.8 765.31,-48.8 878.69,-48.8 878.69,-84.8"/>
<text text-anchor="middle" x="822" y="-62.6" font-family="Times,serif" font-size="14.00">SafeAlertModule</text>
</g>
<!-- SafeAlertModule&#45;&gt;SafeQueryBuilderModule -->
<g id="edge12" class="edge">
<title>SafeAlertModule&#45;&gt;SafeQueryBuilderModule</title>
<path fill="none" stroke="black" d="M821.5,-84.84C821.5,-101.53 821.5,-123.8 821.5,-123.8 821.5,-123.8 1250.11,-123.8 1250.11,-123.8"/>
<polygon fill="black" stroke="black" points="1250.11,-127.3 1260.11,-123.8 1250.11,-120.3 1250.11,-127.3"/>
</g>
<!-- SafeButtonModule -->
<g id="node14" class="node">
<title>SafeButtonModule</title>
<polygon fill="#8dd3c7" stroke="black" points="747.05,-84.8 744.05,-88.8 723.05,-88.8 720.05,-84.8 624.95,-84.8 624.95,-48.8 747.05,-48.8 747.05,-84.8"/>
<text text-anchor="middle" x="686" y="-62.6" font-family="Times,serif" font-size="14.00">SafeButtonModule</text>
</g>
<!-- SafeButtonModule&#45;&gt;SafeQueryBuilderModule -->
<g id="edge13" class="edge">
<title>SafeButtonModule&#45;&gt;SafeQueryBuilderModule</title>
<path fill="none" stroke="black" d="M686,-85.1C686,-103.07 686,-127.8 686,-127.8 686,-127.8 1250.03,-127.8 1250.03,-127.8"/>
<polygon fill="black" stroke="black" points="1250.03,-131.3 1260.03,-127.8 1250.03,-124.3 1250.03,-131.3"/>
</g>
<!-- SafeCheckboxTreeModule -->
<g id="node15" class="node">
<title>SafeCheckboxTreeModule</title>
<polygon fill="#8dd3c7" stroke="black" points="606.34,-84.8 603.34,-88.8 582.34,-88.8 579.34,-84.8 439.66,-84.8 439.66,-48.8 606.34,-48.8 606.34,-84.8"/>
<text text-anchor="middle" x="523" y="-62.6" font-family="Times,serif" font-size="14.00">SafeCheckboxTreeModule</text>
</g>
<!-- SafeCheckboxTreeModule&#45;&gt;SafeQueryBuilderModule -->
<g id="edge14" class="edge">
<title>SafeCheckboxTreeModule&#45;&gt;SafeQueryBuilderModule</title>
<path fill="none" stroke="black" d="M523,-84.97C523,-103.89 523,-130.8 523,-130.8 523,-130.8 1249.95,-130.8 1249.95,-130.8"/>
<polygon fill="black" stroke="black" points="1249.95,-134.3 1259.95,-130.8 1249.95,-127.3 1249.95,-134.3"/>
</g>
<!-- SafeCoreGridModule -->
<g id="node16" class="node">
<title>SafeCoreGridModule</title>
<polygon fill="#8dd3c7" stroke="black" points="421.8,-84.8 418.8,-88.8 397.8,-88.8 394.8,-84.8 284.2,-84.8 284.2,-48.8 421.8,-48.8 421.8,-84.8"/>
<text text-anchor="middle" x="353" y="-62.6" font-family="Times,serif" font-size="14.00">SafeCoreGridModule</text>
</g>
<!-- SafeCoreGridModule&#45;&gt;SafeQueryBuilderModule -->
<g id="edge15" class="edge">
<title>SafeCoreGridModule&#45;&gt;SafeQueryBuilderModule</title>
<path fill="none" stroke="black" d="M353,-85.11C353,-104.95 353,-133.8 353,-133.8 353,-133.8 1250.15,-133.8 1250.15,-133.8"/>
<polygon fill="black" stroke="black" points="1250.15,-137.3 1260.15,-133.8 1250.15,-130.3 1250.15,-137.3"/>
</g>
<!-- SafeFilterModule -->
<g id="node17" class="node">
<title>SafeFilterModule</title>
<polygon fill="#8dd3c7" stroke="black" points="266.26,-84.8 263.26,-88.8 242.26,-88.8 239.26,-84.8 151.74,-84.8 151.74,-48.8 266.26,-48.8 266.26,-84.8"/>
<text text-anchor="middle" x="209" y="-62.6" font-family="Times,serif" font-size="14.00">SafeFilterModule</text>
</g>
<!-- SafeFilterModule&#45;&gt;SafeQueryBuilderModule -->
<g id="edge16" class="edge">
<title>SafeFilterModule&#45;&gt;SafeQueryBuilderModule</title>
<path fill="none" stroke="black" d="M209,-84.83C209,-105.57 209,-136.8 209,-136.8 209,-136.8 1250.04,-136.8 1250.04,-136.8"/>
<polygon fill="black" stroke="black" points="1250.04,-140.3 1260.04,-136.8 1250.04,-133.3 1250.04,-140.3"/>
</g>
<!-- SafeIconModule -->
<g id="node18" class="node">
<title>SafeIconModule</title>
<polygon fill="#8dd3c7" stroke="black" points="133.8,-84.8 130.8,-88.8 109.8,-88.8 106.8,-84.8 24.2,-84.8 24.2,-48.8 133.8,-48.8 133.8,-84.8"/>
<text text-anchor="middle" x="79" y="-62.6" font-family="Times,serif" font-size="14.00">SafeIconModule</text>
</g>
<!-- SafeIconModule&#45;&gt;SafeQueryBuilderModule -->
<g id="edge17" class="edge">
<title>SafeIconModule&#45;&gt;SafeQueryBuilderModule</title>
<path fill="none" stroke="black" d="M79,-85.09C79,-107.01 79,-140.8 79,-140.8 79,-140.8 1250.14,-140.8 1250.14,-140.8"/>
<polygon fill="black" stroke="black" points="1250.14,-144.3 1260.14,-140.8 1250.14,-137.3 1250.14,-144.3"/>
</g>
</g>
</svg>
