<?xml version="1.0" encoding="UTF-8" standalone="no"?>
<!DOCTYPE svg PUBLIC "-//W3C//DTD SVG 1.1//EN"
 "http://www.w3.org/Graphics/SVG/1.1/DTD/svg11.dtd">
<!-- Generated by graphviz version 3.0.0 (20220226.1711)
 -->
<!-- Title: dependencies Pages: 1 -->
<svg width="2948pt" height="358pt"
 viewBox="0.00 0.00 2948.00 358.39" xmlns="http://www.w3.org/2000/svg" xmlns:xlink="http://www.w3.org/1999/xlink">
<g id="graph0" class="graph" transform="scale(1 1) rotate(0) translate(4 354.39)">
<title>dependencies</title>
<polygon fill="white" stroke="transparent" points="-4,4 -4,-354.39 2944,-354.39 2944,4 -4,4"/>
<text text-anchor="middle" x="1470" y="-8.2" font-family="sans-serif" font-size="14.00">dependencies</text>
<g id="clust1" class="cluster">
<title>cluster_SafeQueryBuilderModule</title>
<polygon fill="none" stroke="black" stroke-dasharray="1,5" points="8,-32.8 8,-342.39 2932,-342.39 2932,-32.8 8,-32.8"/>
</g>
<g id="clust2" class="cluster">
<title>cluster_SafeQueryBuilderModule_declarations</title>
<polygon fill="none" stroke="black" points="16,-152.39 16,-204.39 2177,-204.39 2177,-152.39 16,-152.39"/>
</g>
<g id="clust15" class="cluster">
<title>cluster_SafeQueryBuilderModule_exports</title>
<polygon fill="none" stroke="black" points="1120,-282.39 1120,-334.39 2068,-334.39 2068,-282.39 1120,-282.39"/>
</g>
<g id="clust14" class="cluster">
<title>cluster_SafeQueryBuilderModule_imports</title>
<polygon fill="none" stroke="black" points="2185,-152.39 2185,-204.39 2924,-204.39 2924,-152.39 2185,-152.39"/>
</g>
<g id="clust4" class="cluster">
<title>cluster_SafeQueryBuilderModule_SafeQueryBuilderComponent_providers</title>
<polygon fill="none" stroke="black" points="1440,-40.8 1440,-139.39 2332,-139.39 2332,-40.8 1440,-40.8"/>
</g>
<!-- DateFilterEditorComponent -->
<g id="node1" class="node">
<title>DateFilterEditorComponent</title>
<polygon fill="#ffffb3" stroke="black" points="2168.58,-196.39 1995.42,-196.39 1995.42,-160.39 2168.58,-160.39 2168.58,-196.39"/>
<text text-anchor="middle" x="2082" y="-174.19" font-family="Times,serif" font-size="14.00">DateFilterEditorComponent</text>
</g>
<!-- SafeQueryBuilderModule -->
<g id="node12" class="node">
<title>SafeQueryBuilderModule</title>
<polygon fill="#8dd3c7" stroke="black" points="1671.91,-261.39 1668.91,-265.39 1647.91,-265.39 1644.91,-261.39 1510.09,-261.39 1510.09,-225.39 1671.91,-225.39 1671.91,-261.39"/>
<text text-anchor="middle" x="1591" y="-239.19" font-family="Times,serif" font-size="14.00">SafeQueryBuilderModule</text>
</g>
<!-- DateFilterEditorComponent&#45;&gt;SafeQueryBuilderModule -->
<g id="edge1" class="edge">
<title>DateFilterEditorComponent&#45;&gt;SafeQueryBuilderModule</title>
<path fill="none" stroke="black" d="M2027.9,-196.4C2027.9,-212.44 2027.9,-233.39 2027.9,-233.39 2027.9,-233.39 1681.9,-233.39 1681.9,-233.39"/>
<polygon fill="black" stroke="black" points="1681.9,-229.89 1671.9,-233.39 1681.9,-236.89 1681.9,-229.89"/>
</g>
<!-- SafeQueryBuilderComponent -->
<g id="node2" class="node">
<title>SafeQueryBuilderComponent</title>
<polygon fill="#ffffb3" stroke="black" points="1977.69,-196.39 1794.31,-196.39 1794.31,-160.39 1977.69,-160.39 1977.69,-196.39"/>
<text text-anchor="middle" x="1886" y="-174.19" font-family="Times,serif" font-size="14.00">SafeQueryBuilderComponent</text>
</g>
<!-- SafeQueryBuilderComponent&#45;&gt;SafeQueryBuilderModule -->
<g id="edge2" class="edge">
<title>SafeQueryBuilderComponent&#45;&gt;SafeQueryBuilderModule</title>
<path fill="none" stroke="black" d="M1825.13,-196.51C1825.13,-211.17 1825.13,-229.39 1825.13,-229.39 1825.13,-229.39 1681.9,-229.39 1681.9,-229.39"/>
<polygon fill="black" stroke="black" points="1681.9,-225.89 1671.9,-229.39 1681.9,-232.89 1681.9,-225.89"/>
</g>
<!-- SafeQueryStyleComponent -->
<g id="node3" class="node">
<title>SafeQueryStyleComponent</title>
<polygon fill="#ffffb3" stroke="black" points="1775.97,-196.39 1606.03,-196.39 1606.03,-160.39 1775.97,-160.39 1775.97,-196.39"/>
<text text-anchor="middle" x="1691" y="-174.19" font-family="Times,serif" font-size="14.00">SafeQueryStyleComponent</text>
</g>
<!-- SafeQueryStyleComponent&#45;&gt;SafeQueryBuilderModule -->
<g id="edge4" class="edge">
<title>SafeQueryStyleComponent&#45;&gt;SafeQueryBuilderModule</title>
<path fill="none" stroke="black" d="M1638.86,-196.5C1638.86,-196.5 1638.86,-215.38 1638.86,-215.38"/>
<polygon fill="black" stroke="black" points="1635.36,-215.38 1638.86,-225.38 1642.36,-215.38 1635.36,-215.38"/>
</g>
<!-- SafeQueryStyleListComponent -->
<g id="node4" class="node">
<title>SafeQueryStyleListComponent</title>
<polygon fill="#ffffb3" stroke="black" points="1587.75,-196.39 1396.25,-196.39 1396.25,-160.39 1587.75,-160.39 1587.75,-196.39"/>
<text text-anchor="middle" x="1492" y="-174.19" font-family="Times,serif" font-size="14.00">SafeQueryStyleListComponent</text>
</g>
<!-- SafeQueryStyleListComponent&#45;&gt;SafeQueryBuilderModule -->
<g id="edge5" class="edge">
<title>SafeQueryStyleListComponent&#45;&gt;SafeQueryBuilderModule</title>
<path fill="none" stroke="black" d="M1549.09,-196.5C1549.09,-196.5 1549.09,-215.38 1549.09,-215.38"/>
<polygon fill="black" stroke="black" points="1545.59,-215.38 1549.09,-225.38 1552.59,-215.38 1545.59,-215.38"/>
</g>
<!-- SafeQueryStylePreviewComponent -->
<g id="node5" class="node">
<title>SafeQueryStylePreviewComponent</title>
<polygon fill="#ffffb3" stroke="black" points="1377.85,-196.39 1162.15,-196.39 1162.15,-160.39 1377.85,-160.39 1377.85,-196.39"/>
<text text-anchor="middle" x="1270" y="-174.19" font-family="Times,serif" font-size="14.00">SafeQueryStylePreviewComponent</text>
</g>
<!-- SafeQueryStylePreviewComponent&#45;&gt;SafeQueryBuilderModule -->
<g id="edge6" class="edge">
<title>SafeQueryStylePreviewComponent&#45;&gt;SafeQueryBuilderModule</title>
<path fill="none" stroke="black" d="M1339.12,-196.51C1339.12,-211.17 1339.12,-229.39 1339.12,-229.39 1339.12,-229.39 1500.27,-229.39 1500.27,-229.39"/>
<polygon fill="black" stroke="black" points="1500.27,-232.89 1510.27,-229.39 1500.27,-225.89 1500.27,-232.89"/>
</g>
<!-- SafeTabFieldsComponent -->
<g id="node6" class="node">
<title>SafeTabFieldsComponent</title>
<polygon fill="#ffffb3" stroke="black" points="1144.2,-196.39 981.8,-196.39 981.8,-160.39 1144.2,-160.39 1144.2,-196.39"/>
<text text-anchor="middle" x="1063" y="-174.19" font-family="Times,serif" font-size="14.00">SafeTabFieldsComponent</text>
</g>
<!-- SafeTabFieldsComponent&#45;&gt;SafeQueryBuilderModule -->
<g id="edge7" class="edge">
<title>SafeTabFieldsComponent&#45;&gt;SafeQueryBuilderModule</title>
<path fill="none" stroke="black" d="M1135.85,-196.4C1135.85,-212.44 1135.85,-233.39 1135.85,-233.39 1135.85,-233.39 1500.15,-233.39 1500.15,-233.39"/>
<polygon fill="black" stroke="black" points="1500.15,-236.89 1510.15,-233.39 1500.15,-229.89 1500.15,-236.89"/>
</g>
<!-- SafeTabFilterComponent -->
<g id="node7" class="node">
<title>SafeTabFilterComponent</title>
<polygon fill="#ffffb3" stroke="black" points="964.3,-196.39 805.7,-196.39 805.7,-160.39 964.3,-160.39 964.3,-196.39"/>
<text text-anchor="middle" x="885" y="-174.19" font-family="Times,serif" font-size="14.00">SafeTabFilterComponent</text>
</g>
<!-- SafeTabFilterComponent&#45;&gt;SafeQueryBuilderModule -->
<g id="edge8" class="edge">
<title>SafeTabFilterComponent&#45;&gt;SafeQueryBuilderModule</title>
<path fill="none" stroke="black" d="M885,-196.42C885,-213.45 885,-236.39 885,-236.39 885,-236.39 1500.01,-236.39 1500.01,-236.39"/>
<polygon fill="black" stroke="black" points="1500.01,-239.89 1510.01,-236.39 1500.01,-232.89 1500.01,-239.89"/>
</g>
<!-- SafeTabLayoutPreviewComponent -->
<g id="node8" class="node">
<title>SafeTabLayoutPreviewComponent</title>
<polygon fill="#ffffb3" stroke="black" points="787.5,-196.39 574.5,-196.39 574.5,-160.39 787.5,-160.39 787.5,-196.39"/>
<text text-anchor="middle" x="681" y="-174.19" font-family="Times,serif" font-size="14.00">SafeTabLayoutPreviewComponent</text>
</g>
<!-- SafeTabLayoutPreviewComponent&#45;&gt;SafeQueryBuilderModule -->
<g id="edge9" class="edge">
<title>SafeTabLayoutPreviewComponent&#45;&gt;SafeQueryBuilderModule</title>
<path fill="none" stroke="black" d="M681,-196.66C681,-214.95 681,-240.39 681,-240.39 681,-240.39 1500.24,-240.39 1500.24,-240.39"/>
<polygon fill="black" stroke="black" points="1500.24,-243.89 1510.24,-240.39 1500.24,-236.89 1500.24,-243.89"/>
</g>
<!-- SafeTabPaginationComponent -->
<g id="node9" class="node">
<title>SafeTabPaginationComponent</title>
<polygon fill="#ffffb3" stroke="black" points="555.86,-196.39 368.14,-196.39 368.14,-160.39 555.86,-160.39 555.86,-196.39"/>
<text text-anchor="middle" x="462" y="-174.19" font-family="Times,serif" font-size="14.00">SafeTabPaginationComponent</text>
</g>
<!-- SafeTabPaginationComponent&#45;&gt;SafeQueryBuilderModule -->
<g id="edge10" class="edge">
<title>SafeTabPaginationComponent&#45;&gt;SafeQueryBuilderModule</title>
<path fill="none" stroke="black" d="M462,-196.5C462,-215.73 462,-243.39 462,-243.39 462,-243.39 1500.26,-243.39 1500.26,-243.39"/>
<polygon fill="black" stroke="black" points="1500.26,-246.89 1510.26,-243.39 1500.26,-239.89 1500.26,-246.89"/>
</g>
<!-- SafeTabSortComponent -->
<g id="node10" class="node">
<title>SafeTabSortComponent</title>
<polygon fill="#ffffb3" stroke="black" points="349.81,-196.39 198.19,-196.39 198.19,-160.39 349.81,-160.39 349.81,-196.39"/>
<text text-anchor="middle" x="274" y="-174.19" font-family="Times,serif" font-size="14.00">SafeTabSortComponent</text>
</g>
<!-- SafeTabSortComponent&#45;&gt;SafeQueryBuilderModule -->
<g id="edge11" class="edge">
<title>SafeTabSortComponent&#45;&gt;SafeQueryBuilderModule</title>
<path fill="none" stroke="black" d="M274,-196.52C274,-216.96 274,-247.39 274,-247.39 274,-247.39 1500.1,-247.39 1500.1,-247.39"/>
<polygon fill="black" stroke="black" points="1500.1,-250.89 1510.1,-247.39 1500.1,-243.89 1500.1,-250.89"/>
</g>
<!-- SafeTabStyleComponent -->
<g id="node11" class="node">
<title>SafeTabStyleComponent</title>
<polygon fill="#ffffb3" stroke="black" points="180.25,-196.39 23.75,-196.39 23.75,-160.39 180.25,-160.39 180.25,-196.39"/>
<text text-anchor="middle" x="102" y="-174.19" font-family="Times,serif" font-size="14.00">SafeTabStyleComponent</text>
</g>
<!-- SafeTabStyleComponent&#45;&gt;SafeQueryBuilderModule -->
<g id="edge12" class="edge">
<title>SafeTabStyleComponent&#45;&gt;SafeQueryBuilderModule</title>
<path fill="none" stroke="black" d="M102,-196.44C102,-218.05 102,-251.39 102,-251.39 102,-251.39 1500.15,-251.39 1500.15,-251.39"/>
<polygon fill="black" stroke="black" points="1500.15,-254.89 1510.15,-251.39 1500.15,-247.89 1500.15,-254.89"/>
</g>
<!-- SafeQueryBuilderComponent  -->
<g id="node19" class="node">
<title>SafeQueryBuilderComponent </title>
<polygon fill="#fb8072" stroke="black" points="2060.19,-326.39 1873.81,-326.39 1873.81,-290.39 2060.19,-290.39 2060.19,-326.39"/>
<text text-anchor="middle" x="1967" y="-304.19" font-family="Times,serif" font-size="14.00">SafeQueryBuilderComponent </text>
</g>
<!-- SafeQueryBuilderModule&#45;&gt;SafeQueryBuilderComponent  -->
<g id="edge18" class="edge">
<title>SafeQueryBuilderModule&#45;&gt;SafeQueryBuilderComponent </title>
<path fill="none" stroke="black" stroke-dasharray="5,2" d="M1672,-254.39C1771.04,-254.39 1925.62,-254.39 1925.62,-254.39 1925.62,-254.39 1925.62,-280.11 1925.62,-280.11"/>
<polygon fill="black" stroke="black" points="1922.13,-280.11 1925.62,-290.11 1929.13,-280.11 1922.13,-280.11"/>
</g>
<!-- SafeTabFieldsComponent  -->
<g id="node20" class="node">
<title>SafeTabFieldsComponent </title>
<polygon fill="#fb8072" stroke="black" points="1855.7,-326.39 1690.3,-326.39 1690.3,-290.39 1855.7,-290.39 1855.7,-326.39"/>
<text text-anchor="middle" x="1773" y="-304.19" font-family="Times,serif" font-size="14.00">SafeTabFieldsComponent </text>
</g>
<!-- SafeQueryBuilderModule&#45;&gt;SafeTabFieldsComponent  -->
<g id="edge19" class="edge">
<title>SafeQueryBuilderModule&#45;&gt;SafeTabFieldsComponent </title>
<path fill="none" stroke="black" stroke-dasharray="5,2" d="M1671.99,-258.39C1703.9,-258.39 1733.07,-258.39 1733.07,-258.39 1733.07,-258.39 1733.07,-280.34 1733.07,-280.34"/>
<polygon fill="black" stroke="black" points="1729.57,-280.34 1733.07,-290.34 1736.57,-280.34 1729.57,-280.34"/>
</g>
<!-- SafeTabFilterComponent  -->
<g id="node21" class="node">
<title>SafeTabFilterComponent </title>
<polygon fill="#fb8072" stroke="black" points="1671.8,-326.39 1510.2,-326.39 1510.2,-290.39 1671.8,-290.39 1671.8,-326.39"/>
<text text-anchor="middle" x="1591" y="-304.19" font-family="Times,serif" font-size="14.00">SafeTabFilterComponent </text>
</g>
<!-- SafeQueryBuilderModule&#45;&gt;SafeTabFilterComponent  -->
<g id="edge20" class="edge">
<title>SafeQueryBuilderModule&#45;&gt;SafeTabFilterComponent </title>
<path fill="none" stroke="black" stroke-dasharray="5,2" d="M1591,-261.5C1591,-261.5 1591,-280.38 1591,-280.38"/>
<polygon fill="black" stroke="black" points="1587.5,-280.38 1591,-290.38 1594.5,-280.38 1587.5,-280.38"/>
</g>
<!-- SafeTabPaginationComponent  -->
<g id="node22" class="node">
<title>SafeTabPaginationComponent </title>
<polygon fill="#fb8072" stroke="black" points="1491.86,-326.39 1300.14,-326.39 1300.14,-290.39 1491.86,-290.39 1491.86,-326.39"/>
<text text-anchor="middle" x="1396" y="-304.19" font-family="Times,serif" font-size="14.00">SafeTabPaginationComponent </text>
</g>
<!-- SafeQueryBuilderModule&#45;&gt;SafeTabPaginationComponent  -->
<g id="edge21" class="edge">
<title>SafeQueryBuilderModule&#45;&gt;SafeTabPaginationComponent </title>
<path fill="none" stroke="black" stroke-dasharray="5,2" d="M1510.13,-258.39C1475.95,-258.39 1443.9,-258.39 1443.9,-258.39 1443.9,-258.39 1443.9,-280.34 1443.9,-280.34"/>
<polygon fill="black" stroke="black" points="1440.4,-280.34 1443.9,-290.34 1447.4,-280.34 1440.4,-280.34"/>
</g>
<!-- SafeTabSortComponent  -->
<g id="node23" class="node">
<title>SafeTabSortComponent </title>
<polygon fill="#fb8072" stroke="black" points="1282.31,-326.39 1127.69,-326.39 1127.69,-290.39 1282.31,-290.39 1282.31,-326.39"/>
<text text-anchor="middle" x="1205" y="-304.19" font-family="Times,serif" font-size="14.00">SafeTabSortComponent </text>
</g>
<!-- SafeQueryBuilderModule&#45;&gt;SafeTabSortComponent  -->
<g id="edge22" class="edge">
<title>SafeQueryBuilderModule&#45;&gt;SafeTabSortComponent </title>
<path fill="none" stroke="black" stroke-dasharray="5,2" d="M1510.07,-254.39C1401.52,-254.39 1222.24,-254.39 1222.24,-254.39 1222.24,-254.39 1222.24,-280.11 1222.24,-280.11"/>
<polygon fill="black" stroke="black" points="1218.74,-280.11 1222.24,-290.11 1225.74,-280.11 1218.74,-280.11"/>
</g>
<!-- {
 &#160;&#160;&#160;provide: MAT_AUTOCOMPLETE_SCROLL_STRATEGY, useFactory: scrollFactory, deps: [Overlay],
} -->
<g id="node13" class="node">
<title>{
 &#160;&#160;&#160;provide: MAT_AUTOCOMPLETE_SCROLL_STRATEGY, useFactory: scrollFactory, deps: [Overlay],
}</title>
<ellipse fill="#fdb462" stroke="black" cx="1886" cy="-90.1" rx="438.07" ry="41.09"/>
<text text-anchor="middle" x="1886" y="-102.7" font-family="Times,serif" font-size="14.00">{</text>
<text text-anchor="middle" x="1886" y="-85.9" font-family="Times,serif" font-size="14.00"> &#160;&#160;&#160;provide: MAT_AUTOCOMPLETE_SCROLL_STRATEGY, useFactory: scrollFactory, deps: [Overlay],</text>
<text text-anchor="middle" x="1886" y="-69.1" font-family="Times,serif" font-size="14.00">}</text>
</g>
<!-- {
 &#160;&#160;&#160;provide: MAT_AUTOCOMPLETE_SCROLL_STRATEGY, useFactory: scrollFactory, deps: [Overlay],
}&#45;&gt;SafeQueryBuilderComponent -->
<g id="edge3" class="edge">
<title>{
 &#160;&#160;&#160;provide: MAT_AUTOCOMPLETE_SCROLL_STRATEGY, useFactory: scrollFactory, deps: [Overlay],
}&#45;&gt;SafeQueryBuilderComponent</title>
<path fill="none" stroke="black" d="M1886,-131.4C1886,-131.4 1886,-150.06 1886,-150.06"/>
<polygon fill="black" stroke="black" points="1882.5,-150.06 1886,-160.06 1889.5,-150.06 1882.5,-150.06"/>
</g>
<!-- SafeButtonModule -->
<g id="node14" class="node">
<title>SafeButtonModule</title>
<polygon fill="#8dd3c7" stroke="black" points="2916.05,-196.39 2913.05,-200.39 2892.05,-200.39 2889.05,-196.39 2793.95,-196.39 2793.95,-160.39 2916.05,-160.39 2916.05,-196.39"/>
<text text-anchor="middle" x="2855" y="-174.19" font-family="Times,serif" font-size="14.00">SafeButtonModule</text>
</g>
<!-- SafeButtonModule&#45;&gt;SafeQueryBuilderModule -->
<g id="edge13" class="edge">
<title>SafeButtonModule&#45;&gt;SafeQueryBuilderModule</title>
<path fill="none" stroke="black" d="M2855,-196.44C2855,-218.05 2855,-251.39 2855,-251.39 2855,-251.39 1681.99,-251.39 1681.99,-251.39"/>
<polygon fill="black" stroke="black" points="1681.99,-247.89 1671.99,-251.39 1681.99,-254.89 1681.99,-247.89"/>
</g>
<!-- SafeCheckboxTreeModule -->
<g id="node15" class="node">
<title>SafeCheckboxTreeModule</title>
<polygon fill="#8dd3c7" stroke="black" points="2775.34,-196.39 2772.34,-200.39 2751.34,-200.39 2748.34,-196.39 2608.66,-196.39 2608.66,-160.39 2775.34,-160.39 2775.34,-196.39"/>
<text text-anchor="middle" x="2692" y="-174.19" font-family="Times,serif" font-size="14.00">SafeCheckboxTreeModule</text>
</g>
<!-- SafeCheckboxTreeModule&#45;&gt;SafeQueryBuilderModule -->
<g id="edge14" class="edge">
<title>SafeCheckboxTreeModule&#45;&gt;SafeQueryBuilderModule</title>
<path fill="none" stroke="black" d="M2692,-196.52C2692,-216.96 2692,-247.39 2692,-247.39 2692,-247.39 1681.96,-247.39 1681.96,-247.39"/>
<polygon fill="black" stroke="black" points="1681.96,-243.89 1671.96,-247.39 1681.96,-250.89 1681.96,-243.89"/>
</g>
<!-- SafeCoreGridModule -->
<g id="node16" class="node">
<title>SafeCoreGridModule</title>
<polygon fill="#8dd3c7" stroke="black" points="2590.8,-196.39 2587.8,-200.39 2566.8,-200.39 2563.8,-196.39 2453.2,-196.39 2453.2,-160.39 2590.8,-160.39 2590.8,-196.39"/>
<text text-anchor="middle" x="2522" y="-174.19" font-family="Times,serif" font-size="14.00">SafeCoreGridModule</text>
</g>
<!-- SafeCoreGridModule&#45;&gt;SafeQueryBuilderModule -->
<g id="edge15" class="edge">
<title>SafeCoreGridModule&#45;&gt;SafeQueryBuilderModule</title>
<path fill="none" stroke="black" d="M2522,-196.5C2522,-215.73 2522,-243.39 2522,-243.39 2522,-243.39 1681.99,-243.39 1681.99,-243.39"/>
<polygon fill="black" stroke="black" points="1681.99,-239.89 1671.99,-243.39 1681.99,-246.89 1681.99,-239.89"/>
</g>
<!-- SafeFilterModule -->
<g id="node17" class="node">
<title>SafeFilterModule</title>
<polygon fill="#8dd3c7" stroke="black" points="2435.26,-196.39 2432.26,-200.39 2411.26,-200.39 2408.26,-196.39 2320.74,-196.39 2320.74,-160.39 2435.26,-160.39 2435.26,-196.39"/>
<text text-anchor="middle" x="2378" y="-174.19" font-family="Times,serif" font-size="14.00">SafeFilterModule</text>
</g>
<!-- SafeFilterModule&#45;&gt;SafeQueryBuilderModule -->
<g id="edge16" class="edge">
<title>SafeFilterModule&#45;&gt;SafeQueryBuilderModule</title>
<path fill="none" stroke="black" d="M2378,-196.66C2378,-214.95 2378,-240.39 2378,-240.39 2378,-240.39 1681.89,-240.39 1681.89,-240.39"/>
<polygon fill="black" stroke="black" points="1681.89,-236.89 1671.89,-240.39 1681.89,-243.89 1681.89,-236.89"/>
</g>
<!-- SafeIconModule -->
<g id="node18" class="node">
<title>SafeIconModule</title>
<polygon fill="#8dd3c7" stroke="black" points="2302.8,-196.39 2299.8,-200.39 2278.8,-200.39 2275.8,-196.39 2193.2,-196.39 2193.2,-160.39 2302.8,-160.39 2302.8,-196.39"/>
<text text-anchor="middle" x="2248" y="-174.19" font-family="Times,serif" font-size="14.00">SafeIconModule</text>
</g>
<!-- SafeIconModule&#45;&gt;SafeQueryBuilderModule -->
<g id="edge17" class="edge">
<title>SafeIconModule&#45;&gt;SafeQueryBuilderModule</title>
<path fill="none" stroke="black" d="M2248,-196.42C2248,-213.45 2248,-236.39 2248,-236.39 2248,-236.39 1681.89,-236.39 1681.89,-236.39"/>
<polygon fill="black" stroke="black" points="1681.89,-232.89 1671.89,-236.39 1681.89,-239.89 1681.89,-232.89"/>
</g>
</g>
</svg>
