<?xml version="1.0" encoding="UTF-8" standalone="no"?>
<!DOCTYPE svg PUBLIC "-//W3C//DTD SVG 1.1//EN"
 "http://www.w3.org/Graphics/SVG/1.1/DTD/svg11.dtd">
<!-- Generated by graphviz version 3.0.0 (20220226.1711)
 -->
<!-- Title: dependencies Pages: 1 -->
<svg width="3080pt" height="358pt"
 viewBox="0.00 0.00 3080.00 358.39" xmlns="http://www.w3.org/2000/svg" xmlns:xlink="http://www.w3.org/1999/xlink">
<g id="graph0" class="graph" transform="scale(1 1) rotate(0) translate(4 354.39)">
<title>dependencies</title>
<polygon fill="white" stroke="transparent" points="-4,4 -4,-354.39 3076,-354.39 3076,4 -4,4"/>
<text text-anchor="middle" x="1536" y="-8.2" font-family="sans-serif" font-size="14.00">dependencies</text>
<g id="clust1" class="cluster">
<title>cluster_SafeQueryBuilderModule</title>
<polygon fill="none" stroke="black" stroke-dasharray="1,5" points="8,-32.8 8,-342.39 3064,-342.39 3064,-32.8 8,-32.8"/>
</g>
<g id="clust14" class="cluster">
<title>cluster_SafeQueryBuilderModule_imports</title>
<polygon fill="none" stroke="black" points="2185,-152.39 2185,-204.39 3056,-204.39 3056,-152.39 2185,-152.39"/>
</g>
<g id="clust2" class="cluster">
<title>cluster_SafeQueryBuilderModule_declarations</title>
<polygon fill="none" stroke="black" points="16,-152.39 16,-204.39 2177,-204.39 2177,-152.39 16,-152.39"/>
</g>
<g id="clust4" class="cluster">
<title>cluster_SafeQueryBuilderModule_SafeQueryBuilderComponent_providers</title>
<polygon fill="none" stroke="black" points="1440,-40.8 1440,-139.39 2332,-139.39 2332,-40.8 1440,-40.8"/>
</g>
<g id="clust15" class="cluster">
<title>cluster_SafeQueryBuilderModule_exports</title>
<polygon fill="none" stroke="black" points="1220,-282.39 1220,-334.39 2168,-334.39 2168,-282.39 1220,-282.39"/>
</g>
<!-- DateFilterEditorComponent -->
<g id="node1" class="node">
<title>DateFilterEditorComponent</title>
<polygon fill="#ffffb3" stroke="black" points="2168.58,-196.39 1995.42,-196.39 1995.42,-160.39 2168.58,-160.39 2168.58,-196.39"/>
<text text-anchor="middle" x="2082" y="-174.19" font-family="Times,serif" font-size="14.00">DateFilterEditorComponent</text>
</g>
<!-- SafeQueryBuilderModule -->
<g id="node12" class="node">
<title>SafeQueryBuilderModule</title>
<polygon fill="#8dd3c7" stroke="black" points="1771.91,-261.39 1768.91,-265.39 1747.91,-265.39 1744.91,-261.39 1610.09,-261.39 1610.09,-225.39 1771.91,-225.39 1771.91,-261.39"/>
<text text-anchor="middle" x="1691" y="-239.19" font-family="Times,serif" font-size="14.00">SafeQueryBuilderModule</text>
</g>
<!-- DateFilterEditorComponent&#45;&gt;SafeQueryBuilderModule -->
<g id="edge1" class="edge">
<title>DateFilterEditorComponent&#45;&gt;SafeQueryBuilderModule</title>
<path fill="none" stroke="black" d="M2077.9,-196.67C2077.9,-212.34 2077.9,-232.39 2077.9,-232.39 2077.9,-232.39 1782.11,-232.39 1782.11,-232.39"/>
<polygon fill="black" stroke="black" points="1782.11,-228.89 1772.11,-232.39 1782.11,-235.89 1782.11,-228.89"/>
</g>
<!-- SafeQueryBuilderComponent -->
<g id="node2" class="node">
<title>SafeQueryBuilderComponent</title>
<polygon fill="#ffffb3" stroke="black" points="1977.69,-196.39 1794.31,-196.39 1794.31,-160.39 1977.69,-160.39 1977.69,-196.39"/>
<text text-anchor="middle" x="1886" y="-174.19" font-family="Times,serif" font-size="14.00">SafeQueryBuilderComponent</text>
</g>
<!-- SafeQueryBuilderComponent&#45;&gt;SafeQueryBuilderModule -->
<g id="edge2" class="edge">
<title>SafeQueryBuilderComponent&#45;&gt;SafeQueryBuilderModule</title>
<path fill="none" stroke="black" d="M1848.22,-196.51C1848.22,-211.17 1848.22,-229.39 1848.22,-229.39 1848.22,-229.39 1781.91,-229.39 1781.91,-229.39"/>
<polygon fill="black" stroke="black" points="1781.91,-225.89 1771.91,-229.39 1781.91,-232.89 1781.91,-225.89"/>
</g>
<!-- SafeQueryStyleComponent -->
<g id="node3" class="node">
<title>SafeQueryStyleComponent</title>
<polygon fill="#ffffb3" stroke="black" points="1775.97,-196.39 1606.03,-196.39 1606.03,-160.39 1775.97,-160.39 1775.97,-196.39"/>
<text text-anchor="middle" x="1691" y="-174.19" font-family="Times,serif" font-size="14.00">SafeQueryStyleComponent</text>
</g>
<!-- SafeQueryStyleComponent&#45;&gt;SafeQueryBuilderModule -->
<g id="edge4" class="edge">
<title>SafeQueryStyleComponent&#45;&gt;SafeQueryBuilderModule</title>
<path fill="none" stroke="black" d="M1691,-196.5C1691,-196.5 1691,-215.38 1691,-215.38"/>
<polygon fill="black" stroke="black" points="1687.5,-215.38 1691,-225.38 1694.5,-215.38 1687.5,-215.38"/>
</g>
<!-- SafeQueryStyleListComponent -->
<g id="node4" class="node">
<title>SafeQueryStyleListComponent</title>
<polygon fill="#ffffb3" stroke="black" points="1587.75,-196.39 1396.25,-196.39 1396.25,-160.39 1587.75,-160.39 1587.75,-196.39"/>
<text text-anchor="middle" x="1492" y="-174.19" font-family="Times,serif" font-size="14.00">SafeQueryStyleListComponent</text>
</g>
<!-- SafeQueryStyleListComponent&#45;&gt;SafeQueryBuilderModule -->
<g id="edge5" class="edge">
<title>SafeQueryStyleListComponent&#45;&gt;SafeQueryBuilderModule</title>
<path fill="none" stroke="black" d="M1462.84,-196.51C1462.84,-211.17 1462.84,-229.39 1462.84,-229.39 1462.84,-229.39 1600.24,-229.39 1600.24,-229.39"/>
<polygon fill="black" stroke="black" points="1600.24,-232.89 1610.24,-229.39 1600.24,-225.89 1600.24,-232.89"/>
</g>
<!-- SafeQueryStylePreviewComponent -->
<g id="node5" class="node">
<title>SafeQueryStylePreviewComponent</title>
<polygon fill="#ffffb3" stroke="black" points="1377.85,-196.39 1162.15,-196.39 1162.15,-160.39 1377.85,-160.39 1377.85,-196.39"/>
<text text-anchor="middle" x="1270" y="-174.19" font-family="Times,serif" font-size="14.00">SafeQueryStylePreviewComponent</text>
</g>
<!-- SafeQueryStylePreviewComponent&#45;&gt;SafeQueryBuilderModule -->
<g id="edge6" class="edge">
<title>SafeQueryStylePreviewComponent&#45;&gt;SafeQueryBuilderModule</title>
<path fill="none" stroke="black" d="M1277.7,-196.67C1277.7,-212.34 1277.7,-232.39 1277.7,-232.39 1277.7,-232.39 1599.84,-232.39 1599.84,-232.39"/>
<polygon fill="black" stroke="black" points="1599.84,-235.89 1609.84,-232.39 1599.84,-228.89 1599.84,-235.89"/>
</g>
<!-- SafeTabFieldsComponent -->
<g id="node6" class="node">
<title>SafeTabFieldsComponent</title>
<polygon fill="#ffffb3" stroke="black" points="1144.2,-196.39 981.8,-196.39 981.8,-160.39 1144.2,-160.39 1144.2,-196.39"/>
<text text-anchor="middle" x="1063" y="-174.19" font-family="Times,serif" font-size="14.00">SafeTabFieldsComponent</text>
</g>
<!-- SafeTabFieldsComponent&#45;&gt;SafeQueryBuilderModule -->
<g id="edge7" class="edge">
<title>SafeTabFieldsComponent&#45;&gt;SafeQueryBuilderModule</title>
<path fill="none" stroke="black" d="M1063,-196.43C1063,-213.12 1063,-235.39 1063,-235.39 1063,-235.39 1600.19,-235.39 1600.19,-235.39"/>
<polygon fill="black" stroke="black" points="1600.19,-238.89 1610.19,-235.39 1600.19,-231.89 1600.19,-238.89"/>
</g>
<!-- SafeTabFilterComponent -->
<g id="node7" class="node">
<title>SafeTabFilterComponent</title>
<polygon fill="#ffffb3" stroke="black" points="964.3,-196.39 805.7,-196.39 805.7,-160.39 964.3,-160.39 964.3,-196.39"/>
<text text-anchor="middle" x="885" y="-174.19" font-family="Times,serif" font-size="14.00">SafeTabFilterComponent</text>
</g>
<!-- SafeTabFilterComponent&#45;&gt;SafeQueryBuilderModule -->
<g id="edge8" class="edge">
<title>SafeTabFilterComponent&#45;&gt;SafeQueryBuilderModule</title>
<path fill="none" stroke="black" d="M885,-196.69C885,-214.66 885,-239.39 885,-239.39 885,-239.39 1600.03,-239.39 1600.03,-239.39"/>
<polygon fill="black" stroke="black" points="1600.03,-242.89 1610.03,-239.39 1600.03,-235.89 1600.03,-242.89"/>
</g>
<!-- SafeTabLayoutPreviewComponent -->
<g id="node8" class="node">
<title>SafeTabLayoutPreviewComponent</title>
<polygon fill="#ffffb3" stroke="black" points="787.5,-196.39 574.5,-196.39 574.5,-160.39 787.5,-160.39 787.5,-196.39"/>
<text text-anchor="middle" x="681" y="-174.19" font-family="Times,serif" font-size="14.00">SafeTabLayoutPreviewComponent</text>
</g>
<!-- SafeTabLayoutPreviewComponent&#45;&gt;SafeQueryBuilderModule -->
<g id="edge9" class="edge">
<title>SafeTabLayoutPreviewComponent&#45;&gt;SafeQueryBuilderModule</title>
<path fill="none" stroke="black" d="M681,-196.56C681,-215.48 681,-242.39 681,-242.39 681,-242.39 1600.05,-242.39 1600.05,-242.39"/>
<polygon fill="black" stroke="black" points="1600.05,-245.89 1610.05,-242.39 1600.05,-238.89 1600.05,-245.89"/>
</g>
<!-- SafeTabPaginationComponent -->
<g id="node9" class="node">
<title>SafeTabPaginationComponent</title>
<polygon fill="#ffffb3" stroke="black" points="555.86,-196.39 368.14,-196.39 368.14,-160.39 555.86,-160.39 555.86,-196.39"/>
<text text-anchor="middle" x="462" y="-174.19" font-family="Times,serif" font-size="14.00">SafeTabPaginationComponent</text>
</g>
<!-- SafeTabPaginationComponent&#45;&gt;SafeQueryBuilderModule -->
<g id="edge10" class="edge">
<title>SafeTabPaginationComponent&#45;&gt;SafeQueryBuilderModule</title>
<path fill="none" stroke="black" d="M462,-196.7C462,-216.54 462,-245.39 462,-245.39 462,-245.39 1599.89,-245.39 1599.89,-245.39"/>
<polygon fill="black" stroke="black" points="1599.89,-248.89 1609.89,-245.39 1599.89,-241.89 1599.89,-248.89"/>
</g>
<!-- SafeTabSortComponent -->
<g id="node10" class="node">
<title>SafeTabSortComponent</title>
<polygon fill="#ffffb3" stroke="black" points="349.81,-196.39 198.19,-196.39 198.19,-160.39 349.81,-160.39 349.81,-196.39"/>
<text text-anchor="middle" x="274" y="-174.19" font-family="Times,serif" font-size="14.00">SafeTabSortComponent</text>
</g>
<!-- SafeTabSortComponent&#45;&gt;SafeQueryBuilderModule -->
<g id="edge11" class="edge">
<title>SafeTabSortComponent&#45;&gt;SafeQueryBuilderModule</title>
<path fill="none" stroke="black" d="M274,-196.42C274,-217.16 274,-248.39 274,-248.39 274,-248.39 1600.24,-248.39 1600.24,-248.39"/>
<polygon fill="black" stroke="black" points="1600.24,-251.89 1610.24,-248.39 1600.24,-244.89 1600.24,-251.89"/>
</g>
<!-- SafeTabStyleComponent -->
<g id="node11" class="node">
<title>SafeTabStyleComponent</title>
<polygon fill="#ffffb3" stroke="black" points="180.25,-196.39 23.75,-196.39 23.75,-160.39 180.25,-160.39 180.25,-196.39"/>
<text text-anchor="middle" x="102" y="-174.19" font-family="Times,serif" font-size="14.00">SafeTabStyleComponent</text>
</g>
<!-- SafeTabStyleComponent&#45;&gt;SafeQueryBuilderModule -->
<g id="edge12" class="edge">
<title>SafeTabStyleComponent&#45;&gt;SafeQueryBuilderModule</title>
<path fill="none" stroke="black" d="M102,-196.68C102,-218.6 102,-252.39 102,-252.39 102,-252.39 1600.29,-252.39 1600.29,-252.39"/>
<polygon fill="black" stroke="black" points="1600.29,-255.89 1610.29,-252.39 1600.29,-248.89 1600.29,-255.89"/>
</g>
<!-- SafeQueryBuilderComponent  -->
<g id="node20" class="node">
<title>SafeQueryBuilderComponent </title>
<polygon fill="#fb8072" stroke="black" points="2160.19,-326.39 1973.81,-326.39 1973.81,-290.39 2160.19,-290.39 2160.19,-326.39"/>
<text text-anchor="middle" x="2067" y="-304.19" font-family="Times,serif" font-size="14.00">SafeQueryBuilderComponent </text>
</g>
<!-- SafeQueryBuilderModule&#45;&gt;SafeQueryBuilderComponent  -->
<g id="edge19" class="edge">
<title>SafeQueryBuilderModule&#45;&gt;SafeQueryBuilderComponent </title>
<path fill="none" stroke="black" stroke-dasharray="5,2" d="M1771.75,-255.39C1859.25,-255.39 1986.53,-255.39 1986.53,-255.39 1986.53,-255.39 1986.53,-280.15 1986.53,-280.15"/>
<polygon fill="black" stroke="black" points="1983.03,-280.15 1986.53,-290.15 1990.03,-280.15 1983.03,-280.15"/>
</g>
<!-- SafeTabFieldsComponent  -->
<g id="node21" class="node">
<title>SafeTabFieldsComponent </title>
<polygon fill="#fb8072" stroke="black" points="1955.7,-326.39 1790.3,-326.39 1790.3,-290.39 1955.7,-290.39 1955.7,-326.39"/>
<text text-anchor="middle" x="1873" y="-304.19" font-family="Times,serif" font-size="14.00">SafeTabFieldsComponent </text>
</g>
<!-- SafeQueryBuilderModule&#45;&gt;SafeTabFieldsComponent  -->
<g id="edge20" class="edge">
<title>SafeQueryBuilderModule&#45;&gt;SafeTabFieldsComponent </title>
<path fill="none" stroke="black" stroke-dasharray="5,2" d="M1771.99,-258.39C1831.5,-258.39 1902.04,-258.39 1902.04,-258.39 1902.04,-258.39 1902.04,-280.34 1902.04,-280.34"/>
<polygon fill="black" stroke="black" points="1898.54,-280.34 1902.04,-290.34 1905.54,-280.34 1898.54,-280.34"/>
</g>
<!-- SafeTabFilterComponent  -->
<g id="node22" class="node">
<title>SafeTabFilterComponent </title>
<polygon fill="#fb8072" stroke="black" points="1771.8,-326.39 1610.2,-326.39 1610.2,-290.39 1771.8,-290.39 1771.8,-326.39"/>
<text text-anchor="middle" x="1691" y="-304.19" font-family="Times,serif" font-size="14.00">SafeTabFilterComponent </text>
</g>
<!-- SafeQueryBuilderModule&#45;&gt;SafeTabFilterComponent  -->
<g id="edge21" class="edge">
<title>SafeQueryBuilderModule&#45;&gt;SafeTabFilterComponent </title>
<path fill="none" stroke="black" stroke-dasharray="5,2" d="M1691,-261.5C1691,-261.5 1691,-280.38 1691,-280.38"/>
<polygon fill="black" stroke="black" points="1687.5,-280.38 1691,-290.38 1694.5,-280.38 1687.5,-280.38"/>
</g>
<!-- SafeTabPaginationComponent  -->
<g id="node23" class="node">
<title>SafeTabPaginationComponent </title>
<polygon fill="#fb8072" stroke="black" points="1591.86,-326.39 1400.14,-326.39 1400.14,-290.39 1591.86,-290.39 1591.86,-326.39"/>
<text text-anchor="middle" x="1496" y="-304.19" font-family="Times,serif" font-size="14.00">SafeTabPaginationComponent </text>
</g>
<!-- SafeQueryBuilderModule&#45;&gt;SafeTabPaginationComponent  -->
<g id="edge22" class="edge">
<title>SafeQueryBuilderModule&#45;&gt;SafeTabPaginationComponent </title>
<path fill="none" stroke="black" stroke-dasharray="5,2" d="M1610.12,-258.39C1568.07,-258.39 1525.36,-258.39 1525.36,-258.39 1525.36,-258.39 1525.36,-280.34 1525.36,-280.34"/>
<polygon fill="black" stroke="black" points="1521.86,-280.34 1525.36,-290.34 1528.86,-280.34 1521.86,-280.34"/>
</g>
<!-- SafeTabSortComponent  -->
<g id="node24" class="node">
<title>SafeTabSortComponent </title>
<polygon fill="#fb8072" stroke="black" points="1382.31,-326.39 1227.69,-326.39 1227.69,-290.39 1382.31,-290.39 1382.31,-326.39"/>
<text text-anchor="middle" x="1305" y="-304.19" font-family="Times,serif" font-size="14.00">SafeTabSortComponent </text>
</g>
<!-- SafeQueryBuilderModule&#45;&gt;SafeTabSortComponent  -->
<g id="edge23" class="edge">
<title>SafeQueryBuilderModule&#45;&gt;SafeTabSortComponent </title>
<path fill="none" stroke="black" stroke-dasharray="5,2" d="M1609.95,-255.39C1502.91,-255.39 1327.81,-255.39 1327.81,-255.39 1327.81,-255.39 1327.81,-280.15 1327.81,-280.15"/>
<polygon fill="black" stroke="black" points="1324.31,-280.15 1327.81,-290.15 1331.31,-280.15 1324.31,-280.15"/>
</g>
<!-- {
 &#160;&#160;&#160;provide: MAT_AUTOCOMPLETE_SCROLL_STRATEGY, useFactory: scrollFactory, deps: [Overlay],
} -->
<g id="node13" class="node">
<title>{
 &#160;&#160;&#160;provide: MAT_AUTOCOMPLETE_SCROLL_STRATEGY, useFactory: scrollFactory, deps: [Overlay],
}</title>
<ellipse fill="#fdb462" stroke="black" cx="1886" cy="-90.1" rx="438.07" ry="41.09"/>
<text text-anchor="middle" x="1886" y="-102.7" font-family="Times,serif" font-size="14.00">{</text>
<text text-anchor="middle" x="1886" y="-85.9" font-family="Times,serif" font-size="14.00"> &#160;&#160;&#160;provide: MAT_AUTOCOMPLETE_SCROLL_STRATEGY, useFactory: scrollFactory, deps: [Overlay],</text>
<text text-anchor="middle" x="1886" y="-69.1" font-family="Times,serif" font-size="14.00">}</text>
</g>
<!-- {
 &#160;&#160;&#160;provide: MAT_AUTOCOMPLETE_SCROLL_STRATEGY, useFactory: scrollFactory, deps: [Overlay],
}&#45;&gt;SafeQueryBuilderComponent -->
<g id="edge3" class="edge">
<title>{
 &#160;&#160;&#160;provide: MAT_AUTOCOMPLETE_SCROLL_STRATEGY, useFactory: scrollFactory, deps: [Overlay],
}&#45;&gt;SafeQueryBuilderComponent</title>
<path fill="none" stroke="black" d="M1886,-131.4C1886,-131.4 1886,-150.06 1886,-150.06"/>
<polygon fill="black" stroke="black" points="1882.5,-150.06 1886,-160.06 1889.5,-150.06 1882.5,-150.06"/>
</g>
<!-- SafeAlertModule -->
<g id="node14" class="node">
<title>SafeAlertModule</title>
<polygon fill="#8dd3c7" stroke="black" points="3047.69,-196.39 3044.69,-200.39 3023.69,-200.39 3020.69,-196.39 2934.31,-196.39 2934.31,-160.39 3047.69,-160.39 3047.69,-196.39"/>
<text text-anchor="middle" x="2991" y="-174.19" font-family="Times,serif" font-size="14.00">SafeAlertModule</text>
</g>
<!-- SafeAlertModule&#45;&gt;SafeQueryBuilderModule -->
<g id="edge13" class="edge">
<title>SafeAlertModule&#45;&gt;SafeQueryBuilderModule</title>
<path fill="none" stroke="black" d="M2991,-196.68C2991,-218.6 2991,-252.39 2991,-252.39 2991,-252.39 1781.83,-252.39 1781.83,-252.39"/>
<polygon fill="black" stroke="black" points="1781.83,-248.89 1771.83,-252.39 1781.83,-255.89 1781.83,-248.89"/>
</g>
<!-- SafeButtonModule -->
<g id="node15" class="node">
<title>SafeButtonModule</title>
<polygon fill="#8dd3c7" stroke="black" points="2916.05,-196.39 2913.05,-200.39 2892.05,-200.39 2889.05,-196.39 2793.95,-196.39 2793.95,-160.39 2916.05,-160.39 2916.05,-196.39"/>
<text text-anchor="middle" x="2855" y="-174.19" font-family="Times,serif" font-size="14.00">SafeButtonModule</text>
</g>
<!-- SafeButtonModule&#45;&gt;SafeQueryBuilderModule -->
<g id="edge14" class="edge">
<title>SafeButtonModule&#45;&gt;SafeQueryBuilderModule</title>
<path fill="none" stroke="black" d="M2855,-196.42C2855,-217.16 2855,-248.39 2855,-248.39 2855,-248.39 1781.93,-248.39 1781.93,-248.39"/>
<polygon fill="black" stroke="black" points="1781.93,-244.89 1771.93,-248.39 1781.93,-251.89 1781.93,-244.89"/>
</g>
<!-- SafeCheckboxTreeModule -->
<g id="node16" class="node">
<title>SafeCheckboxTreeModule</title>
<polygon fill="#8dd3c7" stroke="black" points="2775.34,-196.39 2772.34,-200.39 2751.34,-200.39 2748.34,-196.39 2608.66,-196.39 2608.66,-160.39 2775.34,-160.39 2775.34,-196.39"/>
<text text-anchor="middle" x="2692" y="-174.19" font-family="Times,serif" font-size="14.00">SafeCheckboxTreeModule</text>
</g>
<!-- SafeCheckboxTreeModule&#45;&gt;SafeQueryBuilderModule -->
<g id="edge15" class="edge">
<title>SafeCheckboxTreeModule&#45;&gt;SafeQueryBuilderModule</title>
<path fill="none" stroke="black" d="M2692,-196.7C2692,-216.54 2692,-245.39 2692,-245.39 2692,-245.39 1782.07,-245.39 1782.07,-245.39"/>
<polygon fill="black" stroke="black" points="1782.07,-241.89 1772.07,-245.39 1782.07,-248.89 1782.07,-241.89"/>
</g>
<!-- SafeCoreGridModule -->
<g id="node17" class="node">
<title>SafeCoreGridModule</title>
<polygon fill="#8dd3c7" stroke="black" points="2590.8,-196.39 2587.8,-200.39 2566.8,-200.39 2563.8,-196.39 2453.2,-196.39 2453.2,-160.39 2590.8,-160.39 2590.8,-196.39"/>
<text text-anchor="middle" x="2522" y="-174.19" font-family="Times,serif" font-size="14.00">SafeCoreGridModule</text>
</g>
<!-- SafeCoreGridModule&#45;&gt;SafeQueryBuilderModule -->
<g id="edge16" class="edge">
<title>SafeCoreGridModule&#45;&gt;SafeQueryBuilderModule</title>
<path fill="none" stroke="black" d="M2522,-196.56C2522,-215.48 2522,-242.39 2522,-242.39 2522,-242.39 1781.81,-242.39 1781.81,-242.39"/>
<polygon fill="black" stroke="black" points="1781.81,-238.89 1771.81,-242.39 1781.81,-245.89 1781.81,-238.89"/>
</g>
<!-- SafeFilterModule -->
<g id="node18" class="node">
<title>SafeFilterModule</title>
<polygon fill="#8dd3c7" stroke="black" points="2435.26,-196.39 2432.26,-200.39 2411.26,-200.39 2408.26,-196.39 2320.74,-196.39 2320.74,-160.39 2435.26,-160.39 2435.26,-196.39"/>
<text text-anchor="middle" x="2378" y="-174.19" font-family="Times,serif" font-size="14.00">SafeFilterModule</text>
</g>
<!-- SafeFilterModule&#45;&gt;SafeQueryBuilderModule -->
<g id="edge17" class="edge">
<title>SafeFilterModule&#45;&gt;SafeQueryBuilderModule</title>
<path fill="none" stroke="black" d="M2378,-196.69C2378,-214.66 2378,-239.39 2378,-239.39 2378,-239.39 1781.83,-239.39 1781.83,-239.39"/>
<polygon fill="black" stroke="black" points="1781.83,-235.89 1771.83,-239.39 1781.83,-242.89 1781.83,-235.89"/>
</g>
<!-- SafeIconModule -->
<g id="node19" class="node">
<title>SafeIconModule</title>
<polygon fill="#8dd3c7" stroke="black" points="2302.8,-196.39 2299.8,-200.39 2278.8,-200.39 2275.8,-196.39 2193.2,-196.39 2193.2,-160.39 2302.8,-160.39 2302.8,-196.39"/>
<text text-anchor="middle" x="2248" y="-174.19" font-family="Times,serif" font-size="14.00">SafeIconModule</text>
</g>
<!-- SafeIconModule&#45;&gt;SafeQueryBuilderModule -->
<g id="edge18" class="edge">
<title>SafeIconModule&#45;&gt;SafeQueryBuilderModule</title>
<path fill="none" stroke="black" d="M2248,-196.43C2248,-213.12 2248,-235.39 2248,-235.39 2248,-235.39 1781.99,-235.39 1781.99,-235.39"/>
<polygon fill="black" stroke="black" points="1781.99,-231.89 1771.99,-235.39 1781.99,-238.89 1781.99,-231.89"/>
</g>
</g>
</svg>
