<?xml version="1.0" encoding="UTF-8" standalone="no"?>
<!DOCTYPE svg PUBLIC "-//W3C//DTD SVG 1.1//EN"
 "http://www.w3.org/Graphics/SVG/1.1/DTD/svg11.dtd">
<!-- Generated by graphviz version 3.0.0 (20220226.1711)
 -->
<!-- Title: dependencies Pages: 1 -->
<svg width="3779pt" height="358pt"
 viewBox="0.00 0.00 3779.00 358.39" xmlns="http://www.w3.org/2000/svg" xmlns:xlink="http://www.w3.org/1999/xlink">
<g id="graph0" class="graph" transform="scale(1 1) rotate(0) translate(4 354.39)">
<title>dependencies</title>
<polygon fill="white" stroke="transparent" points="-4,4 -4,-354.39 3775,-354.39 3775,4 -4,4"/>
<text text-anchor="middle" x="1885.5" y="-8.2" font-family="sans-serif" font-size="14.00">dependencies</text>
<g id="clust1" class="cluster">
<title>cluster_SafeQueryBuilderModule</title>
<polygon fill="none" stroke="black" stroke-dasharray="1,5" points="8,-32.8 8,-342.39 3763,-342.39 3763,-32.8 8,-32.8"/>
</g>
<g id="clust4" class="cluster">
<title>cluster_SafeQueryBuilderModule_SafeQueryBuilderComponent_providers</title>
<polygon fill="none" stroke="black" points="2863,-40.8 2863,-204.39 3755,-204.39 3755,-40.8 2863,-40.8"/>
</g>
<g id="clust2" class="cluster">
<title>cluster_SafeQueryBuilderModule_declarations</title>
<polygon fill="none" stroke="black" points="895,-152.39 895,-204.39 2855,-204.39 2855,-152.39 895,-152.39"/>
</g>
<g id="clust14" class="cluster">
<title>cluster_SafeQueryBuilderModule_imports</title>
<polygon fill="none" stroke="black" points="16,-152.39 16,-204.39 887,-204.39 887,-152.39 16,-152.39"/>
</g>
<g id="clust15" class="cluster">
<title>cluster_SafeQueryBuilderModule_exports</title>
<polygon fill="none" stroke="black" points="870,-282.39 870,-334.39 1818,-334.39 1818,-282.39 870,-282.39"/>
</g>
<!-- DateFilterEditorComponent -->
<g id="node1" class="node">
<title>DateFilterEditorComponent</title>
<polygon fill="#ffffb3" stroke="black" points="2846.58,-196.39 2673.42,-196.39 2673.42,-160.39 2846.58,-160.39 2846.58,-196.39"/>
<text text-anchor="middle" x="2760" y="-174.19" font-family="Times,serif" font-size="14.00">DateFilterEditorComponent</text>
</g>
<!-- SafeQueryBuilderModule -->
<g id="node12" class="node">
<title>SafeQueryBuilderModule</title>
<polygon fill="#8dd3c7" stroke="black" points="1421.91,-261.39 1418.91,-265.39 1397.91,-265.39 1394.91,-261.39 1260.09,-261.39 1260.09,-225.39 1421.91,-225.39 1421.91,-261.39"/>
<text text-anchor="middle" x="1341" y="-239.19" font-family="Times,serif" font-size="14.00">SafeQueryBuilderModule</text>
</g>
<!-- DateFilterEditorComponent&#45;&gt;SafeQueryBuilderModule -->
<g id="edge1" class="edge">
<title>DateFilterEditorComponent&#45;&gt;SafeQueryBuilderModule</title>
<path fill="none" stroke="black" d="M2760,-196.42C2760,-217.16 2760,-248.39 2760,-248.39 2760,-248.39 1431.87,-248.39 1431.87,-248.39"/>
<polygon fill="black" stroke="black" points="1431.87,-244.89 1421.87,-248.39 1431.87,-251.89 1431.87,-244.89"/>
</g>
<!-- SafeQueryBuilderComponent -->
<g id="node2" class="node">
<title>SafeQueryBuilderComponent</title>
<polygon fill="#ffffb3" stroke="black" points="3227.69,-196.39 3044.31,-196.39 3044.31,-160.39 3227.69,-160.39 3227.69,-196.39"/>
<text text-anchor="middle" x="3136" y="-174.19" font-family="Times,serif" font-size="14.00">SafeQueryBuilderComponent</text>
</g>
<!-- SafeQueryBuilderComponent&#45;&gt;SafeQueryBuilderModule -->
<g id="edge2" class="edge">
<title>SafeQueryBuilderComponent&#45;&gt;SafeQueryBuilderModule</title>
<path fill="none" stroke="black" d="M3136,-196.68C3136,-218.6 3136,-252.39 3136,-252.39 3136,-252.39 1431.91,-252.39 1431.91,-252.39"/>
<polygon fill="black" stroke="black" points="1431.91,-248.89 1421.91,-252.39 1431.91,-255.89 1431.91,-248.89"/>
</g>
<!-- SafeQueryStyleComponent -->
<g id="node3" class="node">
<title>SafeQueryStyleComponent</title>
<polygon fill="#ffffb3" stroke="black" points="2654.97,-196.39 2485.03,-196.39 2485.03,-160.39 2654.97,-160.39 2654.97,-196.39"/>
<text text-anchor="middle" x="2570" y="-174.19" font-family="Times,serif" font-size="14.00">SafeQueryStyleComponent</text>
</g>
<!-- SafeQueryStyleComponent&#45;&gt;SafeQueryBuilderModule -->
<g id="edge4" class="edge">
<title>SafeQueryStyleComponent&#45;&gt;SafeQueryBuilderModule</title>
<path fill="none" stroke="black" d="M2570,-196.7C2570,-216.54 2570,-245.39 2570,-245.39 2570,-245.39 1432.11,-245.39 1432.11,-245.39"/>
<polygon fill="black" stroke="black" points="1432.11,-241.89 1422.11,-245.39 1432.11,-248.89 1432.11,-241.89"/>
</g>
<!-- SafeQueryStyleListComponent -->
<g id="node4" class="node">
<title>SafeQueryStyleListComponent</title>
<polygon fill="#ffffb3" stroke="black" points="2466.75,-196.39 2275.25,-196.39 2275.25,-160.39 2466.75,-160.39 2466.75,-196.39"/>
<text text-anchor="middle" x="2371" y="-174.19" font-family="Times,serif" font-size="14.00">SafeQueryStyleListComponent</text>
</g>
<!-- SafeQueryStyleListComponent&#45;&gt;SafeQueryBuilderModule -->
<g id="edge5" class="edge">
<title>SafeQueryStyleListComponent&#45;&gt;SafeQueryBuilderModule</title>
<path fill="none" stroke="black" d="M2371,-196.56C2371,-215.48 2371,-242.39 2371,-242.39 2371,-242.39 1431.82,-242.39 1431.82,-242.39"/>
<polygon fill="black" stroke="black" points="1431.82,-238.89 1421.82,-242.39 1431.82,-245.89 1431.82,-238.89"/>
</g>
<!-- SafeQueryStylePreviewComponent -->
<g id="node5" class="node">
<title>SafeQueryStylePreviewComponent</title>
<polygon fill="#ffffb3" stroke="black" points="2256.85,-196.39 2041.15,-196.39 2041.15,-160.39 2256.85,-160.39 2256.85,-196.39"/>
<text text-anchor="middle" x="2149" y="-174.19" font-family="Times,serif" font-size="14.00">SafeQueryStylePreviewComponent</text>
</g>
<!-- SafeQueryStylePreviewComponent&#45;&gt;SafeQueryBuilderModule -->
<g id="edge6" class="edge">
<title>SafeQueryStylePreviewComponent&#45;&gt;SafeQueryBuilderModule</title>
<path fill="none" stroke="black" d="M2149,-196.69C2149,-214.66 2149,-239.39 2149,-239.39 2149,-239.39 1431.8,-239.39 1431.8,-239.39"/>
<polygon fill="black" stroke="black" points="1431.8,-235.89 1421.8,-239.39 1431.8,-242.89 1431.8,-235.89"/>
</g>
<!-- SafeTabFieldsComponent -->
<g id="node6" class="node">
<title>SafeTabFieldsComponent</title>
<polygon fill="#ffffb3" stroke="black" points="2023.2,-196.39 1860.8,-196.39 1860.8,-160.39 2023.2,-160.39 2023.2,-196.39"/>
<text text-anchor="middle" x="1942" y="-174.19" font-family="Times,serif" font-size="14.00">SafeTabFieldsComponent</text>
</g>
<!-- SafeTabFieldsComponent&#45;&gt;SafeQueryBuilderModule -->
<g id="edge7" class="edge">
<title>SafeTabFieldsComponent&#45;&gt;SafeQueryBuilderModule</title>
<path fill="none" stroke="black" d="M1942,-196.43C1942,-213.12 1942,-235.39 1942,-235.39 1942,-235.39 1431.74,-235.39 1431.74,-235.39"/>
<polygon fill="black" stroke="black" points="1431.74,-231.89 1421.74,-235.39 1431.74,-238.89 1431.74,-231.89"/>
</g>
<!-- SafeTabFilterComponent -->
<g id="node7" class="node">
<title>SafeTabFilterComponent</title>
<polygon fill="#ffffb3" stroke="black" points="1843.3,-196.39 1684.7,-196.39 1684.7,-160.39 1843.3,-160.39 1843.3,-196.39"/>
<text text-anchor="middle" x="1764" y="-174.19" font-family="Times,serif" font-size="14.00">SafeTabFilterComponent</text>
</g>
<!-- SafeTabFilterComponent&#45;&gt;SafeQueryBuilderModule -->
<g id="edge8" class="edge">
<title>SafeTabFilterComponent&#45;&gt;SafeQueryBuilderModule</title>
<path fill="none" stroke="black" d="M1747.6,-196.67C1747.6,-212.34 1747.6,-232.39 1747.6,-232.39 1747.6,-232.39 1431.82,-232.39 1431.82,-232.39"/>
<polygon fill="black" stroke="black" points="1431.82,-228.89 1421.82,-232.39 1431.82,-235.89 1431.82,-228.89"/>
</g>
<!-- SafeTabLayoutPreviewComponent -->
<g id="node8" class="node">
<title>SafeTabLayoutPreviewComponent</title>
<polygon fill="#ffffb3" stroke="black" points="1666.5,-196.39 1453.5,-196.39 1453.5,-160.39 1666.5,-160.39 1666.5,-196.39"/>
<text text-anchor="middle" x="1560" y="-174.19" font-family="Times,serif" font-size="14.00">SafeTabLayoutPreviewComponent</text>
</g>
<!-- SafeTabLayoutPreviewComponent&#45;&gt;SafeQueryBuilderModule -->
<g id="edge9" class="edge">
<title>SafeTabLayoutPreviewComponent&#45;&gt;SafeQueryBuilderModule</title>
<path fill="none" stroke="black" d="M1529.55,-196.51C1529.55,-211.17 1529.55,-229.39 1529.55,-229.39 1529.55,-229.39 1431.78,-229.39 1431.78,-229.39"/>
<polygon fill="black" stroke="black" points="1431.78,-225.89 1421.78,-229.39 1431.78,-232.89 1431.78,-225.89"/>
</g>
<!-- SafeTabPaginationComponent -->
<g id="node9" class="node">
<title>SafeTabPaginationComponent</title>
<polygon fill="#ffffb3" stroke="black" points="1434.86,-196.39 1247.14,-196.39 1247.14,-160.39 1434.86,-160.39 1434.86,-196.39"/>
<text text-anchor="middle" x="1341" y="-174.19" font-family="Times,serif" font-size="14.00">SafeTabPaginationComponent</text>
</g>
<!-- SafeTabPaginationComponent&#45;&gt;SafeQueryBuilderModule -->
<g id="edge10" class="edge">
<title>SafeTabPaginationComponent&#45;&gt;SafeQueryBuilderModule</title>
<path fill="none" stroke="black" d="M1341,-196.5C1341,-196.5 1341,-215.38 1341,-215.38"/>
<polygon fill="black" stroke="black" points="1337.5,-215.38 1341,-225.38 1344.5,-215.38 1337.5,-215.38"/>
</g>
<!-- SafeTabSortComponent -->
<g id="node10" class="node">
<title>SafeTabSortComponent</title>
<polygon fill="#ffffb3" stroke="black" points="1228.81,-196.39 1077.19,-196.39 1077.19,-160.39 1228.81,-160.39 1228.81,-196.39"/>
<text text-anchor="middle" x="1153" y="-174.19" font-family="Times,serif" font-size="14.00">SafeTabSortComponent</text>
</g>
<!-- SafeTabSortComponent&#45;&gt;SafeQueryBuilderModule -->
<g id="edge11" class="edge">
<title>SafeTabSortComponent&#45;&gt;SafeQueryBuilderModule</title>
<path fill="none" stroke="black" d="M1153,-196.51C1153,-211.17 1153,-229.39 1153,-229.39 1153,-229.39 1250.18,-229.39 1250.18,-229.39"/>
<polygon fill="black" stroke="black" points="1250.18,-232.89 1260.18,-229.39 1250.18,-225.89 1250.18,-232.89"/>
</g>
<!-- SafeTabStyleComponent -->
<g id="node11" class="node">
<title>SafeTabStyleComponent</title>
<polygon fill="#ffffb3" stroke="black" points="1059.25,-196.39 902.75,-196.39 902.75,-160.39 1059.25,-160.39 1059.25,-196.39"/>
<text text-anchor="middle" x="981" y="-174.19" font-family="Times,serif" font-size="14.00">SafeTabStyleComponent</text>
</g>
<!-- SafeTabStyleComponent&#45;&gt;SafeQueryBuilderModule -->
<g id="edge12" class="edge">
<title>SafeTabStyleComponent&#45;&gt;SafeQueryBuilderModule</title>
<path fill="none" stroke="black" d="M1054.85,-196.67C1054.85,-212.34 1054.85,-232.39 1054.85,-232.39 1054.85,-232.39 1250.15,-232.39 1250.15,-232.39"/>
<polygon fill="black" stroke="black" points="1250.15,-235.89 1260.15,-232.39 1250.15,-228.89 1250.15,-235.89"/>
</g>
<!-- SafeQueryBuilderComponent  -->
<g id="node20" class="node">
<title>SafeQueryBuilderComponent </title>
<polygon fill="#fb8072" stroke="black" points="1810.19,-326.39 1623.81,-326.39 1623.81,-290.39 1810.19,-290.39 1810.19,-326.39"/>
<text text-anchor="middle" x="1717" y="-304.19" font-family="Times,serif" font-size="14.00">SafeQueryBuilderComponent </text>
</g>
<!-- SafeQueryBuilderModule&#45;&gt;SafeQueryBuilderComponent  -->
<g id="edge19" class="edge">
<title>SafeQueryBuilderModule&#45;&gt;SafeQueryBuilderComponent </title>
<path fill="none" stroke="black" stroke-dasharray="5,2" d="M1421.72,-255.39C1511.84,-255.39 1645.2,-255.39 1645.2,-255.39 1645.2,-255.39 1645.2,-280.15 1645.2,-280.15"/>
<polygon fill="black" stroke="black" points="1641.7,-280.15 1645.2,-290.15 1648.7,-280.15 1641.7,-280.15"/>
</g>
<!-- SafeTabFieldsComponent  -->
<g id="node21" class="node">
<title>SafeTabFieldsComponent </title>
<polygon fill="#fb8072" stroke="black" points="1605.7,-326.39 1440.3,-326.39 1440.3,-290.39 1605.7,-290.39 1605.7,-326.39"/>
<text text-anchor="middle" x="1523" y="-304.19" font-family="Times,serif" font-size="14.00">SafeTabFieldsComponent </text>
</g>
<!-- SafeQueryBuilderModule&#45;&gt;SafeTabFieldsComponent  -->
<g id="edge20" class="edge">
<title>SafeQueryBuilderModule&#45;&gt;SafeTabFieldsComponent </title>
<path fill="none" stroke="black" stroke-dasharray="5,2" d="M1421.92,-258.39C1436.25,-258.39 1446.7,-258.39 1446.7,-258.39 1446.7,-258.39 1446.7,-280.34 1446.7,-280.34"/>
<polygon fill="black" stroke="black" points="1443.2,-280.34 1446.7,-290.34 1450.2,-280.34 1443.2,-280.34"/>
</g>
<!-- SafeTabFilterComponent  -->
<g id="node22" class="node">
<title>SafeTabFilterComponent </title>
<polygon fill="#fb8072" stroke="black" points="1421.8,-326.39 1260.2,-326.39 1260.2,-290.39 1421.8,-290.39 1421.8,-326.39"/>
<text text-anchor="middle" x="1341" y="-304.19" font-family="Times,serif" font-size="14.00">SafeTabFilterComponent </text>
</g>
<!-- SafeQueryBuilderModule&#45;&gt;SafeTabFilterComponent  -->
<g id="edge21" class="edge">
<title>SafeQueryBuilderModule&#45;&gt;SafeTabFilterComponent </title>
<path fill="none" stroke="black" stroke-dasharray="5,2" d="M1341,-261.5C1341,-261.5 1341,-280.38 1341,-280.38"/>
<polygon fill="black" stroke="black" points="1337.5,-280.38 1341,-290.38 1344.5,-280.38 1337.5,-280.38"/>
</g>
<!-- SafeTabPaginationComponent  -->
<g id="node23" class="node">
<title>SafeTabPaginationComponent </title>
<polygon fill="#fb8072" stroke="black" points="1241.86,-326.39 1050.14,-326.39 1050.14,-290.39 1241.86,-290.39 1241.86,-326.39"/>
<text text-anchor="middle" x="1146" y="-304.19" font-family="Times,serif" font-size="14.00">SafeTabPaginationComponent </text>
</g>
<!-- SafeQueryBuilderModule&#45;&gt;SafeTabPaginationComponent  -->
<g id="edge22" class="edge">
<title>SafeQueryBuilderModule&#45;&gt;SafeTabPaginationComponent </title>
<path fill="none" stroke="black" stroke-dasharray="5,2" d="M1260.25,-258.39C1245.76,-258.39 1235.17,-258.39 1235.17,-258.39 1235.17,-258.39 1235.17,-280.34 1235.17,-280.34"/>
<polygon fill="black" stroke="black" points="1231.67,-280.34 1235.17,-290.34 1238.67,-280.34 1231.67,-280.34"/>
</g>
<!-- SafeTabSortComponent  -->
<g id="node24" class="node">
<title>SafeTabSortComponent </title>
<polygon fill="#fb8072" stroke="black" points="1032.31,-326.39 877.69,-326.39 877.69,-290.39 1032.31,-290.39 1032.31,-326.39"/>
<text text-anchor="middle" x="955" y="-304.19" font-family="Times,serif" font-size="14.00">SafeTabSortComponent </text>
</g>
<!-- SafeQueryBuilderModule&#45;&gt;SafeTabSortComponent  -->
<g id="edge23" class="edge">
<title>SafeQueryBuilderModule&#45;&gt;SafeTabSortComponent </title>
<path fill="none" stroke="black" stroke-dasharray="5,2" d="M1259.96,-255.39C1150.11,-255.39 967.51,-255.39 967.51,-255.39 967.51,-255.39 967.51,-280.15 967.51,-280.15"/>
<polygon fill="black" stroke="black" points="964.01,-280.15 967.51,-290.15 971.01,-280.15 964.01,-280.15"/>
</g>
<!-- {
 &#160;&#160;&#160;provide: MAT_AUTOCOMPLETE_SCROLL_STRATEGY, useFactory: scrollFactory, deps: [Overlay],
} -->
<g id="node13" class="node">
<title>{
 &#160;&#160;&#160;provide: MAT_AUTOCOMPLETE_SCROLL_STRATEGY, useFactory: scrollFactory, deps: [Overlay],
}</title>
<ellipse fill="#fdb462" stroke="black" cx="3309" cy="-90.1" rx="438.07" ry="41.09"/>
<text text-anchor="middle" x="3309" y="-102.7" font-family="Times,serif" font-size="14.00">{</text>
<text text-anchor="middle" x="3309" y="-85.9" font-family="Times,serif" font-size="14.00"> &#160;&#160;&#160;provide: MAT_AUTOCOMPLETE_SCROLL_STRATEGY, useFactory: scrollFactory, deps: [Overlay],</text>
<text text-anchor="middle" x="3309" y="-69.1" font-family="Times,serif" font-size="14.00">}</text>
</g>
<!-- {
 &#160;&#160;&#160;provide: MAT_AUTOCOMPLETE_SCROLL_STRATEGY, useFactory: scrollFactory, deps: [Overlay],
}&#45;&gt;SafeQueryBuilderComponent -->
<g id="edge3" class="edge">
<title>{
 &#160;&#160;&#160;provide: MAT_AUTOCOMPLETE_SCROLL_STRATEGY, useFactory: scrollFactory, deps: [Overlay],
}&#45;&gt;SafeQueryBuilderComponent</title>
<path fill="none" stroke="black" d="M3136,-128.05C3136,-128.05 3136,-150.36 3136,-150.36"/>
<polygon fill="black" stroke="black" points="3132.5,-150.36 3136,-160.36 3139.5,-150.36 3132.5,-150.36"/>
</g>
<!-- SafeAlertModule -->
<g id="node14" class="node">
<title>SafeAlertModule</title>
<polygon fill="#8dd3c7" stroke="black" points="878.69,-196.39 875.69,-200.39 854.69,-200.39 851.69,-196.39 765.31,-196.39 765.31,-160.39 878.69,-160.39 878.69,-196.39"/>
<text text-anchor="middle" x="822" y="-174.19" font-family="Times,serif" font-size="14.00">SafeAlertModule</text>
</g>
<!-- SafeAlertModule&#45;&gt;SafeQueryBuilderModule -->
<g id="edge13" class="edge">
<title>SafeAlertModule&#45;&gt;SafeQueryBuilderModule</title>
<path fill="none" stroke="black" d="M821.5,-196.43C821.5,-213.12 821.5,-235.39 821.5,-235.39 821.5,-235.39 1250.11,-235.39 1250.11,-235.39"/>
<polygon fill="black" stroke="black" points="1250.11,-238.89 1260.11,-235.39 1250.11,-231.89 1250.11,-238.89"/>
</g>
<!-- SafeButtonModule -->
<g id="node15" class="node">
<title>SafeButtonModule</title>
<polygon fill="#8dd3c7" stroke="black" points="747.05,-196.39 744.05,-200.39 723.05,-200.39 720.05,-196.39 624.95,-196.39 624.95,-160.39 747.05,-160.39 747.05,-196.39"/>
<text text-anchor="middle" x="686" y="-174.19" font-family="Times,serif" font-size="14.00">SafeButtonModule</text>
</g>
<!-- SafeButtonModule&#45;&gt;SafeQueryBuilderModule -->
<g id="edge14" class="edge">
<title>SafeButtonModule&#45;&gt;SafeQueryBuilderModule</title>
<path fill="none" stroke="black" d="M686,-196.69C686,-214.66 686,-239.39 686,-239.39 686,-239.39 1250.03,-239.39 1250.03,-239.39"/>
<polygon fill="black" stroke="black" points="1250.03,-242.89 1260.03,-239.39 1250.03,-235.89 1250.03,-242.89"/>
</g>
<!-- SafeCheckboxTreeModule -->
<g id="node16" class="node">
<title>SafeCheckboxTreeModule</title>
<polygon fill="#8dd3c7" stroke="black" points="606.34,-196.39 603.34,-200.39 582.34,-200.39 579.34,-196.39 439.66,-196.39 439.66,-160.39 606.34,-160.39 606.34,-196.39"/>
<text text-anchor="middle" x="523" y="-174.19" font-family="Times,serif" font-size="14.00">SafeCheckboxTreeModule</text>
</g>
<!-- SafeCheckboxTreeModule&#45;&gt;SafeQueryBuilderModule -->
<g id="edge15" class="edge">
<title>SafeCheckboxTreeModule&#45;&gt;SafeQueryBuilderModule</title>
<path fill="none" stroke="black" d="M523,-196.56C523,-215.48 523,-242.39 523,-242.39 523,-242.39 1249.95,-242.39 1249.95,-242.39"/>
<polygon fill="black" stroke="black" points="1249.95,-245.89 1259.95,-242.39 1249.95,-238.89 1249.95,-245.89"/>
</g>
<!-- SafeCoreGridModule -->
<g id="node17" class="node">
<title>SafeCoreGridModule</title>
<polygon fill="#8dd3c7" stroke="black" points="421.8,-196.39 418.8,-200.39 397.8,-200.39 394.8,-196.39 284.2,-196.39 284.2,-160.39 421.8,-160.39 421.8,-196.39"/>
<text text-anchor="middle" x="353" y="-174.19" font-family="Times,serif" font-size="14.00">SafeCoreGridModule</text>
</g>
<!-- SafeCoreGridModule&#45;&gt;SafeQueryBuilderModule -->
<g id="edge16" class="edge">
<title>SafeCoreGridModule&#45;&gt;SafeQueryBuilderModule</title>
<path fill="none" stroke="black" d="M353,-196.7C353,-216.54 353,-245.39 353,-245.39 353,-245.39 1250.15,-245.39 1250.15,-245.39"/>
<polygon fill="black" stroke="black" points="1250.15,-248.89 1260.15,-245.39 1250.15,-241.89 1250.15,-248.89"/>
</g>
<!-- SafeFilterModule -->
<g id="node18" class="node">
<title>SafeFilterModule</title>
<polygon fill="#8dd3c7" stroke="black" points="266.26,-196.39 263.26,-200.39 242.26,-200.39 239.26,-196.39 151.74,-196.39 151.74,-160.39 266.26,-160.39 266.26,-196.39"/>
<text text-anchor="middle" x="209" y="-174.19" font-family="Times,serif" font-size="14.00">SafeFilterModule</text>
</g>
<!-- SafeFilterModule&#45;&gt;SafeQueryBuilderModule -->
<g id="edge17" class="edge">
<title>SafeFilterModule&#45;&gt;SafeQueryBuilderModule</title>
<path fill="none" stroke="black" d="M209,-196.42C209,-217.16 209,-248.39 209,-248.39 209,-248.39 1250.04,-248.39 1250.04,-248.39"/>
<polygon fill="black" stroke="black" points="1250.04,-251.89 1260.04,-248.39 1250.04,-244.89 1250.04,-251.89"/>
</g>
<!-- SafeIconModule -->
<g id="node19" class="node">
<title>SafeIconModule</title>
<polygon fill="#8dd3c7" stroke="black" points="133.8,-196.39 130.8,-200.39 109.8,-200.39 106.8,-196.39 24.2,-196.39 24.2,-160.39 133.8,-160.39 133.8,-196.39"/>
<text text-anchor="middle" x="79" y="-174.19" font-family="Times,serif" font-size="14.00">SafeIconModule</text>
</g>
<!-- SafeIconModule&#45;&gt;SafeQueryBuilderModule -->
<g id="edge18" class="edge">
<title>SafeIconModule&#45;&gt;SafeQueryBuilderModule</title>
<path fill="none" stroke="black" d="M79,-196.68C79,-218.6 79,-252.39 79,-252.39 79,-252.39 1250.14,-252.39 1250.14,-252.39"/>
<polygon fill="black" stroke="black" points="1250.14,-255.89 1260.14,-252.39 1250.14,-248.89 1250.14,-255.89"/>
</g>
</g>
</svg>
