<?xml version="1.0" encoding="UTF-8" standalone="no"?>
<!DOCTYPE svg PUBLIC "-//W3C//DTD SVG 1.1//EN"
 "http://www.w3.org/Graphics/SVG/1.1/DTD/svg11.dtd">
<!-- Generated by graphviz version 3.0.0 (20220226.1711)
 -->
<!-- Title: dependencies Pages: 1 -->
<svg width="3647pt" height="358pt"
 viewBox="0.00 0.00 3647.00 358.39" xmlns="http://www.w3.org/2000/svg" xmlns:xlink="http://www.w3.org/1999/xlink">
<g id="graph0" class="graph" transform="scale(1 1) rotate(0) translate(4 354.39)">
<title>dependencies</title>
<polygon fill="white" stroke="transparent" points="-4,4 -4,-354.39 3643,-354.39 3643,4 -4,4"/>
<text text-anchor="middle" x="1819.5" y="-8.2" font-family="sans-serif" font-size="14.00">dependencies</text>
<g id="clust1" class="cluster">
<title>cluster_SafeQueryBuilderModule</title>
<polygon fill="none" stroke="black" stroke-dasharray="1,5" points="8,-32.8 8,-342.39 3631,-342.39 3631,-32.8 8,-32.8"/>
</g>
<g id="clust4" class="cluster">
<title>cluster_SafeQueryBuilderModule_SafeQueryBuilderComponent_providers</title>
<polygon fill="none" stroke="black" points="2731,-40.8 2731,-204.39 3623,-204.39 3623,-40.8 2731,-40.8"/>
</g>
<g id="clust15" class="cluster">
<title>cluster_SafeQueryBuilderModule_exports</title>
<polygon fill="none" stroke="black" points="847,-282.39 847,-334.39 1795,-334.39 1795,-282.39 847,-282.39"/>
</g>
<g id="clust2" class="cluster">
<title>cluster_SafeQueryBuilderModule_declarations</title>
<polygon fill="none" stroke="black" points="763,-152.39 763,-204.39 2723,-204.39 2723,-152.39 763,-152.39"/>
</g>
<g id="clust14" class="cluster">
<title>cluster_SafeQueryBuilderModule_imports</title>
<polygon fill="none" stroke="black" points="16,-152.39 16,-204.39 755,-204.39 755,-152.39 16,-152.39"/>
</g>
<!-- DateFilterEditorComponent -->
<g id="node1" class="node">
<title>DateFilterEditorComponent</title>
<polygon fill="#ffffb3" stroke="black" points="2714.58,-196.39 2541.42,-196.39 2541.42,-160.39 2714.58,-160.39 2714.58,-196.39"/>
<text text-anchor="middle" x="2628" y="-174.19" font-family="Times,serif" font-size="14.00">DateFilterEditorComponent</text>
</g>
<!-- SafeQueryBuilderModule -->
<g id="node12" class="node">
<title>SafeQueryBuilderModule</title>
<polygon fill="#8dd3c7" stroke="black" points="1398.91,-261.39 1395.91,-265.39 1374.91,-265.39 1371.91,-261.39 1237.09,-261.39 1237.09,-225.39 1398.91,-225.39 1398.91,-261.39"/>
<text text-anchor="middle" x="1318" y="-239.19" font-family="Times,serif" font-size="14.00">SafeQueryBuilderModule</text>
</g>
<!-- DateFilterEditorComponent&#45;&gt;SafeQueryBuilderModule -->
<g id="edge1" class="edge">
<title>DateFilterEditorComponent&#45;&gt;SafeQueryBuilderModule</title>
<path fill="none" stroke="black" d="M2628,-196.52C2628,-216.96 2628,-247.39 2628,-247.39 2628,-247.39 1408.96,-247.39 1408.96,-247.39"/>
<polygon fill="black" stroke="black" points="1408.96,-243.89 1398.96,-247.39 1408.96,-250.89 1408.96,-243.89"/>
</g>
<!-- SafeQueryBuilderComponent -->
<g id="node2" class="node">
<title>SafeQueryBuilderComponent</title>
<polygon fill="#ffffb3" stroke="black" points="3095.69,-196.39 2912.31,-196.39 2912.31,-160.39 3095.69,-160.39 3095.69,-196.39"/>
<text text-anchor="middle" x="3004" y="-174.19" font-family="Times,serif" font-size="14.00">SafeQueryBuilderComponent</text>
</g>
<!-- SafeQueryBuilderComponent&#45;&gt;SafeQueryBuilderModule -->
<g id="edge2" class="edge">
<title>SafeQueryBuilderComponent&#45;&gt;SafeQueryBuilderModule</title>
<path fill="none" stroke="black" d="M3004,-196.44C3004,-218.05 3004,-251.39 3004,-251.39 3004,-251.39 1408.75,-251.39 1408.75,-251.39"/>
<polygon fill="black" stroke="black" points="1408.75,-247.89 1398.75,-251.39 1408.75,-254.89 1408.75,-247.89"/>
</g>
<!-- SafeQueryStyleComponent -->
<g id="node3" class="node">
<title>SafeQueryStyleComponent</title>
<polygon fill="#ffffb3" stroke="black" points="2522.97,-196.39 2353.03,-196.39 2353.03,-160.39 2522.97,-160.39 2522.97,-196.39"/>
<text text-anchor="middle" x="2438" y="-174.19" font-family="Times,serif" font-size="14.00">SafeQueryStyleComponent</text>
</g>
<!-- SafeQueryStyleComponent&#45;&gt;SafeQueryBuilderModule -->
<g id="edge4" class="edge">
<title>SafeQueryStyleComponent&#45;&gt;SafeQueryBuilderModule</title>
<path fill="none" stroke="black" d="M2438,-196.5C2438,-215.73 2438,-243.39 2438,-243.39 2438,-243.39 1409,-243.39 1409,-243.39"/>
<polygon fill="black" stroke="black" points="1409,-239.89 1399,-243.39 1409,-246.89 1409,-239.89"/>
</g>
<!-- SafeQueryStyleListComponent -->
<g id="node4" class="node">
<title>SafeQueryStyleListComponent</title>
<polygon fill="#ffffb3" stroke="black" points="2334.75,-196.39 2143.25,-196.39 2143.25,-160.39 2334.75,-160.39 2334.75,-196.39"/>
<text text-anchor="middle" x="2239" y="-174.19" font-family="Times,serif" font-size="14.00">SafeQueryStyleListComponent</text>
</g>
<!-- SafeQueryStyleListComponent&#45;&gt;SafeQueryBuilderModule -->
<g id="edge5" class="edge">
<title>SafeQueryStyleListComponent&#45;&gt;SafeQueryBuilderModule</title>
<path fill="none" stroke="black" d="M2239,-196.66C2239,-214.95 2239,-240.39 2239,-240.39 2239,-240.39 1408.93,-240.39 1408.93,-240.39"/>
<polygon fill="black" stroke="black" points="1408.93,-236.89 1398.93,-240.39 1408.93,-243.89 1408.93,-236.89"/>
</g>
<!-- SafeQueryStylePreviewComponent -->
<g id="node5" class="node">
<title>SafeQueryStylePreviewComponent</title>
<polygon fill="#ffffb3" stroke="black" points="2124.85,-196.39 1909.15,-196.39 1909.15,-160.39 2124.85,-160.39 2124.85,-196.39"/>
<text text-anchor="middle" x="2017" y="-174.19" font-family="Times,serif" font-size="14.00">SafeQueryStylePreviewComponent</text>
</g>
<!-- SafeQueryStylePreviewComponent&#45;&gt;SafeQueryBuilderModule -->
<g id="edge6" class="edge">
<title>SafeQueryStylePreviewComponent&#45;&gt;SafeQueryBuilderModule</title>
<path fill="none" stroke="black" d="M2017,-196.42C2017,-213.45 2017,-236.39 2017,-236.39 2017,-236.39 1408.87,-236.39 1408.87,-236.39"/>
<polygon fill="black" stroke="black" points="1408.87,-232.89 1398.87,-236.39 1408.87,-239.89 1408.87,-232.89"/>
</g>
<!-- SafeTabFieldsComponent -->
<g id="node6" class="node">
<title>SafeTabFieldsComponent</title>
<polygon fill="#ffffb3" stroke="black" points="1891.2,-196.39 1728.8,-196.39 1728.8,-160.39 1891.2,-160.39 1891.2,-196.39"/>
<text text-anchor="middle" x="1810" y="-174.19" font-family="Times,serif" font-size="14.00">SafeTabFieldsComponent</text>
</g>
<!-- SafeTabFieldsComponent&#45;&gt;SafeQueryBuilderModule -->
<g id="edge7" class="edge">
<title>SafeTabFieldsComponent&#45;&gt;SafeQueryBuilderModule</title>
<path fill="none" stroke="black" d="M1758.12,-196.4C1758.12,-212.44 1758.12,-233.39 1758.12,-233.39 1758.12,-233.39 1408.73,-233.39 1408.73,-233.39"/>
<polygon fill="black" stroke="black" points="1408.73,-229.89 1398.73,-233.39 1408.73,-236.89 1408.73,-229.89"/>
</g>
<!-- SafeTabFilterComponent -->
<g id="node7" class="node">
<title>SafeTabFilterComponent</title>
<polygon fill="#ffffb3" stroke="black" points="1711.3,-196.39 1552.7,-196.39 1552.7,-160.39 1711.3,-160.39 1711.3,-196.39"/>
<text text-anchor="middle" x="1632" y="-174.19" font-family="Times,serif" font-size="14.00">SafeTabFilterComponent</text>
</g>
<!-- SafeTabFilterComponent&#45;&gt;SafeQueryBuilderModule -->
<g id="edge8" class="edge">
<title>SafeTabFilterComponent&#45;&gt;SafeQueryBuilderModule</title>
<path fill="none" stroke="black" d="M1567.85,-196.51C1567.85,-211.17 1567.85,-229.39 1567.85,-229.39 1567.85,-229.39 1408.77,-229.39 1408.77,-229.39"/>
<polygon fill="black" stroke="black" points="1408.77,-225.89 1398.77,-229.39 1408.77,-232.89 1408.77,-225.89"/>
</g>
<!-- SafeTabLayoutPreviewComponent -->
<g id="node8" class="node">
<title>SafeTabLayoutPreviewComponent</title>
<polygon fill="#ffffb3" stroke="black" points="1534.5,-196.39 1321.5,-196.39 1321.5,-160.39 1534.5,-160.39 1534.5,-196.39"/>
<text text-anchor="middle" x="1428" y="-174.19" font-family="Times,serif" font-size="14.00">SafeTabLayoutPreviewComponent</text>
</g>
<!-- SafeTabLayoutPreviewComponent&#45;&gt;SafeQueryBuilderModule -->
<g id="edge9" class="edge">
<title>SafeTabLayoutPreviewComponent&#45;&gt;SafeQueryBuilderModule</title>
<path fill="none" stroke="black" d="M1359.98,-196.5C1359.98,-196.5 1359.98,-215.38 1359.98,-215.38"/>
<polygon fill="black" stroke="black" points="1356.48,-215.38 1359.98,-225.38 1363.48,-215.38 1356.48,-215.38"/>
</g>
<!-- SafeTabPaginationComponent -->
<g id="node9" class="node">
<title>SafeTabPaginationComponent</title>
<polygon fill="#ffffb3" stroke="black" points="1302.86,-196.39 1115.14,-196.39 1115.14,-160.39 1302.86,-160.39 1302.86,-196.39"/>
<text text-anchor="middle" x="1209" y="-174.19" font-family="Times,serif" font-size="14.00">SafeTabPaginationComponent</text>
</g>
<!-- SafeTabPaginationComponent&#45;&gt;SafeQueryBuilderModule -->
<g id="edge10" class="edge">
<title>SafeTabPaginationComponent&#45;&gt;SafeQueryBuilderModule</title>
<path fill="none" stroke="black" d="M1270.11,-196.5C1270.11,-196.5 1270.11,-215.38 1270.11,-215.38"/>
<polygon fill="black" stroke="black" points="1266.61,-215.38 1270.11,-225.38 1273.61,-215.38 1266.61,-215.38"/>
</g>
<!-- SafeTabSortComponent -->
<g id="node10" class="node">
<title>SafeTabSortComponent</title>
<polygon fill="#ffffb3" stroke="black" points="1096.81,-196.39 945.19,-196.39 945.19,-160.39 1096.81,-160.39 1096.81,-196.39"/>
<text text-anchor="middle" x="1021" y="-174.19" font-family="Times,serif" font-size="14.00">SafeTabSortComponent</text>
</g>
<!-- SafeTabSortComponent&#45;&gt;SafeQueryBuilderModule -->
<g id="edge11" class="edge">
<title>SafeTabSortComponent&#45;&gt;SafeQueryBuilderModule</title>
<path fill="none" stroke="black" d="M1061.99,-196.51C1061.99,-211.17 1061.99,-229.39 1061.99,-229.39 1061.99,-229.39 1227,-229.39 1227,-229.39"/>
<polygon fill="black" stroke="black" points="1227,-232.89 1237,-229.39 1227,-225.89 1227,-232.89"/>
</g>
<!-- SafeTabStyleComponent -->
<g id="node11" class="node">
<title>SafeTabStyleComponent</title>
<polygon fill="#ffffb3" stroke="black" points="927.25,-196.39 770.75,-196.39 770.75,-160.39 927.25,-160.39 927.25,-196.39"/>
<text text-anchor="middle" x="849" y="-174.19" font-family="Times,serif" font-size="14.00">SafeTabStyleComponent</text>
</g>
<!-- SafeTabStyleComponent&#45;&gt;SafeQueryBuilderModule -->
<g id="edge12" class="edge">
<title>SafeTabStyleComponent&#45;&gt;SafeQueryBuilderModule</title>
<path fill="none" stroke="black" d="M890.99,-196.4C890.99,-212.44 890.99,-233.39 890.99,-233.39 890.99,-233.39 1227.18,-233.39 1227.18,-233.39"/>
<polygon fill="black" stroke="black" points="1227.18,-236.89 1237.18,-233.39 1227.18,-229.89 1227.18,-236.89"/>
</g>
<!-- SafeQueryBuilderComponent  -->
<g id="node19" class="node">
<title>SafeQueryBuilderComponent </title>
<polygon fill="#fb8072" stroke="black" points="1787.19,-326.39 1600.81,-326.39 1600.81,-290.39 1787.19,-290.39 1787.19,-326.39"/>
<text text-anchor="middle" x="1694" y="-304.19" font-family="Times,serif" font-size="14.00">SafeQueryBuilderComponent </text>
</g>
<!-- SafeQueryBuilderModule&#45;&gt;SafeQueryBuilderComponent  -->
<g id="edge18" class="edge">
<title>SafeQueryBuilderModule&#45;&gt;SafeQueryBuilderComponent </title>
<path fill="none" stroke="black" stroke-dasharray="5,2" d="M1398.94,-254.39C1498.9,-254.39 1655.9,-254.39 1655.9,-254.39 1655.9,-254.39 1655.9,-280.11 1655.9,-280.11"/>
<polygon fill="black" stroke="black" points="1652.4,-280.11 1655.9,-290.11 1659.4,-280.11 1652.4,-280.11"/>
</g>
<!-- SafeTabFieldsComponent  -->
<g id="node20" class="node">
<title>SafeTabFieldsComponent </title>
<polygon fill="#fb8072" stroke="black" points="1582.7,-326.39 1417.3,-326.39 1417.3,-290.39 1582.7,-290.39 1582.7,-326.39"/>
<text text-anchor="middle" x="1500" y="-304.19" font-family="Times,serif" font-size="14.00">SafeTabFieldsComponent </text>
</g>
<!-- SafeQueryBuilderModule&#45;&gt;SafeTabFieldsComponent  -->
<g id="edge19" class="edge">
<title>SafeQueryBuilderModule&#45;&gt;SafeTabFieldsComponent </title>
<path fill="none" stroke="black" stroke-dasharray="5,2" d="M1398.83,-258.39C1437.69,-258.39 1475.95,-258.39 1475.95,-258.39 1475.95,-258.39 1475.95,-280.34 1475.95,-280.34"/>
<polygon fill="black" stroke="black" points="1472.45,-280.34 1475.95,-290.34 1479.45,-280.34 1472.45,-280.34"/>
</g>
<!-- SafeTabFilterComponent  -->
<g id="node21" class="node">
<title>SafeTabFilterComponent </title>
<polygon fill="#fb8072" stroke="black" points="1398.8,-326.39 1237.2,-326.39 1237.2,-290.39 1398.8,-290.39 1398.8,-326.39"/>
<text text-anchor="middle" x="1318" y="-304.19" font-family="Times,serif" font-size="14.00">SafeTabFilterComponent </text>
</g>
<!-- SafeQueryBuilderModule&#45;&gt;SafeTabFilterComponent  -->
<g id="edge20" class="edge">
<title>SafeQueryBuilderModule&#45;&gt;SafeTabFilterComponent </title>
<path fill="none" stroke="black" stroke-dasharray="5,2" d="M1318,-261.5C1318,-261.5 1318,-280.38 1318,-280.38"/>
<polygon fill="black" stroke="black" points="1314.5,-280.38 1318,-290.38 1321.5,-280.38 1314.5,-280.38"/>
</g>
<!-- SafeTabPaginationComponent  -->
<g id="node22" class="node">
<title>SafeTabPaginationComponent </title>
<polygon fill="#fb8072" stroke="black" points="1218.86,-326.39 1027.14,-326.39 1027.14,-290.39 1218.86,-290.39 1218.86,-326.39"/>
<text text-anchor="middle" x="1123" y="-304.19" font-family="Times,serif" font-size="14.00">SafeTabPaginationComponent </text>
</g>
<!-- SafeQueryBuilderModule&#45;&gt;SafeTabPaginationComponent  -->
<g id="edge21" class="edge">
<title>SafeQueryBuilderModule&#45;&gt;SafeTabPaginationComponent </title>
<path fill="none" stroke="black" stroke-dasharray="5,2" d="M1237.13,-258.39C1201.2,-258.39 1166.88,-258.39 1166.88,-258.39 1166.88,-258.39 1166.88,-280.34 1166.88,-280.34"/>
<polygon fill="black" stroke="black" points="1163.38,-280.34 1166.88,-290.34 1170.38,-280.34 1163.38,-280.34"/>
</g>
<!-- SafeTabSortComponent  -->
<g id="node23" class="node">
<title>SafeTabSortComponent </title>
<polygon fill="#fb8072" stroke="black" points="1009.31,-326.39 854.69,-326.39 854.69,-290.39 1009.31,-290.39 1009.31,-326.39"/>
<text text-anchor="middle" x="932" y="-304.19" font-family="Times,serif" font-size="14.00">SafeTabSortComponent </text>
</g>
<!-- SafeQueryBuilderModule&#45;&gt;SafeTabSortComponent  -->
<g id="edge22" class="edge">
<title>SafeQueryBuilderModule&#45;&gt;SafeTabSortComponent </title>
<path fill="none" stroke="black" stroke-dasharray="5,2" d="M1237.28,-254.39C1136.55,-254.39 977.38,-254.39 977.38,-254.39 977.38,-254.39 977.38,-280.11 977.38,-280.11"/>
<polygon fill="black" stroke="black" points="973.88,-280.11 977.38,-290.11 980.88,-280.11 973.88,-280.11"/>
</g>
<!-- {
 &#160;&#160;&#160;provide: MAT_AUTOCOMPLETE_SCROLL_STRATEGY, useFactory: scrollFactory, deps: [Overlay],
} -->
<g id="node13" class="node">
<title>{
 &#160;&#160;&#160;provide: MAT_AUTOCOMPLETE_SCROLL_STRATEGY, useFactory: scrollFactory, deps: [Overlay],
}</title>
<ellipse fill="#fdb462" stroke="black" cx="3177" cy="-90.1" rx="438.07" ry="41.09"/>
<text text-anchor="middle" x="3177" y="-102.7" font-family="Times,serif" font-size="14.00">{</text>
<text text-anchor="middle" x="3177" y="-85.9" font-family="Times,serif" font-size="14.00"> &#160;&#160;&#160;provide: MAT_AUTOCOMPLETE_SCROLL_STRATEGY, useFactory: scrollFactory, deps: [Overlay],</text>
<text text-anchor="middle" x="3177" y="-69.1" font-family="Times,serif" font-size="14.00">}</text>
</g>
<!-- {
 &#160;&#160;&#160;provide: MAT_AUTOCOMPLETE_SCROLL_STRATEGY, useFactory: scrollFactory, deps: [Overlay],
}&#45;&gt;SafeQueryBuilderComponent -->
<g id="edge3" class="edge">
<title>{
 &#160;&#160;&#160;provide: MAT_AUTOCOMPLETE_SCROLL_STRATEGY, useFactory: scrollFactory, deps: [Overlay],
}&#45;&gt;SafeQueryBuilderComponent</title>
<path fill="none" stroke="black" d="M3004,-128.05C3004,-128.05 3004,-150.36 3004,-150.36"/>
<polygon fill="black" stroke="black" points="3000.5,-150.36 3004,-160.36 3007.5,-150.36 3000.5,-150.36"/>
</g>
<!-- SafeButtonModule -->
<g id="node14" class="node">
<title>SafeButtonModule</title>
<polygon fill="#8dd3c7" stroke="black" points="747.05,-196.39 744.05,-200.39 723.05,-200.39 720.05,-196.39 624.95,-196.39 624.95,-160.39 747.05,-160.39 747.05,-196.39"/>
<text text-anchor="middle" x="686" y="-174.19" font-family="Times,serif" font-size="14.00">SafeButtonModule</text>
</g>
<!-- SafeButtonModule&#45;&gt;SafeQueryBuilderModule -->
<g id="edge13" class="edge">
<title>SafeButtonModule&#45;&gt;SafeQueryBuilderModule</title>
<path fill="none" stroke="black" d="M686,-196.42C686,-213.45 686,-236.39 686,-236.39 686,-236.39 1226.99,-236.39 1226.99,-236.39"/>
<polygon fill="black" stroke="black" points="1226.99,-239.89 1236.99,-236.39 1226.99,-232.89 1226.99,-239.89"/>
</g>
<!-- SafeCheckboxTreeModule -->
<g id="node15" class="node">
<title>SafeCheckboxTreeModule</title>
<polygon fill="#8dd3c7" stroke="black" points="606.34,-196.39 603.34,-200.39 582.34,-200.39 579.34,-196.39 439.66,-196.39 439.66,-160.39 606.34,-160.39 606.34,-196.39"/>
<text text-anchor="middle" x="523" y="-174.19" font-family="Times,serif" font-size="14.00">SafeCheckboxTreeModule</text>
</g>
<!-- SafeCheckboxTreeModule&#45;&gt;SafeQueryBuilderModule -->
<g id="edge14" class="edge">
<title>SafeCheckboxTreeModule&#45;&gt;SafeQueryBuilderModule</title>
<path fill="none" stroke="black" d="M523,-196.66C523,-214.95 523,-240.39 523,-240.39 523,-240.39 1227.03,-240.39 1227.03,-240.39"/>
<polygon fill="black" stroke="black" points="1227.03,-243.89 1237.03,-240.39 1227.03,-236.89 1227.03,-243.89"/>
</g>
<!-- SafeCoreGridModule -->
<g id="node16" class="node">
<title>SafeCoreGridModule</title>
<polygon fill="#8dd3c7" stroke="black" points="421.8,-196.39 418.8,-200.39 397.8,-200.39 394.8,-196.39 284.2,-196.39 284.2,-160.39 421.8,-160.39 421.8,-196.39"/>
<text text-anchor="middle" x="353" y="-174.19" font-family="Times,serif" font-size="14.00">SafeCoreGridModule</text>
</g>
<!-- SafeCoreGridModule&#45;&gt;SafeQueryBuilderModule -->
<g id="edge15" class="edge">
<title>SafeCoreGridModule&#45;&gt;SafeQueryBuilderModule</title>
<path fill="none" stroke="black" d="M353,-196.5C353,-215.73 353,-243.39 353,-243.39 353,-243.39 1226.97,-243.39 1226.97,-243.39"/>
<polygon fill="black" stroke="black" points="1226.97,-246.89 1236.97,-243.39 1226.97,-239.89 1226.97,-246.89"/>
</g>
<!-- SafeFilterModule -->
<g id="node17" class="node">
<title>SafeFilterModule</title>
<polygon fill="#8dd3c7" stroke="black" points="266.26,-196.39 263.26,-200.39 242.26,-200.39 239.26,-196.39 151.74,-196.39 151.74,-160.39 266.26,-160.39 266.26,-196.39"/>
<text text-anchor="middle" x="209" y="-174.19" font-family="Times,serif" font-size="14.00">SafeFilterModule</text>
</g>
<!-- SafeFilterModule&#45;&gt;SafeQueryBuilderModule -->
<g id="edge16" class="edge">
<title>SafeFilterModule&#45;&gt;SafeQueryBuilderModule</title>
<path fill="none" stroke="black" d="M209,-196.52C209,-216.96 209,-247.39 209,-247.39 209,-247.39 1226.9,-247.39 1226.9,-247.39"/>
<polygon fill="black" stroke="black" points="1226.9,-250.89 1236.9,-247.39 1226.9,-243.89 1226.9,-250.89"/>
</g>
<!-- SafeIconModule -->
<g id="node18" class="node">
<title>SafeIconModule</title>
<polygon fill="#8dd3c7" stroke="black" points="133.8,-196.39 130.8,-200.39 109.8,-200.39 106.8,-196.39 24.2,-196.39 24.2,-160.39 133.8,-160.39 133.8,-196.39"/>
<text text-anchor="middle" x="79" y="-174.19" font-family="Times,serif" font-size="14.00">SafeIconModule</text>
</g>
<!-- SafeIconModule&#45;&gt;SafeQueryBuilderModule -->
<g id="edge17" class="edge">
<title>SafeIconModule&#45;&gt;SafeQueryBuilderModule</title>
<path fill="none" stroke="black" d="M79,-196.44C79,-218.05 79,-251.39 79,-251.39 79,-251.39 1227.18,-251.39 1227.18,-251.39"/>
<polygon fill="black" stroke="black" points="1227.18,-254.89 1237.18,-251.39 1227.18,-247.89 1227.18,-254.89"/>
</g>
</g>
</svg>
