<?xml version="1.0" encoding="UTF-8" standalone="no"?>
<!DOCTYPE svg PUBLIC "-//W3C//DTD SVG 1.1//EN"
 "http://www.w3.org/Graphics/SVG/1.1/DTD/svg11.dtd">
<!-- Generated by graphviz version 3.0.0 (20220226.1711)
 -->
<!-- Title: dependencies Pages: 1 -->
<svg width="426pt" height="247pt"
 viewBox="0.00 0.00 426.00 246.80" xmlns="http://www.w3.org/2000/svg" xmlns:xlink="http://www.w3.org/1999/xlink">
<g id="graph0" class="graph" transform="scale(1 1) rotate(0) translate(4 242.8)">
<title>dependencies</title>
<polygon fill="white" stroke="transparent" points="-4,4 -4,-242.8 422,-242.8 422,4 -4,4"/>
<text text-anchor="middle" x="209" y="-8.2" font-family="sans-serif" font-size="14.00">dependencies</text>
<g id="clust1" class="cluster">
<title>cluster_SafeValueSelectorTabModule</title>
<polygon fill="none" stroke="black" stroke-dasharray="1,5" points="8,-32.8 8,-230.8 410,-230.8 410,-32.8 8,-32.8"/>
</g>
<g id="clust2" class="cluster">
<title>cluster_SafeValueSelectorTabModule_declarations</title>
<polygon fill="none" stroke="black" points="178,-40.8 178,-92.8 402,-92.8 402,-40.8 178,-40.8"/>
</g>
<g id="clust4" class="cluster">
<title>cluster_SafeValueSelectorTabModule_imports</title>
<polygon fill="none" stroke="black" points="16,-40.8 16,-92.8 170,-92.8 170,-40.8 16,-40.8"/>
</g>
<g id="clust5" class="cluster">
<title>cluster_SafeValueSelectorTabModule_exports</title>
<polygon fill="none" stroke="black" points="96,-170.8 96,-222.8 322,-222.8 322,-170.8 96,-170.8"/>
</g>
<!-- SafeValueSelectorTabComponent -->
<g id="node1" class="node">
<title>SafeValueSelectorTabComponent</title>
<polygon fill="#ffffb3" stroke="black" points="393.77,-84.8 186.23,-84.8 186.23,-48.8 393.77,-48.8 393.77,-84.8"/>
<text text-anchor="middle" x="290" y="-62.6" font-family="Times,serif" font-size="14.00">SafeValueSelectorTabComponent</text>
</g>
<!-- SafeValueSelectorTabModule -->
<g id="node2" class="node">
<title>SafeValueSelectorTabModule</title>
<polygon fill="#8dd3c7" stroke="black" points="301.99,-149.8 298.99,-153.8 277.99,-153.8 274.99,-149.8 116.01,-149.8 116.01,-113.8 301.99,-113.8 301.99,-149.8"/>
<text text-anchor="middle" x="209" y="-127.6" font-family="Times,serif" font-size="14.00">SafeValueSelectorTabModule</text>
</g>
<!-- SafeValueSelectorTabComponent&#45;&gt;SafeValueSelectorTabModule -->
<g id="edge1" class="edge">
<title>SafeValueSelectorTabComponent&#45;&gt;SafeValueSelectorTabModule</title>
<path fill="none" stroke="black" d="M244.06,-84.91C244.06,-84.91 244.06,-103.79 244.06,-103.79"/>
<polygon fill="black" stroke="black" points="240.56,-103.79 244.06,-113.79 247.56,-103.79 240.56,-103.79"/>
</g>
<!-- SafeValueSelectorTabComponent  -->
<g id="node4" class="node">
<title>SafeValueSelectorTabComponent </title>
<polygon fill="#fb8072" stroke="black" points="314.27,-214.8 103.73,-214.8 103.73,-178.8 314.27,-178.8 314.27,-214.8"/>
<text text-anchor="middle" x="209" y="-192.6" font-family="Times,serif" font-size="14.00">SafeValueSelectorTabComponent </text>
</g>
<!-- SafeValueSelectorTabModule&#45;&gt;SafeValueSelectorTabComponent  -->
<g id="edge3" class="edge">
<title>SafeValueSelectorTabModule&#45;&gt;SafeValueSelectorTabComponent </title>
<path fill="none" stroke="black" stroke-dasharray="5,2" d="M209,-149.91C209,-149.91 209,-168.79 209,-168.79"/>
<polygon fill="black" stroke="black" points="205.5,-168.79 209,-178.79 212.5,-168.79 205.5,-168.79"/>
</g>
<!-- SafeCoreGridModule -->
<g id="node3" class="node">
<title>SafeCoreGridModule</title>
<polygon fill="#8dd3c7" stroke="black" points="161.8,-84.8 158.8,-88.8 137.8,-88.8 134.8,-84.8 24.2,-84.8 24.2,-48.8 161.8,-48.8 161.8,-84.8"/>
<text text-anchor="middle" x="93" y="-62.6" font-family="Times,serif" font-size="14.00">SafeCoreGridModule</text>
</g>
<!-- SafeCoreGridModule&#45;&gt;SafeValueSelectorTabModule -->
<g id="edge2" class="edge">
<title>SafeCoreGridModule&#45;&gt;SafeValueSelectorTabModule</title>
<path fill="none" stroke="black" d="M138.95,-84.91C138.95,-84.91 138.95,-103.79 138.95,-103.79"/>
<polygon fill="black" stroke="black" points="135.45,-103.79 138.95,-113.79 142.45,-103.79 135.45,-103.79"/>
</g>
</g>
</svg>
