<?xml version="1.0" encoding="UTF-8" standalone="no"?>
<!DOCTYPE svg PUBLIC "-//W3C//DTD SVG 1.1//EN"
 "http://www.w3.org/Graphics/SVG/1.1/DTD/svg11.dtd">
<!-- Generated by graphviz version 3.0.0 (20220226.1711)
 -->
<!-- Title: dependencies Pages: 1 -->
<svg width="1119pt" height="247pt"
 viewBox="0.00 0.00 1119.00 246.80" xmlns="http://www.w3.org/2000/svg" xmlns:xlink="http://www.w3.org/1999/xlink">
<g id="graph0" class="graph" transform="scale(1 1) rotate(0) translate(4 242.8)">
<title>dependencies</title>
<polygon fill="white" stroke="transparent" points="-4,4 -4,-242.8 1115,-242.8 1115,4 -4,4"/>
<text text-anchor="middle" x="555.5" y="-8.2" font-family="sans-serif" font-size="14.00">dependencies</text>
<g id="clust1" class="cluster">
<title>cluster_SafeAddCardModule</title>
<polygon fill="none" stroke="black" stroke-dasharray="1,5" points="8,-32.8 8,-230.8 1103,-230.8 1103,-32.8 8,-32.8"/>
</g>
<g id="clust5" class="cluster">
<title>cluster_SafeAddCardModule_imports</title>
<polygon fill="none" stroke="black" points="402,-40.8 402,-92.8 1095,-92.8 1095,-40.8 402,-40.8"/>
</g>
<g id="clust6" class="cluster">
<title>cluster_SafeAddCardModule_exports</title>
<polygon fill="none" stroke="black" points="424,-170.8 424,-222.8 809,-222.8 809,-170.8 424,-170.8"/>
</g>
<g id="clust2" class="cluster">
<title>cluster_SafeAddCardModule_declarations</title>
<polygon fill="none" stroke="black" points="16,-40.8 16,-92.8 394,-92.8 394,-40.8 16,-40.8"/>
</g>
<!-- SafeAddCardComponent -->
<g id="node1" class="node">
<title>SafeAddCardComponent</title>
<polygon fill="#ffffb3" stroke="black" points="385.53,-84.8 228.47,-84.8 228.47,-48.8 385.53,-48.8 385.53,-84.8"/>
<text text-anchor="middle" x="307" y="-62.6" font-family="Times,serif" font-size="14.00">SafeAddCardComponent</text>
</g>
<!-- SafeAddCardModule -->
<g id="node3" class="node">
<title>SafeAddCardModule</title>
<polygon fill="#8dd3c7" stroke="black" points="690.75,-149.8 687.75,-153.8 666.75,-153.8 663.75,-149.8 555.25,-149.8 555.25,-113.8 690.75,-113.8 690.75,-149.8"/>
<text text-anchor="middle" x="623" y="-127.6" font-family="Times,serif" font-size="14.00">SafeAddCardModule</text>
</g>
<!-- SafeAddCardComponent&#45;&gt;SafeAddCardModule -->
<g id="edge1" class="edge">
<title>SafeAddCardComponent&#45;&gt;SafeAddCardModule</title>
<path fill="none" stroke="black" d="M307,-84.91C307,-104.14 307,-131.8 307,-131.8 307,-131.8 545.21,-131.8 545.21,-131.8"/>
<polygon fill="black" stroke="black" points="545.21,-135.3 555.21,-131.8 545.21,-128.3 545.21,-135.3"/>
</g>
<!-- SafeCardTemplateComponent -->
<g id="node2" class="node">
<title>SafeCardTemplateComponent</title>
<polygon fill="#ffffb3" stroke="black" points="210.28,-84.8 23.72,-84.8 23.72,-48.8 210.28,-48.8 210.28,-84.8"/>
<text text-anchor="middle" x="117" y="-62.6" font-family="Times,serif" font-size="14.00">SafeCardTemplateComponent</text>
</g>
<!-- SafeCardTemplateComponent&#45;&gt;SafeAddCardModule -->
<g id="edge2" class="edge">
<title>SafeCardTemplateComponent&#45;&gt;SafeAddCardModule</title>
<path fill="none" stroke="black" d="M117,-85.09C117,-107.01 117,-140.8 117,-140.8 117,-140.8 545.02,-140.8 545.02,-140.8"/>
<polygon fill="black" stroke="black" points="545.02,-144.3 555.02,-140.8 545.02,-137.3 545.02,-144.3"/>
</g>
<!-- SafeAddCardComponent  -->
<g id="node9" class="node">
<title>SafeAddCardComponent </title>
<polygon fill="#fb8072" stroke="black" points="800.53,-214.8 639.47,-214.8 639.47,-178.8 800.53,-178.8 800.53,-214.8"/>
<text text-anchor="middle" x="720" y="-192.6" font-family="Times,serif" font-size="14.00">SafeAddCardComponent </text>
</g>
<!-- SafeAddCardModule&#45;&gt;SafeAddCardComponent  -->
<g id="edge8" class="edge">
<title>SafeAddCardModule&#45;&gt;SafeAddCardComponent </title>
<path fill="none" stroke="black" stroke-dasharray="5,2" d="M665.18,-149.91C665.18,-149.91 665.18,-168.79 665.18,-168.79"/>
<polygon fill="black" stroke="black" points="661.68,-168.79 665.18,-178.79 668.68,-168.79 661.68,-168.79"/>
</g>
<!-- SafeCardTemplateComponent  -->
<g id="node10" class="node">
<title>SafeCardTemplateComponent </title>
<polygon fill="#fb8072" stroke="black" points="621.78,-214.8 432.22,-214.8 432.22,-178.8 621.78,-178.8 621.78,-214.8"/>
<text text-anchor="middle" x="527" y="-192.6" font-family="Times,serif" font-size="14.00">SafeCardTemplateComponent </text>
</g>
<!-- SafeAddCardModule&#45;&gt;SafeCardTemplateComponent  -->
<g id="edge9" class="edge">
<title>SafeAddCardModule&#45;&gt;SafeCardTemplateComponent </title>
<path fill="none" stroke="black" stroke-dasharray="5,2" d="M588.51,-149.91C588.51,-149.91 588.51,-168.79 588.51,-168.79"/>
<polygon fill="black" stroke="black" points="585.01,-168.79 588.51,-178.79 592.01,-168.79 585.01,-168.79"/>
</g>
<!-- SafeAlertModule -->
<g id="node4" class="node">
<title>SafeAlertModule</title>
<polygon fill="#8dd3c7" stroke="black" points="1086.69,-84.8 1083.69,-88.8 1062.69,-88.8 1059.69,-84.8 973.31,-84.8 973.31,-48.8 1086.69,-48.8 1086.69,-84.8"/>
<text text-anchor="middle" x="1030" y="-62.6" font-family="Times,serif" font-size="14.00">SafeAlertModule</text>
</g>
<!-- SafeAlertModule&#45;&gt;SafeAddCardModule -->
<g id="edge3" class="edge">
<title>SafeAlertModule&#45;&gt;SafeAddCardModule</title>
<path fill="none" stroke="black" d="M1030,-85.09C1030,-107.01 1030,-140.8 1030,-140.8 1030,-140.8 701.12,-140.8 701.12,-140.8"/>
<polygon fill="black" stroke="black" points="701.12,-137.3 691.12,-140.8 701.12,-144.3 701.12,-137.3"/>
</g>
<!-- SafeIconModule -->
<g id="node5" class="node">
<title>SafeIconModule</title>
<polygon fill="#8dd3c7" stroke="black" points="955.8,-84.8 952.8,-88.8 931.8,-88.8 928.8,-84.8 846.2,-84.8 846.2,-48.8 955.8,-48.8 955.8,-84.8"/>
<text text-anchor="middle" x="901" y="-62.6" font-family="Times,serif" font-size="14.00">SafeIconModule</text>
</g>
<!-- SafeIconModule&#45;&gt;SafeAddCardModule -->
<g id="edge4" class="edge">
<title>SafeIconModule&#45;&gt;SafeAddCardModule</title>
<path fill="none" stroke="black" d="M901,-84.91C901,-104.14 901,-131.8 901,-131.8 901,-131.8 701.01,-131.8 701.01,-131.8"/>
<polygon fill="black" stroke="black" points="701.01,-128.3 691.01,-131.8 701.01,-135.3 701.01,-128.3"/>
</g>
<!-- SafeModalModule -->
<g id="node6" class="node">
<title>SafeModalModule</title>
<polygon fill="#8dd3c7" stroke="black" points="828.48,-84.8 825.48,-88.8 804.48,-88.8 801.48,-84.8 707.52,-84.8 707.52,-48.8 828.48,-48.8 828.48,-84.8"/>
<text text-anchor="middle" x="768" y="-62.6" font-family="Times,serif" font-size="14.00">SafeModalModule</text>
</g>
<!-- SafeModalModule&#45;&gt;SafeAddCardModule -->
<g id="edge5" class="edge">
<title>SafeModalModule&#45;&gt;SafeAddCardModule</title>
<path fill="none" stroke="black" d="M754.01,-84.83C754.01,-101.2 754.01,-122.8 754.01,-122.8 754.01,-122.8 700.81,-122.8 700.81,-122.8"/>
<polygon fill="black" stroke="black" points="700.81,-119.3 690.81,-122.8 700.81,-126.3 700.81,-119.3"/>
</g>
<!-- SafeSkeletonModule -->
<g id="node7" class="node">
<title>SafeSkeletonModule</title>
<polygon fill="#8dd3c7" stroke="black" points="689.92,-84.8 686.92,-88.8 665.92,-88.8 662.92,-84.8 556.08,-84.8 556.08,-48.8 689.92,-48.8 689.92,-84.8"/>
<text text-anchor="middle" x="623" y="-62.6" font-family="Times,serif" font-size="14.00">SafeSkeletonModule</text>
</g>
<!-- SafeSkeletonModule&#45;&gt;SafeAddCardModule -->
<g id="edge6" class="edge">
<title>SafeSkeletonModule&#45;&gt;SafeAddCardModule</title>
<path fill="none" stroke="black" d="M623,-84.91C623,-84.91 623,-103.79 623,-103.79"/>
<polygon fill="black" stroke="black" points="619.5,-103.79 623,-113.79 626.5,-103.79 619.5,-103.79"/>
</g>
<!-- SafeSpinnerModule -->
<g id="node8" class="node">
<title>SafeSpinnerModule</title>
<polygon fill="#8dd3c7" stroke="black" points="537.98,-84.8 534.98,-88.8 513.98,-88.8 510.98,-84.8 410.02,-84.8 410.02,-48.8 537.98,-48.8 537.98,-84.8"/>
<text text-anchor="middle" x="474" y="-62.6" font-family="Times,serif" font-size="14.00">SafeSpinnerModule</text>
</g>
<!-- SafeSpinnerModule&#45;&gt;SafeAddCardModule -->
<g id="edge7" class="edge">
<title>SafeSpinnerModule&#45;&gt;SafeAddCardModule</title>
<path fill="none" stroke="black" d="M485.05,-84.83C485.05,-101.2 485.05,-122.8 485.05,-122.8 485.05,-122.8 545.24,-122.8 545.24,-122.8"/>
<polygon fill="black" stroke="black" points="545.24,-126.3 555.24,-122.8 545.24,-119.3 545.24,-126.3"/>
</g>
</g>
</svg>
