<?xml version="1.0" encoding="UTF-8" standalone="no"?>
<!DOCTYPE svg PUBLIC "-//W3C//DTD SVG 1.1//EN"
 "http://www.w3.org/Graphics/SVG/1.1/DTD/svg11.dtd">
<!-- Generated by graphviz version 3.0.0 (20220226.1711)
 -->
<!-- Title: dependencies Pages: 1 -->
<svg width="1119pt" height="247pt"
 viewBox="0.00 0.00 1119.00 246.80" xmlns="http://www.w3.org/2000/svg" xmlns:xlink="http://www.w3.org/1999/xlink">
<g id="graph0" class="graph" transform="scale(1 1) rotate(0) translate(4 242.8)">
<title>dependencies</title>
<polygon fill="white" stroke="transparent" points="-4,4 -4,-242.8 1115,-242.8 1115,4 -4,4"/>
<text text-anchor="middle" x="555.5" y="-8.2" font-family="sans-serif" font-size="14.00">dependencies</text>
<g id="clust1" class="cluster">
<title>cluster_SafeAddCardModule</title>
<polygon fill="none" stroke="black" stroke-dasharray="1,5" points="8,-32.8 8,-230.8 1103,-230.8 1103,-32.8 8,-32.8"/>
</g>
<g id="clust2" class="cluster">
<title>cluster_SafeAddCardModule_declarations</title>
<polygon fill="none" stroke="black" points="717,-40.8 717,-92.8 1095,-92.8 1095,-40.8 717,-40.8"/>
</g>
<g id="clust6" class="cluster">
<title>cluster_SafeAddCardModule_exports</title>
<polygon fill="none" stroke="black" points="316,-170.8 316,-222.8 701,-222.8 701,-170.8 316,-170.8"/>
</g>
<g id="clust5" class="cluster">
<title>cluster_SafeAddCardModule_imports</title>
<polygon fill="none" stroke="black" points="16,-40.8 16,-92.8 709,-92.8 709,-40.8 16,-40.8"/>
</g>
<!-- SafeAddCardComponent -->
<g id="node1" class="node">
<title>SafeAddCardComponent</title>
<polygon fill="#ffffb3" stroke="black" points="1086.53,-84.8 929.47,-84.8 929.47,-48.8 1086.53,-48.8 1086.53,-84.8"/>
<text text-anchor="middle" x="1008" y="-62.6" font-family="Times,serif" font-size="14.00">SafeAddCardComponent</text>
</g>
<!-- SafeAddCardModule -->
<g id="node3" class="node">
<title>SafeAddCardModule</title>
<polygon fill="#8dd3c7" stroke="black" points="582.75,-149.8 579.75,-153.8 558.75,-153.8 555.75,-149.8 447.25,-149.8 447.25,-113.8 582.75,-113.8 582.75,-149.8"/>
<text text-anchor="middle" x="515" y="-127.6" font-family="Times,serif" font-size="14.00">SafeAddCardModule</text>
</g>
<!-- SafeAddCardComponent&#45;&gt;SafeAddCardModule -->
<g id="edge1" class="edge">
<title>SafeAddCardComponent&#45;&gt;SafeAddCardModule</title>
<path fill="none" stroke="black" d="M1008,-85.08C1008,-106.12 1008,-137.8 1008,-137.8 1008,-137.8 592.77,-137.8 592.77,-137.8"/>
<polygon fill="black" stroke="black" points="592.77,-134.3 582.77,-137.8 592.77,-141.3 592.77,-134.3"/>
</g>
<!-- SafeCardTemplateComponent -->
<g id="node2" class="node">
<title>SafeCardTemplateComponent</title>
<polygon fill="#ffffb3" stroke="black" points="911.28,-84.8 724.72,-84.8 724.72,-48.8 911.28,-48.8 911.28,-84.8"/>
<text text-anchor="middle" x="818" y="-62.6" font-family="Times,serif" font-size="14.00">SafeCardTemplateComponent</text>
</g>
<!-- SafeCardTemplateComponent&#45;&gt;SafeAddCardModule -->
<g id="edge2" class="edge">
<title>SafeCardTemplateComponent&#45;&gt;SafeAddCardModule</title>
<path fill="none" stroke="black" d="M818,-84.82C818,-102.17 818,-125.8 818,-125.8 818,-125.8 593,-125.8 593,-125.8"/>
<polygon fill="black" stroke="black" points="593,-122.3 583,-125.8 593,-129.3 593,-122.3"/>
</g>
<!-- SafeAddCardComponent  -->
<g id="node9" class="node">
<title>SafeAddCardComponent </title>
<polygon fill="#fb8072" stroke="black" points="692.53,-214.8 531.47,-214.8 531.47,-178.8 692.53,-178.8 692.53,-214.8"/>
<text text-anchor="middle" x="612" y="-192.6" font-family="Times,serif" font-size="14.00">SafeAddCardComponent </text>
</g>
<!-- SafeAddCardModule&#45;&gt;SafeAddCardComponent  -->
<g id="edge8" class="edge">
<title>SafeAddCardModule&#45;&gt;SafeAddCardComponent </title>
<path fill="none" stroke="black" stroke-dasharray="5,2" d="M557.18,-149.91C557.18,-149.91 557.18,-168.79 557.18,-168.79"/>
<polygon fill="black" stroke="black" points="553.68,-168.79 557.18,-178.79 560.68,-168.79 553.68,-168.79"/>
</g>
<!-- SafeCardTemplateComponent  -->
<g id="node10" class="node">
<title>SafeCardTemplateComponent </title>
<polygon fill="#fb8072" stroke="black" points="513.78,-214.8 324.22,-214.8 324.22,-178.8 513.78,-178.8 513.78,-214.8"/>
<text text-anchor="middle" x="419" y="-192.6" font-family="Times,serif" font-size="14.00">SafeCardTemplateComponent </text>
</g>
<!-- SafeAddCardModule&#45;&gt;SafeCardTemplateComponent  -->
<g id="edge9" class="edge">
<title>SafeAddCardModule&#45;&gt;SafeCardTemplateComponent </title>
<path fill="none" stroke="black" stroke-dasharray="5,2" d="M480.51,-149.91C480.51,-149.91 480.51,-168.79 480.51,-168.79"/>
<polygon fill="black" stroke="black" points="477.01,-168.79 480.51,-178.79 484.01,-168.79 477.01,-168.79"/>
</g>
<!-- SafeAlertModule -->
<g id="node4" class="node">
<title>SafeAlertModule</title>
<polygon fill="#8dd3c7" stroke="black" points="700.69,-84.8 697.69,-88.8 676.69,-88.8 673.69,-84.8 587.31,-84.8 587.31,-48.8 700.69,-48.8 700.69,-84.8"/>
<text text-anchor="middle" x="644" y="-62.6" font-family="Times,serif" font-size="14.00">SafeAlertModule</text>
</g>
<!-- SafeAlertModule&#45;&gt;SafeAddCardModule -->
<g id="edge3" class="edge">
<title>SafeAlertModule&#45;&gt;SafeAddCardModule</title>
<path fill="none" stroke="black" d="M587.15,-66.8C580.63,-66.8 576.26,-66.8 576.26,-66.8 576.26,-66.8 576.26,-103.69 576.26,-103.69"/>
<polygon fill="black" stroke="black" points="572.76,-103.69 576.26,-113.69 579.76,-103.69 572.76,-103.69"/>
</g>
<!-- SafeIconModule -->
<g id="node5" class="node">
<title>SafeIconModule</title>
<polygon fill="#8dd3c7" stroke="black" points="569.8,-84.8 566.8,-88.8 545.8,-88.8 542.8,-84.8 460.2,-84.8 460.2,-48.8 569.8,-48.8 569.8,-84.8"/>
<text text-anchor="middle" x="515" y="-62.6" font-family="Times,serif" font-size="14.00">SafeIconModule</text>
</g>
<!-- SafeIconModule&#45;&gt;SafeAddCardModule -->
<g id="edge4" class="edge">
<title>SafeIconModule&#45;&gt;SafeAddCardModule</title>
<path fill="none" stroke="black" d="M515,-84.91C515,-84.91 515,-103.79 515,-103.79"/>
<polygon fill="black" stroke="black" points="511.5,-103.79 515,-113.79 518.5,-103.79 511.5,-103.79"/>
</g>
<!-- SafeModalModule -->
<g id="node6" class="node">
<title>SafeModalModule</title>
<polygon fill="#8dd3c7" stroke="black" points="442.48,-84.8 439.48,-88.8 418.48,-88.8 415.48,-84.8 321.52,-84.8 321.52,-48.8 442.48,-48.8 442.48,-84.8"/>
<text text-anchor="middle" x="382" y="-62.6" font-family="Times,serif" font-size="14.00">SafeModalModule</text>
</g>
<!-- SafeModalModule&#45;&gt;SafeAddCardModule -->
<g id="edge5" class="edge">
<title>SafeModalModule&#45;&gt;SafeAddCardModule</title>
<path fill="none" stroke="black" d="M442.53,-66.8C449.25,-66.8 453.74,-66.8 453.74,-66.8 453.74,-66.8 453.74,-103.69 453.74,-103.69"/>
<polygon fill="black" stroke="black" points="450.24,-103.69 453.74,-113.69 457.24,-103.69 450.24,-103.69"/>
</g>
<!-- SafeSkeletonModule -->
<g id="node7" class="node">
<title>SafeSkeletonModule</title>
<polygon fill="#8dd3c7" stroke="black" points="303.92,-84.8 300.92,-88.8 279.92,-88.8 276.92,-84.8 170.08,-84.8 170.08,-48.8 303.92,-48.8 303.92,-84.8"/>
<text text-anchor="middle" x="237" y="-62.6" font-family="Times,serif" font-size="14.00">SafeSkeletonModule</text>
</g>
<!-- SafeSkeletonModule&#45;&gt;SafeAddCardModule -->
<g id="edge6" class="edge">
<title>SafeSkeletonModule&#45;&gt;SafeAddCardModule</title>
<path fill="none" stroke="black" d="M237,-84.82C237,-102.17 237,-125.8 237,-125.8 237,-125.8 436.99,-125.8 436.99,-125.8"/>
<polygon fill="black" stroke="black" points="436.99,-129.3 446.99,-125.8 436.99,-122.3 436.99,-129.3"/>
</g>
<!-- SafeSpinnerModule -->
<g id="node8" class="node">
<title>SafeSpinnerModule</title>
<polygon fill="#8dd3c7" stroke="black" points="151.98,-84.8 148.98,-88.8 127.98,-88.8 124.98,-84.8 24.02,-84.8 24.02,-48.8 151.98,-48.8 151.98,-84.8"/>
<text text-anchor="middle" x="88" y="-62.6" font-family="Times,serif" font-size="14.00">SafeSpinnerModule</text>
</g>
<!-- SafeSpinnerModule&#45;&gt;SafeAddCardModule -->
<g id="edge7" class="edge">
<title>SafeSpinnerModule&#45;&gt;SafeAddCardModule</title>
<path fill="none" stroke="black" d="M88,-85.08C88,-106.12 88,-137.8 88,-137.8 88,-137.8 436.87,-137.8 436.87,-137.8"/>
<polygon fill="black" stroke="black" points="436.87,-141.3 446.87,-137.8 436.87,-134.3 436.87,-141.3"/>
</g>
</g>
</svg>
