<?xml version="1.0" encoding="UTF-8" standalone="no"?>
<!DOCTYPE svg PUBLIC "-//W3C//DTD SVG 1.1//EN"
 "http://www.w3.org/Graphics/SVG/1.1/DTD/svg11.dtd">
<!-- Generated by graphviz version 3.0.0 (20220226.1711)
 -->
<!-- Title: dependencies Pages: 1 -->
<svg width="786pt" height="247pt"
 viewBox="0.00 0.00 786.00 246.80" xmlns="http://www.w3.org/2000/svg" xmlns:xlink="http://www.w3.org/1999/xlink">
<g id="graph0" class="graph" transform="scale(1 1) rotate(0) translate(4 242.8)">
<title>dependencies</title>
<polygon fill="white" stroke="transparent" points="-4,4 -4,-242.8 782,-242.8 782,4 -4,4"/>
<text text-anchor="middle" x="389" y="-8.2" font-family="sans-serif" font-size="14.00">dependencies</text>
<g id="clust1" class="cluster">
<title>cluster_MapMarkersModule</title>
<polygon fill="none" stroke="black" stroke-dasharray="1,5" points="8,-32.8 8,-230.8 770,-230.8 770,-32.8 8,-32.8"/>
</g>
<g id="clust2" class="cluster">
<title>cluster_MapMarkersModule_declarations</title>
<polygon fill="none" stroke="black" points="592,-40.8 592,-92.8 762,-92.8 762,-40.8 592,-40.8"/>
</g>
<g id="clust4" class="cluster">
<title>cluster_MapMarkersModule_imports</title>
<polygon fill="none" stroke="black" points="16,-40.8 16,-92.8 584,-92.8 584,-40.8 16,-40.8"/>
</g>
<g id="clust5" class="cluster">
<title>cluster_MapMarkersModule_exports</title>
<polygon fill="none" stroke="black" points="262,-170.8 262,-222.8 436,-222.8 436,-170.8 262,-170.8"/>
</g>
<!-- MapMarkersComponent -->
<g id="node1" class="node">
<title>MapMarkersComponent</title>
<polygon fill="#ffffb3" stroke="black" points="753.64,-84.8 600.36,-84.8 600.36,-48.8 753.64,-48.8 753.64,-84.8"/>
<text text-anchor="middle" x="677" y="-62.6" font-family="Times,serif" font-size="14.00">MapMarkersComponent</text>
</g>
<!-- MapMarkersModule -->
<g id="node2" class="node">
<title>MapMarkersModule</title>
<polygon fill="#8dd3c7" stroke="black" points="414.86,-149.8 411.86,-153.8 390.86,-153.8 387.86,-149.8 283.14,-149.8 283.14,-113.8 414.86,-113.8 414.86,-149.8"/>
<text text-anchor="middle" x="349" y="-127.6" font-family="Times,serif" font-size="14.00">MapMarkersModule</text>
</g>
<!-- MapMarkersComponent&#45;&gt;MapMarkersModule -->
<g id="edge1" class="edge">
<title>MapMarkersComponent&#45;&gt;MapMarkersModule</title>
<path fill="none" stroke="black" d="M677,-84.91C677,-104.14 677,-131.8 677,-131.8 677,-131.8 424.98,-131.8 424.98,-131.8"/>
<polygon fill="black" stroke="black" points="424.98,-128.3 414.98,-131.8 424.98,-135.3 424.98,-128.3"/>
</g>
<!-- MapMarkersComponent  -->
<g id="node7" class="node">
<title>MapMarkersComponent </title>
<polygon fill="#fb8072" stroke="black" points="427.64,-214.8 270.36,-214.8 270.36,-178.8 427.64,-178.8 427.64,-214.8"/>
<text text-anchor="middle" x="349" y="-192.6" font-family="Times,serif" font-size="14.00">MapMarkersComponent </text>
</g>
<!-- MapMarkersModule&#45;&gt;MapMarkersComponent  -->
<g id="edge6" class="edge">
<title>MapMarkersModule&#45;&gt;MapMarkersComponent </title>
<path fill="none" stroke="black" stroke-dasharray="5,2" d="M349,-149.91C349,-149.91 349,-168.79 349,-168.79"/>
<polygon fill="black" stroke="black" points="345.5,-168.79 349,-178.79 352.5,-168.79 345.5,-168.79"/>
</g>
<!-- MapMarkerRuleModule -->
<g id="node3" class="node">
<title>MapMarkerRuleModule</title>
<polygon fill="#8dd3c7" stroke="black" points="576.36,-84.8 573.36,-88.8 552.36,-88.8 549.36,-84.8 423.64,-84.8 423.64,-48.8 576.36,-48.8 576.36,-84.8"/>
<text text-anchor="middle" x="500" y="-62.6" font-family="Times,serif" font-size="14.00">MapMarkerRuleModule</text>
</g>
<!-- MapMarkerRuleModule&#45;&gt;MapMarkersModule -->
<g id="edge2" class="edge">
<title>MapMarkerRuleModule&#45;&gt;MapMarkersModule</title>
<path fill="none" stroke="black" d="M423.5,-66.8C415.53,-66.8 410.26,-66.8 410.26,-66.8 410.26,-66.8 410.26,-103.69 410.26,-103.69"/>
<polygon fill="black" stroke="black" points="406.76,-103.69 410.26,-113.69 413.76,-103.69 406.76,-103.69"/>
</g>
<!-- SafeAlertModule -->
<g id="node4" class="node">
<title>SafeAlertModule</title>
<polygon fill="#8dd3c7" stroke="black" points="405.69,-84.8 402.69,-88.8 381.69,-88.8 378.69,-84.8 292.31,-84.8 292.31,-48.8 405.69,-48.8 405.69,-84.8"/>
<text text-anchor="middle" x="349" y="-62.6" font-family="Times,serif" font-size="14.00">SafeAlertModule</text>
</g>
<!-- SafeAlertModule&#45;&gt;MapMarkersModule -->
<g id="edge3" class="edge">
<title>SafeAlertModule&#45;&gt;MapMarkersModule</title>
<path fill="none" stroke="black" d="M349,-84.91C349,-84.91 349,-103.79 349,-103.79"/>
<polygon fill="black" stroke="black" points="345.5,-103.79 349,-113.79 352.5,-103.79 345.5,-103.79"/>
</g>
<!-- SafeButtonModule -->
<g id="node5" class="node">
<title>SafeButtonModule</title>
<polygon fill="#8dd3c7" stroke="black" points="274.05,-84.8 271.05,-88.8 250.05,-88.8 247.05,-84.8 151.95,-84.8 151.95,-48.8 274.05,-48.8 274.05,-84.8"/>
<text text-anchor="middle" x="213" y="-62.6" font-family="Times,serif" font-size="14.00">SafeButtonModule</text>
</g>
<!-- SafeButtonModule&#45;&gt;MapMarkersModule -->
<g id="edge4" class="edge">
<title>SafeButtonModule&#45;&gt;MapMarkersModule</title>
<path fill="none" stroke="black" d="M274.37,-66.8C282.31,-66.8 287.74,-66.8 287.74,-66.8 287.74,-66.8 287.74,-103.69 287.74,-103.69"/>
<polygon fill="black" stroke="black" points="284.24,-103.69 287.74,-113.69 291.24,-103.69 284.24,-103.69"/>
</g>
<!-- SafeIconModule -->
<g id="node6" class="node">
<title>SafeIconModule</title>
<polygon fill="#8dd3c7" stroke="black" points="133.8,-84.8 130.8,-88.8 109.8,-88.8 106.8,-84.8 24.2,-84.8 24.2,-48.8 133.8,-48.8 133.8,-84.8"/>
<text text-anchor="middle" x="79" y="-62.6" font-family="Times,serif" font-size="14.00">SafeIconModule</text>
</g>
<!-- SafeIconModule&#45;&gt;MapMarkersModule -->
<g id="edge5" class="edge">
<title>SafeIconModule&#45;&gt;MapMarkersModule</title>
<path fill="none" stroke="black" d="M79,-84.91C79,-104.14 79,-131.8 79,-131.8 79,-131.8 272.95,-131.8 272.95,-131.8"/>
<polygon fill="black" stroke="black" points="272.95,-135.3 282.95,-131.8 272.95,-128.3 272.95,-135.3"/>
</g>
</g>
</svg>
