<?xml version="1.0" encoding="UTF-8" standalone="no"?>
<!DOCTYPE svg PUBLIC "-//W3C//DTD SVG 1.1//EN"
 "http://www.w3.org/Graphics/SVG/1.1/DTD/svg11.dtd">
<!-- Generated by graphviz version 3.0.0 (20220226.1711)
 -->
<!-- Title: dependencies Pages: 1 -->
<svg width="786pt" height="247pt"
 viewBox="0.00 0.00 786.00 246.80" xmlns="http://www.w3.org/2000/svg" xmlns:xlink="http://www.w3.org/1999/xlink">
<g id="graph0" class="graph" transform="scale(1 1) rotate(0) translate(4 242.8)">
<title>dependencies</title>
<polygon fill="white" stroke="transparent" points="-4,4 -4,-242.8 782,-242.8 782,4 -4,4"/>
<text text-anchor="middle" x="389" y="-8.2" font-family="sans-serif" font-size="14.00">dependencies</text>
<g id="clust1" class="cluster">
<title>cluster_MapMarkersModule</title>
<polygon fill="none" stroke="black" stroke-dasharray="1,5" points="8,-32.8 8,-230.8 770,-230.8 770,-32.8 8,-32.8"/>
</g>
<g id="clust4" class="cluster">
<title>cluster_MapMarkersModule_imports</title>
<polygon fill="none" stroke="black" points="194,-40.8 194,-92.8 762,-92.8 762,-40.8 194,-40.8"/>
</g>
<g id="clust5" class="cluster">
<title>cluster_MapMarkersModule_exports</title>
<polygon fill="none" stroke="black" points="304,-170.8 304,-222.8 478,-222.8 478,-170.8 304,-170.8"/>
</g>
<g id="clust2" class="cluster">
<title>cluster_MapMarkersModule_declarations</title>
<polygon fill="none" stroke="black" points="16,-40.8 16,-92.8 186,-92.8 186,-40.8 16,-40.8"/>
</g>
<!-- MapMarkersComponent -->
<g id="node1" class="node">
<title>MapMarkersComponent</title>
<polygon fill="#ffffb3" stroke="black" points="177.64,-84.8 24.36,-84.8 24.36,-48.8 177.64,-48.8 177.64,-84.8"/>
<text text-anchor="middle" x="101" y="-62.6" font-family="Times,serif" font-size="14.00">MapMarkersComponent</text>
</g>
<!-- MapMarkersModule -->
<g id="node2" class="node">
<title>MapMarkersModule</title>
<polygon fill="#8dd3c7" stroke="black" points="456.86,-149.8 453.86,-153.8 432.86,-153.8 429.86,-149.8 325.14,-149.8 325.14,-113.8 456.86,-113.8 456.86,-149.8"/>
<text text-anchor="middle" x="391" y="-127.6" font-family="Times,serif" font-size="14.00">MapMarkersModule</text>
</g>
<!-- MapMarkersComponent&#45;&gt;MapMarkersModule -->
<g id="edge1" class="edge">
<title>MapMarkersComponent&#45;&gt;MapMarkersModule</title>
<path fill="none" stroke="black" d="M101,-85.08C101,-106.12 101,-137.8 101,-137.8 101,-137.8 314.83,-137.8 314.83,-137.8"/>
<polygon fill="black" stroke="black" points="314.83,-141.3 324.83,-137.8 314.83,-134.3 314.83,-141.3"/>
</g>
<!-- MapMarkersComponent  -->
<g id="node7" class="node">
<title>MapMarkersComponent </title>
<polygon fill="#fb8072" stroke="black" points="469.64,-214.8 312.36,-214.8 312.36,-178.8 469.64,-178.8 469.64,-214.8"/>
<text text-anchor="middle" x="391" y="-192.6" font-family="Times,serif" font-size="14.00">MapMarkersComponent </text>
</g>
<!-- MapMarkersModule&#45;&gt;MapMarkersComponent  -->
<g id="edge6" class="edge">
<title>MapMarkersModule&#45;&gt;MapMarkersComponent </title>
<path fill="none" stroke="black" stroke-dasharray="5,2" d="M391,-149.91C391,-149.91 391,-168.79 391,-168.79"/>
<polygon fill="black" stroke="black" points="387.5,-168.79 391,-178.79 394.5,-168.79 387.5,-168.79"/>
</g>
<!-- MapMarkerRuleModule -->
<g id="node3" class="node">
<title>MapMarkerRuleModule</title>
<polygon fill="#8dd3c7" stroke="black" points="754.36,-84.8 751.36,-88.8 730.36,-88.8 727.36,-84.8 601.64,-84.8 601.64,-48.8 754.36,-48.8 754.36,-84.8"/>
<text text-anchor="middle" x="678" y="-62.6" font-family="Times,serif" font-size="14.00">MapMarkerRuleModule</text>
</g>
<!-- MapMarkerRuleModule&#45;&gt;MapMarkersModule -->
<g id="edge2" class="edge">
<title>MapMarkerRuleModule&#45;&gt;MapMarkersModule</title>
<path fill="none" stroke="black" d="M678,-85.08C678,-106.12 678,-137.8 678,-137.8 678,-137.8 467.2,-137.8 467.2,-137.8"/>
<polygon fill="black" stroke="black" points="467.2,-134.3 457.2,-137.8 467.2,-141.3 467.2,-134.3"/>
</g>
<!-- SafeAlertModule -->
<g id="node4" class="node">
<title>SafeAlertModule</title>
<polygon fill="#8dd3c7" stroke="black" points="583.69,-84.8 580.69,-88.8 559.69,-88.8 556.69,-84.8 470.31,-84.8 470.31,-48.8 583.69,-48.8 583.69,-84.8"/>
<text text-anchor="middle" x="527" y="-62.6" font-family="Times,serif" font-size="14.00">SafeAlertModule</text>
</g>
<!-- SafeAlertModule&#45;&gt;MapMarkersModule -->
<g id="edge3" class="edge">
<title>SafeAlertModule&#45;&gt;MapMarkersModule</title>
<path fill="none" stroke="black" d="M527,-84.82C527,-102.17 527,-125.8 527,-125.8 527,-125.8 467.01,-125.8 467.01,-125.8"/>
<polygon fill="black" stroke="black" points="467.01,-122.3 457.01,-125.8 467.01,-129.3 467.01,-122.3"/>
</g>
<!-- SafeButtonModule -->
<g id="node5" class="node">
<title>SafeButtonModule</title>
<polygon fill="#8dd3c7" stroke="black" points="452.05,-84.8 449.05,-88.8 428.05,-88.8 425.05,-84.8 329.95,-84.8 329.95,-48.8 452.05,-48.8 452.05,-84.8"/>
<text text-anchor="middle" x="391" y="-62.6" font-family="Times,serif" font-size="14.00">SafeButtonModule</text>
</g>
<!-- SafeButtonModule&#45;&gt;MapMarkersModule -->
<g id="edge4" class="edge">
<title>SafeButtonModule&#45;&gt;MapMarkersModule</title>
<path fill="none" stroke="black" d="M391,-84.91C391,-84.91 391,-103.79 391,-103.79"/>
<polygon fill="black" stroke="black" points="387.5,-103.79 391,-113.79 394.5,-103.79 387.5,-103.79"/>
</g>
<!-- SafeIconModule -->
<g id="node6" class="node">
<title>SafeIconModule</title>
<polygon fill="#8dd3c7" stroke="black" points="311.8,-84.8 308.8,-88.8 287.8,-88.8 284.8,-84.8 202.2,-84.8 202.2,-48.8 311.8,-48.8 311.8,-84.8"/>
<text text-anchor="middle" x="257" y="-62.6" font-family="Times,serif" font-size="14.00">SafeIconModule</text>
</g>
<!-- SafeIconModule&#45;&gt;MapMarkersModule -->
<g id="edge5" class="edge">
<title>SafeIconModule&#45;&gt;MapMarkersModule</title>
<path fill="none" stroke="black" d="M257,-84.82C257,-102.17 257,-125.8 257,-125.8 257,-125.8 314.79,-125.8 314.79,-125.8"/>
<polygon fill="black" stroke="black" points="314.79,-129.3 324.79,-125.8 314.79,-122.3 314.79,-129.3"/>
</g>
</g>
</svg>
