<?xml version="1.0" encoding="UTF-8" standalone="no"?>
<!DOCTYPE svg PUBLIC "-//W3C//DTD SVG 1.1//EN"
 "http://www.w3.org/Graphics/SVG/1.1/DTD/svg11.dtd">
<!-- Generated by graphviz version 3.0.0 (20220226.1711)
 -->
<!-- Title: dependencies Pages: 1 -->
<svg width="578pt" height="247pt"
 viewBox="0.00 0.00 578.00 246.80" xmlns="http://www.w3.org/2000/svg" xmlns:xlink="http://www.w3.org/1999/xlink">
<g id="graph0" class="graph" transform="scale(1 1) rotate(0) translate(4 242.8)">
<title>dependencies</title>
<polygon fill="white" stroke="transparent" points="-4,4 -4,-242.8 574,-242.8 574,4 -4,4"/>
<text text-anchor="middle" x="285" y="-8.2" font-family="sans-serif" font-size="14.00">dependencies</text>
<g id="clust1" class="cluster">
<title>cluster_MapClorophletModule</title>
<polygon fill="none" stroke="black" stroke-dasharray="1,5" points="8,-32.8 8,-230.8 562,-230.8 562,-32.8 8,-32.8"/>
</g>
<g id="clust2" class="cluster">
<title>cluster_MapClorophletModule_declarations</title>
<polygon fill="none" stroke="black" points="372,-40.8 372,-92.8 554,-92.8 554,-40.8 372,-40.8"/>
</g>
<g id="clust4" class="cluster">
<title>cluster_MapClorophletModule_imports</title>
<polygon fill="none" stroke="black" points="16,-40.8 16,-92.8 364,-92.8 364,-40.8 16,-40.8"/>
</g>
<g id="clust5" class="cluster">
<title>cluster_MapClorophletModule_exports</title>
<polygon fill="none" stroke="black" points="166,-170.8 166,-222.8 352,-222.8 352,-170.8 166,-170.8"/>
</g>
<!-- MapClorophletComponent -->
<g id="node1" class="node">
<title>MapClorophletComponent</title>
<polygon fill="#ffffb3" stroke="black" points="546.38,-84.8 379.62,-84.8 379.62,-48.8 546.38,-48.8 546.38,-84.8"/>
<text text-anchor="middle" x="463" y="-62.6" font-family="Times,serif" font-size="14.00">MapClorophletComponent</text>
</g>
<!-- MapClorophletModule -->
<g id="node2" class="node">
<title>MapClorophletModule</title>
<polygon fill="#8dd3c7" stroke="black" points="331.6,-149.8 328.6,-153.8 307.6,-153.8 304.6,-149.8 186.4,-149.8 186.4,-113.8 331.6,-113.8 331.6,-149.8"/>
<text text-anchor="middle" x="259" y="-127.6" font-family="Times,serif" font-size="14.00">MapClorophletModule</text>
</g>
<!-- MapClorophletComponent&#45;&gt;MapClorophletModule -->
<g id="edge1" class="edge">
<title>MapClorophletComponent&#45;&gt;MapClorophletModule</title>
<path fill="none" stroke="black" d="M463,-84.91C463,-104.14 463,-131.8 463,-131.8 463,-131.8 341.78,-131.8 341.78,-131.8"/>
<polygon fill="black" stroke="black" points="341.78,-128.3 331.78,-131.8 341.78,-135.3 341.78,-128.3"/>
</g>
<!-- MapClorophletComponent  -->
<g id="node5" class="node">
<title>MapClorophletComponent </title>
<polygon fill="#fb8072" stroke="black" points="344.38,-214.8 173.62,-214.8 173.62,-178.8 344.38,-178.8 344.38,-214.8"/>
<text text-anchor="middle" x="259" y="-192.6" font-family="Times,serif" font-size="14.00">MapClorophletComponent </text>
</g>
<!-- MapClorophletModule&#45;&gt;MapClorophletComponent  -->
<g id="edge4" class="edge">
<title>MapClorophletModule&#45;&gt;MapClorophletComponent </title>
<path fill="none" stroke="black" stroke-dasharray="5,2" d="M259,-149.91C259,-149.91 259,-168.79 259,-168.79"/>
<polygon fill="black" stroke="black" points="255.5,-168.79 259,-178.79 262.5,-168.79 255.5,-168.79"/>
</g>
<!-- MapClorophletDivisionModule -->
<g id="node3" class="node">
<title>MapClorophletDivisionModule</title>
<polygon fill="#8dd3c7" stroke="black" points="355.82,-84.8 352.82,-88.8 331.82,-88.8 328.82,-84.8 162.18,-84.8 162.18,-48.8 355.82,-48.8 355.82,-84.8"/>
<text text-anchor="middle" x="259" y="-62.6" font-family="Times,serif" font-size="14.00">MapClorophletDivisionModule</text>
</g>
<!-- MapClorophletDivisionModule&#45;&gt;MapClorophletModule -->
<g id="edge2" class="edge">
<title>MapClorophletDivisionModule&#45;&gt;MapClorophletModule</title>
<path fill="none" stroke="black" d="M259,-84.91C259,-84.91 259,-103.79 259,-103.79"/>
<polygon fill="black" stroke="black" points="255.5,-103.79 259,-113.79 262.5,-103.79 255.5,-103.79"/>
</g>
<!-- SafeModalModule -->
<g id="node4" class="node">
<title>SafeModalModule</title>
<polygon fill="#8dd3c7" stroke="black" points="144.48,-84.8 141.48,-88.8 120.48,-88.8 117.48,-84.8 23.52,-84.8 23.52,-48.8 144.48,-48.8 144.48,-84.8"/>
<text text-anchor="middle" x="84" y="-62.6" font-family="Times,serif" font-size="14.00">SafeModalModule</text>
</g>
<!-- SafeModalModule&#45;&gt;MapClorophletModule -->
<g id="edge3" class="edge">
<title>SafeModalModule&#45;&gt;MapClorophletModule</title>
<path fill="none" stroke="black" d="M84,-84.91C84,-104.14 84,-131.8 84,-131.8 84,-131.8 176.3,-131.8 176.3,-131.8"/>
<polygon fill="black" stroke="black" points="176.3,-135.3 186.3,-131.8 176.3,-128.3 176.3,-135.3"/>
</g>
</g>
</svg>
