<?xml version="1.0" encoding="UTF-8" standalone="no"?>
<!DOCTYPE svg PUBLIC "-//W3C//DTD SVG 1.1//EN"
 "http://www.w3.org/Graphics/SVG/1.1/DTD/svg11.dtd">
<!-- Generated by graphviz version 3.0.0 (20220226.1711)
 -->
<!-- Title: dependencies Pages: 1 -->
<svg width="418pt" height="247pt"
 viewBox="0.00 0.00 418.00 246.80" xmlns="http://www.w3.org/2000/svg" xmlns:xlink="http://www.w3.org/1999/xlink">
<g id="graph0" class="graph" transform="scale(1 1) rotate(0) translate(4 242.8)">
<title>dependencies</title>
<polygon fill="white" stroke="transparent" points="-4,4 -4,-242.8 414,-242.8 414,4 -4,4"/>
<text text-anchor="middle" x="205" y="-8.2" font-family="sans-serif" font-size="14.00">dependencies</text>
<g id="clust1" class="cluster">
<title>cluster_SafeExpandedCommentModule</title>
<polygon fill="none" stroke="black" stroke-dasharray="1,5" points="8,-32.8 8,-230.8 402,-230.8 402,-32.8 8,-32.8"/>
</g>
<g id="clust4" class="cluster">
<title>cluster_SafeExpandedCommentModule_imports</title>
<polygon fill="none" stroke="black" points="258,-40.8 258,-92.8 394,-92.8 394,-40.8 258,-40.8"/>
</g>
<g id="clust5" class="cluster">
<title>cluster_SafeExpandedCommentModule_exports</title>
<polygon fill="none" stroke="black" points="87,-170.8 87,-222.8 323,-222.8 323,-170.8 87,-170.8"/>
</g>
<g id="clust2" class="cluster">
<title>cluster_SafeExpandedCommentModule_declarations</title>
<polygon fill="none" stroke="black" points="16,-40.8 16,-92.8 250,-92.8 250,-40.8 16,-40.8"/>
</g>
<!-- SafeExpandedCommentComponent -->
<g id="node1" class="node">
<title>SafeExpandedCommentComponent</title>
<polygon fill="#ffffb3" stroke="black" points="241.91,-84.8 24.09,-84.8 24.09,-48.8 241.91,-48.8 241.91,-84.8"/>
<text text-anchor="middle" x="133" y="-62.6" font-family="Times,serif" font-size="14.00">SafeExpandedCommentComponent</text>
</g>
<!-- SafeExpandedCommentModule -->
<g id="node2" class="node">
<title>SafeExpandedCommentModule</title>
<polygon fill="#8dd3c7" stroke="black" points="302.63,-149.8 299.63,-153.8 278.63,-153.8 275.63,-149.8 107.37,-149.8 107.37,-113.8 302.63,-113.8 302.63,-149.8"/>
<text text-anchor="middle" x="205" y="-127.6" font-family="Times,serif" font-size="14.00">SafeExpandedCommentModule</text>
</g>
<!-- SafeExpandedCommentComponent&#45;&gt;SafeExpandedCommentModule -->
<g id="edge1" class="edge">
<title>SafeExpandedCommentComponent&#45;&gt;SafeExpandedCommentModule</title>
<path fill="none" stroke="black" d="M174.44,-84.91C174.44,-84.91 174.44,-103.79 174.44,-103.79"/>
<polygon fill="black" stroke="black" points="170.94,-103.79 174.44,-113.79 177.94,-103.79 170.94,-103.79"/>
</g>
<!-- SafeExpandedCommentComponent  -->
<g id="node4" class="node">
<title>SafeExpandedCommentComponent </title>
<polygon fill="#fb8072" stroke="black" points="315.41,-214.8 94.59,-214.8 94.59,-178.8 315.41,-178.8 315.41,-214.8"/>
<text text-anchor="middle" x="205" y="-192.6" font-family="Times,serif" font-size="14.00">SafeExpandedCommentComponent </text>
</g>
<!-- SafeExpandedCommentModule&#45;&gt;SafeExpandedCommentComponent  -->
<g id="edge3" class="edge">
<title>SafeExpandedCommentModule&#45;&gt;SafeExpandedCommentComponent </title>
<path fill="none" stroke="black" stroke-dasharray="5,2" d="M205,-149.91C205,-149.91 205,-168.79 205,-168.79"/>
<polygon fill="black" stroke="black" points="201.5,-168.79 205,-178.79 208.5,-168.79 201.5,-168.79"/>
</g>
<!-- SafeModalModule -->
<g id="node3" class="node">
<title>SafeModalModule</title>
<polygon fill="#8dd3c7" stroke="black" points="386.48,-84.8 383.48,-88.8 362.48,-88.8 359.48,-84.8 265.52,-84.8 265.52,-48.8 386.48,-48.8 386.48,-84.8"/>
<text text-anchor="middle" x="326" y="-62.6" font-family="Times,serif" font-size="14.00">SafeModalModule</text>
</g>
<!-- SafeModalModule&#45;&gt;SafeExpandedCommentModule -->
<g id="edge2" class="edge">
<title>SafeModalModule&#45;&gt;SafeExpandedCommentModule</title>
<path fill="none" stroke="black" d="M284.16,-84.91C284.16,-84.91 284.16,-103.79 284.16,-103.79"/>
<polygon fill="black" stroke="black" points="280.66,-103.79 284.16,-113.79 287.66,-103.79 280.66,-103.79"/>
</g>
</g>
</svg>
