<?xml version="1.0" encoding="UTF-8" standalone="no"?>
<!DOCTYPE svg PUBLIC "-//W3C//DTD SVG 1.1//EN"
 "http://www.w3.org/Graphics/SVG/1.1/DTD/svg11.dtd">
<!-- Generated by graphviz version 3.0.0 (20220226.1711)
 -->
<!-- Title: dependencies Pages: 1 -->
<svg width="418pt" height="247pt"
 viewBox="0.00 0.00 418.00 246.80" xmlns="http://www.w3.org/2000/svg" xmlns:xlink="http://www.w3.org/1999/xlink">
<g id="graph0" class="graph" transform="scale(1 1) rotate(0) translate(4 242.8)">
<title>dependencies</title>
<polygon fill="white" stroke="transparent" points="-4,4 -4,-242.8 414,-242.8 414,4 -4,4"/>
<text text-anchor="middle" x="205" y="-8.2" font-family="sans-serif" font-size="14.00">dependencies</text>
<g id="clust1" class="cluster">
<title>cluster_SafeExpandedCommentModule</title>
<polygon fill="none" stroke="black" stroke-dasharray="1,5" points="8,-32.8 8,-230.8 402,-230.8 402,-32.8 8,-32.8"/>
</g>
<g id="clust2" class="cluster">
<title>cluster_SafeExpandedCommentModule_declarations</title>
<polygon fill="none" stroke="black" points="160,-40.8 160,-92.8 394,-92.8 394,-40.8 160,-40.8"/>
</g>
<g id="clust5" class="cluster">
<title>cluster_SafeExpandedCommentModule_exports</title>
<polygon fill="none" stroke="black" points="87,-170.8 87,-222.8 323,-222.8 323,-170.8 87,-170.8"/>
</g>
<g id="clust4" class="cluster">
<title>cluster_SafeExpandedCommentModule_imports</title>
<polygon fill="none" stroke="black" points="16,-40.8 16,-92.8 152,-92.8 152,-40.8 16,-40.8"/>
</g>
<!-- SafeExpandedCommentComponent -->
<g id="node1" class="node">
<title>SafeExpandedCommentComponent</title>
<polygon fill="#ffffb3" stroke="black" points="385.91,-84.8 168.09,-84.8 168.09,-48.8 385.91,-48.8 385.91,-84.8"/>
<text text-anchor="middle" x="277" y="-62.6" font-family="Times,serif" font-size="14.00">SafeExpandedCommentComponent</text>
</g>
<!-- SafeExpandedCommentModule -->
<g id="node2" class="node">
<title>SafeExpandedCommentModule</title>
<polygon fill="#8dd3c7" stroke="black" points="302.63,-149.8 299.63,-153.8 278.63,-153.8 275.63,-149.8 107.37,-149.8 107.37,-113.8 302.63,-113.8 302.63,-149.8"/>
<text text-anchor="middle" x="205" y="-127.6" font-family="Times,serif" font-size="14.00">SafeExpandedCommentModule</text>
</g>
<!-- SafeExpandedCommentComponent&#45;&gt;SafeExpandedCommentModule -->
<g id="edge1" class="edge">
<title>SafeExpandedCommentComponent&#45;&gt;SafeExpandedCommentModule</title>
<path fill="none" stroke="black" d="M235.56,-84.91C235.56,-84.91 235.56,-103.79 235.56,-103.79"/>
<polygon fill="black" stroke="black" points="232.06,-103.79 235.56,-113.79 239.06,-103.79 232.06,-103.79"/>
</g>
<!-- SafeExpandedCommentComponent  -->
<g id="node4" class="node">
<title>SafeExpandedCommentComponent </title>
<polygon fill="#fb8072" stroke="black" points="315.41,-214.8 94.59,-214.8 94.59,-178.8 315.41,-178.8 315.41,-214.8"/>
<text text-anchor="middle" x="205" y="-192.6" font-family="Times,serif" font-size="14.00">SafeExpandedCommentComponent </text>
</g>
<!-- SafeExpandedCommentModule&#45;&gt;SafeExpandedCommentComponent  -->
<g id="edge3" class="edge">
<title>SafeExpandedCommentModule&#45;&gt;SafeExpandedCommentComponent </title>
<path fill="none" stroke="black" stroke-dasharray="5,2" d="M205,-149.91C205,-149.91 205,-168.79 205,-168.79"/>
<polygon fill="black" stroke="black" points="201.5,-168.79 205,-178.79 208.5,-168.79 201.5,-168.79"/>
</g>
<!-- SafeModalModule -->
<g id="node3" class="node">
<title>SafeModalModule</title>
<polygon fill="#8dd3c7" stroke="black" points="144.48,-84.8 141.48,-88.8 120.48,-88.8 117.48,-84.8 23.52,-84.8 23.52,-48.8 144.48,-48.8 144.48,-84.8"/>
<text text-anchor="middle" x="84" y="-62.6" font-family="Times,serif" font-size="14.00">SafeModalModule</text>
</g>
<!-- SafeModalModule&#45;&gt;SafeExpandedCommentModule -->
<g id="edge2" class="edge">
<title>SafeModalModule&#45;&gt;SafeExpandedCommentModule</title>
<path fill="none" stroke="black" d="M125.84,-84.91C125.84,-84.91 125.84,-103.79 125.84,-103.79"/>
<polygon fill="black" stroke="black" points="122.34,-103.79 125.84,-113.79 129.34,-103.79 122.34,-103.79"/>
</g>
</g>
</svg>
