<?xml version="1.0" encoding="UTF-8" standalone="no"?>
<!DOCTYPE svg PUBLIC "-//W3C//DTD SVG 1.1//EN"
 "http://www.w3.org/Graphics/SVG/1.1/DTD/svg11.dtd">
<!-- Generated by graphviz version 3.0.0 (20220226.1711)
 -->
<!-- Title: dependencies Pages: 1 -->
<svg width="398pt" height="247pt"
 viewBox="0.00 0.00 398.00 246.80" xmlns="http://www.w3.org/2000/svg" xmlns:xlink="http://www.w3.org/1999/xlink">
<g id="graph0" class="graph" transform="scale(1 1) rotate(0) translate(4 242.8)">
<title>dependencies</title>
<polygon fill="white" stroke="transparent" points="-4,4 -4,-242.8 394,-242.8 394,4 -4,4"/>
<text text-anchor="middle" x="195" y="-8.2" font-family="sans-serif" font-size="14.00">dependencies</text>
<g id="clust1" class="cluster">
<title>cluster_ApplicationModule</title>
<polygon fill="none" stroke="black" stroke-dasharray="1,5" points="8,-32.8 8,-230.8 382,-230.8 382,-32.8 8,-32.8"/>
</g>
<g id="clust2" class="cluster">
<title>cluster_ApplicationModule_declarations</title>
<polygon fill="none" stroke="black" points="210,-40.8 210,-92.8 374,-92.8 374,-40.8 210,-40.8"/>
</g>
<g id="clust4" class="cluster">
<title>cluster_ApplicationModule_imports</title>
<polygon fill="none" stroke="black" points="16,-40.8 16,-92.8 202,-92.8 202,-40.8 16,-40.8"/>
</g>
<g id="clust5" class="cluster">
<title>cluster_ApplicationModule_exports</title>
<polygon fill="none" stroke="black" points="117,-170.8 117,-222.8 283,-222.8 283,-170.8 117,-170.8"/>
</g>
<!-- ApplicationComponent -->
<g id="node1" class="node">
<title>ApplicationComponent</title>
<polygon fill="#ffffb3" stroke="black" points="365.93,-84.8 218.07,-84.8 218.07,-48.8 365.93,-48.8 365.93,-84.8"/>
<text text-anchor="middle" x="292" y="-62.6" font-family="Times,serif" font-size="14.00">ApplicationComponent</text>
</g>
<!-- ApplicationModule -->
<g id="node2" class="node">
<title>ApplicationModule</title>
<polygon fill="#8dd3c7" stroke="black" points="262.65,-149.8 259.65,-153.8 238.65,-153.8 235.65,-149.8 137.35,-149.8 137.35,-113.8 262.65,-113.8 262.65,-149.8"/>
<text text-anchor="middle" x="200" y="-127.6" font-family="Times,serif" font-size="14.00">ApplicationModule</text>
</g>
<!-- ApplicationComponent&#45;&gt;ApplicationModule -->
<g id="edge1" class="edge">
<title>ApplicationComponent&#45;&gt;ApplicationModule</title>
<path fill="none" stroke="black" d="M240.56,-84.91C240.56,-84.91 240.56,-103.79 240.56,-103.79"/>
<polygon fill="black" stroke="black" points="237.06,-103.79 240.56,-113.79 244.06,-103.79 237.06,-103.79"/>
</g>
<!-- ApplicationComponent  -->
<g id="node4" class="node">
<title>ApplicationComponent </title>
<polygon fill="#fb8072" stroke="black" points="275.43,-214.8 124.57,-214.8 124.57,-178.8 275.43,-178.8 275.43,-214.8"/>
<text text-anchor="middle" x="200" y="-192.6" font-family="Times,serif" font-size="14.00">ApplicationComponent </text>
</g>
<!-- ApplicationModule&#45;&gt;ApplicationComponent  -->
<g id="edge3" class="edge">
<title>ApplicationModule&#45;&gt;ApplicationComponent </title>
<path fill="none" stroke="black" stroke-dasharray="5,2" d="M200,-149.91C200,-149.91 200,-168.79 200,-168.79"/>
<polygon fill="black" stroke="black" points="196.5,-168.79 200,-178.79 203.5,-168.79 196.5,-168.79"/>
</g>
<!-- ApplicationRoutingModule -->
<g id="node3" class="node">
<title>ApplicationRoutingModule</title>
<polygon fill="#8dd3c7" stroke="black" points="194.27,-84.8 191.27,-88.8 170.27,-88.8 167.27,-84.8 23.73,-84.8 23.73,-48.8 194.27,-48.8 194.27,-84.8"/>
<text text-anchor="middle" x="109" y="-62.6" font-family="Times,serif" font-size="14.00">ApplicationRoutingModule</text>
</g>
<!-- ApplicationRoutingModule&#45;&gt;ApplicationModule -->
<g id="edge2" class="edge">
<title>ApplicationRoutingModule&#45;&gt;ApplicationModule</title>
<path fill="none" stroke="black" d="M165.78,-84.91C165.78,-84.91 165.78,-103.79 165.78,-103.79"/>
<polygon fill="black" stroke="black" points="162.28,-103.79 165.78,-113.79 169.28,-103.79 162.28,-103.79"/>
</g>
</g>
</svg>
