<?xml version="1.0" encoding="UTF-8" standalone="no"?>
<!DOCTYPE svg PUBLIC "-//W3C//DTD SVG 1.1//EN"
 "http://www.w3.org/Graphics/SVG/1.1/DTD/svg11.dtd">
<!-- Generated by graphviz version 3.0.0 (20220226.1711)
 -->
<!-- Title: dependencies Pages: 1 -->
<svg width="398pt" height="247pt"
 viewBox="0.00 0.00 398.00 246.80" xmlns="http://www.w3.org/2000/svg" xmlns:xlink="http://www.w3.org/1999/xlink">
<g id="graph0" class="graph" transform="scale(1 1) rotate(0) translate(4 242.8)">
<title>dependencies</title>
<polygon fill="white" stroke="transparent" points="-4,4 -4,-242.8 394,-242.8 394,4 -4,4"/>
<text text-anchor="middle" x="195" y="-8.2" font-family="sans-serif" font-size="14.00">dependencies</text>
<g id="clust1" class="cluster">
<title>cluster_ApplicationModule</title>
<polygon fill="none" stroke="black" stroke-dasharray="1,5" points="8,-32.8 8,-230.8 382,-230.8 382,-32.8 8,-32.8"/>
</g>
<g id="clust4" class="cluster">
<title>cluster_ApplicationModule_imports</title>
<polygon fill="none" stroke="black" points="188,-40.8 188,-92.8 374,-92.8 374,-40.8 188,-40.8"/>
</g>
<g id="clust5" class="cluster">
<title>cluster_ApplicationModule_exports</title>
<polygon fill="none" stroke="black" points="107,-170.8 107,-222.8 273,-222.8 273,-170.8 107,-170.8"/>
</g>
<g id="clust2" class="cluster">
<title>cluster_ApplicationModule_declarations</title>
<polygon fill="none" stroke="black" points="16,-40.8 16,-92.8 180,-92.8 180,-40.8 16,-40.8"/>
</g>
<!-- ApplicationComponent -->
<g id="node1" class="node">
<title>ApplicationComponent</title>
<polygon fill="#ffffb3" stroke="black" points="171.93,-84.8 24.07,-84.8 24.07,-48.8 171.93,-48.8 171.93,-84.8"/>
<text text-anchor="middle" x="98" y="-62.6" font-family="Times,serif" font-size="14.00">ApplicationComponent</text>
</g>
<!-- ApplicationModule -->
<g id="node2" class="node">
<title>ApplicationModule</title>
<polygon fill="#8dd3c7" stroke="black" points="252.65,-149.8 249.65,-153.8 228.65,-153.8 225.65,-149.8 127.35,-149.8 127.35,-113.8 252.65,-113.8 252.65,-149.8"/>
<text text-anchor="middle" x="190" y="-127.6" font-family="Times,serif" font-size="14.00">ApplicationModule</text>
</g>
<!-- ApplicationComponent&#45;&gt;ApplicationModule -->
<g id="edge1" class="edge">
<title>ApplicationComponent&#45;&gt;ApplicationModule</title>
<path fill="none" stroke="black" d="M149.44,-84.91C149.44,-84.91 149.44,-103.79 149.44,-103.79"/>
<polygon fill="black" stroke="black" points="145.94,-103.79 149.44,-113.79 152.94,-103.79 145.94,-103.79"/>
</g>
<!-- ApplicationComponent  -->
<g id="node4" class="node">
<title>ApplicationComponent </title>
<polygon fill="#fb8072" stroke="black" points="265.43,-214.8 114.57,-214.8 114.57,-178.8 265.43,-178.8 265.43,-214.8"/>
<text text-anchor="middle" x="190" y="-192.6" font-family="Times,serif" font-size="14.00">ApplicationComponent </text>
</g>
<!-- ApplicationModule&#45;&gt;ApplicationComponent  -->
<g id="edge3" class="edge">
<title>ApplicationModule&#45;&gt;ApplicationComponent </title>
<path fill="none" stroke="black" stroke-dasharray="5,2" d="M190,-149.91C190,-149.91 190,-168.79 190,-168.79"/>
<polygon fill="black" stroke="black" points="186.5,-168.79 190,-178.79 193.5,-168.79 186.5,-168.79"/>
</g>
<!-- ApplicationRoutingModule -->
<g id="node3" class="node">
<title>ApplicationRoutingModule</title>
<polygon fill="#8dd3c7" stroke="black" points="366.27,-84.8 363.27,-88.8 342.27,-88.8 339.27,-84.8 195.73,-84.8 195.73,-48.8 366.27,-48.8 366.27,-84.8"/>
<text text-anchor="middle" x="281" y="-62.6" font-family="Times,serif" font-size="14.00">ApplicationRoutingModule</text>
</g>
<!-- ApplicationRoutingModule&#45;&gt;ApplicationModule -->
<g id="edge2" class="edge">
<title>ApplicationRoutingModule&#45;&gt;ApplicationModule</title>
<path fill="none" stroke="black" d="M224.22,-84.91C224.22,-84.91 224.22,-103.79 224.22,-103.79"/>
<polygon fill="black" stroke="black" points="220.72,-103.79 224.22,-113.79 227.72,-103.79 220.72,-103.79"/>
</g>
</g>
</svg>
