<?xml version="1.0" encoding="UTF-8" standalone="no"?>
<!DOCTYPE svg PUBLIC "-//W3C//DTD SVG 1.1//EN"
 "http://www.w3.org/Graphics/SVG/1.1/DTD/svg11.dtd">
<!-- Generated by graphviz version 3.0.0 (20220226.1711)
 -->
<!-- Title: dependencies Pages: 1 -->
<svg width="1066pt" height="247pt"
 viewBox="0.00 0.00 1066.00 246.80" xmlns="http://www.w3.org/2000/svg" xmlns:xlink="http://www.w3.org/1999/xlink">
<g id="graph0" class="graph" transform="scale(1 1) rotate(0) translate(4 242.8)">
<title>dependencies</title>
<polygon fill="white" stroke="transparent" points="-4,4 -4,-242.8 1062,-242.8 1062,4 -4,4"/>
<text text-anchor="middle" x="529" y="-8.2" font-family="sans-serif" font-size="14.00">dependencies</text>
<g id="clust1" class="cluster">
<title>cluster_SafeSummaryCardSettingsModule</title>
<polygon fill="none" stroke="black" stroke-dasharray="1,5" points="8,-32.8 8,-230.8 1050,-230.8 1050,-32.8 8,-32.8"/>
</g>
<g id="clust5" class="cluster">
<title>cluster_SafeSummaryCardSettingsModule_exports</title>
<polygon fill="none" stroke="black" points="466,-170.8 466,-222.8 718,-222.8 718,-170.8 466,-170.8"/>
</g>
<g id="clust4" class="cluster">
<title>cluster_SafeSummaryCardSettingsModule_imports</title>
<polygon fill="none" stroke="black" points="272,-40.8 272,-92.8 1042,-92.8 1042,-40.8 272,-40.8"/>
</g>
<g id="clust2" class="cluster">
<title>cluster_SafeSummaryCardSettingsModule_declarations</title>
<polygon fill="none" stroke="black" points="16,-40.8 16,-92.8 264,-92.8 264,-40.8 16,-40.8"/>
</g>
<!-- SafeSummaryCardSettingsComponent -->
<g id="node1" class="node">
<title>SafeSummaryCardSettingsComponent</title>
<polygon fill="#ffffb3" stroke="black" points="256.48,-84.8 23.52,-84.8 23.52,-48.8 256.48,-48.8 256.48,-84.8"/>
<text text-anchor="middle" x="140" y="-62.6" font-family="Times,serif" font-size="14.00">SafeSummaryCardSettingsComponent</text>
</g>
<!-- SafeSummaryCardSettingsModule -->
<g id="node2" class="node">
<title>SafeSummaryCardSettingsModule</title>
<polygon fill="#8dd3c7" stroke="black" points="697.7,-149.8 694.7,-153.8 673.7,-153.8 670.7,-149.8 486.3,-149.8 486.3,-113.8 697.7,-113.8 697.7,-149.8"/>
<text text-anchor="middle" x="592" y="-127.6" font-family="Times,serif" font-size="14.00">SafeSummaryCardSettingsModule</text>
</g>
<!-- SafeSummaryCardSettingsComponent&#45;&gt;SafeSummaryCardSettingsModule -->
<g id="edge1" class="edge">
<title>SafeSummaryCardSettingsComponent&#45;&gt;SafeSummaryCardSettingsModule</title>
<path fill="none" stroke="black" d="M140,-85.08C140,-106.12 140,-137.8 140,-137.8 140,-137.8 476.31,-137.8 476.31,-137.8"/>
<polygon fill="black" stroke="black" points="476.31,-141.3 486.31,-137.8 476.31,-134.3 476.31,-141.3"/>
</g>
<!-- SafeSummaryCardSettingsComponent  -->
<g id="node8" class="node">
<title>SafeSummaryCardSettingsComponent </title>
<polygon fill="#fb8072" stroke="black" points="710.48,-214.8 473.52,-214.8 473.52,-178.8 710.48,-178.8 710.48,-214.8"/>
<text text-anchor="middle" x="592" y="-192.6" font-family="Times,serif" font-size="14.00">SafeSummaryCardSettingsComponent </text>
</g>
<!-- SafeSummaryCardSettingsModule&#45;&gt;SafeSummaryCardSettingsComponent  -->
<g id="edge7" class="edge">
<title>SafeSummaryCardSettingsModule&#45;&gt;SafeSummaryCardSettingsComponent </title>
<path fill="none" stroke="black" stroke-dasharray="5,2" d="M592,-149.91C592,-149.91 592,-168.79 592,-168.79"/>
<polygon fill="black" stroke="black" points="588.5,-168.79 592,-178.79 595.5,-168.79 588.5,-168.79"/>
</g>
<!-- SafeAddCardModule -->
<g id="node3" class="node">
<title>SafeAddCardModule</title>
<polygon fill="#8dd3c7" stroke="black" points="1033.75,-84.8 1030.75,-88.8 1009.75,-88.8 1006.75,-84.8 898.25,-84.8 898.25,-48.8 1033.75,-48.8 1033.75,-84.8"/>
<text text-anchor="middle" x="966" y="-62.6" font-family="Times,serif" font-size="14.00">SafeAddCardModule</text>
</g>
<!-- SafeAddCardModule&#45;&gt;SafeSummaryCardSettingsModule -->
<g id="edge2" class="edge">
<title>SafeAddCardModule&#45;&gt;SafeSummaryCardSettingsModule</title>
<path fill="none" stroke="black" d="M966,-85.08C966,-106.12 966,-137.8 966,-137.8 966,-137.8 707.67,-137.8 707.67,-137.8"/>
<polygon fill="black" stroke="black" points="707.67,-134.3 697.67,-137.8 707.67,-141.3 707.67,-134.3"/>
</g>
<!-- SafeButtonModule -->
<g id="node4" class="node">
<title>SafeButtonModule</title>
<polygon fill="#8dd3c7" stroke="black" points="880.05,-84.8 877.05,-88.8 856.05,-88.8 853.05,-84.8 757.95,-84.8 757.95,-48.8 880.05,-48.8 880.05,-84.8"/>
<text text-anchor="middle" x="819" y="-62.6" font-family="Times,serif" font-size="14.00">SafeButtonModule</text>
</g>
<!-- SafeButtonModule&#45;&gt;SafeSummaryCardSettingsModule -->
<g id="edge3" class="edge">
<title>SafeButtonModule&#45;&gt;SafeSummaryCardSettingsModule</title>
<path fill="none" stroke="black" d="M819,-84.82C819,-102.17 819,-125.8 819,-125.8 819,-125.8 707.86,-125.8 707.86,-125.8"/>
<polygon fill="black" stroke="black" points="707.86,-122.3 697.86,-125.8 707.86,-129.3 707.86,-122.3"/>
</g>
<!-- SafeCardModalModule -->
<g id="node5" class="node">
<title>SafeCardModalModule</title>
<polygon fill="#8dd3c7" stroke="black" points="740.19,-84.8 737.19,-88.8 716.19,-88.8 713.19,-84.8 591.81,-84.8 591.81,-48.8 740.19,-48.8 740.19,-84.8"/>
<text text-anchor="middle" x="666" y="-62.6" font-family="Times,serif" font-size="14.00">SafeCardModalModule</text>
</g>
<!-- SafeCardModalModule&#45;&gt;SafeSummaryCardSettingsModule -->
<g id="edge4" class="edge">
<title>SafeCardModalModule&#45;&gt;SafeSummaryCardSettingsModule</title>
<path fill="none" stroke="black" d="M644.75,-84.91C644.75,-84.91 644.75,-103.79 644.75,-103.79"/>
<polygon fill="black" stroke="black" points="641.25,-103.79 644.75,-113.79 648.25,-103.79 641.25,-103.79"/>
</g>
<!-- SafeIconModule -->
<g id="node6" class="node">
<title>SafeIconModule</title>
<polygon fill="#8dd3c7" stroke="black" points="573.8,-84.8 570.8,-88.8 549.8,-88.8 546.8,-84.8 464.2,-84.8 464.2,-48.8 573.8,-48.8 573.8,-84.8"/>
<text text-anchor="middle" x="519" y="-62.6" font-family="Times,serif" font-size="14.00">SafeIconModule</text>
</g>
<!-- SafeIconModule&#45;&gt;SafeSummaryCardSettingsModule -->
<g id="edge5" class="edge">
<title>SafeIconModule&#45;&gt;SafeSummaryCardSettingsModule</title>
<path fill="none" stroke="black" d="M530.03,-84.91C530.03,-84.91 530.03,-103.79 530.03,-103.79"/>
<polygon fill="black" stroke="black" points="526.53,-103.79 530.03,-113.79 533.53,-103.79 526.53,-103.79"/>
</g>
<!-- SummaryCardItemModule -->
<g id="node7" class="node">
<title>SummaryCardItemModule</title>
<polygon fill="#8dd3c7" stroke="black" points="446.36,-84.8 443.36,-88.8 422.36,-88.8 419.36,-84.8 279.64,-84.8 279.64,-48.8 446.36,-48.8 446.36,-84.8"/>
<text text-anchor="middle" x="363" y="-62.6" font-family="Times,serif" font-size="14.00">SummaryCardItemModule</text>
</g>
<!-- SummaryCardItemModule&#45;&gt;SafeSummaryCardSettingsModule -->
<g id="edge6" class="edge">
<title>SummaryCardItemModule&#45;&gt;SafeSummaryCardSettingsModule</title>
<path fill="none" stroke="black" d="M363,-84.82C363,-102.17 363,-125.8 363,-125.8 363,-125.8 476.21,-125.8 476.21,-125.8"/>
<polygon fill="black" stroke="black" points="476.21,-129.3 486.21,-125.8 476.21,-122.3 476.21,-129.3"/>
</g>
</g>
</svg>
