<?xml version="1.0" encoding="UTF-8" standalone="no"?>
<!DOCTYPE svg PUBLIC "-//W3C//DTD SVG 1.1//EN"
 "http://www.w3.org/Graphics/SVG/1.1/DTD/svg11.dtd">
<!-- Generated by graphviz version 3.0.0 (20220226.1711)
 -->
<!-- Title: dependencies Pages: 1 -->
<svg width="1066pt" height="247pt"
 viewBox="0.00 0.00 1066.00 246.80" xmlns="http://www.w3.org/2000/svg" xmlns:xlink="http://www.w3.org/1999/xlink">
<g id="graph0" class="graph" transform="scale(1 1) rotate(0) translate(4 242.8)">
<title>dependencies</title>
<polygon fill="white" stroke="transparent" points="-4,4 -4,-242.8 1062,-242.8 1062,4 -4,4"/>
<text text-anchor="middle" x="529" y="-8.2" font-family="sans-serif" font-size="14.00">dependencies</text>
<g id="clust1" class="cluster">
<title>cluster_SafeSummaryCardSettingsModule</title>
<polygon fill="none" stroke="black" stroke-dasharray="1,5" points="8,-32.8 8,-230.8 1050,-230.8 1050,-32.8 8,-32.8"/>
</g>
<g id="clust5" class="cluster">
<title>cluster_SafeSummaryCardSettingsModule_exports</title>
<polygon fill="none" stroke="black" points="360,-170.8 360,-222.8 612,-222.8 612,-170.8 360,-170.8"/>
</g>
<g id="clust2" class="cluster">
<title>cluster_SafeSummaryCardSettingsModule_declarations</title>
<polygon fill="none" stroke="black" points="794,-40.8 794,-92.8 1042,-92.8 1042,-40.8 794,-40.8"/>
</g>
<g id="clust4" class="cluster">
<title>cluster_SafeSummaryCardSettingsModule_imports</title>
<polygon fill="none" stroke="black" points="16,-40.8 16,-92.8 786,-92.8 786,-40.8 16,-40.8"/>
</g>
<!-- SafeSummaryCardSettingsComponent -->
<g id="node1" class="node">
<title>SafeSummaryCardSettingsComponent</title>
<polygon fill="#ffffb3" stroke="black" points="1034.48,-84.8 801.52,-84.8 801.52,-48.8 1034.48,-48.8 1034.48,-84.8"/>
<text text-anchor="middle" x="918" y="-62.6" font-family="Times,serif" font-size="14.00">SafeSummaryCardSettingsComponent</text>
</g>
<!-- SafeSummaryCardSettingsModule -->
<g id="node2" class="node">
<title>SafeSummaryCardSettingsModule</title>
<polygon fill="#8dd3c7" stroke="black" points="591.7,-149.8 588.7,-153.8 567.7,-153.8 564.7,-149.8 380.3,-149.8 380.3,-113.8 591.7,-113.8 591.7,-149.8"/>
<text text-anchor="middle" x="486" y="-127.6" font-family="Times,serif" font-size="14.00">SafeSummaryCardSettingsModule</text>
</g>
<!-- SafeSummaryCardSettingsComponent&#45;&gt;SafeSummaryCardSettingsModule -->
<g id="edge1" class="edge">
<title>SafeSummaryCardSettingsComponent&#45;&gt;SafeSummaryCardSettingsModule</title>
<path fill="none" stroke="black" d="M918,-85.08C918,-106.12 918,-137.8 918,-137.8 918,-137.8 601.68,-137.8 601.68,-137.8"/>
<polygon fill="black" stroke="black" points="601.68,-134.3 591.68,-137.8 601.68,-141.3 601.68,-134.3"/>
</g>
<!-- SafeSummaryCardSettingsComponent  -->
<g id="node8" class="node">
<title>SafeSummaryCardSettingsComponent </title>
<polygon fill="#fb8072" stroke="black" points="604.48,-214.8 367.52,-214.8 367.52,-178.8 604.48,-178.8 604.48,-214.8"/>
<text text-anchor="middle" x="486" y="-192.6" font-family="Times,serif" font-size="14.00">SafeSummaryCardSettingsComponent </text>
</g>
<!-- SafeSummaryCardSettingsModule&#45;&gt;SafeSummaryCardSettingsComponent  -->
<g id="edge7" class="edge">
<title>SafeSummaryCardSettingsModule&#45;&gt;SafeSummaryCardSettingsComponent </title>
<path fill="none" stroke="black" stroke-dasharray="5,2" d="M486,-149.91C486,-149.91 486,-168.79 486,-168.79"/>
<polygon fill="black" stroke="black" points="482.5,-168.79 486,-178.79 489.5,-168.79 482.5,-168.79"/>
</g>
<!-- SafeAddCardModule -->
<g id="node3" class="node">
<title>SafeAddCardModule</title>
<polygon fill="#8dd3c7" stroke="black" points="777.75,-84.8 774.75,-88.8 753.75,-88.8 750.75,-84.8 642.25,-84.8 642.25,-48.8 777.75,-48.8 777.75,-84.8"/>
<text text-anchor="middle" x="710" y="-62.6" font-family="Times,serif" font-size="14.00">SafeAddCardModule</text>
</g>
<!-- SafeAddCardModule&#45;&gt;SafeSummaryCardSettingsModule -->
<g id="edge2" class="edge">
<title>SafeAddCardModule&#45;&gt;SafeSummaryCardSettingsModule</title>
<path fill="none" stroke="black" d="M710,-84.82C710,-102.17 710,-125.8 710,-125.8 710,-125.8 601.77,-125.8 601.77,-125.8"/>
<polygon fill="black" stroke="black" points="601.77,-122.3 591.77,-125.8 601.77,-129.3 601.77,-122.3"/>
</g>
<!-- SafeButtonModule -->
<g id="node4" class="node">
<title>SafeButtonModule</title>
<polygon fill="#8dd3c7" stroke="black" points="624.05,-84.8 621.05,-88.8 600.05,-88.8 597.05,-84.8 501.95,-84.8 501.95,-48.8 624.05,-48.8 624.05,-84.8"/>
<text text-anchor="middle" x="563" y="-62.6" font-family="Times,serif" font-size="14.00">SafeButtonModule</text>
</g>
<!-- SafeButtonModule&#45;&gt;SafeSummaryCardSettingsModule -->
<g id="edge3" class="edge">
<title>SafeButtonModule&#45;&gt;SafeSummaryCardSettingsModule</title>
<path fill="none" stroke="black" d="M546.66,-84.91C546.66,-84.91 546.66,-103.79 546.66,-103.79"/>
<polygon fill="black" stroke="black" points="543.16,-103.79 546.66,-113.79 550.16,-103.79 543.16,-103.79"/>
</g>
<!-- SafeCardModalModule -->
<g id="node5" class="node">
<title>SafeCardModalModule</title>
<polygon fill="#8dd3c7" stroke="black" points="484.19,-84.8 481.19,-88.8 460.19,-88.8 457.19,-84.8 335.81,-84.8 335.81,-48.8 484.19,-48.8 484.19,-84.8"/>
<text text-anchor="middle" x="410" y="-62.6" font-family="Times,serif" font-size="14.00">SafeCardModalModule</text>
</g>
<!-- SafeCardModalModule&#45;&gt;SafeSummaryCardSettingsModule -->
<g id="edge4" class="edge">
<title>SafeCardModalModule&#45;&gt;SafeSummaryCardSettingsModule</title>
<path fill="none" stroke="black" d="M432.25,-84.91C432.25,-84.91 432.25,-103.79 432.25,-103.79"/>
<polygon fill="black" stroke="black" points="428.75,-103.79 432.25,-113.79 435.75,-103.79 428.75,-103.79"/>
</g>
<!-- SafeIconModule -->
<g id="node6" class="node">
<title>SafeIconModule</title>
<polygon fill="#8dd3c7" stroke="black" points="317.8,-84.8 314.8,-88.8 293.8,-88.8 290.8,-84.8 208.2,-84.8 208.2,-48.8 317.8,-48.8 317.8,-84.8"/>
<text text-anchor="middle" x="263" y="-62.6" font-family="Times,serif" font-size="14.00">SafeIconModule</text>
</g>
<!-- SafeIconModule&#45;&gt;SafeSummaryCardSettingsModule -->
<g id="edge5" class="edge">
<title>SafeIconModule&#45;&gt;SafeSummaryCardSettingsModule</title>
<path fill="none" stroke="black" d="M263,-84.82C263,-102.17 263,-125.8 263,-125.8 263,-125.8 370.38,-125.8 370.38,-125.8"/>
<polygon fill="black" stroke="black" points="370.38,-129.3 380.38,-125.8 370.38,-122.3 370.38,-129.3"/>
</g>
<!-- SummaryCardItemModule -->
<g id="node7" class="node">
<title>SummaryCardItemModule</title>
<polygon fill="#8dd3c7" stroke="black" points="190.36,-84.8 187.36,-88.8 166.36,-88.8 163.36,-84.8 23.64,-84.8 23.64,-48.8 190.36,-48.8 190.36,-84.8"/>
<text text-anchor="middle" x="107" y="-62.6" font-family="Times,serif" font-size="14.00">SummaryCardItemModule</text>
</g>
<!-- SummaryCardItemModule&#45;&gt;SafeSummaryCardSettingsModule -->
<g id="edge6" class="edge">
<title>SummaryCardItemModule&#45;&gt;SafeSummaryCardSettingsModule</title>
<path fill="none" stroke="black" d="M107,-85.08C107,-106.12 107,-137.8 107,-137.8 107,-137.8 370.18,-137.8 370.18,-137.8"/>
<polygon fill="black" stroke="black" points="370.18,-141.3 380.18,-137.8 370.18,-134.3 370.18,-141.3"/>
</g>
</g>
</svg>
