<?xml version="1.0" encoding="UTF-8" standalone="no"?>
<!DOCTYPE svg PUBLIC "-//W3C//DTD SVG 1.1//EN"
 "http://www.w3.org/Graphics/SVG/1.1/DTD/svg11.dtd">
<!-- Generated by graphviz version 3.0.0 (20220226.1711)
 -->
<!-- Title: dependencies Pages: 1 -->
<svg width="881pt" height="247pt"
 viewBox="0.00 0.00 881.00 246.80" xmlns="http://www.w3.org/2000/svg" xmlns:xlink="http://www.w3.org/1999/xlink">
<g id="graph0" class="graph" transform="scale(1 1) rotate(0) translate(4 242.8)">
<title>dependencies</title>
<polygon fill="white" stroke="transparent" points="-4,4 -4,-242.8 877,-242.8 877,4 -4,4"/>
<text text-anchor="middle" x="436.5" y="-8.2" font-family="sans-serif" font-size="14.00">dependencies</text>
<g id="clust1" class="cluster">
<title>cluster_ApplicationsModule</title>
<polygon fill="none" stroke="black" stroke-dasharray="1,5" points="8,-32.8 8,-230.8 865,-230.8 865,-32.8 8,-32.8"/>
</g>
<g id="clust6" class="cluster">
<title>cluster_ApplicationsModule_exports</title>
<polygon fill="none" stroke="black" points="323,-170.8 323,-222.8 495,-222.8 495,-170.8 323,-170.8"/>
</g>
<g id="clust5" class="cluster">
<title>cluster_ApplicationsModule_imports</title>
<polygon fill="none" stroke="black" points="353,-40.8 353,-92.8 857,-92.8 857,-40.8 353,-40.8"/>
</g>
<g id="clust2" class="cluster">
<title>cluster_ApplicationsModule_declarations</title>
<polygon fill="none" stroke="black" points="16,-40.8 16,-92.8 345,-92.8 345,-40.8 16,-40.8"/>
</g>
<!-- ApplicationsComponent -->
<g id="node1" class="node">
<title>ApplicationsComponent</title>
<polygon fill="#ffffb3" stroke="black" points="337.38,-84.8 184.62,-84.8 184.62,-48.8 337.38,-48.8 337.38,-84.8"/>
<text text-anchor="middle" x="261" y="-62.6" font-family="Times,serif" font-size="14.00">ApplicationsComponent</text>
</g>
<!-- ApplicationsModule -->
<g id="node3" class="node">
<title>ApplicationsModule</title>
<polygon fill="#8dd3c7" stroke="black" points="474.6,-149.8 471.6,-153.8 450.6,-153.8 447.6,-149.8 343.4,-149.8 343.4,-113.8 474.6,-113.8 474.6,-149.8"/>
<text text-anchor="middle" x="409" y="-127.6" font-family="Times,serif" font-size="14.00">ApplicationsModule</text>
</g>
<!-- ApplicationsComponent&#45;&gt;ApplicationsModule -->
<g id="edge1" class="edge">
<title>ApplicationsComponent&#45;&gt;ApplicationsModule</title>
<path fill="none" stroke="black" d="M337.71,-66.8C346.5,-66.8 352.39,-66.8 352.39,-66.8 352.39,-66.8 352.39,-103.69 352.39,-103.69"/>
<polygon fill="black" stroke="black" points="348.89,-103.69 352.39,-113.69 355.89,-103.69 348.89,-103.69"/>
</g>
<!-- ChoseRoleComponent -->
<g id="node2" class="node">
<title>ChoseRoleComponent</title>
<polygon fill="#ffffb3" stroke="black" points="166.27,-84.8 23.73,-84.8 23.73,-48.8 166.27,-48.8 166.27,-84.8"/>
<text text-anchor="middle" x="95" y="-62.6" font-family="Times,serif" font-size="14.00">ChoseRoleComponent</text>
</g>
<!-- ChoseRoleComponent&#45;&gt;ApplicationsModule -->
<g id="edge2" class="edge">
<title>ChoseRoleComponent&#45;&gt;ApplicationsModule</title>
<path fill="none" stroke="black" d="M95,-84.91C95,-104.14 95,-131.8 95,-131.8 95,-131.8 333.18,-131.8 333.18,-131.8"/>
<polygon fill="black" stroke="black" points="333.18,-135.3 343.18,-131.8 333.18,-128.3 333.18,-135.3"/>
</g>
<!-- ApplicationsComponent  -->
<g id="node7" class="node">
<title>ApplicationsComponent </title>
<polygon fill="#fb8072" stroke="black" points="487.38,-214.8 330.62,-214.8 330.62,-178.8 487.38,-178.8 487.38,-214.8"/>
<text text-anchor="middle" x="409" y="-192.6" font-family="Times,serif" font-size="14.00">ApplicationsComponent </text>
</g>
<!-- ApplicationsModule&#45;&gt;ApplicationsComponent  -->
<g id="edge6" class="edge">
<title>ApplicationsModule&#45;&gt;ApplicationsComponent </title>
<path fill="none" stroke="black" stroke-dasharray="5,2" d="M409,-149.91C409,-149.91 409,-168.79 409,-168.79"/>
<polygon fill="black" stroke="black" points="405.5,-168.79 409,-178.79 412.5,-168.79 405.5,-168.79"/>
</g>
<!-- ApplicationsRoutingModule -->
<g id="node4" class="node">
<title>ApplicationsRoutingModule</title>
<polygon fill="#8dd3c7" stroke="black" points="849.21,-84.8 846.21,-88.8 825.21,-88.8 822.21,-84.8 672.79,-84.8 672.79,-48.8 849.21,-48.8 849.21,-84.8"/>
<text text-anchor="middle" x="761" y="-62.6" font-family="Times,serif" font-size="14.00">ApplicationsRoutingModule</text>
</g>
<!-- ApplicationsRoutingModule&#45;&gt;ApplicationsModule -->
<g id="edge3" class="edge">
<title>ApplicationsRoutingModule&#45;&gt;ApplicationsModule</title>
<path fill="none" stroke="black" d="M761,-85.08C761,-106.12 761,-137.8 761,-137.8 761,-137.8 484.8,-137.8 484.8,-137.8"/>
<polygon fill="black" stroke="black" points="484.8,-134.3 474.8,-137.8 484.8,-141.3 484.8,-134.3"/>
</g>
<!-- DuplicateApplicationModule -->
<g id="node5" class="node">
<title>DuplicateApplicationModule</title>
<polygon fill="#8dd3c7" stroke="black" points="655.07,-84.8 652.07,-88.8 631.07,-88.8 628.07,-84.8 474.93,-84.8 474.93,-48.8 655.07,-48.8 655.07,-84.8"/>
<text text-anchor="middle" x="565" y="-62.6" font-family="Times,serif" font-size="14.00">DuplicateApplicationModule</text>
</g>
<!-- DuplicateApplicationModule&#45;&gt;ApplicationsModule -->
<g id="edge4" class="edge">
<title>DuplicateApplicationModule&#45;&gt;ApplicationsModule</title>
<path fill="none" stroke="black" d="M481.08,-84.82C481.08,-102.17 481.08,-125.8 481.08,-125.8 481.08,-125.8 480.46,-125.8 480.46,-125.8"/>
<polygon fill="black" stroke="black" points="484.93,-122.3 474.93,-125.8 484.93,-129.3 484.93,-122.3"/>
</g>
<!-- FormsModule -->
<g id="node6" class="node">
<title>FormsModule</title>
<polygon fill="#8dd3c7" stroke="black" points="456.84,-84.8 453.84,-88.8 432.84,-88.8 429.84,-84.8 361.16,-84.8 361.16,-48.8 456.84,-48.8 456.84,-84.8"/>
<text text-anchor="middle" x="409" y="-62.6" font-family="Times,serif" font-size="14.00">FormsModule</text>
</g>
<!-- FormsModule&#45;&gt;ApplicationsModule -->
<g id="edge5" class="edge">
<title>FormsModule&#45;&gt;ApplicationsModule</title>
<path fill="none" stroke="black" d="M409,-84.91C409,-84.91 409,-103.79 409,-103.79"/>
<polygon fill="black" stroke="black" points="405.5,-103.79 409,-113.79 412.5,-103.79 405.5,-103.79"/>
</g>
</g>
</svg>
