<?xml version="1.0" encoding="UTF-8" standalone="no"?>
<!DOCTYPE svg PUBLIC "-//W3C//DTD SVG 1.1//EN"
 "http://www.w3.org/Graphics/SVG/1.1/DTD/svg11.dtd">
<!-- Generated by graphviz version 3.0.0 (20220226.1711)
 -->
<!-- Title: dependencies Pages: 1 -->
<svg width="823pt" height="174pt"
 viewBox="0.00 0.00 823.00 173.80" xmlns="http://www.w3.org/2000/svg" xmlns:xlink="http://www.w3.org/1999/xlink">
<g id="graph0" class="graph" transform="scale(1 1) rotate(0) translate(4 169.8)">
<title>dependencies</title>
<polygon fill="white" stroke="transparent" points="-4,4 -4,-169.8 819,-169.8 819,4 -4,4"/>
<text text-anchor="middle" x="407.5" y="-8.2" font-family="sans-serif" font-size="14.00">dependencies</text>
<g id="clust1" class="cluster">
<title>cluster_ChannelsModule</title>
<polygon fill="none" stroke="black" stroke-dasharray="1,5" points="8,-32.8 8,-157.8 807,-157.8 807,-32.8 8,-32.8"/>
</g>
<g id="clust2" class="cluster">
<title>cluster_ChannelsModule_declarations</title>
<polygon fill="none" stroke="black" points="310,-40.8 310,-92.8 799,-92.8 799,-40.8 310,-40.8"/>
</g>
<g id="clust6" class="cluster">
<title>cluster_ChannelsModule_imports</title>
<polygon fill="none" stroke="black" points="16,-40.8 16,-92.8 302,-92.8 302,-40.8 16,-40.8"/>
</g>
<!-- AddChannelComponent -->
<g id="node1" class="node">
<title>AddChannelComponent</title>
<polygon fill="#ffffb3" stroke="black" points="791.1,-84.8 638.9,-84.8 638.9,-48.8 791.1,-48.8 791.1,-84.8"/>
<text text-anchor="middle" x="715" y="-62.6" font-family="Times,serif" font-size="14.00">AddChannelComponent</text>
</g>
<!-- ChannelsModule -->
<g id="node4" class="node">
<title>ChannelsModule</title>
<polygon fill="#8dd3c7" stroke="black" points="449.66,-149.8 446.66,-153.8 425.66,-153.8 422.66,-149.8 338.34,-149.8 338.34,-113.8 449.66,-113.8 449.66,-149.8"/>
<text text-anchor="middle" x="394" y="-127.6" font-family="Times,serif" font-size="14.00">ChannelsModule</text>
</g>
<!-- AddChannelComponent&#45;&gt;ChannelsModule -->
<g id="edge1" class="edge">
<title>AddChannelComponent&#45;&gt;ChannelsModule</title>
<path fill="none" stroke="black" d="M715,-85.08C715,-106.12 715,-137.8 715,-137.8 715,-137.8 459.91,-137.8 459.91,-137.8"/>
<polygon fill="black" stroke="black" points="459.91,-134.3 449.91,-137.8 459.91,-141.3 459.91,-134.3"/>
</g>
<!-- ChannelsComponent -->
<g id="node2" class="node">
<title>ChannelsComponent</title>
<polygon fill="#ffffb3" stroke="black" points="620.94,-84.8 487.06,-84.8 487.06,-48.8 620.94,-48.8 620.94,-84.8"/>
<text text-anchor="middle" x="554" y="-62.6" font-family="Times,serif" font-size="14.00">ChannelsComponent</text>
</g>
<!-- ChannelsComponent&#45;&gt;ChannelsModule -->
<g id="edge2" class="edge">
<title>ChannelsComponent&#45;&gt;ChannelsModule</title>
<path fill="none" stroke="black" d="M554,-84.82C554,-102.17 554,-125.8 554,-125.8 554,-125.8 459.96,-125.8 459.96,-125.8"/>
<polygon fill="black" stroke="black" points="459.96,-122.3 449.96,-125.8 459.96,-129.3 459.96,-122.3"/>
</g>
<!-- EditChannelComponent -->
<g id="node3" class="node">
<title>EditChannelComponent</title>
<polygon fill="#ffffb3" stroke="black" points="469.82,-84.8 318.18,-84.8 318.18,-48.8 469.82,-48.8 469.82,-84.8"/>
<text text-anchor="middle" x="394" y="-62.6" font-family="Times,serif" font-size="14.00">EditChannelComponent</text>
</g>
<!-- EditChannelComponent&#45;&gt;ChannelsModule -->
<g id="edge3" class="edge">
<title>EditChannelComponent&#45;&gt;ChannelsModule</title>
<path fill="none" stroke="black" d="M394,-84.91C394,-84.91 394,-103.79 394,-103.79"/>
<polygon fill="black" stroke="black" points="390.5,-103.79 394,-113.79 397.5,-103.79 390.5,-103.79"/>
</g>
<!-- ChannelsRoutingModule -->
<g id="node5" class="node">
<title>ChannelsRoutingModule</title>
<polygon fill="#8dd3c7" stroke="black" points="294.27,-84.8 291.27,-88.8 270.27,-88.8 267.27,-84.8 137.73,-84.8 137.73,-48.8 294.27,-48.8 294.27,-84.8"/>
<text text-anchor="middle" x="216" y="-62.6" font-family="Times,serif" font-size="14.00">ChannelsRoutingModule</text>
</g>
<!-- ChannelsRoutingModule&#45;&gt;ChannelsModule -->
<g id="edge4" class="edge">
<title>ChannelsRoutingModule&#45;&gt;ChannelsModule</title>
<path fill="none" stroke="black" d="M216,-84.82C216,-102.17 216,-125.8 216,-125.8 216,-125.8 328.17,-125.8 328.17,-125.8"/>
<polygon fill="black" stroke="black" points="328.17,-129.3 338.17,-125.8 328.17,-122.3 328.17,-129.3"/>
</g>
<!-- FormsModule -->
<g id="node6" class="node">
<title>FormsModule</title>
<polygon fill="#8dd3c7" stroke="black" points="119.84,-84.8 116.84,-88.8 95.84,-88.8 92.84,-84.8 24.16,-84.8 24.16,-48.8 119.84,-48.8 119.84,-84.8"/>
<text text-anchor="middle" x="72" y="-62.6" font-family="Times,serif" font-size="14.00">FormsModule</text>
</g>
<!-- FormsModule&#45;&gt;ChannelsModule -->
<g id="edge5" class="edge">
<title>FormsModule&#45;&gt;ChannelsModule</title>
<path fill="none" stroke="black" d="M72,-85.08C72,-106.12 72,-137.8 72,-137.8 72,-137.8 328.28,-137.8 328.28,-137.8"/>
<polygon fill="black" stroke="black" points="328.28,-141.3 338.28,-137.8 328.28,-134.3 328.28,-141.3"/>
</g>
</g>
</svg>
