<?xml version="1.0" encoding="UTF-8" standalone="no"?>
<!DOCTYPE svg PUBLIC "-//W3C//DTD SVG 1.1//EN"
 "http://www.w3.org/Graphics/SVG/1.1/DTD/svg11.dtd">
<!-- Generated by graphviz version 3.0.0 (20220226.1711)
 -->
<!-- Title: dependencies Pages: 1 -->
<svg width="823pt" height="174pt"
 viewBox="0.00 0.00 823.00 173.80" xmlns="http://www.w3.org/2000/svg" xmlns:xlink="http://www.w3.org/1999/xlink">
<g id="graph0" class="graph" transform="scale(1 1) rotate(0) translate(4 169.8)">
<title>dependencies</title>
<polygon fill="white" stroke="transparent" points="-4,4 -4,-169.8 819,-169.8 819,4 -4,4"/>
<text text-anchor="middle" x="407.5" y="-8.2" font-family="sans-serif" font-size="14.00">dependencies</text>
<g id="clust1" class="cluster">
<title>cluster_ChannelsModule</title>
<polygon fill="none" stroke="black" stroke-dasharray="1,5" points="8,-32.8 8,-157.8 807,-157.8 807,-32.8 8,-32.8"/>
</g>
<g id="clust6" class="cluster">
<title>cluster_ChannelsModule_imports</title>
<polygon fill="none" stroke="black" points="513,-40.8 513,-92.8 799,-92.8 799,-40.8 513,-40.8"/>
</g>
<g id="clust2" class="cluster">
<title>cluster_ChannelsModule_declarations</title>
<polygon fill="none" stroke="black" points="16,-40.8 16,-92.8 505,-92.8 505,-40.8 16,-40.8"/>
</g>
<!-- AddChannelComponent -->
<g id="node1" class="node">
<title>AddChannelComponent</title>
<polygon fill="#ffffb3" stroke="black" points="497.1,-84.8 344.9,-84.8 344.9,-48.8 497.1,-48.8 497.1,-84.8"/>
<text text-anchor="middle" x="421" y="-62.6" font-family="Times,serif" font-size="14.00">AddChannelComponent</text>
</g>
<!-- ChannelsModule -->
<g id="node4" class="node">
<title>ChannelsModule</title>
<polygon fill="#8dd3c7" stroke="black" points="476.66,-149.8 473.66,-153.8 452.66,-153.8 449.66,-149.8 365.34,-149.8 365.34,-113.8 476.66,-113.8 476.66,-149.8"/>
<text text-anchor="middle" x="421" y="-127.6" font-family="Times,serif" font-size="14.00">ChannelsModule</text>
</g>
<!-- AddChannelComponent&#45;&gt;ChannelsModule -->
<g id="edge1" class="edge">
<title>AddChannelComponent&#45;&gt;ChannelsModule</title>
<path fill="none" stroke="black" d="M421,-84.91C421,-84.91 421,-103.79 421,-103.79"/>
<polygon fill="black" stroke="black" points="417.5,-103.79 421,-113.79 424.5,-103.79 417.5,-103.79"/>
</g>
<!-- ChannelsComponent -->
<g id="node2" class="node">
<title>ChannelsComponent</title>
<polygon fill="#ffffb3" stroke="black" points="326.94,-84.8 193.06,-84.8 193.06,-48.8 326.94,-48.8 326.94,-84.8"/>
<text text-anchor="middle" x="260" y="-62.6" font-family="Times,serif" font-size="14.00">ChannelsComponent</text>
</g>
<!-- ChannelsComponent&#45;&gt;ChannelsModule -->
<g id="edge2" class="edge">
<title>ChannelsComponent&#45;&gt;ChannelsModule</title>
<path fill="none" stroke="black" d="M260,-84.82C260,-102.17 260,-125.8 260,-125.8 260,-125.8 355.14,-125.8 355.14,-125.8"/>
<polygon fill="black" stroke="black" points="355.14,-129.3 365.14,-125.8 355.14,-122.3 355.14,-129.3"/>
</g>
<!-- EditChannelComponent -->
<g id="node3" class="node">
<title>EditChannelComponent</title>
<polygon fill="#ffffb3" stroke="black" points="175.82,-84.8 24.18,-84.8 24.18,-48.8 175.82,-48.8 175.82,-84.8"/>
<text text-anchor="middle" x="100" y="-62.6" font-family="Times,serif" font-size="14.00">EditChannelComponent</text>
</g>
<!-- EditChannelComponent&#45;&gt;ChannelsModule -->
<g id="edge3" class="edge">
<title>EditChannelComponent&#45;&gt;ChannelsModule</title>
<path fill="none" stroke="black" d="M100,-85.08C100,-106.12 100,-137.8 100,-137.8 100,-137.8 355.09,-137.8 355.09,-137.8"/>
<polygon fill="black" stroke="black" points="355.09,-141.3 365.09,-137.8 355.09,-134.3 355.09,-141.3"/>
</g>
<!-- ChannelsRoutingModule -->
<g id="node5" class="node">
<title>ChannelsRoutingModule</title>
<polygon fill="#8dd3c7" stroke="black" points="791.27,-84.8 788.27,-88.8 767.27,-88.8 764.27,-84.8 634.73,-84.8 634.73,-48.8 791.27,-48.8 791.27,-84.8"/>
<text text-anchor="middle" x="713" y="-62.6" font-family="Times,serif" font-size="14.00">ChannelsRoutingModule</text>
</g>
<!-- ChannelsRoutingModule&#45;&gt;ChannelsModule -->
<g id="edge4" class="edge">
<title>ChannelsRoutingModule&#45;&gt;ChannelsModule</title>
<path fill="none" stroke="black" d="M713,-85.08C713,-106.12 713,-137.8 713,-137.8 713,-137.8 486.96,-137.8 486.96,-137.8"/>
<polygon fill="black" stroke="black" points="486.96,-134.3 476.96,-137.8 486.96,-141.3 486.96,-134.3"/>
</g>
<!-- FormsModule -->
<g id="node6" class="node">
<title>FormsModule</title>
<polygon fill="#8dd3c7" stroke="black" points="616.84,-84.8 613.84,-88.8 592.84,-88.8 589.84,-84.8 521.16,-84.8 521.16,-48.8 616.84,-48.8 616.84,-84.8"/>
<text text-anchor="middle" x="569" y="-62.6" font-family="Times,serif" font-size="14.00">FormsModule</text>
</g>
<!-- FormsModule&#45;&gt;ChannelsModule -->
<g id="edge5" class="edge">
<title>FormsModule&#45;&gt;ChannelsModule</title>
<path fill="none" stroke="black" d="M569,-84.82C569,-102.17 569,-125.8 569,-125.8 569,-125.8 486.95,-125.8 486.95,-125.8"/>
<polygon fill="black" stroke="black" points="486.95,-122.3 476.95,-125.8 486.95,-129.3 486.95,-122.3"/>
</g>
</g>
</svg>
