<?xml version="1.0" encoding="UTF-8" standalone="no"?>
<!DOCTYPE svg PUBLIC "-//W3C//DTD SVG 1.1//EN"
 "http://www.w3.org/Graphics/SVG/1.1/DTD/svg11.dtd">
<!-- Generated by graphviz version 3.0.0 (20220226.1711)
 -->
<!-- Title: dependencies Pages: 1 -->
<svg width="250pt" height="247pt"
 viewBox="0.00 0.00 250.00 246.80" xmlns="http://www.w3.org/2000/svg" xmlns:xlink="http://www.w3.org/1999/xlink">
<g id="graph0" class="graph" transform="scale(1 1) rotate(0) translate(4 242.8)">
<title>dependencies</title>
<polygon fill="white" stroke="transparent" points="-4,4 -4,-242.8 246,-242.8 246,4 -4,4"/>
<text text-anchor="middle" x="121" y="-8.2" font-family="sans-serif" font-size="14.00">dependencies</text>
<g id="clust1" class="cluster">
<title>cluster_SafeContentChoiceModule</title>
<polygon fill="none" stroke="black" stroke-dasharray="1,5" points="8,-32.8 8,-230.8 234,-230.8 234,-32.8 8,-32.8"/>
</g>
<g id="clust2" class="cluster">
<title>cluster_SafeContentChoiceModule_declarations</title>
<polygon fill="none" stroke="black" points="18,-40.8 18,-92.8 224,-92.8 224,-40.8 18,-40.8"/>
</g>
<g id="clust5" class="cluster">
<title>cluster_SafeContentChoiceModule_exports</title>
<polygon fill="none" stroke="black" points="16,-170.8 16,-222.8 226,-222.8 226,-170.8 16,-170.8"/>
</g>
<!-- SafeContentChoiceComponent -->
<g id="node1" class="node">
<title>SafeContentChoiceComponent</title>
<polygon fill="#ffffb3" stroke="black" points="216.19,-84.8 25.81,-84.8 25.81,-48.8 216.19,-48.8 216.19,-84.8"/>
<text text-anchor="middle" x="121" y="-62.6" font-family="Times,serif" font-size="14.00">SafeContentChoiceComponent</text>
</g>
<!-- SafeContentChoiceModule -->
<g id="node2" class="node">
<title>SafeContentChoiceModule</title>
<polygon fill="#8dd3c7" stroke="black" points="205.41,-149.8 202.41,-153.8 181.41,-153.8 178.41,-149.8 36.59,-149.8 36.59,-113.8 205.41,-113.8 205.41,-149.8"/>
<text text-anchor="middle" x="121" y="-127.6" font-family="Times,serif" font-size="14.00">SafeContentChoiceModule</text>
</g>
<!-- SafeContentChoiceComponent&#45;&gt;SafeContentChoiceModule -->
<g id="edge1" class="edge">
<title>SafeContentChoiceComponent&#45;&gt;SafeContentChoiceModule</title>
<path fill="none" stroke="black" d="M121,-84.91C121,-84.91 121,-103.79 121,-103.79"/>
<polygon fill="black" stroke="black" points="117.5,-103.79 121,-113.79 124.5,-103.79 117.5,-103.79"/>
</g>
<!-- SafeContentChoiceComponent  -->
<g id="node3" class="node">
<title>SafeContentChoiceComponent </title>
<polygon fill="#fb8072" stroke="black" points="217.69,-214.8 24.31,-214.8 24.31,-178.8 217.69,-178.8 217.69,-214.8"/>
<text text-anchor="middle" x="121" y="-192.6" font-family="Times,serif" font-size="14.00">SafeContentChoiceComponent </text>
</g>
<!-- SafeContentChoiceModule&#45;&gt;SafeContentChoiceComponent  -->
<g id="edge2" class="edge">
<title>SafeContentChoiceModule&#45;&gt;SafeContentChoiceComponent </title>
<path fill="none" stroke="black" stroke-dasharray="5,2" d="M121,-149.91C121,-149.91 121,-168.79 121,-168.79"/>
<polygon fill="black" stroke="black" points="117.5,-168.79 121,-178.79 124.5,-168.79 117.5,-168.79"/>
</g>
</g>
</svg>
