<?xml version="1.0" encoding="UTF-8" standalone="no"?>
<!DOCTYPE svg PUBLIC "-//W3C//DTD SVG 1.1//EN"
 "http://www.w3.org/Graphics/SVG/1.1/DTD/svg11.dtd">
<!-- Generated by graphviz version 3.0.0 (20220226.1711)
 -->
<!-- Title: dependencies Pages: 1 -->
<svg width="354pt" height="312pt"
 viewBox="0.00 0.00 354.00 311.80" xmlns="http://www.w3.org/2000/svg" xmlns:xlink="http://www.w3.org/1999/xlink">
<g id="graph0" class="graph" transform="scale(1 1) rotate(0) translate(4 307.8)">
<title>dependencies</title>
<polygon fill="white" stroke="transparent" points="-4,4 -4,-307.8 350,-307.8 350,4 -4,4"/>
<text text-anchor="middle" x="173" y="-8.2" font-family="sans-serif" font-size="14.00">dependencies</text>
<g id="clust1" class="cluster">
<title>cluster_SafeContentChoiceModule</title>
<polygon fill="none" stroke="black" stroke-dasharray="1,5" points="8,-32.8 8,-295.8 338,-295.8 338,-32.8 8,-32.8"/>
</g>
<g id="clust2" class="cluster">
<title>cluster_SafeContentChoiceModule_declarations</title>
<polygon fill="none" stroke="black" points="70,-105.8 70,-157.8 276,-157.8 276,-105.8 70,-105.8"/>
</g>
<g id="clust5" class="cluster">
<title>cluster_SafeContentChoiceModule_exports</title>
<polygon fill="none" stroke="black" points="68,-235.8 68,-287.8 278,-287.8 278,-235.8 68,-235.8"/>
</g>
<g id="clust3" class="cluster">
<title>cluster_SafeContentChoiceModule_SafeContentChoiceComponent_providers</title>
<polygon fill="none" stroke="black" points="16,-40.8 16,-92.8 330,-92.8 330,-40.8 16,-40.8"/>
</g>
<!-- SafeContentChoiceComponent -->
<g id="node1" class="node">
<title>SafeContentChoiceComponent</title>
<polygon fill="#ffffb3" stroke="black" points="268.19,-149.8 77.81,-149.8 77.81,-113.8 268.19,-113.8 268.19,-149.8"/>
<text text-anchor="middle" x="173" y="-127.6" font-family="Times,serif" font-size="14.00">SafeContentChoiceComponent</text>
</g>
<!-- SafeContentChoiceModule -->
<g id="node2" class="node">
<title>SafeContentChoiceModule</title>
<polygon fill="#8dd3c7" stroke="black" points="257.41,-214.8 254.41,-218.8 233.41,-218.8 230.41,-214.8 88.59,-214.8 88.59,-178.8 257.41,-178.8 257.41,-214.8"/>
<text text-anchor="middle" x="173" y="-192.6" font-family="Times,serif" font-size="14.00">SafeContentChoiceModule</text>
</g>
<!-- SafeContentChoiceComponent&#45;&gt;SafeContentChoiceModule -->
<g id="edge1" class="edge">
<title>SafeContentChoiceComponent&#45;&gt;SafeContentChoiceModule</title>
<path fill="none" stroke="black" d="M173,-149.91C173,-149.91 173,-168.79 173,-168.79"/>
<polygon fill="black" stroke="black" points="169.5,-168.79 173,-178.79 176.5,-168.79 169.5,-168.79"/>
</g>
<!-- SafeContentChoiceComponent  -->
<g id="node4" class="node">
<title>SafeContentChoiceComponent </title>
<polygon fill="#fb8072" stroke="black" points="269.69,-279.8 76.31,-279.8 76.31,-243.8 269.69,-243.8 269.69,-279.8"/>
<text text-anchor="middle" x="173" y="-257.6" font-family="Times,serif" font-size="14.00">SafeContentChoiceComponent </text>
</g>
<!-- SafeContentChoiceModule&#45;&gt;SafeContentChoiceComponent  -->
<g id="edge3" class="edge">
<title>SafeContentChoiceModule&#45;&gt;SafeContentChoiceComponent </title>
<path fill="none" stroke="black" stroke-dasharray="5,2" d="M173,-214.91C173,-214.91 173,-233.79 173,-233.79"/>
<polygon fill="black" stroke="black" points="169.5,-233.79 173,-243.79 176.5,-233.79 169.5,-233.79"/>
</g>
<!-- CONTROL_VALUE_ACCESSOR -->
<g id="node3" class="node">
<title>CONTROL_VALUE_ACCESSOR</title>
<ellipse fill="#fdb462" stroke="black" cx="173" cy="-66.8" rx="148.85" ry="18"/>
<text text-anchor="middle" x="173" y="-62.6" font-family="Times,serif" font-size="14.00">CONTROL_VALUE_ACCESSOR</text>
</g>
<!-- CONTROL_VALUE_ACCESSOR&#45;&gt;SafeContentChoiceComponent -->
<g id="edge2" class="edge">
<title>CONTROL_VALUE_ACCESSOR&#45;&gt;SafeContentChoiceComponent</title>
<path fill="none" stroke="black" d="M173,-84.91C173,-84.91 173,-103.79 173,-103.79"/>
<polygon fill="black" stroke="black" points="169.5,-103.79 173,-113.79 176.5,-103.79 169.5,-103.79"/>
</g>
</g>
</svg>
