<?xml version="1.0" encoding="UTF-8" standalone="no"?>
<!DOCTYPE svg PUBLIC "-//W3C//DTD SVG 1.1//EN"
 "http://www.w3.org/Graphics/SVG/1.1/DTD/svg11.dtd">
<!-- Generated by graphviz version 3.0.0 (20220226.1711)
 -->
<!-- Title: dependencies Pages: 1 -->
<svg width="466pt" height="247pt"
 viewBox="0.00 0.00 466.00 246.80" xmlns="http://www.w3.org/2000/svg" xmlns:xlink="http://www.w3.org/1999/xlink">
<g id="graph0" class="graph" transform="scale(1 1) rotate(0) translate(4 242.8)">
<title>dependencies</title>
<polygon fill="white" stroke="transparent" points="-4,4 -4,-242.8 462,-242.8 462,4 -4,4"/>
<text text-anchor="middle" x="229" y="-8.2" font-family="sans-serif" font-size="14.00">dependencies</text>
<g id="clust1" class="cluster">
<title>cluster_SafePreviewTabModule</title>
<polygon fill="none" stroke="black" stroke-dasharray="1,5" points="8,-32.8 8,-230.8 450,-230.8 450,-32.8 8,-32.8"/>
</g>
<g id="clust5" class="cluster">
<title>cluster_SafePreviewTabModule_exports</title>
<polygon fill="none" stroke="black" points="123,-170.8 123,-222.8 317,-222.8 317,-170.8 123,-170.8"/>
</g>
<g id="clust4" class="cluster">
<title>cluster_SafePreviewTabModule_imports</title>
<polygon fill="none" stroke="black" points="214,-40.8 214,-92.8 442,-92.8 442,-40.8 214,-40.8"/>
</g>
<g id="clust2" class="cluster">
<title>cluster_SafePreviewTabModule_declarations</title>
<polygon fill="none" stroke="black" points="16,-40.8 16,-92.8 206,-92.8 206,-40.8 16,-40.8"/>
</g>
<!-- SafePreviewTabComponent -->
<g id="node1" class="node">
<title>SafePreviewTabComponent</title>
<polygon fill="#ffffb3" stroke="black" points="197.85,-84.8 24.15,-84.8 24.15,-48.8 197.85,-48.8 197.85,-84.8"/>
<text text-anchor="middle" x="111" y="-62.6" font-family="Times,serif" font-size="14.00">SafePreviewTabComponent</text>
</g>
<!-- SafePreviewTabModule -->
<g id="node2" class="node">
<title>SafePreviewTabModule</title>
<polygon fill="#8dd3c7" stroke="black" points="296.07,-149.8 293.07,-153.8 272.07,-153.8 269.07,-149.8 143.93,-149.8 143.93,-113.8 296.07,-113.8 296.07,-149.8"/>
<text text-anchor="middle" x="220" y="-127.6" font-family="Times,serif" font-size="14.00">SafePreviewTabModule</text>
</g>
<!-- SafePreviewTabComponent&#45;&gt;SafePreviewTabModule -->
<g id="edge1" class="edge">
<title>SafePreviewTabComponent&#45;&gt;SafePreviewTabModule</title>
<path fill="none" stroke="black" d="M170.94,-84.91C170.94,-84.91 170.94,-103.79 170.94,-103.79"/>
<polygon fill="black" stroke="black" points="167.44,-103.79 170.94,-113.79 174.44,-103.79 167.44,-103.79"/>
</g>
<!-- SafePreviewTabComponent  -->
<g id="node4" class="node">
<title>SafePreviewTabComponent </title>
<polygon fill="#fb8072" stroke="black" points="308.85,-214.8 131.15,-214.8 131.15,-178.8 308.85,-178.8 308.85,-214.8"/>
<text text-anchor="middle" x="220" y="-192.6" font-family="Times,serif" font-size="14.00">SafePreviewTabComponent </text>
</g>
<!-- SafePreviewTabModule&#45;&gt;SafePreviewTabComponent  -->
<g id="edge3" class="edge">
<title>SafePreviewTabModule&#45;&gt;SafePreviewTabComponent </title>
<path fill="none" stroke="black" stroke-dasharray="5,2" d="M220,-149.91C220,-149.91 220,-168.79 220,-168.79"/>
<polygon fill="black" stroke="black" points="216.5,-168.79 220,-178.79 223.5,-168.79 216.5,-168.79"/>
</g>
<!-- SummaryCardItemContentModule -->
<g id="node3" class="node">
<title>SummaryCardItemContentModule</title>
<polygon fill="#8dd3c7" stroke="black" points="433.69,-84.8 430.69,-88.8 409.69,-88.8 406.69,-84.8 222.31,-84.8 222.31,-48.8 433.69,-48.8 433.69,-84.8"/>
<text text-anchor="middle" x="328" y="-62.6" font-family="Times,serif" font-size="14.00">SummaryCardItemContentModule</text>
</g>
<!-- SummaryCardItemContentModule&#45;&gt;SafePreviewTabModule -->
<g id="edge2" class="edge">
<title>SummaryCardItemContentModule&#45;&gt;SafePreviewTabModule</title>
<path fill="none" stroke="black" d="M259.22,-84.91C259.22,-84.91 259.22,-103.79 259.22,-103.79"/>
<polygon fill="black" stroke="black" points="255.72,-103.79 259.22,-113.79 262.72,-103.79 255.72,-103.79"/>
</g>
</g>
</svg>
