<?xml version="1.0" encoding="UTF-8" standalone="no"?>
<!DOCTYPE svg PUBLIC "-//W3C//DTD SVG 1.1//EN"
 "http://www.w3.org/Graphics/SVG/1.1/DTD/svg11.dtd">
<!-- Generated by graphviz version 3.0.0 (20220226.1711)
 -->
<!-- Title: dependencies Pages: 1 -->
<svg width="384pt" height="247pt"
 viewBox="0.00 0.00 384.00 246.80" xmlns="http://www.w3.org/2000/svg" xmlns:xlink="http://www.w3.org/1999/xlink">
<g id="graph0" class="graph" transform="scale(1 1) rotate(0) translate(4 242.8)">
<title>dependencies</title>
<polygon fill="white" stroke="transparent" points="-4,4 -4,-242.8 380,-242.8 380,4 -4,4"/>
<text text-anchor="middle" x="188" y="-8.2" font-family="sans-serif" font-size="14.00">dependencies</text>
<g id="clust1" class="cluster">
<title>cluster_SafeInviteUsersModule</title>
<polygon fill="none" stroke="black" stroke-dasharray="1,5" points="8,-32.8 8,-230.8 368,-230.8 368,-32.8 8,-32.8"/>
</g>
<g id="clust2" class="cluster">
<title>cluster_SafeInviteUsersModule_declarations</title>
<polygon fill="none" stroke="black" points="174,-40.8 174,-92.8 360,-92.8 360,-40.8 174,-40.8"/>
</g>
<g id="clust4" class="cluster">
<title>cluster_SafeInviteUsersModule_imports</title>
<polygon fill="none" stroke="black" points="16,-40.8 16,-92.8 166,-92.8 166,-40.8 16,-40.8"/>
</g>
<g id="clust5" class="cluster">
<title>cluster_SafeInviteUsersModule_exports</title>
<polygon fill="none" stroke="black" points="93,-170.8 93,-222.8 283,-222.8 283,-170.8 93,-170.8"/>
</g>
<!-- SafeInviteUsersComponent -->
<g id="node1" class="node">
<title>SafeInviteUsersComponent</title>
<polygon fill="#ffffb3" stroke="black" points="352.25,-84.8 181.75,-84.8 181.75,-48.8 352.25,-48.8 352.25,-84.8"/>
<text text-anchor="middle" x="267" y="-62.6" font-family="Times,serif" font-size="14.00">SafeInviteUsersComponent</text>
</g>
<!-- SafeInviteUsersModule -->
<g id="node2" class="node">
<title>SafeInviteUsersModule</title>
<polygon fill="#8dd3c7" stroke="black" points="262.47,-149.8 259.47,-153.8 238.47,-153.8 235.47,-149.8 113.53,-149.8 113.53,-113.8 262.47,-113.8 262.47,-149.8"/>
<text text-anchor="middle" x="188" y="-127.6" font-family="Times,serif" font-size="14.00">SafeInviteUsersModule</text>
</g>
<!-- SafeInviteUsersComponent&#45;&gt;SafeInviteUsersModule -->
<g id="edge1" class="edge">
<title>SafeInviteUsersComponent&#45;&gt;SafeInviteUsersModule</title>
<path fill="none" stroke="black" d="M222.06,-84.91C222.06,-84.91 222.06,-103.79 222.06,-103.79"/>
<polygon fill="black" stroke="black" points="218.56,-103.79 222.06,-113.79 225.56,-103.79 218.56,-103.79"/>
</g>
<!-- SafeInviteUsersComponent  -->
<g id="node4" class="node">
<title>SafeInviteUsersComponent </title>
<polygon fill="#fb8072" stroke="black" points="275.25,-214.8 100.75,-214.8 100.75,-178.8 275.25,-178.8 275.25,-214.8"/>
<text text-anchor="middle" x="188" y="-192.6" font-family="Times,serif" font-size="14.00">SafeInviteUsersComponent </text>
</g>
<!-- SafeInviteUsersModule&#45;&gt;SafeInviteUsersComponent  -->
<g id="edge3" class="edge">
<title>SafeInviteUsersModule&#45;&gt;SafeInviteUsersComponent </title>
<path fill="none" stroke="black" stroke-dasharray="5,2" d="M188,-149.91C188,-149.91 188,-168.79 188,-168.79"/>
<polygon fill="black" stroke="black" points="184.5,-168.79 188,-178.79 191.5,-168.79 184.5,-168.79"/>
</g>
<!-- SafeAddUserModule -->
<g id="node3" class="node">
<title>SafeAddUserModule</title>
<polygon fill="#8dd3c7" stroke="black" points="158.47,-84.8 155.47,-88.8 134.47,-88.8 131.47,-84.8 23.53,-84.8 23.53,-48.8 158.47,-48.8 158.47,-84.8"/>
<text text-anchor="middle" x="91" y="-62.6" font-family="Times,serif" font-size="14.00">SafeAddUserModule</text>
</g>
<!-- SafeAddUserModule&#45;&gt;SafeInviteUsersModule -->
<g id="edge2" class="edge">
<title>SafeAddUserModule&#45;&gt;SafeInviteUsersModule</title>
<path fill="none" stroke="black" d="M136,-84.91C136,-84.91 136,-103.79 136,-103.79"/>
<polygon fill="black" stroke="black" points="132.5,-103.79 136,-113.79 139.5,-103.79 132.5,-103.79"/>
</g>
</g>
</svg>
