<?xml version="1.0" encoding="UTF-8" standalone="no"?>
<!DOCTYPE svg PUBLIC "-//W3C//DTD SVG 1.1//EN"
 "http://www.w3.org/Graphics/SVG/1.1/DTD/svg11.dtd">
<!-- Generated by graphviz version 3.0.0 (20220226.1711)
 -->
<!-- Title: dependencies Pages: 1 -->
<svg width="724pt" height="247pt"
 viewBox="0.00 0.00 724.00 246.80" xmlns="http://www.w3.org/2000/svg" xmlns:xlink="http://www.w3.org/1999/xlink">
<g id="graph0" class="graph" transform="scale(1 1) rotate(0) translate(4 242.8)">
<title>dependencies</title>
<polygon fill="white" stroke="transparent" points="-4,4 -4,-242.8 720,-242.8 720,4 -4,4"/>
<text text-anchor="middle" x="358" y="-8.2" font-family="sans-serif" font-size="14.00">dependencies</text>
<g id="clust1" class="cluster">
<title>cluster_SafeApplicationTemplatesModule</title>
<polygon fill="none" stroke="black" stroke-dasharray="1,5" points="8,-32.8 8,-230.8 708,-230.8 708,-32.8 8,-32.8"/>
</g>
<g id="clust2" class="cluster">
<title>cluster_SafeApplicationTemplatesModule_declarations</title>
<polygon fill="none" stroke="black" points="454,-40.8 454,-92.8 700,-92.8 700,-40.8 454,-40.8"/>
</g>
<g id="clust5" class="cluster">
<title>cluster_SafeApplicationTemplatesModule_exports</title>
<polygon fill="none" stroke="black" points="186,-170.8 186,-222.8 436,-222.8 436,-170.8 186,-170.8"/>
</g>
<g id="clust4" class="cluster">
<title>cluster_SafeApplicationTemplatesModule_imports</title>
<polygon fill="none" stroke="black" points="16,-40.8 16,-92.8 446,-92.8 446,-40.8 16,-40.8"/>
</g>
<!-- SafeApplicationTemplatesComponent -->
<g id="node1" class="node">
<title>SafeApplicationTemplatesComponent</title>
<polygon fill="#ffffb3" stroke="black" points="692.11,-84.8 461.89,-84.8 461.89,-48.8 692.11,-48.8 692.11,-84.8"/>
<text text-anchor="middle" x="577" y="-62.6" font-family="Times,serif" font-size="14.00">SafeApplicationTemplatesComponent</text>
</g>
<!-- SafeApplicationTemplatesModule -->
<g id="node2" class="node">
<title>SafeApplicationTemplatesModule</title>
<polygon fill="#8dd3c7" stroke="black" points="415.34,-149.8 412.34,-153.8 391.34,-153.8 388.34,-149.8 206.66,-149.8 206.66,-113.8 415.34,-113.8 415.34,-149.8"/>
<text text-anchor="middle" x="311" y="-127.6" font-family="Times,serif" font-size="14.00">SafeApplicationTemplatesModule</text>
</g>
<!-- SafeApplicationTemplatesComponent&#45;&gt;SafeApplicationTemplatesModule -->
<g id="edge1" class="edge">
<title>SafeApplicationTemplatesComponent&#45;&gt;SafeApplicationTemplatesModule</title>
<path fill="none" stroke="black" d="M577,-84.91C577,-104.14 577,-131.8 577,-131.8 577,-131.8 425.37,-131.8 425.37,-131.8"/>
<polygon fill="black" stroke="black" points="425.37,-128.3 415.37,-131.8 425.37,-135.3 425.37,-128.3"/>
</g>
<!-- SafeApplicationTemplatesComponent  -->
<g id="node5" class="node">
<title>SafeApplicationTemplatesComponent </title>
<polygon fill="#fb8072" stroke="black" points="428.11,-214.8 193.89,-214.8 193.89,-178.8 428.11,-178.8 428.11,-214.8"/>
<text text-anchor="middle" x="311" y="-192.6" font-family="Times,serif" font-size="14.00">SafeApplicationTemplatesComponent </text>
</g>
<!-- SafeApplicationTemplatesModule&#45;&gt;SafeApplicationTemplatesComponent  -->
<g id="edge4" class="edge">
<title>SafeApplicationTemplatesModule&#45;&gt;SafeApplicationTemplatesComponent </title>
<path fill="none" stroke="black" stroke-dasharray="5,2" d="M311,-149.91C311,-149.91 311,-168.79 311,-168.79"/>
<polygon fill="black" stroke="black" points="307.5,-168.79 311,-178.79 314.5,-168.79 307.5,-168.79"/>
</g>
<!-- SafeApplicationTemplatesRoutingModule -->
<g id="node3" class="node">
<title>SafeApplicationTemplatesRoutingModule</title>
<polygon fill="#8dd3c7" stroke="black" points="437.95,-84.8 434.95,-88.8 413.95,-88.8 410.95,-84.8 184.05,-84.8 184.05,-48.8 437.95,-48.8 437.95,-84.8"/>
<text text-anchor="middle" x="311" y="-62.6" font-family="Times,serif" font-size="14.00">SafeApplicationTemplatesRoutingModule</text>
</g>
<!-- SafeApplicationTemplatesRoutingModule&#45;&gt;SafeApplicationTemplatesModule -->
<g id="edge2" class="edge">
<title>SafeApplicationTemplatesRoutingModule&#45;&gt;SafeApplicationTemplatesModule</title>
<path fill="none" stroke="black" d="M311,-84.91C311,-84.91 311,-103.79 311,-103.79"/>
<polygon fill="black" stroke="black" points="307.5,-103.79 311,-113.79 314.5,-103.79 307.5,-103.79"/>
</g>
<!-- SafeTemplatesModule -->
<g id="node4" class="node">
<title>SafeTemplatesModule</title>
<polygon fill="#8dd3c7" stroke="black" points="166.24,-84.8 163.24,-88.8 142.24,-88.8 139.24,-84.8 23.76,-84.8 23.76,-48.8 166.24,-48.8 166.24,-84.8"/>
<text text-anchor="middle" x="95" y="-62.6" font-family="Times,serif" font-size="14.00">SafeTemplatesModule</text>
</g>
<!-- SafeTemplatesModule&#45;&gt;SafeApplicationTemplatesModule -->
<g id="edge3" class="edge">
<title>SafeTemplatesModule&#45;&gt;SafeApplicationTemplatesModule</title>
<path fill="none" stroke="black" d="M95,-84.91C95,-104.14 95,-131.8 95,-131.8 95,-131.8 196.48,-131.8 196.48,-131.8"/>
<polygon fill="black" stroke="black" points="196.48,-135.3 206.48,-131.8 196.48,-128.3 196.48,-135.3"/>
</g>
</g>
</svg>
