<?xml version="1.0" encoding="UTF-8" standalone="no"?>
<!DOCTYPE svg PUBLIC "-//W3C//DTD SVG 1.1//EN"
 "http://www.w3.org/Graphics/SVG/1.1/DTD/svg11.dtd">
<!-- Generated by graphviz version 2.47.0 (20210316.0004)
 -->
<!-- Title: dependencies Pages: 1 -->
<svg width="504pt" height="211pt"
 viewBox="0.00 0.00 504.00 211.00" xmlns="http://www.w3.org/2000/svg" xmlns:xlink="http://www.w3.org/1999/xlink">
<g id="graph0" class="graph" transform="scale(1 1) rotate(0) translate(4 207)">
<title>dependencies</title>
<polygon fill="white" stroke="transparent" points="-4,4 -4,-207 500,-207 500,4 -4,4"/>
<text text-anchor="start" x="227.01" y="-42.4" font-family="sans-serif" font-weight="bold" font-size="14.00">Legend</text>
<polygon fill="#ffffb3" stroke="transparent" points="14,-10 14,-30 34,-30 34,-10 14,-10"/>
<text text-anchor="start" x="37.63" y="-15.4" font-family="sans-serif" font-size="14.00"> &#160;Declarations</text>
<polygon fill="#8dd3c7" stroke="transparent" points="127,-10 127,-30 147,-30 147,-10 127,-10"/>
<text text-anchor="start" x="150.73" y="-15.4" font-family="sans-serif" font-size="14.00"> &#160;Module</text>
<polygon fill="#80b1d3" stroke="transparent" points="213,-10 213,-30 233,-30 233,-10 213,-10"/>
<text text-anchor="start" x="236.78" y="-15.4" font-family="sans-serif" font-size="14.00"> &#160;Bootstrap</text>
<polygon fill="#fdb462" stroke="transparent" points="310,-10 310,-30 330,-30 330,-10 310,-10"/>
<text text-anchor="start" x="333.67" y="-15.4" font-family="sans-serif" font-size="14.00"> &#160;Providers</text>
<polygon fill="#fb8072" stroke="transparent" points="406,-10 406,-30 426,-30 426,-10 406,-10"/>
<text text-anchor="start" x="429.73" y="-15.4" font-family="sans-serif" font-size="14.00"> &#160;Exports</text>
<g id="clust1" class="cluster">
<title>cluster_ApiConfigurationModule</title>
<polygon fill="none" stroke="black" stroke-dasharray="1,5" points="28,-70 28,-195 468,-195 468,-70 28,-70"/>
</g>
<g id="clust4" class="cluster">
<title>cluster_ApiConfigurationModule_imports</title>
<polygon fill="none" stroke="black" points="240,-78 240,-130 460,-130 460,-78 240,-78"/>
</g>
<g id="clust2" class="cluster">
<title>cluster_ApiConfigurationModule_declarations</title>
<polygon fill="none" stroke="black" points="36,-78 36,-130 232,-130 232,-78 36,-78"/>
</g>
<!-- ApiConfigurationComponent -->
<g id="node1" class="node">
<title>ApiConfigurationComponent</title>
<polygon fill="#ffffb3" stroke="black" points="224.37,-122 43.63,-122 43.63,-86 224.37,-86 224.37,-122"/>
<text text-anchor="middle" x="134" y="-99.8" font-family="Times,serif" font-size="14.00">ApiConfigurationComponent</text>
</g>
<!-- ApiConfigurationModule -->
<g id="node2" class="node">
<title>ApiConfigurationModule</title>
<polygon fill="#8dd3c7" stroke="black" points="321.59,-187 318.59,-191 297.59,-191 294.59,-187 162.41,-187 162.41,-151 321.59,-151 321.59,-187"/>
<text text-anchor="middle" x="242" y="-164.8" font-family="Times,serif" font-size="14.00">ApiConfigurationModule</text>
</g>
<!-- ApiConfigurationComponent&#45;&gt;ApiConfigurationModule -->
<g id="edge1" class="edge">
<title>ApiConfigurationComponent&#45;&gt;ApiConfigurationModule</title>
<path fill="none" stroke="black" d="M193.45,-122.11C193.45,-122.11 193.45,-140.99 193.45,-140.99"/>
<polygon fill="black" stroke="black" points="189.95,-140.99 193.45,-150.99 196.95,-140.99 189.95,-140.99"/>
</g>
<!-- ApiConfigurationRoutingModule -->
<g id="node3" class="node">
<title>ApiConfigurationRoutingModule</title>
<polygon fill="#8dd3c7" stroke="black" points="452.21,-122 449.21,-126 428.21,-126 425.21,-122 247.79,-122 247.79,-86 452.21,-86 452.21,-122"/>
<text text-anchor="middle" x="350" y="-99.8" font-family="Times,serif" font-size="14.00">ApiConfigurationRoutingModule</text>
</g>
<!-- ApiConfigurationRoutingModule&#45;&gt;ApiConfigurationModule -->
<g id="edge2" class="edge">
<title>ApiConfigurationRoutingModule&#45;&gt;ApiConfigurationModule</title>
<path fill="none" stroke="black" d="M284.72,-122.11C284.72,-122.11 284.72,-140.99 284.72,-140.99"/>
<polygon fill="black" stroke="black" points="281.22,-140.99 284.72,-150.99 288.22,-140.99 281.22,-140.99"/>
</g>
</g>
</svg>
