<?xml version="1.0" encoding="UTF-8" standalone="no"?>
<!DOCTYPE svg PUBLIC "-//W3C//DTD SVG 1.1//EN"
 "http://www.w3.org/Graphics/SVG/1.1/DTD/svg11.dtd">
<!-- Generated by graphviz version 3.0.0 (20220226.1711)
 -->
<!-- Title: dependencies Pages: 1 -->
<svg width="390pt" height="174pt"
 viewBox="0.00 0.00 390.00 173.80" xmlns="http://www.w3.org/2000/svg" xmlns:xlink="http://www.w3.org/1999/xlink">
<g id="graph0" class="graph" transform="scale(1 1) rotate(0) translate(4 169.8)">
<title>dependencies</title>
<polygon fill="white" stroke="transparent" points="-4,4 -4,-169.8 386,-169.8 386,4 -4,4"/>
<text text-anchor="middle" x="191" y="-8.2" font-family="sans-serif" font-size="14.00">dependencies</text>
<g id="clust1" class="cluster">
<title>cluster_SafeConfirmModalModule</title>
<polygon fill="none" stroke="black" stroke-dasharray="1,5" points="8,-32.8 8,-157.8 374,-157.8 374,-32.8 8,-32.8"/>
</g>
<g id="clust4" class="cluster">
<title>cluster_SafeConfirmModalModule_imports</title>
<polygon fill="none" stroke="black" points="230,-40.8 230,-92.8 366,-92.8 366,-40.8 230,-40.8"/>
</g>
<g id="clust2" class="cluster">
<title>cluster_SafeConfirmModalModule_declarations</title>
<polygon fill="none" stroke="black" points="16,-40.8 16,-92.8 222,-92.8 222,-40.8 16,-40.8"/>
</g>
<!-- SafeConfirmModalComponent -->
<g id="node1" class="node">
<title>SafeConfirmModalComponent</title>
<polygon fill="#ffffb3" stroke="black" points="214.2,-84.8 23.8,-84.8 23.8,-48.8 214.2,-48.8 214.2,-84.8"/>
<text text-anchor="middle" x="119" y="-62.6" font-family="Times,serif" font-size="14.00">SafeConfirmModalComponent</text>
</g>
<!-- SafeConfirmModalModule -->
<g id="node2" class="node">
<title>SafeConfirmModalModule</title>
<polygon fill="#8dd3c7" stroke="black" points="284.42,-149.8 281.42,-153.8 260.42,-153.8 257.42,-149.8 115.58,-149.8 115.58,-113.8 284.42,-113.8 284.42,-149.8"/>
<text text-anchor="middle" x="200" y="-127.6" font-family="Times,serif" font-size="14.00">SafeConfirmModalModule</text>
</g>
<!-- SafeConfirmModalComponent&#45;&gt;SafeConfirmModalModule -->
<g id="edge1" class="edge">
<title>SafeConfirmModalComponent&#45;&gt;SafeConfirmModalModule</title>
<path fill="none" stroke="black" d="M164.94,-84.91C164.94,-84.91 164.94,-103.79 164.94,-103.79"/>
<polygon fill="black" stroke="black" points="161.44,-103.79 164.94,-113.79 168.44,-103.79 161.44,-103.79"/>
</g>
<!-- SafeModalModule -->
<g id="node3" class="node">
<title>SafeModalModule</title>
<polygon fill="#8dd3c7" stroke="black" points="358.48,-84.8 355.48,-88.8 334.48,-88.8 331.48,-84.8 237.52,-84.8 237.52,-48.8 358.48,-48.8 358.48,-84.8"/>
<text text-anchor="middle" x="298" y="-62.6" font-family="Times,serif" font-size="14.00">SafeModalModule</text>
</g>
<!-- SafeModalModule&#45;&gt;SafeConfirmModalModule -->
<g id="edge2" class="edge">
<title>SafeModalModule&#45;&gt;SafeConfirmModalModule</title>
<path fill="none" stroke="black" d="M260.86,-84.91C260.86,-84.91 260.86,-103.79 260.86,-103.79"/>
<polygon fill="black" stroke="black" points="257.36,-103.79 260.86,-113.79 264.36,-103.79 257.36,-103.79"/>
</g>
</g>
</svg>
