<?xml version="1.0" encoding="UTF-8" standalone="no"?>
<!DOCTYPE svg PUBLIC "-//W3C//DTD SVG 1.1//EN"
 "http://www.w3.org/Graphics/SVG/1.1/DTD/svg11.dtd">
<!-- Generated by graphviz version 3.0.0 (20220226.1711)
 -->
<!-- Title: dependencies Pages: 1 -->
<svg width="709pt" height="247pt"
 viewBox="0.00 0.00 709.00 246.80" xmlns="http://www.w3.org/2000/svg" xmlns:xlink="http://www.w3.org/1999/xlink">
<g id="graph0" class="graph" transform="scale(1 1) rotate(0) translate(4 242.8)">
<title>dependencies</title>
<polygon fill="white" stroke="transparent" points="-4,4 -4,-242.8 705,-242.8 705,4 -4,4"/>
<text text-anchor="middle" x="350.5" y="-8.2" font-family="sans-serif" font-size="14.00">dependencies</text>
<g id="clust1" class="cluster">
<title>cluster_SafeMappingModule</title>
<polygon fill="none" stroke="black" stroke-dasharray="1,5" points="8,-32.8 8,-230.8 693,-230.8 693,-32.8 8,-32.8"/>
</g>
<g id="clust2" class="cluster">
<title>cluster_SafeMappingModule_declarations</title>
<polygon fill="none" stroke="black" points="301,-40.8 301,-92.8 685,-92.8 685,-40.8 301,-40.8"/>
</g>
<g id="clust5" class="cluster">
<title>cluster_SafeMappingModule_imports</title>
<polygon fill="none" stroke="black" points="16,-40.8 16,-92.8 293,-92.8 293,-40.8 16,-40.8"/>
</g>
<g id="clust6" class="cluster">
<title>cluster_SafeMappingModule_exports</title>
<polygon fill="none" stroke="black" points="111,-170.8 111,-222.8 502,-222.8 502,-170.8 111,-170.8"/>
</g>
<!-- SafeMappingComponent -->
<g id="node1" class="node">
<title>SafeMappingComponent</title>
<polygon fill="#ffffb3" stroke="black" points="677.26,-84.8 520.74,-84.8 520.74,-48.8 677.26,-48.8 677.26,-84.8"/>
<text text-anchor="middle" x="599" y="-62.6" font-family="Times,serif" font-size="14.00">SafeMappingComponent</text>
</g>
<!-- SafeMappingModule -->
<g id="node3" class="node">
<title>SafeMappingModule</title>
<polygon fill="#8dd3c7" stroke="black" points="379.48,-149.8 376.48,-153.8 355.48,-153.8 352.48,-149.8 244.52,-149.8 244.52,-113.8 379.48,-113.8 379.48,-149.8"/>
<text text-anchor="middle" x="312" y="-127.6" font-family="Times,serif" font-size="14.00">SafeMappingModule</text>
</g>
<!-- SafeMappingComponent&#45;&gt;SafeMappingModule -->
<g id="edge1" class="edge">
<title>SafeMappingComponent&#45;&gt;SafeMappingModule</title>
<path fill="none" stroke="black" d="M599,-84.91C599,-104.14 599,-131.8 599,-131.8 599,-131.8 389.65,-131.8 389.65,-131.8"/>
<polygon fill="black" stroke="black" points="389.65,-128.3 379.65,-131.8 389.65,-135.3 389.65,-128.3"/>
</g>
<!-- SafeMappingModalComponent -->
<g id="node2" class="node">
<title>SafeMappingModalComponent</title>
<polygon fill="#ffffb3" stroke="black" points="502.81,-84.8 309.19,-84.8 309.19,-48.8 502.81,-48.8 502.81,-84.8"/>
<text text-anchor="middle" x="406" y="-62.6" font-family="Times,serif" font-size="14.00">SafeMappingModalComponent</text>
</g>
<!-- SafeMappingModalComponent&#45;&gt;SafeMappingModule -->
<g id="edge2" class="edge">
<title>SafeMappingModalComponent&#45;&gt;SafeMappingModule</title>
<path fill="none" stroke="black" d="M344.42,-84.91C344.42,-84.91 344.42,-103.79 344.42,-103.79"/>
<polygon fill="black" stroke="black" points="340.92,-103.79 344.42,-113.79 347.92,-103.79 340.92,-103.79"/>
</g>
<!-- SafeMappingComponent  -->
<g id="node6" class="node">
<title>SafeMappingComponent </title>
<polygon fill="#fb8072" stroke="black" points="494.26,-214.8 333.74,-214.8 333.74,-178.8 494.26,-178.8 494.26,-214.8"/>
<text text-anchor="middle" x="414" y="-192.6" font-family="Times,serif" font-size="14.00">SafeMappingComponent </text>
</g>
<!-- SafeMappingModule&#45;&gt;SafeMappingComponent  -->
<g id="edge5" class="edge">
<title>SafeMappingModule&#45;&gt;SafeMappingComponent </title>
<path fill="none" stroke="black" stroke-dasharray="5,2" d="M356.68,-149.91C356.68,-149.91 356.68,-168.79 356.68,-168.79"/>
<polygon fill="black" stroke="black" points="353.18,-168.79 356.68,-178.79 360.18,-168.79 353.18,-168.79"/>
</g>
<!-- SafeMappingModalComponent  -->
<g id="node7" class="node">
<title>SafeMappingModalComponent </title>
<polygon fill="#fb8072" stroke="black" points="315.31,-214.8 118.69,-214.8 118.69,-178.8 315.31,-178.8 315.31,-214.8"/>
<text text-anchor="middle" x="217" y="-192.6" font-family="Times,serif" font-size="14.00">SafeMappingModalComponent </text>
</g>
<!-- SafeMappingModule&#45;&gt;SafeMappingModalComponent  -->
<g id="edge6" class="edge">
<title>SafeMappingModule&#45;&gt;SafeMappingModalComponent </title>
<path fill="none" stroke="black" stroke-dasharray="5,2" d="M279.96,-149.91C279.96,-149.91 279.96,-168.79 279.96,-168.79"/>
<polygon fill="black" stroke="black" points="276.46,-168.79 279.96,-178.79 283.46,-168.79 276.46,-168.79"/>
</g>
<!-- SafeButtonModule -->
<g id="node4" class="node">
<title>SafeButtonModule</title>
<polygon fill="#8dd3c7" stroke="black" points="285.05,-84.8 282.05,-88.8 261.05,-88.8 258.05,-84.8 162.95,-84.8 162.95,-48.8 285.05,-48.8 285.05,-84.8"/>
<text text-anchor="middle" x="224" y="-62.6" font-family="Times,serif" font-size="14.00">SafeButtonModule</text>
</g>
<!-- SafeButtonModule&#45;&gt;SafeMappingModule -->
<g id="edge3" class="edge">
<title>SafeButtonModule&#45;&gt;SafeMappingModule</title>
<path fill="none" stroke="black" d="M264.89,-84.91C264.89,-84.91 264.89,-103.79 264.89,-103.79"/>
<polygon fill="black" stroke="black" points="261.39,-103.79 264.89,-113.79 268.39,-103.79 261.39,-103.79"/>
</g>
<!-- SafeModalModule -->
<g id="node5" class="node">
<title>SafeModalModule</title>
<polygon fill="#8dd3c7" stroke="black" points="144.48,-84.8 141.48,-88.8 120.48,-88.8 117.48,-84.8 23.52,-84.8 23.52,-48.8 144.48,-48.8 144.48,-84.8"/>
<text text-anchor="middle" x="84" y="-62.6" font-family="Times,serif" font-size="14.00">SafeModalModule</text>
</g>
<!-- SafeModalModule&#45;&gt;SafeMappingModule -->
<g id="edge4" class="edge">
<title>SafeModalModule&#45;&gt;SafeMappingModule</title>
<path fill="none" stroke="black" d="M131.54,-84.91C131.54,-104.14 131.54,-131.8 131.54,-131.8 131.54,-131.8 234.29,-131.8 234.29,-131.8"/>
<polygon fill="black" stroke="black" points="234.29,-135.3 244.29,-131.8 234.29,-128.3 234.29,-135.3"/>
</g>
</g>
</svg>
