<?xml version="1.0" encoding="UTF-8" standalone="no"?>
<!DOCTYPE svg PUBLIC "-//W3C//DTD SVG 1.1//EN"
 "http://www.w3.org/Graphics/SVG/1.1/DTD/svg11.dtd">
<!-- Generated by graphviz version 3.0.0 (20220226.1711)
 -->
<!-- Title: dependencies Pages: 1 -->
<svg width="478pt" height="174pt"
 viewBox="0.00 0.00 478.00 173.80" xmlns="http://www.w3.org/2000/svg" xmlns:xlink="http://www.w3.org/1999/xlink">
<g id="graph0" class="graph" transform="scale(1 1) rotate(0) translate(4 169.8)">
<title>dependencies</title>
<polygon fill="white" stroke="transparent" points="-4,4 -4,-169.8 474,-169.8 474,4 -4,4"/>
<text text-anchor="middle" x="235" y="-8.2" font-family="sans-serif" font-size="14.00">dependencies</text>
<g id="clust1" class="cluster">
<title>cluster_AddStepModule</title>
<polygon fill="none" stroke="black" stroke-dasharray="1,5" points="8,-32.8 8,-157.8 462,-157.8 462,-32.8 8,-32.8"/>
</g>
<g id="clust4" class="cluster">
<title>cluster_AddStepModule_imports</title>
<polygon fill="none" stroke="black" points="170,-40.8 170,-92.8 454,-92.8 454,-40.8 170,-40.8"/>
</g>
<g id="clust2" class="cluster">
<title>cluster_AddStepModule_declarations</title>
<polygon fill="none" stroke="black" points="16,-40.8 16,-92.8 162,-92.8 162,-40.8 16,-40.8"/>
</g>
<!-- AddStepComponent -->
<g id="node1" class="node">
<title>AddStepComponent</title>
<polygon fill="#ffffb3" stroke="black" points="154.33,-84.8 23.67,-84.8 23.67,-48.8 154.33,-48.8 154.33,-84.8"/>
<text text-anchor="middle" x="89" y="-62.6" font-family="Times,serif" font-size="14.00">AddStepComponent</text>
</g>
<!-- AddStepModule -->
<g id="node2" class="node">
<title>AddStepModule</title>
<polygon fill="#8dd3c7" stroke="black" points="280.05,-149.8 277.05,-153.8 256.05,-153.8 253.05,-149.8 171.95,-149.8 171.95,-113.8 280.05,-113.8 280.05,-149.8"/>
<text text-anchor="middle" x="226" y="-127.6" font-family="Times,serif" font-size="14.00">AddStepModule</text>
</g>
<!-- AddStepComponent&#45;&gt;AddStepModule -->
<g id="edge1" class="edge">
<title>AddStepComponent&#45;&gt;AddStepModule</title>
<path fill="none" stroke="black" d="M89,-84.91C89,-104.14 89,-131.8 89,-131.8 89,-131.8 161.85,-131.8 161.85,-131.8"/>
<polygon fill="black" stroke="black" points="161.85,-135.3 171.85,-131.8 161.85,-128.3 161.85,-135.3"/>
</g>
<!-- AddStepRoutingModule -->
<g id="node3" class="node">
<title>AddStepRoutingModule</title>
<polygon fill="#8dd3c7" stroke="black" points="445.67,-84.8 442.67,-88.8 421.67,-88.8 418.67,-84.8 292.33,-84.8 292.33,-48.8 445.67,-48.8 445.67,-84.8"/>
<text text-anchor="middle" x="369" y="-62.6" font-family="Times,serif" font-size="14.00">AddStepRoutingModule</text>
</g>
<!-- AddStepRoutingModule&#45;&gt;AddStepModule -->
<g id="edge2" class="edge">
<title>AddStepRoutingModule&#45;&gt;AddStepModule</title>
<path fill="none" stroke="black" d="M369,-84.91C369,-104.14 369,-131.8 369,-131.8 369,-131.8 290.06,-131.8 290.06,-131.8"/>
<polygon fill="black" stroke="black" points="290.06,-128.3 280.06,-131.8 290.06,-135.3 290.06,-128.3"/>
</g>
<!-- FormsModule -->
<g id="node4" class="node">
<title>FormsModule</title>
<polygon fill="#8dd3c7" stroke="black" points="273.84,-84.8 270.84,-88.8 249.84,-88.8 246.84,-84.8 178.16,-84.8 178.16,-48.8 273.84,-48.8 273.84,-84.8"/>
<text text-anchor="middle" x="226" y="-62.6" font-family="Times,serif" font-size="14.00">FormsModule</text>
</g>
<!-- FormsModule&#45;&gt;AddStepModule -->
<g id="edge3" class="edge">
<title>FormsModule&#45;&gt;AddStepModule</title>
<path fill="none" stroke="black" d="M226,-84.91C226,-84.91 226,-103.79 226,-103.79"/>
<polygon fill="black" stroke="black" points="222.5,-103.79 226,-113.79 229.5,-103.79 222.5,-103.79"/>
</g>
</g>
</svg>
