<?xml version="1.0" encoding="UTF-8" standalone="no"?>
<!DOCTYPE svg PUBLIC "-//W3C//DTD SVG 1.1//EN"
 "http://www.w3.org/Graphics/SVG/1.1/DTD/svg11.dtd">
<!-- Generated by graphviz version 3.0.0 (20220226.1711)
 -->
<!-- Title: dependencies Pages: 1 -->
<svg width="336pt" height="247pt"
 viewBox="0.00 0.00 336.00 246.80" xmlns="http://www.w3.org/2000/svg" xmlns:xlink="http://www.w3.org/1999/xlink">
<g id="graph0" class="graph" transform="scale(1 1) rotate(0) translate(4 242.8)">
<title>dependencies</title>
<polygon fill="white" stroke="transparent" points="-4,4 -4,-242.8 332,-242.8 332,4 -4,4"/>
<text text-anchor="middle" x="164" y="-8.2" font-family="sans-serif" font-size="14.00">dependencies</text>
<g id="clust1" class="cluster">
<title>cluster_SafeAlertModule</title>
<polygon fill="none" stroke="black" stroke-dasharray="1,5" points="8,-32.8 8,-230.8 320,-230.8 320,-32.8 8,-32.8"/>
</g>
<g id="clust2" class="cluster">
<title>cluster_SafeAlertModule_declarations</title>
<polygon fill="none" stroke="black" points="162,-40.8 162,-92.8 312,-92.8 312,-40.8 162,-40.8"/>
</g>
<g id="clust5" class="cluster">
<title>cluster_SafeAlertModule_exports</title>
<polygon fill="none" stroke="black" points="87,-170.8 87,-222.8 241,-222.8 241,-170.8 87,-170.8"/>
</g>
<g id="clust4" class="cluster">
<title>cluster_SafeAlertModule_imports</title>
<polygon fill="none" stroke="black" points="16,-40.8 16,-92.8 154,-92.8 154,-40.8 16,-40.8"/>
</g>
<!-- SafeAlertComponent -->
<g id="node1" class="node">
<title>SafeAlertComponent</title>
<polygon fill="#ffffb3" stroke="black" points="304.47,-84.8 169.53,-84.8 169.53,-48.8 304.47,-48.8 304.47,-84.8"/>
<text text-anchor="middle" x="237" y="-62.6" font-family="Times,serif" font-size="14.00">SafeAlertComponent</text>
</g>
<!-- SafeAlertModule -->
<g id="node2" class="node">
<title>SafeAlertModule</title>
<polygon fill="#8dd3c7" stroke="black" points="220.69,-149.8 217.69,-153.8 196.69,-153.8 193.69,-149.8 107.31,-149.8 107.31,-113.8 220.69,-113.8 220.69,-149.8"/>
<text text-anchor="middle" x="164" y="-127.6" font-family="Times,serif" font-size="14.00">SafeAlertModule</text>
</g>
<!-- SafeAlertComponent&#45;&gt;SafeAlertModule -->
<g id="edge1" class="edge">
<title>SafeAlertComponent&#45;&gt;SafeAlertModule</title>
<path fill="none" stroke="black" d="M195.06,-84.91C195.06,-84.91 195.06,-103.79 195.06,-103.79"/>
<polygon fill="black" stroke="black" points="191.56,-103.79 195.06,-113.79 198.56,-103.79 191.56,-103.79"/>
</g>
<!-- SafeAlertComponent  -->
<g id="node4" class="node">
<title>SafeAlertComponent </title>
<polygon fill="#fb8072" stroke="black" points="233.47,-214.8 94.53,-214.8 94.53,-178.8 233.47,-178.8 233.47,-214.8"/>
<text text-anchor="middle" x="164" y="-192.6" font-family="Times,serif" font-size="14.00">SafeAlertComponent </text>
</g>
<!-- SafeAlertModule&#45;&gt;SafeAlertComponent  -->
<g id="edge3" class="edge">
<title>SafeAlertModule&#45;&gt;SafeAlertComponent </title>
<path fill="none" stroke="black" stroke-dasharray="5,2" d="M164,-149.91C164,-149.91 164,-168.79 164,-168.79"/>
<polygon fill="black" stroke="black" points="160.5,-168.79 164,-178.79 167.5,-168.79 160.5,-168.79"/>
</g>
<!-- SafeButtonModule -->
<g id="node3" class="node">
<title>SafeButtonModule</title>
<polygon fill="#8dd3c7" stroke="black" points="146.05,-84.8 143.05,-88.8 122.05,-88.8 119.05,-84.8 23.95,-84.8 23.95,-48.8 146.05,-48.8 146.05,-84.8"/>
<text text-anchor="middle" x="85" y="-62.6" font-family="Times,serif" font-size="14.00">SafeButtonModule</text>
</g>
<!-- SafeButtonModule&#45;&gt;SafeAlertModule -->
<g id="edge2" class="edge">
<title>SafeButtonModule&#45;&gt;SafeAlertModule</title>
<path fill="none" stroke="black" d="M126.84,-84.91C126.84,-84.91 126.84,-103.79 126.84,-103.79"/>
<polygon fill="black" stroke="black" points="123.34,-103.79 126.84,-113.79 130.34,-103.79 123.34,-103.79"/>
</g>
</g>
</svg>
