<?xml version="1.0" encoding="UTF-8" standalone="no"?>
<!DOCTYPE svg PUBLIC "-//W3C//DTD SVG 1.1//EN"
 "http://www.w3.org/Graphics/SVG/1.1/DTD/svg11.dtd">
<!-- Generated by graphviz version 2.47.0 (20210316.0004)
 -->
<!-- Title: dependencies Pages: 1 -->
<svg width="830pt" height="349pt"
 viewBox="0.00 0.00 830.00 349.00" xmlns="http://www.w3.org/2000/svg" xmlns:xlink="http://www.w3.org/1999/xlink">
<g id="graph0" class="graph" transform="scale(1 1) rotate(0) translate(4 345)">
<title>dependencies</title>
<polygon fill="white" stroke="transparent" points="-4,4 -4,-345 826,-345 826,4 -4,4"/>
<text text-anchor="start" x="390.01" y="-42.4" font-family="sans-serif" font-weight="bold" font-size="14.00">Legend</text>
<polygon fill="#ffffb3" stroke="transparent" points="177,-10 177,-30 197,-30 197,-10 177,-10"/>
<text text-anchor="start" x="200.63" y="-15.4" font-family="sans-serif" font-size="14.00"> &#160;Declarations</text>
<polygon fill="#8dd3c7" stroke="transparent" points="290,-10 290,-30 310,-30 310,-10 290,-10"/>
<text text-anchor="start" x="313.73" y="-15.4" font-family="sans-serif" font-size="14.00"> &#160;Module</text>
<polygon fill="#80b1d3" stroke="transparent" points="376,-10 376,-30 396,-30 396,-10 376,-10"/>
<text text-anchor="start" x="399.78" y="-15.4" font-family="sans-serif" font-size="14.00"> &#160;Bootstrap</text>
<polygon fill="#fdb462" stroke="transparent" points="473,-10 473,-30 493,-30 493,-10 473,-10"/>
<text text-anchor="start" x="496.67" y="-15.4" font-family="sans-serif" font-size="14.00"> &#160;Providers</text>
<polygon fill="#fb8072" stroke="transparent" points="569,-10 569,-30 589,-30 589,-10 569,-10"/>
<text text-anchor="start" x="592.73" y="-15.4" font-family="sans-serif" font-size="14.00"> &#160;Exports</text>
<g id="clust1" class="cluster">
<title>cluster_SafeApplicationDropdownModule</title>
<polygon fill="none" stroke="black" stroke-dasharray="1,5" points="8,-70 8,-333 814,-333 814,-70 8,-70"/>
</g>
<g id="clust3" class="cluster">
<title>cluster_SafeApplicationDropdownModule_SafeApplicationDropdownComponent_providers</title>
<polygon fill="none" stroke="black" points="16,-78 16,-195 806,-195 806,-78 16,-78"/>
</g>
<g id="clust5" class="cluster">
<title>cluster_SafeApplicationDropdownModule_exports</title>
<polygon fill="none" stroke="black" points="285,-273 285,-325 537,-325 537,-273 285,-273"/>
</g>
<!-- SafeApplicationDropdownComponent -->
<g id="node1" class="node">
<title>SafeApplicationDropdownComponent</title>
<polygon fill="#ffffb3" stroke="black" points="527.18,-187 294.82,-187 294.82,-151 527.18,-151 527.18,-187"/>
<text text-anchor="middle" x="411" y="-164.8" font-family="Times,serif" font-size="14.00">SafeApplicationDropdownComponent</text>
</g>
<!-- SafeApplicationDropdownModule -->
<g id="node2" class="node">
<title>SafeApplicationDropdownModule</title>
<polygon fill="#8dd3c7" stroke="black" points="516.39,-252 513.39,-256 492.39,-256 489.39,-252 305.61,-252 305.61,-216 516.39,-216 516.39,-252"/>
<text text-anchor="middle" x="411" y="-229.8" font-family="Times,serif" font-size="14.00">SafeApplicationDropdownModule</text>
</g>
<!-- SafeApplicationDropdownComponent&#45;&gt;SafeApplicationDropdownModule -->
<g id="edge1" class="edge">
<title>SafeApplicationDropdownComponent&#45;&gt;SafeApplicationDropdownModule</title>
<path fill="none" stroke="black" d="M411,-187.11C411,-187.11 411,-205.99 411,-205.99"/>
<polygon fill="black" stroke="black" points="407.5,-205.99 411,-215.99 414.5,-205.99 407.5,-205.99"/>
</g>
<!-- SafeApplicationDropdownComponent  -->
<g id="node4" class="node">
<title>SafeApplicationDropdownComponent </title>
<polygon fill="#fb8072" stroke="black" points="528.68,-317 293.32,-317 293.32,-281 528.68,-281 528.68,-317"/>
<text text-anchor="middle" x="411" y="-294.8" font-family="Times,serif" font-size="14.00">SafeApplicationDropdownComponent </text>
</g>
<!-- SafeApplicationDropdownModule&#45;&gt;SafeApplicationDropdownComponent  -->
<g id="edge3" class="edge">
<title>SafeApplicationDropdownModule&#45;&gt;SafeApplicationDropdownComponent </title>
<path fill="none" stroke="black" stroke-dasharray="5,2" d="M411,-252.11C411,-252.11 411,-270.99 411,-270.99"/>
<polygon fill="black" stroke="black" points="407.5,-270.99 411,-280.99 414.5,-270.99 407.5,-270.99"/>
</g>
<!-- { provide: MAT_SELECT_SCROLL_STRATEGY, useFactory: scrollFactory, deps: [Overlay] } -->
<g id="node3" class="node">
<title>{ provide: MAT_SELECT_SCROLL_STRATEGY, useFactory: scrollFactory, deps: [Overlay] }</title>
<ellipse fill="#fdb462" stroke="black" cx="411" cy="-104" rx="386.83" ry="18"/>
<text text-anchor="middle" x="411" y="-99.8" font-family="Times,serif" font-size="14.00">{ provide: MAT_SELECT_SCROLL_STRATEGY, useFactory: scrollFactory, deps: [Overlay] }</text>
</g>
<!-- { provide: MAT_SELECT_SCROLL_STRATEGY, useFactory: scrollFactory, deps: [Overlay] }&#45;&gt;SafeApplicationDropdownComponent -->
<g id="edge2" class="edge">
<title>{ provide: MAT_SELECT_SCROLL_STRATEGY, useFactory: scrollFactory, deps: [Overlay] }&#45;&gt;SafeApplicationDropdownComponent</title>
<path fill="none" stroke="black" d="M411,-122.11C411,-122.11 411,-140.99 411,-140.99"/>
<polygon fill="black" stroke="black" points="407.5,-140.99 411,-150.99 414.5,-140.99 407.5,-140.99"/>
</g>
</g>
</svg>
