<?xml version="1.0" encoding="UTF-8" standalone="no"?>
<!DOCTYPE svg PUBLIC "-//W3C//DTD SVG 1.1//EN"
 "http://www.w3.org/Graphics/SVG/1.1/DTD/svg11.dtd">
<!-- Generated by graphviz version 2.47.0 (20210316.0004)
 -->
<!-- Title: dependencies Pages: 1 -->
<svg width="557pt" height="284pt"
 viewBox="0.00 0.00 557.00 284.00" xmlns="http://www.w3.org/2000/svg" xmlns:xlink="http://www.w3.org/1999/xlink">
<g id="graph0" class="graph" transform="scale(1 1) rotate(0) translate(4 280)">
<title>dependencies</title>
<polygon fill="white" stroke="transparent" points="-4,4 -4,-280 553,-280 553,4 -4,4"/>
<text text-anchor="start" x="253.51" y="-42.4" font-family="sans-serif" font-weight="bold" font-size="14.00">Legend</text>
<polygon fill="#ffffb3" stroke="transparent" points="40.5,-10 40.5,-30 60.5,-30 60.5,-10 40.5,-10"/>
<text text-anchor="start" x="64.13" y="-15.4" font-family="sans-serif" font-size="14.00"> &#160;Declarations</text>
<polygon fill="#8dd3c7" stroke="transparent" points="153.5,-10 153.5,-30 173.5,-30 173.5,-10 153.5,-10"/>
<text text-anchor="start" x="177.23" y="-15.4" font-family="sans-serif" font-size="14.00"> &#160;Module</text>
<polygon fill="#80b1d3" stroke="transparent" points="239.5,-10 239.5,-30 259.5,-30 259.5,-10 239.5,-10"/>
<text text-anchor="start" x="263.28" y="-15.4" font-family="sans-serif" font-size="14.00"> &#160;Bootstrap</text>
<polygon fill="#fdb462" stroke="transparent" points="336.5,-10 336.5,-30 356.5,-30 356.5,-10 336.5,-10"/>
<text text-anchor="start" x="360.17" y="-15.4" font-family="sans-serif" font-size="14.00"> &#160;Providers</text>
<polygon fill="#fb8072" stroke="transparent" points="432.5,-10 432.5,-30 452.5,-30 452.5,-10 432.5,-10"/>
<text text-anchor="start" x="456.23" y="-15.4" font-family="sans-serif" font-size="14.00"> &#160;Exports</text>
<g id="clust1" class="cluster">
<title>cluster_SafeChartSettingsModule</title>
<polygon fill="none" stroke="black" stroke-dasharray="1,5" points="8,-70 8,-268 541,-268 541,-70 8,-70"/>
</g>
<g id="clust5" class="cluster">
<title>cluster_SafeChartSettingsModule_exports</title>
<polygon fill="none" stroke="black" points="210,-208 210,-260 412,-260 412,-208 210,-208"/>
</g>
<g id="clust4" class="cluster">
<title>cluster_SafeChartSettingsModule_imports</title>
<polygon fill="none" stroke="black" points="222,-78 222,-130 533,-130 533,-78 222,-78"/>
</g>
<g id="clust2" class="cluster">
<title>cluster_SafeChartSettingsModule_declarations</title>
<polygon fill="none" stroke="black" points="16,-78 16,-130 214,-130 214,-78 16,-78"/>
</g>
<!-- SafeChartSettingsComponent -->
<g id="node1" class="node">
<title>SafeChartSettingsComponent</title>
<polygon fill="#ffffb3" stroke="black" points="206.42,-122 23.58,-122 23.58,-86 206.42,-86 206.42,-122"/>
<text text-anchor="middle" x="115" y="-99.8" font-family="Times,serif" font-size="14.00">SafeChartSettingsComponent</text>
</g>
<!-- SafeChartSettingsModule -->
<g id="node2" class="node">
<title>SafeChartSettingsModule</title>
<polygon fill="#8dd3c7" stroke="black" points="391.14,-187 388.14,-191 367.14,-191 364.14,-187 230.86,-187 230.86,-151 391.14,-151 391.14,-187"/>
<text text-anchor="middle" x="311" y="-164.8" font-family="Times,serif" font-size="14.00">SafeChartSettingsModule</text>
</g>
<!-- SafeChartSettingsComponent&#45;&gt;SafeChartSettingsModule -->
<g id="edge1" class="edge">
<title>SafeChartSettingsComponent&#45;&gt;SafeChartSettingsModule</title>
<path fill="none" stroke="black" d="M115,-122.11C115,-141.34 115,-169 115,-169 115,-169 220.71,-169 220.71,-169"/>
<polygon fill="black" stroke="black" points="220.71,-172.5 230.71,-169 220.71,-165.5 220.71,-172.5"/>
</g>
<!-- SafeChartSettingsComponent  -->
<g id="node5" class="node">
<title>SafeChartSettingsComponent </title>
<polygon fill="#fb8072" stroke="black" points="403.92,-252 218.08,-252 218.08,-216 403.92,-216 403.92,-252"/>
<text text-anchor="middle" x="311" y="-229.8" font-family="Times,serif" font-size="14.00">SafeChartSettingsComponent </text>
</g>
<!-- SafeChartSettingsModule&#45;&gt;SafeChartSettingsComponent  -->
<g id="edge4" class="edge">
<title>SafeChartSettingsModule&#45;&gt;SafeChartSettingsComponent </title>
<path fill="none" stroke="black" stroke-dasharray="5,2" d="M311,-187.11C311,-187.11 311,-205.99 311,-205.99"/>
<polygon fill="black" stroke="black" points="307.5,-205.99 311,-215.99 314.5,-205.99 307.5,-205.99"/>
</g>
<!-- SafeChartModule -->
<g id="node3" class="node">
<title>SafeChartModule</title>
<polygon fill="#8dd3c7" stroke="black" points="524.53,-122 521.53,-126 500.53,-126 497.53,-122 409.47,-122 409.47,-86 524.53,-86 524.53,-122"/>
<text text-anchor="middle" x="467" y="-99.8" font-family="Times,serif" font-size="14.00">SafeChartModule</text>
</g>
<!-- SafeChartModule&#45;&gt;SafeChartSettingsModule -->
<g id="edge2" class="edge">
<title>SafeChartModule&#45;&gt;SafeChartSettingsModule</title>
<path fill="none" stroke="black" d="M467,-122.11C467,-141.34 467,-169 467,-169 467,-169 401.28,-169 401.28,-169"/>
<polygon fill="black" stroke="black" points="401.28,-165.5 391.28,-169 401.28,-172.5 401.28,-165.5"/>
</g>
<!-- SafeQueryBuilderModule -->
<g id="node4" class="node">
<title>SafeQueryBuilderModule</title>
<polygon fill="#8dd3c7" stroke="black" points="391.9,-122 388.9,-126 367.9,-126 364.9,-122 230.1,-122 230.1,-86 391.9,-86 391.9,-122"/>
<text text-anchor="middle" x="311" y="-99.8" font-family="Times,serif" font-size="14.00">SafeQueryBuilderModule</text>
</g>
<!-- SafeQueryBuilderModule&#45;&gt;SafeChartSettingsModule -->
<g id="edge3" class="edge">
<title>SafeQueryBuilderModule&#45;&gt;SafeChartSettingsModule</title>
<path fill="none" stroke="black" d="M311,-122.11C311,-122.11 311,-140.99 311,-140.99"/>
<polygon fill="black" stroke="black" points="307.5,-140.99 311,-150.99 314.5,-140.99 307.5,-140.99"/>
</g>
</g>
</svg>
