<?xml version="1.0" encoding="UTF-8" standalone="no"?>
<!DOCTYPE svg PUBLIC "-//W3C//DTD SVG 1.1//EN"
 "http://www.w3.org/Graphics/SVG/1.1/DTD/svg11.dtd">
<!-- Generated by graphviz version 3.0.0 (20220226.1711)
 -->
<!-- Title: dependencies Pages: 1 -->
<svg width="380pt" height="174pt"
 viewBox="0.00 0.00 380.00 173.80" xmlns="http://www.w3.org/2000/svg" xmlns:xlink="http://www.w3.org/1999/xlink">
<g id="graph0" class="graph" transform="scale(1 1) rotate(0) translate(4 169.8)">
<title>dependencies</title>
<polygon fill="white" stroke="transparent" points="-4,4 -4,-169.8 376,-169.8 376,4 -4,4"/>
<text text-anchor="middle" x="186" y="-8.2" font-family="sans-serif" font-size="14.00">dependencies</text>
<g id="clust1" class="cluster">
<title>cluster_FormsTabModule</title>
<polygon fill="none" stroke="black" stroke-dasharray="1,5" points="8,-32.8 8,-157.8 364,-157.8 364,-32.8 8,-32.8"/>
</g>
<g id="clust4" class="cluster">
<title>cluster_FormsTabModule_imports</title>
<polygon fill="none" stroke="black" points="178,-40.8 178,-92.8 356,-92.8 356,-40.8 178,-40.8"/>
</g>
<g id="clust2" class="cluster">
<title>cluster_FormsTabModule_declarations</title>
<polygon fill="none" stroke="black" points="16,-40.8 16,-92.8 170,-92.8 170,-40.8 16,-40.8"/>
</g>
<!-- FormsTabComponent -->
<g id="node1" class="node">
<title>FormsTabComponent</title>
<polygon fill="#ffffb3" stroke="black" points="162.38,-84.8 23.62,-84.8 23.62,-48.8 162.38,-48.8 162.38,-84.8"/>
<text text-anchor="middle" x="93" y="-62.6" font-family="Times,serif" font-size="14.00">FormsTabComponent</text>
</g>
<!-- FormsTabModule -->
<g id="node2" class="node">
<title>FormsTabModule</title>
<polygon fill="#8dd3c7" stroke="black" points="238.6,-149.8 235.6,-153.8 214.6,-153.8 211.6,-149.8 121.4,-149.8 121.4,-113.8 238.6,-113.8 238.6,-149.8"/>
<text text-anchor="middle" x="180" y="-127.6" font-family="Times,serif" font-size="14.00">FormsTabModule</text>
</g>
<!-- FormsTabComponent&#45;&gt;FormsTabModule -->
<g id="edge1" class="edge">
<title>FormsTabComponent&#45;&gt;FormsTabModule</title>
<path fill="none" stroke="black" d="M141.94,-84.91C141.94,-84.91 141.94,-103.79 141.94,-103.79"/>
<polygon fill="black" stroke="black" points="138.44,-103.79 141.94,-113.79 145.44,-103.79 138.44,-103.79"/>
</g>
<!-- FormsTabRoutingModule -->
<g id="node3" class="node">
<title>FormsTabRoutingModule</title>
<polygon fill="#8dd3c7" stroke="black" points="348.22,-84.8 345.22,-88.8 324.22,-88.8 321.22,-84.8 185.78,-84.8 185.78,-48.8 348.22,-48.8 348.22,-84.8"/>
<text text-anchor="middle" x="267" y="-62.6" font-family="Times,serif" font-size="14.00">FormsTabRoutingModule</text>
</g>
<!-- FormsTabRoutingModule&#45;&gt;FormsTabModule -->
<g id="edge2" class="edge">
<title>FormsTabRoutingModule&#45;&gt;FormsTabModule</title>
<path fill="none" stroke="black" d="M212.22,-84.91C212.22,-84.91 212.22,-103.79 212.22,-103.79"/>
<polygon fill="black" stroke="black" points="208.72,-103.79 212.22,-113.79 215.72,-103.79 208.72,-103.79"/>
</g>
</g>
</svg>
