<?xml version="1.0" encoding="UTF-8" standalone="no"?>
<!DOCTYPE svg PUBLIC "-//W3C//DTD SVG 1.1//EN"
 "http://www.w3.org/Graphics/SVG/1.1/DTD/svg11.dtd">
<!-- Generated by graphviz version 3.0.0 (20220226.1711)
 -->
<!-- Title: dependencies Pages: 1 -->
<svg width="380pt" height="174pt"
 viewBox="0.00 0.00 380.00 173.80" xmlns="http://www.w3.org/2000/svg" xmlns:xlink="http://www.w3.org/1999/xlink">
<g id="graph0" class="graph" transform="scale(1 1) rotate(0) translate(4 169.8)">
<title>dependencies</title>
<polygon fill="white" stroke="transparent" points="-4,4 -4,-169.8 376,-169.8 376,4 -4,4"/>
<text text-anchor="middle" x="186" y="-8.2" font-family="sans-serif" font-size="14.00">dependencies</text>
<g id="clust1" class="cluster">
<title>cluster_FormsTabModule</title>
<polygon fill="none" stroke="black" stroke-dasharray="1,5" points="8,-32.8 8,-157.8 364,-157.8 364,-32.8 8,-32.8"/>
</g>
<g id="clust2" class="cluster">
<title>cluster_FormsTabModule_declarations</title>
<polygon fill="none" stroke="black" points="202,-40.8 202,-92.8 356,-92.8 356,-40.8 202,-40.8"/>
</g>
<g id="clust4" class="cluster">
<title>cluster_FormsTabModule_imports</title>
<polygon fill="none" stroke="black" points="16,-40.8 16,-92.8 194,-92.8 194,-40.8 16,-40.8"/>
</g>
<!-- FormsTabComponent -->
<g id="node1" class="node">
<title>FormsTabComponent</title>
<polygon fill="#ffffb3" stroke="black" points="348.38,-84.8 209.62,-84.8 209.62,-48.8 348.38,-48.8 348.38,-84.8"/>
<text text-anchor="middle" x="279" y="-62.6" font-family="Times,serif" font-size="14.00">FormsTabComponent</text>
</g>
<!-- FormsTabModule -->
<g id="node2" class="node">
<title>FormsTabModule</title>
<polygon fill="#8dd3c7" stroke="black" points="250.6,-149.8 247.6,-153.8 226.6,-153.8 223.6,-149.8 133.4,-149.8 133.4,-113.8 250.6,-113.8 250.6,-149.8"/>
<text text-anchor="middle" x="192" y="-127.6" font-family="Times,serif" font-size="14.00">FormsTabModule</text>
</g>
<!-- FormsTabComponent&#45;&gt;FormsTabModule -->
<g id="edge1" class="edge">
<title>FormsTabComponent&#45;&gt;FormsTabModule</title>
<path fill="none" stroke="black" d="M230.06,-84.91C230.06,-84.91 230.06,-103.79 230.06,-103.79"/>
<polygon fill="black" stroke="black" points="226.56,-103.79 230.06,-113.79 233.56,-103.79 226.56,-103.79"/>
</g>
<!-- FormsTabRoutingModule -->
<g id="node3" class="node">
<title>FormsTabRoutingModule</title>
<polygon fill="#8dd3c7" stroke="black" points="186.22,-84.8 183.22,-88.8 162.22,-88.8 159.22,-84.8 23.78,-84.8 23.78,-48.8 186.22,-48.8 186.22,-84.8"/>
<text text-anchor="middle" x="105" y="-62.6" font-family="Times,serif" font-size="14.00">FormsTabRoutingModule</text>
</g>
<!-- FormsTabRoutingModule&#45;&gt;FormsTabModule -->
<g id="edge2" class="edge">
<title>FormsTabRoutingModule&#45;&gt;FormsTabModule</title>
<path fill="none" stroke="black" d="M159.78,-84.91C159.78,-84.91 159.78,-103.79 159.78,-103.79"/>
<polygon fill="black" stroke="black" points="156.28,-103.79 159.78,-113.79 163.28,-103.79 156.28,-103.79"/>
</g>
</g>
</svg>
