<?xml version="1.0" encoding="UTF-8" standalone="no"?>
<!DOCTYPE svg PUBLIC "-//W3C//DTD SVG 1.1//EN"
 "http://www.w3.org/Graphics/SVG/1.1/DTD/svg11.dtd">
<!-- Generated by graphviz version 3.0.0 (20220226.1711)
 -->
<!-- Title: dependencies Pages: 1 -->
<svg width="3103pt" height="358pt"
 viewBox="0.00 0.00 3103.00 358.39" xmlns="http://www.w3.org/2000/svg" xmlns:xlink="http://www.w3.org/1999/xlink">
<g id="graph0" class="graph" transform="scale(1 1) rotate(0) translate(4 354.39)">
<title>dependencies</title>
<polygon fill="white" stroke="transparent" points="-4,4 -4,-354.39 3099,-354.39 3099,4 -4,4"/>
<text text-anchor="middle" x="1547.5" y="-8.2" font-family="sans-serif" font-size="14.00">dependencies</text>
<g id="clust1" class="cluster">
<title>cluster_SafeChartSettingsModule</title>
<polygon fill="none" stroke="black" stroke-dasharray="1,5" points="8,-32.8 8,-342.39 3087,-342.39 3087,-32.8 8,-32.8"/>
</g>
<g id="clust4" class="cluster">
<title>cluster_SafeChartSettingsModule_imports</title>
<polygon fill="none" stroke="black" points="1558,-152.39 1558,-204.39 3079,-204.39 3079,-152.39 1558,-152.39"/>
</g>
<g id="clust3" class="cluster">
<title>cluster_SafeChartSettingsModule_SafeChartSettingsComponent_providers</title>
<polygon fill="none" stroke="black" points="16,-40.8 16,-204.39 1550,-204.39 1550,-40.8 16,-40.8"/>
</g>
<g id="clust5" class="cluster">
<title>cluster_SafeChartSettingsModule_exports</title>
<polygon fill="none" stroke="black" points="2144,-282.39 2144,-334.39 2346,-334.39 2346,-282.39 2144,-282.39"/>
</g>
<!-- SafeChartSettingsComponent -->
<g id="node1" class="node">
<title>SafeChartSettingsComponent</title>
<polygon fill="#ffffb3" stroke="black" points="1195.43,-196.39 1012.57,-196.39 1012.57,-160.39 1195.43,-160.39 1195.43,-196.39"/>
<text text-anchor="middle" x="1104" y="-174.19" font-family="Times,serif" font-size="14.00">SafeChartSettingsComponent</text>
</g>
<!-- SafeChartSettingsModule -->
<g id="node2" class="node">
<title>SafeChartSettingsModule</title>
<polygon fill="#8dd3c7" stroke="black" points="2325.15,-261.39 2322.15,-265.39 2301.15,-265.39 2298.15,-261.39 2164.85,-261.39 2164.85,-225.39 2325.15,-225.39 2325.15,-261.39"/>
<text text-anchor="middle" x="2245" y="-239.19" font-family="Times,serif" font-size="14.00">SafeChartSettingsModule</text>
</g>
<!-- SafeChartSettingsComponent&#45;&gt;SafeChartSettingsModule -->
<g id="edge1" class="edge">
<title>SafeChartSettingsComponent&#45;&gt;SafeChartSettingsModule</title>
<path fill="none" stroke="black" d="M1104,-196.64C1104,-219.41 1104,-255.39 1104,-255.39 1104,-255.39 2154.77,-255.39 2154.77,-255.39"/>
<polygon fill="black" stroke="black" points="2154.77,-258.89 2164.77,-255.39 2154.77,-251.89 2154.77,-258.89"/>
</g>
<!-- SafeChartSettingsComponent  -->
<g id="node15" class="node">
<title>SafeChartSettingsComponent </title>
<polygon fill="#fb8072" stroke="black" points="2337.93,-326.39 2152.07,-326.39 2152.07,-290.39 2337.93,-290.39 2337.93,-326.39"/>
<text text-anchor="middle" x="2245" y="-304.19" font-family="Times,serif" font-size="14.00">SafeChartSettingsComponent </text>
</g>
<!-- SafeChartSettingsModule&#45;&gt;SafeChartSettingsComponent  -->
<g id="edge14" class="edge">
<title>SafeChartSettingsModule&#45;&gt;SafeChartSettingsComponent </title>
<path fill="none" stroke="black" stroke-dasharray="5,2" d="M2245,-261.5C2245,-261.5 2245,-280.38 2245,-280.38"/>
<polygon fill="black" stroke="black" points="2241.5,-280.38 2245,-290.38 2248.5,-280.38 2241.5,-280.38"/>
</g>
<!-- {
 &#160;&#160;&#160;provide: MAT_AUTOCOMPLETE_SCROLL_STRATEGY, useFactory: scrollFactory, deps: [Overlay],
} -->
<g id="node3" class="node">
<title>{
 &#160;&#160;&#160;provide: MAT_AUTOCOMPLETE_SCROLL_STRATEGY, useFactory: scrollFactory, deps: [Overlay],
}</title>
<ellipse fill="#fdb462" stroke="black" cx="1104" cy="-90.1" rx="438.07" ry="41.09"/>
<text text-anchor="middle" x="1104" y="-102.7" font-family="Times,serif" font-size="14.00">{</text>
<text text-anchor="middle" x="1104" y="-85.9" font-family="Times,serif" font-size="14.00"> &#160;&#160;&#160;provide: MAT_AUTOCOMPLETE_SCROLL_STRATEGY, useFactory: scrollFactory, deps: [Overlay],</text>
<text text-anchor="middle" x="1104" y="-69.1" font-family="Times,serif" font-size="14.00">}</text>
</g>
<!-- {
 &#160;&#160;&#160;provide: MAT_AUTOCOMPLETE_SCROLL_STRATEGY, useFactory: scrollFactory, deps: [Overlay],
}&#45;&gt;SafeChartSettingsComponent -->
<g id="edge2" class="edge">
<title>{
 &#160;&#160;&#160;provide: MAT_AUTOCOMPLETE_SCROLL_STRATEGY, useFactory: scrollFactory, deps: [Overlay],
}&#45;&gt;SafeChartSettingsComponent</title>
<path fill="none" stroke="black" d="M1104,-131.4C1104,-131.4 1104,-150.06 1104,-150.06"/>
<polygon fill="black" stroke="black" points="1100.5,-150.06 1104,-160.06 1107.5,-150.06 1100.5,-150.06"/>
</g>
<!-- { provide: MAT_CHIPS_DEFAULT_OPTIONS, useFactory: codesFactory } -->
<g id="node4" class="node">
<title>{ provide: MAT_CHIPS_DEFAULT_OPTIONS, useFactory: codesFactory }</title>
<ellipse fill="#fdb462" stroke="black" cx="336" cy="-90.1" rx="311.7" ry="18"/>
<text text-anchor="middle" x="336" y="-85.9" font-family="Times,serif" font-size="14.00">{ provide: MAT_CHIPS_DEFAULT_OPTIONS, useFactory: codesFactory }</text>
</g>
<!-- { provide: MAT_CHIPS_DEFAULT_OPTIONS, useFactory: codesFactory }&#45;&gt;SafeChartSettingsComponent -->
<g id="edge3" class="edge">
<title>{ provide: MAT_CHIPS_DEFAULT_OPTIONS, useFactory: codesFactory }&#45;&gt;SafeChartSettingsComponent</title>
<path fill="none" stroke="black" d="M336,-108.39C336,-134.25 336,-178.39 336,-178.39 336,-178.39 1002.5,-178.39 1002.5,-178.39"/>
<polygon fill="black" stroke="black" points="1002.5,-181.89 1012.5,-178.39 1002.5,-174.89 1002.5,-181.89"/>
</g>
<!-- SafeAggregationBuilderModule -->
<g id="node5" class="node">
<title>SafeAggregationBuilderModule</title>
<polygon fill="#8dd3c7" stroke="black" points="3071.4,-196.39 3068.4,-200.39 3047.4,-200.39 3044.4,-196.39 2874.6,-196.39 2874.6,-160.39 3071.4,-160.39 3071.4,-196.39"/>
<text text-anchor="middle" x="2973" y="-174.19" font-family="Times,serif" font-size="14.00">SafeAggregationBuilderModule</text>
</g>
<!-- SafeAggregationBuilderModule&#45;&gt;SafeChartSettingsModule -->
<g id="edge4" class="edge">
<title>SafeAggregationBuilderModule&#45;&gt;SafeChartSettingsModule</title>
<path fill="none" stroke="black" d="M2973,-196.64C2973,-219.41 2973,-255.39 2973,-255.39 2973,-255.39 2335.34,-255.39 2335.34,-255.39"/>
<polygon fill="black" stroke="black" points="2335.34,-251.89 2325.34,-255.39 2335.34,-258.89 2335.34,-251.89"/>
</g>
<!-- SafeButtonModule -->
<g id="node6" class="node">
<title>SafeButtonModule</title>
<polygon fill="#8dd3c7" stroke="black" points="2857.05,-196.39 2854.05,-200.39 2833.05,-200.39 2830.05,-196.39 2734.95,-196.39 2734.95,-160.39 2857.05,-160.39 2857.05,-196.39"/>
<text text-anchor="middle" x="2796" y="-174.19" font-family="Times,serif" font-size="14.00">SafeButtonModule</text>
</g>
<!-- SafeButtonModule&#45;&gt;SafeChartSettingsModule -->
<g id="edge5" class="edge">
<title>SafeButtonModule&#45;&gt;SafeChartSettingsModule</title>
<path fill="none" stroke="black" d="M2796,-196.67C2796,-217.71 2796,-249.39 2796,-249.39 2796,-249.39 2335.41,-249.39 2335.41,-249.39"/>
<polygon fill="black" stroke="black" points="2335.42,-245.89 2325.41,-249.39 2335.41,-252.89 2335.42,-245.89"/>
</g>
<!-- SafeChartModule -->
<g id="node7" class="node">
<title>SafeChartModule</title>
<polygon fill="#8dd3c7" stroke="black" points="2716.53,-196.39 2713.53,-200.39 2692.53,-200.39 2689.53,-196.39 2601.47,-196.39 2601.47,-160.39 2716.53,-160.39 2716.53,-196.39"/>
<text text-anchor="middle" x="2659" y="-174.19" font-family="Times,serif" font-size="14.00">SafeChartModule</text>
</g>
<!-- SafeChartModule&#45;&gt;SafeChartSettingsModule -->
<g id="edge6" class="edge">
<title>SafeChartModule&#45;&gt;SafeChartSettingsModule</title>
<path fill="none" stroke="black" d="M2659,-196.5C2659,-215.73 2659,-243.39 2659,-243.39 2659,-243.39 2335.31,-243.39 2335.31,-243.39"/>
<polygon fill="black" stroke="black" points="2335.31,-239.89 2325.31,-243.39 2335.31,-246.89 2335.31,-239.89"/>
</g>
<!-- SafeGridModule -->
<g id="node8" class="node">
<title>SafeGridModule</title>
<polygon fill="#8dd3c7" stroke="black" points="2583.09,-196.39 2580.09,-200.39 2559.09,-200.39 2556.09,-196.39 2472.91,-196.39 2472.91,-160.39 2583.09,-160.39 2583.09,-196.39"/>
<text text-anchor="middle" x="2528" y="-174.19" font-family="Times,serif" font-size="14.00">SafeGridModule</text>
</g>
<!-- SafeGridModule&#45;&gt;SafeChartSettingsModule -->
<g id="edge7" class="edge">
<title>SafeGridModule&#45;&gt;SafeChartSettingsModule</title>
<path fill="none" stroke="black" d="M2528,-196.41C2528,-213.76 2528,-237.39 2528,-237.39 2528,-237.39 2335.34,-237.39 2335.34,-237.39"/>
<polygon fill="black" stroke="black" points="2335.34,-233.89 2325.34,-237.39 2335.34,-240.89 2335.34,-233.89"/>
</g>
<!-- SafeIconModule -->
<g id="node9" class="node">
<title>SafeIconModule</title>
<polygon fill="#8dd3c7" stroke="black" points="2454.8,-196.39 2451.8,-200.39 2430.8,-200.39 2427.8,-196.39 2345.2,-196.39 2345.2,-160.39 2454.8,-160.39 2454.8,-196.39"/>
<text text-anchor="middle" x="2400" y="-174.19" font-family="Times,serif" font-size="14.00">SafeIconModule</text>
</g>
<!-- SafeIconModule&#45;&gt;SafeChartSettingsModule -->
<g id="edge8" class="edge">
<title>SafeIconModule&#45;&gt;SafeChartSettingsModule</title>
<path fill="none" stroke="black" d="M2400,-196.63C2400,-211.96 2400,-231.39 2400,-231.39 2400,-231.39 2335.22,-231.39 2335.22,-231.39"/>
<polygon fill="black" stroke="black" points="2335.22,-227.89 2325.22,-231.39 2335.22,-234.89 2335.22,-227.89"/>
</g>
<!-- SafePaletteControlModule -->
<g id="node10" class="node">
<title>SafePaletteControlModule</title>
<polygon fill="#8dd3c7" stroke="black" points="2327.8,-196.39 2324.8,-200.39 2303.8,-200.39 2300.8,-196.39 2162.2,-196.39 2162.2,-160.39 2327.8,-160.39 2327.8,-196.39"/>
<text text-anchor="middle" x="2245" y="-174.19" font-family="Times,serif" font-size="14.00">SafePaletteControlModule</text>
</g>
<!-- SafePaletteControlModule&#45;&gt;SafeChartSettingsModule -->
<g id="edge9" class="edge">
<title>SafePaletteControlModule&#45;&gt;SafeChartSettingsModule</title>
<path fill="none" stroke="black" d="M2245,-196.5C2245,-196.5 2245,-215.38 2245,-215.38"/>
<polygon fill="black" stroke="black" points="2241.5,-215.38 2245,-225.38 2248.5,-215.38 2241.5,-215.38"/>
</g>
<!-- SafeQueryBuilderModule -->
<g id="node11" class="node">
<title>SafeQueryBuilderModule</title>
<polygon fill="#8dd3c7" stroke="black" points="2144.91,-196.39 2141.91,-200.39 2120.91,-200.39 2117.91,-196.39 1983.09,-196.39 1983.09,-160.39 2144.91,-160.39 2144.91,-196.39"/>
<text text-anchor="middle" x="2064" y="-174.19" font-family="Times,serif" font-size="14.00">SafeQueryBuilderModule</text>
</g>
<!-- SafeQueryBuilderModule&#45;&gt;SafeChartSettingsModule -->
<g id="edge10" class="edge">
<title>SafeQueryBuilderModule&#45;&gt;SafeChartSettingsModule</title>
<path fill="none" stroke="black" d="M2064,-196.63C2064,-211.96 2064,-231.39 2064,-231.39 2064,-231.39 2154.82,-231.39 2154.82,-231.39"/>
<polygon fill="black" stroke="black" points="2154.82,-234.89 2164.82,-231.39 2154.82,-227.89 2154.82,-234.89"/>
</g>
<!-- TabDisplayModule -->
<g id="node12" class="node">
<title>TabDisplayModule</title>
<polygon fill="#8dd3c7" stroke="black" points="1965.37,-196.39 1962.37,-200.39 1941.37,-200.39 1938.37,-196.39 1840.63,-196.39 1840.63,-160.39 1965.37,-160.39 1965.37,-196.39"/>
<text text-anchor="middle" x="1903" y="-174.19" font-family="Times,serif" font-size="14.00">TabDisplayModule</text>
</g>
<!-- TabDisplayModule&#45;&gt;SafeChartSettingsModule -->
<g id="edge11" class="edge">
<title>TabDisplayModule&#45;&gt;SafeChartSettingsModule</title>
<path fill="none" stroke="black" d="M1903,-196.41C1903,-213.76 1903,-237.39 1903,-237.39 1903,-237.39 2154.82,-237.39 2154.82,-237.39"/>
<polygon fill="black" stroke="black" points="2154.82,-240.89 2164.82,-237.39 2154.82,-233.89 2154.82,-240.89"/>
</g>
<!-- TabMainModule -->
<g id="node13" class="node">
<title>TabMainModule</title>
<polygon fill="#8dd3c7" stroke="black" points="1822.37,-196.39 1819.37,-200.39 1798.37,-200.39 1795.37,-196.39 1711.63,-196.39 1711.63,-160.39 1822.37,-160.39 1822.37,-196.39"/>
<text text-anchor="middle" x="1767" y="-174.19" font-family="Times,serif" font-size="14.00">TabMainModule</text>
</g>
<!-- TabMainModule&#45;&gt;SafeChartSettingsModule -->
<g id="edge12" class="edge">
<title>TabMainModule&#45;&gt;SafeChartSettingsModule</title>
<path fill="none" stroke="black" d="M1767,-196.5C1767,-215.73 1767,-243.39 1767,-243.39 1767,-243.39 2154.72,-243.39 2154.72,-243.39"/>
<polygon fill="black" stroke="black" points="2154.72,-246.89 2164.72,-243.39 2154.72,-239.89 2154.72,-246.89"/>
</g>
<!-- TabPreviewModule -->
<g id="node14" class="node">
<title>TabPreviewModule</title>
<polygon fill="#8dd3c7" stroke="black" points="1693.69,-196.39 1690.69,-200.39 1669.69,-200.39 1666.69,-196.39 1566.31,-196.39 1566.31,-160.39 1693.69,-160.39 1693.69,-196.39"/>
<text text-anchor="middle" x="1630" y="-174.19" font-family="Times,serif" font-size="14.00">TabPreviewModule</text>
</g>
<!-- TabPreviewModule&#45;&gt;SafeChartSettingsModule -->
<g id="edge13" class="edge">
<title>TabPreviewModule&#45;&gt;SafeChartSettingsModule</title>
<path fill="none" stroke="black" d="M1630,-196.67C1630,-217.71 1630,-249.39 1630,-249.39 1630,-249.39 2154.6,-249.39 2154.6,-249.39"/>
<polygon fill="black" stroke="black" points="2154.6,-252.89 2164.6,-249.39 2154.6,-245.89 2154.6,-252.89"/>
</g>
</g>
</svg>
