<?xml version="1.0" encoding="UTF-8" standalone="no"?>
<!DOCTYPE svg PUBLIC "-//W3C//DTD SVG 1.1//EN"
 "http://www.w3.org/Graphics/SVG/1.1/DTD/svg11.dtd">
<!-- Generated by graphviz version 3.0.0 (20220226.1711)
 -->
<!-- Title: dependencies Pages: 1 -->
<svg width="1767pt" height="358pt"
 viewBox="0.00 0.00 1767.00 358.39" xmlns="http://www.w3.org/2000/svg" xmlns:xlink="http://www.w3.org/1999/xlink">
<g id="graph0" class="graph" transform="scale(1 1) rotate(0) translate(4 354.39)">
<title>dependencies</title>
<polygon fill="white" stroke="transparent" points="-4,4 -4,-354.39 1763,-354.39 1763,4 -4,4"/>
<text text-anchor="middle" x="879.5" y="-8.2" font-family="sans-serif" font-size="14.00">dependencies</text>
<g id="clust1" class="cluster">
<title>cluster_SafeChartSettingsModule</title>
<polygon fill="none" stroke="black" stroke-dasharray="1,5" points="8,-32.8 8,-342.39 1751,-342.39 1751,-32.8 8,-32.8"/>
</g>
<g id="clust4" class="cluster">
<title>cluster_SafeChartSettingsModule_imports</title>
<polygon fill="none" stroke="black" points="222,-152.39 222,-204.39 1743,-204.39 1743,-152.39 222,-152.39"/>
</g>
<g id="clust5" class="cluster">
<title>cluster_SafeChartSettingsModule_exports</title>
<polygon fill="none" stroke="black" points="808,-282.39 808,-334.39 1010,-334.39 1010,-282.39 808,-282.39"/>
</g>
<g id="clust2" class="cluster">
<title>cluster_SafeChartSettingsModule_declarations</title>
<polygon fill="none" stroke="black" points="16,-152.39 16,-204.39 214,-204.39 214,-152.39 16,-152.39"/>
</g>
<g id="clust3" class="cluster">
<title>cluster_SafeChartSettingsModule_SafeChartSettingsComponent_providers</title>
<polygon fill="none" stroke="black" points="16,-40.8 16,-139.39 1550,-139.39 1550,-40.8 16,-40.8"/>
</g>
<!-- SafeChartSettingsComponent -->
<g id="node1" class="node">
<title>SafeChartSettingsComponent</title>
<polygon fill="#ffffb3" stroke="black" points="206.43,-196.39 23.57,-196.39 23.57,-160.39 206.43,-160.39 206.43,-196.39"/>
<text text-anchor="middle" x="115" y="-174.19" font-family="Times,serif" font-size="14.00">SafeChartSettingsComponent</text>
</g>
<!-- SafeChartSettingsModule -->
<g id="node2" class="node">
<title>SafeChartSettingsModule</title>
<polygon fill="#8dd3c7" stroke="black" points="989.15,-261.39 986.15,-265.39 965.15,-265.39 962.15,-261.39 828.85,-261.39 828.85,-225.39 989.15,-225.39 989.15,-261.39"/>
<text text-anchor="middle" x="909" y="-239.19" font-family="Times,serif" font-size="14.00">SafeChartSettingsModule</text>
</g>
<!-- SafeChartSettingsComponent&#45;&gt;SafeChartSettingsModule -->
<g id="edge1" class="edge">
<title>SafeChartSettingsComponent&#45;&gt;SafeChartSettingsModule</title>
<path fill="none" stroke="black" d="M115,-196.64C115,-219.41 115,-255.39 115,-255.39 115,-255.39 818.5,-255.39 818.5,-255.39"/>
<polygon fill="black" stroke="black" points="818.5,-258.89 828.5,-255.39 818.5,-251.89 818.5,-258.89"/>
</g>
<!-- SafeChartSettingsComponent  -->
<g id="node15" class="node">
<title>SafeChartSettingsComponent </title>
<polygon fill="#fb8072" stroke="black" points="1001.93,-326.39 816.07,-326.39 816.07,-290.39 1001.93,-290.39 1001.93,-326.39"/>
<text text-anchor="middle" x="909" y="-304.19" font-family="Times,serif" font-size="14.00">SafeChartSettingsComponent </text>
</g>
<!-- SafeChartSettingsModule&#45;&gt;SafeChartSettingsComponent  -->
<g id="edge14" class="edge">
<title>SafeChartSettingsModule&#45;&gt;SafeChartSettingsComponent </title>
<path fill="none" stroke="black" stroke-dasharray="5,2" d="M909,-261.5C909,-261.5 909,-280.38 909,-280.38"/>
<polygon fill="black" stroke="black" points="905.5,-280.38 909,-290.38 912.5,-280.38 905.5,-280.38"/>
</g>
<!-- {
 &#160;&#160;&#160;provide: MAT_AUTOCOMPLETE_SCROLL_STRATEGY, useFactory: scrollFactory, deps: [Overlay],
} -->
<g id="node3" class="node">
<title>{
 &#160;&#160;&#160;provide: MAT_AUTOCOMPLETE_SCROLL_STRATEGY, useFactory: scrollFactory, deps: [Overlay],
}</title>
<ellipse fill="#fdb462" stroke="black" cx="1104" cy="-90.1" rx="438.07" ry="41.09"/>
<text text-anchor="middle" x="1104" y="-102.7" font-family="Times,serif" font-size="14.00">{</text>
<text text-anchor="middle" x="1104" y="-85.9" font-family="Times,serif" font-size="14.00"> &#160;&#160;&#160;provide: MAT_AUTOCOMPLETE_SCROLL_STRATEGY, useFactory: scrollFactory, deps: [Overlay],</text>
<text text-anchor="middle" x="1104" y="-69.1" font-family="Times,serif" font-size="14.00">}</text>
</g>
<!-- {
 &#160;&#160;&#160;provide: MAT_AUTOCOMPLETE_SCROLL_STRATEGY, useFactory: scrollFactory, deps: [Overlay],
}&#45;&gt;SafeChartSettingsComponent -->
<g id="edge2" class="edge">
<title>{
 &#160;&#160;&#160;provide: MAT_AUTOCOMPLETE_SCROLL_STRATEGY, useFactory: scrollFactory, deps: [Overlay],
}&#45;&gt;SafeChartSettingsComponent</title>
<path fill="none" stroke="black" d="M806.01,-120.39C524.68,-120.39 145.61,-120.39 145.61,-120.39 145.61,-120.39 145.61,-150.36 145.61,-150.36"/>
<polygon fill="black" stroke="black" points="142.11,-150.36 145.61,-160.36 149.11,-150.36 142.11,-150.36"/>
</g>
<!-- { provide: MAT_CHIPS_DEFAULT_OPTIONS, useFactory: codesFactory } -->
<g id="node4" class="node">
<title>{ provide: MAT_CHIPS_DEFAULT_OPTIONS, useFactory: codesFactory }</title>
<ellipse fill="#fdb462" stroke="black" cx="336" cy="-90.1" rx="311.7" ry="18"/>
<text text-anchor="middle" x="336" y="-85.9" font-family="Times,serif" font-size="14.00">{ provide: MAT_CHIPS_DEFAULT_OPTIONS, useFactory: codesFactory }</text>
</g>
<!-- { provide: MAT_CHIPS_DEFAULT_OPTIONS, useFactory: codesFactory }&#45;&gt;SafeChartSettingsComponent -->
<g id="edge3" class="edge">
<title>{ provide: MAT_CHIPS_DEFAULT_OPTIONS, useFactory: codesFactory }&#45;&gt;SafeChartSettingsComponent</title>
<path fill="none" stroke="black" d="M85,-100.92C85,-100.92 85,-150.1 85,-150.1"/>
<polygon fill="black" stroke="black" points="81.51,-150.1 85,-160.1 88.51,-150.1 81.51,-150.1"/>
</g>
<!-- SafeAggregationBuilderModule -->
<g id="node5" class="node">
<title>SafeAggregationBuilderModule</title>
<polygon fill="#8dd3c7" stroke="black" points="1735.4,-196.39 1732.4,-200.39 1711.4,-200.39 1708.4,-196.39 1538.6,-196.39 1538.6,-160.39 1735.4,-160.39 1735.4,-196.39"/>
<text text-anchor="middle" x="1637" y="-174.19" font-family="Times,serif" font-size="14.00">SafeAggregationBuilderModule</text>
</g>
<!-- SafeAggregationBuilderModule&#45;&gt;SafeChartSettingsModule -->
<g id="edge4" class="edge">
<title>SafeAggregationBuilderModule&#45;&gt;SafeChartSettingsModule</title>
<path fill="none" stroke="black" d="M1637,-196.64C1637,-219.41 1637,-255.39 1637,-255.39 1637,-255.39 999.34,-255.39 999.34,-255.39"/>
<polygon fill="black" stroke="black" points="999.34,-251.89 989.34,-255.39 999.34,-258.89 999.34,-251.89"/>
</g>
<!-- SafeButtonModule -->
<g id="node6" class="node">
<title>SafeButtonModule</title>
<polygon fill="#8dd3c7" stroke="black" points="1521.05,-196.39 1518.05,-200.39 1497.05,-200.39 1494.05,-196.39 1398.95,-196.39 1398.95,-160.39 1521.05,-160.39 1521.05,-196.39"/>
<text text-anchor="middle" x="1460" y="-174.19" font-family="Times,serif" font-size="14.00">SafeButtonModule</text>
</g>
<!-- SafeButtonModule&#45;&gt;SafeChartSettingsModule -->
<g id="edge5" class="edge">
<title>SafeButtonModule&#45;&gt;SafeChartSettingsModule</title>
<path fill="none" stroke="black" d="M1460,-196.67C1460,-217.71 1460,-249.39 1460,-249.39 1460,-249.39 999.41,-249.39 999.41,-249.39"/>
<polygon fill="black" stroke="black" points="999.42,-245.89 989.41,-249.39 999.41,-252.89 999.42,-245.89"/>
</g>
<!-- SafeChartModule -->
<g id="node7" class="node">
<title>SafeChartModule</title>
<polygon fill="#8dd3c7" stroke="black" points="1380.53,-196.39 1377.53,-200.39 1356.53,-200.39 1353.53,-196.39 1265.47,-196.39 1265.47,-160.39 1380.53,-160.39 1380.53,-196.39"/>
<text text-anchor="middle" x="1323" y="-174.19" font-family="Times,serif" font-size="14.00">SafeChartModule</text>
</g>
<!-- SafeChartModule&#45;&gt;SafeChartSettingsModule -->
<g id="edge6" class="edge">
<title>SafeChartModule&#45;&gt;SafeChartSettingsModule</title>
<path fill="none" stroke="black" d="M1323,-196.5C1323,-215.73 1323,-243.39 1323,-243.39 1323,-243.39 999.31,-243.39 999.31,-243.39"/>
<polygon fill="black" stroke="black" points="999.31,-239.89 989.31,-243.39 999.31,-246.89 999.31,-239.89"/>
</g>
<!-- SafeGridModule -->
<g id="node8" class="node">
<title>SafeGridModule</title>
<polygon fill="#8dd3c7" stroke="black" points="1247.09,-196.39 1244.09,-200.39 1223.09,-200.39 1220.09,-196.39 1136.91,-196.39 1136.91,-160.39 1247.09,-160.39 1247.09,-196.39"/>
<text text-anchor="middle" x="1192" y="-174.19" font-family="Times,serif" font-size="14.00">SafeGridModule</text>
</g>
<!-- SafeGridModule&#45;&gt;SafeChartSettingsModule -->
<g id="edge7" class="edge">
<title>SafeGridModule&#45;&gt;SafeChartSettingsModule</title>
<path fill="none" stroke="black" d="M1192,-196.41C1192,-213.76 1192,-237.39 1192,-237.39 1192,-237.39 999.34,-237.39 999.34,-237.39"/>
<polygon fill="black" stroke="black" points="999.34,-233.89 989.34,-237.39 999.34,-240.89 999.34,-233.89"/>
</g>
<!-- SafeIconModule -->
<g id="node9" class="node">
<title>SafeIconModule</title>
<polygon fill="#8dd3c7" stroke="black" points="1118.8,-196.39 1115.8,-200.39 1094.8,-200.39 1091.8,-196.39 1009.2,-196.39 1009.2,-160.39 1118.8,-160.39 1118.8,-196.39"/>
<text text-anchor="middle" x="1064" y="-174.19" font-family="Times,serif" font-size="14.00">SafeIconModule</text>
</g>
<!-- SafeIconModule&#45;&gt;SafeChartSettingsModule -->
<g id="edge8" class="edge">
<title>SafeIconModule&#45;&gt;SafeChartSettingsModule</title>
<path fill="none" stroke="black" d="M1064,-196.63C1064,-211.96 1064,-231.39 1064,-231.39 1064,-231.39 999.22,-231.39 999.22,-231.39"/>
<polygon fill="black" stroke="black" points="999.22,-227.89 989.22,-231.39 999.22,-234.89 999.22,-227.89"/>
</g>
<!-- SafePaletteControlModule -->
<g id="node10" class="node">
<title>SafePaletteControlModule</title>
<polygon fill="#8dd3c7" stroke="black" points="991.8,-196.39 988.8,-200.39 967.8,-200.39 964.8,-196.39 826.2,-196.39 826.2,-160.39 991.8,-160.39 991.8,-196.39"/>
<text text-anchor="middle" x="909" y="-174.19" font-family="Times,serif" font-size="14.00">SafePaletteControlModule</text>
</g>
<!-- SafePaletteControlModule&#45;&gt;SafeChartSettingsModule -->
<g id="edge9" class="edge">
<title>SafePaletteControlModule&#45;&gt;SafeChartSettingsModule</title>
<path fill="none" stroke="black" d="M909,-196.5C909,-196.5 909,-215.38 909,-215.38"/>
<polygon fill="black" stroke="black" points="905.5,-215.38 909,-225.38 912.5,-215.38 905.5,-215.38"/>
</g>
<!-- SafeQueryBuilderModule -->
<g id="node11" class="node">
<title>SafeQueryBuilderModule</title>
<polygon fill="#8dd3c7" stroke="black" points="808.91,-196.39 805.91,-200.39 784.91,-200.39 781.91,-196.39 647.09,-196.39 647.09,-160.39 808.91,-160.39 808.91,-196.39"/>
<text text-anchor="middle" x="728" y="-174.19" font-family="Times,serif" font-size="14.00">SafeQueryBuilderModule</text>
</g>
<!-- SafeQueryBuilderModule&#45;&gt;SafeChartSettingsModule -->
<g id="edge10" class="edge">
<title>SafeQueryBuilderModule&#45;&gt;SafeChartSettingsModule</title>
<path fill="none" stroke="black" d="M728,-196.63C728,-211.96 728,-231.39 728,-231.39 728,-231.39 818.82,-231.39 818.82,-231.39"/>
<polygon fill="black" stroke="black" points="818.82,-234.89 828.82,-231.39 818.82,-227.89 818.82,-234.89"/>
</g>
<!-- TabDisplayModule -->
<g id="node12" class="node">
<title>TabDisplayModule</title>
<polygon fill="#8dd3c7" stroke="black" points="629.37,-196.39 626.37,-200.39 605.37,-200.39 602.37,-196.39 504.63,-196.39 504.63,-160.39 629.37,-160.39 629.37,-196.39"/>
<text text-anchor="middle" x="567" y="-174.19" font-family="Times,serif" font-size="14.00">TabDisplayModule</text>
</g>
<!-- TabDisplayModule&#45;&gt;SafeChartSettingsModule -->
<g id="edge11" class="edge">
<title>TabDisplayModule&#45;&gt;SafeChartSettingsModule</title>
<path fill="none" stroke="black" d="M567,-196.41C567,-213.76 567,-237.39 567,-237.39 567,-237.39 818.82,-237.39 818.82,-237.39"/>
<polygon fill="black" stroke="black" points="818.82,-240.89 828.82,-237.39 818.82,-233.89 818.82,-240.89"/>
</g>
<!-- TabMainModule -->
<g id="node13" class="node">
<title>TabMainModule</title>
<polygon fill="#8dd3c7" stroke="black" points="486.37,-196.39 483.37,-200.39 462.37,-200.39 459.37,-196.39 375.63,-196.39 375.63,-160.39 486.37,-160.39 486.37,-196.39"/>
<text text-anchor="middle" x="431" y="-174.19" font-family="Times,serif" font-size="14.00">TabMainModule</text>
</g>
<!-- TabMainModule&#45;&gt;SafeChartSettingsModule -->
<g id="edge12" class="edge">
<title>TabMainModule&#45;&gt;SafeChartSettingsModule</title>
<path fill="none" stroke="black" d="M431,-196.5C431,-215.73 431,-243.39 431,-243.39 431,-243.39 818.72,-243.39 818.72,-243.39"/>
<polygon fill="black" stroke="black" points="818.72,-246.89 828.72,-243.39 818.72,-239.89 818.72,-246.89"/>
</g>
<!-- TabPreviewModule -->
<g id="node14" class="node">
<title>TabPreviewModule</title>
<polygon fill="#8dd3c7" stroke="black" points="357.69,-196.39 354.69,-200.39 333.69,-200.39 330.69,-196.39 230.31,-196.39 230.31,-160.39 357.69,-160.39 357.69,-196.39"/>
<text text-anchor="middle" x="294" y="-174.19" font-family="Times,serif" font-size="14.00">TabPreviewModule</text>
</g>
<!-- TabPreviewModule&#45;&gt;SafeChartSettingsModule -->
<g id="edge13" class="edge">
<title>TabPreviewModule&#45;&gt;SafeChartSettingsModule</title>
<path fill="none" stroke="black" d="M294,-196.67C294,-217.71 294,-249.39 294,-249.39 294,-249.39 818.6,-249.39 818.6,-249.39"/>
<polygon fill="black" stroke="black" points="818.6,-252.89 828.6,-249.39 818.6,-245.89 818.6,-252.89"/>
</g>
</g>
</svg>
