<?xml version="1.0" encoding="UTF-8" standalone="no"?>
<!DOCTYPE svg PUBLIC "-//W3C//DTD SVG 1.1//EN"
 "http://www.w3.org/Graphics/SVG/1.1/DTD/svg11.dtd">
<!-- Generated by graphviz version 3.0.0 (20220226.1711)
 -->
<!-- Title: dependencies Pages: 1 -->
<svg width="360pt" height="247pt"
 viewBox="0.00 0.00 360.00 246.80" xmlns="http://www.w3.org/2000/svg" xmlns:xlink="http://www.w3.org/1999/xlink">
<g id="graph0" class="graph" transform="scale(1 1) rotate(0) translate(4 242.8)">
<title>dependencies</title>
<polygon fill="white" stroke="transparent" points="-4,4 -4,-242.8 356,-242.8 356,4 -4,4"/>
<text text-anchor="middle" x="176" y="-8.2" font-family="sans-serif" font-size="14.00">dependencies</text>
<g id="clust1" class="cluster">
<title>cluster_EditPullJobModalModule</title>
<polygon fill="none" stroke="black" stroke-dasharray="1,5" points="8,-32.8 8,-230.8 344,-230.8 344,-32.8 8,-32.8"/>
</g>
<g id="clust2" class="cluster">
<title>cluster_EditPullJobModalModule_declarations</title>
<polygon fill="none" stroke="black" points="136,-40.8 136,-92.8 336,-92.8 336,-40.8 136,-40.8"/>
</g>
<g id="clust5" class="cluster">
<title>cluster_EditPullJobModalModule_exports</title>
<polygon fill="none" stroke="black" points="75,-170.8 75,-222.8 277,-222.8 277,-170.8 75,-170.8"/>
</g>
<g id="clust4" class="cluster">
<title>cluster_EditPullJobModalModule_imports</title>
<polygon fill="none" stroke="black" points="16,-40.8 16,-92.8 128,-92.8 128,-40.8 16,-40.8"/>
</g>
<!-- EditPullJobModalComponent -->
<g id="node1" class="node">
<title>EditPullJobModalComponent</title>
<polygon fill="#ffffb3" stroke="black" points="327.73,-84.8 144.27,-84.8 144.27,-48.8 327.73,-48.8 327.73,-84.8"/>
<text text-anchor="middle" x="236" y="-62.6" font-family="Times,serif" font-size="14.00">EditPullJobModalComponent</text>
</g>
<!-- EditPullJobModalModule -->
<g id="node2" class="node">
<title>EditPullJobModalModule</title>
<polygon fill="#8dd3c7" stroke="black" points="256.95,-149.8 253.95,-153.8 232.95,-153.8 229.95,-149.8 95.05,-149.8 95.05,-113.8 256.95,-113.8 256.95,-149.8"/>
<text text-anchor="middle" x="176" y="-127.6" font-family="Times,serif" font-size="14.00">EditPullJobModalModule</text>
</g>
<!-- EditPullJobModalComponent&#45;&gt;EditPullJobModalModule -->
<g id="edge1" class="edge">
<title>EditPullJobModalComponent&#45;&gt;EditPullJobModalModule</title>
<path fill="none" stroke="black" d="M200.56,-84.91C200.56,-84.91 200.56,-103.79 200.56,-103.79"/>
<polygon fill="black" stroke="black" points="197.06,-103.79 200.56,-113.79 204.06,-103.79 197.06,-103.79"/>
</g>
<!-- EditPullJobModalComponent  -->
<g id="node4" class="node">
<title>EditPullJobModalComponent </title>
<polygon fill="#fb8072" stroke="black" points="269.23,-214.8 82.77,-214.8 82.77,-178.8 269.23,-178.8 269.23,-214.8"/>
<text text-anchor="middle" x="176" y="-192.6" font-family="Times,serif" font-size="14.00">EditPullJobModalComponent </text>
</g>
<!-- EditPullJobModalModule&#45;&gt;EditPullJobModalComponent  -->
<g id="edge3" class="edge">
<title>EditPullJobModalModule&#45;&gt;EditPullJobModalComponent </title>
<path fill="none" stroke="black" stroke-dasharray="5,2" d="M176,-149.91C176,-149.91 176,-168.79 176,-168.79"/>
<polygon fill="black" stroke="black" points="172.5,-168.79 176,-178.79 179.5,-168.79 172.5,-168.79"/>
</g>
<!-- FormsModule -->
<g id="node3" class="node">
<title>FormsModule</title>
<polygon fill="#8dd3c7" stroke="black" points="119.84,-84.8 116.84,-88.8 95.84,-88.8 92.84,-84.8 24.16,-84.8 24.16,-48.8 119.84,-48.8 119.84,-84.8"/>
<text text-anchor="middle" x="72" y="-62.6" font-family="Times,serif" font-size="14.00">FormsModule</text>
</g>
<!-- FormsModule&#45;&gt;EditPullJobModalModule -->
<g id="edge2" class="edge">
<title>FormsModule&#45;&gt;EditPullJobModalModule</title>
<path fill="none" stroke="black" d="M107.47,-84.91C107.47,-84.91 107.47,-103.79 107.47,-103.79"/>
<polygon fill="black" stroke="black" points="103.97,-103.79 107.47,-113.79 110.97,-103.79 103.97,-103.79"/>
</g>
</g>
</svg>
