<?xml version="1.0" encoding="UTF-8" standalone="no"?>
<!DOCTYPE svg PUBLIC "-//W3C//DTD SVG 1.1//EN"
 "http://www.w3.org/Graphics/SVG/1.1/DTD/svg11.dtd">
<!-- Generated by graphviz version 2.47.0 (20210316.0004)
 -->
<!-- Title: dependencies Pages: 1 -->
<svg width="910pt" height="284pt"
 viewBox="0.00 0.00 910.00 284.00" xmlns="http://www.w3.org/2000/svg" xmlns:xlink="http://www.w3.org/1999/xlink">
<g id="graph0" class="graph" transform="scale(1 1) rotate(0) translate(4 280)">
<title>dependencies</title>
<polygon fill="white" stroke="transparent" points="-4,4 -4,-280 906,-280 906,4 -4,4"/>
<text text-anchor="start" x="430.01" y="-42.4" font-family="sans-serif" font-weight="bold" font-size="14.00">Legend</text>
<polygon fill="#ffffb3" stroke="transparent" points="217,-10 217,-30 237,-30 237,-10 217,-10"/>
<text text-anchor="start" x="240.63" y="-15.4" font-family="sans-serif" font-size="14.00"> &#160;Declarations</text>
<polygon fill="#8dd3c7" stroke="transparent" points="330,-10 330,-30 350,-30 350,-10 330,-10"/>
<text text-anchor="start" x="353.73" y="-15.4" font-family="sans-serif" font-size="14.00"> &#160;Module</text>
<polygon fill="#80b1d3" stroke="transparent" points="416,-10 416,-30 436,-30 436,-10 416,-10"/>
<text text-anchor="start" x="439.78" y="-15.4" font-family="sans-serif" font-size="14.00"> &#160;Bootstrap</text>
<polygon fill="#fdb462" stroke="transparent" points="513,-10 513,-30 533,-30 533,-10 513,-10"/>
<text text-anchor="start" x="536.67" y="-15.4" font-family="sans-serif" font-size="14.00"> &#160;Providers</text>
<polygon fill="#fb8072" stroke="transparent" points="609,-10 609,-30 629,-30 629,-10 609,-10"/>
<text text-anchor="start" x="632.73" y="-15.4" font-family="sans-serif" font-size="14.00"> &#160;Exports</text>
<g id="clust1" class="cluster">
<title>cluster_SafeChooseRecordModalModule</title>
<polygon fill="none" stroke="black" stroke-dasharray="1,5" points="8,-70 8,-268 894,-268 894,-70 8,-70"/>
</g>
<g id="clust4" class="cluster">
<title>cluster_SafeChooseRecordModalModule_imports</title>
<polygon fill="none" stroke="black" points="266,-78 266,-130 886,-130 886,-78 266,-78"/>
</g>
<g id="clust2" class="cluster">
<title>cluster_SafeChooseRecordModalModule_declarations</title>
<polygon fill="none" stroke="black" points="16,-78 16,-130 258,-130 258,-78 16,-78"/>
</g>
<g id="clust5" class="cluster">
<title>cluster_SafeChooseRecordModalModule_exports</title>
<polygon fill="none" stroke="black" points="331,-208 331,-260 575,-260 575,-208 331,-208"/>
</g>
<!-- SafeChooseRecordModalComponent -->
<g id="node1" class="node">
<title>SafeChooseRecordModalComponent</title>
<polygon fill="#ffffb3" stroke="black" points="249.68,-122 24.32,-122 24.32,-86 249.68,-86 249.68,-122"/>
<text text-anchor="middle" x="137" y="-99.8" font-family="Times,serif" font-size="14.00">SafeChooseRecordModalComponent</text>
</g>
<!-- SafeChooseRecordModalModule -->
<g id="node2" class="node">
<title>SafeChooseRecordModalModule</title>
<polygon fill="#8dd3c7" stroke="black" points="554.89,-187 551.89,-191 530.89,-191 527.89,-187 351.11,-187 351.11,-151 554.89,-151 554.89,-187"/>
<text text-anchor="middle" x="453" y="-164.8" font-family="Times,serif" font-size="14.00">SafeChooseRecordModalModule</text>
</g>
<!-- SafeChooseRecordModalComponent&#45;&gt;SafeChooseRecordModalModule -->
<g id="edge1" class="edge">
<title>SafeChooseRecordModalComponent&#45;&gt;SafeChooseRecordModalModule</title>
<path fill="none" stroke="black" d="M137,-122.11C137,-141.34 137,-169 137,-169 137,-169 341.28,-169 341.28,-169"/>
<polygon fill="black" stroke="black" points="341.28,-172.5 351.28,-169 341.28,-165.5 341.28,-172.5"/>
</g>
<!-- SafeChooseRecordModalComponent  -->
<g id="node6" class="node">
<title>SafeChooseRecordModalComponent </title>
<polygon fill="#fb8072" stroke="black" points="567.18,-252 338.82,-252 338.82,-216 567.18,-216 567.18,-252"/>
<text text-anchor="middle" x="453" y="-229.8" font-family="Times,serif" font-size="14.00">SafeChooseRecordModalComponent </text>
</g>
<!-- SafeChooseRecordModalModule&#45;&gt;SafeChooseRecordModalComponent  -->
<g id="edge5" class="edge">
<title>SafeChooseRecordModalModule&#45;&gt;SafeChooseRecordModalComponent </title>
<path fill="none" stroke="black" stroke-dasharray="5,2" d="M453,-187.11C453,-187.11 453,-205.99 453,-205.99"/>
<polygon fill="black" stroke="black" points="449.5,-205.99 453,-215.99 456.5,-205.99 449.5,-205.99"/>
</g>
<!-- SafeApplicationDropdownModule -->
<g id="node3" class="node">
<title>SafeApplicationDropdownModule</title>
<polygon fill="#8dd3c7" stroke="black" points="878.39,-122 875.39,-126 854.39,-126 851.39,-122 667.61,-122 667.61,-86 878.39,-86 878.39,-122"/>
<text text-anchor="middle" x="773" y="-99.8" font-family="Times,serif" font-size="14.00">SafeApplicationDropdownModule</text>
</g>
<!-- SafeApplicationDropdownModule&#45;&gt;SafeChooseRecordModalModule -->
<g id="edge2" class="edge">
<title>SafeApplicationDropdownModule&#45;&gt;SafeChooseRecordModalModule</title>
<path fill="none" stroke="black" d="M773,-122.11C773,-141.34 773,-169 773,-169 773,-169 565.13,-169 565.13,-169"/>
<polygon fill="black" stroke="black" points="565.13,-165.5 555.13,-169 565.13,-172.5 565.13,-165.5"/>
</g>
<!-- SafeResourceDropdownModule -->
<g id="node4" class="node">
<title>SafeResourceDropdownModule</title>
<polygon fill="#8dd3c7" stroke="black" points="650.38,-122 647.38,-126 626.38,-126 623.38,-122 453.62,-122 453.62,-86 650.38,-86 650.38,-122"/>
<text text-anchor="middle" x="552" y="-99.8" font-family="Times,serif" font-size="14.00">SafeResourceDropdownModule</text>
</g>
<!-- SafeResourceDropdownModule&#45;&gt;SafeChooseRecordModalModule -->
<g id="edge3" class="edge">
<title>SafeResourceDropdownModule&#45;&gt;SafeChooseRecordModalModule</title>
<path fill="none" stroke="black" d="M504.25,-122.11C504.25,-122.11 504.25,-140.99 504.25,-140.99"/>
<polygon fill="black" stroke="black" points="500.75,-140.99 504.25,-150.99 507.75,-140.99 500.75,-140.99"/>
</g>
<!-- SafeResourceGridModule -->
<g id="node5" class="node">
<title>SafeResourceGridModule</title>
<polygon fill="#8dd3c7" stroke="black" points="436.17,-122 433.17,-126 412.17,-126 409.17,-122 273.83,-122 273.83,-86 436.17,-86 436.17,-122"/>
<text text-anchor="middle" x="355" y="-99.8" font-family="Times,serif" font-size="14.00">SafeResourceGridModule</text>
</g>
<!-- SafeResourceGridModule&#45;&gt;SafeChooseRecordModalModule -->
<g id="edge4" class="edge">
<title>SafeResourceGridModule&#45;&gt;SafeChooseRecordModalModule</title>
<path fill="none" stroke="black" d="M393.69,-122.11C393.69,-122.11 393.69,-140.99 393.69,-140.99"/>
<polygon fill="black" stroke="black" points="390.19,-140.99 393.69,-150.99 397.19,-140.99 390.19,-140.99"/>
</g>
</g>
</svg>
