<?xml version="1.0" encoding="UTF-8" standalone="no"?>
<!DOCTYPE svg PUBLIC "-//W3C//DTD SVG 1.1//EN"
 "http://www.w3.org/Graphics/SVG/1.1/DTD/svg11.dtd">
<!-- Generated by graphviz version 2.47.0 (20210316.0004)
 -->
<!-- Title: dependencies Pages: 1 -->
<svg width="682pt" height="284pt"
 viewBox="0.00 0.00 682.00 284.00" xmlns="http://www.w3.org/2000/svg" xmlns:xlink="http://www.w3.org/1999/xlink">
<g id="graph0" class="graph" transform="scale(1 1) rotate(0) translate(4 280)">
<title>dependencies</title>
<polygon fill="white" stroke="transparent" points="-4,4 -4,-280 678,-280 678,4 -4,4"/>
<text text-anchor="start" x="316.01" y="-42.4" font-family="sans-serif" font-weight="bold" font-size="14.00">Legend</text>
<polygon fill="#ffffb3" stroke="transparent" points="103,-10 103,-30 123,-30 123,-10 103,-10"/>
<text text-anchor="start" x="126.63" y="-15.4" font-family="sans-serif" font-size="14.00"> &#160;Declarations</text>
<polygon fill="#8dd3c7" stroke="transparent" points="216,-10 216,-30 236,-30 236,-10 216,-10"/>
<text text-anchor="start" x="239.73" y="-15.4" font-family="sans-serif" font-size="14.00"> &#160;Module</text>
<polygon fill="#80b1d3" stroke="transparent" points="302,-10 302,-30 322,-30 322,-10 302,-10"/>
<text text-anchor="start" x="325.78" y="-15.4" font-family="sans-serif" font-size="14.00"> &#160;Bootstrap</text>
<polygon fill="#fdb462" stroke="transparent" points="399,-10 399,-30 419,-30 419,-10 399,-10"/>
<text text-anchor="start" x="422.67" y="-15.4" font-family="sans-serif" font-size="14.00"> &#160;Providers</text>
<polygon fill="#fb8072" stroke="transparent" points="495,-10 495,-30 515,-30 515,-10 495,-10"/>
<text text-anchor="start" x="518.73" y="-15.4" font-family="sans-serif" font-size="14.00"> &#160;Exports</text>
<g id="clust1" class="cluster">
<title>cluster_SafeChooseRecordModalModule</title>
<polygon fill="none" stroke="black" stroke-dasharray="1,5" points="8,-70 8,-268 666,-268 666,-70 8,-70"/>
</g>
<g id="clust2" class="cluster">
<title>cluster_SafeChooseRecordModalModule_declarations</title>
<polygon fill="none" stroke="black" points="416,-78 416,-130 658,-130 658,-78 416,-78"/>
</g>
<g id="clust4" class="cluster">
<title>cluster_SafeChooseRecordModalModule_imports</title>
<polygon fill="none" stroke="black" points="16,-78 16,-130 408,-130 408,-78 16,-78"/>
</g>
<g id="clust5" class="cluster">
<title>cluster_SafeChooseRecordModalModule_exports</title>
<polygon fill="none" stroke="black" points="180,-208 180,-260 424,-260 424,-208 180,-208"/>
</g>
<!-- SafeChooseRecordModalComponent -->
<g id="node1" class="node">
<title>SafeChooseRecordModalComponent</title>
<polygon fill="#ffffb3" stroke="black" points="649.68,-122 424.32,-122 424.32,-86 649.68,-86 649.68,-122"/>
<text text-anchor="middle" x="537" y="-99.8" font-family="Times,serif" font-size="14.00">SafeChooseRecordModalComponent</text>
</g>
<!-- SafeChooseRecordModalModule -->
<g id="node2" class="node">
<title>SafeChooseRecordModalModule</title>
<polygon fill="#8dd3c7" stroke="black" points="403.89,-187 400.89,-191 379.89,-191 376.89,-187 200.11,-187 200.11,-151 403.89,-151 403.89,-187"/>
<text text-anchor="middle" x="302" y="-164.8" font-family="Times,serif" font-size="14.00">SafeChooseRecordModalModule</text>
</g>
<!-- SafeChooseRecordModalComponent&#45;&gt;SafeChooseRecordModalModule -->
<g id="edge1" class="edge">
<title>SafeChooseRecordModalComponent&#45;&gt;SafeChooseRecordModalModule</title>
<path fill="none" stroke="black" d="M537,-122.11C537,-141.34 537,-169 537,-169 537,-169 413.71,-169 413.71,-169"/>
<polygon fill="black" stroke="black" points="413.71,-165.5 403.71,-169 413.71,-172.5 413.71,-165.5"/>
</g>
<!-- SafeChooseRecordModalComponent  -->
<g id="node5" class="node">
<title>SafeChooseRecordModalComponent </title>
<polygon fill="#fb8072" stroke="black" points="416.18,-252 187.82,-252 187.82,-216 416.18,-216 416.18,-252"/>
<text text-anchor="middle" x="302" y="-229.8" font-family="Times,serif" font-size="14.00">SafeChooseRecordModalComponent </text>
</g>
<!-- SafeChooseRecordModalModule&#45;&gt;SafeChooseRecordModalComponent  -->
<g id="edge4" class="edge">
<title>SafeChooseRecordModalModule&#45;&gt;SafeChooseRecordModalComponent </title>
<path fill="none" stroke="black" stroke-dasharray="5,2" d="M302,-187.11C302,-187.11 302,-205.99 302,-205.99"/>
<polygon fill="black" stroke="black" points="298.5,-205.99 302,-215.99 305.5,-205.99 298.5,-205.99"/>
</g>
<!-- SafeResourceDropdownModule -->
<g id="node3" class="node">
<title>SafeResourceDropdownModule</title>
<polygon fill="#8dd3c7" stroke="black" points="400.38,-122 397.38,-126 376.38,-126 373.38,-122 203.62,-122 203.62,-86 400.38,-86 400.38,-122"/>
<text text-anchor="middle" x="302" y="-99.8" font-family="Times,serif" font-size="14.00">SafeResourceDropdownModule</text>
</g>
<!-- SafeResourceDropdownModule&#45;&gt;SafeChooseRecordModalModule -->
<g id="edge2" class="edge">
<title>SafeResourceDropdownModule&#45;&gt;SafeChooseRecordModalModule</title>
<path fill="none" stroke="black" d="M302,-122.11C302,-122.11 302,-140.99 302,-140.99"/>
<polygon fill="black" stroke="black" points="298.5,-140.99 302,-150.99 305.5,-140.99 298.5,-140.99"/>
</g>
<!-- SafeResourceGridModule -->
<g id="node4" class="node">
<title>SafeResourceGridModule</title>
<polygon fill="#8dd3c7" stroke="black" points="186.17,-122 183.17,-126 162.17,-126 159.17,-122 23.83,-122 23.83,-86 186.17,-86 186.17,-122"/>
<text text-anchor="middle" x="105" y="-99.8" font-family="Times,serif" font-size="14.00">SafeResourceGridModule</text>
</g>
<!-- SafeResourceGridModule&#45;&gt;SafeChooseRecordModalModule -->
<g id="edge3" class="edge">
<title>SafeResourceGridModule&#45;&gt;SafeChooseRecordModalModule</title>
<path fill="none" stroke="black" d="M105,-122.11C105,-141.34 105,-169 105,-169 105,-169 190.04,-169 190.04,-169"/>
<polygon fill="black" stroke="black" points="190.04,-172.5 200.04,-169 190.04,-165.5 190.04,-172.5"/>
</g>
</g>
</svg>
