<?xml version="1.0" encoding="UTF-8" standalone="no"?>
<!DOCTYPE svg PUBLIC "-//W3C//DTD SVG 1.1//EN"
 "http://www.w3.org/Graphics/SVG/1.1/DTD/svg11.dtd">
<!-- Generated by graphviz version 2.47.0 (20210316.0004)
 -->
<!-- Title: dependencies Pages: 1 -->
<svg width="1114pt" height="284pt"
 viewBox="0.00 0.00 1114.00 284.00" xmlns="http://www.w3.org/2000/svg" xmlns:xlink="http://www.w3.org/1999/xlink">
<g id="graph0" class="graph" transform="scale(1 1) rotate(0) translate(4 280)">
<title>dependencies</title>
<polygon fill="white" stroke="transparent" points="-4,4 -4,-280 1110,-280 1110,4 -4,4"/>
<text text-anchor="start" x="532.01" y="-42.4" font-family="sans-serif" font-weight="bold" font-size="14.00">Legend</text>
<polygon fill="#ffffb3" stroke="transparent" points="319,-10 319,-30 339,-30 339,-10 319,-10"/>
<text text-anchor="start" x="342.63" y="-15.4" font-family="sans-serif" font-size="14.00"> &#160;Declarations</text>
<polygon fill="#8dd3c7" stroke="transparent" points="432,-10 432,-30 452,-30 452,-10 432,-10"/>
<text text-anchor="start" x="455.73" y="-15.4" font-family="sans-serif" font-size="14.00"> &#160;Module</text>
<polygon fill="#80b1d3" stroke="transparent" points="518,-10 518,-30 538,-30 538,-10 518,-10"/>
<text text-anchor="start" x="541.78" y="-15.4" font-family="sans-serif" font-size="14.00"> &#160;Bootstrap</text>
<polygon fill="#fdb462" stroke="transparent" points="615,-10 615,-30 635,-30 635,-10 615,-10"/>
<text text-anchor="start" x="638.67" y="-15.4" font-family="sans-serif" font-size="14.00"> &#160;Providers</text>
<polygon fill="#fb8072" stroke="transparent" points="711,-10 711,-30 731,-30 731,-10 711,-10"/>
<text text-anchor="start" x="734.73" y="-15.4" font-family="sans-serif" font-size="14.00"> &#160;Exports</text>
<g id="clust1" class="cluster">
<title>cluster_SafeChooseRecordModalModule</title>
<polygon fill="none" stroke="black" stroke-dasharray="1,5" points="8,-70 8,-268 1098,-268 1098,-70 8,-70"/>
</g>
<g id="clust2" class="cluster">
<title>cluster_SafeChooseRecordModalModule_declarations</title>
<polygon fill="none" stroke="black" points="848,-78 848,-130 1090,-130 1090,-78 848,-78"/>
</g>
<g id="clust4" class="cluster">
<title>cluster_SafeChooseRecordModalModule_imports</title>
<polygon fill="none" stroke="black" points="16,-78 16,-130 840,-130 840,-78 16,-78"/>
</g>
<g id="clust5" class="cluster">
<title>cluster_SafeChooseRecordModalModule_exports</title>
<polygon fill="none" stroke="black" points="389,-208 389,-260 633,-260 633,-208 389,-208"/>
</g>
<!-- SafeChooseRecordModalComponent -->
<g id="node1" class="node">
<title>SafeChooseRecordModalComponent</title>
<polygon fill="#ffffb3" stroke="black" points="1081.68,-122 856.32,-122 856.32,-86 1081.68,-86 1081.68,-122"/>
<text text-anchor="middle" x="969" y="-99.8" font-family="Times,serif" font-size="14.00">SafeChooseRecordModalComponent</text>
</g>
<!-- SafeChooseRecordModalModule -->
<g id="node2" class="node">
<title>SafeChooseRecordModalModule</title>
<polygon fill="#8dd3c7" stroke="black" points="612.89,-187 609.89,-191 588.89,-191 585.89,-187 409.11,-187 409.11,-151 612.89,-151 612.89,-187"/>
<text text-anchor="middle" x="511" y="-164.8" font-family="Times,serif" font-size="14.00">SafeChooseRecordModalModule</text>
</g>
<!-- SafeChooseRecordModalComponent&#45;&gt;SafeChooseRecordModalModule -->
<g id="edge1" class="edge">
<title>SafeChooseRecordModalComponent&#45;&gt;SafeChooseRecordModalModule</title>
<path fill="none" stroke="black" d="M969,-122.11C969,-141.34 969,-169 969,-169 969,-169 622.93,-169 622.93,-169"/>
<polygon fill="black" stroke="black" points="622.93,-165.5 612.93,-169 622.93,-172.5 622.93,-165.5"/>
</g>
<!-- SafeChooseRecordModalComponent  -->
<g id="node7" class="node">
<title>SafeChooseRecordModalComponent </title>
<polygon fill="#fb8072" stroke="black" points="625.18,-252 396.82,-252 396.82,-216 625.18,-216 625.18,-252"/>
<text text-anchor="middle" x="511" y="-229.8" font-family="Times,serif" font-size="14.00">SafeChooseRecordModalComponent </text>
</g>
<!-- SafeChooseRecordModalModule&#45;&gt;SafeChooseRecordModalComponent  -->
<g id="edge6" class="edge">
<title>SafeChooseRecordModalModule&#45;&gt;SafeChooseRecordModalComponent </title>
<path fill="none" stroke="black" stroke-dasharray="5,2" d="M511,-187.11C511,-187.11 511,-205.99 511,-205.99"/>
<polygon fill="black" stroke="black" points="507.5,-205.99 511,-215.99 514.5,-205.99 507.5,-205.99"/>
</g>
<!-- SafeApplicationDropdownModule -->
<g id="node3" class="node">
<title>SafeApplicationDropdownModule</title>
<polygon fill="#8dd3c7" stroke="black" points="832.39,-122 829.39,-126 808.39,-126 805.39,-122 621.61,-122 621.61,-86 832.39,-86 832.39,-122"/>
<text text-anchor="middle" x="727" y="-99.8" font-family="Times,serif" font-size="14.00">SafeApplicationDropdownModule</text>
</g>
<!-- SafeApplicationDropdownModule&#45;&gt;SafeChooseRecordModalModule -->
<g id="edge2" class="edge">
<title>SafeApplicationDropdownModule&#45;&gt;SafeChooseRecordModalModule</title>
<path fill="none" stroke="black" d="M621.68,-104C613.32,-104 608.03,-104 608.03,-104 608.03,-104 608.03,-140.89 608.03,-140.89"/>
<polygon fill="black" stroke="black" points="604.53,-140.89 608.03,-150.89 611.53,-140.89 604.53,-140.89"/>
</g>
<!-- SafeRecordDropdownModule -->
<g id="node4" class="node">
<title>SafeRecordDropdownModule</title>
<polygon fill="#8dd3c7" stroke="black" points="603.22,-122 600.22,-126 579.22,-126 576.22,-122 418.78,-122 418.78,-86 603.22,-86 603.22,-122"/>
<text text-anchor="middle" x="511" y="-99.8" font-family="Times,serif" font-size="14.00">SafeRecordDropdownModule</text>
</g>
<!-- SafeRecordDropdownModule&#45;&gt;SafeChooseRecordModalModule -->
<g id="edge3" class="edge">
<title>SafeRecordDropdownModule&#45;&gt;SafeChooseRecordModalModule</title>
<path fill="none" stroke="black" d="M511,-122.11C511,-122.11 511,-140.99 511,-140.99"/>
<polygon fill="black" stroke="black" points="507.5,-140.99 511,-150.99 514.5,-140.99 507.5,-140.99"/>
</g>
<!-- SafeResourceDropdownModule -->
<g id="node5" class="node">
<title>SafeResourceDropdownModule</title>
<polygon fill="#8dd3c7" stroke="black" points="400.38,-122 397.38,-126 376.38,-126 373.38,-122 203.62,-122 203.62,-86 400.38,-86 400.38,-122"/>
<text text-anchor="middle" x="302" y="-99.8" font-family="Times,serif" font-size="14.00">SafeResourceDropdownModule</text>
</g>
<!-- SafeResourceDropdownModule&#45;&gt;SafeChooseRecordModalModule -->
<g id="edge4" class="edge">
<title>SafeResourceDropdownModule&#45;&gt;SafeChooseRecordModalModule</title>
<path fill="none" stroke="black" d="M400.24,-104C408.61,-104 413.97,-104 413.97,-104 413.97,-104 413.97,-140.89 413.97,-140.89"/>
<polygon fill="black" stroke="black" points="410.47,-140.89 413.97,-150.89 417.47,-140.89 410.47,-140.89"/>
</g>
<!-- SafeResourceGridModule -->
<g id="node6" class="node">
<title>SafeResourceGridModule</title>
<polygon fill="#8dd3c7" stroke="black" points="186.17,-122 183.17,-126 162.17,-126 159.17,-122 23.83,-122 23.83,-86 186.17,-86 186.17,-122"/>
<text text-anchor="middle" x="105" y="-99.8" font-family="Times,serif" font-size="14.00">SafeResourceGridModule</text>
</g>
<!-- SafeResourceGridModule&#45;&gt;SafeChooseRecordModalModule -->
<g id="edge5" class="edge">
<title>SafeResourceGridModule&#45;&gt;SafeChooseRecordModalModule</title>
<path fill="none" stroke="black" d="M105,-122.11C105,-141.34 105,-169 105,-169 105,-169 399.07,-169 399.07,-169"/>
<polygon fill="black" stroke="black" points="399.07,-172.5 409.07,-169 399.07,-165.5 399.07,-172.5"/>
</g>
</g>
</svg>
