<?xml version="1.0" encoding="UTF-8" standalone="no"?>
<!DOCTYPE svg PUBLIC "-//W3C//DTD SVG 1.1//EN"
 "http://www.w3.org/Graphics/SVG/1.1/DTD/svg11.dtd">
<!-- Generated by graphviz version 3.0.0 (20220226.1711)
 -->
<!-- Title: dependencies Pages: 1 -->
<svg width="574pt" height="174pt"
 viewBox="0.00 0.00 574.00 173.80" xmlns="http://www.w3.org/2000/svg" xmlns:xlink="http://www.w3.org/1999/xlink">
<g id="graph0" class="graph" transform="scale(1 1) rotate(0) translate(4 169.8)">
<title>dependencies</title>
<polygon fill="white" stroke="transparent" points="-4,4 -4,-169.8 570,-169.8 570,4 -4,4"/>
<text text-anchor="middle" x="283" y="-8.2" font-family="sans-serif" font-size="14.00">dependencies</text>
<g id="clust1" class="cluster">
<title>cluster_AppPreviewModule</title>
<polygon fill="none" stroke="black" stroke-dasharray="1,5" points="8,-32.8 8,-157.8 558,-157.8 558,-32.8 8,-32.8"/>
</g>
<g id="clust4" class="cluster">
<title>cluster_AppPreviewModule_imports</title>
<polygon fill="none" stroke="black" points="192,-40.8 192,-92.8 550,-92.8 550,-40.8 192,-40.8"/>
</g>
<g id="clust2" class="cluster">
<title>cluster_AppPreviewModule_declarations</title>
<polygon fill="none" stroke="black" points="16,-40.8 16,-92.8 184,-92.8 184,-40.8 16,-40.8"/>
</g>
<!-- AppPreviewComponent -->
<g id="node1" class="node">
<title>AppPreviewComponent</title>
<polygon fill="#ffffb3" stroke="black" points="175.82,-84.8 24.18,-84.8 24.18,-48.8 175.82,-48.8 175.82,-84.8"/>
<text text-anchor="middle" x="100" y="-62.6" font-family="Times,serif" font-size="14.00">AppPreviewComponent</text>
</g>
<!-- AppPreviewModule -->
<g id="node2" class="node">
<title>AppPreviewModule</title>
<polygon fill="#8dd3c7" stroke="black" points="339.54,-149.8 336.54,-153.8 315.54,-153.8 312.54,-149.8 210.46,-149.8 210.46,-113.8 339.54,-113.8 339.54,-149.8"/>
<text text-anchor="middle" x="275" y="-127.6" font-family="Times,serif" font-size="14.00">AppPreviewModule</text>
</g>
<!-- AppPreviewComponent&#45;&gt;AppPreviewModule -->
<g id="edge1" class="edge">
<title>AppPreviewComponent&#45;&gt;AppPreviewModule</title>
<path fill="none" stroke="black" d="M100,-84.91C100,-104.14 100,-131.8 100,-131.8 100,-131.8 200.33,-131.8 200.33,-131.8"/>
<polygon fill="black" stroke="black" points="200.33,-135.3 210.33,-131.8 200.33,-128.3 200.33,-135.3"/>
</g>
<!-- AppPreviewRoutingModule -->
<g id="node3" class="node">
<title>AppPreviewRoutingModule</title>
<polygon fill="#8dd3c7" stroke="black" points="542.16,-84.8 539.16,-88.8 518.16,-88.8 515.16,-84.8 367.84,-84.8 367.84,-48.8 542.16,-48.8 542.16,-84.8"/>
<text text-anchor="middle" x="455" y="-62.6" font-family="Times,serif" font-size="14.00">AppPreviewRoutingModule</text>
</g>
<!-- AppPreviewRoutingModule&#45;&gt;AppPreviewModule -->
<g id="edge2" class="edge">
<title>AppPreviewRoutingModule&#45;&gt;AppPreviewModule</title>
<path fill="none" stroke="black" d="M455,-84.91C455,-104.14 455,-131.8 455,-131.8 455,-131.8 349.73,-131.8 349.73,-131.8"/>
<polygon fill="black" stroke="black" points="349.73,-128.3 339.73,-131.8 349.73,-135.3 349.73,-128.3"/>
</g>
<!-- PreviewToolbarModule -->
<g id="node4" class="node">
<title>PreviewToolbarModule</title>
<polygon fill="#8dd3c7" stroke="black" points="349.75,-84.8 346.75,-88.8 325.75,-88.8 322.75,-84.8 200.25,-84.8 200.25,-48.8 349.75,-48.8 349.75,-84.8"/>
<text text-anchor="middle" x="275" y="-62.6" font-family="Times,serif" font-size="14.00">PreviewToolbarModule</text>
</g>
<!-- PreviewToolbarModule&#45;&gt;AppPreviewModule -->
<g id="edge3" class="edge">
<title>PreviewToolbarModule&#45;&gt;AppPreviewModule</title>
<path fill="none" stroke="black" d="M275,-84.91C275,-84.91 275,-103.79 275,-103.79"/>
<polygon fill="black" stroke="black" points="271.5,-103.79 275,-113.79 278.5,-103.79 271.5,-103.79"/>
</g>
</g>
</svg>
