<?xml version="1.0" encoding="UTF-8" standalone="no"?>
<!DOCTYPE svg PUBLIC "-//W3C//DTD SVG 1.1//EN"
 "http://www.w3.org/Graphics/SVG/1.1/DTD/svg11.dtd">
<!-- Generated by graphviz version 2.47.0 (20210316.0004)
 -->
<!-- Title: dependencies Pages: 1 -->
<svg width="624pt" height="284pt"
 viewBox="0.00 0.00 624.00 284.00" xmlns="http://www.w3.org/2000/svg" xmlns:xlink="http://www.w3.org/1999/xlink">
<g id="graph0" class="graph" transform="scale(1 1) rotate(0) translate(4 280)">
<title>dependencies</title>
<polygon fill="white" stroke="transparent" points="-4,4 -4,-280 620,-280 620,4 -4,4"/>
<text text-anchor="start" x="287.01" y="-42.4" font-family="sans-serif" font-weight="bold" font-size="14.00">Legend</text>
<polygon fill="#ffffb3" stroke="transparent" points="74,-10 74,-30 94,-30 94,-10 74,-10"/>
<text text-anchor="start" x="97.63" y="-15.4" font-family="sans-serif" font-size="14.00"> &#160;Declarations</text>
<polygon fill="#8dd3c7" stroke="transparent" points="187,-10 187,-30 207,-30 207,-10 187,-10"/>
<text text-anchor="start" x="210.73" y="-15.4" font-family="sans-serif" font-size="14.00"> &#160;Module</text>
<polygon fill="#80b1d3" stroke="transparent" points="273,-10 273,-30 293,-30 293,-10 273,-10"/>
<text text-anchor="start" x="296.78" y="-15.4" font-family="sans-serif" font-size="14.00"> &#160;Bootstrap</text>
<polygon fill="#fdb462" stroke="transparent" points="370,-10 370,-30 390,-30 390,-10 370,-10"/>
<text text-anchor="start" x="393.67" y="-15.4" font-family="sans-serif" font-size="14.00"> &#160;Providers</text>
<polygon fill="#fb8072" stroke="transparent" points="466,-10 466,-30 486,-30 486,-10 466,-10"/>
<text text-anchor="start" x="489.73" y="-15.4" font-family="sans-serif" font-size="14.00"> &#160;Exports</text>
<g id="clust1" class="cluster">
<title>cluster_ResourcesModule</title>
<polygon fill="none" stroke="black" stroke-dasharray="1,5" points="8,-70 8,-268 608,-268 608,-70 8,-70"/>
</g>
<g id="clust5" class="cluster">
<title>cluster_ResourcesModule_imports</title>
<polygon fill="none" stroke="black" points="308,-78 308,-130 600,-130 600,-78 308,-78"/>
</g>
<g id="clust2" class="cluster">
<title>cluster_ResourcesModule_declarations</title>
<polygon fill="none" stroke="black" points="16,-78 16,-130 300,-130 300,-78 16,-78"/>
</g>
<g id="clust6" class="cluster">
<title>cluster_ResourcesModule_exports</title>
<polygon fill="none" stroke="black" points="237,-208 237,-260 395,-260 395,-208 237,-208"/>
</g>
<!-- FilterComponent -->
<g id="node1" class="node">
<title>FilterComponent</title>
<polygon fill="#ffffb3" stroke="black" points="291.66,-122 180.34,-122 180.34,-86 291.66,-86 291.66,-122"/>
<text text-anchor="middle" x="236" y="-99.8" font-family="Times,serif" font-size="14.00">FilterComponent</text>
</g>
<!-- ResourcesModule -->
<g id="node3" class="node">
<title>ResourcesModule</title>
<polygon fill="#8dd3c7" stroke="black" points="374.58,-187 371.58,-191 350.58,-191 347.58,-187 257.42,-187 257.42,-151 374.58,-151 374.58,-187"/>
<text text-anchor="middle" x="316" y="-164.8" font-family="Times,serif" font-size="14.00">ResourcesModule</text>
</g>
<!-- FilterComponent&#45;&gt;ResourcesModule -->
<g id="edge1" class="edge">
<title>FilterComponent&#45;&gt;ResourcesModule</title>
<path fill="none" stroke="black" d="M274.65,-122.11C274.65,-122.11 274.65,-140.99 274.65,-140.99"/>
<polygon fill="black" stroke="black" points="271.15,-140.99 274.65,-150.99 278.15,-140.99 271.15,-140.99"/>
</g>
<!-- ResourcesComponent -->
<g id="node2" class="node">
<title>ResourcesComponent</title>
<polygon fill="#ffffb3" stroke="black" points="162.36,-122 23.64,-122 23.64,-86 162.36,-86 162.36,-122"/>
<text text-anchor="middle" x="93" y="-99.8" font-family="Times,serif" font-size="14.00">ResourcesComponent</text>
</g>
<!-- ResourcesComponent&#45;&gt;ResourcesModule -->
<g id="edge2" class="edge">
<title>ResourcesComponent&#45;&gt;ResourcesModule</title>
<path fill="none" stroke="black" d="M93,-122.11C93,-141.34 93,-169 93,-169 93,-169 247.41,-169 247.41,-169"/>
<polygon fill="black" stroke="black" points="247.41,-172.5 257.41,-169 247.41,-165.5 247.41,-172.5"/>
</g>
<!-- ResourcesComponent  -->
<g id="node6" class="node">
<title>ResourcesComponent </title>
<polygon fill="#fb8072" stroke="black" points="387.36,-252 244.64,-252 244.64,-216 387.36,-216 387.36,-252"/>
<text text-anchor="middle" x="316" y="-229.8" font-family="Times,serif" font-size="14.00">ResourcesComponent </text>
</g>
<!-- ResourcesModule&#45;&gt;ResourcesComponent  -->
<g id="edge5" class="edge">
<title>ResourcesModule&#45;&gt;ResourcesComponent </title>
<path fill="none" stroke="black" stroke-dasharray="5,2" d="M316,-187.11C316,-187.11 316,-205.99 316,-205.99"/>
<polygon fill="black" stroke="black" points="312.5,-205.99 316,-215.99 319.5,-205.99 312.5,-205.99"/>
</g>
<!-- FormsModule -->
<g id="node4" class="node">
<title>FormsModule</title>
<polygon fill="#8dd3c7" stroke="black" points="591.83,-122 588.83,-126 567.83,-126 564.83,-122 496.17,-122 496.17,-86 591.83,-86 591.83,-122"/>
<text text-anchor="middle" x="544" y="-99.8" font-family="Times,serif" font-size="14.00">FormsModule</text>
</g>
<!-- FormsModule&#45;&gt;ResourcesModule -->
<g id="edge3" class="edge">
<title>FormsModule&#45;&gt;ResourcesModule</title>
<path fill="none" stroke="black" d="M544,-122.11C544,-141.34 544,-169 544,-169 544,-169 384.72,-169 384.72,-169"/>
<polygon fill="black" stroke="black" points="384.72,-165.5 374.72,-169 384.72,-172.5 384.72,-165.5"/>
</g>
<!-- ResourcesRoutingModule -->
<g id="node5" class="node">
<title>ResourcesRoutingModule</title>
<polygon fill="#8dd3c7" stroke="black" points="478.2,-122 475.2,-126 454.2,-126 451.2,-122 315.8,-122 315.8,-86 478.2,-86 478.2,-122"/>
<text text-anchor="middle" x="397" y="-99.8" font-family="Times,serif" font-size="14.00">ResourcesRoutingModule</text>
</g>
<!-- ResourcesRoutingModule&#45;&gt;ResourcesModule -->
<g id="edge4" class="edge">
<title>ResourcesRoutingModule&#45;&gt;ResourcesModule</title>
<path fill="none" stroke="black" d="M345.22,-122.11C345.22,-122.11 345.22,-140.99 345.22,-140.99"/>
<polygon fill="black" stroke="black" points="341.72,-140.99 345.22,-150.99 348.72,-140.99 341.72,-140.99"/>
</g>
</g>
</svg>
