<?xml version="1.0" encoding="UTF-8" standalone="no"?>
<!DOCTYPE svg PUBLIC "-//W3C//DTD SVG 1.1//EN"
 "http://www.w3.org/Graphics/SVG/1.1/DTD/svg11.dtd">
<!-- Generated by graphviz version 3.0.0 (20220226.1711)
 -->
<!-- Title: dependencies Pages: 1 -->
<svg width="778pt" height="247pt"
 viewBox="0.00 0.00 778.00 246.80" xmlns="http://www.w3.org/2000/svg" xmlns:xlink="http://www.w3.org/1999/xlink">
<g id="graph0" class="graph" transform="scale(1 1) rotate(0) translate(4 242.8)">
<title>dependencies</title>
<polygon fill="white" stroke="transparent" points="-4,4 -4,-242.8 774,-242.8 774,4 -4,4"/>
<text text-anchor="middle" x="385" y="-8.2" font-family="sans-serif" font-size="14.00">dependencies</text>
<g id="clust1" class="cluster">
<title>cluster_ResourcesModule</title>
<polygon fill="none" stroke="black" stroke-dasharray="1,5" points="8,-32.8 8,-230.8 762,-230.8 762,-32.8 8,-32.8"/>
</g>
<g id="clust2" class="cluster">
<title>cluster_ResourcesModule_declarations</title>
<polygon fill="none" stroke="black" points="470,-40.8 470,-92.8 754,-92.8 754,-40.8 470,-40.8"/>
</g>
<g id="clust6" class="cluster">
<title>cluster_ResourcesModule_exports</title>
<polygon fill="none" stroke="black" points="307,-170.8 307,-222.8 465,-222.8 465,-170.8 307,-170.8"/>
</g>
<g id="clust5" class="cluster">
<title>cluster_ResourcesModule_imports</title>
<polygon fill="none" stroke="black" points="16,-40.8 16,-92.8 462,-92.8 462,-40.8 16,-40.8"/>
</g>
<!-- FilterComponent -->
<g id="node1" class="node">
<title>FilterComponent</title>
<polygon fill="#ffffb3" stroke="black" points="745.66,-84.8 634.34,-84.8 634.34,-48.8 745.66,-48.8 745.66,-84.8"/>
<text text-anchor="middle" x="690" y="-62.6" font-family="Times,serif" font-size="14.00">FilterComponent</text>
</g>
<!-- ResourcesModule -->
<g id="node3" class="node">
<title>ResourcesModule</title>
<polygon fill="#8dd3c7" stroke="black" points="444.59,-149.8 441.59,-153.8 420.59,-153.8 417.59,-149.8 327.41,-149.8 327.41,-113.8 444.59,-113.8 444.59,-149.8"/>
<text text-anchor="middle" x="386" y="-127.6" font-family="Times,serif" font-size="14.00">ResourcesModule</text>
</g>
<!-- FilterComponent&#45;&gt;ResourcesModule -->
<g id="edge1" class="edge">
<title>FilterComponent&#45;&gt;ResourcesModule</title>
<path fill="none" stroke="black" d="M690,-85.08C690,-106.12 690,-137.8 690,-137.8 690,-137.8 454.61,-137.8 454.61,-137.8"/>
<polygon fill="black" stroke="black" points="454.61,-134.3 444.61,-137.8 454.61,-141.3 454.61,-134.3"/>
</g>
<!-- ResourcesComponent -->
<g id="node2" class="node">
<title>ResourcesComponent</title>
<polygon fill="#ffffb3" stroke="black" points="616.37,-84.8 477.63,-84.8 477.63,-48.8 616.37,-48.8 616.37,-84.8"/>
<text text-anchor="middle" x="547" y="-62.6" font-family="Times,serif" font-size="14.00">ResourcesComponent</text>
</g>
<!-- ResourcesComponent&#45;&gt;ResourcesModule -->
<g id="edge2" class="edge">
<title>ResourcesComponent&#45;&gt;ResourcesModule</title>
<path fill="none" stroke="black" d="M547,-84.82C547,-102.17 547,-125.8 547,-125.8 547,-125.8 454.58,-125.8 454.58,-125.8"/>
<polygon fill="black" stroke="black" points="454.58,-122.3 444.58,-125.8 454.58,-129.3 454.58,-122.3"/>
</g>
<!-- ResourcesComponent  -->
<g id="node7" class="node">
<title>ResourcesComponent </title>
<polygon fill="#fb8072" stroke="black" points="457.37,-214.8 314.63,-214.8 314.63,-178.8 457.37,-178.8 457.37,-214.8"/>
<text text-anchor="middle" x="386" y="-192.6" font-family="Times,serif" font-size="14.00">ResourcesComponent </text>
</g>
<!-- ResourcesModule&#45;&gt;ResourcesComponent  -->
<g id="edge6" class="edge">
<title>ResourcesModule&#45;&gt;ResourcesComponent </title>
<path fill="none" stroke="black" stroke-dasharray="5,2" d="M386,-149.91C386,-149.91 386,-168.79 386,-168.79"/>
<polygon fill="black" stroke="black" points="382.5,-168.79 386,-178.79 389.5,-168.79 382.5,-168.79"/>
</g>
<!-- AddResourceModule -->
<g id="node4" class="node">
<title>AddResourceModule</title>
<polygon fill="#8dd3c7" stroke="black" points="453.75,-84.8 450.75,-88.8 429.75,-88.8 426.75,-84.8 318.25,-84.8 318.25,-48.8 453.75,-48.8 453.75,-84.8"/>
<text text-anchor="middle" x="386" y="-62.6" font-family="Times,serif" font-size="14.00">AddResourceModule</text>
</g>
<!-- AddResourceModule&#45;&gt;ResourcesModule -->
<g id="edge3" class="edge">
<title>AddResourceModule&#45;&gt;ResourcesModule</title>
<path fill="none" stroke="black" d="M386,-84.91C386,-84.91 386,-103.79 386,-103.79"/>
<polygon fill="black" stroke="black" points="382.5,-103.79 386,-113.79 389.5,-103.79 382.5,-103.79"/>
</g>
<!-- FormsModule -->
<g id="node5" class="node">
<title>FormsModule</title>
<polygon fill="#8dd3c7" stroke="black" points="299.84,-84.8 296.84,-88.8 275.84,-88.8 272.84,-84.8 204.16,-84.8 204.16,-48.8 299.84,-48.8 299.84,-84.8"/>
<text text-anchor="middle" x="252" y="-62.6" font-family="Times,serif" font-size="14.00">FormsModule</text>
</g>
<!-- FormsModule&#45;&gt;ResourcesModule -->
<g id="edge4" class="edge">
<title>FormsModule&#45;&gt;ResourcesModule</title>
<path fill="none" stroke="black" d="M252,-84.82C252,-102.17 252,-125.8 252,-125.8 252,-125.8 317.23,-125.8 317.23,-125.8"/>
<polygon fill="black" stroke="black" points="317.23,-129.3 327.23,-125.8 317.23,-122.3 317.23,-129.3"/>
</g>
<!-- ResourcesRoutingModule -->
<g id="node6" class="node">
<title>ResourcesRoutingModule</title>
<polygon fill="#8dd3c7" stroke="black" points="186.21,-84.8 183.21,-88.8 162.21,-88.8 159.21,-84.8 23.79,-84.8 23.79,-48.8 186.21,-48.8 186.21,-84.8"/>
<text text-anchor="middle" x="105" y="-62.6" font-family="Times,serif" font-size="14.00">ResourcesRoutingModule</text>
</g>
<!-- ResourcesRoutingModule&#45;&gt;ResourcesModule -->
<g id="edge5" class="edge">
<title>ResourcesRoutingModule&#45;&gt;ResourcesModule</title>
<path fill="none" stroke="black" d="M105,-85.08C105,-106.12 105,-137.8 105,-137.8 105,-137.8 317.44,-137.8 317.44,-137.8"/>
<polygon fill="black" stroke="black" points="317.44,-141.3 327.44,-137.8 317.44,-134.3 317.44,-141.3"/>
</g>
</g>
</svg>
