<?xml version="1.0" encoding="UTF-8" standalone="no"?>
<!DOCTYPE svg PUBLIC "-//W3C//DTD SVG 1.1//EN"
 "http://www.w3.org/Graphics/SVG/1.1/DTD/svg11.dtd">
<!-- Generated by graphviz version 2.47.0 (20210316.0004)
 -->
<!-- Title: dependencies Pages: 1 -->
<svg width="624pt" height="284pt"
 viewBox="0.00 0.00 624.00 284.00" xmlns="http://www.w3.org/2000/svg" xmlns:xlink="http://www.w3.org/1999/xlink">
<g id="graph0" class="graph" transform="scale(1 1) rotate(0) translate(4 280)">
<title>dependencies</title>
<polygon fill="white" stroke="transparent" points="-4,4 -4,-280 620,-280 620,4 -4,4"/>
<text text-anchor="start" x="287.01" y="-42.4" font-family="sans-serif" font-weight="bold" font-size="14.00">Legend</text>
<polygon fill="#ffffb3" stroke="transparent" points="74,-10 74,-30 94,-30 94,-10 74,-10"/>
<text text-anchor="start" x="97.63" y="-15.4" font-family="sans-serif" font-size="14.00"> &#160;Declarations</text>
<polygon fill="#8dd3c7" stroke="transparent" points="187,-10 187,-30 207,-30 207,-10 187,-10"/>
<text text-anchor="start" x="210.73" y="-15.4" font-family="sans-serif" font-size="14.00"> &#160;Module</text>
<polygon fill="#80b1d3" stroke="transparent" points="273,-10 273,-30 293,-30 293,-10 273,-10"/>
<text text-anchor="start" x="296.78" y="-15.4" font-family="sans-serif" font-size="14.00"> &#160;Bootstrap</text>
<polygon fill="#fdb462" stroke="transparent" points="370,-10 370,-30 390,-30 390,-10 370,-10"/>
<text text-anchor="start" x="393.67" y="-15.4" font-family="sans-serif" font-size="14.00"> &#160;Providers</text>
<polygon fill="#fb8072" stroke="transparent" points="466,-10 466,-30 486,-30 486,-10 466,-10"/>
<text text-anchor="start" x="489.73" y="-15.4" font-family="sans-serif" font-size="14.00"> &#160;Exports</text>
<g id="clust1" class="cluster">
<title>cluster_ResourcesModule</title>
<polygon fill="none" stroke="black" stroke-dasharray="1,5" points="8,-70 8,-268 608,-268 608,-70 8,-70"/>
</g>
<g id="clust2" class="cluster">
<title>cluster_ResourcesModule_declarations</title>
<polygon fill="none" stroke="black" points="316,-78 316,-130 600,-130 600,-78 316,-78"/>
</g>
<g id="clust5" class="cluster">
<title>cluster_ResourcesModule_imports</title>
<polygon fill="none" stroke="black" points="16,-78 16,-130 308,-130 308,-78 16,-78"/>
</g>
<g id="clust6" class="cluster">
<title>cluster_ResourcesModule_exports</title>
<polygon fill="none" stroke="black" points="243,-208 243,-260 401,-260 401,-208 243,-208"/>
</g>
<!-- FilterComponent -->
<g id="node1" class="node">
<title>FilterComponent</title>
<polygon fill="#ffffb3" stroke="black" points="591.66,-122 480.34,-122 480.34,-86 591.66,-86 591.66,-122"/>
<text text-anchor="middle" x="536" y="-99.8" font-family="Times,serif" font-size="14.00">FilterComponent</text>
</g>
<!-- ResourcesModule -->
<g id="node3" class="node">
<title>ResourcesModule</title>
<polygon fill="#8dd3c7" stroke="black" points="380.58,-187 377.58,-191 356.58,-191 353.58,-187 263.42,-187 263.42,-151 380.58,-151 380.58,-187"/>
<text text-anchor="middle" x="322" y="-164.8" font-family="Times,serif" font-size="14.00">ResourcesModule</text>
</g>
<!-- FilterComponent&#45;&gt;ResourcesModule -->
<g id="edge1" class="edge">
<title>FilterComponent&#45;&gt;ResourcesModule</title>
<path fill="none" stroke="black" d="M536,-122.11C536,-141.34 536,-169 536,-169 536,-169 390.76,-169 390.76,-169"/>
<polygon fill="black" stroke="black" points="390.76,-165.5 380.76,-169 390.76,-172.5 390.76,-165.5"/>
</g>
<!-- ResourcesComponent -->
<g id="node2" class="node">
<title>ResourcesComponent</title>
<polygon fill="#ffffb3" stroke="black" points="462.36,-122 323.64,-122 323.64,-86 462.36,-86 462.36,-122"/>
<text text-anchor="middle" x="393" y="-99.8" font-family="Times,serif" font-size="14.00">ResourcesComponent</text>
</g>
<!-- ResourcesComponent&#45;&gt;ResourcesModule -->
<g id="edge2" class="edge">
<title>ResourcesComponent&#45;&gt;ResourcesModule</title>
<path fill="none" stroke="black" d="M352.05,-122.11C352.05,-122.11 352.05,-140.99 352.05,-140.99"/>
<polygon fill="black" stroke="black" points="348.55,-140.99 352.05,-150.99 355.55,-140.99 348.55,-140.99"/>
</g>
<!-- ResourcesComponent  -->
<g id="node6" class="node">
<title>ResourcesComponent </title>
<polygon fill="#fb8072" stroke="black" points="393.36,-252 250.64,-252 250.64,-216 393.36,-216 393.36,-252"/>
<text text-anchor="middle" x="322" y="-229.8" font-family="Times,serif" font-size="14.00">ResourcesComponent </text>
</g>
<!-- ResourcesModule&#45;&gt;ResourcesComponent  -->
<g id="edge5" class="edge">
<title>ResourcesModule&#45;&gt;ResourcesComponent </title>
<path fill="none" stroke="black" stroke-dasharray="5,2" d="M322,-187.11C322,-187.11 322,-205.99 322,-205.99"/>
<polygon fill="black" stroke="black" points="318.5,-205.99 322,-215.99 325.5,-205.99 318.5,-205.99"/>
</g>
<!-- FormsModule -->
<g id="node4" class="node">
<title>FormsModule</title>
<polygon fill="#8dd3c7" stroke="black" points="299.83,-122 296.83,-126 275.83,-126 272.83,-122 204.17,-122 204.17,-86 299.83,-86 299.83,-122"/>
<text text-anchor="middle" x="252" y="-99.8" font-family="Times,serif" font-size="14.00">FormsModule</text>
</g>
<!-- FormsModule&#45;&gt;ResourcesModule -->
<g id="edge3" class="edge">
<title>FormsModule&#45;&gt;ResourcesModule</title>
<path fill="none" stroke="black" d="M281.56,-122.11C281.56,-122.11 281.56,-140.99 281.56,-140.99"/>
<polygon fill="black" stroke="black" points="278.06,-140.99 281.56,-150.99 285.06,-140.99 278.06,-140.99"/>
</g>
<!-- ResourcesRoutingModule -->
<g id="node5" class="node">
<title>ResourcesRoutingModule</title>
<polygon fill="#8dd3c7" stroke="black" points="186.2,-122 183.2,-126 162.2,-126 159.2,-122 23.8,-122 23.8,-86 186.2,-86 186.2,-122"/>
<text text-anchor="middle" x="105" y="-99.8" font-family="Times,serif" font-size="14.00">ResourcesRoutingModule</text>
</g>
<!-- ResourcesRoutingModule&#45;&gt;ResourcesModule -->
<g id="edge4" class="edge">
<title>ResourcesRoutingModule&#45;&gt;ResourcesModule</title>
<path fill="none" stroke="black" d="M105,-122.11C105,-141.34 105,-169 105,-169 105,-169 253.28,-169 253.28,-169"/>
<polygon fill="black" stroke="black" points="253.28,-172.5 263.28,-169 253.28,-165.5 253.28,-172.5"/>
</g>
</g>
</svg>
