<?xml version="1.0" encoding="UTF-8" standalone="no"?>
<!DOCTYPE svg PUBLIC "-//W3C//DTD SVG 1.1//EN"
 "http://www.w3.org/Graphics/SVG/1.1/DTD/svg11.dtd">
<!-- Generated by graphviz version 3.0.0 (20220226.1711)
 -->
<!-- Title: dependencies Pages: 1 -->
<svg width="660pt" height="247pt"
 viewBox="0.00 0.00 660.00 246.80" xmlns="http://www.w3.org/2000/svg" xmlns:xlink="http://www.w3.org/1999/xlink">
<g id="graph0" class="graph" transform="scale(1 1) rotate(0) translate(4 242.8)">
<title>dependencies</title>
<polygon fill="white" stroke="transparent" points="-4,4 -4,-242.8 656,-242.8 656,4 -4,4"/>
<text text-anchor="middle" x="326" y="-8.2" font-family="sans-serif" font-size="14.00">dependencies</text>
<g id="clust1" class="cluster">
<title>cluster_SafeFilterModule</title>
<polygon fill="none" stroke="black" stroke-dasharray="1,5" points="8,-32.8 8,-230.8 644,-230.8 644,-32.8 8,-32.8"/>
</g>
<g id="clust6" class="cluster">
<title>cluster_SafeFilterModule_imports</title>
<polygon fill="none" stroke="black" points="498,-40.8 498,-92.8 636,-92.8 636,-40.8 498,-40.8"/>
</g>
<g id="clust2" class="cluster">
<title>cluster_SafeFilterModule_declarations</title>
<polygon fill="none" stroke="black" points="16,-40.8 16,-92.8 490,-92.8 490,-40.8 16,-40.8"/>
</g>
<g id="clust7" class="cluster">
<title>cluster_SafeFilterModule_exports</title>
<polygon fill="none" stroke="black" points="249,-170.8 249,-222.8 405,-222.8 405,-170.8 249,-170.8"/>
</g>
<!-- FilterGroupComponent -->
<g id="node1" class="node">
<title>FilterGroupComponent</title>
<polygon fill="#ffffb3" stroke="black" points="481.94,-84.8 334.06,-84.8 334.06,-48.8 481.94,-48.8 481.94,-84.8"/>
<text text-anchor="middle" x="408" y="-62.6" font-family="Times,serif" font-size="14.00">FilterGroupComponent</text>
</g>
<!-- SafeFilterModule -->
<g id="node4" class="node">
<title>SafeFilterModule</title>
<polygon fill="#8dd3c7" stroke="black" points="384.26,-149.8 381.26,-153.8 360.26,-153.8 357.26,-149.8 269.74,-149.8 269.74,-113.8 384.26,-113.8 384.26,-149.8"/>
<text text-anchor="middle" x="327" y="-127.6" font-family="Times,serif" font-size="14.00">SafeFilterModule</text>
</g>
<!-- FilterGroupComponent&#45;&gt;SafeFilterModule -->
<g id="edge1" class="edge">
<title>FilterGroupComponent&#45;&gt;SafeFilterModule</title>
<path fill="none" stroke="black" d="M359.33,-84.91C359.33,-84.91 359.33,-103.79 359.33,-103.79"/>
<polygon fill="black" stroke="black" points="355.83,-103.79 359.33,-113.79 362.83,-103.79 355.83,-103.79"/>
</g>
<!-- FilterRowComponent -->
<g id="node2" class="node">
<title>FilterRowComponent</title>
<polygon fill="#ffffb3" stroke="black" points="316.11,-84.8 177.89,-84.8 177.89,-48.8 316.11,-48.8 316.11,-84.8"/>
<text text-anchor="middle" x="247" y="-62.6" font-family="Times,serif" font-size="14.00">FilterRowComponent</text>
</g>
<!-- FilterRowComponent&#45;&gt;SafeFilterModule -->
<g id="edge2" class="edge">
<title>FilterRowComponent&#45;&gt;SafeFilterModule</title>
<path fill="none" stroke="black" d="M292.84,-84.91C292.84,-84.91 292.84,-103.79 292.84,-103.79"/>
<polygon fill="black" stroke="black" points="289.34,-103.79 292.84,-113.79 296.34,-103.79 289.34,-103.79"/>
</g>
<!-- SafeFilterComponent -->
<g id="node3" class="node">
<title>SafeFilterComponent</title>
<polygon fill="#ffffb3" stroke="black" points="160.04,-84.8 23.96,-84.8 23.96,-48.8 160.04,-48.8 160.04,-84.8"/>
<text text-anchor="middle" x="92" y="-62.6" font-family="Times,serif" font-size="14.00">SafeFilterComponent</text>
</g>
<!-- SafeFilterComponent&#45;&gt;SafeFilterModule -->
<g id="edge3" class="edge">
<title>SafeFilterComponent&#45;&gt;SafeFilterModule</title>
<path fill="none" stroke="black" d="M92,-84.91C92,-104.14 92,-131.8 92,-131.8 92,-131.8 259.51,-131.8 259.51,-131.8"/>
<polygon fill="black" stroke="black" points="259.51,-135.3 269.51,-131.8 259.51,-128.3 259.51,-135.3"/>
</g>
<!-- SafeFilterComponent  -->
<g id="node6" class="node">
<title>SafeFilterComponent </title>
<polygon fill="#fb8072" stroke="black" points="397.04,-214.8 256.96,-214.8 256.96,-178.8 397.04,-178.8 397.04,-214.8"/>
<text text-anchor="middle" x="327" y="-192.6" font-family="Times,serif" font-size="14.00">SafeFilterComponent </text>
</g>
<!-- SafeFilterModule&#45;&gt;SafeFilterComponent  -->
<g id="edge5" class="edge">
<title>SafeFilterModule&#45;&gt;SafeFilterComponent </title>
<path fill="none" stroke="black" stroke-dasharray="5,2" d="M327,-149.91C327,-149.91 327,-168.79 327,-168.79"/>
<polygon fill="black" stroke="black" points="323.5,-168.79 327,-178.79 330.5,-168.79 323.5,-168.79"/>
</g>
<!-- SafeButtonModule -->
<g id="node5" class="node">
<title>SafeButtonModule</title>
<polygon fill="#8dd3c7" stroke="black" points="628.05,-84.8 625.05,-88.8 604.05,-88.8 601.05,-84.8 505.95,-84.8 505.95,-48.8 628.05,-48.8 628.05,-84.8"/>
<text text-anchor="middle" x="567" y="-62.6" font-family="Times,serif" font-size="14.00">SafeButtonModule</text>
</g>
<!-- SafeButtonModule&#45;&gt;SafeFilterModule -->
<g id="edge4" class="edge">
<title>SafeButtonModule&#45;&gt;SafeFilterModule</title>
<path fill="none" stroke="black" d="M567,-84.91C567,-104.14 567,-131.8 567,-131.8 567,-131.8 394.49,-131.8 394.49,-131.8"/>
<polygon fill="black" stroke="black" points="394.49,-128.3 384.49,-131.8 394.49,-135.3 394.49,-128.3"/>
</g>
</g>
</svg>
