<?xml version="1.0" encoding="UTF-8" standalone="no"?>
<!DOCTYPE svg PUBLIC "-//W3C//DTD SVG 1.1//EN"
 "http://www.w3.org/Graphics/SVG/1.1/DTD/svg11.dtd">
<!-- Generated by graphviz version 3.0.0 (20220226.1711)
 -->
<!-- Title: dependencies Pages: 1 -->
<svg width="667pt" height="247pt"
 viewBox="0.00 0.00 667.00 246.80" xmlns="http://www.w3.org/2000/svg" xmlns:xlink="http://www.w3.org/1999/xlink">
<g id="graph0" class="graph" transform="scale(1 1) rotate(0) translate(4 242.8)">
<title>dependencies</title>
<polygon fill="white" stroke="transparent" points="-4,4 -4,-242.8 663,-242.8 663,4 -4,4"/>
<text text-anchor="middle" x="329.5" y="-8.2" font-family="sans-serif" font-size="14.00">dependencies</text>
<g id="clust1" class="cluster">
<title>cluster_ButtonConfigModule</title>
<polygon fill="none" stroke="black" stroke-dasharray="1,5" points="8,-32.8 8,-230.8 651,-230.8 651,-32.8 8,-32.8"/>
</g>
<g id="clust2" class="cluster">
<title>cluster_ButtonConfigModule_declarations</title>
<polygon fill="none" stroke="black" points="469,-40.8 469,-92.8 643,-92.8 643,-40.8 469,-40.8"/>
</g>
<g id="clust4" class="cluster">
<title>cluster_ButtonConfigModule_imports</title>
<polygon fill="none" stroke="black" points="16,-40.8 16,-92.8 461,-92.8 461,-40.8 16,-40.8"/>
</g>
<g id="clust5" class="cluster">
<title>cluster_ButtonConfigModule_exports</title>
<polygon fill="none" stroke="black" points="236,-170.8 236,-222.8 414,-222.8 414,-170.8 236,-170.8"/>
</g>
<!-- ButtonConfigComponent -->
<g id="node1" class="node">
<title>ButtonConfigComponent</title>
<polygon fill="#ffffb3" stroke="black" points="635.34,-84.8 476.66,-84.8 476.66,-48.8 635.34,-48.8 635.34,-84.8"/>
<text text-anchor="middle" x="556" y="-62.6" font-family="Times,serif" font-size="14.00">ButtonConfigComponent</text>
</g>
<!-- ButtonConfigModule -->
<g id="node2" class="node">
<title>ButtonConfigModule</title>
<polygon fill="#8dd3c7" stroke="black" points="393.06,-149.8 390.06,-153.8 369.06,-153.8 366.06,-149.8 256.94,-149.8 256.94,-113.8 393.06,-113.8 393.06,-149.8"/>
<text text-anchor="middle" x="325" y="-127.6" font-family="Times,serif" font-size="14.00">ButtonConfigModule</text>
</g>
<!-- ButtonConfigComponent&#45;&gt;ButtonConfigModule -->
<g id="edge1" class="edge">
<title>ButtonConfigComponent&#45;&gt;ButtonConfigModule</title>
<path fill="none" stroke="black" d="M556,-84.91C556,-104.14 556,-131.8 556,-131.8 556,-131.8 403.37,-131.8 403.37,-131.8"/>
<polygon fill="black" stroke="black" points="403.37,-128.3 393.37,-131.8 403.37,-135.3 403.37,-128.3"/>
</g>
<!-- ButtonConfigComponent  -->
<g id="node6" class="node">
<title>ButtonConfigComponent </title>
<polygon fill="#fb8072" stroke="black" points="405.84,-214.8 244.16,-214.8 244.16,-178.8 405.84,-178.8 405.84,-214.8"/>
<text text-anchor="middle" x="325" y="-192.6" font-family="Times,serif" font-size="14.00">ButtonConfigComponent </text>
</g>
<!-- ButtonConfigModule&#45;&gt;ButtonConfigComponent  -->
<g id="edge5" class="edge">
<title>ButtonConfigModule&#45;&gt;ButtonConfigComponent </title>
<path fill="none" stroke="black" stroke-dasharray="5,2" d="M325,-149.91C325,-149.91 325,-168.79 325,-168.79"/>
<polygon fill="black" stroke="black" points="321.5,-168.79 325,-178.79 328.5,-168.79 321.5,-168.79"/>
</g>
<!-- SafeButtonModule -->
<g id="node3" class="node">
<title>SafeButtonModule</title>
<polygon fill="#8dd3c7" stroke="black" points="453.05,-84.8 450.05,-88.8 429.05,-88.8 426.05,-84.8 330.95,-84.8 330.95,-48.8 453.05,-48.8 453.05,-84.8"/>
<text text-anchor="middle" x="392" y="-62.6" font-family="Times,serif" font-size="14.00">SafeButtonModule</text>
</g>
<!-- SafeButtonModule&#45;&gt;ButtonConfigModule -->
<g id="edge2" class="edge">
<title>SafeButtonModule&#45;&gt;ButtonConfigModule</title>
<path fill="none" stroke="black" d="M362,-84.91C362,-84.91 362,-103.79 362,-103.79"/>
<polygon fill="black" stroke="black" points="358.5,-103.79 362,-113.79 365.5,-103.79 358.5,-103.79"/>
</g>
<!-- SafeIconModule -->
<g id="node4" class="node">
<title>SafeIconModule</title>
<polygon fill="#8dd3c7" stroke="black" points="312.8,-84.8 309.8,-88.8 288.8,-88.8 285.8,-84.8 203.2,-84.8 203.2,-48.8 312.8,-48.8 312.8,-84.8"/>
<text text-anchor="middle" x="258" y="-62.6" font-family="Times,serif" font-size="14.00">SafeIconModule</text>
</g>
<!-- SafeIconModule&#45;&gt;ButtonConfigModule -->
<g id="edge3" class="edge">
<title>SafeIconModule&#45;&gt;ButtonConfigModule</title>
<path fill="none" stroke="black" d="M284.69,-84.91C284.69,-84.91 284.69,-103.79 284.69,-103.79"/>
<polygon fill="black" stroke="black" points="281.19,-103.79 284.69,-113.79 288.19,-103.79 281.19,-103.79"/>
</g>
<!-- SafeQueryBuilderModule -->
<g id="node5" class="node">
<title>SafeQueryBuilderModule</title>
<polygon fill="#8dd3c7" stroke="black" points="185.91,-84.8 182.91,-88.8 161.91,-88.8 158.91,-84.8 24.09,-84.8 24.09,-48.8 185.91,-48.8 185.91,-84.8"/>
<text text-anchor="middle" x="105" y="-62.6" font-family="Times,serif" font-size="14.00">SafeQueryBuilderModule</text>
</g>
<!-- SafeQueryBuilderModule&#45;&gt;ButtonConfigModule -->
<g id="edge4" class="edge">
<title>SafeQueryBuilderModule&#45;&gt;ButtonConfigModule</title>
<path fill="none" stroke="black" d="M105,-84.91C105,-104.14 105,-131.8 105,-131.8 105,-131.8 246.9,-131.8 246.9,-131.8"/>
<polygon fill="black" stroke="black" points="246.9,-135.3 256.9,-131.8 246.9,-128.3 246.9,-135.3"/>
</g>
</g>
</svg>
