<?xml version="1.0" encoding="UTF-8" standalone="no"?>
<!DOCTYPE svg PUBLIC "-//W3C//DTD SVG 1.1//EN"
 "http://www.w3.org/Graphics/SVG/1.1/DTD/svg11.dtd">
<!-- Generated by graphviz version 3.0.0 (20220226.1711)
 -->
<!-- Title: dependencies Pages: 1 -->
<svg width="1776pt" height="247pt"
 viewBox="0.00 0.00 1776.00 246.80" xmlns="http://www.w3.org/2000/svg" xmlns:xlink="http://www.w3.org/1999/xlink">
<g id="graph0" class="graph" transform="scale(1 1) rotate(0) translate(4 242.8)">
<title>dependencies</title>
<polygon fill="white" stroke="transparent" points="-4,4 -4,-242.8 1772,-242.8 1772,4 -4,4"/>
<text text-anchor="middle" x="884" y="-8.2" font-family="sans-serif" font-size="14.00">dependencies</text>
<g id="clust1" class="cluster">
<title>cluster_SafePipelineModule</title>
<polygon fill="none" stroke="black" stroke-dasharray="1,5" points="8,-32.8 8,-230.8 1760,-230.8 1760,-32.8 8,-32.8"/>
</g>
<g id="clust2" class="cluster">
<title>cluster_SafePipelineModule_declarations</title>
<polygon fill="none" stroke="black" points="602,-40.8 602,-92.8 1752,-92.8 1752,-40.8 602,-40.8"/>
</g>
<g id="clust9" class="cluster">
<title>cluster_SafePipelineModule_imports</title>
<polygon fill="none" stroke="black" points="16,-40.8 16,-92.8 594,-92.8 594,-40.8 16,-40.8"/>
</g>
<g id="clust10" class="cluster">
<title>cluster_SafePipelineModule_exports</title>
<polygon fill="none" stroke="black" points="223,-170.8 223,-222.8 1395,-222.8 1395,-170.8 223,-170.8"/>
</g>
<!-- SafeAddFieldStageComponent -->
<g id="node1" class="node">
<title>SafeAddFieldStageComponent</title>
<polygon fill="#ffffb3" stroke="black" points="1744.2,-84.8 1553.8,-84.8 1553.8,-48.8 1744.2,-48.8 1744.2,-84.8"/>
<text text-anchor="middle" x="1649" y="-62.6" font-family="Times,serif" font-size="14.00">SafeAddFieldStageComponent</text>
</g>
<!-- SafePipelineModule -->
<g id="node7" class="node">
<title>SafePipelineModule</title>
<polygon fill="#8dd3c7" stroke="black" points="842.31,-149.8 839.31,-153.8 818.31,-153.8 815.31,-149.8 711.69,-149.8 711.69,-113.8 842.31,-113.8 842.31,-149.8"/>
<text text-anchor="middle" x="777" y="-127.6" font-family="Times,serif" font-size="14.00">SafePipelineModule</text>
</g>
<!-- SafeAddFieldStageComponent&#45;&gt;SafePipelineModule -->
<g id="edge1" class="edge">
<title>SafeAddFieldStageComponent&#45;&gt;SafePipelineModule</title>
<path fill="none" stroke="black" d="M1649,-85.02C1649,-105.17 1649,-134.8 1649,-134.8 1649,-134.8 852.19,-134.8 852.19,-134.8"/>
<polygon fill="black" stroke="black" points="852.19,-131.3 842.19,-134.8 852.19,-138.3 852.19,-131.3"/>
</g>
<!-- SafeExpressionsComponent -->
<g id="node2" class="node">
<title>SafeExpressionsComponent</title>
<polygon fill="#ffffb3" stroke="black" points="1535.87,-84.8 1362.13,-84.8 1362.13,-48.8 1535.87,-48.8 1535.87,-84.8"/>
<text text-anchor="middle" x="1449" y="-62.6" font-family="Times,serif" font-size="14.00">SafeExpressionsComponent</text>
</g>
<!-- SafeExpressionsComponent&#45;&gt;SafePipelineModule -->
<g id="edge2" class="edge">
<title>SafeExpressionsComponent&#45;&gt;SafePipelineModule</title>
<path fill="none" stroke="black" d="M1374.46,-85.02C1374.46,-103.63 1374.46,-129.8 1374.46,-129.8 1374.46,-129.8 852.36,-129.8 852.36,-129.8"/>
<polygon fill="black" stroke="black" points="852.36,-126.3 842.36,-129.8 852.36,-133.3 852.36,-126.3"/>
</g>
<!-- SafeFieldDropdownComponent -->
<g id="node3" class="node">
<title>SafeFieldDropdownComponent</title>
<polygon fill="#ffffb3" stroke="black" points="1344.37,-84.8 1149.63,-84.8 1149.63,-48.8 1344.37,-48.8 1344.37,-84.8"/>
<text text-anchor="middle" x="1247" y="-62.6" font-family="Times,serif" font-size="14.00">SafeFieldDropdownComponent</text>
</g>
<!-- SafeFieldDropdownComponent&#45;&gt;SafePipelineModule -->
<g id="edge3" class="edge">
<title>SafeFieldDropdownComponent&#45;&gt;SafePipelineModule</title>
<path fill="none" stroke="black" d="M1162.12,-84.83C1162.12,-101.86 1162.12,-124.8 1162.12,-124.8 1162.12,-124.8 852.33,-124.8 852.33,-124.8"/>
<polygon fill="black" stroke="black" points="852.33,-121.3 842.33,-124.8 852.33,-128.3 852.33,-121.3"/>
</g>
<!-- SafeGroupStageComponent -->
<g id="node4" class="node">
<title>SafeGroupStageComponent</title>
<polygon fill="#ffffb3" stroke="black" points="1131.58,-84.8 958.42,-84.8 958.42,-48.8 1131.58,-48.8 1131.58,-84.8"/>
<text text-anchor="middle" x="1045" y="-62.6" font-family="Times,serif" font-size="14.00">SafeGroupStageComponent</text>
</g>
<!-- SafeGroupStageComponent&#45;&gt;SafePipelineModule -->
<g id="edge4" class="edge">
<title>SafeGroupStageComponent&#45;&gt;SafePipelineModule</title>
<path fill="none" stroke="black" d="M968.82,-85.04C968.82,-100.37 968.82,-119.8 968.82,-119.8 968.82,-119.8 852.21,-119.8 852.21,-119.8"/>
<polygon fill="black" stroke="black" points="852.21,-116.3 842.21,-119.8 852.21,-123.3 852.21,-116.3"/>
</g>
<!-- SafePipelineComponent -->
<g id="node5" class="node">
<title>SafePipelineComponent</title>
<polygon fill="#ffffb3" stroke="black" points="940.09,-84.8 787.91,-84.8 787.91,-48.8 940.09,-48.8 940.09,-84.8"/>
<text text-anchor="middle" x="864" y="-62.6" font-family="Times,serif" font-size="14.00">SafePipelineComponent</text>
</g>
<!-- SafePipelineComponent&#45;&gt;SafePipelineModule -->
<g id="edge5" class="edge">
<title>SafePipelineComponent&#45;&gt;SafePipelineModule</title>
<path fill="none" stroke="black" d="M815.06,-84.91C815.06,-84.91 815.06,-103.79 815.06,-103.79"/>
<polygon fill="black" stroke="black" points="811.56,-103.79 815.06,-113.79 818.56,-103.79 811.56,-103.79"/>
</g>
<!-- SafeSortStageComponent -->
<g id="node6" class="node">
<title>SafeSortStageComponent</title>
<polygon fill="#ffffb3" stroke="black" points="770.15,-84.8 609.85,-84.8 609.85,-48.8 770.15,-48.8 770.15,-84.8"/>
<text text-anchor="middle" x="690" y="-62.6" font-family="Times,serif" font-size="14.00">SafeSortStageComponent</text>
</g>
<!-- SafeSortStageComponent&#45;&gt;SafePipelineModule -->
<g id="edge6" class="edge">
<title>SafeSortStageComponent&#45;&gt;SafePipelineModule</title>
<path fill="none" stroke="black" d="M741.08,-84.91C741.08,-84.91 741.08,-103.79 741.08,-103.79"/>
<polygon fill="black" stroke="black" points="737.58,-103.79 741.08,-113.79 744.58,-103.79 737.58,-103.79"/>
</g>
<!-- SafeAddFieldStageComponent  -->
<g id="node12" class="node">
<title>SafeAddFieldStageComponent </title>
<polygon fill="#fb8072" stroke="black" points="1386.7,-214.8 1193.3,-214.8 1193.3,-178.8 1386.7,-178.8 1386.7,-214.8"/>
<text text-anchor="middle" x="1290" y="-192.6" font-family="Times,serif" font-size="14.00">SafeAddFieldStageComponent </text>
</g>
<!-- SafePipelineModule&#45;&gt;SafeAddFieldStageComponent  -->
<g id="edge11" class="edge">
<title>SafePipelineModule&#45;&gt;SafeAddFieldStageComponent </title>
<path fill="none" stroke="black" stroke-dasharray="5,2" d="M842.31,-139.8C976.08,-139.8 1268.79,-139.8 1268.79,-139.8 1268.79,-139.8 1268.79,-168.76 1268.79,-168.76"/>
<polygon fill="black" stroke="black" points="1265.29,-168.76 1268.79,-178.76 1272.29,-168.76 1265.29,-168.76"/>
</g>
<!-- SafeExpressionsComponent  -->
<g id="node13" class="node">
<title>SafeExpressionsComponent </title>
<polygon fill="#fb8072" stroke="black" points="1174.87,-214.8 997.13,-214.8 997.13,-178.8 1174.87,-178.8 1174.87,-214.8"/>
<text text-anchor="middle" x="1086" y="-192.6" font-family="Times,serif" font-size="14.00">SafeExpressionsComponent </text>
</g>
<!-- SafePipelineModule&#45;&gt;SafeExpressionsComponent  -->
<g id="edge12" class="edge">
<title>SafePipelineModule&#45;&gt;SafeExpressionsComponent </title>
<path fill="none" stroke="black" stroke-dasharray="5,2" d="M842.22,-144.8C927.03,-144.8 1064.43,-144.8 1064.43,-144.8 1064.43,-144.8 1064.43,-168.61 1064.43,-168.61"/>
<polygon fill="black" stroke="black" points="1060.93,-168.61 1064.43,-178.61 1067.93,-168.61 1060.93,-168.61"/>
</g>
<!-- SafeFieldDropdownComponent  -->
<g id="node14" class="node">
<title>SafeFieldDropdownComponent </title>
<polygon fill="#fb8072" stroke="black" points="979.37,-214.8 780.63,-214.8 780.63,-178.8 979.37,-178.8 979.37,-214.8"/>
<text text-anchor="middle" x="880" y="-192.6" font-family="Times,serif" font-size="14.00">SafeFieldDropdownComponent </text>
</g>
<!-- SafePipelineModule&#45;&gt;SafeFieldDropdownComponent  -->
<g id="edge13" class="edge">
<title>SafePipelineModule&#45;&gt;SafeFieldDropdownComponent </title>
<path fill="none" stroke="black" stroke-dasharray="5,2" d="M811.49,-149.91C811.49,-149.91 811.49,-168.79 811.49,-168.79"/>
<polygon fill="black" stroke="black" points="807.99,-168.79 811.49,-178.79 814.99,-168.79 807.99,-168.79"/>
</g>
<!-- SafeGroupStageComponent  -->
<g id="node15" class="node">
<title>SafeGroupStageComponent </title>
<polygon fill="#fb8072" stroke="black" points="763.08,-214.8 586.92,-214.8 586.92,-178.8 763.08,-178.8 763.08,-214.8"/>
<text text-anchor="middle" x="675" y="-192.6" font-family="Times,serif" font-size="14.00">SafeGroupStageComponent </text>
</g>
<!-- SafePipelineModule&#45;&gt;SafeGroupStageComponent  -->
<g id="edge14" class="edge">
<title>SafePipelineModule&#45;&gt;SafeGroupStageComponent </title>
<path fill="none" stroke="black" stroke-dasharray="5,2" d="M737.57,-149.91C737.57,-149.91 737.57,-168.79 737.57,-168.79"/>
<polygon fill="black" stroke="black" points="734.07,-168.79 737.57,-178.79 741.07,-168.79 734.07,-168.79"/>
</g>
<!-- SafePipelineComponent  -->
<g id="node16" class="node">
<title>SafePipelineComponent </title>
<polygon fill="#fb8072" stroke="black" points="568.59,-214.8 413.41,-214.8 413.41,-178.8 568.59,-178.8 568.59,-214.8"/>
<text text-anchor="middle" x="491" y="-192.6" font-family="Times,serif" font-size="14.00">SafePipelineComponent </text>
</g>
<!-- SafePipelineModule&#45;&gt;SafePipelineComponent  -->
<g id="edge15" class="edge">
<title>SafePipelineModule&#45;&gt;SafePipelineComponent </title>
<path fill="none" stroke="black" stroke-dasharray="5,2" d="M711.54,-144.8C634.31,-144.8 516.26,-144.8 516.26,-144.8 516.26,-144.8 516.26,-168.61 516.26,-168.61"/>
<polygon fill="black" stroke="black" points="512.76,-168.61 516.26,-178.61 519.76,-168.61 512.76,-168.61"/>
</g>
<!-- SafeSortStageComponent  -->
<g id="node17" class="node">
<title>SafeSortStageComponent </title>
<polygon fill="#fb8072" stroke="black" points="395.15,-214.8 230.85,-214.8 230.85,-178.8 395.15,-178.8 395.15,-214.8"/>
<text text-anchor="middle" x="313" y="-192.6" font-family="Times,serif" font-size="14.00">SafeSortStageComponent </text>
</g>
<!-- SafePipelineModule&#45;&gt;SafeSortStageComponent  -->
<g id="edge16" class="edge">
<title>SafePipelineModule&#45;&gt;SafeSortStageComponent </title>
<path fill="none" stroke="black" stroke-dasharray="5,2" d="M711.83,-139.8C595.2,-139.8 362.85,-139.8 362.85,-139.8 362.85,-139.8 362.85,-168.76 362.85,-168.76"/>
<polygon fill="black" stroke="black" points="359.35,-168.76 362.85,-178.76 366.35,-168.76 359.35,-168.76"/>
</g>
<!-- SafeButtonModule -->
<g id="node8" class="node">
<title>SafeButtonModule</title>
<polygon fill="#8dd3c7" stroke="black" points="586.05,-84.8 583.05,-88.8 562.05,-88.8 559.05,-84.8 463.95,-84.8 463.95,-48.8 586.05,-48.8 586.05,-84.8"/>
<text text-anchor="middle" x="525" y="-62.6" font-family="Times,serif" font-size="14.00">SafeButtonModule</text>
</g>
<!-- SafeButtonModule&#45;&gt;SafePipelineModule -->
<g id="edge7" class="edge">
<title>SafeButtonModule&#45;&gt;SafePipelineModule</title>
<path fill="none" stroke="black" d="M577.53,-85.04C577.53,-100.37 577.53,-119.8 577.53,-119.8 577.53,-119.8 701.69,-119.8 701.69,-119.8"/>
<polygon fill="black" stroke="black" points="701.69,-123.3 711.69,-119.8 701.69,-116.3 701.69,-123.3"/>
</g>
<!-- SafeFilterModule -->
<g id="node9" class="node">
<title>SafeFilterModule</title>
<polygon fill="#8dd3c7" stroke="black" points="445.26,-84.8 442.26,-88.8 421.26,-88.8 418.26,-84.8 330.74,-84.8 330.74,-48.8 445.26,-48.8 445.26,-84.8"/>
<text text-anchor="middle" x="388" y="-62.6" font-family="Times,serif" font-size="14.00">SafeFilterModule</text>
</g>
<!-- SafeFilterModule&#45;&gt;SafePipelineModule -->
<g id="edge8" class="edge">
<title>SafeFilterModule&#45;&gt;SafePipelineModule</title>
<path fill="none" stroke="black" d="M429.29,-84.83C429.29,-101.86 429.29,-124.8 429.29,-124.8 429.29,-124.8 701.6,-124.8 701.6,-124.8"/>
<polygon fill="black" stroke="black" points="701.6,-128.3 711.6,-124.8 701.6,-121.3 701.6,-128.3"/>
</g>
<!-- SafeIconModule -->
<g id="node10" class="node">
<title>SafeIconModule</title>
<polygon fill="#8dd3c7" stroke="black" points="312.8,-84.8 309.8,-88.8 288.8,-88.8 285.8,-84.8 203.2,-84.8 203.2,-48.8 312.8,-48.8 312.8,-84.8"/>
<text text-anchor="middle" x="258" y="-62.6" font-family="Times,serif" font-size="14.00">SafeIconModule</text>
</g>
<!-- SafeIconModule&#45;&gt;SafePipelineModule -->
<g id="edge9" class="edge">
<title>SafeIconModule&#45;&gt;SafePipelineModule</title>
<path fill="none" stroke="black" d="M271.79,-85.02C271.79,-103.63 271.79,-129.8 271.79,-129.8 271.79,-129.8 701.73,-129.8 701.73,-129.8"/>
<polygon fill="black" stroke="black" points="701.73,-133.3 711.73,-129.8 701.73,-126.3 701.73,-133.3"/>
</g>
<!-- SafeQueryBuilderModule -->
<g id="node11" class="node">
<title>SafeQueryBuilderModule</title>
<polygon fill="#8dd3c7" stroke="black" points="185.91,-84.8 182.91,-88.8 161.91,-88.8 158.91,-84.8 24.09,-84.8 24.09,-48.8 185.91,-48.8 185.91,-84.8"/>
<text text-anchor="middle" x="105" y="-62.6" font-family="Times,serif" font-size="14.00">SafeQueryBuilderModule</text>
</g>
<!-- SafeQueryBuilderModule&#45;&gt;SafePipelineModule -->
<g id="edge10" class="edge">
<title>SafeQueryBuilderModule&#45;&gt;SafePipelineModule</title>
<path fill="none" stroke="black" d="M105,-85.02C105,-105.17 105,-134.8 105,-134.8 105,-134.8 701.65,-134.8 701.65,-134.8"/>
<polygon fill="black" stroke="black" points="701.65,-138.3 711.65,-134.8 701.65,-131.3 701.65,-138.3"/>
</g>
</g>
</svg>
