<?xml version="1.0" encoding="UTF-8" standalone="no"?>
<!DOCTYPE svg PUBLIC "-//W3C//DTD SVG 1.1//EN"
 "http://www.w3.org/Graphics/SVG/1.1/DTD/svg11.dtd">
<!-- Generated by graphviz version 3.0.0 (20220226.1711)
 -->
<!-- Title: dependencies Pages: 1 -->
<svg width="1598pt" height="247pt"
 viewBox="0.00 0.00 1598.00 246.80" xmlns="http://www.w3.org/2000/svg" xmlns:xlink="http://www.w3.org/1999/xlink">
<g id="graph0" class="graph" transform="scale(1 1) rotate(0) translate(4 242.8)">
<title>dependencies</title>
<polygon fill="white" stroke="transparent" points="-4,4 -4,-242.8 1594,-242.8 1594,4 -4,4"/>
<text text-anchor="middle" x="795" y="-8.2" font-family="sans-serif" font-size="14.00">dependencies</text>
<g id="clust1" class="cluster">
<title>cluster_SafePipelineModule</title>
<polygon fill="none" stroke="black" stroke-dasharray="1,5" points="8,-32.8 8,-230.8 1582,-230.8 1582,-32.8 8,-32.8"/>
</g>
<g id="clust9" class="cluster">
<title>cluster_SafePipelineModule_exports</title>
<polygon fill="none" stroke="black" points="211,-170.8 211,-222.8 1201,-222.8 1201,-170.8 211,-170.8"/>
</g>
<g id="clust2" class="cluster">
<title>cluster_SafePipelineModule_declarations</title>
<polygon fill="none" stroke="black" points="602,-40.8 602,-92.8 1574,-92.8 1574,-40.8 602,-40.8"/>
</g>
<g id="clust8" class="cluster">
<title>cluster_SafePipelineModule_imports</title>
<polygon fill="none" stroke="black" points="16,-40.8 16,-92.8 594,-92.8 594,-40.8 16,-40.8"/>
</g>
<!-- SafeAddFieldStageComponent -->
<g id="node1" class="node">
<title>SafeAddFieldStageComponent</title>
<polygon fill="#ffffb3" stroke="black" points="1566.2,-84.8 1375.8,-84.8 1375.8,-48.8 1566.2,-48.8 1566.2,-84.8"/>
<text text-anchor="middle" x="1471" y="-62.6" font-family="Times,serif" font-size="14.00">SafeAddFieldStageComponent</text>
</g>
<!-- SafePipelineModule -->
<g id="node6" class="node">
<title>SafePipelineModule</title>
<polygon fill="#8dd3c7" stroke="black" points="751.31,-149.8 748.31,-153.8 727.31,-153.8 724.31,-149.8 620.69,-149.8 620.69,-113.8 751.31,-113.8 751.31,-149.8"/>
<text text-anchor="middle" x="686" y="-127.6" font-family="Times,serif" font-size="14.00">SafePipelineModule</text>
</g>
<!-- SafeAddFieldStageComponent&#45;&gt;SafePipelineModule -->
<g id="edge1" class="edge">
<title>SafeAddFieldStageComponent&#45;&gt;SafePipelineModule</title>
<path fill="none" stroke="black" d="M1471,-85.02C1471,-105.17 1471,-134.8 1471,-134.8 1471,-134.8 761.24,-134.8 761.24,-134.8"/>
<polygon fill="black" stroke="black" points="761.24,-131.3 751.24,-134.8 761.24,-138.3 761.24,-131.3"/>
</g>
<!-- SafeExpressionsComponent -->
<g id="node2" class="node">
<title>SafeExpressionsComponent</title>
<polygon fill="#ffffb3" stroke="black" points="1357.87,-84.8 1184.13,-84.8 1184.13,-48.8 1357.87,-48.8 1357.87,-84.8"/>
<text text-anchor="middle" x="1271" y="-62.6" font-family="Times,serif" font-size="14.00">SafeExpressionsComponent</text>
</g>
<!-- SafeExpressionsComponent&#45;&gt;SafePipelineModule -->
<g id="edge2" class="edge">
<title>SafeExpressionsComponent&#45;&gt;SafePipelineModule</title>
<path fill="none" stroke="black" d="M1188.46,-85.02C1188.46,-103.63 1188.46,-129.8 1188.46,-129.8 1188.46,-129.8 761.17,-129.8 761.17,-129.8"/>
<polygon fill="black" stroke="black" points="761.17,-126.3 751.17,-129.8 761.17,-133.3 761.17,-126.3"/>
</g>
<!-- SafeFieldDropdownComponent -->
<g id="node3" class="node">
<title>SafeFieldDropdownComponent</title>
<polygon fill="#ffffb3" stroke="black" points="1166.37,-84.8 971.63,-84.8 971.63,-48.8 1166.37,-48.8 1166.37,-84.8"/>
<text text-anchor="middle" x="1069" y="-62.6" font-family="Times,serif" font-size="14.00">SafeFieldDropdownComponent</text>
</g>
<!-- SafeFieldDropdownComponent&#45;&gt;SafePipelineModule -->
<g id="edge3" class="edge">
<title>SafeFieldDropdownComponent&#45;&gt;SafePipelineModule</title>
<path fill="none" stroke="black" d="M976.12,-84.83C976.12,-101.86 976.12,-124.8 976.12,-124.8 976.12,-124.8 761.47,-124.8 761.47,-124.8"/>
<polygon fill="black" stroke="black" points="761.47,-121.3 751.47,-124.8 761.47,-128.3 761.47,-121.3"/>
</g>
<!-- SafeGroupStageComponent -->
<g id="node4" class="node">
<title>SafeGroupStageComponent</title>
<polygon fill="#ffffb3" stroke="black" points="953.58,-84.8 780.42,-84.8 780.42,-48.8 953.58,-48.8 953.58,-84.8"/>
<text text-anchor="middle" x="867" y="-62.6" font-family="Times,serif" font-size="14.00">SafeGroupStageComponent</text>
</g>
<!-- SafeGroupStageComponent&#45;&gt;SafePipelineModule -->
<g id="edge4" class="edge">
<title>SafeGroupStageComponent&#45;&gt;SafePipelineModule</title>
<path fill="none" stroke="black" d="M794.25,-85.04C794.25,-100.37 794.25,-119.8 794.25,-119.8 794.25,-119.8 761.16,-119.8 761.16,-119.8"/>
<polygon fill="black" stroke="black" points="761.16,-116.3 751.16,-119.8 761.16,-123.3 761.16,-116.3"/>
</g>
<!-- SafePipelineComponent -->
<g id="node5" class="node">
<title>SafePipelineComponent</title>
<polygon fill="#ffffb3" stroke="black" points="762.09,-84.8 609.91,-84.8 609.91,-48.8 762.09,-48.8 762.09,-84.8"/>
<text text-anchor="middle" x="686" y="-62.6" font-family="Times,serif" font-size="14.00">SafePipelineComponent</text>
</g>
<!-- SafePipelineComponent&#45;&gt;SafePipelineModule -->
<g id="edge5" class="edge">
<title>SafePipelineComponent&#45;&gt;SafePipelineModule</title>
<path fill="none" stroke="black" d="M686,-84.91C686,-84.91 686,-103.79 686,-103.79"/>
<polygon fill="black" stroke="black" points="682.5,-103.79 686,-113.79 689.5,-103.79 682.5,-103.79"/>
</g>
<!-- SafeAddFieldStageComponent  -->
<g id="node11" class="node">
<title>SafeAddFieldStageComponent </title>
<polygon fill="#fb8072" stroke="black" points="1192.7,-214.8 999.3,-214.8 999.3,-178.8 1192.7,-178.8 1192.7,-214.8"/>
<text text-anchor="middle" x="1096" y="-192.6" font-family="Times,serif" font-size="14.00">SafeAddFieldStageComponent </text>
</g>
<!-- SafePipelineModule&#45;&gt;SafeAddFieldStageComponent  -->
<g id="edge10" class="edge">
<title>SafePipelineModule&#45;&gt;SafeAddFieldStageComponent </title>
<path fill="none" stroke="black" stroke-dasharray="5,2" d="M751.52,-139.8C864.22,-139.8 1082.79,-139.8 1082.79,-139.8 1082.79,-139.8 1082.79,-168.76 1082.79,-168.76"/>
<polygon fill="black" stroke="black" points="1079.29,-168.76 1082.79,-178.76 1086.29,-168.76 1079.29,-168.76"/>
</g>
<!-- SafeExpressionsComponent  -->
<g id="node12" class="node">
<title>SafeExpressionsComponent </title>
<polygon fill="#fb8072" stroke="black" points="980.87,-214.8 803.13,-214.8 803.13,-178.8 980.87,-178.8 980.87,-214.8"/>
<text text-anchor="middle" x="892" y="-192.6" font-family="Times,serif" font-size="14.00">SafeExpressionsComponent </text>
</g>
<!-- SafePipelineModule&#45;&gt;SafeExpressionsComponent  -->
<g id="edge11" class="edge">
<title>SafePipelineModule&#45;&gt;SafeExpressionsComponent </title>
<path fill="none" stroke="black" stroke-dasharray="5,2" d="M751.42,-144.8C807.2,-144.8 878.43,-144.8 878.43,-144.8 878.43,-144.8 878.43,-168.61 878.43,-168.61"/>
<polygon fill="black" stroke="black" points="874.93,-168.61 878.43,-178.61 881.93,-168.61 874.93,-168.61"/>
</g>
<!-- SafeFieldDropdownComponent  -->
<g id="node13" class="node">
<title>SafeFieldDropdownComponent </title>
<polygon fill="#fb8072" stroke="black" points="785.37,-214.8 586.63,-214.8 586.63,-178.8 785.37,-178.8 785.37,-214.8"/>
<text text-anchor="middle" x="686" y="-192.6" font-family="Times,serif" font-size="14.00">SafeFieldDropdownComponent </text>
</g>
<!-- SafePipelineModule&#45;&gt;SafeFieldDropdownComponent  -->
<g id="edge12" class="edge">
<title>SafePipelineModule&#45;&gt;SafeFieldDropdownComponent </title>
<path fill="none" stroke="black" stroke-dasharray="5,2" d="M686,-149.91C686,-149.91 686,-168.79 686,-168.79"/>
<polygon fill="black" stroke="black" points="682.5,-168.79 686,-178.79 689.5,-168.79 682.5,-168.79"/>
</g>
<!-- SafeGroupStageComponent  -->
<g id="node14" class="node">
<title>SafeGroupStageComponent </title>
<polygon fill="#fb8072" stroke="black" points="569.08,-214.8 392.92,-214.8 392.92,-178.8 569.08,-178.8 569.08,-214.8"/>
<text text-anchor="middle" x="481" y="-192.6" font-family="Times,serif" font-size="14.00">SafeGroupStageComponent </text>
</g>
<!-- SafePipelineModule&#45;&gt;SafeGroupStageComponent  -->
<g id="edge13" class="edge">
<title>SafePipelineModule&#45;&gt;SafeGroupStageComponent </title>
<path fill="none" stroke="black" stroke-dasharray="5,2" d="M620.47,-144.8C572.78,-144.8 516.51,-144.8 516.51,-144.8 516.51,-144.8 516.51,-168.61 516.51,-168.61"/>
<polygon fill="black" stroke="black" points="513.01,-168.61 516.51,-178.61 520.01,-168.61 513.01,-168.61"/>
</g>
<!-- SafePipelineComponent  -->
<g id="node15" class="node">
<title>SafePipelineComponent </title>
<polygon fill="#fb8072" stroke="black" points="374.59,-214.8 219.41,-214.8 219.41,-178.8 374.59,-178.8 374.59,-214.8"/>
<text text-anchor="middle" x="297" y="-192.6" font-family="Times,serif" font-size="14.00">SafePipelineComponent </text>
</g>
<!-- SafePipelineModule&#45;&gt;SafePipelineComponent  -->
<g id="edge14" class="edge">
<title>SafePipelineModule&#45;&gt;SafePipelineComponent </title>
<path fill="none" stroke="black" stroke-dasharray="5,2" d="M620.55,-139.8C523.49,-139.8 352.71,-139.8 352.71,-139.8 352.71,-139.8 352.71,-168.76 352.71,-168.76"/>
<polygon fill="black" stroke="black" points="349.21,-168.76 352.71,-178.76 356.21,-168.76 349.21,-168.76"/>
</g>
<!-- SafeButtonModule -->
<g id="node7" class="node">
<title>SafeButtonModule</title>
<polygon fill="#8dd3c7" stroke="black" points="586.05,-84.8 583.05,-88.8 562.05,-88.8 559.05,-84.8 463.95,-84.8 463.95,-48.8 586.05,-48.8 586.05,-84.8"/>
<text text-anchor="middle" x="525" y="-62.6" font-family="Times,serif" font-size="14.00">SafeButtonModule</text>
</g>
<!-- SafeButtonModule&#45;&gt;SafePipelineModule -->
<g id="edge6" class="edge">
<title>SafeButtonModule&#45;&gt;SafePipelineModule</title>
<path fill="none" stroke="black" d="M577.78,-85.04C577.78,-100.37 577.78,-119.8 577.78,-119.8 577.78,-119.8 610.55,-119.8 610.55,-119.8"/>
<polygon fill="black" stroke="black" points="610.55,-123.3 620.55,-119.8 610.55,-116.3 610.55,-123.3"/>
</g>
<!-- SafeFilterModule -->
<g id="node8" class="node">
<title>SafeFilterModule</title>
<polygon fill="#8dd3c7" stroke="black" points="445.26,-84.8 442.26,-88.8 421.26,-88.8 418.26,-84.8 330.74,-84.8 330.74,-48.8 445.26,-48.8 445.26,-84.8"/>
<text text-anchor="middle" x="388" y="-62.6" font-family="Times,serif" font-size="14.00">SafeFilterModule</text>
</g>
<!-- SafeFilterModule&#45;&gt;SafePipelineModule -->
<g id="edge7" class="edge">
<title>SafeFilterModule&#45;&gt;SafePipelineModule</title>
<path fill="none" stroke="black" d="M419.04,-84.83C419.04,-101.86 419.04,-124.8 419.04,-124.8 419.04,-124.8 610.7,-124.8 610.7,-124.8"/>
<polygon fill="black" stroke="black" points="610.7,-128.3 620.7,-124.8 610.7,-121.3 610.7,-128.3"/>
</g>
<!-- SafeIconModule -->
<g id="node9" class="node">
<title>SafeIconModule</title>
<polygon fill="#8dd3c7" stroke="black" points="312.8,-84.8 309.8,-88.8 288.8,-88.8 285.8,-84.8 203.2,-84.8 203.2,-48.8 312.8,-48.8 312.8,-84.8"/>
<text text-anchor="middle" x="258" y="-62.6" font-family="Times,serif" font-size="14.00">SafeIconModule</text>
</g>
<!-- SafeIconModule&#45;&gt;SafePipelineModule -->
<g id="edge8" class="edge">
<title>SafeIconModule&#45;&gt;SafePipelineModule</title>
<path fill="none" stroke="black" d="M265.93,-85.02C265.93,-103.63 265.93,-129.8 265.93,-129.8 265.93,-129.8 610.82,-129.8 610.82,-129.8"/>
<polygon fill="black" stroke="black" points="610.82,-133.3 620.82,-129.8 610.82,-126.3 610.82,-133.3"/>
</g>
<!-- SafeQueryBuilderModule -->
<g id="node10" class="node">
<title>SafeQueryBuilderModule</title>
<polygon fill="#8dd3c7" stroke="black" points="185.91,-84.8 182.91,-88.8 161.91,-88.8 158.91,-84.8 24.09,-84.8 24.09,-48.8 185.91,-48.8 185.91,-84.8"/>
<text text-anchor="middle" x="105" y="-62.6" font-family="Times,serif" font-size="14.00">SafeQueryBuilderModule</text>
</g>
<!-- SafeQueryBuilderModule&#45;&gt;SafePipelineModule -->
<g id="edge9" class="edge">
<title>SafeQueryBuilderModule&#45;&gt;SafePipelineModule</title>
<path fill="none" stroke="black" d="M105,-85.02C105,-105.17 105,-134.8 105,-134.8 105,-134.8 610.76,-134.8 610.76,-134.8"/>
<polygon fill="black" stroke="black" points="610.76,-138.3 620.76,-134.8 610.76,-131.3 610.76,-138.3"/>
</g>
</g>
</svg>
