<?xml version="1.0" encoding="UTF-8" standalone="no"?>
<!DOCTYPE svg PUBLIC "-//W3C//DTD SVG 1.1//EN"
 "http://www.w3.org/Graphics/SVG/1.1/DTD/svg11.dtd">
<!-- Generated by graphviz version 3.0.0 (20220226.1711)
 -->
<!-- Title: dependencies Pages: 1 -->
<svg width="1598pt" height="247pt"
 viewBox="0.00 0.00 1598.00 246.80" xmlns="http://www.w3.org/2000/svg" xmlns:xlink="http://www.w3.org/1999/xlink">
<g id="graph0" class="graph" transform="scale(1 1) rotate(0) translate(4 242.8)">
<title>dependencies</title>
<polygon fill="white" stroke="transparent" points="-4,4 -4,-242.8 1594,-242.8 1594,4 -4,4"/>
<text text-anchor="middle" x="795" y="-8.2" font-family="sans-serif" font-size="14.00">dependencies</text>
<g id="clust1" class="cluster">
<title>cluster_SafePipelineModule</title>
<polygon fill="none" stroke="black" stroke-dasharray="1,5" points="8,-32.8 8,-230.8 1582,-230.8 1582,-32.8 8,-32.8"/>
</g>
<g id="clust9" class="cluster">
<title>cluster_SafePipelineModule_exports</title>
<polygon fill="none" stroke="black" points="410,-170.8 410,-222.8 1400,-222.8 1400,-170.8 410,-170.8"/>
</g>
<g id="clust8" class="cluster">
<title>cluster_SafePipelineModule_imports</title>
<polygon fill="none" stroke="black" points="996,-40.8 996,-92.8 1574,-92.8 1574,-40.8 996,-40.8"/>
</g>
<g id="clust2" class="cluster">
<title>cluster_SafePipelineModule_declarations</title>
<polygon fill="none" stroke="black" points="16,-40.8 16,-92.8 988,-92.8 988,-40.8 16,-40.8"/>
</g>
<!-- SafeAddFieldStageComponent -->
<g id="node1" class="node">
<title>SafeAddFieldStageComponent</title>
<polygon fill="#ffffb3" stroke="black" points="980.2,-84.8 789.8,-84.8 789.8,-48.8 980.2,-48.8 980.2,-84.8"/>
<text text-anchor="middle" x="885" y="-62.6" font-family="Times,serif" font-size="14.00">SafeAddFieldStageComponent</text>
</g>
<!-- SafePipelineModule -->
<g id="node6" class="node">
<title>SafePipelineModule</title>
<polygon fill="#8dd3c7" stroke="black" points="950.31,-149.8 947.31,-153.8 926.31,-153.8 923.31,-149.8 819.69,-149.8 819.69,-113.8 950.31,-113.8 950.31,-149.8"/>
<text text-anchor="middle" x="885" y="-127.6" font-family="Times,serif" font-size="14.00">SafePipelineModule</text>
</g>
<!-- SafeAddFieldStageComponent&#45;&gt;SafePipelineModule -->
<g id="edge1" class="edge">
<title>SafeAddFieldStageComponent&#45;&gt;SafePipelineModule</title>
<path fill="none" stroke="black" d="M885,-84.91C885,-84.91 885,-103.79 885,-103.79"/>
<polygon fill="black" stroke="black" points="881.5,-103.79 885,-113.79 888.5,-103.79 881.5,-103.79"/>
</g>
<!-- SafeExpressionsComponent -->
<g id="node2" class="node">
<title>SafeExpressionsComponent</title>
<polygon fill="#ffffb3" stroke="black" points="771.87,-84.8 598.13,-84.8 598.13,-48.8 771.87,-48.8 771.87,-84.8"/>
<text text-anchor="middle" x="685" y="-62.6" font-family="Times,serif" font-size="14.00">SafeExpressionsComponent</text>
</g>
<!-- SafeExpressionsComponent&#45;&gt;SafePipelineModule -->
<g id="edge2" class="edge">
<title>SafeExpressionsComponent&#45;&gt;SafePipelineModule</title>
<path fill="none" stroke="black" d="M711.55,-85.04C711.55,-100.37 711.55,-119.8 711.55,-119.8 711.55,-119.8 809.43,-119.8 809.43,-119.8"/>
<polygon fill="black" stroke="black" points="809.43,-123.3 819.43,-119.8 809.43,-116.3 809.43,-123.3"/>
</g>
<!-- SafeFieldDropdownComponent -->
<g id="node3" class="node">
<title>SafeFieldDropdownComponent</title>
<polygon fill="#ffffb3" stroke="black" points="580.37,-84.8 385.63,-84.8 385.63,-48.8 580.37,-48.8 580.37,-84.8"/>
<text text-anchor="middle" x="483" y="-62.6" font-family="Times,serif" font-size="14.00">SafeFieldDropdownComponent</text>
</g>
<!-- SafeFieldDropdownComponent&#45;&gt;SafePipelineModule -->
<g id="edge3" class="edge">
<title>SafeFieldDropdownComponent&#45;&gt;SafePipelineModule</title>
<path fill="none" stroke="black" d="M470.07,-84.83C470.07,-101.86 470.07,-124.8 470.07,-124.8 470.07,-124.8 809.71,-124.8 809.71,-124.8"/>
<polygon fill="black" stroke="black" points="809.71,-128.3 819.71,-124.8 809.71,-121.3 809.71,-128.3"/>
</g>
<!-- SafeGroupStageComponent -->
<g id="node4" class="node">
<title>SafeGroupStageComponent</title>
<polygon fill="#ffffb3" stroke="black" points="367.58,-84.8 194.42,-84.8 194.42,-48.8 367.58,-48.8 367.58,-84.8"/>
<text text-anchor="middle" x="281" y="-62.6" font-family="Times,serif" font-size="14.00">SafeGroupStageComponent</text>
</g>
<!-- SafeGroupStageComponent&#45;&gt;SafePipelineModule -->
<g id="edge4" class="edge">
<title>SafeGroupStageComponent&#45;&gt;SafePipelineModule</title>
<path fill="none" stroke="black" d="M281,-85.02C281,-103.63 281,-129.8 281,-129.8 281,-129.8 809.79,-129.8 809.79,-129.8"/>
<polygon fill="black" stroke="black" points="809.79,-133.3 819.79,-129.8 809.79,-126.3 809.79,-133.3"/>
</g>
<!-- SafePipelineComponent -->
<g id="node5" class="node">
<title>SafePipelineComponent</title>
<polygon fill="#ffffb3" stroke="black" points="176.09,-84.8 23.91,-84.8 23.91,-48.8 176.09,-48.8 176.09,-84.8"/>
<text text-anchor="middle" x="100" y="-62.6" font-family="Times,serif" font-size="14.00">SafePipelineComponent</text>
</g>
<!-- SafePipelineComponent&#45;&gt;SafePipelineModule -->
<g id="edge5" class="edge">
<title>SafePipelineComponent&#45;&gt;SafePipelineModule</title>
<path fill="none" stroke="black" d="M100,-85.02C100,-105.17 100,-134.8 100,-134.8 100,-134.8 809.76,-134.8 809.76,-134.8"/>
<polygon fill="black" stroke="black" points="809.76,-138.3 819.76,-134.8 809.76,-131.3 809.76,-138.3"/>
</g>
<!-- SafeAddFieldStageComponent  -->
<g id="node11" class="node">
<title>SafeAddFieldStageComponent </title>
<polygon fill="#fb8072" stroke="black" points="1391.7,-214.8 1198.3,-214.8 1198.3,-178.8 1391.7,-178.8 1391.7,-214.8"/>
<text text-anchor="middle" x="1295" y="-192.6" font-family="Times,serif" font-size="14.00">SafeAddFieldStageComponent </text>
</g>
<!-- SafePipelineModule&#45;&gt;SafeAddFieldStageComponent  -->
<g id="edge10" class="edge">
<title>SafePipelineModule&#45;&gt;SafeAddFieldStageComponent </title>
<path fill="none" stroke="black" stroke-dasharray="5,2" d="M950.27,-139.8C1054.12,-139.8 1245.4,-139.8 1245.4,-139.8 1245.4,-139.8 1245.4,-168.76 1245.4,-168.76"/>
<polygon fill="black" stroke="black" points="1241.9,-168.76 1245.4,-178.76 1248.9,-168.76 1241.9,-168.76"/>
</g>
<!-- SafeExpressionsComponent  -->
<g id="node12" class="node">
<title>SafeExpressionsComponent </title>
<polygon fill="#fb8072" stroke="black" points="1179.87,-214.8 1002.13,-214.8 1002.13,-178.8 1179.87,-178.8 1179.87,-214.8"/>
<text text-anchor="middle" x="1091" y="-192.6" font-family="Times,serif" font-size="14.00">SafeExpressionsComponent </text>
</g>
<!-- SafePipelineModule&#45;&gt;SafeExpressionsComponent  -->
<g id="edge11" class="edge">
<title>SafePipelineModule&#45;&gt;SafeExpressionsComponent </title>
<path fill="none" stroke="black" stroke-dasharray="5,2" d="M950.44,-144.8C999.46,-144.8 1058.1,-144.8 1058.1,-144.8 1058.1,-144.8 1058.1,-168.61 1058.1,-168.61"/>
<polygon fill="black" stroke="black" points="1054.6,-168.61 1058.1,-178.61 1061.6,-168.61 1054.6,-168.61"/>
</g>
<!-- SafeFieldDropdownComponent  -->
<g id="node13" class="node">
<title>SafeFieldDropdownComponent </title>
<polygon fill="#fb8072" stroke="black" points="984.37,-214.8 785.63,-214.8 785.63,-178.8 984.37,-178.8 984.37,-214.8"/>
<text text-anchor="middle" x="885" y="-192.6" font-family="Times,serif" font-size="14.00">SafeFieldDropdownComponent </text>
</g>
<!-- SafePipelineModule&#45;&gt;SafeFieldDropdownComponent  -->
<g id="edge12" class="edge">
<title>SafePipelineModule&#45;&gt;SafeFieldDropdownComponent </title>
<path fill="none" stroke="black" stroke-dasharray="5,2" d="M885,-149.91C885,-149.91 885,-168.79 885,-168.79"/>
<polygon fill="black" stroke="black" points="881.5,-168.79 885,-178.79 888.5,-168.79 881.5,-168.79"/>
</g>
<!-- SafeGroupStageComponent  -->
<g id="node14" class="node">
<title>SafeGroupStageComponent </title>
<polygon fill="#fb8072" stroke="black" points="768.08,-214.8 591.92,-214.8 591.92,-178.8 768.08,-178.8 768.08,-214.8"/>
<text text-anchor="middle" x="680" y="-192.6" font-family="Times,serif" font-size="14.00">SafeGroupStageComponent </text>
</g>
<!-- SafePipelineModule&#45;&gt;SafeGroupStageComponent  -->
<g id="edge13" class="edge">
<title>SafePipelineModule&#45;&gt;SafeGroupStageComponent </title>
<path fill="none" stroke="black" stroke-dasharray="5,2" d="M819.65,-144.8C751.6,-144.8 654.81,-144.8 654.81,-144.8 654.81,-144.8 654.81,-168.61 654.81,-168.61"/>
<polygon fill="black" stroke="black" points="651.31,-168.61 654.81,-178.61 658.31,-168.61 651.31,-168.61"/>
</g>
<!-- SafePipelineComponent  -->
<g id="node15" class="node">
<title>SafePipelineComponent </title>
<polygon fill="#fb8072" stroke="black" points="573.59,-214.8 418.41,-214.8 418.41,-178.8 573.59,-178.8 573.59,-214.8"/>
<text text-anchor="middle" x="496" y="-192.6" font-family="Times,serif" font-size="14.00">SafePipelineComponent </text>
</g>
<!-- SafePipelineModule&#45;&gt;SafePipelineComponent  -->
<g id="edge14" class="edge">
<title>SafePipelineModule&#45;&gt;SafePipelineComponent </title>
<path fill="none" stroke="black" stroke-dasharray="5,2" d="M819.67,-139.8C715.14,-139.8 521.93,-139.8 521.93,-139.8 521.93,-139.8 521.93,-168.76 521.93,-168.76"/>
<polygon fill="black" stroke="black" points="518.43,-168.76 521.93,-178.76 525.43,-168.76 518.43,-168.76"/>
</g>
<!-- SafeButtonModule -->
<g id="node7" class="node">
<title>SafeButtonModule</title>
<polygon fill="#8dd3c7" stroke="black" points="1566.05,-84.8 1563.05,-88.8 1542.05,-88.8 1539.05,-84.8 1443.95,-84.8 1443.95,-48.8 1566.05,-48.8 1566.05,-84.8"/>
<text text-anchor="middle" x="1505" y="-62.6" font-family="Times,serif" font-size="14.00">SafeButtonModule</text>
</g>
<!-- SafeButtonModule&#45;&gt;SafePipelineModule -->
<g id="edge6" class="edge">
<title>SafeButtonModule&#45;&gt;SafePipelineModule</title>
<path fill="none" stroke="black" d="M1505,-85.02C1505,-105.17 1505,-134.8 1505,-134.8 1505,-134.8 960.18,-134.8 960.18,-134.8"/>
<polygon fill="black" stroke="black" points="960.18,-131.3 950.18,-134.8 960.18,-138.3 960.18,-131.3"/>
</g>
<!-- SafeFilterModule -->
<g id="node8" class="node">
<title>SafeFilterModule</title>
<polygon fill="#8dd3c7" stroke="black" points="1425.26,-84.8 1422.26,-88.8 1401.26,-88.8 1398.26,-84.8 1310.74,-84.8 1310.74,-48.8 1425.26,-48.8 1425.26,-84.8"/>
<text text-anchor="middle" x="1368" y="-62.6" font-family="Times,serif" font-size="14.00">SafeFilterModule</text>
</g>
<!-- SafeFilterModule&#45;&gt;SafePipelineModule -->
<g id="edge7" class="edge">
<title>SafeFilterModule&#45;&gt;SafePipelineModule</title>
<path fill="none" stroke="black" d="M1351.24,-85.02C1351.24,-103.63 1351.24,-129.8 1351.24,-129.8 1351.24,-129.8 960.32,-129.8 960.32,-129.8"/>
<polygon fill="black" stroke="black" points="960.32,-126.3 950.32,-129.8 960.32,-133.3 960.32,-126.3"/>
</g>
<!-- SafeIconModule -->
<g id="node9" class="node">
<title>SafeIconModule</title>
<polygon fill="#8dd3c7" stroke="black" points="1292.8,-84.8 1289.8,-88.8 1268.8,-88.8 1265.8,-84.8 1183.2,-84.8 1183.2,-48.8 1292.8,-48.8 1292.8,-84.8"/>
<text text-anchor="middle" x="1238" y="-62.6" font-family="Times,serif" font-size="14.00">SafeIconModule</text>
</g>
<!-- SafeIconModule&#45;&gt;SafePipelineModule -->
<g id="edge8" class="edge">
<title>SafeIconModule&#45;&gt;SafePipelineModule</title>
<path fill="none" stroke="black" d="M1190.75,-84.83C1190.75,-101.86 1190.75,-124.8 1190.75,-124.8 1190.75,-124.8 960.22,-124.8 960.22,-124.8"/>
<polygon fill="black" stroke="black" points="960.22,-121.3 950.22,-124.8 960.22,-128.3 960.22,-121.3"/>
</g>
<!-- SafeQueryBuilderModule -->
<g id="node10" class="node">
<title>SafeQueryBuilderModule</title>
<polygon fill="#8dd3c7" stroke="black" points="1165.91,-84.8 1162.91,-88.8 1141.91,-88.8 1138.91,-84.8 1004.09,-84.8 1004.09,-48.8 1165.91,-48.8 1165.91,-84.8"/>
<text text-anchor="middle" x="1085" y="-62.6" font-family="Times,serif" font-size="14.00">SafeQueryBuilderModule</text>
</g>
<!-- SafeQueryBuilderModule&#45;&gt;SafePipelineModule -->
<g id="edge9" class="edge">
<title>SafeQueryBuilderModule&#45;&gt;SafePipelineModule</title>
<path fill="none" stroke="black" d="M1111.9,-85.04C1111.9,-100.37 1111.9,-119.8 1111.9,-119.8 1111.9,-119.8 960.32,-119.8 960.32,-119.8"/>
<polygon fill="black" stroke="black" points="960.32,-116.3 950.32,-119.8 960.32,-123.3 960.32,-116.3"/>
</g>
</g>
</svg>
