<?xml version="1.0" encoding="UTF-8" standalone="no"?>
<!DOCTYPE svg PUBLIC "-//W3C//DTD SVG 1.1//EN"
 "http://www.w3.org/Graphics/SVG/1.1/DTD/svg11.dtd">
<!-- Generated by graphviz version 3.0.0 (20220226.1711)
 -->
<!-- Title: dependencies Pages: 1 -->
<svg width="1776pt" height="247pt"
 viewBox="0.00 0.00 1776.00 246.80" xmlns="http://www.w3.org/2000/svg" xmlns:xlink="http://www.w3.org/1999/xlink">
<g id="graph0" class="graph" transform="scale(1 1) rotate(0) translate(4 242.8)">
<title>dependencies</title>
<polygon fill="white" stroke="transparent" points="-4,4 -4,-242.8 1772,-242.8 1772,4 -4,4"/>
<text text-anchor="middle" x="884" y="-8.2" font-family="sans-serif" font-size="14.00">dependencies</text>
<g id="clust1" class="cluster">
<title>cluster_SafePipelineModule</title>
<polygon fill="none" stroke="black" stroke-dasharray="1,5" points="8,-32.8 8,-230.8 1760,-230.8 1760,-32.8 8,-32.8"/>
</g>
<g id="clust9" class="cluster">
<title>cluster_SafePipelineModule_imports</title>
<polygon fill="none" stroke="black" points="1174,-40.8 1174,-92.8 1752,-92.8 1752,-40.8 1174,-40.8"/>
</g>
<g id="clust10" class="cluster">
<title>cluster_SafePipelineModule_exports</title>
<polygon fill="none" stroke="black" points="393,-170.8 393,-222.8 1565,-222.8 1565,-170.8 393,-170.8"/>
</g>
<g id="clust2" class="cluster">
<title>cluster_SafePipelineModule_declarations</title>
<polygon fill="none" stroke="black" points="16,-40.8 16,-92.8 1166,-92.8 1166,-40.8 16,-40.8"/>
</g>
<!-- SafeAddFieldStageComponent -->
<g id="node1" class="node">
<title>SafeAddFieldStageComponent</title>
<polygon fill="#ffffb3" stroke="black" points="1158.2,-84.8 967.8,-84.8 967.8,-48.8 1158.2,-48.8 1158.2,-84.8"/>
<text text-anchor="middle" x="1063" y="-62.6" font-family="Times,serif" font-size="14.00">SafeAddFieldStageComponent</text>
</g>
<!-- SafePipelineModule -->
<g id="node7" class="node">
<title>SafePipelineModule</title>
<polygon fill="#8dd3c7" stroke="black" points="1012.31,-149.8 1009.31,-153.8 988.31,-153.8 985.31,-149.8 881.69,-149.8 881.69,-113.8 1012.31,-113.8 1012.31,-149.8"/>
<text text-anchor="middle" x="947" y="-127.6" font-family="Times,serif" font-size="14.00">SafePipelineModule</text>
</g>
<!-- SafeAddFieldStageComponent&#45;&gt;SafePipelineModule -->
<g id="edge1" class="edge">
<title>SafeAddFieldStageComponent&#45;&gt;SafePipelineModule</title>
<path fill="none" stroke="black" d="M990.03,-84.91C990.03,-84.91 990.03,-103.79 990.03,-103.79"/>
<polygon fill="black" stroke="black" points="986.53,-103.79 990.03,-113.79 993.53,-103.79 986.53,-103.79"/>
</g>
<!-- SafeExpressionsComponent -->
<g id="node2" class="node">
<title>SafeExpressionsComponent</title>
<polygon fill="#ffffb3" stroke="black" points="949.87,-84.8 776.13,-84.8 776.13,-48.8 949.87,-48.8 949.87,-84.8"/>
<text text-anchor="middle" x="863" y="-62.6" font-family="Times,serif" font-size="14.00">SafeExpressionsComponent</text>
</g>
<!-- SafeExpressionsComponent&#45;&gt;SafePipelineModule -->
<g id="edge2" class="edge">
<title>SafeExpressionsComponent&#45;&gt;SafePipelineModule</title>
<path fill="none" stroke="black" d="M915.89,-84.91C915.89,-84.91 915.89,-103.79 915.89,-103.79"/>
<polygon fill="black" stroke="black" points="912.39,-103.79 915.89,-113.79 919.39,-103.79 912.39,-103.79"/>
</g>
<!-- SafeFieldDropdownComponent -->
<g id="node3" class="node">
<title>SafeFieldDropdownComponent</title>
<polygon fill="#ffffb3" stroke="black" points="758.37,-84.8 563.63,-84.8 563.63,-48.8 758.37,-48.8 758.37,-84.8"/>
<text text-anchor="middle" x="661" y="-62.6" font-family="Times,serif" font-size="14.00">SafeFieldDropdownComponent</text>
</g>
<!-- SafeFieldDropdownComponent&#45;&gt;SafePipelineModule -->
<g id="edge3" class="edge">
<title>SafeFieldDropdownComponent&#45;&gt;SafePipelineModule</title>
<path fill="none" stroke="black" d="M747.75,-85.04C747.75,-100.37 747.75,-119.8 747.75,-119.8 747.75,-119.8 871.76,-119.8 871.76,-119.8"/>
<polygon fill="black" stroke="black" points="871.76,-123.3 881.76,-119.8 871.76,-116.3 871.76,-123.3"/>
</g>
<!-- SafeGroupStageComponent -->
<g id="node4" class="node">
<title>SafeGroupStageComponent</title>
<polygon fill="#ffffb3" stroke="black" points="545.58,-84.8 372.42,-84.8 372.42,-48.8 545.58,-48.8 545.58,-84.8"/>
<text text-anchor="middle" x="459" y="-62.6" font-family="Times,serif" font-size="14.00">SafeGroupStageComponent</text>
</g>
<!-- SafeGroupStageComponent&#45;&gt;SafePipelineModule -->
<g id="edge4" class="edge">
<title>SafeGroupStageComponent&#45;&gt;SafePipelineModule</title>
<path fill="none" stroke="black" d="M473.23,-84.83C473.23,-101.86 473.23,-124.8 473.23,-124.8 473.23,-124.8 871.62,-124.8 871.62,-124.8"/>
<polygon fill="black" stroke="black" points="871.62,-128.3 881.62,-124.8 871.62,-121.3 871.62,-128.3"/>
</g>
<!-- SafePipelineComponent -->
<g id="node5" class="node">
<title>SafePipelineComponent</title>
<polygon fill="#ffffb3" stroke="black" points="354.09,-84.8 201.91,-84.8 201.91,-48.8 354.09,-48.8 354.09,-84.8"/>
<text text-anchor="middle" x="278" y="-62.6" font-family="Times,serif" font-size="14.00">SafePipelineComponent</text>
</g>
<!-- SafePipelineComponent&#45;&gt;SafePipelineModule -->
<g id="edge5" class="edge">
<title>SafePipelineComponent&#45;&gt;SafePipelineModule</title>
<path fill="none" stroke="black" d="M278,-85.02C278,-103.63 278,-129.8 278,-129.8 278,-129.8 871.64,-129.8 871.64,-129.8"/>
<polygon fill="black" stroke="black" points="871.64,-133.3 881.64,-129.8 871.64,-126.3 871.64,-133.3"/>
</g>
<!-- SafeSortStageComponent -->
<g id="node6" class="node">
<title>SafeSortStageComponent</title>
<polygon fill="#ffffb3" stroke="black" points="184.15,-84.8 23.85,-84.8 23.85,-48.8 184.15,-48.8 184.15,-84.8"/>
<text text-anchor="middle" x="104" y="-62.6" font-family="Times,serif" font-size="14.00">SafeSortStageComponent</text>
</g>
<!-- SafeSortStageComponent&#45;&gt;SafePipelineModule -->
<g id="edge6" class="edge">
<title>SafeSortStageComponent&#45;&gt;SafePipelineModule</title>
<path fill="none" stroke="black" d="M104,-85.02C104,-105.17 104,-134.8 104,-134.8 104,-134.8 871.55,-134.8 871.55,-134.8"/>
<polygon fill="black" stroke="black" points="871.55,-138.3 881.55,-134.8 871.55,-131.3 871.55,-138.3"/>
</g>
<!-- SafeAddFieldStageComponent  -->
<g id="node12" class="node">
<title>SafeAddFieldStageComponent </title>
<polygon fill="#fb8072" stroke="black" points="1556.7,-214.8 1363.3,-214.8 1363.3,-178.8 1556.7,-178.8 1556.7,-214.8"/>
<text text-anchor="middle" x="1460" y="-192.6" font-family="Times,serif" font-size="14.00">SafeAddFieldStageComponent </text>
</g>
<!-- SafePipelineModule&#45;&gt;SafeAddFieldStageComponent  -->
<g id="edge11" class="edge">
<title>SafePipelineModule&#45;&gt;SafeAddFieldStageComponent </title>
<path fill="none" stroke="black" stroke-dasharray="5,2" d="M1012.24,-139.8C1137.41,-139.8 1398.98,-139.8 1398.98,-139.8 1398.98,-139.8 1398.98,-168.76 1398.98,-168.76"/>
<polygon fill="black" stroke="black" points="1395.48,-168.76 1398.98,-178.76 1402.48,-168.76 1395.48,-168.76"/>
</g>
<!-- SafeExpressionsComponent  -->
<g id="node13" class="node">
<title>SafeExpressionsComponent </title>
<polygon fill="#fb8072" stroke="black" points="1344.87,-214.8 1167.13,-214.8 1167.13,-178.8 1344.87,-178.8 1344.87,-214.8"/>
<text text-anchor="middle" x="1256" y="-192.6" font-family="Times,serif" font-size="14.00">SafeExpressionsComponent </text>
</g>
<!-- SafePipelineModule&#45;&gt;SafeExpressionsComponent  -->
<g id="edge12" class="edge">
<title>SafePipelineModule&#45;&gt;SafeExpressionsComponent </title>
<path fill="none" stroke="black" stroke-dasharray="5,2" d="M1012.28,-144.8C1079.6,-144.8 1174.81,-144.8 1174.81,-144.8 1174.81,-144.8 1174.81,-168.61 1174.81,-168.61"/>
<polygon fill="black" stroke="black" points="1171.31,-168.61 1174.81,-178.61 1178.31,-168.61 1171.31,-168.61"/>
</g>
<!-- SafeFieldDropdownComponent  -->
<g id="node14" class="node">
<title>SafeFieldDropdownComponent </title>
<polygon fill="#fb8072" stroke="black" points="1149.37,-214.8 950.63,-214.8 950.63,-178.8 1149.37,-178.8 1149.37,-214.8"/>
<text text-anchor="middle" x="1050" y="-192.6" font-family="Times,serif" font-size="14.00">SafeFieldDropdownComponent </text>
</g>
<!-- SafePipelineModule&#45;&gt;SafeFieldDropdownComponent  -->
<g id="edge13" class="edge">
<title>SafePipelineModule&#45;&gt;SafeFieldDropdownComponent </title>
<path fill="none" stroke="black" stroke-dasharray="5,2" d="M981.49,-149.91C981.49,-149.91 981.49,-168.79 981.49,-168.79"/>
<polygon fill="black" stroke="black" points="977.99,-168.79 981.49,-178.79 984.99,-168.79 977.99,-168.79"/>
</g>
<!-- SafeGroupStageComponent  -->
<g id="node15" class="node">
<title>SafeGroupStageComponent </title>
<polygon fill="#fb8072" stroke="black" points="933.08,-214.8 756.92,-214.8 756.92,-178.8 933.08,-178.8 933.08,-214.8"/>
<text text-anchor="middle" x="845" y="-192.6" font-family="Times,serif" font-size="14.00">SafeGroupStageComponent </text>
</g>
<!-- SafePipelineModule&#45;&gt;SafeGroupStageComponent  -->
<g id="edge14" class="edge">
<title>SafePipelineModule&#45;&gt;SafeGroupStageComponent </title>
<path fill="none" stroke="black" stroke-dasharray="5,2" d="M907.57,-149.91C907.57,-149.91 907.57,-168.79 907.57,-168.79"/>
<polygon fill="black" stroke="black" points="904.07,-168.79 907.57,-178.79 911.07,-168.79 904.07,-168.79"/>
</g>
<!-- SafePipelineComponent  -->
<g id="node16" class="node">
<title>SafePipelineComponent </title>
<polygon fill="#fb8072" stroke="black" points="738.59,-214.8 583.41,-214.8 583.41,-178.8 738.59,-178.8 738.59,-214.8"/>
<text text-anchor="middle" x="661" y="-192.6" font-family="Times,serif" font-size="14.00">SafePipelineComponent </text>
</g>
<!-- SafePipelineModule&#45;&gt;SafePipelineComponent  -->
<g id="edge15" class="edge">
<title>SafePipelineModule&#45;&gt;SafePipelineComponent </title>
<path fill="none" stroke="black" stroke-dasharray="5,2" d="M881.74,-144.8C797.33,-144.8 661,-144.8 661,-144.8 661,-144.8 661,-168.61 661,-168.61"/>
<polygon fill="black" stroke="black" points="657.5,-168.61 661,-178.61 664.5,-168.61 657.5,-168.61"/>
</g>
<!-- SafeSortStageComponent  -->
<g id="node17" class="node">
<title>SafeSortStageComponent </title>
<polygon fill="#fb8072" stroke="black" points="565.15,-214.8 400.85,-214.8 400.85,-178.8 565.15,-178.8 565.15,-214.8"/>
<text text-anchor="middle" x="483" y="-192.6" font-family="Times,serif" font-size="14.00">SafeSortStageComponent </text>
</g>
<!-- SafePipelineModule&#45;&gt;SafeSortStageComponent  -->
<g id="edge16" class="edge">
<title>SafePipelineModule&#45;&gt;SafeSortStageComponent </title>
<path fill="none" stroke="black" stroke-dasharray="5,2" d="M881.75,-139.8C770.16,-139.8 554.55,-139.8 554.55,-139.8 554.55,-139.8 554.55,-168.76 554.55,-168.76"/>
<polygon fill="black" stroke="black" points="551.05,-168.76 554.55,-178.76 558.05,-168.76 551.05,-168.76"/>
</g>
<!-- SafeButtonModule -->
<g id="node8" class="node">
<title>SafeButtonModule</title>
<polygon fill="#8dd3c7" stroke="black" points="1744.05,-84.8 1741.05,-88.8 1720.05,-88.8 1717.05,-84.8 1621.95,-84.8 1621.95,-48.8 1744.05,-48.8 1744.05,-84.8"/>
<text text-anchor="middle" x="1683" y="-62.6" font-family="Times,serif" font-size="14.00">SafeButtonModule</text>
</g>
<!-- SafeButtonModule&#45;&gt;SafePipelineModule -->
<g id="edge7" class="edge">
<title>SafeButtonModule&#45;&gt;SafePipelineModule</title>
<path fill="none" stroke="black" d="M1683,-85.02C1683,-105.17 1683,-134.8 1683,-134.8 1683,-134.8 1022.32,-134.8 1022.32,-134.8"/>
<polygon fill="black" stroke="black" points="1022.32,-131.3 1012.32,-134.8 1022.32,-138.3 1022.32,-131.3"/>
</g>
<!-- SafeFilterModule -->
<g id="node9" class="node">
<title>SafeFilterModule</title>
<polygon fill="#8dd3c7" stroke="black" points="1603.26,-84.8 1600.26,-88.8 1579.26,-88.8 1576.26,-84.8 1488.74,-84.8 1488.74,-48.8 1603.26,-48.8 1603.26,-84.8"/>
<text text-anchor="middle" x="1546" y="-62.6" font-family="Times,serif" font-size="14.00">SafeFilterModule</text>
</g>
<!-- SafeFilterModule&#45;&gt;SafePipelineModule -->
<g id="edge8" class="edge">
<title>SafeFilterModule&#45;&gt;SafePipelineModule</title>
<path fill="none" stroke="black" d="M1522.74,-85.02C1522.74,-103.63 1522.74,-129.8 1522.74,-129.8 1522.74,-129.8 1022.2,-129.8 1022.2,-129.8"/>
<polygon fill="black" stroke="black" points="1022.2,-126.3 1012.2,-129.8 1022.2,-133.3 1022.2,-126.3"/>
</g>
<!-- SafeIconModule -->
<g id="node10" class="node">
<title>SafeIconModule</title>
<polygon fill="#8dd3c7" stroke="black" points="1470.8,-84.8 1467.8,-88.8 1446.8,-88.8 1443.8,-84.8 1361.2,-84.8 1361.2,-48.8 1470.8,-48.8 1470.8,-84.8"/>
<text text-anchor="middle" x="1416" y="-62.6" font-family="Times,serif" font-size="14.00">SafeIconModule</text>
</g>
<!-- SafeIconModule&#45;&gt;SafePipelineModule -->
<g id="edge9" class="edge">
<title>SafeIconModule&#45;&gt;SafePipelineModule</title>
<path fill="none" stroke="black" d="M1434.82,-84.83C1434.82,-101.86 1434.82,-124.8 1434.82,-124.8 1434.82,-124.8 1022.28,-124.8 1022.28,-124.8"/>
<polygon fill="black" stroke="black" points="1022.28,-121.3 1012.28,-124.8 1022.28,-128.3 1022.28,-121.3"/>
</g>
<!-- SafeQueryBuilderModule -->
<g id="node11" class="node">
<title>SafeQueryBuilderModule</title>
<polygon fill="#8dd3c7" stroke="black" points="1343.91,-84.8 1340.91,-88.8 1319.91,-88.8 1316.91,-84.8 1182.09,-84.8 1182.09,-48.8 1343.91,-48.8 1343.91,-84.8"/>
<text text-anchor="middle" x="1263" y="-62.6" font-family="Times,serif" font-size="14.00">SafeQueryBuilderModule</text>
</g>
<!-- SafeQueryBuilderModule&#45;&gt;SafePipelineModule -->
<g id="edge10" class="edge">
<title>SafeQueryBuilderModule&#45;&gt;SafePipelineModule</title>
<path fill="none" stroke="black" d="M1263,-85.04C1263,-100.37 1263,-119.8 1263,-119.8 1263,-119.8 1022.48,-119.8 1022.48,-119.8"/>
<polygon fill="black" stroke="black" points="1022.48,-116.3 1012.48,-119.8 1022.48,-123.3 1022.48,-116.3"/>
</g>
</g>
</svg>
