<?xml version="1.0" encoding="UTF-8" standalone="no"?>
<!DOCTYPE svg PUBLIC "-//W3C//DTD SVG 1.1//EN"
 "http://www.w3.org/Graphics/SVG/1.1/DTD/svg11.dtd">
<!-- Generated by graphviz version 3.0.0 (20220226.1711)
 -->
<!-- Title: dependencies Pages: 1 -->
<svg width="356pt" height="247pt"
 viewBox="0.00 0.00 356.00 246.80" xmlns="http://www.w3.org/2000/svg" xmlns:xlink="http://www.w3.org/1999/xlink">
<g id="graph0" class="graph" transform="scale(1 1) rotate(0) translate(4 242.8)">
<title>dependencies</title>
<polygon fill="white" stroke="transparent" points="-4,4 -4,-242.8 352,-242.8 352,4 -4,4"/>
<text text-anchor="middle" x="174" y="-8.2" font-family="sans-serif" font-size="14.00">dependencies</text>
<g id="clust1" class="cluster">
<title>cluster_SafeAddUserModule</title>
<polygon fill="none" stroke="black" stroke-dasharray="1,5" points="8,-32.8 8,-230.8 340,-230.8 340,-32.8 8,-32.8"/>
</g>
<g id="clust4" class="cluster">
<title>cluster_SafeAddUserModule_imports</title>
<polygon fill="none" stroke="black" points="196,-40.8 196,-92.8 332,-92.8 332,-40.8 196,-40.8"/>
</g>
<g id="clust2" class="cluster">
<title>cluster_SafeAddUserModule_declarations</title>
<polygon fill="none" stroke="black" points="16,-40.8 16,-92.8 188,-92.8 188,-40.8 16,-40.8"/>
</g>
<g id="clust5" class="cluster">
<title>cluster_SafeAddUserModule_exports</title>
<polygon fill="none" stroke="black" points="86,-170.8 86,-222.8 262,-222.8 262,-170.8 86,-170.8"/>
</g>
<!-- SafeAddUserComponent -->
<g id="node1" class="node">
<title>SafeAddUserComponent</title>
<polygon fill="#ffffb3" stroke="black" points="180.25,-84.8 23.75,-84.8 23.75,-48.8 180.25,-48.8 180.25,-84.8"/>
<text text-anchor="middle" x="102" y="-62.6" font-family="Times,serif" font-size="14.00">SafeAddUserComponent</text>
</g>
<!-- SafeAddUserModule -->
<g id="node2" class="node">
<title>SafeAddUserModule</title>
<polygon fill="#8dd3c7" stroke="black" points="241.47,-149.8 238.47,-153.8 217.47,-153.8 214.47,-149.8 106.53,-149.8 106.53,-113.8 241.47,-113.8 241.47,-149.8"/>
<text text-anchor="middle" x="174" y="-127.6" font-family="Times,serif" font-size="14.00">SafeAddUserModule</text>
</g>
<!-- SafeAddUserComponent&#45;&gt;SafeAddUserModule -->
<g id="edge1" class="edge">
<title>SafeAddUserComponent&#45;&gt;SafeAddUserModule</title>
<path fill="none" stroke="black" d="M143.44,-84.91C143.44,-84.91 143.44,-103.79 143.44,-103.79"/>
<polygon fill="black" stroke="black" points="139.94,-103.79 143.44,-113.79 146.94,-103.79 139.94,-103.79"/>
</g>
<!-- SafeAddUserComponent  -->
<g id="node4" class="node">
<title>SafeAddUserComponent </title>
<polygon fill="#fb8072" stroke="black" points="254.25,-214.8 93.75,-214.8 93.75,-178.8 254.25,-178.8 254.25,-214.8"/>
<text text-anchor="middle" x="174" y="-192.6" font-family="Times,serif" font-size="14.00">SafeAddUserComponent </text>
</g>
<!-- SafeAddUserModule&#45;&gt;SafeAddUserComponent  -->
<g id="edge3" class="edge">
<title>SafeAddUserModule&#45;&gt;SafeAddUserComponent </title>
<path fill="none" stroke="black" stroke-dasharray="5,2" d="M174,-149.91C174,-149.91 174,-168.79 174,-168.79"/>
<polygon fill="black" stroke="black" points="170.5,-168.79 174,-178.79 177.5,-168.79 170.5,-168.79"/>
</g>
<!-- SafeModalModule -->
<g id="node3" class="node">
<title>SafeModalModule</title>
<polygon fill="#8dd3c7" stroke="black" points="324.48,-84.8 321.48,-88.8 300.48,-88.8 297.48,-84.8 203.52,-84.8 203.52,-48.8 324.48,-48.8 324.48,-84.8"/>
<text text-anchor="middle" x="264" y="-62.6" font-family="Times,serif" font-size="14.00">SafeModalModule</text>
</g>
<!-- SafeModalModule&#45;&gt;SafeAddUserModule -->
<g id="edge2" class="edge">
<title>SafeModalModule&#45;&gt;SafeAddUserModule</title>
<path fill="none" stroke="black" d="M222.5,-84.91C222.5,-84.91 222.5,-103.79 222.5,-103.79"/>
<polygon fill="black" stroke="black" points="219,-103.79 222.5,-113.79 226,-103.79 219,-103.79"/>
</g>
</g>
</svg>
