<?xml version="1.0" encoding="UTF-8" standalone="no"?>
<!DOCTYPE svg PUBLIC "-//W3C//DTD SVG 1.1//EN"
 "http://www.w3.org/Graphics/SVG/1.1/DTD/svg11.dtd">
<!-- Generated by graphviz version 3.0.0 (20220226.1711)
 -->
<!-- Title: dependencies Pages: 1 -->
<svg width="675pt" height="247pt"
 viewBox="0.00 0.00 675.00 246.80" xmlns="http://www.w3.org/2000/svg" xmlns:xlink="http://www.w3.org/1999/xlink">
<g id="graph0" class="graph" transform="scale(1 1) rotate(0) translate(4 242.8)">
<title>dependencies</title>
<polygon fill="white" stroke="transparent" points="-4,4 -4,-242.8 671,-242.8 671,4 -4,4"/>
<text text-anchor="middle" x="333.5" y="-8.2" font-family="sans-serif" font-size="14.00">dependencies</text>
<g id="clust1" class="cluster">
<title>cluster_SafeAccessModule</title>
<polygon fill="none" stroke="black" stroke-dasharray="1,5" points="8,-32.8 8,-230.8 659,-230.8 659,-32.8 8,-32.8"/>
</g>
<g id="clust6" class="cluster">
<title>cluster_SafeAccessModule_exports</title>
<polygon fill="none" stroke="black" points="280,-170.8 280,-222.8 446,-222.8 446,-170.8 280,-170.8"/>
</g>
<g id="clust5" class="cluster">
<title>cluster_SafeAccessModule_imports</title>
<polygon fill="none" stroke="black" points="374,-40.8 374,-92.8 651,-92.8 651,-40.8 374,-40.8"/>
</g>
<g id="clust2" class="cluster">
<title>cluster_SafeAccessModule_declarations</title>
<polygon fill="none" stroke="black" points="16,-40.8 16,-92.8 366,-92.8 366,-40.8 16,-40.8"/>
</g>
<!-- SafeAccessComponent -->
<g id="node1" class="node">
<title>SafeAccessComponent</title>
<polygon fill="#ffffb3" stroke="black" points="357.86,-84.8 212.14,-84.8 212.14,-48.8 357.86,-48.8 357.86,-84.8"/>
<text text-anchor="middle" x="285" y="-62.6" font-family="Times,serif" font-size="14.00">SafeAccessComponent</text>
</g>
<!-- SafeAccessModule -->
<g id="node3" class="node">
<title>SafeAccessModule</title>
<polygon fill="#8dd3c7" stroke="black" points="425.08,-149.8 422.08,-153.8 401.08,-153.8 398.08,-149.8 300.92,-149.8 300.92,-113.8 425.08,-113.8 425.08,-149.8"/>
<text text-anchor="middle" x="363" y="-127.6" font-family="Times,serif" font-size="14.00">SafeAccessModule</text>
</g>
<!-- SafeAccessComponent&#45;&gt;SafeAccessModule -->
<g id="edge1" class="edge">
<title>SafeAccessComponent&#45;&gt;SafeAccessModule</title>
<path fill="none" stroke="black" d="M329.44,-84.91C329.44,-84.91 329.44,-103.79 329.44,-103.79"/>
<polygon fill="black" stroke="black" points="325.94,-103.79 329.44,-113.79 332.94,-103.79 325.94,-103.79"/>
</g>
<!-- SafeEditAccessComponent -->
<g id="node2" class="node">
<title>SafeEditAccessComponent</title>
<polygon fill="#ffffb3" stroke="black" points="193.69,-84.8 24.31,-84.8 24.31,-48.8 193.69,-48.8 193.69,-84.8"/>
<text text-anchor="middle" x="109" y="-62.6" font-family="Times,serif" font-size="14.00">SafeEditAccessComponent</text>
</g>
<!-- SafeEditAccessComponent&#45;&gt;SafeAccessModule -->
<g id="edge2" class="edge">
<title>SafeEditAccessComponent&#45;&gt;SafeAccessModule</title>
<path fill="none" stroke="black" d="M109,-84.91C109,-104.14 109,-131.8 109,-131.8 109,-131.8 290.86,-131.8 290.86,-131.8"/>
<polygon fill="black" stroke="black" points="290.86,-135.3 300.86,-131.8 290.86,-128.3 290.86,-135.3"/>
</g>
<!-- SafeAccessComponent  -->
<g id="node6" class="node">
<title>SafeAccessComponent </title>
<polygon fill="#fb8072" stroke="black" points="437.86,-214.8 288.14,-214.8 288.14,-178.8 437.86,-178.8 437.86,-214.8"/>
<text text-anchor="middle" x="363" y="-192.6" font-family="Times,serif" font-size="14.00">SafeAccessComponent </text>
</g>
<!-- SafeAccessModule&#45;&gt;SafeAccessComponent  -->
<g id="edge5" class="edge">
<title>SafeAccessModule&#45;&gt;SafeAccessComponent </title>
<path fill="none" stroke="black" stroke-dasharray="5,2" d="M363,-149.91C363,-149.91 363,-168.79 363,-168.79"/>
<polygon fill="black" stroke="black" points="359.5,-168.79 363,-178.79 366.5,-168.79 359.5,-168.79"/>
</g>
<!-- SafeButtonModule -->
<g id="node4" class="node">
<title>SafeButtonModule</title>
<polygon fill="#8dd3c7" stroke="black" points="643.05,-84.8 640.05,-88.8 619.05,-88.8 616.05,-84.8 520.95,-84.8 520.95,-48.8 643.05,-48.8 643.05,-84.8"/>
<text text-anchor="middle" x="582" y="-62.6" font-family="Times,serif" font-size="14.00">SafeButtonModule</text>
</g>
<!-- SafeButtonModule&#45;&gt;SafeAccessModule -->
<g id="edge3" class="edge">
<title>SafeButtonModule&#45;&gt;SafeAccessModule</title>
<path fill="none" stroke="black" d="M582,-84.91C582,-104.14 582,-131.8 582,-131.8 582,-131.8 435.17,-131.8 435.17,-131.8"/>
<polygon fill="black" stroke="black" points="435.17,-128.3 425.17,-131.8 435.17,-135.3 435.17,-128.3"/>
</g>
<!-- SafeModalModule -->
<g id="node5" class="node">
<title>SafeModalModule</title>
<polygon fill="#8dd3c7" stroke="black" points="502.48,-84.8 499.48,-88.8 478.48,-88.8 475.48,-84.8 381.52,-84.8 381.52,-48.8 502.48,-48.8 502.48,-84.8"/>
<text text-anchor="middle" x="442" y="-62.6" font-family="Times,serif" font-size="14.00">SafeModalModule</text>
</g>
<!-- SafeModalModule&#45;&gt;SafeAccessModule -->
<g id="edge4" class="edge">
<title>SafeModalModule&#45;&gt;SafeAccessModule</title>
<path fill="none" stroke="black" d="M403.27,-84.91C403.27,-84.91 403.27,-103.79 403.27,-103.79"/>
<polygon fill="black" stroke="black" points="399.77,-103.79 403.27,-113.79 406.77,-103.79 399.77,-103.79"/>
</g>
</g>
</svg>
