<?xml version="1.0" encoding="UTF-8" standalone="no"?>
<!DOCTYPE svg PUBLIC "-//W3C//DTD SVG 1.1//EN"
 "http://www.w3.org/Graphics/SVG/1.1/DTD/svg11.dtd">
<!-- Generated by graphviz version 2.47.0 (20210316.0004)
 -->
<!-- Title: dependencies Pages: 1 -->
<svg width="504pt" height="284pt"
 viewBox="0.00 0.00 504.00 284.00" xmlns="http://www.w3.org/2000/svg" xmlns:xlink="http://www.w3.org/1999/xlink">
<g id="graph0" class="graph" transform="scale(1 1) rotate(0) translate(4 280)">
<title>dependencies</title>
<polygon fill="white" stroke="transparent" points="-4,4 -4,-280 500,-280 500,4 -4,4"/>
<text text-anchor="start" x="227.01" y="-42.4" font-family="sans-serif" font-weight="bold" font-size="14.00">Legend</text>
<polygon fill="#ffffb3" stroke="transparent" points="14,-10 14,-30 34,-30 34,-10 14,-10"/>
<text text-anchor="start" x="37.63" y="-15.4" font-family="sans-serif" font-size="14.00"> &#160;Declarations</text>
<polygon fill="#8dd3c7" stroke="transparent" points="127,-10 127,-30 147,-30 147,-10 127,-10"/>
<text text-anchor="start" x="150.73" y="-15.4" font-family="sans-serif" font-size="14.00"> &#160;Module</text>
<polygon fill="#80b1d3" stroke="transparent" points="213,-10 213,-30 233,-30 233,-10 213,-10"/>
<text text-anchor="start" x="236.78" y="-15.4" font-family="sans-serif" font-size="14.00"> &#160;Bootstrap</text>
<polygon fill="#fdb462" stroke="transparent" points="310,-10 310,-30 330,-30 330,-10 310,-10"/>
<text text-anchor="start" x="333.67" y="-15.4" font-family="sans-serif" font-size="14.00"> &#160;Providers</text>
<polygon fill="#fb8072" stroke="transparent" points="406,-10 406,-30 426,-30 426,-10 406,-10"/>
<text text-anchor="start" x="429.73" y="-15.4" font-family="sans-serif" font-size="14.00"> &#160;Exports</text>
<g id="clust1" class="cluster">
<title>cluster_SafeRecordHistoryModalModule</title>
<polygon fill="none" stroke="black" stroke-dasharray="1,5" points="37,-70 37,-268 459,-268 459,-70 37,-70"/>
</g>
<g id="clust5" class="cluster">
<title>cluster_SafeRecordHistoryModalModule_exports</title>
<polygon fill="none" stroke="black" points="138,-208 138,-260 358,-260 358,-208 138,-208"/>
</g>
<g id="clust2" class="cluster">
<title>cluster_SafeRecordHistoryModalModule_declarations</title>
<polygon fill="none" stroke="black" points="235,-78 235,-130 451,-130 451,-78 235,-78"/>
</g>
<g id="clust4" class="cluster">
<title>cluster_SafeRecordHistoryModalModule_imports</title>
<polygon fill="none" stroke="black" points="45,-78 45,-130 227,-130 227,-78 45,-78"/>
</g>
<!-- RecordHistoryModalComponent -->
<g id="node1" class="node">
<title>RecordHistoryModalComponent</title>
<polygon fill="#ffffb3" stroke="black" points="443.3,-122 242.7,-122 242.7,-86 443.3,-86 443.3,-122"/>
<text text-anchor="middle" x="343" y="-99.8" font-family="Times,serif" font-size="14.00">RecordHistoryModalComponent</text>
</g>
<!-- SafeRecordHistoryModalModule -->
<g id="node2" class="node">
<title>SafeRecordHistoryModalModule</title>
<polygon fill="#8dd3c7" stroke="black" points="349.89,-187 346.89,-191 325.89,-191 322.89,-187 146.11,-187 146.11,-151 349.89,-151 349.89,-187"/>
<text text-anchor="middle" x="248" y="-164.8" font-family="Times,serif" font-size="14.00">SafeRecordHistoryModalModule</text>
</g>
<!-- RecordHistoryModalComponent&#45;&gt;SafeRecordHistoryModalModule -->
<g id="edge1" class="edge">
<title>RecordHistoryModalComponent&#45;&gt;SafeRecordHistoryModalModule</title>
<path fill="none" stroke="black" d="M296.27,-122.11C296.27,-122.11 296.27,-140.99 296.27,-140.99"/>
<polygon fill="black" stroke="black" points="292.77,-140.99 296.27,-150.99 299.77,-140.99 292.77,-140.99"/>
</g>
<!-- RecordHistoryModalComponent  -->
<g id="node4" class="node">
<title>RecordHistoryModalComponent </title>
<polygon fill="#fb8072" stroke="black" points="349.8,-252 146.2,-252 146.2,-216 349.8,-216 349.8,-252"/>
<text text-anchor="middle" x="248" y="-229.8" font-family="Times,serif" font-size="14.00">RecordHistoryModalComponent </text>
</g>
<!-- SafeRecordHistoryModalModule&#45;&gt;RecordHistoryModalComponent  -->
<g id="edge3" class="edge">
<title>SafeRecordHistoryModalModule&#45;&gt;RecordHistoryModalComponent </title>
<path fill="none" stroke="black" stroke-dasharray="5,2" d="M248,-187.11C248,-187.11 248,-205.99 248,-205.99"/>
<polygon fill="black" stroke="black" points="244.5,-205.99 248,-215.99 251.5,-205.99 244.5,-205.99"/>
</g>
<!-- SafeRecordHistoryModule -->
<g id="node3" class="node">
<title>SafeRecordHistoryModule</title>
<polygon fill="#8dd3c7" stroke="black" points="219.34,-122 216.34,-126 195.34,-126 192.34,-122 52.66,-122 52.66,-86 219.34,-86 219.34,-122"/>
<text text-anchor="middle" x="136" y="-99.8" font-family="Times,serif" font-size="14.00">SafeRecordHistoryModule</text>
</g>
<!-- SafeRecordHistoryModule&#45;&gt;SafeRecordHistoryModalModule -->
<g id="edge2" class="edge">
<title>SafeRecordHistoryModule&#45;&gt;SafeRecordHistoryModalModule</title>
<path fill="none" stroke="black" d="M182.86,-122.11C182.86,-122.11 182.86,-140.99 182.86,-140.99"/>
<polygon fill="black" stroke="black" points="179.36,-140.99 182.86,-150.99 186.36,-140.99 179.36,-140.99"/>
</g>
</g>
</svg>
