<?xml version="1.0" encoding="UTF-8" standalone="no"?>
<!DOCTYPE svg PUBLIC "-//W3C//DTD SVG 1.1//EN"
 "http://www.w3.org/Graphics/SVG/1.1/DTD/svg11.dtd">
<!-- Generated by graphviz version 3.0.0 (20220226.1711)
 -->
<!-- Title: dependencies Pages: 1 -->
<svg width="522pt" height="247pt"
 viewBox="0.00 0.00 522.00 246.80" xmlns="http://www.w3.org/2000/svg" xmlns:xlink="http://www.w3.org/1999/xlink">
<g id="graph0" class="graph" transform="scale(1 1) rotate(0) translate(4 242.8)">
<title>dependencies</title>
<polygon fill="white" stroke="transparent" points="-4,4 -4,-242.8 518,-242.8 518,4 -4,4"/>
<text text-anchor="middle" x="257" y="-8.2" font-family="sans-serif" font-size="14.00">dependencies</text>
<g id="clust1" class="cluster">
<title>cluster_ResourceModule</title>
<polygon fill="none" stroke="black" stroke-dasharray="1,5" points="8,-32.8 8,-230.8 506,-230.8 506,-32.8 8,-32.8"/>
</g>
<g id="clust2" class="cluster">
<title>cluster_ResourceModule_declarations</title>
<polygon fill="none" stroke="black" points="348,-40.8 348,-92.8 498,-92.8 498,-40.8 348,-40.8"/>
</g>
<g id="clust4" class="cluster">
<title>cluster_ResourceModule_imports</title>
<polygon fill="none" stroke="black" points="16,-40.8 16,-92.8 340,-92.8 340,-40.8 16,-40.8"/>
</g>
<g id="clust5" class="cluster">
<title>cluster_ResourceModule_exports</title>
<polygon fill="none" stroke="black" points="178,-170.8 178,-222.8 330,-222.8 330,-170.8 178,-170.8"/>
</g>
<!-- ResourceComponent -->
<g id="node1" class="node">
<title>ResourceComponent</title>
<polygon fill="#ffffb3" stroke="black" points="489.92,-84.8 356.08,-84.8 356.08,-48.8 489.92,-48.8 489.92,-84.8"/>
<text text-anchor="middle" x="423" y="-62.6" font-family="Times,serif" font-size="14.00">ResourceComponent</text>
</g>
<!-- ResourceModule -->
<g id="node2" class="node">
<title>ResourceModule</title>
<polygon fill="#8dd3c7" stroke="black" points="309.64,-149.8 306.64,-153.8 285.64,-153.8 282.64,-149.8 198.36,-149.8 198.36,-113.8 309.64,-113.8 309.64,-149.8"/>
<text text-anchor="middle" x="254" y="-127.6" font-family="Times,serif" font-size="14.00">ResourceModule</text>
</g>
<!-- ResourceComponent&#45;&gt;ResourceModule -->
<g id="edge1" class="edge">
<title>ResourceComponent&#45;&gt;ResourceModule</title>
<path fill="none" stroke="black" d="M423,-84.91C423,-104.14 423,-131.8 423,-131.8 423,-131.8 319.81,-131.8 319.81,-131.8"/>
<polygon fill="black" stroke="black" points="319.81,-128.3 309.81,-131.8 319.81,-135.3 319.81,-128.3"/>
</g>
<!-- ResourceComponent  -->
<g id="node5" class="node">
<title>ResourceComponent </title>
<polygon fill="#fb8072" stroke="black" points="322.42,-214.8 185.58,-214.8 185.58,-178.8 322.42,-178.8 322.42,-214.8"/>
<text text-anchor="middle" x="254" y="-192.6" font-family="Times,serif" font-size="14.00">ResourceComponent </text>
</g>
<!-- ResourceModule&#45;&gt;ResourceComponent  -->
<g id="edge4" class="edge">
<title>ResourceModule&#45;&gt;ResourceComponent </title>
<path fill="none" stroke="black" stroke-dasharray="5,2" d="M254,-149.91C254,-149.91 254,-168.79 254,-168.79"/>
<polygon fill="black" stroke="black" points="250.5,-168.79 254,-178.79 257.5,-168.79 250.5,-168.79"/>
</g>
<!-- ResourceRoutingModule -->
<g id="node3" class="node">
<title>ResourceRoutingModule</title>
<polygon fill="#8dd3c7" stroke="black" points="332.26,-84.8 329.26,-88.8 308.26,-88.8 305.26,-84.8 175.74,-84.8 175.74,-48.8 332.26,-48.8 332.26,-84.8"/>
<text text-anchor="middle" x="254" y="-62.6" font-family="Times,serif" font-size="14.00">ResourceRoutingModule</text>
</g>
<!-- ResourceRoutingModule&#45;&gt;ResourceModule -->
<g id="edge2" class="edge">
<title>ResourceRoutingModule&#45;&gt;ResourceModule</title>
<path fill="none" stroke="black" d="M254,-84.91C254,-84.91 254,-103.79 254,-103.79"/>
<polygon fill="black" stroke="black" points="250.5,-103.79 254,-113.79 257.5,-103.79 250.5,-103.79"/>
</g>
<!-- UploadMenuModule -->
<g id="node4" class="node">
<title>UploadMenuModule</title>
<polygon fill="#8dd3c7" stroke="black" points="157.93,-84.8 154.93,-88.8 133.93,-88.8 130.93,-84.8 24.07,-84.8 24.07,-48.8 157.93,-48.8 157.93,-84.8"/>
<text text-anchor="middle" x="91" y="-62.6" font-family="Times,serif" font-size="14.00">UploadMenuModule</text>
</g>
<!-- UploadMenuModule&#45;&gt;ResourceModule -->
<g id="edge3" class="edge">
<title>UploadMenuModule&#45;&gt;ResourceModule</title>
<path fill="none" stroke="black" d="M91,-84.91C91,-104.14 91,-131.8 91,-131.8 91,-131.8 187.9,-131.8 187.9,-131.8"/>
<polygon fill="black" stroke="black" points="187.9,-135.3 197.9,-131.8 187.9,-128.3 187.9,-135.3"/>
</g>
</g>
</svg>
