<?xml version="1.0" encoding="UTF-8" standalone="no"?>
<!DOCTYPE svg PUBLIC "-//W3C//DTD SVG 1.1//EN"
 "http://www.w3.org/Graphics/SVG/1.1/DTD/svg11.dtd">
<!-- Generated by graphviz version 3.0.0 (20220226.1711)
 -->
<!-- Title: dependencies Pages: 1 -->
<svg width="1083pt" height="247pt"
 viewBox="0.00 0.00 1083.00 246.80" xmlns="http://www.w3.org/2000/svg" xmlns:xlink="http://www.w3.org/1999/xlink">
<g id="graph0" class="graph" transform="scale(1 1) rotate(0) translate(4 242.8)">
<title>dependencies</title>
<polygon fill="white" stroke="transparent" points="-4,4 -4,-242.8 1079,-242.8 1079,4 -4,4"/>
<text text-anchor="middle" x="537.5" y="-8.2" font-family="sans-serif" font-size="14.00">dependencies</text>
<g id="clust1" class="cluster">
<title>cluster_SafeSearchResourceGridModalModule</title>
<polygon fill="none" stroke="black" stroke-dasharray="1,5" points="8,-32.8 8,-230.8 1067,-230.8 1067,-32.8 8,-32.8"/>
</g>
<g id="clust5" class="cluster">
<title>cluster_SafeSearchResourceGridModalModule_exports</title>
<polygon fill="none" stroke="black" points="390,-170.8 390,-222.8 630,-222.8 630,-170.8 390,-170.8"/>
</g>
<g id="clust2" class="cluster">
<title>cluster_SafeSearchResourceGridModalModule_declarations</title>
<polygon fill="none" stroke="black" points="823,-40.8 823,-92.8 1059,-92.8 1059,-40.8 823,-40.8"/>
</g>
<g id="clust4" class="cluster">
<title>cluster_SafeSearchResourceGridModalModule_imports</title>
<polygon fill="none" stroke="black" points="16,-40.8 16,-92.8 815,-92.8 815,-40.8 16,-40.8"/>
</g>
<!-- SafeResourceGridModalComponent -->
<g id="node1" class="node">
<title>SafeResourceGridModalComponent</title>
<polygon fill="#ffffb3" stroke="black" points="1051.01,-84.8 830.99,-84.8 830.99,-48.8 1051.01,-48.8 1051.01,-84.8"/>
<text text-anchor="middle" x="941" y="-62.6" font-family="Times,serif" font-size="14.00">SafeResourceGridModalComponent</text>
</g>
<!-- SafeSearchResourceGridModalModule -->
<g id="node2" class="node">
<title>SafeSearchResourceGridModalModule</title>
<polygon fill="#8dd3c7" stroke="black" points="628.32,-149.8 625.32,-153.8 604.32,-153.8 601.32,-149.8 391.68,-149.8 391.68,-113.8 628.32,-113.8 628.32,-149.8"/>
<text text-anchor="middle" x="510" y="-127.6" font-family="Times,serif" font-size="14.00">SafeSearchResourceGridModalModule</text>
</g>
<!-- SafeResourceGridModalComponent&#45;&gt;SafeSearchResourceGridModalModule -->
<g id="edge1" class="edge">
<title>SafeResourceGridModalComponent&#45;&gt;SafeSearchResourceGridModalModule</title>
<path fill="none" stroke="black" d="M941,-84.91C941,-104.14 941,-131.8 941,-131.8 941,-131.8 638.34,-131.8 638.34,-131.8"/>
<polygon fill="black" stroke="black" points="638.34,-128.3 628.34,-131.8 638.34,-135.3 638.34,-128.3"/>
</g>
<!-- SafeResourceGridModalComponent  -->
<g id="node7" class="node">
<title>SafeResourceGridModalComponent </title>
<polygon fill="#fb8072" stroke="black" points="622.01,-214.8 397.99,-214.8 397.99,-178.8 622.01,-178.8 622.01,-214.8"/>
<text text-anchor="middle" x="510" y="-192.6" font-family="Times,serif" font-size="14.00">SafeResourceGridModalComponent </text>
</g>
<!-- SafeSearchResourceGridModalModule&#45;&gt;SafeResourceGridModalComponent  -->
<g id="edge6" class="edge">
<title>SafeSearchResourceGridModalModule&#45;&gt;SafeResourceGridModalComponent </title>
<path fill="none" stroke="black" stroke-dasharray="5,2" d="M510,-149.91C510,-149.91 510,-168.79 510,-168.79"/>
<polygon fill="black" stroke="black" points="506.5,-168.79 510,-178.79 513.5,-168.79 506.5,-168.79"/>
</g>
<!-- SafeApplicationDropdownModule -->
<g id="node3" class="node">
<title>SafeApplicationDropdownModule</title>
<polygon fill="#8dd3c7" stroke="black" points="807.41,-84.8 804.41,-88.8 783.41,-88.8 780.41,-84.8 596.59,-84.8 596.59,-48.8 807.41,-48.8 807.41,-84.8"/>
<text text-anchor="middle" x="702" y="-62.6" font-family="Times,serif" font-size="14.00">SafeApplicationDropdownModule</text>
</g>
<!-- SafeApplicationDropdownModule&#45;&gt;SafeSearchResourceGridModalModule -->
<g id="edge2" class="edge">
<title>SafeApplicationDropdownModule&#45;&gt;SafeSearchResourceGridModalModule</title>
<path fill="none" stroke="black" d="M612.6,-84.91C612.6,-84.91 612.6,-103.79 612.6,-103.79"/>
<polygon fill="black" stroke="black" points="609.1,-103.79 612.6,-113.79 616.1,-103.79 609.1,-103.79"/>
</g>
<!-- SafeCoreGridModule -->
<g id="node4" class="node">
<title>SafeCoreGridModule</title>
<polygon fill="#8dd3c7" stroke="black" points="578.8,-84.8 575.8,-88.8 554.8,-88.8 551.8,-84.8 441.2,-84.8 441.2,-48.8 578.8,-48.8 578.8,-84.8"/>
<text text-anchor="middle" x="510" y="-62.6" font-family="Times,serif" font-size="14.00">SafeCoreGridModule</text>
</g>
<!-- SafeCoreGridModule&#45;&gt;SafeSearchResourceGridModalModule -->
<g id="edge3" class="edge">
<title>SafeCoreGridModule&#45;&gt;SafeSearchResourceGridModalModule</title>
<path fill="none" stroke="black" d="M510,-84.91C510,-84.91 510,-103.79 510,-103.79"/>
<polygon fill="black" stroke="black" points="506.5,-103.79 510,-113.79 513.5,-103.79 506.5,-103.79"/>
</g>
<!-- SafeRecordDropdownModule -->
<g id="node5" class="node">
<title>SafeRecordDropdownModule</title>
<polygon fill="#8dd3c7" stroke="black" points="423.24,-84.8 420.24,-88.8 399.24,-88.8 396.24,-84.8 238.76,-84.8 238.76,-48.8 423.24,-48.8 423.24,-84.8"/>
<text text-anchor="middle" x="331" y="-62.6" font-family="Times,serif" font-size="14.00">SafeRecordDropdownModule</text>
</g>
<!-- SafeRecordDropdownModule&#45;&gt;SafeSearchResourceGridModalModule -->
<g id="edge4" class="edge">
<title>SafeRecordDropdownModule&#45;&gt;SafeSearchResourceGridModalModule</title>
<path fill="none" stroke="black" d="M407.48,-84.91C407.48,-84.91 407.48,-103.79 407.48,-103.79"/>
<polygon fill="black" stroke="black" points="403.98,-103.79 407.48,-113.79 410.98,-103.79 403.98,-103.79"/>
</g>
<!-- SafeResourceDropdownModule -->
<g id="node6" class="node">
<title>SafeResourceDropdownModule</title>
<polygon fill="#8dd3c7" stroke="black" points="220.4,-84.8 217.4,-88.8 196.4,-88.8 193.4,-84.8 23.6,-84.8 23.6,-48.8 220.4,-48.8 220.4,-84.8"/>
<text text-anchor="middle" x="122" y="-62.6" font-family="Times,serif" font-size="14.00">SafeResourceDropdownModule</text>
</g>
<!-- SafeResourceDropdownModule&#45;&gt;SafeSearchResourceGridModalModule -->
<g id="edge5" class="edge">
<title>SafeResourceDropdownModule&#45;&gt;SafeSearchResourceGridModalModule</title>
<path fill="none" stroke="black" d="M122,-84.91C122,-104.14 122,-131.8 122,-131.8 122,-131.8 381.48,-131.8 381.48,-131.8"/>
<polygon fill="black" stroke="black" points="381.48,-135.3 391.48,-131.8 381.48,-128.3 381.48,-135.3"/>
</g>
</g>
</svg>
