<?xml version="1.0" encoding="UTF-8" standalone="no"?>
<!DOCTYPE svg PUBLIC "-//W3C//DTD SVG 1.1//EN"
 "http://www.w3.org/Graphics/SVG/1.1/DTD/svg11.dtd">
<!-- Generated by graphviz version 3.0.0 (20220226.1711)
 -->
<!-- Title: dependencies Pages: 1 -->
<svg width="2117pt" height="247pt"
 viewBox="0.00 0.00 2117.00 246.80" xmlns="http://www.w3.org/2000/svg" xmlns:xlink="http://www.w3.org/1999/xlink">
<g id="graph0" class="graph" transform="scale(1 1) rotate(0) translate(4 242.8)">
<title>dependencies</title>
<polygon fill="white" stroke="transparent" points="-4,4 -4,-242.8 2113,-242.8 2113,4 -4,4"/>
<text text-anchor="middle" x="1054.5" y="-8.2" font-family="sans-serif" font-size="14.00">dependencies</text>
<g id="clust1" class="cluster">
<title>cluster_TabMainModule</title>
<polygon fill="none" stroke="black" stroke-dasharray="1,5" points="8,-32.8 8,-230.8 2101,-230.8 2101,-32.8 8,-32.8"/>
</g>
<g id="clust4" class="cluster">
<title>cluster_TabMainModule_imports</title>
<polygon fill="none" stroke="black" points="172,-40.8 172,-92.8 2093,-92.8 2093,-40.8 172,-40.8"/>
</g>
<g id="clust2" class="cluster">
<title>cluster_TabMainModule_declarations</title>
<polygon fill="none" stroke="black" points="16,-40.8 16,-92.8 164,-92.8 164,-40.8 16,-40.8"/>
</g>
<g id="clust5" class="cluster">
<title>cluster_TabMainModule_exports</title>
<polygon fill="none" stroke="black" points="915,-170.8 915,-222.8 1067,-222.8 1067,-170.8 915,-170.8"/>
</g>
<!-- TabMainComponent -->
<g id="node1" class="node">
<title>TabMainComponent</title>
<polygon fill="#ffffb3" stroke="black" points="156.15,-84.8 23.85,-84.8 23.85,-48.8 156.15,-48.8 156.15,-84.8"/>
<text text-anchor="middle" x="90" y="-62.6" font-family="Times,serif" font-size="14.00">TabMainComponent</text>
</g>
<!-- TabMainModule -->
<g id="node2" class="node">
<title>TabMainModule</title>
<polygon fill="#8dd3c7" stroke="black" points="1046.37,-149.8 1043.37,-153.8 1022.37,-153.8 1019.37,-149.8 935.63,-149.8 935.63,-113.8 1046.37,-113.8 1046.37,-149.8"/>
<text text-anchor="middle" x="991" y="-127.6" font-family="Times,serif" font-size="14.00">TabMainModule</text>
</g>
<!-- TabMainComponent&#45;&gt;TabMainModule -->
<g id="edge1" class="edge">
<title>TabMainComponent&#45;&gt;TabMainModule</title>
<path fill="none" stroke="black" d="M90,-85.05C90,-107.82 90,-143.8 90,-143.8 90,-143.8 925.32,-143.8 925.32,-143.8"/>
<polygon fill="black" stroke="black" points="925.32,-147.3 935.32,-143.8 925.32,-140.3 925.32,-147.3"/>
</g>
<!-- TabMainComponent  -->
<g id="node14" class="node">
<title>TabMainComponent </title>
<polygon fill="#fb8072" stroke="black" points="1059.15,-214.8 922.85,-214.8 922.85,-178.8 1059.15,-178.8 1059.15,-214.8"/>
<text text-anchor="middle" x="991" y="-192.6" font-family="Times,serif" font-size="14.00">TabMainComponent </text>
</g>
<!-- TabMainModule&#45;&gt;TabMainComponent  -->
<g id="edge13" class="edge">
<title>TabMainModule&#45;&gt;TabMainComponent </title>
<path fill="none" stroke="black" stroke-dasharray="5,2" d="M991,-149.91C991,-149.91 991,-168.79 991,-168.79"/>
<polygon fill="black" stroke="black" points="987.5,-168.79 991,-178.79 994.5,-168.79 987.5,-168.79"/>
</g>
<!-- AddAggregationModalModule -->
<g id="node3" class="node">
<title>AddAggregationModalModule</title>
<polygon fill="#8dd3c7" stroke="black" points="2085.19,-84.8 2082.19,-88.8 2061.19,-88.8 2058.19,-84.8 1894.81,-84.8 1894.81,-48.8 2085.19,-48.8 2085.19,-84.8"/>
<text text-anchor="middle" x="1990" y="-62.6" font-family="Times,serif" font-size="14.00">AddAggregationModalModule</text>
</g>
<!-- AddAggregationModalModule&#45;&gt;TabMainModule -->
<g id="edge2" class="edge">
<title>AddAggregationModalModule&#45;&gt;TabMainModule</title>
<path fill="none" stroke="black" d="M1990,-85.05C1990,-107.82 1990,-143.8 1990,-143.8 1990,-143.8 1056.49,-143.8 1056.49,-143.8"/>
<polygon fill="black" stroke="black" points="1056.49,-140.3 1046.49,-143.8 1056.49,-147.3 1056.49,-140.3"/>
</g>
<!-- SafeAggregationBuilderModule -->
<g id="node4" class="node">
<title>SafeAggregationBuilderModule</title>
<polygon fill="#8dd3c7" stroke="black" points="1877.4,-84.8 1874.4,-88.8 1853.4,-88.8 1850.4,-84.8 1680.6,-84.8 1680.6,-48.8 1877.4,-48.8 1877.4,-84.8"/>
<text text-anchor="middle" x="1779" y="-62.6" font-family="Times,serif" font-size="14.00">SafeAggregationBuilderModule</text>
</g>
<!-- SafeAggregationBuilderModule&#45;&gt;TabMainModule -->
<g id="edge3" class="edge">
<title>SafeAggregationBuilderModule&#45;&gt;TabMainModule</title>
<path fill="none" stroke="black" d="M1779,-85.08C1779,-106.12 1779,-137.8 1779,-137.8 1779,-137.8 1056.41,-137.8 1056.41,-137.8"/>
<polygon fill="black" stroke="black" points="1056.41,-134.3 1046.41,-137.8 1056.41,-141.3 1056.41,-134.3"/>
</g>
<!-- SafeButtonModule -->
<g id="node5" class="node">
<title>SafeButtonModule</title>
<polygon fill="#8dd3c7" stroke="black" points="1663.05,-84.8 1660.05,-88.8 1639.05,-88.8 1636.05,-84.8 1540.95,-84.8 1540.95,-48.8 1663.05,-48.8 1663.05,-84.8"/>
<text text-anchor="middle" x="1602" y="-62.6" font-family="Times,serif" font-size="14.00">SafeButtonModule</text>
</g>
<!-- SafeButtonModule&#45;&gt;TabMainModule -->
<g id="edge4" class="edge">
<title>SafeButtonModule&#45;&gt;TabMainModule</title>
<path fill="none" stroke="black" d="M1602,-84.91C1602,-104.14 1602,-131.8 1602,-131.8 1602,-131.8 1056.57,-131.8 1056.57,-131.8"/>
<polygon fill="black" stroke="black" points="1056.57,-128.3 1046.57,-131.8 1056.57,-135.3 1056.57,-128.3"/>
</g>
<!-- SafeChartModule -->
<g id="node6" class="node">
<title>SafeChartModule</title>
<polygon fill="#8dd3c7" stroke="black" points="1522.53,-84.8 1519.53,-88.8 1498.53,-88.8 1495.53,-84.8 1407.47,-84.8 1407.47,-48.8 1522.53,-48.8 1522.53,-84.8"/>
<text text-anchor="middle" x="1465" y="-62.6" font-family="Times,serif" font-size="14.00">SafeChartModule</text>
</g>
<!-- SafeChartModule&#45;&gt;TabMainModule -->
<g id="edge5" class="edge">
<title>SafeChartModule&#45;&gt;TabMainModule</title>
<path fill="none" stroke="black" d="M1465,-84.82C1465,-102.17 1465,-125.8 1465,-125.8 1465,-125.8 1056.77,-125.8 1056.77,-125.8"/>
<polygon fill="black" stroke="black" points="1056.77,-122.3 1046.77,-125.8 1056.77,-129.3 1056.77,-122.3"/>
</g>
<!-- SafeEditAggregationModalModule -->
<g id="node7" class="node">
<title>SafeEditAggregationModalModule</title>
<polygon fill="#8dd3c7" stroke="black" points="1389.29,-84.8 1386.29,-88.8 1365.29,-88.8 1362.29,-84.8 1174.71,-84.8 1174.71,-48.8 1389.29,-48.8 1389.29,-84.8"/>
<text text-anchor="middle" x="1282" y="-62.6" font-family="Times,serif" font-size="14.00">SafeEditAggregationModalModule</text>
</g>
<!-- SafeEditAggregationModalModule&#45;&gt;TabMainModule -->
<g id="edge6" class="edge">
<title>SafeEditAggregationModalModule&#45;&gt;TabMainModule</title>
<path fill="none" stroke="black" d="M1282,-85.04C1282,-100.37 1282,-119.8 1282,-119.8 1282,-119.8 1056.42,-119.8 1056.42,-119.8"/>
<polygon fill="black" stroke="black" points="1056.42,-116.3 1046.42,-119.8 1056.42,-123.3 1056.42,-116.3"/>
</g>
<!-- SafeGraphQLSelectModule -->
<g id="node8" class="node">
<title>SafeGraphQLSelectModule</title>
<polygon fill="#8dd3c7" stroke="black" points="1157.28,-84.8 1154.28,-88.8 1133.28,-88.8 1130.28,-84.8 984.72,-84.8 984.72,-48.8 1157.28,-48.8 1157.28,-84.8"/>
<text text-anchor="middle" x="1071" y="-62.6" font-family="Times,serif" font-size="14.00">SafeGraphQLSelectModule</text>
</g>
<!-- SafeGraphQLSelectModule&#45;&gt;TabMainModule -->
<g id="edge7" class="edge">
<title>SafeGraphQLSelectModule&#45;&gt;TabMainModule</title>
<path fill="none" stroke="black" d="M1015.65,-84.91C1015.65,-84.91 1015.65,-103.79 1015.65,-103.79"/>
<polygon fill="black" stroke="black" points="1012.15,-103.79 1015.65,-113.79 1019.15,-103.79 1012.15,-103.79"/>
</g>
<!-- SafeGridModule -->
<g id="node9" class="node">
<title>SafeGridModule</title>
<polygon fill="#8dd3c7" stroke="black" points="967.09,-84.8 964.09,-88.8 943.09,-88.8 940.09,-84.8 856.91,-84.8 856.91,-48.8 967.09,-48.8 967.09,-84.8"/>
<text text-anchor="middle" x="912" y="-62.6" font-family="Times,serif" font-size="14.00">SafeGridModule</text>
</g>
<!-- SafeGridModule&#45;&gt;TabMainModule -->
<g id="edge8" class="edge">
<title>SafeGridModule&#45;&gt;TabMainModule</title>
<path fill="none" stroke="black" d="M951.31,-84.91C951.31,-84.91 951.31,-103.79 951.31,-103.79"/>
<polygon fill="black" stroke="black" points="947.81,-103.79 951.31,-113.79 954.81,-103.79 947.81,-103.79"/>
</g>
<!-- SafeIconModule -->
<g id="node10" class="node">
<title>SafeIconModule</title>
<polygon fill="#8dd3c7" stroke="black" points="838.8,-84.8 835.8,-88.8 814.8,-88.8 811.8,-84.8 729.2,-84.8 729.2,-48.8 838.8,-48.8 838.8,-84.8"/>
<text text-anchor="middle" x="784" y="-62.6" font-family="Times,serif" font-size="14.00">SafeIconModule</text>
</g>
<!-- SafeIconModule&#45;&gt;TabMainModule -->
<g id="edge9" class="edge">
<title>SafeIconModule&#45;&gt;TabMainModule</title>
<path fill="none" stroke="black" d="M784,-85.04C784,-100.37 784,-119.8 784,-119.8 784,-119.8 925.53,-119.8 925.53,-119.8"/>
<polygon fill="black" stroke="black" points="925.53,-123.3 935.53,-119.8 925.53,-116.3 925.53,-123.3"/>
</g>
<!-- SafePaletteControlModule -->
<g id="node11" class="node">
<title>SafePaletteControlModule</title>
<polygon fill="#8dd3c7" stroke="black" points="711.8,-84.8 708.8,-88.8 687.8,-88.8 684.8,-84.8 546.2,-84.8 546.2,-48.8 711.8,-48.8 711.8,-84.8"/>
<text text-anchor="middle" x="629" y="-62.6" font-family="Times,serif" font-size="14.00">SafePaletteControlModule</text>
</g>
<!-- SafePaletteControlModule&#45;&gt;TabMainModule -->
<g id="edge10" class="edge">
<title>SafePaletteControlModule&#45;&gt;TabMainModule</title>
<path fill="none" stroke="black" d="M629,-84.82C629,-102.17 629,-125.8 629,-125.8 629,-125.8 925.63,-125.8 925.63,-125.8"/>
<polygon fill="black" stroke="black" points="925.63,-129.3 935.63,-125.8 925.63,-122.3 925.63,-129.3"/>
</g>
<!-- SafeQueryBuilderModule -->
<g id="node12" class="node">
<title>SafeQueryBuilderModule</title>
<polygon fill="#8dd3c7" stroke="black" points="528.91,-84.8 525.91,-88.8 504.91,-88.8 501.91,-84.8 367.09,-84.8 367.09,-48.8 528.91,-48.8 528.91,-84.8"/>
<text text-anchor="middle" x="448" y="-62.6" font-family="Times,serif" font-size="14.00">SafeQueryBuilderModule</text>
</g>
<!-- SafeQueryBuilderModule&#45;&gt;TabMainModule -->
<g id="edge11" class="edge">
<title>SafeQueryBuilderModule&#45;&gt;TabMainModule</title>
<path fill="none" stroke="black" d="M448,-84.91C448,-104.14 448,-131.8 448,-131.8 448,-131.8 925.44,-131.8 925.44,-131.8"/>
<polygon fill="black" stroke="black" points="925.44,-135.3 935.44,-131.8 925.44,-128.3 925.44,-135.3"/>
</g>
<!-- SafeSeriesMappingModule -->
<g id="node13" class="node">
<title>SafeSeriesMappingModule</title>
<polygon fill="#8dd3c7" stroke="black" points="349.69,-84.8 346.69,-88.8 325.69,-88.8 322.69,-84.8 180.31,-84.8 180.31,-48.8 349.69,-48.8 349.69,-84.8"/>
<text text-anchor="middle" x="265" y="-62.6" font-family="Times,serif" font-size="14.00">SafeSeriesMappingModule</text>
</g>
<!-- SafeSeriesMappingModule&#45;&gt;TabMainModule -->
<g id="edge12" class="edge">
<title>SafeSeriesMappingModule&#45;&gt;TabMainModule</title>
<path fill="none" stroke="black" d="M265,-85.08C265,-106.12 265,-137.8 265,-137.8 265,-137.8 925.54,-137.8 925.54,-137.8"/>
<polygon fill="black" stroke="black" points="925.54,-141.3 935.54,-137.8 925.54,-134.3 925.54,-141.3"/>
</g>
</g>
</svg>
