<?xml version="1.0" encoding="UTF-8" standalone="no"?>
<!DOCTYPE svg PUBLIC "-//W3C//DTD SVG 1.1//EN"
 "http://www.w3.org/Graphics/SVG/1.1/DTD/svg11.dtd">
<!-- Generated by graphviz version 3.0.0 (20220226.1711)
 -->
<!-- Title: dependencies Pages: 1 -->
<svg width="988pt" height="174pt"
 viewBox="0.00 0.00 988.00 173.80" xmlns="http://www.w3.org/2000/svg" xmlns:xlink="http://www.w3.org/1999/xlink">
<g id="graph0" class="graph" transform="scale(1 1) rotate(0) translate(4 169.8)">
<title>dependencies</title>
<polygon fill="white" stroke="transparent" points="-4,4 -4,-169.8 984,-169.8 984,4 -4,4"/>
<text text-anchor="middle" x="490" y="-8.2" font-family="sans-serif" font-size="14.00">dependencies</text>
<g id="clust1" class="cluster">
<title>cluster_AppModule</title>
<polygon fill="none" stroke="black" stroke-dasharray="1,5" points="8,-32.8 8,-157.8 972,-157.8 972,-32.8 8,-32.8"/>
</g>
<g id="clust2" class="cluster">
<title>cluster_AppModule_declarations</title>
<polygon fill="none" stroke="black" points="842,-40.8 842,-92.8 964,-92.8 964,-40.8 842,-40.8"/>
</g>
<g id="clust4" class="cluster">
<title>cluster_AppModule_imports</title>
<polygon fill="none" stroke="black" points="16,-40.8 16,-92.8 834,-92.8 834,-40.8 16,-40.8"/>
</g>
<!-- AppComponent -->
<g id="node1" class="node">
<title>AppComponent</title>
<polygon fill="#ffffb3" stroke="black" points="955.94,-84.8 850.06,-84.8 850.06,-48.8 955.94,-48.8 955.94,-84.8"/>
<text text-anchor="middle" x="903" y="-62.6" font-family="Times,serif" font-size="14.00">AppComponent</text>
</g>
<!-- AppModule -->
<g id="node2" class="node">
<title>AppModule</title>
<polygon fill="#8dd3c7" stroke="black" points="520.66,-149.8 517.66,-153.8 496.66,-153.8 493.66,-149.8 437.34,-149.8 437.34,-113.8 520.66,-113.8 520.66,-149.8"/>
<text text-anchor="middle" x="479" y="-127.6" font-family="Times,serif" font-size="14.00">AppModule</text>
</g>
<!-- AppComponent&#45;&gt;AppModule -->
<g id="edge1" class="edge">
<title>AppComponent&#45;&gt;AppModule</title>
<path fill="none" stroke="black" d="M903,-85.08C903,-106.12 903,-137.8 903,-137.8 903,-137.8 530.82,-137.8 530.82,-137.8"/>
<polygon fill="black" stroke="black" points="530.82,-134.3 520.82,-137.8 530.82,-141.3 530.82,-134.3"/>
</g>
<!-- ApplicationWidgetModule -->
<g id="node3" class="node">
<title>ApplicationWidgetModule</title>
<polygon fill="#8dd3c7" stroke="black" points="826.36,-84.8 823.36,-88.8 802.36,-88.8 799.36,-84.8 659.64,-84.8 659.64,-48.8 826.36,-48.8 826.36,-84.8"/>
<text text-anchor="middle" x="743" y="-62.6" font-family="Times,serif" font-size="14.00">ApplicationWidgetModule</text>
</g>
<!-- ApplicationWidgetModule&#45;&gt;AppModule -->
<g id="edge2" class="edge">
<title>ApplicationWidgetModule&#45;&gt;AppModule</title>
<path fill="none" stroke="black" d="M743,-84.82C743,-102.17 743,-125.8 743,-125.8 743,-125.8 530.83,-125.8 530.83,-125.8"/>
<polygon fill="black" stroke="black" points="530.83,-122.3 520.83,-125.8 530.83,-129.3 530.83,-122.3"/>
</g>
<!-- DashboardWidgetModule -->
<g id="node4" class="node">
<title>DashboardWidgetModule</title>
<polygon fill="#8dd3c7" stroke="black" points="641.91,-84.8 638.91,-88.8 617.91,-88.8 614.91,-84.8 480.09,-84.8 480.09,-48.8 641.91,-48.8 641.91,-84.8"/>
<text text-anchor="middle" x="561" y="-62.6" font-family="Times,serif" font-size="14.00">DashboardWidgetModule</text>
</g>
<!-- DashboardWidgetModule&#45;&gt;AppModule -->
<g id="edge3" class="edge">
<title>DashboardWidgetModule&#45;&gt;AppModule</title>
<path fill="none" stroke="black" d="M500.56,-84.91C500.56,-84.91 500.56,-103.79 500.56,-103.79"/>
<polygon fill="black" stroke="black" points="497.06,-103.79 500.56,-113.79 504.06,-103.79 497.06,-103.79"/>
</g>
<!-- FormWidgetModule -->
<g id="node5" class="node">
<title>FormWidgetModule</title>
<polygon fill="#8dd3c7" stroke="black" points="462.6,-84.8 459.6,-88.8 438.6,-88.8 435.6,-84.8 331.4,-84.8 331.4,-48.8 462.6,-48.8 462.6,-84.8"/>
<text text-anchor="middle" x="397" y="-62.6" font-family="Times,serif" font-size="14.00">FormWidgetModule</text>
</g>
<!-- FormWidgetModule&#45;&gt;AppModule -->
<g id="edge4" class="edge">
<title>FormWidgetModule&#45;&gt;AppModule</title>
<path fill="none" stroke="black" d="M449.86,-84.91C449.86,-84.91 449.86,-103.79 449.86,-103.79"/>
<polygon fill="black" stroke="black" points="446.36,-103.79 449.86,-113.79 453.36,-103.79 446.36,-103.79"/>
</g>
<!-- GraphQLModule -->
<g id="node6" class="node">
<title>GraphQLModule</title>
<polygon fill="#8dd3c7" stroke="black" points="313.7,-84.8 310.7,-88.8 289.7,-88.8 286.7,-84.8 200.3,-84.8 200.3,-48.8 313.7,-48.8 313.7,-84.8"/>
<text text-anchor="middle" x="257" y="-62.6" font-family="Times,serif" font-size="14.00">GraphQLModule</text>
</g>
<!-- GraphQLModule&#45;&gt;AppModule -->
<g id="edge5" class="edge">
<title>GraphQLModule&#45;&gt;AppModule</title>
<path fill="none" stroke="black" d="M257,-84.82C257,-102.17 257,-125.8 257,-125.8 257,-125.8 427.24,-125.8 427.24,-125.8"/>
<polygon fill="black" stroke="black" points="427.24,-129.3 437.24,-125.8 427.24,-122.3 427.24,-129.3"/>
</g>
<!-- WorkflowWidgetModule -->
<g id="node7" class="node">
<title>WorkflowWidgetModule</title>
<polygon fill="#8dd3c7" stroke="black" points="182.3,-84.8 179.3,-88.8 158.3,-88.8 155.3,-84.8 23.7,-84.8 23.7,-48.8 182.3,-48.8 182.3,-84.8"/>
<text text-anchor="middle" x="103" y="-62.6" font-family="Times,serif" font-size="14.00">WorkflowWidgetModule</text>
</g>
<!-- WorkflowWidgetModule&#45;&gt;AppModule -->
<g id="edge6" class="edge">
<title>WorkflowWidgetModule&#45;&gt;AppModule</title>
<path fill="none" stroke="black" d="M103,-85.08C103,-106.12 103,-137.8 103,-137.8 103,-137.8 427.32,-137.8 427.32,-137.8"/>
<polygon fill="black" stroke="black" points="427.32,-141.3 437.32,-137.8 427.32,-134.3 427.32,-141.3"/>
</g>
</g>
</svg>
