<?xml version="1.0" encoding="UTF-8" standalone="no"?>
<!DOCTYPE svg PUBLIC "-//W3C//DTD SVG 1.1//EN"
 "http://www.w3.org/Graphics/SVG/1.1/DTD/svg11.dtd">
<!-- Generated by graphviz version 3.0.0 (20220226.1711)
 -->
<!-- Title: dependencies Pages: 1 -->
<svg width="348pt" height="247pt"
 viewBox="0.00 0.00 348.00 246.80" xmlns="http://www.w3.org/2000/svg" xmlns:xlink="http://www.w3.org/1999/xlink">
<g id="graph0" class="graph" transform="scale(1 1) rotate(0) translate(4 242.8)">
<title>dependencies</title>
<polygon fill="white" stroke="transparent" points="-4,4 -4,-242.8 344,-242.8 344,4 -4,4"/>
<text text-anchor="middle" x="170" y="-8.2" font-family="sans-serif" font-size="14.00">dependencies</text>
<g id="clust1" class="cluster">
<title>cluster_AddFormModule</title>
<polygon fill="none" stroke="black" stroke-dasharray="1,5" points="8,-32.8 8,-230.8 332,-230.8 332,-32.8 8,-32.8"/>
</g>
<g id="clust4" class="cluster">
<title>cluster_AddFormModule_imports</title>
<polygon fill="none" stroke="black" points="212,-40.8 212,-92.8 324,-92.8 324,-40.8 212,-40.8"/>
</g>
<g id="clust5" class="cluster">
<title>cluster_AddFormModule_exports</title>
<polygon fill="none" stroke="black" points="74,-170.8 74,-222.8 266,-222.8 266,-170.8 74,-170.8"/>
</g>
<g id="clust2" class="cluster">
<title>cluster_AddFormModule_declarations</title>
<polygon fill="none" stroke="black" points="16,-40.8 16,-92.8 204,-92.8 204,-40.8 16,-40.8"/>
</g>
<!-- AddFormModalComponent -->
<g id="node1" class="node">
<title>AddFormModalComponent</title>
<polygon fill="#ffffb3" stroke="black" points="196.33,-84.8 23.67,-84.8 23.67,-48.8 196.33,-48.8 196.33,-84.8"/>
<text text-anchor="middle" x="110" y="-62.6" font-family="Times,serif" font-size="14.00">AddFormModalComponent</text>
</g>
<!-- AddFormModule -->
<g id="node2" class="node">
<title>AddFormModule</title>
<polygon fill="#8dd3c7" stroke="black" points="227,-149.8 224,-153.8 203,-153.8 200,-149.8 113,-149.8 113,-113.8 227,-113.8 227,-149.8"/>
<text text-anchor="middle" x="170" y="-127.6" font-family="Times,serif" font-size="14.00">AddFormModule</text>
</g>
<!-- AddFormModalComponent&#45;&gt;AddFormModule -->
<g id="edge1" class="edge">
<title>AddFormModalComponent&#45;&gt;AddFormModule</title>
<path fill="none" stroke="black" d="M154.58,-84.91C154.58,-84.91 154.58,-103.79 154.58,-103.79"/>
<polygon fill="black" stroke="black" points="151.08,-103.79 154.58,-113.79 158.08,-103.79 151.08,-103.79"/>
</g>
<!-- AddFormModalComponent  -->
<g id="node4" class="node">
<title>AddFormModalComponent </title>
<polygon fill="#fb8072" stroke="black" points="257.83,-214.8 82.17,-214.8 82.17,-178.8 257.83,-178.8 257.83,-214.8"/>
<text text-anchor="middle" x="170" y="-192.6" font-family="Times,serif" font-size="14.00">AddFormModalComponent </text>
</g>
<!-- AddFormModule&#45;&gt;AddFormModalComponent  -->
<g id="edge3" class="edge">
<title>AddFormModule&#45;&gt;AddFormModalComponent </title>
<path fill="none" stroke="black" stroke-dasharray="5,2" d="M170,-149.91C170,-149.91 170,-168.79 170,-168.79"/>
<polygon fill="black" stroke="black" points="166.5,-168.79 170,-178.79 173.5,-168.79 166.5,-168.79"/>
</g>
<!-- FormsModule -->
<g id="node3" class="node">
<title>FormsModule</title>
<polygon fill="#8dd3c7" stroke="black" points="315.84,-84.8 312.84,-88.8 291.84,-88.8 288.84,-84.8 220.16,-84.8 220.16,-48.8 315.84,-48.8 315.84,-84.8"/>
<text text-anchor="middle" x="268" y="-62.6" font-family="Times,serif" font-size="14.00">FormsModule</text>
</g>
<!-- FormsModule&#45;&gt;AddFormModule -->
<g id="edge2" class="edge">
<title>FormsModule&#45;&gt;AddFormModule</title>
<path fill="none" stroke="black" d="M220.05,-66.8C213.11,-66.8 208.25,-66.8 208.25,-66.8 208.25,-66.8 208.25,-103.69 208.25,-103.69"/>
<polygon fill="black" stroke="black" points="204.75,-103.69 208.25,-113.69 211.75,-103.69 204.75,-103.69"/>
</g>
</g>
</svg>
