<?xml version="1.0" encoding="UTF-8" standalone="no"?>
<!DOCTYPE svg PUBLIC "-//W3C//DTD SVG 1.1//EN"
 "http://www.w3.org/Graphics/SVG/1.1/DTD/svg11.dtd">
<!-- Generated by graphviz version 3.0.0 (20220226.1711)
 -->
<!-- Title: dependencies Pages: 1 -->
<svg width="3398pt" height="358pt"
 viewBox="0.00 0.00 3398.00 358.39" xmlns="http://www.w3.org/2000/svg" xmlns:xlink="http://www.w3.org/1999/xlink">
<g id="graph0" class="graph" transform="scale(1 1) rotate(0) translate(4 354.39)">
<title>dependencies</title>
<polygon fill="white" stroke="transparent" points="-4,4 -4,-354.39 3394,-354.39 3394,4 -4,4"/>
<text text-anchor="middle" x="1695" y="-8.2" font-family="sans-serif" font-size="14.00">dependencies</text>
<g id="clust1" class="cluster">
<title>cluster_SafeGridModule</title>
<polygon fill="none" stroke="black" stroke-dasharray="1,5" points="8,-32.8 8,-342.39 3382,-342.39 3382,-32.8 8,-32.8"/>
</g>
<g id="clust2" class="cluster">
<title>cluster_SafeGridModule_declarations</title>
<polygon fill="none" stroke="black" points="2553,-152.39 2553,-204.39 2701,-204.39 2701,-152.39 2553,-152.39"/>
</g>
<g id="clust3" class="cluster">
<title>cluster_SafeGridModule_SafeGridComponent_providers</title>
<polygon fill="none" stroke="black" points="16,-40.8 16,-139.39 3374,-139.39 3374,-40.8 16,-40.8"/>
</g>
<g id="clust4" class="cluster">
<title>cluster_SafeGridModule_imports</title>
<polygon fill="none" stroke="black" points="1042,-152.39 1042,-204.39 2545,-204.39 2545,-152.39 1042,-152.39"/>
</g>
<g id="clust5" class="cluster">
<title>cluster_SafeGridModule_exports</title>
<polygon fill="none" stroke="black" points="1785,-282.39 1785,-334.39 1937,-334.39 1937,-282.39 1785,-282.39"/>
</g>
<!-- SafeGridComponent -->
<g id="node1" class="node">
<title>SafeGridComponent</title>
<polygon fill="#ffffb3" stroke="black" points="2692.87,-196.39 2561.13,-196.39 2561.13,-160.39 2692.87,-160.39 2692.87,-196.39"/>
<text text-anchor="middle" x="2627" y="-174.19" font-family="Times,serif" font-size="14.00">SafeGridComponent</text>
</g>
<!-- SafeGridModule -->
<g id="node2" class="node">
<title>SafeGridModule</title>
<polygon fill="#8dd3c7" stroke="black" points="1916.09,-261.39 1913.09,-265.39 1892.09,-265.39 1889.09,-261.39 1805.91,-261.39 1805.91,-225.39 1916.09,-225.39 1916.09,-261.39"/>
<text text-anchor="middle" x="1861" y="-239.19" font-family="Times,serif" font-size="14.00">SafeGridModule</text>
</g>
<!-- SafeGridComponent&#45;&gt;SafeGridModule -->
<g id="edge1" class="edge">
<title>SafeGridComponent&#45;&gt;SafeGridModule</title>
<path fill="none" stroke="black" d="M2627,-196.4C2627,-218.88 2627,-254.39 2627,-254.39 2627,-254.39 1926.09,-254.39 1926.09,-254.39"/>
<polygon fill="black" stroke="black" points="1926.09,-250.89 1916.09,-254.39 1926.09,-257.89 1926.09,-250.89"/>
</g>
<!-- SafeGridComponent  -->
<g id="node19" class="node">
<title>SafeGridComponent </title>
<polygon fill="#fb8072" stroke="black" points="1928.87,-326.39 1793.13,-326.39 1793.13,-290.39 1928.87,-290.39 1928.87,-326.39"/>
<text text-anchor="middle" x="1861" y="-304.19" font-family="Times,serif" font-size="14.00">SafeGridComponent </text>
</g>
<!-- SafeGridModule&#45;&gt;SafeGridComponent  -->
<g id="edge18" class="edge">
<title>SafeGridModule&#45;&gt;SafeGridComponent </title>
<path fill="none" stroke="black" stroke-dasharray="5,2" d="M1861,-261.5C1861,-261.5 1861,-280.38 1861,-280.38"/>
<polygon fill="black" stroke="black" points="1857.5,-280.38 1861,-290.38 1864.5,-280.38 1857.5,-280.38"/>
</g>
<!-- PopupService -->
<g id="node3" class="node">
<title>PopupService</title>
<ellipse fill="#fdb462" stroke="black" cx="3301" cy="-90.1" rx="64.86" ry="18"/>
<text text-anchor="middle" x="3301" y="-85.9" font-family="Times,serif" font-size="14.00">PopupService</text>
</g>
<!-- PopupService&#45;&gt;SafeGridComponent -->
<g id="edge2" class="edge">
<title>PopupService&#45;&gt;SafeGridComponent</title>
<path fill="none" stroke="black" d="M3301,-108.4C3301,-136.58 3301,-187.39 3301,-187.39 3301,-187.39 2703.16,-187.39 2703.16,-187.39"/>
<polygon fill="black" stroke="black" points="2703.16,-183.89 2693.16,-187.39 2703.16,-190.89 2703.16,-183.89"/>
</g>
<!-- ResizeBatchService -->
<g id="node4" class="node">
<title>ResizeBatchService</title>
<ellipse fill="#fdb462" stroke="black" cx="3130" cy="-90.1" rx="88.02" ry="18"/>
<text text-anchor="middle" x="3130" y="-85.9" font-family="Times,serif" font-size="14.00">ResizeBatchService</text>
</g>
<!-- ResizeBatchService&#45;&gt;SafeGridComponent -->
<g id="edge3" class="edge">
<title>ResizeBatchService&#45;&gt;SafeGridComponent</title>
<path fill="none" stroke="black" d="M3130,-108.39C3130,-134.25 3130,-178.39 3130,-178.39 3130,-178.39 2703.02,-178.39 2703.02,-178.39"/>
<polygon fill="black" stroke="black" points="2703.02,-174.89 2693.02,-178.39 2703.02,-181.89 2703.02,-174.89"/>
</g>
<!-- CalendarDOMService -->
<g id="node5" class="node">
<title>CalendarDOMService</title>
<ellipse fill="#fdb462" stroke="black" cx="2926" cy="-90.1" rx="97.27" ry="18"/>
<text text-anchor="middle" x="2926" y="-85.9" font-family="Times,serif" font-size="14.00">CalendarDOMService</text>
</g>
<!-- CalendarDOMService&#45;&gt;SafeGridComponent -->
<g id="edge4" class="edge">
<title>CalendarDOMService&#45;&gt;SafeGridComponent</title>
<path fill="none" stroke="black" d="M2926,-108.49C2926,-131.91 2926,-169.39 2926,-169.39 2926,-169.39 2702.99,-169.39 2702.99,-169.39"/>
<polygon fill="black" stroke="black" points="2702.99,-165.89 2692.99,-169.39 2702.99,-172.89 2702.99,-165.89"/>
</g>
<!-- MonthViewService -->
<g id="node6" class="node">
<title>MonthViewService</title>
<ellipse fill="#fdb462" stroke="black" cx="2724" cy="-90.1" rx="86.83" ry="18"/>
<text text-anchor="middle" x="2724" y="-85.9" font-family="Times,serif" font-size="14.00">MonthViewService</text>
</g>
<!-- MonthViewService&#45;&gt;SafeGridComponent -->
<g id="edge5" class="edge">
<title>MonthViewService&#45;&gt;SafeGridComponent</title>
<path fill="none" stroke="black" d="M2665.13,-103.51C2665.13,-103.51 2665.13,-150.25 2665.13,-150.25"/>
<polygon fill="black" stroke="black" points="2661.63,-150.25 2665.13,-160.25 2668.63,-150.25 2661.63,-150.25"/>
</g>
<!-- WeekNamesService -->
<g id="node7" class="node">
<title>WeekNamesService</title>
<ellipse fill="#fdb462" stroke="black" cx="2530" cy="-90.1" rx="89.15" ry="18"/>
<text text-anchor="middle" x="2530" y="-85.9" font-family="Times,serif" font-size="14.00">WeekNamesService</text>
</g>
<!-- WeekNamesService&#45;&gt;SafeGridComponent -->
<g id="edge6" class="edge">
<title>WeekNamesService&#45;&gt;SafeGridComponent</title>
<path fill="none" stroke="black" d="M2607.67,-99.21C2607.67,-99.21 2607.67,-150.32 2607.67,-150.32"/>
<polygon fill="black" stroke="black" points="2604.17,-150.32 2607.67,-160.32 2611.17,-150.32 2604.17,-150.32"/>
</g>
<!-- {
 &#160;&#160;&#160;provide: MAT_SELECT_SCROLL_STRATEGY, useFactory: scrollFactory, deps: [Overlay],
} -->
<g id="node8" class="node">
<title>{
 &#160;&#160;&#160;provide: MAT_SELECT_SCROLL_STRATEGY, useFactory: scrollFactory, deps: [Overlay],
}</title>
<ellipse fill="#fdb462" stroke="black" cx="2028" cy="-90.1" rx="394.68" ry="41.09"/>
<text text-anchor="middle" x="2028" y="-102.7" font-family="Times,serif" font-size="14.00">{</text>
<text text-anchor="middle" x="2028" y="-85.9" font-family="Times,serif" font-size="14.00"> &#160;&#160;&#160;provide: MAT_SELECT_SCROLL_STRATEGY, useFactory: scrollFactory, deps: [Overlay],</text>
<text text-anchor="middle" x="2028" y="-69.1" font-family="Times,serif" font-size="14.00">}</text>
</g>
<!-- {
 &#160;&#160;&#160;provide: MAT_SELECT_SCROLL_STRATEGY, useFactory: scrollFactory, deps: [Overlay],
}&#45;&gt;SafeGridComponent -->
<g id="edge7" class="edge">
<title>{
 &#160;&#160;&#160;provide: MAT_SELECT_SCROLL_STRATEGY, useFactory: scrollFactory, deps: [Overlay],
}&#45;&gt;SafeGridComponent</title>
<path fill="none" stroke="black" d="M2296.21,-120.39C2443.28,-120.39 2596.02,-120.39 2596.02,-120.39 2596.02,-120.39 2596.02,-150.36 2596.02,-150.36"/>
<polygon fill="black" stroke="black" points="2592.52,-150.36 2596.02,-160.36 2599.52,-150.36 2592.52,-150.36"/>
</g>
<!-- {
 &#160;&#160;&#160;provide: MAT_TOOLTIP_SCROLL_STRATEGY, useFactory: scrollFactory, deps: [Overlay],
} -->
<g id="node9" class="node">
<title>{
 &#160;&#160;&#160;provide: MAT_TOOLTIP_SCROLL_STRATEGY, useFactory: scrollFactory, deps: [Overlay],
}</title>
<ellipse fill="#fdb462" stroke="black" cx="1216" cy="-90.1" rx="399.57" ry="41.09"/>
<text text-anchor="middle" x="1216" y="-102.7" font-family="Times,serif" font-size="14.00">{</text>
<text text-anchor="middle" x="1216" y="-85.9" font-family="Times,serif" font-size="14.00"> &#160;&#160;&#160;provide: MAT_TOOLTIP_SCROLL_STRATEGY, useFactory: scrollFactory, deps: [Overlay],</text>
<text text-anchor="middle" x="1216" y="-69.1" font-family="Times,serif" font-size="14.00">}</text>
</g>
<!-- {
 &#160;&#160;&#160;provide: MAT_TOOLTIP_SCROLL_STRATEGY, useFactory: scrollFactory, deps: [Overlay],
}&#45;&gt;SafeGridComponent -->
<g id="edge8" class="edge">
<title>{
 &#160;&#160;&#160;provide: MAT_TOOLTIP_SCROLL_STRATEGY, useFactory: scrollFactory, deps: [Overlay],
}&#45;&gt;SafeGridComponent</title>
<path fill="none" stroke="black" d="M1587.86,-105.21C1587.86,-120.34 1587.86,-141.39 1587.86,-141.39 1587.86,-141.39 2584.37,-141.39 2584.37,-141.39 2584.37,-141.39 2584.37,-150.32 2584.37,-150.32"/>
<polygon fill="black" stroke="black" points="2580.87,-150.32 2584.37,-160.32 2587.87,-150.32 2580.87,-150.32"/>
</g>
<!-- {
 &#160;&#160;&#160;provide: MAT_MENU_SCROLL_STRATEGY, useFactory: scrollFactory, deps: [Overlay],
} -->
<g id="node10" class="node">
<title>{
 &#160;&#160;&#160;provide: MAT_MENU_SCROLL_STRATEGY, useFactory: scrollFactory, deps: [Overlay],
}</title>
<ellipse fill="#fdb462" stroke="black" cx="411" cy="-90.1" rx="387.38" ry="41.09"/>
<text text-anchor="middle" x="411" y="-102.7" font-family="Times,serif" font-size="14.00">{</text>
<text text-anchor="middle" x="411" y="-85.9" font-family="Times,serif" font-size="14.00"> &#160;&#160;&#160;provide: MAT_MENU_SCROLL_STRATEGY, useFactory: scrollFactory, deps: [Overlay],</text>
<text text-anchor="middle" x="411" y="-69.1" font-family="Times,serif" font-size="14.00">}</text>
</g>
<!-- {
 &#160;&#160;&#160;provide: MAT_MENU_SCROLL_STRATEGY, useFactory: scrollFactory, deps: [Overlay],
}&#45;&gt;SafeGridComponent -->
<g id="edge9" class="edge">
<title>{
 &#160;&#160;&#160;provide: MAT_MENU_SCROLL_STRATEGY, useFactory: scrollFactory, deps: [Overlay],
}&#45;&gt;SafeGridComponent</title>
<path fill="none" stroke="black" d="M411,-131.66C411,-142.59 411,-151.39 411,-151.39 411,-151.39 2572.72,-151.39 2572.72,-151.39 2572.72,-151.39 2572.72,-152.27 2572.72,-152.27"/>
<polygon fill="black" stroke="black" points="2569.22,-150.23 2572.72,-160.23 2576.22,-150.23 2569.22,-150.23"/>
</g>
<!-- SafeArrayFilterMenuModule -->
<g id="node11" class="node">
<title>SafeArrayFilterMenuModule</title>
<polygon fill="#8dd3c7" stroke="black" points="2537.07,-196.39 2534.07,-200.39 2513.07,-200.39 2510.07,-196.39 2356.93,-196.39 2356.93,-160.39 2537.07,-160.39 2537.07,-196.39"/>
<text text-anchor="middle" x="2447" y="-174.19" font-family="Times,serif" font-size="14.00">SafeArrayFilterMenuModule</text>
</g>
<!-- SafeArrayFilterMenuModule&#45;&gt;SafeGridModule -->
<g id="edge10" class="edge">
<title>SafeArrayFilterMenuModule&#45;&gt;SafeGridModule</title>
<path fill="none" stroke="black" d="M2447,-196.52C2447,-216.96 2447,-247.39 2447,-247.39 2447,-247.39 1926.13,-247.39 1926.13,-247.39"/>
<polygon fill="black" stroke="black" points="1926.13,-243.89 1916.13,-247.39 1926.13,-250.89 1926.13,-243.89"/>
</g>
<!-- SafeArrayFilterModule -->
<g id="node12" class="node">
<title>SafeArrayFilterModule</title>
<polygon fill="#8dd3c7" stroke="black" points="2338.91,-196.39 2335.91,-200.39 2314.91,-200.39 2311.91,-196.39 2191.09,-196.39 2191.09,-160.39 2338.91,-160.39 2338.91,-196.39"/>
<text text-anchor="middle" x="2265" y="-174.19" font-family="Times,serif" font-size="14.00">SafeArrayFilterModule</text>
</g>
<!-- SafeArrayFilterModule&#45;&gt;SafeGridModule -->
<g id="edge11" class="edge">
<title>SafeArrayFilterModule&#45;&gt;SafeGridModule</title>
<path fill="none" stroke="black" d="M2265,-196.66C2265,-214.95 2265,-240.39 2265,-240.39 2265,-240.39 1926.33,-240.39 1926.33,-240.39"/>
<polygon fill="black" stroke="black" points="1926.33,-236.89 1916.33,-240.39 1926.33,-243.89 1926.33,-236.89"/>
</g>
<!-- SafeDropdownFilterMenuModule -->
<g id="node13" class="node">
<title>SafeDropdownFilterMenuModule</title>
<polygon fill="#8dd3c7" stroke="black" points="2173.8,-196.39 2170.8,-200.39 2149.8,-200.39 2146.8,-196.39 1966.2,-196.39 1966.2,-160.39 2173.8,-160.39 2173.8,-196.39"/>
<text text-anchor="middle" x="2070" y="-174.19" font-family="Times,serif" font-size="14.00">SafeDropdownFilterMenuModule</text>
</g>
<!-- SafeDropdownFilterMenuModule&#45;&gt;SafeGridModule -->
<g id="edge12" class="edge">
<title>SafeDropdownFilterMenuModule&#45;&gt;SafeGridModule</title>
<path fill="none" stroke="black" d="M2070,-196.4C2070,-212.44 2070,-233.39 2070,-233.39 2070,-233.39 1926.19,-233.39 1926.19,-233.39"/>
<polygon fill="black" stroke="black" points="1926.19,-229.89 1916.19,-233.39 1926.19,-236.89 1926.19,-229.89"/>
</g>
<!-- SafeDropdownFilterModule -->
<g id="node14" class="node">
<title>SafeDropdownFilterModule</title>
<polygon fill="#8dd3c7" stroke="black" points="1948.14,-196.39 1945.14,-200.39 1924.14,-200.39 1921.14,-196.39 1773.86,-196.39 1773.86,-160.39 1948.14,-160.39 1948.14,-196.39"/>
<text text-anchor="middle" x="1861" y="-174.19" font-family="Times,serif" font-size="14.00">SafeDropdownFilterModule</text>
</g>
<!-- SafeDropdownFilterModule&#45;&gt;SafeGridModule -->
<g id="edge13" class="edge">
<title>SafeDropdownFilterModule&#45;&gt;SafeGridModule</title>
<path fill="none" stroke="black" d="M1861,-196.5C1861,-196.5 1861,-215.38 1861,-215.38"/>
<polygon fill="black" stroke="black" points="1857.5,-215.38 1861,-225.38 1864.5,-215.38 1857.5,-215.38"/>
</g>
<!-- SafeExpandedCommentModule -->
<g id="node15" class="node">
<title>SafeExpandedCommentModule</title>
<polygon fill="#8dd3c7" stroke="black" points="1755.63,-196.39 1752.63,-200.39 1731.63,-200.39 1728.63,-196.39 1560.37,-196.39 1560.37,-160.39 1755.63,-160.39 1755.63,-196.39"/>
<text text-anchor="middle" x="1658" y="-174.19" font-family="Times,serif" font-size="14.00">SafeExpandedCommentModule</text>
</g>
<!-- SafeExpandedCommentModule&#45;&gt;SafeGridModule -->
<g id="edge14" class="edge">
<title>SafeExpandedCommentModule&#45;&gt;SafeGridModule</title>
<path fill="none" stroke="black" d="M1658,-196.4C1658,-212.44 1658,-233.39 1658,-233.39 1658,-233.39 1795.8,-233.39 1795.8,-233.39"/>
<polygon fill="black" stroke="black" points="1795.8,-236.89 1805.8,-233.39 1795.8,-229.89 1795.8,-236.89"/>
</g>
<!-- SafeExportModule -->
<g id="node16" class="node">
<title>SafeExportModule</title>
<polygon fill="#8dd3c7" stroke="black" points="1542.03,-196.39 1539.03,-200.39 1518.03,-200.39 1515.03,-196.39 1419.97,-196.39 1419.97,-160.39 1542.03,-160.39 1542.03,-196.39"/>
<text text-anchor="middle" x="1481" y="-174.19" font-family="Times,serif" font-size="14.00">SafeExportModule</text>
</g>
<!-- SafeExportModule&#45;&gt;SafeGridModule -->
<g id="edge15" class="edge">
<title>SafeExportModule&#45;&gt;SafeGridModule</title>
<path fill="none" stroke="black" d="M1481,-196.66C1481,-214.95 1481,-240.39 1481,-240.39 1481,-240.39 1795.74,-240.39 1795.74,-240.39"/>
<polygon fill="black" stroke="black" points="1795.74,-243.89 1805.74,-240.39 1795.74,-236.89 1795.74,-243.89"/>
</g>
<!-- SafeGridRowActionsModule -->
<g id="node17" class="node">
<title>SafeGridRowActionsModule</title>
<polygon fill="#8dd3c7" stroke="black" points="1402.09,-196.39 1399.09,-200.39 1378.09,-200.39 1375.09,-196.39 1221.91,-196.39 1221.91,-160.39 1402.09,-160.39 1402.09,-196.39"/>
<text text-anchor="middle" x="1312" y="-174.19" font-family="Times,serif" font-size="14.00">SafeGridRowActionsModule</text>
</g>
<!-- SafeGridRowActionsModule&#45;&gt;SafeGridModule -->
<g id="edge16" class="edge">
<title>SafeGridRowActionsModule&#45;&gt;SafeGridModule</title>
<path fill="none" stroke="black" d="M1312,-196.52C1312,-216.96 1312,-247.39 1312,-247.39 1312,-247.39 1795.85,-247.39 1795.85,-247.39"/>
<polygon fill="black" stroke="black" points="1795.85,-250.89 1805.85,-247.39 1795.85,-243.89 1795.85,-250.89"/>
</g>
<!-- SafeGridToolbarModule -->
<g id="node18" class="node">
<title>SafeGridToolbarModule</title>
<polygon fill="#8dd3c7" stroke="black" points="1204.41,-196.39 1201.41,-200.39 1180.41,-200.39 1177.41,-196.39 1049.59,-196.39 1049.59,-160.39 1204.41,-160.39 1204.41,-196.39"/>
<text text-anchor="middle" x="1127" y="-174.19" font-family="Times,serif" font-size="14.00">SafeGridToolbarModule</text>
</g>
<!-- SafeGridToolbarModule&#45;&gt;SafeGridModule -->
<g id="edge17" class="edge">
<title>SafeGridToolbarModule&#45;&gt;SafeGridModule</title>
<path fill="none" stroke="black" d="M1127,-196.4C1127,-218.88 1127,-254.39 1127,-254.39 1127,-254.39 1795.83,-254.39 1795.83,-254.39"/>
<polygon fill="black" stroke="black" points="1795.83,-257.89 1805.83,-254.39 1795.83,-250.89 1795.83,-257.89"/>
</g>
</g>
</svg>
