<?xml version="1.0" encoding="UTF-8" standalone="no"?>
<!DOCTYPE svg PUBLIC "-//W3C//DTD SVG 1.1//EN"
 "http://www.w3.org/Graphics/SVG/1.1/DTD/svg11.dtd">
<!-- Generated by graphviz version 3.0.0 (20220226.1711)
 -->
<!-- Title: dependencies Pages: 1 -->
<svg width="691pt" height="247pt"
 viewBox="0.00 0.00 691.00 246.80" xmlns="http://www.w3.org/2000/svg" xmlns:xlink="http://www.w3.org/1999/xlink">
<g id="graph0" class="graph" transform="scale(1 1) rotate(0) translate(4 242.8)">
<title>dependencies</title>
<polygon fill="white" stroke="transparent" points="-4,4 -4,-242.8 687,-242.8 687,4 -4,4"/>
<text text-anchor="middle" x="341.5" y="-8.2" font-family="sans-serif" font-size="14.00">dependencies</text>
<g id="clust1" class="cluster">
<title>cluster_SafeUsersModule</title>
<polygon fill="none" stroke="black" stroke-dasharray="1,5" points="8,-32.8 8,-230.8 675,-230.8 675,-32.8 8,-32.8"/>
</g>
<g id="clust2" class="cluster">
<title>cluster_SafeUsersModule_declarations</title>
<polygon fill="none" stroke="black" points="513,-40.8 513,-92.8 667,-92.8 667,-40.8 513,-40.8"/>
</g>
<g id="clust4" class="cluster">
<title>cluster_SafeUsersModule_imports</title>
<polygon fill="none" stroke="black" points="16,-40.8 16,-92.8 505,-92.8 505,-40.8 16,-40.8"/>
</g>
<g id="clust5" class="cluster">
<title>cluster_SafeUsersModule_exports</title>
<polygon fill="none" stroke="black" points="280,-170.8 280,-222.8 438,-222.8 438,-170.8 280,-170.8"/>
</g>
<!-- SafeUsersComponent -->
<g id="node1" class="node">
<title>SafeUsersComponent</title>
<polygon fill="#ffffb3" stroke="black" points="659.09,-84.8 520.91,-84.8 520.91,-48.8 659.09,-48.8 659.09,-84.8"/>
<text text-anchor="middle" x="590" y="-62.6" font-family="Times,serif" font-size="14.00">SafeUsersComponent</text>
</g>
<!-- SafeUsersModule -->
<g id="node2" class="node">
<title>SafeUsersModule</title>
<polygon fill="#8dd3c7" stroke="black" points="417.31,-149.8 414.31,-153.8 393.31,-153.8 390.31,-149.8 300.69,-149.8 300.69,-113.8 417.31,-113.8 417.31,-149.8"/>
<text text-anchor="middle" x="359" y="-127.6" font-family="Times,serif" font-size="14.00">SafeUsersModule</text>
</g>
<!-- SafeUsersComponent&#45;&gt;SafeUsersModule -->
<g id="edge1" class="edge">
<title>SafeUsersComponent&#45;&gt;SafeUsersModule</title>
<path fill="none" stroke="black" d="M590,-84.91C590,-104.14 590,-131.8 590,-131.8 590,-131.8 427.29,-131.8 427.29,-131.8"/>
<polygon fill="black" stroke="black" points="427.29,-128.3 417.29,-131.8 427.29,-135.3 427.29,-128.3"/>
</g>
<!-- SafeUsersComponent  -->
<g id="node6" class="node">
<title>SafeUsersComponent </title>
<polygon fill="#fb8072" stroke="black" points="429.59,-214.8 288.41,-214.8 288.41,-178.8 429.59,-178.8 429.59,-214.8"/>
<text text-anchor="middle" x="359" y="-192.6" font-family="Times,serif" font-size="14.00">SafeUsersComponent </text>
</g>
<!-- SafeUsersModule&#45;&gt;SafeUsersComponent  -->
<g id="edge5" class="edge">
<title>SafeUsersModule&#45;&gt;SafeUsersComponent </title>
<path fill="none" stroke="black" stroke-dasharray="5,2" d="M359,-149.91C359,-149.91 359,-168.79 359,-168.79"/>
<polygon fill="black" stroke="black" points="355.5,-168.79 359,-178.79 362.5,-168.79 355.5,-168.79"/>
</g>
<!-- SafeButtonModule -->
<g id="node3" class="node">
<title>SafeButtonModule</title>
<polygon fill="#8dd3c7" stroke="black" points="497.05,-84.8 494.05,-88.8 473.05,-88.8 470.05,-84.8 374.95,-84.8 374.95,-48.8 497.05,-48.8 497.05,-84.8"/>
<text text-anchor="middle" x="436" y="-62.6" font-family="Times,serif" font-size="14.00">SafeButtonModule</text>
</g>
<!-- SafeButtonModule&#45;&gt;SafeUsersModule -->
<g id="edge2" class="edge">
<title>SafeButtonModule&#45;&gt;SafeUsersModule</title>
<path fill="none" stroke="black" d="M395.94,-84.91C395.94,-84.91 395.94,-103.79 395.94,-103.79"/>
<polygon fill="black" stroke="black" points="392.44,-103.79 395.94,-113.79 399.44,-103.79 392.44,-103.79"/>
</g>
<!-- SafeInviteUsersModule -->
<g id="node4" class="node">
<title>SafeInviteUsersModule</title>
<polygon fill="#8dd3c7" stroke="black" points="356.47,-84.8 353.47,-88.8 332.47,-88.8 329.47,-84.8 207.53,-84.8 207.53,-48.8 356.47,-48.8 356.47,-84.8"/>
<text text-anchor="middle" x="282" y="-62.6" font-family="Times,serif" font-size="14.00">SafeInviteUsersModule</text>
</g>
<!-- SafeInviteUsersModule&#45;&gt;SafeUsersModule -->
<g id="edge3" class="edge">
<title>SafeInviteUsersModule&#45;&gt;SafeUsersModule</title>
<path fill="none" stroke="black" d="M328.66,-84.91C328.66,-84.91 328.66,-103.79 328.66,-103.79"/>
<polygon fill="black" stroke="black" points="325.16,-103.79 328.66,-113.79 332.16,-103.79 325.16,-103.79"/>
</g>
<!-- SafeSkeletonTableModule -->
<g id="node5" class="node">
<title>SafeSkeletonTableModule</title>
<polygon fill="#8dd3c7" stroke="black" points="189.79,-84.8 186.79,-88.8 165.79,-88.8 162.79,-84.8 24.21,-84.8 24.21,-48.8 189.79,-48.8 189.79,-84.8"/>
<text text-anchor="middle" x="107" y="-62.6" font-family="Times,serif" font-size="14.00">SafeSkeletonTableModule</text>
</g>
<!-- SafeSkeletonTableModule&#45;&gt;SafeUsersModule -->
<g id="edge4" class="edge">
<title>SafeSkeletonTableModule&#45;&gt;SafeUsersModule</title>
<path fill="none" stroke="black" d="M107,-84.91C107,-104.14 107,-131.8 107,-131.8 107,-131.8 290.55,-131.8 290.55,-131.8"/>
<polygon fill="black" stroke="black" points="290.55,-135.3 300.55,-131.8 290.55,-128.3 290.55,-135.3"/>
</g>
</g>
</svg>
