<?xml version="1.0" encoding="UTF-8" standalone="no"?>
<!DOCTYPE svg PUBLIC "-//W3C//DTD SVG 1.1//EN"
 "http://www.w3.org/Graphics/SVG/1.1/DTD/svg11.dtd">
<!-- Generated by graphviz version 3.0.0 (20220226.1711)
 -->
<!-- Title: dependencies Pages: 1 -->
<svg width="1446pt" height="247pt"
 viewBox="0.00 0.00 1446.00 246.80" xmlns="http://www.w3.org/2000/svg" xmlns:xlink="http://www.w3.org/1999/xlink">
<g id="graph0" class="graph" transform="scale(1 1) rotate(0) translate(4 242.8)">
<title>dependencies</title>
<polygon fill="white" stroke="transparent" points="-4,4 -4,-242.8 1442,-242.8 1442,4 -4,4"/>
<text text-anchor="middle" x="719" y="-8.2" font-family="sans-serif" font-size="14.00">dependencies</text>
<g id="clust1" class="cluster">
<title>cluster_SafeApplicationsSummaryModule</title>
<polygon fill="none" stroke="black" stroke-dasharray="1,5" points="8,-32.8 8,-230.8 1430,-230.8 1430,-32.8 8,-32.8"/>
</g>
<g id="clust2" class="cluster">
<title>cluster_SafeApplicationsSummaryModule_declarations</title>
<polygon fill="none" stroke="black" points="715,-40.8 715,-92.8 1422,-92.8 1422,-40.8 715,-40.8"/>
</g>
<g id="clust7" class="cluster">
<title>cluster_SafeApplicationsSummaryModule_exports</title>
<polygon fill="none" stroke="black" points="193,-170.8 193,-222.8 911,-222.8 911,-170.8 193,-170.8"/>
</g>
<g id="clust6" class="cluster">
<title>cluster_SafeApplicationsSummaryModule_imports</title>
<polygon fill="none" stroke="black" points="16,-40.8 16,-92.8 707,-92.8 707,-40.8 16,-40.8"/>
</g>
<!-- SafeAddApplicationComponent -->
<g id="node1" class="node">
<title>SafeAddApplicationComponent</title>
<polygon fill="#ffffb3" stroke="black" points="1414.41,-84.8 1217.59,-84.8 1217.59,-48.8 1414.41,-48.8 1414.41,-84.8"/>
<text text-anchor="middle" x="1316" y="-62.6" font-family="Times,serif" font-size="14.00">SafeAddApplicationComponent</text>
</g>
<!-- SafeApplicationsSummaryModule -->
<g id="node4" class="node">
<title>SafeApplicationsSummaryModule</title>
<polygon fill="#8dd3c7" stroke="black" points="675.41,-149.8 672.41,-153.8 651.41,-153.8 648.41,-149.8 464.59,-149.8 464.59,-113.8 675.41,-113.8 675.41,-149.8"/>
<text text-anchor="middle" x="570" y="-127.6" font-family="Times,serif" font-size="14.00">SafeApplicationsSummaryModule</text>
</g>
<!-- SafeAddApplicationComponent&#45;&gt;SafeApplicationsSummaryModule -->
<g id="edge1" class="edge">
<title>SafeAddApplicationComponent&#45;&gt;SafeApplicationsSummaryModule</title>
<path fill="none" stroke="black" d="M1316,-84.93C1316,-105.37 1316,-135.8 1316,-135.8 1316,-135.8 685.3,-135.8 685.3,-135.8"/>
<polygon fill="black" stroke="black" points="685.3,-132.3 675.3,-135.8 685.3,-139.3 685.3,-132.3"/>
</g>
<!-- SafeApplicationSummaryComponent -->
<g id="node2" class="node">
<title>SafeApplicationSummaryComponent</title>
<polygon fill="#ffffb3" stroke="black" points="1199.25,-84.8 972.75,-84.8 972.75,-48.8 1199.25,-48.8 1199.25,-84.8"/>
<text text-anchor="middle" x="1086" y="-62.6" font-family="Times,serif" font-size="14.00">SafeApplicationSummaryComponent</text>
</g>
<!-- SafeApplicationSummaryComponent&#45;&gt;SafeApplicationsSummaryModule -->
<g id="edge2" class="edge">
<title>SafeApplicationSummaryComponent&#45;&gt;SafeApplicationsSummaryModule</title>
<path fill="none" stroke="black" d="M1086,-85.07C1086,-103.36 1086,-128.8 1086,-128.8 1086,-128.8 685.35,-128.8 685.35,-128.8"/>
<polygon fill="black" stroke="black" points="685.35,-125.3 675.35,-128.8 685.35,-132.3 685.35,-125.3"/>
</g>
<!-- SafeApplicationsSummaryComponent -->
<g id="node3" class="node">
<title>SafeApplicationsSummaryComponent</title>
<polygon fill="#ffffb3" stroke="black" points="955.19,-84.8 722.81,-84.8 722.81,-48.8 955.19,-48.8 955.19,-84.8"/>
<text text-anchor="middle" x="839" y="-62.6" font-family="Times,serif" font-size="14.00">SafeApplicationsSummaryComponent</text>
</g>
<!-- SafeApplicationsSummaryComponent&#45;&gt;SafeApplicationsSummaryModule -->
<g id="edge3" class="edge">
<title>SafeApplicationsSummaryComponent&#45;&gt;SafeApplicationsSummaryModule</title>
<path fill="none" stroke="black" d="M812.93,-84.81C812.93,-100.85 812.93,-121.8 812.93,-121.8 812.93,-121.8 685.49,-121.8 685.49,-121.8"/>
<polygon fill="black" stroke="black" points="685.49,-118.3 675.49,-121.8 685.49,-125.3 685.49,-118.3"/>
</g>
<!-- SafeAddApplicationComponent  -->
<g id="node10" class="node">
<title>SafeAddApplicationComponent </title>
<polygon fill="#fb8072" stroke="black" points="902.91,-214.8 703.09,-214.8 703.09,-178.8 902.91,-178.8 902.91,-214.8"/>
<text text-anchor="middle" x="803" y="-192.6" font-family="Times,serif" font-size="14.00">SafeAddApplicationComponent </text>
</g>
<!-- SafeApplicationsSummaryModule&#45;&gt;SafeAddApplicationComponent  -->
<g id="edge9" class="edge">
<title>SafeApplicationsSummaryModule&#45;&gt;SafeAddApplicationComponent </title>
<path fill="none" stroke="black" stroke-dasharray="5,2" d="M675.41,-142.8C696.84,-142.8 712.97,-142.8 712.97,-142.8 712.97,-142.8 712.97,-168.52 712.97,-168.52"/>
<polygon fill="black" stroke="black" points="709.47,-168.52 712.97,-178.52 716.47,-168.52 709.47,-168.52"/>
</g>
<!-- SafeApplicationSummaryComponent  -->
<g id="node11" class="node">
<title>SafeApplicationSummaryComponent </title>
<polygon fill="#fb8072" stroke="black" points="685.25,-214.8 454.75,-214.8 454.75,-178.8 685.25,-178.8 685.25,-214.8"/>
<text text-anchor="middle" x="570" y="-192.6" font-family="Times,serif" font-size="14.00">SafeApplicationSummaryComponent </text>
</g>
<!-- SafeApplicationsSummaryModule&#45;&gt;SafeApplicationSummaryComponent  -->
<g id="edge10" class="edge">
<title>SafeApplicationsSummaryModule&#45;&gt;SafeApplicationSummaryComponent </title>
<path fill="none" stroke="black" stroke-dasharray="5,2" d="M570,-149.91C570,-149.91 570,-168.79 570,-168.79"/>
<polygon fill="black" stroke="black" points="566.5,-168.79 570,-178.79 573.5,-168.79 566.5,-168.79"/>
</g>
<!-- SafeApplicationsSummaryComponent  -->
<g id="node12" class="node">
<title>SafeApplicationsSummaryComponent </title>
<polygon fill="#fb8072" stroke="black" points="436.69,-214.8 201.31,-214.8 201.31,-178.8 436.69,-178.8 436.69,-214.8"/>
<text text-anchor="middle" x="319" y="-192.6" font-family="Times,serif" font-size="14.00">SafeApplicationsSummaryComponent </text>
</g>
<!-- SafeApplicationsSummaryModule&#45;&gt;SafeApplicationsSummaryComponent  -->
<g id="edge11" class="edge">
<title>SafeApplicationsSummaryModule&#45;&gt;SafeApplicationsSummaryComponent </title>
<path fill="none" stroke="black" stroke-dasharray="5,2" d="M464.6,-142.8C446.41,-142.8 433.22,-142.8 433.22,-142.8 433.22,-142.8 433.22,-168.52 433.22,-168.52"/>
<polygon fill="black" stroke="black" points="429.72,-168.52 433.22,-178.52 436.72,-168.52 429.72,-168.52"/>
</g>
<!-- SafeButtonModule -->
<g id="node5" class="node">
<title>SafeButtonModule</title>
<polygon fill="#8dd3c7" stroke="black" points="699.05,-84.8 696.05,-88.8 675.05,-88.8 672.05,-84.8 576.95,-84.8 576.95,-48.8 699.05,-48.8 699.05,-84.8"/>
<text text-anchor="middle" x="638" y="-62.6" font-family="Times,serif" font-size="14.00">SafeButtonModule</text>
</g>
<!-- SafeButtonModule&#45;&gt;SafeApplicationsSummaryModule -->
<g id="edge4" class="edge">
<title>SafeButtonModule&#45;&gt;SafeApplicationsSummaryModule</title>
<path fill="none" stroke="black" d="M625.97,-84.91C625.97,-84.91 625.97,-103.79 625.97,-103.79"/>
<polygon fill="black" stroke="black" points="622.47,-103.79 625.97,-113.79 629.47,-103.79 622.47,-103.79"/>
</g>
<!-- SafeDateModule -->
<g id="node6" class="node">
<title>SafeDateModule</title>
<polygon fill="#8dd3c7" stroke="black" points="558.36,-84.8 555.36,-88.8 534.36,-88.8 531.36,-84.8 447.64,-84.8 447.64,-48.8 558.36,-48.8 558.36,-84.8"/>
<text text-anchor="middle" x="503" y="-62.6" font-family="Times,serif" font-size="14.00">SafeDateModule</text>
</g>
<!-- SafeDateModule&#45;&gt;SafeApplicationsSummaryModule -->
<g id="edge5" class="edge">
<title>SafeDateModule&#45;&gt;SafeApplicationsSummaryModule</title>
<path fill="none" stroke="black" d="M511.61,-84.91C511.61,-84.91 511.61,-103.79 511.61,-103.79"/>
<polygon fill="black" stroke="black" points="508.11,-103.79 511.61,-113.79 515.11,-103.79 508.11,-103.79"/>
</g>
<!-- SafeDividerModule -->
<g id="node7" class="node">
<title>SafeDividerModule</title>
<polygon fill="#8dd3c7" stroke="black" points="429.69,-84.8 426.69,-88.8 405.69,-88.8 402.69,-84.8 302.31,-84.8 302.31,-48.8 429.69,-48.8 429.69,-84.8"/>
<text text-anchor="middle" x="366" y="-62.6" font-family="Times,serif" font-size="14.00">SafeDividerModule</text>
</g>
<!-- SafeDividerModule&#45;&gt;SafeApplicationsSummaryModule -->
<g id="edge6" class="edge">
<title>SafeDividerModule&#45;&gt;SafeApplicationsSummaryModule</title>
<path fill="none" stroke="black" d="M366,-84.81C366,-100.85 366,-121.8 366,-121.8 366,-121.8 454.71,-121.8 454.71,-121.8"/>
<polygon fill="black" stroke="black" points="454.71,-125.3 464.71,-121.8 454.71,-118.3 454.71,-125.3"/>
</g>
<!-- SafeIconModule -->
<g id="node8" class="node">
<title>SafeIconModule</title>
<polygon fill="#8dd3c7" stroke="black" points="284.8,-84.8 281.8,-88.8 260.8,-88.8 257.8,-84.8 175.2,-84.8 175.2,-48.8 284.8,-48.8 284.8,-84.8"/>
<text text-anchor="middle" x="230" y="-62.6" font-family="Times,serif" font-size="14.00">SafeIconModule</text>
</g>
<!-- SafeIconModule&#45;&gt;SafeApplicationsSummaryModule -->
<g id="edge7" class="edge">
<title>SafeIconModule&#45;&gt;SafeApplicationsSummaryModule</title>
<path fill="none" stroke="black" d="M242.9,-85.07C242.9,-103.36 242.9,-128.8 242.9,-128.8 242.9,-128.8 454.7,-128.8 454.7,-128.8"/>
<polygon fill="black" stroke="black" points="454.7,-132.3 464.7,-128.8 454.7,-125.3 454.7,-132.3"/>
</g>
<!-- SafeSkeletonModule -->
<g id="node9" class="node">
<title>SafeSkeletonModule</title>
<polygon fill="#8dd3c7" stroke="black" points="157.92,-84.8 154.92,-88.8 133.92,-88.8 130.92,-84.8 24.08,-84.8 24.08,-48.8 157.92,-48.8 157.92,-84.8"/>
<text text-anchor="middle" x="91" y="-62.6" font-family="Times,serif" font-size="14.00">SafeSkeletonModule</text>
</g>
<!-- SafeSkeletonModule&#45;&gt;SafeApplicationsSummaryModule -->
<g id="edge8" class="edge">
<title>SafeSkeletonModule&#45;&gt;SafeApplicationsSummaryModule</title>
<path fill="none" stroke="black" d="M91,-84.93C91,-105.37 91,-135.8 91,-135.8 91,-135.8 454.59,-135.8 454.59,-135.8"/>
<polygon fill="black" stroke="black" points="454.59,-139.3 464.59,-135.8 454.59,-132.3 454.59,-139.3"/>
</g>
</g>
</svg>
