<?xml version="1.0" encoding="UTF-8" standalone="no"?>
<!DOCTYPE svg PUBLIC "-//W3C//DTD SVG 1.1//EN"
 "http://www.w3.org/Graphics/SVG/1.1/DTD/svg11.dtd">
<!-- Generated by graphviz version 3.0.0 (20220226.1711)
 -->
<!-- Title: dependencies Pages: 1 -->
<svg width="762pt" height="247pt"
 viewBox="0.00 0.00 762.00 246.80" xmlns="http://www.w3.org/2000/svg" xmlns:xlink="http://www.w3.org/1999/xlink">
<g id="graph0" class="graph" transform="scale(1 1) rotate(0) translate(4 242.8)">
<title>dependencies</title>
<polygon fill="white" stroke="transparent" points="-4,4 -4,-242.8 758,-242.8 758,4 -4,4"/>
<text text-anchor="middle" x="377" y="-8.2" font-family="sans-serif" font-size="14.00">dependencies</text>
<g id="clust1" class="cluster">
<title>cluster_TabButtonsModule</title>
<polygon fill="none" stroke="black" stroke-dasharray="1,5" points="8,-32.8 8,-230.8 746,-230.8 746,-32.8 8,-32.8"/>
</g>
<g id="clust4" class="cluster">
<title>cluster_TabButtonsModule_imports</title>
<polygon fill="none" stroke="black" points="186,-40.8 186,-92.8 738,-92.8 738,-40.8 186,-40.8"/>
</g>
<g id="clust5" class="cluster">
<title>cluster_TabButtonsModule_exports</title>
<polygon fill="none" stroke="black" points="300,-170.8 300,-222.8 466,-222.8 466,-170.8 300,-170.8"/>
</g>
<g id="clust2" class="cluster">
<title>cluster_TabButtonsModule_declarations</title>
<polygon fill="none" stroke="black" points="16,-40.8 16,-92.8 178,-92.8 178,-40.8 16,-40.8"/>
</g>
<!-- TabButtonsComponent -->
<g id="node1" class="node">
<title>TabButtonsComponent</title>
<polygon fill="#ffffb3" stroke="black" points="170.16,-84.8 23.84,-84.8 23.84,-48.8 170.16,-48.8 170.16,-84.8"/>
<text text-anchor="middle" x="97" y="-62.6" font-family="Times,serif" font-size="14.00">TabButtonsComponent</text>
</g>
<!-- TabButtonsModule -->
<g id="node2" class="node">
<title>TabButtonsModule</title>
<polygon fill="#8dd3c7" stroke="black" points="445.38,-149.8 442.38,-153.8 421.38,-153.8 418.38,-149.8 320.62,-149.8 320.62,-113.8 445.38,-113.8 445.38,-149.8"/>
<text text-anchor="middle" x="383" y="-127.6" font-family="Times,serif" font-size="14.00">TabButtonsModule</text>
</g>
<!-- TabButtonsComponent&#45;&gt;TabButtonsModule -->
<g id="edge1" class="edge">
<title>TabButtonsComponent&#45;&gt;TabButtonsModule</title>
<path fill="none" stroke="black" d="M97,-85.08C97,-106.12 97,-137.8 97,-137.8 97,-137.8 310.59,-137.8 310.59,-137.8"/>
<polygon fill="black" stroke="black" points="310.59,-141.3 320.59,-137.8 310.59,-134.3 310.59,-141.3"/>
</g>
<!-- TabButtonsComponent  -->
<g id="node7" class="node">
<title>TabButtonsComponent </title>
<polygon fill="#fb8072" stroke="black" points="458.16,-214.8 307.84,-214.8 307.84,-178.8 458.16,-178.8 458.16,-214.8"/>
<text text-anchor="middle" x="383" y="-192.6" font-family="Times,serif" font-size="14.00">TabButtonsComponent </text>
</g>
<!-- TabButtonsModule&#45;&gt;TabButtonsComponent  -->
<g id="edge6" class="edge">
<title>TabButtonsModule&#45;&gt;TabButtonsComponent </title>
<path fill="none" stroke="black" stroke-dasharray="5,2" d="M383,-149.91C383,-149.91 383,-168.79 383,-168.79"/>
<polygon fill="black" stroke="black" points="379.5,-168.79 383,-178.79 386.5,-168.79 379.5,-168.79"/>
</g>
<!-- ButtonConfigModule -->
<g id="node3" class="node">
<title>ButtonConfigModule</title>
<polygon fill="#8dd3c7" stroke="black" points="730.06,-84.8 727.06,-88.8 706.06,-88.8 703.06,-84.8 593.94,-84.8 593.94,-48.8 730.06,-48.8 730.06,-84.8"/>
<text text-anchor="middle" x="662" y="-62.6" font-family="Times,serif" font-size="14.00">ButtonConfigModule</text>
</g>
<!-- ButtonConfigModule&#45;&gt;TabButtonsModule -->
<g id="edge2" class="edge">
<title>ButtonConfigModule&#45;&gt;TabButtonsModule</title>
<path fill="none" stroke="black" d="M662,-85.08C662,-106.12 662,-137.8 662,-137.8 662,-137.8 455.61,-137.8 455.61,-137.8"/>
<polygon fill="black" stroke="black" points="455.61,-134.3 445.61,-137.8 455.61,-141.3 455.61,-134.3"/>
</g>
<!-- SafeAlertModule -->
<g id="node4" class="node">
<title>SafeAlertModule</title>
<polygon fill="#8dd3c7" stroke="black" points="575.69,-84.8 572.69,-88.8 551.69,-88.8 548.69,-84.8 462.31,-84.8 462.31,-48.8 575.69,-48.8 575.69,-84.8"/>
<text text-anchor="middle" x="519" y="-62.6" font-family="Times,serif" font-size="14.00">SafeAlertModule</text>
</g>
<!-- SafeAlertModule&#45;&gt;TabButtonsModule -->
<g id="edge3" class="edge">
<title>SafeAlertModule&#45;&gt;TabButtonsModule</title>
<path fill="none" stroke="black" d="M519,-84.82C519,-102.17 519,-125.8 519,-125.8 519,-125.8 455.43,-125.8 455.43,-125.8"/>
<polygon fill="black" stroke="black" points="455.43,-122.3 445.43,-125.8 455.43,-129.3 455.43,-122.3"/>
</g>
<!-- SafeButtonModule -->
<g id="node5" class="node">
<title>SafeButtonModule</title>
<polygon fill="#8dd3c7" stroke="black" points="444.05,-84.8 441.05,-88.8 420.05,-88.8 417.05,-84.8 321.95,-84.8 321.95,-48.8 444.05,-48.8 444.05,-84.8"/>
<text text-anchor="middle" x="383" y="-62.6" font-family="Times,serif" font-size="14.00">SafeButtonModule</text>
</g>
<!-- SafeButtonModule&#45;&gt;TabButtonsModule -->
<g id="edge4" class="edge">
<title>SafeButtonModule&#45;&gt;TabButtonsModule</title>
<path fill="none" stroke="black" d="M383,-84.91C383,-84.91 383,-103.79 383,-103.79"/>
<polygon fill="black" stroke="black" points="379.5,-103.79 383,-113.79 386.5,-103.79 379.5,-103.79"/>
</g>
<!-- SafeIconModule -->
<g id="node6" class="node">
<title>SafeIconModule</title>
<polygon fill="#8dd3c7" stroke="black" points="303.8,-84.8 300.8,-88.8 279.8,-88.8 276.8,-84.8 194.2,-84.8 194.2,-48.8 303.8,-48.8 303.8,-84.8"/>
<text text-anchor="middle" x="249" y="-62.6" font-family="Times,serif" font-size="14.00">SafeIconModule</text>
</g>
<!-- SafeIconModule&#45;&gt;TabButtonsModule -->
<g id="edge5" class="edge">
<title>SafeIconModule&#45;&gt;TabButtonsModule</title>
<path fill="none" stroke="black" d="M249,-84.82C249,-102.17 249,-125.8 249,-125.8 249,-125.8 310.32,-125.8 310.32,-125.8"/>
<polygon fill="black" stroke="black" points="310.32,-129.3 320.32,-125.8 310.32,-122.3 310.32,-129.3"/>
</g>
</g>
</svg>
