<?xml version="1.0" encoding="UTF-8" standalone="no"?>
<!DOCTYPE svg PUBLIC "-//W3C//DTD SVG 1.1//EN"
 "http://www.w3.org/Graphics/SVG/1.1/DTD/svg11.dtd">
<!-- Generated by graphviz version 3.0.0 (20220226.1711)
 -->
<!-- Title: dependencies Pages: 1 -->
<svg width="745pt" height="247pt"
 viewBox="0.00 0.00 745.00 246.80" xmlns="http://www.w3.org/2000/svg" xmlns:xlink="http://www.w3.org/1999/xlink">
<g id="graph0" class="graph" transform="scale(1 1) rotate(0) translate(4 242.8)">
<title>dependencies</title>
<polygon fill="white" stroke="transparent" points="-4,4 -4,-242.8 741,-242.8 741,4 -4,4"/>
<text text-anchor="middle" x="368.5" y="-8.2" font-family="sans-serif" font-size="14.00">dependencies</text>
<g id="clust1" class="cluster">
<title>cluster_SafeApplicationNotificationsModule</title>
<polygon fill="none" stroke="black" stroke-dasharray="1,5" points="8,-32.8 8,-230.8 729,-230.8 729,-32.8 8,-32.8"/>
</g>
<g id="clust5" class="cluster">
<title>cluster_SafeApplicationNotificationsModule_exports</title>
<polygon fill="none" stroke="black" points="245,-170.8 245,-222.8 509,-222.8 509,-170.8 245,-170.8"/>
</g>
<g id="clust2" class="cluster">
<title>cluster_SafeApplicationNotificationsModule_declarations</title>
<polygon fill="none" stroke="black" points="459,-40.8 459,-92.8 721,-92.8 721,-40.8 459,-40.8"/>
</g>
<g id="clust4" class="cluster">
<title>cluster_SafeApplicationNotificationsModule_imports</title>
<polygon fill="none" stroke="black" points="16,-40.8 16,-92.8 451,-92.8 451,-40.8 16,-40.8"/>
</g>
<!-- SafeApplicationNotificationsComponent -->
<g id="node1" class="node">
<title>SafeApplicationNotificationsComponent</title>
<polygon fill="#ffffb3" stroke="black" points="712.9,-84.8 467.1,-84.8 467.1,-48.8 712.9,-48.8 712.9,-84.8"/>
<text text-anchor="middle" x="590" y="-62.6" font-family="Times,serif" font-size="14.00">SafeApplicationNotificationsComponent</text>
</g>
<!-- SafeApplicationNotificationsModule -->
<g id="node2" class="node">
<title>SafeApplicationNotificationsModule</title>
<polygon fill="#8dd3c7" stroke="black" points="488.62,-149.8 485.62,-153.8 464.62,-153.8 461.62,-149.8 265.38,-149.8 265.38,-113.8 488.62,-113.8 488.62,-149.8"/>
<text text-anchor="middle" x="377" y="-127.6" font-family="Times,serif" font-size="14.00">SafeApplicationNotificationsModule</text>
</g>
<!-- SafeApplicationNotificationsComponent&#45;&gt;SafeApplicationNotificationsModule -->
<g id="edge1" class="edge">
<title>SafeApplicationNotificationsComponent&#45;&gt;SafeApplicationNotificationsModule</title>
<path fill="none" stroke="black" d="M478.06,-84.91C478.06,-84.91 478.06,-103.79 478.06,-103.79"/>
<polygon fill="black" stroke="black" points="474.56,-103.79 478.06,-113.79 481.56,-103.79 474.56,-103.79"/>
</g>
<!-- SafeApplicationNotificationsComponent  -->
<g id="node5" class="node">
<title>SafeApplicationNotificationsComponent </title>
<polygon fill="#fb8072" stroke="black" points="501.4,-214.8 252.6,-214.8 252.6,-178.8 501.4,-178.8 501.4,-214.8"/>
<text text-anchor="middle" x="377" y="-192.6" font-family="Times,serif" font-size="14.00">SafeApplicationNotificationsComponent </text>
</g>
<!-- SafeApplicationNotificationsModule&#45;&gt;SafeApplicationNotificationsComponent  -->
<g id="edge4" class="edge">
<title>SafeApplicationNotificationsModule&#45;&gt;SafeApplicationNotificationsComponent </title>
<path fill="none" stroke="black" stroke-dasharray="5,2" d="M377,-149.91C377,-149.91 377,-168.79 377,-168.79"/>
<polygon fill="black" stroke="black" points="373.5,-168.79 377,-178.79 380.5,-168.79 373.5,-168.79"/>
</g>
<!-- NotificationsModule -->
<g id="node3" class="node">
<title>NotificationsModule</title>
<polygon fill="#8dd3c7" stroke="black" points="443.15,-84.8 440.15,-88.8 419.15,-88.8 416.15,-84.8 310.85,-84.8 310.85,-48.8 443.15,-48.8 443.15,-84.8"/>
<text text-anchor="middle" x="377" y="-62.6" font-family="Times,serif" font-size="14.00">NotificationsModule</text>
</g>
<!-- NotificationsModule&#45;&gt;SafeApplicationNotificationsModule -->
<g id="edge2" class="edge">
<title>NotificationsModule&#45;&gt;SafeApplicationNotificationsModule</title>
<path fill="none" stroke="black" d="M377,-84.91C377,-84.91 377,-103.79 377,-103.79"/>
<polygon fill="black" stroke="black" points="373.5,-103.79 377,-113.79 380.5,-103.79 373.5,-103.79"/>
</g>
<!-- SafeApplicationNotificationsRoutingModule -->
<g id="node4" class="node">
<title>SafeApplicationNotificationsRoutingModule</title>
<polygon fill="#8dd3c7" stroke="black" points="292.24,-84.8 289.24,-88.8 268.24,-88.8 265.24,-84.8 23.76,-84.8 23.76,-48.8 292.24,-48.8 292.24,-84.8"/>
<text text-anchor="middle" x="158" y="-62.6" font-family="Times,serif" font-size="14.00">SafeApplicationNotificationsRoutingModule</text>
</g>
<!-- SafeApplicationNotificationsRoutingModule&#45;&gt;SafeApplicationNotificationsModule -->
<g id="edge3" class="edge">
<title>SafeApplicationNotificationsRoutingModule&#45;&gt;SafeApplicationNotificationsModule</title>
<path fill="none" stroke="black" d="M278.78,-84.91C278.78,-84.91 278.78,-103.79 278.78,-103.79"/>
<polygon fill="black" stroke="black" points="275.28,-103.79 278.78,-113.79 282.28,-103.79 275.28,-103.79"/>
</g>
</g>
</svg>
