<?xml version="1.0" encoding="UTF-8" standalone="no"?>
<!DOCTYPE svg PUBLIC "-//W3C//DTD SVG 1.1//EN"
 "http://www.w3.org/Graphics/SVG/1.1/DTD/svg11.dtd">
<!-- Generated by graphviz version 3.0.0 (20220226.1711)
 -->
<!-- Title: dependencies Pages: 1 -->
<svg width="696pt" height="247pt"
 viewBox="0.00 0.00 696.00 246.80" xmlns="http://www.w3.org/2000/svg" xmlns:xlink="http://www.w3.org/1999/xlink">
<g id="graph0" class="graph" transform="scale(1 1) rotate(0) translate(4 242.8)">
<title>dependencies</title>
<polygon fill="white" stroke="transparent" points="-4,4 -4,-242.8 692,-242.8 692,4 -4,4"/>
<text text-anchor="middle" x="344" y="-8.2" font-family="sans-serif" font-size="14.00">dependencies</text>
<g id="clust1" class="cluster">
<title>cluster_DashboardsModule</title>
<polygon fill="none" stroke="black" stroke-dasharray="1,5" points="8,-32.8 8,-230.8 680,-230.8 680,-32.8 8,-32.8"/>
</g>
<g id="clust2" class="cluster">
<title>cluster_DashboardsModule_declarations</title>
<polygon fill="none" stroke="black" points="324,-40.8 324,-92.8 672,-92.8 672,-40.8 324,-40.8"/>
</g>
<g id="clust5" class="cluster">
<title>cluster_DashboardsModule_imports</title>
<polygon fill="none" stroke="black" points="16,-40.8 16,-92.8 316,-92.8 316,-40.8 16,-40.8"/>
</g>
<g id="clust6" class="cluster">
<title>cluster_DashboardsModule_exports</title>
<polygon fill="none" stroke="black" points="231,-170.8 231,-222.8 397,-222.8 397,-170.8 231,-170.8"/>
</g>
<!-- AddDashboardComponent -->
<g id="node1" class="node">
<title>AddDashboardComponent</title>
<polygon fill="#ffffb3" stroke="black" points="664.09,-84.8 497.91,-84.8 497.91,-48.8 664.09,-48.8 664.09,-84.8"/>
<text text-anchor="middle" x="581" y="-62.6" font-family="Times,serif" font-size="14.00">AddDashboardComponent</text>
</g>
<!-- DashboardsModule -->
<g id="node3" class="node">
<title>DashboardsModule</title>
<polygon fill="#8dd3c7" stroke="black" points="376.65,-149.8 373.65,-153.8 352.65,-153.8 349.65,-149.8 251.35,-149.8 251.35,-113.8 376.65,-113.8 376.65,-149.8"/>
<text text-anchor="middle" x="314" y="-127.6" font-family="Times,serif" font-size="14.00">DashboardsModule</text>
</g>
<!-- AddDashboardComponent&#45;&gt;DashboardsModule -->
<g id="edge1" class="edge">
<title>AddDashboardComponent&#45;&gt;DashboardsModule</title>
<path fill="none" stroke="black" d="M581,-84.91C581,-104.14 581,-131.8 581,-131.8 581,-131.8 386.94,-131.8 386.94,-131.8"/>
<polygon fill="black" stroke="black" points="386.94,-128.3 376.94,-131.8 386.94,-135.3 386.94,-128.3"/>
</g>
<!-- DashboardsComponent -->
<g id="node2" class="node">
<title>DashboardsComponent</title>
<polygon fill="#ffffb3" stroke="black" points="479.93,-84.8 332.07,-84.8 332.07,-48.8 479.93,-48.8 479.93,-84.8"/>
<text text-anchor="middle" x="406" y="-62.6" font-family="Times,serif" font-size="14.00">DashboardsComponent</text>
</g>
<!-- DashboardsComponent&#45;&gt;DashboardsModule -->
<g id="edge2" class="edge">
<title>DashboardsComponent&#45;&gt;DashboardsModule</title>
<path fill="none" stroke="black" d="M354.56,-84.91C354.56,-84.91 354.56,-103.79 354.56,-103.79"/>
<polygon fill="black" stroke="black" points="351.06,-103.79 354.56,-113.79 358.06,-103.79 351.06,-103.79"/>
</g>
<!-- DashboardsComponent  -->
<g id="node6" class="node">
<title>DashboardsComponent </title>
<polygon fill="#fb8072" stroke="black" points="389.43,-214.8 238.57,-214.8 238.57,-178.8 389.43,-178.8 389.43,-214.8"/>
<text text-anchor="middle" x="314" y="-192.6" font-family="Times,serif" font-size="14.00">DashboardsComponent </text>
</g>
<!-- DashboardsModule&#45;&gt;DashboardsComponent  -->
<g id="edge5" class="edge">
<title>DashboardsModule&#45;&gt;DashboardsComponent </title>
<path fill="none" stroke="black" stroke-dasharray="5,2" d="M314,-149.91C314,-149.91 314,-168.79 314,-168.79"/>
<polygon fill="black" stroke="black" points="310.5,-168.79 314,-178.79 317.5,-168.79 310.5,-168.79"/>
</g>
<!-- DashboardsRoutingModule -->
<g id="node4" class="node">
<title>DashboardsRoutingModule</title>
<polygon fill="#8dd3c7" stroke="black" points="308.27,-84.8 305.27,-88.8 284.27,-88.8 281.27,-84.8 137.73,-84.8 137.73,-48.8 308.27,-48.8 308.27,-84.8"/>
<text text-anchor="middle" x="223" y="-62.6" font-family="Times,serif" font-size="14.00">DashboardsRoutingModule</text>
</g>
<!-- DashboardsRoutingModule&#45;&gt;DashboardsModule -->
<g id="edge3" class="edge">
<title>DashboardsRoutingModule&#45;&gt;DashboardsModule</title>
<path fill="none" stroke="black" d="M279.78,-84.91C279.78,-84.91 279.78,-103.79 279.78,-103.79"/>
<polygon fill="black" stroke="black" points="276.28,-103.79 279.78,-113.79 283.28,-103.79 276.28,-103.79"/>
</g>
<!-- FormsModule -->
<g id="node5" class="node">
<title>FormsModule</title>
<polygon fill="#8dd3c7" stroke="black" points="119.84,-84.8 116.84,-88.8 95.84,-88.8 92.84,-84.8 24.16,-84.8 24.16,-48.8 119.84,-48.8 119.84,-84.8"/>
<text text-anchor="middle" x="72" y="-62.6" font-family="Times,serif" font-size="14.00">FormsModule</text>
</g>
<!-- FormsModule&#45;&gt;DashboardsModule -->
<g id="edge4" class="edge">
<title>FormsModule&#45;&gt;DashboardsModule</title>
<path fill="none" stroke="black" d="M72,-84.91C72,-104.14 72,-131.8 72,-131.8 72,-131.8 241.05,-131.8 241.05,-131.8"/>
<polygon fill="black" stroke="black" points="241.05,-135.3 251.05,-131.8 241.05,-128.3 241.05,-135.3"/>
</g>
</g>
</svg>
