<?xml version="1.0" encoding="UTF-8" standalone="no"?>
<!DOCTYPE svg PUBLIC "-//W3C//DTD SVG 1.1//EN"
 "http://www.w3.org/Graphics/SVG/1.1/DTD/svg11.dtd">
<!-- Generated by graphviz version 2.47.0 (20210316.0004)
 -->
<!-- Title: dependencies Pages: 1 -->
<svg width="874pt" height="284pt"
 viewBox="0.00 0.00 874.00 284.00" xmlns="http://www.w3.org/2000/svg" xmlns:xlink="http://www.w3.org/1999/xlink">
<g id="graph0" class="graph" transform="scale(1 1) rotate(0) translate(4 280)">
<title>dependencies</title>
<polygon fill="white" stroke="transparent" points="-4,4 -4,-280 870,-280 870,4 -4,4"/>
<text text-anchor="start" x="412.01" y="-42.4" font-family="sans-serif" font-weight="bold" font-size="14.00">Legend</text>
<polygon fill="#ffffb3" stroke="transparent" points="199,-10 199,-30 219,-30 219,-10 199,-10"/>
<text text-anchor="start" x="222.63" y="-15.4" font-family="sans-serif" font-size="14.00"> &#160;Declarations</text>
<polygon fill="#8dd3c7" stroke="transparent" points="312,-10 312,-30 332,-30 332,-10 312,-10"/>
<text text-anchor="start" x="335.73" y="-15.4" font-family="sans-serif" font-size="14.00"> &#160;Module</text>
<polygon fill="#80b1d3" stroke="transparent" points="398,-10 398,-30 418,-30 418,-10 398,-10"/>
<text text-anchor="start" x="421.78" y="-15.4" font-family="sans-serif" font-size="14.00"> &#160;Bootstrap</text>
<polygon fill="#fdb462" stroke="transparent" points="495,-10 495,-30 515,-30 515,-10 495,-10"/>
<text text-anchor="start" x="518.67" y="-15.4" font-family="sans-serif" font-size="14.00"> &#160;Providers</text>
<polygon fill="#fb8072" stroke="transparent" points="591,-10 591,-30 611,-30 611,-10 591,-10"/>
<text text-anchor="start" x="614.73" y="-15.4" font-family="sans-serif" font-size="14.00"> &#160;Exports</text>
<g id="clust1" class="cluster">
<title>cluster_SafeRolesModule</title>
<polygon fill="none" stroke="black" stroke-dasharray="1,5" points="8,-70 8,-268 858,-268 858,-70 8,-70"/>
</g>
<g id="clust7" class="cluster">
<title>cluster_SafeRolesModule_exports</title>
<polygon fill="none" stroke="black" points="353,-208 353,-260 511,-260 511,-208 353,-208"/>
</g>
<g id="clust6" class="cluster">
<title>cluster_SafeRolesModule_imports</title>
<polygon fill="none" stroke="black" points="526,-78 526,-130 850,-130 850,-78 526,-78"/>
</g>
<g id="clust2" class="cluster">
<title>cluster_SafeRolesModule_declarations</title>
<polygon fill="none" stroke="black" points="16,-78 16,-130 518,-130 518,-78 16,-78"/>
</g>
<!-- SafeAddRoleComponent -->
<g id="node1" class="node">
<title>SafeAddRoleComponent</title>
<polygon fill="#ffffb3" stroke="black" points="510.25,-122 353.75,-122 353.75,-86 510.25,-86 510.25,-122"/>
<text text-anchor="middle" x="432" y="-99.8" font-family="Times,serif" font-size="14.00">SafeAddRoleComponent</text>
</g>
<!-- SafeRolesModule -->
<g id="node4" class="node">
<title>SafeRolesModule</title>
<polygon fill="#8dd3c7" stroke="black" points="490.31,-187 487.31,-191 466.31,-191 463.31,-187 373.69,-187 373.69,-151 490.31,-151 490.31,-187"/>
<text text-anchor="middle" x="432" y="-164.8" font-family="Times,serif" font-size="14.00">SafeRolesModule</text>
</g>
<!-- SafeAddRoleComponent&#45;&gt;SafeRolesModule -->
<g id="edge1" class="edge">
<title>SafeAddRoleComponent&#45;&gt;SafeRolesModule</title>
<path fill="none" stroke="black" d="M432,-122.11C432,-122.11 432,-140.99 432,-140.99"/>
<polygon fill="black" stroke="black" points="428.5,-140.99 432,-150.99 435.5,-140.99 428.5,-140.99"/>
</g>
<!-- SafeEditRoleComponent -->
<g id="node2" class="node">
<title>SafeEditRoleComponent</title>
<polygon fill="#ffffb3" stroke="black" points="335.98,-122 180.02,-122 180.02,-86 335.98,-86 335.98,-122"/>
<text text-anchor="middle" x="258" y="-99.8" font-family="Times,serif" font-size="14.00">SafeEditRoleComponent</text>
</g>
<!-- SafeEditRoleComponent&#45;&gt;SafeRolesModule -->
<g id="edge2" class="edge">
<title>SafeEditRoleComponent&#45;&gt;SafeRolesModule</title>
<path fill="none" stroke="black" d="M258,-122.02C258,-139.37 258,-163 258,-163 258,-163 363.58,-163 363.58,-163"/>
<polygon fill="black" stroke="black" points="363.58,-166.5 373.58,-163 363.58,-159.5 363.58,-166.5"/>
</g>
<!-- SafeRolesComponent -->
<g id="node3" class="node">
<title>SafeRolesComponent</title>
<polygon fill="#ffffb3" stroke="black" points="162.09,-122 23.91,-122 23.91,-86 162.09,-86 162.09,-122"/>
<text text-anchor="middle" x="93" y="-99.8" font-family="Times,serif" font-size="14.00">SafeRolesComponent</text>
</g>
<!-- SafeRolesComponent&#45;&gt;SafeRolesModule -->
<g id="edge3" class="edge">
<title>SafeRolesComponent&#45;&gt;SafeRolesModule</title>
<path fill="none" stroke="black" d="M93,-122.28C93,-143.32 93,-175 93,-175 93,-175 363.72,-175 363.72,-175"/>
<polygon fill="black" stroke="black" points="363.72,-178.5 373.72,-175 363.72,-171.5 363.72,-178.5"/>
</g>
<!-- SafeRolesComponent  -->
<g id="node7" class="node">
<title>SafeRolesComponent </title>
<polygon fill="#fb8072" stroke="black" points="502.59,-252 361.41,-252 361.41,-216 502.59,-216 502.59,-252"/>
<text text-anchor="middle" x="432" y="-229.8" font-family="Times,serif" font-size="14.00">SafeRolesComponent </text>
</g>
<!-- SafeRolesModule&#45;&gt;SafeRolesComponent  -->
<g id="edge6" class="edge">
<title>SafeRolesModule&#45;&gt;SafeRolesComponent </title>
<path fill="none" stroke="black" stroke-dasharray="5,2" d="M432,-187.11C432,-187.11 432,-205.99 432,-205.99"/>
<polygon fill="black" stroke="black" points="428.5,-205.99 432,-215.99 435.5,-205.99 428.5,-205.99"/>
</g>
<!-- SafeButtonModule -->
<g id="node5" class="node">
<title>SafeButtonModule</title>
<polygon fill="#8dd3c7" stroke="black" points="842.04,-122 839.04,-126 818.04,-126 815.04,-122 719.96,-122 719.96,-86 842.04,-86 842.04,-122"/>
<text text-anchor="middle" x="781" y="-99.8" font-family="Times,serif" font-size="14.00">SafeButtonModule</text>
</g>
<!-- SafeButtonModule&#45;&gt;SafeRolesModule -->
<g id="edge4" class="edge">
<title>SafeButtonModule&#45;&gt;SafeRolesModule</title>
<path fill="none" stroke="black" d="M781,-122.28C781,-143.32 781,-175 781,-175 781,-175 500.41,-175 500.41,-175"/>
<polygon fill="black" stroke="black" points="500.41,-171.5 490.41,-175 500.41,-178.5 500.41,-171.5"/>
</g>
<!-- SafeConfirmModalModule -->
<g id="node6" class="node">
<title>SafeConfirmModalModule</title>
<polygon fill="#8dd3c7" stroke="black" points="702.41,-122 699.41,-126 678.41,-126 675.41,-122 533.59,-122 533.59,-86 702.41,-86 702.41,-122"/>
<text text-anchor="middle" x="618" y="-99.8" font-family="Times,serif" font-size="14.00">SafeConfirmModalModule</text>
</g>
<!-- SafeConfirmModalModule&#45;&gt;SafeRolesModule -->
<g id="edge5" class="edge">
<title>SafeConfirmModalModule&#45;&gt;SafeRolesModule</title>
<path fill="none" stroke="black" d="M618,-122.02C618,-139.37 618,-163 618,-163 618,-163 500.34,-163 500.34,-163"/>
<polygon fill="black" stroke="black" points="500.34,-159.5 490.34,-163 500.34,-166.5 500.34,-159.5"/>
</g>
</g>
</svg>
