<?xml version="1.0" encoding="UTF-8" standalone="no"?>
<!DOCTYPE svg PUBLIC "-//W3C//DTD SVG 1.1//EN"
 "http://www.w3.org/Graphics/SVG/1.1/DTD/svg11.dtd">
<!-- Generated by graphviz version 3.0.0 (20220226.1711)
 -->
<!-- Title: dependencies Pages: 1 -->
<svg width="680pt" height="312pt"
 viewBox="0.00 0.00 680.00 311.80" xmlns="http://www.w3.org/2000/svg" xmlns:xlink="http://www.w3.org/1999/xlink">
<g id="graph0" class="graph" transform="scale(1 1) rotate(0) translate(4 307.8)">
<title>dependencies</title>
<polygon fill="white" stroke="transparent" points="-4,4 -4,-307.8 676,-307.8 676,4 -4,4"/>
<text text-anchor="middle" x="336" y="-8.2" font-family="sans-serif" font-size="14.00">dependencies</text>
<g id="clust1" class="cluster">
<title>cluster_EditDistributionListModalModule</title>
<polygon fill="none" stroke="black" stroke-dasharray="1,5" points="8,-32.8 8,-295.8 664,-295.8 664,-32.8 8,-32.8"/>
</g>
<g id="clust2" class="cluster">
<title>cluster_EditDistributionListModalModule_declarations</title>
<polygon fill="none" stroke="black" points="213,-105.8 213,-157.8 459,-157.8 459,-105.8 213,-105.8"/>
</g>
<g id="clust5" class="cluster">
<title>cluster_EditDistributionListModalModule_exports</title>
<polygon fill="none" stroke="black" points="308,-235.8 308,-287.8 558,-287.8 558,-235.8 308,-235.8"/>
</g>
<g id="clust4" class="cluster">
<title>cluster_EditDistributionListModalModule_imports</title>
<polygon fill="none" stroke="black" points="467,-105.8 467,-157.8 603,-157.8 603,-105.8 467,-105.8"/>
</g>
<g id="clust3" class="cluster">
<title>cluster_EditDistributionListModalModule_EditDistributionListModalComponent_providers</title>
<polygon fill="none" stroke="black" points="16,-40.8 16,-92.8 656,-92.8 656,-40.8 16,-40.8"/>
</g>
<!-- EditDistributionListModalComponent -->
<g id="node1" class="node">
<title>EditDistributionListModalComponent</title>
<polygon fill="#ffffb3" stroke="black" points="451.16,-149.8 220.84,-149.8 220.84,-113.8 451.16,-113.8 451.16,-149.8"/>
<text text-anchor="middle" x="336" y="-127.6" font-family="Times,serif" font-size="14.00">EditDistributionListModalComponent</text>
</g>
<!-- EditDistributionListModalModule -->
<g id="node2" class="node">
<title>EditDistributionListModalModule</title>
<polygon fill="#8dd3c7" stroke="black" points="537.38,-214.8 534.38,-218.8 513.38,-218.8 510.38,-214.8 328.62,-214.8 328.62,-178.8 537.38,-178.8 537.38,-214.8"/>
<text text-anchor="middle" x="433" y="-192.6" font-family="Times,serif" font-size="14.00">EditDistributionListModalModule</text>
</g>
<!-- EditDistributionListModalComponent&#45;&gt;EditDistributionListModalModule -->
<g id="edge1" class="edge">
<title>EditDistributionListModalComponent&#45;&gt;EditDistributionListModalModule</title>
<path fill="none" stroke="black" d="M389.94,-149.91C389.94,-149.91 389.94,-168.79 389.94,-168.79"/>
<polygon fill="black" stroke="black" points="386.44,-168.79 389.94,-178.79 393.44,-168.79 386.44,-168.79"/>
</g>
<!-- EditDistributionListModalComponent  -->
<g id="node5" class="node">
<title>EditDistributionListModalComponent </title>
<polygon fill="#fb8072" stroke="black" points="550.16,-279.8 315.84,-279.8 315.84,-243.8 550.16,-243.8 550.16,-279.8"/>
<text text-anchor="middle" x="433" y="-257.6" font-family="Times,serif" font-size="14.00">EditDistributionListModalComponent </text>
</g>
<!-- EditDistributionListModalModule&#45;&gt;EditDistributionListModalComponent  -->
<g id="edge4" class="edge">
<title>EditDistributionListModalModule&#45;&gt;EditDistributionListModalComponent </title>
<path fill="none" stroke="black" stroke-dasharray="5,2" d="M433,-214.91C433,-214.91 433,-233.79 433,-233.79"/>
<polygon fill="black" stroke="black" points="429.5,-233.79 433,-243.79 436.5,-233.79 429.5,-233.79"/>
</g>
<!-- { provide: MAT_CHIPS_DEFAULT_OPTIONS, useFactory: codesFactory } -->
<g id="node3" class="node">
<title>{ provide: MAT_CHIPS_DEFAULT_OPTIONS, useFactory: codesFactory }</title>
<ellipse fill="#fdb462" stroke="black" cx="336" cy="-66.8" rx="311.7" ry="18"/>
<text text-anchor="middle" x="336" y="-62.6" font-family="Times,serif" font-size="14.00">{ provide: MAT_CHIPS_DEFAULT_OPTIONS, useFactory: codesFactory }</text>
</g>
<!-- { provide: MAT_CHIPS_DEFAULT_OPTIONS, useFactory: codesFactory }&#45;&gt;EditDistributionListModalComponent -->
<g id="edge2" class="edge">
<title>{ provide: MAT_CHIPS_DEFAULT_OPTIONS, useFactory: codesFactory }&#45;&gt;EditDistributionListModalComponent</title>
<path fill="none" stroke="black" d="M336,-84.91C336,-84.91 336,-103.79 336,-103.79"/>
<polygon fill="black" stroke="black" points="332.5,-103.79 336,-113.79 339.5,-103.79 332.5,-103.79"/>
</g>
<!-- SafeModalModule -->
<g id="node4" class="node">
<title>SafeModalModule</title>
<polygon fill="#8dd3c7" stroke="black" points="595.48,-149.8 592.48,-153.8 571.48,-153.8 568.48,-149.8 474.52,-149.8 474.52,-113.8 595.48,-113.8 595.48,-149.8"/>
<text text-anchor="middle" x="535" y="-127.6" font-family="Times,serif" font-size="14.00">SafeModalModule</text>
</g>
<!-- SafeModalModule&#45;&gt;EditDistributionListModalModule -->
<g id="edge3" class="edge">
<title>SafeModalModule&#45;&gt;EditDistributionListModalModule</title>
<path fill="none" stroke="black" d="M505.98,-149.91C505.98,-149.91 505.98,-168.79 505.98,-168.79"/>
<polygon fill="black" stroke="black" points="502.48,-168.79 505.98,-178.79 509.48,-168.79 502.48,-168.79"/>
</g>
</g>
</svg>
