<?xml version="1.0" encoding="UTF-8" standalone="no"?>
<!DOCTYPE svg PUBLIC "-//W3C//DTD SVG 1.1//EN"
 "http://www.w3.org/Graphics/SVG/1.1/DTD/svg11.dtd">
<!-- Generated by graphviz version 3.0.0 (20220226.1711)
 -->
<!-- Title: dependencies Pages: 1 -->
<svg width="490pt" height="247pt"
 viewBox="0.00 0.00 490.00 246.80" xmlns="http://www.w3.org/2000/svg" xmlns:xlink="http://www.w3.org/1999/xlink">
<g id="graph0" class="graph" transform="scale(1 1) rotate(0) translate(4 242.8)">
<title>dependencies</title>
<polygon fill="white" stroke="transparent" points="-4,4 -4,-242.8 486,-242.8 486,4 -4,4"/>
<text text-anchor="middle" x="241" y="-8.2" font-family="sans-serif" font-size="14.00">dependencies</text>
<g id="clust1" class="cluster">
<title>cluster_AddLayoutModule</title>
<polygon fill="none" stroke="black" stroke-dasharray="1,5" points="8,-32.8 8,-230.8 474,-230.8 474,-32.8 8,-32.8"/>
</g>
<g id="clust2" class="cluster">
<title>cluster_AddLayoutModule_declarations</title>
<polygon fill="none" stroke="black" points="304,-40.8 304,-92.8 466,-92.8 466,-40.8 304,-40.8"/>
</g>
<g id="clust5" class="cluster">
<title>cluster_AddLayoutModule_exports</title>
<polygon fill="none" stroke="black" points="145,-170.8 145,-222.8 309,-222.8 309,-170.8 145,-170.8"/>
</g>
<g id="clust4" class="cluster">
<title>cluster_AddLayoutModule_imports</title>
<polygon fill="none" stroke="black" points="16,-40.8 16,-92.8 296,-92.8 296,-40.8 16,-40.8"/>
</g>
<!-- AddLayoutComponent -->
<g id="node1" class="node">
<title>AddLayoutComponent</title>
<polygon fill="#ffffb3" stroke="black" points="457.6,-84.8 312.4,-84.8 312.4,-48.8 457.6,-48.8 457.6,-84.8"/>
<text text-anchor="middle" x="385" y="-62.6" font-family="Times,serif" font-size="14.00">AddLayoutComponent</text>
</g>
<!-- AddLayoutModule -->
<g id="node2" class="node">
<title>AddLayoutModule</title>
<polygon fill="#8dd3c7" stroke="black" points="288.82,-149.8 285.82,-153.8 264.82,-153.8 261.82,-149.8 165.18,-149.8 165.18,-113.8 288.82,-113.8 288.82,-149.8"/>
<text text-anchor="middle" x="227" y="-127.6" font-family="Times,serif" font-size="14.00">AddLayoutModule</text>
</g>
<!-- AddLayoutComponent&#45;&gt;AddLayoutModule -->
<g id="edge1" class="edge">
<title>AddLayoutComponent&#45;&gt;AddLayoutModule</title>
<path fill="none" stroke="black" d="M385,-84.91C385,-104.14 385,-131.8 385,-131.8 385,-131.8 298.99,-131.8 298.99,-131.8"/>
<polygon fill="black" stroke="black" points="298.99,-128.3 288.99,-131.8 298.99,-135.3 298.99,-128.3"/>
</g>
<!-- AddLayoutComponent  -->
<g id="node5" class="node">
<title>AddLayoutComponent </title>
<polygon fill="#fb8072" stroke="black" points="301.1,-214.8 152.9,-214.8 152.9,-178.8 301.1,-178.8 301.1,-214.8"/>
<text text-anchor="middle" x="227" y="-192.6" font-family="Times,serif" font-size="14.00">AddLayoutComponent </text>
</g>
<!-- AddLayoutModule&#45;&gt;AddLayoutComponent  -->
<g id="edge4" class="edge">
<title>AddLayoutModule&#45;&gt;AddLayoutComponent </title>
<path fill="none" stroke="black" stroke-dasharray="5,2" d="M227,-149.91C227,-149.91 227,-168.79 227,-168.79"/>
<polygon fill="black" stroke="black" points="223.5,-168.79 227,-178.79 230.5,-168.79 223.5,-168.79"/>
</g>
<!-- SafeButtonModule -->
<g id="node3" class="node">
<title>SafeButtonModule</title>
<polygon fill="#8dd3c7" stroke="black" points="288.05,-84.8 285.05,-88.8 264.05,-88.8 261.05,-84.8 165.95,-84.8 165.95,-48.8 288.05,-48.8 288.05,-84.8"/>
<text text-anchor="middle" x="227" y="-62.6" font-family="Times,serif" font-size="14.00">SafeButtonModule</text>
</g>
<!-- SafeButtonModule&#45;&gt;AddLayoutModule -->
<g id="edge2" class="edge">
<title>SafeButtonModule&#45;&gt;AddLayoutModule</title>
<path fill="none" stroke="black" d="M227,-84.91C227,-84.91 227,-103.79 227,-103.79"/>
<polygon fill="black" stroke="black" points="223.5,-103.79 227,-113.79 230.5,-103.79 223.5,-103.79"/>
</g>
<!-- SafeLayoutModule -->
<g id="node4" class="node">
<title>SafeLayoutModule</title>
<polygon fill="#8dd3c7" stroke="black" points="148.08,-84.8 145.08,-88.8 124.08,-88.8 121.08,-84.8 23.92,-84.8 23.92,-48.8 148.08,-48.8 148.08,-84.8"/>
<text text-anchor="middle" x="86" y="-62.6" font-family="Times,serif" font-size="14.00">SafeLayoutModule</text>
</g>
<!-- SafeLayoutModule&#45;&gt;AddLayoutModule -->
<g id="edge3" class="edge">
<title>SafeLayoutModule&#45;&gt;AddLayoutModule</title>
<path fill="none" stroke="black" d="M86,-84.91C86,-104.14 86,-131.8 86,-131.8 86,-131.8 155.16,-131.8 155.16,-131.8"/>
<polygon fill="black" stroke="black" points="155.16,-135.3 165.16,-131.8 155.16,-128.3 155.16,-135.3"/>
</g>
</g>
</svg>
