<?xml version="1.0" encoding="UTF-8" standalone="no"?>
<!DOCTYPE svg PUBLIC "-//W3C//DTD SVG 1.1//EN"
 "http://www.w3.org/Graphics/SVG/1.1/DTD/svg11.dtd">
<!-- Generated by graphviz version 3.0.0 (20220226.1711)
 -->
<!-- Title: dependencies Pages: 1 -->
<svg width="1996pt" height="358pt"
 viewBox="0.00 0.00 1996.00 358.39" xmlns="http://www.w3.org/2000/svg" xmlns:xlink="http://www.w3.org/1999/xlink">
<g id="graph0" class="graph" transform="scale(1 1) rotate(0) translate(4 354.39)">
<title>dependencies</title>
<polygon fill="white" stroke="transparent" points="-4,4 -4,-354.39 1992,-354.39 1992,4 -4,4"/>
<text text-anchor="middle" x="994" y="-8.2" font-family="sans-serif" font-size="14.00">dependencies</text>
<g id="clust1" class="cluster">
<title>cluster_ConfigDisplayGridFieldsModalModule</title>
<polygon fill="none" stroke="black" stroke-dasharray="1,5" points="8,-32.8 8,-342.39 1980,-342.39 1980,-32.8 8,-32.8"/>
</g>
<g id="clust3" class="cluster">
<title>cluster_ConfigDisplayGridFieldsModalModule_ConfigDisplayGridFieldsModalComponent_providers</title>
<polygon fill="none" stroke="black" points="202,-40.8 202,-204.39 1972,-204.39 1972,-40.8 202,-40.8"/>
</g>
<g id="clust4" class="cluster">
<title>cluster_ConfigDisplayGridFieldsModalModule_imports</title>
<polygon fill="none" stroke="black" points="16,-152.39 16,-204.39 194,-204.39 194,-152.39 16,-152.39"/>
</g>
<g id="clust5" class="cluster">
<title>cluster_ConfigDisplayGridFieldsModalModule_exports</title>
<polygon fill="none" stroke="black" points="243,-282.39 243,-334.39 523,-334.39 523,-282.39 243,-282.39"/>
</g>
<!-- ConfigDisplayGridFieldsModalComponent -->
<g id="node1" class="node">
<title>ConfigDisplayGridFieldsModalComponent</title>
<polygon fill="#ffffb3" stroke="black" points="1146.21,-196.39 885.79,-196.39 885.79,-160.39 1146.21,-160.39 1146.21,-196.39"/>
<text text-anchor="middle" x="1016" y="-174.19" font-family="Times,serif" font-size="14.00">ConfigDisplayGridFieldsModalComponent</text>
</g>
<!-- ConfigDisplayGridFieldsModalModule -->
<g id="node2" class="node">
<title>ConfigDisplayGridFieldsModalModule</title>
<polygon fill="#8dd3c7" stroke="black" points="502.43,-261.39 499.43,-265.39 478.43,-265.39 475.43,-261.39 263.57,-261.39 263.57,-225.39 502.43,-225.39 502.43,-261.39"/>
<text text-anchor="middle" x="383" y="-239.19" font-family="Times,serif" font-size="14.00">ConfigDisplayGridFieldsModalModule</text>
</g>
<!-- ConfigDisplayGridFieldsModalComponent&#45;&gt;ConfigDisplayGridFieldsModalModule -->
<g id="edge1" class="edge">
<title>ConfigDisplayGridFieldsModalComponent&#45;&gt;ConfigDisplayGridFieldsModalModule</title>
<path fill="none" stroke="black" d="M885.61,-178.39C700.31,-178.39 383,-178.39 383,-178.39 383,-178.39 383,-215.28 383,-215.28"/>
<polygon fill="black" stroke="black" points="379.5,-215.28 383,-225.28 386.5,-215.28 379.5,-215.28"/>
</g>
<!-- ConfigDisplayGridFieldsModalComponent  -->
<g id="node7" class="node">
<title>ConfigDisplayGridFieldsModalComponent </title>
<polygon fill="#fb8072" stroke="black" points="514.71,-326.39 251.29,-326.39 251.29,-290.39 514.71,-290.39 514.71,-326.39"/>
<text text-anchor="middle" x="383" y="-304.19" font-family="Times,serif" font-size="14.00">ConfigDisplayGridFieldsModalComponent </text>
</g>
<!-- ConfigDisplayGridFieldsModalModule&#45;&gt;ConfigDisplayGridFieldsModalComponent  -->
<g id="edge6" class="edge">
<title>ConfigDisplayGridFieldsModalModule&#45;&gt;ConfigDisplayGridFieldsModalComponent </title>
<path fill="none" stroke="black" stroke-dasharray="5,2" d="M383,-261.5C383,-261.5 383,-280.38 383,-280.38"/>
<polygon fill="black" stroke="black" points="379.5,-280.38 383,-290.38 386.5,-280.38 379.5,-280.38"/>
</g>
<!-- PopupService -->
<g id="node3" class="node">
<title>PopupService</title>
<ellipse fill="#fdb462" stroke="black" cx="1899" cy="-90.1" rx="64.86" ry="18"/>
<text text-anchor="middle" x="1899" y="-85.9" font-family="Times,serif" font-size="14.00">PopupService</text>
</g>
<!-- PopupService&#45;&gt;ConfigDisplayGridFieldsModalComponent -->
<g id="edge2" class="edge">
<title>PopupService&#45;&gt;ConfigDisplayGridFieldsModalComponent</title>
<path fill="none" stroke="black" d="M1899,-108.39C1899,-134.25 1899,-178.39 1899,-178.39 1899,-178.39 1156.29,-178.39 1156.29,-178.39"/>
<polygon fill="black" stroke="black" points="1156.29,-174.89 1146.29,-178.39 1156.29,-181.89 1156.29,-174.89"/>
</g>
<!-- {
 &#160;&#160;&#160;provide: MAT_SELECT_SCROLL_STRATEGY, useFactory: scrollFactory, deps: [Overlay],
} -->
<g id="node4" class="node">
<title>{
 &#160;&#160;&#160;provide: MAT_SELECT_SCROLL_STRATEGY, useFactory: scrollFactory, deps: [Overlay],
}</title>
<ellipse fill="#fdb462" stroke="black" cx="1422" cy="-90.1" rx="394.68" ry="41.09"/>
<text text-anchor="middle" x="1422" y="-102.7" font-family="Times,serif" font-size="14.00">{</text>
<text text-anchor="middle" x="1422" y="-85.9" font-family="Times,serif" font-size="14.00"> &#160;&#160;&#160;provide: MAT_SELECT_SCROLL_STRATEGY, useFactory: scrollFactory, deps: [Overlay],</text>
<text text-anchor="middle" x="1422" y="-69.1" font-family="Times,serif" font-size="14.00">}</text>
</g>
<!-- {
 &#160;&#160;&#160;provide: MAT_SELECT_SCROLL_STRATEGY, useFactory: scrollFactory, deps: [Overlay],
}&#45;&gt;ConfigDisplayGridFieldsModalComponent -->
<g id="edge3" class="edge">
<title>{
 &#160;&#160;&#160;provide: MAT_SELECT_SCROLL_STRATEGY, useFactory: scrollFactory, deps: [Overlay],
}&#45;&gt;ConfigDisplayGridFieldsModalComponent</title>
<path fill="none" stroke="black" d="M1086.76,-111.92C1086.76,-111.92 1086.76,-150.38 1086.76,-150.38"/>
<polygon fill="black" stroke="black" points="1083.26,-150.38 1086.76,-160.38 1090.26,-150.38 1083.26,-150.38"/>
</g>
<!-- {
 &#160;&#160;&#160;provide: MAT_TOOLTIP_SCROLL_STRATEGY, useFactory: scrollFactory, deps: [Overlay],
} -->
<g id="node5" class="node">
<title>{
 &#160;&#160;&#160;provide: MAT_TOOLTIP_SCROLL_STRATEGY, useFactory: scrollFactory, deps: [Overlay],
}</title>
<ellipse fill="#fdb462" stroke="black" cx="610" cy="-90.1" rx="399.57" ry="41.09"/>
<text text-anchor="middle" x="610" y="-102.7" font-family="Times,serif" font-size="14.00">{</text>
<text text-anchor="middle" x="610" y="-85.9" font-family="Times,serif" font-size="14.00"> &#160;&#160;&#160;provide: MAT_TOOLTIP_SCROLL_STRATEGY, useFactory: scrollFactory, deps: [Overlay],</text>
<text text-anchor="middle" x="610" y="-69.1" font-family="Times,serif" font-size="14.00">}</text>
</g>
<!-- {
 &#160;&#160;&#160;provide: MAT_TOOLTIP_SCROLL_STRATEGY, useFactory: scrollFactory, deps: [Overlay],
}&#45;&gt;ConfigDisplayGridFieldsModalComponent -->
<g id="edge4" class="edge">
<title>{
 &#160;&#160;&#160;provide: MAT_TOOLTIP_SCROLL_STRATEGY, useFactory: scrollFactory, deps: [Overlay],
}&#45;&gt;ConfigDisplayGridFieldsModalComponent</title>
<path fill="none" stroke="black" d="M947.71,-112.38C947.71,-112.38 947.71,-150.28 947.71,-150.28"/>
<polygon fill="black" stroke="black" points="944.21,-150.28 947.71,-160.28 951.21,-150.28 944.21,-150.28"/>
</g>
<!-- SafeQueryBuilderModule -->
<g id="node6" class="node">
<title>SafeQueryBuilderModule</title>
<polygon fill="#8dd3c7" stroke="black" points="185.91,-196.39 182.91,-200.39 161.91,-200.39 158.91,-196.39 24.09,-196.39 24.09,-160.39 185.91,-160.39 185.91,-196.39"/>
<text text-anchor="middle" x="105" y="-174.19" font-family="Times,serif" font-size="14.00">SafeQueryBuilderModule</text>
</g>
<!-- SafeQueryBuilderModule&#45;&gt;ConfigDisplayGridFieldsModalModule -->
<g id="edge5" class="edge">
<title>SafeQueryBuilderModule&#45;&gt;ConfigDisplayGridFieldsModalModule</title>
<path fill="none" stroke="black" d="M105,-196.5C105,-215.73 105,-243.39 105,-243.39 105,-243.39 253.49,-243.39 253.49,-243.39"/>
<polygon fill="black" stroke="black" points="253.49,-246.89 263.49,-243.39 253.49,-239.89 253.49,-246.89"/>
</g>
</g>
</svg>
