<?xml version="1.0" encoding="UTF-8" standalone="no"?>
<!DOCTYPE svg PUBLIC "-//W3C//DTD SVG 1.1//EN"
 "http://www.w3.org/Graphics/SVG/1.1/DTD/svg11.dtd">
<!-- Generated by graphviz version 2.47.0 (20210316.0004)
 -->
<!-- Title: dependencies Pages: 1 -->
<svg width="5164pt" height="211pt"
 viewBox="0.00 0.00 5164.00 211.00" xmlns="http://www.w3.org/2000/svg" xmlns:xlink="http://www.w3.org/1999/xlink">
<g id="graph0" class="graph" transform="scale(1 1) rotate(0) translate(4 207)">
<title>dependencies</title>
<polygon fill="white" stroke="transparent" points="-4,4 -4,-207 5160,-207 5160,4 -4,4"/>
<text text-anchor="start" x="2557.01" y="-42.4" font-family="sans-serif" font-weight="bold" font-size="14.00">Legend</text>
<polygon fill="#ffffb3" stroke="transparent" points="2344,-10 2344,-30 2364,-30 2364,-10 2344,-10"/>
<text text-anchor="start" x="2367.63" y="-15.4" font-family="sans-serif" font-size="14.00"> &#160;Declarations</text>
<polygon fill="#8dd3c7" stroke="transparent" points="2457,-10 2457,-30 2477,-30 2477,-10 2457,-10"/>
<text text-anchor="start" x="2480.73" y="-15.4" font-family="sans-serif" font-size="14.00"> &#160;Module</text>
<polygon fill="#80b1d3" stroke="transparent" points="2543,-10 2543,-30 2563,-30 2563,-10 2543,-10"/>
<text text-anchor="start" x="2566.78" y="-15.4" font-family="sans-serif" font-size="14.00"> &#160;Bootstrap</text>
<polygon fill="#fdb462" stroke="transparent" points="2640,-10 2640,-30 2660,-30 2660,-10 2640,-10"/>
<text text-anchor="start" x="2663.67" y="-15.4" font-family="sans-serif" font-size="14.00"> &#160;Providers</text>
<polygon fill="#fb8072" stroke="transparent" points="2736,-10 2736,-30 2756,-30 2756,-10 2736,-10"/>
<text text-anchor="start" x="2759.73" y="-15.4" font-family="sans-serif" font-size="14.00"> &#160;Exports</text>
<g id="clust1" class="cluster">
<title>cluster_SafeModule</title>
<polygon fill="none" stroke="black" stroke-dasharray="1,5" points="8,-70 8,-195 5148,-195 5148,-70 8,-70"/>
</g>
<g id="clust4" class="cluster">
<title>cluster_SafeModule_exports</title>
<polygon fill="none" stroke="black" points="16,-135 16,-187 5140,-187 5140,-135 16,-135"/>
</g>
<!-- SafeAccessModule  -->
<g id="node1" class="node">
<title>SafeAccessModule </title>
<polygon fill="#fb8072" stroke="black" points="5131.56,-179 5004.44,-179 5004.44,-143 5131.56,-143 5131.56,-179"/>
<text text-anchor="middle" x="5068" y="-156.8" font-family="Times,serif" font-size="14.00">SafeAccessModule </text>
</g>
<!-- SafeApplicationsSummaryModule  -->
<g id="node2" class="node">
<title>SafeApplicationsSummaryModule </title>
<polygon fill="#fb8072" stroke="black" points="4985.9,-179 4772.1,-179 4772.1,-143 4985.9,-143 4985.9,-179"/>
<text text-anchor="middle" x="4879" y="-156.8" font-family="Times,serif" font-size="14.00">SafeApplicationsSummaryModule </text>
</g>
<!-- SafeButtonModule  -->
<g id="node3" class="node">
<title>SafeButtonModule </title>
<polygon fill="#fb8072" stroke="black" points="4754.04,-179 4627.96,-179 4627.96,-143 4754.04,-143 4754.04,-179"/>
<text text-anchor="middle" x="4691" y="-156.8" font-family="Times,serif" font-size="14.00">SafeButtonModule </text>
</g>
<!-- SafeChartModule  -->
<g id="node4" class="node">
<title>SafeChartModule </title>
<polygon fill="#fb8072" stroke="black" points="4609.52,-179 4490.48,-179 4490.48,-143 4609.52,-143 4609.52,-179"/>
<text text-anchor="middle" x="4550" y="-156.8" font-family="Times,serif" font-size="14.00">SafeChartModule </text>
</g>
<!-- SafeChartSettingsModule  -->
<g id="node5" class="node">
<title>SafeChartSettingsModule </title>
<polygon fill="#fb8072" stroke="black" points="4472.14,-179 4307.86,-179 4307.86,-143 4472.14,-143 4472.14,-179"/>
<text text-anchor="middle" x="4390" y="-156.8" font-family="Times,serif" font-size="14.00">SafeChartSettingsModule </text>
</g>
<!-- SafeConfirmModalModule  -->
<g id="node6" class="node">
<title>SafeConfirmModalModule </title>
<polygon fill="#fb8072" stroke="black" points="4289.91,-179 4118.09,-179 4118.09,-143 4289.91,-143 4289.91,-179"/>
<text text-anchor="middle" x="4204" y="-156.8" font-family="Times,serif" font-size="14.00">SafeConfirmModalModule </text>
</g>
<!-- SafeContentChoiceModule  -->
<g id="node7" class="node">
<title>SafeContentChoiceModule </title>
<polygon fill="#fb8072" stroke="black" points="4099.91,-179 3928.09,-179 3928.09,-143 4099.91,-143 4099.91,-179"/>
<text text-anchor="middle" x="4014" y="-156.8" font-family="Times,serif" font-size="14.00">SafeContentChoiceModule </text>
</g>
<!-- SafeConvertModalModule  -->
<g id="node8" class="node">
<title>SafeConvertModalModule </title>
<polygon fill="#fb8072" stroke="black" points="3909.57,-179 3740.43,-179 3740.43,-143 3909.57,-143 3909.57,-179"/>
<text text-anchor="middle" x="3825" y="-156.8" font-family="Times,serif" font-size="14.00">SafeConvertModalModule </text>
</g>
<!-- SafeEditorModule  -->
<g id="node9" class="node">
<title>SafeEditorModule </title>
<polygon fill="#fb8072" stroke="black" points="3722.42,-179 3599.58,-179 3599.58,-143 3722.42,-143 3722.42,-179"/>
<text text-anchor="middle" x="3661" y="-156.8" font-family="Times,serif" font-size="14.00">SafeEditorModule </text>
</g>
<!-- SafeEditorSettingsModule  -->
<g id="node10" class="node">
<title>SafeEditorSettingsModule </title>
<polygon fill="#fb8072" stroke="black" points="3582.03,-179 3413.97,-179 3413.97,-143 3582.03,-143 3582.03,-179"/>
<text text-anchor="middle" x="3498" y="-156.8" font-family="Times,serif" font-size="14.00">SafeEditorSettingsModule </text>
</g>
<!-- SafeFormBuilderModule  -->
<g id="node11" class="node">
<title>SafeFormBuilderModule </title>
<polygon fill="#fb8072" stroke="black" points="3396.25,-179 3235.75,-179 3235.75,-143 3396.25,-143 3396.25,-179"/>
<text text-anchor="middle" x="3316" y="-156.8" font-family="Times,serif" font-size="14.00">SafeFormBuilderModule </text>
</g>
<!-- SafeFormModule  -->
<g id="node12" class="node">
<title>SafeFormModule </title>
<polygon fill="#fb8072" stroke="black" points="3218.26,-179 3099.74,-179 3099.74,-143 3218.26,-143 3218.26,-179"/>
<text text-anchor="middle" x="3159" y="-156.8" font-family="Times,serif" font-size="14.00">SafeFormModule </text>
</g>
<!-- SafeGridModule  -->
<g id="node13" class="node">
<title>SafeGridModule </title>
<polygon fill="#fb8072" stroke="black" points="3081.58,-179 2968.42,-179 2968.42,-143 3081.58,-143 3081.58,-179"/>
<text text-anchor="middle" x="3025" y="-156.8" font-family="Times,serif" font-size="14.00">SafeGridModule </text>
</g>
<!-- SafeGridSettingsModule  -->
<g id="node14" class="node">
<title>SafeGridSettingsModule </title>
<polygon fill="#fb8072" stroke="black" points="2950.19,-179 2791.81,-179 2791.81,-143 2950.19,-143 2950.19,-179"/>
<text text-anchor="middle" x="2871" y="-156.8" font-family="Times,serif" font-size="14.00">SafeGridSettingsModule </text>
</g>
<!-- SafeLayoutModule  -->
<g id="node15" class="node">
<title>SafeLayoutModule </title>
<polygon fill="#fb8072" stroke="black" points="2773.58,-179 2646.42,-179 2646.42,-143 2773.58,-143 2773.58,-179"/>
<text text-anchor="middle" x="2710" y="-156.8" font-family="Times,serif" font-size="14.00">SafeLayoutModule </text>
</g>
<!-- SafeMapModule  -->
<g id="node16" class="node">
<title>SafeMapModule </title>
<polygon fill="#fb8072" stroke="black" points="2627.58,-179 2514.42,-179 2514.42,-143 2627.58,-143 2627.58,-179"/>
<text text-anchor="middle" x="2571" y="-156.8" font-family="Times,serif" font-size="14.00">SafeMapModule </text>
</g>
<!-- SafeMapSettingsModule  -->
<g id="node17" class="node">
<title>SafeMapSettingsModule </title>
<polygon fill="#fb8072" stroke="black" points="2496.2,-179 2337.8,-179 2337.8,-143 2496.2,-143 2496.2,-179"/>
<text text-anchor="middle" x="2417" y="-156.8" font-family="Times,serif" font-size="14.00">SafeMapSettingsModule </text>
</g>
<!-- SafePreviousButtonModule  -->
<g id="node18" class="node">
<title>SafePreviousButtonModule </title>
<polygon fill="#fb8072" stroke="black" points="2319.53,-179 2144.47,-179 2144.47,-143 2319.53,-143 2319.53,-179"/>
<text text-anchor="middle" x="2232" y="-156.8" font-family="Times,serif" font-size="14.00">SafePreviousButtonModule </text>
</g>
<!-- SafeProfileModule  -->
<g id="node19" class="node">
<title>SafeProfileModule </title>
<polygon fill="#fb8072" stroke="black" points="2126.02,-179 1999.98,-179 1999.98,-143 2126.02,-143 2126.02,-179"/>
<text text-anchor="middle" x="2063" y="-156.8" font-family="Times,serif" font-size="14.00">SafeProfileModule </text>
</g>
<!-- SafeRecordHistoryModule  -->
<g id="node20" class="node">
<title>SafeRecordHistoryModule </title>
<polygon fill="#fb8072" stroke="black" points="1982.34,-179 1811.66,-179 1811.66,-143 1982.34,-143 1982.34,-179"/>
<text text-anchor="middle" x="1897" y="-156.8" font-family="Times,serif" font-size="14.00">SafeRecordHistoryModule </text>
</g>
<!-- SafeRecordModalModule  -->
<g id="node21" class="node">
<title>SafeRecordModalModule </title>
<polygon fill="#fb8072" stroke="black" points="1793.4,-179 1628.6,-179 1628.6,-143 1793.4,-143 1793.4,-179"/>
<text text-anchor="middle" x="1711" y="-156.8" font-family="Times,serif" font-size="14.00">SafeRecordModalModule </text>
</g>
<!-- SafeRolesModule  -->
<g id="node22" class="node">
<title>SafeRolesModule </title>
<polygon fill="#fb8072" stroke="black" points="1610.81,-179 1491.19,-179 1491.19,-143 1610.81,-143 1610.81,-179"/>
<text text-anchor="middle" x="1551" y="-156.8" font-family="Times,serif" font-size="14.00">SafeRolesModule </text>
</g>
<!-- SafeSchedulerModule  -->
<g id="node23" class="node">
<title>SafeSchedulerModule </title>
<polygon fill="#fb8072" stroke="black" points="1472.9,-179 1329.1,-179 1329.1,-143 1472.9,-143 1472.9,-179"/>
<text text-anchor="middle" x="1401" y="-156.8" font-family="Times,serif" font-size="14.00">SafeSchedulerModule </text>
</g>
<!-- SafeSchedulerSettingsModule  -->
<g id="node24" class="node">
<title>SafeSchedulerSettingsModule </title>
<polygon fill="#fb8072" stroke="black" points="1311.51,-179 1122.49,-179 1122.49,-143 1311.51,-143 1311.51,-179"/>
<text text-anchor="middle" x="1217" y="-156.8" font-family="Times,serif" font-size="14.00">SafeSchedulerSettingsModule </text>
</g>
<!-- SafeSearchResourceGridModalModule  -->
<g id="node25" class="node">
<title>SafeSearchResourceGridModalModule </title>
<polygon fill="#fb8072" stroke="black" points="1104.3,-179 863.7,-179 863.7,-143 1104.3,-143 1104.3,-179"/>
<text text-anchor="middle" x="984" y="-156.8" font-family="Times,serif" font-size="14.00">SafeSearchResourceGridModalModule </text>
</g>
<!-- SafeStatusModalModule  -->
<g id="node26" class="node">
<title>SafeStatusModalModule </title>
<polygon fill="#fb8072" stroke="black" points="846.2,-179 687.8,-179 687.8,-143 846.2,-143 846.2,-179"/>
<text text-anchor="middle" x="767" y="-156.8" font-family="Times,serif" font-size="14.00">SafeStatusModalModule </text>
</g>
<!-- SafeUsersModule  -->
<g id="node27" class="node">
<title>SafeUsersModule </title>
<polygon fill="#fb8072" stroke="black" points="669.79,-179 550.21,-179 550.21,-143 669.79,-143 669.79,-179"/>
<text text-anchor="middle" x="610" y="-156.8" font-family="Times,serif" font-size="14.00">SafeUsersModule </text>
</g>
<!-- SafeWidgetGridModule  -->
<g id="node28" class="node">
<title>SafeWidgetGridModule </title>
<polygon fill="#fb8072" stroke="black" points="532.29,-179 377.71,-179 377.71,-143 532.29,-143 532.29,-179"/>
<text text-anchor="middle" x="455" y="-156.8" font-family="Times,serif" font-size="14.00">SafeWidgetGridModule </text>
</g>
<!-- SafeWidgetModule  -->
<g id="node29" class="node">
<title>SafeWidgetModule </title>
<polygon fill="#fb8072" stroke="black" points="359.63,-179 230.37,-179 230.37,-143 359.63,-143 359.63,-179"/>
<text text-anchor="middle" x="295" y="-156.8" font-family="Times,serif" font-size="14.00">SafeWidgetModule </text>
</g>
<!-- SafeWorkflowStepperModule  -->
<g id="node30" class="node">
<title>SafeWorkflowStepperModule </title>
<polygon fill="#fb8072" stroke="black" points="212.22,-179 23.78,-179 23.78,-143 212.22,-143 212.22,-179"/>
<text text-anchor="middle" x="118" y="-156.8" font-family="Times,serif" font-size="14.00">SafeWorkflowStepperModule </text>
</g>
<!-- SafeModule -->
<g id="node31" class="node">
<title>SafeModule</title>
<polygon fill="#8dd3c7" stroke="black" points="2682.42,-114 2679.42,-118 2658.42,-118 2655.42,-114 2597.58,-114 2597.58,-78 2682.42,-78 2682.42,-114"/>
<text text-anchor="middle" x="2640" y="-91.8" font-family="Times,serif" font-size="14.00">SafeModule</text>
</g>
<!-- SafeModule&#45;&gt;SafeAccessModule  -->
<g id="edge1" class="edge">
<title>SafeModule&#45;&gt;SafeAccessModule </title>
<path fill="none" stroke="black" stroke-dasharray="5,2" d="M2682.4,-81C3005.65,-81 5068,-81 5068,-81 5068,-81 5068,-132.85 5068,-132.85"/>
<polygon fill="black" stroke="black" points="5064.5,-132.85 5068,-142.85 5071.5,-132.85 5064.5,-132.85"/>
</g>
<!-- SafeModule&#45;&gt;SafeApplicationsSummaryModule  -->
<g id="edge2" class="edge">
<title>SafeModule&#45;&gt;SafeApplicationsSummaryModule </title>
<path fill="none" stroke="black" stroke-dasharray="5,2" d="M2682.24,-83C2990.26,-83 4879,-83 4879,-83 4879,-83 4879,-132.91 4879,-132.91"/>
<polygon fill="black" stroke="black" points="4875.5,-132.91 4879,-142.91 4882.5,-132.91 4875.5,-132.91"/>
</g>
<!-- SafeModule&#45;&gt;SafeButtonModule  -->
<g id="edge3" class="edge">
<title>SafeModule&#45;&gt;SafeButtonModule </title>
<path fill="none" stroke="black" stroke-dasharray="5,2" d="M2682.37,-86C2975.54,-86 4691,-86 4691,-86 4691,-86 4691,-132.84 4691,-132.84"/>
<polygon fill="black" stroke="black" points="4687.5,-132.84 4691,-142.84 4694.5,-132.84 4687.5,-132.84"/>
</g>
<!-- SafeModule&#45;&gt;SafeChartModule  -->
<g id="edge4" class="edge">
<title>SafeModule&#45;&gt;SafeChartModule </title>
<path fill="none" stroke="black" stroke-dasharray="5,2" d="M2682.57,-88C2964.39,-88 4550,-88 4550,-88 4550,-88 4550,-132.96 4550,-132.96"/>
<polygon fill="black" stroke="black" points="4546.5,-132.96 4550,-142.96 4553.5,-132.96 4546.5,-132.96"/>
</g>
<!-- SafeModule&#45;&gt;SafeChartSettingsModule  -->
<g id="edge5" class="edge">
<title>SafeModule&#45;&gt;SafeChartSettingsModule </title>
<path fill="none" stroke="black" stroke-dasharray="5,2" d="M2682.39,-90C2949.64,-90 4390,-90 4390,-90 4390,-90 4390,-132.72 4390,-132.72"/>
<polygon fill="black" stroke="black" points="4386.5,-132.72 4390,-142.72 4393.5,-132.72 4386.5,-132.72"/>
</g>
<!-- SafeModule&#45;&gt;SafeConfirmModalModule  -->
<g id="edge6" class="edge">
<title>SafeModule&#45;&gt;SafeConfirmModalModule </title>
<path fill="none" stroke="black" stroke-dasharray="5,2" d="M2682.24,-93C2931.93,-93 4204,-93 4204,-93 4204,-93 4204,-132.78 4204,-132.78"/>
<polygon fill="black" stroke="black" points="4200.5,-132.78 4204,-142.78 4207.5,-132.78 4200.5,-132.78"/>
</g>
<!-- SafeModule&#45;&gt;SafeContentChoiceModule  -->
<g id="edge7" class="edge">
<title>SafeModule&#45;&gt;SafeContentChoiceModule </title>
<path fill="none" stroke="black" stroke-dasharray="5,2" d="M2682.25,-95C2913.34,-95 4014,-95 4014,-95 4014,-95 4014,-132.97 4014,-132.97"/>
<polygon fill="black" stroke="black" points="4010.5,-132.97 4014,-142.97 4017.5,-132.97 4010.5,-132.97"/>
</g>
<!-- SafeModule&#45;&gt;SafeConvertModalModule  -->
<g id="edge8" class="edge">
<title>SafeModule&#45;&gt;SafeConvertModalModule </title>
<path fill="none" stroke="black" stroke-dasharray="5,2" d="M2682.52,-98C2894.3,-98 3825,-98 3825,-98 3825,-98 3825,-132.78 3825,-132.78"/>
<polygon fill="black" stroke="black" points="3821.5,-132.78 3825,-142.78 3828.5,-132.78 3821.5,-132.78"/>
</g>
<!-- SafeModule&#45;&gt;SafeEditorModule  -->
<g id="edge9" class="edge">
<title>SafeModule&#45;&gt;SafeEditorModule </title>
<path fill="none" stroke="black" stroke-dasharray="5,2" d="M2682.25,-100C2874.93,-100 3661,-100 3661,-100 3661,-100 3661,-132.7 3661,-132.7"/>
<polygon fill="black" stroke="black" points="3657.5,-132.7 3661,-142.7 3664.5,-132.7 3657.5,-132.7"/>
</g>
<!-- SafeModule&#45;&gt;SafeEditorSettingsModule  -->
<g id="edge10" class="edge">
<title>SafeModule&#45;&gt;SafeEditorSettingsModule </title>
<path fill="none" stroke="black" stroke-dasharray="5,2" d="M2682.26,-102C2854.95,-102 3498,-102 3498,-102 3498,-102 3498,-132.98 3498,-132.98"/>
<polygon fill="black" stroke="black" points="3494.5,-132.98 3498,-142.98 3501.5,-132.98 3494.5,-132.98"/>
</g>
<!-- SafeModule&#45;&gt;SafeFormBuilderModule  -->
<g id="edge11" class="edge">
<title>SafeModule&#45;&gt;SafeFormBuilderModule </title>
<path fill="none" stroke="black" stroke-dasharray="5,2" d="M2682.29,-105C2830.28,-105 3316,-105 3316,-105 3316,-105 3316,-132.97 3316,-132.97"/>
<polygon fill="black" stroke="black" points="3312.5,-132.97 3316,-142.97 3319.5,-132.97 3312.5,-132.97"/>
</g>
<!-- SafeModule&#45;&gt;SafeFormModule  -->
<g id="edge12" class="edge">
<title>SafeModule&#45;&gt;SafeFormModule </title>
<path fill="none" stroke="black" stroke-dasharray="5,2" d="M2682.47,-107C2806.42,-107 3159,-107 3159,-107 3159,-107 3159,-132.72 3159,-132.72"/>
<polygon fill="black" stroke="black" points="3155.5,-132.72 3159,-142.72 3162.5,-132.72 3155.5,-132.72"/>
</g>
<!-- SafeModule&#45;&gt;SafeGridModule  -->
<g id="edge13" class="edge">
<title>SafeModule&#45;&gt;SafeGridModule </title>
<path fill="none" stroke="black" stroke-dasharray="5,2" d="M2682.3,-110C2782.32,-110 3025,-110 3025,-110 3025,-110 3025,-132.88 3025,-132.88"/>
<polygon fill="black" stroke="black" points="3021.5,-132.88 3025,-142.88 3028.5,-132.88 3021.5,-132.88"/>
</g>
<!-- SafeModule&#45;&gt;SafeGridSettingsModule  -->
<g id="edge14" class="edge">
<title>SafeModule&#45;&gt;SafeGridSettingsModule </title>
<path fill="none" stroke="black" stroke-dasharray="5,2" d="M2682.37,-112C2749.06,-112 2871,-112 2871,-112 2871,-112 2871,-132.75 2871,-132.75"/>
<polygon fill="black" stroke="black" points="2867.5,-132.75 2871,-142.75 2874.5,-132.75 2867.5,-132.75"/>
</g>
<!-- SafeModule&#45;&gt;SafeLayoutModule  -->
<g id="edge15" class="edge">
<title>SafeModule&#45;&gt;SafeLayoutModule </title>
<path fill="none" stroke="black" stroke-dasharray="5,2" d="M2664.21,-114.11C2664.21,-114.11 2664.21,-132.99 2664.21,-132.99"/>
<polygon fill="black" stroke="black" points="2660.71,-132.99 2664.21,-142.99 2667.71,-132.99 2660.71,-132.99"/>
</g>
<!-- SafeModule&#45;&gt;SafeMapModule  -->
<g id="edge16" class="edge">
<title>SafeModule&#45;&gt;SafeMapModule </title>
<path fill="none" stroke="black" stroke-dasharray="5,2" d="M2612.79,-114.11C2612.79,-114.11 2612.79,-132.99 2612.79,-132.99"/>
<polygon fill="black" stroke="black" points="2609.29,-132.99 2612.79,-142.99 2616.29,-132.99 2609.29,-132.99"/>
</g>
<!-- SafeModule&#45;&gt;SafeMapSettingsModule  -->
<g id="edge17" class="edge">
<title>SafeModule&#45;&gt;SafeMapSettingsModule </title>
<path fill="none" stroke="black" stroke-dasharray="5,2" d="M2597.53,-112C2532.83,-112 2417,-112 2417,-112 2417,-112 2417,-132.75 2417,-132.75"/>
<polygon fill="black" stroke="black" points="2413.5,-132.75 2417,-142.75 2420.5,-132.75 2413.5,-132.75"/>
</g>
<!-- SafeModule&#45;&gt;SafePreviousButtonModule  -->
<g id="edge18" class="edge">
<title>SafeModule&#45;&gt;SafePreviousButtonModule </title>
<path fill="none" stroke="black" stroke-dasharray="5,2" d="M2597.49,-110C2492.99,-110 2232,-110 2232,-110 2232,-110 2232,-132.88 2232,-132.88"/>
<polygon fill="black" stroke="black" points="2228.5,-132.88 2232,-142.88 2235.5,-132.88 2228.5,-132.88"/>
</g>
<!-- SafeModule&#45;&gt;SafeProfileModule  -->
<g id="edge19" class="edge">
<title>SafeModule&#45;&gt;SafeProfileModule </title>
<path fill="none" stroke="black" stroke-dasharray="5,2" d="M2597.57,-107C2464.32,-107 2063,-107 2063,-107 2063,-107 2063,-132.72 2063,-132.72"/>
<polygon fill="black" stroke="black" points="2059.5,-132.72 2063,-142.72 2066.5,-132.72 2059.5,-132.72"/>
</g>
<!-- SafeModule&#45;&gt;SafeRecordHistoryModule  -->
<g id="edge20" class="edge">
<title>SafeModule&#45;&gt;SafeRecordHistoryModule </title>
<path fill="none" stroke="black" stroke-dasharray="5,2" d="M2597.65,-105C2440.13,-105 1897,-105 1897,-105 1897,-105 1897,-132.97 1897,-132.97"/>
<polygon fill="black" stroke="black" points="1893.5,-132.97 1897,-142.97 1900.5,-132.97 1893.5,-132.97"/>
</g>
<!-- SafeModule&#45;&gt;SafeRecordModalModule  -->
<g id="edge21" class="edge">
<title>SafeModule&#45;&gt;SafeRecordModalModule </title>
<path fill="none" stroke="black" stroke-dasharray="5,2" d="M2597.67,-102C2415.93,-102 1711,-102 1711,-102 1711,-102 1711,-132.98 1711,-132.98"/>
<polygon fill="black" stroke="black" points="1707.5,-132.98 1711,-142.98 1714.5,-132.98 1707.5,-132.98"/>
</g>
<!-- SafeModule&#45;&gt;SafeRolesModule  -->
<g id="edge22" class="edge">
<title>SafeModule&#45;&gt;SafeRolesModule </title>
<path fill="none" stroke="black" stroke-dasharray="5,2" d="M2597.64,-100C2396.91,-100 1551,-100 1551,-100 1551,-100 1551,-132.7 1551,-132.7"/>
<polygon fill="black" stroke="black" points="1547.5,-132.7 1551,-142.7 1554.5,-132.7 1547.5,-132.7"/>
</g>
<!-- SafeModule&#45;&gt;SafeSchedulerModule  -->
<g id="edge23" class="edge">
<title>SafeModule&#45;&gt;SafeSchedulerModule </title>
<path fill="none" stroke="black" stroke-dasharray="5,2" d="M2597.71,-98C2380.56,-98 1401,-98 1401,-98 1401,-98 1401,-132.78 1401,-132.78"/>
<polygon fill="black" stroke="black" points="1397.5,-132.78 1401,-142.78 1404.5,-132.78 1397.5,-132.78"/>
</g>
<!-- SafeModule&#45;&gt;SafeSchedulerSettingsModule  -->
<g id="edge24" class="edge">
<title>SafeModule&#45;&gt;SafeSchedulerSettingsModule </title>
<path fill="none" stroke="black" stroke-dasharray="5,2" d="M2597.41,-95C2360.64,-95 1217,-95 1217,-95 1217,-95 1217,-132.97 1217,-132.97"/>
<polygon fill="black" stroke="black" points="1213.5,-132.97 1217,-142.97 1220.5,-132.97 1213.5,-132.97"/>
</g>
<!-- SafeModule&#45;&gt;SafeSearchResourceGridModalModule  -->
<g id="edge25" class="edge">
<title>SafeModule&#45;&gt;SafeSearchResourceGridModalModule </title>
<path fill="none" stroke="black" stroke-dasharray="5,2" d="M2597.4,-93C2338.2,-93 984,-93 984,-93 984,-93 984,-132.78 984,-132.78"/>
<polygon fill="black" stroke="black" points="980.5,-132.78 984,-142.78 987.5,-132.78 980.5,-132.78"/>
</g>
<!-- SafeModule&#45;&gt;SafeStatusModalModule  -->
<g id="edge26" class="edge">
<title>SafeModule&#45;&gt;SafeStatusModalModule </title>
<path fill="none" stroke="black" stroke-dasharray="5,2" d="M2597.36,-90C2318.56,-90 767,-90 767,-90 767,-90 767,-132.72 767,-132.72"/>
<polygon fill="black" stroke="black" points="763.5,-132.72 767,-142.72 770.5,-132.72 763.5,-132.72"/>
</g>
<!-- SafeModule&#45;&gt;SafeUsersModule  -->
<g id="edge27" class="edge">
<title>SafeModule&#45;&gt;SafeUsersModule </title>
<path fill="none" stroke="black" stroke-dasharray="5,2" d="M2597.6,-88C2306.09,-88 610,-88 610,-88 610,-88 610,-132.96 610,-132.96"/>
<polygon fill="black" stroke="black" points="606.5,-132.96 610,-142.96 613.5,-132.96 606.5,-132.96"/>
</g>
<!-- SafeModule&#45;&gt;SafeWidgetGridModule  -->
<g id="edge28" class="edge">
<title>SafeModule&#45;&gt;SafeWidgetGridModule </title>
<path fill="none" stroke="black" stroke-dasharray="5,2" d="M2597.33,-86C2292.31,-86 455,-86 455,-86 455,-86 455,-132.84 455,-132.84"/>
<polygon fill="black" stroke="black" points="451.5,-132.84 455,-142.84 458.5,-132.84 451.5,-132.84"/>
</g>
<!-- SafeModule&#45;&gt;SafeWidgetModule  -->
<g id="edge29" class="edge">
<title>SafeModule&#45;&gt;SafeWidgetModule </title>
<path fill="none" stroke="black" stroke-dasharray="5,2" d="M2597.55,-83C2280.52,-83 295,-83 295,-83 295,-83 295,-132.91 295,-132.91"/>
<polygon fill="black" stroke="black" points="291.5,-132.91 295,-142.91 298.5,-132.91 291.5,-132.91"/>
</g>
<!-- SafeModule&#45;&gt;SafeWorkflowStepperModule  -->
<g id="edge30" class="edge">
<title>SafeModule&#45;&gt;SafeWorkflowStepperModule </title>
<path fill="none" stroke="black" stroke-dasharray="5,2" d="M2597.55,-81C2267.01,-81 118,-81 118,-81 118,-81 118,-132.85 118,-132.85"/>
<polygon fill="black" stroke="black" points="114.5,-132.85 118,-142.85 121.5,-132.85 114.5,-132.85"/>
</g>
</g>
</svg>
