<?xml version="1.0" encoding="UTF-8" standalone="no"?>
<!DOCTYPE svg PUBLIC "-//W3C//DTD SVG 1.1//EN"
 "http://www.w3.org/Graphics/SVG/1.1/DTD/svg11.dtd">
<!-- Generated by graphviz version 2.47.0 (20210316.0004)
 -->
<!-- Title: dependencies Pages: 1 -->
<svg width="4391pt" height="211pt"
 viewBox="0.00 0.00 4391.00 211.00" xmlns="http://www.w3.org/2000/svg" xmlns:xlink="http://www.w3.org/1999/xlink">
<g id="graph0" class="graph" transform="scale(1 1) rotate(0) translate(4 207)">
<title>dependencies</title>
<polygon fill="white" stroke="transparent" points="-4,4 -4,-207 4387,-207 4387,4 -4,4"/>
<text text-anchor="start" x="2170.51" y="-42.4" font-family="sans-serif" font-weight="bold" font-size="14.00">Legend</text>
<polygon fill="#ffffb3" stroke="transparent" points="1957.5,-10 1957.5,-30 1977.5,-30 1977.5,-10 1957.5,-10"/>
<text text-anchor="start" x="1981.13" y="-15.4" font-family="sans-serif" font-size="14.00"> &#160;Declarations</text>
<polygon fill="#8dd3c7" stroke="transparent" points="2070.5,-10 2070.5,-30 2090.5,-30 2090.5,-10 2070.5,-10"/>
<text text-anchor="start" x="2094.23" y="-15.4" font-family="sans-serif" font-size="14.00"> &#160;Module</text>
<polygon fill="#80b1d3" stroke="transparent" points="2156.5,-10 2156.5,-30 2176.5,-30 2176.5,-10 2156.5,-10"/>
<text text-anchor="start" x="2180.28" y="-15.4" font-family="sans-serif" font-size="14.00"> &#160;Bootstrap</text>
<polygon fill="#fdb462" stroke="transparent" points="2253.5,-10 2253.5,-30 2273.5,-30 2273.5,-10 2253.5,-10"/>
<text text-anchor="start" x="2277.17" y="-15.4" font-family="sans-serif" font-size="14.00"> &#160;Providers</text>
<polygon fill="#fb8072" stroke="transparent" points="2349.5,-10 2349.5,-30 2369.5,-30 2369.5,-10 2349.5,-10"/>
<text text-anchor="start" x="2373.23" y="-15.4" font-family="sans-serif" font-size="14.00"> &#160;Exports</text>
<g id="clust1" class="cluster">
<title>cluster_SafeModule</title>
<polygon fill="none" stroke="black" stroke-dasharray="1,5" points="8,-70 8,-195 4375,-195 4375,-70 8,-70"/>
</g>
<g id="clust4" class="cluster">
<title>cluster_SafeModule_exports</title>
<polygon fill="none" stroke="black" points="16,-135 16,-187 4367,-187 4367,-135 16,-135"/>
</g>
<!-- SafeAccessModule  -->
<g id="node1" class="node">
<title>SafeAccessModule </title>
<polygon fill="#fb8072" stroke="black" points="4358.56,-179 4231.44,-179 4231.44,-143 4358.56,-143 4358.56,-179"/>
<text text-anchor="middle" x="4295" y="-156.8" font-family="Times,serif" font-size="14.00">SafeAccessModule </text>
</g>
<!-- SafeChartModule  -->
<g id="node2" class="node">
<title>SafeChartModule </title>
<polygon fill="#fb8072" stroke="black" points="4213.52,-179 4094.48,-179 4094.48,-143 4213.52,-143 4213.52,-179"/>
<text text-anchor="middle" x="4154" y="-156.8" font-family="Times,serif" font-size="14.00">SafeChartModule </text>
</g>
<!-- SafeChartSettingsModule  -->
<g id="node3" class="node">
<title>SafeChartSettingsModule </title>
<polygon fill="#fb8072" stroke="black" points="4076.14,-179 3911.86,-179 3911.86,-143 4076.14,-143 4076.14,-179"/>
<text text-anchor="middle" x="3994" y="-156.8" font-family="Times,serif" font-size="14.00">SafeChartSettingsModule </text>
</g>
<!-- SafeConfirmModalModule  -->
<g id="node4" class="node">
<title>SafeConfirmModalModule </title>
<polygon fill="#fb8072" stroke="black" points="3893.91,-179 3722.09,-179 3722.09,-143 3893.91,-143 3893.91,-179"/>
<text text-anchor="middle" x="3808" y="-156.8" font-family="Times,serif" font-size="14.00">SafeConfirmModalModule </text>
</g>
<!-- SafeConvertModalModule  -->
<g id="node5" class="node">
<title>SafeConvertModalModule </title>
<polygon fill="#fb8072" stroke="black" points="3703.57,-179 3534.43,-179 3534.43,-143 3703.57,-143 3703.57,-179"/>
<text text-anchor="middle" x="3619" y="-156.8" font-family="Times,serif" font-size="14.00">SafeConvertModalModule </text>
</g>
<!-- SafeEditorModule  -->
<g id="node6" class="node">
<title>SafeEditorModule </title>
<polygon fill="#fb8072" stroke="black" points="3516.42,-179 3393.58,-179 3393.58,-143 3516.42,-143 3516.42,-179"/>
<text text-anchor="middle" x="3455" y="-156.8" font-family="Times,serif" font-size="14.00">SafeEditorModule </text>
</g>
<!-- SafeEditorSettingsModule  -->
<g id="node7" class="node">
<title>SafeEditorSettingsModule </title>
<polygon fill="#fb8072" stroke="black" points="3376.03,-179 3207.97,-179 3207.97,-143 3376.03,-143 3376.03,-179"/>
<text text-anchor="middle" x="3292" y="-156.8" font-family="Times,serif" font-size="14.00">SafeEditorSettingsModule </text>
</g>
<!-- SafeFormBuilderModule  -->
<g id="node8" class="node">
<title>SafeFormBuilderModule </title>
<polygon fill="#fb8072" stroke="black" points="3190.25,-179 3029.75,-179 3029.75,-143 3190.25,-143 3190.25,-179"/>
<text text-anchor="middle" x="3110" y="-156.8" font-family="Times,serif" font-size="14.00">SafeFormBuilderModule </text>
</g>
<!-- SafeFormModule  -->
<g id="node9" class="node">
<title>SafeFormModule </title>
<polygon fill="#fb8072" stroke="black" points="3012.26,-179 2893.74,-179 2893.74,-143 3012.26,-143 3012.26,-179"/>
<text text-anchor="middle" x="2953" y="-156.8" font-family="Times,serif" font-size="14.00">SafeFormModule </text>
</g>
<!-- SafeGridModule  -->
<g id="node10" class="node">
<title>SafeGridModule </title>
<polygon fill="#fb8072" stroke="black" points="2875.58,-179 2762.42,-179 2762.42,-143 2875.58,-143 2875.58,-179"/>
<text text-anchor="middle" x="2819" y="-156.8" font-family="Times,serif" font-size="14.00">SafeGridModule </text>
</g>
<!-- SafeGridSettingsModule  -->
<g id="node11" class="node">
<title>SafeGridSettingsModule </title>
<polygon fill="#fb8072" stroke="black" points="2744.19,-179 2585.81,-179 2585.81,-143 2744.19,-143 2744.19,-179"/>
<text text-anchor="middle" x="2665" y="-156.8" font-family="Times,serif" font-size="14.00">SafeGridSettingsModule </text>
</g>
<!-- SafeLayoutModule  -->
<g id="node12" class="node">
<title>SafeLayoutModule </title>
<polygon fill="#fb8072" stroke="black" points="2567.58,-179 2440.42,-179 2440.42,-143 2567.58,-143 2567.58,-179"/>
<text text-anchor="middle" x="2504" y="-156.8" font-family="Times,serif" font-size="14.00">SafeLayoutModule </text>
</g>
<!-- SafeMapModule  -->
<g id="node13" class="node">
<title>SafeMapModule </title>
<polygon fill="#fb8072" stroke="black" points="2421.58,-179 2308.42,-179 2308.42,-143 2421.58,-143 2421.58,-179"/>
<text text-anchor="middle" x="2365" y="-156.8" font-family="Times,serif" font-size="14.00">SafeMapModule </text>
</g>
<!-- SafeMapSettingsModule  -->
<g id="node14" class="node">
<title>SafeMapSettingsModule </title>
<polygon fill="#fb8072" stroke="black" points="2290.2,-179 2131.8,-179 2131.8,-143 2290.2,-143 2290.2,-179"/>
<text text-anchor="middle" x="2211" y="-156.8" font-family="Times,serif" font-size="14.00">SafeMapSettingsModule </text>
</g>
<!-- SafePreviousButtonModule  -->
<g id="node15" class="node">
<title>SafePreviousButtonModule </title>
<polygon fill="#fb8072" stroke="black" points="2113.53,-179 1938.47,-179 1938.47,-143 2113.53,-143 2113.53,-179"/>
<text text-anchor="middle" x="2026" y="-156.8" font-family="Times,serif" font-size="14.00">SafePreviousButtonModule </text>
</g>
<!-- SafeProfileModule  -->
<g id="node16" class="node">
<title>SafeProfileModule </title>
<polygon fill="#fb8072" stroke="black" points="1920.02,-179 1793.98,-179 1793.98,-143 1920.02,-143 1920.02,-179"/>
<text text-anchor="middle" x="1857" y="-156.8" font-family="Times,serif" font-size="14.00">SafeProfileModule </text>
</g>
<!-- SafeRecordHistoryModule  -->
<g id="node17" class="node">
<title>SafeRecordHistoryModule </title>
<polygon fill="#fb8072" stroke="black" points="1776.34,-179 1605.66,-179 1605.66,-143 1776.34,-143 1776.34,-179"/>
<text text-anchor="middle" x="1691" y="-156.8" font-family="Times,serif" font-size="14.00">SafeRecordHistoryModule </text>
</g>
<!-- SafeRecordModalModule  -->
<g id="node18" class="node">
<title>SafeRecordModalModule </title>
<polygon fill="#fb8072" stroke="black" points="1587.4,-179 1422.6,-179 1422.6,-143 1587.4,-143 1587.4,-179"/>
<text text-anchor="middle" x="1505" y="-156.8" font-family="Times,serif" font-size="14.00">SafeRecordModalModule </text>
</g>
<!-- SafeRolesModule  -->
<g id="node19" class="node">
<title>SafeRolesModule </title>
<polygon fill="#fb8072" stroke="black" points="1404.81,-179 1285.19,-179 1285.19,-143 1404.81,-143 1404.81,-179"/>
<text text-anchor="middle" x="1345" y="-156.8" font-family="Times,serif" font-size="14.00">SafeRolesModule </text>
</g>
<!-- SafeSchedulerModule  -->
<g id="node20" class="node">
<title>SafeSchedulerModule </title>
<polygon fill="#fb8072" stroke="black" points="1266.9,-179 1123.1,-179 1123.1,-143 1266.9,-143 1266.9,-179"/>
<text text-anchor="middle" x="1195" y="-156.8" font-family="Times,serif" font-size="14.00">SafeSchedulerModule </text>
</g>
<!-- SafeSchedulerSettingsModule  -->
<g id="node21" class="node">
<title>SafeSchedulerSettingsModule </title>
<polygon fill="#fb8072" stroke="black" points="1105.51,-179 916.49,-179 916.49,-143 1105.51,-143 1105.51,-179"/>
<text text-anchor="middle" x="1011" y="-156.8" font-family="Times,serif" font-size="14.00">SafeSchedulerSettingsModule </text>
</g>
<!-- SafeSearchResourceGridModalModule  -->
<g id="node22" class="node">
<title>SafeSearchResourceGridModalModule </title>
<polygon fill="#fb8072" stroke="black" points="898.3,-179 657.7,-179 657.7,-143 898.3,-143 898.3,-179"/>
<text text-anchor="middle" x="778" y="-156.8" font-family="Times,serif" font-size="14.00">SafeSearchResourceGridModalModule </text>
</g>
<!-- SafeStatusModalModule  -->
<g id="node23" class="node">
<title>SafeStatusModalModule </title>
<polygon fill="#fb8072" stroke="black" points="640.2,-179 481.8,-179 481.8,-143 640.2,-143 640.2,-179"/>
<text text-anchor="middle" x="561" y="-156.8" font-family="Times,serif" font-size="14.00">SafeStatusModalModule </text>
</g>
<!-- SafeUsersModule  -->
<g id="node24" class="node">
<title>SafeUsersModule </title>
<polygon fill="#fb8072" stroke="black" points="463.79,-179 344.21,-179 344.21,-143 463.79,-143 463.79,-179"/>
<text text-anchor="middle" x="404" y="-156.8" font-family="Times,serif" font-size="14.00">SafeUsersModule </text>
</g>
<!-- SafeWidgetGridModule  -->
<g id="node25" class="node">
<title>SafeWidgetGridModule </title>
<polygon fill="#fb8072" stroke="black" points="326.29,-179 171.71,-179 171.71,-143 326.29,-143 326.29,-179"/>
<text text-anchor="middle" x="249" y="-156.8" font-family="Times,serif" font-size="14.00">SafeWidgetGridModule </text>
</g>
<!-- SafeWidgetModule  -->
<g id="node26" class="node">
<title>SafeWidgetModule </title>
<polygon fill="#fb8072" stroke="black" points="153.63,-179 24.37,-179 24.37,-143 153.63,-143 153.63,-179"/>
<text text-anchor="middle" x="89" y="-156.8" font-family="Times,serif" font-size="14.00">SafeWidgetModule </text>
</g>
<!-- SafeModule -->
<g id="node27" class="node">
<title>SafeModule</title>
<polygon fill="#8dd3c7" stroke="black" points="2330.42,-114 2327.42,-118 2306.42,-118 2303.42,-114 2245.58,-114 2245.58,-78 2330.42,-78 2330.42,-114"/>
<text text-anchor="middle" x="2288" y="-91.8" font-family="Times,serif" font-size="14.00">SafeModule</text>
</g>
<!-- SafeModule&#45;&gt;SafeAccessModule  -->
<g id="edge1" class="edge">
<title>SafeModule&#45;&gt;SafeAccessModule </title>
<path fill="none" stroke="black" stroke-dasharray="5,2" d="M2330.38,-81C2619.92,-81 4295,-81 4295,-81 4295,-81 4295,-132.85 4295,-132.85"/>
<polygon fill="black" stroke="black" points="4291.5,-132.85 4295,-142.85 4298.5,-132.85 4291.5,-132.85"/>
</g>
<!-- SafeModule&#45;&gt;SafeChartModule  -->
<g id="edge2" class="edge">
<title>SafeModule&#45;&gt;SafeChartModule </title>
<path fill="none" stroke="black" stroke-dasharray="5,2" d="M2330.48,-84C2608.23,-84 4154,-84 4154,-84 4154,-84 4154,-132.75 4154,-132.75"/>
<polygon fill="black" stroke="black" points="4150.5,-132.75 4154,-142.75 4157.5,-132.75 4150.5,-132.75"/>
</g>
<!-- SafeModule&#45;&gt;SafeChartSettingsModule  -->
<g id="edge3" class="edge">
<title>SafeModule&#45;&gt;SafeChartSettingsModule </title>
<path fill="none" stroke="black" stroke-dasharray="5,2" d="M2330.6,-87C2594.39,-87 3994,-87 3994,-87 3994,-87 3994,-132.71 3994,-132.71"/>
<polygon fill="black" stroke="black" points="3990.5,-132.71 3994,-142.71 3997.5,-132.71 3990.5,-132.71"/>
</g>
<!-- SafeModule&#45;&gt;SafeConfirmModalModule  -->
<g id="edge4" class="edge">
<title>SafeModule&#45;&gt;SafeConfirmModalModule </title>
<path fill="none" stroke="black" stroke-dasharray="5,2" d="M2330.24,-90C2575.73,-90 3808,-90 3808,-90 3808,-90 3808,-132.72 3808,-132.72"/>
<polygon fill="black" stroke="black" points="3804.5,-132.72 3808,-142.72 3811.5,-132.72 3804.5,-132.72"/>
</g>
<!-- SafeModule&#45;&gt;SafeConvertModalModule  -->
<g id="edge5" class="edge">
<title>SafeModule&#45;&gt;SafeConvertModalModule </title>
<path fill="none" stroke="black" stroke-dasharray="5,2" d="M2330.4,-92C2557.44,-92 3619,-92 3619,-92 3619,-92 3619,-132.87 3619,-132.87"/>
<polygon fill="black" stroke="black" points="3615.5,-132.87 3619,-142.87 3622.5,-132.87 3615.5,-132.87"/>
</g>
<!-- SafeModule&#45;&gt;SafeEditorModule  -->
<g id="edge6" class="edge">
<title>SafeModule&#45;&gt;SafeEditorModule </title>
<path fill="none" stroke="black" stroke-dasharray="5,2" d="M2330.22,-95C2539.44,-95 3455,-95 3455,-95 3455,-95 3455,-132.97 3455,-132.97"/>
<polygon fill="black" stroke="black" points="3451.5,-132.97 3455,-142.97 3458.5,-132.97 3451.5,-132.97"/>
</g>
<!-- SafeModule&#45;&gt;SafeEditorSettingsModule  -->
<g id="edge7" class="edge">
<title>SafeModule&#45;&gt;SafeEditorSettingsModule </title>
<path fill="none" stroke="black" stroke-dasharray="5,2" d="M2330.5,-98C2521.6,-98 3292,-98 3292,-98 3292,-98 3292,-132.78 3292,-132.78"/>
<polygon fill="black" stroke="black" points="3288.5,-132.78 3292,-142.78 3295.5,-132.78 3288.5,-132.78"/>
</g>
<!-- SafeModule&#45;&gt;SafeFormBuilderModule  -->
<g id="edge8" class="edge">
<title>SafeModule&#45;&gt;SafeFormBuilderModule </title>
<path fill="none" stroke="black" stroke-dasharray="5,2" d="M2330.46,-101C2498.79,-101 3110,-101 3110,-101 3110,-101 3110,-133 3110,-133"/>
<polygon fill="black" stroke="black" points="3106.5,-133 3110,-143 3113.5,-133 3106.5,-133"/>
</g>
<!-- SafeModule&#45;&gt;SafeFormModule  -->
<g id="edge9" class="edge">
<title>SafeModule&#45;&gt;SafeFormModule </title>
<path fill="none" stroke="black" stroke-dasharray="5,2" d="M2330.36,-103C2476.83,-103 2953,-103 2953,-103 2953,-103 2953,-132.97 2953,-132.97"/>
<polygon fill="black" stroke="black" points="2949.5,-132.97 2953,-142.97 2956.5,-132.97 2949.5,-132.97"/>
</g>
<!-- SafeModule&#45;&gt;SafeGridModule  -->
<g id="edge10" class="edge">
<title>SafeModule&#45;&gt;SafeGridModule </title>
<path fill="none" stroke="black" stroke-dasharray="5,2" d="M2330.56,-106C2456.56,-106 2819,-106 2819,-106 2819,-106 2819,-132.99 2819,-132.99"/>
<polygon fill="black" stroke="black" points="2815.5,-132.99 2819,-142.99 2822.5,-132.99 2815.5,-132.99"/>
</g>
<!-- SafeModule&#45;&gt;SafeGridSettingsModule  -->
<g id="edge11" class="edge">
<title>SafeModule&#45;&gt;SafeGridSettingsModule </title>
<path fill="none" stroke="black" stroke-dasharray="5,2" d="M2330.51,-109C2429.11,-109 2665,-109 2665,-109 2665,-109 2665,-132.81 2665,-132.81"/>
<polygon fill="black" stroke="black" points="2661.5,-132.81 2665,-142.81 2668.5,-132.81 2661.5,-132.81"/>
</g>
<!-- SafeModule&#45;&gt;SafeLayoutModule  -->
<g id="edge12" class="edge">
<title>SafeModule&#45;&gt;SafeLayoutModule </title>
<path fill="none" stroke="black" stroke-dasharray="5,2" d="M2330.42,-112C2393.32,-112 2504,-112 2504,-112 2504,-112 2504,-132.75 2504,-132.75"/>
<polygon fill="black" stroke="black" points="2500.5,-132.75 2504,-142.75 2507.5,-132.75 2500.5,-132.75"/>
</g>
<!-- SafeModule&#45;&gt;SafeMapModule  -->
<g id="edge13" class="edge">
<title>SafeModule&#45;&gt;SafeMapModule </title>
<path fill="none" stroke="black" stroke-dasharray="5,2" d="M2319.21,-114.11C2319.21,-114.11 2319.21,-132.99 2319.21,-132.99"/>
<polygon fill="black" stroke="black" points="2315.71,-132.99 2319.21,-142.99 2322.71,-132.99 2315.71,-132.99"/>
</g>
<!-- SafeModule&#45;&gt;SafeMapSettingsModule  -->
<g id="edge14" class="edge">
<title>SafeModule&#45;&gt;SafeMapSettingsModule </title>
<path fill="none" stroke="black" stroke-dasharray="5,2" d="M2268.07,-114.11C2268.07,-114.11 2268.07,-132.99 2268.07,-132.99"/>
<polygon fill="black" stroke="black" points="2264.57,-132.99 2268.07,-142.99 2271.57,-132.99 2264.57,-132.99"/>
</g>
<!-- SafeModule&#45;&gt;SafePreviousButtonModule  -->
<g id="edge15" class="edge">
<title>SafeModule&#45;&gt;SafePreviousButtonModule </title>
<path fill="none" stroke="black" stroke-dasharray="5,2" d="M2245.61,-112C2171.46,-112 2026,-112 2026,-112 2026,-112 2026,-132.75 2026,-132.75"/>
<polygon fill="black" stroke="black" points="2022.5,-132.75 2026,-142.75 2029.5,-132.75 2022.5,-132.75"/>
</g>
<!-- SafeModule&#45;&gt;SafeProfileModule  -->
<g id="edge16" class="edge">
<title>SafeModule&#45;&gt;SafeProfileModule </title>
<path fill="none" stroke="black" stroke-dasharray="5,2" d="M2245.49,-109C2136.76,-109 1857,-109 1857,-109 1857,-109 1857,-132.81 1857,-132.81"/>
<polygon fill="black" stroke="black" points="1853.5,-132.81 1857,-142.81 1860.5,-132.81 1853.5,-132.81"/>
</g>
<!-- SafeModule&#45;&gt;SafeRecordHistoryModule  -->
<g id="edge17" class="edge">
<title>SafeModule&#45;&gt;SafeRecordHistoryModule </title>
<path fill="none" stroke="black" stroke-dasharray="5,2" d="M2245.54,-106C2109.15,-106 1691,-106 1691,-106 1691,-106 1691,-132.99 1691,-132.99"/>
<polygon fill="black" stroke="black" points="1687.5,-132.99 1691,-142.99 1694.5,-132.99 1687.5,-132.99"/>
</g>
<!-- SafeModule&#45;&gt;SafeRecordModalModule  -->
<g id="edge18" class="edge">
<title>SafeModule&#45;&gt;SafeRecordModalModule </title>
<path fill="none" stroke="black" stroke-dasharray="5,2" d="M2245.62,-103C2082.61,-103 1505,-103 1505,-103 1505,-103 1505,-132.97 1505,-132.97"/>
<polygon fill="black" stroke="black" points="1501.5,-132.97 1505,-142.97 1508.5,-132.97 1501.5,-132.97"/>
</g>
<!-- SafeModule&#45;&gt;SafeRolesModule  -->
<g id="edge19" class="edge">
<title>SafeModule&#45;&gt;SafeRolesModule </title>
<path fill="none" stroke="black" stroke-dasharray="5,2" d="M2245.65,-101C2062.16,-101 1345,-101 1345,-101 1345,-101 1345,-133 1345,-133"/>
<polygon fill="black" stroke="black" points="1341.5,-133 1345,-143 1348.5,-133 1341.5,-133"/>
</g>
<!-- SafeModule&#45;&gt;SafeSchedulerModule  -->
<g id="edge20" class="edge">
<title>SafeModule&#45;&gt;SafeSchedulerModule </title>
<path fill="none" stroke="black" stroke-dasharray="5,2" d="M2245.49,-98C2044.01,-98 1195,-98 1195,-98 1195,-98 1195,-132.78 1195,-132.78"/>
<polygon fill="black" stroke="black" points="1191.5,-132.78 1195,-142.78 1198.5,-132.78 1191.5,-132.78"/>
</g>
<!-- SafeModule&#45;&gt;SafeSchedulerSettingsModule  -->
<g id="edge21" class="edge">
<title>SafeModule&#45;&gt;SafeSchedulerSettingsModule </title>
<path fill="none" stroke="black" stroke-dasharray="5,2" d="M2245.51,-95C2023.93,-95 1011,-95 1011,-95 1011,-95 1011,-132.97 1011,-132.97"/>
<polygon fill="black" stroke="black" points="1007.5,-132.97 1011,-142.97 1014.5,-132.97 1007.5,-132.97"/>
</g>
<!-- SafeModule&#45;&gt;SafeSearchResourceGridModalModule  -->
<g id="edge22" class="edge">
<title>SafeModule&#45;&gt;SafeSearchResourceGridModalModule </title>
<path fill="none" stroke="black" stroke-dasharray="5,2" d="M2245.64,-92C2000.83,-92 778,-92 778,-92 778,-92 778,-132.87 778,-132.87"/>
<polygon fill="black" stroke="black" points="774.5,-132.87 778,-142.87 781.5,-132.87 774.5,-132.87"/>
</g>
<!-- SafeModule&#45;&gt;SafeStatusModalModule  -->
<g id="edge23" class="edge">
<title>SafeModule&#45;&gt;SafeStatusModalModule </title>
<path fill="none" stroke="black" stroke-dasharray="5,2" d="M2245.74,-90C1980.9,-90 561,-90 561,-90 561,-90 561,-132.72 561,-132.72"/>
<polygon fill="black" stroke="black" points="557.5,-132.72 561,-142.72 564.5,-132.72 557.5,-132.72"/>
</g>
<!-- SafeModule&#45;&gt;SafeUsersModule  -->
<g id="edge24" class="edge">
<title>SafeModule&#45;&gt;SafeUsersModule </title>
<path fill="none" stroke="black" stroke-dasharray="5,2" d="M2245.56,-87C1966.35,-87 404,-87 404,-87 404,-87 404,-132.71 404,-132.71"/>
<polygon fill="black" stroke="black" points="400.5,-132.71 404,-142.71 407.5,-132.71 400.5,-132.71"/>
</g>
<!-- SafeModule&#45;&gt;SafeWidgetGridModule  -->
<g id="edge25" class="edge">
<title>SafeModule&#45;&gt;SafeWidgetGridModule </title>
<path fill="none" stroke="black" stroke-dasharray="5,2" d="M2245.41,-84C1952.61,-84 249,-84 249,-84 249,-84 249,-132.75 249,-132.75"/>
<polygon fill="black" stroke="black" points="245.5,-132.75 249,-142.75 252.5,-132.75 245.5,-132.75"/>
</g>
<!-- SafeModule&#45;&gt;SafeWidgetModule  -->
<g id="edge26" class="edge">
<title>SafeModule&#45;&gt;SafeWidgetModule </title>
<path fill="none" stroke="black" stroke-dasharray="5,2" d="M2245.55,-81C1940.05,-81 89,-81 89,-81 89,-81 89,-132.85 89,-132.85"/>
<polygon fill="black" stroke="black" points="85.5,-132.85 89,-142.85 92.5,-132.85 85.5,-132.85"/>
</g>
</g>
</svg>
