<?xml version="1.0" encoding="UTF-8" standalone="no"?>
<!DOCTYPE svg PUBLIC "-//W3C//DTD SVG 1.1//EN"
 "http://www.w3.org/Graphics/SVG/1.1/DTD/svg11.dtd">
<!-- Generated by graphviz version 3.0.0 (20220226.1711)
 -->
<!-- Title: dependencies Pages: 1 -->
<svg width="486pt" height="247pt"
 viewBox="0.00 0.00 486.00 246.80" xmlns="http://www.w3.org/2000/svg" xmlns:xlink="http://www.w3.org/1999/xlink">
<g id="graph0" class="graph" transform="scale(1 1) rotate(0) translate(4 242.8)">
<title>dependencies</title>
<polygon fill="white" stroke="transparent" points="-4,4 -4,-242.8 482,-242.8 482,4 -4,4"/>
<text text-anchor="middle" x="239" y="-8.2" font-family="sans-serif" font-size="14.00">dependencies</text>
<g id="clust1" class="cluster">
<title>cluster_RoleDetailsModule</title>
<polygon fill="none" stroke="black" stroke-dasharray="1,5" points="8,-32.8 8,-230.8 470,-230.8 470,-32.8 8,-32.8"/>
</g>
<g id="clust5" class="cluster">
<title>cluster_RoleDetailsModule_exports</title>
<polygon fill="none" stroke="black" points="140,-170.8 140,-222.8 306,-222.8 306,-170.8 140,-170.8"/>
</g>
<g id="clust2" class="cluster">
<title>cluster_RoleDetailsModule_declarations</title>
<polygon fill="none" stroke="black" points="298,-40.8 298,-92.8 462,-92.8 462,-40.8 298,-40.8"/>
</g>
<g id="clust4" class="cluster">
<title>cluster_RoleDetailsModule_imports</title>
<polygon fill="none" stroke="black" points="16,-40.8 16,-92.8 290,-92.8 290,-40.8 16,-40.8"/>
</g>
<!-- RoleDetailsComponent -->
<g id="node1" class="node">
<title>RoleDetailsComponent</title>
<polygon fill="#ffffb3" stroke="black" points="453.93,-84.8 306.07,-84.8 306.07,-48.8 453.93,-48.8 453.93,-84.8"/>
<text text-anchor="middle" x="380" y="-62.6" font-family="Times,serif" font-size="14.00">RoleDetailsComponent</text>
</g>
<!-- RoleDetailsModule -->
<g id="node2" class="node">
<title>RoleDetailsModule</title>
<polygon fill="#8dd3c7" stroke="black" points="285.65,-149.8 282.65,-153.8 261.65,-153.8 258.65,-149.8 160.35,-149.8 160.35,-113.8 285.65,-113.8 285.65,-149.8"/>
<text text-anchor="middle" x="223" y="-127.6" font-family="Times,serif" font-size="14.00">RoleDetailsModule</text>
</g>
<!-- RoleDetailsComponent&#45;&gt;RoleDetailsModule -->
<g id="edge1" class="edge">
<title>RoleDetailsComponent&#45;&gt;RoleDetailsModule</title>
<path fill="none" stroke="black" d="M380,-84.91C380,-104.14 380,-131.8 380,-131.8 380,-131.8 295.95,-131.8 295.95,-131.8"/>
<polygon fill="black" stroke="black" points="295.95,-128.3 285.95,-131.8 295.95,-135.3 295.95,-128.3"/>
</g>
<!-- RoleDetailsComponent  -->
<g id="node5" class="node">
<title>RoleDetailsComponent </title>
<polygon fill="#fb8072" stroke="black" points="298.43,-214.8 147.57,-214.8 147.57,-178.8 298.43,-178.8 298.43,-214.8"/>
<text text-anchor="middle" x="223" y="-192.6" font-family="Times,serif" font-size="14.00">RoleDetailsComponent </text>
</g>
<!-- RoleDetailsModule&#45;&gt;RoleDetailsComponent  -->
<g id="edge4" class="edge">
<title>RoleDetailsModule&#45;&gt;RoleDetailsComponent </title>
<path fill="none" stroke="black" stroke-dasharray="5,2" d="M223,-149.91C223,-149.91 223,-168.79 223,-168.79"/>
<polygon fill="black" stroke="black" points="219.5,-168.79 223,-178.79 226.5,-168.79 219.5,-168.79"/>
</g>
<!-- RoleUsersModule -->
<g id="node3" class="node">
<title>RoleUsersModule</title>
<polygon fill="#8dd3c7" stroke="black" points="281.88,-84.8 278.88,-88.8 257.88,-88.8 254.88,-84.8 164.12,-84.8 164.12,-48.8 281.88,-48.8 281.88,-84.8"/>
<text text-anchor="middle" x="223" y="-62.6" font-family="Times,serif" font-size="14.00">RoleUsersModule</text>
</g>
<!-- RoleUsersModule&#45;&gt;RoleDetailsModule -->
<g id="edge2" class="edge">
<title>RoleUsersModule&#45;&gt;RoleDetailsModule</title>
<path fill="none" stroke="black" d="M223,-84.91C223,-84.91 223,-103.79 223,-103.79"/>
<polygon fill="black" stroke="black" points="219.5,-103.79 223,-113.79 226.5,-103.79 219.5,-103.79"/>
</g>
<!-- SafeButtonModule -->
<g id="node4" class="node">
<title>SafeButtonModule</title>
<polygon fill="#8dd3c7" stroke="black" points="146.05,-84.8 143.05,-88.8 122.05,-88.8 119.05,-84.8 23.95,-84.8 23.95,-48.8 146.05,-48.8 146.05,-84.8"/>
<text text-anchor="middle" x="85" y="-62.6" font-family="Times,serif" font-size="14.00">SafeButtonModule</text>
</g>
<!-- SafeButtonModule&#45;&gt;RoleDetailsModule -->
<g id="edge3" class="edge">
<title>SafeButtonModule&#45;&gt;RoleDetailsModule</title>
<path fill="none" stroke="black" d="M85,-84.91C85,-104.14 85,-131.8 85,-131.8 85,-131.8 150.06,-131.8 150.06,-131.8"/>
<polygon fill="black" stroke="black" points="150.06,-135.3 160.06,-131.8 150.06,-128.3 150.06,-135.3"/>
</g>
</g>
</svg>
