<?xml version="1.0" encoding="UTF-8" standalone="no"?>
<!DOCTYPE svg PUBLIC "-//W3C//DTD SVG 1.1//EN"
 "http://www.w3.org/Graphics/SVG/1.1/DTD/svg11.dtd">
<!-- Generated by graphviz version 3.0.0 (20220226.1711)
 -->
<!-- Title: dependencies Pages: 1 -->
<svg width="486pt" height="247pt"
 viewBox="0.00 0.00 486.00 246.80" xmlns="http://www.w3.org/2000/svg" xmlns:xlink="http://www.w3.org/1999/xlink">
<g id="graph0" class="graph" transform="scale(1 1) rotate(0) translate(4 242.8)">
<title>dependencies</title>
<polygon fill="white" stroke="transparent" points="-4,4 -4,-242.8 482,-242.8 482,4 -4,4"/>
<text text-anchor="middle" x="239" y="-8.2" font-family="sans-serif" font-size="14.00">dependencies</text>
<g id="clust1" class="cluster">
<title>cluster_RoleDetailsModule</title>
<polygon fill="none" stroke="black" stroke-dasharray="1,5" points="8,-32.8 8,-230.8 470,-230.8 470,-32.8 8,-32.8"/>
</g>
<g id="clust5" class="cluster">
<title>cluster_RoleDetailsModule_exports</title>
<polygon fill="none" stroke="black" points="174,-170.8 174,-222.8 340,-222.8 340,-170.8 174,-170.8"/>
</g>
<g id="clust4" class="cluster">
<title>cluster_RoleDetailsModule_imports</title>
<polygon fill="none" stroke="black" points="188,-40.8 188,-92.8 462,-92.8 462,-40.8 188,-40.8"/>
</g>
<g id="clust2" class="cluster">
<title>cluster_RoleDetailsModule_declarations</title>
<polygon fill="none" stroke="black" points="16,-40.8 16,-92.8 180,-92.8 180,-40.8 16,-40.8"/>
</g>
<!-- RoleDetailsComponent -->
<g id="node1" class="node">
<title>RoleDetailsComponent</title>
<polygon fill="#ffffb3" stroke="black" points="171.93,-84.8 24.07,-84.8 24.07,-48.8 171.93,-48.8 171.93,-84.8"/>
<text text-anchor="middle" x="98" y="-62.6" font-family="Times,serif" font-size="14.00">RoleDetailsComponent</text>
</g>
<!-- RoleDetailsModule -->
<g id="node2" class="node">
<title>RoleDetailsModule</title>
<polygon fill="#8dd3c7" stroke="black" points="319.65,-149.8 316.65,-153.8 295.65,-153.8 292.65,-149.8 194.35,-149.8 194.35,-113.8 319.65,-113.8 319.65,-149.8"/>
<text text-anchor="middle" x="257" y="-127.6" font-family="Times,serif" font-size="14.00">RoleDetailsModule</text>
</g>
<!-- RoleDetailsComponent&#45;&gt;RoleDetailsModule -->
<g id="edge1" class="edge">
<title>RoleDetailsComponent&#45;&gt;RoleDetailsModule</title>
<path fill="none" stroke="black" d="M98,-84.91C98,-104.14 98,-131.8 98,-131.8 98,-131.8 184.16,-131.8 184.16,-131.8"/>
<polygon fill="black" stroke="black" points="184.16,-135.3 194.16,-131.8 184.16,-128.3 184.16,-135.3"/>
</g>
<!-- RoleDetailsComponent  -->
<g id="node5" class="node">
<title>RoleDetailsComponent </title>
<polygon fill="#fb8072" stroke="black" points="332.43,-214.8 181.57,-214.8 181.57,-178.8 332.43,-178.8 332.43,-214.8"/>
<text text-anchor="middle" x="257" y="-192.6" font-family="Times,serif" font-size="14.00">RoleDetailsComponent </text>
</g>
<!-- RoleDetailsModule&#45;&gt;RoleDetailsComponent  -->
<g id="edge4" class="edge">
<title>RoleDetailsModule&#45;&gt;RoleDetailsComponent </title>
<path fill="none" stroke="black" stroke-dasharray="5,2" d="M257,-149.91C257,-149.91 257,-168.79 257,-168.79"/>
<polygon fill="black" stroke="black" points="253.5,-168.79 257,-178.79 260.5,-168.79 253.5,-168.79"/>
</g>
<!-- RoleUsersModule -->
<g id="node3" class="node">
<title>RoleUsersModule</title>
<polygon fill="#8dd3c7" stroke="black" points="453.88,-84.8 450.88,-88.8 429.88,-88.8 426.88,-84.8 336.12,-84.8 336.12,-48.8 453.88,-48.8 453.88,-84.8"/>
<text text-anchor="middle" x="395" y="-62.6" font-family="Times,serif" font-size="14.00">RoleUsersModule</text>
</g>
<!-- RoleUsersModule&#45;&gt;RoleDetailsModule -->
<g id="edge2" class="edge">
<title>RoleUsersModule&#45;&gt;RoleDetailsModule</title>
<path fill="none" stroke="black" d="M395,-84.91C395,-104.14 395,-131.8 395,-131.8 395,-131.8 329.94,-131.8 329.94,-131.8"/>
<polygon fill="black" stroke="black" points="329.94,-128.3 319.94,-131.8 329.94,-135.3 329.94,-128.3"/>
</g>
<!-- SafeButtonModule -->
<g id="node4" class="node">
<title>SafeButtonModule</title>
<polygon fill="#8dd3c7" stroke="black" points="318.05,-84.8 315.05,-88.8 294.05,-88.8 291.05,-84.8 195.95,-84.8 195.95,-48.8 318.05,-48.8 318.05,-84.8"/>
<text text-anchor="middle" x="257" y="-62.6" font-family="Times,serif" font-size="14.00">SafeButtonModule</text>
</g>
<!-- SafeButtonModule&#45;&gt;RoleDetailsModule -->
<g id="edge3" class="edge">
<title>SafeButtonModule&#45;&gt;RoleDetailsModule</title>
<path fill="none" stroke="black" d="M257,-84.91C257,-84.91 257,-103.79 257,-103.79"/>
<polygon fill="black" stroke="black" points="253.5,-103.79 257,-113.79 260.5,-103.79 253.5,-103.79"/>
</g>
</g>
</svg>
