<?xml version="1.0" encoding="UTF-8" standalone="no"?>
<!DOCTYPE svg PUBLIC "-//W3C//DTD SVG 1.1//EN"
 "http://www.w3.org/Graphics/SVG/1.1/DTD/svg11.dtd">
<!-- Generated by graphviz version 3.0.0 (20220226.1711)
 -->
<!-- Title: dependencies Pages: 1 -->
<svg width="688pt" height="247pt"
 viewBox="0.00 0.00 688.00 246.80" xmlns="http://www.w3.org/2000/svg" xmlns:xlink="http://www.w3.org/1999/xlink">
<g id="graph0" class="graph" transform="scale(1 1) rotate(0) translate(4 242.8)">
<title>dependencies</title>
<polygon fill="white" stroke="transparent" points="-4,4 -4,-242.8 684,-242.8 684,4 -4,4"/>
<text text-anchor="middle" x="340" y="-8.2" font-family="sans-serif" font-size="14.00">dependencies</text>
<g id="clust1" class="cluster">
<title>cluster_SafeApplicationToolbarModule</title>
<polygon fill="none" stroke="black" stroke-dasharray="1,5" points="8,-32.8 8,-230.8 672,-230.8 672,-32.8 8,-32.8"/>
</g>
<g id="clust5" class="cluster">
<title>cluster_SafeApplicationToolbarModule_exports</title>
<polygon fill="none" stroke="black" points="268,-170.8 268,-222.8 504,-222.8 504,-170.8 268,-170.8"/>
</g>
<g id="clust4" class="cluster">
<title>cluster_SafeApplicationToolbarModule_imports</title>
<polygon fill="none" stroke="black" points="256,-40.8 256,-92.8 664,-92.8 664,-40.8 256,-40.8"/>
</g>
<g id="clust2" class="cluster">
<title>cluster_SafeApplicationToolbarModule_declarations</title>
<polygon fill="none" stroke="black" points="16,-40.8 16,-92.8 248,-92.8 248,-40.8 16,-40.8"/>
</g>
<!-- SafeApplicationToolbarComponent -->
<g id="node1" class="node">
<title>SafeApplicationToolbarComponent</title>
<polygon fill="#ffffb3" stroke="black" points="240.12,-84.8 23.88,-84.8 23.88,-48.8 240.12,-48.8 240.12,-84.8"/>
<text text-anchor="middle" x="132" y="-62.6" font-family="Times,serif" font-size="14.00">SafeApplicationToolbarComponent</text>
</g>
<!-- SafeApplicationToolbarModule -->
<g id="node2" class="node">
<title>SafeApplicationToolbarModule</title>
<polygon fill="#8dd3c7" stroke="black" points="483.34,-149.8 480.34,-153.8 459.34,-153.8 456.34,-149.8 288.66,-149.8 288.66,-113.8 483.34,-113.8 483.34,-149.8"/>
<text text-anchor="middle" x="386" y="-127.6" font-family="Times,serif" font-size="14.00">SafeApplicationToolbarModule</text>
</g>
<!-- SafeApplicationToolbarComponent&#45;&gt;SafeApplicationToolbarModule -->
<g id="edge1" class="edge">
<title>SafeApplicationToolbarComponent&#45;&gt;SafeApplicationToolbarModule</title>
<path fill="none" stroke="black" d="M132,-84.91C132,-104.14 132,-131.8 132,-131.8 132,-131.8 278.52,-131.8 278.52,-131.8"/>
<polygon fill="black" stroke="black" points="278.52,-135.3 288.52,-131.8 278.52,-128.3 278.52,-135.3"/>
</g>
<!-- SafeApplicationToolbarComponent  -->
<g id="node6" class="node">
<title>SafeApplicationToolbarComponent </title>
<polygon fill="#fb8072" stroke="black" points="496.12,-214.8 275.88,-214.8 275.88,-178.8 496.12,-178.8 496.12,-214.8"/>
<text text-anchor="middle" x="386" y="-192.6" font-family="Times,serif" font-size="14.00">SafeApplicationToolbarComponent </text>
</g>
<!-- SafeApplicationToolbarModule&#45;&gt;SafeApplicationToolbarComponent  -->
<g id="edge5" class="edge">
<title>SafeApplicationToolbarModule&#45;&gt;SafeApplicationToolbarComponent </title>
<path fill="none" stroke="black" stroke-dasharray="5,2" d="M386,-149.91C386,-149.91 386,-168.79 386,-168.79"/>
<polygon fill="black" stroke="black" points="382.5,-168.79 386,-178.79 389.5,-168.79 382.5,-168.79"/>
</g>
<!-- SafeAccessModule -->
<g id="node3" class="node">
<title>SafeAccessModule</title>
<polygon fill="#8dd3c7" stroke="black" points="656.08,-84.8 653.08,-88.8 632.08,-88.8 629.08,-84.8 531.92,-84.8 531.92,-48.8 656.08,-48.8 656.08,-84.8"/>
<text text-anchor="middle" x="594" y="-62.6" font-family="Times,serif" font-size="14.00">SafeAccessModule</text>
</g>
<!-- SafeAccessModule&#45;&gt;SafeApplicationToolbarModule -->
<g id="edge2" class="edge">
<title>SafeAccessModule&#45;&gt;SafeApplicationToolbarModule</title>
<path fill="none" stroke="black" d="M594,-84.91C594,-104.14 594,-131.8 594,-131.8 594,-131.8 493.61,-131.8 493.61,-131.8"/>
<polygon fill="black" stroke="black" points="493.61,-128.3 483.61,-131.8 493.61,-135.3 493.61,-128.3"/>
</g>
<!-- SafeButtonModule -->
<g id="node4" class="node">
<title>SafeButtonModule</title>
<polygon fill="#8dd3c7" stroke="black" points="514.05,-84.8 511.05,-88.8 490.05,-88.8 487.05,-84.8 391.95,-84.8 391.95,-48.8 514.05,-48.8 514.05,-84.8"/>
<text text-anchor="middle" x="453" y="-62.6" font-family="Times,serif" font-size="14.00">SafeButtonModule</text>
</g>
<!-- SafeButtonModule&#45;&gt;SafeApplicationToolbarModule -->
<g id="edge3" class="edge">
<title>SafeButtonModule&#45;&gt;SafeApplicationToolbarModule</title>
<path fill="none" stroke="black" d="M437.57,-84.91C437.57,-84.91 437.57,-103.79 437.57,-103.79"/>
<polygon fill="black" stroke="black" points="434.07,-103.79 437.57,-113.79 441.07,-103.79 434.07,-103.79"/>
</g>
<!-- SafeIconModule -->
<g id="node5" class="node">
<title>SafeIconModule</title>
<polygon fill="#8dd3c7" stroke="black" points="373.8,-84.8 370.8,-88.8 349.8,-88.8 346.8,-84.8 264.2,-84.8 264.2,-48.8 373.8,-48.8 373.8,-84.8"/>
<text text-anchor="middle" x="319" y="-62.6" font-family="Times,serif" font-size="14.00">SafeIconModule</text>
</g>
<!-- SafeIconModule&#45;&gt;SafeApplicationToolbarModule -->
<g id="edge4" class="edge">
<title>SafeIconModule&#45;&gt;SafeApplicationToolbarModule</title>
<path fill="none" stroke="black" d="M331.12,-84.91C331.12,-84.91 331.12,-103.79 331.12,-103.79"/>
<polygon fill="black" stroke="black" points="327.62,-103.79 331.12,-113.79 334.62,-103.79 327.62,-103.79"/>
</g>
</g>
</svg>
