<?xml version="1.0" encoding="UTF-8" standalone="no"?>
<!DOCTYPE svg PUBLIC "-//W3C//DTD SVG 1.1//EN"
 "http://www.w3.org/Graphics/SVG/1.1/DTD/svg11.dtd">
<!-- Generated by graphviz version 3.0.0 (20220226.1711)
 -->
<!-- Title: dependencies Pages: 1 -->
<svg width="688pt" height="247pt"
 viewBox="0.00 0.00 688.00 246.80" xmlns="http://www.w3.org/2000/svg" xmlns:xlink="http://www.w3.org/1999/xlink">
<g id="graph0" class="graph" transform="scale(1 1) rotate(0) translate(4 242.8)">
<title>dependencies</title>
<polygon fill="white" stroke="transparent" points="-4,4 -4,-242.8 684,-242.8 684,4 -4,4"/>
<text text-anchor="middle" x="340" y="-8.2" font-family="sans-serif" font-size="14.00">dependencies</text>
<g id="clust1" class="cluster">
<title>cluster_SafeApplicationToolbarModule</title>
<polygon fill="none" stroke="black" stroke-dasharray="1,5" points="8,-32.8 8,-230.8 672,-230.8 672,-32.8 8,-32.8"/>
</g>
<g id="clust2" class="cluster">
<title>cluster_SafeApplicationToolbarModule_declarations</title>
<polygon fill="none" stroke="black" points="432,-40.8 432,-92.8 664,-92.8 664,-40.8 432,-40.8"/>
</g>
<g id="clust4" class="cluster">
<title>cluster_SafeApplicationToolbarModule_imports</title>
<polygon fill="none" stroke="black" points="16,-40.8 16,-92.8 424,-92.8 424,-40.8 16,-40.8"/>
</g>
<g id="clust5" class="cluster">
<title>cluster_SafeApplicationToolbarModule_exports</title>
<polygon fill="none" stroke="black" points="165,-170.8 165,-222.8 401,-222.8 401,-170.8 165,-170.8"/>
</g>
<!-- SafeApplicationToolbarComponent -->
<g id="node1" class="node">
<title>SafeApplicationToolbarComponent</title>
<polygon fill="#ffffb3" stroke="black" points="656.12,-84.8 439.88,-84.8 439.88,-48.8 656.12,-48.8 656.12,-84.8"/>
<text text-anchor="middle" x="548" y="-62.6" font-family="Times,serif" font-size="14.00">SafeApplicationToolbarComponent</text>
</g>
<!-- SafeApplicationToolbarModule -->
<g id="node2" class="node">
<title>SafeApplicationToolbarModule</title>
<polygon fill="#8dd3c7" stroke="black" points="380.34,-149.8 377.34,-153.8 356.34,-153.8 353.34,-149.8 185.66,-149.8 185.66,-113.8 380.34,-113.8 380.34,-149.8"/>
<text text-anchor="middle" x="283" y="-127.6" font-family="Times,serif" font-size="14.00">SafeApplicationToolbarModule</text>
</g>
<!-- SafeApplicationToolbarComponent&#45;&gt;SafeApplicationToolbarModule -->
<g id="edge1" class="edge">
<title>SafeApplicationToolbarComponent&#45;&gt;SafeApplicationToolbarModule</title>
<path fill="none" stroke="black" d="M548,-84.91C548,-104.14 548,-131.8 548,-131.8 548,-131.8 390.55,-131.8 390.55,-131.8"/>
<polygon fill="black" stroke="black" points="390.55,-128.3 380.55,-131.8 390.55,-135.3 390.55,-128.3"/>
</g>
<!-- SafeApplicationToolbarComponent  -->
<g id="node6" class="node">
<title>SafeApplicationToolbarComponent </title>
<polygon fill="#fb8072" stroke="black" points="393.12,-214.8 172.88,-214.8 172.88,-178.8 393.12,-178.8 393.12,-214.8"/>
<text text-anchor="middle" x="283" y="-192.6" font-family="Times,serif" font-size="14.00">SafeApplicationToolbarComponent </text>
</g>
<!-- SafeApplicationToolbarModule&#45;&gt;SafeApplicationToolbarComponent  -->
<g id="edge5" class="edge">
<title>SafeApplicationToolbarModule&#45;&gt;SafeApplicationToolbarComponent </title>
<path fill="none" stroke="black" stroke-dasharray="5,2" d="M283,-149.91C283,-149.91 283,-168.79 283,-168.79"/>
<polygon fill="black" stroke="black" points="279.5,-168.79 283,-178.79 286.5,-168.79 279.5,-168.79"/>
</g>
<!-- SafeAccessModule -->
<g id="node3" class="node">
<title>SafeAccessModule</title>
<polygon fill="#8dd3c7" stroke="black" points="416.08,-84.8 413.08,-88.8 392.08,-88.8 389.08,-84.8 291.92,-84.8 291.92,-48.8 416.08,-48.8 416.08,-84.8"/>
<text text-anchor="middle" x="354" y="-62.6" font-family="Times,serif" font-size="14.00">SafeAccessModule</text>
</g>
<!-- SafeAccessModule&#45;&gt;SafeApplicationToolbarModule -->
<g id="edge2" class="edge">
<title>SafeAccessModule&#45;&gt;SafeApplicationToolbarModule</title>
<path fill="none" stroke="black" d="M336.19,-84.91C336.19,-84.91 336.19,-103.79 336.19,-103.79"/>
<polygon fill="black" stroke="black" points="332.69,-103.79 336.19,-113.79 339.69,-103.79 332.69,-103.79"/>
</g>
<!-- SafeButtonModule -->
<g id="node4" class="node">
<title>SafeButtonModule</title>
<polygon fill="#8dd3c7" stroke="black" points="274.05,-84.8 271.05,-88.8 250.05,-88.8 247.05,-84.8 151.95,-84.8 151.95,-48.8 274.05,-48.8 274.05,-84.8"/>
<text text-anchor="middle" x="213" y="-62.6" font-family="Times,serif" font-size="14.00">SafeButtonModule</text>
</g>
<!-- SafeButtonModule&#45;&gt;SafeApplicationToolbarModule -->
<g id="edge3" class="edge">
<title>SafeButtonModule&#45;&gt;SafeApplicationToolbarModule</title>
<path fill="none" stroke="black" d="M229.93,-84.91C229.93,-84.91 229.93,-103.79 229.93,-103.79"/>
<polygon fill="black" stroke="black" points="226.43,-103.79 229.93,-113.79 233.43,-103.79 226.43,-103.79"/>
</g>
<!-- SafeIconModule -->
<g id="node5" class="node">
<title>SafeIconModule</title>
<polygon fill="#8dd3c7" stroke="black" points="133.8,-84.8 130.8,-88.8 109.8,-88.8 106.8,-84.8 24.2,-84.8 24.2,-48.8 133.8,-48.8 133.8,-84.8"/>
<text text-anchor="middle" x="79" y="-62.6" font-family="Times,serif" font-size="14.00">SafeIconModule</text>
</g>
<!-- SafeIconModule&#45;&gt;SafeApplicationToolbarModule -->
<g id="edge4" class="edge">
<title>SafeIconModule&#45;&gt;SafeApplicationToolbarModule</title>
<path fill="none" stroke="black" d="M79,-84.91C79,-104.14 79,-131.8 79,-131.8 79,-131.8 175.48,-131.8 175.48,-131.8"/>
<polygon fill="black" stroke="black" points="175.48,-135.3 185.48,-131.8 175.48,-128.3 175.48,-135.3"/>
</g>
</g>
</svg>
