<?xml version="1.0" encoding="UTF-8" standalone="no"?>
<!DOCTYPE svg PUBLIC "-//W3C//DTD SVG 1.1//EN"
 "http://www.w3.org/Graphics/SVG/1.1/DTD/svg11.dtd">
<!-- Generated by graphviz version 3.0.0 (20220226.1711)
 -->
<!-- Title: dependencies Pages: 1 -->
<svg width="533pt" height="247pt"
 viewBox="0.00 0.00 533.00 246.80" xmlns="http://www.w3.org/2000/svg" xmlns:xlink="http://www.w3.org/1999/xlink">
<g id="graph0" class="graph" transform="scale(1 1) rotate(0) translate(4 242.8)">
<title>dependencies</title>
<polygon fill="white" stroke="transparent" points="-4,4 -4,-242.8 529,-242.8 529,4 -4,4"/>
<text text-anchor="middle" x="262.5" y="-8.2" font-family="sans-serif" font-size="14.00">dependencies</text>
<g id="clust1" class="cluster">
<title>cluster_SafeRecordSummaryModule</title>
<polygon fill="none" stroke="black" stroke-dasharray="1,5" points="8,-32.8 8,-230.8 517,-230.8 517,-32.8 8,-32.8"/>
</g>
<g id="clust2" class="cluster">
<title>cluster_SafeRecordSummaryModule_declarations</title>
<polygon fill="none" stroke="black" points="291,-40.8 291,-92.8 509,-92.8 509,-40.8 291,-40.8"/>
</g>
<g id="clust4" class="cluster">
<title>cluster_SafeRecordSummaryModule_imports</title>
<polygon fill="none" stroke="black" points="16,-40.8 16,-92.8 283,-92.8 283,-40.8 16,-40.8"/>
</g>
<g id="clust5" class="cluster">
<title>cluster_SafeRecordSummaryModule_exports</title>
<polygon fill="none" stroke="black" points="104,-170.8 104,-222.8 324,-222.8 324,-170.8 104,-170.8"/>
</g>
<!-- SafeRecordSummaryComponent -->
<g id="node1" class="node">
<title>SafeRecordSummaryComponent</title>
<polygon fill="#ffffb3" stroke="black" points="500.58,-84.8 299.42,-84.8 299.42,-48.8 500.58,-48.8 500.58,-84.8"/>
<text text-anchor="middle" x="400" y="-62.6" font-family="Times,serif" font-size="14.00">SafeRecordSummaryComponent</text>
</g>
<!-- SafeRecordSummaryModule -->
<g id="node2" class="node">
<title>SafeRecordSummaryModule</title>
<polygon fill="#8dd3c7" stroke="black" points="303.8,-149.8 300.8,-153.8 279.8,-153.8 276.8,-149.8 124.2,-149.8 124.2,-113.8 303.8,-113.8 303.8,-149.8"/>
<text text-anchor="middle" x="214" y="-127.6" font-family="Times,serif" font-size="14.00">SafeRecordSummaryModule</text>
</g>
<!-- SafeRecordSummaryComponent&#45;&gt;SafeRecordSummaryModule -->
<g id="edge1" class="edge">
<title>SafeRecordSummaryComponent&#45;&gt;SafeRecordSummaryModule</title>
<path fill="none" stroke="black" d="M309.97,-84.91C309.97,-104.14 309.97,-131.8 309.97,-131.8 309.97,-131.8 309.34,-131.8 309.34,-131.8"/>
<polygon fill="black" stroke="black" points="313.67,-128.3 303.67,-131.8 313.67,-135.3 313.67,-128.3"/>
</g>
<!-- SafeRecordSummaryComponent  -->
<g id="node5" class="node">
<title>SafeRecordSummaryComponent </title>
<polygon fill="#fb8072" stroke="black" points="316.08,-214.8 111.92,-214.8 111.92,-178.8 316.08,-178.8 316.08,-214.8"/>
<text text-anchor="middle" x="214" y="-192.6" font-family="Times,serif" font-size="14.00">SafeRecordSummaryComponent </text>
</g>
<!-- SafeRecordSummaryModule&#45;&gt;SafeRecordSummaryComponent  -->
<g id="edge4" class="edge">
<title>SafeRecordSummaryModule&#45;&gt;SafeRecordSummaryComponent </title>
<path fill="none" stroke="black" stroke-dasharray="5,2" d="M214,-149.91C214,-149.91 214,-168.79 214,-168.79"/>
<polygon fill="black" stroke="black" points="210.5,-168.79 214,-178.79 217.5,-168.79 210.5,-168.79"/>
</g>
<!-- SafeButtonModule -->
<g id="node3" class="node">
<title>SafeButtonModule</title>
<polygon fill="#8dd3c7" stroke="black" points="275.05,-84.8 272.05,-88.8 251.05,-88.8 248.05,-84.8 152.95,-84.8 152.95,-48.8 275.05,-48.8 275.05,-84.8"/>
<text text-anchor="middle" x="214" y="-62.6" font-family="Times,serif" font-size="14.00">SafeButtonModule</text>
</g>
<!-- SafeButtonModule&#45;&gt;SafeRecordSummaryModule -->
<g id="edge2" class="edge">
<title>SafeButtonModule&#45;&gt;SafeRecordSummaryModule</title>
<path fill="none" stroke="black" d="M214,-84.91C214,-84.91 214,-103.79 214,-103.79"/>
<polygon fill="black" stroke="black" points="210.5,-103.79 214,-113.79 217.5,-103.79 210.5,-103.79"/>
</g>
<!-- SafeDateModule -->
<g id="node4" class="node">
<title>SafeDateModule</title>
<polygon fill="#8dd3c7" stroke="black" points="134.36,-84.8 131.36,-88.8 110.36,-88.8 107.36,-84.8 23.64,-84.8 23.64,-48.8 134.36,-48.8 134.36,-84.8"/>
<text text-anchor="middle" x="79" y="-62.6" font-family="Times,serif" font-size="14.00">SafeDateModule</text>
</g>
<!-- SafeDateModule&#45;&gt;SafeRecordSummaryModule -->
<g id="edge3" class="edge">
<title>SafeDateModule&#45;&gt;SafeRecordSummaryModule</title>
<path fill="none" stroke="black" d="M129.39,-84.91C129.39,-84.91 129.39,-103.79 129.39,-103.79"/>
<polygon fill="black" stroke="black" points="125.89,-103.79 129.39,-113.79 132.89,-103.79 125.89,-103.79"/>
</g>
</g>
</svg>
