<?xml version="1.0" encoding="UTF-8" standalone="no"?>
<!DOCTYPE svg PUBLIC "-//W3C//DTD SVG 1.1//EN"
 "http://www.w3.org/Graphics/SVG/1.1/DTD/svg11.dtd">
<!-- Generated by graphviz version 3.0.0 (20220226.1711)
 -->
<!-- Title: dependencies Pages: 1 -->
<svg width="6363pt" height="174pt"
 viewBox="0.00 0.00 6363.00 173.80" xmlns="http://www.w3.org/2000/svg" xmlns:xlink="http://www.w3.org/1999/xlink">
<g id="graph0" class="graph" transform="scale(1 1) rotate(0) translate(4 169.8)">
<title>dependencies</title>
<polygon fill="white" stroke="transparent" points="-4,4 -4,-169.8 6359,-169.8 6359,4 -4,4"/>
<text text-anchor="middle" x="3177.5" y="-8.2" font-family="sans-serif" font-size="14.00">dependencies</text>
<g id="clust1" class="cluster">
<title>cluster_SafeModule</title>
<polygon fill="none" stroke="black" stroke-dasharray="1,5" points="8,-32.8 8,-157.8 6347,-157.8 6347,-32.8 8,-32.8"/>
</g>
<g id="clust4" class="cluster">
<title>cluster_SafeModule_exports</title>
<polygon fill="none" stroke="black" points="16,-97.8 16,-149.8 6339,-149.8 6339,-97.8 16,-97.8"/>
</g>
<!-- SafeAccessModule  -->
<g id="node1" class="node">
<title>SafeAccessModule </title>
<polygon fill="#fb8072" stroke="black" points="6330.58,-141.8 6203.42,-141.8 6203.42,-105.8 6330.58,-105.8 6330.58,-141.8"/>
<text text-anchor="middle" x="6267" y="-119.6" font-family="Times,serif" font-size="14.00">SafeAccessModule </text>
</g>
<!-- SafeAggregationBuilderModule  -->
<g id="node2" class="node">
<title>SafeAggregationBuilderModule </title>
<polygon fill="#fb8072" stroke="black" points="6184.9,-141.8 5985.1,-141.8 5985.1,-105.8 6184.9,-105.8 6184.9,-141.8"/>
<text text-anchor="middle" x="6085" y="-119.6" font-family="Times,serif" font-size="14.00">SafeAggregationBuilderModule </text>
</g>
<!-- SafeApplicationTemplatesModule  -->
<g id="node3" class="node">
<title>SafeApplicationTemplatesModule </title>
<polygon fill="#fb8072" stroke="black" points="5967.34,-141.8 5754.66,-141.8 5754.66,-105.8 5967.34,-105.8 5967.34,-141.8"/>
<text text-anchor="middle" x="5861" y="-119.6" font-family="Times,serif" font-size="14.00">SafeApplicationTemplatesModule </text>
</g>
<!-- SafeApplicationsSummaryModule  -->
<g id="node4" class="node">
<title>SafeApplicationsSummaryModule </title>
<polygon fill="#fb8072" stroke="black" points="5736.91,-141.8 5523.09,-141.8 5523.09,-105.8 5736.91,-105.8 5736.91,-141.8"/>
<text text-anchor="middle" x="5630" y="-119.6" font-family="Times,serif" font-size="14.00">SafeApplicationsSummaryModule </text>
</g>
<!-- SafeButtonModule  -->
<g id="node5" class="node">
<title>SafeButtonModule </title>
<polygon fill="#fb8072" stroke="black" points="5505.04,-141.8 5378.96,-141.8 5378.96,-105.8 5505.04,-105.8 5505.04,-141.8"/>
<text text-anchor="middle" x="5442" y="-119.6" font-family="Times,serif" font-size="14.00">SafeButtonModule </text>
</g>
<!-- SafeChartModule  -->
<g id="node6" class="node">
<title>SafeChartModule </title>
<polygon fill="#fb8072" stroke="black" points="5360.53,-141.8 5241.47,-141.8 5241.47,-105.8 5360.53,-105.8 5360.53,-141.8"/>
<text text-anchor="middle" x="5301" y="-119.6" font-family="Times,serif" font-size="14.00">SafeChartModule </text>
</g>
<!-- SafeChartSettingsModule  -->
<g id="node7" class="node">
<title>SafeChartSettingsModule </title>
<polygon fill="#fb8072" stroke="black" points="5223.15,-141.8 5058.85,-141.8 5058.85,-105.8 5223.15,-105.8 5223.15,-141.8"/>
<text text-anchor="middle" x="5141" y="-119.6" font-family="Times,serif" font-size="14.00">SafeChartSettingsModule </text>
</g>
<!-- SafeConfirmModalModule  -->
<g id="node8" class="node">
<title>SafeConfirmModalModule </title>
<polygon fill="#fb8072" stroke="black" points="5040.92,-141.8 4869.08,-141.8 4869.08,-105.8 5040.92,-105.8 5040.92,-141.8"/>
<text text-anchor="middle" x="4955" y="-119.6" font-family="Times,serif" font-size="14.00">SafeConfirmModalModule </text>
</g>
<!-- SafeContentChoiceModule  -->
<g id="node9" class="node">
<title>SafeContentChoiceModule </title>
<polygon fill="#fb8072" stroke="black" points="4850.91,-141.8 4679.09,-141.8 4679.09,-105.8 4850.91,-105.8 4850.91,-141.8"/>
<text text-anchor="middle" x="4765" y="-119.6" font-family="Times,serif" font-size="14.00">SafeContentChoiceModule </text>
</g>
<!-- SafeConvertModalModule  -->
<g id="node10" class="node">
<title>SafeConvertModalModule </title>
<polygon fill="#fb8072" stroke="black" points="4660.58,-141.8 4491.42,-141.8 4491.42,-105.8 4660.58,-105.8 4660.58,-141.8"/>
<text text-anchor="middle" x="4576" y="-119.6" font-family="Times,serif" font-size="14.00">SafeConvertModalModule </text>
</g>
<!-- SafeEditorModule  -->
<g id="node11" class="node">
<title>SafeEditorModule </title>
<polygon fill="#fb8072" stroke="black" points="4473.42,-141.8 4350.58,-141.8 4350.58,-105.8 4473.42,-105.8 4473.42,-141.8"/>
<text text-anchor="middle" x="4412" y="-119.6" font-family="Times,serif" font-size="14.00">SafeEditorModule </text>
</g>
<!-- SafeEditorSettingsModule  -->
<g id="node12" class="node">
<title>SafeEditorSettingsModule </title>
<polygon fill="#fb8072" stroke="black" points="4333.04,-141.8 4164.96,-141.8 4164.96,-105.8 4333.04,-105.8 4333.04,-141.8"/>
<text text-anchor="middle" x="4249" y="-119.6" font-family="Times,serif" font-size="14.00">SafeEditorSettingsModule </text>
</g>
<!-- SafeFormBuilderModule  -->
<g id="node13" class="node">
<title>SafeFormBuilderModule </title>
<polygon fill="#fb8072" stroke="black" points="4147.26,-141.8 3986.74,-141.8 3986.74,-105.8 4147.26,-105.8 4147.26,-141.8"/>
<text text-anchor="middle" x="4067" y="-119.6" font-family="Times,serif" font-size="14.00">SafeFormBuilderModule </text>
</g>
<!-- SafeFormModule  -->
<g id="node14" class="node">
<title>SafeFormModule </title>
<polygon fill="#fb8072" stroke="black" points="3969.27,-141.8 3850.73,-141.8 3850.73,-105.8 3969.27,-105.8 3969.27,-141.8"/>
<text text-anchor="middle" x="3910" y="-119.6" font-family="Times,serif" font-size="14.00">SafeFormModule </text>
</g>
<!-- SafeGridSettingsModule  -->
<g id="node15" class="node">
<title>SafeGridSettingsModule </title>
<polygon fill="#fb8072" stroke="black" points="3833.21,-141.8 3674.79,-141.8 3674.79,-105.8 3833.21,-105.8 3833.21,-141.8"/>
<text text-anchor="middle" x="3754" y="-119.6" font-family="Times,serif" font-size="14.00">SafeGridSettingsModule </text>
</g>
<!-- SafeGridWidgetModule  -->
<g id="node16" class="node">
<title>SafeGridWidgetModule </title>
<polygon fill="#fb8072" stroke="black" points="3656.3,-141.8 3501.7,-141.8 3501.7,-105.8 3656.3,-105.8 3656.3,-141.8"/>
<text text-anchor="middle" x="3579" y="-119.6" font-family="Times,serif" font-size="14.00">SafeGridWidgetModule </text>
</g>
<!-- SafeLayoutModalModule  -->
<g id="node17" class="node">
<title>SafeLayoutModalModule </title>
<polygon fill="#fb8072" stroke="black" points="3484.13,-141.8 3319.87,-141.8 3319.87,-105.8 3484.13,-105.8 3484.13,-141.8"/>
<text text-anchor="middle" x="3402" y="-119.6" font-family="Times,serif" font-size="14.00">SafeLayoutModalModule </text>
</g>
<!-- SafeLayoutModule  -->
<g id="node18" class="node">
<title>SafeLayoutModule </title>
<polygon fill="#fb8072" stroke="black" points="3301.58,-141.8 3174.42,-141.8 3174.42,-105.8 3301.58,-105.8 3301.58,-141.8"/>
<text text-anchor="middle" x="3238" y="-119.6" font-family="Times,serif" font-size="14.00">SafeLayoutModule </text>
</g>
<!-- SafeMapModule  -->
<g id="node19" class="node">
<title>SafeMapModule </title>
<polygon fill="#fb8072" stroke="black" points="3155.59,-141.8 3042.41,-141.8 3042.41,-105.8 3155.59,-105.8 3155.59,-141.8"/>
<text text-anchor="middle" x="3099" y="-119.6" font-family="Times,serif" font-size="14.00">SafeMapModule </text>
</g>
<!-- SafeMapSettingsModule  -->
<g id="node20" class="node">
<title>SafeMapSettingsModule </title>
<polygon fill="#fb8072" stroke="black" points="3024.21,-141.8 2865.79,-141.8 2865.79,-105.8 3024.21,-105.8 3024.21,-141.8"/>
<text text-anchor="middle" x="2945" y="-119.6" font-family="Times,serif" font-size="14.00">SafeMapSettingsModule </text>
</g>
<!-- SafePreviousButtonModule  -->
<g id="node21" class="node">
<title>SafePreviousButtonModule </title>
<polygon fill="#fb8072" stroke="black" points="2847.54,-141.8 2672.46,-141.8 2672.46,-105.8 2847.54,-105.8 2847.54,-141.8"/>
<text text-anchor="middle" x="2760" y="-119.6" font-family="Times,serif" font-size="14.00">SafePreviousButtonModule </text>
</g>
<!-- SafeProfileModule  -->
<g id="node22" class="node">
<title>SafeProfileModule </title>
<polygon fill="#fb8072" stroke="black" points="2654.03,-141.8 2527.97,-141.8 2527.97,-105.8 2654.03,-105.8 2654.03,-141.8"/>
<text text-anchor="middle" x="2591" y="-119.6" font-family="Times,serif" font-size="14.00">SafeProfileModule </text>
</g>
<!-- SafeRecordHistoryModule  -->
<g id="node23" class="node">
<title>SafeRecordHistoryModule </title>
<polygon fill="#fb8072" stroke="black" points="2510.36,-141.8 2339.64,-141.8 2339.64,-105.8 2510.36,-105.8 2510.36,-141.8"/>
<text text-anchor="middle" x="2425" y="-119.6" font-family="Times,serif" font-size="14.00">SafeRecordHistoryModule </text>
</g>
<!-- SafeRecordModalModule  -->
<g id="node24" class="node">
<title>SafeRecordModalModule </title>
<polygon fill="#fb8072" stroke="black" points="2321.41,-141.8 2156.59,-141.8 2156.59,-105.8 2321.41,-105.8 2321.41,-141.8"/>
<text text-anchor="middle" x="2239" y="-119.6" font-family="Times,serif" font-size="14.00">SafeRecordModalModule </text>
</g>
<!-- SafeRolesModule  -->
<g id="node25" class="node">
<title>SafeRolesModule </title>
<polygon fill="#fb8072" stroke="black" points="2138.82,-141.8 2019.18,-141.8 2019.18,-105.8 2138.82,-105.8 2138.82,-141.8"/>
<text text-anchor="middle" x="2079" y="-119.6" font-family="Times,serif" font-size="14.00">SafeRolesModule </text>
</g>
<!-- SafeSchedulerModule  -->
<g id="node26" class="node">
<title>SafeSchedulerModule </title>
<polygon fill="#fb8072" stroke="black" points="2000.91,-141.8 1857.09,-141.8 1857.09,-105.8 2000.91,-105.8 2000.91,-141.8"/>
<text text-anchor="middle" x="1929" y="-119.6" font-family="Times,serif" font-size="14.00">SafeSchedulerModule </text>
</g>
<!-- SafeSchedulerSettingsModule  -->
<g id="node27" class="node">
<title>SafeSchedulerSettingsModule </title>
<polygon fill="#fb8072" stroke="black" points="1839.52,-141.8 1650.48,-141.8 1650.48,-105.8 1839.52,-105.8 1839.52,-141.8"/>
<text text-anchor="middle" x="1745" y="-119.6" font-family="Times,serif" font-size="14.00">SafeSchedulerSettingsModule </text>
</g>
<!-- SafeSearchMenuModule  -->
<g id="node28" class="node">
<title>SafeSearchMenuModule </title>
<polygon fill="#fb8072" stroke="black" points="1632.18,-141.8 1473.82,-141.8 1473.82,-105.8 1632.18,-105.8 1632.18,-141.8"/>
<text text-anchor="middle" x="1553" y="-119.6" font-family="Times,serif" font-size="14.00">SafeSearchMenuModule </text>
</g>
<!-- SafeSearchResourceGridModalModule  -->
<g id="node29" class="node">
<title>SafeSearchResourceGridModalModule </title>
<polygon fill="#fb8072" stroke="black" points="1455.32,-141.8 1214.68,-141.8 1214.68,-105.8 1455.32,-105.8 1455.32,-141.8"/>
<text text-anchor="middle" x="1335" y="-119.6" font-family="Times,serif" font-size="14.00">SafeSearchResourceGridModalModule </text>
</g>
<!-- SafeSnackbarSpinnerModule  -->
<g id="node30" class="node">
<title>SafeSnackbarSpinnerModule </title>
<polygon fill="#fb8072" stroke="black" points="1196.57,-141.8 1013.43,-141.8 1013.43,-105.8 1196.57,-105.8 1196.57,-141.8"/>
<text text-anchor="middle" x="1105" y="-119.6" font-family="Times,serif" font-size="14.00">SafeSnackbarSpinnerModule </text>
</g>
<!-- SafeStatusModalModule  -->
<g id="node31" class="node">
<title>SafeStatusModalModule </title>
<polygon fill="#fb8072" stroke="black" points="995.21,-141.8 836.79,-141.8 836.79,-105.8 995.21,-105.8 995.21,-141.8"/>
<text text-anchor="middle" x="916" y="-119.6" font-family="Times,serif" font-size="14.00">SafeStatusModalModule </text>
</g>
<!-- SafeTagboxModule  -->
<g id="node32" class="node">
<title>SafeTagboxModule </title>
<polygon fill="#fb8072" stroke="black" points="818.19,-141.8 687.81,-141.8 687.81,-105.8 818.19,-105.8 818.19,-141.8"/>
<text text-anchor="middle" x="753" y="-119.6" font-family="Times,serif" font-size="14.00">SafeTagboxModule </text>
</g>
<!-- SafeUsersModule  -->
<g id="node33" class="node">
<title>SafeUsersModule </title>
<polygon fill="#fb8072" stroke="black" points="669.81,-141.8 550.19,-141.8 550.19,-105.8 669.81,-105.8 669.81,-141.8"/>
<text text-anchor="middle" x="610" y="-119.6" font-family="Times,serif" font-size="14.00">SafeUsersModule </text>
</g>
<!-- SafeWidgetGridModule  -->
<g id="node34" class="node">
<title>SafeWidgetGridModule </title>
<polygon fill="#fb8072" stroke="black" points="532.3,-141.8 377.7,-141.8 377.7,-105.8 532.3,-105.8 532.3,-141.8"/>
<text text-anchor="middle" x="455" y="-119.6" font-family="Times,serif" font-size="14.00">SafeWidgetGridModule </text>
</g>
<!-- SafeWidgetModule  -->
<g id="node35" class="node">
<title>SafeWidgetModule </title>
<polygon fill="#fb8072" stroke="black" points="359.63,-141.8 230.37,-141.8 230.37,-105.8 359.63,-105.8 359.63,-141.8"/>
<text text-anchor="middle" x="295" y="-119.6" font-family="Times,serif" font-size="14.00">SafeWidgetModule </text>
</g>
<!-- SafeWorkflowStepperModule  -->
<g id="node36" class="node">
<title>SafeWorkflowStepperModule </title>
<polygon fill="#fb8072" stroke="black" points="212.23,-141.8 23.77,-141.8 23.77,-105.8 212.23,-105.8 212.23,-141.8"/>
<text text-anchor="middle" x="118" y="-119.6" font-family="Times,serif" font-size="14.00">SafeWorkflowStepperModule </text>
</g>
<!-- SafeModule -->
<g id="node37" class="node">
<title>SafeModule</title>
<polygon fill="#8dd3c7" stroke="black" points="3210.43,-76.8 3207.43,-80.8 3186.43,-80.8 3183.43,-76.8 3125.57,-76.8 3125.57,-40.8 3210.43,-40.8 3210.43,-76.8"/>
<text text-anchor="middle" x="3168" y="-54.6" font-family="Times,serif" font-size="14.00">SafeModule</text>
</g>
<!-- SafeModule&#45;&gt;SafeAccessModule  -->
<g id="edge1" class="edge">
<title>SafeModule&#45;&gt;SafeAccessModule </title>
<path fill="none" stroke="black" stroke-dasharray="5,2" d="M3210.34,-42.8C3581.44,-42.8 6267,-42.8 6267,-42.8 6267,-42.8 6267,-95.42 6267,-95.42"/>
<polygon fill="black" stroke="black" points="6263.5,-95.42 6267,-105.42 6270.5,-95.42 6263.5,-95.42"/>
</g>
<!-- SafeModule&#45;&gt;SafeAggregationBuilderModule  -->
<g id="edge2" class="edge">
<title>SafeModule&#45;&gt;SafeAggregationBuilderModule </title>
<path fill="none" stroke="black" stroke-dasharray="5,2" d="M3210.36,-44.8C3569.08,-44.8 6085,-44.8 6085,-44.8 6085,-44.8 6085,-95.48 6085,-95.48"/>
<polygon fill="black" stroke="black" points="6081.5,-95.48 6085,-105.48 6088.5,-95.48 6081.5,-95.48"/>
</g>
<!-- SafeModule&#45;&gt;SafeApplicationTemplatesModule  -->
<g id="edge3" class="edge">
<title>SafeModule&#45;&gt;SafeApplicationTemplatesModule </title>
<path fill="none" stroke="black" stroke-dasharray="5,2" d="M3210.3,-46.8C3552.91,-46.8 5861,-46.8 5861,-46.8 5861,-46.8 5861,-95.55 5861,-95.55"/>
<polygon fill="black" stroke="black" points="5857.5,-95.55 5861,-105.55 5864.5,-95.55 5857.5,-95.55"/>
</g>
<!-- SafeModule&#45;&gt;SafeApplicationsSummaryModule  -->
<g id="edge4" class="edge">
<title>SafeModule&#45;&gt;SafeApplicationsSummaryModule </title>
<path fill="none" stroke="black" stroke-dasharray="5,2" d="M3210.21,-48.8C3535.44,-48.8 5630,-48.8 5630,-48.8 5630,-48.8 5630,-95.64 5630,-95.64"/>
<polygon fill="black" stroke="black" points="5626.5,-95.64 5630,-105.64 5633.5,-95.64 5626.5,-95.64"/>
</g>
<!-- SafeModule&#45;&gt;SafeButtonModule  -->
<g id="edge5" class="edge">
<title>SafeModule&#45;&gt;SafeButtonModule </title>
<path fill="none" stroke="black" stroke-dasharray="5,2" d="M3210.4,-50.8C3521.7,-50.8 5442,-50.8 5442,-50.8 5442,-50.8 5442,-95.76 5442,-95.76"/>
<polygon fill="black" stroke="black" points="5438.5,-95.76 5442,-105.76 5445.5,-95.76 5438.5,-95.76"/>
</g>
<!-- SafeModule&#45;&gt;SafeChartModule  -->
<g id="edge6" class="edge">
<title>SafeModule&#45;&gt;SafeChartModule </title>
<path fill="none" stroke="black" stroke-dasharray="5,2" d="M3210.61,-52.8C3511.23,-52.8 5301,-52.8 5301,-52.8 5301,-52.8 5301,-95.52 5301,-95.52"/>
<polygon fill="black" stroke="black" points="5297.5,-95.52 5301,-105.52 5304.5,-95.52 5297.5,-95.52"/>
</g>
<!-- SafeModule&#45;&gt;SafeChartSettingsModule  -->
<g id="edge7" class="edge">
<title>SafeModule&#45;&gt;SafeChartSettingsModule </title>
<path fill="none" stroke="black" stroke-dasharray="5,2" d="M3210.58,-54.8C3497.82,-54.8 5141,-54.8 5141,-54.8 5141,-54.8 5141,-95.67 5141,-95.67"/>
<polygon fill="black" stroke="black" points="5137.5,-95.67 5141,-105.67 5144.5,-95.67 5137.5,-95.67"/>
</g>
<!-- SafeModule&#45;&gt;SafeConfirmModalModule  -->
<g id="edge8" class="edge">
<title>SafeModule&#45;&gt;SafeConfirmModalModule </title>
<path fill="none" stroke="black" stroke-dasharray="5,2" d="M3210.41,-56.8C3481.02,-56.8 4955,-56.8 4955,-56.8 4955,-56.8 4955,-95.49 4955,-95.49"/>
<polygon fill="black" stroke="black" points="4951.5,-95.49 4955,-105.49 4958.5,-95.49 4951.5,-95.49"/>
</g>
<!-- SafeModule&#45;&gt;SafeContentChoiceModule  -->
<g id="edge9" class="edge">
<title>SafeModule&#45;&gt;SafeContentChoiceModule </title>
<path fill="none" stroke="black" stroke-dasharray="5,2" d="M3210.3,-58.8C3463.28,-58.8 4765,-58.8 4765,-58.8 4765,-58.8 4765,-95.69 4765,-95.69"/>
<polygon fill="black" stroke="black" points="4761.5,-95.69 4765,-105.69 4768.5,-95.69 4761.5,-95.69"/>
</g>
<!-- SafeModule&#45;&gt;SafeConvertModalModule  -->
<g id="edge10" class="edge">
<title>SafeModule&#45;&gt;SafeConvertModalModule </title>
<path fill="none" stroke="black" stroke-dasharray="5,2" d="M3210.52,-60.8C3445.64,-60.8 4576,-60.8 4576,-60.8 4576,-60.8 4576,-95.58 4576,-95.58"/>
<polygon fill="black" stroke="black" points="4572.5,-95.58 4576,-105.58 4579.5,-95.58 4572.5,-95.58"/>
</g>
<!-- SafeModule&#45;&gt;SafeEditorModule  -->
<g id="edge11" class="edge">
<title>SafeModule&#45;&gt;SafeEditorModule </title>
<path fill="none" stroke="black" stroke-dasharray="5,2" d="M3210.46,-62.8C3428.49,-62.8 4412,-62.8 4412,-62.8 4412,-62.8 4412,-95.5 4412,-95.5"/>
<polygon fill="black" stroke="black" points="4408.5,-95.5 4412,-105.5 4415.5,-95.5 4408.5,-95.5"/>
</g>
<!-- SafeModule&#45;&gt;SafeEditorSettingsModule  -->
<g id="edge12" class="edge">
<title>SafeModule&#45;&gt;SafeEditorSettingsModule </title>
<path fill="none" stroke="black" stroke-dasharray="5,2" d="M3210.38,-64.8C3410.24,-64.8 4249,-64.8 4249,-64.8 4249,-64.8 4249,-95.78 4249,-95.78"/>
<polygon fill="black" stroke="black" points="4245.5,-95.78 4249,-105.78 4252.5,-95.78 4245.5,-95.78"/>
</g>
<!-- SafeModule&#45;&gt;SafeFormBuilderModule  -->
<g id="edge13" class="edge">
<title>SafeModule&#45;&gt;SafeFormBuilderModule </title>
<path fill="none" stroke="black" stroke-dasharray="5,2" d="M3210.45,-66.8C3388.65,-66.8 4067,-66.8 4067,-66.8 4067,-66.8 4067,-95.76 4067,-95.76"/>
<polygon fill="black" stroke="black" points="4063.5,-95.76 4067,-105.76 4070.5,-95.76 4063.5,-95.76"/>
</g>
<!-- SafeModule&#45;&gt;SafeFormModule  -->
<g id="edge14" class="edge">
<title>SafeModule&#45;&gt;SafeFormModule </title>
<path fill="none" stroke="black" stroke-dasharray="5,2" d="M3210.29,-68.8C3367.6,-68.8 3910,-68.8 3910,-68.8 3910,-68.8 3910,-95.79 3910,-95.79"/>
<polygon fill="black" stroke="black" points="3906.5,-95.79 3910,-105.79 3913.5,-95.79 3906.5,-95.79"/>
</g>
<!-- SafeModule&#45;&gt;SafeGridSettingsModule  -->
<g id="edge15" class="edge">
<title>SafeModule&#45;&gt;SafeGridSettingsModule </title>
<path fill="none" stroke="black" stroke-dasharray="5,2" d="M3210.62,-70.8C3345.46,-70.8 3754,-70.8 3754,-70.8 3754,-70.8 3754,-95.56 3754,-95.56"/>
<polygon fill="black" stroke="black" points="3750.5,-95.56 3754,-105.56 3757.5,-95.56 3750.5,-95.56"/>
</g>
<!-- SafeModule&#45;&gt;SafeGridWidgetModule  -->
<g id="edge16" class="edge">
<title>SafeModule&#45;&gt;SafeGridWidgetModule </title>
<path fill="none" stroke="black" stroke-dasharray="5,2" d="M3210.44,-72.8C3315.45,-72.8 3579,-72.8 3579,-72.8 3579,-72.8 3579,-95.68 3579,-95.68"/>
<polygon fill="black" stroke="black" points="3575.5,-95.68 3579,-105.68 3582.5,-95.68 3575.5,-95.68"/>
</g>
<!-- SafeModule&#45;&gt;SafeLayoutModalModule  -->
<g id="edge17" class="edge">
<title>SafeModule&#45;&gt;SafeLayoutModalModule </title>
<path fill="none" stroke="black" stroke-dasharray="5,2" d="M3210.38,-74.8C3277.81,-74.8 3402,-74.8 3402,-74.8 3402,-74.8 3402,-95.55 3402,-95.55"/>
<polygon fill="black" stroke="black" points="3398.5,-95.55 3402,-105.55 3405.5,-95.55 3398.5,-95.55"/>
</g>
<!-- SafeModule&#45;&gt;SafeLayoutModule  -->
<g id="edge18" class="edge">
<title>SafeModule&#45;&gt;SafeLayoutModule </title>
<path fill="none" stroke="black" stroke-dasharray="5,2" d="M3192.21,-76.91C3192.21,-76.91 3192.21,-95.79 3192.21,-95.79"/>
<polygon fill="black" stroke="black" points="3188.71,-95.79 3192.21,-105.79 3195.71,-95.79 3188.71,-95.79"/>
</g>
<!-- SafeModule&#45;&gt;SafeMapModule  -->
<g id="edge19" class="edge">
<title>SafeModule&#45;&gt;SafeMapModule </title>
<path fill="none" stroke="black" stroke-dasharray="5,2" d="M3140.79,-76.91C3140.79,-76.91 3140.79,-95.79 3140.79,-95.79"/>
<polygon fill="black" stroke="black" points="3137.29,-95.79 3140.79,-105.79 3144.29,-95.79 3137.29,-95.79"/>
</g>
<!-- SafeModule&#45;&gt;SafeMapSettingsModule  -->
<g id="edge20" class="edge">
<title>SafeModule&#45;&gt;SafeMapSettingsModule </title>
<path fill="none" stroke="black" stroke-dasharray="5,2" d="M3125.53,-74.8C3060.83,-74.8 2945,-74.8 2945,-74.8 2945,-74.8 2945,-95.55 2945,-95.55"/>
<polygon fill="black" stroke="black" points="2941.5,-95.55 2945,-105.55 2948.5,-95.55 2941.5,-95.55"/>
</g>
<!-- SafeModule&#45;&gt;SafePreviousButtonModule  -->
<g id="edge21" class="edge">
<title>SafeModule&#45;&gt;SafePreviousButtonModule </title>
<path fill="none" stroke="black" stroke-dasharray="5,2" d="M3125.49,-72.8C3020.99,-72.8 2760,-72.8 2760,-72.8 2760,-72.8 2760,-95.68 2760,-95.68"/>
<polygon fill="black" stroke="black" points="2756.5,-95.68 2760,-105.68 2763.5,-95.68 2756.5,-95.68"/>
</g>
<!-- SafeModule&#45;&gt;SafeProfileModule  -->
<g id="edge22" class="edge">
<title>SafeModule&#45;&gt;SafeProfileModule </title>
<path fill="none" stroke="black" stroke-dasharray="5,2" d="M3125.57,-70.8C2992.32,-70.8 2591,-70.8 2591,-70.8 2591,-70.8 2591,-95.56 2591,-95.56"/>
<polygon fill="black" stroke="black" points="2587.5,-95.56 2591,-105.56 2594.5,-95.56 2587.5,-95.56"/>
</g>
<!-- SafeModule&#45;&gt;SafeRecordHistoryModule  -->
<g id="edge23" class="edge">
<title>SafeModule&#45;&gt;SafeRecordHistoryModule </title>
<path fill="none" stroke="black" stroke-dasharray="5,2" d="M3125.65,-68.8C2968.13,-68.8 2425,-68.8 2425,-68.8 2425,-68.8 2425,-95.79 2425,-95.79"/>
<polygon fill="black" stroke="black" points="2421.5,-95.79 2425,-105.79 2428.5,-95.79 2421.5,-95.79"/>
</g>
<!-- SafeModule&#45;&gt;SafeRecordModalModule  -->
<g id="edge24" class="edge">
<title>SafeModule&#45;&gt;SafeRecordModalModule </title>
<path fill="none" stroke="black" stroke-dasharray="5,2" d="M3125.67,-66.8C2943.93,-66.8 2239,-66.8 2239,-66.8 2239,-66.8 2239,-95.76 2239,-95.76"/>
<polygon fill="black" stroke="black" points="2235.5,-95.76 2239,-105.76 2242.5,-95.76 2235.5,-95.76"/>
</g>
<!-- SafeModule&#45;&gt;SafeRolesModule  -->
<g id="edge25" class="edge">
<title>SafeModule&#45;&gt;SafeRolesModule </title>
<path fill="none" stroke="black" stroke-dasharray="5,2" d="M3125.64,-64.8C2924.91,-64.8 2079,-64.8 2079,-64.8 2079,-64.8 2079,-95.78 2079,-95.78"/>
<polygon fill="black" stroke="black" points="2075.5,-95.78 2079,-105.78 2082.5,-95.78 2075.5,-95.78"/>
</g>
<!-- SafeModule&#45;&gt;SafeSchedulerModule  -->
<g id="edge26" class="edge">
<title>SafeModule&#45;&gt;SafeSchedulerModule </title>
<path fill="none" stroke="black" stroke-dasharray="5,2" d="M3125.71,-62.8C2908.56,-62.8 1929,-62.8 1929,-62.8 1929,-62.8 1929,-95.5 1929,-95.5"/>
<polygon fill="black" stroke="black" points="1925.5,-95.5 1929,-105.5 1932.5,-95.5 1925.5,-95.5"/>
</g>
<!-- SafeModule&#45;&gt;SafeSchedulerSettingsModule  -->
<g id="edge27" class="edge">
<title>SafeModule&#45;&gt;SafeSchedulerSettingsModule </title>
<path fill="none" stroke="black" stroke-dasharray="5,2" d="M3125.41,-60.8C2888.64,-60.8 1745,-60.8 1745,-60.8 1745,-60.8 1745,-95.58 1745,-95.58"/>
<polygon fill="black" stroke="black" points="1741.5,-95.58 1745,-105.58 1748.5,-95.58 1741.5,-95.58"/>
</g>
<!-- SafeModule&#45;&gt;SafeSearchMenuModule  -->
<g id="edge28" class="edge">
<title>SafeModule&#45;&gt;SafeSearchMenuModule </title>
<path fill="none" stroke="black" stroke-dasharray="5,2" d="M3125.63,-58.8C2870.82,-58.8 1553,-58.8 1553,-58.8 1553,-58.8 1553,-95.69 1553,-95.69"/>
<polygon fill="black" stroke="black" points="1549.5,-95.69 1553,-105.69 1556.5,-95.69 1549.5,-95.69"/>
</g>
<!-- SafeModule&#45;&gt;SafeSearchResourceGridModalModule  -->
<g id="edge29" class="edge">
<title>SafeModule&#45;&gt;SafeSearchResourceGridModalModule </title>
<path fill="none" stroke="black" stroke-dasharray="5,2" d="M3125.39,-56.8C2850.17,-56.8 1335,-56.8 1335,-56.8 1335,-56.8 1335,-95.49 1335,-95.49"/>
<polygon fill="black" stroke="black" points="1331.5,-95.49 1335,-105.49 1338.5,-95.49 1331.5,-95.49"/>
</g>
<!-- SafeModule&#45;&gt;SafeSnackbarSpinnerModule  -->
<g id="edge30" class="edge">
<title>SafeModule&#45;&gt;SafeSnackbarSpinnerModule </title>
<path fill="none" stroke="black" stroke-dasharray="5,2" d="M3125.38,-54.8C2830.5,-54.8 1105,-54.8 1105,-54.8 1105,-54.8 1105,-95.67 1105,-95.67"/>
<polygon fill="black" stroke="black" points="1101.5,-95.67 1105,-105.67 1108.5,-95.67 1101.5,-95.67"/>
</g>
<!-- SafeModule&#45;&gt;SafeStatusModalModule  -->
<g id="edge31" class="edge">
<title>SafeModule&#45;&gt;SafeStatusModalModule </title>
<path fill="none" stroke="black" stroke-dasharray="5,2" d="M3125.52,-52.8C2815.7,-52.8 916,-52.8 916,-52.8 916,-52.8 916,-95.52 916,-95.52"/>
<polygon fill="black" stroke="black" points="912.5,-95.52 916,-105.52 919.5,-95.52 912.5,-95.52"/>
</g>
<!-- SafeModule&#45;&gt;SafeTagboxModule  -->
<g id="edge32" class="edge">
<title>SafeModule&#45;&gt;SafeTagboxModule </title>
<path fill="none" stroke="black" stroke-dasharray="5,2" d="M3125.57,-50.8C2803.22,-50.8 753,-50.8 753,-50.8 753,-50.8 753,-95.76 753,-95.76"/>
<polygon fill="black" stroke="black" points="749.5,-95.76 753,-105.76 756.5,-95.76 749.5,-95.76"/>
</g>
<!-- SafeModule&#45;&gt;SafeUsersModule  -->
<g id="edge33" class="edge">
<title>SafeModule&#45;&gt;SafeUsersModule </title>
<path fill="none" stroke="black" stroke-dasharray="5,2" d="M3125.74,-48.8C2793.15,-48.8 610,-48.8 610,-48.8 610,-48.8 610,-95.64 610,-95.64"/>
<polygon fill="black" stroke="black" points="606.5,-95.64 610,-105.64 613.5,-95.64 606.5,-95.64"/>
</g>
<!-- SafeModule&#45;&gt;SafeWidgetGridModule  -->
<g id="edge34" class="edge">
<title>SafeModule&#45;&gt;SafeWidgetGridModule </title>
<path fill="none" stroke="black" stroke-dasharray="5,2" d="M3125.66,-46.8C2781.46,-46.8 455,-46.8 455,-46.8 455,-46.8 455,-95.55 455,-95.55"/>
<polygon fill="black" stroke="black" points="451.5,-95.55 455,-105.55 458.5,-95.55 451.5,-95.55"/>
</g>
<!-- SafeModule&#45;&gt;SafeWidgetModule  -->
<g id="edge35" class="edge">
<title>SafeModule&#45;&gt;SafeWidgetModule </title>
<path fill="none" stroke="black" stroke-dasharray="5,2" d="M3125.72,-44.8C2770.37,-44.8 295,-44.8 295,-44.8 295,-44.8 295,-95.48 295,-95.48"/>
<polygon fill="black" stroke="black" points="291.5,-95.48 295,-105.48 298.5,-95.48 291.5,-95.48"/>
</g>
<!-- SafeModule&#45;&gt;SafeWorkflowStepperModule  -->
<g id="edge36" class="edge">
<title>SafeModule&#45;&gt;SafeWorkflowStepperModule </title>
<path fill="none" stroke="black" stroke-dasharray="5,2" d="M3125.76,-42.8C2758.33,-42.8 118,-42.8 118,-42.8 118,-42.8 118,-95.42 118,-95.42"/>
<polygon fill="black" stroke="black" points="114.5,-95.42 118,-105.42 121.5,-95.42 114.5,-95.42"/>
</g>
</g>
</svg>
