<?xml version="1.0" encoding="UTF-8" standalone="no"?>
<!DOCTYPE svg PUBLIC "-//W3C//DTD SVG 1.1//EN"
 "http://www.w3.org/Graphics/SVG/1.1/DTD/svg11.dtd">
<!-- Generated by graphviz version 3.0.0 (20220226.1711)
 -->
<!-- Title: dependencies Pages: 1 -->
<svg width="538pt" height="247pt"
 viewBox="0.00 0.00 538.00 246.80" xmlns="http://www.w3.org/2000/svg" xmlns:xlink="http://www.w3.org/1999/xlink">
<g id="graph0" class="graph" transform="scale(1 1) rotate(0) translate(4 242.8)">
<title>dependencies</title>
<polygon fill="white" stroke="transparent" points="-4,4 -4,-242.8 534,-242.8 534,4 -4,4"/>
<text text-anchor="middle" x="265" y="-8.2" font-family="sans-serif" font-size="14.00">dependencies</text>
<g id="clust1" class="cluster">
<title>cluster_SafePreferencesModalModule</title>
<polygon fill="none" stroke="black" stroke-dasharray="1,5" points="8,-32.8 8,-230.8 522,-230.8 522,-32.8 8,-32.8"/>
</g>
<g id="clust5" class="cluster">
<title>cluster_SafePreferencesModalModule_exports</title>
<polygon fill="none" stroke="black" points="197,-170.8 197,-222.8 425,-222.8 425,-170.8 197,-170.8"/>
</g>
<g id="clust4" class="cluster">
<title>cluster_SafePreferencesModalModule_imports</title>
<polygon fill="none" stroke="black" points="248,-40.8 248,-92.8 514,-92.8 514,-40.8 248,-40.8"/>
</g>
<g id="clust2" class="cluster">
<title>cluster_SafePreferencesModalModule_declarations</title>
<polygon fill="none" stroke="black" points="16,-40.8 16,-92.8 240,-92.8 240,-40.8 16,-40.8"/>
</g>
<!-- SafePreferencesModalComponent -->
<g id="node1" class="node">
<title>SafePreferencesModalComponent</title>
<polygon fill="#ffffb3" stroke="black" points="232.05,-84.8 23.95,-84.8 23.95,-48.8 232.05,-48.8 232.05,-84.8"/>
<text text-anchor="middle" x="128" y="-62.6" font-family="Times,serif" font-size="14.00">SafePreferencesModalComponent</text>
</g>
<!-- SafePreferencesModalModule -->
<g id="node2" class="node">
<title>SafePreferencesModalModule</title>
<polygon fill="#8dd3c7" stroke="black" points="404.27,-149.8 401.27,-153.8 380.27,-153.8 377.27,-149.8 217.73,-149.8 217.73,-113.8 404.27,-113.8 404.27,-149.8"/>
<text text-anchor="middle" x="311" y="-127.6" font-family="Times,serif" font-size="14.00">SafePreferencesModalModule</text>
</g>
<!-- SafePreferencesModalComponent&#45;&gt;SafePreferencesModalModule -->
<g id="edge1" class="edge">
<title>SafePreferencesModalComponent&#45;&gt;SafePreferencesModalModule</title>
<path fill="none" stroke="black" d="M224.94,-84.91C224.94,-84.91 224.94,-103.79 224.94,-103.79"/>
<polygon fill="black" stroke="black" points="221.44,-103.79 224.94,-113.79 228.44,-103.79 221.44,-103.79"/>
</g>
<!-- SafePreferencesModalComponent  -->
<g id="node5" class="node">
<title>SafePreferencesModalComponent </title>
<polygon fill="#fb8072" stroke="black" points="416.55,-214.8 205.45,-214.8 205.45,-178.8 416.55,-178.8 416.55,-214.8"/>
<text text-anchor="middle" x="311" y="-192.6" font-family="Times,serif" font-size="14.00">SafePreferencesModalComponent </text>
</g>
<!-- SafePreferencesModalModule&#45;&gt;SafePreferencesModalComponent  -->
<g id="edge4" class="edge">
<title>SafePreferencesModalModule&#45;&gt;SafePreferencesModalComponent </title>
<path fill="none" stroke="black" stroke-dasharray="5,2" d="M311,-149.91C311,-149.91 311,-168.79 311,-168.79"/>
<polygon fill="black" stroke="black" points="307.5,-168.79 311,-178.79 314.5,-168.79 307.5,-168.79"/>
</g>
<!-- SafeButtonModule -->
<g id="node3" class="node">
<title>SafeButtonModule</title>
<polygon fill="#8dd3c7" stroke="black" points="506.05,-84.8 503.05,-88.8 482.05,-88.8 479.05,-84.8 383.95,-84.8 383.95,-48.8 506.05,-48.8 506.05,-84.8"/>
<text text-anchor="middle" x="445" y="-62.6" font-family="Times,serif" font-size="14.00">SafeButtonModule</text>
</g>
<!-- SafeButtonModule&#45;&gt;SafePreferencesModalModule -->
<g id="edge2" class="edge">
<title>SafeButtonModule&#45;&gt;SafePreferencesModalModule</title>
<path fill="none" stroke="black" d="M393.93,-84.91C393.93,-84.91 393.93,-103.79 393.93,-103.79"/>
<polygon fill="black" stroke="black" points="390.43,-103.79 393.93,-113.79 397.43,-103.79 390.43,-103.79"/>
</g>
<!-- SafeIconModule -->
<g id="node4" class="node">
<title>SafeIconModule</title>
<polygon fill="#8dd3c7" stroke="black" points="365.8,-84.8 362.8,-88.8 341.8,-88.8 338.8,-84.8 256.2,-84.8 256.2,-48.8 365.8,-48.8 365.8,-84.8"/>
<text text-anchor="middle" x="311" y="-62.6" font-family="Times,serif" font-size="14.00">SafeIconModule</text>
</g>
<!-- SafeIconModule&#45;&gt;SafePreferencesModalModule -->
<g id="edge3" class="edge">
<title>SafeIconModule&#45;&gt;SafePreferencesModalModule</title>
<path fill="none" stroke="black" d="M311,-84.91C311,-84.91 311,-103.79 311,-103.79"/>
<polygon fill="black" stroke="black" points="307.5,-103.79 311,-113.79 314.5,-103.79 307.5,-103.79"/>
</g>
</g>
</svg>
