<?xml version="1.0" encoding="UTF-8" standalone="no"?>
<!DOCTYPE svg PUBLIC "-//W3C//DTD SVG 1.1//EN"
 "http://www.w3.org/Graphics/SVG/1.1/DTD/svg11.dtd">
<!-- Generated by graphviz version 2.47.0 (20210316.0004)
 -->
<!-- Title: dependencies Pages: 1 -->
<svg width="766pt" height="284pt"
 viewBox="0.00 0.00 766.00 284.00" xmlns="http://www.w3.org/2000/svg" xmlns:xlink="http://www.w3.org/1999/xlink">
<g id="graph0" class="graph" transform="scale(1 1) rotate(0) translate(4 280)">
<title>dependencies</title>
<polygon fill="white" stroke="transparent" points="-4,4 -4,-280 762,-280 762,4 -4,4"/>
<text text-anchor="start" x="358.01" y="-42.4" font-family="sans-serif" font-weight="bold" font-size="14.00">Legend</text>
<polygon fill="#ffffb3" stroke="transparent" points="145,-10 145,-30 165,-30 165,-10 145,-10"/>
<text text-anchor="start" x="168.63" y="-15.4" font-family="sans-serif" font-size="14.00"> &#160;Declarations</text>
<polygon fill="#8dd3c7" stroke="transparent" points="258,-10 258,-30 278,-30 278,-10 258,-10"/>
<text text-anchor="start" x="281.73" y="-15.4" font-family="sans-serif" font-size="14.00"> &#160;Module</text>
<polygon fill="#80b1d3" stroke="transparent" points="344,-10 344,-30 364,-30 364,-10 344,-10"/>
<text text-anchor="start" x="367.78" y="-15.4" font-family="sans-serif" font-size="14.00"> &#160;Bootstrap</text>
<polygon fill="#fdb462" stroke="transparent" points="441,-10 441,-30 461,-30 461,-10 441,-10"/>
<text text-anchor="start" x="464.67" y="-15.4" font-family="sans-serif" font-size="14.00"> &#160;Providers</text>
<polygon fill="#fb8072" stroke="transparent" points="537,-10 537,-30 557,-30 557,-10 537,-10"/>
<text text-anchor="start" x="560.73" y="-15.4" font-family="sans-serif" font-size="14.00"> &#160;Exports</text>
<g id="clust1" class="cluster">
<title>cluster_SafeQueryBuilderModule</title>
<polygon fill="none" stroke="black" stroke-dasharray="1,5" points="8,-70 8,-268 750,-268 750,-70 8,-70"/>
</g>
<g id="clust2" class="cluster">
<title>cluster_SafeQueryBuilderModule_declarations</title>
<polygon fill="none" stroke="black" points="16,-78 16,-130 742,-130 742,-78 16,-78"/>
</g>
<g id="clust8" class="cluster">
<title>cluster_SafeQueryBuilderModule_exports</title>
<polygon fill="none" stroke="black" points="261,-208 261,-260 463,-260 463,-208 261,-208"/>
</g>
<!-- SafeQueryBuilderComponent -->
<g id="node1" class="node">
<title>SafeQueryBuilderComponent</title>
<polygon fill="#ffffb3" stroke="black" points="733.68,-122 550.32,-122 550.32,-86 733.68,-86 733.68,-122"/>
<text text-anchor="middle" x="642" y="-99.8" font-family="Times,serif" font-size="14.00">SafeQueryBuilderComponent</text>
</g>
<!-- SafeQueryBuilderModule -->
<g id="node5" class="node">
<title>SafeQueryBuilderModule</title>
<polygon fill="#8dd3c7" stroke="black" points="442.9,-187 439.9,-191 418.9,-191 415.9,-187 281.1,-187 281.1,-151 442.9,-151 442.9,-187"/>
<text text-anchor="middle" x="362" y="-164.8" font-family="Times,serif" font-size="14.00">SafeQueryBuilderModule</text>
</g>
<!-- SafeQueryBuilderComponent&#45;&gt;SafeQueryBuilderModule -->
<g id="edge1" class="edge">
<title>SafeQueryBuilderComponent&#45;&gt;SafeQueryBuilderModule</title>
<path fill="none" stroke="black" d="M642,-122.11C642,-141.34 642,-169 642,-169 642,-169 452.99,-169 452.99,-169"/>
<polygon fill="black" stroke="black" points="452.99,-165.5 442.99,-169 452.99,-172.5 452.99,-165.5"/>
</g>
<!-- SafeTabFieldsComponent -->
<g id="node2" class="node">
<title>SafeTabFieldsComponent</title>
<polygon fill="#ffffb3" stroke="black" points="532.2,-122 369.8,-122 369.8,-86 532.2,-86 532.2,-122"/>
<text text-anchor="middle" x="451" y="-99.8" font-family="Times,serif" font-size="14.00">SafeTabFieldsComponent</text>
</g>
<!-- SafeTabFieldsComponent&#45;&gt;SafeQueryBuilderModule -->
<g id="edge2" class="edge">
<title>SafeTabFieldsComponent&#45;&gt;SafeQueryBuilderModule</title>
<path fill="none" stroke="black" d="M406.3,-122.11C406.3,-122.11 406.3,-140.99 406.3,-140.99"/>
<polygon fill="black" stroke="black" points="402.8,-140.99 406.3,-150.99 409.8,-140.99 402.8,-140.99"/>
</g>
<!-- SafeTabFilterComponent -->
<g id="node3" class="node">
<title>SafeTabFilterComponent</title>
<polygon fill="#ffffb3" stroke="black" points="352.3,-122 193.7,-122 193.7,-86 352.3,-86 352.3,-122"/>
<text text-anchor="middle" x="273" y="-99.8" font-family="Times,serif" font-size="14.00">SafeTabFilterComponent</text>
</g>
<!-- SafeTabFilterComponent&#45;&gt;SafeQueryBuilderModule -->
<g id="edge3" class="edge">
<title>SafeTabFilterComponent&#45;&gt;SafeQueryBuilderModule</title>
<path fill="none" stroke="black" d="M316.73,-122.11C316.73,-122.11 316.73,-140.99 316.73,-140.99"/>
<polygon fill="black" stroke="black" points="313.23,-140.99 316.73,-150.99 320.23,-140.99 313.23,-140.99"/>
</g>
<!-- SafeTabSortComponent -->
<g id="node4" class="node">
<title>SafeTabSortComponent</title>
<polygon fill="#ffffb3" stroke="black" points="175.81,-122 24.19,-122 24.19,-86 175.81,-86 175.81,-122"/>
<text text-anchor="middle" x="100" y="-99.8" font-family="Times,serif" font-size="14.00">SafeTabSortComponent</text>
</g>
<!-- SafeTabSortComponent&#45;&gt;SafeQueryBuilderModule -->
<g id="edge4" class="edge">
<title>SafeTabSortComponent&#45;&gt;SafeQueryBuilderModule</title>
<path fill="none" stroke="black" d="M100,-122.11C100,-141.34 100,-169 100,-169 100,-169 271.25,-169 271.25,-169"/>
<polygon fill="black" stroke="black" points="271.25,-172.5 281.25,-169 271.25,-165.5 271.25,-172.5"/>
</g>
<!-- SafeQueryBuilderComponent  -->
<g id="node6" class="node">
<title>SafeQueryBuilderComponent </title>
<polygon fill="#fb8072" stroke="black" points="455.18,-252 268.82,-252 268.82,-216 455.18,-216 455.18,-252"/>
<text text-anchor="middle" x="362" y="-229.8" font-family="Times,serif" font-size="14.00">SafeQueryBuilderComponent </text>
</g>
<!-- SafeQueryBuilderModule&#45;&gt;SafeQueryBuilderComponent  -->
<g id="edge5" class="edge">
<title>SafeQueryBuilderModule&#45;&gt;SafeQueryBuilderComponent </title>
<path fill="none" stroke="black" stroke-dasharray="5,2" d="M362,-187.11C362,-187.11 362,-205.99 362,-205.99"/>
<polygon fill="black" stroke="black" points="358.5,-205.99 362,-215.99 365.5,-205.99 358.5,-205.99"/>
</g>
</g>
</svg>
