<?xml version="1.0" encoding="UTF-8" standalone="no"?>
<!DOCTYPE svg PUBLIC "-//W3C//DTD SVG 1.1//EN"
 "http://www.w3.org/Graphics/SVG/1.1/DTD/svg11.dtd">
<!-- Generated by graphviz version 2.47.0 (20210316.0004)
 -->
<!-- Title: dependencies Pages: 1 -->
<svg width="1592pt" height="349pt"
 viewBox="0.00 0.00 1592.00 349.00" xmlns="http://www.w3.org/2000/svg" xmlns:xlink="http://www.w3.org/1999/xlink">
<g id="graph0" class="graph" transform="scale(1 1) rotate(0) translate(4 345)">
<title>dependencies</title>
<polygon fill="white" stroke="transparent" points="-4,4 -4,-345 1588,-345 1588,4 -4,4"/>
<text text-anchor="start" x="771.01" y="-42.4" font-family="sans-serif" font-weight="bold" font-size="14.00">Legend</text>
<polygon fill="#ffffb3" stroke="transparent" points="558,-10 558,-30 578,-30 578,-10 558,-10"/>
<text text-anchor="start" x="581.63" y="-15.4" font-family="sans-serif" font-size="14.00"> &#160;Declarations</text>
<polygon fill="#8dd3c7" stroke="transparent" points="671,-10 671,-30 691,-30 691,-10 671,-10"/>
<text text-anchor="start" x="694.73" y="-15.4" font-family="sans-serif" font-size="14.00"> &#160;Module</text>
<polygon fill="#80b1d3" stroke="transparent" points="757,-10 757,-30 777,-30 777,-10 757,-10"/>
<text text-anchor="start" x="780.78" y="-15.4" font-family="sans-serif" font-size="14.00"> &#160;Bootstrap</text>
<polygon fill="#fdb462" stroke="transparent" points="854,-10 854,-30 874,-30 874,-10 854,-10"/>
<text text-anchor="start" x="877.67" y="-15.4" font-family="sans-serif" font-size="14.00"> &#160;Providers</text>
<polygon fill="#fb8072" stroke="transparent" points="950,-10 950,-30 970,-30 970,-10 950,-10"/>
<text text-anchor="start" x="973.73" y="-15.4" font-family="sans-serif" font-size="14.00"> &#160;Exports</text>
<g id="clust1" class="cluster">
<title>cluster_SafeQueryBuilderModule</title>
<polygon fill="none" stroke="black" stroke-dasharray="1,5" points="8,-70 8,-333 1576,-333 1576,-70 8,-70"/>
</g>
<g id="clust3" class="cluster">
<title>cluster_SafeQueryBuilderModule_SafeQueryBuilderComponent_providers</title>
<polygon fill="none" stroke="black" points="694,-78 694,-195 1568,-195 1568,-78 694,-78"/>
</g>
<g id="clust8" class="cluster">
<title>cluster_SafeQueryBuilderModule_exports</title>
<polygon fill="none" stroke="black" points="263,-273 263,-325 649,-325 649,-273 263,-273"/>
</g>
<g id="clust7" class="cluster">
<title>cluster_SafeQueryBuilderModule_imports</title>
<polygon fill="none" stroke="black" points="548,-143 548,-195 686,-195 686,-143 548,-143"/>
</g>
<g id="clust2" class="cluster">
<title>cluster_SafeQueryBuilderModule_declarations</title>
<polygon fill="none" stroke="black" points="16,-143 16,-195 540,-195 540,-143 16,-143"/>
</g>
<!-- SafeQueryBuilderComponent -->
<g id="node1" class="node">
<title>SafeQueryBuilderComponent</title>
<polygon fill="#ffffb3" stroke="black" points="1053.68,-187 870.32,-187 870.32,-151 1053.68,-151 1053.68,-187"/>
<text text-anchor="middle" x="962" y="-164.8" font-family="Times,serif" font-size="14.00">SafeQueryBuilderComponent</text>
</g>
<!-- SafeQueryBuilderModule -->
<g id="node5" class="node">
<title>SafeQueryBuilderModule</title>
<polygon fill="#8dd3c7" stroke="black" points="531.9,-252 528.9,-256 507.9,-256 504.9,-252 370.1,-252 370.1,-216 531.9,-216 531.9,-252"/>
<text text-anchor="middle" x="451" y="-229.8" font-family="Times,serif" font-size="14.00">SafeQueryBuilderModule</text>
</g>
<!-- SafeQueryBuilderComponent&#45;&gt;SafeQueryBuilderModule -->
<g id="edge1" class="edge">
<title>SafeQueryBuilderComponent&#45;&gt;SafeQueryBuilderModule</title>
<path fill="none" stroke="black" d="M962,-187.28C962,-208.32 962,-240 962,-240 962,-240 541.97,-240 541.97,-240"/>
<polygon fill="black" stroke="black" points="541.97,-236.5 531.97,-240 541.97,-243.5 541.97,-236.5"/>
</g>
<!-- SafeTabFieldsComponent -->
<g id="node2" class="node">
<title>SafeTabFieldsComponent</title>
<polygon fill="#ffffb3" stroke="black" points="532.2,-187 369.8,-187 369.8,-151 532.2,-151 532.2,-187"/>
<text text-anchor="middle" x="451" y="-164.8" font-family="Times,serif" font-size="14.00">SafeTabFieldsComponent</text>
</g>
<!-- SafeTabFieldsComponent&#45;&gt;SafeQueryBuilderModule -->
<g id="edge3" class="edge">
<title>SafeTabFieldsComponent&#45;&gt;SafeQueryBuilderModule</title>
<path fill="none" stroke="black" d="M451,-187.11C451,-187.11 451,-205.99 451,-205.99"/>
<polygon fill="black" stroke="black" points="447.5,-205.99 451,-215.99 454.5,-205.99 447.5,-205.99"/>
</g>
<!-- SafeTabFilterComponent -->
<g id="node3" class="node">
<title>SafeTabFilterComponent</title>
<polygon fill="#ffffb3" stroke="black" points="352.3,-187 193.7,-187 193.7,-151 352.3,-151 352.3,-187"/>
<text text-anchor="middle" x="273" y="-164.8" font-family="Times,serif" font-size="14.00">SafeTabFilterComponent</text>
</g>
<!-- SafeTabFilterComponent&#45;&gt;SafeQueryBuilderModule -->
<g id="edge4" class="edge">
<title>SafeTabFilterComponent&#45;&gt;SafeQueryBuilderModule</title>
<path fill="none" stroke="black" d="M311.65,-187.02C311.65,-204.37 311.65,-228 311.65,-228 311.65,-228 359.94,-228 359.94,-228"/>
<polygon fill="black" stroke="black" points="359.94,-231.5 369.94,-228 359.94,-224.5 359.94,-231.5"/>
</g>
<!-- SafeTabSortComponent -->
<g id="node4" class="node">
<title>SafeTabSortComponent</title>
<polygon fill="#ffffb3" stroke="black" points="175.81,-187 24.19,-187 24.19,-151 175.81,-151 175.81,-187"/>
<text text-anchor="middle" x="100" y="-164.8" font-family="Times,serif" font-size="14.00">SafeTabSortComponent</text>
</g>
<!-- SafeTabSortComponent&#45;&gt;SafeQueryBuilderModule -->
<g id="edge5" class="edge">
<title>SafeTabSortComponent&#45;&gt;SafeQueryBuilderModule</title>
<path fill="none" stroke="black" d="M100,-187.28C100,-208.32 100,-240 100,-240 100,-240 360.03,-240 360.03,-240"/>
<polygon fill="black" stroke="black" points="360.03,-243.5 370.03,-240 360.03,-236.5 360.03,-243.5"/>
</g>
<!-- SafeQueryBuilderComponent  -->
<g id="node8" class="node">
<title>SafeQueryBuilderComponent </title>
<polygon fill="#fb8072" stroke="black" points="641.18,-317 454.82,-317 454.82,-281 641.18,-281 641.18,-317"/>
<text text-anchor="middle" x="548" y="-294.8" font-family="Times,serif" font-size="14.00">SafeQueryBuilderComponent </text>
</g>
<!-- SafeQueryBuilderModule&#45;&gt;SafeQueryBuilderComponent  -->
<g id="edge7" class="edge">
<title>SafeQueryBuilderModule&#45;&gt;SafeQueryBuilderComponent </title>
<path fill="none" stroke="black" stroke-dasharray="5,2" d="M493.18,-252.11C493.18,-252.11 493.18,-270.99 493.18,-270.99"/>
<polygon fill="black" stroke="black" points="489.68,-270.99 493.18,-280.99 496.68,-270.99 489.68,-270.99"/>
</g>
<!-- SafeTabFieldsComponent  -->
<g id="node9" class="node">
<title>SafeTabFieldsComponent </title>
<polygon fill="#fb8072" stroke="black" points="436.7,-317 271.3,-317 271.3,-281 436.7,-281 436.7,-317"/>
<text text-anchor="middle" x="354" y="-294.8" font-family="Times,serif" font-size="14.00">SafeTabFieldsComponent </text>
</g>
<!-- SafeQueryBuilderModule&#45;&gt;SafeTabFieldsComponent  -->
<g id="edge8" class="edge">
<title>SafeQueryBuilderModule&#45;&gt;SafeTabFieldsComponent </title>
<path fill="none" stroke="black" stroke-dasharray="5,2" d="M403.57,-252.11C403.57,-252.11 403.57,-270.99 403.57,-270.99"/>
<polygon fill="black" stroke="black" points="400.07,-270.99 403.57,-280.99 407.07,-270.99 400.07,-270.99"/>
</g>
<!-- { provide: MAT_AUTOCOMPLETE_SCROLL_STRATEGY, useFactory: scrollFactory, deps: [Overlay] } -->
<g id="node6" class="node">
<title>{ provide: MAT_AUTOCOMPLETE_SCROLL_STRATEGY, useFactory: scrollFactory, deps: [Overlay] }</title>
<ellipse fill="#fdb462" stroke="black" cx="1131" cy="-104" rx="429.07" ry="18"/>
<text text-anchor="middle" x="1131" y="-99.8" font-family="Times,serif" font-size="14.00">{ provide: MAT_AUTOCOMPLETE_SCROLL_STRATEGY, useFactory: scrollFactory, deps: [Overlay] }</text>
</g>
<!-- { provide: MAT_AUTOCOMPLETE_SCROLL_STRATEGY, useFactory: scrollFactory, deps: [Overlay] }&#45;&gt;SafeQueryBuilderComponent -->
<g id="edge2" class="edge">
<title>{ provide: MAT_AUTOCOMPLETE_SCROLL_STRATEGY, useFactory: scrollFactory, deps: [Overlay] }&#45;&gt;SafeQueryBuilderComponent</title>
<path fill="none" stroke="black" d="M962,-120.74C962,-120.74 962,-140.72 962,-140.72"/>
<polygon fill="black" stroke="black" points="958.5,-140.72 962,-150.72 965.5,-140.72 958.5,-140.72"/>
</g>
<!-- SafeButtonModule -->
<g id="node7" class="node">
<title>SafeButtonModule</title>
<polygon fill="#8dd3c7" stroke="black" points="678.04,-187 675.04,-191 654.04,-191 651.04,-187 555.96,-187 555.96,-151 678.04,-151 678.04,-187"/>
<text text-anchor="middle" x="617" y="-164.8" font-family="Times,serif" font-size="14.00">SafeButtonModule</text>
</g>
<!-- SafeButtonModule&#45;&gt;SafeQueryBuilderModule -->
<g id="edge6" class="edge">
<title>SafeButtonModule&#45;&gt;SafeQueryBuilderModule</title>
<path fill="none" stroke="black" d="M598.53,-187.02C598.53,-204.37 598.53,-228 598.53,-228 598.53,-228 542.1,-228 542.1,-228"/>
<polygon fill="black" stroke="black" points="542.1,-224.5 532.1,-228 542.1,-231.5 542.1,-224.5"/>
</g>
</g>
</svg>
