<?xml version="1.0" encoding="UTF-8" standalone="no"?>
<!DOCTYPE svg PUBLIC "-//W3C//DTD SVG 1.1//EN"
 "http://www.w3.org/Graphics/SVG/1.1/DTD/svg11.dtd">
<!-- Generated by graphviz version 3.0.0 (20220226.1711)
 -->
<!-- Title: dependencies Pages: 1 -->
<svg width="846pt" height="358pt"
 viewBox="0.00 0.00 846.00 358.39" xmlns="http://www.w3.org/2000/svg" xmlns:xlink="http://www.w3.org/1999/xlink">
<g id="graph0" class="graph" transform="scale(1 1) rotate(0) translate(4 354.39)">
<title>dependencies</title>
<polygon fill="white" stroke="transparent" points="-4,4 -4,-354.39 842,-354.39 842,4 -4,4"/>
<text text-anchor="middle" x="419" y="-8.2" font-family="sans-serif" font-size="14.00">dependencies</text>
<g id="clust1" class="cluster">
<title>cluster_SafeReferenceDataDropdownModule</title>
<polygon fill="none" stroke="black" stroke-dasharray="1,5" points="8,-32.8 8,-342.39 830,-342.39 830,-32.8 8,-32.8"/>
</g>
<g id="clust5" class="cluster">
<title>cluster_SafeReferenceDataDropdownModule_exports</title>
<polygon fill="none" stroke="black" points="285,-282.39 285,-334.39 553,-334.39 553,-282.39 285,-282.39"/>
</g>
<g id="clust3" class="cluster">
<title>cluster_SafeReferenceDataDropdownModule_SafeReferenceDataDropdownComponent_providers</title>
<polygon fill="none" stroke="black" points="16,-40.8 16,-204.39 822,-204.39 822,-40.8 16,-40.8"/>
</g>
<!-- SafeReferenceDataDropdownComponent -->
<g id="node1" class="node">
<title>SafeReferenceDataDropdownComponent</title>
<polygon fill="#ffffb3" stroke="black" points="543.75,-196.39 294.25,-196.39 294.25,-160.39 543.75,-160.39 543.75,-196.39"/>
<text text-anchor="middle" x="419" y="-174.19" font-family="Times,serif" font-size="14.00">SafeReferenceDataDropdownComponent</text>
</g>
<!-- SafeReferenceDataDropdownModule -->
<g id="node2" class="node">
<title>SafeReferenceDataDropdownModule</title>
<polygon fill="#8dd3c7" stroke="black" points="532.97,-261.39 529.97,-265.39 508.97,-265.39 505.97,-261.39 305.03,-261.39 305.03,-225.39 532.97,-225.39 532.97,-261.39"/>
<text text-anchor="middle" x="419" y="-239.19" font-family="Times,serif" font-size="14.00">SafeReferenceDataDropdownModule</text>
</g>
<!-- SafeReferenceDataDropdownComponent&#45;&gt;SafeReferenceDataDropdownModule -->
<g id="edge1" class="edge">
<title>SafeReferenceDataDropdownComponent&#45;&gt;SafeReferenceDataDropdownModule</title>
<path fill="none" stroke="black" d="M419,-196.5C419,-196.5 419,-215.38 419,-215.38"/>
<polygon fill="black" stroke="black" points="415.5,-215.38 419,-225.38 422.5,-215.38 415.5,-215.38"/>
</g>
<!-- SafeReferenceDataDropdownComponent  -->
<g id="node4" class="node">
<title>SafeReferenceDataDropdownComponent </title>
<polygon fill="#fb8072" stroke="black" points="545.25,-326.39 292.75,-326.39 292.75,-290.39 545.25,-290.39 545.25,-326.39"/>
<text text-anchor="middle" x="419" y="-304.19" font-family="Times,serif" font-size="14.00">SafeReferenceDataDropdownComponent </text>
</g>
<!-- SafeReferenceDataDropdownModule&#45;&gt;SafeReferenceDataDropdownComponent  -->
<g id="edge3" class="edge">
<title>SafeReferenceDataDropdownModule&#45;&gt;SafeReferenceDataDropdownComponent </title>
<path fill="none" stroke="black" stroke-dasharray="5,2" d="M419,-261.5C419,-261.5 419,-280.38 419,-280.38"/>
<polygon fill="black" stroke="black" points="415.5,-280.38 419,-290.38 422.5,-280.38 415.5,-280.38"/>
</g>
<!-- {
 &#160;&#160;&#160;provide: MAT_SELECT_SCROLL_STRATEGY, useFactory: scrollFactory, deps: [Overlay],
} -->
<g id="node3" class="node">
<title>{
 &#160;&#160;&#160;provide: MAT_SELECT_SCROLL_STRATEGY, useFactory: scrollFactory, deps: [Overlay],
}</title>
<ellipse fill="#fdb462" stroke="black" cx="419" cy="-90.1" rx="394.68" ry="41.09"/>
<text text-anchor="middle" x="419" y="-102.7" font-family="Times,serif" font-size="14.00">{</text>
<text text-anchor="middle" x="419" y="-85.9" font-family="Times,serif" font-size="14.00"> &#160;&#160;&#160;provide: MAT_SELECT_SCROLL_STRATEGY, useFactory: scrollFactory, deps: [Overlay],</text>
<text text-anchor="middle" x="419" y="-69.1" font-family="Times,serif" font-size="14.00">}</text>
</g>
<!-- {
 &#160;&#160;&#160;provide: MAT_SELECT_SCROLL_STRATEGY, useFactory: scrollFactory, deps: [Overlay],
}&#45;&gt;SafeReferenceDataDropdownComponent -->
<g id="edge2" class="edge">
<title>{
 &#160;&#160;&#160;provide: MAT_SELECT_SCROLL_STRATEGY, useFactory: scrollFactory, deps: [Overlay],
}&#45;&gt;SafeReferenceDataDropdownComponent</title>
<path fill="none" stroke="black" d="M419,-131.4C419,-131.4 419,-150.06 419,-150.06"/>
<polygon fill="black" stroke="black" points="415.5,-150.06 419,-160.06 422.5,-150.06 415.5,-150.06"/>
</g>
</g>
</svg>
