<?xml version="1.0" encoding="UTF-8" standalone="no"?>
<!DOCTYPE svg PUBLIC "-//W3C//DTD SVG 1.1//EN"
 "http://www.w3.org/Graphics/SVG/1.1/DTD/svg11.dtd">
<!-- Generated by graphviz version 3.0.0 (20220226.1711)
 -->
<!-- Title: dependencies Pages: 1 -->
<svg width="536pt" height="247pt"
 viewBox="0.00 0.00 536.00 246.80" xmlns="http://www.w3.org/2000/svg" xmlns:xlink="http://www.w3.org/1999/xlink">
<g id="graph0" class="graph" transform="scale(1 1) rotate(0) translate(4 242.8)">
<title>dependencies</title>
<polygon fill="white" stroke="transparent" points="-4,4 -4,-242.8 532,-242.8 532,4 -4,4"/>
<text text-anchor="middle" x="264" y="-8.2" font-family="sans-serif" font-size="14.00">dependencies</text>
<g id="clust1" class="cluster">
<title>cluster_SafeAccessModule</title>
<polygon fill="none" stroke="black" stroke-dasharray="1,5" points="8,-32.8 8,-230.8 520,-230.8 520,-32.8 8,-32.8"/>
</g>
<g id="clust2" class="cluster">
<title>cluster_SafeAccessModule_declarations</title>
<polygon fill="none" stroke="black" points="162,-40.8 162,-92.8 512,-92.8 512,-40.8 162,-40.8"/>
</g>
<g id="clust6" class="cluster">
<title>cluster_SafeAccessModule_exports</title>
<polygon fill="none" stroke="black" points="172,-170.8 172,-222.8 338,-222.8 338,-170.8 172,-170.8"/>
</g>
<g id="clust5" class="cluster">
<title>cluster_SafeAccessModule_imports</title>
<polygon fill="none" stroke="black" points="16,-40.8 16,-92.8 154,-92.8 154,-40.8 16,-40.8"/>
</g>
<!-- SafeAccessComponent -->
<g id="node1" class="node">
<title>SafeAccessComponent</title>
<polygon fill="#ffffb3" stroke="black" points="503.86,-84.8 358.14,-84.8 358.14,-48.8 503.86,-48.8 503.86,-84.8"/>
<text text-anchor="middle" x="431" y="-62.6" font-family="Times,serif" font-size="14.00">SafeAccessComponent</text>
</g>
<!-- SafeAccessModule -->
<g id="node3" class="node">
<title>SafeAccessModule</title>
<polygon fill="#8dd3c7" stroke="black" points="317.08,-149.8 314.08,-153.8 293.08,-153.8 290.08,-149.8 192.92,-149.8 192.92,-113.8 317.08,-113.8 317.08,-149.8"/>
<text text-anchor="middle" x="255" y="-127.6" font-family="Times,serif" font-size="14.00">SafeAccessModule</text>
</g>
<!-- SafeAccessComponent&#45;&gt;SafeAccessModule -->
<g id="edge1" class="edge">
<title>SafeAccessComponent&#45;&gt;SafeAccessModule</title>
<path fill="none" stroke="black" d="M431,-84.91C431,-104.14 431,-131.8 431,-131.8 431,-131.8 327.05,-131.8 327.05,-131.8"/>
<polygon fill="black" stroke="black" points="327.05,-128.3 317.05,-131.8 327.05,-135.3 327.05,-128.3"/>
</g>
<!-- SafeEditAccessComponent -->
<g id="node2" class="node">
<title>SafeEditAccessComponent</title>
<polygon fill="#ffffb3" stroke="black" points="339.69,-84.8 170.31,-84.8 170.31,-48.8 339.69,-48.8 339.69,-84.8"/>
<text text-anchor="middle" x="255" y="-62.6" font-family="Times,serif" font-size="14.00">SafeEditAccessComponent</text>
</g>
<!-- SafeEditAccessComponent&#45;&gt;SafeAccessModule -->
<g id="edge2" class="edge">
<title>SafeEditAccessComponent&#45;&gt;SafeAccessModule</title>
<path fill="none" stroke="black" d="M255,-84.91C255,-84.91 255,-103.79 255,-103.79"/>
<polygon fill="black" stroke="black" points="251.5,-103.79 255,-113.79 258.5,-103.79 251.5,-103.79"/>
</g>
<!-- SafeAccessComponent  -->
<g id="node5" class="node">
<title>SafeAccessComponent </title>
<polygon fill="#fb8072" stroke="black" points="329.86,-214.8 180.14,-214.8 180.14,-178.8 329.86,-178.8 329.86,-214.8"/>
<text text-anchor="middle" x="255" y="-192.6" font-family="Times,serif" font-size="14.00">SafeAccessComponent </text>
</g>
<!-- SafeAccessModule&#45;&gt;SafeAccessComponent  -->
<g id="edge4" class="edge">
<title>SafeAccessModule&#45;&gt;SafeAccessComponent </title>
<path fill="none" stroke="black" stroke-dasharray="5,2" d="M255,-149.91C255,-149.91 255,-168.79 255,-168.79"/>
<polygon fill="black" stroke="black" points="251.5,-168.79 255,-178.79 258.5,-168.79 251.5,-168.79"/>
</g>
<!-- SafeButtonModule -->
<g id="node4" class="node">
<title>SafeButtonModule</title>
<polygon fill="#8dd3c7" stroke="black" points="146.05,-84.8 143.05,-88.8 122.05,-88.8 119.05,-84.8 23.95,-84.8 23.95,-48.8 146.05,-48.8 146.05,-84.8"/>
<text text-anchor="middle" x="85" y="-62.6" font-family="Times,serif" font-size="14.00">SafeButtonModule</text>
</g>
<!-- SafeButtonModule&#45;&gt;SafeAccessModule -->
<g id="edge3" class="edge">
<title>SafeButtonModule&#45;&gt;SafeAccessModule</title>
<path fill="none" stroke="black" d="M85,-84.91C85,-104.14 85,-131.8 85,-131.8 85,-131.8 182.66,-131.8 182.66,-131.8"/>
<polygon fill="black" stroke="black" points="182.66,-135.3 192.66,-131.8 182.66,-128.3 182.66,-135.3"/>
</g>
</g>
</svg>
