<?xml version="1.0" encoding="UTF-8" standalone="no"?>
<!DOCTYPE svg PUBLIC "-//W3C//DTD SVG 1.1//EN"
 "http://www.w3.org/Graphics/SVG/1.1/DTD/svg11.dtd">
<!-- Generated by graphviz version 3.0.0 (20220226.1711)
 -->
<!-- Title: dependencies Pages: 1 -->
<svg width="1358pt" height="358pt"
 viewBox="0.00 0.00 1358.00 358.39" xmlns="http://www.w3.org/2000/svg" xmlns:xlink="http://www.w3.org/1999/xlink">
<g id="graph0" class="graph" transform="scale(1 1) rotate(0) translate(4 354.39)">
<title>dependencies</title>
<polygon fill="white" stroke="transparent" points="-4,4 -4,-354.39 1354,-354.39 1354,4 -4,4"/>
<text text-anchor="middle" x="675" y="-8.2" font-family="sans-serif" font-size="14.00">dependencies</text>
<g id="clust1" class="cluster">
<title>cluster_SafeAggregationBuilderModule</title>
<polygon fill="none" stroke="black" stroke-dasharray="1,5" points="8,-32.8 8,-342.39 1342,-342.39 1342,-32.8 8,-32.8"/>
</g>
<g id="clust3" class="cluster">
<title>cluster_SafeAggregationBuilderModule_SafeAggregationBuilderComponent_providers</title>
<polygon fill="none" stroke="black" points="442,-40.8 442,-204.39 1334,-204.39 1334,-40.8 442,-40.8"/>
</g>
<g id="clust4" class="cluster">
<title>cluster_SafeAggregationBuilderModule_imports</title>
<polygon fill="none" stroke="black" points="16,-152.39 16,-204.39 434,-204.39 434,-152.39 16,-152.39"/>
</g>
<g id="clust5" class="cluster">
<title>cluster_SafeAggregationBuilderModule_exports</title>
<polygon fill="none" stroke="black" points="183,-282.39 183,-334.39 421,-334.39 421,-282.39 183,-282.39"/>
</g>
<!-- SafeAggregationBuilderComponent -->
<g id="node1" class="node">
<title>SafeAggregationBuilderComponent</title>
<polygon fill="#ffffb3" stroke="black" points="832.18,-196.39 613.82,-196.39 613.82,-160.39 832.18,-160.39 832.18,-196.39"/>
<text text-anchor="middle" x="723" y="-174.19" font-family="Times,serif" font-size="14.00">SafeAggregationBuilderComponent</text>
</g>
<!-- SafeAggregationBuilderModule -->
<g id="node2" class="node">
<title>SafeAggregationBuilderModule</title>
<polygon fill="#8dd3c7" stroke="black" points="400.4,-261.39 397.4,-265.39 376.4,-265.39 373.4,-261.39 203.6,-261.39 203.6,-225.39 400.4,-225.39 400.4,-261.39"/>
<text text-anchor="middle" x="302" y="-239.19" font-family="Times,serif" font-size="14.00">SafeAggregationBuilderModule</text>
</g>
<!-- SafeAggregationBuilderComponent&#45;&gt;SafeAggregationBuilderModule -->
<g id="edge1" class="edge">
<title>SafeAggregationBuilderComponent&#45;&gt;SafeAggregationBuilderModule</title>
<path fill="none" stroke="black" d="M723,-196.5C723,-215.73 723,-243.39 723,-243.39 723,-243.39 410.44,-243.39 410.44,-243.39"/>
<polygon fill="black" stroke="black" points="410.44,-239.89 400.44,-243.39 410.44,-246.89 410.44,-239.89"/>
</g>
<!-- SafeAggregationBuilderComponent  -->
<g id="node7" class="node">
<title>SafeAggregationBuilderComponent </title>
<polygon fill="#fb8072" stroke="black" points="412.68,-326.39 191.32,-326.39 191.32,-290.39 412.68,-290.39 412.68,-326.39"/>
<text text-anchor="middle" x="302" y="-304.19" font-family="Times,serif" font-size="14.00">SafeAggregationBuilderComponent </text>
</g>
<!-- SafeAggregationBuilderModule&#45;&gt;SafeAggregationBuilderComponent  -->
<g id="edge6" class="edge">
<title>SafeAggregationBuilderModule&#45;&gt;SafeAggregationBuilderComponent </title>
<path fill="none" stroke="black" stroke-dasharray="5,2" d="M302,-261.5C302,-261.5 302,-280.38 302,-280.38"/>
<polygon fill="black" stroke="black" points="298.5,-280.38 302,-290.38 305.5,-280.38 298.5,-280.38"/>
</g>
<!-- {
 &#160;&#160;&#160;provide: MAT_AUTOCOMPLETE_SCROLL_STRATEGY, useFactory: scrollFactory, deps: [Overlay],
} -->
<g id="node3" class="node">
<title>{
 &#160;&#160;&#160;provide: MAT_AUTOCOMPLETE_SCROLL_STRATEGY, useFactory: scrollFactory, deps: [Overlay],
}</title>
<ellipse fill="#fdb462" stroke="black" cx="888" cy="-90.1" rx="438.07" ry="41.09"/>
<text text-anchor="middle" x="888" y="-102.7" font-family="Times,serif" font-size="14.00">{</text>
<text text-anchor="middle" x="888" y="-85.9" font-family="Times,serif" font-size="14.00"> &#160;&#160;&#160;provide: MAT_AUTOCOMPLETE_SCROLL_STRATEGY, useFactory: scrollFactory, deps: [Overlay],</text>
<text text-anchor="middle" x="888" y="-69.1" font-family="Times,serif" font-size="14.00">}</text>
</g>
<!-- {
 &#160;&#160;&#160;provide: MAT_AUTOCOMPLETE_SCROLL_STRATEGY, useFactory: scrollFactory, deps: [Overlay],
}&#45;&gt;SafeAggregationBuilderComponent -->
<g id="edge2" class="edge">
<title>{
 &#160;&#160;&#160;provide: MAT_AUTOCOMPLETE_SCROLL_STRATEGY, useFactory: scrollFactory, deps: [Overlay],
}&#45;&gt;SafeAggregationBuilderComponent</title>
<path fill="none" stroke="black" d="M723,-128.57C723,-128.57 723,-150.13 723,-150.13"/>
<polygon fill="black" stroke="black" points="719.5,-150.13 723,-160.13 726.5,-150.13 719.5,-150.13"/>
</g>
<!-- SafeGridModule -->
<g id="node4" class="node">
<title>SafeGridModule</title>
<polygon fill="#8dd3c7" stroke="black" points="426.09,-196.39 423.09,-200.39 402.09,-200.39 399.09,-196.39 315.91,-196.39 315.91,-160.39 426.09,-160.39 426.09,-196.39"/>
<text text-anchor="middle" x="371" y="-174.19" font-family="Times,serif" font-size="14.00">SafeGridModule</text>
</g>
<!-- SafeGridModule&#45;&gt;SafeAggregationBuilderModule -->
<g id="edge3" class="edge">
<title>SafeGridModule&#45;&gt;SafeAggregationBuilderModule</title>
<path fill="none" stroke="black" d="M358.08,-196.5C358.08,-196.5 358.08,-215.38 358.08,-215.38"/>
<polygon fill="black" stroke="black" points="354.58,-215.38 358.08,-225.38 361.58,-215.38 354.58,-215.38"/>
</g>
<!-- SafeSpinnerModule -->
<g id="node5" class="node">
<title>SafeSpinnerModule</title>
<polygon fill="#8dd3c7" stroke="black" points="297.98,-196.39 294.98,-200.39 273.98,-200.39 270.98,-196.39 170.02,-196.39 170.02,-160.39 297.98,-160.39 297.98,-196.39"/>
<text text-anchor="middle" x="234" y="-174.19" font-family="Times,serif" font-size="14.00">SafeSpinnerModule</text>
</g>
<!-- SafeSpinnerModule&#45;&gt;SafeAggregationBuilderModule -->
<g id="edge4" class="edge">
<title>SafeSpinnerModule&#45;&gt;SafeAggregationBuilderModule</title>
<path fill="none" stroke="black" d="M250.89,-196.5C250.89,-196.5 250.89,-215.38 250.89,-215.38"/>
<polygon fill="black" stroke="black" points="247.39,-215.38 250.89,-225.38 254.39,-215.38 247.39,-215.38"/>
</g>
<!-- SafeTagboxModule -->
<g id="node6" class="node">
<title>SafeTagboxModule</title>
<polygon fill="#8dd3c7" stroke="black" points="151.69,-196.39 148.69,-200.39 127.69,-200.39 124.69,-196.39 24.31,-196.39 24.31,-160.39 151.69,-160.39 151.69,-196.39"/>
<text text-anchor="middle" x="88" y="-174.19" font-family="Times,serif" font-size="14.00">SafeTagboxModule</text>
</g>
<!-- SafeTagboxModule&#45;&gt;SafeAggregationBuilderModule -->
<g id="edge5" class="edge">
<title>SafeTagboxModule&#45;&gt;SafeAggregationBuilderModule</title>
<path fill="none" stroke="black" d="M88,-196.5C88,-215.73 88,-243.39 88,-243.39 88,-243.39 193.77,-243.39 193.77,-243.39"/>
<polygon fill="black" stroke="black" points="193.77,-246.89 203.77,-243.39 193.77,-239.89 193.77,-246.89"/>
</g>
</g>
</svg>
