<?xml version="1.0" encoding="UTF-8" standalone="no"?>
<!DOCTYPE svg PUBLIC "-//W3C//DTD SVG 1.1//EN"
 "http://www.w3.org/Graphics/SVG/1.1/DTD/svg11.dtd">
<!-- Generated by graphviz version 3.0.0 (20220226.1711)
 -->
<!-- Title: dependencies Pages: 1 -->
<svg width="1358pt" height="358pt"
 viewBox="0.00 0.00 1358.00 358.39" xmlns="http://www.w3.org/2000/svg" xmlns:xlink="http://www.w3.org/1999/xlink">
<g id="graph0" class="graph" transform="scale(1 1) rotate(0) translate(4 354.39)">
<title>dependencies</title>
<polygon fill="white" stroke="transparent" points="-4,4 -4,-354.39 1354,-354.39 1354,4 -4,4"/>
<text text-anchor="middle" x="675" y="-8.2" font-family="sans-serif" font-size="14.00">dependencies</text>
<g id="clust1" class="cluster">
<title>cluster_SafeAggregationBuilderModule</title>
<polygon fill="none" stroke="black" stroke-dasharray="1,5" points="8,-32.8 8,-342.39 1342,-342.39 1342,-32.8 8,-32.8"/>
</g>
<g id="clust4" class="cluster">
<title>cluster_SafeAggregationBuilderModule_imports</title>
<polygon fill="none" stroke="black" points="916,-152.39 916,-204.39 1334,-204.39 1334,-152.39 916,-152.39"/>
</g>
<g id="clust5" class="cluster">
<title>cluster_SafeAggregationBuilderModule_exports</title>
<polygon fill="none" stroke="black" points="942,-282.39 942,-334.39 1180,-334.39 1180,-282.39 942,-282.39"/>
</g>
<g id="clust3" class="cluster">
<title>cluster_SafeAggregationBuilderModule_SafeAggregationBuilderComponent_providers</title>
<polygon fill="none" stroke="black" points="16,-40.8 16,-204.39 908,-204.39 908,-40.8 16,-40.8"/>
</g>
<!-- SafeAggregationBuilderComponent -->
<g id="node1" class="node">
<title>SafeAggregationBuilderComponent</title>
<polygon fill="#ffffb3" stroke="black" points="735.18,-196.39 516.82,-196.39 516.82,-160.39 735.18,-160.39 735.18,-196.39"/>
<text text-anchor="middle" x="626" y="-174.19" font-family="Times,serif" font-size="14.00">SafeAggregationBuilderComponent</text>
</g>
<!-- SafeAggregationBuilderModule -->
<g id="node2" class="node">
<title>SafeAggregationBuilderModule</title>
<polygon fill="#8dd3c7" stroke="black" points="1159.4,-261.39 1156.4,-265.39 1135.4,-265.39 1132.4,-261.39 962.6,-261.39 962.6,-225.39 1159.4,-225.39 1159.4,-261.39"/>
<text text-anchor="middle" x="1061" y="-239.19" font-family="Times,serif" font-size="14.00">SafeAggregationBuilderModule</text>
</g>
<!-- SafeAggregationBuilderComponent&#45;&gt;SafeAggregationBuilderModule -->
<g id="edge1" class="edge">
<title>SafeAggregationBuilderComponent&#45;&gt;SafeAggregationBuilderModule</title>
<path fill="none" stroke="black" d="M626,-196.5C626,-215.73 626,-243.39 626,-243.39 626,-243.39 952.56,-243.39 952.56,-243.39"/>
<polygon fill="black" stroke="black" points="952.56,-246.89 962.56,-243.39 952.56,-239.89 952.56,-246.89"/>
</g>
<!-- SafeAggregationBuilderComponent  -->
<g id="node7" class="node">
<title>SafeAggregationBuilderComponent </title>
<polygon fill="#fb8072" stroke="black" points="1171.68,-326.39 950.32,-326.39 950.32,-290.39 1171.68,-290.39 1171.68,-326.39"/>
<text text-anchor="middle" x="1061" y="-304.19" font-family="Times,serif" font-size="14.00">SafeAggregationBuilderComponent </text>
</g>
<!-- SafeAggregationBuilderModule&#45;&gt;SafeAggregationBuilderComponent  -->
<g id="edge6" class="edge">
<title>SafeAggregationBuilderModule&#45;&gt;SafeAggregationBuilderComponent </title>
<path fill="none" stroke="black" stroke-dasharray="5,2" d="M1061,-261.5C1061,-261.5 1061,-280.38 1061,-280.38"/>
<polygon fill="black" stroke="black" points="1057.5,-280.38 1061,-290.38 1064.5,-280.38 1057.5,-280.38"/>
</g>
<!-- {
 &#160;&#160;&#160;provide: MAT_AUTOCOMPLETE_SCROLL_STRATEGY, useFactory: scrollFactory, deps: [Overlay],
} -->
<g id="node3" class="node">
<title>{
 &#160;&#160;&#160;provide: MAT_AUTOCOMPLETE_SCROLL_STRATEGY, useFactory: scrollFactory, deps: [Overlay],
}</title>
<ellipse fill="#fdb462" stroke="black" cx="462" cy="-90.1" rx="438.07" ry="41.09"/>
<text text-anchor="middle" x="462" y="-102.7" font-family="Times,serif" font-size="14.00">{</text>
<text text-anchor="middle" x="462" y="-85.9" font-family="Times,serif" font-size="14.00"> &#160;&#160;&#160;provide: MAT_AUTOCOMPLETE_SCROLL_STRATEGY, useFactory: scrollFactory, deps: [Overlay],</text>
<text text-anchor="middle" x="462" y="-69.1" font-family="Times,serif" font-size="14.00">}</text>
</g>
<!-- {
 &#160;&#160;&#160;provide: MAT_AUTOCOMPLETE_SCROLL_STRATEGY, useFactory: scrollFactory, deps: [Overlay],
}&#45;&gt;SafeAggregationBuilderComponent -->
<g id="edge2" class="edge">
<title>{
 &#160;&#160;&#160;provide: MAT_AUTOCOMPLETE_SCROLL_STRATEGY, useFactory: scrollFactory, deps: [Overlay],
}&#45;&gt;SafeAggregationBuilderComponent</title>
<path fill="none" stroke="black" d="M626,-128.57C626,-128.57 626,-150.13 626,-150.13"/>
<polygon fill="black" stroke="black" points="622.5,-150.13 626,-160.13 629.5,-150.13 622.5,-150.13"/>
</g>
<!-- SafeGridModule -->
<g id="node4" class="node">
<title>SafeGridModule</title>
<polygon fill="#8dd3c7" stroke="black" points="1326.09,-196.39 1323.09,-200.39 1302.09,-200.39 1299.09,-196.39 1215.91,-196.39 1215.91,-160.39 1326.09,-160.39 1326.09,-196.39"/>
<text text-anchor="middle" x="1271" y="-174.19" font-family="Times,serif" font-size="14.00">SafeGridModule</text>
</g>
<!-- SafeGridModule&#45;&gt;SafeAggregationBuilderModule -->
<g id="edge3" class="edge">
<title>SafeGridModule&#45;&gt;SafeAggregationBuilderModule</title>
<path fill="none" stroke="black" d="M1271,-196.5C1271,-215.73 1271,-243.39 1271,-243.39 1271,-243.39 1169.24,-243.39 1169.24,-243.39"/>
<polygon fill="black" stroke="black" points="1169.24,-239.89 1159.24,-243.39 1169.24,-246.89 1169.24,-239.89"/>
</g>
<!-- SafeSpinnerModule -->
<g id="node5" class="node">
<title>SafeSpinnerModule</title>
<polygon fill="#8dd3c7" stroke="black" points="1197.98,-196.39 1194.98,-200.39 1173.98,-200.39 1170.98,-196.39 1070.02,-196.39 1070.02,-160.39 1197.98,-160.39 1197.98,-196.39"/>
<text text-anchor="middle" x="1134" y="-174.19" font-family="Times,serif" font-size="14.00">SafeSpinnerModule</text>
</g>
<!-- SafeSpinnerModule&#45;&gt;SafeAggregationBuilderModule -->
<g id="edge4" class="edge">
<title>SafeSpinnerModule&#45;&gt;SafeAggregationBuilderModule</title>
<path fill="none" stroke="black" d="M1114.61,-196.5C1114.61,-196.5 1114.61,-215.38 1114.61,-215.38"/>
<polygon fill="black" stroke="black" points="1111.11,-215.38 1114.61,-225.38 1118.11,-215.38 1111.11,-215.38"/>
</g>
<!-- SafeTagboxModule -->
<g id="node6" class="node">
<title>SafeTagboxModule</title>
<polygon fill="#8dd3c7" stroke="black" points="1051.69,-196.39 1048.69,-200.39 1027.69,-200.39 1024.69,-196.39 924.31,-196.39 924.31,-160.39 1051.69,-160.39 1051.69,-196.39"/>
<text text-anchor="middle" x="988" y="-174.19" font-family="Times,serif" font-size="14.00">SafeTagboxModule</text>
</g>
<!-- SafeTagboxModule&#45;&gt;SafeAggregationBuilderModule -->
<g id="edge5" class="edge">
<title>SafeTagboxModule&#45;&gt;SafeAggregationBuilderModule</title>
<path fill="none" stroke="black" d="M1007.2,-196.5C1007.2,-196.5 1007.2,-215.38 1007.2,-215.38"/>
<polygon fill="black" stroke="black" points="1003.7,-215.38 1007.2,-225.38 1010.7,-215.38 1003.7,-215.38"/>
</g>
</g>
</svg>
