<?xml version="1.0" encoding="UTF-8" standalone="no"?>
<!DOCTYPE svg PUBLIC "-//W3C//DTD SVG 1.1//EN"
 "http://www.w3.org/Graphics/SVG/1.1/DTD/svg11.dtd">
<!-- Generated by graphviz version 3.0.0 (20220226.1711)
 -->
<!-- Title: dependencies Pages: 1 -->
<svg width="932pt" height="358pt"
 viewBox="0.00 0.00 932.00 358.39" xmlns="http://www.w3.org/2000/svg" xmlns:xlink="http://www.w3.org/1999/xlink">
<g id="graph0" class="graph" transform="scale(1 1) rotate(0) translate(4 354.39)">
<title>dependencies</title>
<polygon fill="white" stroke="transparent" points="-4,4 -4,-354.39 928,-354.39 928,4 -4,4"/>
<text text-anchor="middle" x="462" y="-8.2" font-family="sans-serif" font-size="14.00">dependencies</text>
<g id="clust1" class="cluster">
<title>cluster_SafeAggregationBuilderModule</title>
<polygon fill="none" stroke="black" stroke-dasharray="1,5" points="8,-32.8 8,-342.39 916,-342.39 916,-32.8 8,-32.8"/>
</g>
<g id="clust4" class="cluster">
<title>cluster_SafeAggregationBuilderModule_imports</title>
<polygon fill="none" stroke="black" points="490,-152.39 490,-204.39 908,-204.39 908,-152.39 490,-152.39"/>
</g>
<g id="clust2" class="cluster">
<title>cluster_SafeAggregationBuilderModule_declarations</title>
<polygon fill="none" stroke="black" points="248,-152.39 248,-204.39 482,-204.39 482,-152.39 248,-152.39"/>
</g>
<g id="clust3" class="cluster">
<title>cluster_SafeAggregationBuilderModule_SafeAggregationBuilderComponent_providers</title>
<polygon fill="none" stroke="black" points="16,-40.8 16,-139.39 908,-139.39 908,-40.8 16,-40.8"/>
</g>
<g id="clust5" class="cluster">
<title>cluster_SafeAggregationBuilderModule_exports</title>
<polygon fill="none" stroke="black" points="516,-282.39 516,-334.39 754,-334.39 754,-282.39 516,-282.39"/>
</g>
<!-- SafeAggregationBuilderComponent -->
<g id="node1" class="node">
<title>SafeAggregationBuilderComponent</title>
<polygon fill="#ffffb3" stroke="black" points="474.18,-196.39 255.82,-196.39 255.82,-160.39 474.18,-160.39 474.18,-196.39"/>
<text text-anchor="middle" x="365" y="-174.19" font-family="Times,serif" font-size="14.00">SafeAggregationBuilderComponent</text>
</g>
<!-- SafeAggregationBuilderModule -->
<g id="node2" class="node">
<title>SafeAggregationBuilderModule</title>
<polygon fill="#8dd3c7" stroke="black" points="733.4,-261.39 730.4,-265.39 709.4,-265.39 706.4,-261.39 536.6,-261.39 536.6,-225.39 733.4,-225.39 733.4,-261.39"/>
<text text-anchor="middle" x="635" y="-239.19" font-family="Times,serif" font-size="14.00">SafeAggregationBuilderModule</text>
</g>
<!-- SafeAggregationBuilderComponent&#45;&gt;SafeAggregationBuilderModule -->
<g id="edge1" class="edge">
<title>SafeAggregationBuilderComponent&#45;&gt;SafeAggregationBuilderModule</title>
<path fill="none" stroke="black" d="M365,-196.5C365,-215.73 365,-243.39 365,-243.39 365,-243.39 526.76,-243.39 526.76,-243.39"/>
<polygon fill="black" stroke="black" points="526.76,-246.89 536.76,-243.39 526.76,-239.89 526.76,-246.89"/>
</g>
<!-- SafeAggregationBuilderComponent  -->
<g id="node7" class="node">
<title>SafeAggregationBuilderComponent </title>
<polygon fill="#fb8072" stroke="black" points="745.68,-326.39 524.32,-326.39 524.32,-290.39 745.68,-290.39 745.68,-326.39"/>
<text text-anchor="middle" x="635" y="-304.19" font-family="Times,serif" font-size="14.00">SafeAggregationBuilderComponent </text>
</g>
<!-- SafeAggregationBuilderModule&#45;&gt;SafeAggregationBuilderComponent  -->
<g id="edge6" class="edge">
<title>SafeAggregationBuilderModule&#45;&gt;SafeAggregationBuilderComponent </title>
<path fill="none" stroke="black" stroke-dasharray="5,2" d="M635,-261.5C635,-261.5 635,-280.38 635,-280.38"/>
<polygon fill="black" stroke="black" points="631.5,-280.38 635,-290.38 638.5,-280.38 631.5,-280.38"/>
</g>
<!-- {
 &#160;&#160;&#160;provide: MAT_AUTOCOMPLETE_SCROLL_STRATEGY, useFactory: scrollFactory, deps: [Overlay],
} -->
<g id="node3" class="node">
<title>{
 &#160;&#160;&#160;provide: MAT_AUTOCOMPLETE_SCROLL_STRATEGY, useFactory: scrollFactory, deps: [Overlay],
}</title>
<ellipse fill="#fdb462" stroke="black" cx="462" cy="-90.1" rx="438.07" ry="41.09"/>
<text text-anchor="middle" x="462" y="-102.7" font-family="Times,serif" font-size="14.00">{</text>
<text text-anchor="middle" x="462" y="-85.9" font-family="Times,serif" font-size="14.00"> &#160;&#160;&#160;provide: MAT_AUTOCOMPLETE_SCROLL_STRATEGY, useFactory: scrollFactory, deps: [Overlay],</text>
<text text-anchor="middle" x="462" y="-69.1" font-family="Times,serif" font-size="14.00">}</text>
</g>
<!-- {
 &#160;&#160;&#160;provide: MAT_AUTOCOMPLETE_SCROLL_STRATEGY, useFactory: scrollFactory, deps: [Overlay],
}&#45;&gt;SafeAggregationBuilderComponent -->
<g id="edge2" class="edge">
<title>{
 &#160;&#160;&#160;provide: MAT_AUTOCOMPLETE_SCROLL_STRATEGY, useFactory: scrollFactory, deps: [Overlay],
}&#45;&gt;SafeAggregationBuilderComponent</title>
<path fill="none" stroke="black" d="M365,-130.37C365,-130.37 365,-150.03 365,-150.03"/>
<polygon fill="black" stroke="black" points="361.5,-150.03 365,-160.03 368.5,-150.03 361.5,-150.03"/>
</g>
<!-- SafeGridModule -->
<g id="node4" class="node">
<title>SafeGridModule</title>
<polygon fill="#8dd3c7" stroke="black" points="900.09,-196.39 897.09,-200.39 876.09,-200.39 873.09,-196.39 789.91,-196.39 789.91,-160.39 900.09,-160.39 900.09,-196.39"/>
<text text-anchor="middle" x="845" y="-174.19" font-family="Times,serif" font-size="14.00">SafeGridModule</text>
</g>
<!-- SafeGridModule&#45;&gt;SafeAggregationBuilderModule -->
<g id="edge3" class="edge">
<title>SafeGridModule&#45;&gt;SafeAggregationBuilderModule</title>
<path fill="none" stroke="black" d="M845,-196.5C845,-215.73 845,-243.39 845,-243.39 845,-243.39 743.24,-243.39 743.24,-243.39"/>
<polygon fill="black" stroke="black" points="743.24,-239.89 733.24,-243.39 743.24,-246.89 743.24,-239.89"/>
</g>
<!-- SafeSpinnerModule -->
<g id="node5" class="node">
<title>SafeSpinnerModule</title>
<polygon fill="#8dd3c7" stroke="black" points="771.98,-196.39 768.98,-200.39 747.98,-200.39 744.98,-196.39 644.02,-196.39 644.02,-160.39 771.98,-160.39 771.98,-196.39"/>
<text text-anchor="middle" x="708" y="-174.19" font-family="Times,serif" font-size="14.00">SafeSpinnerModule</text>
</g>
<!-- SafeSpinnerModule&#45;&gt;SafeAggregationBuilderModule -->
<g id="edge4" class="edge">
<title>SafeSpinnerModule&#45;&gt;SafeAggregationBuilderModule</title>
<path fill="none" stroke="black" d="M688.61,-196.5C688.61,-196.5 688.61,-215.38 688.61,-215.38"/>
<polygon fill="black" stroke="black" points="685.11,-215.38 688.61,-225.38 692.11,-215.38 685.11,-215.38"/>
</g>
<!-- SafeTagboxModule -->
<g id="node6" class="node">
<title>SafeTagboxModule</title>
<polygon fill="#8dd3c7" stroke="black" points="625.69,-196.39 622.69,-200.39 601.69,-200.39 598.69,-196.39 498.31,-196.39 498.31,-160.39 625.69,-160.39 625.69,-196.39"/>
<text text-anchor="middle" x="562" y="-174.19" font-family="Times,serif" font-size="14.00">SafeTagboxModule</text>
</g>
<!-- SafeTagboxModule&#45;&gt;SafeAggregationBuilderModule -->
<g id="edge5" class="edge">
<title>SafeTagboxModule&#45;&gt;SafeAggregationBuilderModule</title>
<path fill="none" stroke="black" d="M581.2,-196.5C581.2,-196.5 581.2,-215.38 581.2,-215.38"/>
<polygon fill="black" stroke="black" points="577.7,-215.38 581.2,-225.38 584.7,-215.38 577.7,-215.38"/>
</g>
</g>
</svg>
