<?xml version="1.0" encoding="UTF-8" standalone="no"?>
<!DOCTYPE svg PUBLIC "-//W3C//DTD SVG 1.1//EN"
 "http://www.w3.org/Graphics/SVG/1.1/DTD/svg11.dtd">
<!-- Generated by graphviz version 3.0.0 (20220226.1711)
 -->
<!-- Title: dependencies Pages: 1 -->
<svg width="334pt" height="247pt"
 viewBox="0.00 0.00 334.00 246.80" xmlns="http://www.w3.org/2000/svg" xmlns:xlink="http://www.w3.org/1999/xlink">
<g id="graph0" class="graph" transform="scale(1 1) rotate(0) translate(4 242.8)">
<title>dependencies</title>
<polygon fill="white" stroke="transparent" points="-4,4 -4,-242.8 330,-242.8 330,4 -4,4"/>
<text text-anchor="middle" x="163" y="-8.2" font-family="sans-serif" font-size="14.00">dependencies</text>
<g id="clust1" class="cluster">
<title>cluster_AddResourceModule</title>
<polygon fill="none" stroke="black" stroke-dasharray="1,5" points="8,-32.8 8,-230.8 318,-230.8 318,-32.8 8,-32.8"/>
</g>
<g id="clust5" class="cluster">
<title>cluster_AddResourceModule_exports</title>
<polygon fill="none" stroke="black" points="74,-170.8 74,-222.8 252,-222.8 252,-170.8 74,-170.8"/>
</g>
<g id="clust4" class="cluster">
<title>cluster_AddResourceModule_imports</title>
<polygon fill="none" stroke="black" points="198,-40.8 198,-92.8 310,-92.8 310,-40.8 198,-40.8"/>
</g>
<g id="clust2" class="cluster">
<title>cluster_AddResourceModule_declarations</title>
<polygon fill="none" stroke="black" points="16,-40.8 16,-92.8 190,-92.8 190,-40.8 16,-40.8"/>
</g>
<!-- AddResourceComponent -->
<g id="node1" class="node">
<title>AddResourceComponent</title>
<polygon fill="#ffffb3" stroke="black" points="181.53,-84.8 24.47,-84.8 24.47,-48.8 181.53,-48.8 181.53,-84.8"/>
<text text-anchor="middle" x="103" y="-62.6" font-family="Times,serif" font-size="14.00">AddResourceComponent</text>
</g>
<!-- AddResourceModule -->
<g id="node2" class="node">
<title>AddResourceModule</title>
<polygon fill="#8dd3c7" stroke="black" points="230.75,-149.8 227.75,-153.8 206.75,-153.8 203.75,-149.8 95.25,-149.8 95.25,-113.8 230.75,-113.8 230.75,-149.8"/>
<text text-anchor="middle" x="163" y="-127.6" font-family="Times,serif" font-size="14.00">AddResourceModule</text>
</g>
<!-- AddResourceComponent&#45;&gt;AddResourceModule -->
<g id="edge1" class="edge">
<title>AddResourceComponent&#45;&gt;AddResourceModule</title>
<path fill="none" stroke="black" d="M138.44,-84.91C138.44,-84.91 138.44,-103.79 138.44,-103.79"/>
<polygon fill="black" stroke="black" points="134.94,-103.79 138.44,-113.79 141.94,-103.79 134.94,-103.79"/>
</g>
<!-- AddResourceComponent  -->
<g id="node4" class="node">
<title>AddResourceComponent </title>
<polygon fill="#fb8072" stroke="black" points="243.53,-214.8 82.47,-214.8 82.47,-178.8 243.53,-178.8 243.53,-214.8"/>
<text text-anchor="middle" x="163" y="-192.6" font-family="Times,serif" font-size="14.00">AddResourceComponent </text>
</g>
<!-- AddResourceModule&#45;&gt;AddResourceComponent  -->
<g id="edge3" class="edge">
<title>AddResourceModule&#45;&gt;AddResourceComponent </title>
<path fill="none" stroke="black" stroke-dasharray="5,2" d="M163,-149.91C163,-149.91 163,-168.79 163,-168.79"/>
<polygon fill="black" stroke="black" points="159.5,-168.79 163,-178.79 166.5,-168.79 159.5,-168.79"/>
</g>
<!-- FormsModule -->
<g id="node3" class="node">
<title>FormsModule</title>
<polygon fill="#8dd3c7" stroke="black" points="301.84,-84.8 298.84,-88.8 277.84,-88.8 274.84,-84.8 206.16,-84.8 206.16,-48.8 301.84,-48.8 301.84,-84.8"/>
<text text-anchor="middle" x="254" y="-62.6" font-family="Times,serif" font-size="14.00">FormsModule</text>
</g>
<!-- FormsModule&#45;&gt;AddResourceModule -->
<g id="edge2" class="edge">
<title>FormsModule&#45;&gt;AddResourceModule</title>
<path fill="none" stroke="black" d="M218.6,-84.91C218.6,-84.91 218.6,-103.79 218.6,-103.79"/>
<polygon fill="black" stroke="black" points="215.1,-103.79 218.6,-113.79 222.1,-103.79 215.1,-103.79"/>
</g>
</g>
</svg>
