<?xml version="1.0" encoding="UTF-8" standalone="no"?>
<!DOCTYPE svg PUBLIC "-//W3C//DTD SVG 1.1//EN"
 "http://www.w3.org/Graphics/SVG/1.1/DTD/svg11.dtd">
<!-- Generated by graphviz version 3.0.0 (20220226.1711)
 -->
<!-- Title: dependencies Pages: 1 -->
<svg width="713pt" height="247pt"
 viewBox="0.00 0.00 713.00 246.80" xmlns="http://www.w3.org/2000/svg" xmlns:xlink="http://www.w3.org/1999/xlink">
<g id="graph0" class="graph" transform="scale(1 1) rotate(0) translate(4 242.8)">
<title>dependencies</title>
<polygon fill="white" stroke="transparent" points="-4,4 -4,-242.8 709,-242.8 709,4 -4,4"/>
<text text-anchor="middle" x="352.5" y="-8.2" font-family="sans-serif" font-size="14.00">dependencies</text>
<g id="clust1" class="cluster">
<title>cluster_AddLayoutModalModule</title>
<polygon fill="none" stroke="black" stroke-dasharray="1,5" points="8,-32.8 8,-230.8 697,-230.8 697,-32.8 8,-32.8"/>
</g>
<g id="clust5" class="cluster">
<title>cluster_AddLayoutModalModule_exports</title>
<polygon fill="none" stroke="black" points="230,-170.8 230,-222.8 432,-222.8 432,-170.8 230,-170.8"/>
</g>
<g id="clust2" class="cluster">
<title>cluster_AddLayoutModalModule_declarations</title>
<polygon fill="none" stroke="black" points="491,-40.8 491,-92.8 689,-92.8 689,-40.8 491,-40.8"/>
</g>
<g id="clust4" class="cluster">
<title>cluster_AddLayoutModalModule_imports</title>
<polygon fill="none" stroke="black" points="16,-40.8 16,-92.8 483,-92.8 483,-40.8 16,-40.8"/>
</g>
<!-- AddLayoutModalComponent -->
<g id="node1" class="node">
<title>AddLayoutModalComponent</title>
<polygon fill="#ffffb3" stroke="black" points="680.65,-84.8 499.35,-84.8 499.35,-48.8 680.65,-48.8 680.65,-84.8"/>
<text text-anchor="middle" x="590" y="-62.6" font-family="Times,serif" font-size="14.00">AddLayoutModalComponent</text>
</g>
<!-- AddLayoutModalModule -->
<g id="node2" class="node">
<title>AddLayoutModalModule</title>
<polygon fill="#8dd3c7" stroke="black" points="410.87,-149.8 407.87,-153.8 386.87,-153.8 383.87,-149.8 251.13,-149.8 251.13,-113.8 410.87,-113.8 410.87,-149.8"/>
<text text-anchor="middle" x="331" y="-127.6" font-family="Times,serif" font-size="14.00">AddLayoutModalModule</text>
</g>
<!-- AddLayoutModalComponent&#45;&gt;AddLayoutModalModule -->
<g id="edge1" class="edge">
<title>AddLayoutModalComponent&#45;&gt;AddLayoutModalModule</title>
<path fill="none" stroke="black" d="M590,-84.91C590,-104.14 590,-131.8 590,-131.8 590,-131.8 421.18,-131.8 421.18,-131.8"/>
<polygon fill="black" stroke="black" points="421.18,-128.3 411.18,-131.8 421.18,-135.3 421.18,-128.3"/>
</g>
<!-- AddLayoutModalComponent  -->
<g id="node6" class="node">
<title>AddLayoutModalComponent </title>
<polygon fill="#fb8072" stroke="black" points="423.65,-214.8 238.35,-214.8 238.35,-178.8 423.65,-178.8 423.65,-214.8"/>
<text text-anchor="middle" x="331" y="-192.6" font-family="Times,serif" font-size="14.00">AddLayoutModalComponent </text>
</g>
<!-- AddLayoutModalModule&#45;&gt;AddLayoutModalComponent  -->
<g id="edge5" class="edge">
<title>AddLayoutModalModule&#45;&gt;AddLayoutModalComponent </title>
<path fill="none" stroke="black" stroke-dasharray="5,2" d="M331,-149.91C331,-149.91 331,-168.79 331,-168.79"/>
<polygon fill="black" stroke="black" points="327.5,-168.79 331,-178.79 334.5,-168.79 327.5,-168.79"/>
</g>
<!-- SafeButtonModule -->
<g id="node3" class="node">
<title>SafeButtonModule</title>
<polygon fill="#8dd3c7" stroke="black" points="475.05,-84.8 472.05,-88.8 451.05,-88.8 448.05,-84.8 352.95,-84.8 352.95,-48.8 475.05,-48.8 475.05,-84.8"/>
<text text-anchor="middle" x="414" y="-62.6" font-family="Times,serif" font-size="14.00">SafeButtonModule</text>
</g>
<!-- SafeButtonModule&#45;&gt;AddLayoutModalModule -->
<g id="edge2" class="edge">
<title>SafeButtonModule&#45;&gt;AddLayoutModalModule</title>
<path fill="none" stroke="black" d="M381.83,-84.91C381.83,-84.91 381.83,-103.79 381.83,-103.79"/>
<polygon fill="black" stroke="black" points="378.33,-103.79 381.83,-113.79 385.33,-103.79 378.33,-103.79"/>
</g>
<!-- SafeGraphQLSelectModule -->
<g id="node4" class="node">
<title>SafeGraphQLSelectModule</title>
<polygon fill="#8dd3c7" stroke="black" points="335.28,-84.8 332.28,-88.8 311.28,-88.8 308.28,-84.8 162.72,-84.8 162.72,-48.8 335.28,-48.8 335.28,-84.8"/>
<text text-anchor="middle" x="249" y="-62.6" font-family="Times,serif" font-size="14.00">SafeGraphQLSelectModule</text>
</g>
<!-- SafeGraphQLSelectModule&#45;&gt;AddLayoutModalModule -->
<g id="edge3" class="edge">
<title>SafeGraphQLSelectModule&#45;&gt;AddLayoutModalModule</title>
<path fill="none" stroke="black" d="M293.1,-84.91C293.1,-84.91 293.1,-103.79 293.1,-103.79"/>
<polygon fill="black" stroke="black" points="289.6,-103.79 293.1,-113.79 296.6,-103.79 289.6,-103.79"/>
</g>
<!-- SafeModalModule -->
<g id="node5" class="node">
<title>SafeModalModule</title>
<polygon fill="#8dd3c7" stroke="black" points="144.48,-84.8 141.48,-88.8 120.48,-88.8 117.48,-84.8 23.52,-84.8 23.52,-48.8 144.48,-48.8 144.48,-84.8"/>
<text text-anchor="middle" x="84" y="-62.6" font-family="Times,serif" font-size="14.00">SafeModalModule</text>
</g>
<!-- SafeModalModule&#45;&gt;AddLayoutModalModule -->
<g id="edge4" class="edge">
<title>SafeModalModule&#45;&gt;AddLayoutModalModule</title>
<path fill="none" stroke="black" d="M84,-84.91C84,-104.14 84,-131.8 84,-131.8 84,-131.8 240.81,-131.8 240.81,-131.8"/>
<polygon fill="black" stroke="black" points="240.81,-135.3 250.81,-131.8 240.81,-128.3 240.81,-135.3"/>
</g>
</g>
</svg>
