<?xml version="1.0" encoding="UTF-8" standalone="no"?>
<!DOCTYPE svg PUBLIC "-//W3C//DTD SVG 1.1//EN"
 "http://www.w3.org/Graphics/SVG/1.1/DTD/svg11.dtd">
<!-- Generated by graphviz version 3.0.0 (20220226.1711)
 -->
<!-- Title: dependencies Pages: 1 -->
<svg width="386pt" height="247pt"
 viewBox="0.00 0.00 386.00 246.80" xmlns="http://www.w3.org/2000/svg" xmlns:xlink="http://www.w3.org/1999/xlink">
<g id="graph0" class="graph" transform="scale(1 1) rotate(0) translate(4 242.8)">
<title>dependencies</title>
<polygon fill="white" stroke="transparent" points="-4,4 -4,-242.8 382,-242.8 382,4 -4,4"/>
<text text-anchor="middle" x="189" y="-8.2" font-family="sans-serif" font-size="14.00">dependencies</text>
<g id="clust1" class="cluster">
<title>cluster_RoleUsersModule</title>
<polygon fill="none" stroke="black" stroke-dasharray="1,5" points="8,-32.8 8,-230.8 370,-230.8 370,-32.8 8,-32.8"/>
</g>
<g id="clust4" class="cluster">
<title>cluster_RoleUsersModule_imports</title>
<polygon fill="none" stroke="black" points="180,-40.8 180,-92.8 362,-92.8 362,-40.8 180,-40.8"/>
</g>
<g id="clust5" class="cluster">
<title>cluster_RoleUsersModule_exports</title>
<polygon fill="none" stroke="black" points="103,-170.8 103,-222.8 263,-222.8 263,-170.8 103,-170.8"/>
</g>
<g id="clust2" class="cluster">
<title>cluster_RoleUsersModule_declarations</title>
<polygon fill="none" stroke="black" points="16,-40.8 16,-92.8 172,-92.8 172,-40.8 16,-40.8"/>
</g>
<!-- RoleUsersComponent -->
<g id="node1" class="node">
<title>RoleUsersComponent</title>
<polygon fill="#ffffb3" stroke="black" points="163.66,-84.8 24.34,-84.8 24.34,-48.8 163.66,-48.8 163.66,-84.8"/>
<text text-anchor="middle" x="94" y="-62.6" font-family="Times,serif" font-size="14.00">RoleUsersComponent</text>
</g>
<!-- RoleUsersModule -->
<g id="node2" class="node">
<title>RoleUsersModule</title>
<polygon fill="#8dd3c7" stroke="black" points="241.88,-149.8 238.88,-153.8 217.88,-153.8 214.88,-149.8 124.12,-149.8 124.12,-113.8 241.88,-113.8 241.88,-149.8"/>
<text text-anchor="middle" x="183" y="-127.6" font-family="Times,serif" font-size="14.00">RoleUsersModule</text>
</g>
<!-- RoleUsersComponent&#45;&gt;RoleUsersModule -->
<g id="edge1" class="edge">
<title>RoleUsersComponent&#45;&gt;RoleUsersModule</title>
<path fill="none" stroke="black" d="M143.94,-84.91C143.94,-84.91 143.94,-103.79 143.94,-103.79"/>
<polygon fill="black" stroke="black" points="140.44,-103.79 143.94,-113.79 147.44,-103.79 140.44,-103.79"/>
</g>
<!-- RoleUsersComponent  -->
<g id="node4" class="node">
<title>RoleUsersComponent </title>
<polygon fill="#fb8072" stroke="black" points="254.66,-214.8 111.34,-214.8 111.34,-178.8 254.66,-178.8 254.66,-214.8"/>
<text text-anchor="middle" x="183" y="-192.6" font-family="Times,serif" font-size="14.00">RoleUsersComponent </text>
</g>
<!-- RoleUsersModule&#45;&gt;RoleUsersComponent  -->
<g id="edge3" class="edge">
<title>RoleUsersModule&#45;&gt;RoleUsersComponent </title>
<path fill="none" stroke="black" stroke-dasharray="5,2" d="M183,-149.91C183,-149.91 183,-168.79 183,-168.79"/>
<polygon fill="black" stroke="black" points="179.5,-168.79 183,-178.79 186.5,-168.79 179.5,-168.79"/>
</g>
<!-- SafeSkeletonTableModule -->
<g id="node3" class="node">
<title>SafeSkeletonTableModule</title>
<polygon fill="#8dd3c7" stroke="black" points="353.79,-84.8 350.79,-88.8 329.79,-88.8 326.79,-84.8 188.21,-84.8 188.21,-48.8 353.79,-48.8 353.79,-84.8"/>
<text text-anchor="middle" x="271" y="-62.6" font-family="Times,serif" font-size="14.00">SafeSkeletonTableModule</text>
</g>
<!-- SafeSkeletonTableModule&#45;&gt;RoleUsersModule -->
<g id="edge2" class="edge">
<title>SafeSkeletonTableModule&#45;&gt;RoleUsersModule</title>
<path fill="none" stroke="black" d="M215.15,-84.91C215.15,-84.91 215.15,-103.79 215.15,-103.79"/>
<polygon fill="black" stroke="black" points="211.65,-103.79 215.15,-113.79 218.65,-103.79 211.65,-103.79"/>
</g>
</g>
</svg>
