<?xml version="1.0" encoding="UTF-8" standalone="no"?>
<!DOCTYPE svg PUBLIC "-//W3C//DTD SVG 1.1//EN"
 "http://www.w3.org/Graphics/SVG/1.1/DTD/svg11.dtd">
<!-- Generated by graphviz version 3.0.0 (20220226.1711)
 -->
<!-- Title: dependencies Pages: 1 -->
<svg width="386pt" height="247pt"
 viewBox="0.00 0.00 386.00 246.80" xmlns="http://www.w3.org/2000/svg" xmlns:xlink="http://www.w3.org/1999/xlink">
<g id="graph0" class="graph" transform="scale(1 1) rotate(0) translate(4 242.8)">
<title>dependencies</title>
<polygon fill="white" stroke="transparent" points="-4,4 -4,-242.8 382,-242.8 382,4 -4,4"/>
<text text-anchor="middle" x="189" y="-8.2" font-family="sans-serif" font-size="14.00">dependencies</text>
<g id="clust1" class="cluster">
<title>cluster_RoleUsersModule</title>
<polygon fill="none" stroke="black" stroke-dasharray="1,5" points="8,-32.8 8,-230.8 370,-230.8 370,-32.8 8,-32.8"/>
</g>
<g id="clust2" class="cluster">
<title>cluster_RoleUsersModule_declarations</title>
<polygon fill="none" stroke="black" points="206,-40.8 206,-92.8 362,-92.8 362,-40.8 206,-40.8"/>
</g>
<g id="clust5" class="cluster">
<title>cluster_RoleUsersModule_exports</title>
<polygon fill="none" stroke="black" points="114,-170.8 114,-222.8 274,-222.8 274,-170.8 114,-170.8"/>
</g>
<g id="clust4" class="cluster">
<title>cluster_RoleUsersModule_imports</title>
<polygon fill="none" stroke="black" points="16,-40.8 16,-92.8 198,-92.8 198,-40.8 16,-40.8"/>
</g>
<!-- RoleUsersComponent -->
<g id="node1" class="node">
<title>RoleUsersComponent</title>
<polygon fill="#ffffb3" stroke="black" points="353.66,-84.8 214.34,-84.8 214.34,-48.8 353.66,-48.8 353.66,-84.8"/>
<text text-anchor="middle" x="284" y="-62.6" font-family="Times,serif" font-size="14.00">RoleUsersComponent</text>
</g>
<!-- RoleUsersModule -->
<g id="node2" class="node">
<title>RoleUsersModule</title>
<polygon fill="#8dd3c7" stroke="black" points="252.88,-149.8 249.88,-153.8 228.88,-153.8 225.88,-149.8 135.12,-149.8 135.12,-113.8 252.88,-113.8 252.88,-149.8"/>
<text text-anchor="middle" x="194" y="-127.6" font-family="Times,serif" font-size="14.00">RoleUsersModule</text>
</g>
<!-- RoleUsersComponent&#45;&gt;RoleUsersModule -->
<g id="edge1" class="edge">
<title>RoleUsersComponent&#45;&gt;RoleUsersModule</title>
<path fill="none" stroke="black" d="M233.56,-84.91C233.56,-84.91 233.56,-103.79 233.56,-103.79"/>
<polygon fill="black" stroke="black" points="230.06,-103.79 233.56,-113.79 237.06,-103.79 230.06,-103.79"/>
</g>
<!-- RoleUsersComponent  -->
<g id="node4" class="node">
<title>RoleUsersComponent </title>
<polygon fill="#fb8072" stroke="black" points="265.66,-214.8 122.34,-214.8 122.34,-178.8 265.66,-178.8 265.66,-214.8"/>
<text text-anchor="middle" x="194" y="-192.6" font-family="Times,serif" font-size="14.00">RoleUsersComponent </text>
</g>
<!-- RoleUsersModule&#45;&gt;RoleUsersComponent  -->
<g id="edge3" class="edge">
<title>RoleUsersModule&#45;&gt;RoleUsersComponent </title>
<path fill="none" stroke="black" stroke-dasharray="5,2" d="M194,-149.91C194,-149.91 194,-168.79 194,-168.79"/>
<polygon fill="black" stroke="black" points="190.5,-168.79 194,-178.79 197.5,-168.79 190.5,-168.79"/>
</g>
<!-- SafeSkeletonTableModule -->
<g id="node3" class="node">
<title>SafeSkeletonTableModule</title>
<polygon fill="#8dd3c7" stroke="black" points="189.79,-84.8 186.79,-88.8 165.79,-88.8 162.79,-84.8 24.21,-84.8 24.21,-48.8 189.79,-48.8 189.79,-84.8"/>
<text text-anchor="middle" x="107" y="-62.6" font-family="Times,serif" font-size="14.00">SafeSkeletonTableModule</text>
</g>
<!-- SafeSkeletonTableModule&#45;&gt;RoleUsersModule -->
<g id="edge2" class="edge">
<title>SafeSkeletonTableModule&#45;&gt;RoleUsersModule</title>
<path fill="none" stroke="black" d="M162.35,-84.91C162.35,-84.91 162.35,-103.79 162.35,-103.79"/>
<polygon fill="black" stroke="black" points="158.85,-103.79 162.35,-113.79 165.85,-103.79 158.85,-103.79"/>
</g>
</g>
</svg>
