<?xml version="1.0" encoding="UTF-8" standalone="no"?>
<!DOCTYPE svg PUBLIC "-//W3C//DTD SVG 1.1//EN"
 "http://www.w3.org/Graphics/SVG/1.1/DTD/svg11.dtd">
<!-- Generated by graphviz version 3.0.0 (20220226.1711)
 -->
<!-- Title: dependencies Pages: 1 -->
<svg width="410pt" height="247pt"
 viewBox="0.00 0.00 410.00 246.80" xmlns="http://www.w3.org/2000/svg" xmlns:xlink="http://www.w3.org/1999/xlink">
<g id="graph0" class="graph" transform="scale(1 1) rotate(0) translate(4 242.8)">
<title>dependencies</title>
<polygon fill="white" stroke="transparent" points="-4,4 -4,-242.8 406,-242.8 406,4 -4,4"/>
<text text-anchor="middle" x="201" y="-8.2" font-family="sans-serif" font-size="14.00">dependencies</text>
<g id="clust1" class="cluster">
<title>cluster_SafeFormBuilderModule</title>
<polygon fill="none" stroke="black" stroke-dasharray="1,5" points="8,-32.8 8,-230.8 394,-230.8 394,-32.8 8,-32.8"/>
</g>
<g id="clust4" class="cluster">
<title>cluster_SafeFormBuilderModule_imports</title>
<polygon fill="none" stroke="black" points="218,-40.8 218,-92.8 386,-92.8 386,-40.8 218,-40.8"/>
</g>
<g id="clust2" class="cluster">
<title>cluster_SafeFormBuilderModule_declarations</title>
<polygon fill="none" stroke="black" points="16,-40.8 16,-92.8 210,-92.8 210,-40.8 16,-40.8"/>
</g>
<g id="clust5" class="cluster">
<title>cluster_SafeFormBuilderModule_exports</title>
<polygon fill="none" stroke="black" points="102,-170.8 102,-222.8 300,-222.8 300,-170.8 102,-170.8"/>
</g>
<!-- SafeFormBuilderComponent -->
<g id="node1" class="node">
<title>SafeFormBuilderComponent</title>
<polygon fill="#ffffb3" stroke="black" points="202.04,-84.8 23.96,-84.8 23.96,-48.8 202.04,-48.8 202.04,-84.8"/>
<text text-anchor="middle" x="113" y="-62.6" font-family="Times,serif" font-size="14.00">SafeFormBuilderComponent</text>
</g>
<!-- SafeFormBuilderModule -->
<g id="node2" class="node">
<title>SafeFormBuilderModule</title>
<polygon fill="#8dd3c7" stroke="black" points="279.26,-149.8 276.26,-153.8 255.26,-153.8 252.26,-149.8 122.74,-149.8 122.74,-113.8 279.26,-113.8 279.26,-149.8"/>
<text text-anchor="middle" x="201" y="-127.6" font-family="Times,serif" font-size="14.00">SafeFormBuilderModule</text>
</g>
<!-- SafeFormBuilderComponent&#45;&gt;SafeFormBuilderModule -->
<g id="edge1" class="edge">
<title>SafeFormBuilderComponent&#45;&gt;SafeFormBuilderModule</title>
<path fill="none" stroke="black" d="M162.44,-84.91C162.44,-84.91 162.44,-103.79 162.44,-103.79"/>
<polygon fill="black" stroke="black" points="158.94,-103.79 162.44,-113.79 165.94,-103.79 158.94,-103.79"/>
</g>
<!-- SafeFormBuilderComponent  -->
<g id="node4" class="node">
<title>SafeFormBuilderComponent </title>
<polygon fill="#fb8072" stroke="black" points="292.04,-214.8 109.96,-214.8 109.96,-178.8 292.04,-178.8 292.04,-214.8"/>
<text text-anchor="middle" x="201" y="-192.6" font-family="Times,serif" font-size="14.00">SafeFormBuilderComponent </text>
</g>
<!-- SafeFormBuilderModule&#45;&gt;SafeFormBuilderComponent  -->
<g id="edge3" class="edge">
<title>SafeFormBuilderModule&#45;&gt;SafeFormBuilderComponent </title>
<path fill="none" stroke="black" stroke-dasharray="5,2" d="M201,-149.91C201,-149.91 201,-168.79 201,-168.79"/>
<polygon fill="black" stroke="black" points="197.5,-168.79 201,-178.79 204.5,-168.79 197.5,-168.79"/>
</g>
<!-- SafeFormModalModule -->
<g id="node3" class="node">
<title>SafeFormModalModule</title>
<polygon fill="#8dd3c7" stroke="black" points="377.82,-84.8 374.82,-88.8 353.82,-88.8 350.82,-84.8 226.18,-84.8 226.18,-48.8 377.82,-48.8 377.82,-84.8"/>
<text text-anchor="middle" x="302" y="-62.6" font-family="Times,serif" font-size="14.00">SafeFormModalModule</text>
</g>
<!-- SafeFormModalModule&#45;&gt;SafeFormBuilderModule -->
<g id="edge2" class="edge">
<title>SafeFormModalModule&#45;&gt;SafeFormBuilderModule</title>
<path fill="none" stroke="black" d="M252.86,-84.91C252.86,-84.91 252.86,-103.79 252.86,-103.79"/>
<polygon fill="black" stroke="black" points="249.36,-103.79 252.86,-113.79 256.36,-103.79 249.36,-103.79"/>
</g>
</g>
</svg>
