<?xml version="1.0" encoding="UTF-8" standalone="no"?>
<!DOCTYPE svg PUBLIC "-//W3C//DTD SVG 1.1//EN"
 "http://www.w3.org/Graphics/SVG/1.1/DTD/svg11.dtd">
<!-- Generated by graphviz version 3.0.0 (20220226.1711)
 -->
<!-- Title: dependencies Pages: 1 -->
<svg width="532pt" height="247pt"
 viewBox="0.00 0.00 532.00 246.80" xmlns="http://www.w3.org/2000/svg" xmlns:xlink="http://www.w3.org/1999/xlink">
<g id="graph0" class="graph" transform="scale(1 1) rotate(0) translate(4 242.8)">
<title>dependencies</title>
<polygon fill="white" stroke="transparent" points="-4,4 -4,-242.8 528,-242.8 528,4 -4,4"/>
<text text-anchor="middle" x="262" y="-8.2" font-family="sans-serif" font-size="14.00">dependencies</text>
<g id="clust1" class="cluster">
<title>cluster_SafeSkeletonTableModule</title>
<polygon fill="none" stroke="black" stroke-dasharray="1,5" points="8,-32.8 8,-230.8 516,-230.8 516,-32.8 8,-32.8"/>
</g>
<g id="clust2" class="cluster">
<title>cluster_SafeSkeletonTableModule_declarations</title>
<polygon fill="none" stroke="black" points="304,-40.8 304,-92.8 508,-92.8 508,-40.8 304,-40.8"/>
</g>
<g id="clust4" class="cluster">
<title>cluster_SafeSkeletonTableModule_imports</title>
<polygon fill="none" stroke="black" points="16,-40.8 16,-92.8 296,-92.8 296,-40.8 16,-40.8"/>
</g>
<g id="clust5" class="cluster">
<title>cluster_SafeSkeletonTableModule_exports</title>
<polygon fill="none" stroke="black" points="123,-170.8 123,-222.8 329,-222.8 329,-170.8 123,-170.8"/>
</g>
<!-- SafeSkeletonTableComponent -->
<g id="node1" class="node">
<title>SafeSkeletonTableComponent</title>
<polygon fill="#ffffb3" stroke="black" points="499.57,-84.8 312.43,-84.8 312.43,-48.8 499.57,-48.8 499.57,-84.8"/>
<text text-anchor="middle" x="406" y="-62.6" font-family="Times,serif" font-size="14.00">SafeSkeletonTableComponent</text>
</g>
<!-- SafeSkeletonTableModule -->
<g id="node2" class="node">
<title>SafeSkeletonTableModule</title>
<polygon fill="#8dd3c7" stroke="black" points="308.79,-149.8 305.79,-153.8 284.79,-153.8 281.79,-149.8 143.21,-149.8 143.21,-113.8 308.79,-113.8 308.79,-149.8"/>
<text text-anchor="middle" x="226" y="-127.6" font-family="Times,serif" font-size="14.00">SafeSkeletonTableModule</text>
</g>
<!-- SafeSkeletonTableComponent&#45;&gt;SafeSkeletonTableModule -->
<g id="edge1" class="edge">
<title>SafeSkeletonTableComponent&#45;&gt;SafeSkeletonTableModule</title>
<path fill="none" stroke="black" d="M316.88,-84.91C316.88,-104.14 316.88,-131.8 316.88,-131.8 316.88,-131.8 316.07,-131.8 316.07,-131.8"/>
<polygon fill="black" stroke="black" points="318.81,-128.3 308.81,-131.8 318.81,-135.3 318.81,-128.3"/>
</g>
<!-- SafeSkeletonTableComponent  -->
<g id="node5" class="node">
<title>SafeSkeletonTableComponent </title>
<polygon fill="#fb8072" stroke="black" points="321.07,-214.8 130.93,-214.8 130.93,-178.8 321.07,-178.8 321.07,-214.8"/>
<text text-anchor="middle" x="226" y="-192.6" font-family="Times,serif" font-size="14.00">SafeSkeletonTableComponent </text>
</g>
<!-- SafeSkeletonTableModule&#45;&gt;SafeSkeletonTableComponent  -->
<g id="edge4" class="edge">
<title>SafeSkeletonTableModule&#45;&gt;SafeSkeletonTableComponent </title>
<path fill="none" stroke="black" stroke-dasharray="5,2" d="M226,-149.91C226,-149.91 226,-168.79 226,-168.79"/>
<polygon fill="black" stroke="black" points="222.5,-168.79 226,-178.79 229.5,-168.79 222.5,-168.79"/>
</g>
<!-- SafeAccessModule -->
<g id="node3" class="node">
<title>SafeAccessModule</title>
<polygon fill="#8dd3c7" stroke="black" points="288.08,-84.8 285.08,-88.8 264.08,-88.8 261.08,-84.8 163.92,-84.8 163.92,-48.8 288.08,-48.8 288.08,-84.8"/>
<text text-anchor="middle" x="226" y="-62.6" font-family="Times,serif" font-size="14.00">SafeAccessModule</text>
</g>
<!-- SafeAccessModule&#45;&gt;SafeSkeletonTableModule -->
<g id="edge2" class="edge">
<title>SafeAccessModule&#45;&gt;SafeSkeletonTableModule</title>
<path fill="none" stroke="black" d="M226,-84.91C226,-84.91 226,-103.79 226,-103.79"/>
<polygon fill="black" stroke="black" points="222.5,-103.79 226,-113.79 229.5,-103.79 222.5,-103.79"/>
</g>
<!-- SafeButtonModule -->
<g id="node4" class="node">
<title>SafeButtonModule</title>
<polygon fill="#8dd3c7" stroke="black" points="146.05,-84.8 143.05,-88.8 122.05,-88.8 119.05,-84.8 23.95,-84.8 23.95,-48.8 146.05,-48.8 146.05,-84.8"/>
<text text-anchor="middle" x="85" y="-62.6" font-family="Times,serif" font-size="14.00">SafeButtonModule</text>
</g>
<!-- SafeButtonModule&#45;&gt;SafeSkeletonTableModule -->
<g id="edge3" class="edge">
<title>SafeButtonModule&#45;&gt;SafeSkeletonTableModule</title>
<path fill="none" stroke="black" d="M137.04,-84.91C137.04,-104.14 137.04,-131.8 137.04,-131.8 137.04,-131.8 137.65,-131.8 137.65,-131.8"/>
<polygon fill="black" stroke="black" points="133.15,-135.3 143.15,-131.8 133.15,-128.3 133.15,-135.3"/>
</g>
</g>
</svg>
