<?xml version="1.0" encoding="UTF-8" standalone="no"?>
<!DOCTYPE svg PUBLIC "-//W3C//DTD SVG 1.1//EN"
 "http://www.w3.org/Graphics/SVG/1.1/DTD/svg11.dtd">
<!-- Generated by graphviz version 2.47.0 (20210316.0004)
 -->
<!-- Title: dependencies Pages: 1 -->
<svg width="504pt" height="284pt"
 viewBox="0.00 0.00 504.00 284.00" xmlns="http://www.w3.org/2000/svg" xmlns:xlink="http://www.w3.org/1999/xlink">
<g id="graph0" class="graph" transform="scale(1 1) rotate(0) translate(4 280)">
<title>dependencies</title>
<polygon fill="white" stroke="transparent" points="-4,4 -4,-280 500,-280 500,4 -4,4"/>
<text text-anchor="start" x="227.01" y="-42.4" font-family="sans-serif" font-weight="bold" font-size="14.00">Legend</text>
<polygon fill="#ffffb3" stroke="transparent" points="14,-10 14,-30 34,-30 34,-10 14,-10"/>
<text text-anchor="start" x="37.63" y="-15.4" font-family="sans-serif" font-size="14.00"> &#160;Declarations</text>
<polygon fill="#8dd3c7" stroke="transparent" points="127,-10 127,-30 147,-30 147,-10 127,-10"/>
<text text-anchor="start" x="150.73" y="-15.4" font-family="sans-serif" font-size="14.00"> &#160;Module</text>
<polygon fill="#80b1d3" stroke="transparent" points="213,-10 213,-30 233,-30 233,-10 213,-10"/>
<text text-anchor="start" x="236.78" y="-15.4" font-family="sans-serif" font-size="14.00"> &#160;Bootstrap</text>
<polygon fill="#fdb462" stroke="transparent" points="310,-10 310,-30 330,-30 330,-10 310,-10"/>
<text text-anchor="start" x="333.67" y="-15.4" font-family="sans-serif" font-size="14.00"> &#160;Providers</text>
<polygon fill="#fb8072" stroke="transparent" points="406,-10 406,-30 426,-30 426,-10 406,-10"/>
<text text-anchor="start" x="429.73" y="-15.4" font-family="sans-serif" font-size="14.00"> &#160;Exports</text>
<g id="clust1" class="cluster">
<title>cluster_FormModule</title>
<polygon fill="none" stroke="black" stroke-dasharray="1,5" points="39.5,-70 39.5,-268 456.5,-268 456.5,-70 39.5,-70"/>
</g>
<g id="clust2" class="cluster">
<title>cluster_FormModule_declarations</title>
<polygon fill="none" stroke="black" points="320.5,-78 320.5,-130 448.5,-130 448.5,-78 320.5,-78"/>
</g>
<g id="clust4" class="cluster">
<title>cluster_FormModule_imports</title>
<polygon fill="none" stroke="black" points="47.5,-78 47.5,-130 312.5,-130 312.5,-78 47.5,-78"/>
</g>
<g id="clust5" class="cluster">
<title>cluster_FormModule_exports</title>
<polygon fill="none" stroke="black" points="170.5,-208 170.5,-260 302.5,-260 302.5,-208 170.5,-208"/>
</g>
<!-- FormComponent -->
<g id="node1" class="node">
<title>FormComponent</title>
<polygon fill="#ffffb3" stroke="black" points="440.17,-122 328.83,-122 328.83,-86 440.17,-86 440.17,-122"/>
<text text-anchor="middle" x="384.5" y="-99.8" font-family="Times,serif" font-size="14.00">FormComponent</text>
</g>
<!-- FormModule -->
<g id="node2" class="node">
<title>FormModule</title>
<polygon fill="#8dd3c7" stroke="black" points="281.38,-187 278.38,-191 257.38,-191 254.38,-187 191.62,-187 191.62,-151 281.38,-151 281.38,-187"/>
<text text-anchor="middle" x="236.5" y="-164.8" font-family="Times,serif" font-size="14.00">FormModule</text>
</g>
<!-- FormComponent&#45;&gt;FormModule -->
<g id="edge1" class="edge">
<title>FormComponent&#45;&gt;FormModule</title>
<path fill="none" stroke="black" d="M384.5,-122.11C384.5,-141.34 384.5,-169 384.5,-169 384.5,-169 291.71,-169 291.71,-169"/>
<polygon fill="black" stroke="black" points="291.71,-165.5 281.71,-169 291.71,-172.5 291.71,-165.5"/>
</g>
<!-- FormComponent  -->
<g id="node5" class="node">
<title>FormComponent </title>
<polygon fill="#fb8072" stroke="black" points="294.17,-252 178.83,-252 178.83,-216 294.17,-216 294.17,-252"/>
<text text-anchor="middle" x="236.5" y="-229.8" font-family="Times,serif" font-size="14.00">FormComponent </text>
</g>
<!-- FormModule&#45;&gt;FormComponent  -->
<g id="edge4" class="edge">
<title>FormModule&#45;&gt;FormComponent </title>
<path fill="none" stroke="black" stroke-dasharray="5,2" d="M236.5,-187.11C236.5,-187.11 236.5,-205.99 236.5,-205.99"/>
<polygon fill="black" stroke="black" points="233,-205.99 236.5,-215.99 240,-205.99 233,-205.99"/>
</g>
<!-- FormRoutingModule -->
<g id="node3" class="node">
<title>FormRoutingModule</title>
<polygon fill="#8dd3c7" stroke="black" points="304,-122 301,-126 280,-126 277,-122 169,-122 169,-86 304,-86 304,-122"/>
<text text-anchor="middle" x="236.5" y="-99.8" font-family="Times,serif" font-size="14.00">FormRoutingModule</text>
</g>
<!-- FormRoutingModule&#45;&gt;FormModule -->
<g id="edge2" class="edge">
<title>FormRoutingModule&#45;&gt;FormModule</title>
<path fill="none" stroke="black" d="M236.5,-122.11C236.5,-122.11 236.5,-140.99 236.5,-140.99"/>
<polygon fill="black" stroke="black" points="233,-140.99 236.5,-150.99 240,-140.99 233,-140.99"/>
</g>
<!-- FormsModule -->
<g id="node4" class="node">
<title>FormsModule</title>
<polygon fill="#8dd3c7" stroke="black" points="151.33,-122 148.33,-126 127.33,-126 124.33,-122 55.67,-122 55.67,-86 151.33,-86 151.33,-122"/>
<text text-anchor="middle" x="103.5" y="-99.8" font-family="Times,serif" font-size="14.00">FormsModule</text>
</g>
<!-- FormsModule&#45;&gt;FormModule -->
<g id="edge3" class="edge">
<title>FormsModule&#45;&gt;FormModule</title>
<path fill="none" stroke="black" d="M103.5,-122.11C103.5,-141.34 103.5,-169 103.5,-169 103.5,-169 181.47,-169 181.47,-169"/>
<polygon fill="black" stroke="black" points="181.47,-172.5 191.47,-169 181.47,-165.5 181.47,-172.5"/>
</g>
</g>
</svg>
