<?xml version="1.0" encoding="UTF-8" standalone="no"?>
<!DOCTYPE svg PUBLIC "-//W3C//DTD SVG 1.1//EN"
 "http://www.w3.org/Graphics/SVG/1.1/DTD/svg11.dtd">
<!-- Generated by graphviz version 3.0.0 (20220226.1711)
 -->
<!-- Title: dependencies Pages: 1 -->
<svg width="578pt" height="247pt"
 viewBox="0.00 0.00 578.00 246.80" xmlns="http://www.w3.org/2000/svg" xmlns:xlink="http://www.w3.org/1999/xlink">
<g id="graph0" class="graph" transform="scale(1 1) rotate(0) translate(4 242.8)">
<title>dependencies</title>
<polygon fill="white" stroke="transparent" points="-4,4 -4,-242.8 574,-242.8 574,4 -4,4"/>
<text text-anchor="middle" x="285" y="-8.2" font-family="sans-serif" font-size="14.00">dependencies</text>
<g id="clust1" class="cluster">
<title>cluster_MapClorophletModule</title>
<polygon fill="none" stroke="black" stroke-dasharray="1,5" points="8,-32.8 8,-230.8 562,-230.8 562,-32.8 8,-32.8"/>
</g>
<g id="clust4" class="cluster">
<title>cluster_MapClorophletModule_imports</title>
<polygon fill="none" stroke="black" points="206,-40.8 206,-92.8 554,-92.8 554,-40.8 206,-40.8"/>
</g>
<g id="clust2" class="cluster">
<title>cluster_MapClorophletModule_declarations</title>
<polygon fill="none" stroke="black" points="16,-40.8 16,-92.8 198,-92.8 198,-40.8 16,-40.8"/>
</g>
<g id="clust5" class="cluster">
<title>cluster_MapClorophletModule_exports</title>
<polygon fill="none" stroke="black" points="181,-170.8 181,-222.8 367,-222.8 367,-170.8 181,-170.8"/>
</g>
<!-- MapClorophletComponent -->
<g id="node1" class="node">
<title>MapClorophletComponent</title>
<polygon fill="#ffffb3" stroke="black" points="190.38,-84.8 23.62,-84.8 23.62,-48.8 190.38,-48.8 190.38,-84.8"/>
<text text-anchor="middle" x="107" y="-62.6" font-family="Times,serif" font-size="14.00">MapClorophletComponent</text>
</g>
<!-- MapClorophletModule -->
<g id="node2" class="node">
<title>MapClorophletModule</title>
<polygon fill="#8dd3c7" stroke="black" points="346.6,-149.8 343.6,-153.8 322.6,-153.8 319.6,-149.8 201.4,-149.8 201.4,-113.8 346.6,-113.8 346.6,-149.8"/>
<text text-anchor="middle" x="274" y="-127.6" font-family="Times,serif" font-size="14.00">MapClorophletModule</text>
</g>
<!-- MapClorophletComponent&#45;&gt;MapClorophletModule -->
<g id="edge1" class="edge">
<title>MapClorophletComponent&#45;&gt;MapClorophletModule</title>
<path fill="none" stroke="black" d="M190.44,-66.8C200.6,-66.8 207.48,-66.8 207.48,-66.8 207.48,-66.8 207.48,-103.69 207.48,-103.69"/>
<polygon fill="black" stroke="black" points="203.98,-103.69 207.48,-113.69 210.98,-103.69 203.98,-103.69"/>
</g>
<!-- MapClorophletComponent  -->
<g id="node5" class="node">
<title>MapClorophletComponent </title>
<polygon fill="#fb8072" stroke="black" points="359.38,-214.8 188.62,-214.8 188.62,-178.8 359.38,-178.8 359.38,-214.8"/>
<text text-anchor="middle" x="274" y="-192.6" font-family="Times,serif" font-size="14.00">MapClorophletComponent </text>
</g>
<!-- MapClorophletModule&#45;&gt;MapClorophletComponent  -->
<g id="edge4" class="edge">
<title>MapClorophletModule&#45;&gt;MapClorophletComponent </title>
<path fill="none" stroke="black" stroke-dasharray="5,2" d="M274,-149.91C274,-149.91 274,-168.79 274,-168.79"/>
<polygon fill="black" stroke="black" points="270.5,-168.79 274,-178.79 277.5,-168.79 270.5,-168.79"/>
</g>
<!-- MapClorophletDivisionModule -->
<g id="node3" class="node">
<title>MapClorophletDivisionModule</title>
<polygon fill="#8dd3c7" stroke="black" points="545.82,-84.8 542.82,-88.8 521.82,-88.8 518.82,-84.8 352.18,-84.8 352.18,-48.8 545.82,-48.8 545.82,-84.8"/>
<text text-anchor="middle" x="449" y="-62.6" font-family="Times,serif" font-size="14.00">MapClorophletDivisionModule</text>
</g>
<!-- MapClorophletDivisionModule&#45;&gt;MapClorophletModule -->
<g id="edge2" class="edge">
<title>MapClorophletDivisionModule&#45;&gt;MapClorophletModule</title>
<path fill="none" stroke="black" d="M352.13,-66.8C344.99,-66.8 340.52,-66.8 340.52,-66.8 340.52,-66.8 340.52,-103.69 340.52,-103.69"/>
<polygon fill="black" stroke="black" points="337.02,-103.69 340.52,-113.69 344.02,-103.69 337.02,-103.69"/>
</g>
<!-- SafeModalModule -->
<g id="node4" class="node">
<title>SafeModalModule</title>
<polygon fill="#8dd3c7" stroke="black" points="334.48,-84.8 331.48,-88.8 310.48,-88.8 307.48,-84.8 213.52,-84.8 213.52,-48.8 334.48,-48.8 334.48,-84.8"/>
<text text-anchor="middle" x="274" y="-62.6" font-family="Times,serif" font-size="14.00">SafeModalModule</text>
</g>
<!-- SafeModalModule&#45;&gt;MapClorophletModule -->
<g id="edge3" class="edge">
<title>SafeModalModule&#45;&gt;MapClorophletModule</title>
<path fill="none" stroke="black" d="M274,-84.91C274,-84.91 274,-103.79 274,-103.79"/>
<polygon fill="black" stroke="black" points="270.5,-103.79 274,-113.79 277.5,-103.79 270.5,-103.79"/>
</g>
</g>
</svg>
