<?xml version="1.0" encoding="UTF-8" standalone="no"?>
<!DOCTYPE svg PUBLIC "-//W3C//DTD SVG 1.1//EN"
 "http://www.w3.org/Graphics/SVG/1.1/DTD/svg11.dtd">
<!-- Generated by graphviz version 3.0.0 (20220226.1711)
 -->
<!-- Title: dependencies Pages: 1 -->
<svg width="797pt" height="247pt"
 viewBox="0.00 0.00 797.00 246.80" xmlns="http://www.w3.org/2000/svg" xmlns:xlink="http://www.w3.org/1999/xlink">
<g id="graph0" class="graph" transform="scale(1 1) rotate(0) translate(4 242.8)">
<title>dependencies</title>
<polygon fill="white" stroke="transparent" points="-4,4 -4,-242.8 793,-242.8 793,4 -4,4"/>
<text text-anchor="middle" x="394.5" y="-8.2" font-family="sans-serif" font-size="14.00">dependencies</text>
<g id="clust1" class="cluster">
<title>cluster_MapClorophletsModule</title>
<polygon fill="none" stroke="black" stroke-dasharray="1,5" points="8,-32.8 8,-230.8 781,-230.8 781,-32.8 8,-32.8"/>
</g>
<g id="clust2" class="cluster">
<title>cluster_MapClorophletsModule_declarations</title>
<polygon fill="none" stroke="black" points="585,-40.8 585,-92.8 773,-92.8 773,-40.8 585,-40.8"/>
</g>
<g id="clust4" class="cluster">
<title>cluster_MapClorophletsModule_imports</title>
<polygon fill="none" stroke="black" points="16,-40.8 16,-92.8 577,-92.8 577,-40.8 16,-40.8"/>
</g>
<g id="clust5" class="cluster">
<title>cluster_MapClorophletsModule_exports</title>
<polygon fill="none" stroke="black" points="253,-170.8 253,-222.8 445,-222.8 445,-170.8 253,-170.8"/>
</g>
<!-- MapClorophletsComponent -->
<g id="node1" class="node">
<title>MapClorophletsComponent</title>
<polygon fill="#ffffb3" stroke="black" points="765.32,-84.8 592.68,-84.8 592.68,-48.8 765.32,-48.8 765.32,-84.8"/>
<text text-anchor="middle" x="679" y="-62.6" font-family="Times,serif" font-size="14.00">MapClorophletsComponent</text>
</g>
<!-- MapClorophletsModule -->
<g id="node2" class="node">
<title>MapClorophletsModule</title>
<polygon fill="#8dd3c7" stroke="black" points="424.05,-149.8 421.05,-153.8 400.05,-153.8 397.05,-149.8 273.95,-149.8 273.95,-113.8 424.05,-113.8 424.05,-149.8"/>
<text text-anchor="middle" x="349" y="-127.6" font-family="Times,serif" font-size="14.00">MapClorophletsModule</text>
</g>
<!-- MapClorophletsComponent&#45;&gt;MapClorophletsModule -->
<g id="edge1" class="edge">
<title>MapClorophletsComponent&#45;&gt;MapClorophletsModule</title>
<path fill="none" stroke="black" d="M679,-85.08C679,-106.12 679,-137.8 679,-137.8 679,-137.8 434.3,-137.8 434.3,-137.8"/>
<polygon fill="black" stroke="black" points="434.3,-134.3 424.3,-137.8 434.29,-141.3 434.3,-134.3"/>
</g>
<!-- MapClorophletsComponent  -->
<g id="node7" class="node">
<title>MapClorophletsComponent </title>
<polygon fill="#fb8072" stroke="black" points="436.82,-214.8 261.18,-214.8 261.18,-178.8 436.82,-178.8 436.82,-214.8"/>
<text text-anchor="middle" x="349" y="-192.6" font-family="Times,serif" font-size="14.00">MapClorophletsComponent </text>
</g>
<!-- MapClorophletsModule&#45;&gt;MapClorophletsComponent  -->
<g id="edge6" class="edge">
<title>MapClorophletsModule&#45;&gt;MapClorophletsComponent </title>
<path fill="none" stroke="black" stroke-dasharray="5,2" d="M349,-149.91C349,-149.91 349,-168.79 349,-168.79"/>
<polygon fill="black" stroke="black" points="345.5,-168.79 349,-178.79 352.5,-168.79 345.5,-168.79"/>
</g>
<!-- MapClorophletModule -->
<g id="node3" class="node">
<title>MapClorophletModule</title>
<polygon fill="#8dd3c7" stroke="black" points="568.6,-84.8 565.6,-88.8 544.6,-88.8 541.6,-84.8 423.4,-84.8 423.4,-48.8 568.6,-48.8 568.6,-84.8"/>
<text text-anchor="middle" x="496" y="-62.6" font-family="Times,serif" font-size="14.00">MapClorophletModule</text>
</g>
<!-- MapClorophletModule&#45;&gt;MapClorophletsModule -->
<g id="edge2" class="edge">
<title>MapClorophletModule&#45;&gt;MapClorophletsModule</title>
<path fill="none" stroke="black" d="M430.59,-84.82C430.59,-102.17 430.59,-125.8 430.59,-125.8 430.59,-125.8 429.95,-125.8 429.95,-125.8"/>
<polygon fill="black" stroke="black" points="434.19,-122.3 424.19,-125.8 434.19,-129.3 434.19,-122.3"/>
</g>
<!-- SafeAlertModule -->
<g id="node4" class="node">
<title>SafeAlertModule</title>
<polygon fill="#8dd3c7" stroke="black" points="405.69,-84.8 402.69,-88.8 381.69,-88.8 378.69,-84.8 292.31,-84.8 292.31,-48.8 405.69,-48.8 405.69,-84.8"/>
<text text-anchor="middle" x="349" y="-62.6" font-family="Times,serif" font-size="14.00">SafeAlertModule</text>
</g>
<!-- SafeAlertModule&#45;&gt;MapClorophletsModule -->
<g id="edge3" class="edge">
<title>SafeAlertModule&#45;&gt;MapClorophletsModule</title>
<path fill="none" stroke="black" d="M349,-84.91C349,-84.91 349,-103.79 349,-103.79"/>
<polygon fill="black" stroke="black" points="345.5,-103.79 349,-113.79 352.5,-103.79 345.5,-103.79"/>
</g>
<!-- SafeButtonModule -->
<g id="node5" class="node">
<title>SafeButtonModule</title>
<polygon fill="#8dd3c7" stroke="black" points="274.05,-84.8 271.05,-88.8 250.05,-88.8 247.05,-84.8 151.95,-84.8 151.95,-48.8 274.05,-48.8 274.05,-84.8"/>
<text text-anchor="middle" x="213" y="-62.6" font-family="Times,serif" font-size="14.00">SafeButtonModule</text>
</g>
<!-- SafeButtonModule&#45;&gt;MapClorophletsModule -->
<g id="edge4" class="edge">
<title>SafeButtonModule&#45;&gt;MapClorophletsModule</title>
<path fill="none" stroke="black" d="M267.41,-85.08C267.41,-106.12 267.41,-137.8 267.41,-137.8 267.41,-137.8 268.05,-137.8 268.05,-137.8"/>
<polygon fill="black" stroke="black" points="263.81,-141.3 273.81,-137.8 263.81,-134.3 263.81,-141.3"/>
</g>
<!-- SafeIconModule -->
<g id="node6" class="node">
<title>SafeIconModule</title>
<polygon fill="#8dd3c7" stroke="black" points="133.8,-84.8 130.8,-88.8 109.8,-88.8 106.8,-84.8 24.2,-84.8 24.2,-48.8 133.8,-48.8 133.8,-84.8"/>
<text text-anchor="middle" x="79" y="-62.6" font-family="Times,serif" font-size="14.00">SafeIconModule</text>
</g>
<!-- SafeIconModule&#45;&gt;MapClorophletsModule -->
<g id="edge5" class="edge">
<title>SafeIconModule&#45;&gt;MapClorophletsModule</title>
<path fill="none" stroke="black" d="M79,-84.82C79,-102.17 79,-125.8 79,-125.8 79,-125.8 263.79,-125.8 263.79,-125.8"/>
<polygon fill="black" stroke="black" points="263.79,-129.3 273.79,-125.8 263.79,-122.3 263.79,-129.3"/>
</g>
</g>
</svg>
