<?xml version="1.0" encoding="UTF-8" standalone="no"?>
<!DOCTYPE svg PUBLIC "-//W3C//DTD SVG 1.1//EN"
 "http://www.w3.org/Graphics/SVG/1.1/DTD/svg11.dtd">
<!-- Generated by graphviz version 3.0.0 (20220226.1711)
 -->
<!-- Title: dependencies Pages: 1 -->
<svg width="797pt" height="247pt"
 viewBox="0.00 0.00 797.00 246.80" xmlns="http://www.w3.org/2000/svg" xmlns:xlink="http://www.w3.org/1999/xlink">
<g id="graph0" class="graph" transform="scale(1 1) rotate(0) translate(4 242.8)">
<title>dependencies</title>
<polygon fill="white" stroke="transparent" points="-4,4 -4,-242.8 793,-242.8 793,4 -4,4"/>
<text text-anchor="middle" x="394.5" y="-8.2" font-family="sans-serif" font-size="14.00">dependencies</text>
<g id="clust1" class="cluster">
<title>cluster_MapClorophletsModule</title>
<polygon fill="none" stroke="black" stroke-dasharray="1,5" points="8,-32.8 8,-230.8 781,-230.8 781,-32.8 8,-32.8"/>
</g>
<g id="clust4" class="cluster">
<title>cluster_MapClorophletsModule_imports</title>
<polygon fill="none" stroke="black" points="212,-40.8 212,-92.8 773,-92.8 773,-40.8 212,-40.8"/>
</g>
<g id="clust2" class="cluster">
<title>cluster_MapClorophletsModule_declarations</title>
<polygon fill="none" stroke="black" points="16,-40.8 16,-92.8 204,-92.8 204,-40.8 16,-40.8"/>
</g>
<g id="clust5" class="cluster">
<title>cluster_MapClorophletsModule_exports</title>
<polygon fill="none" stroke="black" points="313,-170.8 313,-222.8 505,-222.8 505,-170.8 313,-170.8"/>
</g>
<!-- MapClorophletsComponent -->
<g id="node1" class="node">
<title>MapClorophletsComponent</title>
<polygon fill="#ffffb3" stroke="black" points="196.32,-84.8 23.68,-84.8 23.68,-48.8 196.32,-48.8 196.32,-84.8"/>
<text text-anchor="middle" x="110" y="-62.6" font-family="Times,serif" font-size="14.00">MapClorophletsComponent</text>
</g>
<!-- MapClorophletsModule -->
<g id="node2" class="node">
<title>MapClorophletsModule</title>
<polygon fill="#8dd3c7" stroke="black" points="484.05,-149.8 481.05,-153.8 460.05,-153.8 457.05,-149.8 333.95,-149.8 333.95,-113.8 484.05,-113.8 484.05,-149.8"/>
<text text-anchor="middle" x="409" y="-127.6" font-family="Times,serif" font-size="14.00">MapClorophletsModule</text>
</g>
<!-- MapClorophletsComponent&#45;&gt;MapClorophletsModule -->
<g id="edge1" class="edge">
<title>MapClorophletsComponent&#45;&gt;MapClorophletsModule</title>
<path fill="none" stroke="black" d="M110,-85.08C110,-106.12 110,-137.8 110,-137.8 110,-137.8 323.94,-137.8 323.94,-137.8"/>
<polygon fill="black" stroke="black" points="323.94,-141.3 333.94,-137.8 323.94,-134.3 323.94,-141.3"/>
</g>
<!-- MapClorophletsComponent  -->
<g id="node7" class="node">
<title>MapClorophletsComponent </title>
<polygon fill="#fb8072" stroke="black" points="496.82,-214.8 321.18,-214.8 321.18,-178.8 496.82,-178.8 496.82,-214.8"/>
<text text-anchor="middle" x="409" y="-192.6" font-family="Times,serif" font-size="14.00">MapClorophletsComponent </text>
</g>
<!-- MapClorophletsModule&#45;&gt;MapClorophletsComponent  -->
<g id="edge6" class="edge">
<title>MapClorophletsModule&#45;&gt;MapClorophletsComponent </title>
<path fill="none" stroke="black" stroke-dasharray="5,2" d="M409,-149.91C409,-149.91 409,-168.79 409,-168.79"/>
<polygon fill="black" stroke="black" points="405.5,-168.79 409,-178.79 412.5,-168.79 405.5,-168.79"/>
</g>
<!-- MapClorophletModule -->
<g id="node3" class="node">
<title>MapClorophletModule</title>
<polygon fill="#8dd3c7" stroke="black" points="764.6,-84.8 761.6,-88.8 740.6,-88.8 737.6,-84.8 619.4,-84.8 619.4,-48.8 764.6,-48.8 764.6,-84.8"/>
<text text-anchor="middle" x="692" y="-62.6" font-family="Times,serif" font-size="14.00">MapClorophletModule</text>
</g>
<!-- MapClorophletModule&#45;&gt;MapClorophletsModule -->
<g id="edge2" class="edge">
<title>MapClorophletModule&#45;&gt;MapClorophletsModule</title>
<path fill="none" stroke="black" d="M692,-85.08C692,-106.12 692,-137.8 692,-137.8 692,-137.8 494.1,-137.8 494.1,-137.8"/>
<polygon fill="black" stroke="black" points="494.1,-134.3 484.1,-137.8 494.1,-141.3 494.1,-134.3"/>
</g>
<!-- SafeAlertModule -->
<g id="node4" class="node">
<title>SafeAlertModule</title>
<polygon fill="#8dd3c7" stroke="black" points="601.69,-84.8 598.69,-88.8 577.69,-88.8 574.69,-84.8 488.31,-84.8 488.31,-48.8 601.69,-48.8 601.69,-84.8"/>
<text text-anchor="middle" x="545" y="-62.6" font-family="Times,serif" font-size="14.00">SafeAlertModule</text>
</g>
<!-- SafeAlertModule&#45;&gt;MapClorophletsModule -->
<g id="edge3" class="edge">
<title>SafeAlertModule&#45;&gt;MapClorophletsModule</title>
<path fill="none" stroke="black" d="M492.66,-84.82C492.66,-102.17 492.66,-125.8 492.66,-125.8 492.66,-125.8 491.82,-125.8 491.82,-125.8"/>
<polygon fill="black" stroke="black" points="494.33,-122.3 484.33,-125.8 494.33,-129.3 494.33,-122.3"/>
</g>
<!-- SafeButtonModule -->
<g id="node5" class="node">
<title>SafeButtonModule</title>
<polygon fill="#8dd3c7" stroke="black" points="470.05,-84.8 467.05,-88.8 446.05,-88.8 443.05,-84.8 347.95,-84.8 347.95,-48.8 470.05,-48.8 470.05,-84.8"/>
<text text-anchor="middle" x="409" y="-62.6" font-family="Times,serif" font-size="14.00">SafeButtonModule</text>
</g>
<!-- SafeButtonModule&#45;&gt;MapClorophletsModule -->
<g id="edge4" class="edge">
<title>SafeButtonModule&#45;&gt;MapClorophletsModule</title>
<path fill="none" stroke="black" d="M409,-84.91C409,-84.91 409,-103.79 409,-103.79"/>
<polygon fill="black" stroke="black" points="405.5,-103.79 409,-113.79 412.5,-103.79 405.5,-103.79"/>
</g>
<!-- SafeIconModule -->
<g id="node6" class="node">
<title>SafeIconModule</title>
<polygon fill="#8dd3c7" stroke="black" points="329.8,-84.8 326.8,-88.8 305.8,-88.8 302.8,-84.8 220.2,-84.8 220.2,-48.8 329.8,-48.8 329.8,-84.8"/>
<text text-anchor="middle" x="275" y="-62.6" font-family="Times,serif" font-size="14.00">SafeIconModule</text>
</g>
<!-- SafeIconModule&#45;&gt;MapClorophletsModule -->
<g id="edge5" class="edge">
<title>SafeIconModule&#45;&gt;MapClorophletsModule</title>
<path fill="none" stroke="black" d="M325.37,-84.82C325.37,-102.17 325.37,-125.8 325.37,-125.8 325.37,-125.8 326.2,-125.8 326.2,-125.8"/>
<polygon fill="black" stroke="black" points="323.69,-129.3 333.69,-125.8 323.69,-122.3 323.69,-129.3"/>
</g>
</g>
</svg>
