<?xml version="1.0" encoding="UTF-8" standalone="no"?>
<!DOCTYPE svg PUBLIC "-//W3C//DTD SVG 1.1//EN"
 "http://www.w3.org/Graphics/SVG/1.1/DTD/svg11.dtd">
<!-- Generated by graphviz version 3.0.0 (20220226.1711)
 -->
<!-- Title: dependencies Pages: 1 -->
<svg width="334pt" height="247pt"
 viewBox="0.00 0.00 334.00 246.80" xmlns="http://www.w3.org/2000/svg" xmlns:xlink="http://www.w3.org/1999/xlink">
<g id="graph0" class="graph" transform="scale(1 1) rotate(0) translate(4 242.8)">
<title>dependencies</title>
<polygon fill="white" stroke="transparent" points="-4,4 -4,-242.8 330,-242.8 330,4 -4,4"/>
<text text-anchor="middle" x="163" y="-8.2" font-family="sans-serif" font-size="14.00">dependencies</text>
<g id="clust1" class="cluster">
<title>cluster_SafeEmptyModule</title>
<polygon fill="none" stroke="black" stroke-dasharray="1,5" points="8,-32.8 8,-230.8 318,-230.8 318,-32.8 8,-32.8"/>
</g>
<g id="clust5" class="cluster">
<title>cluster_SafeEmptyModule_exports</title>
<polygon fill="none" stroke="black" points="81,-170.8 81,-222.8 245,-222.8 245,-170.8 81,-170.8"/>
</g>
<g id="clust4" class="cluster">
<title>cluster_SafeEmptyModule_imports</title>
<polygon fill="none" stroke="black" points="184,-40.8 184,-92.8 310,-92.8 310,-40.8 184,-40.8"/>
</g>
<g id="clust2" class="cluster">
<title>cluster_SafeEmptyModule_declarations</title>
<polygon fill="none" stroke="black" points="16,-40.8 16,-92.8 176,-92.8 176,-40.8 16,-40.8"/>
</g>
<!-- SafeEmptyComponent -->
<g id="node1" class="node">
<title>SafeEmptyComponent</title>
<polygon fill="#ffffb3" stroke="black" points="167.54,-84.8 24.46,-84.8 24.46,-48.8 167.54,-48.8 167.54,-84.8"/>
<text text-anchor="middle" x="96" y="-62.6" font-family="Times,serif" font-size="14.00">SafeEmptyComponent</text>
</g>
<!-- SafeEmptyModule -->
<g id="node2" class="node">
<title>SafeEmptyModule</title>
<polygon fill="#8dd3c7" stroke="black" points="223.76,-149.8 220.76,-153.8 199.76,-153.8 196.76,-149.8 102.24,-149.8 102.24,-113.8 223.76,-113.8 223.76,-149.8"/>
<text text-anchor="middle" x="163" y="-127.6" font-family="Times,serif" font-size="14.00">SafeEmptyModule</text>
</g>
<!-- SafeEmptyComponent&#45;&gt;SafeEmptyModule -->
<g id="edge1" class="edge">
<title>SafeEmptyComponent&#45;&gt;SafeEmptyModule</title>
<path fill="none" stroke="black" d="M134.94,-84.91C134.94,-84.91 134.94,-103.79 134.94,-103.79"/>
<polygon fill="black" stroke="black" points="131.44,-103.79 134.94,-113.79 138.44,-103.79 131.44,-103.79"/>
</g>
<!-- SafeEmptyComponent  -->
<g id="node4" class="node">
<title>SafeEmptyComponent </title>
<polygon fill="#fb8072" stroke="black" points="236.54,-214.8 89.46,-214.8 89.46,-178.8 236.54,-178.8 236.54,-214.8"/>
<text text-anchor="middle" x="163" y="-192.6" font-family="Times,serif" font-size="14.00">SafeEmptyComponent </text>
</g>
<!-- SafeEmptyModule&#45;&gt;SafeEmptyComponent  -->
<g id="edge3" class="edge">
<title>SafeEmptyModule&#45;&gt;SafeEmptyComponent </title>
<path fill="none" stroke="black" stroke-dasharray="5,2" d="M163,-149.91C163,-149.91 163,-168.79 163,-168.79"/>
<polygon fill="black" stroke="black" points="159.5,-168.79 163,-178.79 166.5,-168.79 159.5,-168.79"/>
</g>
<!-- SafeIconModule -->
<g id="node3" class="node">
<title>SafeIconModule</title>
<polygon fill="#8dd3c7" stroke="black" points="301.8,-84.8 298.8,-88.8 277.8,-88.8 274.8,-84.8 192.2,-84.8 192.2,-48.8 301.8,-48.8 301.8,-84.8"/>
<text text-anchor="middle" x="247" y="-62.6" font-family="Times,serif" font-size="14.00">SafeIconModule</text>
</g>
<!-- SafeIconModule&#45;&gt;SafeEmptyModule -->
<g id="edge2" class="edge">
<title>SafeIconModule&#45;&gt;SafeEmptyModule</title>
<path fill="none" stroke="black" d="M208.11,-84.91C208.11,-84.91 208.11,-103.79 208.11,-103.79"/>
<polygon fill="black" stroke="black" points="204.61,-103.79 208.11,-113.79 211.61,-103.79 204.61,-103.79"/>
</g>
</g>
</svg>
