<?xml version="1.0" encoding="UTF-8" standalone="no"?>
<!DOCTYPE svg PUBLIC "-//W3C//DTD SVG 1.1//EN"
 "http://www.w3.org/Graphics/SVG/1.1/DTD/svg11.dtd">
<!-- Generated by graphviz version 2.47.0 (20210316.0004)
 -->
<!-- Title: dependencies Pages: 1 -->
<svg width="504pt" height="284pt"
 viewBox="0.00 0.00 504.00 284.00" xmlns="http://www.w3.org/2000/svg" xmlns:xlink="http://www.w3.org/1999/xlink">
<g id="graph0" class="graph" transform="scale(1 1) rotate(0) translate(4 280)">
<title>dependencies</title>
<polygon fill="white" stroke="transparent" points="-4,4 -4,-280 500,-280 500,4 -4,4"/>
<text text-anchor="start" x="227.01" y="-42.4" font-family="sans-serif" font-weight="bold" font-size="14.00">Legend</text>
<polygon fill="#ffffb3" stroke="transparent" points="14,-10 14,-30 34,-30 34,-10 14,-10"/>
<text text-anchor="start" x="37.63" y="-15.4" font-family="sans-serif" font-size="14.00"> &#160;Declarations</text>
<polygon fill="#8dd3c7" stroke="transparent" points="127,-10 127,-30 147,-30 147,-10 127,-10"/>
<text text-anchor="start" x="150.73" y="-15.4" font-family="sans-serif" font-size="14.00"> &#160;Module</text>
<polygon fill="#80b1d3" stroke="transparent" points="213,-10 213,-30 233,-30 233,-10 213,-10"/>
<text text-anchor="start" x="236.78" y="-15.4" font-family="sans-serif" font-size="14.00"> &#160;Bootstrap</text>
<polygon fill="#fdb462" stroke="transparent" points="310,-10 310,-30 330,-30 330,-10 310,-10"/>
<text text-anchor="start" x="333.67" y="-15.4" font-family="sans-serif" font-size="14.00"> &#160;Providers</text>
<polygon fill="#fb8072" stroke="transparent" points="406,-10 406,-30 426,-30 426,-10 406,-10"/>
<text text-anchor="start" x="429.73" y="-15.4" font-family="sans-serif" font-size="14.00"> &#160;Exports</text>
<g id="clust1" class="cluster">
<title>cluster_SafeFormModalModule</title>
<polygon fill="none" stroke="black" stroke-dasharray="1,5" points="72,-70 72,-268 424,-268 424,-70 72,-70"/>
</g>
<g id="clust4" class="cluster">
<title>cluster_SafeFormModalModule_imports</title>
<polygon fill="none" stroke="black" points="278,-78 278,-130 416,-130 416,-78 278,-78"/>
</g>
<g id="clust5" class="cluster">
<title>cluster_SafeFormModalModule_exports</title>
<polygon fill="none" stroke="black" points="152,-208 152,-260 344,-260 344,-208 152,-208"/>
</g>
<g id="clust2" class="cluster">
<title>cluster_SafeFormModalModule_declarations</title>
<polygon fill="none" stroke="black" points="80,-78 80,-130 270,-130 270,-78 80,-78"/>
</g>
<!-- SafeFormModalComponent -->
<g id="node1" class="node">
<title>SafeFormModalComponent</title>
<polygon fill="#ffffb3" stroke="black" points="261.59,-122 88.41,-122 88.41,-86 261.59,-86 261.59,-122"/>
<text text-anchor="middle" x="175" y="-99.8" font-family="Times,serif" font-size="14.00">SafeFormModalComponent</text>
</g>
<!-- SafeFormModalModule -->
<g id="node2" class="node">
<title>SafeFormModalModule</title>
<polygon fill="#8dd3c7" stroke="black" points="323.81,-187 320.81,-191 299.81,-191 296.81,-187 172.19,-187 172.19,-151 323.81,-151 323.81,-187"/>
<text text-anchor="middle" x="248" y="-164.8" font-family="Times,serif" font-size="14.00">SafeFormModalModule</text>
</g>
<!-- SafeFormModalComponent&#45;&gt;SafeFormModalModule -->
<g id="edge1" class="edge">
<title>SafeFormModalComponent&#45;&gt;SafeFormModalModule</title>
<path fill="none" stroke="black" d="M216.95,-122.11C216.95,-122.11 216.95,-140.99 216.95,-140.99"/>
<polygon fill="black" stroke="black" points="213.45,-140.99 216.95,-150.99 220.45,-140.99 213.45,-140.99"/>
</g>
<!-- SafeFormModalComponent  -->
<g id="node4" class="node">
<title>SafeFormModalComponent </title>
<polygon fill="#fb8072" stroke="black" points="336.09,-252 159.91,-252 159.91,-216 336.09,-216 336.09,-252"/>
<text text-anchor="middle" x="248" y="-229.8" font-family="Times,serif" font-size="14.00">SafeFormModalComponent </text>
</g>
<!-- SafeFormModalModule&#45;&gt;SafeFormModalComponent  -->
<g id="edge3" class="edge">
<title>SafeFormModalModule&#45;&gt;SafeFormModalComponent </title>
<path fill="none" stroke="black" stroke-dasharray="5,2" d="M248,-187.11C248,-187.11 248,-205.99 248,-205.99"/>
<polygon fill="black" stroke="black" points="244.5,-205.99 248,-215.99 251.5,-205.99 244.5,-205.99"/>
</g>
<!-- SafeButtonModule -->
<g id="node3" class="node">
<title>SafeButtonModule</title>
<polygon fill="#8dd3c7" stroke="black" points="408.04,-122 405.04,-126 384.04,-126 381.04,-122 285.96,-122 285.96,-86 408.04,-86 408.04,-122"/>
<text text-anchor="middle" x="347" y="-99.8" font-family="Times,serif" font-size="14.00">SafeButtonModule</text>
</g>
<!-- SafeButtonModule&#45;&gt;SafeFormModalModule -->
<g id="edge2" class="edge">
<title>SafeButtonModule&#45;&gt;SafeFormModalModule</title>
<path fill="none" stroke="black" d="M304.69,-122.11C304.69,-122.11 304.69,-140.99 304.69,-140.99"/>
<polygon fill="black" stroke="black" points="301.19,-140.99 304.69,-150.99 308.19,-140.99 301.19,-140.99"/>
</g>
</g>
</svg>
