<?xml version="1.0" encoding="UTF-8" standalone="no"?>
<!DOCTYPE svg PUBLIC "-//W3C//DTD SVG 1.1//EN"
 "http://www.w3.org/Graphics/SVG/1.1/DTD/svg11.dtd">
<!-- Generated by graphviz version 3.0.0 (20220226.1711)
 -->
<!-- Title: dependencies Pages: 1 -->
<svg width="566pt" height="247pt"
 viewBox="0.00 0.00 566.00 246.80" xmlns="http://www.w3.org/2000/svg" xmlns:xlink="http://www.w3.org/1999/xlink">
<g id="graph0" class="graph" transform="scale(1 1) rotate(0) translate(4 242.8)">
<title>dependencies</title>
<polygon fill="white" stroke="transparent" points="-4,4 -4,-242.8 562,-242.8 562,4 -4,4"/>
<text text-anchor="middle" x="279" y="-8.2" font-family="sans-serif" font-size="14.00">dependencies</text>
<g id="clust1" class="cluster">
<title>cluster_SafeTemplatesModule</title>
<polygon fill="none" stroke="black" stroke-dasharray="1,5" points="8,-32.8 8,-230.8 550,-230.8 550,-32.8 8,-32.8"/>
</g>
<g id="clust6" class="cluster">
<title>cluster_SafeTemplatesModule_exports</title>
<polygon fill="none" stroke="black" points="160,-170.8 160,-222.8 344,-222.8 344,-170.8 160,-170.8"/>
</g>
<g id="clust2" class="cluster">
<title>cluster_SafeTemplatesModule_declarations</title>
<polygon fill="none" stroke="black" points="162,-40.8 162,-92.8 542,-92.8 542,-40.8 162,-40.8"/>
</g>
<g id="clust5" class="cluster">
<title>cluster_SafeTemplatesModule_imports</title>
<polygon fill="none" stroke="black" points="16,-40.8 16,-92.8 154,-92.8 154,-40.8 16,-40.8"/>
</g>
<!-- SafeEditTemplateComponent -->
<g id="node1" class="node">
<title>SafeEditTemplateComponent</title>
<polygon fill="#ffffb3" stroke="black" points="534.4,-84.8 351.6,-84.8 351.6,-48.8 534.4,-48.8 534.4,-84.8"/>
<text text-anchor="middle" x="443" y="-62.6" font-family="Times,serif" font-size="14.00">SafeEditTemplateComponent</text>
</g>
<!-- SafeTemplatesModule -->
<g id="node3" class="node">
<title>SafeTemplatesModule</title>
<polygon fill="#8dd3c7" stroke="black" points="323.24,-149.8 320.24,-153.8 299.24,-153.8 296.24,-149.8 180.76,-149.8 180.76,-113.8 323.24,-113.8 323.24,-149.8"/>
<text text-anchor="middle" x="252" y="-127.6" font-family="Times,serif" font-size="14.00">SafeTemplatesModule</text>
</g>
<!-- SafeEditTemplateComponent&#45;&gt;SafeTemplatesModule -->
<g id="edge1" class="edge">
<title>SafeEditTemplateComponent&#45;&gt;SafeTemplatesModule</title>
<path fill="none" stroke="black" d="M443,-84.91C443,-104.14 443,-131.8 443,-131.8 443,-131.8 333.39,-131.8 333.39,-131.8"/>
<polygon fill="black" stroke="black" points="333.39,-128.3 323.39,-131.8 333.39,-135.3 333.39,-128.3"/>
</g>
<!-- SafeTemplatesComponent -->
<g id="node2" class="node">
<title>SafeTemplatesComponent</title>
<polygon fill="#ffffb3" stroke="black" points="334.02,-84.8 169.98,-84.8 169.98,-48.8 334.02,-48.8 334.02,-84.8"/>
<text text-anchor="middle" x="252" y="-62.6" font-family="Times,serif" font-size="14.00">SafeTemplatesComponent</text>
</g>
<!-- SafeTemplatesComponent&#45;&gt;SafeTemplatesModule -->
<g id="edge2" class="edge">
<title>SafeTemplatesComponent&#45;&gt;SafeTemplatesModule</title>
<path fill="none" stroke="black" d="M252,-84.91C252,-84.91 252,-103.79 252,-103.79"/>
<polygon fill="black" stroke="black" points="248.5,-103.79 252,-113.79 255.5,-103.79 248.5,-103.79"/>
</g>
<!-- SafeTemplatesComponent  -->
<g id="node5" class="node">
<title>SafeTemplatesComponent </title>
<polygon fill="#fb8072" stroke="black" points="336.02,-214.8 167.98,-214.8 167.98,-178.8 336.02,-178.8 336.02,-214.8"/>
<text text-anchor="middle" x="252" y="-192.6" font-family="Times,serif" font-size="14.00">SafeTemplatesComponent </text>
</g>
<!-- SafeTemplatesModule&#45;&gt;SafeTemplatesComponent  -->
<g id="edge4" class="edge">
<title>SafeTemplatesModule&#45;&gt;SafeTemplatesComponent </title>
<path fill="none" stroke="black" stroke-dasharray="5,2" d="M252,-149.91C252,-149.91 252,-168.79 252,-168.79"/>
<polygon fill="black" stroke="black" points="248.5,-168.79 252,-178.79 255.5,-168.79 248.5,-168.79"/>
</g>
<!-- SafeButtonModule -->
<g id="node4" class="node">
<title>SafeButtonModule</title>
<polygon fill="#8dd3c7" stroke="black" points="146.05,-84.8 143.05,-88.8 122.05,-88.8 119.05,-84.8 23.95,-84.8 23.95,-48.8 146.05,-48.8 146.05,-84.8"/>
<text text-anchor="middle" x="85" y="-62.6" font-family="Times,serif" font-size="14.00">SafeButtonModule</text>
</g>
<!-- SafeButtonModule&#45;&gt;SafeTemplatesModule -->
<g id="edge3" class="edge">
<title>SafeButtonModule&#45;&gt;SafeTemplatesModule</title>
<path fill="none" stroke="black" d="M85,-84.91C85,-104.14 85,-131.8 85,-131.8 85,-131.8 170.69,-131.8 170.69,-131.8"/>
<polygon fill="black" stroke="black" points="170.69,-135.3 180.69,-131.8 170.69,-128.3 170.69,-135.3"/>
</g>
</g>
</svg>
