<?xml version="1.0" encoding="UTF-8" standalone="no"?>
<!DOCTYPE svg PUBLIC "-//W3C//DTD SVG 1.1//EN"
 "http://www.w3.org/Graphics/SVG/1.1/DTD/svg11.dtd">
<!-- Generated by graphviz version 3.0.0 (20220226.1711)
 -->
<!-- Title: dependencies Pages: 1 -->
<svg width="388pt" height="247pt"
 viewBox="0.00 0.00 388.00 246.80" xmlns="http://www.w3.org/2000/svg" xmlns:xlink="http://www.w3.org/1999/xlink">
<g id="graph0" class="graph" transform="scale(1 1) rotate(0) translate(4 242.8)">
<title>dependencies</title>
<polygon fill="white" stroke="transparent" points="-4,4 -4,-242.8 384,-242.8 384,4 -4,4"/>
<text text-anchor="middle" x="190" y="-8.2" font-family="sans-serif" font-size="14.00">dependencies</text>
<g id="clust1" class="cluster">
<title>cluster_SafeConvertModalModule</title>
<polygon fill="none" stroke="black" stroke-dasharray="1,5" points="8,-32.8 8,-230.8 372,-230.8 372,-32.8 8,-32.8"/>
</g>
<g id="clust2" class="cluster">
<title>cluster_SafeConvertModalModule_declarations</title>
<polygon fill="none" stroke="black" points="160,-40.8 160,-92.8 364,-92.8 364,-40.8 160,-40.8"/>
</g>
<g id="clust5" class="cluster">
<title>cluster_SafeConvertModalModule_exports</title>
<polygon fill="none" stroke="black" points="86,-170.8 86,-222.8 294,-222.8 294,-170.8 86,-170.8"/>
</g>
<g id="clust4" class="cluster">
<title>cluster_SafeConvertModalModule_imports</title>
<polygon fill="none" stroke="black" points="16,-40.8 16,-92.8 152,-92.8 152,-40.8 16,-40.8"/>
</g>
<!-- SafeConvertModalComponent -->
<g id="node1" class="node">
<title>SafeConvertModalComponent</title>
<polygon fill="#ffffb3" stroke="black" points="355.86,-84.8 168.14,-84.8 168.14,-48.8 355.86,-48.8 355.86,-84.8"/>
<text text-anchor="middle" x="262" y="-62.6" font-family="Times,serif" font-size="14.00">SafeConvertModalComponent</text>
</g>
<!-- SafeConvertModalModule -->
<g id="node2" class="node">
<title>SafeConvertModalModule</title>
<polygon fill="#8dd3c7" stroke="black" points="273.08,-149.8 270.08,-153.8 249.08,-153.8 246.08,-149.8 106.92,-149.8 106.92,-113.8 273.08,-113.8 273.08,-149.8"/>
<text text-anchor="middle" x="190" y="-127.6" font-family="Times,serif" font-size="14.00">SafeConvertModalModule</text>
</g>
<!-- SafeConvertModalComponent&#45;&gt;SafeConvertModalModule -->
<g id="edge1" class="edge">
<title>SafeConvertModalComponent&#45;&gt;SafeConvertModalModule</title>
<path fill="none" stroke="black" d="M220.56,-84.91C220.56,-84.91 220.56,-103.79 220.56,-103.79"/>
<polygon fill="black" stroke="black" points="217.06,-103.79 220.56,-113.79 224.06,-103.79 217.06,-103.79"/>
</g>
<!-- SafeConvertModalComponent  -->
<g id="node4" class="node">
<title>SafeConvertModalComponent </title>
<polygon fill="#fb8072" stroke="black" points="285.86,-214.8 94.14,-214.8 94.14,-178.8 285.86,-178.8 285.86,-214.8"/>
<text text-anchor="middle" x="190" y="-192.6" font-family="Times,serif" font-size="14.00">SafeConvertModalComponent </text>
</g>
<!-- SafeConvertModalModule&#45;&gt;SafeConvertModalComponent  -->
<g id="edge3" class="edge">
<title>SafeConvertModalModule&#45;&gt;SafeConvertModalComponent </title>
<path fill="none" stroke="black" stroke-dasharray="5,2" d="M190,-149.91C190,-149.91 190,-168.79 190,-168.79"/>
<polygon fill="black" stroke="black" points="186.5,-168.79 190,-178.79 193.5,-168.79 186.5,-168.79"/>
</g>
<!-- SafeModalModule -->
<g id="node3" class="node">
<title>SafeModalModule</title>
<polygon fill="#8dd3c7" stroke="black" points="144.48,-84.8 141.48,-88.8 120.48,-88.8 117.48,-84.8 23.52,-84.8 23.52,-48.8 144.48,-48.8 144.48,-84.8"/>
<text text-anchor="middle" x="84" y="-62.6" font-family="Times,serif" font-size="14.00">SafeModalModule</text>
</g>
<!-- SafeModalModule&#45;&gt;SafeConvertModalModule -->
<g id="edge2" class="edge">
<title>SafeModalModule&#45;&gt;SafeConvertModalModule</title>
<path fill="none" stroke="black" d="M125.72,-84.91C125.72,-84.91 125.72,-103.79 125.72,-103.79"/>
<polygon fill="black" stroke="black" points="122.22,-103.79 125.72,-113.79 129.22,-103.79 122.22,-103.79"/>
</g>
</g>
</svg>
