<?xml version="1.0" encoding="UTF-8" standalone="no"?>
<!DOCTYPE svg PUBLIC "-//W3C//DTD SVG 1.1//EN"
 "http://www.w3.org/Graphics/SVG/1.1/DTD/svg11.dtd">
<!-- Generated by graphviz version 3.0.0 (20220226.1711)
 -->
<!-- Title: dependencies Pages: 1 -->
<svg width="585pt" height="247pt"
 viewBox="0.00 0.00 585.00 246.80" xmlns="http://www.w3.org/2000/svg" xmlns:xlink="http://www.w3.org/1999/xlink">
<g id="graph0" class="graph" transform="scale(1 1) rotate(0) translate(4 242.8)">
<title>dependencies</title>
<polygon fill="white" stroke="transparent" points="-4,4 -4,-242.8 581,-242.8 581,4 -4,4"/>
<text text-anchor="middle" x="288.5" y="-8.2" font-family="sans-serif" font-size="14.00">dependencies</text>
<g id="clust1" class="cluster">
<title>cluster_SafeRecordHistoryModalModule</title>
<polygon fill="none" stroke="black" stroke-dasharray="1,5" points="8,-32.8 8,-230.8 569,-230.8 569,-32.8 8,-32.8"/>
</g>
<g id="clust2" class="cluster">
<title>cluster_SafeRecordHistoryModalModule_declarations</title>
<polygon fill="none" stroke="black" points="345,-40.8 345,-92.8 561,-92.8 561,-40.8 345,-40.8"/>
</g>
<g id="clust4" class="cluster">
<title>cluster_SafeRecordHistoryModalModule_imports</title>
<polygon fill="none" stroke="black" points="16,-40.8 16,-92.8 337,-92.8 337,-40.8 16,-40.8"/>
</g>
<g id="clust5" class="cluster">
<title>cluster_SafeRecordHistoryModalModule_exports</title>
<polygon fill="none" stroke="black" points="159,-170.8 159,-222.8 379,-222.8 379,-170.8 159,-170.8"/>
</g>
<!-- RecordHistoryModalComponent -->
<g id="node1" class="node">
<title>RecordHistoryModalComponent</title>
<polygon fill="#ffffb3" stroke="black" points="553.31,-84.8 352.69,-84.8 352.69,-48.8 553.31,-48.8 553.31,-84.8"/>
<text text-anchor="middle" x="453" y="-62.6" font-family="Times,serif" font-size="14.00">RecordHistoryModalComponent</text>
</g>
<!-- SafeRecordHistoryModalModule -->
<g id="node2" class="node">
<title>SafeRecordHistoryModalModule</title>
<polygon fill="#8dd3c7" stroke="black" points="370.91,-149.8 367.91,-153.8 346.91,-153.8 343.91,-149.8 167.09,-149.8 167.09,-113.8 370.91,-113.8 370.91,-149.8"/>
<text text-anchor="middle" x="269" y="-127.6" font-family="Times,serif" font-size="14.00">SafeRecordHistoryModalModule</text>
</g>
<!-- RecordHistoryModalComponent&#45;&gt;SafeRecordHistoryModalModule -->
<g id="edge1" class="edge">
<title>RecordHistoryModalComponent&#45;&gt;SafeRecordHistoryModalModule</title>
<path fill="none" stroke="black" d="M361.77,-84.91C361.77,-84.91 361.77,-103.79 361.77,-103.79"/>
<polygon fill="black" stroke="black" points="358.27,-103.79 361.77,-113.79 365.27,-103.79 358.27,-103.79"/>
</g>
<!-- RecordHistoryModalComponent  -->
<g id="node5" class="node">
<title>RecordHistoryModalComponent </title>
<polygon fill="#fb8072" stroke="black" points="370.81,-214.8 167.19,-214.8 167.19,-178.8 370.81,-178.8 370.81,-214.8"/>
<text text-anchor="middle" x="269" y="-192.6" font-family="Times,serif" font-size="14.00">RecordHistoryModalComponent </text>
</g>
<!-- SafeRecordHistoryModalModule&#45;&gt;RecordHistoryModalComponent  -->
<g id="edge4" class="edge">
<title>SafeRecordHistoryModalModule&#45;&gt;RecordHistoryModalComponent </title>
<path fill="none" stroke="black" stroke-dasharray="5,2" d="M269,-149.91C269,-149.91 269,-168.79 269,-168.79"/>
<polygon fill="black" stroke="black" points="265.5,-168.79 269,-178.79 272.5,-168.79 265.5,-168.79"/>
</g>
<!-- SafeModalModule -->
<g id="node3" class="node">
<title>SafeModalModule</title>
<polygon fill="#8dd3c7" stroke="black" points="329.48,-84.8 326.48,-88.8 305.48,-88.8 302.48,-84.8 208.52,-84.8 208.52,-48.8 329.48,-48.8 329.48,-84.8"/>
<text text-anchor="middle" x="269" y="-62.6" font-family="Times,serif" font-size="14.00">SafeModalModule</text>
</g>
<!-- SafeModalModule&#45;&gt;SafeRecordHistoryModalModule -->
<g id="edge2" class="edge">
<title>SafeModalModule&#45;&gt;SafeRecordHistoryModalModule</title>
<path fill="none" stroke="black" d="M269,-84.91C269,-84.91 269,-103.79 269,-103.79"/>
<polygon fill="black" stroke="black" points="265.5,-103.79 269,-113.79 272.5,-103.79 265.5,-103.79"/>
</g>
<!-- SafeRecordHistoryModule -->
<g id="node4" class="node">
<title>SafeRecordHistoryModule</title>
<polygon fill="#8dd3c7" stroke="black" points="190.36,-84.8 187.36,-88.8 166.36,-88.8 163.36,-84.8 23.64,-84.8 23.64,-48.8 190.36,-48.8 190.36,-84.8"/>
<text text-anchor="middle" x="107" y="-62.6" font-family="Times,serif" font-size="14.00">SafeRecordHistoryModule</text>
</g>
<!-- SafeRecordHistoryModule&#45;&gt;SafeRecordHistoryModalModule -->
<g id="edge3" class="edge">
<title>SafeRecordHistoryModule&#45;&gt;SafeRecordHistoryModalModule</title>
<path fill="none" stroke="black" d="M178.86,-84.91C178.86,-84.91 178.86,-103.79 178.86,-103.79"/>
<polygon fill="black" stroke="black" points="175.36,-103.79 178.86,-113.79 182.36,-103.79 175.36,-103.79"/>
</g>
</g>
</svg>
