<?xml version="1.0" encoding="UTF-8" standalone="no"?>
<!DOCTYPE svg PUBLIC "-//W3C//DTD SVG 1.1//EN"
 "http://www.w3.org/Graphics/SVG/1.1/DTD/svg11.dtd">
<!-- Generated by graphviz version 3.0.0 (20220226.1711)
 -->
<!-- Title: dependencies Pages: 1 -->
<svg width="585pt" height="247pt"
 viewBox="0.00 0.00 585.00 246.80" xmlns="http://www.w3.org/2000/svg" xmlns:xlink="http://www.w3.org/1999/xlink">
<g id="graph0" class="graph" transform="scale(1 1) rotate(0) translate(4 242.8)">
<title>dependencies</title>
<polygon fill="white" stroke="transparent" points="-4,4 -4,-242.8 581,-242.8 581,4 -4,4"/>
<text text-anchor="middle" x="288.5" y="-8.2" font-family="sans-serif" font-size="14.00">dependencies</text>
<g id="clust1" class="cluster">
<title>cluster_SafeRecordHistoryModalModule</title>
<polygon fill="none" stroke="black" stroke-dasharray="1,5" points="8,-32.8 8,-230.8 569,-230.8 569,-32.8 8,-32.8"/>
</g>
<g id="clust4" class="cluster">
<title>cluster_SafeRecordHistoryModalModule_imports</title>
<polygon fill="none" stroke="black" points="240,-40.8 240,-92.8 561,-92.8 561,-40.8 240,-40.8"/>
</g>
<g id="clust2" class="cluster">
<title>cluster_SafeRecordHistoryModalModule_declarations</title>
<polygon fill="none" stroke="black" points="16,-40.8 16,-92.8 232,-92.8 232,-40.8 16,-40.8"/>
</g>
<g id="clust5" class="cluster">
<title>cluster_SafeRecordHistoryModalModule_exports</title>
<polygon fill="none" stroke="black" points="221,-170.8 221,-222.8 441,-222.8 441,-170.8 221,-170.8"/>
</g>
<!-- RecordHistoryModalComponent -->
<g id="node1" class="node">
<title>RecordHistoryModalComponent</title>
<polygon fill="#ffffb3" stroke="black" points="224.31,-84.8 23.69,-84.8 23.69,-48.8 224.31,-48.8 224.31,-84.8"/>
<text text-anchor="middle" x="124" y="-62.6" font-family="Times,serif" font-size="14.00">RecordHistoryModalComponent</text>
</g>
<!-- SafeRecordHistoryModalModule -->
<g id="node2" class="node">
<title>SafeRecordHistoryModalModule</title>
<polygon fill="#8dd3c7" stroke="black" points="432.91,-149.8 429.91,-153.8 408.91,-153.8 405.91,-149.8 229.09,-149.8 229.09,-113.8 432.91,-113.8 432.91,-149.8"/>
<text text-anchor="middle" x="331" y="-127.6" font-family="Times,serif" font-size="14.00">SafeRecordHistoryModalModule</text>
</g>
<!-- RecordHistoryModalComponent&#45;&gt;SafeRecordHistoryModalModule -->
<g id="edge1" class="edge">
<title>RecordHistoryModalComponent&#45;&gt;SafeRecordHistoryModalModule</title>
<path fill="none" stroke="black" d="M224.4,-66.8C232.96,-66.8 238.43,-66.8 238.43,-66.8 238.43,-66.8 238.43,-103.69 238.43,-103.69"/>
<polygon fill="black" stroke="black" points="234.93,-103.69 238.43,-113.69 241.93,-103.69 234.93,-103.69"/>
</g>
<!-- RecordHistoryModalComponent  -->
<g id="node5" class="node">
<title>RecordHistoryModalComponent </title>
<polygon fill="#fb8072" stroke="black" points="432.81,-214.8 229.19,-214.8 229.19,-178.8 432.81,-178.8 432.81,-214.8"/>
<text text-anchor="middle" x="331" y="-192.6" font-family="Times,serif" font-size="14.00">RecordHistoryModalComponent </text>
</g>
<!-- SafeRecordHistoryModalModule&#45;&gt;RecordHistoryModalComponent  -->
<g id="edge4" class="edge">
<title>SafeRecordHistoryModalModule&#45;&gt;RecordHistoryModalComponent </title>
<path fill="none" stroke="black" stroke-dasharray="5,2" d="M331,-149.91C331,-149.91 331,-168.79 331,-168.79"/>
<polygon fill="black" stroke="black" points="327.5,-168.79 331,-178.79 334.5,-168.79 327.5,-168.79"/>
</g>
<!-- SafeModalModule -->
<g id="node3" class="node">
<title>SafeModalModule</title>
<polygon fill="#8dd3c7" stroke="black" points="553.48,-84.8 550.48,-88.8 529.48,-88.8 526.48,-84.8 432.52,-84.8 432.52,-48.8 553.48,-48.8 553.48,-84.8"/>
<text text-anchor="middle" x="493" y="-62.6" font-family="Times,serif" font-size="14.00">SafeModalModule</text>
</g>
<!-- SafeModalModule&#45;&gt;SafeRecordHistoryModalModule -->
<g id="edge2" class="edge">
<title>SafeModalModule&#45;&gt;SafeRecordHistoryModalModule</title>
<path fill="none" stroke="black" d="M432.28,-66.8C426.92,-66.8 423.47,-66.8 423.47,-66.8 423.47,-66.8 423.47,-103.69 423.47,-103.69"/>
<polygon fill="black" stroke="black" points="419.97,-103.69 423.47,-113.69 426.97,-103.69 419.97,-103.69"/>
</g>
<!-- SafeRecordHistoryModule -->
<g id="node4" class="node">
<title>SafeRecordHistoryModule</title>
<polygon fill="#8dd3c7" stroke="black" points="414.36,-84.8 411.36,-88.8 390.36,-88.8 387.36,-84.8 247.64,-84.8 247.64,-48.8 414.36,-48.8 414.36,-84.8"/>
<text text-anchor="middle" x="331" y="-62.6" font-family="Times,serif" font-size="14.00">SafeRecordHistoryModule</text>
</g>
<!-- SafeRecordHistoryModule&#45;&gt;SafeRecordHistoryModalModule -->
<g id="edge3" class="edge">
<title>SafeRecordHistoryModule&#45;&gt;SafeRecordHistoryModalModule</title>
<path fill="none" stroke="black" d="M331,-84.91C331,-84.91 331,-103.79 331,-103.79"/>
<polygon fill="black" stroke="black" points="327.5,-103.79 331,-113.79 334.5,-103.79 327.5,-103.79"/>
</g>
</g>
</svg>
