<?xml version="1.0" encoding="UTF-8" standalone="no"?>
<!DOCTYPE svg PUBLIC "-//W3C//DTD SVG 1.1//EN"
 "http://www.w3.org/Graphics/SVG/1.1/DTD/svg11.dtd">
<!-- Generated by graphviz version 3.0.0 (20220226.1711)
 -->
<!-- Title: dependencies Pages: 1 -->
<svg width="528pt" height="247pt"
 viewBox="0.00 0.00 528.00 246.80" xmlns="http://www.w3.org/2000/svg" xmlns:xlink="http://www.w3.org/1999/xlink">
<g id="graph0" class="graph" transform="scale(1 1) rotate(0) translate(4 242.8)">
<title>dependencies</title>
<polygon fill="white" stroke="transparent" points="-4,4 -4,-242.8 524,-242.8 524,4 -4,4"/>
<text text-anchor="middle" x="260" y="-8.2" font-family="sans-serif" font-size="14.00">dependencies</text>
<g id="clust1" class="cluster">
<title>cluster_FormAnswerModule</title>
<polygon fill="none" stroke="black" stroke-dasharray="1,5" points="8,-32.8 8,-230.8 512,-230.8 512,-32.8 8,-32.8"/>
</g>
<g id="clust5" class="cluster">
<title>cluster_FormAnswerModule_exports</title>
<polygon fill="none" stroke="black" points="165,-170.8 165,-222.8 339,-222.8 339,-170.8 165,-170.8"/>
</g>
<g id="clust4" class="cluster">
<title>cluster_FormAnswerModule_imports</title>
<polygon fill="none" stroke="black" points="196,-40.8 196,-92.8 504,-92.8 504,-40.8 196,-40.8"/>
</g>
<g id="clust2" class="cluster">
<title>cluster_FormAnswerModule_declarations</title>
<polygon fill="none" stroke="black" points="16,-40.8 16,-92.8 188,-92.8 188,-40.8 16,-40.8"/>
</g>
<!-- FormAnswerComponent -->
<g id="node1" class="node">
<title>FormAnswerComponent</title>
<polygon fill="#ffffb3" stroke="black" points="179.71,-84.8 24.29,-84.8 24.29,-48.8 179.71,-48.8 179.71,-84.8"/>
<text text-anchor="middle" x="102" y="-62.6" font-family="Times,serif" font-size="14.00">FormAnswerComponent</text>
</g>
<!-- FormAnswerModule -->
<g id="node2" class="node">
<title>FormAnswerModule</title>
<polygon fill="#8dd3c7" stroke="black" points="318.94,-149.8 315.94,-153.8 294.94,-153.8 291.94,-149.8 185.06,-149.8 185.06,-113.8 318.94,-113.8 318.94,-149.8"/>
<text text-anchor="middle" x="252" y="-127.6" font-family="Times,serif" font-size="14.00">FormAnswerModule</text>
</g>
<!-- FormAnswerComponent&#45;&gt;FormAnswerModule -->
<g id="edge1" class="edge">
<title>FormAnswerComponent&#45;&gt;FormAnswerModule</title>
<path fill="none" stroke="black" d="M179.9,-66.8C188.82,-66.8 194.81,-66.8 194.81,-66.8 194.81,-66.8 194.81,-103.69 194.81,-103.69"/>
<polygon fill="black" stroke="black" points="191.31,-103.69 194.81,-113.69 198.31,-103.69 191.31,-103.69"/>
</g>
<!-- FormAnswerComponent  -->
<g id="node5" class="node">
<title>FormAnswerComponent </title>
<polygon fill="#fb8072" stroke="black" points="331.21,-214.8 172.79,-214.8 172.79,-178.8 331.21,-178.8 331.21,-214.8"/>
<text text-anchor="middle" x="252" y="-192.6" font-family="Times,serif" font-size="14.00">FormAnswerComponent </text>
</g>
<!-- FormAnswerModule&#45;&gt;FormAnswerComponent  -->
<g id="edge4" class="edge">
<title>FormAnswerModule&#45;&gt;FormAnswerComponent </title>
<path fill="none" stroke="black" stroke-dasharray="5,2" d="M252,-149.91C252,-149.91 252,-168.79 252,-168.79"/>
<polygon fill="black" stroke="black" points="248.5,-168.79 252,-178.79 255.5,-168.79 248.5,-168.79"/>
</g>
<!-- FormAnswerRoutingModule -->
<g id="node3" class="node">
<title>FormAnswerRoutingModule</title>
<polygon fill="#8dd3c7" stroke="black" points="496.05,-84.8 493.05,-88.8 472.05,-88.8 469.05,-84.8 317.95,-84.8 317.95,-48.8 496.05,-48.8 496.05,-84.8"/>
<text text-anchor="middle" x="407" y="-62.6" font-family="Times,serif" font-size="14.00">FormAnswerRoutingModule</text>
</g>
<!-- FormAnswerRoutingModule&#45;&gt;FormAnswerModule -->
<g id="edge2" class="edge">
<title>FormAnswerRoutingModule&#45;&gt;FormAnswerModule</title>
<path fill="none" stroke="black" d="M325.04,-84.91C325.04,-104.14 325.04,-131.8 325.04,-131.8 325.04,-131.8 324.41,-131.8 324.41,-131.8"/>
<polygon fill="black" stroke="black" points="328.81,-128.3 318.81,-131.8 328.81,-135.3 328.81,-128.3"/>
</g>
<!-- FormsModule -->
<g id="node4" class="node">
<title>FormsModule</title>
<polygon fill="#8dd3c7" stroke="black" points="299.84,-84.8 296.84,-88.8 275.84,-88.8 272.84,-84.8 204.16,-84.8 204.16,-48.8 299.84,-48.8 299.84,-84.8"/>
<text text-anchor="middle" x="252" y="-62.6" font-family="Times,serif" font-size="14.00">FormsModule</text>
</g>
<!-- FormsModule&#45;&gt;FormAnswerModule -->
<g id="edge3" class="edge">
<title>FormsModule&#45;&gt;FormAnswerModule</title>
<path fill="none" stroke="black" d="M252,-84.91C252,-84.91 252,-103.79 252,-103.79"/>
<polygon fill="black" stroke="black" points="248.5,-103.79 252,-113.79 255.5,-103.79 248.5,-103.79"/>
</g>
</g>
</svg>
