<?xml version="1.0" encoding="UTF-8" standalone="no"?>
<!DOCTYPE svg PUBLIC "-//W3C//DTD SVG 1.1//EN"
 "http://www.w3.org/Graphics/SVG/1.1/DTD/svg11.dtd">
<!-- Generated by graphviz version 3.0.0 (20220226.1711)
 -->
<!-- Title: dependencies Pages: 1 -->
<svg width="570pt" height="247pt"
 viewBox="0.00 0.00 570.00 246.80" xmlns="http://www.w3.org/2000/svg" xmlns:xlink="http://www.w3.org/1999/xlink">
<g id="graph0" class="graph" transform="scale(1 1) rotate(0) translate(4 242.8)">
<title>dependencies</title>
<polygon fill="white" stroke="transparent" points="-4,4 -4,-242.8 566,-242.8 566,4 -4,4"/>
<text text-anchor="middle" x="281" y="-8.2" font-family="sans-serif" font-size="14.00">dependencies</text>
<g id="clust1" class="cluster">
<title>cluster_FormRecordsModule</title>
<polygon fill="none" stroke="black" stroke-dasharray="1,5" points="8,-32.8 8,-230.8 554,-230.8 554,-32.8 8,-32.8"/>
</g>
<g id="clust5" class="cluster">
<title>cluster_FormRecordsModule_exports</title>
<polygon fill="none" stroke="black" points="184,-170.8 184,-222.8 362,-222.8 362,-170.8 184,-170.8"/>
</g>
<g id="clust4" class="cluster">
<title>cluster_FormRecordsModule_imports</title>
<polygon fill="none" stroke="black" points="198,-40.8 198,-92.8 546,-92.8 546,-40.8 198,-40.8"/>
</g>
<g id="clust2" class="cluster">
<title>cluster_FormRecordsModule_declarations</title>
<polygon fill="none" stroke="black" points="16,-40.8 16,-92.8 190,-92.8 190,-40.8 16,-40.8"/>
</g>
<!-- FormRecordsComponent -->
<g id="node1" class="node">
<title>FormRecordsComponent</title>
<polygon fill="#ffffb3" stroke="black" points="181.55,-84.8 24.45,-84.8 24.45,-48.8 181.55,-48.8 181.55,-84.8"/>
<text text-anchor="middle" x="103" y="-62.6" font-family="Times,serif" font-size="14.00">FormRecordsComponent</text>
</g>
<!-- FormRecordsModule -->
<g id="node2" class="node">
<title>FormRecordsModule</title>
<polygon fill="#8dd3c7" stroke="black" points="340.77,-149.8 337.77,-153.8 316.77,-153.8 313.77,-149.8 205.23,-149.8 205.23,-113.8 340.77,-113.8 340.77,-149.8"/>
<text text-anchor="middle" x="273" y="-127.6" font-family="Times,serif" font-size="14.00">FormRecordsModule</text>
</g>
<!-- FormRecordsComponent&#45;&gt;FormRecordsModule -->
<g id="edge1" class="edge">
<title>FormRecordsComponent&#45;&gt;FormRecordsModule</title>
<path fill="none" stroke="black" d="M103,-84.91C103,-104.14 103,-131.8 103,-131.8 103,-131.8 194.83,-131.8 194.83,-131.8"/>
<polygon fill="black" stroke="black" points="194.83,-135.3 204.83,-131.8 194.83,-128.3 194.83,-135.3"/>
</g>
<!-- FormRecordsComponent  -->
<g id="node5" class="node">
<title>FormRecordsComponent </title>
<polygon fill="#fb8072" stroke="black" points="353.54,-214.8 192.46,-214.8 192.46,-178.8 353.54,-178.8 353.54,-214.8"/>
<text text-anchor="middle" x="273" y="-192.6" font-family="Times,serif" font-size="14.00">FormRecordsComponent </text>
</g>
<!-- FormRecordsModule&#45;&gt;FormRecordsComponent  -->
<g id="edge4" class="edge">
<title>FormRecordsModule&#45;&gt;FormRecordsComponent </title>
<path fill="none" stroke="black" stroke-dasharray="5,2" d="M273,-149.91C273,-149.91 273,-168.79 273,-168.79"/>
<polygon fill="black" stroke="black" points="269.5,-168.79 273,-178.79 276.5,-168.79 269.5,-168.79"/>
</g>
<!-- FormRecordsRoutingModule -->
<g id="node3" class="node">
<title>FormRecordsRoutingModule</title>
<polygon fill="#8dd3c7" stroke="black" points="538.38,-84.8 535.38,-88.8 514.38,-88.8 511.38,-84.8 357.62,-84.8 357.62,-48.8 538.38,-48.8 538.38,-84.8"/>
<text text-anchor="middle" x="448" y="-62.6" font-family="Times,serif" font-size="14.00">FormRecordsRoutingModule</text>
</g>
<!-- FormRecordsRoutingModule&#45;&gt;FormRecordsModule -->
<g id="edge2" class="edge">
<title>FormRecordsRoutingModule&#45;&gt;FormRecordsModule</title>
<path fill="none" stroke="black" d="M448,-84.91C448,-104.14 448,-131.8 448,-131.8 448,-131.8 350.91,-131.8 350.91,-131.8"/>
<polygon fill="black" stroke="black" points="350.91,-128.3 340.91,-131.8 350.91,-135.3 350.91,-128.3"/>
</g>
<!-- UploadMenuModule -->
<g id="node4" class="node">
<title>UploadMenuModule</title>
<polygon fill="#8dd3c7" stroke="black" points="339.93,-84.8 336.93,-88.8 315.93,-88.8 312.93,-84.8 206.07,-84.8 206.07,-48.8 339.93,-48.8 339.93,-84.8"/>
<text text-anchor="middle" x="273" y="-62.6" font-family="Times,serif" font-size="14.00">UploadMenuModule</text>
</g>
<!-- UploadMenuModule&#45;&gt;FormRecordsModule -->
<g id="edge3" class="edge">
<title>UploadMenuModule&#45;&gt;FormRecordsModule</title>
<path fill="none" stroke="black" d="M273,-84.91C273,-84.91 273,-103.79 273,-103.79"/>
<polygon fill="black" stroke="black" points="269.5,-103.79 273,-113.79 276.5,-103.79 269.5,-103.79"/>
</g>
</g>
</svg>
