<?xml version="1.0" encoding="UTF-8" standalone="no"?>
<!DOCTYPE svg PUBLIC "-//W3C//DTD SVG 1.1//EN"
 "http://www.w3.org/Graphics/SVG/1.1/DTD/svg11.dtd">
<!-- Generated by graphviz version 3.0.0 (20220226.1711)
 -->
<!-- Title: dependencies Pages: 1 -->
<svg width="344pt" height="247pt"
 viewBox="0.00 0.00 344.00 246.80" xmlns="http://www.w3.org/2000/svg" xmlns:xlink="http://www.w3.org/1999/xlink">
<g id="graph0" class="graph" transform="scale(1 1) rotate(0) translate(4 242.8)">
<title>dependencies</title>
<polygon fill="white" stroke="transparent" points="-4,4 -4,-242.8 340,-242.8 340,4 -4,4"/>
<text text-anchor="middle" x="168" y="-8.2" font-family="sans-serif" font-size="14.00">dependencies</text>
<g id="clust1" class="cluster">
<title>cluster_SafeExportModule</title>
<polygon fill="none" stroke="black" stroke-dasharray="1,5" points="8,-32.8 8,-230.8 328,-230.8 328,-32.8 8,-32.8"/>
</g>
<g id="clust2" class="cluster">
<title>cluster_SafeExportModule_declarations</title>
<polygon fill="none" stroke="black" points="160,-40.8 160,-92.8 320,-92.8 320,-40.8 160,-40.8"/>
</g>
<g id="clust5" class="cluster">
<title>cluster_SafeExportModule_exports</title>
<polygon fill="none" stroke="black" points="86,-170.8 86,-222.8 250,-222.8 250,-170.8 86,-170.8"/>
</g>
<g id="clust4" class="cluster">
<title>cluster_SafeExportModule_imports</title>
<polygon fill="none" stroke="black" points="16,-40.8 16,-92.8 152,-92.8 152,-40.8 16,-40.8"/>
</g>
<!-- SafeExportComponent -->
<g id="node1" class="node">
<title>SafeExportComponent</title>
<polygon fill="#ffffb3" stroke="black" points="312.31,-84.8 167.69,-84.8 167.69,-48.8 312.31,-48.8 312.31,-84.8"/>
<text text-anchor="middle" x="240" y="-62.6" font-family="Times,serif" font-size="14.00">SafeExportComponent</text>
</g>
<!-- SafeExportModule -->
<g id="node2" class="node">
<title>SafeExportModule</title>
<polygon fill="#8dd3c7" stroke="black" points="229.03,-149.8 226.03,-153.8 205.03,-153.8 202.03,-149.8 106.97,-149.8 106.97,-113.8 229.03,-113.8 229.03,-149.8"/>
<text text-anchor="middle" x="168" y="-127.6" font-family="Times,serif" font-size="14.00">SafeExportModule</text>
</g>
<!-- SafeExportComponent&#45;&gt;SafeExportModule -->
<g id="edge1" class="edge">
<title>SafeExportComponent&#45;&gt;SafeExportModule</title>
<path fill="none" stroke="black" d="M198.56,-84.91C198.56,-84.91 198.56,-103.79 198.56,-103.79"/>
<polygon fill="black" stroke="black" points="195.06,-103.79 198.56,-113.79 202.06,-103.79 195.06,-103.79"/>
</g>
<!-- SafeExportComponent  -->
<g id="node4" class="node">
<title>SafeExportComponent </title>
<polygon fill="#fb8072" stroke="black" points="241.81,-214.8 94.19,-214.8 94.19,-178.8 241.81,-178.8 241.81,-214.8"/>
<text text-anchor="middle" x="168" y="-192.6" font-family="Times,serif" font-size="14.00">SafeExportComponent </text>
</g>
<!-- SafeExportModule&#45;&gt;SafeExportComponent  -->
<g id="edge3" class="edge">
<title>SafeExportModule&#45;&gt;SafeExportComponent </title>
<path fill="none" stroke="black" stroke-dasharray="5,2" d="M168,-149.91C168,-149.91 168,-168.79 168,-168.79"/>
<polygon fill="black" stroke="black" points="164.5,-168.79 168,-178.79 171.5,-168.79 164.5,-168.79"/>
</g>
<!-- SafeModalModule -->
<g id="node3" class="node">
<title>SafeModalModule</title>
<polygon fill="#8dd3c7" stroke="black" points="144.48,-84.8 141.48,-88.8 120.48,-88.8 117.48,-84.8 23.52,-84.8 23.52,-48.8 144.48,-48.8 144.48,-84.8"/>
<text text-anchor="middle" x="84" y="-62.6" font-family="Times,serif" font-size="14.00">SafeModalModule</text>
</g>
<!-- SafeModalModule&#45;&gt;SafeExportModule -->
<g id="edge2" class="edge">
<title>SafeModalModule&#45;&gt;SafeExportModule</title>
<path fill="none" stroke="black" d="M125.61,-84.91C125.61,-84.91 125.61,-103.79 125.61,-103.79"/>
<polygon fill="black" stroke="black" points="122.11,-103.79 125.61,-113.79 129.11,-103.79 122.11,-103.79"/>
</g>
</g>
</svg>
