<?xml version="1.0" encoding="UTF-8" standalone="no"?>
<!DOCTYPE svg PUBLIC "-//W3C//DTD SVG 1.1//EN"
 "http://www.w3.org/Graphics/SVG/1.1/DTD/svg11.dtd">
<!-- Generated by graphviz version 3.0.0 (20220226.1711)
 -->
<!-- Title: dependencies Pages: 1 -->
<svg width="470pt" height="247pt"
 viewBox="0.00 0.00 470.00 246.80" xmlns="http://www.w3.org/2000/svg" xmlns:xlink="http://www.w3.org/1999/xlink">
<g id="graph0" class="graph" transform="scale(1 1) rotate(0) translate(4 242.8)">
<title>dependencies</title>
<polygon fill="white" stroke="transparent" points="-4,4 -4,-242.8 466,-242.8 466,4 -4,4"/>
<text text-anchor="middle" x="231" y="-8.2" font-family="sans-serif" font-size="14.00">dependencies</text>
<g id="clust1" class="cluster">
<title>cluster_SafeResourceDropdownModule</title>
<polygon fill="none" stroke="black" stroke-dasharray="1,5" points="8,-32.8 8,-230.8 454,-230.8 454,-32.8 8,-32.8"/>
</g>
<g id="clust4" class="cluster">
<title>cluster_SafeResourceDropdownModule_imports</title>
<polygon fill="none" stroke="black" points="258,-40.8 258,-92.8 446,-92.8 446,-40.8 258,-40.8"/>
</g>
<g id="clust2" class="cluster">
<title>cluster_SafeResourceDropdownModule_declarations</title>
<polygon fill="none" stroke="black" points="16,-40.8 16,-92.8 250,-92.8 250,-40.8 16,-40.8"/>
</g>
<g id="clust5" class="cluster">
<title>cluster_SafeResourceDropdownModule_exports</title>
<polygon fill="none" stroke="black" points="112,-170.8 112,-222.8 350,-222.8 350,-170.8 112,-170.8"/>
</g>
<!-- SafeResourceDropdownComponent -->
<g id="node1" class="node">
<title>SafeResourceDropdownComponent</title>
<polygon fill="#ffffb3" stroke="black" points="242.18,-84.8 23.82,-84.8 23.82,-48.8 242.18,-48.8 242.18,-84.8"/>
<text text-anchor="middle" x="133" y="-62.6" font-family="Times,serif" font-size="14.00">SafeResourceDropdownComponent</text>
</g>
<!-- SafeResourceDropdownModule -->
<g id="node2" class="node">
<title>SafeResourceDropdownModule</title>
<polygon fill="#8dd3c7" stroke="black" points="329.4,-149.8 326.4,-153.8 305.4,-153.8 302.4,-149.8 132.6,-149.8 132.6,-113.8 329.4,-113.8 329.4,-149.8"/>
<text text-anchor="middle" x="231" y="-127.6" font-family="Times,serif" font-size="14.00">SafeResourceDropdownModule</text>
</g>
<!-- SafeResourceDropdownComponent&#45;&gt;SafeResourceDropdownModule -->
<g id="edge1" class="edge">
<title>SafeResourceDropdownComponent&#45;&gt;SafeResourceDropdownModule</title>
<path fill="none" stroke="black" d="M187.44,-84.91C187.44,-84.91 187.44,-103.79 187.44,-103.79"/>
<polygon fill="black" stroke="black" points="183.94,-103.79 187.44,-113.79 190.94,-103.79 183.94,-103.79"/>
</g>
<!-- SafeResourceDropdownComponent  -->
<g id="node4" class="node">
<title>SafeResourceDropdownComponent </title>
<polygon fill="#fb8072" stroke="black" points="341.68,-214.8 120.32,-214.8 120.32,-178.8 341.68,-178.8 341.68,-214.8"/>
<text text-anchor="middle" x="231" y="-192.6" font-family="Times,serif" font-size="14.00">SafeResourceDropdownComponent </text>
</g>
<!-- SafeResourceDropdownModule&#45;&gt;SafeResourceDropdownComponent  -->
<g id="edge3" class="edge">
<title>SafeResourceDropdownModule&#45;&gt;SafeResourceDropdownComponent </title>
<path fill="none" stroke="black" stroke-dasharray="5,2" d="M231,-149.91C231,-149.91 231,-168.79 231,-168.79"/>
<polygon fill="black" stroke="black" points="227.5,-168.79 231,-178.79 234.5,-168.79 227.5,-168.79"/>
</g>
<!-- SafeGraphQLSelectModule -->
<g id="node3" class="node">
<title>SafeGraphQLSelectModule</title>
<polygon fill="#8dd3c7" stroke="black" points="438.28,-84.8 435.28,-88.8 414.28,-88.8 411.28,-84.8 265.72,-84.8 265.72,-48.8 438.28,-48.8 438.28,-84.8"/>
<text text-anchor="middle" x="352" y="-62.6" font-family="Times,serif" font-size="14.00">SafeGraphQLSelectModule</text>
</g>
<!-- SafeGraphQLSelectModule&#45;&gt;SafeResourceDropdownModule -->
<g id="edge2" class="edge">
<title>SafeGraphQLSelectModule&#45;&gt;SafeResourceDropdownModule</title>
<path fill="none" stroke="black" d="M297.53,-84.91C297.53,-84.91 297.53,-103.79 297.53,-103.79"/>
<polygon fill="black" stroke="black" points="294.03,-103.79 297.53,-113.79 301.03,-103.79 294.03,-103.79"/>
</g>
</g>
</svg>
