<?xml version="1.0" encoding="UTF-8" standalone="no"?>
<!DOCTYPE svg PUBLIC "-//W3C//DTD SVG 1.1//EN"
 "http://www.w3.org/Graphics/SVG/1.1/DTD/svg11.dtd">
<!-- Generated by graphviz version 3.0.0 (20220226.1711)
 -->
<!-- Title: dependencies Pages: 1 -->
<svg width="586pt" height="247pt"
 viewBox="0.00 0.00 586.00 246.80" xmlns="http://www.w3.org/2000/svg" xmlns:xlink="http://www.w3.org/1999/xlink">
<g id="graph0" class="graph" transform="scale(1 1) rotate(0) translate(4 242.8)">
<title>dependencies</title>
<polygon fill="white" stroke="transparent" points="-4,4 -4,-242.8 582,-242.8 582,4 -4,4"/>
<text text-anchor="middle" x="289" y="-8.2" font-family="sans-serif" font-size="14.00">dependencies</text>
<g id="clust1" class="cluster">
<title>cluster_ApplicationModule</title>
<polygon fill="none" stroke="black" stroke-dasharray="1,5" points="8,-32.8 8,-230.8 570,-230.8 570,-32.8 8,-32.8"/>
</g>
<g id="clust4" class="cluster">
<title>cluster_ApplicationModule_imports</title>
<polygon fill="none" stroke="black" points="188,-40.8 188,-92.8 562,-92.8 562,-40.8 188,-40.8"/>
</g>
<g id="clust5" class="cluster">
<title>cluster_ApplicationModule_exports</title>
<polygon fill="none" stroke="black" points="198,-170.8 198,-222.8 364,-222.8 364,-170.8 198,-170.8"/>
</g>
<g id="clust2" class="cluster">
<title>cluster_ApplicationModule_declarations</title>
<polygon fill="none" stroke="black" points="16,-40.8 16,-92.8 180,-92.8 180,-40.8 16,-40.8"/>
</g>
<!-- ApplicationComponent -->
<g id="node1" class="node">
<title>ApplicationComponent</title>
<polygon fill="#ffffb3" stroke="black" points="171.93,-84.8 24.07,-84.8 24.07,-48.8 171.93,-48.8 171.93,-84.8"/>
<text text-anchor="middle" x="98" y="-62.6" font-family="Times,serif" font-size="14.00">ApplicationComponent</text>
</g>
<!-- ApplicationModule -->
<g id="node2" class="node">
<title>ApplicationModule</title>
<polygon fill="#8dd3c7" stroke="black" points="343.65,-149.8 340.65,-153.8 319.65,-153.8 316.65,-149.8 218.35,-149.8 218.35,-113.8 343.65,-113.8 343.65,-149.8"/>
<text text-anchor="middle" x="281" y="-127.6" font-family="Times,serif" font-size="14.00">ApplicationModule</text>
</g>
<!-- ApplicationComponent&#45;&gt;ApplicationModule -->
<g id="edge1" class="edge">
<title>ApplicationComponent&#45;&gt;ApplicationModule</title>
<path fill="none" stroke="black" d="M98,-84.91C98,-104.14 98,-131.8 98,-131.8 98,-131.8 208.28,-131.8 208.28,-131.8"/>
<polygon fill="black" stroke="black" points="208.28,-135.3 218.28,-131.8 208.28,-128.3 208.28,-135.3"/>
</g>
<!-- ApplicationComponent  -->
<g id="node5" class="node">
<title>ApplicationComponent </title>
<polygon fill="#fb8072" stroke="black" points="356.43,-214.8 205.57,-214.8 205.57,-178.8 356.43,-178.8 356.43,-214.8"/>
<text text-anchor="middle" x="281" y="-192.6" font-family="Times,serif" font-size="14.00">ApplicationComponent </text>
</g>
<!-- ApplicationModule&#45;&gt;ApplicationComponent  -->
<g id="edge4" class="edge">
<title>ApplicationModule&#45;&gt;ApplicationComponent </title>
<path fill="none" stroke="black" stroke-dasharray="5,2" d="M281,-149.91C281,-149.91 281,-168.79 281,-168.79"/>
<polygon fill="black" stroke="black" points="277.5,-168.79 281,-178.79 284.5,-168.79 277.5,-168.79"/>
</g>
<!-- ApplicationRoutingModule -->
<g id="node3" class="node">
<title>ApplicationRoutingModule</title>
<polygon fill="#8dd3c7" stroke="black" points="554.27,-84.8 551.27,-88.8 530.27,-88.8 527.27,-84.8 383.73,-84.8 383.73,-48.8 554.27,-48.8 554.27,-84.8"/>
<text text-anchor="middle" x="469" y="-62.6" font-family="Times,serif" font-size="14.00">ApplicationRoutingModule</text>
</g>
<!-- ApplicationRoutingModule&#45;&gt;ApplicationModule -->
<g id="edge2" class="edge">
<title>ApplicationRoutingModule&#45;&gt;ApplicationModule</title>
<path fill="none" stroke="black" d="M469,-84.91C469,-104.14 469,-131.8 469,-131.8 469,-131.8 353.86,-131.8 353.86,-131.8"/>
<polygon fill="black" stroke="black" points="353.86,-128.3 343.86,-131.8 353.86,-135.3 353.86,-128.3"/>
</g>
<!-- ApplicationToolbarModule -->
<g id="node4" class="node">
<title>ApplicationToolbarModule</title>
<polygon fill="#8dd3c7" stroke="black" points="365.97,-84.8 362.97,-88.8 341.97,-88.8 338.97,-84.8 196.03,-84.8 196.03,-48.8 365.97,-48.8 365.97,-84.8"/>
<text text-anchor="middle" x="281" y="-62.6" font-family="Times,serif" font-size="14.00">ApplicationToolbarModule</text>
</g>
<!-- ApplicationToolbarModule&#45;&gt;ApplicationModule -->
<g id="edge3" class="edge">
<title>ApplicationToolbarModule&#45;&gt;ApplicationModule</title>
<path fill="none" stroke="black" d="M281,-84.91C281,-84.91 281,-103.79 281,-103.79"/>
<polygon fill="black" stroke="black" points="277.5,-103.79 281,-113.79 284.5,-103.79 277.5,-103.79"/>
</g>
</g>
</svg>
