<?xml version="1.0" encoding="UTF-8" standalone="no"?>
<!DOCTYPE svg PUBLIC "-//W3C//DTD SVG 1.1//EN"
 "http://www.w3.org/Graphics/SVG/1.1/DTD/svg11.dtd">
<!-- Generated by graphviz version 3.0.0 (20220226.1711)
 -->
<!-- Title: dependencies Pages: 1 -->
<svg width="586pt" height="247pt"
 viewBox="0.00 0.00 586.00 246.80" xmlns="http://www.w3.org/2000/svg" xmlns:xlink="http://www.w3.org/1999/xlink">
<g id="graph0" class="graph" transform="scale(1 1) rotate(0) translate(4 242.8)">
<title>dependencies</title>
<polygon fill="white" stroke="transparent" points="-4,4 -4,-242.8 582,-242.8 582,4 -4,4"/>
<text text-anchor="middle" x="289" y="-8.2" font-family="sans-serif" font-size="14.00">dependencies</text>
<g id="clust1" class="cluster">
<title>cluster_ApplicationModule</title>
<polygon fill="none" stroke="black" stroke-dasharray="1,5" points="8,-32.8 8,-230.8 570,-230.8 570,-32.8 8,-32.8"/>
</g>
<g id="clust5" class="cluster">
<title>cluster_ApplicationModule_exports</title>
<polygon fill="none" stroke="black" points="214,-170.8 214,-222.8 380,-222.8 380,-170.8 214,-170.8"/>
</g>
<g id="clust2" class="cluster">
<title>cluster_ApplicationModule_declarations</title>
<polygon fill="none" stroke="black" points="398,-40.8 398,-92.8 562,-92.8 562,-40.8 398,-40.8"/>
</g>
<g id="clust4" class="cluster">
<title>cluster_ApplicationModule_imports</title>
<polygon fill="none" stroke="black" points="16,-40.8 16,-92.8 390,-92.8 390,-40.8 16,-40.8"/>
</g>
<!-- ApplicationComponent -->
<g id="node1" class="node">
<title>ApplicationComponent</title>
<polygon fill="#ffffb3" stroke="black" points="553.93,-84.8 406.07,-84.8 406.07,-48.8 553.93,-48.8 553.93,-84.8"/>
<text text-anchor="middle" x="480" y="-62.6" font-family="Times,serif" font-size="14.00">ApplicationComponent</text>
</g>
<!-- ApplicationModule -->
<g id="node2" class="node">
<title>ApplicationModule</title>
<polygon fill="#8dd3c7" stroke="black" points="359.65,-149.8 356.65,-153.8 335.65,-153.8 332.65,-149.8 234.35,-149.8 234.35,-113.8 359.65,-113.8 359.65,-149.8"/>
<text text-anchor="middle" x="297" y="-127.6" font-family="Times,serif" font-size="14.00">ApplicationModule</text>
</g>
<!-- ApplicationComponent&#45;&gt;ApplicationModule -->
<g id="edge1" class="edge">
<title>ApplicationComponent&#45;&gt;ApplicationModule</title>
<path fill="none" stroke="black" d="M480,-84.91C480,-104.14 480,-131.8 480,-131.8 480,-131.8 369.72,-131.8 369.72,-131.8"/>
<polygon fill="black" stroke="black" points="369.72,-128.3 359.72,-131.8 369.72,-135.3 369.72,-128.3"/>
</g>
<!-- ApplicationComponent  -->
<g id="node5" class="node">
<title>ApplicationComponent </title>
<polygon fill="#fb8072" stroke="black" points="372.43,-214.8 221.57,-214.8 221.57,-178.8 372.43,-178.8 372.43,-214.8"/>
<text text-anchor="middle" x="297" y="-192.6" font-family="Times,serif" font-size="14.00">ApplicationComponent </text>
</g>
<!-- ApplicationModule&#45;&gt;ApplicationComponent  -->
<g id="edge4" class="edge">
<title>ApplicationModule&#45;&gt;ApplicationComponent </title>
<path fill="none" stroke="black" stroke-dasharray="5,2" d="M297,-149.91C297,-149.91 297,-168.79 297,-168.79"/>
<polygon fill="black" stroke="black" points="293.5,-168.79 297,-178.79 300.5,-168.79 293.5,-168.79"/>
</g>
<!-- ApplicationRoutingModule -->
<g id="node3" class="node">
<title>ApplicationRoutingModule</title>
<polygon fill="#8dd3c7" stroke="black" points="382.27,-84.8 379.27,-88.8 358.27,-88.8 355.27,-84.8 211.73,-84.8 211.73,-48.8 382.27,-48.8 382.27,-84.8"/>
<text text-anchor="middle" x="297" y="-62.6" font-family="Times,serif" font-size="14.00">ApplicationRoutingModule</text>
</g>
<!-- ApplicationRoutingModule&#45;&gt;ApplicationModule -->
<g id="edge2" class="edge">
<title>ApplicationRoutingModule&#45;&gt;ApplicationModule</title>
<path fill="none" stroke="black" d="M297,-84.91C297,-84.91 297,-103.79 297,-103.79"/>
<polygon fill="black" stroke="black" points="293.5,-103.79 297,-113.79 300.5,-103.79 293.5,-103.79"/>
</g>
<!-- ApplicationToolbarModule -->
<g id="node4" class="node">
<title>ApplicationToolbarModule</title>
<polygon fill="#8dd3c7" stroke="black" points="193.97,-84.8 190.97,-88.8 169.97,-88.8 166.97,-84.8 24.03,-84.8 24.03,-48.8 193.97,-48.8 193.97,-84.8"/>
<text text-anchor="middle" x="109" y="-62.6" font-family="Times,serif" font-size="14.00">ApplicationToolbarModule</text>
</g>
<!-- ApplicationToolbarModule&#45;&gt;ApplicationModule -->
<g id="edge3" class="edge">
<title>ApplicationToolbarModule&#45;&gt;ApplicationModule</title>
<path fill="none" stroke="black" d="M109,-84.91C109,-104.14 109,-131.8 109,-131.8 109,-131.8 224.14,-131.8 224.14,-131.8"/>
<polygon fill="black" stroke="black" points="224.14,-135.3 234.14,-131.8 224.14,-128.3 224.14,-135.3"/>
</g>
</g>
</svg>
