<?xml version="1.0" encoding="UTF-8" standalone="no"?>
<!DOCTYPE svg PUBLIC "-//W3C//DTD SVG 1.1//EN"
 "http://www.w3.org/Graphics/SVG/1.1/DTD/svg11.dtd">
<!-- Generated by graphviz version 3.0.0 (20220226.1711)
 -->
<!-- Title: dependencies Pages: 1 -->
<svg width="374pt" height="247pt"
 viewBox="0.00 0.00 374.00 246.80" xmlns="http://www.w3.org/2000/svg" xmlns:xlink="http://www.w3.org/1999/xlink">
<g id="graph0" class="graph" transform="scale(1 1) rotate(0) translate(4 242.8)">
<title>dependencies</title>
<polygon fill="white" stroke="transparent" points="-4,4 -4,-242.8 370,-242.8 370,4 -4,4"/>
<text text-anchor="middle" x="183" y="-8.2" font-family="sans-serif" font-size="14.00">dependencies</text>
<g id="clust1" class="cluster">
<title>cluster_SafeMapModule</title>
<polygon fill="none" stroke="black" stroke-dasharray="1,5" points="8,-32.8 8,-230.8 358,-230.8 358,-32.8 8,-32.8"/>
</g>
<g id="clust2" class="cluster">
<title>cluster_SafeMapModule_declarations</title>
<polygon fill="none" stroke="black" points="16,-40.8 16,-92.8 350,-92.8 350,-40.8 16,-40.8"/>
</g>
<g id="clust6" class="cluster">
<title>cluster_SafeMapModule_exports</title>
<polygon fill="none" stroke="black" points="115,-170.8 115,-222.8 267,-222.8 267,-170.8 115,-170.8"/>
</g>
<!-- SafeMapComponent -->
<g id="node1" class="node">
<title>SafeMapComponent</title>
<polygon fill="#ffffb3" stroke="black" points="341.87,-84.8 210.13,-84.8 210.13,-48.8 341.87,-48.8 341.87,-84.8"/>
<text text-anchor="middle" x="276" y="-62.6" font-family="Times,serif" font-size="14.00">SafeMapComponent</text>
</g>
<!-- SafeMapModule -->
<g id="node3" class="node">
<title>SafeMapModule</title>
<polygon fill="#8dd3c7" stroke="black" points="246.09,-149.8 243.09,-153.8 222.09,-153.8 219.09,-149.8 135.91,-149.8 135.91,-113.8 246.09,-113.8 246.09,-149.8"/>
<text text-anchor="middle" x="191" y="-127.6" font-family="Times,serif" font-size="14.00">SafeMapModule</text>
</g>
<!-- SafeMapComponent&#45;&gt;SafeMapModule -->
<g id="edge1" class="edge">
<title>SafeMapComponent&#45;&gt;SafeMapModule</title>
<path fill="none" stroke="black" d="M228.06,-84.91C228.06,-84.91 228.06,-103.79 228.06,-103.79"/>
<polygon fill="black" stroke="black" points="224.56,-103.79 228.06,-113.79 231.56,-103.79 224.56,-103.79"/>
</g>
<!-- SafeMapPopupComponent -->
<g id="node2" class="node">
<title>SafeMapPopupComponent</title>
<polygon fill="#ffffb3" stroke="black" points="191.66,-84.8 24.34,-84.8 24.34,-48.8 191.66,-48.8 191.66,-84.8"/>
<text text-anchor="middle" x="108" y="-62.6" font-family="Times,serif" font-size="14.00">SafeMapPopupComponent</text>
</g>
<!-- SafeMapPopupComponent&#45;&gt;SafeMapModule -->
<g id="edge2" class="edge">
<title>SafeMapPopupComponent&#45;&gt;SafeMapModule</title>
<path fill="none" stroke="black" d="M163.89,-84.91C163.89,-84.91 163.89,-103.79 163.89,-103.79"/>
<polygon fill="black" stroke="black" points="160.39,-103.79 163.89,-113.79 167.39,-103.79 160.39,-103.79"/>
</g>
<!-- SafeMapComponent  -->
<g id="node4" class="node">
<title>SafeMapComponent </title>
<polygon fill="#fb8072" stroke="black" points="258.87,-214.8 123.13,-214.8 123.13,-178.8 258.87,-178.8 258.87,-214.8"/>
<text text-anchor="middle" x="191" y="-192.6" font-family="Times,serif" font-size="14.00">SafeMapComponent </text>
</g>
<!-- SafeMapModule&#45;&gt;SafeMapComponent  -->
<g id="edge3" class="edge">
<title>SafeMapModule&#45;&gt;SafeMapComponent </title>
<path fill="none" stroke="black" stroke-dasharray="5,2" d="M191,-149.91C191,-149.91 191,-168.79 191,-168.79"/>
<polygon fill="black" stroke="black" points="187.5,-168.79 191,-178.79 194.5,-168.79 187.5,-168.79"/>
</g>
</g>
</svg>
