<?xml version="1.0" encoding="UTF-8" standalone="no"?>
<!DOCTYPE svg PUBLIC "-//W3C//DTD SVG 1.1//EN"
 "http://www.w3.org/Graphics/SVG/1.1/DTD/svg11.dtd">
<!-- Generated by graphviz version 2.47.0 (20210316.0004)
 -->
<!-- Title: dependencies Pages: 1 -->
<svg width="641pt" height="284pt"
 viewBox="0.00 0.00 641.00 284.00" xmlns="http://www.w3.org/2000/svg" xmlns:xlink="http://www.w3.org/1999/xlink">
<g id="graph0" class="graph" transform="scale(1 1) rotate(0) translate(4 280)">
<title>dependencies</title>
<polygon fill="white" stroke="transparent" points="-4,4 -4,-280 637,-280 637,4 -4,4"/>
<text text-anchor="start" x="295.51" y="-42.4" font-family="sans-serif" font-weight="bold" font-size="14.00">Legend</text>
<polygon fill="#ffffb3" stroke="transparent" points="82.5,-10 82.5,-30 102.5,-30 102.5,-10 82.5,-10"/>
<text text-anchor="start" x="106.13" y="-15.4" font-family="sans-serif" font-size="14.00"> &#160;Declarations</text>
<polygon fill="#8dd3c7" stroke="transparent" points="195.5,-10 195.5,-30 215.5,-30 215.5,-10 195.5,-10"/>
<text text-anchor="start" x="219.23" y="-15.4" font-family="sans-serif" font-size="14.00"> &#160;Module</text>
<polygon fill="#80b1d3" stroke="transparent" points="281.5,-10 281.5,-30 301.5,-30 301.5,-10 281.5,-10"/>
<text text-anchor="start" x="305.28" y="-15.4" font-family="sans-serif" font-size="14.00"> &#160;Bootstrap</text>
<polygon fill="#fdb462" stroke="transparent" points="378.5,-10 378.5,-30 398.5,-30 398.5,-10 378.5,-10"/>
<text text-anchor="start" x="402.17" y="-15.4" font-family="sans-serif" font-size="14.00"> &#160;Providers</text>
<polygon fill="#fb8072" stroke="transparent" points="474.5,-10 474.5,-30 494.5,-30 494.5,-10 474.5,-10"/>
<text text-anchor="start" x="498.23" y="-15.4" font-family="sans-serif" font-size="14.00"> &#160;Exports</text>
<g id="clust1" class="cluster">
<title>cluster_PositionModule</title>
<polygon fill="none" stroke="black" stroke-dasharray="1,5" points="8,-70 8,-268 625,-268 625,-70 8,-70"/>
</g>
<g id="clust6" class="cluster">
<title>cluster_PositionModule_exports</title>
<polygon fill="none" stroke="black" points="259,-208 259,-260 405,-260 405,-208 259,-208"/>
</g>
<g id="clust5" class="cluster">
<title>cluster_PositionModule_imports</title>
<polygon fill="none" stroke="black" points="337,-78 337,-130 617,-130 617,-78 337,-78"/>
</g>
<g id="clust2" class="cluster">
<title>cluster_PositionModule_declarations</title>
<polygon fill="none" stroke="black" points="16,-78 16,-130 329,-130 329,-78 16,-78"/>
</g>
<!-- AddPositionComponent -->
<g id="node1" class="node">
<title>AddPositionComponent</title>
<polygon fill="#ffffb3" stroke="black" points="320.84,-122 169.16,-122 169.16,-86 320.84,-86 320.84,-122"/>
<text text-anchor="middle" x="245" y="-99.8" font-family="Times,serif" font-size="14.00">AddPositionComponent</text>
</g>
<!-- PositionModule -->
<g id="node3" class="node">
<title>PositionModule</title>
<polygon fill="#8dd3c7" stroke="black" points="384.95,-187 381.95,-191 360.95,-191 357.95,-187 279.05,-187 279.05,-151 384.95,-151 384.95,-187"/>
<text text-anchor="middle" x="332" y="-164.8" font-family="Times,serif" font-size="14.00">PositionModule</text>
</g>
<!-- AddPositionComponent&#45;&gt;PositionModule -->
<g id="edge1" class="edge">
<title>AddPositionComponent&#45;&gt;PositionModule</title>
<path fill="none" stroke="black" d="M299.97,-122.11C299.97,-122.11 299.97,-140.99 299.97,-140.99"/>
<polygon fill="black" stroke="black" points="296.47,-140.99 299.97,-150.99 303.47,-140.99 296.47,-140.99"/>
</g>
<!-- PositionComponent -->
<g id="node2" class="node">
<title>PositionComponent</title>
<polygon fill="#ffffb3" stroke="black" points="151.73,-122 24.27,-122 24.27,-86 151.73,-86 151.73,-122"/>
<text text-anchor="middle" x="88" y="-99.8" font-family="Times,serif" font-size="14.00">PositionComponent</text>
</g>
<!-- PositionComponent&#45;&gt;PositionModule -->
<g id="edge2" class="edge">
<title>PositionComponent&#45;&gt;PositionModule</title>
<path fill="none" stroke="black" d="M88,-122.11C88,-141.34 88,-169 88,-169 88,-169 269.06,-169 269.06,-169"/>
<polygon fill="black" stroke="black" points="269.06,-172.5 279.06,-169 269.06,-165.5 269.06,-172.5"/>
</g>
<!-- PositionComponent  -->
<g id="node6" class="node">
<title>PositionComponent </title>
<polygon fill="#fb8072" stroke="black" points="397.23,-252 266.77,-252 266.77,-216 397.23,-216 397.23,-252"/>
<text text-anchor="middle" x="332" y="-229.8" font-family="Times,serif" font-size="14.00">PositionComponent </text>
</g>
<!-- PositionModule&#45;&gt;PositionComponent  -->
<g id="edge5" class="edge">
<title>PositionModule&#45;&gt;PositionComponent </title>
<path fill="none" stroke="black" stroke-dasharray="5,2" d="M332,-187.11C332,-187.11 332,-205.99 332,-205.99"/>
<polygon fill="black" stroke="black" points="328.5,-205.99 332,-215.99 335.5,-205.99 328.5,-205.99"/>
</g>
<!-- FormsModule -->
<g id="node4" class="node">
<title>FormsModule</title>
<polygon fill="#8dd3c7" stroke="black" points="608.83,-122 605.83,-126 584.83,-126 581.83,-122 513.17,-122 513.17,-86 608.83,-86 608.83,-122"/>
<text text-anchor="middle" x="561" y="-99.8" font-family="Times,serif" font-size="14.00">FormsModule</text>
</g>
<!-- FormsModule&#45;&gt;PositionModule -->
<g id="edge3" class="edge">
<title>FormsModule&#45;&gt;PositionModule</title>
<path fill="none" stroke="black" d="M561,-122.11C561,-141.34 561,-169 561,-169 561,-169 394.82,-169 394.82,-169"/>
<polygon fill="black" stroke="black" points="394.82,-165.5 384.82,-169 394.82,-172.5 394.82,-165.5"/>
</g>
<!-- PositionRoutingModule -->
<g id="node5" class="node">
<title>PositionRoutingModule</title>
<polygon fill="#8dd3c7" stroke="black" points="495.07,-122 492.07,-126 471.07,-126 468.07,-122 344.93,-122 344.93,-86 495.07,-86 495.07,-122"/>
<text text-anchor="middle" x="420" y="-99.8" font-family="Times,serif" font-size="14.00">PositionRoutingModule</text>
</g>
<!-- PositionRoutingModule&#45;&gt;PositionModule -->
<g id="edge4" class="edge">
<title>PositionRoutingModule&#45;&gt;PositionModule</title>
<path fill="none" stroke="black" d="M364.72,-122.11C364.72,-122.11 364.72,-140.99 364.72,-140.99"/>
<polygon fill="black" stroke="black" points="361.22,-140.99 364.72,-150.99 368.22,-140.99 361.22,-140.99"/>
</g>
</g>
</svg>
