<?xml version="1.0" encoding="UTF-8" standalone="no"?>
<!DOCTYPE svg PUBLIC "-//W3C//DTD SVG 1.1//EN"
 "http://www.w3.org/Graphics/SVG/1.1/DTD/svg11.dtd">
<!-- Generated by graphviz version 3.0.0 (20220226.1711)
 -->
<!-- Title: dependencies Pages: 1 -->
<svg width="956pt" height="247pt"
 viewBox="0.00 0.00 956.00 246.80" xmlns="http://www.w3.org/2000/svg" xmlns:xlink="http://www.w3.org/1999/xlink">
<g id="graph0" class="graph" transform="scale(1 1) rotate(0) translate(4 242.8)">
<title>dependencies</title>
<polygon fill="white" stroke="transparent" points="-4,4 -4,-242.8 952,-242.8 952,4 -4,4"/>
<text text-anchor="middle" x="474" y="-8.2" font-family="sans-serif" font-size="14.00">dependencies</text>
<g id="clust1" class="cluster">
<title>cluster_AggregationTableModule</title>
<polygon fill="none" stroke="black" stroke-dasharray="1,5" points="8,-32.8 8,-230.8 940,-230.8 940,-32.8 8,-32.8"/>
</g>
<g id="clust5" class="cluster">
<title>cluster_AggregationTableModule_exports</title>
<polygon fill="none" stroke="black" points="346,-170.8 346,-222.8 548,-222.8 548,-170.8 346,-170.8"/>
</g>
<g id="clust2" class="cluster">
<title>cluster_AggregationTableModule_declarations</title>
<polygon fill="none" stroke="black" points="732,-40.8 732,-92.8 932,-92.8 932,-40.8 732,-40.8"/>
</g>
<g id="clust4" class="cluster">
<title>cluster_AggregationTableModule_imports</title>
<polygon fill="none" stroke="black" points="16,-40.8 16,-92.8 724,-92.8 724,-40.8 16,-40.8"/>
</g>
<!-- AggregationTableComponent -->
<g id="node1" class="node">
<title>AggregationTableComponent</title>
<polygon fill="#ffffb3" stroke="black" points="923.68,-84.8 740.32,-84.8 740.32,-48.8 923.68,-48.8 923.68,-84.8"/>
<text text-anchor="middle" x="832" y="-62.6" font-family="Times,serif" font-size="14.00">AggregationTableComponent</text>
</g>
<!-- AggregationTableModule -->
<g id="node2" class="node">
<title>AggregationTableModule</title>
<polygon fill="#8dd3c7" stroke="black" points="527.9,-149.8 524.9,-153.8 503.9,-153.8 500.9,-149.8 366.1,-149.8 366.1,-113.8 527.9,-113.8 527.9,-149.8"/>
<text text-anchor="middle" x="447" y="-127.6" font-family="Times,serif" font-size="14.00">AggregationTableModule</text>
</g>
<!-- AggregationTableComponent&#45;&gt;AggregationTableModule -->
<g id="edge1" class="edge">
<title>AggregationTableComponent&#45;&gt;AggregationTableModule</title>
<path fill="none" stroke="black" d="M832,-85.08C832,-106.12 832,-137.8 832,-137.8 832,-137.8 537.71,-137.8 537.71,-137.8"/>
<polygon fill="black" stroke="black" points="537.71,-134.3 527.71,-137.8 537.71,-141.3 537.71,-134.3"/>
</g>
<!-- AggregationTableComponent  -->
<g id="node7" class="node">
<title>AggregationTableComponent </title>
<polygon fill="#fb8072" stroke="black" points="540.18,-214.8 353.82,-214.8 353.82,-178.8 540.18,-178.8 540.18,-214.8"/>
<text text-anchor="middle" x="447" y="-192.6" font-family="Times,serif" font-size="14.00">AggregationTableComponent </text>
</g>
<!-- AggregationTableModule&#45;&gt;AggregationTableComponent  -->
<g id="edge6" class="edge">
<title>AggregationTableModule&#45;&gt;AggregationTableComponent </title>
<path fill="none" stroke="black" stroke-dasharray="5,2" d="M447,-149.91C447,-149.91 447,-168.79 447,-168.79"/>
<polygon fill="black" stroke="black" points="443.5,-168.79 447,-178.79 450.5,-168.79 443.5,-168.79"/>
</g>
<!-- AddAggregationModalModule -->
<g id="node3" class="node">
<title>AddAggregationModalModule</title>
<polygon fill="#8dd3c7" stroke="black" points="716.19,-84.8 713.19,-88.8 692.19,-88.8 689.19,-84.8 525.81,-84.8 525.81,-48.8 716.19,-48.8 716.19,-84.8"/>
<text text-anchor="middle" x="621" y="-62.6" font-family="Times,serif" font-size="14.00">AddAggregationModalModule</text>
</g>
<!-- AddAggregationModalModule&#45;&gt;AggregationTableModule -->
<g id="edge2" class="edge">
<title>AddAggregationModalModule&#45;&gt;AggregationTableModule</title>
<path fill="none" stroke="black" d="M534.02,-84.82C534.02,-102.17 534.02,-125.8 534.02,-125.8 534.02,-125.8 533.39,-125.8 533.39,-125.8"/>
<polygon fill="black" stroke="black" points="537.76,-122.3 527.76,-125.8 537.76,-129.3 537.76,-122.3"/>
</g>
<!-- SafeButtonModule -->
<g id="node4" class="node">
<title>SafeButtonModule</title>
<polygon fill="#8dd3c7" stroke="black" points="508.05,-84.8 505.05,-88.8 484.05,-88.8 481.05,-84.8 385.95,-84.8 385.95,-48.8 508.05,-48.8 508.05,-84.8"/>
<text text-anchor="middle" x="447" y="-62.6" font-family="Times,serif" font-size="14.00">SafeButtonModule</text>
</g>
<!-- SafeButtonModule&#45;&gt;AggregationTableModule -->
<g id="edge3" class="edge">
<title>SafeButtonModule&#45;&gt;AggregationTableModule</title>
<path fill="none" stroke="black" d="M447,-84.91C447,-84.91 447,-103.79 447,-103.79"/>
<polygon fill="black" stroke="black" points="443.5,-103.79 447,-113.79 450.5,-103.79 443.5,-103.79"/>
</g>
<!-- SafeDateModule -->
<g id="node5" class="node">
<title>SafeDateModule</title>
<polygon fill="#8dd3c7" stroke="black" points="367.36,-84.8 364.36,-88.8 343.36,-88.8 340.36,-84.8 256.64,-84.8 256.64,-48.8 367.36,-48.8 367.36,-84.8"/>
<text text-anchor="middle" x="312" y="-62.6" font-family="Times,serif" font-size="14.00">SafeDateModule</text>
</g>
<!-- SafeDateModule&#45;&gt;AggregationTableModule -->
<g id="edge4" class="edge">
<title>SafeDateModule&#45;&gt;AggregationTableModule</title>
<path fill="none" stroke="black" d="M359.98,-85.08C359.98,-106.12 359.98,-137.8 359.98,-137.8 359.98,-137.8 360.61,-137.8 360.61,-137.8"/>
<polygon fill="black" stroke="black" points="356.24,-141.3 366.24,-137.8 356.24,-134.3 356.24,-141.3"/>
</g>
<!-- SafeEditAggregationModalModule -->
<g id="node6" class="node">
<title>SafeEditAggregationModalModule</title>
<polygon fill="#8dd3c7" stroke="black" points="238.29,-84.8 235.29,-88.8 214.29,-88.8 211.29,-84.8 23.71,-84.8 23.71,-48.8 238.29,-48.8 238.29,-84.8"/>
<text text-anchor="middle" x="131" y="-62.6" font-family="Times,serif" font-size="14.00">SafeEditAggregationModalModule</text>
</g>
<!-- SafeEditAggregationModalModule&#45;&gt;AggregationTableModule -->
<g id="edge5" class="edge">
<title>SafeEditAggregationModalModule&#45;&gt;AggregationTableModule</title>
<path fill="none" stroke="black" d="M131,-84.82C131,-102.17 131,-125.8 131,-125.8 131,-125.8 356.03,-125.8 356.03,-125.8"/>
<polygon fill="black" stroke="black" points="356.03,-129.3 366.03,-125.8 356.03,-122.3 356.03,-129.3"/>
</g>
</g>
</svg>
