<?xml version="1.0" encoding="UTF-8" standalone="no"?>
<!DOCTYPE svg PUBLIC "-//W3C//DTD SVG 1.1//EN"
 "http://www.w3.org/Graphics/SVG/1.1/DTD/svg11.dtd">
<!-- Generated by graphviz version 3.0.0 (20220226.1711)
 -->
<!-- Title: dependencies Pages: 1 -->
<svg width="956pt" height="247pt"
 viewBox="0.00 0.00 956.00 246.80" xmlns="http://www.w3.org/2000/svg" xmlns:xlink="http://www.w3.org/1999/xlink">
<g id="graph0" class="graph" transform="scale(1 1) rotate(0) translate(4 242.8)">
<title>dependencies</title>
<polygon fill="white" stroke="transparent" points="-4,4 -4,-242.8 952,-242.8 952,4 -4,4"/>
<text text-anchor="middle" x="474" y="-8.2" font-family="sans-serif" font-size="14.00">dependencies</text>
<g id="clust1" class="cluster">
<title>cluster_AggregationTableModule</title>
<polygon fill="none" stroke="black" stroke-dasharray="1,5" points="8,-32.8 8,-230.8 940,-230.8 940,-32.8 8,-32.8"/>
</g>
<g id="clust5" class="cluster">
<title>cluster_AggregationTableModule_exports</title>
<polygon fill="none" stroke="black" points="419,-170.8 419,-222.8 621,-222.8 621,-170.8 419,-170.8"/>
</g>
<g id="clust4" class="cluster">
<title>cluster_AggregationTableModule_imports</title>
<polygon fill="none" stroke="black" points="224,-40.8 224,-92.8 932,-92.8 932,-40.8 224,-40.8"/>
</g>
<g id="clust2" class="cluster">
<title>cluster_AggregationTableModule_declarations</title>
<polygon fill="none" stroke="black" points="16,-40.8 16,-92.8 216,-92.8 216,-40.8 16,-40.8"/>
</g>
<!-- AggregationTableComponent -->
<g id="node1" class="node">
<title>AggregationTableComponent</title>
<polygon fill="#ffffb3" stroke="black" points="207.68,-84.8 24.32,-84.8 24.32,-48.8 207.68,-48.8 207.68,-84.8"/>
<text text-anchor="middle" x="116" y="-62.6" font-family="Times,serif" font-size="14.00">AggregationTableComponent</text>
</g>
<!-- AggregationTableModule -->
<g id="node2" class="node">
<title>AggregationTableModule</title>
<polygon fill="#8dd3c7" stroke="black" points="600.9,-149.8 597.9,-153.8 576.9,-153.8 573.9,-149.8 439.1,-149.8 439.1,-113.8 600.9,-113.8 600.9,-149.8"/>
<text text-anchor="middle" x="520" y="-127.6" font-family="Times,serif" font-size="14.00">AggregationTableModule</text>
</g>
<!-- AggregationTableComponent&#45;&gt;AggregationTableModule -->
<g id="edge1" class="edge">
<title>AggregationTableComponent&#45;&gt;AggregationTableModule</title>
<path fill="none" stroke="black" d="M116,-84.82C116,-102.17 116,-125.8 116,-125.8 116,-125.8 429.22,-125.8 429.22,-125.8"/>
<polygon fill="black" stroke="black" points="429.22,-129.3 439.22,-125.8 429.22,-122.3 429.22,-129.3"/>
</g>
<!-- AggregationTableComponent  -->
<g id="node7" class="node">
<title>AggregationTableComponent </title>
<polygon fill="#fb8072" stroke="black" points="613.18,-214.8 426.82,-214.8 426.82,-178.8 613.18,-178.8 613.18,-214.8"/>
<text text-anchor="middle" x="520" y="-192.6" font-family="Times,serif" font-size="14.00">AggregationTableComponent </text>
</g>
<!-- AggregationTableModule&#45;&gt;AggregationTableComponent  -->
<g id="edge6" class="edge">
<title>AggregationTableModule&#45;&gt;AggregationTableComponent </title>
<path fill="none" stroke="black" stroke-dasharray="5,2" d="M520,-149.91C520,-149.91 520,-168.79 520,-168.79"/>
<polygon fill="black" stroke="black" points="516.5,-168.79 520,-178.79 523.5,-168.79 516.5,-168.79"/>
</g>
<!-- AddAggregationModalModule -->
<g id="node3" class="node">
<title>AddAggregationModalModule</title>
<polygon fill="#8dd3c7" stroke="black" points="924.19,-84.8 921.19,-88.8 900.19,-88.8 897.19,-84.8 733.81,-84.8 733.81,-48.8 924.19,-48.8 924.19,-84.8"/>
<text text-anchor="middle" x="829" y="-62.6" font-family="Times,serif" font-size="14.00">AddAggregationModalModule</text>
</g>
<!-- AddAggregationModalModule&#45;&gt;AggregationTableModule -->
<g id="edge2" class="edge">
<title>AddAggregationModalModule&#45;&gt;AggregationTableModule</title>
<path fill="none" stroke="black" d="M829,-85.08C829,-106.12 829,-137.8 829,-137.8 829,-137.8 610.78,-137.8 610.78,-137.8"/>
<polygon fill="black" stroke="black" points="610.78,-134.3 600.78,-137.8 610.78,-141.3 610.78,-134.3"/>
</g>
<!-- SafeButtonModule -->
<g id="node4" class="node">
<title>SafeButtonModule</title>
<polygon fill="#8dd3c7" stroke="black" points="716.05,-84.8 713.05,-88.8 692.05,-88.8 689.05,-84.8 593.95,-84.8 593.95,-48.8 716.05,-48.8 716.05,-84.8"/>
<text text-anchor="middle" x="655" y="-62.6" font-family="Times,serif" font-size="14.00">SafeButtonModule</text>
</g>
<!-- SafeButtonModule&#45;&gt;AggregationTableModule -->
<g id="edge3" class="edge">
<title>SafeButtonModule&#45;&gt;AggregationTableModule</title>
<path fill="none" stroke="black" d="M607.02,-84.82C607.02,-102.17 607.02,-125.8 607.02,-125.8 607.02,-125.8 606.39,-125.8 606.39,-125.8"/>
<polygon fill="black" stroke="black" points="610.76,-122.3 600.76,-125.8 610.76,-129.3 610.76,-122.3"/>
</g>
<!-- SafeDateModule -->
<g id="node5" class="node">
<title>SafeDateModule</title>
<polygon fill="#8dd3c7" stroke="black" points="575.36,-84.8 572.36,-88.8 551.36,-88.8 548.36,-84.8 464.64,-84.8 464.64,-48.8 575.36,-48.8 575.36,-84.8"/>
<text text-anchor="middle" x="520" y="-62.6" font-family="Times,serif" font-size="14.00">SafeDateModule</text>
</g>
<!-- SafeDateModule&#45;&gt;AggregationTableModule -->
<g id="edge4" class="edge">
<title>SafeDateModule&#45;&gt;AggregationTableModule</title>
<path fill="none" stroke="black" d="M520,-84.91C520,-84.91 520,-103.79 520,-103.79"/>
<polygon fill="black" stroke="black" points="516.5,-103.79 520,-113.79 523.5,-103.79 516.5,-103.79"/>
</g>
<!-- SafeEditAggregationModalModule -->
<g id="node6" class="node">
<title>SafeEditAggregationModalModule</title>
<polygon fill="#8dd3c7" stroke="black" points="446.29,-84.8 443.29,-88.8 422.29,-88.8 419.29,-84.8 231.71,-84.8 231.71,-48.8 446.29,-48.8 446.29,-84.8"/>
<text text-anchor="middle" x="339" y="-62.6" font-family="Times,serif" font-size="14.00">SafeEditAggregationModalModule</text>
</g>
<!-- SafeEditAggregationModalModule&#45;&gt;AggregationTableModule -->
<g id="edge5" class="edge">
<title>SafeEditAggregationModalModule&#45;&gt;AggregationTableModule</title>
<path fill="none" stroke="black" d="M432.98,-85.08C432.98,-106.12 432.98,-137.8 432.98,-137.8 432.98,-137.8 433.61,-137.8 433.61,-137.8"/>
<polygon fill="black" stroke="black" points="429.24,-141.3 439.24,-137.8 429.24,-134.3 429.24,-141.3"/>
</g>
</g>
</svg>
