<?xml version="1.0" encoding="UTF-8" standalone="no"?>
<!DOCTYPE svg PUBLIC "-//W3C//DTD SVG 1.1//EN"
 "http://www.w3.org/Graphics/SVG/1.1/DTD/svg11.dtd">
<!-- Generated by graphviz version 2.47.0 (20210316.0004)
 -->
<!-- Title: dependencies Pages: 1 -->
<svg width="813pt" height="284pt"
 viewBox="0.00 0.00 813.00 284.00" xmlns="http://www.w3.org/2000/svg" xmlns:xlink="http://www.w3.org/1999/xlink">
<g id="graph0" class="graph" transform="scale(1 1) rotate(0) translate(4 280)">
<title>dependencies</title>
<polygon fill="white" stroke="transparent" points="-4,4 -4,-280 809,-280 809,4 -4,4"/>
<text text-anchor="start" x="381.51" y="-42.4" font-family="sans-serif" font-weight="bold" font-size="14.00">Legend</text>
<polygon fill="#ffffb3" stroke="transparent" points="168.5,-10 168.5,-30 188.5,-30 188.5,-10 168.5,-10"/>
<text text-anchor="start" x="192.13" y="-15.4" font-family="sans-serif" font-size="14.00"> &#160;Declarations</text>
<polygon fill="#8dd3c7" stroke="transparent" points="281.5,-10 281.5,-30 301.5,-30 301.5,-10 281.5,-10"/>
<text text-anchor="start" x="305.23" y="-15.4" font-family="sans-serif" font-size="14.00"> &#160;Module</text>
<polygon fill="#80b1d3" stroke="transparent" points="367.5,-10 367.5,-30 387.5,-30 387.5,-10 367.5,-10"/>
<text text-anchor="start" x="391.28" y="-15.4" font-family="sans-serif" font-size="14.00"> &#160;Bootstrap</text>
<polygon fill="#fdb462" stroke="transparent" points="464.5,-10 464.5,-30 484.5,-30 484.5,-10 464.5,-10"/>
<text text-anchor="start" x="488.17" y="-15.4" font-family="sans-serif" font-size="14.00"> &#160;Providers</text>
<polygon fill="#fb8072" stroke="transparent" points="560.5,-10 560.5,-30 580.5,-30 580.5,-10 560.5,-10"/>
<text text-anchor="start" x="584.23" y="-15.4" font-family="sans-serif" font-size="14.00"> &#160;Exports</text>
<g id="clust1" class="cluster">
<title>cluster_SafeGridSettingsModule</title>
<polygon fill="none" stroke="black" stroke-dasharray="1,5" points="8,-70 8,-268 797,-268 797,-70 8,-70"/>
</g>
<g id="clust5" class="cluster">
<title>cluster_SafeGridSettingsModule_imports</title>
<polygon fill="none" stroke="black" points="471,-78 471,-130 789,-130 789,-78 471,-78"/>
</g>
<g id="clust2" class="cluster">
<title>cluster_SafeGridSettingsModule_declarations</title>
<polygon fill="none" stroke="black" points="16,-78 16,-130 463,-130 463,-78 16,-78"/>
</g>
<g id="clust6" class="cluster">
<title>cluster_SafeGridSettingsModule_exports</title>
<polygon fill="none" stroke="black" points="350,-208 350,-260 546,-260 546,-208 350,-208"/>
</g>
<!-- SafeFloatingButtonSettingsComponent -->
<g id="node1" class="node">
<title>SafeFloatingButtonSettingsComponent</title>
<polygon fill="#ffffb3" stroke="black" points="455.11,-122 218.89,-122 218.89,-86 455.11,-86 455.11,-122"/>
<text text-anchor="middle" x="337" y="-99.8" font-family="Times,serif" font-size="14.00">SafeFloatingButtonSettingsComponent</text>
</g>
<!-- SafeGridSettingsModule -->
<g id="node3" class="node">
<title>SafeGridSettingsModule</title>
<polygon fill="#8dd3c7" stroke="black" points="525.69,-187 522.69,-191 501.69,-191 498.69,-187 370.31,-187 370.31,-151 525.69,-151 525.69,-187"/>
<text text-anchor="middle" x="448" y="-164.8" font-family="Times,serif" font-size="14.00">SafeGridSettingsModule</text>
</g>
<!-- SafeFloatingButtonSettingsComponent&#45;&gt;SafeGridSettingsModule -->
<g id="edge1" class="edge">
<title>SafeFloatingButtonSettingsComponent&#45;&gt;SafeGridSettingsModule</title>
<path fill="none" stroke="black" d="M412.73,-122.11C412.73,-122.11 412.73,-140.99 412.73,-140.99"/>
<polygon fill="black" stroke="black" points="409.23,-140.99 412.73,-150.99 416.23,-140.99 409.23,-140.99"/>
</g>
<!-- SafeGridSettingsComponent -->
<g id="node2" class="node">
<title>SafeGridSettingsComponent</title>
<polygon fill="#ffffb3" stroke="black" points="200.48,-122 23.52,-122 23.52,-86 200.48,-86 200.48,-122"/>
<text text-anchor="middle" x="112" y="-99.8" font-family="Times,serif" font-size="14.00">SafeGridSettingsComponent</text>
</g>
<!-- SafeGridSettingsComponent&#45;&gt;SafeGridSettingsModule -->
<g id="edge2" class="edge">
<title>SafeGridSettingsComponent&#45;&gt;SafeGridSettingsModule</title>
<path fill="none" stroke="black" d="M112,-122.11C112,-141.34 112,-169 112,-169 112,-169 360.07,-169 360.07,-169"/>
<polygon fill="black" stroke="black" points="360.07,-172.5 370.07,-169 360.07,-165.5 360.07,-172.5"/>
</g>
<!-- SafeGridSettingsComponent  -->
<g id="node6" class="node">
<title>SafeGridSettingsComponent </title>
<polygon fill="#fb8072" stroke="black" points="538.48,-252 357.52,-252 357.52,-216 538.48,-216 538.48,-252"/>
<text text-anchor="middle" x="448" y="-229.8" font-family="Times,serif" font-size="14.00">SafeGridSettingsComponent </text>
</g>
<!-- SafeGridSettingsModule&#45;&gt;SafeGridSettingsComponent  -->
<g id="edge5" class="edge">
<title>SafeGridSettingsModule&#45;&gt;SafeGridSettingsComponent </title>
<path fill="none" stroke="black" stroke-dasharray="5,2" d="M448,-187.11C448,-187.11 448,-205.99 448,-205.99"/>
<polygon fill="black" stroke="black" points="444.5,-205.99 448,-215.99 451.5,-205.99 444.5,-205.99"/>
</g>
<!-- SafeButtonModule -->
<g id="node4" class="node">
<title>SafeButtonModule</title>
<polygon fill="#8dd3c7" stroke="black" points="781.04,-122 778.04,-126 757.04,-126 754.04,-122 658.96,-122 658.96,-86 781.04,-86 781.04,-122"/>
<text text-anchor="middle" x="720" y="-99.8" font-family="Times,serif" font-size="14.00">SafeButtonModule</text>
</g>
<!-- SafeButtonModule&#45;&gt;SafeGridSettingsModule -->
<g id="edge3" class="edge">
<title>SafeButtonModule&#45;&gt;SafeGridSettingsModule</title>
<path fill="none" stroke="black" d="M720,-122.11C720,-141.34 720,-169 720,-169 720,-169 535.94,-169 535.94,-169"/>
<polygon fill="black" stroke="black" points="535.94,-165.5 525.94,-169 535.94,-172.5 535.94,-165.5"/>
</g>
<!-- SafeQueryBuilderModule -->
<g id="node5" class="node">
<title>SafeQueryBuilderModule</title>
<polygon fill="#8dd3c7" stroke="black" points="640.9,-122 637.9,-126 616.9,-126 613.9,-122 479.1,-122 479.1,-86 640.9,-86 640.9,-122"/>
<text text-anchor="middle" x="560" y="-99.8" font-family="Times,serif" font-size="14.00">SafeQueryBuilderModule</text>
</g>
<!-- SafeQueryBuilderModule&#45;&gt;SafeGridSettingsModule -->
<g id="edge4" class="edge">
<title>SafeQueryBuilderModule&#45;&gt;SafeGridSettingsModule</title>
<path fill="none" stroke="black" d="M502.45,-122.11C502.45,-122.11 502.45,-140.99 502.45,-140.99"/>
<polygon fill="black" stroke="black" points="498.95,-140.99 502.45,-150.99 505.95,-140.99 498.95,-140.99"/>
</g>
</g>
</svg>
