<?xml version="1.0" encoding="UTF-8" standalone="no"?>
<!DOCTYPE svg PUBLIC "-//W3C//DTD SVG 1.1//EN"
 "http://www.w3.org/Graphics/SVG/1.1/DTD/svg11.dtd">
<!-- Generated by graphviz version 3.0.0 (20220226.1711)
 -->
<!-- Title: dependencies Pages: 1 -->
<svg width="266pt" height="247pt"
 viewBox="0.00 0.00 266.00 246.80" xmlns="http://www.w3.org/2000/svg" xmlns:xlink="http://www.w3.org/1999/xlink">
<g id="graph0" class="graph" transform="scale(1 1) rotate(0) translate(4 242.8)">
<title>dependencies</title>
<polygon fill="white" stroke="transparent" points="-4,4 -4,-242.8 262,-242.8 262,4 -4,4"/>
<text text-anchor="middle" x="129" y="-8.2" font-family="sans-serif" font-size="14.00">dependencies</text>
<g id="clust1" class="cluster">
<title>cluster_SafeSchedulerSettingsModule</title>
<polygon fill="none" stroke="black" stroke-dasharray="1,5" points="8,-32.8 8,-230.8 250,-230.8 250,-32.8 8,-32.8"/>
</g>
<g id="clust2" class="cluster">
<title>cluster_SafeSchedulerSettingsModule_declarations</title>
<polygon fill="none" stroke="black" points="17,-40.8 17,-92.8 241,-92.8 241,-40.8 17,-40.8"/>
</g>
<g id="clust5" class="cluster">
<title>cluster_SafeSchedulerSettingsModule_exports</title>
<polygon fill="none" stroke="black" points="16,-170.8 16,-222.8 242,-222.8 242,-170.8 16,-170.8"/>
</g>
<!-- SafeSchedulerSettingsComponent -->
<g id="node1" class="node">
<title>SafeSchedulerSettingsComponent</title>
<polygon fill="#ffffb3" stroke="black" points="232.8,-84.8 25.2,-84.8 25.2,-48.8 232.8,-48.8 232.8,-84.8"/>
<text text-anchor="middle" x="129" y="-62.6" font-family="Times,serif" font-size="14.00">SafeSchedulerSettingsComponent</text>
</g>
<!-- SafeSchedulerSettingsModule -->
<g id="node2" class="node">
<title>SafeSchedulerSettingsModule</title>
<polygon fill="#8dd3c7" stroke="black" points="221.53,-149.8 218.53,-153.8 197.53,-153.8 194.53,-149.8 36.47,-149.8 36.47,-113.8 221.53,-113.8 221.53,-149.8"/>
<text text-anchor="middle" x="129" y="-127.6" font-family="Times,serif" font-size="14.00">SafeSchedulerSettingsModule</text>
</g>
<!-- SafeSchedulerSettingsComponent&#45;&gt;SafeSchedulerSettingsModule -->
<g id="edge1" class="edge">
<title>SafeSchedulerSettingsComponent&#45;&gt;SafeSchedulerSettingsModule</title>
<path fill="none" stroke="black" d="M129,-84.91C129,-84.91 129,-103.79 129,-103.79"/>
<polygon fill="black" stroke="black" points="125.5,-103.79 129,-113.79 132.5,-103.79 125.5,-103.79"/>
</g>
<!-- SafeSchedulerSettingsComponent  -->
<g id="node3" class="node">
<title>SafeSchedulerSettingsComponent </title>
<polygon fill="#fb8072" stroke="black" points="234.3,-214.8 23.7,-214.8 23.7,-178.8 234.3,-178.8 234.3,-214.8"/>
<text text-anchor="middle" x="129" y="-192.6" font-family="Times,serif" font-size="14.00">SafeSchedulerSettingsComponent </text>
</g>
<!-- SafeSchedulerSettingsModule&#45;&gt;SafeSchedulerSettingsComponent  -->
<g id="edge2" class="edge">
<title>SafeSchedulerSettingsModule&#45;&gt;SafeSchedulerSettingsComponent </title>
<path fill="none" stroke="black" stroke-dasharray="5,2" d="M129,-149.91C129,-149.91 129,-168.79 129,-168.79"/>
<polygon fill="black" stroke="black" points="125.5,-168.79 129,-178.79 132.5,-168.79 125.5,-168.79"/>
</g>
</g>
</svg>
