<?xml version="1.0" encoding="UTF-8" standalone="no"?>
<!DOCTYPE svg PUBLIC "-//W3C//DTD SVG 1.1//EN"
 "http://www.w3.org/Graphics/SVG/1.1/DTD/svg11.dtd">
<!-- Generated by graphviz version 3.0.0 (20220226.1711)
 -->
<!-- Title: dependencies Pages: 1 -->
<svg width="1165pt" height="247pt"
 viewBox="0.00 0.00 1165.00 246.80" xmlns="http://www.w3.org/2000/svg" xmlns:xlink="http://www.w3.org/1999/xlink">
<g id="graph0" class="graph" transform="scale(1 1) rotate(0) translate(4 242.8)">
<title>dependencies</title>
<polygon fill="white" stroke="transparent" points="-4,4 -4,-242.8 1161,-242.8 1161,4 -4,4"/>
<text text-anchor="middle" x="578.5" y="-8.2" font-family="sans-serif" font-size="14.00">dependencies</text>
<g id="clust1" class="cluster">
<title>cluster_SafeGridWidgetModule</title>
<polygon fill="none" stroke="black" stroke-dasharray="1,5" points="8,-32.8 8,-230.8 1149,-230.8 1149,-32.8 8,-32.8"/>
</g>
<g id="clust5" class="cluster">
<title>cluster_SafeGridWidgetModule_exports</title>
<polygon fill="none" stroke="black" points="462,-170.8 462,-222.8 654,-222.8 654,-170.8 462,-170.8"/>
</g>
<g id="clust4" class="cluster">
<title>cluster_SafeGridWidgetModule_imports</title>
<polygon fill="none" stroke="black" points="214,-40.8 214,-92.8 1141,-92.8 1141,-40.8 214,-40.8"/>
</g>
<g id="clust2" class="cluster">
<title>cluster_SafeGridWidgetModule_declarations</title>
<polygon fill="none" stroke="black" points="16,-40.8 16,-92.8 206,-92.8 206,-40.8 16,-40.8"/>
</g>
<!-- SafeGridWidgetComponent -->
<g id="node1" class="node">
<title>SafeGridWidgetComponent</title>
<polygon fill="#ffffb3" stroke="black" points="197.58,-84.8 24.42,-84.8 24.42,-48.8 197.58,-48.8 197.58,-84.8"/>
<text text-anchor="middle" x="111" y="-62.6" font-family="Times,serif" font-size="14.00">SafeGridWidgetComponent</text>
</g>
<!-- SafeGridWidgetModule -->
<g id="node2" class="node">
<title>SafeGridWidgetModule</title>
<polygon fill="#8dd3c7" stroke="black" points="633.8,-149.8 630.8,-153.8 609.8,-153.8 606.8,-149.8 482.2,-149.8 482.2,-113.8 633.8,-113.8 633.8,-149.8"/>
<text text-anchor="middle" x="558" y="-127.6" font-family="Times,serif" font-size="14.00">SafeGridWidgetModule</text>
</g>
<!-- SafeGridWidgetComponent&#45;&gt;SafeGridWidgetModule -->
<g id="edge1" class="edge">
<title>SafeGridWidgetComponent&#45;&gt;SafeGridWidgetModule</title>
<path fill="none" stroke="black" d="M111,-85.08C111,-106.12 111,-137.8 111,-137.8 111,-137.8 472.17,-137.8 472.17,-137.8"/>
<polygon fill="black" stroke="black" points="472.17,-141.3 482.17,-137.8 472.17,-134.3 472.17,-141.3"/>
</g>
<!-- SafeGridWidgetComponent  -->
<g id="node8" class="node">
<title>SafeGridWidgetComponent </title>
<polygon fill="#fb8072" stroke="black" points="646.08,-214.8 469.92,-214.8 469.92,-178.8 646.08,-178.8 646.08,-214.8"/>
<text text-anchor="middle" x="558" y="-192.6" font-family="Times,serif" font-size="14.00">SafeGridWidgetComponent </text>
</g>
<!-- SafeGridWidgetModule&#45;&gt;SafeGridWidgetComponent  -->
<g id="edge7" class="edge">
<title>SafeGridWidgetModule&#45;&gt;SafeGridWidgetComponent </title>
<path fill="none" stroke="black" stroke-dasharray="5,2" d="M558,-149.91C558,-149.91 558,-168.79 558,-168.79"/>
<polygon fill="black" stroke="black" points="554.5,-168.79 558,-178.79 561.5,-168.79 554.5,-168.79"/>
</g>
<!-- EmailTemplateModalModule -->
<g id="node3" class="node">
<title>EmailTemplateModalModule</title>
<polygon fill="#8dd3c7" stroke="black" points="1133.4,-84.8 1130.4,-88.8 1109.4,-88.8 1106.4,-84.8 950.6,-84.8 950.6,-48.8 1133.4,-48.8 1133.4,-84.8"/>
<text text-anchor="middle" x="1042" y="-62.6" font-family="Times,serif" font-size="14.00">EmailTemplateModalModule</text>
</g>
<!-- EmailTemplateModalModule&#45;&gt;SafeGridWidgetModule -->
<g id="edge2" class="edge">
<title>EmailTemplateModalModule&#45;&gt;SafeGridWidgetModule</title>
<path fill="none" stroke="black" d="M1042,-85.08C1042,-106.12 1042,-137.8 1042,-137.8 1042,-137.8 643.89,-137.8 643.89,-137.8"/>
<polygon fill="black" stroke="black" points="643.89,-134.3 633.89,-137.8 643.89,-141.3 643.89,-134.3"/>
</g>
<!-- SafeChooseRecordModalModule -->
<g id="node4" class="node">
<title>SafeChooseRecordModalModule</title>
<polygon fill="#8dd3c7" stroke="black" points="932.91,-84.8 929.91,-88.8 908.91,-88.8 905.91,-84.8 729.09,-84.8 729.09,-48.8 932.91,-48.8 932.91,-84.8"/>
<text text-anchor="middle" x="831" y="-62.6" font-family="Times,serif" font-size="14.00">SafeChooseRecordModalModule</text>
</g>
<!-- SafeChooseRecordModalModule&#45;&gt;SafeGridWidgetModule -->
<g id="edge3" class="edge">
<title>SafeChooseRecordModalModule&#45;&gt;SafeGridWidgetModule</title>
<path fill="none" stroke="black" d="M831,-84.82C831,-102.17 831,-125.8 831,-125.8 831,-125.8 643.68,-125.8 643.68,-125.8"/>
<polygon fill="black" stroke="black" points="643.68,-122.3 633.68,-125.8 643.68,-129.3 643.68,-122.3"/>
</g>
<!-- SafeCoreGridModule -->
<g id="node5" class="node">
<title>SafeCoreGridModule</title>
<polygon fill="#8dd3c7" stroke="black" points="711.8,-84.8 708.8,-88.8 687.8,-88.8 684.8,-84.8 574.2,-84.8 574.2,-48.8 711.8,-48.8 711.8,-84.8"/>
<text text-anchor="middle" x="643" y="-62.6" font-family="Times,serif" font-size="14.00">SafeCoreGridModule</text>
</g>
<!-- SafeCoreGridModule&#45;&gt;SafeGridWidgetModule -->
<g id="edge4" class="edge">
<title>SafeCoreGridModule&#45;&gt;SafeGridWidgetModule</title>
<path fill="none" stroke="black" d="M604,-84.91C604,-84.91 604,-103.79 604,-103.79"/>
<polygon fill="black" stroke="black" points="600.5,-103.79 604,-113.79 607.5,-103.79 600.5,-103.79"/>
</g>
<!-- SafeEmailPreviewModule -->
<g id="node6" class="node">
<title>SafeEmailPreviewModule</title>
<polygon fill="#8dd3c7" stroke="black" points="555.74,-84.8 552.74,-88.8 531.74,-88.8 528.74,-84.8 392.26,-84.8 392.26,-48.8 555.74,-48.8 555.74,-84.8"/>
<text text-anchor="middle" x="474" y="-62.6" font-family="Times,serif" font-size="14.00">SafeEmailPreviewModule</text>
</g>
<!-- SafeEmailPreviewModule&#45;&gt;SafeGridWidgetModule -->
<g id="edge5" class="edge">
<title>SafeEmailPreviewModule&#45;&gt;SafeGridWidgetModule</title>
<path fill="none" stroke="black" d="M519.11,-84.91C519.11,-84.91 519.11,-103.79 519.11,-103.79"/>
<polygon fill="black" stroke="black" points="515.61,-103.79 519.11,-113.79 522.61,-103.79 515.61,-103.79"/>
</g>
<!-- SafeFormModalModule -->
<g id="node7" class="node">
<title>SafeFormModalModule</title>
<polygon fill="#8dd3c7" stroke="black" points="373.82,-84.8 370.82,-88.8 349.82,-88.8 346.82,-84.8 222.18,-84.8 222.18,-48.8 373.82,-48.8 373.82,-84.8"/>
<text text-anchor="middle" x="298" y="-62.6" font-family="Times,serif" font-size="14.00">SafeFormModalModule</text>
</g>
<!-- SafeFormModalModule&#45;&gt;SafeGridWidgetModule -->
<g id="edge6" class="edge">
<title>SafeFormModalModule&#45;&gt;SafeGridWidgetModule</title>
<path fill="none" stroke="black" d="M298,-84.82C298,-102.17 298,-125.8 298,-125.8 298,-125.8 472.1,-125.8 472.1,-125.8"/>
<polygon fill="black" stroke="black" points="472.1,-129.3 482.1,-125.8 472.1,-122.3 472.1,-129.3"/>
</g>
</g>
</svg>
