<?xml version="1.0" encoding="UTF-8" standalone="no"?>
<!DOCTYPE svg PUBLIC "-//W3C//DTD SVG 1.1//EN"
 "http://www.w3.org/Graphics/SVG/1.1/DTD/svg11.dtd">
<!-- Generated by graphviz version 3.0.0 (20220226.1711)
 -->
<!-- Title: dependencies Pages: 1 -->
<svg width="1363pt" height="247pt"
 viewBox="0.00 0.00 1363.00 246.80" xmlns="http://www.w3.org/2000/svg" xmlns:xlink="http://www.w3.org/1999/xlink">
<g id="graph0" class="graph" transform="scale(1 1) rotate(0) translate(4 242.8)">
<title>dependencies</title>
<polygon fill="white" stroke="transparent" points="-4,4 -4,-242.8 1359,-242.8 1359,4 -4,4"/>
<text text-anchor="middle" x="677.5" y="-8.2" font-family="sans-serif" font-size="14.00">dependencies</text>
<g id="clust1" class="cluster">
<title>cluster_SafeGridWidgetModule</title>
<polygon fill="none" stroke="black" stroke-dasharray="1,5" points="8,-32.8 8,-230.8 1347,-230.8 1347,-32.8 8,-32.8"/>
</g>
<g id="clust2" class="cluster">
<title>cluster_SafeGridWidgetModule_declarations</title>
<polygon fill="none" stroke="black" points="1149,-40.8 1149,-92.8 1339,-92.8 1339,-40.8 1149,-40.8"/>
</g>
<g id="clust4" class="cluster">
<title>cluster_SafeGridWidgetModule_imports</title>
<polygon fill="none" stroke="black" points="16,-40.8 16,-92.8 1141,-92.8 1141,-40.8 16,-40.8"/>
</g>
<g id="clust5" class="cluster">
<title>cluster_SafeGridWidgetModule_exports</title>
<polygon fill="none" stroke="black" points="537,-170.8 537,-222.8 729,-222.8 729,-170.8 537,-170.8"/>
</g>
<!-- SafeGridWidgetComponent -->
<g id="node1" class="node">
<title>SafeGridWidgetComponent</title>
<polygon fill="#ffffb3" stroke="black" points="1330.58,-84.8 1157.42,-84.8 1157.42,-48.8 1330.58,-48.8 1330.58,-84.8"/>
<text text-anchor="middle" x="1244" y="-62.6" font-family="Times,serif" font-size="14.00">SafeGridWidgetComponent</text>
</g>
<!-- SafeGridWidgetModule -->
<g id="node2" class="node">
<title>SafeGridWidgetModule</title>
<polygon fill="#8dd3c7" stroke="black" points="708.8,-149.8 705.8,-153.8 684.8,-153.8 681.8,-149.8 557.2,-149.8 557.2,-113.8 708.8,-113.8 708.8,-149.8"/>
<text text-anchor="middle" x="633" y="-127.6" font-family="Times,serif" font-size="14.00">SafeGridWidgetModule</text>
</g>
<!-- SafeGridWidgetComponent&#45;&gt;SafeGridWidgetModule -->
<g id="edge1" class="edge">
<title>SafeGridWidgetComponent&#45;&gt;SafeGridWidgetModule</title>
<path fill="none" stroke="black" d="M1244,-85.09C1244,-107.01 1244,-140.8 1244,-140.8 1244,-140.8 718.84,-140.8 718.84,-140.8"/>
<polygon fill="black" stroke="black" points="718.84,-137.3 708.84,-140.8 718.84,-144.3 718.84,-137.3"/>
</g>
<!-- SafeGridWidgetComponent  -->
<g id="node9" class="node">
<title>SafeGridWidgetComponent </title>
<polygon fill="#fb8072" stroke="black" points="721.08,-214.8 544.92,-214.8 544.92,-178.8 721.08,-178.8 721.08,-214.8"/>
<text text-anchor="middle" x="633" y="-192.6" font-family="Times,serif" font-size="14.00">SafeGridWidgetComponent </text>
</g>
<!-- SafeGridWidgetModule&#45;&gt;SafeGridWidgetComponent  -->
<g id="edge8" class="edge">
<title>SafeGridWidgetModule&#45;&gt;SafeGridWidgetComponent </title>
<path fill="none" stroke="black" stroke-dasharray="5,2" d="M633,-149.91C633,-149.91 633,-168.79 633,-168.79"/>
<polygon fill="black" stroke="black" points="629.5,-168.79 633,-178.79 636.5,-168.79 629.5,-168.79"/>
</g>
<!-- EmailTemplateModalModule -->
<g id="node3" class="node">
<title>EmailTemplateModalModule</title>
<polygon fill="#8dd3c7" stroke="black" points="1133.4,-84.8 1130.4,-88.8 1109.4,-88.8 1106.4,-84.8 950.6,-84.8 950.6,-48.8 1133.4,-48.8 1133.4,-84.8"/>
<text text-anchor="middle" x="1042" y="-62.6" font-family="Times,serif" font-size="14.00">EmailTemplateModalModule</text>
</g>
<!-- EmailTemplateModalModule&#45;&gt;SafeGridWidgetModule -->
<g id="edge2" class="edge">
<title>EmailTemplateModalModule&#45;&gt;SafeGridWidgetModule</title>
<path fill="none" stroke="black" d="M1042,-84.91C1042,-104.14 1042,-131.8 1042,-131.8 1042,-131.8 718.97,-131.8 718.97,-131.8"/>
<polygon fill="black" stroke="black" points="718.97,-128.3 708.97,-131.8 718.97,-135.3 718.97,-128.3"/>
</g>
<!-- SafeAggregationGridModule -->
<g id="node4" class="node">
<title>SafeAggregationGridModule</title>
<polygon fill="#8dd3c7" stroke="black" points="933.07,-84.8 930.07,-88.8 909.07,-88.8 906.07,-84.8 752.93,-84.8 752.93,-48.8 933.07,-48.8 933.07,-84.8"/>
<text text-anchor="middle" x="843" y="-62.6" font-family="Times,serif" font-size="14.00">SafeAggregationGridModule</text>
</g>
<!-- SafeAggregationGridModule&#45;&gt;SafeGridWidgetModule -->
<g id="edge3" class="edge">
<title>SafeAggregationGridModule&#45;&gt;SafeGridWidgetModule</title>
<path fill="none" stroke="black" d="M843,-84.83C843,-101.2 843,-122.8 843,-122.8 843,-122.8 718.81,-122.8 718.81,-122.8"/>
<polygon fill="black" stroke="black" points="718.81,-119.3 708.81,-122.8 718.81,-126.3 718.81,-119.3"/>
</g>
<!-- SafeChooseRecordModalModule -->
<g id="node5" class="node">
<title>SafeChooseRecordModalModule</title>
<polygon fill="#8dd3c7" stroke="black" points="734.91,-84.8 731.91,-88.8 710.91,-88.8 707.91,-84.8 531.09,-84.8 531.09,-48.8 734.91,-48.8 734.91,-84.8"/>
<text text-anchor="middle" x="633" y="-62.6" font-family="Times,serif" font-size="14.00">SafeChooseRecordModalModule</text>
</g>
<!-- SafeChooseRecordModalModule&#45;&gt;SafeGridWidgetModule -->
<g id="edge4" class="edge">
<title>SafeChooseRecordModalModule&#45;&gt;SafeGridWidgetModule</title>
<path fill="none" stroke="black" d="M633,-84.91C633,-84.91 633,-103.79 633,-103.79"/>
<polygon fill="black" stroke="black" points="629.5,-103.79 633,-113.79 636.5,-103.79 629.5,-103.79"/>
</g>
<!-- SafeCoreGridModule -->
<g id="node6" class="node">
<title>SafeCoreGridModule</title>
<polygon fill="#8dd3c7" stroke="black" points="513.8,-84.8 510.8,-88.8 489.8,-88.8 486.8,-84.8 376.2,-84.8 376.2,-48.8 513.8,-48.8 513.8,-84.8"/>
<text text-anchor="middle" x="445" y="-62.6" font-family="Times,serif" font-size="14.00">SafeCoreGridModule</text>
</g>
<!-- SafeCoreGridModule&#45;&gt;SafeGridWidgetModule -->
<g id="edge5" class="edge">
<title>SafeCoreGridModule&#45;&gt;SafeGridWidgetModule</title>
<path fill="none" stroke="black" d="M445,-84.83C445,-101.2 445,-122.8 445,-122.8 445,-122.8 547.35,-122.8 547.35,-122.8"/>
<polygon fill="black" stroke="black" points="547.35,-126.3 557.35,-122.8 547.35,-119.3 547.35,-126.3"/>
</g>
<!-- SafeEmailPreviewModule -->
<g id="node7" class="node">
<title>SafeEmailPreviewModule</title>
<polygon fill="#8dd3c7" stroke="black" points="357.74,-84.8 354.74,-88.8 333.74,-88.8 330.74,-84.8 194.26,-84.8 194.26,-48.8 357.74,-48.8 357.74,-84.8"/>
<text text-anchor="middle" x="276" y="-62.6" font-family="Times,serif" font-size="14.00">SafeEmailPreviewModule</text>
</g>
<!-- SafeEmailPreviewModule&#45;&gt;SafeGridWidgetModule -->
<g id="edge6" class="edge">
<title>SafeEmailPreviewModule&#45;&gt;SafeGridWidgetModule</title>
<path fill="none" stroke="black" d="M276,-84.91C276,-104.14 276,-131.8 276,-131.8 276,-131.8 547.29,-131.8 547.29,-131.8"/>
<polygon fill="black" stroke="black" points="547.29,-135.3 557.29,-131.8 547.29,-128.3 547.29,-135.3"/>
</g>
<!-- SafeFormModalModule -->
<g id="node8" class="node">
<title>SafeFormModalModule</title>
<polygon fill="#8dd3c7" stroke="black" points="175.82,-84.8 172.82,-88.8 151.82,-88.8 148.82,-84.8 24.18,-84.8 24.18,-48.8 175.82,-48.8 175.82,-84.8"/>
<text text-anchor="middle" x="100" y="-62.6" font-family="Times,serif" font-size="14.00">SafeFormModalModule</text>
</g>
<!-- SafeFormModalModule&#45;&gt;SafeGridWidgetModule -->
<g id="edge7" class="edge">
<title>SafeFormModalModule&#45;&gt;SafeGridWidgetModule</title>
<path fill="none" stroke="black" d="M100,-85.09C100,-107.01 100,-140.8 100,-140.8 100,-140.8 547.2,-140.8 547.2,-140.8"/>
<polygon fill="black" stroke="black" points="547.2,-144.3 557.2,-140.8 547.2,-137.3 547.2,-144.3"/>
</g>
</g>
</svg>
