<?xml version="1.0" encoding="UTF-8" standalone="no"?>
<!DOCTYPE svg PUBLIC "-//W3C//DTD SVG 1.1//EN"
 "http://www.w3.org/Graphics/SVG/1.1/DTD/svg11.dtd">
<!-- Generated by graphviz version 3.0.0 (20220226.1711)
 -->
<!-- Title: dependencies Pages: 1 -->
<svg width="1165pt" height="247pt"
 viewBox="0.00 0.00 1165.00 246.80" xmlns="http://www.w3.org/2000/svg" xmlns:xlink="http://www.w3.org/1999/xlink">
<g id="graph0" class="graph" transform="scale(1 1) rotate(0) translate(4 242.8)">
<title>dependencies</title>
<polygon fill="white" stroke="transparent" points="-4,4 -4,-242.8 1161,-242.8 1161,4 -4,4"/>
<text text-anchor="middle" x="578.5" y="-8.2" font-family="sans-serif" font-size="14.00">dependencies</text>
<g id="clust1" class="cluster">
<title>cluster_SafeGridWidgetModule</title>
<polygon fill="none" stroke="black" stroke-dasharray="1,5" points="8,-32.8 8,-230.8 1149,-230.8 1149,-32.8 8,-32.8"/>
</g>
<g id="clust5" class="cluster">
<title>cluster_SafeGridWidgetModule_exports</title>
<polygon fill="none" stroke="black" points="443,-170.8 443,-222.8 635,-222.8 635,-170.8 443,-170.8"/>
</g>
<g id="clust2" class="cluster">
<title>cluster_SafeGridWidgetModule_declarations</title>
<polygon fill="none" stroke="black" points="951,-40.8 951,-92.8 1141,-92.8 1141,-40.8 951,-40.8"/>
</g>
<g id="clust4" class="cluster">
<title>cluster_SafeGridWidgetModule_imports</title>
<polygon fill="none" stroke="black" points="16,-40.8 16,-92.8 943,-92.8 943,-40.8 16,-40.8"/>
</g>
<!-- SafeGridWidgetComponent -->
<g id="node1" class="node">
<title>SafeGridWidgetComponent</title>
<polygon fill="#ffffb3" stroke="black" points="1132.58,-84.8 959.42,-84.8 959.42,-48.8 1132.58,-48.8 1132.58,-84.8"/>
<text text-anchor="middle" x="1046" y="-62.6" font-family="Times,serif" font-size="14.00">SafeGridWidgetComponent</text>
</g>
<!-- SafeGridWidgetModule -->
<g id="node2" class="node">
<title>SafeGridWidgetModule</title>
<polygon fill="#8dd3c7" stroke="black" points="614.8,-149.8 611.8,-153.8 590.8,-153.8 587.8,-149.8 463.2,-149.8 463.2,-113.8 614.8,-113.8 614.8,-149.8"/>
<text text-anchor="middle" x="539" y="-127.6" font-family="Times,serif" font-size="14.00">SafeGridWidgetModule</text>
</g>
<!-- SafeGridWidgetComponent&#45;&gt;SafeGridWidgetModule -->
<g id="edge1" class="edge">
<title>SafeGridWidgetComponent&#45;&gt;SafeGridWidgetModule</title>
<path fill="none" stroke="black" d="M1046,-85.08C1046,-106.12 1046,-137.8 1046,-137.8 1046,-137.8 624.9,-137.8 624.9,-137.8"/>
<polygon fill="black" stroke="black" points="624.9,-134.3 614.9,-137.8 624.9,-141.3 624.9,-134.3"/>
</g>
<!-- SafeGridWidgetComponent  -->
<g id="node8" class="node">
<title>SafeGridWidgetComponent </title>
<polygon fill="#fb8072" stroke="black" points="627.08,-214.8 450.92,-214.8 450.92,-178.8 627.08,-178.8 627.08,-214.8"/>
<text text-anchor="middle" x="539" y="-192.6" font-family="Times,serif" font-size="14.00">SafeGridWidgetComponent </text>
</g>
<!-- SafeGridWidgetModule&#45;&gt;SafeGridWidgetComponent  -->
<g id="edge7" class="edge">
<title>SafeGridWidgetModule&#45;&gt;SafeGridWidgetComponent </title>
<path fill="none" stroke="black" stroke-dasharray="5,2" d="M539,-149.91C539,-149.91 539,-168.79 539,-168.79"/>
<polygon fill="black" stroke="black" points="535.5,-168.79 539,-178.79 542.5,-168.79 535.5,-168.79"/>
</g>
<!-- EmailTemplateModalModule -->
<g id="node3" class="node">
<title>EmailTemplateModalModule</title>
<polygon fill="#8dd3c7" stroke="black" points="935.4,-84.8 932.4,-88.8 911.4,-88.8 908.4,-84.8 752.6,-84.8 752.6,-48.8 935.4,-48.8 935.4,-84.8"/>
<text text-anchor="middle" x="844" y="-62.6" font-family="Times,serif" font-size="14.00">EmailTemplateModalModule</text>
</g>
<!-- EmailTemplateModalModule&#45;&gt;SafeGridWidgetModule -->
<g id="edge2" class="edge">
<title>EmailTemplateModalModule&#45;&gt;SafeGridWidgetModule</title>
<path fill="none" stroke="black" d="M844,-84.82C844,-102.17 844,-125.8 844,-125.8 844,-125.8 624.79,-125.8 624.79,-125.8"/>
<polygon fill="black" stroke="black" points="624.79,-122.3 614.79,-125.8 624.79,-129.3 624.79,-122.3"/>
</g>
<!-- SafeChooseRecordModalModule -->
<g id="node4" class="node">
<title>SafeChooseRecordModalModule</title>
<polygon fill="#8dd3c7" stroke="black" points="734.91,-84.8 731.91,-88.8 710.91,-88.8 707.91,-84.8 531.09,-84.8 531.09,-48.8 734.91,-48.8 734.91,-84.8"/>
<text text-anchor="middle" x="633" y="-62.6" font-family="Times,serif" font-size="14.00">SafeChooseRecordModalModule</text>
</g>
<!-- SafeChooseRecordModalModule&#45;&gt;SafeGridWidgetModule -->
<g id="edge3" class="edge">
<title>SafeChooseRecordModalModule&#45;&gt;SafeGridWidgetModule</title>
<path fill="none" stroke="black" d="M572.97,-84.91C572.97,-84.91 572.97,-103.79 572.97,-103.79"/>
<polygon fill="black" stroke="black" points="569.47,-103.79 572.97,-113.79 576.47,-103.79 569.47,-103.79"/>
</g>
<!-- SafeCoreGridModule -->
<g id="node5" class="node">
<title>SafeCoreGridModule</title>
<polygon fill="#8dd3c7" stroke="black" points="513.8,-84.8 510.8,-88.8 489.8,-88.8 486.8,-84.8 376.2,-84.8 376.2,-48.8 513.8,-48.8 513.8,-84.8"/>
<text text-anchor="middle" x="445" y="-62.6" font-family="Times,serif" font-size="14.00">SafeCoreGridModule</text>
</g>
<!-- SafeCoreGridModule&#45;&gt;SafeGridWidgetModule -->
<g id="edge4" class="edge">
<title>SafeCoreGridModule&#45;&gt;SafeGridWidgetModule</title>
<path fill="none" stroke="black" d="M488.5,-84.91C488.5,-84.91 488.5,-103.79 488.5,-103.79"/>
<polygon fill="black" stroke="black" points="485,-103.79 488.5,-113.79 492,-103.79 485,-103.79"/>
</g>
<!-- SafeEmailPreviewModule -->
<g id="node6" class="node">
<title>SafeEmailPreviewModule</title>
<polygon fill="#8dd3c7" stroke="black" points="357.74,-84.8 354.74,-88.8 333.74,-88.8 330.74,-84.8 194.26,-84.8 194.26,-48.8 357.74,-48.8 357.74,-84.8"/>
<text text-anchor="middle" x="276" y="-62.6" font-family="Times,serif" font-size="14.00">SafeEmailPreviewModule</text>
</g>
<!-- SafeEmailPreviewModule&#45;&gt;SafeGridWidgetModule -->
<g id="edge5" class="edge">
<title>SafeEmailPreviewModule&#45;&gt;SafeGridWidgetModule</title>
<path fill="none" stroke="black" d="M276,-84.82C276,-102.17 276,-125.8 276,-125.8 276,-125.8 453.28,-125.8 453.28,-125.8"/>
<polygon fill="black" stroke="black" points="453.28,-129.3 463.28,-125.8 453.28,-122.3 453.28,-129.3"/>
</g>
<!-- SafeFormModalModule -->
<g id="node7" class="node">
<title>SafeFormModalModule</title>
<polygon fill="#8dd3c7" stroke="black" points="175.82,-84.8 172.82,-88.8 151.82,-88.8 148.82,-84.8 24.18,-84.8 24.18,-48.8 175.82,-48.8 175.82,-84.8"/>
<text text-anchor="middle" x="100" y="-62.6" font-family="Times,serif" font-size="14.00">SafeFormModalModule</text>
</g>
<!-- SafeFormModalModule&#45;&gt;SafeGridWidgetModule -->
<g id="edge6" class="edge">
<title>SafeFormModalModule&#45;&gt;SafeGridWidgetModule</title>
<path fill="none" stroke="black" d="M100,-85.08C100,-106.12 100,-137.8 100,-137.8 100,-137.8 453.03,-137.8 453.03,-137.8"/>
<polygon fill="black" stroke="black" points="453.03,-141.3 463.03,-137.8 453.03,-134.3 453.03,-141.3"/>
</g>
</g>
</svg>
