<?xml version="1.0" encoding="UTF-8" standalone="no"?>
<!DOCTYPE svg PUBLIC "-//W3C//DTD SVG 1.1//EN"
 "http://www.w3.org/Graphics/SVG/1.1/DTD/svg11.dtd">
<!-- Generated by graphviz version 3.0.0 (20220226.1711)
 -->
<!-- Title: dependencies Pages: 1 -->
<svg width="787pt" height="247pt"
 viewBox="0.00 0.00 787.00 246.80" xmlns="http://www.w3.org/2000/svg" xmlns:xlink="http://www.w3.org/1999/xlink">
<g id="graph0" class="graph" transform="scale(1 1) rotate(0) translate(4 242.8)">
<title>dependencies</title>
<polygon fill="white" stroke="transparent" points="-4,4 -4,-242.8 783,-242.8 783,4 -4,4"/>
<text text-anchor="middle" x="389.5" y="-8.2" font-family="sans-serif" font-size="14.00">dependencies</text>
<g id="clust1" class="cluster">
<title>cluster_SafeRecordHistoryModule</title>
<polygon fill="none" stroke="black" stroke-dasharray="1,5" points="8,-32.8 8,-230.8 771,-230.8 771,-32.8 8,-32.8"/>
</g>
<g id="clust2" class="cluster">
<title>cluster_SafeRecordHistoryModule_declarations</title>
<polygon fill="none" stroke="black" points="559,-40.8 559,-92.8 763,-92.8 763,-40.8 559,-40.8"/>
</g>
<g id="clust5" class="cluster">
<title>cluster_SafeRecordHistoryModule_exports</title>
<polygon fill="none" stroke="black" points="243,-170.8 243,-222.8 451,-222.8 451,-170.8 243,-170.8"/>
</g>
<g id="clust4" class="cluster">
<title>cluster_SafeRecordHistoryModule_imports</title>
<polygon fill="none" stroke="black" points="16,-40.8 16,-92.8 551,-92.8 551,-40.8 16,-40.8"/>
</g>
<!-- SafeRecordHistoryComponent -->
<g id="node1" class="node">
<title>SafeRecordHistoryComponent</title>
<polygon fill="#ffffb3" stroke="black" points="755.14,-84.8 566.86,-84.8 566.86,-48.8 755.14,-48.8 755.14,-84.8"/>
<text text-anchor="middle" x="661" y="-62.6" font-family="Times,serif" font-size="14.00">SafeRecordHistoryComponent</text>
</g>
<!-- SafeRecordHistoryModule -->
<g id="node2" class="node">
<title>SafeRecordHistoryModule</title>
<polygon fill="#8dd3c7" stroke="black" points="430.36,-149.8 427.36,-153.8 406.36,-153.8 403.36,-149.8 263.64,-149.8 263.64,-113.8 430.36,-113.8 430.36,-149.8"/>
<text text-anchor="middle" x="347" y="-127.6" font-family="Times,serif" font-size="14.00">SafeRecordHistoryModule</text>
</g>
<!-- SafeRecordHistoryComponent&#45;&gt;SafeRecordHistoryModule -->
<g id="edge1" class="edge">
<title>SafeRecordHistoryComponent&#45;&gt;SafeRecordHistoryModule</title>
<path fill="none" stroke="black" d="M661,-84.91C661,-104.14 661,-131.8 661,-131.8 661,-131.8 440.73,-131.8 440.73,-131.8"/>
<polygon fill="black" stroke="black" points="440.73,-128.3 430.73,-131.8 440.73,-135.3 440.73,-128.3"/>
</g>
<!-- SafeRecordHistoryComponent  -->
<g id="node7" class="node">
<title>SafeRecordHistoryComponent </title>
<polygon fill="#fb8072" stroke="black" points="443.13,-214.8 250.87,-214.8 250.87,-178.8 443.13,-178.8 443.13,-214.8"/>
<text text-anchor="middle" x="347" y="-192.6" font-family="Times,serif" font-size="14.00">SafeRecordHistoryComponent </text>
</g>
<!-- SafeRecordHistoryModule&#45;&gt;SafeRecordHistoryComponent  -->
<g id="edge6" class="edge">
<title>SafeRecordHistoryModule&#45;&gt;SafeRecordHistoryComponent </title>
<path fill="none" stroke="black" stroke-dasharray="5,2" d="M347,-149.91C347,-149.91 347,-168.79 347,-168.79"/>
<polygon fill="black" stroke="black" points="343.5,-168.79 347,-178.79 350.5,-168.79 343.5,-168.79"/>
</g>
<!-- SafeButtonModule -->
<g id="node3" class="node">
<title>SafeButtonModule</title>
<polygon fill="#8dd3c7" stroke="black" points="543.05,-84.8 540.05,-88.8 519.05,-88.8 516.05,-84.8 420.95,-84.8 420.95,-48.8 543.05,-48.8 543.05,-84.8"/>
<text text-anchor="middle" x="482" y="-62.6" font-family="Times,serif" font-size="14.00">SafeButtonModule</text>
</g>
<!-- SafeButtonModule&#45;&gt;SafeRecordHistoryModule -->
<g id="edge2" class="edge">
<title>SafeButtonModule&#45;&gt;SafeRecordHistoryModule</title>
<path fill="none" stroke="black" d="M425.58,-84.91C425.58,-84.91 425.58,-103.79 425.58,-103.79"/>
<polygon fill="black" stroke="black" points="422.08,-103.79 425.58,-113.79 429.08,-103.79 422.08,-103.79"/>
</g>
<!-- SafeDateModule -->
<g id="node4" class="node">
<title>SafeDateModule</title>
<polygon fill="#8dd3c7" stroke="black" points="402.36,-84.8 399.36,-88.8 378.36,-88.8 375.36,-84.8 291.64,-84.8 291.64,-48.8 402.36,-48.8 402.36,-84.8"/>
<text text-anchor="middle" x="347" y="-62.6" font-family="Times,serif" font-size="14.00">SafeDateModule</text>
</g>
<!-- SafeDateModule&#45;&gt;SafeRecordHistoryModule -->
<g id="edge3" class="edge">
<title>SafeDateModule&#45;&gt;SafeRecordHistoryModule</title>
<path fill="none" stroke="black" d="M347,-84.91C347,-84.91 347,-103.79 347,-103.79"/>
<polygon fill="black" stroke="black" points="343.5,-103.79 347,-113.79 350.5,-103.79 343.5,-103.79"/>
</g>
<!-- SafeEmptyModule -->
<g id="node5" class="node">
<title>SafeEmptyModule</title>
<polygon fill="#8dd3c7" stroke="black" points="273.76,-84.8 270.76,-88.8 249.76,-88.8 246.76,-84.8 152.24,-84.8 152.24,-48.8 273.76,-48.8 273.76,-84.8"/>
<text text-anchor="middle" x="213" y="-62.6" font-family="Times,serif" font-size="14.00">SafeEmptyModule</text>
</g>
<!-- SafeEmptyModule&#45;&gt;SafeRecordHistoryModule -->
<g id="edge4" class="edge">
<title>SafeEmptyModule&#45;&gt;SafeRecordHistoryModule</title>
<path fill="none" stroke="black" d="M268.73,-84.91C268.73,-84.91 268.73,-103.79 268.73,-103.79"/>
<polygon fill="black" stroke="black" points="265.23,-103.79 268.73,-113.79 272.23,-103.79 265.23,-103.79"/>
</g>
<!-- SafeIconModule -->
<g id="node6" class="node">
<title>SafeIconModule</title>
<polygon fill="#8dd3c7" stroke="black" points="133.8,-84.8 130.8,-88.8 109.8,-88.8 106.8,-84.8 24.2,-84.8 24.2,-48.8 133.8,-48.8 133.8,-84.8"/>
<text text-anchor="middle" x="79" y="-62.6" font-family="Times,serif" font-size="14.00">SafeIconModule</text>
</g>
<!-- SafeIconModule&#45;&gt;SafeRecordHistoryModule -->
<g id="edge5" class="edge">
<title>SafeIconModule&#45;&gt;SafeRecordHistoryModule</title>
<path fill="none" stroke="black" d="M79,-84.91C79,-104.14 79,-131.8 79,-131.8 79,-131.8 253.31,-131.8 253.31,-131.8"/>
<polygon fill="black" stroke="black" points="253.31,-135.3 263.31,-131.8 253.31,-128.3 253.31,-135.3"/>
</g>
</g>
</svg>
