<?xml version="1.0" encoding="UTF-8" standalone="no"?>
<!DOCTYPE svg PUBLIC "-//W3C//DTD SVG 1.1//EN"
 "http://www.w3.org/Graphics/SVG/1.1/DTD/svg11.dtd">
<!-- Generated by graphviz version 3.0.0 (20220226.1711)
 -->
<!-- Title: dependencies Pages: 1 -->
<svg width="1620pt" height="358pt"
 viewBox="0.00 0.00 1620.00 358.39" xmlns="http://www.w3.org/2000/svg" xmlns:xlink="http://www.w3.org/1999/xlink">
<g id="graph0" class="graph" transform="scale(1 1) rotate(0) translate(4 354.39)">
<title>dependencies</title>
<polygon fill="white" stroke="transparent" points="-4,4 -4,-354.39 1616,-354.39 1616,4 -4,4"/>
<text text-anchor="middle" x="806" y="-8.2" font-family="sans-serif" font-size="14.00">dependencies</text>
<g id="clust1" class="cluster">
<title>cluster_SafeGridSettingsModule</title>
<polygon fill="none" stroke="black" stroke-dasharray="1,5" points="8,-32.8 8,-342.39 1604,-342.39 1604,-32.8 8,-32.8"/>
</g>
<g id="clust3" class="cluster">
<title>cluster_SafeGridSettingsModule_SafeGridSettingsComponent_providers</title>
<polygon fill="none" stroke="black" points="704,-40.8 704,-204.39 1596,-204.39 1596,-40.8 704,-40.8"/>
</g>
<g id="clust5" class="cluster">
<title>cluster_SafeGridSettingsModule_exports</title>
<polygon fill="none" stroke="black" points="327,-282.39 327,-334.39 523,-334.39 523,-282.39 327,-282.39"/>
</g>
<g id="clust4" class="cluster">
<title>cluster_SafeGridSettingsModule_imports</title>
<polygon fill="none" stroke="black" points="16,-152.39 16,-204.39 696,-204.39 696,-152.39 16,-152.39"/>
</g>
<!-- SafeGridSettingsComponent -->
<g id="node1" class="node">
<title>SafeGridSettingsComponent</title>
<polygon fill="#ffffb3" stroke="black" points="1063.49,-196.39 886.51,-196.39 886.51,-160.39 1063.49,-160.39 1063.49,-196.39"/>
<text text-anchor="middle" x="975" y="-174.19" font-family="Times,serif" font-size="14.00">SafeGridSettingsComponent</text>
</g>
<!-- SafeGridSettingsModule -->
<g id="node2" class="node">
<title>SafeGridSettingsModule</title>
<polygon fill="#8dd3c7" stroke="black" points="502.71,-261.39 499.71,-265.39 478.71,-265.39 475.71,-261.39 347.29,-261.39 347.29,-225.39 502.71,-225.39 502.71,-261.39"/>
<text text-anchor="middle" x="425" y="-239.19" font-family="Times,serif" font-size="14.00">SafeGridSettingsModule</text>
</g>
<!-- SafeGridSettingsComponent&#45;&gt;SafeGridSettingsModule -->
<g id="edge1" class="edge">
<title>SafeGridSettingsComponent&#45;&gt;SafeGridSettingsModule</title>
<path fill="none" stroke="black" d="M975,-196.67C975,-217.71 975,-249.39 975,-249.39 975,-249.39 512.64,-249.39 512.64,-249.39"/>
<polygon fill="black" stroke="black" points="512.64,-245.89 502.64,-249.39 512.64,-252.89 512.64,-245.89"/>
</g>
<!-- SafeGridSettingsComponent  -->
<g id="node9" class="node">
<title>SafeGridSettingsComponent </title>
<polygon fill="#fb8072" stroke="black" points="515.49,-326.39 334.51,-326.39 334.51,-290.39 515.49,-290.39 515.49,-326.39"/>
<text text-anchor="middle" x="425" y="-304.19" font-family="Times,serif" font-size="14.00">SafeGridSettingsComponent </text>
</g>
<!-- SafeGridSettingsModule&#45;&gt;SafeGridSettingsComponent  -->
<g id="edge8" class="edge">
<title>SafeGridSettingsModule&#45;&gt;SafeGridSettingsComponent </title>
<path fill="none" stroke="black" stroke-dasharray="5,2" d="M425,-261.5C425,-261.5 425,-280.38 425,-280.38"/>
<polygon fill="black" stroke="black" points="421.5,-280.38 425,-290.38 428.5,-280.38 421.5,-280.38"/>
</g>
<!-- {
 &#160;&#160;&#160;provide: MAT_AUTOCOMPLETE_SCROLL_STRATEGY, useFactory: scrollFactory, deps: [Overlay],
} -->
<g id="node3" class="node">
<title>{
 &#160;&#160;&#160;provide: MAT_AUTOCOMPLETE_SCROLL_STRATEGY, useFactory: scrollFactory, deps: [Overlay],
}</title>
<ellipse fill="#fdb462" stroke="black" cx="1150" cy="-90.1" rx="438.07" ry="41.09"/>
<text text-anchor="middle" x="1150" y="-102.7" font-family="Times,serif" font-size="14.00">{</text>
<text text-anchor="middle" x="1150" y="-85.9" font-family="Times,serif" font-size="14.00"> &#160;&#160;&#160;provide: MAT_AUTOCOMPLETE_SCROLL_STRATEGY, useFactory: scrollFactory, deps: [Overlay],</text>
<text text-anchor="middle" x="1150" y="-69.1" font-family="Times,serif" font-size="14.00">}</text>
</g>
<!-- {
 &#160;&#160;&#160;provide: MAT_AUTOCOMPLETE_SCROLL_STRATEGY, useFactory: scrollFactory, deps: [Overlay],
}&#45;&gt;SafeGridSettingsComponent -->
<g id="edge2" class="edge">
<title>{
 &#160;&#160;&#160;provide: MAT_AUTOCOMPLETE_SCROLL_STRATEGY, useFactory: scrollFactory, deps: [Overlay],
}&#45;&gt;SafeGridSettingsComponent</title>
<path fill="none" stroke="black" d="M975,-128.05C975,-128.05 975,-150.36 975,-150.36"/>
<polygon fill="black" stroke="black" points="971.5,-150.36 975,-160.36 978.5,-150.36 971.5,-150.36"/>
</g>
<!-- SafeButtonModule -->
<g id="node4" class="node">
<title>SafeButtonModule</title>
<polygon fill="#8dd3c7" stroke="black" points="688.05,-196.39 685.05,-200.39 664.05,-200.39 661.05,-196.39 565.95,-196.39 565.95,-160.39 688.05,-160.39 688.05,-196.39"/>
<text text-anchor="middle" x="627" y="-174.19" font-family="Times,serif" font-size="14.00">SafeButtonModule</text>
</g>
<!-- SafeButtonModule&#45;&gt;SafeGridSettingsModule -->
<g id="edge3" class="edge">
<title>SafeButtonModule&#45;&gt;SafeGridSettingsModule</title>
<path fill="none" stroke="black" d="M627,-196.41C627,-213.76 627,-237.39 627,-237.39 627,-237.39 512.81,-237.39 512.81,-237.39"/>
<polygon fill="black" stroke="black" points="512.81,-233.89 502.81,-237.39 512.81,-240.89 512.81,-233.89"/>
</g>
<!-- SafeIconModule -->
<g id="node5" class="node">
<title>SafeIconModule</title>
<polygon fill="#8dd3c7" stroke="black" points="547.8,-196.39 544.8,-200.39 523.8,-200.39 520.8,-196.39 438.2,-196.39 438.2,-160.39 547.8,-160.39 547.8,-196.39"/>
<text text-anchor="middle" x="493" y="-174.19" font-family="Times,serif" font-size="14.00">SafeIconModule</text>
</g>
<!-- SafeIconModule&#45;&gt;SafeGridSettingsModule -->
<g id="edge4" class="edge">
<title>SafeIconModule&#45;&gt;SafeGridSettingsModule</title>
<path fill="none" stroke="black" d="M470.48,-196.5C470.48,-196.5 470.48,-215.38 470.48,-215.38"/>
<polygon fill="black" stroke="black" points="466.98,-215.38 470.48,-225.38 473.98,-215.38 466.98,-215.38"/>
</g>
<!-- TabActionsModule -->
<g id="node6" class="node">
<title>TabActionsModule</title>
<polygon fill="#8dd3c7" stroke="black" points="420.37,-196.39 417.37,-200.39 396.37,-200.39 393.37,-196.39 295.63,-196.39 295.63,-160.39 420.37,-160.39 420.37,-196.39"/>
<text text-anchor="middle" x="358" y="-174.19" font-family="Times,serif" font-size="14.00">TabActionsModule</text>
</g>
<!-- TabActionsModule&#45;&gt;SafeGridSettingsModule -->
<g id="edge5" class="edge">
<title>TabActionsModule&#45;&gt;SafeGridSettingsModule</title>
<path fill="none" stroke="black" d="M383.92,-196.5C383.92,-196.5 383.92,-215.38 383.92,-215.38"/>
<polygon fill="black" stroke="black" points="380.42,-215.38 383.92,-225.38 387.42,-215.38 380.42,-215.38"/>
</g>
<!-- TabButtonsModule -->
<g id="node7" class="node">
<title>TabButtonsModule</title>
<polygon fill="#8dd3c7" stroke="black" points="277.38,-196.39 274.38,-200.39 253.38,-200.39 250.38,-196.39 152.62,-196.39 152.62,-160.39 277.38,-160.39 277.38,-196.39"/>
<text text-anchor="middle" x="215" y="-174.19" font-family="Times,serif" font-size="14.00">TabButtonsModule</text>
</g>
<!-- TabButtonsModule&#45;&gt;SafeGridSettingsModule -->
<g id="edge6" class="edge">
<title>TabButtonsModule&#45;&gt;SafeGridSettingsModule</title>
<path fill="none" stroke="black" d="M215,-196.41C215,-213.76 215,-237.39 215,-237.39 215,-237.39 337.1,-237.39 337.1,-237.39"/>
<polygon fill="black" stroke="black" points="337.1,-240.89 347.1,-237.39 337.1,-233.89 337.1,-240.89"/>
</g>
<!-- TabMainModule -->
<g id="node8" class="node">
<title>TabMainModule</title>
<polygon fill="#8dd3c7" stroke="black" points="134.37,-196.39 131.37,-200.39 110.37,-200.39 107.37,-196.39 23.63,-196.39 23.63,-160.39 134.37,-160.39 134.37,-196.39"/>
<text text-anchor="middle" x="79" y="-174.19" font-family="Times,serif" font-size="14.00">TabMainModule</text>
</g>
<!-- TabMainModule&#45;&gt;SafeGridSettingsModule -->
<g id="edge7" class="edge">
<title>TabMainModule&#45;&gt;SafeGridSettingsModule</title>
<path fill="none" stroke="black" d="M79,-196.67C79,-217.71 79,-249.39 79,-249.39 79,-249.39 337.35,-249.39 337.35,-249.39"/>
<polygon fill="black" stroke="black" points="337.35,-252.89 347.35,-249.39 337.35,-245.89 337.35,-252.89"/>
</g>
</g>
</svg>
