<?xml version="1.0" encoding="UTF-8" standalone="no"?>
<!DOCTYPE svg PUBLIC "-//W3C//DTD SVG 1.1//EN"
 "http://www.w3.org/Graphics/SVG/1.1/DTD/svg11.dtd">
<!-- Generated by graphviz version 3.0.0 (20220226.1711)
 -->
<!-- Title: dependencies Pages: 1 -->
<svg width="1620pt" height="358pt"
 viewBox="0.00 0.00 1620.00 358.39" xmlns="http://www.w3.org/2000/svg" xmlns:xlink="http://www.w3.org/1999/xlink">
<g id="graph0" class="graph" transform="scale(1 1) rotate(0) translate(4 354.39)">
<title>dependencies</title>
<polygon fill="white" stroke="transparent" points="-4,4 -4,-354.39 1616,-354.39 1616,4 -4,4"/>
<text text-anchor="middle" x="806" y="-8.2" font-family="sans-serif" font-size="14.00">dependencies</text>
<g id="clust1" class="cluster">
<title>cluster_SafeGridSettingsModule</title>
<polygon fill="none" stroke="black" stroke-dasharray="1,5" points="8,-32.8 8,-342.39 1604,-342.39 1604,-32.8 8,-32.8"/>
</g>
<g id="clust4" class="cluster">
<title>cluster_SafeGridSettingsModule_imports</title>
<polygon fill="none" stroke="black" points="916,-152.39 916,-204.39 1596,-204.39 1596,-152.39 916,-152.39"/>
</g>
<g id="clust5" class="cluster">
<title>cluster_SafeGridSettingsModule_exports</title>
<polygon fill="none" stroke="black" points="1088,-282.39 1088,-334.39 1284,-334.39 1284,-282.39 1088,-282.39"/>
</g>
<g id="clust3" class="cluster">
<title>cluster_SafeGridSettingsModule_SafeGridSettingsComponent_providers</title>
<polygon fill="none" stroke="black" points="16,-40.8 16,-204.39 908,-204.39 908,-40.8 16,-40.8"/>
</g>
<!-- SafeGridSettingsComponent -->
<g id="node1" class="node">
<title>SafeGridSettingsComponent</title>
<polygon fill="#ffffb3" stroke="black" points="725.49,-196.39 548.51,-196.39 548.51,-160.39 725.49,-160.39 725.49,-196.39"/>
<text text-anchor="middle" x="637" y="-174.19" font-family="Times,serif" font-size="14.00">SafeGridSettingsComponent</text>
</g>
<!-- SafeGridSettingsModule -->
<g id="node2" class="node">
<title>SafeGridSettingsModule</title>
<polygon fill="#8dd3c7" stroke="black" points="1263.71,-261.39 1260.71,-265.39 1239.71,-265.39 1236.71,-261.39 1108.29,-261.39 1108.29,-225.39 1263.71,-225.39 1263.71,-261.39"/>
<text text-anchor="middle" x="1186" y="-239.19" font-family="Times,serif" font-size="14.00">SafeGridSettingsModule</text>
</g>
<!-- SafeGridSettingsComponent&#45;&gt;SafeGridSettingsModule -->
<g id="edge1" class="edge">
<title>SafeGridSettingsComponent&#45;&gt;SafeGridSettingsModule</title>
<path fill="none" stroke="black" d="M637,-196.67C637,-217.71 637,-249.39 637,-249.39 637,-249.39 1098.22,-249.39 1098.22,-249.39"/>
<polygon fill="black" stroke="black" points="1098.22,-252.89 1108.22,-249.39 1098.22,-245.89 1098.22,-252.89"/>
</g>
<!-- SafeGridSettingsComponent  -->
<g id="node9" class="node">
<title>SafeGridSettingsComponent </title>
<polygon fill="#fb8072" stroke="black" points="1276.49,-326.39 1095.51,-326.39 1095.51,-290.39 1276.49,-290.39 1276.49,-326.39"/>
<text text-anchor="middle" x="1186" y="-304.19" font-family="Times,serif" font-size="14.00">SafeGridSettingsComponent </text>
</g>
<!-- SafeGridSettingsModule&#45;&gt;SafeGridSettingsComponent  -->
<g id="edge8" class="edge">
<title>SafeGridSettingsModule&#45;&gt;SafeGridSettingsComponent </title>
<path fill="none" stroke="black" stroke-dasharray="5,2" d="M1186,-261.5C1186,-261.5 1186,-280.38 1186,-280.38"/>
<polygon fill="black" stroke="black" points="1182.5,-280.38 1186,-290.38 1189.5,-280.38 1182.5,-280.38"/>
</g>
<!-- {
 &#160;&#160;&#160;provide: MAT_AUTOCOMPLETE_SCROLL_STRATEGY, useFactory: scrollFactory, deps: [Overlay],
} -->
<g id="node3" class="node">
<title>{
 &#160;&#160;&#160;provide: MAT_AUTOCOMPLETE_SCROLL_STRATEGY, useFactory: scrollFactory, deps: [Overlay],
}</title>
<ellipse fill="#fdb462" stroke="black" cx="462" cy="-90.1" rx="438.07" ry="41.09"/>
<text text-anchor="middle" x="462" y="-102.7" font-family="Times,serif" font-size="14.00">{</text>
<text text-anchor="middle" x="462" y="-85.9" font-family="Times,serif" font-size="14.00"> &#160;&#160;&#160;provide: MAT_AUTOCOMPLETE_SCROLL_STRATEGY, useFactory: scrollFactory, deps: [Overlay],</text>
<text text-anchor="middle" x="462" y="-69.1" font-family="Times,serif" font-size="14.00">}</text>
</g>
<!-- {
 &#160;&#160;&#160;provide: MAT_AUTOCOMPLETE_SCROLL_STRATEGY, useFactory: scrollFactory, deps: [Overlay],
}&#45;&gt;SafeGridSettingsComponent -->
<g id="edge2" class="edge">
<title>{
 &#160;&#160;&#160;provide: MAT_AUTOCOMPLETE_SCROLL_STRATEGY, useFactory: scrollFactory, deps: [Overlay],
}&#45;&gt;SafeGridSettingsComponent</title>
<path fill="none" stroke="black" d="M637,-128.05C637,-128.05 637,-150.36 637,-150.36"/>
<polygon fill="black" stroke="black" points="633.5,-150.36 637,-160.36 640.5,-150.36 633.5,-150.36"/>
</g>
<!-- SafeButtonModule -->
<g id="node4" class="node">
<title>SafeButtonModule</title>
<polygon fill="#8dd3c7" stroke="black" points="1588.05,-196.39 1585.05,-200.39 1564.05,-200.39 1561.05,-196.39 1465.95,-196.39 1465.95,-160.39 1588.05,-160.39 1588.05,-196.39"/>
<text text-anchor="middle" x="1527" y="-174.19" font-family="Times,serif" font-size="14.00">SafeButtonModule</text>
</g>
<!-- SafeButtonModule&#45;&gt;SafeGridSettingsModule -->
<g id="edge3" class="edge">
<title>SafeButtonModule&#45;&gt;SafeGridSettingsModule</title>
<path fill="none" stroke="black" d="M1527,-196.67C1527,-217.71 1527,-249.39 1527,-249.39 1527,-249.39 1273.8,-249.39 1273.8,-249.39"/>
<polygon fill="black" stroke="black" points="1273.8,-245.89 1263.8,-249.39 1273.8,-252.89 1273.8,-245.89"/>
</g>
<!-- SafeIconModule -->
<g id="node5" class="node">
<title>SafeIconModule</title>
<polygon fill="#8dd3c7" stroke="black" points="1447.8,-196.39 1444.8,-200.39 1423.8,-200.39 1420.8,-196.39 1338.2,-196.39 1338.2,-160.39 1447.8,-160.39 1447.8,-196.39"/>
<text text-anchor="middle" x="1393" y="-174.19" font-family="Times,serif" font-size="14.00">SafeIconModule</text>
</g>
<!-- SafeIconModule&#45;&gt;SafeGridSettingsModule -->
<g id="edge4" class="edge">
<title>SafeIconModule&#45;&gt;SafeGridSettingsModule</title>
<path fill="none" stroke="black" d="M1393,-196.41C1393,-213.76 1393,-237.39 1393,-237.39 1393,-237.39 1273.67,-237.39 1273.67,-237.39"/>
<polygon fill="black" stroke="black" points="1273.67,-233.89 1263.67,-237.39 1273.67,-240.89 1273.67,-233.89"/>
</g>
<!-- TabActionsModule -->
<g id="node6" class="node">
<title>TabActionsModule</title>
<polygon fill="#8dd3c7" stroke="black" points="1320.37,-196.39 1317.37,-200.39 1296.37,-200.39 1293.37,-196.39 1195.63,-196.39 1195.63,-160.39 1320.37,-160.39 1320.37,-196.39"/>
<text text-anchor="middle" x="1258" y="-174.19" font-family="Times,serif" font-size="14.00">TabActionsModule</text>
</g>
<!-- TabActionsModule&#45;&gt;SafeGridSettingsModule -->
<g id="edge5" class="edge">
<title>TabActionsModule&#45;&gt;SafeGridSettingsModule</title>
<path fill="none" stroke="black" d="M1229.58,-196.5C1229.58,-196.5 1229.58,-215.38 1229.58,-215.38"/>
<polygon fill="black" stroke="black" points="1226.08,-215.38 1229.58,-225.38 1233.08,-215.38 1226.08,-215.38"/>
</g>
<!-- TabButtonsModule -->
<g id="node7" class="node">
<title>TabButtonsModule</title>
<polygon fill="#8dd3c7" stroke="black" points="1177.38,-196.39 1174.38,-200.39 1153.38,-200.39 1150.38,-196.39 1052.62,-196.39 1052.62,-160.39 1177.38,-160.39 1177.38,-196.39"/>
<text text-anchor="middle" x="1115" y="-174.19" font-family="Times,serif" font-size="14.00">TabButtonsModule</text>
</g>
<!-- TabButtonsModule&#45;&gt;SafeGridSettingsModule -->
<g id="edge6" class="edge">
<title>TabButtonsModule&#45;&gt;SafeGridSettingsModule</title>
<path fill="none" stroke="black" d="M1142.92,-196.5C1142.92,-196.5 1142.92,-215.38 1142.92,-215.38"/>
<polygon fill="black" stroke="black" points="1139.42,-215.38 1142.92,-225.38 1146.42,-215.38 1139.42,-215.38"/>
</g>
<!-- TabMainModule -->
<g id="node8" class="node">
<title>TabMainModule</title>
<polygon fill="#8dd3c7" stroke="black" points="1034.37,-196.39 1031.37,-200.39 1010.37,-200.39 1007.37,-196.39 923.63,-196.39 923.63,-160.39 1034.37,-160.39 1034.37,-196.39"/>
<text text-anchor="middle" x="979" y="-174.19" font-family="Times,serif" font-size="14.00">TabMainModule</text>
</g>
<!-- TabMainModule&#45;&gt;SafeGridSettingsModule -->
<g id="edge7" class="edge">
<title>TabMainModule&#45;&gt;SafeGridSettingsModule</title>
<path fill="none" stroke="black" d="M979,-196.41C979,-213.76 979,-237.39 979,-237.39 979,-237.39 1098.33,-237.39 1098.33,-237.39"/>
<polygon fill="black" stroke="black" points="1098.33,-240.89 1108.33,-237.39 1098.33,-233.89 1098.33,-240.89"/>
</g>
</g>
</svg>
