<?xml version="1.0" encoding="UTF-8" standalone="no"?>
<!DOCTYPE svg PUBLIC "-//W3C//DTD SVG 1.1//EN"
 "http://www.w3.org/Graphics/SVG/1.1/DTD/svg11.dtd">
<!-- Generated by graphviz version 2.47.0 (20210316.0004)
 -->
<!-- Title: dependencies Pages: 1 -->
<svg width="5407pt" height="211pt"
 viewBox="0.00 0.00 5407.00 211.00" xmlns="http://www.w3.org/2000/svg" xmlns:xlink="http://www.w3.org/1999/xlink">
<g id="graph0" class="graph" transform="scale(1 1) rotate(0) translate(4 207)">
<title>dependencies</title>
<polygon fill="white" stroke="transparent" points="-4,4 -4,-207 5403,-207 5403,4 -4,4"/>
<text text-anchor="start" x="2678.51" y="-42.4" font-family="sans-serif" font-weight="bold" font-size="14.00">Legend</text>
<polygon fill="#ffffb3" stroke="transparent" points="2465.5,-10 2465.5,-30 2485.5,-30 2485.5,-10 2465.5,-10"/>
<text text-anchor="start" x="2489.13" y="-15.4" font-family="sans-serif" font-size="14.00"> &#160;Declarations</text>
<polygon fill="#8dd3c7" stroke="transparent" points="2578.5,-10 2578.5,-30 2598.5,-30 2598.5,-10 2578.5,-10"/>
<text text-anchor="start" x="2602.23" y="-15.4" font-family="sans-serif" font-size="14.00"> &#160;Module</text>
<polygon fill="#80b1d3" stroke="transparent" points="2664.5,-10 2664.5,-30 2684.5,-30 2684.5,-10 2664.5,-10"/>
<text text-anchor="start" x="2688.28" y="-15.4" font-family="sans-serif" font-size="14.00"> &#160;Bootstrap</text>
<polygon fill="#fdb462" stroke="transparent" points="2761.5,-10 2761.5,-30 2781.5,-30 2781.5,-10 2761.5,-10"/>
<text text-anchor="start" x="2785.17" y="-15.4" font-family="sans-serif" font-size="14.00"> &#160;Providers</text>
<polygon fill="#fb8072" stroke="transparent" points="2857.5,-10 2857.5,-30 2877.5,-30 2877.5,-10 2857.5,-10"/>
<text text-anchor="start" x="2881.23" y="-15.4" font-family="sans-serif" font-size="14.00"> &#160;Exports</text>
<g id="clust1" class="cluster">
<title>cluster_SafeModule</title>
<polygon fill="none" stroke="black" stroke-dasharray="1,5" points="8,-70 8,-195 5391,-195 5391,-70 8,-70"/>
</g>
<g id="clust4" class="cluster">
<title>cluster_SafeModule_exports</title>
<polygon fill="none" stroke="black" points="16,-135 16,-187 5383,-187 5383,-135 16,-135"/>
</g>
<!-- SafeAccessModule  -->
<g id="node1" class="node">
<title>SafeAccessModule </title>
<polygon fill="#fb8072" stroke="black" points="5374.56,-179 5247.44,-179 5247.44,-143 5374.56,-143 5374.56,-179"/>
<text text-anchor="middle" x="5311" y="-156.8" font-family="Times,serif" font-size="14.00">SafeAccessModule </text>
</g>
<!-- SafeApplicationsSummaryModule  -->
<g id="node2" class="node">
<title>SafeApplicationsSummaryModule </title>
<polygon fill="#fb8072" stroke="black" points="5228.9,-179 5015.1,-179 5015.1,-143 5228.9,-143 5228.9,-179"/>
<text text-anchor="middle" x="5122" y="-156.8" font-family="Times,serif" font-size="14.00">SafeApplicationsSummaryModule </text>
</g>
<!-- SafeButtonModule  -->
<g id="node3" class="node">
<title>SafeButtonModule </title>
<polygon fill="#fb8072" stroke="black" points="4997.04,-179 4870.96,-179 4870.96,-143 4997.04,-143 4997.04,-179"/>
<text text-anchor="middle" x="4934" y="-156.8" font-family="Times,serif" font-size="14.00">SafeButtonModule </text>
</g>
<!-- SafeChartModule  -->
<g id="node4" class="node">
<title>SafeChartModule </title>
<polygon fill="#fb8072" stroke="black" points="4852.52,-179 4733.48,-179 4733.48,-143 4852.52,-143 4852.52,-179"/>
<text text-anchor="middle" x="4793" y="-156.8" font-family="Times,serif" font-size="14.00">SafeChartModule </text>
</g>
<!-- SafeChartSettingsModule  -->
<g id="node5" class="node">
<title>SafeChartSettingsModule </title>
<polygon fill="#fb8072" stroke="black" points="4715.14,-179 4550.86,-179 4550.86,-143 4715.14,-143 4715.14,-179"/>
<text text-anchor="middle" x="4633" y="-156.8" font-family="Times,serif" font-size="14.00">SafeChartSettingsModule </text>
</g>
<!-- SafeConfirmModalModule  -->
<g id="node6" class="node">
<title>SafeConfirmModalModule </title>
<polygon fill="#fb8072" stroke="black" points="4532.91,-179 4361.09,-179 4361.09,-143 4532.91,-143 4532.91,-179"/>
<text text-anchor="middle" x="4447" y="-156.8" font-family="Times,serif" font-size="14.00">SafeConfirmModalModule </text>
</g>
<!-- SafeContentChoiceModule  -->
<g id="node7" class="node">
<title>SafeContentChoiceModule </title>
<polygon fill="#fb8072" stroke="black" points="4342.91,-179 4171.09,-179 4171.09,-143 4342.91,-143 4342.91,-179"/>
<text text-anchor="middle" x="4257" y="-156.8" font-family="Times,serif" font-size="14.00">SafeContentChoiceModule </text>
</g>
<!-- SafeConvertModalModule  -->
<g id="node8" class="node">
<title>SafeConvertModalModule </title>
<polygon fill="#fb8072" stroke="black" points="4152.57,-179 3983.43,-179 3983.43,-143 4152.57,-143 4152.57,-179"/>
<text text-anchor="middle" x="4068" y="-156.8" font-family="Times,serif" font-size="14.00">SafeConvertModalModule </text>
</g>
<!-- SafeEditorModule  -->
<g id="node9" class="node">
<title>SafeEditorModule </title>
<polygon fill="#fb8072" stroke="black" points="3965.42,-179 3842.58,-179 3842.58,-143 3965.42,-143 3965.42,-179"/>
<text text-anchor="middle" x="3904" y="-156.8" font-family="Times,serif" font-size="14.00">SafeEditorModule </text>
</g>
<!-- SafeEditorSettingsModule  -->
<g id="node10" class="node">
<title>SafeEditorSettingsModule </title>
<polygon fill="#fb8072" stroke="black" points="3825.03,-179 3656.97,-179 3656.97,-143 3825.03,-143 3825.03,-179"/>
<text text-anchor="middle" x="3741" y="-156.8" font-family="Times,serif" font-size="14.00">SafeEditorSettingsModule </text>
</g>
<!-- SafeFormBuilderModule  -->
<g id="node11" class="node">
<title>SafeFormBuilderModule </title>
<polygon fill="#fb8072" stroke="black" points="3639.25,-179 3478.75,-179 3478.75,-143 3639.25,-143 3639.25,-179"/>
<text text-anchor="middle" x="3559" y="-156.8" font-family="Times,serif" font-size="14.00">SafeFormBuilderModule </text>
</g>
<!-- SafeFormModule  -->
<g id="node12" class="node">
<title>SafeFormModule </title>
<polygon fill="#fb8072" stroke="black" points="3461.26,-179 3342.74,-179 3342.74,-143 3461.26,-143 3461.26,-179"/>
<text text-anchor="middle" x="3402" y="-156.8" font-family="Times,serif" font-size="14.00">SafeFormModule </text>
</g>
<!-- SafeGridSettingsModule  -->
<g id="node13" class="node">
<title>SafeGridSettingsModule </title>
<polygon fill="#fb8072" stroke="black" points="3325.19,-179 3166.81,-179 3166.81,-143 3325.19,-143 3325.19,-179"/>
<text text-anchor="middle" x="3246" y="-156.8" font-family="Times,serif" font-size="14.00">SafeGridSettingsModule </text>
</g>
<!-- SafeGridWidgetModule  -->
<g id="node14" class="node">
<title>SafeGridWidgetModule </title>
<polygon fill="#fb8072" stroke="black" points="3148.29,-179 2993.71,-179 2993.71,-143 3148.29,-143 3148.29,-179"/>
<text text-anchor="middle" x="3071" y="-156.8" font-family="Times,serif" font-size="14.00">SafeGridWidgetModule </text>
</g>
<!-- SafeLayoutModule  -->
<g id="node15" class="node">
<title>SafeLayoutModule </title>
<polygon fill="#fb8072" stroke="black" points="2975.58,-179 2848.42,-179 2848.42,-143 2975.58,-143 2975.58,-179"/>
<text text-anchor="middle" x="2912" y="-156.8" font-family="Times,serif" font-size="14.00">SafeLayoutModule </text>
</g>
<!-- SafeMapModule  -->
<g id="node16" class="node">
<title>SafeMapModule </title>
<polygon fill="#fb8072" stroke="black" points="2829.58,-179 2716.42,-179 2716.42,-143 2829.58,-143 2829.58,-179"/>
<text text-anchor="middle" x="2773" y="-156.8" font-family="Times,serif" font-size="14.00">SafeMapModule </text>
</g>
<!-- SafeMapSettingsModule  -->
<g id="node17" class="node">
<title>SafeMapSettingsModule </title>
<polygon fill="#fb8072" stroke="black" points="2698.2,-179 2539.8,-179 2539.8,-143 2698.2,-143 2698.2,-179"/>
<text text-anchor="middle" x="2619" y="-156.8" font-family="Times,serif" font-size="14.00">SafeMapSettingsModule </text>
</g>
<!-- SafePreviousButtonModule  -->
<g id="node18" class="node">
<title>SafePreviousButtonModule </title>
<polygon fill="#fb8072" stroke="black" points="2521.53,-179 2346.47,-179 2346.47,-143 2521.53,-143 2521.53,-179"/>
<text text-anchor="middle" x="2434" y="-156.8" font-family="Times,serif" font-size="14.00">SafePreviousButtonModule </text>
</g>
<!-- SafeProfileModule  -->
<g id="node19" class="node">
<title>SafeProfileModule </title>
<polygon fill="#fb8072" stroke="black" points="2328.02,-179 2201.98,-179 2201.98,-143 2328.02,-143 2328.02,-179"/>
<text text-anchor="middle" x="2265" y="-156.8" font-family="Times,serif" font-size="14.00">SafeProfileModule </text>
</g>
<!-- SafeRecordHistoryModule  -->
<g id="node20" class="node">
<title>SafeRecordHistoryModule </title>
<polygon fill="#fb8072" stroke="black" points="2184.34,-179 2013.66,-179 2013.66,-143 2184.34,-143 2184.34,-179"/>
<text text-anchor="middle" x="2099" y="-156.8" font-family="Times,serif" font-size="14.00">SafeRecordHistoryModule </text>
</g>
<!-- SafeRecordModalModule  -->
<g id="node21" class="node">
<title>SafeRecordModalModule </title>
<polygon fill="#fb8072" stroke="black" points="1995.4,-179 1830.6,-179 1830.6,-143 1995.4,-143 1995.4,-179"/>
<text text-anchor="middle" x="1913" y="-156.8" font-family="Times,serif" font-size="14.00">SafeRecordModalModule </text>
</g>
<!-- SafeRolesModule  -->
<g id="node22" class="node">
<title>SafeRolesModule </title>
<polygon fill="#fb8072" stroke="black" points="1812.81,-179 1693.19,-179 1693.19,-143 1812.81,-143 1812.81,-179"/>
<text text-anchor="middle" x="1753" y="-156.8" font-family="Times,serif" font-size="14.00">SafeRolesModule </text>
</g>
<!-- SafeSchedulerModule  -->
<g id="node23" class="node">
<title>SafeSchedulerModule </title>
<polygon fill="#fb8072" stroke="black" points="1674.9,-179 1531.1,-179 1531.1,-143 1674.9,-143 1674.9,-179"/>
<text text-anchor="middle" x="1603" y="-156.8" font-family="Times,serif" font-size="14.00">SafeSchedulerModule </text>
</g>
<!-- SafeSchedulerSettingsModule  -->
<g id="node24" class="node">
<title>SafeSchedulerSettingsModule </title>
<polygon fill="#fb8072" stroke="black" points="1513.51,-179 1324.49,-179 1324.49,-143 1513.51,-143 1513.51,-179"/>
<text text-anchor="middle" x="1419" y="-156.8" font-family="Times,serif" font-size="14.00">SafeSchedulerSettingsModule </text>
</g>
<!-- SafeSearchResourceGridModalModule  -->
<g id="node25" class="node">
<title>SafeSearchResourceGridModalModule </title>
<polygon fill="#fb8072" stroke="black" points="1306.3,-179 1065.7,-179 1065.7,-143 1306.3,-143 1306.3,-179"/>
<text text-anchor="middle" x="1186" y="-156.8" font-family="Times,serif" font-size="14.00">SafeSearchResourceGridModalModule </text>
</g>
<!-- SafeSnackbarSpinnerModule  -->
<g id="node26" class="node">
<title>SafeSnackbarSpinnerModule </title>
<polygon fill="#fb8072" stroke="black" points="1047.56,-179 864.44,-179 864.44,-143 1047.56,-143 1047.56,-179"/>
<text text-anchor="middle" x="956" y="-156.8" font-family="Times,serif" font-size="14.00">SafeSnackbarSpinnerModule </text>
</g>
<!-- SafeStatusModalModule  -->
<g id="node27" class="node">
<title>SafeStatusModalModule </title>
<polygon fill="#fb8072" stroke="black" points="846.2,-179 687.8,-179 687.8,-143 846.2,-143 846.2,-179"/>
<text text-anchor="middle" x="767" y="-156.8" font-family="Times,serif" font-size="14.00">SafeStatusModalModule </text>
</g>
<!-- SafeUsersModule  -->
<g id="node28" class="node">
<title>SafeUsersModule </title>
<polygon fill="#fb8072" stroke="black" points="669.79,-179 550.21,-179 550.21,-143 669.79,-143 669.79,-179"/>
<text text-anchor="middle" x="610" y="-156.8" font-family="Times,serif" font-size="14.00">SafeUsersModule </text>
</g>
<!-- SafeWidgetGridModule  -->
<g id="node29" class="node">
<title>SafeWidgetGridModule </title>
<polygon fill="#fb8072" stroke="black" points="532.29,-179 377.71,-179 377.71,-143 532.29,-143 532.29,-179"/>
<text text-anchor="middle" x="455" y="-156.8" font-family="Times,serif" font-size="14.00">SafeWidgetGridModule </text>
</g>
<!-- SafeWidgetModule  -->
<g id="node30" class="node">
<title>SafeWidgetModule </title>
<polygon fill="#fb8072" stroke="black" points="359.63,-179 230.37,-179 230.37,-143 359.63,-143 359.63,-179"/>
<text text-anchor="middle" x="295" y="-156.8" font-family="Times,serif" font-size="14.00">SafeWidgetModule </text>
</g>
<!-- SafeWorkflowStepperModule  -->
<g id="node31" class="node">
<title>SafeWorkflowStepperModule </title>
<polygon fill="#fb8072" stroke="black" points="212.22,-179 23.78,-179 23.78,-143 212.22,-143 212.22,-179"/>
<text text-anchor="middle" x="118" y="-156.8" font-family="Times,serif" font-size="14.00">SafeWorkflowStepperModule </text>
</g>
<!-- SafeModule -->
<g id="node32" class="node">
<title>SafeModule</title>
<polygon fill="#8dd3c7" stroke="black" points="2815.42,-114 2812.42,-118 2791.42,-118 2788.42,-114 2730.58,-114 2730.58,-78 2815.42,-78 2815.42,-114"/>
<text text-anchor="middle" x="2773" y="-91.8" font-family="Times,serif" font-size="14.00">SafeModule</text>
</g>
<!-- SafeModule&#45;&gt;SafeAccessModule  -->
<g id="edge1" class="edge">
<title>SafeModule&#45;&gt;SafeAccessModule </title>
<path fill="none" stroke="black" stroke-dasharray="5,2" d="M2815.46,-81C3147.21,-81 5311,-81 5311,-81 5311,-81 5311,-132.85 5311,-132.85"/>
<polygon fill="black" stroke="black" points="5307.5,-132.85 5311,-142.85 5314.5,-132.85 5307.5,-132.85"/>
</g>
<!-- SafeModule&#45;&gt;SafeApplicationsSummaryModule  -->
<g id="edge2" class="edge">
<title>SafeModule&#45;&gt;SafeApplicationsSummaryModule </title>
<path fill="none" stroke="black" stroke-dasharray="5,2" d="M2815.27,-83C3132.03,-83 5122,-83 5122,-83 5122,-83 5122,-132.91 5122,-132.91"/>
<polygon fill="black" stroke="black" points="5118.5,-132.91 5122,-142.91 5125.5,-132.91 5118.5,-132.91"/>
</g>
<!-- SafeModule&#45;&gt;SafeButtonModule  -->
<g id="edge3" class="edge">
<title>SafeModule&#45;&gt;SafeButtonModule </title>
<path fill="none" stroke="black" stroke-dasharray="5,2" d="M2815.68,-85C3118.8,-85 4934,-85 4934,-85 4934,-85 4934,-132.99 4934,-132.99"/>
<polygon fill="black" stroke="black" points="4930.5,-132.99 4934,-142.99 4937.5,-132.99 4930.5,-132.99"/>
</g>
<!-- SafeModule&#45;&gt;SafeChartModule  -->
<g id="edge4" class="edge">
<title>SafeModule&#45;&gt;SafeChartModule </title>
<path fill="none" stroke="black" stroke-dasharray="5,2" d="M2815.66,-87C3107.07,-87 4793,-87 4793,-87 4793,-87 4793,-132.71 4793,-132.71"/>
<polygon fill="black" stroke="black" points="4789.5,-132.71 4793,-142.71 4796.5,-132.71 4789.5,-132.71"/>
</g>
<!-- SafeModule&#45;&gt;SafeChartSettingsModule  -->
<g id="edge5" class="edge">
<title>SafeModule&#45;&gt;SafeChartSettingsModule </title>
<path fill="none" stroke="black" stroke-dasharray="5,2" d="M2815.34,-90C3092.21,-90 4633,-90 4633,-90 4633,-90 4633,-132.72 4633,-132.72"/>
<polygon fill="black" stroke="black" points="4629.5,-132.72 4633,-142.72 4636.5,-132.72 4629.5,-132.72"/>
</g>
<!-- SafeModule&#45;&gt;SafeConfirmModalModule  -->
<g id="edge6" class="edge">
<title>SafeModule&#45;&gt;SafeConfirmModalModule </title>
<path fill="none" stroke="black" stroke-dasharray="5,2" d="M2815.22,-92C3075.12,-92 4447,-92 4447,-92 4447,-92 4447,-132.87 4447,-132.87"/>
<polygon fill="black" stroke="black" points="4443.5,-132.87 4447,-142.87 4450.5,-132.87 4443.5,-132.87"/>
</g>
<!-- SafeModule&#45;&gt;SafeContentChoiceModule  -->
<g id="edge7" class="edge">
<title>SafeModule&#45;&gt;SafeContentChoiceModule </title>
<path fill="none" stroke="black" stroke-dasharray="5,2" d="M2815.42,-94C3057.83,-94 4257,-94 4257,-94 4257,-94 4257,-132.69 4257,-132.69"/>
<polygon fill="black" stroke="black" points="4253.5,-132.69 4257,-142.69 4260.5,-132.69 4253.5,-132.69"/>
</g>
<!-- SafeModule&#45;&gt;SafeConvertModalModule  -->
<g id="edge8" class="edge">
<title>SafeModule&#45;&gt;SafeConvertModalModule </title>
<path fill="none" stroke="black" stroke-dasharray="5,2" d="M2815.35,-96C3038.54,-96 4068,-96 4068,-96 4068,-96 4068,-132.89 4068,-132.89"/>
<polygon fill="black" stroke="black" points="4064.5,-132.89 4068,-142.89 4071.5,-132.89 4064.5,-132.89"/>
</g>
<!-- SafeModule&#45;&gt;SafeEditorModule  -->
<g id="edge9" class="edge">
<title>SafeModule&#45;&gt;SafeEditorModule </title>
<path fill="none" stroke="black" stroke-dasharray="5,2" d="M2815.27,-99C3020.6,-99 3904,-99 3904,-99 3904,-99 3904,-132.73 3904,-132.73"/>
<polygon fill="black" stroke="black" points="3900.5,-132.73 3904,-142.73 3907.5,-132.73 3900.5,-132.73"/>
</g>
<!-- SafeModule&#45;&gt;SafeEditorSettingsModule  -->
<g id="edge10" class="edge">
<title>SafeModule&#45;&gt;SafeEditorSettingsModule </title>
<path fill="none" stroke="black" stroke-dasharray="5,2" d="M2815.22,-101C3001.53,-101 3741,-101 3741,-101 3741,-101 3741,-133 3741,-133"/>
<polygon fill="black" stroke="black" points="3737.5,-133 3741,-143 3744.5,-133 3737.5,-133"/>
</g>
<!-- SafeModule&#45;&gt;SafeFormBuilderModule  -->
<g id="edge11" class="edge">
<title>SafeModule&#45;&gt;SafeFormBuilderModule </title>
<path fill="none" stroke="black" stroke-dasharray="5,2" d="M2815.26,-103C2978.52,-103 3559,-103 3559,-103 3559,-103 3559,-132.97 3559,-132.97"/>
<polygon fill="black" stroke="black" points="3555.5,-132.97 3559,-142.97 3562.5,-132.97 3555.5,-132.97"/>
</g>
<!-- SafeModule&#45;&gt;SafeFormModule  -->
<g id="edge12" class="edge">
<title>SafeModule&#45;&gt;SafeFormModule </title>
<path fill="none" stroke="black" stroke-dasharray="5,2" d="M2815.25,-105C2956.28,-105 3402,-105 3402,-105 3402,-105 3402,-132.97 3402,-132.97"/>
<polygon fill="black" stroke="black" points="3398.5,-132.97 3402,-142.97 3405.5,-132.97 3398.5,-132.97"/>
</g>
<!-- SafeModule&#45;&gt;SafeGridSettingsModule  -->
<g id="edge13" class="edge">
<title>SafeModule&#45;&gt;SafeGridSettingsModule </title>
<path fill="none" stroke="black" stroke-dasharray="5,2" d="M2815.39,-108C2931.49,-108 3246,-108 3246,-108 3246,-108 3246,-132.76 3246,-132.76"/>
<polygon fill="black" stroke="black" points="3242.5,-132.76 3246,-142.76 3249.5,-132.76 3242.5,-132.76"/>
</g>
<!-- SafeModule&#45;&gt;SafeGridWidgetModule  -->
<g id="edge14" class="edge">
<title>SafeModule&#45;&gt;SafeGridWidgetModule </title>
<path fill="none" stroke="black" stroke-dasharray="5,2" d="M2815.38,-110C2897.65,-110 3071,-110 3071,-110 3071,-110 3071,-132.88 3071,-132.88"/>
<polygon fill="black" stroke="black" points="3067.5,-132.88 3071,-142.88 3074.5,-132.88 3067.5,-132.88"/>
</g>
<!-- SafeModule&#45;&gt;SafeLayoutModule  -->
<g id="edge15" class="edge">
<title>SafeModule&#45;&gt;SafeLayoutModule </title>
<path fill="none" stroke="black" stroke-dasharray="5,2" d="M2815.46,-112C2856.34,-112 2912,-112 2912,-112 2912,-112 2912,-132.75 2912,-132.75"/>
<polygon fill="black" stroke="black" points="2908.5,-132.75 2912,-142.75 2915.5,-132.75 2908.5,-132.75"/>
</g>
<!-- SafeModule&#45;&gt;SafeMapModule  -->
<g id="edge16" class="edge">
<title>SafeModule&#45;&gt;SafeMapModule </title>
<path fill="none" stroke="black" stroke-dasharray="5,2" d="M2773,-114.11C2773,-114.11 2773,-132.99 2773,-132.99"/>
<polygon fill="black" stroke="black" points="2769.5,-132.99 2773,-142.99 2776.5,-132.99 2769.5,-132.99"/>
</g>
<!-- SafeModule&#45;&gt;SafeMapSettingsModule  -->
<g id="edge17" class="edge">
<title>SafeModule&#45;&gt;SafeMapSettingsModule </title>
<path fill="none" stroke="black" stroke-dasharray="5,2" d="M2730.51,-112C2684.93,-112 2619,-112 2619,-112 2619,-112 2619,-132.75 2619,-132.75"/>
<polygon fill="black" stroke="black" points="2615.5,-132.75 2619,-142.75 2622.5,-132.75 2615.5,-132.75"/>
</g>
<!-- SafeModule&#45;&gt;SafePreviousButtonModule  -->
<g id="edge18" class="edge">
<title>SafeModule&#45;&gt;SafePreviousButtonModule </title>
<path fill="none" stroke="black" stroke-dasharray="5,2" d="M2730.75,-110C2639.88,-110 2434,-110 2434,-110 2434,-110 2434,-132.88 2434,-132.88"/>
<polygon fill="black" stroke="black" points="2430.5,-132.88 2434,-142.88 2437.5,-132.88 2430.5,-132.88"/>
</g>
<!-- SafeModule&#45;&gt;SafeProfileModule  -->
<g id="edge19" class="edge">
<title>SafeModule&#45;&gt;SafeProfileModule </title>
<path fill="none" stroke="black" stroke-dasharray="5,2" d="M2730.56,-108C2608.47,-108 2265,-108 2265,-108 2265,-108 2265,-132.76 2265,-132.76"/>
<polygon fill="black" stroke="black" points="2261.5,-132.76 2265,-142.76 2268.5,-132.76 2261.5,-132.76"/>
</g>
<!-- SafeModule&#45;&gt;SafeRecordHistoryModule  -->
<g id="edge20" class="edge">
<title>SafeModule&#45;&gt;SafeRecordHistoryModule </title>
<path fill="none" stroke="black" stroke-dasharray="5,2" d="M2730.58,-105C2582.73,-105 2099,-105 2099,-105 2099,-105 2099,-132.97 2099,-132.97"/>
<polygon fill="black" stroke="black" points="2095.5,-132.97 2099,-142.97 2102.5,-132.97 2095.5,-132.97"/>
</g>
<!-- SafeModule&#45;&gt;SafeRecordModalModule  -->
<g id="edge21" class="edge">
<title>SafeModule&#45;&gt;SafeRecordModalModule </title>
<path fill="none" stroke="black" stroke-dasharray="5,2" d="M2730.65,-103C2557.55,-103 1913,-103 1913,-103 1913,-103 1913,-132.97 1913,-132.97"/>
<polygon fill="black" stroke="black" points="1909.5,-132.97 1913,-142.97 1916.5,-132.97 1909.5,-132.97"/>
</g>
<!-- SafeModule&#45;&gt;SafeRolesModule  -->
<g id="edge22" class="edge">
<title>SafeModule&#45;&gt;SafeRolesModule </title>
<path fill="none" stroke="black" stroke-dasharray="5,2" d="M2730.47,-101C2537.43,-101 1753,-101 1753,-101 1753,-101 1753,-133 1753,-133"/>
<polygon fill="black" stroke="black" points="1749.5,-133 1753,-143 1756.5,-133 1749.5,-133"/>
</g>
<!-- SafeModule&#45;&gt;SafeSchedulerModule  -->
<g id="edge23" class="edge">
<title>SafeModule&#45;&gt;SafeSchedulerModule </title>
<path fill="none" stroke="black" stroke-dasharray="5,2" d="M2730.67,-99C2520.91,-99 1603,-99 1603,-99 1603,-99 1603,-132.73 1603,-132.73"/>
<polygon fill="black" stroke="black" points="1599.5,-132.73 1603,-142.73 1606.5,-132.73 1599.5,-132.73"/>
</g>
<!-- SafeModule&#45;&gt;SafeSchedulerSettingsModule  -->
<g id="edge24" class="edge">
<title>SafeModule&#45;&gt;SafeSchedulerSettingsModule </title>
<path fill="none" stroke="black" stroke-dasharray="5,2" d="M2730.62,-96C2501.27,-96 1419,-96 1419,-96 1419,-96 1419,-132.89 1419,-132.89"/>
<polygon fill="black" stroke="black" points="1415.5,-132.89 1419,-142.89 1422.5,-132.89 1415.5,-132.89"/>
</g>
<!-- SafeModule&#45;&gt;SafeSearchResourceGridModalModule  -->
<g id="edge25" class="edge">
<title>SafeModule&#45;&gt;SafeSearchResourceGridModalModule </title>
<path fill="none" stroke="black" stroke-dasharray="5,2" d="M2730.55,-94C2478.17,-94 1186,-94 1186,-94 1186,-94 1186,-132.69 1186,-132.69"/>
<polygon fill="black" stroke="black" points="1182.5,-132.69 1186,-142.69 1189.5,-132.69 1182.5,-132.69"/>
</g>
<!-- SafeModule&#45;&gt;SafeSnackbarSpinnerModule  -->
<g id="edge26" class="edge">
<title>SafeModule&#45;&gt;SafeSnackbarSpinnerModule </title>
<path fill="none" stroke="black" stroke-dasharray="5,2" d="M2730.76,-92C2457.95,-92 956,-92 956,-92 956,-92 956,-132.87 956,-132.87"/>
<polygon fill="black" stroke="black" points="952.5,-132.87 956,-142.87 959.5,-132.87 952.5,-132.87"/>
</g>
<!-- SafeModule&#45;&gt;SafeStatusModalModule  -->
<g id="edge27" class="edge">
<title>SafeModule&#45;&gt;SafeStatusModalModule </title>
<path fill="none" stroke="black" stroke-dasharray="5,2" d="M2730.64,-90C2441.24,-90 767,-90 767,-90 767,-90 767,-132.72 767,-132.72"/>
<polygon fill="black" stroke="black" points="763.5,-132.72 767,-142.72 770.5,-132.72 763.5,-132.72"/>
</g>
<!-- SafeModule&#45;&gt;SafeUsersModule  -->
<g id="edge28" class="edge">
<title>SafeModule&#45;&gt;SafeUsersModule </title>
<path fill="none" stroke="black" stroke-dasharray="5,2" d="M2730.76,-87C2428.81,-87 610,-87 610,-87 610,-87 610,-132.71 610,-132.71"/>
<polygon fill="black" stroke="black" points="606.5,-132.71 610,-142.71 613.5,-132.71 606.5,-132.71"/>
</g>
<!-- SafeModule&#45;&gt;SafeWidgetGridModule  -->
<g id="edge29" class="edge">
<title>SafeModule&#45;&gt;SafeWidgetGridModule </title>
<path fill="none" stroke="black" stroke-dasharray="5,2" d="M2730.79,-85C2416.62,-85 455,-85 455,-85 455,-85 455,-132.99 455,-132.99"/>
<polygon fill="black" stroke="black" points="451.5,-132.99 455,-142.99 458.5,-132.99 451.5,-132.99"/>
</g>
<!-- SafeModule&#45;&gt;SafeWidgetModule  -->
<g id="edge30" class="edge">
<title>SafeModule&#45;&gt;SafeWidgetModule </title>
<path fill="none" stroke="black" stroke-dasharray="5,2" d="M2730.77,-83C2404.28,-83 295,-83 295,-83 295,-83 295,-132.91 295,-132.91"/>
<polygon fill="black" stroke="black" points="291.5,-132.91 295,-142.91 298.5,-132.91 291.5,-132.91"/>
</g>
<!-- SafeModule&#45;&gt;SafeWorkflowStepperModule  -->
<g id="edge31" class="edge">
<title>SafeModule&#45;&gt;SafeWorkflowStepperModule </title>
<path fill="none" stroke="black" stroke-dasharray="5,2" d="M2730.76,-81C2391.12,-81 118,-81 118,-81 118,-81 118,-132.85 118,-132.85"/>
<polygon fill="black" stroke="black" points="114.5,-132.85 118,-142.85 121.5,-132.85 114.5,-132.85"/>
</g>
</g>
</svg>
