<?xml version="1.0" encoding="UTF-8" standalone="no"?>
<!DOCTYPE svg PUBLIC "-//W3C//DTD SVG 1.1//EN"
 "http://www.w3.org/Graphics/SVG/1.1/DTD/svg11.dtd">
<!-- Generated by graphviz version 3.0.0 (20220226.1711)
 -->
<!-- Title: dependencies Pages: 1 -->
<svg width="1008pt" height="247pt"
 viewBox="0.00 0.00 1008.00 246.80" xmlns="http://www.w3.org/2000/svg" xmlns:xlink="http://www.w3.org/1999/xlink">
<g id="graph0" class="graph" transform="scale(1 1) rotate(0) translate(4 242.8)">
<title>dependencies</title>
<polygon fill="white" stroke="transparent" points="-4,4 -4,-242.8 1004,-242.8 1004,4 -4,4"/>
<text text-anchor="middle" x="500" y="-8.2" font-family="sans-serif" font-size="14.00">dependencies</text>
<g id="clust1" class="cluster">
<title>cluster_SafeFormModule</title>
<polygon fill="none" stroke="black" stroke-dasharray="1,5" points="8,-32.8 8,-230.8 992,-230.8 992,-32.8 8,-32.8"/>
</g>
<g id="clust4" class="cluster">
<title>cluster_SafeFormModule_imports</title>
<polygon fill="none" stroke="black" points="176,-40.8 176,-92.8 984,-92.8 984,-40.8 176,-40.8"/>
</g>
<g id="clust2" class="cluster">
<title>cluster_SafeFormModule_declarations</title>
<polygon fill="none" stroke="black" points="16,-40.8 16,-92.8 168,-92.8 168,-40.8 16,-40.8"/>
</g>
<g id="clust5" class="cluster">
<title>cluster_SafeFormModule_exports</title>
<polygon fill="none" stroke="black" points="432,-170.8 432,-222.8 588,-222.8 588,-170.8 432,-170.8"/>
</g>
<!-- SafeFormComponent -->
<g id="node1" class="node">
<title>SafeFormComponent</title>
<polygon fill="#ffffb3" stroke="black" points="160.05,-84.8 23.95,-84.8 23.95,-48.8 160.05,-48.8 160.05,-84.8"/>
<text text-anchor="middle" x="92" y="-62.6" font-family="Times,serif" font-size="14.00">SafeFormComponent</text>
</g>
<!-- SafeFormModule -->
<g id="node2" class="node">
<title>SafeFormModule</title>
<polygon fill="#8dd3c7" stroke="black" points="567.27,-149.8 564.27,-153.8 543.27,-153.8 540.27,-149.8 452.73,-149.8 452.73,-113.8 567.27,-113.8 567.27,-149.8"/>
<text text-anchor="middle" x="510" y="-127.6" font-family="Times,serif" font-size="14.00">SafeFormModule</text>
</g>
<!-- SafeFormComponent&#45;&gt;SafeFormModule -->
<g id="edge1" class="edge">
<title>SafeFormComponent&#45;&gt;SafeFormModule</title>
<path fill="none" stroke="black" d="M92,-85.08C92,-106.12 92,-137.8 92,-137.8 92,-137.8 442.32,-137.8 442.32,-137.8"/>
<polygon fill="black" stroke="black" points="442.32,-141.3 452.32,-137.8 442.32,-134.3 442.32,-141.3"/>
</g>
<!-- SafeFormComponent  -->
<g id="node8" class="node">
<title>SafeFormComponent </title>
<polygon fill="#fb8072" stroke="black" points="580.04,-214.8 439.96,-214.8 439.96,-178.8 580.04,-178.8 580.04,-214.8"/>
<text text-anchor="middle" x="510" y="-192.6" font-family="Times,serif" font-size="14.00">SafeFormComponent </text>
</g>
<!-- SafeFormModule&#45;&gt;SafeFormComponent  -->
<g id="edge7" class="edge">
<title>SafeFormModule&#45;&gt;SafeFormComponent </title>
<path fill="none" stroke="black" stroke-dasharray="5,2" d="M510,-149.91C510,-149.91 510,-168.79 510,-168.79"/>
<polygon fill="black" stroke="black" points="506.5,-168.79 510,-178.79 513.5,-168.79 506.5,-168.79"/>
</g>
<!-- SafeButtonModule -->
<g id="node3" class="node">
<title>SafeButtonModule</title>
<polygon fill="#8dd3c7" stroke="black" points="976.05,-84.8 973.05,-88.8 952.05,-88.8 949.05,-84.8 853.95,-84.8 853.95,-48.8 976.05,-48.8 976.05,-84.8"/>
<text text-anchor="middle" x="915" y="-62.6" font-family="Times,serif" font-size="14.00">SafeButtonModule</text>
</g>
<!-- SafeButtonModule&#45;&gt;SafeFormModule -->
<g id="edge2" class="edge">
<title>SafeButtonModule&#45;&gt;SafeFormModule</title>
<path fill="none" stroke="black" d="M915,-85.08C915,-106.12 915,-137.8 915,-137.8 915,-137.8 577.6,-137.8 577.6,-137.8"/>
<polygon fill="black" stroke="black" points="577.6,-134.3 567.6,-137.8 577.6,-141.3 577.6,-134.3"/>
</g>
<!-- SafeFormActionsModule -->
<g id="node4" class="node">
<title>SafeFormActionsModule</title>
<polygon fill="#8dd3c7" stroke="black" points="836.32,-84.8 833.32,-88.8 812.32,-88.8 809.32,-84.8 677.68,-84.8 677.68,-48.8 836.32,-48.8 836.32,-84.8"/>
<text text-anchor="middle" x="757" y="-62.6" font-family="Times,serif" font-size="14.00">SafeFormActionsModule</text>
</g>
<!-- SafeFormActionsModule&#45;&gt;SafeFormModule -->
<g id="edge3" class="edge">
<title>SafeFormActionsModule&#45;&gt;SafeFormModule</title>
<path fill="none" stroke="black" d="M757,-84.82C757,-102.17 757,-125.8 757,-125.8 757,-125.8 577.29,-125.8 577.29,-125.8"/>
<polygon fill="black" stroke="black" points="577.29,-122.3 567.29,-125.8 577.29,-129.3 577.29,-122.3"/>
</g>
<!-- SafeFormModalModule -->
<g id="node5" class="node">
<title>SafeFormModalModule</title>
<polygon fill="#8dd3c7" stroke="black" points="659.82,-84.8 656.82,-88.8 635.82,-88.8 632.82,-84.8 508.18,-84.8 508.18,-48.8 659.82,-48.8 659.82,-84.8"/>
<text text-anchor="middle" x="584" y="-62.6" font-family="Times,serif" font-size="14.00">SafeFormModalModule</text>
</g>
<!-- SafeFormModalModule&#45;&gt;SafeFormModule -->
<g id="edge4" class="edge">
<title>SafeFormModalModule&#45;&gt;SafeFormModule</title>
<path fill="none" stroke="black" d="M537.86,-84.91C537.86,-84.91 537.86,-103.79 537.86,-103.79"/>
<polygon fill="black" stroke="black" points="534.36,-103.79 537.86,-113.79 541.36,-103.79 534.36,-103.79"/>
</g>
<!-- SafeIconModule -->
<g id="node6" class="node">
<title>SafeIconModule</title>
<polygon fill="#8dd3c7" stroke="black" points="490.8,-84.8 487.8,-88.8 466.8,-88.8 463.8,-84.8 381.2,-84.8 381.2,-48.8 490.8,-48.8 490.8,-84.8"/>
<text text-anchor="middle" x="436" y="-62.6" font-family="Times,serif" font-size="14.00">SafeIconModule</text>
</g>
<!-- SafeIconModule&#45;&gt;SafeFormModule -->
<g id="edge5" class="edge">
<title>SafeIconModule&#45;&gt;SafeFormModule</title>
<path fill="none" stroke="black" d="M471.63,-84.91C471.63,-84.91 471.63,-103.79 471.63,-103.79"/>
<polygon fill="black" stroke="black" points="468.13,-103.79 471.63,-113.79 475.13,-103.79 468.13,-103.79"/>
</g>
<!-- SafeRecordSummaryModule -->
<g id="node7" class="node">
<title>SafeRecordSummaryModule</title>
<polygon fill="#8dd3c7" stroke="black" points="363.8,-84.8 360.8,-88.8 339.8,-88.8 336.8,-84.8 184.2,-84.8 184.2,-48.8 363.8,-48.8 363.8,-84.8"/>
<text text-anchor="middle" x="274" y="-62.6" font-family="Times,serif" font-size="14.00">SafeRecordSummaryModule</text>
</g>
<!-- SafeRecordSummaryModule&#45;&gt;SafeFormModule -->
<g id="edge6" class="edge">
<title>SafeRecordSummaryModule&#45;&gt;SafeFormModule</title>
<path fill="none" stroke="black" d="M274,-84.82C274,-102.17 274,-125.8 274,-125.8 274,-125.8 442.57,-125.8 442.57,-125.8"/>
<polygon fill="black" stroke="black" points="442.57,-129.3 452.57,-125.8 442.57,-122.3 442.57,-129.3"/>
</g>
</g>
</svg>
