<?xml version="1.0" encoding="UTF-8" standalone="no"?>
<!DOCTYPE svg PUBLIC "-//W3C//DTD SVG 1.1//EN"
 "http://www.w3.org/Graphics/SVG/1.1/DTD/svg11.dtd">
<!-- Generated by graphviz version 3.0.0 (20220226.1711)
 -->
<!-- Title: dependencies Pages: 1 -->
<svg width="1222pt" height="247pt"
 viewBox="0.00 0.00 1222.00 246.80" xmlns="http://www.w3.org/2000/svg" xmlns:xlink="http://www.w3.org/1999/xlink">
<g id="graph0" class="graph" transform="scale(1 1) rotate(0) translate(4 242.8)">
<title>dependencies</title>
<polygon fill="white" stroke="transparent" points="-4,4 -4,-242.8 1218,-242.8 1218,4 -4,4"/>
<text text-anchor="middle" x="607" y="-8.2" font-family="sans-serif" font-size="14.00">dependencies</text>
<g id="clust1" class="cluster">
<title>cluster_SafeSearchResourceGridModalModule</title>
<polygon fill="none" stroke="black" stroke-dasharray="1,5" points="8,-32.8 8,-230.8 1206,-230.8 1206,-32.8 8,-32.8"/>
</g>
<g id="clust4" class="cluster">
<title>cluster_SafeSearchResourceGridModalModule_imports</title>
<polygon fill="none" stroke="black" points="260,-40.8 260,-92.8 1198,-92.8 1198,-40.8 260,-40.8"/>
</g>
<g id="clust2" class="cluster">
<title>cluster_SafeSearchResourceGridModalModule_declarations</title>
<polygon fill="none" stroke="black" points="16,-40.8 16,-92.8 252,-92.8 252,-40.8 16,-40.8"/>
</g>
<g id="clust5" class="cluster">
<title>cluster_SafeSearchResourceGridModalModule_exports</title>
<polygon fill="none" stroke="black" points="540,-170.8 540,-222.8 780,-222.8 780,-170.8 540,-170.8"/>
</g>
<!-- SafeResourceGridModalComponent -->
<g id="node1" class="node">
<title>SafeResourceGridModalComponent</title>
<polygon fill="#ffffb3" stroke="black" points="244.01,-84.8 23.99,-84.8 23.99,-48.8 244.01,-48.8 244.01,-84.8"/>
<text text-anchor="middle" x="134" y="-62.6" font-family="Times,serif" font-size="14.00">SafeResourceGridModalComponent</text>
</g>
<!-- SafeSearchResourceGridModalModule -->
<g id="node2" class="node">
<title>SafeSearchResourceGridModalModule</title>
<polygon fill="#8dd3c7" stroke="black" points="778.32,-149.8 775.32,-153.8 754.32,-153.8 751.32,-149.8 541.68,-149.8 541.68,-113.8 778.32,-113.8 778.32,-149.8"/>
<text text-anchor="middle" x="660" y="-127.6" font-family="Times,serif" font-size="14.00">SafeSearchResourceGridModalModule</text>
</g>
<!-- SafeResourceGridModalComponent&#45;&gt;SafeSearchResourceGridModalModule -->
<g id="edge1" class="edge">
<title>SafeResourceGridModalComponent&#45;&gt;SafeSearchResourceGridModalModule</title>
<path fill="none" stroke="black" d="M134,-85.08C134,-106.12 134,-137.8 134,-137.8 134,-137.8 531.63,-137.8 531.63,-137.8"/>
<polygon fill="black" stroke="black" points="531.63,-141.3 541.63,-137.8 531.63,-134.3 531.63,-141.3"/>
</g>
<!-- SafeResourceGridModalComponent  -->
<g id="node8" class="node">
<title>SafeResourceGridModalComponent </title>
<polygon fill="#fb8072" stroke="black" points="772.01,-214.8 547.99,-214.8 547.99,-178.8 772.01,-178.8 772.01,-214.8"/>
<text text-anchor="middle" x="660" y="-192.6" font-family="Times,serif" font-size="14.00">SafeResourceGridModalComponent </text>
</g>
<!-- SafeSearchResourceGridModalModule&#45;&gt;SafeResourceGridModalComponent  -->
<g id="edge7" class="edge">
<title>SafeSearchResourceGridModalModule&#45;&gt;SafeResourceGridModalComponent </title>
<path fill="none" stroke="black" stroke-dasharray="5,2" d="M660,-149.91C660,-149.91 660,-168.79 660,-168.79"/>
<polygon fill="black" stroke="black" points="656.5,-168.79 660,-178.79 663.5,-168.79 656.5,-168.79"/>
</g>
<!-- SafeApplicationDropdownModule -->
<g id="node3" class="node">
<title>SafeApplicationDropdownModule</title>
<polygon fill="#8dd3c7" stroke="black" points="1190.41,-84.8 1187.41,-88.8 1166.41,-88.8 1163.41,-84.8 979.59,-84.8 979.59,-48.8 1190.41,-48.8 1190.41,-84.8"/>
<text text-anchor="middle" x="1085" y="-62.6" font-family="Times,serif" font-size="14.00">SafeApplicationDropdownModule</text>
</g>
<!-- SafeApplicationDropdownModule&#45;&gt;SafeSearchResourceGridModalModule -->
<g id="edge2" class="edge">
<title>SafeApplicationDropdownModule&#45;&gt;SafeSearchResourceGridModalModule</title>
<path fill="none" stroke="black" d="M1085,-85.08C1085,-106.12 1085,-137.8 1085,-137.8 1085,-137.8 788.39,-137.8 788.39,-137.8"/>
<polygon fill="black" stroke="black" points="788.39,-134.3 778.39,-137.8 788.39,-141.3 788.39,-134.3"/>
</g>
<!-- SafeCoreGridModule -->
<g id="node4" class="node">
<title>SafeCoreGridModule</title>
<polygon fill="#8dd3c7" stroke="black" points="961.8,-84.8 958.8,-88.8 937.8,-88.8 934.8,-84.8 824.2,-84.8 824.2,-48.8 961.8,-48.8 961.8,-84.8"/>
<text text-anchor="middle" x="893" y="-62.6" font-family="Times,serif" font-size="14.00">SafeCoreGridModule</text>
</g>
<!-- SafeCoreGridModule&#45;&gt;SafeSearchResourceGridModalModule -->
<g id="edge3" class="edge">
<title>SafeCoreGridModule&#45;&gt;SafeSearchResourceGridModalModule</title>
<path fill="none" stroke="black" d="M893,-84.82C893,-102.17 893,-125.8 893,-125.8 893,-125.8 788.55,-125.8 788.55,-125.8"/>
<polygon fill="black" stroke="black" points="788.55,-122.3 778.55,-125.8 788.55,-129.3 788.55,-122.3"/>
</g>
<!-- SafeModalModule -->
<g id="node5" class="node">
<title>SafeModalModule</title>
<polygon fill="#8dd3c7" stroke="black" points="806.48,-84.8 803.48,-88.8 782.48,-88.8 779.48,-84.8 685.52,-84.8 685.52,-48.8 806.48,-48.8 806.48,-84.8"/>
<text text-anchor="middle" x="746" y="-62.6" font-family="Times,serif" font-size="14.00">SafeModalModule</text>
</g>
<!-- SafeModalModule&#45;&gt;SafeSearchResourceGridModalModule -->
<g id="edge4" class="edge">
<title>SafeModalModule&#45;&gt;SafeSearchResourceGridModalModule</title>
<path fill="none" stroke="black" d="M731.96,-84.91C731.96,-84.91 731.96,-103.79 731.96,-103.79"/>
<polygon fill="black" stroke="black" points="728.46,-103.79 731.96,-113.79 735.46,-103.79 728.46,-103.79"/>
</g>
<!-- SafeRecordDropdownModule -->
<g id="node6" class="node">
<title>SafeRecordDropdownModule</title>
<polygon fill="#8dd3c7" stroke="black" points="667.24,-84.8 664.24,-88.8 643.24,-88.8 640.24,-84.8 482.76,-84.8 482.76,-48.8 667.24,-48.8 667.24,-84.8"/>
<text text-anchor="middle" x="575" y="-62.6" font-family="Times,serif" font-size="14.00">SafeRecordDropdownModule</text>
</g>
<!-- SafeRecordDropdownModule&#45;&gt;SafeSearchResourceGridModalModule -->
<g id="edge5" class="edge">
<title>SafeRecordDropdownModule&#45;&gt;SafeSearchResourceGridModalModule</title>
<path fill="none" stroke="black" d="M604.48,-84.91C604.48,-84.91 604.48,-103.79 604.48,-103.79"/>
<polygon fill="black" stroke="black" points="600.98,-103.79 604.48,-113.79 607.98,-103.79 600.98,-103.79"/>
</g>
<!-- SafeResourceDropdownModule -->
<g id="node7" class="node">
<title>SafeResourceDropdownModule</title>
<polygon fill="#8dd3c7" stroke="black" points="464.4,-84.8 461.4,-88.8 440.4,-88.8 437.4,-84.8 267.6,-84.8 267.6,-48.8 464.4,-48.8 464.4,-84.8"/>
<text text-anchor="middle" x="366" y="-62.6" font-family="Times,serif" font-size="14.00">SafeResourceDropdownModule</text>
</g>
<!-- SafeResourceDropdownModule&#45;&gt;SafeSearchResourceGridModalModule -->
<g id="edge6" class="edge">
<title>SafeResourceDropdownModule&#45;&gt;SafeSearchResourceGridModalModule</title>
<path fill="none" stroke="black" d="M366,-84.82C366,-102.17 366,-125.8 366,-125.8 366,-125.8 531.27,-125.8 531.27,-125.8"/>
<polygon fill="black" stroke="black" points="531.27,-129.3 541.27,-125.8 531.27,-122.3 531.27,-129.3"/>
</g>
</g>
</svg>
