<?xml version="1.0" encoding="UTF-8" standalone="no"?>
<!DOCTYPE svg PUBLIC "-//W3C//DTD SVG 1.1//EN"
 "http://www.w3.org/Graphics/SVG/1.1/DTD/svg11.dtd">
<!-- Generated by graphviz version 3.0.0 (20220226.1711)
 -->
<!-- Title: dependencies Pages: 1 -->
<svg width="384pt" height="247pt"
 viewBox="0.00 0.00 384.00 246.80" xmlns="http://www.w3.org/2000/svg" xmlns:xlink="http://www.w3.org/1999/xlink">
<g id="graph0" class="graph" transform="scale(1 1) rotate(0) translate(4 242.8)">
<title>dependencies</title>
<polygon fill="white" stroke="transparent" points="-4,4 -4,-242.8 380,-242.8 380,4 -4,4"/>
<text text-anchor="middle" x="188" y="-8.2" font-family="sans-serif" font-size="14.00">dependencies</text>
<g id="clust1" class="cluster">
<title>cluster_DashboardWidgetModule</title>
<polygon fill="none" stroke="black" stroke-dasharray="1,5" points="8,-32.8 8,-230.8 368,-230.8 368,-32.8 8,-32.8"/>
</g>
<g id="clust5" class="cluster">
<title>cluster_DashboardWidgetModule_exports</title>
<polygon fill="none" stroke="black" points="87,-170.8 87,-222.8 289,-222.8 289,-170.8 87,-170.8"/>
</g>
<g id="clust2" class="cluster">
<title>cluster_DashboardWidgetModule_declarations</title>
<polygon fill="none" stroke="black" points="160,-40.8 160,-92.8 360,-92.8 360,-40.8 160,-40.8"/>
</g>
<g id="clust4" class="cluster">
<title>cluster_DashboardWidgetModule_imports</title>
<polygon fill="none" stroke="black" points="16,-40.8 16,-92.8 152,-92.8 152,-40.8 16,-40.8"/>
</g>
<!-- DashboardWidgetComponent -->
<g id="node1" class="node">
<title>DashboardWidgetComponent</title>
<polygon fill="#ffffb3" stroke="black" points="351.69,-84.8 168.31,-84.8 168.31,-48.8 351.69,-48.8 351.69,-84.8"/>
<text text-anchor="middle" x="260" y="-62.6" font-family="Times,serif" font-size="14.00">DashboardWidgetComponent</text>
</g>
<!-- DashboardWidgetModule -->
<g id="node2" class="node">
<title>DashboardWidgetModule</title>
<polygon fill="#8dd3c7" stroke="black" points="268.91,-149.8 265.91,-153.8 244.91,-153.8 241.91,-149.8 107.09,-149.8 107.09,-113.8 268.91,-113.8 268.91,-149.8"/>
<text text-anchor="middle" x="188" y="-127.6" font-family="Times,serif" font-size="14.00">DashboardWidgetModule</text>
</g>
<!-- DashboardWidgetComponent&#45;&gt;DashboardWidgetModule -->
<g id="edge1" class="edge">
<title>DashboardWidgetComponent&#45;&gt;DashboardWidgetModule</title>
<path fill="none" stroke="black" d="M218.56,-84.91C218.56,-84.91 218.56,-103.79 218.56,-103.79"/>
<polygon fill="black" stroke="black" points="215.06,-103.79 218.56,-113.79 222.06,-103.79 215.06,-103.79"/>
</g>
<!-- DashboardWidgetComponent  -->
<g id="node4" class="node">
<title>DashboardWidgetComponent </title>
<polygon fill="#fb8072" stroke="black" points="281.19,-214.8 94.81,-214.8 94.81,-178.8 281.19,-178.8 281.19,-214.8"/>
<text text-anchor="middle" x="188" y="-192.6" font-family="Times,serif" font-size="14.00">DashboardWidgetComponent </text>
</g>
<!-- DashboardWidgetModule&#45;&gt;DashboardWidgetComponent  -->
<g id="edge3" class="edge">
<title>DashboardWidgetModule&#45;&gt;DashboardWidgetComponent </title>
<path fill="none" stroke="black" stroke-dasharray="5,2" d="M188,-149.91C188,-149.91 188,-168.79 188,-168.79"/>
<polygon fill="black" stroke="black" points="184.5,-168.79 188,-178.79 191.5,-168.79 184.5,-168.79"/>
</g>
<!-- DashboardModule -->
<g id="node3" class="node">
<title>DashboardModule</title>
<polygon fill="#8dd3c7" stroke="black" points="144.2,-84.8 141.2,-88.8 120.2,-88.8 117.2,-84.8 23.8,-84.8 23.8,-48.8 144.2,-48.8 144.2,-84.8"/>
<text text-anchor="middle" x="84" y="-62.6" font-family="Times,serif" font-size="14.00">DashboardModule</text>
</g>
<!-- DashboardModule&#45;&gt;DashboardWidgetModule -->
<g id="edge2" class="edge">
<title>DashboardModule&#45;&gt;DashboardWidgetModule</title>
<path fill="none" stroke="black" d="M125.7,-84.91C125.7,-84.91 125.7,-103.79 125.7,-103.79"/>
<polygon fill="black" stroke="black" points="122.2,-103.79 125.7,-113.79 129.2,-103.79 122.2,-103.79"/>
</g>
</g>
</svg>
