<?xml version="1.0" encoding="UTF-8" standalone="no"?>
<!DOCTYPE svg PUBLIC "-//W3C//DTD SVG 1.1//EN"
 "http://www.w3.org/Graphics/SVG/1.1/DTD/svg11.dtd">
<!-- Generated by graphviz version 2.47.0 (20210316.0004)
 -->
<!-- Title: dependencies Pages: 1 -->
<svg width="504pt" height="284pt"
 viewBox="0.00 0.00 504.00 284.00" xmlns="http://www.w3.org/2000/svg" xmlns:xlink="http://www.w3.org/1999/xlink">
<g id="graph0" class="graph" transform="scale(1 1) rotate(0) translate(4 280)">
<title>dependencies</title>
<polygon fill="white" stroke="transparent" points="-4,4 -4,-280 500,-280 500,4 -4,4"/>
<text text-anchor="start" x="227.01" y="-42.4" font-family="sans-serif" font-weight="bold" font-size="14.00">Legend</text>
<polygon fill="#ffffb3" stroke="transparent" points="14,-10 14,-30 34,-30 34,-10 14,-10"/>
<text text-anchor="start" x="37.63" y="-15.4" font-family="sans-serif" font-size="14.00"> &#160;Declarations</text>
<polygon fill="#8dd3c7" stroke="transparent" points="127,-10 127,-30 147,-30 147,-10 127,-10"/>
<text text-anchor="start" x="150.73" y="-15.4" font-family="sans-serif" font-size="14.00"> &#160;Module</text>
<polygon fill="#80b1d3" stroke="transparent" points="213,-10 213,-30 233,-30 233,-10 213,-10"/>
<text text-anchor="start" x="236.78" y="-15.4" font-family="sans-serif" font-size="14.00"> &#160;Bootstrap</text>
<polygon fill="#fdb462" stroke="transparent" points="310,-10 310,-30 330,-30 330,-10 310,-10"/>
<text text-anchor="start" x="333.67" y="-15.4" font-family="sans-serif" font-size="14.00"> &#160;Providers</text>
<polygon fill="#fb8072" stroke="transparent" points="406,-10 406,-30 426,-30 426,-10 406,-10"/>
<text text-anchor="start" x="429.73" y="-15.4" font-family="sans-serif" font-size="14.00"> &#160;Exports</text>
<g id="clust1" class="cluster">
<title>cluster_SafeProfileModule</title>
<polygon fill="none" stroke="black" stroke-dasharray="1,5" points="87,-70 87,-268 409,-268 409,-70 87,-70"/>
</g>
<g id="clust5" class="cluster">
<title>cluster_SafeProfileModule_exports</title>
<polygon fill="none" stroke="black" points="166,-208 166,-260 330,-260 330,-208 166,-208"/>
</g>
<g id="clust4" class="cluster">
<title>cluster_SafeProfileModule_imports</title>
<polygon fill="none" stroke="black" points="263,-78 263,-130 401,-130 401,-78 263,-78"/>
</g>
<g id="clust2" class="cluster">
<title>cluster_SafeProfileModule_declarations</title>
<polygon fill="none" stroke="black" points="95,-78 95,-130 255,-130 255,-78 95,-78"/>
</g>
<!-- SafeProfileComponent -->
<g id="node1" class="node">
<title>SafeProfileComponent</title>
<polygon fill="#ffffb3" stroke="black" points="247.3,-122 102.7,-122 102.7,-86 247.3,-86 247.3,-122"/>
<text text-anchor="middle" x="175" y="-99.8" font-family="Times,serif" font-size="14.00">SafeProfileComponent</text>
</g>
<!-- SafeProfileModule -->
<g id="node2" class="node">
<title>SafeProfileModule</title>
<polygon fill="#8dd3c7" stroke="black" points="309.02,-187 306.02,-191 285.02,-191 282.02,-187 186.98,-187 186.98,-151 309.02,-151 309.02,-187"/>
<text text-anchor="middle" x="248" y="-164.8" font-family="Times,serif" font-size="14.00">SafeProfileModule</text>
</g>
<!-- SafeProfileComponent&#45;&gt;SafeProfileModule -->
<g id="edge1" class="edge">
<title>SafeProfileComponent&#45;&gt;SafeProfileModule</title>
<path fill="none" stroke="black" d="M216.95,-122.11C216.95,-122.11 216.95,-140.99 216.95,-140.99"/>
<polygon fill="black" stroke="black" points="213.45,-140.99 216.95,-150.99 220.45,-140.99 213.45,-140.99"/>
</g>
<!-- SafeProfileComponent  -->
<g id="node4" class="node">
<title>SafeProfileComponent </title>
<polygon fill="#fb8072" stroke="black" points="321.8,-252 174.2,-252 174.2,-216 321.8,-216 321.8,-252"/>
<text text-anchor="middle" x="248" y="-229.8" font-family="Times,serif" font-size="14.00">SafeProfileComponent </text>
</g>
<!-- SafeProfileModule&#45;&gt;SafeProfileComponent  -->
<g id="edge3" class="edge">
<title>SafeProfileModule&#45;&gt;SafeProfileComponent </title>
<path fill="none" stroke="black" stroke-dasharray="5,2" d="M248,-187.11C248,-187.11 248,-205.99 248,-205.99"/>
<polygon fill="black" stroke="black" points="244.5,-205.99 248,-215.99 251.5,-205.99 244.5,-205.99"/>
</g>
<!-- SafeButtonModule -->
<g id="node3" class="node">
<title>SafeButtonModule</title>
<polygon fill="#8dd3c7" stroke="black" points="393.04,-122 390.04,-126 369.04,-126 366.04,-122 270.96,-122 270.96,-86 393.04,-86 393.04,-122"/>
<text text-anchor="middle" x="332" y="-99.8" font-family="Times,serif" font-size="14.00">SafeButtonModule</text>
</g>
<!-- SafeButtonModule&#45;&gt;SafeProfileModule -->
<g id="edge2" class="edge">
<title>SafeButtonModule&#45;&gt;SafeProfileModule</title>
<path fill="none" stroke="black" d="M290,-122.11C290,-122.11 290,-140.99 290,-140.99"/>
<polygon fill="black" stroke="black" points="286.5,-140.99 290,-150.99 293.5,-140.99 286.5,-140.99"/>
</g>
</g>
</svg>
