<?xml version="1.0" encoding="UTF-8" standalone="no"?>
<!DOCTYPE svg PUBLIC "-//W3C//DTD SVG 1.1//EN"
 "http://www.w3.org/Graphics/SVG/1.1/DTD/svg11.dtd">
<!-- Generated by graphviz version 3.0.0 (20220226.1711)
 -->
<!-- Title: dependencies Pages: 1 -->
<svg width="847pt" height="247pt"
 viewBox="0.00 0.00 847.00 246.80" xmlns="http://www.w3.org/2000/svg" xmlns:xlink="http://www.w3.org/1999/xlink">
<g id="graph0" class="graph" transform="scale(1 1) rotate(0) translate(4 242.8)">
<title>dependencies</title>
<polygon fill="white" stroke="transparent" points="-4,4 -4,-242.8 843,-242.8 843,4 -4,4"/>
<text text-anchor="middle" x="419.5" y="-8.2" font-family="sans-serif" font-size="14.00">dependencies</text>
<g id="clust1" class="cluster">
<title>cluster_RoleAutoAssignmentModule</title>
<polygon fill="none" stroke="black" stroke-dasharray="1,5" points="8,-32.8 8,-230.8 831,-230.8 831,-32.8 8,-32.8"/>
</g>
<g id="clust2" class="cluster">
<title>cluster_RoleAutoAssignmentModule_declarations</title>
<polygon fill="none" stroke="black" points="605,-40.8 605,-92.8 823,-92.8 823,-40.8 605,-40.8"/>
</g>
<g id="clust5" class="cluster">
<title>cluster_RoleAutoAssignmentModule_exports</title>
<polygon fill="none" stroke="black" points="258,-170.8 258,-222.8 480,-222.8 480,-170.8 258,-170.8"/>
</g>
<g id="clust4" class="cluster">
<title>cluster_RoleAutoAssignmentModule_imports</title>
<polygon fill="none" stroke="black" points="16,-40.8 16,-92.8 597,-92.8 597,-40.8 16,-40.8"/>
</g>
<!-- RoleAutoAssignmentComponent -->
<g id="node1" class="node">
<title>RoleAutoAssignmentComponent</title>
<polygon fill="#ffffb3" stroke="black" points="815.16,-84.8 612.84,-84.8 612.84,-48.8 815.16,-48.8 815.16,-84.8"/>
<text text-anchor="middle" x="714" y="-62.6" font-family="Times,serif" font-size="14.00">RoleAutoAssignmentComponent</text>
</g>
<!-- RoleAutoAssignmentModule -->
<g id="node2" class="node">
<title>RoleAutoAssignmentModule</title>
<polygon fill="#8dd3c7" stroke="black" points="459.38,-149.8 456.38,-153.8 435.38,-153.8 432.38,-149.8 278.62,-149.8 278.62,-113.8 459.38,-113.8 459.38,-149.8"/>
<text text-anchor="middle" x="369" y="-127.6" font-family="Times,serif" font-size="14.00">RoleAutoAssignmentModule</text>
</g>
<!-- RoleAutoAssignmentComponent&#45;&gt;RoleAutoAssignmentModule -->
<g id="edge1" class="edge">
<title>RoleAutoAssignmentComponent&#45;&gt;RoleAutoAssignmentModule</title>
<path fill="none" stroke="black" d="M714,-84.91C714,-104.14 714,-131.8 714,-131.8 714,-131.8 469.64,-131.8 469.64,-131.8"/>
<polygon fill="black" stroke="black" points="469.64,-128.3 459.64,-131.8 469.64,-135.3 469.64,-128.3"/>
</g>
<!-- RoleAutoAssignmentComponent  -->
<g id="node6" class="node">
<title>RoleAutoAssignmentComponent </title>
<polygon fill="#fb8072" stroke="black" points="472.16,-214.8 265.84,-214.8 265.84,-178.8 472.16,-178.8 472.16,-214.8"/>
<text text-anchor="middle" x="369" y="-192.6" font-family="Times,serif" font-size="14.00">RoleAutoAssignmentComponent </text>
</g>
<!-- RoleAutoAssignmentModule&#45;&gt;RoleAutoAssignmentComponent  -->
<g id="edge5" class="edge">
<title>RoleAutoAssignmentModule&#45;&gt;RoleAutoAssignmentComponent </title>
<path fill="none" stroke="black" stroke-dasharray="5,2" d="M369,-149.91C369,-149.91 369,-168.79 369,-168.79"/>
<polygon fill="black" stroke="black" points="365.5,-168.79 369,-178.79 372.5,-168.79 365.5,-168.79"/>
</g>
<!-- EditRoleAutoAssignmentModalModule -->
<g id="node3" class="node">
<title>EditRoleAutoAssignmentModalModule</title>
<polygon fill="#8dd3c7" stroke="black" points="589.27,-84.8 586.27,-88.8 565.27,-88.8 562.27,-84.8 348.73,-84.8 348.73,-48.8 589.27,-48.8 589.27,-84.8"/>
<text text-anchor="middle" x="469" y="-62.6" font-family="Times,serif" font-size="14.00">EditRoleAutoAssignmentModalModule</text>
</g>
<!-- EditRoleAutoAssignmentModalModule&#45;&gt;RoleAutoAssignmentModule -->
<g id="edge2" class="edge">
<title>EditRoleAutoAssignmentModalModule&#45;&gt;RoleAutoAssignmentModule</title>
<path fill="none" stroke="black" d="M404.03,-84.91C404.03,-84.91 404.03,-103.79 404.03,-103.79"/>
<polygon fill="black" stroke="black" points="400.53,-103.79 404.03,-113.79 407.53,-103.79 400.53,-103.79"/>
</g>
<!-- SafeButtonModule -->
<g id="node4" class="node">
<title>SafeButtonModule</title>
<polygon fill="#8dd3c7" stroke="black" points="330.05,-84.8 327.05,-88.8 306.05,-88.8 303.05,-84.8 207.95,-84.8 207.95,-48.8 330.05,-48.8 330.05,-84.8"/>
<text text-anchor="middle" x="269" y="-62.6" font-family="Times,serif" font-size="14.00">SafeButtonModule</text>
</g>
<!-- SafeButtonModule&#45;&gt;RoleAutoAssignmentModule -->
<g id="edge3" class="edge">
<title>SafeButtonModule&#45;&gt;RoleAutoAssignmentModule</title>
<path fill="none" stroke="black" d="M304.42,-84.91C304.42,-84.91 304.42,-103.79 304.42,-103.79"/>
<polygon fill="black" stroke="black" points="300.92,-103.79 304.42,-113.79 307.92,-103.79 300.92,-103.79"/>
</g>
<!-- SafeSkeletonTableModule -->
<g id="node5" class="node">
<title>SafeSkeletonTableModule</title>
<polygon fill="#8dd3c7" stroke="black" points="189.79,-84.8 186.79,-88.8 165.79,-88.8 162.79,-84.8 24.21,-84.8 24.21,-48.8 189.79,-48.8 189.79,-84.8"/>
<text text-anchor="middle" x="107" y="-62.6" font-family="Times,serif" font-size="14.00">SafeSkeletonTableModule</text>
</g>
<!-- SafeSkeletonTableModule&#45;&gt;RoleAutoAssignmentModule -->
<g id="edge4" class="edge">
<title>SafeSkeletonTableModule&#45;&gt;RoleAutoAssignmentModule</title>
<path fill="none" stroke="black" d="M107,-84.91C107,-104.14 107,-131.8 107,-131.8 107,-131.8 268.47,-131.8 268.47,-131.8"/>
<polygon fill="black" stroke="black" points="268.47,-135.3 278.47,-131.8 268.47,-128.3 268.47,-135.3"/>
</g>
</g>
</svg>
