<?xml version="1.0" encoding="UTF-8" standalone="no"?>
<!DOCTYPE svg PUBLIC "-//W3C//DTD SVG 1.1//EN"
 "http://www.w3.org/Graphics/SVG/1.1/DTD/svg11.dtd">
<!-- Generated by graphviz version 3.0.0 (20220226.1711)
 -->
<!-- Title: dependencies Pages: 1 -->
<svg width="863pt" height="247pt"
 viewBox="0.00 0.00 863.00 246.80" xmlns="http://www.w3.org/2000/svg" xmlns:xlink="http://www.w3.org/1999/xlink">
<g id="graph0" class="graph" transform="scale(1 1) rotate(0) translate(4 242.8)">
<title>dependencies</title>
<polygon fill="white" stroke="transparent" points="-4,4 -4,-242.8 859,-242.8 859,4 -4,4"/>
<text text-anchor="middle" x="427.5" y="-8.2" font-family="sans-serif" font-size="14.00">dependencies</text>
<g id="clust1" class="cluster">
<title>cluster_LayoutTableModule</title>
<polygon fill="none" stroke="black" stroke-dasharray="1,5" points="8,-32.8 8,-230.8 847,-230.8 847,-32.8 8,-32.8"/>
</g>
<g id="clust4" class="cluster">
<title>cluster_LayoutTableModule_imports</title>
<polygon fill="none" stroke="black" points="192,-40.8 192,-92.8 839,-92.8 839,-40.8 192,-40.8"/>
</g>
<g id="clust2" class="cluster">
<title>cluster_LayoutTableModule_declarations</title>
<polygon fill="none" stroke="black" points="16,-40.8 16,-92.8 184,-92.8 184,-40.8 16,-40.8"/>
</g>
<g id="clust5" class="cluster">
<title>cluster_LayoutTableModule_exports</title>
<polygon fill="none" stroke="black" points="371,-170.8 371,-222.8 543,-222.8 543,-170.8 371,-170.8"/>
</g>
<!-- LayoutTableComponent -->
<g id="node1" class="node">
<title>LayoutTableComponent</title>
<polygon fill="#ffffb3" stroke="black" points="176.36,-84.8 23.64,-84.8 23.64,-48.8 176.36,-48.8 176.36,-84.8"/>
<text text-anchor="middle" x="100" y="-62.6" font-family="Times,serif" font-size="14.00">LayoutTableComponent</text>
</g>
<!-- LayoutTableModule -->
<g id="node2" class="node">
<title>LayoutTableModule</title>
<polygon fill="#8dd3c7" stroke="black" points="522.58,-149.8 519.58,-153.8 498.58,-153.8 495.58,-149.8 391.42,-149.8 391.42,-113.8 522.58,-113.8 522.58,-149.8"/>
<text text-anchor="middle" x="457" y="-127.6" font-family="Times,serif" font-size="14.00">LayoutTableModule</text>
</g>
<!-- LayoutTableComponent&#45;&gt;LayoutTableModule -->
<g id="edge1" class="edge">
<title>LayoutTableComponent&#45;&gt;LayoutTableModule</title>
<path fill="none" stroke="black" d="M100,-84.91C100,-104.14 100,-131.8 100,-131.8 100,-131.8 381.1,-131.8 381.1,-131.8"/>
<polygon fill="black" stroke="black" points="381.1,-135.3 391.1,-131.8 381.1,-128.3 381.1,-135.3"/>
</g>
<!-- LayoutTableComponent  -->
<g id="node7" class="node">
<title>LayoutTableComponent </title>
<polygon fill="#fb8072" stroke="black" points="535.36,-214.8 378.64,-214.8 378.64,-178.8 535.36,-178.8 535.36,-214.8"/>
<text text-anchor="middle" x="457" y="-192.6" font-family="Times,serif" font-size="14.00">LayoutTableComponent </text>
</g>
<!-- LayoutTableModule&#45;&gt;LayoutTableComponent  -->
<g id="edge6" class="edge">
<title>LayoutTableModule&#45;&gt;LayoutTableComponent </title>
<path fill="none" stroke="black" stroke-dasharray="5,2" d="M457,-149.91C457,-149.91 457,-168.79 457,-168.79"/>
<polygon fill="black" stroke="black" points="453.5,-168.79 457,-178.79 460.5,-168.79 453.5,-168.79"/>
</g>
<!-- AddLayoutModalModule -->
<g id="node3" class="node">
<title>AddLayoutModalModule</title>
<polygon fill="#8dd3c7" stroke="black" points="830.87,-84.8 827.87,-88.8 806.87,-88.8 803.87,-84.8 671.13,-84.8 671.13,-48.8 830.87,-48.8 830.87,-84.8"/>
<text text-anchor="middle" x="751" y="-62.6" font-family="Times,serif" font-size="14.00">AddLayoutModalModule</text>
</g>
<!-- AddLayoutModalModule&#45;&gt;LayoutTableModule -->
<g id="edge2" class="edge">
<title>AddLayoutModalModule&#45;&gt;LayoutTableModule</title>
<path fill="none" stroke="black" d="M751,-84.91C751,-104.14 751,-131.8 751,-131.8 751,-131.8 532.61,-131.8 532.61,-131.8"/>
<polygon fill="black" stroke="black" points="532.61,-128.3 522.61,-131.8 532.61,-135.3 532.61,-128.3"/>
</g>
<!-- SafeButtonModule -->
<g id="node4" class="node">
<title>SafeButtonModule</title>
<polygon fill="#8dd3c7" stroke="black" points="653.05,-84.8 650.05,-88.8 629.05,-88.8 626.05,-84.8 530.95,-84.8 530.95,-48.8 653.05,-48.8 653.05,-84.8"/>
<text text-anchor="middle" x="592" y="-62.6" font-family="Times,serif" font-size="14.00">SafeButtonModule</text>
</g>
<!-- SafeButtonModule&#45;&gt;LayoutTableModule -->
<g id="edge3" class="edge">
<title>SafeButtonModule&#45;&gt;LayoutTableModule</title>
<path fill="none" stroke="black" d="M530.81,-66.8C522.9,-66.8 517.48,-66.8 517.48,-66.8 517.48,-66.8 517.48,-103.69 517.48,-103.69"/>
<polygon fill="black" stroke="black" points="513.98,-103.69 517.48,-113.69 520.98,-103.69 513.98,-103.69"/>
</g>
<!-- SafeDateModule -->
<g id="node5" class="node">
<title>SafeDateModule</title>
<polygon fill="#8dd3c7" stroke="black" points="512.36,-84.8 509.36,-88.8 488.36,-88.8 485.36,-84.8 401.64,-84.8 401.64,-48.8 512.36,-48.8 512.36,-84.8"/>
<text text-anchor="middle" x="457" y="-62.6" font-family="Times,serif" font-size="14.00">SafeDateModule</text>
</g>
<!-- SafeDateModule&#45;&gt;LayoutTableModule -->
<g id="edge4" class="edge">
<title>SafeDateModule&#45;&gt;LayoutTableModule</title>
<path fill="none" stroke="black" d="M457,-84.91C457,-84.91 457,-103.79 457,-103.79"/>
<polygon fill="black" stroke="black" points="453.5,-103.79 457,-113.79 460.5,-103.79 453.5,-103.79"/>
</g>
<!-- SafeEditLayoutModalModule -->
<g id="node6" class="node">
<title>SafeEditLayoutModalModule</title>
<polygon fill="#8dd3c7" stroke="black" points="383.97,-84.8 380.97,-88.8 359.97,-88.8 356.97,-84.8 200.03,-84.8 200.03,-48.8 383.97,-48.8 383.97,-84.8"/>
<text text-anchor="middle" x="292" y="-62.6" font-family="Times,serif" font-size="14.00">SafeEditLayoutModalModule</text>
</g>
<!-- SafeEditLayoutModalModule&#45;&gt;LayoutTableModule -->
<g id="edge5" class="edge">
<title>SafeEditLayoutModalModule&#45;&gt;LayoutTableModule</title>
<path fill="none" stroke="black" d="M384.12,-66.8C391.69,-66.8 396.52,-66.8 396.52,-66.8 396.52,-66.8 396.52,-103.69 396.52,-103.69"/>
<polygon fill="black" stroke="black" points="393.02,-103.69 396.52,-113.69 400.02,-103.69 393.02,-103.69"/>
</g>
</g>
</svg>
