<?xml version="1.0" encoding="UTF-8" standalone="no"?>
<!DOCTYPE svg PUBLIC "-//W3C//DTD SVG 1.1//EN"
 "http://www.w3.org/Graphics/SVG/1.1/DTD/svg11.dtd">
<!-- Generated by graphviz version 3.0.0 (20220226.1711)
 -->
<!-- Title: dependencies Pages: 1 -->
<svg width="863pt" height="247pt"
 viewBox="0.00 0.00 863.00 246.80" xmlns="http://www.w3.org/2000/svg" xmlns:xlink="http://www.w3.org/1999/xlink">
<g id="graph0" class="graph" transform="scale(1 1) rotate(0) translate(4 242.8)">
<title>dependencies</title>
<polygon fill="white" stroke="transparent" points="-4,4 -4,-242.8 859,-242.8 859,4 -4,4"/>
<text text-anchor="middle" x="427.5" y="-8.2" font-family="sans-serif" font-size="14.00">dependencies</text>
<g id="clust1" class="cluster">
<title>cluster_LayoutTableModule</title>
<polygon fill="none" stroke="black" stroke-dasharray="1,5" points="8,-32.8 8,-230.8 847,-230.8 847,-32.8 8,-32.8"/>
</g>
<g id="clust2" class="cluster">
<title>cluster_LayoutTableModule_declarations</title>
<polygon fill="none" stroke="black" points="671,-40.8 671,-92.8 839,-92.8 839,-40.8 671,-40.8"/>
</g>
<g id="clust4" class="cluster">
<title>cluster_LayoutTableModule_imports</title>
<polygon fill="none" stroke="black" points="16,-40.8 16,-92.8 663,-92.8 663,-40.8 16,-40.8"/>
</g>
<g id="clust5" class="cluster">
<title>cluster_LayoutTableModule_exports</title>
<polygon fill="none" stroke="black" points="330,-170.8 330,-222.8 502,-222.8 502,-170.8 330,-170.8"/>
</g>
<!-- LayoutTableComponent -->
<g id="node1" class="node">
<title>LayoutTableComponent</title>
<polygon fill="#ffffb3" stroke="black" points="831.36,-84.8 678.64,-84.8 678.64,-48.8 831.36,-48.8 831.36,-84.8"/>
<text text-anchor="middle" x="755" y="-62.6" font-family="Times,serif" font-size="14.00">LayoutTableComponent</text>
</g>
<!-- LayoutTableModule -->
<g id="node2" class="node">
<title>LayoutTableModule</title>
<polygon fill="#8dd3c7" stroke="black" points="481.58,-149.8 478.58,-153.8 457.58,-153.8 454.58,-149.8 350.42,-149.8 350.42,-113.8 481.58,-113.8 481.58,-149.8"/>
<text text-anchor="middle" x="416" y="-127.6" font-family="Times,serif" font-size="14.00">LayoutTableModule</text>
</g>
<!-- LayoutTableComponent&#45;&gt;LayoutTableModule -->
<g id="edge1" class="edge">
<title>LayoutTableComponent&#45;&gt;LayoutTableModule</title>
<path fill="none" stroke="black" d="M755,-85.08C755,-106.12 755,-137.8 755,-137.8 755,-137.8 491.76,-137.8 491.76,-137.8"/>
<polygon fill="black" stroke="black" points="491.76,-134.3 481.76,-137.8 491.76,-141.3 491.76,-134.3"/>
</g>
<!-- LayoutTableComponent  -->
<g id="node7" class="node">
<title>LayoutTableComponent </title>
<polygon fill="#fb8072" stroke="black" points="494.36,-214.8 337.64,-214.8 337.64,-178.8 494.36,-178.8 494.36,-214.8"/>
<text text-anchor="middle" x="416" y="-192.6" font-family="Times,serif" font-size="14.00">LayoutTableComponent </text>
</g>
<!-- LayoutTableModule&#45;&gt;LayoutTableComponent  -->
<g id="edge6" class="edge">
<title>LayoutTableModule&#45;&gt;LayoutTableComponent </title>
<path fill="none" stroke="black" stroke-dasharray="5,2" d="M416,-149.91C416,-149.91 416,-168.79 416,-168.79"/>
<polygon fill="black" stroke="black" points="412.5,-168.79 416,-178.79 419.5,-168.79 412.5,-168.79"/>
</g>
<!-- AddLayoutModalModule -->
<g id="node3" class="node">
<title>AddLayoutModalModule</title>
<polygon fill="#8dd3c7" stroke="black" points="654.87,-84.8 651.87,-88.8 630.87,-88.8 627.87,-84.8 495.13,-84.8 495.13,-48.8 654.87,-48.8 654.87,-84.8"/>
<text text-anchor="middle" x="575" y="-62.6" font-family="Times,serif" font-size="14.00">AddLayoutModalModule</text>
</g>
<!-- AddLayoutModalModule&#45;&gt;LayoutTableModule -->
<g id="edge2" class="edge">
<title>AddLayoutModalModule&#45;&gt;LayoutTableModule</title>
<path fill="none" stroke="black" d="M575,-84.82C575,-102.17 575,-125.8 575,-125.8 575,-125.8 491.59,-125.8 491.59,-125.8"/>
<polygon fill="black" stroke="black" points="491.59,-122.3 481.59,-125.8 491.59,-129.3 491.59,-122.3"/>
</g>
<!-- SafeButtonModule -->
<g id="node4" class="node">
<title>SafeButtonModule</title>
<polygon fill="#8dd3c7" stroke="black" points="477.05,-84.8 474.05,-88.8 453.05,-88.8 450.05,-84.8 354.95,-84.8 354.95,-48.8 477.05,-48.8 477.05,-84.8"/>
<text text-anchor="middle" x="416" y="-62.6" font-family="Times,serif" font-size="14.00">SafeButtonModule</text>
</g>
<!-- SafeButtonModule&#45;&gt;LayoutTableModule -->
<g id="edge3" class="edge">
<title>SafeButtonModule&#45;&gt;LayoutTableModule</title>
<path fill="none" stroke="black" d="M416,-84.91C416,-84.91 416,-103.79 416,-103.79"/>
<polygon fill="black" stroke="black" points="412.5,-103.79 416,-113.79 419.5,-103.79 412.5,-103.79"/>
</g>
<!-- SafeDateModule -->
<g id="node5" class="node">
<title>SafeDateModule</title>
<polygon fill="#8dd3c7" stroke="black" points="336.36,-84.8 333.36,-88.8 312.36,-88.8 309.36,-84.8 225.64,-84.8 225.64,-48.8 336.36,-48.8 336.36,-84.8"/>
<text text-anchor="middle" x="281" y="-62.6" font-family="Times,serif" font-size="14.00">SafeDateModule</text>
</g>
<!-- SafeDateModule&#45;&gt;LayoutTableModule -->
<g id="edge4" class="edge">
<title>SafeDateModule&#45;&gt;LayoutTableModule</title>
<path fill="none" stroke="black" d="M281,-84.82C281,-102.17 281,-125.8 281,-125.8 281,-125.8 340.08,-125.8 340.08,-125.8"/>
<polygon fill="black" stroke="black" points="340.08,-129.3 350.08,-125.8 340.08,-122.3 340.08,-129.3"/>
</g>
<!-- SafeEditLayoutModalModule -->
<g id="node6" class="node">
<title>SafeEditLayoutModalModule</title>
<polygon fill="#8dd3c7" stroke="black" points="207.97,-84.8 204.97,-88.8 183.97,-88.8 180.97,-84.8 24.03,-84.8 24.03,-48.8 207.97,-48.8 207.97,-84.8"/>
<text text-anchor="middle" x="116" y="-62.6" font-family="Times,serif" font-size="14.00">SafeEditLayoutModalModule</text>
</g>
<!-- SafeEditLayoutModalModule&#45;&gt;LayoutTableModule -->
<g id="edge5" class="edge">
<title>SafeEditLayoutModalModule&#45;&gt;LayoutTableModule</title>
<path fill="none" stroke="black" d="M116,-85.08C116,-106.12 116,-137.8 116,-137.8 116,-137.8 340.16,-137.8 340.16,-137.8"/>
<polygon fill="black" stroke="black" points="340.16,-141.3 350.16,-137.8 340.16,-134.3 340.16,-141.3"/>
</g>
</g>
</svg>
