<?xml version="1.0" encoding="UTF-8" standalone="no"?>
<!DOCTYPE svg PUBLIC "-//W3C//DTD SVG 1.1//EN"
 "http://www.w3.org/Graphics/SVG/1.1/DTD/svg11.dtd">
<!-- Generated by graphviz version 3.0.0 (20220226.1711)
 -->
<!-- Title: dependencies Pages: 1 -->
<svg width="1300pt" height="247pt"
 viewBox="0.00 0.00 1300.00 246.80" xmlns="http://www.w3.org/2000/svg" xmlns:xlink="http://www.w3.org/1999/xlink">
<g id="graph0" class="graph" transform="scale(1 1) rotate(0) translate(4 242.8)">
<title>dependencies</title>
<polygon fill="white" stroke="transparent" points="-4,4 -4,-242.8 1296,-242.8 1296,4 -4,4"/>
<text text-anchor="middle" x="646" y="-8.2" font-family="sans-serif" font-size="14.00">dependencies</text>
<g id="clust1" class="cluster">
<title>cluster_SafeLayoutModule</title>
<polygon fill="none" stroke="black" stroke-dasharray="1,5" points="8,-32.8 8,-230.8 1284,-230.8 1284,-32.8 8,-32.8"/>
</g>
<g id="clust4" class="cluster">
<title>cluster_SafeLayoutModule_imports</title>
<polygon fill="none" stroke="black" points="186,-40.8 186,-92.8 1276,-92.8 1276,-40.8 186,-40.8"/>
</g>
<g id="clust5" class="cluster">
<title>cluster_SafeLayoutModule_exports</title>
<polygon fill="none" stroke="black" points="612,-170.8 612,-222.8 778,-222.8 778,-170.8 612,-170.8"/>
</g>
<g id="clust2" class="cluster">
<title>cluster_SafeLayoutModule_declarations</title>
<polygon fill="none" stroke="black" points="16,-40.8 16,-92.8 178,-92.8 178,-40.8 16,-40.8"/>
</g>
<!-- SafeLayoutComponent -->
<g id="node1" class="node">
<title>SafeLayoutComponent</title>
<polygon fill="#ffffb3" stroke="black" points="169.86,-84.8 24.14,-84.8 24.14,-48.8 169.86,-48.8 169.86,-84.8"/>
<text text-anchor="middle" x="97" y="-62.6" font-family="Times,serif" font-size="14.00">SafeLayoutComponent</text>
</g>
<!-- SafeLayoutModule -->
<g id="node2" class="node">
<title>SafeLayoutModule</title>
<polygon fill="#8dd3c7" stroke="black" points="757.08,-149.8 754.08,-153.8 733.08,-153.8 730.08,-149.8 632.92,-149.8 632.92,-113.8 757.08,-113.8 757.08,-149.8"/>
<text text-anchor="middle" x="695" y="-127.6" font-family="Times,serif" font-size="14.00">SafeLayoutModule</text>
</g>
<!-- SafeLayoutComponent&#45;&gt;SafeLayoutModule -->
<g id="edge1" class="edge">
<title>SafeLayoutComponent&#45;&gt;SafeLayoutModule</title>
<path fill="none" stroke="black" d="M97,-85.09C97,-107.01 97,-140.8 97,-140.8 97,-140.8 622.7,-140.8 622.7,-140.8"/>
<polygon fill="black" stroke="black" points="622.7,-144.3 632.7,-140.8 622.7,-137.3 622.7,-144.3"/>
</g>
<!-- SafeLayoutComponent  -->
<g id="node10" class="node">
<title>SafeLayoutComponent </title>
<polygon fill="#fb8072" stroke="black" points="769.86,-214.8 620.14,-214.8 620.14,-178.8 769.86,-178.8 769.86,-214.8"/>
<text text-anchor="middle" x="695" y="-192.6" font-family="Times,serif" font-size="14.00">SafeLayoutComponent </text>
</g>
<!-- SafeLayoutModule&#45;&gt;SafeLayoutComponent  -->
<g id="edge9" class="edge">
<title>SafeLayoutModule&#45;&gt;SafeLayoutComponent </title>
<path fill="none" stroke="black" stroke-dasharray="5,2" d="M695,-149.91C695,-149.91 695,-168.79 695,-168.79"/>
<polygon fill="black" stroke="black" points="691.5,-168.79 695,-178.79 698.5,-168.79 691.5,-168.79"/>
</g>
<!-- SafeBreadcrumbModule -->
<g id="node3" class="node">
<title>SafeBreadcrumbModule</title>
<polygon fill="#8dd3c7" stroke="black" points="1267.62,-84.8 1264.62,-88.8 1243.62,-88.8 1240.62,-84.8 1114.38,-84.8 1114.38,-48.8 1267.62,-48.8 1267.62,-84.8"/>
<text text-anchor="middle" x="1191" y="-62.6" font-family="Times,serif" font-size="14.00">SafeBreadcrumbModule</text>
</g>
<!-- SafeBreadcrumbModule&#45;&gt;SafeLayoutModule -->
<g id="edge2" class="edge">
<title>SafeBreadcrumbModule&#45;&gt;SafeLayoutModule</title>
<path fill="none" stroke="black" d="M1191,-85.09C1191,-107.01 1191,-140.8 1191,-140.8 1191,-140.8 767.07,-140.8 767.07,-140.8"/>
<polygon fill="black" stroke="black" points="767.07,-137.3 757.07,-140.8 767.07,-144.3 767.07,-137.3"/>
</g>
<!-- SafeButtonModule -->
<g id="node4" class="node">
<title>SafeButtonModule</title>
<polygon fill="#8dd3c7" stroke="black" points="1096.05,-84.8 1093.05,-88.8 1072.05,-88.8 1069.05,-84.8 973.95,-84.8 973.95,-48.8 1096.05,-48.8 1096.05,-84.8"/>
<text text-anchor="middle" x="1035" y="-62.6" font-family="Times,serif" font-size="14.00">SafeButtonModule</text>
</g>
<!-- SafeButtonModule&#45;&gt;SafeLayoutModule -->
<g id="edge3" class="edge">
<title>SafeButtonModule&#45;&gt;SafeLayoutModule</title>
<path fill="none" stroke="black" d="M1035,-84.91C1035,-104.14 1035,-131.8 1035,-131.8 1035,-131.8 767.36,-131.8 767.36,-131.8"/>
<polygon fill="black" stroke="black" points="767.36,-128.3 757.36,-131.8 767.36,-135.3 767.36,-128.3"/>
</g>
<!-- SafeDateModule -->
<g id="node5" class="node">
<title>SafeDateModule</title>
<polygon fill="#8dd3c7" stroke="black" points="955.36,-84.8 952.36,-88.8 931.36,-88.8 928.36,-84.8 844.64,-84.8 844.64,-48.8 955.36,-48.8 955.36,-84.8"/>
<text text-anchor="middle" x="900" y="-62.6" font-family="Times,serif" font-size="14.00">SafeDateModule</text>
</g>
<!-- SafeDateModule&#45;&gt;SafeLayoutModule -->
<g id="edge4" class="edge">
<title>SafeDateModule&#45;&gt;SafeLayoutModule</title>
<path fill="none" stroke="black" d="M900,-84.83C900,-101.2 900,-122.8 900,-122.8 900,-122.8 767.06,-122.8 767.06,-122.8"/>
<polygon fill="black" stroke="black" points="767.06,-119.3 757.06,-122.8 767.06,-126.3 767.06,-119.3"/>
</g>
<!-- SafeDividerModule -->
<g id="node6" class="node">
<title>SafeDividerModule</title>
<polygon fill="#8dd3c7" stroke="black" points="826.69,-84.8 823.69,-88.8 802.69,-88.8 799.69,-84.8 699.31,-84.8 699.31,-48.8 826.69,-48.8 826.69,-84.8"/>
<text text-anchor="middle" x="763" y="-62.6" font-family="Times,serif" font-size="14.00">SafeDividerModule</text>
</g>
<!-- SafeDividerModule&#45;&gt;SafeLayoutModule -->
<g id="edge5" class="edge">
<title>SafeDividerModule&#45;&gt;SafeLayoutModule</title>
<path fill="none" stroke="black" d="M728.22,-84.91C728.22,-84.91 728.22,-103.79 728.22,-103.79"/>
<polygon fill="black" stroke="black" points="724.72,-103.79 728.22,-113.79 731.72,-103.79 724.72,-103.79"/>
</g>
<!-- SafeIconModule -->
<g id="node7" class="node">
<title>SafeIconModule</title>
<polygon fill="#8dd3c7" stroke="black" points="681.8,-84.8 678.8,-88.8 657.8,-88.8 654.8,-84.8 572.2,-84.8 572.2,-48.8 681.8,-48.8 681.8,-84.8"/>
<text text-anchor="middle" x="627" y="-62.6" font-family="Times,serif" font-size="14.00">SafeIconModule</text>
</g>
<!-- SafeIconModule&#45;&gt;SafeLayoutModule -->
<g id="edge6" class="edge">
<title>SafeIconModule&#45;&gt;SafeLayoutModule</title>
<path fill="none" stroke="black" d="M657.31,-84.91C657.31,-84.91 657.31,-103.79 657.31,-103.79"/>
<polygon fill="black" stroke="black" points="653.81,-103.79 657.31,-113.79 660.81,-103.79 653.81,-103.79"/>
</g>
<!-- SafePreferencesModalModule -->
<g id="node8" class="node">
<title>SafePreferencesModalModule</title>
<polygon fill="#8dd3c7" stroke="black" points="554.27,-84.8 551.27,-88.8 530.27,-88.8 527.27,-84.8 367.73,-84.8 367.73,-48.8 554.27,-48.8 554.27,-84.8"/>
<text text-anchor="middle" x="461" y="-62.6" font-family="Times,serif" font-size="14.00">SafePreferencesModalModule</text>
</g>
<!-- SafePreferencesModalModule&#45;&gt;SafeLayoutModule -->
<g id="edge7" class="edge">
<title>SafePreferencesModalModule&#45;&gt;SafeLayoutModule</title>
<path fill="none" stroke="black" d="M461,-84.83C461,-101.2 461,-122.8 461,-122.8 461,-122.8 622.91,-122.8 622.91,-122.8"/>
<polygon fill="black" stroke="black" points="622.91,-126.3 632.91,-122.8 622.91,-119.3 622.91,-126.3"/>
</g>
<!-- SafeSearchMenuModule -->
<g id="node9" class="node">
<title>SafeSearchMenuModule</title>
<polygon fill="#8dd3c7" stroke="black" points="349.68,-84.8 346.68,-88.8 325.68,-88.8 322.68,-84.8 194.32,-84.8 194.32,-48.8 349.68,-48.8 349.68,-84.8"/>
<text text-anchor="middle" x="272" y="-62.6" font-family="Times,serif" font-size="14.00">SafeSearchMenuModule</text>
</g>
<!-- SafeSearchMenuModule&#45;&gt;SafeLayoutModule -->
<g id="edge8" class="edge">
<title>SafeSearchMenuModule&#45;&gt;SafeLayoutModule</title>
<path fill="none" stroke="black" d="M272,-84.91C272,-104.14 272,-131.8 272,-131.8 272,-131.8 622.58,-131.8 622.58,-131.8"/>
<polygon fill="black" stroke="black" points="622.58,-135.3 632.58,-131.8 622.58,-128.3 622.58,-135.3"/>
</g>
</g>
</svg>
