<?xml version="1.0" encoding="UTF-8" standalone="no"?>
<!DOCTYPE svg PUBLIC "-//W3C//DTD SVG 1.1//EN"
 "http://www.w3.org/Graphics/SVG/1.1/DTD/svg11.dtd">
<!-- Generated by graphviz version 3.0.0 (20220226.1711)
 -->
<!-- Title: dependencies Pages: 1 -->
<svg width="350pt" height="247pt"
 viewBox="0.00 0.00 350.00 246.80" xmlns="http://www.w3.org/2000/svg" xmlns:xlink="http://www.w3.org/1999/xlink">
<g id="graph0" class="graph" transform="scale(1 1) rotate(0) translate(4 242.8)">
<title>dependencies</title>
<polygon fill="white" stroke="transparent" points="-4,4 -4,-242.8 346,-242.8 346,4 -4,4"/>
<text text-anchor="middle" x="171" y="-8.2" font-family="sans-serif" font-size="14.00">dependencies</text>
<g id="clust1" class="cluster">
<title>cluster_SafeCoreGridModule</title>
<polygon fill="none" stroke="black" stroke-dasharray="1,5" points="8,-32.8 8,-230.8 334,-230.8 334,-32.8 8,-32.8"/>
</g>
<g id="clust2" class="cluster">
<title>cluster_SafeCoreGridModule_declarations</title>
<polygon fill="none" stroke="black" points="150,-40.8 150,-92.8 326,-92.8 326,-40.8 150,-40.8"/>
</g>
<g id="clust5" class="cluster">
<title>cluster_SafeCoreGridModule_exports</title>
<polygon fill="none" stroke="black" points="82,-170.8 82,-222.8 260,-222.8 260,-170.8 82,-170.8"/>
</g>
<g id="clust4" class="cluster">
<title>cluster_SafeCoreGridModule_imports</title>
<polygon fill="none" stroke="black" points="16,-40.8 16,-92.8 142,-92.8 142,-40.8 16,-40.8"/>
</g>
<!-- SafeCoreGridComponent -->
<g id="node1" class="node">
<title>SafeCoreGridComponent</title>
<polygon fill="#ffffb3" stroke="black" points="317.58,-84.8 158.42,-84.8 158.42,-48.8 317.58,-48.8 317.58,-84.8"/>
<text text-anchor="middle" x="238" y="-62.6" font-family="Times,serif" font-size="14.00">SafeCoreGridComponent</text>
</g>
<!-- SafeCoreGridModule -->
<g id="node2" class="node">
<title>SafeCoreGridModule</title>
<polygon fill="#8dd3c7" stroke="black" points="239.8,-149.8 236.8,-153.8 215.8,-153.8 212.8,-149.8 102.2,-149.8 102.2,-113.8 239.8,-113.8 239.8,-149.8"/>
<text text-anchor="middle" x="171" y="-127.6" font-family="Times,serif" font-size="14.00">SafeCoreGridModule</text>
</g>
<!-- SafeCoreGridComponent&#45;&gt;SafeCoreGridModule -->
<g id="edge1" class="edge">
<title>SafeCoreGridComponent&#45;&gt;SafeCoreGridModule</title>
<path fill="none" stroke="black" d="M199.06,-84.91C199.06,-84.91 199.06,-103.79 199.06,-103.79"/>
<polygon fill="black" stroke="black" points="195.56,-103.79 199.06,-113.79 202.56,-103.79 195.56,-103.79"/>
</g>
<!-- SafeCoreGridComponent  -->
<g id="node4" class="node">
<title>SafeCoreGridComponent </title>
<polygon fill="#fb8072" stroke="black" points="252.08,-214.8 89.92,-214.8 89.92,-178.8 252.08,-178.8 252.08,-214.8"/>
<text text-anchor="middle" x="171" y="-192.6" font-family="Times,serif" font-size="14.00">SafeCoreGridComponent </text>
</g>
<!-- SafeCoreGridModule&#45;&gt;SafeCoreGridComponent  -->
<g id="edge3" class="edge">
<title>SafeCoreGridModule&#45;&gt;SafeCoreGridComponent </title>
<path fill="none" stroke="black" stroke-dasharray="5,2" d="M171,-149.91C171,-149.91 171,-168.79 171,-168.79"/>
<polygon fill="black" stroke="black" points="167.5,-168.79 171,-178.79 174.5,-168.79 167.5,-168.79"/>
</g>
<!-- SafeGridModule -->
<g id="node3" class="node">
<title>SafeGridModule</title>
<polygon fill="#8dd3c7" stroke="black" points="134.09,-84.8 131.09,-88.8 110.09,-88.8 107.09,-84.8 23.91,-84.8 23.91,-48.8 134.09,-48.8 134.09,-84.8"/>
<text text-anchor="middle" x="79" y="-62.6" font-family="Times,serif" font-size="14.00">SafeGridModule</text>
</g>
<!-- SafeGridModule&#45;&gt;SafeCoreGridModule -->
<g id="edge2" class="edge">
<title>SafeGridModule&#45;&gt;SafeCoreGridModule</title>
<path fill="none" stroke="black" d="M118.2,-84.91C118.2,-84.91 118.2,-103.79 118.2,-103.79"/>
<polygon fill="black" stroke="black" points="114.7,-103.79 118.2,-113.79 121.7,-103.79 114.7,-103.79"/>
</g>
</g>
</svg>
