<?xml version="1.0" encoding="UTF-8" standalone="no"?>
<!DOCTYPE svg PUBLIC "-//W3C//DTD SVG 1.1//EN"
 "http://www.w3.org/Graphics/SVG/1.1/DTD/svg11.dtd">
<!-- Generated by graphviz version 3.0.0 (20220226.1711)
 -->
<!-- Title: dependencies Pages: 1 -->
<svg width="252pt" height="247pt"
 viewBox="0.00 0.00 252.00 246.80" xmlns="http://www.w3.org/2000/svg" xmlns:xlink="http://www.w3.org/1999/xlink">
<g id="graph0" class="graph" transform="scale(1 1) rotate(0) translate(4 242.8)">
<title>dependencies</title>
<polygon fill="white" stroke="transparent" points="-4,4 -4,-242.8 248,-242.8 248,4 -4,4"/>
<text text-anchor="middle" x="122" y="-8.2" font-family="sans-serif" font-size="14.00">dependencies</text>
<g id="clust1" class="cluster">
<title>cluster_SafePreviousButtonModule</title>
<polygon fill="none" stroke="black" stroke-dasharray="1,5" points="8,-32.8 8,-230.8 236,-230.8 236,-32.8 8,-32.8"/>
</g>
<g id="clust5" class="cluster">
<title>cluster_SafePreviousButtonModule_exports</title>
<polygon fill="none" stroke="black" points="16,-170.8 16,-222.8 228,-222.8 228,-170.8 16,-170.8"/>
</g>
<g id="clust2" class="cluster">
<title>cluster_SafePreviousButtonModule_declarations</title>
<polygon fill="none" stroke="black" points="17,-40.8 17,-92.8 227,-92.8 227,-40.8 17,-40.8"/>
</g>
<!-- SafePreviousButtonComponent -->
<g id="node1" class="node">
<title>SafePreviousButtonComponent</title>
<polygon fill="#ffffb3" stroke="black" points="218.82,-84.8 25.18,-84.8 25.18,-48.8 218.82,-48.8 218.82,-84.8"/>
<text text-anchor="middle" x="122" y="-62.6" font-family="Times,serif" font-size="14.00">SafePreviousButtonComponent</text>
</g>
<!-- SafePreviousButtonModule -->
<g id="node2" class="node">
<title>SafePreviousButtonModule</title>
<polygon fill="#8dd3c7" stroke="black" points="207.55,-149.8 204.55,-153.8 183.55,-153.8 180.55,-149.8 36.45,-149.8 36.45,-113.8 207.55,-113.8 207.55,-149.8"/>
<text text-anchor="middle" x="122" y="-127.6" font-family="Times,serif" font-size="14.00">SafePreviousButtonModule</text>
</g>
<!-- SafePreviousButtonComponent&#45;&gt;SafePreviousButtonModule -->
<g id="edge1" class="edge">
<title>SafePreviousButtonComponent&#45;&gt;SafePreviousButtonModule</title>
<path fill="none" stroke="black" d="M122,-84.91C122,-84.91 122,-103.79 122,-103.79"/>
<polygon fill="black" stroke="black" points="118.5,-103.79 122,-113.79 125.5,-103.79 118.5,-103.79"/>
</g>
<!-- SafePreviousButtonComponent  -->
<g id="node3" class="node">
<title>SafePreviousButtonComponent </title>
<polygon fill="#fb8072" stroke="black" points="220.32,-214.8 23.68,-214.8 23.68,-178.8 220.32,-178.8 220.32,-214.8"/>
<text text-anchor="middle" x="122" y="-192.6" font-family="Times,serif" font-size="14.00">SafePreviousButtonComponent </text>
</g>
<!-- SafePreviousButtonModule&#45;&gt;SafePreviousButtonComponent  -->
<g id="edge2" class="edge">
<title>SafePreviousButtonModule&#45;&gt;SafePreviousButtonComponent </title>
<path fill="none" stroke="black" stroke-dasharray="5,2" d="M122,-149.91C122,-149.91 122,-168.79 122,-168.79"/>
<polygon fill="black" stroke="black" points="118.5,-168.79 122,-178.79 125.5,-168.79 118.5,-168.79"/>
</g>
</g>
</svg>
