<?xml version="1.0" encoding="UTF-8" standalone="no"?>
<!DOCTYPE svg PUBLIC "-//W3C//DTD SVG 1.1//EN"
 "http://www.w3.org/Graphics/SVG/1.1/DTD/svg11.dtd">
<!-- Generated by graphviz version 2.47.0 (20210316.0004)
 -->
<!-- Title: dependencies Pages: 1 -->
<svg width="936pt" height="284pt"
 viewBox="0.00 0.00 936.00 284.00" xmlns="http://www.w3.org/2000/svg" xmlns:xlink="http://www.w3.org/1999/xlink">
<g id="graph0" class="graph" transform="scale(1 1) rotate(0) translate(4 280)">
<title>dependencies</title>
<polygon fill="white" stroke="transparent" points="-4,4 -4,-280 932,-280 932,4 -4,4"/>
<text text-anchor="start" x="443.01" y="-42.4" font-family="sans-serif" font-weight="bold" font-size="14.00">Legend</text>
<polygon fill="#ffffb3" stroke="transparent" points="230,-10 230,-30 250,-30 250,-10 230,-10"/>
<text text-anchor="start" x="253.63" y="-15.4" font-family="sans-serif" font-size="14.00"> &#160;Declarations</text>
<polygon fill="#8dd3c7" stroke="transparent" points="343,-10 343,-30 363,-30 363,-10 343,-10"/>
<text text-anchor="start" x="366.73" y="-15.4" font-family="sans-serif" font-size="14.00"> &#160;Module</text>
<polygon fill="#80b1d3" stroke="transparent" points="429,-10 429,-30 449,-30 449,-10 429,-10"/>
<text text-anchor="start" x="452.78" y="-15.4" font-family="sans-serif" font-size="14.00"> &#160;Bootstrap</text>
<polygon fill="#fdb462" stroke="transparent" points="526,-10 526,-30 546,-30 546,-10 526,-10"/>
<text text-anchor="start" x="549.67" y="-15.4" font-family="sans-serif" font-size="14.00"> &#160;Providers</text>
<polygon fill="#fb8072" stroke="transparent" points="622,-10 622,-30 642,-30 642,-10 622,-10"/>
<text text-anchor="start" x="645.73" y="-15.4" font-family="sans-serif" font-size="14.00"> &#160;Exports</text>
<g id="clust1" class="cluster">
<title>cluster_SafeWidgetModule</title>
<polygon fill="none" stroke="black" stroke-dasharray="1,5" points="8,-70 8,-268 920,-268 920,-70 8,-70"/>
</g>
<g id="clust4" class="cluster">
<title>cluster_SafeWidgetModule_imports</title>
<polygon fill="none" stroke="black" points="188,-78 188,-130 912,-130 912,-78 188,-78"/>
</g>
<g id="clust5" class="cluster">
<title>cluster_SafeWidgetModule_exports</title>
<polygon fill="none" stroke="black" points="400,-208 400,-260 566,-260 566,-208 400,-208"/>
</g>
<g id="clust2" class="cluster">
<title>cluster_SafeWidgetModule_declarations</title>
<polygon fill="none" stroke="black" points="16,-78 16,-130 180,-130 180,-78 16,-78"/>
</g>
<!-- SafeWidgetComponent -->
<g id="node1" class="node">
<title>SafeWidgetComponent</title>
<polygon fill="#ffffb3" stroke="black" points="171.92,-122 24.08,-122 24.08,-86 171.92,-86 171.92,-122"/>
<text text-anchor="middle" x="98" y="-99.8" font-family="Times,serif" font-size="14.00">SafeWidgetComponent</text>
</g>
<!-- SafeWidgetModule -->
<g id="node2" class="node">
<title>SafeWidgetModule</title>
<polygon fill="#8dd3c7" stroke="black" points="545.63,-187 542.63,-191 521.63,-191 518.63,-187 420.37,-187 420.37,-151 545.63,-151 545.63,-187"/>
<text text-anchor="middle" x="483" y="-164.8" font-family="Times,serif" font-size="14.00">SafeWidgetModule</text>
</g>
<!-- SafeWidgetComponent&#45;&gt;SafeWidgetModule -->
<g id="edge1" class="edge">
<title>SafeWidgetComponent&#45;&gt;SafeWidgetModule</title>
<path fill="none" stroke="black" d="M98,-122.28C98,-143.32 98,-175 98,-175 98,-175 410.29,-175 410.29,-175"/>
<polygon fill="black" stroke="black" points="410.29,-178.5 420.29,-175 410.29,-171.5 410.29,-178.5"/>
</g>
<!-- SafeWidgetComponent  -->
<g id="node8" class="node">
<title>SafeWidgetComponent </title>
<polygon fill="#fb8072" stroke="black" points="558.42,-252 407.58,-252 407.58,-216 558.42,-216 558.42,-252"/>
<text text-anchor="middle" x="483" y="-229.8" font-family="Times,serif" font-size="14.00">SafeWidgetComponent </text>
</g>
<!-- SafeWidgetModule&#45;&gt;SafeWidgetComponent  -->
<g id="edge7" class="edge">
<title>SafeWidgetModule&#45;&gt;SafeWidgetComponent </title>
<path fill="none" stroke="black" stroke-dasharray="5,2" d="M483,-187.11C483,-187.11 483,-205.99 483,-205.99"/>
<polygon fill="black" stroke="black" points="479.5,-205.99 483,-215.99 486.5,-205.99 479.5,-205.99"/>
</g>
<!-- SafeChartModule -->
<g id="node3" class="node">
<title>SafeChartModule</title>
<polygon fill="#8dd3c7" stroke="black" points="903.53,-122 900.53,-126 879.53,-126 876.53,-122 788.47,-122 788.47,-86 903.53,-86 903.53,-122"/>
<text text-anchor="middle" x="846" y="-99.8" font-family="Times,serif" font-size="14.00">SafeChartModule</text>
</g>
<!-- SafeChartModule&#45;&gt;SafeWidgetModule -->
<g id="edge2" class="edge">
<title>SafeChartModule&#45;&gt;SafeWidgetModule</title>
<path fill="none" stroke="black" d="M846,-122.28C846,-143.32 846,-175 846,-175 846,-175 555.82,-175 555.82,-175"/>
<polygon fill="black" stroke="black" points="555.82,-171.5 545.82,-175 555.82,-178.5 555.82,-171.5"/>
</g>
<!-- SafeEditorModule -->
<g id="node4" class="node">
<title>SafeEditorModule</title>
<polygon fill="#8dd3c7" stroke="black" points="770.92,-122 767.92,-126 746.92,-126 743.92,-122 651.08,-122 651.08,-86 770.92,-86 770.92,-122"/>
<text text-anchor="middle" x="711" y="-99.8" font-family="Times,serif" font-size="14.00">SafeEditorModule</text>
</g>
<!-- SafeEditorModule&#45;&gt;SafeWidgetModule -->
<g id="edge3" class="edge">
<title>SafeEditorModule&#45;&gt;SafeWidgetModule</title>
<path fill="none" stroke="black" d="M711,-122.02C711,-139.37 711,-163 711,-163 711,-163 555.91,-163 555.91,-163"/>
<polygon fill="black" stroke="black" points="555.91,-159.5 545.91,-163 555.91,-166.5 555.91,-159.5"/>
</g>
<!-- SafeGridWidgetModule -->
<g id="node5" class="node">
<title>SafeGridWidgetModule</title>
<polygon fill="#8dd3c7" stroke="black" points="633.79,-122 630.79,-126 609.79,-126 606.79,-122 482.21,-122 482.21,-86 633.79,-86 633.79,-122"/>
<text text-anchor="middle" x="558" y="-99.8" font-family="Times,serif" font-size="14.00">SafeGridWidgetModule</text>
</g>
<!-- SafeGridWidgetModule&#45;&gt;SafeWidgetModule -->
<g id="edge4" class="edge">
<title>SafeGridWidgetModule&#45;&gt;SafeWidgetModule</title>
<path fill="none" stroke="black" d="M514.09,-122.11C514.09,-122.11 514.09,-140.99 514.09,-140.99"/>
<polygon fill="black" stroke="black" points="510.59,-140.99 514.09,-150.99 517.59,-140.99 510.59,-140.99"/>
</g>
<!-- SafeMapModule -->
<g id="node6" class="node">
<title>SafeMapModule</title>
<polygon fill="#8dd3c7" stroke="black" points="464.08,-122 461.08,-126 440.08,-126 437.08,-122 353.92,-122 353.92,-86 464.08,-86 464.08,-122"/>
<text text-anchor="middle" x="409" y="-99.8" font-family="Times,serif" font-size="14.00">SafeMapModule</text>
</g>
<!-- SafeMapModule&#45;&gt;SafeWidgetModule -->
<g id="edge5" class="edge">
<title>SafeMapModule&#45;&gt;SafeWidgetModule</title>
<path fill="none" stroke="black" d="M442.11,-122.11C442.11,-122.11 442.11,-140.99 442.11,-140.99"/>
<polygon fill="black" stroke="black" points="438.61,-140.99 442.11,-150.99 445.61,-140.99 438.61,-140.99"/>
</g>
<!-- SafeSchedulerModule -->
<g id="node7" class="node">
<title>SafeSchedulerModule</title>
<polygon fill="#8dd3c7" stroke="black" points="336.4,-122 333.4,-126 312.4,-126 309.4,-122 195.6,-122 195.6,-86 336.4,-86 336.4,-122"/>
<text text-anchor="middle" x="266" y="-99.8" font-family="Times,serif" font-size="14.00">SafeSchedulerModule</text>
</g>
<!-- SafeSchedulerModule&#45;&gt;SafeWidgetModule -->
<g id="edge6" class="edge">
<title>SafeSchedulerModule&#45;&gt;SafeWidgetModule</title>
<path fill="none" stroke="black" d="M266,-122.02C266,-139.37 266,-163 266,-163 266,-163 410.23,-163 410.23,-163"/>
<polygon fill="black" stroke="black" points="410.23,-166.5 420.23,-163 410.23,-159.5 410.23,-166.5"/>
</g>
</g>
</svg>
