<?xml version="1.0" encoding="UTF-8" standalone="no"?>
<!DOCTYPE svg PUBLIC "-//W3C//DTD SVG 1.1//EN"
 "http://www.w3.org/Graphics/SVG/1.1/DTD/svg11.dtd">
<!-- Generated by graphviz version 3.0.0 (20220226.1711)
 -->
<!-- Title: dependencies Pages: 1 -->
<svg width="256pt" height="247pt"
 viewBox="0.00 0.00 256.00 246.80" xmlns="http://www.w3.org/2000/svg" xmlns:xlink="http://www.w3.org/1999/xlink">
<g id="graph0" class="graph" transform="scale(1 1) rotate(0) translate(4 242.8)">
<title>dependencies</title>
<polygon fill="white" stroke="transparent" points="-4,4 -4,-242.8 252,-242.8 252,4 -4,4"/>
<text text-anchor="middle" x="124" y="-8.2" font-family="sans-serif" font-size="14.00">dependencies</text>
<g id="clust1" class="cluster">
<title>cluster_SafeDropdownFilterModule</title>
<polygon fill="none" stroke="black" stroke-dasharray="1,5" points="8,-32.8 8,-230.8 240,-230.8 240,-32.8 8,-32.8"/>
</g>
<g id="clust2" class="cluster">
<title>cluster_SafeDropdownFilterModule_declarations</title>
<polygon fill="none" stroke="black" points="18,-40.8 18,-92.8 230,-92.8 230,-40.8 18,-40.8"/>
</g>
<g id="clust5" class="cluster">
<title>cluster_SafeDropdownFilterModule_exports</title>
<polygon fill="none" stroke="black" points="16,-170.8 16,-222.8 232,-222.8 232,-170.8 16,-170.8"/>
</g>
<!-- SafeDropdownFilterComponent -->
<g id="node1" class="node">
<title>SafeDropdownFilterComponent</title>
<polygon fill="#ffffb3" stroke="black" points="222.42,-84.8 25.58,-84.8 25.58,-48.8 222.42,-48.8 222.42,-84.8"/>
<text text-anchor="middle" x="124" y="-62.6" font-family="Times,serif" font-size="14.00">SafeDropdownFilterComponent</text>
</g>
<!-- SafeDropdownFilterModule -->
<g id="node2" class="node">
<title>SafeDropdownFilterModule</title>
<polygon fill="#8dd3c7" stroke="black" points="211.14,-149.8 208.14,-153.8 187.14,-153.8 184.14,-149.8 36.86,-149.8 36.86,-113.8 211.14,-113.8 211.14,-149.8"/>
<text text-anchor="middle" x="124" y="-127.6" font-family="Times,serif" font-size="14.00">SafeDropdownFilterModule</text>
</g>
<!-- SafeDropdownFilterComponent&#45;&gt;SafeDropdownFilterModule -->
<g id="edge1" class="edge">
<title>SafeDropdownFilterComponent&#45;&gt;SafeDropdownFilterModule</title>
<path fill="none" stroke="black" d="M124,-84.91C124,-84.91 124,-103.79 124,-103.79"/>
<polygon fill="black" stroke="black" points="120.5,-103.79 124,-113.79 127.5,-103.79 120.5,-103.79"/>
</g>
<!-- SafeDropdownFilterComponent  -->
<g id="node3" class="node">
<title>SafeDropdownFilterComponent </title>
<polygon fill="#fb8072" stroke="black" points="223.92,-214.8 24.08,-214.8 24.08,-178.8 223.92,-178.8 223.92,-214.8"/>
<text text-anchor="middle" x="124" y="-192.6" font-family="Times,serif" font-size="14.00">SafeDropdownFilterComponent </text>
</g>
<!-- SafeDropdownFilterModule&#45;&gt;SafeDropdownFilterComponent  -->
<g id="edge2" class="edge">
<title>SafeDropdownFilterModule&#45;&gt;SafeDropdownFilterComponent </title>
<path fill="none" stroke="black" stroke-dasharray="5,2" d="M124,-149.91C124,-149.91 124,-168.79 124,-168.79"/>
<polygon fill="black" stroke="black" points="120.5,-168.79 124,-178.79 127.5,-168.79 120.5,-168.79"/>
</g>
</g>
</svg>
