<?xml version="1.0" encoding="UTF-8" standalone="no"?>
<!DOCTYPE svg PUBLIC "-//W3C//DTD SVG 1.1//EN"
 "http://www.w3.org/Graphics/SVG/1.1/DTD/svg11.dtd">
<!-- Generated by graphviz version 3.0.0 (20220226.1711)
 -->
<!-- Title: dependencies Pages: 1 -->
<svg width="470pt" height="247pt"
 viewBox="0.00 0.00 470.00 246.80" xmlns="http://www.w3.org/2000/svg" xmlns:xlink="http://www.w3.org/1999/xlink">
<g id="graph0" class="graph" transform="scale(1 1) rotate(0) translate(4 242.8)">
<title>dependencies</title>
<polygon fill="white" stroke="transparent" points="-4,4 -4,-242.8 466,-242.8 466,4 -4,4"/>
<text text-anchor="middle" x="231" y="-8.2" font-family="sans-serif" font-size="14.00">dependencies</text>
<g id="clust1" class="cluster">
<title>cluster_FormsModule</title>
<polygon fill="none" stroke="black" stroke-dasharray="1,5" points="8,-32.8 8,-230.8 454,-230.8 454,-32.8 8,-32.8"/>
</g>
<g id="clust2" class="cluster">
<title>cluster_FormsModule_declarations</title>
<polygon fill="none" stroke="black" points="312,-40.8 312,-92.8 446,-92.8 446,-40.8 312,-40.8"/>
</g>
<g id="clust4" class="cluster">
<title>cluster_FormsModule_imports</title>
<polygon fill="none" stroke="black" points="16,-40.8 16,-92.8 304,-92.8 304,-40.8 16,-40.8"/>
</g>
<g id="clust5" class="cluster">
<title>cluster_FormsModule_exports</title>
<polygon fill="none" stroke="black" points="171,-170.8 171,-222.8 307,-222.8 307,-170.8 171,-170.8"/>
</g>
<!-- FormsComponent -->
<g id="node1" class="node">
<title>FormsComponent</title>
<polygon fill="#ffffb3" stroke="black" points="437.62,-84.8 320.38,-84.8 320.38,-48.8 437.62,-48.8 437.62,-84.8"/>
<text text-anchor="middle" x="379" y="-62.6" font-family="Times,serif" font-size="14.00">FormsComponent</text>
</g>
<!-- FormsModule -->
<g id="node2" class="node">
<title>FormsModule</title>
<polygon fill="#8dd3c7" stroke="black" points="286.84,-149.8 283.84,-153.8 262.84,-153.8 259.84,-149.8 191.16,-149.8 191.16,-113.8 286.84,-113.8 286.84,-149.8"/>
<text text-anchor="middle" x="239" y="-127.6" font-family="Times,serif" font-size="14.00">FormsModule</text>
</g>
<!-- FormsComponent&#45;&gt;FormsModule -->
<g id="edge1" class="edge">
<title>FormsComponent&#45;&gt;FormsModule</title>
<path fill="none" stroke="black" d="M379,-84.91C379,-104.14 379,-131.8 379,-131.8 379,-131.8 296.79,-131.8 296.79,-131.8"/>
<polygon fill="black" stroke="black" points="296.79,-128.3 286.79,-131.8 296.79,-135.3 296.79,-128.3"/>
</g>
<!-- FormsComponent  -->
<g id="node5" class="node">
<title>FormsComponent </title>
<polygon fill="#fb8072" stroke="black" points="299.12,-214.8 178.88,-214.8 178.88,-178.8 299.12,-178.8 299.12,-214.8"/>
<text text-anchor="middle" x="239" y="-192.6" font-family="Times,serif" font-size="14.00">FormsComponent </text>
</g>
<!-- FormsModule&#45;&gt;FormsComponent  -->
<g id="edge4" class="edge">
<title>FormsModule&#45;&gt;FormsComponent </title>
<path fill="none" stroke="black" stroke-dasharray="5,2" d="M239,-149.91C239,-149.91 239,-168.79 239,-168.79"/>
<polygon fill="black" stroke="black" points="235.5,-168.79 239,-178.79 242.5,-168.79 235.5,-168.79"/>
</g>
<!-- AddFormModule -->
<g id="node3" class="node">
<title>AddFormModule</title>
<polygon fill="#8dd3c7" stroke="black" points="296,-84.8 293,-88.8 272,-88.8 269,-84.8 182,-84.8 182,-48.8 296,-48.8 296,-84.8"/>
<text text-anchor="middle" x="239" y="-62.6" font-family="Times,serif" font-size="14.00">AddFormModule</text>
</g>
<!-- AddFormModule&#45;&gt;FormsModule -->
<g id="edge2" class="edge">
<title>AddFormModule&#45;&gt;FormsModule</title>
<path fill="none" stroke="black" d="M239,-84.91C239,-84.91 239,-103.79 239,-103.79"/>
<polygon fill="black" stroke="black" points="235.5,-103.79 239,-113.79 242.5,-103.79 235.5,-103.79"/>
</g>
<!-- FormsRoutingModule -->
<g id="node4" class="node">
<title>FormsRoutingModule</title>
<polygon fill="#8dd3c7" stroke="black" points="164.46,-84.8 161.46,-88.8 140.46,-88.8 137.46,-84.8 23.54,-84.8 23.54,-48.8 164.46,-48.8 164.46,-84.8"/>
<text text-anchor="middle" x="94" y="-62.6" font-family="Times,serif" font-size="14.00">FormsRoutingModule</text>
</g>
<!-- FormsRoutingModule&#45;&gt;FormsModule -->
<g id="edge3" class="edge">
<title>FormsRoutingModule&#45;&gt;FormsModule</title>
<path fill="none" stroke="black" d="M94,-84.91C94,-104.14 94,-131.8 94,-131.8 94,-131.8 181.12,-131.8 181.12,-131.8"/>
<polygon fill="black" stroke="black" points="181.12,-135.3 191.12,-131.8 181.12,-128.3 181.12,-135.3"/>
</g>
</g>
</svg>
