<?xml version="1.0" encoding="UTF-8" standalone="no"?>
<!DOCTYPE svg PUBLIC "-//W3C//DTD SVG 1.1//EN"
 "http://www.w3.org/Graphics/SVG/1.1/DTD/svg11.dtd">
<!-- Generated by graphviz version 3.0.0 (20220226.1711)
 -->
<!-- Title: dependencies Pages: 1 -->
<svg width="784pt" height="247pt"
 viewBox="0.00 0.00 784.00 246.80" xmlns="http://www.w3.org/2000/svg" xmlns:xlink="http://www.w3.org/1999/xlink">
<g id="graph0" class="graph" transform="scale(1 1) rotate(0) translate(4 242.8)">
<title>dependencies</title>
<polygon fill="white" stroke="transparent" points="-4,4 -4,-242.8 780,-242.8 780,4 -4,4"/>
<text text-anchor="middle" x="388" y="-8.2" font-family="sans-serif" font-size="14.00">dependencies</text>
<g id="clust1" class="cluster">
<title>cluster_MapOnlineLayersModule</title>
<polygon fill="none" stroke="black" stroke-dasharray="1,5" points="8,-32.8 8,-230.8 768,-230.8 768,-32.8 8,-32.8"/>
</g>
<g id="clust5" class="cluster">
<title>cluster_MapOnlineLayersModule_exports</title>
<polygon fill="none" stroke="black" points="251,-170.8 251,-222.8 453,-222.8 453,-170.8 251,-170.8"/>
</g>
<g id="clust2" class="cluster">
<title>cluster_MapOnlineLayersModule_declarations</title>
<polygon fill="none" stroke="black" points="560,-40.8 560,-92.8 760,-92.8 760,-40.8 560,-40.8"/>
</g>
<g id="clust4" class="cluster">
<title>cluster_MapOnlineLayersModule_imports</title>
<polygon fill="none" stroke="black" points="16,-40.8 16,-92.8 552,-92.8 552,-40.8 16,-40.8"/>
</g>
<!-- MapOnlineLayersComponent -->
<g id="node1" class="node">
<title>MapOnlineLayersComponent</title>
<polygon fill="#ffffb3" stroke="black" points="751.69,-84.8 568.31,-84.8 568.31,-48.8 751.69,-48.8 751.69,-84.8"/>
<text text-anchor="middle" x="660" y="-62.6" font-family="Times,serif" font-size="14.00">MapOnlineLayersComponent</text>
</g>
<!-- MapOnlineLayersModule -->
<g id="node2" class="node">
<title>MapOnlineLayersModule</title>
<polygon fill="#8dd3c7" stroke="black" points="432.91,-149.8 429.91,-153.8 408.91,-153.8 405.91,-149.8 271.09,-149.8 271.09,-113.8 432.91,-113.8 432.91,-149.8"/>
<text text-anchor="middle" x="352" y="-127.6" font-family="Times,serif" font-size="14.00">MapOnlineLayersModule</text>
</g>
<!-- MapOnlineLayersComponent&#45;&gt;MapOnlineLayersModule -->
<g id="edge1" class="edge">
<title>MapOnlineLayersComponent&#45;&gt;MapOnlineLayersModule</title>
<path fill="none" stroke="black" d="M660,-85.08C660,-106.12 660,-137.8 660,-137.8 660,-137.8 442.92,-137.8 442.92,-137.8"/>
<polygon fill="black" stroke="black" points="442.92,-134.3 432.92,-137.8 442.92,-141.3 442.92,-134.3"/>
</g>
<!-- MapOnlineLayersComponent  -->
<g id="node7" class="node">
<title>MapOnlineLayersComponent </title>
<polygon fill="#fb8072" stroke="black" points="445.19,-214.8 258.81,-214.8 258.81,-178.8 445.19,-178.8 445.19,-214.8"/>
<text text-anchor="middle" x="352" y="-192.6" font-family="Times,serif" font-size="14.00">MapOnlineLayersComponent </text>
</g>
<!-- MapOnlineLayersModule&#45;&gt;MapOnlineLayersComponent  -->
<g id="edge6" class="edge">
<title>MapOnlineLayersModule&#45;&gt;MapOnlineLayersComponent </title>
<path fill="none" stroke="black" stroke-dasharray="5,2" d="M352,-149.91C352,-149.91 352,-168.79 352,-168.79"/>
<polygon fill="black" stroke="black" points="348.5,-168.79 352,-178.79 355.5,-168.79 348.5,-168.79"/>
</g>
<!-- SafeAlertModule -->
<g id="node3" class="node">
<title>SafeAlertModule</title>
<polygon fill="#8dd3c7" stroke="black" points="543.69,-84.8 540.69,-88.8 519.69,-88.8 516.69,-84.8 430.31,-84.8 430.31,-48.8 543.69,-48.8 543.69,-84.8"/>
<text text-anchor="middle" x="487" y="-62.6" font-family="Times,serif" font-size="14.00">SafeAlertModule</text>
</g>
<!-- SafeAlertModule&#45;&gt;MapOnlineLayersModule -->
<g id="edge2" class="edge">
<title>SafeAlertModule&#45;&gt;MapOnlineLayersModule</title>
<path fill="none" stroke="black" d="M439.02,-84.82C439.02,-102.17 439.02,-125.8 439.02,-125.8 439.02,-125.8 438.4,-125.8 438.4,-125.8"/>
<polygon fill="black" stroke="black" points="442.76,-122.3 432.76,-125.8 442.76,-129.3 442.76,-122.3"/>
</g>
<!-- SafeBadgeModule -->
<g id="node4" class="node">
<title>SafeBadgeModule</title>
<polygon fill="#8dd3c7" stroke="black" points="412.19,-84.8 409.19,-88.8 388.19,-88.8 385.19,-84.8 291.81,-84.8 291.81,-48.8 412.19,-48.8 412.19,-84.8"/>
<text text-anchor="middle" x="352" y="-62.6" font-family="Times,serif" font-size="14.00">SafeBadgeModule</text>
</g>
<!-- SafeBadgeModule&#45;&gt;MapOnlineLayersModule -->
<g id="edge3" class="edge">
<title>SafeBadgeModule&#45;&gt;MapOnlineLayersModule</title>
<path fill="none" stroke="black" d="M352,-84.91C352,-84.91 352,-103.79 352,-103.79"/>
<polygon fill="black" stroke="black" points="348.5,-103.79 352,-113.79 355.5,-103.79 348.5,-103.79"/>
</g>
<!-- SafeButtonModule -->
<g id="node5" class="node">
<title>SafeButtonModule</title>
<polygon fill="#8dd3c7" stroke="black" points="274.05,-84.8 271.05,-88.8 250.05,-88.8 247.05,-84.8 151.95,-84.8 151.95,-48.8 274.05,-48.8 274.05,-84.8"/>
<text text-anchor="middle" x="213" y="-62.6" font-family="Times,serif" font-size="14.00">SafeButtonModule</text>
</g>
<!-- SafeButtonModule&#45;&gt;MapOnlineLayersModule -->
<g id="edge4" class="edge">
<title>SafeButtonModule&#45;&gt;MapOnlineLayersModule</title>
<path fill="none" stroke="black" d="M264.98,-85.08C264.98,-106.12 264.98,-137.8 264.98,-137.8 264.98,-137.8 265.6,-137.8 265.6,-137.8"/>
<polygon fill="black" stroke="black" points="261.24,-141.3 271.24,-137.8 261.24,-134.3 261.24,-141.3"/>
</g>
<!-- SafeIconModule -->
<g id="node6" class="node">
<title>SafeIconModule</title>
<polygon fill="#8dd3c7" stroke="black" points="133.8,-84.8 130.8,-88.8 109.8,-88.8 106.8,-84.8 24.2,-84.8 24.2,-48.8 133.8,-48.8 133.8,-84.8"/>
<text text-anchor="middle" x="79" y="-62.6" font-family="Times,serif" font-size="14.00">SafeIconModule</text>
</g>
<!-- SafeIconModule&#45;&gt;MapOnlineLayersModule -->
<g id="edge5" class="edge">
<title>SafeIconModule&#45;&gt;MapOnlineLayersModule</title>
<path fill="none" stroke="black" d="M79,-84.82C79,-102.17 79,-125.8 79,-125.8 79,-125.8 261.2,-125.8 261.2,-125.8"/>
<polygon fill="black" stroke="black" points="261.2,-129.3 271.2,-125.8 261.2,-122.3 261.2,-129.3"/>
</g>
</g>
</svg>
