<?xml version="1.0" encoding="UTF-8" standalone="no"?>
<!DOCTYPE svg PUBLIC "-//W3C//DTD SVG 1.1//EN"
 "http://www.w3.org/Graphics/SVG/1.1/DTD/svg11.dtd">
<!-- Generated by graphviz version 3.0.0 (20220226.1711)
 -->
<!-- Title: dependencies Pages: 1 -->
<svg width="1522pt" height="358pt"
 viewBox="0.00 0.00 1522.00 358.39" xmlns="http://www.w3.org/2000/svg" xmlns:xlink="http://www.w3.org/1999/xlink">
<g id="graph0" class="graph" transform="scale(1 1) rotate(0) translate(4 354.39)">
<title>dependencies</title>
<polygon fill="white" stroke="transparent" points="-4,4 -4,-354.39 1518,-354.39 1518,4 -4,4"/>
<text text-anchor="middle" x="757" y="-8.2" font-family="sans-serif" font-size="14.00">dependencies</text>
<g id="clust1" class="cluster">
<title>cluster_SafeGraphQLSelectModule</title>
<polygon fill="none" stroke="black" stroke-dasharray="1,5" points="8,-32.8 8,-342.39 1506,-342.39 1506,-32.8 8,-32.8"/>
</g>
<g id="clust2" class="cluster">
<title>cluster_SafeGraphQLSelectModule_declarations</title>
<polygon fill="none" stroke="black" points="619,-152.39 619,-204.39 829,-204.39 829,-152.39 619,-152.39"/>
</g>
<g id="clust3" class="cluster">
<title>cluster_SafeGraphQLSelectModule_SafeGraphQLSelectComponent_providers</title>
<polygon fill="none" stroke="black" points="16,-40.8 16,-139.39 1498,-139.39 1498,-40.8 16,-40.8"/>
</g>
<g id="clust5" class="cluster">
<title>cluster_SafeGraphQLSelectModule_exports</title>
<polygon fill="none" stroke="black" points="617,-282.39 617,-334.39 831,-334.39 831,-282.39 617,-282.39"/>
</g>
<!-- SafeGraphQLSelectComponent -->
<g id="node1" class="node">
<title>SafeGraphQLSelectComponent</title>
<polygon fill="#ffffb3" stroke="black" points="821.06,-196.39 626.94,-196.39 626.94,-160.39 821.06,-160.39 821.06,-196.39"/>
<text text-anchor="middle" x="724" y="-174.19" font-family="Times,serif" font-size="14.00">SafeGraphQLSelectComponent</text>
</g>
<!-- SafeGraphQLSelectModule -->
<g id="node2" class="node">
<title>SafeGraphQLSelectModule</title>
<polygon fill="#8dd3c7" stroke="black" points="810.28,-261.39 807.28,-265.39 786.28,-265.39 783.28,-261.39 637.72,-261.39 637.72,-225.39 810.28,-225.39 810.28,-261.39"/>
<text text-anchor="middle" x="724" y="-239.19" font-family="Times,serif" font-size="14.00">SafeGraphQLSelectModule</text>
</g>
<!-- SafeGraphQLSelectComponent&#45;&gt;SafeGraphQLSelectModule -->
<g id="edge1" class="edge">
<title>SafeGraphQLSelectComponent&#45;&gt;SafeGraphQLSelectModule</title>
<path fill="none" stroke="black" d="M724,-196.5C724,-196.5 724,-215.38 724,-215.38"/>
<polygon fill="black" stroke="black" points="720.5,-215.38 724,-225.38 727.5,-215.38 720.5,-215.38"/>
</g>
<!-- SafeGraphQLSelectComponent  -->
<g id="node5" class="node">
<title>SafeGraphQLSelectComponent </title>
<polygon fill="#fb8072" stroke="black" points="822.56,-326.39 625.44,-326.39 625.44,-290.39 822.56,-290.39 822.56,-326.39"/>
<text text-anchor="middle" x="724" y="-304.19" font-family="Times,serif" font-size="14.00">SafeGraphQLSelectComponent </text>
</g>
<!-- SafeGraphQLSelectModule&#45;&gt;SafeGraphQLSelectComponent  -->
<g id="edge4" class="edge">
<title>SafeGraphQLSelectModule&#45;&gt;SafeGraphQLSelectComponent </title>
<path fill="none" stroke="black" stroke-dasharray="5,2" d="M724,-261.5C724,-261.5 724,-280.38 724,-280.38"/>
<polygon fill="black" stroke="black" points="720.5,-280.38 724,-290.38 727.5,-280.38 720.5,-280.38"/>
</g>
<!-- {
 &#160;&#160;&#160;provide: MAT_SELECT_SCROLL_STRATEGY, useFactory: scrollFactory, deps: [Overlay],
} -->
<g id="node3" class="node">
<title>{
 &#160;&#160;&#160;provide: MAT_SELECT_SCROLL_STRATEGY, useFactory: scrollFactory, deps: [Overlay],
}</title>
<ellipse fill="#fdb462" stroke="black" cx="1095" cy="-90.1" rx="394.68" ry="41.09"/>
<text text-anchor="middle" x="1095" y="-102.7" font-family="Times,serif" font-size="14.00">{</text>
<text text-anchor="middle" x="1095" y="-85.9" font-family="Times,serif" font-size="14.00"> &#160;&#160;&#160;provide: MAT_SELECT_SCROLL_STRATEGY, useFactory: scrollFactory, deps: [Overlay],</text>
<text text-anchor="middle" x="1095" y="-69.1" font-family="Times,serif" font-size="14.00">}</text>
</g>
<!-- {
 &#160;&#160;&#160;provide: MAT_SELECT_SCROLL_STRATEGY, useFactory: scrollFactory, deps: [Overlay],
}&#45;&gt;SafeGraphQLSelectComponent -->
<g id="edge2" class="edge">
<title>{
 &#160;&#160;&#160;provide: MAT_SELECT_SCROLL_STRATEGY, useFactory: scrollFactory, deps: [Overlay],
}&#45;&gt;SafeGraphQLSelectComponent</title>
<path fill="none" stroke="black" d="M760.72,-112.38C760.72,-112.38 760.72,-150.28 760.72,-150.28"/>
<polygon fill="black" stroke="black" points="757.22,-150.28 760.72,-160.28 764.22,-150.28 757.22,-150.28"/>
</g>
<!-- {
 &#160;&#160;&#160;provide: MatFormFieldControl, useExisting: SafeGraphQLSelectComponent,
} -->
<g id="node4" class="node">
<title>{
 &#160;&#160;&#160;provide: MatFormFieldControl, useExisting: SafeGraphQLSelectComponent,
}</title>
<ellipse fill="#fdb462" stroke="black" cx="353" cy="-90.1" rx="329.36" ry="41.09"/>
<text text-anchor="middle" x="353" y="-102.7" font-family="Times,serif" font-size="14.00">{</text>
<text text-anchor="middle" x="353" y="-85.9" font-family="Times,serif" font-size="14.00"> &#160;&#160;&#160;provide: MatFormFieldControl, useExisting: SafeGraphQLSelectComponent,</text>
<text text-anchor="middle" x="353" y="-69.1" font-family="Times,serif" font-size="14.00">}</text>
</g>
<!-- {
 &#160;&#160;&#160;provide: MatFormFieldControl, useExisting: SafeGraphQLSelectComponent,
}&#45;&gt;SafeGraphQLSelectComponent -->
<g id="edge3" class="edge">
<title>{
 &#160;&#160;&#160;provide: MatFormFieldControl, useExisting: SafeGraphQLSelectComponent,
}&#45;&gt;SafeGraphQLSelectComponent</title>
<path fill="none" stroke="black" d="M654.7,-106.7C654.7,-106.7 654.7,-150.34 654.7,-150.34"/>
<polygon fill="black" stroke="black" points="651.2,-150.34 654.7,-160.34 658.2,-150.34 651.2,-150.34"/>
</g>
</g>
</svg>
