<?xml version="1.0" encoding="UTF-8" standalone="no"?>
<!DOCTYPE svg PUBLIC "-//W3C//DTD SVG 1.1//EN"
 "http://www.w3.org/Graphics/SVG/1.1/DTD/svg11.dtd">
<!-- Generated by graphviz version 3.0.0 (20220226.1711)
 -->
<!-- Title: dependencies Pages: 1 -->
<svg width="650pt" height="247pt"
 viewBox="0.00 0.00 650.00 246.80" xmlns="http://www.w3.org/2000/svg" xmlns:xlink="http://www.w3.org/1999/xlink">
<g id="graph0" class="graph" transform="scale(1 1) rotate(0) translate(4 242.8)">
<title>dependencies</title>
<polygon fill="white" stroke="transparent" points="-4,4 -4,-242.8 646,-242.8 646,4 -4,4"/>
<text text-anchor="middle" x="321" y="-8.2" font-family="sans-serif" font-size="14.00">dependencies</text>
<g id="clust1" class="cluster">
<title>cluster_ReferenceDatasModule</title>
<polygon fill="none" stroke="black" stroke-dasharray="1,5" points="8,-32.8 8,-230.8 634,-230.8 634,-32.8 8,-32.8"/>
</g>
<g id="clust6" class="cluster">
<title>cluster_ReferenceDatasModule_exports</title>
<polygon fill="none" stroke="black" points="211,-170.8 211,-222.8 401,-222.8 401,-170.8 211,-170.8"/>
</g>
<g id="clust5" class="cluster">
<title>cluster_ReferenceDatasModule_imports</title>
<polygon fill="none" stroke="black" points="416,-40.8 416,-92.8 626,-92.8 626,-40.8 416,-40.8"/>
</g>
<g id="clust2" class="cluster">
<title>cluster_ReferenceDatasModule_declarations</title>
<polygon fill="none" stroke="black" points="16,-40.8 16,-92.8 408,-92.8 408,-40.8 16,-40.8"/>
</g>
<!-- AddReferenceDataComponent -->
<g id="node1" class="node">
<title>AddReferenceDataComponent</title>
<polygon fill="#ffffb3" stroke="black" points="400.1,-84.8 211.9,-84.8 211.9,-48.8 400.1,-48.8 400.1,-84.8"/>
<text text-anchor="middle" x="306" y="-62.6" font-family="Times,serif" font-size="14.00">AddReferenceDataComponent</text>
</g>
<!-- ReferenceDatasModule -->
<g id="node3" class="node">
<title>ReferenceDatasModule</title>
<polygon fill="#8dd3c7" stroke="black" points="380.16,-149.8 377.16,-153.8 356.16,-153.8 353.16,-149.8 231.84,-149.8 231.84,-113.8 380.16,-113.8 380.16,-149.8"/>
<text text-anchor="middle" x="306" y="-127.6" font-family="Times,serif" font-size="14.00">ReferenceDatasModule</text>
</g>
<!-- AddReferenceDataComponent&#45;&gt;ReferenceDatasModule -->
<g id="edge1" class="edge">
<title>AddReferenceDataComponent&#45;&gt;ReferenceDatasModule</title>
<path fill="none" stroke="black" d="M306,-84.91C306,-84.91 306,-103.79 306,-103.79"/>
<polygon fill="black" stroke="black" points="302.5,-103.79 306,-113.79 309.5,-103.79 302.5,-103.79"/>
</g>
<!-- ReferenceDatasComponent -->
<g id="node2" class="node">
<title>ReferenceDatasComponent</title>
<polygon fill="#ffffb3" stroke="black" points="193.94,-84.8 24.06,-84.8 24.06,-48.8 193.94,-48.8 193.94,-84.8"/>
<text text-anchor="middle" x="109" y="-62.6" font-family="Times,serif" font-size="14.00">ReferenceDatasComponent</text>
</g>
<!-- ReferenceDatasComponent&#45;&gt;ReferenceDatasModule -->
<g id="edge2" class="edge">
<title>ReferenceDatasComponent&#45;&gt;ReferenceDatasModule</title>
<path fill="none" stroke="black" d="M109,-84.91C109,-104.14 109,-131.8 109,-131.8 109,-131.8 221.8,-131.8 221.8,-131.8"/>
<polygon fill="black" stroke="black" points="221.8,-135.3 231.8,-131.8 221.8,-128.3 221.8,-135.3"/>
</g>
<!-- ReferenceDatasComponent  -->
<g id="node5" class="node">
<title>ReferenceDatasComponent </title>
<polygon fill="#fb8072" stroke="black" points="392.94,-214.8 219.06,-214.8 219.06,-178.8 392.94,-178.8 392.94,-214.8"/>
<text text-anchor="middle" x="306" y="-192.6" font-family="Times,serif" font-size="14.00">ReferenceDatasComponent </text>
</g>
<!-- ReferenceDatasModule&#45;&gt;ReferenceDatasComponent  -->
<g id="edge4" class="edge">
<title>ReferenceDatasModule&#45;&gt;ReferenceDatasComponent </title>
<path fill="none" stroke="black" stroke-dasharray="5,2" d="M306,-149.91C306,-149.91 306,-168.79 306,-168.79"/>
<polygon fill="black" stroke="black" points="302.5,-168.79 306,-178.79 309.5,-168.79 302.5,-168.79"/>
</g>
<!-- ReferenceDatasRoutingModule -->
<g id="node4" class="node">
<title>ReferenceDatasRoutingModule</title>
<polygon fill="#8dd3c7" stroke="black" points="617.78,-84.8 614.78,-88.8 593.78,-88.8 590.78,-84.8 424.22,-84.8 424.22,-48.8 617.78,-48.8 617.78,-84.8"/>
<text text-anchor="middle" x="521" y="-62.6" font-family="Times,serif" font-size="14.00">ReferenceDatasRoutingModule</text>
</g>
<!-- ReferenceDatasRoutingModule&#45;&gt;ReferenceDatasModule -->
<g id="edge3" class="edge">
<title>ReferenceDatasRoutingModule&#45;&gt;ReferenceDatasModule</title>
<path fill="none" stroke="black" d="M521,-84.91C521,-104.14 521,-131.8 521,-131.8 521,-131.8 390.29,-131.8 390.29,-131.8"/>
<polygon fill="black" stroke="black" points="390.29,-128.3 380.29,-131.8 390.29,-135.3 390.29,-128.3"/>
</g>
</g>
</svg>
