<?xml version="1.0" encoding="UTF-8" standalone="no"?>
<!DOCTYPE svg PUBLIC "-//W3C//DTD SVG 1.1//EN"
 "http://www.w3.org/Graphics/SVG/1.1/DTD/svg11.dtd">
<!-- Generated by graphviz version 3.0.0 (20220226.1711)
 -->
<!-- Title: dependencies Pages: 1 -->
<svg width="378pt" height="247pt"
 viewBox="0.00 0.00 378.00 246.80" xmlns="http://www.w3.org/2000/svg" xmlns:xlink="http://www.w3.org/1999/xlink">
<g id="graph0" class="graph" transform="scale(1 1) rotate(0) translate(4 242.8)">
<title>dependencies</title>
<polygon fill="white" stroke="transparent" points="-4,4 -4,-242.8 374,-242.8 374,4 -4,4"/>
<text text-anchor="middle" x="185" y="-8.2" font-family="sans-serif" font-size="14.00">dependencies</text>
<g id="clust1" class="cluster">
<title>cluster_SafeErrorsModalModule</title>
<polygon fill="none" stroke="black" stroke-dasharray="1,5" points="8,-32.8 8,-230.8 362,-230.8 362,-32.8 8,-32.8"/>
</g>
<g id="clust4" class="cluster">
<title>cluster_SafeErrorsModalModule_imports</title>
<polygon fill="none" stroke="black" points="218,-40.8 218,-92.8 354,-92.8 354,-40.8 218,-40.8"/>
</g>
<g id="clust5" class="cluster">
<title>cluster_SafeErrorsModalModule_exports</title>
<polygon fill="none" stroke="black" points="86,-170.8 86,-222.8 284,-222.8 284,-170.8 86,-170.8"/>
</g>
<g id="clust2" class="cluster">
<title>cluster_SafeErrorsModalModule_declarations</title>
<polygon fill="none" stroke="black" points="16,-40.8 16,-92.8 210,-92.8 210,-40.8 16,-40.8"/>
</g>
<!-- SafeErrorsModalComponent -->
<g id="node1" class="node">
<title>SafeErrorsModalComponent</title>
<polygon fill="#ffffb3" stroke="black" points="201.75,-84.8 24.25,-84.8 24.25,-48.8 201.75,-48.8 201.75,-84.8"/>
<text text-anchor="middle" x="113" y="-62.6" font-family="Times,serif" font-size="14.00">SafeErrorsModalComponent</text>
</g>
<!-- SafeErrorsModalModule -->
<g id="node2" class="node">
<title>SafeErrorsModalModule</title>
<polygon fill="#8dd3c7" stroke="black" points="262.97,-149.8 259.97,-153.8 238.97,-153.8 235.97,-149.8 107.03,-149.8 107.03,-113.8 262.97,-113.8 262.97,-149.8"/>
<text text-anchor="middle" x="185" y="-127.6" font-family="Times,serif" font-size="14.00">SafeErrorsModalModule</text>
</g>
<!-- SafeErrorsModalComponent&#45;&gt;SafeErrorsModalModule -->
<g id="edge1" class="edge">
<title>SafeErrorsModalComponent&#45;&gt;SafeErrorsModalModule</title>
<path fill="none" stroke="black" d="M154.44,-84.91C154.44,-84.91 154.44,-103.79 154.44,-103.79"/>
<polygon fill="black" stroke="black" points="150.94,-103.79 154.44,-113.79 157.94,-103.79 150.94,-103.79"/>
</g>
<!-- SafeErrorsModalComponent  -->
<g id="node4" class="node">
<title>SafeErrorsModalComponent </title>
<polygon fill="#fb8072" stroke="black" points="275.75,-214.8 94.25,-214.8 94.25,-178.8 275.75,-178.8 275.75,-214.8"/>
<text text-anchor="middle" x="185" y="-192.6" font-family="Times,serif" font-size="14.00">SafeErrorsModalComponent </text>
</g>
<!-- SafeErrorsModalModule&#45;&gt;SafeErrorsModalComponent  -->
<g id="edge3" class="edge">
<title>SafeErrorsModalModule&#45;&gt;SafeErrorsModalComponent </title>
<path fill="none" stroke="black" stroke-dasharray="5,2" d="M185,-149.91C185,-149.91 185,-168.79 185,-168.79"/>
<polygon fill="black" stroke="black" points="181.5,-168.79 185,-178.79 188.5,-168.79 181.5,-168.79"/>
</g>
<!-- SafeModalModule -->
<g id="node3" class="node">
<title>SafeModalModule</title>
<polygon fill="#8dd3c7" stroke="black" points="346.48,-84.8 343.48,-88.8 322.48,-88.8 319.48,-84.8 225.52,-84.8 225.52,-48.8 346.48,-48.8 346.48,-84.8"/>
<text text-anchor="middle" x="286" y="-62.6" font-family="Times,serif" font-size="14.00">SafeModalModule</text>
</g>
<!-- SafeModalModule&#45;&gt;SafeErrorsModalModule -->
<g id="edge2" class="edge">
<title>SafeModalModule&#45;&gt;SafeErrorsModalModule</title>
<path fill="none" stroke="black" d="M244.25,-84.91C244.25,-84.91 244.25,-103.79 244.25,-103.79"/>
<polygon fill="black" stroke="black" points="240.75,-103.79 244.25,-113.79 247.75,-103.79 240.75,-103.79"/>
</g>
</g>
</svg>
