<?xml version="1.0" encoding="UTF-8" standalone="no"?>
<!DOCTYPE svg PUBLIC "-//W3C//DTD SVG 1.1//EN"
 "http://www.w3.org/Graphics/SVG/1.1/DTD/svg11.dtd">
<!-- Generated by graphviz version 3.0.0 (20220226.1711)
 -->
<!-- Title: dependencies Pages: 1 -->
<svg width="1228pt" height="247pt"
 viewBox="0.00 0.00 1228.00 246.80" xmlns="http://www.w3.org/2000/svg" xmlns:xlink="http://www.w3.org/1999/xlink">
<g id="graph0" class="graph" transform="scale(1 1) rotate(0) translate(4 242.8)">
<title>dependencies</title>
<polygon fill="white" stroke="transparent" points="-4,4 -4,-242.8 1224,-242.8 1224,4 -4,4"/>
<text text-anchor="middle" x="610" y="-8.2" font-family="sans-serif" font-size="14.00">dependencies</text>
<g id="clust1" class="cluster">
<title>cluster_SafeChooseRecordModalModule</title>
<polygon fill="none" stroke="black" stroke-dasharray="1,5" points="8,-32.8 8,-230.8 1212,-230.8 1212,-32.8 8,-32.8"/>
</g>
<g id="clust5" class="cluster">
<title>cluster_SafeChooseRecordModalModule_exports</title>
<polygon fill="none" stroke="black" points="453,-170.8 453,-222.8 697,-222.8 697,-170.8 453,-170.8"/>
</g>
<g id="clust2" class="cluster">
<title>cluster_SafeChooseRecordModalModule_declarations</title>
<polygon fill="none" stroke="black" points="962,-40.8 962,-92.8 1204,-92.8 1204,-40.8 962,-40.8"/>
</g>
<g id="clust4" class="cluster">
<title>cluster_SafeChooseRecordModalModule_imports</title>
<polygon fill="none" stroke="black" points="16,-40.8 16,-92.8 954,-92.8 954,-40.8 16,-40.8"/>
</g>
<!-- SafeChooseRecordModalComponent -->
<g id="node1" class="node">
<title>SafeChooseRecordModalComponent</title>
<polygon fill="#ffffb3" stroke="black" points="1195.69,-84.8 970.31,-84.8 970.31,-48.8 1195.69,-48.8 1195.69,-84.8"/>
<text text-anchor="middle" x="1083" y="-62.6" font-family="Times,serif" font-size="14.00">SafeChooseRecordModalComponent</text>
</g>
<!-- SafeChooseRecordModalModule -->
<g id="node2" class="node">
<title>SafeChooseRecordModalModule</title>
<polygon fill="#8dd3c7" stroke="black" points="676.91,-149.8 673.91,-153.8 652.91,-153.8 649.91,-149.8 473.09,-149.8 473.09,-113.8 676.91,-113.8 676.91,-149.8"/>
<text text-anchor="middle" x="575" y="-127.6" font-family="Times,serif" font-size="14.00">SafeChooseRecordModalModule</text>
</g>
<!-- SafeChooseRecordModalComponent&#45;&gt;SafeChooseRecordModalModule -->
<g id="edge1" class="edge">
<title>SafeChooseRecordModalComponent&#45;&gt;SafeChooseRecordModalModule</title>
<path fill="none" stroke="black" d="M1083,-85.08C1083,-106.12 1083,-137.8 1083,-137.8 1083,-137.8 686.89,-137.8 686.89,-137.8"/>
<polygon fill="black" stroke="black" points="686.89,-134.3 676.89,-137.8 686.89,-141.3 686.89,-134.3"/>
</g>
<!-- SafeChooseRecordModalComponent  -->
<g id="node8" class="node">
<title>SafeChooseRecordModalComponent </title>
<polygon fill="#fb8072" stroke="black" points="689.19,-214.8 460.81,-214.8 460.81,-178.8 689.19,-178.8 689.19,-214.8"/>
<text text-anchor="middle" x="575" y="-192.6" font-family="Times,serif" font-size="14.00">SafeChooseRecordModalComponent </text>
</g>
<!-- SafeChooseRecordModalModule&#45;&gt;SafeChooseRecordModalComponent  -->
<g id="edge7" class="edge">
<title>SafeChooseRecordModalModule&#45;&gt;SafeChooseRecordModalComponent </title>
<path fill="none" stroke="black" stroke-dasharray="5,2" d="M575,-149.91C575,-149.91 575,-168.79 575,-168.79"/>
<polygon fill="black" stroke="black" points="571.5,-168.79 575,-178.79 578.5,-168.79 571.5,-168.79"/>
</g>
<!-- SafeApplicationDropdownModule -->
<g id="node3" class="node">
<title>SafeApplicationDropdownModule</title>
<polygon fill="#8dd3c7" stroke="black" points="946.41,-84.8 943.41,-88.8 922.41,-88.8 919.41,-84.8 735.59,-84.8 735.59,-48.8 946.41,-48.8 946.41,-84.8"/>
<text text-anchor="middle" x="841" y="-62.6" font-family="Times,serif" font-size="14.00">SafeApplicationDropdownModule</text>
</g>
<!-- SafeApplicationDropdownModule&#45;&gt;SafeChooseRecordModalModule -->
<g id="edge2" class="edge">
<title>SafeApplicationDropdownModule&#45;&gt;SafeChooseRecordModalModule</title>
<path fill="none" stroke="black" d="M841,-84.82C841,-102.17 841,-125.8 841,-125.8 841,-125.8 687.08,-125.8 687.08,-125.8"/>
<polygon fill="black" stroke="black" points="687.08,-122.3 677.08,-125.8 687.08,-129.3 687.08,-122.3"/>
</g>
<!-- SafeCoreGridModule -->
<g id="node4" class="node">
<title>SafeCoreGridModule</title>
<polygon fill="#8dd3c7" stroke="black" points="717.8,-84.8 714.8,-88.8 693.8,-88.8 690.8,-84.8 580.2,-84.8 580.2,-48.8 717.8,-48.8 717.8,-84.8"/>
<text text-anchor="middle" x="649" y="-62.6" font-family="Times,serif" font-size="14.00">SafeCoreGridModule</text>
</g>
<!-- SafeCoreGridModule&#45;&gt;SafeChooseRecordModalModule -->
<g id="edge3" class="edge">
<title>SafeCoreGridModule&#45;&gt;SafeChooseRecordModalModule</title>
<path fill="none" stroke="black" d="M628.53,-84.91C628.53,-84.91 628.53,-103.79 628.53,-103.79"/>
<polygon fill="black" stroke="black" points="625.03,-103.79 628.53,-113.79 632.03,-103.79 625.03,-103.79"/>
</g>
<!-- SafeModalModule -->
<g id="node5" class="node">
<title>SafeModalModule</title>
<polygon fill="#8dd3c7" stroke="black" points="562.48,-84.8 559.48,-88.8 538.48,-88.8 535.48,-84.8 441.52,-84.8 441.52,-48.8 562.48,-48.8 562.48,-84.8"/>
<text text-anchor="middle" x="502" y="-62.6" font-family="Times,serif" font-size="14.00">SafeModalModule</text>
</g>
<!-- SafeModalModule&#45;&gt;SafeChooseRecordModalModule -->
<g id="edge4" class="edge">
<title>SafeModalModule&#45;&gt;SafeChooseRecordModalModule</title>
<path fill="none" stroke="black" d="M517.89,-84.91C517.89,-84.91 517.89,-103.79 517.89,-103.79"/>
<polygon fill="black" stroke="black" points="514.39,-103.79 517.89,-113.79 521.39,-103.79 514.39,-103.79"/>
</g>
<!-- SafeRecordDropdownModule -->
<g id="node6" class="node">
<title>SafeRecordDropdownModule</title>
<polygon fill="#8dd3c7" stroke="black" points="423.24,-84.8 420.24,-88.8 399.24,-88.8 396.24,-84.8 238.76,-84.8 238.76,-48.8 423.24,-48.8 423.24,-84.8"/>
<text text-anchor="middle" x="331" y="-62.6" font-family="Times,serif" font-size="14.00">SafeRecordDropdownModule</text>
</g>
<!-- SafeRecordDropdownModule&#45;&gt;SafeChooseRecordModalModule -->
<g id="edge5" class="edge">
<title>SafeRecordDropdownModule&#45;&gt;SafeChooseRecordModalModule</title>
<path fill="none" stroke="black" d="M331,-84.82C331,-102.17 331,-125.8 331,-125.8 331,-125.8 463.29,-125.8 463.29,-125.8"/>
<polygon fill="black" stroke="black" points="463.29,-129.3 473.29,-125.8 463.29,-122.3 463.29,-129.3"/>
</g>
<!-- SafeResourceDropdownModule -->
<g id="node7" class="node">
<title>SafeResourceDropdownModule</title>
<polygon fill="#8dd3c7" stroke="black" points="220.4,-84.8 217.4,-88.8 196.4,-88.8 193.4,-84.8 23.6,-84.8 23.6,-48.8 220.4,-48.8 220.4,-84.8"/>
<text text-anchor="middle" x="122" y="-62.6" font-family="Times,serif" font-size="14.00">SafeResourceDropdownModule</text>
</g>
<!-- SafeResourceDropdownModule&#45;&gt;SafeChooseRecordModalModule -->
<g id="edge6" class="edge">
<title>SafeResourceDropdownModule&#45;&gt;SafeChooseRecordModalModule</title>
<path fill="none" stroke="black" d="M122,-85.08C122,-106.12 122,-137.8 122,-137.8 122,-137.8 463.06,-137.8 463.06,-137.8"/>
<polygon fill="black" stroke="black" points="463.06,-141.3 473.06,-137.8 463.06,-134.3 463.06,-141.3"/>
</g>
</g>
</svg>
