<?xml version="1.0" encoding="UTF-8" standalone="no"?>
<!DOCTYPE svg PUBLIC "-//W3C//DTD SVG 1.1//EN"
 "http://www.w3.org/Graphics/SVG/1.1/DTD/svg11.dtd">
<!-- Generated by graphviz version 3.0.0 (20220226.1711)
 -->
<!-- Title: dependencies Pages: 1 -->
<svg width="1228pt" height="247pt"
 viewBox="0.00 0.00 1228.00 246.80" xmlns="http://www.w3.org/2000/svg" xmlns:xlink="http://www.w3.org/1999/xlink">
<g id="graph0" class="graph" transform="scale(1 1) rotate(0) translate(4 242.8)">
<title>dependencies</title>
<polygon fill="white" stroke="transparent" points="-4,4 -4,-242.8 1224,-242.8 1224,4 -4,4"/>
<text text-anchor="middle" x="610" y="-8.2" font-family="sans-serif" font-size="14.00">dependencies</text>
<g id="clust1" class="cluster">
<title>cluster_SafeChooseRecordModalModule</title>
<polygon fill="none" stroke="black" stroke-dasharray="1,5" points="8,-32.8 8,-230.8 1212,-230.8 1212,-32.8 8,-32.8"/>
</g>
<g id="clust5" class="cluster">
<title>cluster_SafeChooseRecordModalModule_exports</title>
<polygon fill="none" stroke="black" points="544,-170.8 544,-222.8 788,-222.8 788,-170.8 544,-170.8"/>
</g>
<g id="clust4" class="cluster">
<title>cluster_SafeChooseRecordModalModule_imports</title>
<polygon fill="none" stroke="black" points="266,-40.8 266,-92.8 1204,-92.8 1204,-40.8 266,-40.8"/>
</g>
<g id="clust2" class="cluster">
<title>cluster_SafeChooseRecordModalModule_declarations</title>
<polygon fill="none" stroke="black" points="16,-40.8 16,-92.8 258,-92.8 258,-40.8 16,-40.8"/>
</g>
<!-- SafeChooseRecordModalComponent -->
<g id="node1" class="node">
<title>SafeChooseRecordModalComponent</title>
<polygon fill="#ffffb3" stroke="black" points="249.69,-84.8 24.31,-84.8 24.31,-48.8 249.69,-48.8 249.69,-84.8"/>
<text text-anchor="middle" x="137" y="-62.6" font-family="Times,serif" font-size="14.00">SafeChooseRecordModalComponent</text>
</g>
<!-- SafeChooseRecordModalModule -->
<g id="node2" class="node">
<title>SafeChooseRecordModalModule</title>
<polygon fill="#8dd3c7" stroke="black" points="767.91,-149.8 764.91,-153.8 743.91,-153.8 740.91,-149.8 564.09,-149.8 564.09,-113.8 767.91,-113.8 767.91,-149.8"/>
<text text-anchor="middle" x="666" y="-127.6" font-family="Times,serif" font-size="14.00">SafeChooseRecordModalModule</text>
</g>
<!-- SafeChooseRecordModalComponent&#45;&gt;SafeChooseRecordModalModule -->
<g id="edge1" class="edge">
<title>SafeChooseRecordModalComponent&#45;&gt;SafeChooseRecordModalModule</title>
<path fill="none" stroke="black" d="M137,-85.08C137,-106.12 137,-137.8 137,-137.8 137,-137.8 554,-137.8 554,-137.8"/>
<polygon fill="black" stroke="black" points="554,-141.3 564,-137.8 554,-134.3 554,-141.3"/>
</g>
<!-- SafeChooseRecordModalComponent  -->
<g id="node8" class="node">
<title>SafeChooseRecordModalComponent </title>
<polygon fill="#fb8072" stroke="black" points="780.19,-214.8 551.81,-214.8 551.81,-178.8 780.19,-178.8 780.19,-214.8"/>
<text text-anchor="middle" x="666" y="-192.6" font-family="Times,serif" font-size="14.00">SafeChooseRecordModalComponent </text>
</g>
<!-- SafeChooseRecordModalModule&#45;&gt;SafeChooseRecordModalComponent  -->
<g id="edge7" class="edge">
<title>SafeChooseRecordModalModule&#45;&gt;SafeChooseRecordModalComponent </title>
<path fill="none" stroke="black" stroke-dasharray="5,2" d="M666,-149.91C666,-149.91 666,-168.79 666,-168.79"/>
<polygon fill="black" stroke="black" points="662.5,-168.79 666,-178.79 669.5,-168.79 662.5,-168.79"/>
</g>
<!-- SafeApplicationDropdownModule -->
<g id="node3" class="node">
<title>SafeApplicationDropdownModule</title>
<polygon fill="#8dd3c7" stroke="black" points="1196.41,-84.8 1193.41,-88.8 1172.41,-88.8 1169.41,-84.8 985.59,-84.8 985.59,-48.8 1196.41,-48.8 1196.41,-84.8"/>
<text text-anchor="middle" x="1091" y="-62.6" font-family="Times,serif" font-size="14.00">SafeApplicationDropdownModule</text>
</g>
<!-- SafeApplicationDropdownModule&#45;&gt;SafeChooseRecordModalModule -->
<g id="edge2" class="edge">
<title>SafeApplicationDropdownModule&#45;&gt;SafeChooseRecordModalModule</title>
<path fill="none" stroke="black" d="M1091,-85.08C1091,-106.12 1091,-137.8 1091,-137.8 1091,-137.8 777.8,-137.8 777.8,-137.8"/>
<polygon fill="black" stroke="black" points="777.8,-134.3 767.8,-137.8 777.8,-141.3 777.8,-134.3"/>
</g>
<!-- SafeCoreGridModule -->
<g id="node4" class="node">
<title>SafeCoreGridModule</title>
<polygon fill="#8dd3c7" stroke="black" points="967.8,-84.8 964.8,-88.8 943.8,-88.8 940.8,-84.8 830.2,-84.8 830.2,-48.8 967.8,-48.8 967.8,-84.8"/>
<text text-anchor="middle" x="899" y="-62.6" font-family="Times,serif" font-size="14.00">SafeCoreGridModule</text>
</g>
<!-- SafeCoreGridModule&#45;&gt;SafeChooseRecordModalModule -->
<g id="edge3" class="edge">
<title>SafeCoreGridModule&#45;&gt;SafeChooseRecordModalModule</title>
<path fill="none" stroke="black" d="M899,-84.82C899,-102.17 899,-125.8 899,-125.8 899,-125.8 777.86,-125.8 777.86,-125.8"/>
<polygon fill="black" stroke="black" points="777.86,-122.3 767.86,-125.8 777.86,-129.3 777.86,-122.3"/>
</g>
<!-- SafeModalModule -->
<g id="node5" class="node">
<title>SafeModalModule</title>
<polygon fill="#8dd3c7" stroke="black" points="812.48,-84.8 809.48,-88.8 788.48,-88.8 785.48,-84.8 691.52,-84.8 691.52,-48.8 812.48,-48.8 812.48,-84.8"/>
<text text-anchor="middle" x="752" y="-62.6" font-family="Times,serif" font-size="14.00">SafeModalModule</text>
</g>
<!-- SafeModalModule&#45;&gt;SafeChooseRecordModalModule -->
<g id="edge4" class="edge">
<title>SafeModalModule&#45;&gt;SafeChooseRecordModalModule</title>
<path fill="none" stroke="black" d="M729.61,-84.91C729.61,-84.91 729.61,-103.79 729.61,-103.79"/>
<polygon fill="black" stroke="black" points="726.11,-103.79 729.61,-113.79 733.11,-103.79 726.11,-103.79"/>
</g>
<!-- SafeRecordDropdownModule -->
<g id="node6" class="node">
<title>SafeRecordDropdownModule</title>
<polygon fill="#8dd3c7" stroke="black" points="673.24,-84.8 670.24,-88.8 649.24,-88.8 646.24,-84.8 488.76,-84.8 488.76,-48.8 673.24,-48.8 673.24,-84.8"/>
<text text-anchor="middle" x="581" y="-62.6" font-family="Times,serif" font-size="14.00">SafeRecordDropdownModule</text>
</g>
<!-- SafeRecordDropdownModule&#45;&gt;SafeChooseRecordModalModule -->
<g id="edge5" class="edge">
<title>SafeRecordDropdownModule&#45;&gt;SafeChooseRecordModalModule</title>
<path fill="none" stroke="black" d="M618.83,-84.91C618.83,-84.91 618.83,-103.79 618.83,-103.79"/>
<polygon fill="black" stroke="black" points="615.33,-103.79 618.83,-113.79 622.33,-103.79 615.33,-103.79"/>
</g>
<!-- SafeResourceDropdownModule -->
<g id="node7" class="node">
<title>SafeResourceDropdownModule</title>
<polygon fill="#8dd3c7" stroke="black" points="470.4,-84.8 467.4,-88.8 446.4,-88.8 443.4,-84.8 273.6,-84.8 273.6,-48.8 470.4,-48.8 470.4,-84.8"/>
<text text-anchor="middle" x="372" y="-62.6" font-family="Times,serif" font-size="14.00">SafeResourceDropdownModule</text>
</g>
<!-- SafeResourceDropdownModule&#45;&gt;SafeChooseRecordModalModule -->
<g id="edge6" class="edge">
<title>SafeResourceDropdownModule&#45;&gt;SafeChooseRecordModalModule</title>
<path fill="none" stroke="black" d="M372,-84.82C372,-102.17 372,-125.8 372,-125.8 372,-125.8 554,-125.8 554,-125.8"/>
<polygon fill="black" stroke="black" points="554,-129.3 564,-125.8 554,-122.3 554,-129.3"/>
</g>
</g>
</svg>
