<?xml version="1.0" encoding="UTF-8" standalone="no"?>
<!DOCTYPE svg PUBLIC "-//W3C//DTD SVG 1.1//EN"
 "http://www.w3.org/Graphics/SVG/1.1/DTD/svg11.dtd">
<!-- Generated by graphviz version 3.0.0 (20220226.1711)
 -->
<!-- Title: dependencies Pages: 1 -->
<svg width="691pt" height="247pt"
 viewBox="0.00 0.00 691.00 246.80" xmlns="http://www.w3.org/2000/svg" xmlns:xlink="http://www.w3.org/1999/xlink">
<g id="graph0" class="graph" transform="scale(1 1) rotate(0) translate(4 242.8)">
<title>dependencies</title>
<polygon fill="white" stroke="transparent" points="-4,4 -4,-242.8 687,-242.8 687,4 -4,4"/>
<text text-anchor="middle" x="341.5" y="-8.2" font-family="sans-serif" font-size="14.00">dependencies</text>
<g id="clust1" class="cluster">
<title>cluster_SafeUsersModule</title>
<polygon fill="none" stroke="black" stroke-dasharray="1,5" points="8,-32.8 8,-230.8 675,-230.8 675,-32.8 8,-32.8"/>
</g>
<g id="clust4" class="cluster">
<title>cluster_SafeUsersModule_imports</title>
<polygon fill="none" stroke="black" points="178,-40.8 178,-92.8 667,-92.8 667,-40.8 178,-40.8"/>
</g>
<g id="clust5" class="cluster">
<title>cluster_SafeUsersModule_exports</title>
<polygon fill="none" stroke="black" points="277,-170.8 277,-222.8 435,-222.8 435,-170.8 277,-170.8"/>
</g>
<g id="clust2" class="cluster">
<title>cluster_SafeUsersModule_declarations</title>
<polygon fill="none" stroke="black" points="16,-40.8 16,-92.8 170,-92.8 170,-40.8 16,-40.8"/>
</g>
<!-- SafeUsersComponent -->
<g id="node1" class="node">
<title>SafeUsersComponent</title>
<polygon fill="#ffffb3" stroke="black" points="162.09,-84.8 23.91,-84.8 23.91,-48.8 162.09,-48.8 162.09,-84.8"/>
<text text-anchor="middle" x="93" y="-62.6" font-family="Times,serif" font-size="14.00">SafeUsersComponent</text>
</g>
<!-- SafeUsersModule -->
<g id="node2" class="node">
<title>SafeUsersModule</title>
<polygon fill="#8dd3c7" stroke="black" points="414.31,-149.8 411.31,-153.8 390.31,-153.8 387.31,-149.8 297.69,-149.8 297.69,-113.8 414.31,-113.8 414.31,-149.8"/>
<text text-anchor="middle" x="356" y="-127.6" font-family="Times,serif" font-size="14.00">SafeUsersModule</text>
</g>
<!-- SafeUsersComponent&#45;&gt;SafeUsersModule -->
<g id="edge1" class="edge">
<title>SafeUsersComponent&#45;&gt;SafeUsersModule</title>
<path fill="none" stroke="black" d="M93,-84.91C93,-104.14 93,-131.8 93,-131.8 93,-131.8 287.63,-131.8 287.63,-131.8"/>
<polygon fill="black" stroke="black" points="287.63,-135.3 297.63,-131.8 287.63,-128.3 287.63,-135.3"/>
</g>
<!-- SafeUsersComponent  -->
<g id="node6" class="node">
<title>SafeUsersComponent </title>
<polygon fill="#fb8072" stroke="black" points="426.59,-214.8 285.41,-214.8 285.41,-178.8 426.59,-178.8 426.59,-214.8"/>
<text text-anchor="middle" x="356" y="-192.6" font-family="Times,serif" font-size="14.00">SafeUsersComponent </text>
</g>
<!-- SafeUsersModule&#45;&gt;SafeUsersComponent  -->
<g id="edge5" class="edge">
<title>SafeUsersModule&#45;&gt;SafeUsersComponent </title>
<path fill="none" stroke="black" stroke-dasharray="5,2" d="M356,-149.91C356,-149.91 356,-168.79 356,-168.79"/>
<polygon fill="black" stroke="black" points="352.5,-168.79 356,-178.79 359.5,-168.79 352.5,-168.79"/>
</g>
<!-- SafeButtonModule -->
<g id="node3" class="node">
<title>SafeButtonModule</title>
<polygon fill="#8dd3c7" stroke="black" points="659.05,-84.8 656.05,-88.8 635.05,-88.8 632.05,-84.8 536.95,-84.8 536.95,-48.8 659.05,-48.8 659.05,-84.8"/>
<text text-anchor="middle" x="598" y="-62.6" font-family="Times,serif" font-size="14.00">SafeButtonModule</text>
</g>
<!-- SafeButtonModule&#45;&gt;SafeUsersModule -->
<g id="edge2" class="edge">
<title>SafeButtonModule&#45;&gt;SafeUsersModule</title>
<path fill="none" stroke="black" d="M598,-84.91C598,-104.14 598,-131.8 598,-131.8 598,-131.8 424.27,-131.8 424.27,-131.8"/>
<polygon fill="black" stroke="black" points="424.27,-128.3 414.27,-131.8 424.27,-135.3 424.27,-128.3"/>
</g>
<!-- SafeInviteUsersModule -->
<g id="node4" class="node">
<title>SafeInviteUsersModule</title>
<polygon fill="#8dd3c7" stroke="black" points="518.47,-84.8 515.47,-88.8 494.47,-88.8 491.47,-84.8 369.53,-84.8 369.53,-48.8 518.47,-48.8 518.47,-84.8"/>
<text text-anchor="middle" x="444" y="-62.6" font-family="Times,serif" font-size="14.00">SafeInviteUsersModule</text>
</g>
<!-- SafeInviteUsersModule&#45;&gt;SafeUsersModule -->
<g id="edge3" class="edge">
<title>SafeInviteUsersModule&#45;&gt;SafeUsersModule</title>
<path fill="none" stroke="black" d="M391.84,-84.91C391.84,-84.91 391.84,-103.79 391.84,-103.79"/>
<polygon fill="black" stroke="black" points="388.34,-103.79 391.84,-113.79 395.34,-103.79 388.34,-103.79"/>
</g>
<!-- SafeSkeletonTableModule -->
<g id="node5" class="node">
<title>SafeSkeletonTableModule</title>
<polygon fill="#8dd3c7" stroke="black" points="351.79,-84.8 348.79,-88.8 327.79,-88.8 324.79,-84.8 186.21,-84.8 186.21,-48.8 351.79,-48.8 351.79,-84.8"/>
<text text-anchor="middle" x="269" y="-62.6" font-family="Times,serif" font-size="14.00">SafeSkeletonTableModule</text>
</g>
<!-- SafeSkeletonTableModule&#45;&gt;SafeUsersModule -->
<g id="edge4" class="edge">
<title>SafeSkeletonTableModule&#45;&gt;SafeUsersModule</title>
<path fill="none" stroke="black" d="M324.74,-84.91C324.74,-84.91 324.74,-103.79 324.74,-103.79"/>
<polygon fill="black" stroke="black" points="321.24,-103.79 324.74,-113.79 328.24,-103.79 321.24,-103.79"/>
</g>
</g>
</svg>
