<?xml version="1.0" encoding="UTF-8" standalone="no"?>
<!DOCTYPE svg PUBLIC "-//W3C//DTD SVG 1.1//EN"
 "http://www.w3.org/Graphics/SVG/1.1/DTD/svg11.dtd">
<!-- Generated by graphviz version 3.0.0 (20220226.1711)
 -->
<!-- Title: dependencies Pages: 1 -->
<svg width="532pt" height="247pt"
 viewBox="0.00 0.00 532.00 246.80" xmlns="http://www.w3.org/2000/svg" xmlns:xlink="http://www.w3.org/1999/xlink">
<g id="graph0" class="graph" transform="scale(1 1) rotate(0) translate(4 242.8)">
<title>dependencies</title>
<polygon fill="white" stroke="transparent" points="-4,4 -4,-242.8 528,-242.8 528,4 -4,4"/>
<text text-anchor="middle" x="262" y="-8.2" font-family="sans-serif" font-size="14.00">dependencies</text>
<g id="clust1" class="cluster">
<title>cluster_SafeSkeletonTableModule</title>
<polygon fill="none" stroke="black" stroke-dasharray="1,5" points="8,-32.8 8,-230.8 516,-230.8 516,-32.8 8,-32.8"/>
</g>
<g id="clust4" class="cluster">
<title>cluster_SafeSkeletonTableModule_imports</title>
<polygon fill="none" stroke="black" points="228,-40.8 228,-92.8 508,-92.8 508,-40.8 228,-40.8"/>
</g>
<g id="clust2" class="cluster">
<title>cluster_SafeSkeletonTableModule_declarations</title>
<polygon fill="none" stroke="black" points="16,-40.8 16,-92.8 220,-92.8 220,-40.8 16,-40.8"/>
</g>
<g id="clust5" class="cluster">
<title>cluster_SafeSkeletonTableModule_exports</title>
<polygon fill="none" stroke="black" points="194,-170.8 194,-222.8 400,-222.8 400,-170.8 194,-170.8"/>
</g>
<!-- SafeSkeletonTableComponent -->
<g id="node1" class="node">
<title>SafeSkeletonTableComponent</title>
<polygon fill="#ffffb3" stroke="black" points="211.57,-84.8 24.43,-84.8 24.43,-48.8 211.57,-48.8 211.57,-84.8"/>
<text text-anchor="middle" x="118" y="-62.6" font-family="Times,serif" font-size="14.00">SafeSkeletonTableComponent</text>
</g>
<!-- SafeSkeletonTableModule -->
<g id="node2" class="node">
<title>SafeSkeletonTableModule</title>
<polygon fill="#8dd3c7" stroke="black" points="379.79,-149.8 376.79,-153.8 355.79,-153.8 352.79,-149.8 214.21,-149.8 214.21,-113.8 379.79,-113.8 379.79,-149.8"/>
<text text-anchor="middle" x="297" y="-127.6" font-family="Times,serif" font-size="14.00">SafeSkeletonTableModule</text>
</g>
<!-- SafeSkeletonTableComponent&#45;&gt;SafeSkeletonTableModule -->
<g id="edge1" class="edge">
<title>SafeSkeletonTableComponent&#45;&gt;SafeSkeletonTableModule</title>
<path fill="none" stroke="black" d="M206.62,-84.91C206.62,-104.14 206.62,-131.8 206.62,-131.8 206.62,-131.8 207.4,-131.8 207.4,-131.8"/>
<polygon fill="black" stroke="black" points="204.33,-135.3 214.33,-131.8 204.33,-128.3 204.33,-135.3"/>
</g>
<!-- SafeSkeletonTableComponent  -->
<g id="node5" class="node">
<title>SafeSkeletonTableComponent </title>
<polygon fill="#fb8072" stroke="black" points="392.07,-214.8 201.93,-214.8 201.93,-178.8 392.07,-178.8 392.07,-214.8"/>
<text text-anchor="middle" x="297" y="-192.6" font-family="Times,serif" font-size="14.00">SafeSkeletonTableComponent </text>
</g>
<!-- SafeSkeletonTableModule&#45;&gt;SafeSkeletonTableComponent  -->
<g id="edge4" class="edge">
<title>SafeSkeletonTableModule&#45;&gt;SafeSkeletonTableComponent </title>
<path fill="none" stroke="black" stroke-dasharray="5,2" d="M297,-149.91C297,-149.91 297,-168.79 297,-168.79"/>
<polygon fill="black" stroke="black" points="293.5,-168.79 297,-178.79 300.5,-168.79 293.5,-168.79"/>
</g>
<!-- SafeAccessModule -->
<g id="node3" class="node">
<title>SafeAccessModule</title>
<polygon fill="#8dd3c7" stroke="black" points="500.08,-84.8 497.08,-88.8 476.08,-88.8 473.08,-84.8 375.92,-84.8 375.92,-48.8 500.08,-48.8 500.08,-84.8"/>
<text text-anchor="middle" x="438" y="-62.6" font-family="Times,serif" font-size="14.00">SafeAccessModule</text>
</g>
<!-- SafeAccessModule&#45;&gt;SafeSkeletonTableModule -->
<g id="edge2" class="edge">
<title>SafeAccessModule&#45;&gt;SafeSkeletonTableModule</title>
<path fill="none" stroke="black" d="M385.96,-84.91C385.96,-104.14 385.96,-131.8 385.96,-131.8 385.96,-131.8 385.35,-131.8 385.35,-131.8"/>
<polygon fill="black" stroke="black" points="389.85,-128.3 379.85,-131.8 389.85,-135.3 389.85,-128.3"/>
</g>
<!-- SafeButtonModule -->
<g id="node4" class="node">
<title>SafeButtonModule</title>
<polygon fill="#8dd3c7" stroke="black" points="358.05,-84.8 355.05,-88.8 334.05,-88.8 331.05,-84.8 235.95,-84.8 235.95,-48.8 358.05,-48.8 358.05,-84.8"/>
<text text-anchor="middle" x="297" y="-62.6" font-family="Times,serif" font-size="14.00">SafeButtonModule</text>
</g>
<!-- SafeButtonModule&#45;&gt;SafeSkeletonTableModule -->
<g id="edge3" class="edge">
<title>SafeButtonModule&#45;&gt;SafeSkeletonTableModule</title>
<path fill="none" stroke="black" d="M297,-84.91C297,-84.91 297,-103.79 297,-103.79"/>
<polygon fill="black" stroke="black" points="293.5,-103.79 297,-113.79 300.5,-103.79 293.5,-103.79"/>
</g>
</g>
</svg>
