<?xml version="1.0" encoding="UTF-8" standalone="no"?>
<!DOCTYPE svg PUBLIC "-//W3C//DTD SVG 1.1//EN"
 "http://www.w3.org/Graphics/SVG/1.1/DTD/svg11.dtd">
<!-- Generated by graphviz version 3.0.0 (20220226.1711)
 -->
<!-- Title: dependencies Pages: 1 -->
<svg width="322pt" height="247pt"
 viewBox="0.00 0.00 322.00 246.80" xmlns="http://www.w3.org/2000/svg" xmlns:xlink="http://www.w3.org/1999/xlink">
<g id="graph0" class="graph" transform="scale(1 1) rotate(0) translate(4 242.8)">
<title>dependencies</title>
<polygon fill="white" stroke="transparent" points="-4,4 -4,-242.8 318,-242.8 318,4 -4,4"/>
<text text-anchor="middle" x="157" y="-8.2" font-family="sans-serif" font-size="14.00">dependencies</text>
<g id="clust1" class="cluster">
<title>cluster_FormWidgetModule</title>
<polygon fill="none" stroke="black" stroke-dasharray="1,5" points="8,-32.8 8,-230.8 306,-230.8 306,-32.8 8,-32.8"/>
</g>
<g id="clust4" class="cluster">
<title>cluster_FormWidgetModule_imports</title>
<polygon fill="none" stroke="black" points="192,-40.8 192,-92.8 298,-92.8 298,-40.8 192,-40.8"/>
</g>
<g id="clust2" class="cluster">
<title>cluster_FormWidgetModule_declarations</title>
<polygon fill="none" stroke="black" points="16,-40.8 16,-92.8 184,-92.8 184,-40.8 16,-40.8"/>
</g>
<g id="clust5" class="cluster">
<title>cluster_FormWidgetModule_exports</title>
<polygon fill="none" stroke="black" points="71,-170.8 71,-222.8 243,-222.8 243,-170.8 71,-170.8"/>
</g>
<!-- FormWidgetComponent -->
<g id="node1" class="node">
<title>FormWidgetComponent</title>
<polygon fill="#ffffb3" stroke="black" points="176.38,-84.8 23.62,-84.8 23.62,-48.8 176.38,-48.8 176.38,-84.8"/>
<text text-anchor="middle" x="100" y="-62.6" font-family="Times,serif" font-size="14.00">FormWidgetComponent</text>
</g>
<!-- FormWidgetModule -->
<g id="node2" class="node">
<title>FormWidgetModule</title>
<polygon fill="#8dd3c7" stroke="black" points="222.6,-149.8 219.6,-153.8 198.6,-153.8 195.6,-149.8 91.4,-149.8 91.4,-113.8 222.6,-113.8 222.6,-149.8"/>
<text text-anchor="middle" x="157" y="-127.6" font-family="Times,serif" font-size="14.00">FormWidgetModule</text>
</g>
<!-- FormWidgetComponent&#45;&gt;FormWidgetModule -->
<g id="edge1" class="edge">
<title>FormWidgetComponent&#45;&gt;FormWidgetModule</title>
<path fill="none" stroke="black" d="M133.94,-84.91C133.94,-84.91 133.94,-103.79 133.94,-103.79"/>
<polygon fill="black" stroke="black" points="130.44,-103.79 133.94,-113.79 137.44,-103.79 130.44,-103.79"/>
</g>
<!-- FormWidgetComponent  -->
<g id="node4" class="node">
<title>FormWidgetComponent </title>
<polygon fill="#fb8072" stroke="black" points="235.38,-214.8 78.62,-214.8 78.62,-178.8 235.38,-178.8 235.38,-214.8"/>
<text text-anchor="middle" x="157" y="-192.6" font-family="Times,serif" font-size="14.00">FormWidgetComponent </text>
</g>
<!-- FormWidgetModule&#45;&gt;FormWidgetComponent  -->
<g id="edge3" class="edge">
<title>FormWidgetModule&#45;&gt;FormWidgetComponent </title>
<path fill="none" stroke="black" stroke-dasharray="5,2" d="M157,-149.91C157,-149.91 157,-168.79 157,-168.79"/>
<polygon fill="black" stroke="black" points="153.5,-168.79 157,-178.79 160.5,-168.79 153.5,-168.79"/>
</g>
<!-- FormModule -->
<g id="node3" class="node">
<title>FormModule</title>
<polygon fill="#8dd3c7" stroke="black" points="289.89,-84.8 286.89,-88.8 265.89,-88.8 262.89,-84.8 200.11,-84.8 200.11,-48.8 289.89,-48.8 289.89,-84.8"/>
<text text-anchor="middle" x="245" y="-62.6" font-family="Times,serif" font-size="14.00">FormModule</text>
</g>
<!-- FormModule&#45;&gt;FormWidgetModule -->
<g id="edge2" class="edge">
<title>FormModule&#45;&gt;FormWidgetModule</title>
<path fill="none" stroke="black" d="M211.3,-84.91C211.3,-84.91 211.3,-103.79 211.3,-103.79"/>
<polygon fill="black" stroke="black" points="207.8,-103.79 211.3,-113.79 214.8,-103.79 207.8,-103.79"/>
</g>
</g>
</svg>
