<?xml version="1.0" encoding="UTF-8" standalone="no"?>
<!DOCTYPE svg PUBLIC "-//W3C//DTD SVG 1.1//EN"
 "http://www.w3.org/Graphics/SVG/1.1/DTD/svg11.dtd">
<!-- Generated by graphviz version 3.0.0 (20220226.1711)
 -->
<!-- Title: dependencies Pages: 1 -->
<svg width="1314pt" height="247pt"
 viewBox="0.00 0.00 1314.00 246.80" xmlns="http://www.w3.org/2000/svg" xmlns:xlink="http://www.w3.org/1999/xlink">
<g id="graph0" class="graph" transform="scale(1 1) rotate(0) translate(4 242.8)">
<title>dependencies</title>
<polygon fill="white" stroke="transparent" points="-4,4 -4,-242.8 1310,-242.8 1310,4 -4,4"/>
<text text-anchor="middle" x="653" y="-8.2" font-family="sans-serif" font-size="14.00">dependencies</text>
<g id="clust1" class="cluster">
<title>cluster_TabDisplayModule</title>
<polygon fill="none" stroke="black" stroke-dasharray="1,5" points="8,-32.8 8,-230.8 1298,-230.8 1298,-32.8 8,-32.8"/>
</g>
<g id="clust4" class="cluster">
<title>cluster_TabDisplayModule_imports</title>
<polygon fill="none" stroke="black" points="186,-40.8 186,-92.8 1290,-92.8 1290,-40.8 186,-40.8"/>
</g>
<g id="clust2" class="cluster">
<title>cluster_TabDisplayModule_declarations</title>
<polygon fill="none" stroke="black" points="16,-40.8 16,-92.8 178,-92.8 178,-40.8 16,-40.8"/>
</g>
<g id="clust5" class="cluster">
<title>cluster_TabDisplayModule_exports</title>
<polygon fill="none" stroke="black" points="592,-170.8 592,-222.8 758,-222.8 758,-170.8 592,-170.8"/>
</g>
<!-- TabDisplayComponent -->
<g id="node1" class="node">
<title>TabDisplayComponent</title>
<polygon fill="#ffffb3" stroke="black" points="170.15,-84.8 23.85,-84.8 23.85,-48.8 170.15,-48.8 170.15,-84.8"/>
<text text-anchor="middle" x="97" y="-62.6" font-family="Times,serif" font-size="14.00">TabDisplayComponent</text>
</g>
<!-- TabDisplayModule -->
<g id="node2" class="node">
<title>TabDisplayModule</title>
<polygon fill="#8dd3c7" stroke="black" points="737.37,-149.8 734.37,-153.8 713.37,-153.8 710.37,-149.8 612.63,-149.8 612.63,-113.8 737.37,-113.8 737.37,-149.8"/>
<text text-anchor="middle" x="675" y="-127.6" font-family="Times,serif" font-size="14.00">TabDisplayModule</text>
</g>
<!-- TabDisplayComponent&#45;&gt;TabDisplayModule -->
<g id="edge1" class="edge">
<title>TabDisplayComponent&#45;&gt;TabDisplayModule</title>
<path fill="none" stroke="black" d="M97,-85.09C97,-107.01 97,-140.8 97,-140.8 97,-140.8 602.59,-140.8 602.59,-140.8"/>
<polygon fill="black" stroke="black" points="602.59,-144.3 612.59,-140.8 602.59,-137.3 602.59,-144.3"/>
</g>
<!-- TabDisplayComponent  -->
<g id="node10" class="node">
<title>TabDisplayComponent </title>
<polygon fill="#fb8072" stroke="black" points="750.15,-214.8 599.85,-214.8 599.85,-178.8 750.15,-178.8 750.15,-214.8"/>
<text text-anchor="middle" x="675" y="-192.6" font-family="Times,serif" font-size="14.00">TabDisplayComponent </text>
</g>
<!-- TabDisplayModule&#45;&gt;TabDisplayComponent  -->
<g id="edge9" class="edge">
<title>TabDisplayModule&#45;&gt;TabDisplayComponent </title>
<path fill="none" stroke="black" stroke-dasharray="5,2" d="M675,-149.91C675,-149.91 675,-168.79 675,-168.79"/>
<polygon fill="black" stroke="black" points="671.5,-168.79 675,-178.79 678.5,-168.79 671.5,-168.79"/>
</g>
<!-- SafeAggregationBuilderModule -->
<g id="node3" class="node">
<title>SafeAggregationBuilderModule</title>
<polygon fill="#8dd3c7" stroke="black" points="1282.4,-84.8 1279.4,-88.8 1258.4,-88.8 1255.4,-84.8 1085.6,-84.8 1085.6,-48.8 1282.4,-48.8 1282.4,-84.8"/>
<text text-anchor="middle" x="1184" y="-62.6" font-family="Times,serif" font-size="14.00">SafeAggregationBuilderModule</text>
</g>
<!-- SafeAggregationBuilderModule&#45;&gt;TabDisplayModule -->
<g id="edge2" class="edge">
<title>SafeAggregationBuilderModule&#45;&gt;TabDisplayModule</title>
<path fill="none" stroke="black" d="M1184,-85.09C1184,-107.01 1184,-140.8 1184,-140.8 1184,-140.8 747.41,-140.8 747.41,-140.8"/>
<polygon fill="black" stroke="black" points="747.41,-137.3 737.41,-140.8 747.41,-144.3 747.41,-137.3"/>
</g>
<!-- SafeButtonModule -->
<g id="node4" class="node">
<title>SafeButtonModule</title>
<polygon fill="#8dd3c7" stroke="black" points="1068.05,-84.8 1065.05,-88.8 1044.05,-88.8 1041.05,-84.8 945.95,-84.8 945.95,-48.8 1068.05,-48.8 1068.05,-84.8"/>
<text text-anchor="middle" x="1007" y="-62.6" font-family="Times,serif" font-size="14.00">SafeButtonModule</text>
</g>
<!-- SafeButtonModule&#45;&gt;TabDisplayModule -->
<g id="edge3" class="edge">
<title>SafeButtonModule&#45;&gt;TabDisplayModule</title>
<path fill="none" stroke="black" d="M1007,-84.91C1007,-104.14 1007,-131.8 1007,-131.8 1007,-131.8 747.45,-131.8 747.45,-131.8"/>
<polygon fill="black" stroke="black" points="747.45,-128.3 737.45,-131.8 747.45,-135.3 747.45,-128.3"/>
</g>
<!-- SafeChartModule -->
<g id="node5" class="node">
<title>SafeChartModule</title>
<polygon fill="#8dd3c7" stroke="black" points="927.53,-84.8 924.53,-88.8 903.53,-88.8 900.53,-84.8 812.47,-84.8 812.47,-48.8 927.53,-48.8 927.53,-84.8"/>
<text text-anchor="middle" x="870" y="-62.6" font-family="Times,serif" font-size="14.00">SafeChartModule</text>
</g>
<!-- SafeChartModule&#45;&gt;TabDisplayModule -->
<g id="edge4" class="edge">
<title>SafeChartModule&#45;&gt;TabDisplayModule</title>
<path fill="none" stroke="black" d="M870,-84.83C870,-101.2 870,-122.8 870,-122.8 870,-122.8 747.5,-122.8 747.5,-122.8"/>
<polygon fill="black" stroke="black" points="747.5,-119.3 737.5,-122.8 747.5,-126.3 747.5,-119.3"/>
</g>
<!-- SafeGridModule -->
<g id="node6" class="node">
<title>SafeGridModule</title>
<polygon fill="#8dd3c7" stroke="black" points="794.09,-84.8 791.09,-88.8 770.09,-88.8 767.09,-84.8 683.91,-84.8 683.91,-48.8 794.09,-48.8 794.09,-84.8"/>
<text text-anchor="middle" x="739" y="-62.6" font-family="Times,serif" font-size="14.00">SafeGridModule</text>
</g>
<!-- SafeGridModule&#45;&gt;TabDisplayModule -->
<g id="edge5" class="edge">
<title>SafeGridModule&#45;&gt;TabDisplayModule</title>
<path fill="none" stroke="black" d="M710.69,-84.91C710.69,-84.91 710.69,-103.79 710.69,-103.79"/>
<polygon fill="black" stroke="black" points="707.19,-103.79 710.69,-113.79 714.19,-103.79 707.19,-103.79"/>
</g>
<!-- SafeIconModule -->
<g id="node7" class="node">
<title>SafeIconModule</title>
<polygon fill="#8dd3c7" stroke="black" points="665.8,-84.8 662.8,-88.8 641.8,-88.8 638.8,-84.8 556.2,-84.8 556.2,-48.8 665.8,-48.8 665.8,-84.8"/>
<text text-anchor="middle" x="611" y="-62.6" font-family="Times,serif" font-size="14.00">SafeIconModule</text>
</g>
<!-- SafeIconModule&#45;&gt;TabDisplayModule -->
<g id="edge6" class="edge">
<title>SafeIconModule&#45;&gt;TabDisplayModule</title>
<path fill="none" stroke="black" d="M639.11,-84.91C639.11,-84.91 639.11,-103.79 639.11,-103.79"/>
<polygon fill="black" stroke="black" points="635.61,-103.79 639.11,-113.79 642.61,-103.79 635.61,-103.79"/>
</g>
<!-- SafePaletteControlModule -->
<g id="node8" class="node">
<title>SafePaletteControlModule</title>
<polygon fill="#8dd3c7" stroke="black" points="538.8,-84.8 535.8,-88.8 514.8,-88.8 511.8,-84.8 373.2,-84.8 373.2,-48.8 538.8,-48.8 538.8,-84.8"/>
<text text-anchor="middle" x="456" y="-62.6" font-family="Times,serif" font-size="14.00">SafePaletteControlModule</text>
</g>
<!-- SafePaletteControlModule&#45;&gt;TabDisplayModule -->
<g id="edge7" class="edge">
<title>SafePaletteControlModule&#45;&gt;TabDisplayModule</title>
<path fill="none" stroke="black" d="M456,-84.83C456,-101.2 456,-122.8 456,-122.8 456,-122.8 602.54,-122.8 602.54,-122.8"/>
<polygon fill="black" stroke="black" points="602.54,-126.3 612.54,-122.8 602.54,-119.3 602.54,-126.3"/>
</g>
<!-- SafeQueryBuilderModule -->
<g id="node9" class="node">
<title>SafeQueryBuilderModule</title>
<polygon fill="#8dd3c7" stroke="black" points="355.91,-84.8 352.91,-88.8 331.91,-88.8 328.91,-84.8 194.09,-84.8 194.09,-48.8 355.91,-48.8 355.91,-84.8"/>
<text text-anchor="middle" x="275" y="-62.6" font-family="Times,serif" font-size="14.00">SafeQueryBuilderModule</text>
</g>
<!-- SafeQueryBuilderModule&#45;&gt;TabDisplayModule -->
<g id="edge8" class="edge">
<title>SafeQueryBuilderModule&#45;&gt;TabDisplayModule</title>
<path fill="none" stroke="black" d="M275,-84.91C275,-104.14 275,-131.8 275,-131.8 275,-131.8 602.5,-131.8 602.5,-131.8"/>
<polygon fill="black" stroke="black" points="602.5,-135.3 612.5,-131.8 602.5,-128.3 602.5,-135.3"/>
</g>
</g>
</svg>
