<?xml version="1.0" encoding="UTF-8" standalone="no"?>
<!DOCTYPE svg PUBLIC "-//W3C//DTD SVG 1.1//EN"
 "http://www.w3.org/Graphics/SVG/1.1/DTD/svg11.dtd">
<!-- Generated by graphviz version 3.0.0 (20220226.1711)
 -->
<!-- Title: dependencies Pages: 1 -->
<svg width="394pt" height="247pt"
 viewBox="0.00 0.00 394.00 246.80" xmlns="http://www.w3.org/2000/svg" xmlns:xlink="http://www.w3.org/1999/xlink">
<g id="graph0" class="graph" transform="scale(1 1) rotate(0) translate(4 242.8)">
<title>dependencies</title>
<polygon fill="white" stroke="transparent" points="-4,4 -4,-242.8 390,-242.8 390,4 -4,4"/>
<text text-anchor="middle" x="193" y="-8.2" font-family="sans-serif" font-size="14.00">dependencies</text>
<g id="clust1" class="cluster">
<title>cluster_ApplicationWidgetModule</title>
<polygon fill="none" stroke="black" stroke-dasharray="1,5" points="8,-32.8 8,-230.8 378,-230.8 378,-32.8 8,-32.8"/>
</g>
<g id="clust2" class="cluster">
<title>cluster_ApplicationWidgetModule_declarations</title>
<polygon fill="none" stroke="black" points="166,-40.8 166,-92.8 370,-92.8 370,-40.8 166,-40.8"/>
</g>
<g id="clust4" class="cluster">
<title>cluster_ApplicationWidgetModule_imports</title>
<polygon fill="none" stroke="black" points="16,-40.8 16,-92.8 158,-92.8 158,-40.8 16,-40.8"/>
</g>
<g id="clust5" class="cluster">
<title>cluster_ApplicationWidgetModule_exports</title>
<polygon fill="none" stroke="black" points="89,-170.8 89,-222.8 297,-222.8 297,-170.8 89,-170.8"/>
</g>
<!-- ApplicationWidgetComponent -->
<g id="node1" class="node">
<title>ApplicationWidgetComponent</title>
<polygon fill="#ffffb3" stroke="black" points="362.14,-84.8 173.86,-84.8 173.86,-48.8 362.14,-48.8 362.14,-84.8"/>
<text text-anchor="middle" x="268" y="-62.6" font-family="Times,serif" font-size="14.00">ApplicationWidgetComponent</text>
</g>
<!-- ApplicationWidgetModule -->
<g id="node2" class="node">
<title>ApplicationWidgetModule</title>
<polygon fill="#8dd3c7" stroke="black" points="276.36,-149.8 273.36,-153.8 252.36,-153.8 249.36,-149.8 109.64,-149.8 109.64,-113.8 276.36,-113.8 276.36,-149.8"/>
<text text-anchor="middle" x="193" y="-127.6" font-family="Times,serif" font-size="14.00">ApplicationWidgetModule</text>
</g>
<!-- ApplicationWidgetComponent&#45;&gt;ApplicationWidgetModule -->
<g id="edge1" class="edge">
<title>ApplicationWidgetComponent&#45;&gt;ApplicationWidgetModule</title>
<path fill="none" stroke="black" d="M225.06,-84.91C225.06,-84.91 225.06,-103.79 225.06,-103.79"/>
<polygon fill="black" stroke="black" points="221.56,-103.79 225.06,-113.79 228.56,-103.79 221.56,-103.79"/>
</g>
<!-- ApplicationWidgetComponent  -->
<g id="node4" class="node">
<title>ApplicationWidgetComponent </title>
<polygon fill="#fb8072" stroke="black" points="289.13,-214.8 96.87,-214.8 96.87,-178.8 289.13,-178.8 289.13,-214.8"/>
<text text-anchor="middle" x="193" y="-192.6" font-family="Times,serif" font-size="14.00">ApplicationWidgetComponent </text>
</g>
<!-- ApplicationWidgetModule&#45;&gt;ApplicationWidgetComponent  -->
<g id="edge3" class="edge">
<title>ApplicationWidgetModule&#45;&gt;ApplicationWidgetComponent </title>
<path fill="none" stroke="black" stroke-dasharray="5,2" d="M193,-149.91C193,-149.91 193,-168.79 193,-168.79"/>
<polygon fill="black" stroke="black" points="189.5,-168.79 193,-178.79 196.5,-168.79 189.5,-168.79"/>
</g>
<!-- ApplicationModule -->
<g id="node3" class="node">
<title>ApplicationModule</title>
<polygon fill="#8dd3c7" stroke="black" points="149.65,-84.8 146.65,-88.8 125.65,-88.8 122.65,-84.8 24.35,-84.8 24.35,-48.8 149.65,-48.8 149.65,-84.8"/>
<text text-anchor="middle" x="87" y="-62.6" font-family="Times,serif" font-size="14.00">ApplicationModule</text>
</g>
<!-- ApplicationModule&#45;&gt;ApplicationWidgetModule -->
<g id="edge2" class="edge">
<title>ApplicationModule&#45;&gt;ApplicationWidgetModule</title>
<path fill="none" stroke="black" d="M129.7,-84.91C129.7,-84.91 129.7,-103.79 129.7,-103.79"/>
<polygon fill="black" stroke="black" points="126.2,-103.79 129.7,-113.79 133.2,-103.79 126.2,-103.79"/>
</g>
</g>
</svg>
