<?xml version="1.0" encoding="UTF-8" standalone="no"?>
<!DOCTYPE svg PUBLIC "-//W3C//DTD SVG 1.1//EN"
 "http://www.w3.org/Graphics/SVG/1.1/DTD/svg11.dtd">
<!-- Generated by graphviz version 3.0.0 (20220226.1711)
 -->
<!-- Title: dependencies Pages: 1 -->
<svg width="408pt" height="247pt"
 viewBox="0.00 0.00 408.00 246.80" xmlns="http://www.w3.org/2000/svg" xmlns:xlink="http://www.w3.org/1999/xlink">
<g id="graph0" class="graph" transform="scale(1 1) rotate(0) translate(4 242.8)">
<title>dependencies</title>
<polygon fill="white" stroke="transparent" points="-4,4 -4,-242.8 404,-242.8 404,4 -4,4"/>
<text text-anchor="middle" x="200" y="-8.2" font-family="sans-serif" font-size="14.00">dependencies</text>
<g id="clust1" class="cluster">
<title>cluster_SafePreferencesModalModule</title>
<polygon fill="none" stroke="black" stroke-dasharray="1,5" points="8,-32.8 8,-230.8 392,-230.8 392,-32.8 8,-32.8"/>
</g>
<g id="clust4" class="cluster">
<title>cluster_SafePreferencesModalModule_imports</title>
<polygon fill="none" stroke="black" points="248,-40.8 248,-92.8 384,-92.8 384,-40.8 248,-40.8"/>
</g>
<g id="clust2" class="cluster">
<title>cluster_SafePreferencesModalModule_declarations</title>
<polygon fill="none" stroke="black" points="16,-40.8 16,-92.8 240,-92.8 240,-40.8 16,-40.8"/>
</g>
<g id="clust5" class="cluster">
<title>cluster_SafePreferencesModalModule_exports</title>
<polygon fill="none" stroke="black" points="86,-170.8 86,-222.8 314,-222.8 314,-170.8 86,-170.8"/>
</g>
<!-- SafePreferencesModalComponent -->
<g id="node1" class="node">
<title>SafePreferencesModalComponent</title>
<polygon fill="#ffffb3" stroke="black" points="232.05,-84.8 23.95,-84.8 23.95,-48.8 232.05,-48.8 232.05,-84.8"/>
<text text-anchor="middle" x="128" y="-62.6" font-family="Times,serif" font-size="14.00">SafePreferencesModalComponent</text>
</g>
<!-- SafePreferencesModalModule -->
<g id="node2" class="node">
<title>SafePreferencesModalModule</title>
<polygon fill="#8dd3c7" stroke="black" points="293.27,-149.8 290.27,-153.8 269.27,-153.8 266.27,-149.8 106.73,-149.8 106.73,-113.8 293.27,-113.8 293.27,-149.8"/>
<text text-anchor="middle" x="200" y="-127.6" font-family="Times,serif" font-size="14.00">SafePreferencesModalModule</text>
</g>
<!-- SafePreferencesModalComponent&#45;&gt;SafePreferencesModalModule -->
<g id="edge1" class="edge">
<title>SafePreferencesModalComponent&#45;&gt;SafePreferencesModalModule</title>
<path fill="none" stroke="black" d="M169.44,-84.91C169.44,-84.91 169.44,-103.79 169.44,-103.79"/>
<polygon fill="black" stroke="black" points="165.94,-103.79 169.44,-113.79 172.94,-103.79 165.94,-103.79"/>
</g>
<!-- SafePreferencesModalComponent  -->
<g id="node4" class="node">
<title>SafePreferencesModalComponent </title>
<polygon fill="#fb8072" stroke="black" points="305.55,-214.8 94.45,-214.8 94.45,-178.8 305.55,-178.8 305.55,-214.8"/>
<text text-anchor="middle" x="200" y="-192.6" font-family="Times,serif" font-size="14.00">SafePreferencesModalComponent </text>
</g>
<!-- SafePreferencesModalModule&#45;&gt;SafePreferencesModalComponent  -->
<g id="edge3" class="edge">
<title>SafePreferencesModalModule&#45;&gt;SafePreferencesModalComponent </title>
<path fill="none" stroke="black" stroke-dasharray="5,2" d="M200,-149.91C200,-149.91 200,-168.79 200,-168.79"/>
<polygon fill="black" stroke="black" points="196.5,-168.79 200,-178.79 203.5,-168.79 196.5,-168.79"/>
</g>
<!-- SafeModalModule -->
<g id="node3" class="node">
<title>SafeModalModule</title>
<polygon fill="#8dd3c7" stroke="black" points="376.48,-84.8 373.48,-88.8 352.48,-88.8 349.48,-84.8 255.52,-84.8 255.52,-48.8 376.48,-48.8 376.48,-84.8"/>
<text text-anchor="middle" x="316" y="-62.6" font-family="Times,serif" font-size="14.00">SafeModalModule</text>
</g>
<!-- SafeModalModule&#45;&gt;SafePreferencesModalModule -->
<g id="edge2" class="edge">
<title>SafeModalModule&#45;&gt;SafePreferencesModalModule</title>
<path fill="none" stroke="black" d="M274.32,-84.91C274.32,-84.91 274.32,-103.79 274.32,-103.79"/>
<polygon fill="black" stroke="black" points="270.82,-103.79 274.32,-113.79 277.82,-103.79 270.82,-103.79"/>
</g>
</g>
</svg>
