<?xml version="1.0" encoding="UTF-8" standalone="no"?>
<!DOCTYPE svg PUBLIC "-//W3C//DTD SVG 1.1//EN"
 "http://www.w3.org/Graphics/SVG/1.1/DTD/svg11.dtd">
<!-- Generated by graphviz version 3.0.0 (20220226.1711)
 -->
<!-- Title: dependencies Pages: 1 -->
<svg width="1363pt" height="247pt"
 viewBox="0.00 0.00 1363.00 246.80" xmlns="http://www.w3.org/2000/svg" xmlns:xlink="http://www.w3.org/1999/xlink">
<g id="graph0" class="graph" transform="scale(1 1) rotate(0) translate(4 242.8)">
<title>dependencies</title>
<polygon fill="white" stroke="transparent" points="-4,4 -4,-242.8 1359,-242.8 1359,4 -4,4"/>
<text text-anchor="middle" x="677.5" y="-8.2" font-family="sans-serif" font-size="14.00">dependencies</text>
<g id="clust1" class="cluster">
<title>cluster_SafeGridWidgetModule</title>
<polygon fill="none" stroke="black" stroke-dasharray="1,5" points="8,-32.8 8,-230.8 1347,-230.8 1347,-32.8 8,-32.8"/>
</g>
<g id="clust4" class="cluster">
<title>cluster_SafeGridWidgetModule_imports</title>
<polygon fill="none" stroke="black" points="214,-40.8 214,-92.8 1339,-92.8 1339,-40.8 214,-40.8"/>
</g>
<g id="clust2" class="cluster">
<title>cluster_SafeGridWidgetModule_declarations</title>
<polygon fill="none" stroke="black" points="16,-40.8 16,-92.8 206,-92.8 206,-40.8 16,-40.8"/>
</g>
<g id="clust5" class="cluster">
<title>cluster_SafeGridWidgetModule_exports</title>
<polygon fill="none" stroke="black" points="547,-170.8 547,-222.8 739,-222.8 739,-170.8 547,-170.8"/>
</g>
<!-- SafeGridWidgetComponent -->
<g id="node1" class="node">
<title>SafeGridWidgetComponent</title>
<polygon fill="#ffffb3" stroke="black" points="197.58,-84.8 24.42,-84.8 24.42,-48.8 197.58,-48.8 197.58,-84.8"/>
<text text-anchor="middle" x="111" y="-62.6" font-family="Times,serif" font-size="14.00">SafeGridWidgetComponent</text>
</g>
<!-- SafeGridWidgetModule -->
<g id="node2" class="node">
<title>SafeGridWidgetModule</title>
<polygon fill="#8dd3c7" stroke="black" points="718.8,-149.8 715.8,-153.8 694.8,-153.8 691.8,-149.8 567.2,-149.8 567.2,-113.8 718.8,-113.8 718.8,-149.8"/>
<text text-anchor="middle" x="643" y="-127.6" font-family="Times,serif" font-size="14.00">SafeGridWidgetModule</text>
</g>
<!-- SafeGridWidgetComponent&#45;&gt;SafeGridWidgetModule -->
<g id="edge1" class="edge">
<title>SafeGridWidgetComponent&#45;&gt;SafeGridWidgetModule</title>
<path fill="none" stroke="black" d="M111,-85.09C111,-107.01 111,-140.8 111,-140.8 111,-140.8 557.34,-140.8 557.34,-140.8"/>
<polygon fill="black" stroke="black" points="557.34,-144.3 567.34,-140.8 557.34,-137.3 557.34,-144.3"/>
</g>
<!-- SafeGridWidgetComponent  -->
<g id="node9" class="node">
<title>SafeGridWidgetComponent </title>
<polygon fill="#fb8072" stroke="black" points="731.08,-214.8 554.92,-214.8 554.92,-178.8 731.08,-178.8 731.08,-214.8"/>
<text text-anchor="middle" x="643" y="-192.6" font-family="Times,serif" font-size="14.00">SafeGridWidgetComponent </text>
</g>
<!-- SafeGridWidgetModule&#45;&gt;SafeGridWidgetComponent  -->
<g id="edge8" class="edge">
<title>SafeGridWidgetModule&#45;&gt;SafeGridWidgetComponent </title>
<path fill="none" stroke="black" stroke-dasharray="5,2" d="M643,-149.91C643,-149.91 643,-168.79 643,-168.79"/>
<polygon fill="black" stroke="black" points="639.5,-168.79 643,-178.79 646.5,-168.79 639.5,-168.79"/>
</g>
<!-- EmailTemplateModalModule -->
<g id="node3" class="node">
<title>EmailTemplateModalModule</title>
<polygon fill="#8dd3c7" stroke="black" points="1331.4,-84.8 1328.4,-88.8 1307.4,-88.8 1304.4,-84.8 1148.6,-84.8 1148.6,-48.8 1331.4,-48.8 1331.4,-84.8"/>
<text text-anchor="middle" x="1240" y="-62.6" font-family="Times,serif" font-size="14.00">EmailTemplateModalModule</text>
</g>
<!-- EmailTemplateModalModule&#45;&gt;SafeGridWidgetModule -->
<g id="edge2" class="edge">
<title>EmailTemplateModalModule&#45;&gt;SafeGridWidgetModule</title>
<path fill="none" stroke="black" d="M1240,-85.09C1240,-107.01 1240,-140.8 1240,-140.8 1240,-140.8 728.91,-140.8 728.91,-140.8"/>
<polygon fill="black" stroke="black" points="728.91,-137.3 718.91,-140.8 728.91,-144.3 728.91,-137.3"/>
</g>
<!-- SafeAggregationGridModule -->
<g id="node4" class="node">
<title>SafeAggregationGridModule</title>
<polygon fill="#8dd3c7" stroke="black" points="1131.07,-84.8 1128.07,-88.8 1107.07,-88.8 1104.07,-84.8 950.93,-84.8 950.93,-48.8 1131.07,-48.8 1131.07,-84.8"/>
<text text-anchor="middle" x="1041" y="-62.6" font-family="Times,serif" font-size="14.00">SafeAggregationGridModule</text>
</g>
<!-- SafeAggregationGridModule&#45;&gt;SafeGridWidgetModule -->
<g id="edge3" class="edge">
<title>SafeAggregationGridModule&#45;&gt;SafeGridWidgetModule</title>
<path fill="none" stroke="black" d="M1041,-84.91C1041,-104.14 1041,-131.8 1041,-131.8 1041,-131.8 728.8,-131.8 728.8,-131.8"/>
<polygon fill="black" stroke="black" points="728.8,-128.3 718.8,-131.8 728.8,-135.3 728.8,-128.3"/>
</g>
<!-- SafeChooseRecordModalModule -->
<g id="node5" class="node">
<title>SafeChooseRecordModalModule</title>
<polygon fill="#8dd3c7" stroke="black" points="932.91,-84.8 929.91,-88.8 908.91,-88.8 905.91,-84.8 729.09,-84.8 729.09,-48.8 932.91,-48.8 932.91,-84.8"/>
<text text-anchor="middle" x="831" y="-62.6" font-family="Times,serif" font-size="14.00">SafeChooseRecordModalModule</text>
</g>
<!-- SafeChooseRecordModalModule&#45;&gt;SafeGridWidgetModule -->
<g id="edge4" class="edge">
<title>SafeChooseRecordModalModule&#45;&gt;SafeGridWidgetModule</title>
<path fill="none" stroke="black" d="M832,-84.83C832,-101.2 832,-122.8 832,-122.8 832,-122.8 728.78,-122.8 728.78,-122.8"/>
<polygon fill="black" stroke="black" points="728.78,-119.3 718.78,-122.8 728.78,-126.3 728.78,-119.3"/>
</g>
<!-- SafeCoreGridModule -->
<g id="node6" class="node">
<title>SafeCoreGridModule</title>
<polygon fill="#8dd3c7" stroke="black" points="711.8,-84.8 708.8,-88.8 687.8,-88.8 684.8,-84.8 574.2,-84.8 574.2,-48.8 711.8,-48.8 711.8,-84.8"/>
<text text-anchor="middle" x="643" y="-62.6" font-family="Times,serif" font-size="14.00">SafeCoreGridModule</text>
</g>
<!-- SafeCoreGridModule&#45;&gt;SafeGridWidgetModule -->
<g id="edge5" class="edge">
<title>SafeCoreGridModule&#45;&gt;SafeGridWidgetModule</title>
<path fill="none" stroke="black" d="M643,-84.91C643,-84.91 643,-103.79 643,-103.79"/>
<polygon fill="black" stroke="black" points="639.5,-103.79 643,-113.79 646.5,-103.79 639.5,-103.79"/>
</g>
<!-- SafeEmailPreviewModule -->
<g id="node7" class="node">
<title>SafeEmailPreviewModule</title>
<polygon fill="#8dd3c7" stroke="black" points="555.74,-84.8 552.74,-88.8 531.74,-88.8 528.74,-84.8 392.26,-84.8 392.26,-48.8 555.74,-48.8 555.74,-84.8"/>
<text text-anchor="middle" x="474" y="-62.6" font-family="Times,serif" font-size="14.00">SafeEmailPreviewModule</text>
</g>
<!-- SafeEmailPreviewModule&#45;&gt;SafeGridWidgetModule -->
<g id="edge6" class="edge">
<title>SafeEmailPreviewModule&#45;&gt;SafeGridWidgetModule</title>
<path fill="none" stroke="black" d="M473.42,-84.83C473.42,-101.2 473.42,-122.8 473.42,-122.8 473.42,-122.8 557.14,-122.8 557.14,-122.8"/>
<polygon fill="black" stroke="black" points="557.14,-126.3 567.14,-122.8 557.14,-119.3 557.14,-126.3"/>
</g>
<!-- SafeFormModalModule -->
<g id="node8" class="node">
<title>SafeFormModalModule</title>
<polygon fill="#8dd3c7" stroke="black" points="373.82,-84.8 370.82,-88.8 349.82,-88.8 346.82,-84.8 222.18,-84.8 222.18,-48.8 373.82,-48.8 373.82,-84.8"/>
<text text-anchor="middle" x="298" y="-62.6" font-family="Times,serif" font-size="14.00">SafeFormModalModule</text>
</g>
<!-- SafeFormModalModule&#45;&gt;SafeGridWidgetModule -->
<g id="edge7" class="edge">
<title>SafeFormModalModule&#45;&gt;SafeGridWidgetModule</title>
<path fill="none" stroke="black" d="M298,-84.91C298,-104.14 298,-131.8 298,-131.8 298,-131.8 557.29,-131.8 557.29,-131.8"/>
<polygon fill="black" stroke="black" points="557.29,-135.3 567.29,-131.8 557.29,-128.3 557.29,-135.3"/>
</g>
</g>
</svg>
