<?xml version="1.0" encoding="UTF-8" standalone="no"?>
<!DOCTYPE svg PUBLIC "-//W3C//DTD SVG 1.1//EN"
 "http://www.w3.org/Graphics/SVG/1.1/DTD/svg11.dtd">
<!-- Generated by graphviz version 3.0.0 (20220226.1711)
 -->
<!-- Title: dependencies Pages: 1 -->
<svg width="330pt" height="247pt"
 viewBox="0.00 0.00 330.00 246.80" xmlns="http://www.w3.org/2000/svg" xmlns:xlink="http://www.w3.org/1999/xlink">
<g id="graph0" class="graph" transform="scale(1 1) rotate(0) translate(4 242.8)">
<title>dependencies</title>
<polygon fill="white" stroke="transparent" points="-4,4 -4,-242.8 326,-242.8 326,4 -4,4"/>
<text text-anchor="middle" x="161" y="-8.2" font-family="sans-serif" font-size="14.00">dependencies</text>
<g id="clust1" class="cluster">
<title>cluster_RolesModule</title>
<polygon fill="none" stroke="black" stroke-dasharray="1,5" points="8,-32.8 8,-230.8 314,-230.8 314,-32.8 8,-32.8"/>
</g>
<g id="clust2" class="cluster">
<title>cluster_RolesModule_declarations</title>
<polygon fill="none" stroke="black" points="176,-40.8 176,-92.8 306,-92.8 306,-40.8 176,-40.8"/>
</g>
<g id="clust5" class="cluster">
<title>cluster_RolesModule_exports</title>
<polygon fill="none" stroke="black" points="100,-170.8 100,-222.8 232,-222.8 232,-170.8 100,-170.8"/>
</g>
<g id="clust4" class="cluster">
<title>cluster_RolesModule_imports</title>
<polygon fill="none" stroke="black" points="16,-40.8 16,-92.8 168,-92.8 168,-40.8 16,-40.8"/>
</g>
<!-- RolesComponent -->
<g id="node1" class="node">
<title>RolesComponent</title>
<polygon fill="#ffffb3" stroke="black" points="297.72,-84.8 184.28,-84.8 184.28,-48.8 297.72,-48.8 297.72,-84.8"/>
<text text-anchor="middle" x="241" y="-62.6" font-family="Times,serif" font-size="14.00">RolesComponent</text>
</g>
<!-- RolesModule -->
<g id="node2" class="node">
<title>RolesModule</title>
<polygon fill="#8dd3c7" stroke="black" points="211.94,-149.8 208.94,-153.8 187.94,-153.8 184.94,-149.8 120.06,-149.8 120.06,-113.8 211.94,-113.8 211.94,-149.8"/>
<text text-anchor="middle" x="166" y="-127.6" font-family="Times,serif" font-size="14.00">RolesModule</text>
</g>
<!-- RolesComponent&#45;&gt;RolesModule -->
<g id="edge1" class="edge">
<title>RolesComponent&#45;&gt;RolesModule</title>
<path fill="none" stroke="black" d="M198.06,-84.91C198.06,-84.91 198.06,-103.79 198.06,-103.79"/>
<polygon fill="black" stroke="black" points="194.56,-103.79 198.06,-113.79 201.56,-103.79 194.56,-103.79"/>
</g>
<!-- RolesComponent  -->
<g id="node4" class="node">
<title>RolesComponent </title>
<polygon fill="#fb8072" stroke="black" points="224.22,-214.8 107.78,-214.8 107.78,-178.8 224.22,-178.8 224.22,-214.8"/>
<text text-anchor="middle" x="166" y="-192.6" font-family="Times,serif" font-size="14.00">RolesComponent </text>
</g>
<!-- RolesModule&#45;&gt;RolesComponent  -->
<g id="edge3" class="edge">
<title>RolesModule&#45;&gt;RolesComponent </title>
<path fill="none" stroke="black" stroke-dasharray="5,2" d="M166,-149.91C166,-149.91 166,-168.79 166,-168.79"/>
<polygon fill="black" stroke="black" points="162.5,-168.79 166,-178.79 169.5,-168.79 162.5,-168.79"/>
</g>
<!-- RolesRoutingModule -->
<g id="node3" class="node">
<title>RolesRoutingModule</title>
<polygon fill="#8dd3c7" stroke="black" points="160.06,-84.8 157.06,-88.8 136.06,-88.8 133.06,-84.8 23.94,-84.8 23.94,-48.8 160.06,-48.8 160.06,-84.8"/>
<text text-anchor="middle" x="92" y="-62.6" font-family="Times,serif" font-size="14.00">RolesRoutingModule</text>
</g>
<!-- RolesRoutingModule&#45;&gt;RolesModule -->
<g id="edge2" class="edge">
<title>RolesRoutingModule&#45;&gt;RolesModule</title>
<path fill="none" stroke="black" d="M140.28,-84.91C140.28,-84.91 140.28,-103.79 140.28,-103.79"/>
<polygon fill="black" stroke="black" points="136.78,-103.79 140.28,-113.79 143.78,-103.79 136.78,-103.79"/>
</g>
</g>
</svg>
