<?xml version="1.0" encoding="UTF-8" standalone="no"?>
<!DOCTYPE svg PUBLIC "-//W3C//DTD SVG 1.1//EN"
 "http://www.w3.org/Graphics/SVG/1.1/DTD/svg11.dtd">
<!-- Generated by graphviz version 2.47.0 (20210316.0004)
 -->
<!-- Title: dependencies Pages: 1 -->
<svg width="679pt" height="284pt"
 viewBox="0.00 0.00 679.00 284.00" xmlns="http://www.w3.org/2000/svg" xmlns:xlink="http://www.w3.org/1999/xlink">
<g id="graph0" class="graph" transform="scale(1 1) rotate(0) translate(4 280)">
<title>dependencies</title>
<polygon fill="white" stroke="transparent" points="-4,4 -4,-280 675,-280 675,4 -4,4"/>
<text text-anchor="start" x="314.51" y="-42.4" font-family="sans-serif" font-weight="bold" font-size="14.00">Legend</text>
<polygon fill="#ffffb3" stroke="transparent" points="101.5,-10 101.5,-30 121.5,-30 121.5,-10 101.5,-10"/>
<text text-anchor="start" x="125.13" y="-15.4" font-family="sans-serif" font-size="14.00"> &#160;Declarations</text>
<polygon fill="#8dd3c7" stroke="transparent" points="214.5,-10 214.5,-30 234.5,-30 234.5,-10 214.5,-10"/>
<text text-anchor="start" x="238.23" y="-15.4" font-family="sans-serif" font-size="14.00"> &#160;Module</text>
<polygon fill="#80b1d3" stroke="transparent" points="300.5,-10 300.5,-30 320.5,-30 320.5,-10 300.5,-10"/>
<text text-anchor="start" x="324.28" y="-15.4" font-family="sans-serif" font-size="14.00"> &#160;Bootstrap</text>
<polygon fill="#fdb462" stroke="transparent" points="397.5,-10 397.5,-30 417.5,-30 417.5,-10 397.5,-10"/>
<text text-anchor="start" x="421.17" y="-15.4" font-family="sans-serif" font-size="14.00"> &#160;Providers</text>
<polygon fill="#fb8072" stroke="transparent" points="493.5,-10 493.5,-30 513.5,-30 513.5,-10 493.5,-10"/>
<text text-anchor="start" x="517.23" y="-15.4" font-family="sans-serif" font-size="14.00"> &#160;Exports</text>
<g id="clust1" class="cluster">
<title>cluster_SafeChartModule</title>
<polygon fill="none" stroke="black" stroke-dasharray="1,5" points="8,-70 8,-268 663,-268 663,-70 8,-70"/>
</g>
<g id="clust2" class="cluster">
<title>cluster_SafeChartModule_declarations</title>
<polygon fill="none" stroke="black" points="501,-78 501,-130 655,-130 655,-78 501,-78"/>
</g>
<g id="clust4" class="cluster">
<title>cluster_SafeChartModule_imports</title>
<polygon fill="none" stroke="black" points="16,-78 16,-130 493,-130 493,-78 16,-78"/>
</g>
<g id="clust5" class="cluster">
<title>cluster_SafeChartModule_exports</title>
<polygon fill="none" stroke="black" points="250,-208 250,-260 406,-260 406,-208 250,-208"/>
</g>
<!-- SafeChartComponent -->
<g id="node1" class="node">
<title>SafeChartComponent</title>
<polygon fill="#ffffb3" stroke="black" points="646.81,-122 509.19,-122 509.19,-86 646.81,-86 646.81,-122"/>
<text text-anchor="middle" x="578" y="-99.8" font-family="Times,serif" font-size="14.00">SafeChartComponent</text>
</g>
<!-- SafeChartModule -->
<g id="node2" class="node">
<title>SafeChartModule</title>
<polygon fill="#8dd3c7" stroke="black" points="385.53,-187 382.53,-191 361.53,-191 358.53,-187 270.47,-187 270.47,-151 385.53,-151 385.53,-187"/>
<text text-anchor="middle" x="328" y="-164.8" font-family="Times,serif" font-size="14.00">SafeChartModule</text>
</g>
<!-- SafeChartComponent&#45;&gt;SafeChartModule -->
<g id="edge1" class="edge">
<title>SafeChartComponent&#45;&gt;SafeChartModule</title>
<path fill="none" stroke="black" d="M578,-122.11C578,-141.34 578,-169 578,-169 578,-169 395.67,-169 395.67,-169"/>
<polygon fill="black" stroke="black" points="395.67,-165.5 385.67,-169 395.67,-172.5 395.67,-165.5"/>
</g>
<!-- SafeChartComponent  -->
<g id="node6" class="node">
<title>SafeChartComponent </title>
<polygon fill="#fb8072" stroke="black" points="398.31,-252 257.69,-252 257.69,-216 398.31,-216 398.31,-252"/>
<text text-anchor="middle" x="328" y="-229.8" font-family="Times,serif" font-size="14.00">SafeChartComponent </text>
</g>
<!-- SafeChartModule&#45;&gt;SafeChartComponent  -->
<g id="edge5" class="edge">
<title>SafeChartModule&#45;&gt;SafeChartComponent </title>
<path fill="none" stroke="black" stroke-dasharray="5,2" d="M328,-187.11C328,-187.11 328,-205.99 328,-205.99"/>
<polygon fill="black" stroke="black" points="324.5,-205.99 328,-215.99 331.5,-205.99 324.5,-205.99"/>
</g>
<!-- SafeDonutChartModule -->
<g id="node3" class="node">
<title>SafeDonutChartModule</title>
<polygon fill="#8dd3c7" stroke="black" points="485.02,-122 482.02,-126 461.02,-126 458.02,-122 334.98,-122 334.98,-86 485.02,-86 485.02,-122"/>
<text text-anchor="middle" x="410" y="-99.8" font-family="Times,serif" font-size="14.00">SafeDonutChartModule</text>
</g>
<!-- SafeDonutChartModule&#45;&gt;SafeChartModule -->
<g id="edge2" class="edge">
<title>SafeDonutChartModule&#45;&gt;SafeChartModule</title>
<path fill="none" stroke="black" d="M360.25,-122.11C360.25,-122.11 360.25,-140.99 360.25,-140.99"/>
<polygon fill="black" stroke="black" points="356.75,-140.99 360.25,-150.99 363.75,-140.99 356.75,-140.99"/>
</g>
<!-- SafeLineChartModule -->
<g id="node4" class="node">
<title>SafeLineChartModule</title>
<polygon fill="#8dd3c7" stroke="black" points="316.68,-122 313.68,-126 292.68,-126 289.68,-122 175.32,-122 175.32,-86 316.68,-86 316.68,-122"/>
<text text-anchor="middle" x="246" y="-99.8" font-family="Times,serif" font-size="14.00">SafeLineChartModule</text>
</g>
<!-- SafeLineChartModule&#45;&gt;SafeChartModule -->
<g id="edge3" class="edge">
<title>SafeLineChartModule&#45;&gt;SafeChartModule</title>
<path fill="none" stroke="black" d="M293.41,-122.11C293.41,-122.11 293.41,-140.99 293.41,-140.99"/>
<polygon fill="black" stroke="black" points="289.91,-140.99 293.41,-150.99 296.91,-140.99 289.91,-140.99"/>
</g>
<!-- SafePieChartModule -->
<g id="node5" class="node">
<title>SafePieChartModule</title>
<polygon fill="#8dd3c7" stroke="black" points="157.91,-122 154.91,-126 133.91,-126 130.91,-122 24.09,-122 24.09,-86 157.91,-86 157.91,-122"/>
<text text-anchor="middle" x="91" y="-99.8" font-family="Times,serif" font-size="14.00">SafePieChartModule</text>
</g>
<!-- SafePieChartModule&#45;&gt;SafeChartModule -->
<g id="edge4" class="edge">
<title>SafePieChartModule&#45;&gt;SafeChartModule</title>
<path fill="none" stroke="black" d="M91,-122.11C91,-141.34 91,-169 91,-169 91,-169 260.33,-169 260.33,-169"/>
<polygon fill="black" stroke="black" points="260.33,-172.5 270.33,-169 260.33,-165.5 260.33,-172.5"/>
</g>
</g>
</svg>
