<?xml version="1.0" encoding="UTF-8" standalone="no"?>
<!DOCTYPE svg PUBLIC "-//W3C//DTD SVG 1.1//EN"
 "http://www.w3.org/Graphics/SVG/1.1/DTD/svg11.dtd">
<!-- Generated by graphviz version 2.47.0 (20210316.0004)
 -->
<!-- Title: dependencies Pages: 1 -->
<svg width="679pt" height="284pt"
 viewBox="0.00 0.00 679.00 284.00" xmlns="http://www.w3.org/2000/svg" xmlns:xlink="http://www.w3.org/1999/xlink">
<g id="graph0" class="graph" transform="scale(1 1) rotate(0) translate(4 280)">
<title>dependencies</title>
<polygon fill="white" stroke="transparent" points="-4,4 -4,-280 675,-280 675,4 -4,4"/>
<text text-anchor="start" x="314.51" y="-42.4" font-family="sans-serif" font-weight="bold" font-size="14.00">Legend</text>
<polygon fill="#ffffb3" stroke="transparent" points="101.5,-10 101.5,-30 121.5,-30 121.5,-10 101.5,-10"/>
<text text-anchor="start" x="125.13" y="-15.4" font-family="sans-serif" font-size="14.00"> &#160;Declarations</text>
<polygon fill="#8dd3c7" stroke="transparent" points="214.5,-10 214.5,-30 234.5,-30 234.5,-10 214.5,-10"/>
<text text-anchor="start" x="238.23" y="-15.4" font-family="sans-serif" font-size="14.00"> &#160;Module</text>
<polygon fill="#80b1d3" stroke="transparent" points="300.5,-10 300.5,-30 320.5,-30 320.5,-10 300.5,-10"/>
<text text-anchor="start" x="324.28" y="-15.4" font-family="sans-serif" font-size="14.00"> &#160;Bootstrap</text>
<polygon fill="#fdb462" stroke="transparent" points="397.5,-10 397.5,-30 417.5,-30 417.5,-10 397.5,-10"/>
<text text-anchor="start" x="421.17" y="-15.4" font-family="sans-serif" font-size="14.00"> &#160;Providers</text>
<polygon fill="#fb8072" stroke="transparent" points="493.5,-10 493.5,-30 513.5,-30 513.5,-10 493.5,-10"/>
<text text-anchor="start" x="517.23" y="-15.4" font-family="sans-serif" font-size="14.00"> &#160;Exports</text>
<g id="clust1" class="cluster">
<title>cluster_SafeChartModule</title>
<polygon fill="none" stroke="black" stroke-dasharray="1,5" points="8,-70 8,-268 663,-268 663,-70 8,-70"/>
</g>
<g id="clust5" class="cluster">
<title>cluster_SafeChartModule_exports</title>
<polygon fill="none" stroke="black" points="252,-208 252,-260 408,-260 408,-208 252,-208"/>
</g>
<g id="clust4" class="cluster">
<title>cluster_SafeChartModule_imports</title>
<polygon fill="none" stroke="black" points="178,-78 178,-130 655,-130 655,-78 178,-78"/>
</g>
<g id="clust2" class="cluster">
<title>cluster_SafeChartModule_declarations</title>
<polygon fill="none" stroke="black" points="16,-78 16,-130 170,-130 170,-78 16,-78"/>
</g>
<!-- SafeChartComponent -->
<g id="node1" class="node">
<title>SafeChartComponent</title>
<polygon fill="#ffffb3" stroke="black" points="161.81,-122 24.19,-122 24.19,-86 161.81,-86 161.81,-122"/>
<text text-anchor="middle" x="93" y="-99.8" font-family="Times,serif" font-size="14.00">SafeChartComponent</text>
</g>
<!-- SafeChartModule -->
<g id="node2" class="node">
<title>SafeChartModule</title>
<polygon fill="#8dd3c7" stroke="black" points="387.53,-187 384.53,-191 363.53,-191 360.53,-187 272.47,-187 272.47,-151 387.53,-151 387.53,-187"/>
<text text-anchor="middle" x="330" y="-164.8" font-family="Times,serif" font-size="14.00">SafeChartModule</text>
</g>
<!-- SafeChartComponent&#45;&gt;SafeChartModule -->
<g id="edge1" class="edge">
<title>SafeChartComponent&#45;&gt;SafeChartModule</title>
<path fill="none" stroke="black" d="M93,-122.11C93,-141.34 93,-169 93,-169 93,-169 262.33,-169 262.33,-169"/>
<polygon fill="black" stroke="black" points="262.33,-172.5 272.33,-169 262.33,-165.5 262.33,-172.5"/>
</g>
<!-- SafeChartComponent  -->
<g id="node6" class="node">
<title>SafeChartComponent </title>
<polygon fill="#fb8072" stroke="black" points="400.31,-252 259.69,-252 259.69,-216 400.31,-216 400.31,-252"/>
<text text-anchor="middle" x="330" y="-229.8" font-family="Times,serif" font-size="14.00">SafeChartComponent </text>
</g>
<!-- SafeChartModule&#45;&gt;SafeChartComponent  -->
<g id="edge5" class="edge">
<title>SafeChartModule&#45;&gt;SafeChartComponent </title>
<path fill="none" stroke="black" stroke-dasharray="5,2" d="M330,-187.11C330,-187.11 330,-205.99 330,-205.99"/>
<polygon fill="black" stroke="black" points="326.5,-205.99 330,-215.99 333.5,-205.99 326.5,-205.99"/>
</g>
<!-- SafeDonutChartModule -->
<g id="node3" class="node">
<title>SafeDonutChartModule</title>
<polygon fill="#8dd3c7" stroke="black" points="647.02,-122 644.02,-126 623.02,-126 620.02,-122 496.98,-122 496.98,-86 647.02,-86 647.02,-122"/>
<text text-anchor="middle" x="572" y="-99.8" font-family="Times,serif" font-size="14.00">SafeDonutChartModule</text>
</g>
<!-- SafeDonutChartModule&#45;&gt;SafeChartModule -->
<g id="edge2" class="edge">
<title>SafeDonutChartModule&#45;&gt;SafeChartModule</title>
<path fill="none" stroke="black" d="M572,-122.11C572,-141.34 572,-169 572,-169 572,-169 397.66,-169 397.66,-169"/>
<polygon fill="black" stroke="black" points="397.66,-165.5 387.66,-169 397.66,-172.5 397.66,-165.5"/>
</g>
<!-- SafeLineChartModule -->
<g id="node4" class="node">
<title>SafeLineChartModule</title>
<polygon fill="#8dd3c7" stroke="black" points="478.68,-122 475.68,-126 454.68,-126 451.68,-122 337.32,-122 337.32,-86 478.68,-86 478.68,-122"/>
<text text-anchor="middle" x="408" y="-99.8" font-family="Times,serif" font-size="14.00">SafeLineChartModule</text>
</g>
<!-- SafeLineChartModule&#45;&gt;SafeChartModule -->
<g id="edge3" class="edge">
<title>SafeLineChartModule&#45;&gt;SafeChartModule</title>
<path fill="none" stroke="black" d="M362.59,-122.11C362.59,-122.11 362.59,-140.99 362.59,-140.99"/>
<polygon fill="black" stroke="black" points="359.09,-140.99 362.59,-150.99 366.09,-140.99 359.09,-140.99"/>
</g>
<!-- SafePieChartModule -->
<g id="node5" class="node">
<title>SafePieChartModule</title>
<polygon fill="#8dd3c7" stroke="black" points="319.91,-122 316.91,-126 295.91,-126 292.91,-122 186.09,-122 186.09,-86 319.91,-86 319.91,-122"/>
<text text-anchor="middle" x="253" y="-99.8" font-family="Times,serif" font-size="14.00">SafePieChartModule</text>
</g>
<!-- SafePieChartModule&#45;&gt;SafeChartModule -->
<g id="edge4" class="edge">
<title>SafePieChartModule&#45;&gt;SafeChartModule</title>
<path fill="none" stroke="black" d="M295.97,-122.11C295.97,-122.11 295.97,-140.99 295.97,-140.99"/>
<polygon fill="black" stroke="black" points="292.47,-140.99 295.97,-150.99 299.47,-140.99 292.47,-140.99"/>
</g>
</g>
</svg>
