<?xml version="1.0" encoding="UTF-8" standalone="no"?>
<!DOCTYPE svg PUBLIC "-//W3C//DTD SVG 1.1//EN"
 "http://www.w3.org/Graphics/SVG/1.1/DTD/svg11.dtd">
<!-- Generated by graphviz version 3.0.0 (20220226.1711)
 -->
<!-- Title: dependencies Pages: 1 -->
<svg width="1237pt" height="247pt"
 viewBox="0.00 0.00 1237.00 246.80" xmlns="http://www.w3.org/2000/svg" xmlns:xlink="http://www.w3.org/1999/xlink">
<g id="graph0" class="graph" transform="scale(1 1) rotate(0) translate(4 242.8)">
<title>dependencies</title>
<polygon fill="white" stroke="transparent" points="-4,4 -4,-242.8 1233,-242.8 1233,4 -4,4"/>
<text text-anchor="middle" x="614.5" y="-8.2" font-family="sans-serif" font-size="14.00">dependencies</text>
<g id="clust1" class="cluster">
<title>cluster_SafeFormModalModule</title>
<polygon fill="none" stroke="black" stroke-dasharray="1,5" points="8,-32.8 8,-230.8 1221,-230.8 1221,-32.8 8,-32.8"/>
</g>
<g id="clust5" class="cluster">
<title>cluster_SafeFormModalModule_exports</title>
<polygon fill="none" stroke="black" points="605,-170.8 605,-222.8 797,-222.8 797,-170.8 605,-170.8"/>
</g>
<g id="clust4" class="cluster">
<title>cluster_SafeFormModalModule_imports</title>
<polygon fill="none" stroke="black" points="214,-40.8 214,-92.8 1213,-92.8 1213,-40.8 214,-40.8"/>
</g>
<g id="clust2" class="cluster">
<title>cluster_SafeFormModalModule_declarations</title>
<polygon fill="none" stroke="black" points="16,-40.8 16,-92.8 206,-92.8 206,-40.8 16,-40.8"/>
</g>
<!-- SafeFormModalComponent -->
<g id="node1" class="node">
<title>SafeFormModalComponent</title>
<polygon fill="#ffffb3" stroke="black" points="197.6,-84.8 24.4,-84.8 24.4,-48.8 197.6,-48.8 197.6,-84.8"/>
<text text-anchor="middle" x="111" y="-62.6" font-family="Times,serif" font-size="14.00">SafeFormModalComponent</text>
</g>
<!-- SafeFormModalModule -->
<g id="node2" class="node">
<title>SafeFormModalModule</title>
<polygon fill="#8dd3c7" stroke="black" points="776.82,-149.8 773.82,-153.8 752.82,-153.8 749.82,-149.8 625.18,-149.8 625.18,-113.8 776.82,-113.8 776.82,-149.8"/>
<text text-anchor="middle" x="701" y="-127.6" font-family="Times,serif" font-size="14.00">SafeFormModalModule</text>
</g>
<!-- SafeFormModalComponent&#45;&gt;SafeFormModalModule -->
<g id="edge1" class="edge">
<title>SafeFormModalComponent&#45;&gt;SafeFormModalModule</title>
<path fill="none" stroke="black" d="M111,-85.09C111,-107.01 111,-140.8 111,-140.8 111,-140.8 615.08,-140.8 615.08,-140.8"/>
<polygon fill="black" stroke="black" points="615.08,-144.3 625.08,-140.8 615.08,-137.3 615.08,-144.3"/>
</g>
<!-- SafeFormModalComponent  -->
<g id="node9" class="node">
<title>SafeFormModalComponent </title>
<polygon fill="#fb8072" stroke="black" points="789.1,-214.8 612.9,-214.8 612.9,-178.8 789.1,-178.8 789.1,-214.8"/>
<text text-anchor="middle" x="701" y="-192.6" font-family="Times,serif" font-size="14.00">SafeFormModalComponent </text>
</g>
<!-- SafeFormModalModule&#45;&gt;SafeFormModalComponent  -->
<g id="edge8" class="edge">
<title>SafeFormModalModule&#45;&gt;SafeFormModalComponent </title>
<path fill="none" stroke="black" stroke-dasharray="5,2" d="M701,-149.91C701,-149.91 701,-168.79 701,-168.79"/>
<polygon fill="black" stroke="black" points="697.5,-168.79 701,-178.79 704.5,-168.79 697.5,-168.79"/>
</g>
<!-- SafeButtonModule -->
<g id="node3" class="node">
<title>SafeButtonModule</title>
<polygon fill="#8dd3c7" stroke="black" points="1205.05,-84.8 1202.05,-88.8 1181.05,-88.8 1178.05,-84.8 1082.95,-84.8 1082.95,-48.8 1205.05,-48.8 1205.05,-84.8"/>
<text text-anchor="middle" x="1144" y="-62.6" font-family="Times,serif" font-size="14.00">SafeButtonModule</text>
</g>
<!-- SafeButtonModule&#45;&gt;SafeFormModalModule -->
<g id="edge2" class="edge">
<title>SafeButtonModule&#45;&gt;SafeFormModalModule</title>
<path fill="none" stroke="black" d="M1144,-85.09C1144,-107.01 1144,-140.8 1144,-140.8 1144,-140.8 786.9,-140.8 786.9,-140.8"/>
<polygon fill="black" stroke="black" points="786.9,-137.3 776.9,-140.8 786.9,-144.3 786.9,-137.3"/>
</g>
<!-- SafeFormActionsModule -->
<g id="node4" class="node">
<title>SafeFormActionsModule</title>
<polygon fill="#8dd3c7" stroke="black" points="1065.32,-84.8 1062.32,-88.8 1041.32,-88.8 1038.32,-84.8 906.68,-84.8 906.68,-48.8 1065.32,-48.8 1065.32,-84.8"/>
<text text-anchor="middle" x="986" y="-62.6" font-family="Times,serif" font-size="14.00">SafeFormActionsModule</text>
</g>
<!-- SafeFormActionsModule&#45;&gt;SafeFormModalModule -->
<g id="edge3" class="edge">
<title>SafeFormActionsModule&#45;&gt;SafeFormModalModule</title>
<path fill="none" stroke="black" d="M986,-84.91C986,-104.14 986,-131.8 986,-131.8 986,-131.8 787,-131.8 787,-131.8"/>
<polygon fill="black" stroke="black" points="787,-128.3 777,-131.8 787,-135.3 787,-128.3"/>
</g>
<!-- SafeIconModule -->
<g id="node5" class="node">
<title>SafeIconModule</title>
<polygon fill="#8dd3c7" stroke="black" points="888.8,-84.8 885.8,-88.8 864.8,-88.8 861.8,-84.8 779.2,-84.8 779.2,-48.8 888.8,-48.8 888.8,-84.8"/>
<text text-anchor="middle" x="834" y="-62.6" font-family="Times,serif" font-size="14.00">SafeIconModule</text>
</g>
<!-- SafeIconModule&#45;&gt;SafeFormModalModule -->
<g id="edge4" class="edge">
<title>SafeIconModule&#45;&gt;SafeFormModalModule</title>
<path fill="none" stroke="black" d="M784.32,-84.83C784.32,-101.2 784.32,-122.8 784.32,-122.8 784.32,-122.8 783.58,-122.8 783.58,-122.8"/>
<polygon fill="black" stroke="black" points="786.93,-119.3 776.93,-122.8 786.93,-126.3 786.93,-119.3"/>
</g>
<!-- SafeModalModule -->
<g id="node6" class="node">
<title>SafeModalModule</title>
<polygon fill="#8dd3c7" stroke="black" points="761.48,-84.8 758.48,-88.8 737.48,-88.8 734.48,-84.8 640.52,-84.8 640.52,-48.8 761.48,-48.8 761.48,-84.8"/>
<text text-anchor="middle" x="701" y="-62.6" font-family="Times,serif" font-size="14.00">SafeModalModule</text>
</g>
<!-- SafeModalModule&#45;&gt;SafeFormModalModule -->
<g id="edge5" class="edge">
<title>SafeModalModule&#45;&gt;SafeFormModalModule</title>
<path fill="none" stroke="black" d="M701,-84.91C701,-84.91 701,-103.79 701,-103.79"/>
<polygon fill="black" stroke="black" points="697.5,-103.79 701,-113.79 704.5,-103.79 697.5,-103.79"/>
</g>
<!-- SafeRecordHistoryModalModule -->
<g id="node7" class="node">
<title>SafeRecordHistoryModalModule</title>
<polygon fill="#8dd3c7" stroke="black" points="622.91,-84.8 619.91,-88.8 598.91,-88.8 595.91,-84.8 419.09,-84.8 419.09,-48.8 622.91,-48.8 622.91,-84.8"/>
<text text-anchor="middle" x="521" y="-62.6" font-family="Times,serif" font-size="14.00">SafeRecordHistoryModalModule</text>
</g>
<!-- SafeRecordHistoryModalModule&#45;&gt;SafeFormModalModule -->
<g id="edge6" class="edge">
<title>SafeRecordHistoryModalModule&#45;&gt;SafeFormModalModule</title>
<path fill="none" stroke="black" d="M617.7,-84.83C617.7,-101.2 617.7,-122.8 617.7,-122.8 617.7,-122.8 618.44,-122.8 618.44,-122.8"/>
<polygon fill="black" stroke="black" points="615.09,-126.3 625.09,-122.8 615.09,-119.3 615.09,-126.3"/>
</g>
<!-- SafeRecordSummaryModule -->
<g id="node8" class="node">
<title>SafeRecordSummaryModule</title>
<polygon fill="#8dd3c7" stroke="black" points="401.8,-84.8 398.8,-88.8 377.8,-88.8 374.8,-84.8 222.2,-84.8 222.2,-48.8 401.8,-48.8 401.8,-84.8"/>
<text text-anchor="middle" x="312" y="-62.6" font-family="Times,serif" font-size="14.00">SafeRecordSummaryModule</text>
</g>
<!-- SafeRecordSummaryModule&#45;&gt;SafeFormModalModule -->
<g id="edge7" class="edge">
<title>SafeRecordSummaryModule&#45;&gt;SafeFormModalModule</title>
<path fill="none" stroke="black" d="M312,-84.91C312,-104.14 312,-131.8 312,-131.8 312,-131.8 615.07,-131.8 615.07,-131.8"/>
<polygon fill="black" stroke="black" points="615.07,-135.3 625.07,-131.8 615.07,-128.3 615.07,-135.3"/>
</g>
</g>
</svg>
