<?xml version="1.0" encoding="UTF-8" standalone="no"?>
<!DOCTYPE svg PUBLIC "-//W3C//DTD SVG 1.1//EN"
 "http://www.w3.org/Graphics/SVG/1.1/DTD/svg11.dtd">
<!-- Generated by graphviz version 3.0.0 (20220226.1711)
 -->
<!-- Title: dependencies Pages: 1 -->
<svg width="1237pt" height="247pt"
 viewBox="0.00 0.00 1237.00 246.80" xmlns="http://www.w3.org/2000/svg" xmlns:xlink="http://www.w3.org/1999/xlink">
<g id="graph0" class="graph" transform="scale(1 1) rotate(0) translate(4 242.8)">
<title>dependencies</title>
<polygon fill="white" stroke="transparent" points="-4,4 -4,-242.8 1233,-242.8 1233,4 -4,4"/>
<text text-anchor="middle" x="614.5" y="-8.2" font-family="sans-serif" font-size="14.00">dependencies</text>
<g id="clust1" class="cluster">
<title>cluster_SafeFormModalModule</title>
<polygon fill="none" stroke="black" stroke-dasharray="1,5" points="8,-32.8 8,-230.8 1221,-230.8 1221,-32.8 8,-32.8"/>
</g>
<g id="clust5" class="cluster">
<title>cluster_SafeFormModalModule_exports</title>
<polygon fill="none" stroke="black" points="540,-170.8 540,-222.8 732,-222.8 732,-170.8 540,-170.8"/>
</g>
<g id="clust2" class="cluster">
<title>cluster_SafeFormModalModule_declarations</title>
<polygon fill="none" stroke="black" points="1023,-40.8 1023,-92.8 1213,-92.8 1213,-40.8 1023,-40.8"/>
</g>
<g id="clust4" class="cluster">
<title>cluster_SafeFormModalModule_imports</title>
<polygon fill="none" stroke="black" points="16,-40.8 16,-92.8 1015,-92.8 1015,-40.8 16,-40.8"/>
</g>
<!-- SafeFormModalComponent -->
<g id="node1" class="node">
<title>SafeFormModalComponent</title>
<polygon fill="#ffffb3" stroke="black" points="1204.6,-84.8 1031.4,-84.8 1031.4,-48.8 1204.6,-48.8 1204.6,-84.8"/>
<text text-anchor="middle" x="1118" y="-62.6" font-family="Times,serif" font-size="14.00">SafeFormModalComponent</text>
</g>
<!-- SafeFormModalModule -->
<g id="node2" class="node">
<title>SafeFormModalModule</title>
<polygon fill="#8dd3c7" stroke="black" points="711.82,-149.8 708.82,-153.8 687.82,-153.8 684.82,-149.8 560.18,-149.8 560.18,-113.8 711.82,-113.8 711.82,-149.8"/>
<text text-anchor="middle" x="636" y="-127.6" font-family="Times,serif" font-size="14.00">SafeFormModalModule</text>
</g>
<!-- SafeFormModalComponent&#45;&gt;SafeFormModalModule -->
<g id="edge1" class="edge">
<title>SafeFormModalComponent&#45;&gt;SafeFormModalModule</title>
<path fill="none" stroke="black" d="M1118,-85.09C1118,-107.01 1118,-140.8 1118,-140.8 1118,-140.8 721.84,-140.8 721.84,-140.8"/>
<polygon fill="black" stroke="black" points="721.84,-137.3 711.84,-140.8 721.84,-144.3 721.84,-137.3"/>
</g>
<!-- SafeFormModalComponent  -->
<g id="node9" class="node">
<title>SafeFormModalComponent </title>
<polygon fill="#fb8072" stroke="black" points="724.1,-214.8 547.9,-214.8 547.9,-178.8 724.1,-178.8 724.1,-214.8"/>
<text text-anchor="middle" x="636" y="-192.6" font-family="Times,serif" font-size="14.00">SafeFormModalComponent </text>
</g>
<!-- SafeFormModalModule&#45;&gt;SafeFormModalComponent  -->
<g id="edge8" class="edge">
<title>SafeFormModalModule&#45;&gt;SafeFormModalComponent </title>
<path fill="none" stroke="black" stroke-dasharray="5,2" d="M636,-149.91C636,-149.91 636,-168.79 636,-168.79"/>
<polygon fill="black" stroke="black" points="632.5,-168.79 636,-178.79 639.5,-168.79 632.5,-168.79"/>
</g>
<!-- SafeButtonModule -->
<g id="node3" class="node">
<title>SafeButtonModule</title>
<polygon fill="#8dd3c7" stroke="black" points="1007.05,-84.8 1004.05,-88.8 983.05,-88.8 980.05,-84.8 884.95,-84.8 884.95,-48.8 1007.05,-48.8 1007.05,-84.8"/>
<text text-anchor="middle" x="946" y="-62.6" font-family="Times,serif" font-size="14.00">SafeButtonModule</text>
</g>
<!-- SafeButtonModule&#45;&gt;SafeFormModalModule -->
<g id="edge2" class="edge">
<title>SafeButtonModule&#45;&gt;SafeFormModalModule</title>
<path fill="none" stroke="black" d="M946,-84.91C946,-104.14 946,-131.8 946,-131.8 946,-131.8 721.83,-131.8 721.83,-131.8"/>
<polygon fill="black" stroke="black" points="721.83,-128.3 711.83,-131.8 721.83,-135.3 721.83,-128.3"/>
</g>
<!-- SafeFormActionsModule -->
<g id="node4" class="node">
<title>SafeFormActionsModule</title>
<polygon fill="#8dd3c7" stroke="black" points="867.32,-84.8 864.32,-88.8 843.32,-88.8 840.32,-84.8 708.68,-84.8 708.68,-48.8 867.32,-48.8 867.32,-84.8"/>
<text text-anchor="middle" x="788" y="-62.6" font-family="Times,serif" font-size="14.00">SafeFormActionsModule</text>
</g>
<!-- SafeFormActionsModule&#45;&gt;SafeFormModalModule -->
<g id="edge3" class="edge">
<title>SafeFormActionsModule&#45;&gt;SafeFormModalModule</title>
<path fill="none" stroke="black" d="M717.98,-84.83C717.98,-101.2 717.98,-122.8 717.98,-122.8 717.98,-122.8 717.36,-122.8 717.36,-122.8"/>
<polygon fill="black" stroke="black" points="721.82,-119.3 711.82,-122.8 721.82,-126.3 721.82,-119.3"/>
</g>
<!-- SafeIconModule -->
<g id="node5" class="node">
<title>SafeIconModule</title>
<polygon fill="#8dd3c7" stroke="black" points="690.8,-84.8 687.8,-88.8 666.8,-88.8 663.8,-84.8 581.2,-84.8 581.2,-48.8 690.8,-48.8 690.8,-84.8"/>
<text text-anchor="middle" x="636" y="-62.6" font-family="Times,serif" font-size="14.00">SafeIconModule</text>
</g>
<!-- SafeIconModule&#45;&gt;SafeFormModalModule -->
<g id="edge4" class="edge">
<title>SafeIconModule&#45;&gt;SafeFormModalModule</title>
<path fill="none" stroke="black" d="M636,-84.91C636,-84.91 636,-103.79 636,-103.79"/>
<polygon fill="black" stroke="black" points="632.5,-103.79 636,-113.79 639.5,-103.79 632.5,-103.79"/>
</g>
<!-- SafeModalModule -->
<g id="node6" class="node">
<title>SafeModalModule</title>
<polygon fill="#8dd3c7" stroke="black" points="563.48,-84.8 560.48,-88.8 539.48,-88.8 536.48,-84.8 442.52,-84.8 442.52,-48.8 563.48,-48.8 563.48,-84.8"/>
<text text-anchor="middle" x="503" y="-62.6" font-family="Times,serif" font-size="14.00">SafeModalModule</text>
</g>
<!-- SafeModalModule&#45;&gt;SafeFormModalModule -->
<g id="edge5" class="edge">
<title>SafeModalModule&#45;&gt;SafeFormModalModule</title>
<path fill="none" stroke="black" d="M554.02,-85.09C554.02,-107.01 554.02,-140.8 554.02,-140.8 554.02,-140.8 554.64,-140.8 554.64,-140.8"/>
<polygon fill="black" stroke="black" points="550.18,-144.3 560.18,-140.8 550.18,-137.3 550.18,-144.3"/>
</g>
<!-- SafeRecordHistoryModalModule -->
<g id="node7" class="node">
<title>SafeRecordHistoryModalModule</title>
<polygon fill="#8dd3c7" stroke="black" points="424.91,-84.8 421.91,-88.8 400.91,-88.8 397.91,-84.8 221.09,-84.8 221.09,-48.8 424.91,-48.8 424.91,-84.8"/>
<text text-anchor="middle" x="323" y="-62.6" font-family="Times,serif" font-size="14.00">SafeRecordHistoryModalModule</text>
</g>
<!-- SafeRecordHistoryModalModule&#45;&gt;SafeFormModalModule -->
<g id="edge6" class="edge">
<title>SafeRecordHistoryModalModule&#45;&gt;SafeFormModalModule</title>
<path fill="none" stroke="black" d="M323,-84.83C323,-101.2 323,-122.8 323,-122.8 323,-122.8 550.23,-122.8 550.23,-122.8"/>
<polygon fill="black" stroke="black" points="550.23,-126.3 560.23,-122.8 550.23,-119.3 550.23,-126.3"/>
</g>
<!-- SafeRecordSummaryModule -->
<g id="node8" class="node">
<title>SafeRecordSummaryModule</title>
<polygon fill="#8dd3c7" stroke="black" points="203.8,-84.8 200.8,-88.8 179.8,-88.8 176.8,-84.8 24.2,-84.8 24.2,-48.8 203.8,-48.8 203.8,-84.8"/>
<text text-anchor="middle" x="114" y="-62.6" font-family="Times,serif" font-size="14.00">SafeRecordSummaryModule</text>
</g>
<!-- SafeRecordSummaryModule&#45;&gt;SafeFormModalModule -->
<g id="edge7" class="edge">
<title>SafeRecordSummaryModule&#45;&gt;SafeFormModalModule</title>
<path fill="none" stroke="black" d="M114,-84.91C114,-104.14 114,-131.8 114,-131.8 114,-131.8 550.1,-131.8 550.1,-131.8"/>
<polygon fill="black" stroke="black" points="550.1,-135.3 560.1,-131.8 550.1,-128.3 550.1,-135.3"/>
</g>
</g>
</svg>
