<?xml version="1.0" encoding="UTF-8" standalone="no"?>
<!DOCTYPE svg PUBLIC "-//W3C//DTD SVG 1.1//EN"
 "http://www.w3.org/Graphics/SVG/1.1/DTD/svg11.dtd">
<!-- Generated by graphviz version 3.0.0 (20220226.1711)
 -->
<!-- Title: dependencies Pages: 1 -->
<svg width="498pt" height="174pt"
 viewBox="0.00 0.00 498.00 173.80" xmlns="http://www.w3.org/2000/svg" xmlns:xlink="http://www.w3.org/1999/xlink">
<g id="graph0" class="graph" transform="scale(1 1) rotate(0) translate(4 169.8)">
<title>dependencies</title>
<polygon fill="white" stroke="transparent" points="-4,4 -4,-169.8 494,-169.8 494,4 -4,4"/>
<text text-anchor="middle" x="245" y="-8.2" font-family="sans-serif" font-size="14.00">dependencies</text>
<g id="clust1" class="cluster">
<title>cluster_CalculatedFieldsTabModule</title>
<polygon fill="none" stroke="black" stroke-dasharray="1,5" points="8,-32.8 8,-157.8 482,-157.8 482,-32.8 8,-32.8"/>
</g>
<g id="clust2" class="cluster">
<title>cluster_CalculatedFieldsTabModule_declarations</title>
<polygon fill="none" stroke="black" points="260,-40.8 260,-92.8 474,-92.8 474,-40.8 260,-40.8"/>
</g>
<g id="clust4" class="cluster">
<title>cluster_CalculatedFieldsTabModule_imports</title>
<polygon fill="none" stroke="black" points="16,-40.8 16,-92.8 252,-92.8 252,-40.8 16,-40.8"/>
</g>
<!-- CalculatedFieldsTabComponent -->
<g id="node1" class="node">
<title>CalculatedFieldsTabComponent</title>
<polygon fill="#ffffb3" stroke="black" points="465.69,-84.8 268.31,-84.8 268.31,-48.8 465.69,-48.8 465.69,-84.8"/>
<text text-anchor="middle" x="367" y="-62.6" font-family="Times,serif" font-size="14.00">CalculatedFieldsTabComponent</text>
</g>
<!-- CalculatedFieldsTabModule -->
<g id="node2" class="node">
<title>CalculatedFieldsTabModule</title>
<polygon fill="#8dd3c7" stroke="black" points="337.91,-149.8 334.91,-153.8 313.91,-153.8 310.91,-149.8 162.09,-149.8 162.09,-113.8 337.91,-113.8 337.91,-149.8"/>
<text text-anchor="middle" x="250" y="-127.6" font-family="Times,serif" font-size="14.00">CalculatedFieldsTabModule</text>
</g>
<!-- CalculatedFieldsTabComponent&#45;&gt;CalculatedFieldsTabModule -->
<g id="edge1" class="edge">
<title>CalculatedFieldsTabComponent&#45;&gt;CalculatedFieldsTabModule</title>
<path fill="none" stroke="black" d="M303.06,-84.91C303.06,-84.91 303.06,-103.79 303.06,-103.79"/>
<polygon fill="black" stroke="black" points="299.56,-103.79 303.06,-113.79 306.56,-103.79 299.56,-103.79"/>
</g>
<!-- CalculatedFieldsTabRoutingModule -->
<g id="node3" class="node">
<title>CalculatedFieldsTabRoutingModule</title>
<polygon fill="#8dd3c7" stroke="black" points="244.02,-84.8 241.02,-88.8 220.02,-88.8 217.02,-84.8 23.98,-84.8 23.98,-48.8 244.02,-48.8 244.02,-84.8"/>
<text text-anchor="middle" x="134" y="-62.6" font-family="Times,serif" font-size="14.00">CalculatedFieldsTabRoutingModule</text>
</g>
<!-- CalculatedFieldsTabRoutingModule&#45;&gt;CalculatedFieldsTabModule -->
<g id="edge2" class="edge">
<title>CalculatedFieldsTabRoutingModule&#45;&gt;CalculatedFieldsTabModule</title>
<path fill="none" stroke="black" d="M203.28,-84.91C203.28,-84.91 203.28,-103.79 203.28,-103.79"/>
<polygon fill="black" stroke="black" points="199.78,-103.79 203.28,-113.79 206.78,-103.79 199.78,-103.79"/>
</g>
</g>
</svg>
