<?xml version="1.0" encoding="UTF-8" standalone="no"?>
<!DOCTYPE svg PUBLIC "-//W3C//DTD SVG 1.1//EN"
 "http://www.w3.org/Graphics/SVG/1.1/DTD/svg11.dtd">
<!-- Generated by graphviz version 3.0.0 (20220226.1711)
 -->
<!-- Title: dependencies Pages: 1 -->
<svg width="896pt" height="174pt"
 viewBox="0.00 0.00 896.00 173.80" xmlns="http://www.w3.org/2000/svg" xmlns:xlink="http://www.w3.org/1999/xlink">
<g id="graph0" class="graph" transform="scale(1 1) rotate(0) translate(4 169.8)">
<title>dependencies</title>
<polygon fill="white" stroke="transparent" points="-4,4 -4,-169.8 892,-169.8 892,4 -4,4"/>
<text text-anchor="middle" x="444" y="-8.2" font-family="sans-serif" font-size="14.00">dependencies</text>
<g id="clust1" class="cluster">
<title>cluster_ChannelsModule</title>
<polygon fill="none" stroke="black" stroke-dasharray="1,5" points="8,-32.8 8,-157.8 880,-157.8 880,-32.8 8,-32.8"/>
</g>
<g id="clust6" class="cluster">
<title>cluster_ChannelsModule_imports</title>
<polygon fill="none" stroke="black" points="586,-40.8 586,-92.8 872,-92.8 872,-40.8 586,-40.8"/>
</g>
<g id="clust2" class="cluster">
<title>cluster_ChannelsModule_declarations</title>
<polygon fill="none" stroke="black" points="16,-40.8 16,-92.8 578,-92.8 578,-40.8 16,-40.8"/>
</g>
<!-- AddChannelModalComponent -->
<g id="node1" class="node">
<title>AddChannelModalComponent</title>
<polygon fill="#ffffb3" stroke="black" points="570.15,-84.8 381.85,-84.8 381.85,-48.8 570.15,-48.8 570.15,-84.8"/>
<text text-anchor="middle" x="476" y="-62.6" font-family="Times,serif" font-size="14.00">AddChannelModalComponent</text>
</g>
<!-- ChannelsModule -->
<g id="node4" class="node">
<title>ChannelsModule</title>
<polygon fill="#8dd3c7" stroke="black" points="531.66,-149.8 528.66,-153.8 507.66,-153.8 504.66,-149.8 420.34,-149.8 420.34,-113.8 531.66,-113.8 531.66,-149.8"/>
<text text-anchor="middle" x="476" y="-127.6" font-family="Times,serif" font-size="14.00">ChannelsModule</text>
</g>
<!-- AddChannelModalComponent&#45;&gt;ChannelsModule -->
<g id="edge1" class="edge">
<title>AddChannelModalComponent&#45;&gt;ChannelsModule</title>
<path fill="none" stroke="black" d="M476,-84.91C476,-84.91 476,-103.79 476,-103.79"/>
<polygon fill="black" stroke="black" points="472.5,-103.79 476,-113.79 479.5,-103.79 472.5,-103.79"/>
</g>
<!-- ChannelsComponent -->
<g id="node2" class="node">
<title>ChannelsComponent</title>
<polygon fill="#ffffb3" stroke="black" points="363.94,-84.8 230.06,-84.8 230.06,-48.8 363.94,-48.8 363.94,-84.8"/>
<text text-anchor="middle" x="297" y="-62.6" font-family="Times,serif" font-size="14.00">ChannelsComponent</text>
</g>
<!-- ChannelsComponent&#45;&gt;ChannelsModule -->
<g id="edge2" class="edge">
<title>ChannelsComponent&#45;&gt;ChannelsModule</title>
<path fill="none" stroke="black" d="M297,-84.82C297,-102.17 297,-125.8 297,-125.8 297,-125.8 409.85,-125.8 409.85,-125.8"/>
<polygon fill="black" stroke="black" points="409.85,-129.3 419.85,-125.8 409.85,-122.3 409.85,-129.3"/>
</g>
<!-- EditChannelModalComponent -->
<g id="node3" class="node">
<title>EditChannelModalComponent</title>
<polygon fill="#ffffb3" stroke="black" points="211.87,-84.8 24.13,-84.8 24.13,-48.8 211.87,-48.8 211.87,-84.8"/>
<text text-anchor="middle" x="118" y="-62.6" font-family="Times,serif" font-size="14.00">EditChannelModalComponent</text>
</g>
<!-- EditChannelModalComponent&#45;&gt;ChannelsModule -->
<g id="edge3" class="edge">
<title>EditChannelModalComponent&#45;&gt;ChannelsModule</title>
<path fill="none" stroke="black" d="M118,-85.08C118,-106.12 118,-137.8 118,-137.8 118,-137.8 410.06,-137.8 410.06,-137.8"/>
<polygon fill="black" stroke="black" points="410.06,-141.3 420.06,-137.8 410.06,-134.3 410.06,-141.3"/>
</g>
<!-- ChannelsRoutingModule -->
<g id="node5" class="node">
<title>ChannelsRoutingModule</title>
<polygon fill="#8dd3c7" stroke="black" points="864.27,-84.8 861.27,-88.8 840.27,-88.8 837.27,-84.8 707.73,-84.8 707.73,-48.8 864.27,-48.8 864.27,-84.8"/>
<text text-anchor="middle" x="786" y="-62.6" font-family="Times,serif" font-size="14.00">ChannelsRoutingModule</text>
</g>
<!-- ChannelsRoutingModule&#45;&gt;ChannelsModule -->
<g id="edge4" class="edge">
<title>ChannelsRoutingModule&#45;&gt;ChannelsModule</title>
<path fill="none" stroke="black" d="M786,-85.08C786,-106.12 786,-137.8 786,-137.8 786,-137.8 541.78,-137.8 541.78,-137.8"/>
<polygon fill="black" stroke="black" points="541.78,-134.3 531.78,-137.8 541.78,-141.3 541.78,-134.3"/>
</g>
<!-- FormsModule -->
<g id="node6" class="node">
<title>FormsModule</title>
<polygon fill="#8dd3c7" stroke="black" points="689.84,-84.8 686.84,-88.8 665.84,-88.8 662.84,-84.8 594.16,-84.8 594.16,-48.8 689.84,-48.8 689.84,-84.8"/>
<text text-anchor="middle" x="642" y="-62.6" font-family="Times,serif" font-size="14.00">FormsModule</text>
</g>
<!-- FormsModule&#45;&gt;ChannelsModule -->
<g id="edge5" class="edge">
<title>FormsModule&#45;&gt;ChannelsModule</title>
<path fill="none" stroke="black" d="M642,-84.82C642,-102.17 642,-125.8 642,-125.8 642,-125.8 541.74,-125.8 541.74,-125.8"/>
<polygon fill="black" stroke="black" points="541.74,-122.3 531.74,-125.8 541.74,-129.3 541.74,-122.3"/>
</g>
</g>
</svg>
