<?xml version="1.0" encoding="UTF-8" standalone="no"?>
<!DOCTYPE svg PUBLIC "-//W3C//DTD SVG 1.1//EN"
 "http://www.w3.org/Graphics/SVG/1.1/DTD/svg11.dtd">
<!-- Generated by graphviz version 3.0.0 (20220226.1711)
 -->
<!-- Title: dependencies Pages: 1 -->
<svg width="896pt" height="174pt"
 viewBox="0.00 0.00 896.00 173.80" xmlns="http://www.w3.org/2000/svg" xmlns:xlink="http://www.w3.org/1999/xlink">
<g id="graph0" class="graph" transform="scale(1 1) rotate(0) translate(4 169.8)">
<title>dependencies</title>
<polygon fill="white" stroke="transparent" points="-4,4 -4,-169.8 892,-169.8 892,4 -4,4"/>
<text text-anchor="middle" x="444" y="-8.2" font-family="sans-serif" font-size="14.00">dependencies</text>
<g id="clust1" class="cluster">
<title>cluster_ChannelsModule</title>
<polygon fill="none" stroke="black" stroke-dasharray="1,5" points="8,-32.8 8,-157.8 880,-157.8 880,-32.8 8,-32.8"/>
</g>
<g id="clust2" class="cluster">
<title>cluster_ChannelsModule_declarations</title>
<polygon fill="none" stroke="black" points="310,-40.8 310,-92.8 872,-92.8 872,-40.8 310,-40.8"/>
</g>
<g id="clust6" class="cluster">
<title>cluster_ChannelsModule_imports</title>
<polygon fill="none" stroke="black" points="16,-40.8 16,-92.8 302,-92.8 302,-40.8 16,-40.8"/>
</g>
<!-- AddChannelModalComponent -->
<g id="node1" class="node">
<title>AddChannelModalComponent</title>
<polygon fill="#ffffb3" stroke="black" points="864.15,-84.8 675.85,-84.8 675.85,-48.8 864.15,-48.8 864.15,-84.8"/>
<text text-anchor="middle" x="770" y="-62.6" font-family="Times,serif" font-size="14.00">AddChannelModalComponent</text>
</g>
<!-- ChannelsModule -->
<g id="node4" class="node">
<title>ChannelsModule</title>
<polygon fill="#8dd3c7" stroke="black" points="467.66,-149.8 464.66,-153.8 443.66,-153.8 440.66,-149.8 356.34,-149.8 356.34,-113.8 467.66,-113.8 467.66,-149.8"/>
<text text-anchor="middle" x="412" y="-127.6" font-family="Times,serif" font-size="14.00">ChannelsModule</text>
</g>
<!-- AddChannelModalComponent&#45;&gt;ChannelsModule -->
<g id="edge1" class="edge">
<title>AddChannelModalComponent&#45;&gt;ChannelsModule</title>
<path fill="none" stroke="black" d="M770,-85.08C770,-106.12 770,-137.8 770,-137.8 770,-137.8 477.94,-137.8 477.94,-137.8"/>
<polygon fill="black" stroke="black" points="477.94,-134.3 467.94,-137.8 477.94,-141.3 477.94,-134.3"/>
</g>
<!-- ChannelsComponent -->
<g id="node2" class="node">
<title>ChannelsComponent</title>
<polygon fill="#ffffb3" stroke="black" points="657.94,-84.8 524.06,-84.8 524.06,-48.8 657.94,-48.8 657.94,-84.8"/>
<text text-anchor="middle" x="591" y="-62.6" font-family="Times,serif" font-size="14.00">ChannelsComponent</text>
</g>
<!-- ChannelsComponent&#45;&gt;ChannelsModule -->
<g id="edge2" class="edge">
<title>ChannelsComponent&#45;&gt;ChannelsModule</title>
<path fill="none" stroke="black" d="M591,-84.82C591,-102.17 591,-125.8 591,-125.8 591,-125.8 478.15,-125.8 478.15,-125.8"/>
<polygon fill="black" stroke="black" points="478.15,-122.3 468.15,-125.8 478.15,-129.3 478.15,-122.3"/>
</g>
<!-- EditChannelModalComponent -->
<g id="node3" class="node">
<title>EditChannelModalComponent</title>
<polygon fill="#ffffb3" stroke="black" points="505.87,-84.8 318.13,-84.8 318.13,-48.8 505.87,-48.8 505.87,-84.8"/>
<text text-anchor="middle" x="412" y="-62.6" font-family="Times,serif" font-size="14.00">EditChannelModalComponent</text>
</g>
<!-- EditChannelModalComponent&#45;&gt;ChannelsModule -->
<g id="edge3" class="edge">
<title>EditChannelModalComponent&#45;&gt;ChannelsModule</title>
<path fill="none" stroke="black" d="M412,-84.91C412,-84.91 412,-103.79 412,-103.79"/>
<polygon fill="black" stroke="black" points="408.5,-103.79 412,-113.79 415.5,-103.79 408.5,-103.79"/>
</g>
<!-- ChannelsRoutingModule -->
<g id="node5" class="node">
<title>ChannelsRoutingModule</title>
<polygon fill="#8dd3c7" stroke="black" points="294.27,-84.8 291.27,-88.8 270.27,-88.8 267.27,-84.8 137.73,-84.8 137.73,-48.8 294.27,-48.8 294.27,-84.8"/>
<text text-anchor="middle" x="216" y="-62.6" font-family="Times,serif" font-size="14.00">ChannelsRoutingModule</text>
</g>
<!-- ChannelsRoutingModule&#45;&gt;ChannelsModule -->
<g id="edge4" class="edge">
<title>ChannelsRoutingModule&#45;&gt;ChannelsModule</title>
<path fill="none" stroke="black" d="M216,-84.82C216,-102.17 216,-125.8 216,-125.8 216,-125.8 346.1,-125.8 346.1,-125.8"/>
<polygon fill="black" stroke="black" points="346.1,-129.3 356.1,-125.8 346.1,-122.3 346.1,-129.3"/>
</g>
<!-- FormsModule -->
<g id="node6" class="node">
<title>FormsModule</title>
<polygon fill="#8dd3c7" stroke="black" points="119.84,-84.8 116.84,-88.8 95.84,-88.8 92.84,-84.8 24.16,-84.8 24.16,-48.8 119.84,-48.8 119.84,-84.8"/>
<text text-anchor="middle" x="72" y="-62.6" font-family="Times,serif" font-size="14.00">FormsModule</text>
</g>
<!-- FormsModule&#45;&gt;ChannelsModule -->
<g id="edge5" class="edge">
<title>FormsModule&#45;&gt;ChannelsModule</title>
<path fill="none" stroke="black" d="M72,-85.08C72,-106.12 72,-137.8 72,-137.8 72,-137.8 346.24,-137.8 346.24,-137.8"/>
<polygon fill="black" stroke="black" points="346.24,-141.3 356.24,-137.8 346.24,-134.3 346.24,-141.3"/>
</g>
</g>
</svg>
