<?xml version="1.0" encoding="UTF-8" standalone="no"?>
<!DOCTYPE svg PUBLIC "-//W3C//DTD SVG 1.1//EN"
 "http://www.w3.org/Graphics/SVG/1.1/DTD/svg11.dtd">
<!-- Generated by graphviz version 3.0.0 (20220226.1711)
 -->
<!-- Title: dependencies Pages: 1 -->
<svg width="350pt" height="247pt"
 viewBox="0.00 0.00 350.00 246.80" xmlns="http://www.w3.org/2000/svg" xmlns:xlink="http://www.w3.org/1999/xlink">
<g id="graph0" class="graph" transform="scale(1 1) rotate(0) translate(4 242.8)">
<title>dependencies</title>
<polygon fill="white" stroke="transparent" points="-4,4 -4,-242.8 346,-242.8 346,4 -4,4"/>
<text text-anchor="middle" x="171" y="-8.2" font-family="sans-serif" font-size="14.00">dependencies</text>
<g id="clust1" class="cluster">
<title>cluster_UserDetailsModule</title>
<polygon fill="none" stroke="black" stroke-dasharray="1,5" points="8,-32.8 8,-230.8 334,-230.8 334,-32.8 8,-32.8"/>
</g>
<g id="clust5" class="cluster">
<title>cluster_UserDetailsModule_exports</title>
<polygon fill="none" stroke="black" points="88,-170.8 88,-222.8 254,-222.8 254,-170.8 88,-170.8"/>
</g>
<g id="clust4" class="cluster">
<title>cluster_UserDetailsModule_imports</title>
<polygon fill="none" stroke="black" points="188,-40.8 188,-92.8 326,-92.8 326,-40.8 188,-40.8"/>
</g>
<g id="clust2" class="cluster">
<title>cluster_UserDetailsModule_declarations</title>
<polygon fill="none" stroke="black" points="16,-40.8 16,-92.8 180,-92.8 180,-40.8 16,-40.8"/>
</g>
<!-- UserDetailsComponent -->
<g id="node1" class="node">
<title>UserDetailsComponent</title>
<polygon fill="#ffffb3" stroke="black" points="171.92,-84.8 24.08,-84.8 24.08,-48.8 171.92,-48.8 171.92,-84.8"/>
<text text-anchor="middle" x="98" y="-62.6" font-family="Times,serif" font-size="14.00">UserDetailsComponent</text>
</g>
<!-- UserDetailsModule -->
<g id="node2" class="node">
<title>UserDetailsModule</title>
<polygon fill="#8dd3c7" stroke="black" points="233.64,-149.8 230.64,-153.8 209.64,-153.8 206.64,-149.8 108.36,-149.8 108.36,-113.8 233.64,-113.8 233.64,-149.8"/>
<text text-anchor="middle" x="171" y="-127.6" font-family="Times,serif" font-size="14.00">UserDetailsModule</text>
</g>
<!-- UserDetailsComponent&#45;&gt;UserDetailsModule -->
<g id="edge1" class="edge">
<title>UserDetailsComponent&#45;&gt;UserDetailsModule</title>
<path fill="none" stroke="black" d="M139.94,-84.91C139.94,-84.91 139.94,-103.79 139.94,-103.79"/>
<polygon fill="black" stroke="black" points="136.44,-103.79 139.94,-113.79 143.44,-103.79 136.44,-103.79"/>
</g>
<!-- UserDetailsComponent  -->
<g id="node4" class="node">
<title>UserDetailsComponent </title>
<polygon fill="#fb8072" stroke="black" points="246.42,-214.8 95.58,-214.8 95.58,-178.8 246.42,-178.8 246.42,-214.8"/>
<text text-anchor="middle" x="171" y="-192.6" font-family="Times,serif" font-size="14.00">UserDetailsComponent </text>
</g>
<!-- UserDetailsModule&#45;&gt;UserDetailsComponent  -->
<g id="edge3" class="edge">
<title>UserDetailsModule&#45;&gt;UserDetailsComponent </title>
<path fill="none" stroke="black" stroke-dasharray="5,2" d="M171,-149.91C171,-149.91 171,-168.79 171,-168.79"/>
<polygon fill="black" stroke="black" points="167.5,-168.79 171,-178.79 174.5,-168.79 167.5,-168.79"/>
</g>
<!-- SafeButtonModule -->
<g id="node3" class="node">
<title>SafeButtonModule</title>
<polygon fill="#8dd3c7" stroke="black" points="318.05,-84.8 315.05,-88.8 294.05,-88.8 291.05,-84.8 195.95,-84.8 195.95,-48.8 318.05,-48.8 318.05,-84.8"/>
<text text-anchor="middle" x="257" y="-62.6" font-family="Times,serif" font-size="14.00">SafeButtonModule</text>
</g>
<!-- SafeButtonModule&#45;&gt;UserDetailsModule -->
<g id="edge2" class="edge">
<title>SafeButtonModule&#45;&gt;UserDetailsModule</title>
<path fill="none" stroke="black" d="M214.77,-84.91C214.77,-84.91 214.77,-103.79 214.77,-103.79"/>
<polygon fill="black" stroke="black" points="211.27,-103.79 214.77,-113.79 218.27,-103.79 211.27,-103.79"/>
</g>
</g>
</svg>
