<?xml version="1.0" encoding="UTF-8" standalone="no"?>
<!DOCTYPE svg PUBLIC "-//W3C//DTD SVG 1.1//EN"
 "http://www.w3.org/Graphics/SVG/1.1/DTD/svg11.dtd">
<!-- Generated by graphviz version 3.0.0 (20220226.1711)
 -->
<!-- Title: dependencies Pages: 1 -->
<svg width="446pt" height="247pt"
 viewBox="0.00 0.00 446.00 246.80" xmlns="http://www.w3.org/2000/svg" xmlns:xlink="http://www.w3.org/1999/xlink">
<g id="graph0" class="graph" transform="scale(1 1) rotate(0) translate(4 242.8)">
<title>dependencies</title>
<polygon fill="white" stroke="transparent" points="-4,4 -4,-242.8 442,-242.8 442,4 -4,4"/>
<text text-anchor="middle" x="219" y="-8.2" font-family="sans-serif" font-size="14.00">dependencies</text>
<g id="clust1" class="cluster">
<title>cluster_WorkflowModule</title>
<polygon fill="none" stroke="black" stroke-dasharray="1,5" points="8,-32.8 8,-230.8 430,-230.8 430,-32.8 8,-32.8"/>
</g>
<g id="clust5" class="cluster">
<title>cluster_WorkflowModule_exports</title>
<polygon fill="none" stroke="black" points="152,-170.8 152,-222.8 310,-222.8 310,-170.8 152,-170.8"/>
</g>
<g id="clust4" class="cluster">
<title>cluster_WorkflowModule_imports</title>
<polygon fill="none" stroke="black" points="178,-40.8 178,-92.8 422,-92.8 422,-40.8 178,-40.8"/>
</g>
<g id="clust2" class="cluster">
<title>cluster_WorkflowModule_declarations</title>
<polygon fill="none" stroke="black" points="16,-40.8 16,-92.8 170,-92.8 170,-40.8 16,-40.8"/>
</g>
<!-- WorkflowComponent -->
<g id="node1" class="node">
<title>WorkflowComponent</title>
<polygon fill="#ffffb3" stroke="black" points="162.37,-84.8 23.63,-84.8 23.63,-48.8 162.37,-48.8 162.37,-84.8"/>
<text text-anchor="middle" x="93" y="-62.6" font-family="Times,serif" font-size="14.00">WorkflowComponent</text>
</g>
<!-- WorkflowModule -->
<g id="node2" class="node">
<title>WorkflowModule</title>
<polygon fill="#8dd3c7" stroke="black" points="289.59,-149.8 286.59,-153.8 265.59,-153.8 262.59,-149.8 172.41,-149.8 172.41,-113.8 289.59,-113.8 289.59,-149.8"/>
<text text-anchor="middle" x="231" y="-127.6" font-family="Times,serif" font-size="14.00">WorkflowModule</text>
</g>
<!-- WorkflowComponent&#45;&gt;WorkflowModule -->
<g id="edge1" class="edge">
<title>WorkflowComponent&#45;&gt;WorkflowModule</title>
<path fill="none" stroke="black" d="M162.62,-66.8C172.43,-66.8 179.26,-66.8 179.26,-66.8 179.26,-66.8 179.26,-103.69 179.26,-103.69"/>
<polygon fill="black" stroke="black" points="175.76,-103.69 179.26,-113.69 182.76,-103.69 175.76,-103.69"/>
</g>
<!-- WorkflowComponent  -->
<g id="node5" class="node">
<title>WorkflowComponent </title>
<polygon fill="#fb8072" stroke="black" points="302.37,-214.8 159.63,-214.8 159.63,-178.8 302.37,-178.8 302.37,-214.8"/>
<text text-anchor="middle" x="231" y="-192.6" font-family="Times,serif" font-size="14.00">WorkflowComponent </text>
</g>
<!-- WorkflowModule&#45;&gt;WorkflowComponent  -->
<g id="edge4" class="edge">
<title>WorkflowModule&#45;&gt;WorkflowComponent </title>
<path fill="none" stroke="black" stroke-dasharray="5,2" d="M231,-149.91C231,-149.91 231,-168.79 231,-168.79"/>
<polygon fill="black" stroke="black" points="227.5,-168.79 231,-178.79 234.5,-168.79 227.5,-168.79"/>
</g>
<!-- DashboardModule -->
<g id="node3" class="node">
<title>DashboardModule</title>
<polygon fill="#8dd3c7" stroke="black" points="414.2,-84.8 411.2,-88.8 390.2,-88.8 387.2,-84.8 293.8,-84.8 293.8,-48.8 414.2,-48.8 414.2,-84.8"/>
<text text-anchor="middle" x="354" y="-62.6" font-family="Times,serif" font-size="14.00">DashboardModule</text>
</g>
<!-- DashboardModule&#45;&gt;WorkflowModule -->
<g id="edge2" class="edge">
<title>DashboardModule&#45;&gt;WorkflowModule</title>
<path fill="none" stroke="black" d="M298.04,-84.91C298.04,-104.14 298.04,-131.8 298.04,-131.8 298.04,-131.8 297.19,-131.8 297.19,-131.8"/>
<polygon fill="black" stroke="black" points="299.55,-128.3 289.55,-131.8 299.55,-135.3 299.55,-128.3"/>
</g>
<!-- FormModule -->
<g id="node4" class="node">
<title>FormModule</title>
<polygon fill="#8dd3c7" stroke="black" points="275.89,-84.8 272.89,-88.8 251.89,-88.8 248.89,-84.8 186.11,-84.8 186.11,-48.8 275.89,-48.8 275.89,-84.8"/>
<text text-anchor="middle" x="231" y="-62.6" font-family="Times,serif" font-size="14.00">FormModule</text>
</g>
<!-- FormModule&#45;&gt;WorkflowModule -->
<g id="edge3" class="edge">
<title>FormModule&#45;&gt;WorkflowModule</title>
<path fill="none" stroke="black" d="M231,-84.91C231,-84.91 231,-103.79 231,-103.79"/>
<polygon fill="black" stroke="black" points="227.5,-103.79 231,-113.79 234.5,-103.79 227.5,-103.79"/>
</g>
</g>
</svg>
