<?xml version="1.0" encoding="UTF-8" standalone="no"?>
<!DOCTYPE svg PUBLIC "-//W3C//DTD SVG 1.1//EN"
 "http://www.w3.org/Graphics/SVG/1.1/DTD/svg11.dtd">
<!-- Generated by graphviz version 3.0.0 (20220226.1711)
 -->
<!-- Title: dependencies Pages: 1 -->
<svg width="815pt" height="247pt"
 viewBox="0.00 0.00 815.00 246.80" xmlns="http://www.w3.org/2000/svg" xmlns:xlink="http://www.w3.org/1999/xlink">
<g id="graph0" class="graph" transform="scale(1 1) rotate(0) translate(4 242.8)">
<title>dependencies</title>
<polygon fill="white" stroke="transparent" points="-4,4 -4,-242.8 811,-242.8 811,4 -4,4"/>
<text text-anchor="middle" x="403.5" y="-8.2" font-family="sans-serif" font-size="14.00">dependencies</text>
<g id="clust1" class="cluster">
<title>cluster_SafeMapSettingsModule</title>
<polygon fill="none" stroke="black" stroke-dasharray="1,5" points="8,-32.8 8,-230.8 799,-230.8 799,-32.8 8,-32.8"/>
</g>
<g id="clust5" class="cluster">
<title>cluster_SafeMapSettingsModule_exports</title>
<polygon fill="none" stroke="black" points="325,-170.8 325,-222.8 521,-222.8 521,-170.8 325,-170.8"/>
</g>
<g id="clust4" class="cluster">
<title>cluster_SafeMapSettingsModule_imports</title>
<polygon fill="none" stroke="black" points="216,-40.8 216,-92.8 791,-92.8 791,-40.8 216,-40.8"/>
</g>
<g id="clust2" class="cluster">
<title>cluster_SafeMapSettingsModule_declarations</title>
<polygon fill="none" stroke="black" points="16,-40.8 16,-92.8 208,-92.8 208,-40.8 16,-40.8"/>
</g>
<!-- SafeMapSettingsComponent -->
<g id="node1" class="node">
<title>SafeMapSettingsComponent</title>
<polygon fill="#ffffb3" stroke="black" points="200.49,-84.8 23.51,-84.8 23.51,-48.8 200.49,-48.8 200.49,-84.8"/>
<text text-anchor="middle" x="112" y="-62.6" font-family="Times,serif" font-size="14.00">SafeMapSettingsComponent</text>
</g>
<!-- SafeMapSettingsModule -->
<g id="node2" class="node">
<title>SafeMapSettingsModule</title>
<polygon fill="#8dd3c7" stroke="black" points="500.71,-149.8 497.71,-153.8 476.71,-153.8 473.71,-149.8 345.29,-149.8 345.29,-113.8 500.71,-113.8 500.71,-149.8"/>
<text text-anchor="middle" x="423" y="-127.6" font-family="Times,serif" font-size="14.00">SafeMapSettingsModule</text>
</g>
<!-- SafeMapSettingsComponent&#45;&gt;SafeMapSettingsModule -->
<g id="edge1" class="edge">
<title>SafeMapSettingsComponent&#45;&gt;SafeMapSettingsModule</title>
<path fill="none" stroke="black" d="M112,-85.08C112,-106.12 112,-137.8 112,-137.8 112,-137.8 335.32,-137.8 335.32,-137.8"/>
<polygon fill="black" stroke="black" points="335.32,-141.3 345.32,-137.8 335.32,-134.3 335.32,-141.3"/>
</g>
<!-- SafeMapSettingsComponent  -->
<g id="node7" class="node">
<title>SafeMapSettingsComponent </title>
<polygon fill="#fb8072" stroke="black" points="513.49,-214.8 332.51,-214.8 332.51,-178.8 513.49,-178.8 513.49,-214.8"/>
<text text-anchor="middle" x="423" y="-192.6" font-family="Times,serif" font-size="14.00">SafeMapSettingsComponent </text>
</g>
<!-- SafeMapSettingsModule&#45;&gt;SafeMapSettingsComponent  -->
<g id="edge6" class="edge">
<title>SafeMapSettingsModule&#45;&gt;SafeMapSettingsComponent </title>
<path fill="none" stroke="black" stroke-dasharray="5,2" d="M423,-149.91C423,-149.91 423,-168.79 423,-168.79"/>
<polygon fill="black" stroke="black" points="419.5,-168.79 423,-178.79 426.5,-168.79 419.5,-168.79"/>
</g>
<!-- MapGeneralModule -->
<g id="node3" class="node">
<title>MapGeneralModule</title>
<polygon fill="#8dd3c7" stroke="black" points="782.52,-84.8 779.52,-88.8 758.52,-88.8 755.52,-84.8 653.48,-84.8 653.48,-48.8 782.52,-48.8 782.52,-84.8"/>
<text text-anchor="middle" x="718" y="-62.6" font-family="Times,serif" font-size="14.00">MapGeneralModule</text>
</g>
<!-- MapGeneralModule&#45;&gt;SafeMapSettingsModule -->
<g id="edge2" class="edge">
<title>MapGeneralModule&#45;&gt;SafeMapSettingsModule</title>
<path fill="none" stroke="black" d="M718,-85.08C718,-106.12 718,-137.8 718,-137.8 718,-137.8 510.89,-137.8 510.89,-137.8"/>
<polygon fill="black" stroke="black" points="510.89,-134.3 500.89,-137.8 510.89,-141.3 510.89,-134.3"/>
</g>
<!-- MapLayersModule -->
<g id="node4" class="node">
<title>MapLayersModule</title>
<polygon fill="#8dd3c7" stroke="black" points="635.8,-84.8 632.8,-88.8 611.8,-88.8 608.8,-84.8 512.2,-84.8 512.2,-48.8 635.8,-48.8 635.8,-84.8"/>
<text text-anchor="middle" x="574" y="-62.6" font-family="Times,serif" font-size="14.00">MapLayersModule</text>
</g>
<!-- MapLayersModule&#45;&gt;SafeMapSettingsModule -->
<g id="edge3" class="edge">
<title>MapLayersModule&#45;&gt;SafeMapSettingsModule</title>
<path fill="none" stroke="black" d="M574.45,-84.82C574.45,-102.17 574.45,-125.8 574.45,-125.8 574.45,-125.8 510.94,-125.8 510.94,-125.8"/>
<polygon fill="black" stroke="black" points="510.94,-122.3 500.94,-125.8 510.94,-129.3 510.94,-122.3"/>
</g>
<!-- MapPropertiesModule -->
<g id="node5" class="node">
<title>MapPropertiesModule</title>
<polygon fill="#8dd3c7" stroke="black" points="493.98,-84.8 490.98,-88.8 469.98,-88.8 466.98,-84.8 352.02,-84.8 352.02,-48.8 493.98,-48.8 493.98,-84.8"/>
<text text-anchor="middle" x="423" y="-62.6" font-family="Times,serif" font-size="14.00">MapPropertiesModule</text>
</g>
<!-- MapPropertiesModule&#45;&gt;SafeMapSettingsModule -->
<g id="edge4" class="edge">
<title>MapPropertiesModule&#45;&gt;SafeMapSettingsModule</title>
<path fill="none" stroke="black" d="M423,-84.91C423,-84.91 423,-103.79 423,-103.79"/>
<polygon fill="black" stroke="black" points="419.5,-103.79 423,-113.79 426.5,-103.79 419.5,-103.79"/>
</g>
<!-- SafeIconModule -->
<g id="node6" class="node">
<title>SafeIconModule</title>
<polygon fill="#8dd3c7" stroke="black" points="333.8,-84.8 330.8,-88.8 309.8,-88.8 306.8,-84.8 224.2,-84.8 224.2,-48.8 333.8,-48.8 333.8,-84.8"/>
<text text-anchor="middle" x="279" y="-62.6" font-family="Times,serif" font-size="14.00">SafeIconModule</text>
</g>
<!-- SafeIconModule&#45;&gt;SafeMapSettingsModule -->
<g id="edge5" class="edge">
<title>SafeIconModule&#45;&gt;SafeMapSettingsModule</title>
<path fill="none" stroke="black" d="M278.55,-84.82C278.55,-102.17 278.55,-125.8 278.55,-125.8 278.55,-125.8 335.28,-125.8 335.28,-125.8"/>
<polygon fill="black" stroke="black" points="335.28,-129.3 345.28,-125.8 335.28,-122.3 335.28,-129.3"/>
</g>
</g>
</svg>
