<?xml version="1.0" encoding="UTF-8" standalone="no"?>
<!DOCTYPE svg PUBLIC "-//W3C//DTD SVG 1.1//EN"
 "http://www.w3.org/Graphics/SVG/1.1/DTD/svg11.dtd">
<!-- Generated by graphviz version 3.0.0 (20220226.1711)
 -->
<!-- Title: dependencies Pages: 1 -->
<svg width="815pt" height="247pt"
 viewBox="0.00 0.00 815.00 246.80" xmlns="http://www.w3.org/2000/svg" xmlns:xlink="http://www.w3.org/1999/xlink">
<g id="graph0" class="graph" transform="scale(1 1) rotate(0) translate(4 242.8)">
<title>dependencies</title>
<polygon fill="white" stroke="transparent" points="-4,4 -4,-242.8 811,-242.8 811,4 -4,4"/>
<text text-anchor="middle" x="403.5" y="-8.2" font-family="sans-serif" font-size="14.00">dependencies</text>
<g id="clust1" class="cluster">
<title>cluster_SafeMapSettingsModule</title>
<polygon fill="none" stroke="black" stroke-dasharray="1,5" points="8,-32.8 8,-230.8 799,-230.8 799,-32.8 8,-32.8"/>
</g>
<g id="clust5" class="cluster">
<title>cluster_SafeMapSettingsModule_exports</title>
<polygon fill="none" stroke="black" points="276,-170.8 276,-222.8 472,-222.8 472,-170.8 276,-170.8"/>
</g>
<g id="clust2" class="cluster">
<title>cluster_SafeMapSettingsModule_declarations</title>
<polygon fill="none" stroke="black" points="599,-40.8 599,-92.8 791,-92.8 791,-40.8 599,-40.8"/>
</g>
<g id="clust4" class="cluster">
<title>cluster_SafeMapSettingsModule_imports</title>
<polygon fill="none" stroke="black" points="16,-40.8 16,-92.8 591,-92.8 591,-40.8 16,-40.8"/>
</g>
<!-- SafeMapSettingsComponent -->
<g id="node1" class="node">
<title>SafeMapSettingsComponent</title>
<polygon fill="#ffffb3" stroke="black" points="783.49,-84.8 606.51,-84.8 606.51,-48.8 783.49,-48.8 783.49,-84.8"/>
<text text-anchor="middle" x="695" y="-62.6" font-family="Times,serif" font-size="14.00">SafeMapSettingsComponent</text>
</g>
<!-- SafeMapSettingsModule -->
<g id="node2" class="node">
<title>SafeMapSettingsModule</title>
<polygon fill="#8dd3c7" stroke="black" points="451.71,-149.8 448.71,-153.8 427.71,-153.8 424.71,-149.8 296.29,-149.8 296.29,-113.8 451.71,-113.8 451.71,-149.8"/>
<text text-anchor="middle" x="374" y="-127.6" font-family="Times,serif" font-size="14.00">SafeMapSettingsModule</text>
</g>
<!-- SafeMapSettingsComponent&#45;&gt;SafeMapSettingsModule -->
<g id="edge1" class="edge">
<title>SafeMapSettingsComponent&#45;&gt;SafeMapSettingsModule</title>
<path fill="none" stroke="black" d="M695,-85.08C695,-106.12 695,-137.8 695,-137.8 695,-137.8 461.71,-137.8 461.71,-137.8"/>
<polygon fill="black" stroke="black" points="461.71,-134.3 451.71,-137.8 461.71,-141.3 461.71,-134.3"/>
</g>
<!-- SafeMapSettingsComponent  -->
<g id="node7" class="node">
<title>SafeMapSettingsComponent </title>
<polygon fill="#fb8072" stroke="black" points="464.49,-214.8 283.51,-214.8 283.51,-178.8 464.49,-178.8 464.49,-214.8"/>
<text text-anchor="middle" x="374" y="-192.6" font-family="Times,serif" font-size="14.00">SafeMapSettingsComponent </text>
</g>
<!-- SafeMapSettingsModule&#45;&gt;SafeMapSettingsComponent  -->
<g id="edge6" class="edge">
<title>SafeMapSettingsModule&#45;&gt;SafeMapSettingsComponent </title>
<path fill="none" stroke="black" stroke-dasharray="5,2" d="M374,-149.91C374,-149.91 374,-168.79 374,-168.79"/>
<polygon fill="black" stroke="black" points="370.5,-168.79 374,-178.79 377.5,-168.79 370.5,-168.79"/>
</g>
<!-- MapGeneralModule -->
<g id="node3" class="node">
<title>MapGeneralModule</title>
<polygon fill="#8dd3c7" stroke="black" points="582.52,-84.8 579.52,-88.8 558.52,-88.8 555.52,-84.8 453.48,-84.8 453.48,-48.8 582.52,-48.8 582.52,-84.8"/>
<text text-anchor="middle" x="518" y="-62.6" font-family="Times,serif" font-size="14.00">MapGeneralModule</text>
</g>
<!-- MapGeneralModule&#45;&gt;SafeMapSettingsModule -->
<g id="edge2" class="edge">
<title>MapGeneralModule&#45;&gt;SafeMapSettingsModule</title>
<path fill="none" stroke="black" d="M458.74,-84.82C458.74,-102.17 458.74,-125.8 458.74,-125.8 458.74,-125.8 458.05,-125.8 458.05,-125.8"/>
<polygon fill="black" stroke="black" points="461.81,-122.3 451.81,-125.8 461.81,-129.3 461.81,-122.3"/>
</g>
<!-- MapLayersModule -->
<g id="node4" class="node">
<title>MapLayersModule</title>
<polygon fill="#8dd3c7" stroke="black" points="435.8,-84.8 432.8,-88.8 411.8,-88.8 408.8,-84.8 312.2,-84.8 312.2,-48.8 435.8,-48.8 435.8,-84.8"/>
<text text-anchor="middle" x="374" y="-62.6" font-family="Times,serif" font-size="14.00">MapLayersModule</text>
</g>
<!-- MapLayersModule&#45;&gt;SafeMapSettingsModule -->
<g id="edge3" class="edge">
<title>MapLayersModule&#45;&gt;SafeMapSettingsModule</title>
<path fill="none" stroke="black" d="M374,-84.91C374,-84.91 374,-103.79 374,-103.79"/>
<polygon fill="black" stroke="black" points="370.5,-103.79 374,-113.79 377.5,-103.79 370.5,-103.79"/>
</g>
<!-- MapPropertiesModule -->
<g id="node5" class="node">
<title>MapPropertiesModule</title>
<polygon fill="#8dd3c7" stroke="black" points="293.98,-84.8 290.98,-88.8 269.98,-88.8 266.98,-84.8 152.02,-84.8 152.02,-48.8 293.98,-48.8 293.98,-84.8"/>
<text text-anchor="middle" x="223" y="-62.6" font-family="Times,serif" font-size="14.00">MapPropertiesModule</text>
</g>
<!-- MapPropertiesModule&#45;&gt;SafeMapSettingsModule -->
<g id="edge4" class="edge">
<title>MapPropertiesModule&#45;&gt;SafeMapSettingsModule</title>
<path fill="none" stroke="black" d="M288.87,-84.82C288.87,-102.17 288.87,-125.8 288.87,-125.8 288.87,-125.8 289.6,-125.8 289.6,-125.8"/>
<polygon fill="black" stroke="black" points="286.13,-129.3 296.13,-125.8 286.13,-122.3 286.13,-129.3"/>
</g>
<!-- SafeIconModule -->
<g id="node6" class="node">
<title>SafeIconModule</title>
<polygon fill="#8dd3c7" stroke="black" points="133.8,-84.8 130.8,-88.8 109.8,-88.8 106.8,-84.8 24.2,-84.8 24.2,-48.8 133.8,-48.8 133.8,-84.8"/>
<text text-anchor="middle" x="79" y="-62.6" font-family="Times,serif" font-size="14.00">SafeIconModule</text>
</g>
<!-- SafeIconModule&#45;&gt;SafeMapSettingsModule -->
<g id="edge5" class="edge">
<title>SafeIconModule&#45;&gt;SafeMapSettingsModule</title>
<path fill="none" stroke="black" d="M79,-85.08C79,-106.12 79,-137.8 79,-137.8 79,-137.8 286.11,-137.8 286.11,-137.8"/>
<polygon fill="black" stroke="black" points="286.11,-141.3 296.11,-137.8 286.11,-134.3 286.11,-141.3"/>
</g>
</g>
</svg>
