<?xml version="1.0" encoding="UTF-8" standalone="no"?>
<!DOCTYPE svg PUBLIC "-//W3C//DTD SVG 1.1//EN"
 "http://www.w3.org/Graphics/SVG/1.1/DTD/svg11.dtd">
<!-- Generated by graphviz version 2.47.0 (20210316.0004)
 -->
<!-- Title: dependencies Pages: 1 -->
<svg width="504pt" height="284pt"
 viewBox="0.00 0.00 504.00 284.00" xmlns="http://www.w3.org/2000/svg" xmlns:xlink="http://www.w3.org/1999/xlink">
<g id="graph0" class="graph" transform="scale(1 1) rotate(0) translate(4 280)">
<title>dependencies</title>
<polygon fill="white" stroke="transparent" points="-4,4 -4,-280 500,-280 500,4 -4,4"/>
<text text-anchor="start" x="227.01" y="-42.4" font-family="sans-serif" font-weight="bold" font-size="14.00">Legend</text>
<polygon fill="#ffffb3" stroke="transparent" points="14,-10 14,-30 34,-30 34,-10 14,-10"/>
<text text-anchor="start" x="37.63" y="-15.4" font-family="sans-serif" font-size="14.00"> &#160;Declarations</text>
<polygon fill="#8dd3c7" stroke="transparent" points="127,-10 127,-30 147,-30 147,-10 127,-10"/>
<text text-anchor="start" x="150.73" y="-15.4" font-family="sans-serif" font-size="14.00"> &#160;Module</text>
<polygon fill="#80b1d3" stroke="transparent" points="213,-10 213,-30 233,-30 233,-10 213,-10"/>
<text text-anchor="start" x="236.78" y="-15.4" font-family="sans-serif" font-size="14.00"> &#160;Bootstrap</text>
<polygon fill="#fdb462" stroke="transparent" points="310,-10 310,-30 330,-30 330,-10 310,-10"/>
<text text-anchor="start" x="333.67" y="-15.4" font-family="sans-serif" font-size="14.00"> &#160;Providers</text>
<polygon fill="#fb8072" stroke="transparent" points="406,-10 406,-30 426,-30 426,-10 406,-10"/>
<text text-anchor="start" x="429.73" y="-15.4" font-family="sans-serif" font-size="14.00"> &#160;Exports</text>
<g id="clust1" class="cluster">
<title>cluster_SafeInviteUsersModule</title>
<polygon fill="none" stroke="black" stroke-dasharray="1,5" points="68,-70 68,-268 428,-268 428,-70 68,-70"/>
</g>
<g id="clust4" class="cluster">
<title>cluster_SafeInviteUsersModule_imports</title>
<polygon fill="none" stroke="black" points="270,-78 270,-130 420,-130 420,-78 270,-78"/>
</g>
<g id="clust2" class="cluster">
<title>cluster_SafeInviteUsersModule_declarations</title>
<polygon fill="none" stroke="black" points="76,-78 76,-130 262,-130 262,-78 76,-78"/>
</g>
<g id="clust5" class="cluster">
<title>cluster_SafeInviteUsersModule_exports</title>
<polygon fill="none" stroke="black" points="153,-208 153,-260 343,-260 343,-208 153,-208"/>
</g>
<!-- SafeInviteUsersComponent -->
<g id="node1" class="node">
<title>SafeInviteUsersComponent</title>
<polygon fill="#ffffb3" stroke="black" points="254.23,-122 83.77,-122 83.77,-86 254.23,-86 254.23,-122"/>
<text text-anchor="middle" x="169" y="-99.8" font-family="Times,serif" font-size="14.00">SafeInviteUsersComponent</text>
</g>
<!-- SafeInviteUsersModule -->
<g id="node2" class="node">
<title>SafeInviteUsersModule</title>
<polygon fill="#8dd3c7" stroke="black" points="322.45,-187 319.45,-191 298.45,-191 295.45,-187 173.55,-187 173.55,-151 322.45,-151 322.45,-187"/>
<text text-anchor="middle" x="248" y="-164.8" font-family="Times,serif" font-size="14.00">SafeInviteUsersModule</text>
</g>
<!-- SafeInviteUsersComponent&#45;&gt;SafeInviteUsersModule -->
<g id="edge1" class="edge">
<title>SafeInviteUsersComponent&#45;&gt;SafeInviteUsersModule</title>
<path fill="none" stroke="black" d="M213.95,-122.11C213.95,-122.11 213.95,-140.99 213.95,-140.99"/>
<polygon fill="black" stroke="black" points="210.45,-140.99 213.95,-150.99 217.45,-140.99 210.45,-140.99"/>
</g>
<!-- SafeInviteUsersComponent  -->
<g id="node4" class="node">
<title>SafeInviteUsersComponent </title>
<polygon fill="#fb8072" stroke="black" points="335.23,-252 160.77,-252 160.77,-216 335.23,-216 335.23,-252"/>
<text text-anchor="middle" x="248" y="-229.8" font-family="Times,serif" font-size="14.00">SafeInviteUsersComponent </text>
</g>
<!-- SafeInviteUsersModule&#45;&gt;SafeInviteUsersComponent  -->
<g id="edge3" class="edge">
<title>SafeInviteUsersModule&#45;&gt;SafeInviteUsersComponent </title>
<path fill="none" stroke="black" stroke-dasharray="5,2" d="M248,-187.11C248,-187.11 248,-205.99 248,-205.99"/>
<polygon fill="black" stroke="black" points="244.5,-205.99 248,-215.99 251.5,-205.99 244.5,-205.99"/>
</g>
<!-- SafeAddUserModule -->
<g id="node3" class="node">
<title>SafeAddUserModule</title>
<polygon fill="#8dd3c7" stroke="black" points="412.46,-122 409.46,-126 388.46,-126 385.46,-122 277.54,-122 277.54,-86 412.46,-86 412.46,-122"/>
<text text-anchor="middle" x="345" y="-99.8" font-family="Times,serif" font-size="14.00">SafeAddUserModule</text>
</g>
<!-- SafeAddUserModule&#45;&gt;SafeInviteUsersModule -->
<g id="edge2" class="edge">
<title>SafeAddUserModule&#45;&gt;SafeInviteUsersModule</title>
<path fill="none" stroke="black" d="M300,-122.11C300,-122.11 300,-140.99 300,-140.99"/>
<polygon fill="black" stroke="black" points="296.5,-140.99 300,-150.99 303.5,-140.99 296.5,-140.99"/>
</g>
</g>
</svg>
