<?xml version="1.0" encoding="UTF-8" standalone="no"?>
<!DOCTYPE svg PUBLIC "-//W3C//DTD SVG 1.1//EN"
 "http://www.w3.org/Graphics/SVG/1.1/DTD/svg11.dtd">
<!-- Generated by graphviz version 3.0.0 (20220226.1711)
 -->
<!-- Title: dependencies Pages: 1 -->
<svg width="378pt" height="247pt"
 viewBox="0.00 0.00 378.00 246.80" xmlns="http://www.w3.org/2000/svg" xmlns:xlink="http://www.w3.org/1999/xlink">
<g id="graph0" class="graph" transform="scale(1 1) rotate(0) translate(4 242.8)">
<title>dependencies</title>
<polygon fill="white" stroke="transparent" points="-4,4 -4,-242.8 374,-242.8 374,4 -4,4"/>
<text text-anchor="middle" x="185" y="-8.2" font-family="sans-serif" font-size="14.00">dependencies</text>
<g id="clust1" class="cluster">
<title>cluster_SafeSearchMenuModule</title>
<polygon fill="none" stroke="black" stroke-dasharray="1,5" points="8,-32.8 8,-230.8 362,-230.8 362,-32.8 8,-32.8"/>
</g>
<g id="clust2" class="cluster">
<title>cluster_SafeSearchMenuModule_declarations</title>
<polygon fill="none" stroke="black" points="162,-40.8 162,-92.8 354,-92.8 354,-40.8 162,-40.8"/>
</g>
<g id="clust4" class="cluster">
<title>cluster_SafeSearchMenuModule_imports</title>
<polygon fill="none" stroke="black" points="16,-40.8 16,-92.8 154,-92.8 154,-40.8 16,-40.8"/>
</g>
<g id="clust5" class="cluster">
<title>cluster_SafeSearchMenuModule_exports</title>
<polygon fill="none" stroke="black" points="87,-170.8 87,-222.8 283,-222.8 283,-170.8 87,-170.8"/>
</g>
<!-- SafeSearchMenuComponent -->
<g id="node1" class="node">
<title>SafeSearchMenuComponent</title>
<polygon fill="#ffffb3" stroke="black" points="346.46,-84.8 169.54,-84.8 169.54,-48.8 346.46,-48.8 346.46,-84.8"/>
<text text-anchor="middle" x="258" y="-62.6" font-family="Times,serif" font-size="14.00">SafeSearchMenuComponent</text>
</g>
<!-- SafeSearchMenuModule -->
<g id="node2" class="node">
<title>SafeSearchMenuModule</title>
<polygon fill="#8dd3c7" stroke="black" points="262.68,-149.8 259.68,-153.8 238.68,-153.8 235.68,-149.8 107.32,-149.8 107.32,-113.8 262.68,-113.8 262.68,-149.8"/>
<text text-anchor="middle" x="185" y="-127.6" font-family="Times,serif" font-size="14.00">SafeSearchMenuModule</text>
</g>
<!-- SafeSearchMenuComponent&#45;&gt;SafeSearchMenuModule -->
<g id="edge1" class="edge">
<title>SafeSearchMenuComponent&#45;&gt;SafeSearchMenuModule</title>
<path fill="none" stroke="black" d="M216.06,-84.91C216.06,-84.91 216.06,-103.79 216.06,-103.79"/>
<polygon fill="black" stroke="black" points="212.56,-103.79 216.06,-113.79 219.56,-103.79 212.56,-103.79"/>
</g>
<!-- SafeSearchMenuComponent  -->
<g id="node4" class="node">
<title>SafeSearchMenuComponent </title>
<polygon fill="#fb8072" stroke="black" points="275.46,-214.8 94.54,-214.8 94.54,-178.8 275.46,-178.8 275.46,-214.8"/>
<text text-anchor="middle" x="185" y="-192.6" font-family="Times,serif" font-size="14.00">SafeSearchMenuComponent </text>
</g>
<!-- SafeSearchMenuModule&#45;&gt;SafeSearchMenuComponent  -->
<g id="edge3" class="edge">
<title>SafeSearchMenuModule&#45;&gt;SafeSearchMenuComponent </title>
<path fill="none" stroke="black" stroke-dasharray="5,2" d="M185,-149.91C185,-149.91 185,-168.79 185,-168.79"/>
<polygon fill="black" stroke="black" points="181.5,-168.79 185,-178.79 188.5,-168.79 181.5,-168.79"/>
</g>
<!-- SafeButtonModule -->
<g id="node3" class="node">
<title>SafeButtonModule</title>
<polygon fill="#8dd3c7" stroke="black" points="146.05,-84.8 143.05,-88.8 122.05,-88.8 119.05,-84.8 23.95,-84.8 23.95,-48.8 146.05,-48.8 146.05,-84.8"/>
<text text-anchor="middle" x="85" y="-62.6" font-family="Times,serif" font-size="14.00">SafeButtonModule</text>
</g>
<!-- SafeButtonModule&#45;&gt;SafeSearchMenuModule -->
<g id="edge2" class="edge">
<title>SafeButtonModule&#45;&gt;SafeSearchMenuModule</title>
<path fill="none" stroke="black" d="M126.84,-84.91C126.84,-84.91 126.84,-103.79 126.84,-103.79"/>
<polygon fill="black" stroke="black" points="123.34,-103.79 126.84,-113.79 130.34,-103.79 123.34,-103.79"/>
</g>
</g>
</svg>
