<?xml version="1.0" encoding="UTF-8" standalone="no"?>
<!DOCTYPE svg PUBLIC "-//W3C//DTD SVG 1.1//EN"
 "http://www.w3.org/Graphics/SVG/1.1/DTD/svg11.dtd">
<!-- Generated by graphviz version 3.0.0 (20220226.1711)
 -->
<!-- Title: dependencies Pages: 1 -->
<svg width="832pt" height="247pt"
 viewBox="0.00 0.00 832.00 246.80" xmlns="http://www.w3.org/2000/svg" xmlns:xlink="http://www.w3.org/1999/xlink">
<g id="graph0" class="graph" transform="scale(1 1) rotate(0) translate(4 242.8)">
<title>dependencies</title>
<polygon fill="white" stroke="transparent" points="-4,4 -4,-242.8 828,-242.8 828,4 -4,4"/>
<text text-anchor="middle" x="412" y="-8.2" font-family="sans-serif" font-size="14.00">dependencies</text>
<g id="clust1" class="cluster">
<title>cluster_SafeFormModule</title>
<polygon fill="none" stroke="black" stroke-dasharray="1,5" points="8,-32.8 8,-230.8 816,-230.8 816,-32.8 8,-32.8"/>
</g>
<g id="clust5" class="cluster">
<title>cluster_SafeFormModule_exports</title>
<polygon fill="none" stroke="black" points="346,-170.8 346,-222.8 502,-222.8 502,-170.8 346,-170.8"/>
</g>
<g id="clust2" class="cluster">
<title>cluster_SafeFormModule_declarations</title>
<polygon fill="none" stroke="black" points="656,-40.8 656,-92.8 808,-92.8 808,-40.8 656,-40.8"/>
</g>
<g id="clust4" class="cluster">
<title>cluster_SafeFormModule_imports</title>
<polygon fill="none" stroke="black" points="16,-40.8 16,-92.8 648,-92.8 648,-40.8 16,-40.8"/>
</g>
<!-- SafeFormComponent -->
<g id="node1" class="node">
<title>SafeFormComponent</title>
<polygon fill="#ffffb3" stroke="black" points="800.05,-84.8 663.95,-84.8 663.95,-48.8 800.05,-48.8 800.05,-84.8"/>
<text text-anchor="middle" x="732" y="-62.6" font-family="Times,serif" font-size="14.00">SafeFormComponent</text>
</g>
<!-- SafeFormModule -->
<g id="node2" class="node">
<title>SafeFormModule</title>
<polygon fill="#8dd3c7" stroke="black" points="481.27,-149.8 478.27,-153.8 457.27,-153.8 454.27,-149.8 366.73,-149.8 366.73,-113.8 481.27,-113.8 481.27,-149.8"/>
<text text-anchor="middle" x="424" y="-127.6" font-family="Times,serif" font-size="14.00">SafeFormModule</text>
</g>
<!-- SafeFormComponent&#45;&gt;SafeFormModule -->
<g id="edge1" class="edge">
<title>SafeFormComponent&#45;&gt;SafeFormModule</title>
<path fill="none" stroke="black" d="M732,-85.08C732,-106.12 732,-137.8 732,-137.8 732,-137.8 491.57,-137.8 491.57,-137.8"/>
<polygon fill="black" stroke="black" points="491.57,-134.3 481.57,-137.8 491.57,-141.3 491.57,-134.3"/>
</g>
<!-- SafeFormComponent  -->
<g id="node7" class="node">
<title>SafeFormComponent </title>
<polygon fill="#fb8072" stroke="black" points="494.04,-214.8 353.96,-214.8 353.96,-178.8 494.04,-178.8 494.04,-214.8"/>
<text text-anchor="middle" x="424" y="-192.6" font-family="Times,serif" font-size="14.00">SafeFormComponent </text>
</g>
<!-- SafeFormModule&#45;&gt;SafeFormComponent  -->
<g id="edge6" class="edge">
<title>SafeFormModule&#45;&gt;SafeFormComponent </title>
<path fill="none" stroke="black" stroke-dasharray="5,2" d="M424,-149.91C424,-149.91 424,-168.79 424,-168.79"/>
<polygon fill="black" stroke="black" points="420.5,-168.79 424,-178.79 427.5,-168.79 420.5,-168.79"/>
</g>
<!-- SafeButtonModule -->
<g id="node3" class="node">
<title>SafeButtonModule</title>
<polygon fill="#8dd3c7" stroke="black" points="640.05,-84.8 637.05,-88.8 616.05,-88.8 613.05,-84.8 517.95,-84.8 517.95,-48.8 640.05,-48.8 640.05,-84.8"/>
<text text-anchor="middle" x="579" y="-62.6" font-family="Times,serif" font-size="14.00">SafeButtonModule</text>
</g>
<!-- SafeButtonModule&#45;&gt;SafeFormModule -->
<g id="edge2" class="edge">
<title>SafeButtonModule&#45;&gt;SafeFormModule</title>
<path fill="none" stroke="black" d="M579,-84.82C579,-102.17 579,-125.8 579,-125.8 579,-125.8 491.28,-125.8 491.28,-125.8"/>
<polygon fill="black" stroke="black" points="491.28,-122.3 481.28,-125.8 491.28,-129.3 491.28,-122.3"/>
</g>
<!-- SafeFormModalModule -->
<g id="node4" class="node">
<title>SafeFormModalModule</title>
<polygon fill="#8dd3c7" stroke="black" points="499.82,-84.8 496.82,-88.8 475.82,-88.8 472.82,-84.8 348.18,-84.8 348.18,-48.8 499.82,-48.8 499.82,-84.8"/>
<text text-anchor="middle" x="424" y="-62.6" font-family="Times,serif" font-size="14.00">SafeFormModalModule</text>
</g>
<!-- SafeFormModalModule&#45;&gt;SafeFormModule -->
<g id="edge3" class="edge">
<title>SafeFormModalModule&#45;&gt;SafeFormModule</title>
<path fill="none" stroke="black" d="M424,-84.91C424,-84.91 424,-103.79 424,-103.79"/>
<polygon fill="black" stroke="black" points="420.5,-103.79 424,-113.79 427.5,-103.79 420.5,-103.79"/>
</g>
<!-- SafeIconModule -->
<g id="node5" class="node">
<title>SafeIconModule</title>
<polygon fill="#8dd3c7" stroke="black" points="330.8,-84.8 327.8,-88.8 306.8,-88.8 303.8,-84.8 221.2,-84.8 221.2,-48.8 330.8,-48.8 330.8,-84.8"/>
<text text-anchor="middle" x="276" y="-62.6" font-family="Times,serif" font-size="14.00">SafeIconModule</text>
</g>
<!-- SafeIconModule&#45;&gt;SafeFormModule -->
<g id="edge4" class="edge">
<title>SafeIconModule&#45;&gt;SafeFormModule</title>
<path fill="none" stroke="black" d="M276,-84.82C276,-102.17 276,-125.8 276,-125.8 276,-125.8 356.36,-125.8 356.36,-125.8"/>
<polygon fill="black" stroke="black" points="356.36,-129.3 366.36,-125.8 356.36,-122.3 356.36,-129.3"/>
</g>
<!-- SafeRecordSummaryModule -->
<g id="node6" class="node">
<title>SafeRecordSummaryModule</title>
<polygon fill="#8dd3c7" stroke="black" points="203.8,-84.8 200.8,-88.8 179.8,-88.8 176.8,-84.8 24.2,-84.8 24.2,-48.8 203.8,-48.8 203.8,-84.8"/>
<text text-anchor="middle" x="114" y="-62.6" font-family="Times,serif" font-size="14.00">SafeRecordSummaryModule</text>
</g>
<!-- SafeRecordSummaryModule&#45;&gt;SafeFormModule -->
<g id="edge5" class="edge">
<title>SafeRecordSummaryModule&#45;&gt;SafeFormModule</title>
<path fill="none" stroke="black" d="M114,-85.08C114,-106.12 114,-137.8 114,-137.8 114,-137.8 356.42,-137.8 356.42,-137.8"/>
<polygon fill="black" stroke="black" points="356.42,-141.3 366.42,-137.8 356.42,-134.3 356.42,-141.3"/>
</g>
</g>
</svg>
