<?xml version="1.0" encoding="UTF-8" standalone="no"?>
<!DOCTYPE svg PUBLIC "-//W3C//DTD SVG 1.1//EN"
 "http://www.w3.org/Graphics/SVG/1.1/DTD/svg11.dtd">
<!-- Generated by graphviz version 3.0.0 (20220226.1711)
 -->
<!-- Title: dependencies Pages: 1 -->
<svg width="1167pt" height="247pt"
 viewBox="0.00 0.00 1167.00 246.80" xmlns="http://www.w3.org/2000/svg" xmlns:xlink="http://www.w3.org/1999/xlink">
<g id="graph0" class="graph" transform="scale(1 1) rotate(0) translate(4 242.8)">
<title>dependencies</title>
<polygon fill="white" stroke="transparent" points="-4,4 -4,-242.8 1163,-242.8 1163,4 -4,4"/>
<text text-anchor="middle" x="579.5" y="-8.2" font-family="sans-serif" font-size="14.00">dependencies</text>
<g id="clust1" class="cluster">
<title>cluster_RoleFeaturesModule</title>
<polygon fill="none" stroke="black" stroke-dasharray="1,5" points="8,-32.8 8,-230.8 1151,-230.8 1151,-32.8 8,-32.8"/>
</g>
<g id="clust2" class="cluster">
<title>cluster_RoleFeaturesModule_declarations</title>
<polygon fill="none" stroke="black" points="430,-40.8 430,-92.8 1143,-92.8 1143,-40.8 430,-40.8"/>
</g>
<g id="clust8" class="cluster">
<title>cluster_RoleFeaturesModule_exports</title>
<polygon fill="none" stroke="black" points="436,-170.8 436,-222.8 610,-222.8 610,-170.8 436,-170.8"/>
</g>
<g id="clust7" class="cluster">
<title>cluster_RoleFeaturesModule_imports</title>
<polygon fill="none" stroke="black" points="16,-40.8 16,-92.8 422,-92.8 422,-40.8 16,-40.8"/>
</g>
<!-- RoleDashboardsComponent -->
<g id="node1" class="node">
<title>RoleDashboardsComponent</title>
<polygon fill="#ffffb3" stroke="black" points="1134.87,-84.8 961.13,-84.8 961.13,-48.8 1134.87,-48.8 1134.87,-84.8"/>
<text text-anchor="middle" x="1048" y="-62.6" font-family="Times,serif" font-size="14.00">RoleDashboardsComponent</text>
</g>
<!-- RoleFeaturesModule -->
<g id="node5" class="node">
<title>RoleFeaturesModule</title>
<polygon fill="#8dd3c7" stroke="black" points="589.92,-149.8 586.92,-153.8 565.92,-153.8 562.92,-149.8 456.08,-149.8 456.08,-113.8 589.92,-113.8 589.92,-149.8"/>
<text text-anchor="middle" x="523" y="-127.6" font-family="Times,serif" font-size="14.00">RoleFeaturesModule</text>
</g>
<!-- RoleDashboardsComponent&#45;&gt;RoleFeaturesModule -->
<g id="edge1" class="edge">
<title>RoleDashboardsComponent&#45;&gt;RoleFeaturesModule</title>
<path fill="none" stroke="black" d="M1048,-85.09C1048,-107.01 1048,-140.8 1048,-140.8 1048,-140.8 599.76,-140.8 599.76,-140.8"/>
<polygon fill="black" stroke="black" points="599.76,-137.3 589.76,-140.8 599.76,-144.3 599.76,-137.3"/>
</g>
<!-- RoleFeaturesComponent -->
<g id="node2" class="node">
<title>RoleFeaturesComponent</title>
<polygon fill="#ffffb3" stroke="black" points="942.7,-84.8 787.3,-84.8 787.3,-48.8 942.7,-48.8 942.7,-84.8"/>
<text text-anchor="middle" x="865" y="-62.6" font-family="Times,serif" font-size="14.00">RoleFeaturesComponent</text>
</g>
<!-- RoleFeaturesComponent&#45;&gt;RoleFeaturesModule -->
<g id="edge2" class="edge">
<title>RoleFeaturesComponent&#45;&gt;RoleFeaturesModule</title>
<path fill="none" stroke="black" d="M865,-84.91C865,-104.14 865,-131.8 865,-131.8 865,-131.8 599.75,-131.8 599.75,-131.8"/>
<polygon fill="black" stroke="black" points="599.75,-128.3 589.75,-131.8 599.75,-135.3 599.75,-128.3"/>
</g>
<!-- RoleFormsComponent -->
<g id="node3" class="node">
<title>RoleFormsComponent</title>
<polygon fill="#ffffb3" stroke="black" points="769.56,-84.8 626.44,-84.8 626.44,-48.8 769.56,-48.8 769.56,-84.8"/>
<text text-anchor="middle" x="698" y="-62.6" font-family="Times,serif" font-size="14.00">RoleFormsComponent</text>
</g>
<!-- RoleFormsComponent&#45;&gt;RoleFeaturesModule -->
<g id="edge3" class="edge">
<title>RoleFormsComponent&#45;&gt;RoleFeaturesModule</title>
<path fill="none" stroke="black" d="M698,-84.83C698,-101.2 698,-122.8 698,-122.8 698,-122.8 600.16,-122.8 600.16,-122.8"/>
<polygon fill="black" stroke="black" points="600.16,-119.3 590.16,-122.8 600.16,-126.3 600.16,-119.3"/>
</g>
<!-- RoleWorkflowsComponent -->
<g id="node4" class="node">
<title>RoleWorkflowsComponent</title>
<polygon fill="#ffffb3" stroke="black" points="608.26,-84.8 437.74,-84.8 437.74,-48.8 608.26,-48.8 608.26,-84.8"/>
<text text-anchor="middle" x="523" y="-62.6" font-family="Times,serif" font-size="14.00">RoleWorkflowsComponent</text>
</g>
<!-- RoleWorkflowsComponent&#45;&gt;RoleFeaturesModule -->
<g id="edge4" class="edge">
<title>RoleWorkflowsComponent&#45;&gt;RoleFeaturesModule</title>
<path fill="none" stroke="black" d="M523,-84.91C523,-84.91 523,-103.79 523,-103.79"/>
<polygon fill="black" stroke="black" points="519.5,-103.79 523,-113.79 526.5,-103.79 519.5,-103.79"/>
</g>
<!-- RoleFeaturesComponent  -->
<g id="node9" class="node">
<title>RoleFeaturesComponent </title>
<polygon fill="#fb8072" stroke="black" points="602.2,-214.8 443.8,-214.8 443.8,-178.8 602.2,-178.8 602.2,-214.8"/>
<text text-anchor="middle" x="523" y="-192.6" font-family="Times,serif" font-size="14.00">RoleFeaturesComponent </text>
</g>
<!-- RoleFeaturesModule&#45;&gt;RoleFeaturesComponent  -->
<g id="edge8" class="edge">
<title>RoleFeaturesModule&#45;&gt;RoleFeaturesComponent </title>
<path fill="none" stroke="black" stroke-dasharray="5,2" d="M523,-149.91C523,-149.91 523,-168.79 523,-168.79"/>
<polygon fill="black" stroke="black" points="519.5,-168.79 523,-178.79 526.5,-168.79 519.5,-168.79"/>
</g>
<!-- SafeButtonModule -->
<g id="node6" class="node">
<title>SafeButtonModule</title>
<polygon fill="#8dd3c7" stroke="black" points="414.05,-84.8 411.05,-88.8 390.05,-88.8 387.05,-84.8 291.95,-84.8 291.95,-48.8 414.05,-48.8 414.05,-84.8"/>
<text text-anchor="middle" x="353" y="-62.6" font-family="Times,serif" font-size="14.00">SafeButtonModule</text>
</g>
<!-- SafeButtonModule&#45;&gt;RoleFeaturesModule -->
<g id="edge5" class="edge">
<title>SafeButtonModule&#45;&gt;RoleFeaturesModule</title>
<path fill="none" stroke="black" d="M353,-84.83C353,-101.2 353,-122.8 353,-122.8 353,-122.8 445.81,-122.8 445.81,-122.8"/>
<polygon fill="black" stroke="black" points="445.81,-126.3 455.81,-122.8 445.81,-119.3 445.81,-126.3"/>
</g>
<!-- SafeEmptyModule -->
<g id="node7" class="node">
<title>SafeEmptyModule</title>
<polygon fill="#8dd3c7" stroke="black" points="273.76,-84.8 270.76,-88.8 249.76,-88.8 246.76,-84.8 152.24,-84.8 152.24,-48.8 273.76,-48.8 273.76,-84.8"/>
<text text-anchor="middle" x="213" y="-62.6" font-family="Times,serif" font-size="14.00">SafeEmptyModule</text>
</g>
<!-- SafeEmptyModule&#45;&gt;RoleFeaturesModule -->
<g id="edge6" class="edge">
<title>SafeEmptyModule&#45;&gt;RoleFeaturesModule</title>
<path fill="none" stroke="black" d="M213,-84.91C213,-104.14 213,-131.8 213,-131.8 213,-131.8 446.12,-131.8 446.12,-131.8"/>
<polygon fill="black" stroke="black" points="446.12,-135.3 456.12,-131.8 446.12,-128.3 446.12,-135.3"/>
</g>
<!-- SafeIconModule -->
<g id="node8" class="node">
<title>SafeIconModule</title>
<polygon fill="#8dd3c7" stroke="black" points="133.8,-84.8 130.8,-88.8 109.8,-88.8 106.8,-84.8 24.2,-84.8 24.2,-48.8 133.8,-48.8 133.8,-84.8"/>
<text text-anchor="middle" x="79" y="-62.6" font-family="Times,serif" font-size="14.00">SafeIconModule</text>
</g>
<!-- SafeIconModule&#45;&gt;RoleFeaturesModule -->
<g id="edge7" class="edge">
<title>SafeIconModule&#45;&gt;RoleFeaturesModule</title>
<path fill="none" stroke="black" d="M79,-85.09C79,-107.01 79,-140.8 79,-140.8 79,-140.8 446.05,-140.8 446.05,-140.8"/>
<polygon fill="black" stroke="black" points="446.05,-144.3 456.05,-140.8 446.05,-137.3 446.05,-144.3"/>
</g>
</g>
</svg>
