<?xml version="1.0" encoding="UTF-8" standalone="no"?>
<!DOCTYPE svg PUBLIC "-//W3C//DTD SVG 1.1//EN"
 "http://www.w3.org/Graphics/SVG/1.1/DTD/svg11.dtd">
<!-- Generated by graphviz version 2.47.0 (20210316.0004)
 -->
<!-- Title: dependencies Pages: 1 -->
<svg width="1153pt" height="284pt"
 viewBox="0.00 0.00 1153.00 284.00" xmlns="http://www.w3.org/2000/svg" xmlns:xlink="http://www.w3.org/1999/xlink">
<g id="graph0" class="graph" transform="scale(1 1) rotate(0) translate(4 280)">
<title>dependencies</title>
<polygon fill="white" stroke="transparent" points="-4,4 -4,-280 1149,-280 1149,4 -4,4"/>
<text text-anchor="start" x="551.51" y="-42.4" font-family="sans-serif" font-weight="bold" font-size="14.00">Legend</text>
<polygon fill="#ffffb3" stroke="transparent" points="338.5,-10 338.5,-30 358.5,-30 358.5,-10 338.5,-10"/>
<text text-anchor="start" x="362.13" y="-15.4" font-family="sans-serif" font-size="14.00"> &#160;Declarations</text>
<polygon fill="#8dd3c7" stroke="transparent" points="451.5,-10 451.5,-30 471.5,-30 471.5,-10 451.5,-10"/>
<text text-anchor="start" x="475.23" y="-15.4" font-family="sans-serif" font-size="14.00"> &#160;Module</text>
<polygon fill="#80b1d3" stroke="transparent" points="537.5,-10 537.5,-30 557.5,-30 557.5,-10 537.5,-10"/>
<text text-anchor="start" x="561.28" y="-15.4" font-family="sans-serif" font-size="14.00"> &#160;Bootstrap</text>
<polygon fill="#fdb462" stroke="transparent" points="634.5,-10 634.5,-30 654.5,-30 654.5,-10 634.5,-10"/>
<text text-anchor="start" x="658.17" y="-15.4" font-family="sans-serif" font-size="14.00"> &#160;Providers</text>
<polygon fill="#fb8072" stroke="transparent" points="730.5,-10 730.5,-30 750.5,-30 750.5,-10 730.5,-10"/>
<text text-anchor="start" x="754.23" y="-15.4" font-family="sans-serif" font-size="14.00"> &#160;Exports</text>
<g id="clust1" class="cluster">
<title>cluster_SafeChartModule</title>
<polygon fill="none" stroke="black" stroke-dasharray="1,5" points="8,-70 8,-268 1137,-268 1137,-70 8,-70"/>
</g>
<g id="clust5" class="cluster">
<title>cluster_SafeChartModule_exports</title>
<polygon fill="none" stroke="black" points="506,-208 506,-260 662,-260 662,-208 506,-208"/>
</g>
<g id="clust2" class="cluster">
<title>cluster_SafeChartModule_declarations</title>
<polygon fill="none" stroke="black" points="975,-78 975,-130 1129,-130 1129,-78 975,-78"/>
</g>
<g id="clust4" class="cluster">
<title>cluster_SafeChartModule_imports</title>
<polygon fill="none" stroke="black" points="16,-78 16,-130 967,-130 967,-78 16,-78"/>
</g>
<!-- SafeChartComponent -->
<g id="node1" class="node">
<title>SafeChartComponent</title>
<polygon fill="#ffffb3" stroke="black" points="1120.81,-122 983.19,-122 983.19,-86 1120.81,-86 1120.81,-122"/>
<text text-anchor="middle" x="1052" y="-99.8" font-family="Times,serif" font-size="14.00">SafeChartComponent</text>
</g>
<!-- SafeChartModule -->
<g id="node2" class="node">
<title>SafeChartModule</title>
<polygon fill="#8dd3c7" stroke="black" points="641.53,-187 638.53,-191 617.53,-191 614.53,-187 526.47,-187 526.47,-151 641.53,-151 641.53,-187"/>
<text text-anchor="middle" x="584" y="-164.8" font-family="Times,serif" font-size="14.00">SafeChartModule</text>
</g>
<!-- SafeChartComponent&#45;&gt;SafeChartModule -->
<g id="edge1" class="edge">
<title>SafeChartComponent&#45;&gt;SafeChartModule</title>
<path fill="none" stroke="black" d="M1052,-122.29C1052,-144.21 1052,-178 1052,-178 1052,-178 651.86,-178 651.86,-178"/>
<polygon fill="black" stroke="black" points="651.86,-174.5 641.86,-178 651.86,-181.5 651.86,-174.5"/>
</g>
<!-- SafeChartComponent  -->
<g id="node9" class="node">
<title>SafeChartComponent </title>
<polygon fill="#fb8072" stroke="black" points="654.31,-252 513.69,-252 513.69,-216 654.31,-216 654.31,-252"/>
<text text-anchor="middle" x="584" y="-229.8" font-family="Times,serif" font-size="14.00">SafeChartComponent </text>
</g>
<!-- SafeChartModule&#45;&gt;SafeChartComponent  -->
<g id="edge8" class="edge">
<title>SafeChartModule&#45;&gt;SafeChartComponent </title>
<path fill="none" stroke="black" stroke-dasharray="5,2" d="M584,-187.11C584,-187.11 584,-205.99 584,-205.99"/>
<polygon fill="black" stroke="black" points="580.5,-205.99 584,-215.99 587.5,-205.99 580.5,-205.99"/>
</g>
<!-- SafeBarChartModule -->
<g id="node3" class="node">
<title>SafeBarChartModule</title>
<polygon fill="#8dd3c7" stroke="black" points="958.74,-122 955.74,-126 934.74,-126 931.74,-122 823.26,-122 823.26,-86 958.74,-86 958.74,-122"/>
<text text-anchor="middle" x="891" y="-99.8" font-family="Times,serif" font-size="14.00">SafeBarChartModule</text>
</g>
<!-- SafeBarChartModule&#45;&gt;SafeChartModule -->
<g id="edge2" class="edge">
<title>SafeBarChartModule&#45;&gt;SafeChartModule</title>
<path fill="none" stroke="black" d="M891,-122.11C891,-141.34 891,-169 891,-169 891,-169 651.74,-169 651.74,-169"/>
<polygon fill="black" stroke="black" points="651.74,-165.5 641.74,-169 651.74,-172.5 651.74,-165.5"/>
</g>
<!-- SafeButtonModule -->
<g id="node4" class="node">
<title>SafeButtonModule</title>
<polygon fill="#8dd3c7" stroke="black" points="805.04,-122 802.04,-126 781.04,-126 778.04,-122 682.96,-122 682.96,-86 805.04,-86 805.04,-122"/>
<text text-anchor="middle" x="744" y="-99.8" font-family="Times,serif" font-size="14.00">SafeButtonModule</text>
</g>
<!-- SafeButtonModule&#45;&gt;SafeChartModule -->
<g id="edge3" class="edge">
<title>SafeButtonModule&#45;&gt;SafeChartModule</title>
<path fill="none" stroke="black" d="M744,-122.03C744,-138.4 744,-160 744,-160 744,-160 651.76,-160 651.76,-160"/>
<polygon fill="black" stroke="black" points="651.76,-156.5 641.76,-160 651.76,-163.5 651.76,-156.5"/>
</g>
<!-- SafeColumnChartModule -->
<g id="node5" class="node">
<title>SafeColumnChartModule</title>
<polygon fill="#8dd3c7" stroke="black" points="664.14,-122 661.14,-126 640.14,-126 637.14,-122 503.86,-122 503.86,-86 664.14,-86 664.14,-122"/>
<text text-anchor="middle" x="584" y="-99.8" font-family="Times,serif" font-size="14.00">SafeColumnChartModule</text>
</g>
<!-- SafeColumnChartModule&#45;&gt;SafeChartModule -->
<g id="edge4" class="edge">
<title>SafeColumnChartModule&#45;&gt;SafeChartModule</title>
<path fill="none" stroke="black" d="M584,-122.11C584,-122.11 584,-140.99 584,-140.99"/>
<polygon fill="black" stroke="black" points="580.5,-140.99 584,-150.99 587.5,-140.99 580.5,-140.99"/>
</g>
<!-- SafeDonutChartModule -->
<g id="node6" class="node">
<title>SafeDonutChartModule</title>
<polygon fill="#8dd3c7" stroke="black" points="485.02,-122 482.02,-126 461.02,-126 458.02,-122 334.98,-122 334.98,-86 485.02,-86 485.02,-122"/>
<text text-anchor="middle" x="410" y="-99.8" font-family="Times,serif" font-size="14.00">SafeDonutChartModule</text>
</g>
<!-- SafeDonutChartModule&#45;&gt;SafeChartModule -->
<g id="edge5" class="edge">
<title>SafeDonutChartModule&#45;&gt;SafeChartModule</title>
<path fill="none" stroke="black" d="M410,-122.03C410,-138.4 410,-160 410,-160 410,-160 516.06,-160 516.06,-160"/>
<polygon fill="black" stroke="black" points="516.06,-163.5 526.06,-160 516.06,-156.5 516.06,-163.5"/>
</g>
<!-- SafeLineChartModule -->
<g id="node7" class="node">
<title>SafeLineChartModule</title>
<polygon fill="#8dd3c7" stroke="black" points="316.68,-122 313.68,-126 292.68,-126 289.68,-122 175.32,-122 175.32,-86 316.68,-86 316.68,-122"/>
<text text-anchor="middle" x="246" y="-99.8" font-family="Times,serif" font-size="14.00">SafeLineChartModule</text>
</g>
<!-- SafeLineChartModule&#45;&gt;SafeChartModule -->
<g id="edge6" class="edge">
<title>SafeLineChartModule&#45;&gt;SafeChartModule</title>
<path fill="none" stroke="black" d="M246,-122.11C246,-141.34 246,-169 246,-169 246,-169 516.28,-169 516.28,-169"/>
<polygon fill="black" stroke="black" points="516.28,-172.5 526.28,-169 516.28,-165.5 516.28,-172.5"/>
</g>
<!-- SafePieChartModule -->
<g id="node8" class="node">
<title>SafePieChartModule</title>
<polygon fill="#8dd3c7" stroke="black" points="157.91,-122 154.91,-126 133.91,-126 130.91,-122 24.09,-122 24.09,-86 157.91,-86 157.91,-122"/>
<text text-anchor="middle" x="91" y="-99.8" font-family="Times,serif" font-size="14.00">SafePieChartModule</text>
</g>
<!-- SafePieChartModule&#45;&gt;SafeChartModule -->
<g id="edge7" class="edge">
<title>SafePieChartModule&#45;&gt;SafeChartModule</title>
<path fill="none" stroke="black" d="M91,-122.29C91,-144.21 91,-178 91,-178 91,-178 516,-178 516,-178"/>
<polygon fill="black" stroke="black" points="516,-181.5 526,-178 516,-174.5 516,-181.5"/>
</g>
</g>
</svg>
