<?xml version="1.0" encoding="UTF-8" standalone="no"?>
<!DOCTYPE svg PUBLIC "-//W3C//DTD SVG 1.1//EN"
 "http://www.w3.org/Graphics/SVG/1.1/DTD/svg11.dtd">
<!-- Generated by graphviz version 3.0.0 (20220226.1711)
 -->
<!-- Title: dependencies Pages: 1 -->
<svg width="288pt" height="247pt"
 viewBox="0.00 0.00 288.00 246.80" xmlns="http://www.w3.org/2000/svg" xmlns:xlink="http://www.w3.org/1999/xlink">
<g id="graph0" class="graph" transform="scale(1 1) rotate(0) translate(4 242.8)">
<title>dependencies</title>
<polygon fill="white" stroke="transparent" points="-4,4 -4,-242.8 284,-242.8 284,4 -4,4"/>
<text text-anchor="middle" x="140" y="-8.2" font-family="sans-serif" font-size="14.00">dependencies</text>
<g id="clust1" class="cluster">
<title>cluster_SafeDropdownFilterMenuModule</title>
<polygon fill="none" stroke="black" stroke-dasharray="1,5" points="8,-32.8 8,-230.8 272,-230.8 272,-32.8 8,-32.8"/>
</g>
<g id="clust2" class="cluster">
<title>cluster_SafeDropdownFilterMenuModule_declarations</title>
<polygon fill="none" stroke="black" points="17,-40.8 17,-92.8 263,-92.8 263,-40.8 17,-40.8"/>
</g>
<g id="clust5" class="cluster">
<title>cluster_SafeDropdownFilterMenuModule_exports</title>
<polygon fill="none" stroke="black" points="16,-170.8 16,-222.8 264,-222.8 264,-170.8 16,-170.8"/>
</g>
<!-- SafeDropdownFilterMenuComponent -->
<g id="node1" class="node">
<title>SafeDropdownFilterMenuComponent</title>
<polygon fill="#ffffb3" stroke="black" points="254.58,-84.8 25.42,-84.8 25.42,-48.8 254.58,-48.8 254.58,-84.8"/>
<text text-anchor="middle" x="140" y="-62.6" font-family="Times,serif" font-size="14.00">SafeDropdownFilterMenuComponent</text>
</g>
<!-- SafeDropdownFilterMenuModule -->
<g id="node2" class="node">
<title>SafeDropdownFilterMenuModule</title>
<polygon fill="#8dd3c7" stroke="black" points="243.8,-149.8 240.8,-153.8 219.8,-153.8 216.8,-149.8 36.2,-149.8 36.2,-113.8 243.8,-113.8 243.8,-149.8"/>
<text text-anchor="middle" x="140" y="-127.6" font-family="Times,serif" font-size="14.00">SafeDropdownFilterMenuModule</text>
</g>
<!-- SafeDropdownFilterMenuComponent&#45;&gt;SafeDropdownFilterMenuModule -->
<g id="edge1" class="edge">
<title>SafeDropdownFilterMenuComponent&#45;&gt;SafeDropdownFilterMenuModule</title>
<path fill="none" stroke="black" d="M140,-84.91C140,-84.91 140,-103.79 140,-103.79"/>
<polygon fill="black" stroke="black" points="136.5,-103.79 140,-113.79 143.5,-103.79 136.5,-103.79"/>
</g>
<!-- SafeDropdownFilterMenuComponent  -->
<g id="node3" class="node">
<title>SafeDropdownFilterMenuComponent </title>
<polygon fill="#fb8072" stroke="black" points="256.08,-214.8 23.92,-214.8 23.92,-178.8 256.08,-178.8 256.08,-214.8"/>
<text text-anchor="middle" x="140" y="-192.6" font-family="Times,serif" font-size="14.00">SafeDropdownFilterMenuComponent </text>
</g>
<!-- SafeDropdownFilterMenuModule&#45;&gt;SafeDropdownFilterMenuComponent  -->
<g id="edge2" class="edge">
<title>SafeDropdownFilterMenuModule&#45;&gt;SafeDropdownFilterMenuComponent </title>
<path fill="none" stroke="black" stroke-dasharray="5,2" d="M140,-149.91C140,-149.91 140,-168.79 140,-168.79"/>
<polygon fill="black" stroke="black" points="136.5,-168.79 140,-178.79 143.5,-168.79 136.5,-168.79"/>
</g>
</g>
</svg>
