<?xml version="1.0" encoding="UTF-8" standalone="no"?>
<!DOCTYPE svg PUBLIC "-//W3C//DTD SVG 1.1//EN"
 "http://www.w3.org/Graphics/SVG/1.1/DTD/svg11.dtd">
<!-- Generated by graphviz version 3.0.0 (20220226.1711)
 -->
<!-- Title: dependencies Pages: 1 -->
<svg width="805pt" height="247pt"
 viewBox="0.00 0.00 805.00 246.80" xmlns="http://www.w3.org/2000/svg" xmlns:xlink="http://www.w3.org/1999/xlink">
<g id="graph0" class="graph" transform="scale(1 1) rotate(0) translate(4 242.8)">
<title>dependencies</title>
<polygon fill="white" stroke="transparent" points="-4,4 -4,-242.8 801,-242.8 801,4 -4,4"/>
<text text-anchor="middle" x="398.5" y="-8.2" font-family="sans-serif" font-size="14.00">dependencies</text>
<g id="clust1" class="cluster">
<title>cluster_SafeRecordModalModule</title>
<polygon fill="none" stroke="black" stroke-dasharray="1,5" points="8,-32.8 8,-230.8 789,-230.8 789,-32.8 8,-32.8"/>
</g>
<g id="clust4" class="cluster">
<title>cluster_SafeRecordModalModule_imports</title>
<polygon fill="none" stroke="black" points="224,-40.8 224,-92.8 781,-92.8 781,-40.8 224,-40.8"/>
</g>
<g id="clust2" class="cluster">
<title>cluster_SafeRecordModalModule_declarations</title>
<polygon fill="none" stroke="black" points="16,-40.8 16,-92.8 216,-92.8 216,-40.8 16,-40.8"/>
</g>
<g id="clust5" class="cluster">
<title>cluster_SafeRecordModalModule_exports</title>
<polygon fill="none" stroke="black" points="325,-170.8 325,-222.8 527,-222.8 527,-170.8 325,-170.8"/>
</g>
<!-- SafeRecordModalComponent -->
<g id="node1" class="node">
<title>SafeRecordModalComponent</title>
<polygon fill="#ffffb3" stroke="black" points="207.69,-84.8 24.31,-84.8 24.31,-48.8 207.69,-48.8 207.69,-84.8"/>
<text text-anchor="middle" x="116" y="-62.6" font-family="Times,serif" font-size="14.00">SafeRecordModalComponent</text>
</g>
<!-- SafeRecordModalModule -->
<g id="node2" class="node">
<title>SafeRecordModalModule</title>
<polygon fill="#8dd3c7" stroke="black" points="506.91,-149.8 503.91,-153.8 482.91,-153.8 479.91,-149.8 345.09,-149.8 345.09,-113.8 506.91,-113.8 506.91,-149.8"/>
<text text-anchor="middle" x="426" y="-127.6" font-family="Times,serif" font-size="14.00">SafeRecordModalModule</text>
</g>
<!-- SafeRecordModalComponent&#45;&gt;SafeRecordModalModule -->
<g id="edge1" class="edge">
<title>SafeRecordModalComponent&#45;&gt;SafeRecordModalModule</title>
<path fill="none" stroke="black" d="M116,-84.91C116,-104.14 116,-131.8 116,-131.8 116,-131.8 334.96,-131.8 334.96,-131.8"/>
<polygon fill="black" stroke="black" points="334.96,-135.3 344.96,-131.8 334.96,-128.3 334.96,-135.3"/>
</g>
<!-- SafeRecordModalComponent  -->
<g id="node6" class="node">
<title>SafeRecordModalComponent </title>
<polygon fill="#fb8072" stroke="black" points="519.19,-214.8 332.81,-214.8 332.81,-178.8 519.19,-178.8 519.19,-214.8"/>
<text text-anchor="middle" x="426" y="-192.6" font-family="Times,serif" font-size="14.00">SafeRecordModalComponent </text>
</g>
<!-- SafeRecordModalModule&#45;&gt;SafeRecordModalComponent  -->
<g id="edge5" class="edge">
<title>SafeRecordModalModule&#45;&gt;SafeRecordModalComponent </title>
<path fill="none" stroke="black" stroke-dasharray="5,2" d="M426,-149.91C426,-149.91 426,-168.79 426,-168.79"/>
<polygon fill="black" stroke="black" points="422.5,-168.79 426,-178.79 429.5,-168.79 422.5,-168.79"/>
</g>
<!-- SafeButtonModule -->
<g id="node3" class="node">
<title>SafeButtonModule</title>
<polygon fill="#8dd3c7" stroke="black" points="773.05,-84.8 770.05,-88.8 749.05,-88.8 746.05,-84.8 650.95,-84.8 650.95,-48.8 773.05,-48.8 773.05,-84.8"/>
<text text-anchor="middle" x="712" y="-62.6" font-family="Times,serif" font-size="14.00">SafeButtonModule</text>
</g>
<!-- SafeButtonModule&#45;&gt;SafeRecordModalModule -->
<g id="edge2" class="edge">
<title>SafeButtonModule&#45;&gt;SafeRecordModalModule</title>
<path fill="none" stroke="black" d="M712,-84.91C712,-104.14 712,-131.8 712,-131.8 712,-131.8 516.81,-131.8 516.81,-131.8"/>
<polygon fill="black" stroke="black" points="516.81,-128.3 506.81,-131.8 516.81,-135.3 516.81,-128.3"/>
</g>
<!-- SafeRecordHistoryModalModule -->
<g id="node4" class="node">
<title>SafeRecordHistoryModalModule</title>
<polygon fill="#8dd3c7" stroke="black" points="632.91,-84.8 629.91,-88.8 608.91,-88.8 605.91,-84.8 429.09,-84.8 429.09,-48.8 632.91,-48.8 632.91,-84.8"/>
<text text-anchor="middle" x="531" y="-62.6" font-family="Times,serif" font-size="14.00">SafeRecordHistoryModalModule</text>
</g>
<!-- SafeRecordHistoryModalModule&#45;&gt;SafeRecordModalModule -->
<g id="edge3" class="edge">
<title>SafeRecordHistoryModalModule&#45;&gt;SafeRecordModalModule</title>
<path fill="none" stroke="black" d="M468,-84.91C468,-84.91 468,-103.79 468,-103.79"/>
<polygon fill="black" stroke="black" points="464.5,-103.79 468,-113.79 471.5,-103.79 464.5,-103.79"/>
</g>
<!-- SafeRecordSummaryModule -->
<g id="node5" class="node">
<title>SafeRecordSummaryModule</title>
<polygon fill="#8dd3c7" stroke="black" points="411.8,-84.8 408.8,-88.8 387.8,-88.8 384.8,-84.8 232.2,-84.8 232.2,-48.8 411.8,-48.8 411.8,-84.8"/>
<text text-anchor="middle" x="322" y="-62.6" font-family="Times,serif" font-size="14.00">SafeRecordSummaryModule</text>
</g>
<!-- SafeRecordSummaryModule&#45;&gt;SafeRecordModalModule -->
<g id="edge4" class="edge">
<title>SafeRecordSummaryModule&#45;&gt;SafeRecordModalModule</title>
<path fill="none" stroke="black" d="M378.47,-84.91C378.47,-84.91 378.47,-103.79 378.47,-103.79"/>
<polygon fill="black" stroke="black" points="374.97,-103.79 378.47,-113.79 381.97,-103.79 374.97,-103.79"/>
</g>
</g>
</svg>
