<?xml version="1.0" encoding="UTF-8" standalone="no"?>
<!DOCTYPE svg PUBLIC "-//W3C//DTD SVG 1.1//EN"
 "http://www.w3.org/Graphics/SVG/1.1/DTD/svg11.dtd">
<!-- Generated by graphviz version 3.0.0 (20220226.1711)
 -->
<!-- Title: dependencies Pages: 1 -->
<svg width="709pt" height="247pt"
 viewBox="0.00 0.00 709.00 246.80" xmlns="http://www.w3.org/2000/svg" xmlns:xlink="http://www.w3.org/1999/xlink">
<g id="graph0" class="graph" transform="scale(1 1) rotate(0) translate(4 242.8)">
<title>dependencies</title>
<polygon fill="white" stroke="transparent" points="-4,4 -4,-242.8 705,-242.8 705,4 -4,4"/>
<text text-anchor="middle" x="350.5" y="-8.2" font-family="sans-serif" font-size="14.00">dependencies</text>
<g id="clust1" class="cluster">
<title>cluster_SafeMappingModule</title>
<polygon fill="none" stroke="black" stroke-dasharray="1,5" points="8,-32.8 8,-230.8 693,-230.8 693,-32.8 8,-32.8"/>
</g>
<g id="clust6" class="cluster">
<title>cluster_SafeMappingModule_exports</title>
<polygon fill="none" stroke="black" points="153,-170.8 153,-222.8 544,-222.8 544,-170.8 153,-170.8"/>
</g>
<g id="clust5" class="cluster">
<title>cluster_SafeMappingModule_imports</title>
<polygon fill="none" stroke="black" points="408,-40.8 408,-92.8 685,-92.8 685,-40.8 408,-40.8"/>
</g>
<g id="clust2" class="cluster">
<title>cluster_SafeMappingModule_declarations</title>
<polygon fill="none" stroke="black" points="16,-40.8 16,-92.8 400,-92.8 400,-40.8 16,-40.8"/>
</g>
<!-- SafeMappingComponent -->
<g id="node1" class="node">
<title>SafeMappingComponent</title>
<polygon fill="#ffffb3" stroke="black" points="392.26,-84.8 235.74,-84.8 235.74,-48.8 392.26,-48.8 392.26,-84.8"/>
<text text-anchor="middle" x="314" y="-62.6" font-family="Times,serif" font-size="14.00">SafeMappingComponent</text>
</g>
<!-- SafeMappingModule -->
<g id="node3" class="node">
<title>SafeMappingModule</title>
<polygon fill="#8dd3c7" stroke="black" points="424.48,-149.8 421.48,-153.8 400.48,-153.8 397.48,-149.8 289.52,-149.8 289.52,-113.8 424.48,-113.8 424.48,-149.8"/>
<text text-anchor="middle" x="357" y="-127.6" font-family="Times,serif" font-size="14.00">SafeMappingModule</text>
</g>
<!-- SafeMappingComponent&#45;&gt;SafeMappingModule -->
<g id="edge1" class="edge">
<title>SafeMappingComponent&#45;&gt;SafeMappingModule</title>
<path fill="none" stroke="black" d="M340.94,-84.91C340.94,-84.91 340.94,-103.79 340.94,-103.79"/>
<polygon fill="black" stroke="black" points="337.44,-103.79 340.94,-113.79 344.44,-103.79 337.44,-103.79"/>
</g>
<!-- SafeMappingModalComponent -->
<g id="node2" class="node">
<title>SafeMappingModalComponent</title>
<polygon fill="#ffffb3" stroke="black" points="217.81,-84.8 24.19,-84.8 24.19,-48.8 217.81,-48.8 217.81,-84.8"/>
<text text-anchor="middle" x="121" y="-62.6" font-family="Times,serif" font-size="14.00">SafeMappingModalComponent</text>
</g>
<!-- SafeMappingModalComponent&#45;&gt;SafeMappingModule -->
<g id="edge2" class="edge">
<title>SafeMappingModalComponent&#45;&gt;SafeMappingModule</title>
<path fill="none" stroke="black" d="M189.12,-84.91C189.12,-104.14 189.12,-131.8 189.12,-131.8 189.12,-131.8 279.2,-131.8 279.2,-131.8"/>
<polygon fill="black" stroke="black" points="279.2,-135.3 289.2,-131.8 279.2,-128.3 279.2,-135.3"/>
</g>
<!-- SafeMappingComponent  -->
<g id="node6" class="node">
<title>SafeMappingComponent </title>
<polygon fill="#fb8072" stroke="black" points="536.26,-214.8 375.74,-214.8 375.74,-178.8 536.26,-178.8 536.26,-214.8"/>
<text text-anchor="middle" x="456" y="-192.6" font-family="Times,serif" font-size="14.00">SafeMappingComponent </text>
</g>
<!-- SafeMappingModule&#45;&gt;SafeMappingComponent  -->
<g id="edge5" class="edge">
<title>SafeMappingModule&#45;&gt;SafeMappingComponent </title>
<path fill="none" stroke="black" stroke-dasharray="5,2" d="M400.18,-149.91C400.18,-149.91 400.18,-168.79 400.18,-168.79"/>
<polygon fill="black" stroke="black" points="396.68,-168.79 400.18,-178.79 403.68,-168.79 396.68,-168.79"/>
</g>
<!-- SafeMappingModalComponent  -->
<g id="node7" class="node">
<title>SafeMappingModalComponent </title>
<polygon fill="#fb8072" stroke="black" points="357.31,-214.8 160.69,-214.8 160.69,-178.8 357.31,-178.8 357.31,-214.8"/>
<text text-anchor="middle" x="259" y="-192.6" font-family="Times,serif" font-size="14.00">SafeMappingModalComponent </text>
</g>
<!-- SafeMappingModule&#45;&gt;SafeMappingModalComponent  -->
<g id="edge6" class="edge">
<title>SafeMappingModule&#45;&gt;SafeMappingModalComponent </title>
<path fill="none" stroke="black" stroke-dasharray="5,2" d="M323.46,-149.91C323.46,-149.91 323.46,-168.79 323.46,-168.79"/>
<polygon fill="black" stroke="black" points="319.96,-168.79 323.46,-178.79 326.96,-168.79 319.96,-168.79"/>
</g>
<!-- SafeButtonModule -->
<g id="node4" class="node">
<title>SafeButtonModule</title>
<polygon fill="#8dd3c7" stroke="black" points="677.05,-84.8 674.05,-88.8 653.05,-88.8 650.05,-84.8 554.95,-84.8 554.95,-48.8 677.05,-48.8 677.05,-84.8"/>
<text text-anchor="middle" x="616" y="-62.6" font-family="Times,serif" font-size="14.00">SafeButtonModule</text>
</g>
<!-- SafeButtonModule&#45;&gt;SafeMappingModule -->
<g id="edge3" class="edge">
<title>SafeButtonModule&#45;&gt;SafeMappingModule</title>
<path fill="none" stroke="black" d="M616,-84.91C616,-104.14 616,-131.8 616,-131.8 616,-131.8 434.71,-131.8 434.71,-131.8"/>
<polygon fill="black" stroke="black" points="434.71,-128.3 424.71,-131.8 434.71,-135.3 434.71,-128.3"/>
</g>
<!-- SafeModalModule -->
<g id="node5" class="node">
<title>SafeModalModule</title>
<polygon fill="#8dd3c7" stroke="black" points="536.48,-84.8 533.48,-88.8 512.48,-88.8 509.48,-84.8 415.52,-84.8 415.52,-48.8 536.48,-48.8 536.48,-84.8"/>
<text text-anchor="middle" x="476" y="-62.6" font-family="Times,serif" font-size="14.00">SafeModalModule</text>
</g>
<!-- SafeModalModule&#45;&gt;SafeMappingModule -->
<g id="edge4" class="edge">
<title>SafeModalModule&#45;&gt;SafeMappingModule</title>
<path fill="none" stroke="black" d="M420,-84.91C420,-84.91 420,-103.79 420,-103.79"/>
<polygon fill="black" stroke="black" points="416.5,-103.79 420,-113.79 423.5,-103.79 416.5,-103.79"/>
</g>
</g>
</svg>
