<?xml version="1.0" encoding="UTF-8" standalone="no"?>
<!DOCTYPE svg PUBLIC "-//W3C//DTD SVG 1.1//EN"
 "http://www.w3.org/Graphics/SVG/1.1/DTD/svg11.dtd">
<!-- Generated by graphviz version 3.0.0 (20220226.1711)
 -->
<!-- Title: dependencies Pages: 1 -->
<svg width="480pt" height="247pt"
 viewBox="0.00 0.00 480.00 246.80" xmlns="http://www.w3.org/2000/svg" xmlns:xlink="http://www.w3.org/1999/xlink">
<g id="graph0" class="graph" transform="scale(1 1) rotate(0) translate(4 242.8)">
<title>dependencies</title>
<polygon fill="white" stroke="transparent" points="-4,4 -4,-242.8 476,-242.8 476,4 -4,4"/>
<text text-anchor="middle" x="236" y="-8.2" font-family="sans-serif" font-size="14.00">dependencies</text>
<g id="clust1" class="cluster">
<title>cluster_SafeButtonModule</title>
<polygon fill="none" stroke="black" stroke-dasharray="1,5" points="8,-32.8 8,-230.8 464,-230.8 464,-32.8 8,-32.8"/>
</g>
<g id="clust5" class="cluster">
<title>cluster_SafeButtonModule_exports</title>
<polygon fill="none" stroke="black" points="143,-170.8 143,-222.8 307,-222.8 307,-170.8 143,-170.8"/>
</g>
<g id="clust2" class="cluster">
<title>cluster_SafeButtonModule_declarations</title>
<polygon fill="none" stroke="black" points="296,-40.8 296,-92.8 456,-92.8 456,-40.8 296,-40.8"/>
</g>
<g id="clust4" class="cluster">
<title>cluster_SafeButtonModule_imports</title>
<polygon fill="none" stroke="black" points="16,-40.8 16,-92.8 288,-92.8 288,-40.8 16,-40.8"/>
</g>
<!-- SafeButtonComponent -->
<g id="node1" class="node">
<title>SafeButtonComponent</title>
<polygon fill="#ffffb3" stroke="black" points="448.32,-84.8 303.68,-84.8 303.68,-48.8 448.32,-48.8 448.32,-84.8"/>
<text text-anchor="middle" x="376" y="-62.6" font-family="Times,serif" font-size="14.00">SafeButtonComponent</text>
</g>
<!-- SafeButtonModule -->
<g id="node2" class="node">
<title>SafeButtonModule</title>
<polygon fill="#8dd3c7" stroke="black" points="286.05,-149.8 283.05,-153.8 262.05,-153.8 259.05,-149.8 163.95,-149.8 163.95,-113.8 286.05,-113.8 286.05,-149.8"/>
<text text-anchor="middle" x="225" y="-127.6" font-family="Times,serif" font-size="14.00">SafeButtonModule</text>
</g>
<!-- SafeButtonComponent&#45;&gt;SafeButtonModule -->
<g id="edge1" class="edge">
<title>SafeButtonComponent&#45;&gt;SafeButtonModule</title>
<path fill="none" stroke="black" d="M376,-84.91C376,-104.14 376,-131.8 376,-131.8 376,-131.8 296.42,-131.8 296.42,-131.8"/>
<polygon fill="black" stroke="black" points="296.42,-128.3 286.42,-131.8 296.42,-135.3 296.42,-128.3"/>
</g>
<!-- SafeButtonComponent  -->
<g id="node5" class="node">
<title>SafeButtonComponent </title>
<polygon fill="#fb8072" stroke="black" points="298.82,-214.8 151.18,-214.8 151.18,-178.8 298.82,-178.8 298.82,-214.8"/>
<text text-anchor="middle" x="225" y="-192.6" font-family="Times,serif" font-size="14.00">SafeButtonComponent </text>
</g>
<!-- SafeButtonModule&#45;&gt;SafeButtonComponent  -->
<g id="edge4" class="edge">
<title>SafeButtonModule&#45;&gt;SafeButtonComponent </title>
<path fill="none" stroke="black" stroke-dasharray="5,2" d="M225,-149.91C225,-149.91 225,-168.79 225,-168.79"/>
<polygon fill="black" stroke="black" points="221.5,-168.79 225,-178.79 228.5,-168.79 221.5,-168.79"/>
</g>
<!-- SafeIconModule -->
<g id="node3" class="node">
<title>SafeIconModule</title>
<polygon fill="#8dd3c7" stroke="black" points="279.8,-84.8 276.8,-88.8 255.8,-88.8 252.8,-84.8 170.2,-84.8 170.2,-48.8 279.8,-48.8 279.8,-84.8"/>
<text text-anchor="middle" x="225" y="-62.6" font-family="Times,serif" font-size="14.00">SafeIconModule</text>
</g>
<!-- SafeIconModule&#45;&gt;SafeButtonModule -->
<g id="edge2" class="edge">
<title>SafeIconModule&#45;&gt;SafeButtonModule</title>
<path fill="none" stroke="black" d="M225,-84.91C225,-84.91 225,-103.79 225,-103.79"/>
<polygon fill="black" stroke="black" points="221.5,-103.79 225,-113.79 228.5,-103.79 221.5,-103.79"/>
</g>
<!-- SafeSpinnerModule -->
<g id="node4" class="node">
<title>SafeSpinnerModule</title>
<polygon fill="#8dd3c7" stroke="black" points="151.98,-84.8 148.98,-88.8 127.98,-88.8 124.98,-84.8 24.02,-84.8 24.02,-48.8 151.98,-48.8 151.98,-84.8"/>
<text text-anchor="middle" x="88" y="-62.6" font-family="Times,serif" font-size="14.00">SafeSpinnerModule</text>
</g>
<!-- SafeSpinnerModule&#45;&gt;SafeButtonModule -->
<g id="edge3" class="edge">
<title>SafeSpinnerModule&#45;&gt;SafeButtonModule</title>
<path fill="none" stroke="black" d="M87.55,-84.91C87.55,-104.14 87.55,-131.8 87.55,-131.8 87.55,-131.8 153.91,-131.8 153.91,-131.8"/>
<polygon fill="black" stroke="black" points="153.91,-135.3 163.91,-131.8 153.91,-128.3 153.91,-135.3"/>
</g>
</g>
</svg>
