<?xml version="1.0" encoding="UTF-8" standalone="no"?>
<!DOCTYPE svg PUBLIC "-//W3C//DTD SVG 1.1//EN"
 "http://www.w3.org/Graphics/SVG/1.1/DTD/svg11.dtd">
<!-- Generated by graphviz version 3.0.0 (20220226.1711)
 -->
<!-- Title: dependencies Pages: 1 -->
<svg width="574pt" height="174pt"
 viewBox="0.00 0.00 574.00 173.80" xmlns="http://www.w3.org/2000/svg" xmlns:xlink="http://www.w3.org/1999/xlink">
<g id="graph0" class="graph" transform="scale(1 1) rotate(0) translate(4 169.8)">
<title>dependencies</title>
<polygon fill="white" stroke="transparent" points="-4,4 -4,-169.8 570,-169.8 570,4 -4,4"/>
<text text-anchor="middle" x="283" y="-8.2" font-family="sans-serif" font-size="14.00">dependencies</text>
<g id="clust1" class="cluster">
<title>cluster_AppPreviewModule</title>
<polygon fill="none" stroke="black" stroke-dasharray="1,5" points="8,-32.8 8,-157.8 558,-157.8 558,-32.8 8,-32.8"/>
</g>
<g id="clust2" class="cluster">
<title>cluster_AppPreviewModule_declarations</title>
<polygon fill="none" stroke="black" points="382,-40.8 382,-92.8 550,-92.8 550,-40.8 382,-40.8"/>
</g>
<g id="clust4" class="cluster">
<title>cluster_AppPreviewModule_imports</title>
<polygon fill="none" stroke="black" points="16,-40.8 16,-92.8 374,-92.8 374,-40.8 16,-40.8"/>
</g>
<!-- AppPreviewComponent -->
<g id="node1" class="node">
<title>AppPreviewComponent</title>
<polygon fill="#ffffb3" stroke="black" points="541.82,-84.8 390.18,-84.8 390.18,-48.8 541.82,-48.8 541.82,-84.8"/>
<text text-anchor="middle" x="466" y="-62.6" font-family="Times,serif" font-size="14.00">AppPreviewComponent</text>
</g>
<!-- AppPreviewModule -->
<g id="node2" class="node">
<title>AppPreviewModule</title>
<polygon fill="#8dd3c7" stroke="black" points="343.54,-149.8 340.54,-153.8 319.54,-153.8 316.54,-149.8 214.46,-149.8 214.46,-113.8 343.54,-113.8 343.54,-149.8"/>
<text text-anchor="middle" x="279" y="-127.6" font-family="Times,serif" font-size="14.00">AppPreviewModule</text>
</g>
<!-- AppPreviewComponent&#45;&gt;AppPreviewModule -->
<g id="edge1" class="edge">
<title>AppPreviewComponent&#45;&gt;AppPreviewModule</title>
<path fill="none" stroke="black" d="M466,-84.91C466,-104.14 466,-131.8 466,-131.8 466,-131.8 353.62,-131.8 353.62,-131.8"/>
<polygon fill="black" stroke="black" points="353.62,-128.3 343.62,-131.8 353.62,-135.3 353.62,-128.3"/>
</g>
<!-- AppPreviewRoutingModule -->
<g id="node3" class="node">
<title>AppPreviewRoutingModule</title>
<polygon fill="#8dd3c7" stroke="black" points="366.16,-84.8 363.16,-88.8 342.16,-88.8 339.16,-84.8 191.84,-84.8 191.84,-48.8 366.16,-48.8 366.16,-84.8"/>
<text text-anchor="middle" x="279" y="-62.6" font-family="Times,serif" font-size="14.00">AppPreviewRoutingModule</text>
</g>
<!-- AppPreviewRoutingModule&#45;&gt;AppPreviewModule -->
<g id="edge2" class="edge">
<title>AppPreviewRoutingModule&#45;&gt;AppPreviewModule</title>
<path fill="none" stroke="black" d="M279,-84.91C279,-84.91 279,-103.79 279,-103.79"/>
<polygon fill="black" stroke="black" points="275.5,-103.79 279,-113.79 282.5,-103.79 275.5,-103.79"/>
</g>
<!-- PreviewToolbarModule -->
<g id="node4" class="node">
<title>PreviewToolbarModule</title>
<polygon fill="#8dd3c7" stroke="black" points="173.75,-84.8 170.75,-88.8 149.75,-88.8 146.75,-84.8 24.25,-84.8 24.25,-48.8 173.75,-48.8 173.75,-84.8"/>
<text text-anchor="middle" x="99" y="-62.6" font-family="Times,serif" font-size="14.00">PreviewToolbarModule</text>
</g>
<!-- PreviewToolbarModule&#45;&gt;AppPreviewModule -->
<g id="edge3" class="edge">
<title>PreviewToolbarModule&#45;&gt;AppPreviewModule</title>
<path fill="none" stroke="black" d="M99,-84.91C99,-104.14 99,-131.8 99,-131.8 99,-131.8 204.27,-131.8 204.27,-131.8"/>
<polygon fill="black" stroke="black" points="204.27,-135.3 214.27,-131.8 204.27,-128.3 204.27,-135.3"/>
</g>
</g>
</svg>
