<?xml version="1.0" encoding="UTF-8" standalone="no"?>
<!DOCTYPE svg PUBLIC "-//W3C//DTD SVG 1.1//EN"
 "http://www.w3.org/Graphics/SVG/1.1/DTD/svg11.dtd">
<!-- Generated by graphviz version 3.0.0 (20220226.1711)
 -->
<!-- Title: dependencies Pages: 1 -->
<svg width="338pt" height="247pt"
 viewBox="0.00 0.00 338.00 246.80" xmlns="http://www.w3.org/2000/svg" xmlns:xlink="http://www.w3.org/1999/xlink">
<g id="graph0" class="graph" transform="scale(1 1) rotate(0) translate(4 242.8)">
<title>dependencies</title>
<polygon fill="white" stroke="transparent" points="-4,4 -4,-242.8 334,-242.8 334,4 -4,4"/>
<text text-anchor="middle" x="165" y="-8.2" font-family="sans-serif" font-size="14.00">dependencies</text>
<g id="clust1" class="cluster">
<title>cluster_SafeTagboxModule</title>
<polygon fill="none" stroke="black" stroke-dasharray="1,5" points="8,-32.8 8,-230.8 322,-230.8 322,-32.8 8,-32.8"/>
</g>
<g id="clust5" class="cluster">
<title>cluster_SafeTagboxModule_exports</title>
<polygon fill="none" stroke="black" points="81,-170.8 81,-222.8 249,-222.8 249,-170.8 81,-170.8"/>
</g>
<g id="clust2" class="cluster">
<title>cluster_SafeTagboxModule_declarations</title>
<polygon fill="none" stroke="black" points="150,-40.8 150,-92.8 314,-92.8 314,-40.8 150,-40.8"/>
</g>
<g id="clust4" class="cluster">
<title>cluster_SafeTagboxModule_imports</title>
<polygon fill="none" stroke="black" points="16,-40.8 16,-92.8 142,-92.8 142,-40.8 16,-40.8"/>
</g>
<!-- SafeTagboxComponent -->
<g id="node1" class="node">
<title>SafeTagboxComponent</title>
<polygon fill="#ffffb3" stroke="black" points="306.47,-84.8 157.53,-84.8 157.53,-48.8 306.47,-48.8 306.47,-84.8"/>
<text text-anchor="middle" x="232" y="-62.6" font-family="Times,serif" font-size="14.00">SafeTagboxComponent</text>
</g>
<!-- SafeTagboxModule -->
<g id="node2" class="node">
<title>SafeTagboxModule</title>
<polygon fill="#8dd3c7" stroke="black" points="228.69,-149.8 225.69,-153.8 204.69,-153.8 201.69,-149.8 101.31,-149.8 101.31,-113.8 228.69,-113.8 228.69,-149.8"/>
<text text-anchor="middle" x="165" y="-127.6" font-family="Times,serif" font-size="14.00">SafeTagboxModule</text>
</g>
<!-- SafeTagboxComponent&#45;&gt;SafeTagboxModule -->
<g id="edge1" class="edge">
<title>SafeTagboxComponent&#45;&gt;SafeTagboxModule</title>
<path fill="none" stroke="black" d="M193.06,-84.91C193.06,-84.91 193.06,-103.79 193.06,-103.79"/>
<polygon fill="black" stroke="black" points="189.56,-103.79 193.06,-113.79 196.56,-103.79 189.56,-103.79"/>
</g>
<!-- SafeTagboxComponent  -->
<g id="node4" class="node">
<title>SafeTagboxComponent </title>
<polygon fill="#fb8072" stroke="black" points="241.47,-214.8 88.53,-214.8 88.53,-178.8 241.47,-178.8 241.47,-214.8"/>
<text text-anchor="middle" x="165" y="-192.6" font-family="Times,serif" font-size="14.00">SafeTagboxComponent </text>
</g>
<!-- SafeTagboxModule&#45;&gt;SafeTagboxComponent  -->
<g id="edge3" class="edge">
<title>SafeTagboxModule&#45;&gt;SafeTagboxComponent </title>
<path fill="none" stroke="black" stroke-dasharray="5,2" d="M165,-149.91C165,-149.91 165,-168.79 165,-168.79"/>
<polygon fill="black" stroke="black" points="161.5,-168.79 165,-178.79 168.5,-168.79 161.5,-168.79"/>
</g>
<!-- SafeIconModule -->
<g id="node3" class="node">
<title>SafeIconModule</title>
<polygon fill="#8dd3c7" stroke="black" points="133.8,-84.8 130.8,-88.8 109.8,-88.8 106.8,-84.8 24.2,-84.8 24.2,-48.8 133.8,-48.8 133.8,-84.8"/>
<text text-anchor="middle" x="79" y="-62.6" font-family="Times,serif" font-size="14.00">SafeIconModule</text>
</g>
<!-- SafeIconModule&#45;&gt;SafeTagboxModule -->
<g id="edge2" class="edge">
<title>SafeIconModule&#45;&gt;SafeTagboxModule</title>
<path fill="none" stroke="black" d="M117.53,-84.91C117.53,-84.91 117.53,-103.79 117.53,-103.79"/>
<polygon fill="black" stroke="black" points="114.03,-103.79 117.53,-113.79 121.03,-103.79 114.03,-103.79"/>
</g>
</g>
</svg>
