<?xml version="1.0" encoding="UTF-8" standalone="no"?>
<!DOCTYPE svg PUBLIC "-//W3C//DTD SVG 1.1//EN"
 "http://www.w3.org/Graphics/SVG/1.1/DTD/svg11.dtd">
<!-- Generated by graphviz version 3.0.0 (20220226.1711)
 -->
<!-- Title: dependencies Pages: 1 -->
<svg width="652pt" height="174pt"
 viewBox="0.00 0.00 652.00 173.80" xmlns="http://www.w3.org/2000/svg" xmlns:xlink="http://www.w3.org/1999/xlink">
<g id="graph0" class="graph" transform="scale(1 1) rotate(0) translate(4 169.8)">
<title>dependencies</title>
<polygon fill="white" stroke="transparent" points="-4,4 -4,-169.8 648,-169.8 648,4 -4,4"/>
<text text-anchor="middle" x="322" y="-8.2" font-family="sans-serif" font-size="14.00">dependencies</text>
<g id="clust1" class="cluster">
<title>cluster_PullJobsModule</title>
<polygon fill="none" stroke="black" stroke-dasharray="1,5" points="8,-32.8 8,-157.8 636,-157.8 636,-32.8 8,-32.8"/>
</g>
<g id="clust5" class="cluster">
<title>cluster_PullJobsModule_imports</title>
<polygon fill="none" stroke="black" points="346,-40.8 346,-92.8 628,-92.8 628,-40.8 346,-40.8"/>
</g>
<g id="clust2" class="cluster">
<title>cluster_PullJobsModule_declarations</title>
<polygon fill="none" stroke="black" points="16,-40.8 16,-92.8 338,-92.8 338,-40.8 16,-40.8"/>
</g>
<!-- PullJobModalComponent -->
<g id="node1" class="node">
<title>PullJobModalComponent</title>
<polygon fill="#ffffb3" stroke="black" points="329.9,-84.8 170.1,-84.8 170.1,-48.8 329.9,-48.8 329.9,-84.8"/>
<text text-anchor="middle" x="250" y="-62.6" font-family="Times,serif" font-size="14.00">PullJobModalComponent</text>
</g>
<!-- PullJobsModule -->
<g id="node3" class="node">
<title>PullJobsModule</title>
<polygon fill="#8dd3c7" stroke="black" points="393.51,-149.8 390.51,-153.8 369.51,-153.8 366.51,-149.8 286.49,-149.8 286.49,-113.8 393.51,-113.8 393.51,-149.8"/>
<text text-anchor="middle" x="340" y="-127.6" font-family="Times,serif" font-size="14.00">PullJobsModule</text>
</g>
<!-- PullJobModalComponent&#45;&gt;PullJobsModule -->
<g id="edge1" class="edge">
<title>PullJobModalComponent&#45;&gt;PullJobsModule</title>
<path fill="none" stroke="black" d="M308.22,-84.91C308.22,-84.91 308.22,-103.79 308.22,-103.79"/>
<polygon fill="black" stroke="black" points="304.72,-103.79 308.22,-113.79 311.72,-103.79 304.72,-103.79"/>
</g>
<!-- PullJobsComponent -->
<g id="node2" class="node">
<title>PullJobsComponent</title>
<polygon fill="#ffffb3" stroke="black" points="152.29,-84.8 23.71,-84.8 23.71,-48.8 152.29,-48.8 152.29,-84.8"/>
<text text-anchor="middle" x="88" y="-62.6" font-family="Times,serif" font-size="14.00">PullJobsComponent</text>
</g>
<!-- PullJobsComponent&#45;&gt;PullJobsModule -->
<g id="edge2" class="edge">
<title>PullJobsComponent&#45;&gt;PullJobsModule</title>
<path fill="none" stroke="black" d="M88,-84.91C88,-104.14 88,-131.8 88,-131.8 88,-131.8 276.25,-131.8 276.25,-131.8"/>
<polygon fill="black" stroke="black" points="276.25,-135.3 286.25,-131.8 276.25,-128.3 276.25,-135.3"/>
</g>
<!-- FormsModule -->
<g id="node4" class="node">
<title>FormsModule</title>
<polygon fill="#8dd3c7" stroke="black" points="619.84,-84.8 616.84,-88.8 595.84,-88.8 592.84,-84.8 524.16,-84.8 524.16,-48.8 619.84,-48.8 619.84,-84.8"/>
<text text-anchor="middle" x="572" y="-62.6" font-family="Times,serif" font-size="14.00">FormsModule</text>
</g>
<!-- FormsModule&#45;&gt;PullJobsModule -->
<g id="edge3" class="edge">
<title>FormsModule&#45;&gt;PullJobsModule</title>
<path fill="none" stroke="black" d="M572,-84.91C572,-104.14 572,-131.8 572,-131.8 572,-131.8 403.52,-131.8 403.52,-131.8"/>
<polygon fill="black" stroke="black" points="403.52,-128.3 393.52,-131.8 403.52,-135.3 403.52,-128.3"/>
</g>
<!-- PullJobsRoutingModule -->
<g id="node5" class="node">
<title>PullJobsRoutingModule</title>
<polygon fill="#8dd3c7" stroke="black" points="506.13,-84.8 503.13,-88.8 482.13,-88.8 479.13,-84.8 353.87,-84.8 353.87,-48.8 506.13,-48.8 506.13,-84.8"/>
<text text-anchor="middle" x="430" y="-62.6" font-family="Times,serif" font-size="14.00">PullJobsRoutingModule</text>
</g>
<!-- PullJobsRoutingModule&#45;&gt;PullJobsModule -->
<g id="edge4" class="edge">
<title>PullJobsRoutingModule&#45;&gt;PullJobsModule</title>
<path fill="none" stroke="black" d="M373.72,-84.91C373.72,-84.91 373.72,-103.79 373.72,-103.79"/>
<polygon fill="black" stroke="black" points="370.22,-103.79 373.72,-113.79 377.22,-103.79 370.22,-103.79"/>
</g>
</g>
</svg>
