<?xml version="1.0" encoding="UTF-8" standalone="no"?>
<!DOCTYPE svg PUBLIC "-//W3C//DTD SVG 1.1//EN"
 "http://www.w3.org/Graphics/SVG/1.1/DTD/svg11.dtd">
<!-- Generated by graphviz version 3.0.0 (20220226.1711)
 -->
<!-- Title: dependencies Pages: 1 -->
<svg width="540pt" height="174pt"
 viewBox="0.00 0.00 540.00 173.80" xmlns="http://www.w3.org/2000/svg" xmlns:xlink="http://www.w3.org/1999/xlink">
<g id="graph0" class="graph" transform="scale(1 1) rotate(0) translate(4 169.8)">
<title>dependencies</title>
<polygon fill="white" stroke="transparent" points="-4,4 -4,-169.8 536,-169.8 536,4 -4,4"/>
<text text-anchor="middle" x="266" y="-8.2" font-family="sans-serif" font-size="14.00">dependencies</text>
<g id="clust1" class="cluster">
<title>cluster_PullJobsModule</title>
<polygon fill="none" stroke="black" stroke-dasharray="1,5" points="8,-32.8 8,-157.8 524,-157.8 524,-32.8 8,-32.8"/>
</g>
<g id="clust4" class="cluster">
<title>cluster_PullJobsModule_imports</title>
<polygon fill="none" stroke="black" points="168,-40.8 168,-92.8 516,-92.8 516,-40.8 168,-40.8"/>
</g>
<g id="clust2" class="cluster">
<title>cluster_PullJobsModule_declarations</title>
<polygon fill="none" stroke="black" points="16,-40.8 16,-92.8 160,-92.8 160,-40.8 16,-40.8"/>
</g>
<!-- PullJobsComponent -->
<g id="node1" class="node">
<title>PullJobsComponent</title>
<polygon fill="#ffffb3" stroke="black" points="152.29,-84.8 23.71,-84.8 23.71,-48.8 152.29,-48.8 152.29,-84.8"/>
<text text-anchor="middle" x="88" y="-62.6" font-family="Times,serif" font-size="14.00">PullJobsComponent</text>
</g>
<!-- PullJobsModule -->
<g id="node2" class="node">
<title>PullJobsModule</title>
<polygon fill="#8dd3c7" stroke="black" points="305.51,-149.8 302.51,-153.8 281.51,-153.8 278.51,-149.8 198.49,-149.8 198.49,-113.8 305.51,-113.8 305.51,-149.8"/>
<text text-anchor="middle" x="252" y="-127.6" font-family="Times,serif" font-size="14.00">PullJobsModule</text>
</g>
<!-- PullJobsComponent&#45;&gt;PullJobsModule -->
<g id="edge1" class="edge">
<title>PullJobsComponent&#45;&gt;PullJobsModule</title>
<path fill="none" stroke="black" d="M88,-84.91C88,-104.14 88,-131.8 88,-131.8 88,-131.8 188.3,-131.8 188.3,-131.8"/>
<polygon fill="black" stroke="black" points="188.3,-135.3 198.3,-131.8 188.3,-128.3 188.3,-135.3"/>
</g>
<!-- EditPullJobModalModule -->
<g id="node3" class="node">
<title>EditPullJobModalModule</title>
<polygon fill="#8dd3c7" stroke="black" points="507.95,-84.8 504.95,-88.8 483.95,-88.8 480.95,-84.8 346.05,-84.8 346.05,-48.8 507.95,-48.8 507.95,-84.8"/>
<text text-anchor="middle" x="427" y="-62.6" font-family="Times,serif" font-size="14.00">EditPullJobModalModule</text>
</g>
<!-- EditPullJobModalModule&#45;&gt;PullJobsModule -->
<g id="edge2" class="edge">
<title>EditPullJobModalModule&#45;&gt;PullJobsModule</title>
<path fill="none" stroke="black" d="M427,-84.91C427,-104.14 427,-131.8 427,-131.8 427,-131.8 315.93,-131.8 315.93,-131.8"/>
<polygon fill="black" stroke="black" points="315.93,-128.3 305.93,-131.8 315.93,-135.3 315.93,-128.3"/>
</g>
<!-- PullJobsRoutingModule -->
<g id="node4" class="node">
<title>PullJobsRoutingModule</title>
<polygon fill="#8dd3c7" stroke="black" points="328.13,-84.8 325.13,-88.8 304.13,-88.8 301.13,-84.8 175.87,-84.8 175.87,-48.8 328.13,-48.8 328.13,-84.8"/>
<text text-anchor="middle" x="252" y="-62.6" font-family="Times,serif" font-size="14.00">PullJobsRoutingModule</text>
</g>
<!-- PullJobsRoutingModule&#45;&gt;PullJobsModule -->
<g id="edge3" class="edge">
<title>PullJobsRoutingModule&#45;&gt;PullJobsModule</title>
<path fill="none" stroke="black" d="M252,-84.91C252,-84.91 252,-103.79 252,-103.79"/>
<polygon fill="black" stroke="black" points="248.5,-103.79 252,-113.79 255.5,-103.79 248.5,-103.79"/>
</g>
</g>
</svg>
