<?xml version="1.0" encoding="UTF-8" standalone="no"?>
<!DOCTYPE svg PUBLIC "-//W3C//DTD SVG 1.1//EN"
 "http://www.w3.org/Graphics/SVG/1.1/DTD/svg11.dtd">
<!-- Generated by graphviz version 2.47.0 (20210316.0004)
 -->
<!-- Title: dependencies Pages: 1 -->
<svg width="1341pt" height="284pt"
 viewBox="0.00 0.00 1341.00 284.00" xmlns="http://www.w3.org/2000/svg" xmlns:xlink="http://www.w3.org/1999/xlink">
<g id="graph0" class="graph" transform="scale(1 1) rotate(0) translate(4 280)">
<title>dependencies</title>
<polygon fill="white" stroke="transparent" points="-4,4 -4,-280 1337,-280 1337,4 -4,4"/>
<text text-anchor="start" x="645.51" y="-42.4" font-family="sans-serif" font-weight="bold" font-size="14.00">Legend</text>
<polygon fill="#ffffb3" stroke="transparent" points="432.5,-10 432.5,-30 452.5,-30 452.5,-10 432.5,-10"/>
<text text-anchor="start" x="456.13" y="-15.4" font-family="sans-serif" font-size="14.00"> &#160;Declarations</text>
<polygon fill="#8dd3c7" stroke="transparent" points="545.5,-10 545.5,-30 565.5,-30 565.5,-10 545.5,-10"/>
<text text-anchor="start" x="569.23" y="-15.4" font-family="sans-serif" font-size="14.00"> &#160;Module</text>
<polygon fill="#80b1d3" stroke="transparent" points="631.5,-10 631.5,-30 651.5,-30 651.5,-10 631.5,-10"/>
<text text-anchor="start" x="655.28" y="-15.4" font-family="sans-serif" font-size="14.00"> &#160;Bootstrap</text>
<polygon fill="#fdb462" stroke="transparent" points="728.5,-10 728.5,-30 748.5,-30 748.5,-10 728.5,-10"/>
<text text-anchor="start" x="752.17" y="-15.4" font-family="sans-serif" font-size="14.00"> &#160;Providers</text>
<polygon fill="#fb8072" stroke="transparent" points="824.5,-10 824.5,-30 844.5,-30 844.5,-10 824.5,-10"/>
<text text-anchor="start" x="848.23" y="-15.4" font-family="sans-serif" font-size="14.00"> &#160;Exports</text>
<g id="clust1" class="cluster">
<title>cluster_SafeGridModule</title>
<polygon fill="none" stroke="black" stroke-dasharray="1,5" points="8,-70 8,-268 1325,-268 1325,-70 8,-70"/>
</g>
<g id="clust2" class="cluster">
<title>cluster_SafeGridModule_declarations</title>
<polygon fill="none" stroke="black" points="1169,-78 1169,-130 1317,-130 1317,-78 1169,-78"/>
</g>
<g id="clust5" class="cluster">
<title>cluster_SafeGridModule_exports</title>
<polygon fill="none" stroke="black" points="612,-208 612,-260 764,-260 764,-208 612,-208"/>
</g>
<g id="clust4" class="cluster">
<title>cluster_SafeGridModule_imports</title>
<polygon fill="none" stroke="black" points="16,-78 16,-130 1161,-130 1161,-78 16,-78"/>
</g>
<!-- SafeGridComponent -->
<g id="node1" class="node">
<title>SafeGridComponent</title>
<polygon fill="#ffffb3" stroke="black" points="1308.86,-122 1177.14,-122 1177.14,-86 1308.86,-86 1308.86,-122"/>
<text text-anchor="middle" x="1243" y="-99.8" font-family="Times,serif" font-size="14.00">SafeGridComponent</text>
</g>
<!-- SafeGridModule -->
<g id="node2" class="node">
<title>SafeGridModule</title>
<polygon fill="#8dd3c7" stroke="black" points="743.08,-187 740.08,-191 719.08,-191 716.08,-187 632.92,-187 632.92,-151 743.08,-151 743.08,-187"/>
<text text-anchor="middle" x="688" y="-164.8" font-family="Times,serif" font-size="14.00">SafeGridModule</text>
</g>
<!-- SafeGridComponent&#45;&gt;SafeGridModule -->
<g id="edge1" class="edge">
<title>SafeGridComponent&#45;&gt;SafeGridModule</title>
<path fill="none" stroke="black" d="M1243,-122.29C1243,-144.21 1243,-178 1243,-178 1243,-178 753.24,-178 753.24,-178"/>
<polygon fill="black" stroke="black" points="753.24,-174.5 743.24,-178 753.24,-181.5 753.24,-174.5"/>
</g>
<!-- SafeGridComponent  -->
<g id="node9" class="node">
<title>SafeGridComponent </title>
<polygon fill="#fb8072" stroke="black" points="755.86,-252 620.14,-252 620.14,-216 755.86,-216 755.86,-252"/>
<text text-anchor="middle" x="688" y="-229.8" font-family="Times,serif" font-size="14.00">SafeGridComponent </text>
</g>
<!-- SafeGridModule&#45;&gt;SafeGridComponent  -->
<g id="edge8" class="edge">
<title>SafeGridModule&#45;&gt;SafeGridComponent </title>
<path fill="none" stroke="black" stroke-dasharray="5,2" d="M688,-187.11C688,-187.11 688,-205.99 688,-205.99"/>
<polygon fill="black" stroke="black" points="684.5,-205.99 688,-215.99 691.5,-205.99 684.5,-205.99"/>
</g>
<!-- SafeArrayFilterMenuModule -->
<g id="node3" class="node">
<title>SafeArrayFilterMenuModule</title>
<polygon fill="#8dd3c7" stroke="black" points="1153.05,-122 1150.05,-126 1129.05,-126 1126.05,-122 972.95,-122 972.95,-86 1153.05,-86 1153.05,-122"/>
<text text-anchor="middle" x="1063" y="-99.8" font-family="Times,serif" font-size="14.00">SafeArrayFilterMenuModule</text>
</g>
<!-- SafeArrayFilterMenuModule&#45;&gt;SafeGridModule -->
<g id="edge2" class="edge">
<title>SafeArrayFilterMenuModule&#45;&gt;SafeGridModule</title>
<path fill="none" stroke="black" d="M1063,-122.11C1063,-141.34 1063,-169 1063,-169 1063,-169 753.33,-169 753.33,-169"/>
<polygon fill="black" stroke="black" points="753.33,-165.5 743.33,-169 753.33,-172.5 753.33,-165.5"/>
</g>
<!-- SafeArrayFilterModule -->
<g id="node4" class="node">
<title>SafeArrayFilterModule</title>
<polygon fill="#8dd3c7" stroke="black" points="954.89,-122 951.89,-126 930.89,-126 927.89,-122 807.11,-122 807.11,-86 954.89,-86 954.89,-122"/>
<text text-anchor="middle" x="881" y="-99.8" font-family="Times,serif" font-size="14.00">SafeArrayFilterModule</text>
</g>
<!-- SafeArrayFilterModule&#45;&gt;SafeGridModule -->
<g id="edge3" class="edge">
<title>SafeArrayFilterModule&#45;&gt;SafeGridModule</title>
<path fill="none" stroke="black" d="M881,-122.03C881,-138.4 881,-160 881,-160 881,-160 753.05,-160 753.05,-160"/>
<polygon fill="black" stroke="black" points="753.05,-156.5 743.05,-160 753.05,-163.5 753.05,-156.5"/>
</g>
<!-- SafeChooseRecordModalModule -->
<g id="node5" class="node">
<title>SafeChooseRecordModalModule</title>
<polygon fill="#8dd3c7" stroke="black" points="789.89,-122 786.89,-126 765.89,-126 762.89,-122 586.11,-122 586.11,-86 789.89,-86 789.89,-122"/>
<text text-anchor="middle" x="688" y="-99.8" font-family="Times,serif" font-size="14.00">SafeChooseRecordModalModule</text>
</g>
<!-- SafeChooseRecordModalModule&#45;&gt;SafeGridModule -->
<g id="edge4" class="edge">
<title>SafeChooseRecordModalModule&#45;&gt;SafeGridModule</title>
<path fill="none" stroke="black" d="M688,-122.11C688,-122.11 688,-140.99 688,-140.99"/>
<polygon fill="black" stroke="black" points="684.5,-140.99 688,-150.99 691.5,-140.99 684.5,-140.99"/>
</g>
<!-- SafeExpandedCommentModule -->
<g id="node6" class="node">
<title>SafeExpandedCommentModule</title>
<polygon fill="#8dd3c7" stroke="black" points="567.63,-122 564.63,-126 543.63,-126 540.63,-122 372.37,-122 372.37,-86 567.63,-86 567.63,-122"/>
<text text-anchor="middle" x="470" y="-99.8" font-family="Times,serif" font-size="14.00">SafeExpandedCommentModule</text>
</g>
<!-- SafeExpandedCommentModule&#45;&gt;SafeGridModule -->
<g id="edge5" class="edge">
<title>SafeExpandedCommentModule&#45;&gt;SafeGridModule</title>
<path fill="none" stroke="black" d="M470,-122.03C470,-138.4 470,-160 470,-160 470,-160 622.71,-160 622.71,-160"/>
<polygon fill="black" stroke="black" points="622.71,-163.5 632.71,-160 622.71,-156.5 622.71,-163.5"/>
</g>
<!-- SafeFormModalModule -->
<g id="node7" class="node">
<title>SafeFormModalModule</title>
<polygon fill="#8dd3c7" stroke="black" points="354.81,-122 351.81,-126 330.81,-126 327.81,-122 203.19,-122 203.19,-86 354.81,-86 354.81,-122"/>
<text text-anchor="middle" x="279" y="-99.8" font-family="Times,serif" font-size="14.00">SafeFormModalModule</text>
</g>
<!-- SafeFormModalModule&#45;&gt;SafeGridModule -->
<g id="edge6" class="edge">
<title>SafeFormModalModule&#45;&gt;SafeGridModule</title>
<path fill="none" stroke="black" d="M279,-122.11C279,-141.34 279,-169 279,-169 279,-169 622.84,-169 622.84,-169"/>
<polygon fill="black" stroke="black" points="622.84,-172.5 632.84,-169 622.84,-165.5 622.84,-172.5"/>
</g>
<!-- SafeRecordModalModule -->
<g id="node8" class="node">
<title>SafeRecordModalModule</title>
<polygon fill="#8dd3c7" stroke="black" points="185.9,-122 182.9,-126 161.9,-126 158.9,-122 24.1,-122 24.1,-86 185.9,-86 185.9,-122"/>
<text text-anchor="middle" x="105" y="-99.8" font-family="Times,serif" font-size="14.00">SafeRecordModalModule</text>
</g>
<!-- SafeRecordModalModule&#45;&gt;SafeGridModule -->
<g id="edge7" class="edge">
<title>SafeRecordModalModule&#45;&gt;SafeGridModule</title>
<path fill="none" stroke="black" d="M105,-122.29C105,-144.21 105,-178 105,-178 105,-178 622.89,-178 622.89,-178"/>
<polygon fill="black" stroke="black" points="622.89,-181.5 632.89,-178 622.89,-174.5 622.89,-181.5"/>
</g>
</g>
</svg>
