<?xml version="1.0" encoding="UTF-8" standalone="no"?>
<!DOCTYPE svg PUBLIC "-//W3C//DTD SVG 1.1//EN"
 "http://www.w3.org/Graphics/SVG/1.1/DTD/svg11.dtd">
<!-- Generated by graphviz version 2.47.0 (20210316.0004)
 -->
<!-- Title: dependencies Pages: 1 -->
<svg width="1758pt" height="284pt"
 viewBox="0.00 0.00 1758.00 284.00" xmlns="http://www.w3.org/2000/svg" xmlns:xlink="http://www.w3.org/1999/xlink">
<g id="graph0" class="graph" transform="scale(1 1) rotate(0) translate(4 280)">
<title>dependencies</title>
<polygon fill="white" stroke="transparent" points="-4,4 -4,-280 1754,-280 1754,4 -4,4"/>
<text text-anchor="start" x="854.01" y="-42.4" font-family="sans-serif" font-weight="bold" font-size="14.00">Legend</text>
<polygon fill="#ffffb3" stroke="transparent" points="641,-10 641,-30 661,-30 661,-10 641,-10"/>
<text text-anchor="start" x="664.63" y="-15.4" font-family="sans-serif" font-size="14.00"> &#160;Declarations</text>
<polygon fill="#8dd3c7" stroke="transparent" points="754,-10 754,-30 774,-30 774,-10 754,-10"/>
<text text-anchor="start" x="777.73" y="-15.4" font-family="sans-serif" font-size="14.00"> &#160;Module</text>
<polygon fill="#80b1d3" stroke="transparent" points="840,-10 840,-30 860,-30 860,-10 840,-10"/>
<text text-anchor="start" x="863.78" y="-15.4" font-family="sans-serif" font-size="14.00"> &#160;Bootstrap</text>
<polygon fill="#fdb462" stroke="transparent" points="937,-10 937,-30 957,-30 957,-10 937,-10"/>
<text text-anchor="start" x="960.67" y="-15.4" font-family="sans-serif" font-size="14.00"> &#160;Providers</text>
<polygon fill="#fb8072" stroke="transparent" points="1033,-10 1033,-30 1053,-30 1053,-10 1033,-10"/>
<text text-anchor="start" x="1056.73" y="-15.4" font-family="sans-serif" font-size="14.00"> &#160;Exports</text>
<g id="clust1" class="cluster">
<title>cluster_SafeGridModule</title>
<polygon fill="none" stroke="black" stroke-dasharray="1,5" points="8,-70 8,-268 1742,-268 1742,-70 8,-70"/>
</g>
<g id="clust4" class="cluster">
<title>cluster_SafeGridModule_imports</title>
<polygon fill="none" stroke="black" points="172,-78 172,-130 1734,-130 1734,-78 172,-78"/>
</g>
<g id="clust2" class="cluster">
<title>cluster_SafeGridModule_declarations</title>
<polygon fill="none" stroke="black" points="16,-78 16,-130 164,-130 164,-78 16,-78"/>
</g>
<g id="clust5" class="cluster">
<title>cluster_SafeGridModule_exports</title>
<polygon fill="none" stroke="black" points="753,-208 753,-260 905,-260 905,-208 753,-208"/>
</g>
<!-- SafeGridComponent -->
<g id="node1" class="node">
<title>SafeGridComponent</title>
<polygon fill="#ffffb3" stroke="black" points="155.86,-122 24.14,-122 24.14,-86 155.86,-86 155.86,-122"/>
<text text-anchor="middle" x="90" y="-99.8" font-family="Times,serif" font-size="14.00">SafeGridComponent</text>
</g>
<!-- SafeGridModule -->
<g id="node2" class="node">
<title>SafeGridModule</title>
<polygon fill="#8dd3c7" stroke="black" points="884.08,-187 881.08,-191 860.08,-191 857.08,-187 773.92,-187 773.92,-151 884.08,-151 884.08,-187"/>
<text text-anchor="middle" x="829" y="-164.8" font-family="Times,serif" font-size="14.00">SafeGridModule</text>
</g>
<!-- SafeGridComponent&#45;&gt;SafeGridModule -->
<g id="edge1" class="edge">
<title>SafeGridComponent&#45;&gt;SafeGridModule</title>
<path fill="none" stroke="black" d="M90,-122.01C90,-144.49 90,-180 90,-180 90,-180 763.76,-180 763.76,-180"/>
<polygon fill="black" stroke="black" points="763.76,-183.5 773.76,-180 763.76,-176.5 763.76,-183.5"/>
</g>
<!-- SafeGridComponent  -->
<g id="node11" class="node">
<title>SafeGridComponent </title>
<polygon fill="#fb8072" stroke="black" points="896.86,-252 761.14,-252 761.14,-216 896.86,-216 896.86,-252"/>
<text text-anchor="middle" x="829" y="-229.8" font-family="Times,serif" font-size="14.00">SafeGridComponent </text>
</g>
<!-- SafeGridModule&#45;&gt;SafeGridComponent  -->
<g id="edge10" class="edge">
<title>SafeGridModule&#45;&gt;SafeGridComponent </title>
<path fill="none" stroke="black" stroke-dasharray="5,2" d="M829,-187.11C829,-187.11 829,-205.99 829,-205.99"/>
<polygon fill="black" stroke="black" points="825.5,-205.99 829,-215.99 832.5,-205.99 825.5,-205.99"/>
</g>
<!-- SafeArrayFilterMenuModule -->
<g id="node3" class="node">
<title>SafeArrayFilterMenuModule</title>
<polygon fill="#8dd3c7" stroke="black" points="1726.05,-122 1723.05,-126 1702.05,-126 1699.05,-122 1545.95,-122 1545.95,-86 1726.05,-86 1726.05,-122"/>
<text text-anchor="middle" x="1636" y="-99.8" font-family="Times,serif" font-size="14.00">SafeArrayFilterMenuModule</text>
</g>
<!-- SafeArrayFilterMenuModule&#45;&gt;SafeGridModule -->
<g id="edge2" class="edge">
<title>SafeArrayFilterMenuModule&#45;&gt;SafeGridModule</title>
<path fill="none" stroke="black" d="M1636,-122.01C1636,-144.49 1636,-180 1636,-180 1636,-180 894.15,-180 894.15,-180"/>
<polygon fill="black" stroke="black" points="894.15,-176.5 884.15,-180 894.15,-183.5 894.15,-176.5"/>
</g>
<!-- SafeArrayFilterModule -->
<g id="node4" class="node">
<title>SafeArrayFilterModule</title>
<polygon fill="#8dd3c7" stroke="black" points="1527.89,-122 1524.89,-126 1503.89,-126 1500.89,-122 1380.11,-122 1380.11,-86 1527.89,-86 1527.89,-122"/>
<text text-anchor="middle" x="1454" y="-99.8" font-family="Times,serif" font-size="14.00">SafeArrayFilterModule</text>
</g>
<!-- SafeArrayFilterModule&#45;&gt;SafeGridModule -->
<g id="edge3" class="edge">
<title>SafeArrayFilterModule&#45;&gt;SafeGridModule</title>
<path fill="none" stroke="black" d="M1454,-122.13C1454,-142.57 1454,-173 1454,-173 1454,-173 894.19,-173 894.19,-173"/>
<polygon fill="black" stroke="black" points="894.19,-169.5 884.19,-173 894.19,-176.5 894.19,-169.5"/>
</g>
<!-- SafeChooseRecordModalModule -->
<g id="node5" class="node">
<title>SafeChooseRecordModalModule</title>
<polygon fill="#8dd3c7" stroke="black" points="1362.89,-122 1359.89,-126 1338.89,-126 1335.89,-122 1159.11,-122 1159.11,-86 1362.89,-86 1362.89,-122"/>
<text text-anchor="middle" x="1261" y="-99.8" font-family="Times,serif" font-size="14.00">SafeChooseRecordModalModule</text>
</g>
<!-- SafeChooseRecordModalModule&#45;&gt;SafeGridModule -->
<g id="edge4" class="edge">
<title>SafeChooseRecordModalModule&#45;&gt;SafeGridModule</title>
<path fill="none" stroke="black" d="M1261,-122.27C1261,-140.56 1261,-166 1261,-166 1261,-166 894.15,-166 894.15,-166"/>
<polygon fill="black" stroke="black" points="894.15,-162.5 884.15,-166 894.15,-169.5 894.15,-162.5"/>
</g>
<!-- SafeDropdownFilterMenuModule -->
<g id="node6" class="node">
<title>SafeDropdownFilterMenuModule</title>
<polygon fill="#8dd3c7" stroke="black" points="1141.78,-122 1138.78,-126 1117.78,-126 1114.78,-122 934.22,-122 934.22,-86 1141.78,-86 1141.78,-122"/>
<text text-anchor="middle" x="1038" y="-99.8" font-family="Times,serif" font-size="14.00">SafeDropdownFilterMenuModule</text>
</g>
<!-- SafeDropdownFilterMenuModule&#45;&gt;SafeGridModule -->
<g id="edge5" class="edge">
<title>SafeDropdownFilterMenuModule&#45;&gt;SafeGridModule</title>
<path fill="none" stroke="black" d="M1038,-122.01C1038,-138.05 1038,-159 1038,-159 1038,-159 894.19,-159 894.19,-159"/>
<polygon fill="black" stroke="black" points="894.19,-155.5 884.19,-159 894.19,-162.5 894.19,-155.5"/>
</g>
<!-- SafeDropdownFilterModule -->
<g id="node7" class="node">
<title>SafeDropdownFilterModule</title>
<polygon fill="#8dd3c7" stroke="black" points="916.13,-122 913.13,-126 892.13,-126 889.13,-122 741.87,-122 741.87,-86 916.13,-86 916.13,-122"/>
<text text-anchor="middle" x="829" y="-99.8" font-family="Times,serif" font-size="14.00">SafeDropdownFilterModule</text>
</g>
<!-- SafeDropdownFilterModule&#45;&gt;SafeGridModule -->
<g id="edge6" class="edge">
<title>SafeDropdownFilterModule&#45;&gt;SafeGridModule</title>
<path fill="none" stroke="black" d="M829,-122.11C829,-122.11 829,-140.99 829,-140.99"/>
<polygon fill="black" stroke="black" points="825.5,-140.99 829,-150.99 832.5,-140.99 825.5,-140.99"/>
</g>
<!-- SafeExpandedCommentModule -->
<g id="node8" class="node">
<title>SafeExpandedCommentModule</title>
<polygon fill="#8dd3c7" stroke="black" points="723.63,-122 720.63,-126 699.63,-126 696.63,-122 528.37,-122 528.37,-86 723.63,-86 723.63,-122"/>
<text text-anchor="middle" x="626" y="-99.8" font-family="Times,serif" font-size="14.00">SafeExpandedCommentModule</text>
</g>
<!-- SafeExpandedCommentModule&#45;&gt;SafeGridModule -->
<g id="edge7" class="edge">
<title>SafeExpandedCommentModule&#45;&gt;SafeGridModule</title>
<path fill="none" stroke="black" d="M626,-122.01C626,-138.05 626,-159 626,-159 626,-159 763.8,-159 763.8,-159"/>
<polygon fill="black" stroke="black" points="763.8,-162.5 773.8,-159 763.8,-155.5 763.8,-162.5"/>
</g>
<!-- SafeFormModalModule -->
<g id="node9" class="node">
<title>SafeFormModalModule</title>
<polygon fill="#8dd3c7" stroke="black" points="510.81,-122 507.81,-126 486.81,-126 483.81,-122 359.19,-122 359.19,-86 510.81,-86 510.81,-122"/>
<text text-anchor="middle" x="435" y="-99.8" font-family="Times,serif" font-size="14.00">SafeFormModalModule</text>
</g>
<!-- SafeFormModalModule&#45;&gt;SafeGridModule -->
<g id="edge8" class="edge">
<title>SafeFormModalModule&#45;&gt;SafeGridModule</title>
<path fill="none" stroke="black" d="M435,-122.27C435,-140.56 435,-166 435,-166 435,-166 763.8,-166 763.8,-166"/>
<polygon fill="black" stroke="black" points="763.8,-169.5 773.8,-166 763.8,-162.5 763.8,-169.5"/>
</g>
<!-- SafeRecordModalModule -->
<g id="node10" class="node">
<title>SafeRecordModalModule</title>
<polygon fill="#8dd3c7" stroke="black" points="341.9,-122 338.9,-126 317.9,-126 314.9,-122 180.1,-122 180.1,-86 341.9,-86 341.9,-122"/>
<text text-anchor="middle" x="261" y="-99.8" font-family="Times,serif" font-size="14.00">SafeRecordModalModule</text>
</g>
<!-- SafeRecordModalModule&#45;&gt;SafeGridModule -->
<g id="edge9" class="edge">
<title>SafeRecordModalModule&#45;&gt;SafeGridModule</title>
<path fill="none" stroke="black" d="M261,-122.13C261,-142.57 261,-173 261,-173 261,-173 763.76,-173 763.76,-173"/>
<polygon fill="black" stroke="black" points="763.76,-176.5 773.76,-173 763.76,-169.5 763.76,-176.5"/>
</g>
</g>
</svg>
