<?xml version="1.0" encoding="UTF-8" standalone="no"?>
<!DOCTYPE svg PUBLIC "-//W3C//DTD SVG 1.1//EN"
 "http://www.w3.org/Graphics/SVG/1.1/DTD/svg11.dtd">
<!-- Generated by graphviz version 2.47.0 (20210316.0004)
 -->
<!-- Title: dependencies Pages: 1 -->
<svg width="1341pt" height="284pt"
 viewBox="0.00 0.00 1341.00 284.00" xmlns="http://www.w3.org/2000/svg" xmlns:xlink="http://www.w3.org/1999/xlink">
<g id="graph0" class="graph" transform="scale(1 1) rotate(0) translate(4 280)">
<title>dependencies</title>
<polygon fill="white" stroke="transparent" points="-4,4 -4,-280 1337,-280 1337,4 -4,4"/>
<text text-anchor="start" x="645.51" y="-42.4" font-family="sans-serif" font-weight="bold" font-size="14.00">Legend</text>
<polygon fill="#ffffb3" stroke="transparent" points="432.5,-10 432.5,-30 452.5,-30 452.5,-10 432.5,-10"/>
<text text-anchor="start" x="456.13" y="-15.4" font-family="sans-serif" font-size="14.00"> &#160;Declarations</text>
<polygon fill="#8dd3c7" stroke="transparent" points="545.5,-10 545.5,-30 565.5,-30 565.5,-10 545.5,-10"/>
<text text-anchor="start" x="569.23" y="-15.4" font-family="sans-serif" font-size="14.00"> &#160;Module</text>
<polygon fill="#80b1d3" stroke="transparent" points="631.5,-10 631.5,-30 651.5,-30 651.5,-10 631.5,-10"/>
<text text-anchor="start" x="655.28" y="-15.4" font-family="sans-serif" font-size="14.00"> &#160;Bootstrap</text>
<polygon fill="#fdb462" stroke="transparent" points="728.5,-10 728.5,-30 748.5,-30 748.5,-10 728.5,-10"/>
<text text-anchor="start" x="752.17" y="-15.4" font-family="sans-serif" font-size="14.00"> &#160;Providers</text>
<polygon fill="#fb8072" stroke="transparent" points="824.5,-10 824.5,-30 844.5,-30 844.5,-10 824.5,-10"/>
<text text-anchor="start" x="848.23" y="-15.4" font-family="sans-serif" font-size="14.00"> &#160;Exports</text>
<g id="clust1" class="cluster">
<title>cluster_SafeGridModule</title>
<polygon fill="none" stroke="black" stroke-dasharray="1,5" points="8,-70 8,-268 1325,-268 1325,-70 8,-70"/>
</g>
<g id="clust4" class="cluster">
<title>cluster_SafeGridModule_imports</title>
<polygon fill="none" stroke="black" points="172,-78 172,-130 1317,-130 1317,-78 172,-78"/>
</g>
<g id="clust5" class="cluster">
<title>cluster_SafeGridModule_exports</title>
<polygon fill="none" stroke="black" points="550,-208 550,-260 702,-260 702,-208 550,-208"/>
</g>
<g id="clust2" class="cluster">
<title>cluster_SafeGridModule_declarations</title>
<polygon fill="none" stroke="black" points="16,-78 16,-130 164,-130 164,-78 16,-78"/>
</g>
<!-- SafeGridComponent -->
<g id="node1" class="node">
<title>SafeGridComponent</title>
<polygon fill="#ffffb3" stroke="black" points="155.86,-122 24.14,-122 24.14,-86 155.86,-86 155.86,-122"/>
<text text-anchor="middle" x="90" y="-99.8" font-family="Times,serif" font-size="14.00">SafeGridComponent</text>
</g>
<!-- SafeGridModule -->
<g id="node2" class="node">
<title>SafeGridModule</title>
<polygon fill="#8dd3c7" stroke="black" points="681.08,-187 678.08,-191 657.08,-191 654.08,-187 570.92,-187 570.92,-151 681.08,-151 681.08,-187"/>
<text text-anchor="middle" x="626" y="-164.8" font-family="Times,serif" font-size="14.00">SafeGridModule</text>
</g>
<!-- SafeGridComponent&#45;&gt;SafeGridModule -->
<g id="edge1" class="edge">
<title>SafeGridComponent&#45;&gt;SafeGridModule</title>
<path fill="none" stroke="black" d="M90,-122.29C90,-144.21 90,-178 90,-178 90,-178 560.66,-178 560.66,-178"/>
<polygon fill="black" stroke="black" points="560.66,-181.5 570.66,-178 560.66,-174.5 560.66,-181.5"/>
</g>
<!-- SafeGridComponent  -->
<g id="node9" class="node">
<title>SafeGridComponent </title>
<polygon fill="#fb8072" stroke="black" points="693.86,-252 558.14,-252 558.14,-216 693.86,-216 693.86,-252"/>
<text text-anchor="middle" x="626" y="-229.8" font-family="Times,serif" font-size="14.00">SafeGridComponent </text>
</g>
<!-- SafeGridModule&#45;&gt;SafeGridComponent  -->
<g id="edge8" class="edge">
<title>SafeGridModule&#45;&gt;SafeGridComponent </title>
<path fill="none" stroke="black" stroke-dasharray="5,2" d="M626,-187.11C626,-187.11 626,-205.99 626,-205.99"/>
<polygon fill="black" stroke="black" points="622.5,-205.99 626,-215.99 629.5,-205.99 622.5,-205.99"/>
</g>
<!-- SafeArrayFilterMenuModule -->
<g id="node3" class="node">
<title>SafeArrayFilterMenuModule</title>
<polygon fill="#8dd3c7" stroke="black" points="1309.05,-122 1306.05,-126 1285.05,-126 1282.05,-122 1128.95,-122 1128.95,-86 1309.05,-86 1309.05,-122"/>
<text text-anchor="middle" x="1219" y="-99.8" font-family="Times,serif" font-size="14.00">SafeArrayFilterMenuModule</text>
</g>
<!-- SafeArrayFilterMenuModule&#45;&gt;SafeGridModule -->
<g id="edge2" class="edge">
<title>SafeArrayFilterMenuModule&#45;&gt;SafeGridModule</title>
<path fill="none" stroke="black" d="M1219,-122.29C1219,-144.21 1219,-178 1219,-178 1219,-178 691.26,-178 691.26,-178"/>
<polygon fill="black" stroke="black" points="691.26,-174.5 681.26,-178 691.26,-181.5 691.26,-174.5"/>
</g>
<!-- SafeArrayFilterModule -->
<g id="node4" class="node">
<title>SafeArrayFilterModule</title>
<polygon fill="#8dd3c7" stroke="black" points="1110.89,-122 1107.89,-126 1086.89,-126 1083.89,-122 963.11,-122 963.11,-86 1110.89,-86 1110.89,-122"/>
<text text-anchor="middle" x="1037" y="-99.8" font-family="Times,serif" font-size="14.00">SafeArrayFilterModule</text>
</g>
<!-- SafeArrayFilterModule&#45;&gt;SafeGridModule -->
<g id="edge3" class="edge">
<title>SafeArrayFilterModule&#45;&gt;SafeGridModule</title>
<path fill="none" stroke="black" d="M1037,-122.11C1037,-141.34 1037,-169 1037,-169 1037,-169 691.43,-169 691.43,-169"/>
<polygon fill="black" stroke="black" points="691.43,-165.5 681.43,-169 691.43,-172.5 691.43,-165.5"/>
</g>
<!-- SafeChooseRecordModalModule -->
<g id="node5" class="node">
<title>SafeChooseRecordModalModule</title>
<polygon fill="#8dd3c7" stroke="black" points="945.89,-122 942.89,-126 921.89,-126 918.89,-122 742.11,-122 742.11,-86 945.89,-86 945.89,-122"/>
<text text-anchor="middle" x="844" y="-99.8" font-family="Times,serif" font-size="14.00">SafeChooseRecordModalModule</text>
</g>
<!-- SafeChooseRecordModalModule&#45;&gt;SafeGridModule -->
<g id="edge4" class="edge">
<title>SafeChooseRecordModalModule&#45;&gt;SafeGridModule</title>
<path fill="none" stroke="black" d="M844,-122.03C844,-138.4 844,-160 844,-160 844,-160 691.29,-160 691.29,-160"/>
<polygon fill="black" stroke="black" points="691.29,-156.5 681.29,-160 691.29,-163.5 691.29,-156.5"/>
</g>
<!-- SafeExpandedCommentModule -->
<g id="node6" class="node">
<title>SafeExpandedCommentModule</title>
<polygon fill="#8dd3c7" stroke="black" points="723.63,-122 720.63,-126 699.63,-126 696.63,-122 528.37,-122 528.37,-86 723.63,-86 723.63,-122"/>
<text text-anchor="middle" x="626" y="-99.8" font-family="Times,serif" font-size="14.00">SafeExpandedCommentModule</text>
</g>
<!-- SafeExpandedCommentModule&#45;&gt;SafeGridModule -->
<g id="edge5" class="edge">
<title>SafeExpandedCommentModule&#45;&gt;SafeGridModule</title>
<path fill="none" stroke="black" d="M626,-122.11C626,-122.11 626,-140.99 626,-140.99"/>
<polygon fill="black" stroke="black" points="622.5,-140.99 626,-150.99 629.5,-140.99 622.5,-140.99"/>
</g>
<!-- SafeFormModalModule -->
<g id="node7" class="node">
<title>SafeFormModalModule</title>
<polygon fill="#8dd3c7" stroke="black" points="510.81,-122 507.81,-126 486.81,-126 483.81,-122 359.19,-122 359.19,-86 510.81,-86 510.81,-122"/>
<text text-anchor="middle" x="435" y="-99.8" font-family="Times,serif" font-size="14.00">SafeFormModalModule</text>
</g>
<!-- SafeFormModalModule&#45;&gt;SafeGridModule -->
<g id="edge6" class="edge">
<title>SafeFormModalModule&#45;&gt;SafeGridModule</title>
<path fill="none" stroke="black" d="M435,-122.03C435,-138.4 435,-160 435,-160 435,-160 560.75,-160 560.75,-160"/>
<polygon fill="black" stroke="black" points="560.75,-163.5 570.75,-160 560.75,-156.5 560.75,-163.5"/>
</g>
<!-- SafeRecordModalModule -->
<g id="node8" class="node">
<title>SafeRecordModalModule</title>
<polygon fill="#8dd3c7" stroke="black" points="341.9,-122 338.9,-126 317.9,-126 314.9,-122 180.1,-122 180.1,-86 341.9,-86 341.9,-122"/>
<text text-anchor="middle" x="261" y="-99.8" font-family="Times,serif" font-size="14.00">SafeRecordModalModule</text>
</g>
<!-- SafeRecordModalModule&#45;&gt;SafeGridModule -->
<g id="edge7" class="edge">
<title>SafeRecordModalModule&#45;&gt;SafeGridModule</title>
<path fill="none" stroke="black" d="M261,-122.11C261,-141.34 261,-169 261,-169 261,-169 560.56,-169 560.56,-169"/>
<polygon fill="black" stroke="black" points="560.56,-172.5 570.56,-169 560.56,-165.5 560.56,-172.5"/>
</g>
</g>
</svg>
