<?xml version="1.0" encoding="UTF-8" standalone="no"?>
<!DOCTYPE svg PUBLIC "-//W3C//DTD SVG 1.1//EN"
 "http://www.w3.org/Graphics/SVG/1.1/DTD/svg11.dtd">
<!-- Generated by graphviz version 2.47.0 (20210316.0004)
 -->
<!-- Title: dependencies Pages: 1 -->
<svg width="3353pt" height="349pt"
 viewBox="0.00 0.00 3353.00 349.00" xmlns="http://www.w3.org/2000/svg" xmlns:xlink="http://www.w3.org/1999/xlink">
<g id="graph0" class="graph" transform="scale(1 1) rotate(0) translate(4 345)">
<title>dependencies</title>
<polygon fill="white" stroke="transparent" points="-4,4 -4,-345 3349,-345 3349,4 -4,4"/>
<text text-anchor="start" x="1651.51" y="-42.4" font-family="sans-serif" font-weight="bold" font-size="14.00">Legend</text>
<polygon fill="#ffffb3" stroke="transparent" points="1438.5,-10 1438.5,-30 1458.5,-30 1458.5,-10 1438.5,-10"/>
<text text-anchor="start" x="1462.13" y="-15.4" font-family="sans-serif" font-size="14.00"> &#160;Declarations</text>
<polygon fill="#8dd3c7" stroke="transparent" points="1551.5,-10 1551.5,-30 1571.5,-30 1571.5,-10 1551.5,-10"/>
<text text-anchor="start" x="1575.23" y="-15.4" font-family="sans-serif" font-size="14.00"> &#160;Module</text>
<polygon fill="#80b1d3" stroke="transparent" points="1637.5,-10 1637.5,-30 1657.5,-30 1657.5,-10 1637.5,-10"/>
<text text-anchor="start" x="1661.28" y="-15.4" font-family="sans-serif" font-size="14.00"> &#160;Bootstrap</text>
<polygon fill="#fdb462" stroke="transparent" points="1734.5,-10 1734.5,-30 1754.5,-30 1754.5,-10 1734.5,-10"/>
<text text-anchor="start" x="1758.17" y="-15.4" font-family="sans-serif" font-size="14.00"> &#160;Providers</text>
<polygon fill="#fb8072" stroke="transparent" points="1830.5,-10 1830.5,-30 1850.5,-30 1850.5,-10 1830.5,-10"/>
<text text-anchor="start" x="1854.23" y="-15.4" font-family="sans-serif" font-size="14.00"> &#160;Exports</text>
<g id="clust1" class="cluster">
<title>cluster_SafeGridModule</title>
<polygon fill="none" stroke="black" stroke-dasharray="1,5" points="8,-70 8,-333 3337,-333 3337,-70 8,-70"/>
</g>
<g id="clust2" class="cluster">
<title>cluster_SafeGridModule_declarations</title>
<polygon fill="none" stroke="black" points="1810,-143 1810,-195 1958,-195 1958,-143 1810,-143"/>
</g>
<g id="clust5" class="cluster">
<title>cluster_SafeGridModule_exports</title>
<polygon fill="none" stroke="black" points="2467,-273 2467,-325 2619,-325 2619,-273 2467,-273"/>
</g>
<g id="clust4" class="cluster">
<title>cluster_SafeGridModule_imports</title>
<polygon fill="none" stroke="black" points="1966,-143 1966,-195 3329,-195 3329,-143 1966,-143"/>
</g>
<g id="clust3" class="cluster">
<title>cluster_SafeGridModule_SafeGridComponent_providers</title>
<polygon fill="none" stroke="black" points="16,-78 16,-130 3329,-130 3329,-78 16,-78"/>
</g>
<!-- SafeGridComponent -->
<g id="node1" class="node">
<title>SafeGridComponent</title>
<polygon fill="#ffffb3" stroke="black" points="1949.86,-187 1818.14,-187 1818.14,-151 1949.86,-151 1949.86,-187"/>
<text text-anchor="middle" x="1884" y="-164.8" font-family="Times,serif" font-size="14.00">SafeGridComponent</text>
</g>
<!-- SafeGridModule -->
<g id="node2" class="node">
<title>SafeGridModule</title>
<polygon fill="#8dd3c7" stroke="black" points="2598.08,-252 2595.08,-256 2574.08,-256 2571.08,-252 2487.92,-252 2487.92,-216 2598.08,-216 2598.08,-252"/>
<text text-anchor="middle" x="2543" y="-229.8" font-family="Times,serif" font-size="14.00">SafeGridModule</text>
</g>
<!-- SafeGridComponent&#45;&gt;SafeGridModule -->
<g id="edge1" class="edge">
<title>SafeGridComponent&#45;&gt;SafeGridModule</title>
<path fill="none" stroke="black" d="M1884,-187.29C1884,-209.21 1884,-243 1884,-243 1884,-243 2477.95,-243 2477.95,-243"/>
<polygon fill="black" stroke="black" points="2477.95,-246.5 2487.95,-243 2477.95,-239.5 2477.95,-246.5"/>
</g>
<!-- SafeGridComponent  -->
<g id="node18" class="node">
<title>SafeGridComponent </title>
<polygon fill="#fb8072" stroke="black" points="2610.86,-317 2475.14,-317 2475.14,-281 2610.86,-281 2610.86,-317"/>
<text text-anchor="middle" x="2543" y="-294.8" font-family="Times,serif" font-size="14.00">SafeGridComponent </text>
</g>
<!-- SafeGridModule&#45;&gt;SafeGridComponent  -->
<g id="edge17" class="edge">
<title>SafeGridModule&#45;&gt;SafeGridComponent </title>
<path fill="none" stroke="black" stroke-dasharray="5,2" d="M2543,-252.11C2543,-252.11 2543,-270.99 2543,-270.99"/>
<polygon fill="black" stroke="black" points="2539.5,-270.99 2543,-280.99 2546.5,-270.99 2539.5,-270.99"/>
</g>
<!-- PopupService -->
<g id="node3" class="node">
<title>PopupService</title>
<ellipse fill="#fdb462" stroke="black" cx="3256" cy="-104" rx="64.85" ry="18"/>
<text text-anchor="middle" x="3256" y="-99.8" font-family="Times,serif" font-size="14.00">PopupService</text>
</g>
<!-- PopupService&#45;&gt;SafeGridComponent -->
<g id="edge2" class="edge">
<title>PopupService&#45;&gt;SafeGridComponent</title>
<path fill="none" stroke="black" d="M3256,-122.49C3256,-134.14 3256,-147 3256,-147 3256,-147 1931.09,-147 1931.09,-147 1931.09,-147 1931.09,-147.38 1931.09,-147.38"/>
<polygon fill="black" stroke="black" points="1927.59,-140.83 1931.09,-150.83 1934.59,-140.83 1927.59,-140.83"/>
</g>
<!-- ResizeBatchService -->
<g id="node4" class="node">
<title>ResizeBatchService</title>
<ellipse fill="#fdb462" stroke="black" cx="3085" cy="-104" rx="88.02" ry="18"/>
<text text-anchor="middle" x="3085" y="-99.8" font-family="Times,serif" font-size="14.00">ResizeBatchService</text>
</g>
<!-- ResizeBatchService&#45;&gt;SafeGridComponent -->
<g id="edge3" class="edge">
<title>ResizeBatchService&#45;&gt;SafeGridComponent</title>
<path fill="none" stroke="black" d="M3059.72,-121.67C3059.72,-131.59 3059.72,-142 3059.72,-142 3059.72,-142 1912.26,-142 1912.26,-142 1912.26,-142 1912.26,-142.88 1912.26,-142.88"/>
<polygon fill="black" stroke="black" points="1908.76,-140.84 1912.26,-150.84 1915.76,-140.84 1908.76,-140.84"/>
</g>
<!-- CalendarDOMService -->
<g id="node5" class="node">
<title>CalendarDOMService</title>
<ellipse fill="#fdb462" stroke="black" cx="2881" cy="-104" rx="97.25" ry="18"/>
<text text-anchor="middle" x="2881" y="-99.8" font-family="Times,serif" font-size="14.00">CalendarDOMService</text>
</g>
<!-- CalendarDOMService&#45;&gt;SafeGridComponent -->
<g id="edge4" class="edge">
<title>CalendarDOMService&#45;&gt;SafeGridComponent</title>
<path fill="none" stroke="black" d="M2870.63,-122.04C2870.63,-129.75 2870.63,-137 2870.63,-137 2870.63,-137 1893.42,-137 1893.42,-137 1893.42,-137 1893.42,-140.76 1893.42,-140.76"/>
<polygon fill="black" stroke="black" points="1889.92,-140.76 1893.42,-150.76 1896.92,-140.76 1889.92,-140.76"/>
</g>
<!-- MonthViewService -->
<g id="node6" class="node">
<title>MonthViewService</title>
<ellipse fill="#fdb462" stroke="black" cx="2679" cy="-104" rx="86.82" ry="18"/>
<text text-anchor="middle" x="2679" y="-99.8" font-family="Times,serif" font-size="14.00">MonthViewService</text>
</g>
<!-- MonthViewService&#45;&gt;SafeGridComponent -->
<g id="edge5" class="edge">
<title>MonthViewService&#45;&gt;SafeGridComponent</title>
<path fill="none" stroke="black" d="M2662.33,-121.89C2662.33,-127.38 2662.33,-132 2662.33,-132 2662.33,-132 1874.58,-132 1874.58,-132 1874.58,-132 1874.58,-140.93 1874.58,-140.93"/>
<polygon fill="black" stroke="black" points="1871.08,-140.93 1874.58,-150.93 1878.08,-140.93 1871.08,-140.93"/>
</g>
<!-- WeekNamesService -->
<g id="node7" class="node">
<title>WeekNamesService</title>
<ellipse fill="#fdb462" stroke="black" cx="2485" cy="-104" rx="89.14" ry="18"/>
<text text-anchor="middle" x="2485" y="-99.8" font-family="Times,serif" font-size="14.00">WeekNamesService</text>
</g>
<!-- WeekNamesService&#45;&gt;SafeGridComponent -->
<g id="edge6" class="edge">
<title>WeekNamesService&#45;&gt;SafeGridComponent</title>
<path fill="none" stroke="black" d="M2467.75,-121.67C2467.75,-124.75 2467.75,-127 2467.75,-127 2467.75,-127 1855.74,-127 1855.74,-127 1855.74,-127 1855.74,-140.94 1855.74,-140.94"/>
<polygon fill="black" stroke="black" points="1852.24,-140.94 1855.74,-150.94 1859.24,-140.94 1852.24,-140.94"/>
</g>
<!-- { provide: MAT_SELECT_SCROLL_STRATEGY, useFactory: scrollFactory, deps: [Overlay] } -->
<g id="node8" class="node">
<title>{ provide: MAT_SELECT_SCROLL_STRATEGY, useFactory: scrollFactory, deps: [Overlay] }</title>
<ellipse fill="#fdb462" stroke="black" cx="1991" cy="-104" rx="386.83" ry="18"/>
<text text-anchor="middle" x="1991" y="-99.8" font-family="Times,serif" font-size="14.00">{ provide: MAT_SELECT_SCROLL_STRATEGY, useFactory: scrollFactory, deps: [Overlay] }</text>
</g>
<!-- { provide: MAT_SELECT_SCROLL_STRATEGY, useFactory: scrollFactory, deps: [Overlay] }&#45;&gt;SafeGridComponent -->
<g id="edge7" class="edge">
<title>{ provide: MAT_SELECT_SCROLL_STRATEGY, useFactory: scrollFactory, deps: [Overlay] }&#45;&gt;SafeGridComponent</title>
<path fill="none" stroke="black" d="M1836.91,-120.74C1836.91,-120.74 1836.91,-140.72 1836.91,-140.72"/>
<polygon fill="black" stroke="black" points="1833.41,-140.72 1836.91,-150.72 1840.41,-140.72 1833.41,-140.72"/>
</g>
<!-- { provide: MAT_TOOLTIP_SCROLL_STRATEGY, useFactory: scrollFactory, deps: [Overlay] } -->
<g id="node9" class="node">
<title>{ provide: MAT_TOOLTIP_SCROLL_STRATEGY, useFactory: scrollFactory, deps: [Overlay] }</title>
<ellipse fill="#fdb462" stroke="black" cx="1194" cy="-104" rx="391.97" ry="18"/>
<text text-anchor="middle" x="1194" y="-99.8" font-family="Times,serif" font-size="14.00">{ provide: MAT_TOOLTIP_SCROLL_STRATEGY, useFactory: scrollFactory, deps: [Overlay] }</text>
</g>
<!-- { provide: MAT_TOOLTIP_SCROLL_STRATEGY, useFactory: scrollFactory, deps: [Overlay] }&#45;&gt;SafeGridComponent -->
<g id="edge8" class="edge">
<title>{ provide: MAT_TOOLTIP_SCROLL_STRATEGY, useFactory: scrollFactory, deps: [Overlay] }&#45;&gt;SafeGridComponent</title>
<path fill="none" stroke="black" d="M1194,-122.02C1194,-139.37 1194,-163 1194,-163 1194,-163 1807.84,-163 1807.84,-163"/>
<polygon fill="black" stroke="black" points="1807.84,-166.5 1817.84,-163 1807.84,-159.5 1807.84,-166.5"/>
</g>
<!-- { provide: MAT_MENU_SCROLL_STRATEGY, useFactory: scrollFactory, deps: [Overlay] } -->
<g id="node10" class="node">
<title>{ provide: MAT_MENU_SCROLL_STRATEGY, useFactory: scrollFactory, deps: [Overlay] }</title>
<ellipse fill="#fdb462" stroke="black" cx="404" cy="-104" rx="379.87" ry="18"/>
<text text-anchor="middle" x="404" y="-99.8" font-family="Times,serif" font-size="14.00">{ provide: MAT_MENU_SCROLL_STRATEGY, useFactory: scrollFactory, deps: [Overlay] }</text>
</g>
<!-- { provide: MAT_MENU_SCROLL_STRATEGY, useFactory: scrollFactory, deps: [Overlay] }&#45;&gt;SafeGridComponent -->
<g id="edge9" class="edge">
<title>{ provide: MAT_MENU_SCROLL_STRATEGY, useFactory: scrollFactory, deps: [Overlay] }&#45;&gt;SafeGridComponent</title>
<path fill="none" stroke="black" d="M404,-122.28C404,-143.32 404,-175 404,-175 404,-175 1808.02,-175 1808.02,-175"/>
<polygon fill="black" stroke="black" points="1808.02,-178.5 1818.02,-175 1808.02,-171.5 1808.02,-178.5"/>
</g>
<!-- SafeArrayFilterMenuModule -->
<g id="node11" class="node">
<title>SafeArrayFilterMenuModule</title>
<polygon fill="#8dd3c7" stroke="black" points="3321.05,-187 3318.05,-191 3297.05,-191 3294.05,-187 3140.95,-187 3140.95,-151 3321.05,-151 3321.05,-187"/>
<text text-anchor="middle" x="3231" y="-164.8" font-family="Times,serif" font-size="14.00">SafeArrayFilterMenuModule</text>
</g>
<!-- SafeArrayFilterMenuModule&#45;&gt;SafeGridModule -->
<g id="edge10" class="edge">
<title>SafeArrayFilterMenuModule&#45;&gt;SafeGridModule</title>
<path fill="none" stroke="black" d="M3231,-187.29C3231,-209.21 3231,-243 3231,-243 3231,-243 2608.14,-243 2608.14,-243"/>
<polygon fill="black" stroke="black" points="2608.14,-239.5 2598.14,-243 2608.14,-246.5 2608.14,-239.5"/>
</g>
<!-- SafeArrayFilterModule -->
<g id="node12" class="node">
<title>SafeArrayFilterModule</title>
<polygon fill="#8dd3c7" stroke="black" points="3122.89,-187 3119.89,-191 3098.89,-191 3095.89,-187 2975.11,-187 2975.11,-151 3122.89,-151 3122.89,-187"/>
<text text-anchor="middle" x="3049" y="-164.8" font-family="Times,serif" font-size="14.00">SafeArrayFilterModule</text>
</g>
<!-- SafeArrayFilterModule&#45;&gt;SafeGridModule -->
<g id="edge11" class="edge">
<title>SafeArrayFilterModule&#45;&gt;SafeGridModule</title>
<path fill="none" stroke="black" d="M3049,-187.11C3049,-206.34 3049,-234 3049,-234 3049,-234 2608.11,-234 2608.11,-234"/>
<polygon fill="black" stroke="black" points="2608.11,-230.5 2598.11,-234 2608.11,-237.5 2608.11,-230.5"/>
</g>
<!-- SafeDropdownFilterMenuModule -->
<g id="node13" class="node">
<title>SafeDropdownFilterMenuModule</title>
<polygon fill="#8dd3c7" stroke="black" points="2957.78,-187 2954.78,-191 2933.78,-191 2930.78,-187 2750.22,-187 2750.22,-151 2957.78,-151 2957.78,-187"/>
<text text-anchor="middle" x="2854" y="-164.8" font-family="Times,serif" font-size="14.00">SafeDropdownFilterMenuModule</text>
</g>
<!-- SafeDropdownFilterMenuModule&#45;&gt;SafeGridModule -->
<g id="edge12" class="edge">
<title>SafeDropdownFilterMenuModule&#45;&gt;SafeGridModule</title>
<path fill="none" stroke="black" d="M2854,-187.03C2854,-203.4 2854,-225 2854,-225 2854,-225 2608.24,-225 2608.24,-225"/>
<polygon fill="black" stroke="black" points="2608.24,-221.5 2598.24,-225 2608.24,-228.5 2608.24,-221.5"/>
</g>
<!-- SafeDropdownFilterModule -->
<g id="node14" class="node">
<title>SafeDropdownFilterModule</title>
<polygon fill="#8dd3c7" stroke="black" points="2732.13,-187 2729.13,-191 2708.13,-191 2705.13,-187 2557.87,-187 2557.87,-151 2732.13,-151 2732.13,-187"/>
<text text-anchor="middle" x="2645" y="-164.8" font-family="Times,serif" font-size="14.00">SafeDropdownFilterModule</text>
</g>
<!-- SafeDropdownFilterModule&#45;&gt;SafeGridModule -->
<g id="edge13" class="edge">
<title>SafeDropdownFilterModule&#45;&gt;SafeGridModule</title>
<path fill="none" stroke="black" d="M2577.86,-187.11C2577.86,-187.11 2577.86,-205.99 2577.86,-205.99"/>
<polygon fill="black" stroke="black" points="2574.36,-205.99 2577.86,-215.99 2581.36,-205.99 2574.36,-205.99"/>
</g>
<!-- SafeExpandedCommentModule -->
<g id="node15" class="node">
<title>SafeExpandedCommentModule</title>
<polygon fill="#8dd3c7" stroke="black" points="2539.63,-187 2536.63,-191 2515.63,-191 2512.63,-187 2344.37,-187 2344.37,-151 2539.63,-151 2539.63,-187"/>
<text text-anchor="middle" x="2442" y="-164.8" font-family="Times,serif" font-size="14.00">SafeExpandedCommentModule</text>
</g>
<!-- SafeExpandedCommentModule&#45;&gt;SafeGridModule -->
<g id="edge14" class="edge">
<title>SafeExpandedCommentModule&#45;&gt;SafeGridModule</title>
<path fill="none" stroke="black" d="M2513.89,-187.11C2513.89,-187.11 2513.89,-205.99 2513.89,-205.99"/>
<polygon fill="black" stroke="black" points="2510.39,-205.99 2513.89,-215.99 2517.39,-205.99 2510.39,-205.99"/>
</g>
<!-- SafeGridRowActionsModule -->
<g id="node16" class="node">
<title>SafeGridRowActionsModule</title>
<polygon fill="#8dd3c7" stroke="black" points="2326.07,-187 2323.07,-191 2302.07,-191 2299.07,-187 2145.93,-187 2145.93,-151 2326.07,-151 2326.07,-187"/>
<text text-anchor="middle" x="2236" y="-164.8" font-family="Times,serif" font-size="14.00">SafeGridRowActionsModule</text>
</g>
<!-- SafeGridRowActionsModule&#45;&gt;SafeGridModule -->
<g id="edge15" class="edge">
<title>SafeGridRowActionsModule&#45;&gt;SafeGridModule</title>
<path fill="none" stroke="black" d="M2236,-187.03C2236,-203.4 2236,-225 2236,-225 2236,-225 2477.76,-225 2477.76,-225"/>
<polygon fill="black" stroke="black" points="2477.76,-228.5 2487.76,-225 2477.76,-221.5 2477.76,-228.5"/>
</g>
<!-- SafeGridToolbarModule -->
<g id="node17" class="node">
<title>SafeGridToolbarModule</title>
<polygon fill="#8dd3c7" stroke="black" points="2128.4,-187 2125.4,-191 2104.4,-191 2101.4,-187 1973.6,-187 1973.6,-151 2128.4,-151 2128.4,-187"/>
<text text-anchor="middle" x="2051" y="-164.8" font-family="Times,serif" font-size="14.00">SafeGridToolbarModule</text>
</g>
<!-- SafeGridToolbarModule&#45;&gt;SafeGridModule -->
<g id="edge16" class="edge">
<title>SafeGridToolbarModule&#45;&gt;SafeGridModule</title>
<path fill="none" stroke="black" d="M2051,-187.11C2051,-206.34 2051,-234 2051,-234 2051,-234 2477.52,-234 2477.52,-234"/>
<polygon fill="black" stroke="black" points="2477.52,-237.5 2487.52,-234 2477.52,-230.5 2477.52,-237.5"/>
</g>
</g>
</svg>
