<?xml version="1.0" encoding="UTF-8" standalone="no"?>
<!DOCTYPE svg PUBLIC "-//W3C//DTD SVG 1.1//EN"
 "http://www.w3.org/Graphics/SVG/1.1/DTD/svg11.dtd">
<!-- Generated by graphviz version 2.47.0 (20210316.0004)
 -->
<!-- Title: dependencies Pages: 1 -->
<svg width="4724pt" height="349pt"
 viewBox="0.00 0.00 4724.00 349.00" xmlns="http://www.w3.org/2000/svg" xmlns:xlink="http://www.w3.org/1999/xlink">
<g id="graph0" class="graph" transform="scale(1 1) rotate(0) translate(4 345)">
<title>dependencies</title>
<polygon fill="white" stroke="transparent" points="-4,4 -4,-345 4720,-345 4720,4 -4,4"/>
<text text-anchor="start" x="2337.01" y="-42.4" font-family="sans-serif" font-weight="bold" font-size="14.00">Legend</text>
<polygon fill="#ffffb3" stroke="transparent" points="2124,-10 2124,-30 2144,-30 2144,-10 2124,-10"/>
<text text-anchor="start" x="2147.63" y="-15.4" font-family="sans-serif" font-size="14.00"> &#160;Declarations</text>
<polygon fill="#8dd3c7" stroke="transparent" points="2237,-10 2237,-30 2257,-30 2257,-10 2237,-10"/>
<text text-anchor="start" x="2260.73" y="-15.4" font-family="sans-serif" font-size="14.00"> &#160;Module</text>
<polygon fill="#80b1d3" stroke="transparent" points="2323,-10 2323,-30 2343,-30 2343,-10 2323,-10"/>
<text text-anchor="start" x="2346.78" y="-15.4" font-family="sans-serif" font-size="14.00"> &#160;Bootstrap</text>
<polygon fill="#fdb462" stroke="transparent" points="2420,-10 2420,-30 2440,-30 2440,-10 2420,-10"/>
<text text-anchor="start" x="2443.67" y="-15.4" font-family="sans-serif" font-size="14.00"> &#160;Providers</text>
<polygon fill="#fb8072" stroke="transparent" points="2516,-10 2516,-30 2536,-30 2536,-10 2516,-10"/>
<text text-anchor="start" x="2539.73" y="-15.4" font-family="sans-serif" font-size="14.00"> &#160;Exports</text>
<g id="clust1" class="cluster">
<title>cluster_SafeGridModule</title>
<polygon fill="none" stroke="black" stroke-dasharray="1,5" points="8,-70 8,-333 4708,-333 4708,-70 8,-70"/>
</g>
<g id="clust3" class="cluster">
<title>cluster_SafeGridModule_SafeGridComponent_providers</title>
<polygon fill="none" stroke="black" points="1387,-78 1387,-195 4700,-195 4700,-78 1387,-78"/>
</g>
<g id="clust4" class="cluster">
<title>cluster_SafeGridModule_imports</title>
<polygon fill="none" stroke="black" points="16,-143 16,-195 1379,-195 1379,-143 16,-143"/>
</g>
<g id="clust5" class="cluster">
<title>cluster_SafeGridModule_exports</title>
<polygon fill="none" stroke="black" points="723,-273 723,-325 875,-325 875,-273 723,-273"/>
</g>
<!-- SafeGridComponent -->
<g id="node1" class="node">
<title>SafeGridComponent</title>
<polygon fill="#ffffb3" stroke="black" points="3921.86,-187 3790.14,-187 3790.14,-151 3921.86,-151 3921.86,-187"/>
<text text-anchor="middle" x="3856" y="-164.8" font-family="Times,serif" font-size="14.00">SafeGridComponent</text>
</g>
<!-- SafeGridModule -->
<g id="node2" class="node">
<title>SafeGridModule</title>
<polygon fill="#8dd3c7" stroke="black" points="854.08,-252 851.08,-256 830.08,-256 827.08,-252 743.92,-252 743.92,-216 854.08,-216 854.08,-252"/>
<text text-anchor="middle" x="799" y="-229.8" font-family="Times,serif" font-size="14.00">SafeGridModule</text>
</g>
<!-- SafeGridComponent&#45;&gt;SafeGridModule -->
<g id="edge1" class="edge">
<title>SafeGridComponent&#45;&gt;SafeGridModule</title>
<path fill="none" stroke="black" d="M3856,-187.29C3856,-209.21 3856,-243 3856,-243 3856,-243 864.34,-243 864.34,-243"/>
<polygon fill="black" stroke="black" points="864.34,-239.5 854.34,-243 864.34,-246.5 864.34,-239.5"/>
</g>
<!-- SafeGridComponent  -->
<g id="node18" class="node">
<title>SafeGridComponent </title>
<polygon fill="#fb8072" stroke="black" points="866.86,-317 731.14,-317 731.14,-281 866.86,-281 866.86,-317"/>
<text text-anchor="middle" x="799" y="-294.8" font-family="Times,serif" font-size="14.00">SafeGridComponent </text>
</g>
<!-- SafeGridModule&#45;&gt;SafeGridComponent  -->
<g id="edge17" class="edge">
<title>SafeGridModule&#45;&gt;SafeGridComponent </title>
<path fill="none" stroke="black" stroke-dasharray="5,2" d="M799,-252.11C799,-252.11 799,-270.99 799,-270.99"/>
<polygon fill="black" stroke="black" points="795.5,-270.99 799,-280.99 802.5,-270.99 795.5,-270.99"/>
</g>
<!-- PopupService -->
<g id="node3" class="node">
<title>PopupService</title>
<ellipse fill="#fdb462" stroke="black" cx="4627" cy="-104" rx="64.85" ry="18"/>
<text text-anchor="middle" x="4627" y="-99.8" font-family="Times,serif" font-size="14.00">PopupService</text>
</g>
<!-- PopupService&#45;&gt;SafeGridComponent -->
<g id="edge2" class="edge">
<title>PopupService&#45;&gt;SafeGridComponent</title>
<path fill="none" stroke="black" d="M4627,-122.01C4627,-144.49 4627,-180 4627,-180 4627,-180 3932.07,-180 3932.07,-180"/>
<polygon fill="black" stroke="black" points="3932.07,-176.5 3922.07,-180 3932.07,-183.5 3932.07,-176.5"/>
</g>
<!-- ResizeBatchService -->
<g id="node4" class="node">
<title>ResizeBatchService</title>
<ellipse fill="#fdb462" stroke="black" cx="4456" cy="-104" rx="88.02" ry="18"/>
<text text-anchor="middle" x="4456" y="-99.8" font-family="Times,serif" font-size="14.00">ResizeBatchService</text>
</g>
<!-- ResizeBatchService&#45;&gt;SafeGridComponent -->
<g id="edge3" class="edge">
<title>ResizeBatchService&#45;&gt;SafeGridComponent</title>
<path fill="none" stroke="black" d="M4456,-122.13C4456,-142.57 4456,-173 4456,-173 4456,-173 3931.93,-173 3931.93,-173"/>
<polygon fill="black" stroke="black" points="3931.93,-169.5 3921.93,-173 3931.93,-176.5 3931.93,-169.5"/>
</g>
<!-- CalendarDOMService -->
<g id="node5" class="node">
<title>CalendarDOMService</title>
<ellipse fill="#fdb462" stroke="black" cx="4252" cy="-104" rx="97.25" ry="18"/>
<text text-anchor="middle" x="4252" y="-99.8" font-family="Times,serif" font-size="14.00">CalendarDOMService</text>
</g>
<!-- CalendarDOMService&#45;&gt;SafeGridComponent -->
<g id="edge4" class="edge">
<title>CalendarDOMService&#45;&gt;SafeGridComponent</title>
<path fill="none" stroke="black" d="M4252,-122.27C4252,-140.56 4252,-166 4252,-166 4252,-166 3932.28,-166 3932.28,-166"/>
<polygon fill="black" stroke="black" points="3932.28,-162.5 3922.28,-166 3932.28,-169.5 3932.28,-162.5"/>
</g>
<!-- MonthViewService -->
<g id="node6" class="node">
<title>MonthViewService</title>
<ellipse fill="#fdb462" stroke="black" cx="4050" cy="-104" rx="86.82" ry="18"/>
<text text-anchor="middle" x="4050" y="-99.8" font-family="Times,serif" font-size="14.00">MonthViewService</text>
</g>
<!-- MonthViewService&#45;&gt;SafeGridComponent -->
<g id="edge5" class="edge">
<title>MonthViewService&#45;&gt;SafeGridComponent</title>
<path fill="none" stroke="black" d="M4050,-122.01C4050,-138.05 4050,-159 4050,-159 4050,-159 3931.95,-159 3931.95,-159"/>
<polygon fill="black" stroke="black" points="3931.95,-155.5 3921.95,-159 3931.95,-162.5 3931.95,-155.5"/>
</g>
<!-- WeekNamesService -->
<g id="node7" class="node">
<title>WeekNamesService</title>
<ellipse fill="#fdb462" stroke="black" cx="3856" cy="-104" rx="89.14" ry="18"/>
<text text-anchor="middle" x="3856" y="-99.8" font-family="Times,serif" font-size="14.00">WeekNamesService</text>
</g>
<!-- WeekNamesService&#45;&gt;SafeGridComponent -->
<g id="edge6" class="edge">
<title>WeekNamesService&#45;&gt;SafeGridComponent</title>
<path fill="none" stroke="black" d="M3856,-122.11C3856,-122.11 3856,-140.99 3856,-140.99"/>
<polygon fill="black" stroke="black" points="3852.5,-140.99 3856,-150.99 3859.5,-140.99 3852.5,-140.99"/>
</g>
<!-- { provide: MAT_SELECT_SCROLL_STRATEGY, useFactory: scrollFactory, deps: [Overlay] } -->
<g id="node8" class="node">
<title>{ provide: MAT_SELECT_SCROLL_STRATEGY, useFactory: scrollFactory, deps: [Overlay] }</title>
<ellipse fill="#fdb462" stroke="black" cx="3362" cy="-104" rx="386.83" ry="18"/>
<text text-anchor="middle" x="3362" y="-99.8" font-family="Times,serif" font-size="14.00">{ provide: MAT_SELECT_SCROLL_STRATEGY, useFactory: scrollFactory, deps: [Overlay] }</text>
</g>
<!-- { provide: MAT_SELECT_SCROLL_STRATEGY, useFactory: scrollFactory, deps: [Overlay] }&#45;&gt;SafeGridComponent -->
<g id="edge7" class="edge">
<title>{ provide: MAT_SELECT_SCROLL_STRATEGY, useFactory: scrollFactory, deps: [Overlay] }&#45;&gt;SafeGridComponent</title>
<path fill="none" stroke="black" d="M3362,-122.03C3362,-138.4 3362,-160 3362,-160 3362,-160 3779.89,-160 3779.89,-160"/>
<polygon fill="black" stroke="black" points="3779.89,-163.5 3789.89,-160 3779.89,-156.5 3779.89,-163.5"/>
</g>
<!-- { provide: MAT_TOOLTIP_SCROLL_STRATEGY, useFactory: scrollFactory, deps: [Overlay] } -->
<g id="node9" class="node">
<title>{ provide: MAT_TOOLTIP_SCROLL_STRATEGY, useFactory: scrollFactory, deps: [Overlay] }</title>
<ellipse fill="#fdb462" stroke="black" cx="2565" cy="-104" rx="391.97" ry="18"/>
<text text-anchor="middle" x="2565" y="-99.8" font-family="Times,serif" font-size="14.00">{ provide: MAT_TOOLTIP_SCROLL_STRATEGY, useFactory: scrollFactory, deps: [Overlay] }</text>
</g>
<!-- { provide: MAT_TOOLTIP_SCROLL_STRATEGY, useFactory: scrollFactory, deps: [Overlay] }&#45;&gt;SafeGridComponent -->
<g id="edge8" class="edge">
<title>{ provide: MAT_TOOLTIP_SCROLL_STRATEGY, useFactory: scrollFactory, deps: [Overlay] }&#45;&gt;SafeGridComponent</title>
<path fill="none" stroke="black" d="M2565,-122.11C2565,-141.34 2565,-169 2565,-169 2565,-169 3779.76,-169 3779.76,-169"/>
<polygon fill="black" stroke="black" points="3779.76,-172.5 3789.76,-169 3779.76,-165.5 3779.76,-172.5"/>
</g>
<!-- { provide: MAT_MENU_SCROLL_STRATEGY, useFactory: scrollFactory, deps: [Overlay] } -->
<g id="node10" class="node">
<title>{ provide: MAT_MENU_SCROLL_STRATEGY, useFactory: scrollFactory, deps: [Overlay] }</title>
<ellipse fill="#fdb462" stroke="black" cx="1775" cy="-104" rx="379.87" ry="18"/>
<text text-anchor="middle" x="1775" y="-99.8" font-family="Times,serif" font-size="14.00">{ provide: MAT_MENU_SCROLL_STRATEGY, useFactory: scrollFactory, deps: [Overlay] }</text>
</g>
<!-- { provide: MAT_MENU_SCROLL_STRATEGY, useFactory: scrollFactory, deps: [Overlay] }&#45;&gt;SafeGridComponent -->
<g id="edge9" class="edge">
<title>{ provide: MAT_MENU_SCROLL_STRATEGY, useFactory: scrollFactory, deps: [Overlay] }&#45;&gt;SafeGridComponent</title>
<path fill="none" stroke="black" d="M1775,-122.29C1775,-144.21 1775,-178 1775,-178 1775,-178 3779.99,-178 3779.99,-178"/>
<polygon fill="black" stroke="black" points="3779.99,-181.5 3789.99,-178 3779.99,-174.5 3779.99,-181.5"/>
</g>
<!-- SafeArrayFilterMenuModule -->
<g id="node11" class="node">
<title>SafeArrayFilterMenuModule</title>
<polygon fill="#8dd3c7" stroke="black" points="1371.05,-187 1368.05,-191 1347.05,-191 1344.05,-187 1190.95,-187 1190.95,-151 1371.05,-151 1371.05,-187"/>
<text text-anchor="middle" x="1281" y="-164.8" font-family="Times,serif" font-size="14.00">SafeArrayFilterMenuModule</text>
</g>
<!-- SafeArrayFilterMenuModule&#45;&gt;SafeGridModule -->
<g id="edge10" class="edge">
<title>SafeArrayFilterMenuModule&#45;&gt;SafeGridModule</title>
<path fill="none" stroke="black" d="M1281,-187.11C1281,-206.34 1281,-234 1281,-234 1281,-234 864.29,-234 864.29,-234"/>
<polygon fill="black" stroke="black" points="864.29,-230.5 854.29,-234 864.29,-237.5 864.29,-230.5"/>
</g>
<!-- SafeArrayFilterModule -->
<g id="node12" class="node">
<title>SafeArrayFilterModule</title>
<polygon fill="#8dd3c7" stroke="black" points="1172.89,-187 1169.89,-191 1148.89,-191 1145.89,-187 1025.11,-187 1025.11,-151 1172.89,-151 1172.89,-187"/>
<text text-anchor="middle" x="1099" y="-164.8" font-family="Times,serif" font-size="14.00">SafeArrayFilterModule</text>
</g>
<!-- SafeArrayFilterModule&#45;&gt;SafeGridModule -->
<g id="edge11" class="edge">
<title>SafeArrayFilterModule&#45;&gt;SafeGridModule</title>
<path fill="none" stroke="black" d="M1099,-187.03C1099,-203.4 1099,-225 1099,-225 1099,-225 864.37,-225 864.37,-225"/>
<polygon fill="black" stroke="black" points="864.37,-221.5 854.37,-225 864.37,-228.5 864.37,-221.5"/>
</g>
<!-- SafeDropdownFilterMenuModule -->
<g id="node13" class="node">
<title>SafeDropdownFilterMenuModule</title>
<polygon fill="#8dd3c7" stroke="black" points="1007.78,-187 1004.78,-191 983.78,-191 980.78,-187 800.22,-187 800.22,-151 1007.78,-151 1007.78,-187"/>
<text text-anchor="middle" x="904" y="-164.8" font-family="Times,serif" font-size="14.00">SafeDropdownFilterMenuModule</text>
</g>
<!-- SafeDropdownFilterMenuModule&#45;&gt;SafeGridModule -->
<g id="edge12" class="edge">
<title>SafeDropdownFilterMenuModule&#45;&gt;SafeGridModule</title>
<path fill="none" stroke="black" d="M827.2,-187.11C827.2,-187.11 827.2,-205.99 827.2,-205.99"/>
<polygon fill="black" stroke="black" points="823.7,-205.99 827.2,-215.99 830.7,-205.99 823.7,-205.99"/>
</g>
<!-- SafeDropdownFilterModule -->
<g id="node14" class="node">
<title>SafeDropdownFilterModule</title>
<polygon fill="#8dd3c7" stroke="black" points="782.13,-187 779.13,-191 758.13,-191 755.13,-187 607.87,-187 607.87,-151 782.13,-151 782.13,-187"/>
<text text-anchor="middle" x="695" y="-164.8" font-family="Times,serif" font-size="14.00">SafeDropdownFilterModule</text>
</g>
<!-- SafeDropdownFilterModule&#45;&gt;SafeGridModule -->
<g id="edge13" class="edge">
<title>SafeDropdownFilterModule&#45;&gt;SafeGridModule</title>
<path fill="none" stroke="black" d="M763.14,-187.11C763.14,-187.11 763.14,-205.99 763.14,-205.99"/>
<polygon fill="black" stroke="black" points="759.64,-205.99 763.14,-215.99 766.64,-205.99 759.64,-205.99"/>
</g>
<!-- SafeExpandedCommentModule -->
<g id="node15" class="node">
<title>SafeExpandedCommentModule</title>
<polygon fill="#8dd3c7" stroke="black" points="589.63,-187 586.63,-191 565.63,-191 562.63,-187 394.37,-187 394.37,-151 589.63,-151 589.63,-187"/>
<text text-anchor="middle" x="492" y="-164.8" font-family="Times,serif" font-size="14.00">SafeExpandedCommentModule</text>
</g>
<!-- SafeExpandedCommentModule&#45;&gt;SafeGridModule -->
<g id="edge14" class="edge">
<title>SafeExpandedCommentModule&#45;&gt;SafeGridModule</title>
<path fill="none" stroke="black" d="M492,-187.03C492,-203.4 492,-225 492,-225 492,-225 733.76,-225 733.76,-225"/>
<polygon fill="black" stroke="black" points="733.76,-228.5 743.76,-225 733.76,-221.5 733.76,-228.5"/>
</g>
<!-- SafeGridRowActionsModule -->
<g id="node16" class="node">
<title>SafeGridRowActionsModule</title>
<polygon fill="#8dd3c7" stroke="black" points="376.07,-187 373.07,-191 352.07,-191 349.07,-187 195.93,-187 195.93,-151 376.07,-151 376.07,-187"/>
<text text-anchor="middle" x="286" y="-164.8" font-family="Times,serif" font-size="14.00">SafeGridRowActionsModule</text>
</g>
<!-- SafeGridRowActionsModule&#45;&gt;SafeGridModule -->
<g id="edge15" class="edge">
<title>SafeGridRowActionsModule&#45;&gt;SafeGridModule</title>
<path fill="none" stroke="black" d="M286,-187.11C286,-206.34 286,-234 286,-234 286,-234 733.61,-234 733.61,-234"/>
<polygon fill="black" stroke="black" points="733.61,-237.5 743.61,-234 733.61,-230.5 733.61,-237.5"/>
</g>
<!-- SafeGridToolbarModule -->
<g id="node17" class="node">
<title>SafeGridToolbarModule</title>
<polygon fill="#8dd3c7" stroke="black" points="178.4,-187 175.4,-191 154.4,-191 151.4,-187 23.6,-187 23.6,-151 178.4,-151 178.4,-187"/>
<text text-anchor="middle" x="101" y="-164.8" font-family="Times,serif" font-size="14.00">SafeGridToolbarModule</text>
</g>
<!-- SafeGridToolbarModule&#45;&gt;SafeGridModule -->
<g id="edge16" class="edge">
<title>SafeGridToolbarModule&#45;&gt;SafeGridModule</title>
<path fill="none" stroke="black" d="M101,-187.29C101,-209.21 101,-243 101,-243 101,-243 733.94,-243 733.94,-243"/>
<polygon fill="black" stroke="black" points="733.94,-246.5 743.94,-243 733.94,-239.5 733.94,-246.5"/>
</g>
</g>
</svg>
