<?xml version="1.0" encoding="UTF-8" standalone="no"?>
<!DOCTYPE svg PUBLIC "-//W3C//DTD SVG 1.1//EN"
 "http://www.w3.org/Graphics/SVG/1.1/DTD/svg11.dtd">
<!-- Generated by graphviz version 2.47.0 (20210316.0004)
 -->
<!-- Title: dependencies Pages: 1 -->
<svg width="978pt" height="284pt"
 viewBox="0.00 0.00 978.00 284.00" xmlns="http://www.w3.org/2000/svg" xmlns:xlink="http://www.w3.org/1999/xlink">
<g id="graph0" class="graph" transform="scale(1 1) rotate(0) translate(4 280)">
<title>dependencies</title>
<polygon fill="white" stroke="transparent" points="-4,4 -4,-280 974,-280 974,4 -4,4"/>
<text text-anchor="start" x="464.01" y="-42.4" font-family="sans-serif" font-weight="bold" font-size="14.00">Legend</text>
<polygon fill="#ffffb3" stroke="transparent" points="251,-10 251,-30 271,-30 271,-10 251,-10"/>
<text text-anchor="start" x="274.63" y="-15.4" font-family="sans-serif" font-size="14.00"> &#160;Declarations</text>
<polygon fill="#8dd3c7" stroke="transparent" points="364,-10 364,-30 384,-30 384,-10 364,-10"/>
<text text-anchor="start" x="387.73" y="-15.4" font-family="sans-serif" font-size="14.00"> &#160;Module</text>
<polygon fill="#80b1d3" stroke="transparent" points="450,-10 450,-30 470,-30 470,-10 450,-10"/>
<text text-anchor="start" x="473.78" y="-15.4" font-family="sans-serif" font-size="14.00"> &#160;Bootstrap</text>
<polygon fill="#fdb462" stroke="transparent" points="547,-10 547,-30 567,-30 567,-10 547,-10"/>
<text text-anchor="start" x="570.67" y="-15.4" font-family="sans-serif" font-size="14.00"> &#160;Providers</text>
<polygon fill="#fb8072" stroke="transparent" points="643,-10 643,-30 663,-30 663,-10 643,-10"/>
<text text-anchor="start" x="666.73" y="-15.4" font-family="sans-serif" font-size="14.00"> &#160;Exports</text>
<g id="clust1" class="cluster">
<title>cluster_SafeGridModule</title>
<polygon fill="none" stroke="black" stroke-dasharray="1,5" points="8,-70 8,-268 962,-268 962,-70 8,-70"/>
</g>
<g id="clust5" class="cluster">
<title>cluster_SafeGridModule_exports</title>
<polygon fill="none" stroke="black" points="359,-208 359,-260 511,-260 511,-208 359,-208"/>
</g>
<g id="clust4" class="cluster">
<title>cluster_SafeGridModule_imports</title>
<polygon fill="none" stroke="black" points="172,-78 172,-130 954,-130 954,-78 172,-78"/>
</g>
<g id="clust2" class="cluster">
<title>cluster_SafeGridModule_declarations</title>
<polygon fill="none" stroke="black" points="16,-78 16,-130 164,-130 164,-78 16,-78"/>
</g>
<!-- SafeGridComponent -->
<g id="node1" class="node">
<title>SafeGridComponent</title>
<polygon fill="#ffffb3" stroke="black" points="155.86,-122 24.14,-122 24.14,-86 155.86,-86 155.86,-122"/>
<text text-anchor="middle" x="90" y="-99.8" font-family="Times,serif" font-size="14.00">SafeGridComponent</text>
</g>
<!-- SafeGridModule -->
<g id="node2" class="node">
<title>SafeGridModule</title>
<polygon fill="#8dd3c7" stroke="black" points="490.08,-187 487.08,-191 466.08,-191 463.08,-187 379.92,-187 379.92,-151 490.08,-151 490.08,-187"/>
<text text-anchor="middle" x="435" y="-164.8" font-family="Times,serif" font-size="14.00">SafeGridModule</text>
</g>
<!-- SafeGridComponent&#45;&gt;SafeGridModule -->
<g id="edge1" class="edge">
<title>SafeGridComponent&#45;&gt;SafeGridModule</title>
<path fill="none" stroke="black" d="M90,-122.28C90,-143.32 90,-175 90,-175 90,-175 369.95,-175 369.95,-175"/>
<polygon fill="black" stroke="black" points="369.95,-178.5 379.95,-175 369.95,-171.5 369.95,-178.5"/>
</g>
<!-- SafeGridComponent  -->
<g id="node7" class="node">
<title>SafeGridComponent </title>
<polygon fill="#fb8072" stroke="black" points="502.86,-252 367.14,-252 367.14,-216 502.86,-216 502.86,-252"/>
<text text-anchor="middle" x="435" y="-229.8" font-family="Times,serif" font-size="14.00">SafeGridComponent </text>
</g>
<!-- SafeGridModule&#45;&gt;SafeGridComponent  -->
<g id="edge6" class="edge">
<title>SafeGridModule&#45;&gt;SafeGridComponent </title>
<path fill="none" stroke="black" stroke-dasharray="5,2" d="M435,-187.11C435,-187.11 435,-205.99 435,-205.99"/>
<polygon fill="black" stroke="black" points="431.5,-205.99 435,-215.99 438.5,-205.99 431.5,-205.99"/>
</g>
<!-- SafeChooseRecordModalModule -->
<g id="node3" class="node">
<title>SafeChooseRecordModalModule</title>
<polygon fill="#8dd3c7" stroke="black" points="945.89,-122 942.89,-126 921.89,-126 918.89,-122 742.11,-122 742.11,-86 945.89,-86 945.89,-122"/>
<text text-anchor="middle" x="844" y="-99.8" font-family="Times,serif" font-size="14.00">SafeChooseRecordModalModule</text>
</g>
<!-- SafeChooseRecordModalModule&#45;&gt;SafeGridModule -->
<g id="edge2" class="edge">
<title>SafeChooseRecordModalModule&#45;&gt;SafeGridModule</title>
<path fill="none" stroke="black" d="M844,-122.28C844,-143.32 844,-175 844,-175 844,-175 500.16,-175 500.16,-175"/>
<polygon fill="black" stroke="black" points="500.16,-171.5 490.16,-175 500.16,-178.5 500.16,-171.5"/>
</g>
<!-- SafeExpandedCommentModule -->
<g id="node4" class="node">
<title>SafeExpandedCommentModule</title>
<polygon fill="#8dd3c7" stroke="black" points="723.63,-122 720.63,-126 699.63,-126 696.63,-122 528.37,-122 528.37,-86 723.63,-86 723.63,-122"/>
<text text-anchor="middle" x="626" y="-99.8" font-family="Times,serif" font-size="14.00">SafeExpandedCommentModule</text>
</g>
<!-- SafeExpandedCommentModule&#45;&gt;SafeGridModule -->
<g id="edge3" class="edge">
<title>SafeExpandedCommentModule&#45;&gt;SafeGridModule</title>
<path fill="none" stroke="black" d="M626,-122.02C626,-139.37 626,-163 626,-163 626,-163 500.25,-163 500.25,-163"/>
<polygon fill="black" stroke="black" points="500.25,-159.5 490.25,-163 500.25,-166.5 500.25,-159.5"/>
</g>
<!-- SafeFormModalModule -->
<g id="node5" class="node">
<title>SafeFormModalModule</title>
<polygon fill="#8dd3c7" stroke="black" points="510.81,-122 507.81,-126 486.81,-126 483.81,-122 359.19,-122 359.19,-86 510.81,-86 510.81,-122"/>
<text text-anchor="middle" x="435" y="-99.8" font-family="Times,serif" font-size="14.00">SafeFormModalModule</text>
</g>
<!-- SafeFormModalModule&#45;&gt;SafeGridModule -->
<g id="edge4" class="edge">
<title>SafeFormModalModule&#45;&gt;SafeGridModule</title>
<path fill="none" stroke="black" d="M435,-122.11C435,-122.11 435,-140.99 435,-140.99"/>
<polygon fill="black" stroke="black" points="431.5,-140.99 435,-150.99 438.5,-140.99 431.5,-140.99"/>
</g>
<!-- SafeRecordModalModule -->
<g id="node6" class="node">
<title>SafeRecordModalModule</title>
<polygon fill="#8dd3c7" stroke="black" points="341.9,-122 338.9,-126 317.9,-126 314.9,-122 180.1,-122 180.1,-86 341.9,-86 341.9,-122"/>
<text text-anchor="middle" x="261" y="-99.8" font-family="Times,serif" font-size="14.00">SafeRecordModalModule</text>
</g>
<!-- SafeRecordModalModule&#45;&gt;SafeGridModule -->
<g id="edge5" class="edge">
<title>SafeRecordModalModule&#45;&gt;SafeGridModule</title>
<path fill="none" stroke="black" d="M261,-122.02C261,-139.37 261,-163 261,-163 261,-163 369.95,-163 369.95,-163"/>
<polygon fill="black" stroke="black" points="369.95,-166.5 379.95,-163 369.95,-159.5 369.95,-166.5"/>
</g>
</g>
</svg>
