<?xml version="1.0" encoding="UTF-8" standalone="no"?>
<!DOCTYPE svg PUBLIC "-//W3C//DTD SVG 1.1//EN"
 "http://www.w3.org/Graphics/SVG/1.1/DTD/svg11.dtd">
<!-- Generated by graphviz version 2.47.0 (20210316.0004)
 -->
<!-- Title: dependencies Pages: 1 -->
<svg width="1758pt" height="284pt"
 viewBox="0.00 0.00 1758.00 284.00" xmlns="http://www.w3.org/2000/svg" xmlns:xlink="http://www.w3.org/1999/xlink">
<g id="graph0" class="graph" transform="scale(1 1) rotate(0) translate(4 280)">
<title>dependencies</title>
<polygon fill="white" stroke="transparent" points="-4,4 -4,-280 1754,-280 1754,4 -4,4"/>
<text text-anchor="start" x="854.01" y="-42.4" font-family="sans-serif" font-weight="bold" font-size="14.00">Legend</text>
<polygon fill="#ffffb3" stroke="transparent" points="641,-10 641,-30 661,-30 661,-10 641,-10"/>
<text text-anchor="start" x="664.63" y="-15.4" font-family="sans-serif" font-size="14.00"> &#160;Declarations</text>
<polygon fill="#8dd3c7" stroke="transparent" points="754,-10 754,-30 774,-30 774,-10 754,-10"/>
<text text-anchor="start" x="777.73" y="-15.4" font-family="sans-serif" font-size="14.00"> &#160;Module</text>
<polygon fill="#80b1d3" stroke="transparent" points="840,-10 840,-30 860,-30 860,-10 840,-10"/>
<text text-anchor="start" x="863.78" y="-15.4" font-family="sans-serif" font-size="14.00"> &#160;Bootstrap</text>
<polygon fill="#fdb462" stroke="transparent" points="937,-10 937,-30 957,-30 957,-10 937,-10"/>
<text text-anchor="start" x="960.67" y="-15.4" font-family="sans-serif" font-size="14.00"> &#160;Providers</text>
<polygon fill="#fb8072" stroke="transparent" points="1033,-10 1033,-30 1053,-30 1053,-10 1033,-10"/>
<text text-anchor="start" x="1056.73" y="-15.4" font-family="sans-serif" font-size="14.00"> &#160;Exports</text>
<g id="clust1" class="cluster">
<title>cluster_SafeGridModule</title>
<polygon fill="none" stroke="black" stroke-dasharray="1,5" points="8,-70 8,-268 1742,-268 1742,-70 8,-70"/>
</g>
<g id="clust2" class="cluster">
<title>cluster_SafeGridModule_declarations</title>
<polygon fill="none" stroke="black" points="1586,-78 1586,-130 1734,-130 1734,-78 1586,-78"/>
</g>
<g id="clust5" class="cluster">
<title>cluster_SafeGridModule_exports</title>
<polygon fill="none" stroke="black" points="806,-208 806,-260 958,-260 958,-208 806,-208"/>
</g>
<g id="clust4" class="cluster">
<title>cluster_SafeGridModule_imports</title>
<polygon fill="none" stroke="black" points="16,-78 16,-130 1578,-130 1578,-78 16,-78"/>
</g>
<!-- SafeGridComponent -->
<g id="node1" class="node">
<title>SafeGridComponent</title>
<polygon fill="#ffffb3" stroke="black" points="1725.86,-122 1594.14,-122 1594.14,-86 1725.86,-86 1725.86,-122"/>
<text text-anchor="middle" x="1660" y="-99.8" font-family="Times,serif" font-size="14.00">SafeGridComponent</text>
</g>
<!-- SafeGridModule -->
<g id="node2" class="node">
<title>SafeGridModule</title>
<polygon fill="#8dd3c7" stroke="black" points="937.08,-187 934.08,-191 913.08,-191 910.08,-187 826.92,-187 826.92,-151 937.08,-151 937.08,-187"/>
<text text-anchor="middle" x="882" y="-164.8" font-family="Times,serif" font-size="14.00">SafeGridModule</text>
</g>
<!-- SafeGridComponent&#45;&gt;SafeGridModule -->
<g id="edge1" class="edge">
<title>SafeGridComponent&#45;&gt;SafeGridModule</title>
<path fill="none" stroke="black" d="M1660,-122.01C1660,-144.49 1660,-180 1660,-180 1660,-180 947.33,-180 947.33,-180"/>
<polygon fill="black" stroke="black" points="947.33,-176.5 937.33,-180 947.33,-183.5 947.33,-176.5"/>
</g>
<!-- SafeGridComponent  -->
<g id="node11" class="node">
<title>SafeGridComponent </title>
<polygon fill="#fb8072" stroke="black" points="949.86,-252 814.14,-252 814.14,-216 949.86,-216 949.86,-252"/>
<text text-anchor="middle" x="882" y="-229.8" font-family="Times,serif" font-size="14.00">SafeGridComponent </text>
</g>
<!-- SafeGridModule&#45;&gt;SafeGridComponent  -->
<g id="edge10" class="edge">
<title>SafeGridModule&#45;&gt;SafeGridComponent </title>
<path fill="none" stroke="black" stroke-dasharray="5,2" d="M882,-187.11C882,-187.11 882,-205.99 882,-205.99"/>
<polygon fill="black" stroke="black" points="878.5,-205.99 882,-215.99 885.5,-205.99 878.5,-205.99"/>
</g>
<!-- SafeArrayFilterMenuModule -->
<g id="node3" class="node">
<title>SafeArrayFilterMenuModule</title>
<polygon fill="#8dd3c7" stroke="black" points="1570.05,-122 1567.05,-126 1546.05,-126 1543.05,-122 1389.95,-122 1389.95,-86 1570.05,-86 1570.05,-122"/>
<text text-anchor="middle" x="1480" y="-99.8" font-family="Times,serif" font-size="14.00">SafeArrayFilterMenuModule</text>
</g>
<!-- SafeArrayFilterMenuModule&#45;&gt;SafeGridModule -->
<g id="edge2" class="edge">
<title>SafeArrayFilterMenuModule&#45;&gt;SafeGridModule</title>
<path fill="none" stroke="black" d="M1480,-122.13C1480,-142.57 1480,-173 1480,-173 1480,-173 947.19,-173 947.19,-173"/>
<polygon fill="black" stroke="black" points="947.19,-169.5 937.19,-173 947.19,-176.5 947.19,-169.5"/>
</g>
<!-- SafeArrayFilterModule -->
<g id="node4" class="node">
<title>SafeArrayFilterModule</title>
<polygon fill="#8dd3c7" stroke="black" points="1371.89,-122 1368.89,-126 1347.89,-126 1344.89,-122 1224.11,-122 1224.11,-86 1371.89,-86 1371.89,-122"/>
<text text-anchor="middle" x="1298" y="-99.8" font-family="Times,serif" font-size="14.00">SafeArrayFilterModule</text>
</g>
<!-- SafeArrayFilterModule&#45;&gt;SafeGridModule -->
<g id="edge3" class="edge">
<title>SafeArrayFilterModule&#45;&gt;SafeGridModule</title>
<path fill="none" stroke="black" d="M1298,-122.27C1298,-140.56 1298,-166 1298,-166 1298,-166 947.24,-166 947.24,-166"/>
<polygon fill="black" stroke="black" points="947.24,-162.5 937.24,-166 947.24,-169.5 947.24,-162.5"/>
</g>
<!-- SafeChooseRecordModalModule -->
<g id="node5" class="node">
<title>SafeChooseRecordModalModule</title>
<polygon fill="#8dd3c7" stroke="black" points="1206.89,-122 1203.89,-126 1182.89,-126 1179.89,-122 1003.11,-122 1003.11,-86 1206.89,-86 1206.89,-122"/>
<text text-anchor="middle" x="1105" y="-99.8" font-family="Times,serif" font-size="14.00">SafeChooseRecordModalModule</text>
</g>
<!-- SafeChooseRecordModalModule&#45;&gt;SafeGridModule -->
<g id="edge4" class="edge">
<title>SafeChooseRecordModalModule&#45;&gt;SafeGridModule</title>
<path fill="none" stroke="black" d="M1105,-122.01C1105,-138.05 1105,-159 1105,-159 1105,-159 947.12,-159 947.12,-159"/>
<polygon fill="black" stroke="black" points="947.12,-155.5 937.12,-159 947.12,-162.5 947.12,-155.5"/>
</g>
<!-- SafeDropdownFilterMenuModule -->
<g id="node6" class="node">
<title>SafeDropdownFilterMenuModule</title>
<polygon fill="#8dd3c7" stroke="black" points="985.78,-122 982.78,-126 961.78,-126 958.78,-122 778.22,-122 778.22,-86 985.78,-86 985.78,-122"/>
<text text-anchor="middle" x="882" y="-99.8" font-family="Times,serif" font-size="14.00">SafeDropdownFilterMenuModule</text>
</g>
<!-- SafeDropdownFilterMenuModule&#45;&gt;SafeGridModule -->
<g id="edge5" class="edge">
<title>SafeDropdownFilterMenuModule&#45;&gt;SafeGridModule</title>
<path fill="none" stroke="black" d="M882,-122.11C882,-122.11 882,-140.99 882,-140.99"/>
<polygon fill="black" stroke="black" points="878.5,-140.99 882,-150.99 885.5,-140.99 878.5,-140.99"/>
</g>
<!-- SafeDropdownFilterModule -->
<g id="node7" class="node">
<title>SafeDropdownFilterModule</title>
<polygon fill="#8dd3c7" stroke="black" points="760.13,-122 757.13,-126 736.13,-126 733.13,-122 585.87,-122 585.87,-86 760.13,-86 760.13,-122"/>
<text text-anchor="middle" x="673" y="-99.8" font-family="Times,serif" font-size="14.00">SafeDropdownFilterModule</text>
</g>
<!-- SafeDropdownFilterModule&#45;&gt;SafeGridModule -->
<g id="edge6" class="edge">
<title>SafeDropdownFilterModule&#45;&gt;SafeGridModule</title>
<path fill="none" stroke="black" d="M673,-122.01C673,-138.05 673,-159 673,-159 673,-159 816.81,-159 816.81,-159"/>
<polygon fill="black" stroke="black" points="816.81,-162.5 826.81,-159 816.81,-155.5 816.81,-162.5"/>
</g>
<!-- SafeExpandedCommentModule -->
<g id="node8" class="node">
<title>SafeExpandedCommentModule</title>
<polygon fill="#8dd3c7" stroke="black" points="567.63,-122 564.63,-126 543.63,-126 540.63,-122 372.37,-122 372.37,-86 567.63,-86 567.63,-122"/>
<text text-anchor="middle" x="470" y="-99.8" font-family="Times,serif" font-size="14.00">SafeExpandedCommentModule</text>
</g>
<!-- SafeExpandedCommentModule&#45;&gt;SafeGridModule -->
<g id="edge7" class="edge">
<title>SafeExpandedCommentModule&#45;&gt;SafeGridModule</title>
<path fill="none" stroke="black" d="M470,-122.27C470,-140.56 470,-166 470,-166 470,-166 816.86,-166 816.86,-166"/>
<polygon fill="black" stroke="black" points="816.86,-169.5 826.86,-166 816.86,-162.5 816.86,-169.5"/>
</g>
<!-- SafeFormModalModule -->
<g id="node9" class="node">
<title>SafeFormModalModule</title>
<polygon fill="#8dd3c7" stroke="black" points="354.81,-122 351.81,-126 330.81,-126 327.81,-122 203.19,-122 203.19,-86 354.81,-86 354.81,-122"/>
<text text-anchor="middle" x="279" y="-99.8" font-family="Times,serif" font-size="14.00">SafeFormModalModule</text>
</g>
<!-- SafeFormModalModule&#45;&gt;SafeGridModule -->
<g id="edge8" class="edge">
<title>SafeFormModalModule&#45;&gt;SafeGridModule</title>
<path fill="none" stroke="black" d="M279,-122.13C279,-142.57 279,-173 279,-173 279,-173 816.89,-173 816.89,-173"/>
<polygon fill="black" stroke="black" points="816.89,-176.5 826.89,-173 816.89,-169.5 816.89,-176.5"/>
</g>
<!-- SafeRecordModalModule -->
<g id="node10" class="node">
<title>SafeRecordModalModule</title>
<polygon fill="#8dd3c7" stroke="black" points="185.9,-122 182.9,-126 161.9,-126 158.9,-122 24.1,-122 24.1,-86 185.9,-86 185.9,-122"/>
<text text-anchor="middle" x="105" y="-99.8" font-family="Times,serif" font-size="14.00">SafeRecordModalModule</text>
</g>
<!-- SafeRecordModalModule&#45;&gt;SafeGridModule -->
<g id="edge9" class="edge">
<title>SafeRecordModalModule&#45;&gt;SafeGridModule</title>
<path fill="none" stroke="black" d="M105,-122.01C105,-144.49 105,-180 105,-180 105,-180 816.74,-180 816.74,-180"/>
<polygon fill="black" stroke="black" points="816.74,-183.5 826.74,-180 816.74,-176.5 816.74,-183.5"/>
</g>
</g>
</svg>
