<?xml version="1.0" encoding="UTF-8" standalone="no"?>
<!DOCTYPE svg PUBLIC "-//W3C//DTD SVG 1.1//EN"
 "http://www.w3.org/Graphics/SVG/1.1/DTD/svg11.dtd">
<!-- Generated by graphviz version 2.47.0 (20210316.0004)
 -->
<!-- Title: dependencies Pages: 1 -->
<svg width="698pt" height="284pt"
 viewBox="0.00 0.00 698.00 284.00" xmlns="http://www.w3.org/2000/svg" xmlns:xlink="http://www.w3.org/1999/xlink">
<g id="graph0" class="graph" transform="scale(1 1) rotate(0) translate(4 280)">
<title>dependencies</title>
<polygon fill="white" stroke="transparent" points="-4,4 -4,-280 694,-280 694,4 -4,4"/>
<text text-anchor="start" x="324.01" y="-42.4" font-family="sans-serif" font-weight="bold" font-size="14.00">Legend</text>
<polygon fill="#ffffb3" stroke="transparent" points="111,-10 111,-30 131,-30 131,-10 111,-10"/>
<text text-anchor="start" x="134.63" y="-15.4" font-family="sans-serif" font-size="14.00"> &#160;Declarations</text>
<polygon fill="#8dd3c7" stroke="transparent" points="224,-10 224,-30 244,-30 244,-10 224,-10"/>
<text text-anchor="start" x="247.73" y="-15.4" font-family="sans-serif" font-size="14.00"> &#160;Module</text>
<polygon fill="#80b1d3" stroke="transparent" points="310,-10 310,-30 330,-30 330,-10 310,-10"/>
<text text-anchor="start" x="333.78" y="-15.4" font-family="sans-serif" font-size="14.00"> &#160;Bootstrap</text>
<polygon fill="#fdb462" stroke="transparent" points="407,-10 407,-30 427,-30 427,-10 407,-10"/>
<text text-anchor="start" x="430.67" y="-15.4" font-family="sans-serif" font-size="14.00"> &#160;Providers</text>
<polygon fill="#fb8072" stroke="transparent" points="503,-10 503,-30 523,-30 523,-10 503,-10"/>
<text text-anchor="start" x="526.73" y="-15.4" font-family="sans-serif" font-size="14.00"> &#160;Exports</text>
<g id="clust1" class="cluster">
<title>cluster_SafeUsersModule</title>
<polygon fill="none" stroke="black" stroke-dasharray="1,5" points="8,-70 8,-268 682,-268 682,-70 8,-70"/>
</g>
<g id="clust6" class="cluster">
<title>cluster_SafeUsersModule_imports</title>
<polygon fill="none" stroke="black" points="536,-78 536,-130 674,-130 674,-78 536,-78"/>
</g>
<g id="clust2" class="cluster">
<title>cluster_SafeUsersModule_declarations</title>
<polygon fill="none" stroke="black" points="16,-78 16,-130 528,-130 528,-78 16,-78"/>
</g>
<g id="clust7" class="cluster">
<title>cluster_SafeUsersModule_exports</title>
<polygon fill="none" stroke="black" points="273,-208 273,-260 431,-260 431,-208 273,-208"/>
</g>
<!-- SafeEditUserComponent -->
<g id="node1" class="node">
<title>SafeEditUserComponent</title>
<polygon fill="#ffffb3" stroke="black" points="519.97,-122 364.03,-122 364.03,-86 519.97,-86 519.97,-122"/>
<text text-anchor="middle" x="442" y="-99.8" font-family="Times,serif" font-size="14.00">SafeEditUserComponent</text>
</g>
<!-- SafeUsersModule -->
<g id="node4" class="node">
<title>SafeUsersModule</title>
<polygon fill="#8dd3c7" stroke="black" points="410.29,-187 407.29,-191 386.29,-191 383.29,-187 293.71,-187 293.71,-151 410.29,-151 410.29,-187"/>
<text text-anchor="middle" x="352" y="-164.8" font-family="Times,serif" font-size="14.00">SafeUsersModule</text>
</g>
<!-- SafeEditUserComponent&#45;&gt;SafeUsersModule -->
<g id="edge1" class="edge">
<title>SafeEditUserComponent&#45;&gt;SafeUsersModule</title>
<path fill="none" stroke="black" d="M387.08,-122.11C387.08,-122.11 387.08,-140.99 387.08,-140.99"/>
<polygon fill="black" stroke="black" points="383.58,-140.99 387.08,-150.99 390.58,-140.99 383.58,-140.99"/>
</g>
<!-- SafeInviteUserComponent -->
<g id="node2" class="node">
<title>SafeInviteUserComponent</title>
<polygon fill="#ffffb3" stroke="black" points="345.79,-122 180.21,-122 180.21,-86 345.79,-86 345.79,-122"/>
<text text-anchor="middle" x="263" y="-99.8" font-family="Times,serif" font-size="14.00">SafeInviteUserComponent</text>
</g>
<!-- SafeInviteUserComponent&#45;&gt;SafeUsersModule -->
<g id="edge2" class="edge">
<title>SafeInviteUserComponent&#45;&gt;SafeUsersModule</title>
<path fill="none" stroke="black" d="M319.75,-122.11C319.75,-122.11 319.75,-140.99 319.75,-140.99"/>
<polygon fill="black" stroke="black" points="316.25,-140.99 319.75,-150.99 323.25,-140.99 316.25,-140.99"/>
</g>
<!-- SafeUsersComponent -->
<g id="node3" class="node">
<title>SafeUsersComponent</title>
<polygon fill="#ffffb3" stroke="black" points="162.08,-122 23.92,-122 23.92,-86 162.08,-86 162.08,-122"/>
<text text-anchor="middle" x="93" y="-99.8" font-family="Times,serif" font-size="14.00">SafeUsersComponent</text>
</g>
<!-- SafeUsersComponent&#45;&gt;SafeUsersModule -->
<g id="edge3" class="edge">
<title>SafeUsersComponent&#45;&gt;SafeUsersModule</title>
<path fill="none" stroke="black" d="M93,-122.11C93,-141.34 93,-169 93,-169 93,-169 283.55,-169 283.55,-169"/>
<polygon fill="black" stroke="black" points="283.55,-172.5 293.55,-169 283.55,-165.5 283.55,-172.5"/>
</g>
<!-- SafeUsersComponent  -->
<g id="node6" class="node">
<title>SafeUsersComponent </title>
<polygon fill="#fb8072" stroke="black" points="422.58,-252 281.42,-252 281.42,-216 422.58,-216 422.58,-252"/>
<text text-anchor="middle" x="352" y="-229.8" font-family="Times,serif" font-size="14.00">SafeUsersComponent </text>
</g>
<!-- SafeUsersModule&#45;&gt;SafeUsersComponent  -->
<g id="edge5" class="edge">
<title>SafeUsersModule&#45;&gt;SafeUsersComponent </title>
<path fill="none" stroke="black" stroke-dasharray="5,2" d="M352,-187.11C352,-187.11 352,-205.99 352,-205.99"/>
<polygon fill="black" stroke="black" points="348.5,-205.99 352,-215.99 355.5,-205.99 348.5,-205.99"/>
</g>
<!-- SafeButtonModule -->
<g id="node5" class="node">
<title>SafeButtonModule</title>
<polygon fill="#8dd3c7" stroke="black" points="666.04,-122 663.04,-126 642.04,-126 639.04,-122 543.96,-122 543.96,-86 666.04,-86 666.04,-122"/>
<text text-anchor="middle" x="605" y="-99.8" font-family="Times,serif" font-size="14.00">SafeButtonModule</text>
</g>
<!-- SafeButtonModule&#45;&gt;SafeUsersModule -->
<g id="edge4" class="edge">
<title>SafeButtonModule&#45;&gt;SafeUsersModule</title>
<path fill="none" stroke="black" d="M605,-122.11C605,-141.34 605,-169 605,-169 605,-169 420.36,-169 420.36,-169"/>
<polygon fill="black" stroke="black" points="420.36,-165.5 410.36,-169 420.36,-172.5 420.36,-165.5"/>
</g>
</g>
</svg>
