<?xml version="1.0" encoding="UTF-8" standalone="no"?>
<!DOCTYPE svg PUBLIC "-//W3C//DTD SVG 1.1//EN"
 "http://www.w3.org/Graphics/SVG/1.1/DTD/svg11.dtd">
<!-- Generated by graphviz version 2.47.0 (20210316.0004)
 -->
<!-- Title: dependencies Pages: 1 -->
<svg width="681pt" height="284pt"
 viewBox="0.00 0.00 681.00 284.00" xmlns="http://www.w3.org/2000/svg" xmlns:xlink="http://www.w3.org/1999/xlink">
<g id="graph0" class="graph" transform="scale(1 1) rotate(0) translate(4 280)">
<title>dependencies</title>
<polygon fill="white" stroke="transparent" points="-4,4 -4,-280 677,-280 677,4 -4,4"/>
<text text-anchor="start" x="315.51" y="-42.4" font-family="sans-serif" font-weight="bold" font-size="14.00">Legend</text>
<polygon fill="#ffffb3" stroke="transparent" points="102.5,-10 102.5,-30 122.5,-30 122.5,-10 102.5,-10"/>
<text text-anchor="start" x="126.13" y="-15.4" font-family="sans-serif" font-size="14.00"> &#160;Declarations</text>
<polygon fill="#8dd3c7" stroke="transparent" points="215.5,-10 215.5,-30 235.5,-30 235.5,-10 215.5,-10"/>
<text text-anchor="start" x="239.23" y="-15.4" font-family="sans-serif" font-size="14.00"> &#160;Module</text>
<polygon fill="#80b1d3" stroke="transparent" points="301.5,-10 301.5,-30 321.5,-30 321.5,-10 301.5,-10"/>
<text text-anchor="start" x="325.28" y="-15.4" font-family="sans-serif" font-size="14.00"> &#160;Bootstrap</text>
<polygon fill="#fdb462" stroke="transparent" points="398.5,-10 398.5,-30 418.5,-30 418.5,-10 398.5,-10"/>
<text text-anchor="start" x="422.17" y="-15.4" font-family="sans-serif" font-size="14.00"> &#160;Providers</text>
<polygon fill="#fb8072" stroke="transparent" points="494.5,-10 494.5,-30 514.5,-30 514.5,-10 494.5,-10"/>
<text text-anchor="start" x="518.23" y="-15.4" font-family="sans-serif" font-size="14.00"> &#160;Exports</text>
<g id="clust1" class="cluster">
<title>cluster_SafeUsersModule</title>
<polygon fill="none" stroke="black" stroke-dasharray="1,5" points="8,-70 8,-268 665,-268 665,-70 8,-70"/>
</g>
<g id="clust6" class="cluster">
<title>cluster_SafeUsersModule_exports</title>
<polygon fill="none" stroke="black" points="250,-208 250,-260 408,-260 408,-208 250,-208"/>
</g>
<g id="clust2" class="cluster">
<title>cluster_SafeUsersModule_declarations</title>
<polygon fill="none" stroke="black" points="329,-78 329,-130 657,-130 657,-78 329,-78"/>
</g>
<g id="clust5" class="cluster">
<title>cluster_SafeUsersModule_imports</title>
<polygon fill="none" stroke="black" points="16,-78 16,-130 321,-130 321,-78 16,-78"/>
</g>
<!-- SafeEditUserComponent -->
<g id="node1" class="node">
<title>SafeEditUserComponent</title>
<polygon fill="#ffffb3" stroke="black" points="648.97,-122 493.03,-122 493.03,-86 648.97,-86 648.97,-122"/>
<text text-anchor="middle" x="571" y="-99.8" font-family="Times,serif" font-size="14.00">SafeEditUserComponent</text>
</g>
<!-- SafeUsersModule -->
<g id="node3" class="node">
<title>SafeUsersModule</title>
<polygon fill="#8dd3c7" stroke="black" points="387.29,-187 384.29,-191 363.29,-191 360.29,-187 270.71,-187 270.71,-151 387.29,-151 387.29,-187"/>
<text text-anchor="middle" x="329" y="-164.8" font-family="Times,serif" font-size="14.00">SafeUsersModule</text>
</g>
<!-- SafeEditUserComponent&#45;&gt;SafeUsersModule -->
<g id="edge1" class="edge">
<title>SafeEditUserComponent&#45;&gt;SafeUsersModule</title>
<path fill="none" stroke="black" d="M571,-122.11C571,-141.34 571,-169 571,-169 571,-169 397.27,-169 397.27,-169"/>
<polygon fill="black" stroke="black" points="397.27,-165.5 387.27,-169 397.27,-172.5 397.27,-165.5"/>
</g>
<!-- SafeUsersComponent -->
<g id="node2" class="node">
<title>SafeUsersComponent</title>
<polygon fill="#ffffb3" stroke="black" points="475.08,-122 336.92,-122 336.92,-86 475.08,-86 475.08,-122"/>
<text text-anchor="middle" x="406" y="-99.8" font-family="Times,serif" font-size="14.00">SafeUsersComponent</text>
</g>
<!-- SafeUsersComponent&#45;&gt;SafeUsersModule -->
<g id="edge2" class="edge">
<title>SafeUsersComponent&#45;&gt;SafeUsersModule</title>
<path fill="none" stroke="black" d="M362.05,-122.11C362.05,-122.11 362.05,-140.99 362.05,-140.99"/>
<polygon fill="black" stroke="black" points="358.55,-140.99 362.05,-150.99 365.55,-140.99 358.55,-140.99"/>
</g>
<!-- SafeUsersComponent  -->
<g id="node6" class="node">
<title>SafeUsersComponent </title>
<polygon fill="#fb8072" stroke="black" points="399.58,-252 258.42,-252 258.42,-216 399.58,-216 399.58,-252"/>
<text text-anchor="middle" x="329" y="-229.8" font-family="Times,serif" font-size="14.00">SafeUsersComponent </text>
</g>
<!-- SafeUsersModule&#45;&gt;SafeUsersComponent  -->
<g id="edge5" class="edge">
<title>SafeUsersModule&#45;&gt;SafeUsersComponent </title>
<path fill="none" stroke="black" stroke-dasharray="5,2" d="M329,-187.11C329,-187.11 329,-205.99 329,-205.99"/>
<polygon fill="black" stroke="black" points="325.5,-205.99 329,-215.99 332.5,-205.99 325.5,-205.99"/>
</g>
<!-- SafeButtonModule -->
<g id="node4" class="node">
<title>SafeButtonModule</title>
<polygon fill="#8dd3c7" stroke="black" points="313.04,-122 310.04,-126 289.04,-126 286.04,-122 190.96,-122 190.96,-86 313.04,-86 313.04,-122"/>
<text text-anchor="middle" x="252" y="-99.8" font-family="Times,serif" font-size="14.00">SafeButtonModule</text>
</g>
<!-- SafeButtonModule&#45;&gt;SafeUsersModule -->
<g id="edge3" class="edge">
<title>SafeButtonModule&#45;&gt;SafeUsersModule</title>
<path fill="none" stroke="black" d="M292.06,-122.11C292.06,-122.11 292.06,-140.99 292.06,-140.99"/>
<polygon fill="black" stroke="black" points="288.56,-140.99 292.06,-150.99 295.56,-140.99 288.56,-140.99"/>
</g>
<!-- SafeInviteUsersModule -->
<g id="node5" class="node">
<title>SafeInviteUsersModule</title>
<polygon fill="#8dd3c7" stroke="black" points="172.45,-122 169.45,-126 148.45,-126 145.45,-122 23.55,-122 23.55,-86 172.45,-86 172.45,-122"/>
<text text-anchor="middle" x="98" y="-99.8" font-family="Times,serif" font-size="14.00">SafeInviteUsersModule</text>
</g>
<!-- SafeInviteUsersModule&#45;&gt;SafeUsersModule -->
<g id="edge4" class="edge">
<title>SafeInviteUsersModule&#45;&gt;SafeUsersModule</title>
<path fill="none" stroke="black" d="M98,-122.11C98,-141.34 98,-169 98,-169 98,-169 260.71,-169 260.71,-169"/>
<polygon fill="black" stroke="black" points="260.71,-172.5 270.71,-169 260.71,-165.5 260.71,-172.5"/>
</g>
</g>
</svg>
