<?xml version="1.0" encoding="UTF-8" standalone="no"?>
<!DOCTYPE svg PUBLIC "-//W3C//DTD SVG 1.1//EN"
 "http://www.w3.org/Graphics/SVG/1.1/DTD/svg11.dtd">
<!-- Generated by graphviz version 2.47.0 (20210316.0004)
 -->
<!-- Title: dependencies Pages: 1 -->
<svg width="681pt" height="284pt"
 viewBox="0.00 0.00 681.00 284.00" xmlns="http://www.w3.org/2000/svg" xmlns:xlink="http://www.w3.org/1999/xlink">
<g id="graph0" class="graph" transform="scale(1 1) rotate(0) translate(4 280)">
<title>dependencies</title>
<polygon fill="white" stroke="transparent" points="-4,4 -4,-280 677,-280 677,4 -4,4"/>
<text text-anchor="start" x="315.51" y="-42.4" font-family="sans-serif" font-weight="bold" font-size="14.00">Legend</text>
<polygon fill="#ffffb3" stroke="transparent" points="102.5,-10 102.5,-30 122.5,-30 122.5,-10 102.5,-10"/>
<text text-anchor="start" x="126.13" y="-15.4" font-family="sans-serif" font-size="14.00"> &#160;Declarations</text>
<polygon fill="#8dd3c7" stroke="transparent" points="215.5,-10 215.5,-30 235.5,-30 235.5,-10 215.5,-10"/>
<text text-anchor="start" x="239.23" y="-15.4" font-family="sans-serif" font-size="14.00"> &#160;Module</text>
<polygon fill="#80b1d3" stroke="transparent" points="301.5,-10 301.5,-30 321.5,-30 321.5,-10 301.5,-10"/>
<text text-anchor="start" x="325.28" y="-15.4" font-family="sans-serif" font-size="14.00"> &#160;Bootstrap</text>
<polygon fill="#fdb462" stroke="transparent" points="398.5,-10 398.5,-30 418.5,-30 418.5,-10 398.5,-10"/>
<text text-anchor="start" x="422.17" y="-15.4" font-family="sans-serif" font-size="14.00"> &#160;Providers</text>
<polygon fill="#fb8072" stroke="transparent" points="494.5,-10 494.5,-30 514.5,-30 514.5,-10 494.5,-10"/>
<text text-anchor="start" x="518.23" y="-15.4" font-family="sans-serif" font-size="14.00"> &#160;Exports</text>
<g id="clust1" class="cluster">
<title>cluster_SafeUsersModule</title>
<polygon fill="none" stroke="black" stroke-dasharray="1,5" points="8,-70 8,-268 665,-268 665,-70 8,-70"/>
</g>
<g id="clust6" class="cluster">
<title>cluster_SafeUsersModule_exports</title>
<polygon fill="none" stroke="black" points="267,-208 267,-260 425,-260 425,-208 267,-208"/>
</g>
<g id="clust5" class="cluster">
<title>cluster_SafeUsersModule_imports</title>
<polygon fill="none" stroke="black" points="352,-78 352,-130 657,-130 657,-78 352,-78"/>
</g>
<g id="clust2" class="cluster">
<title>cluster_SafeUsersModule_declarations</title>
<polygon fill="none" stroke="black" points="16,-78 16,-130 344,-130 344,-78 16,-78"/>
</g>
<!-- SafeEditUserComponent -->
<g id="node1" class="node">
<title>SafeEditUserComponent</title>
<polygon fill="#ffffb3" stroke="black" points="335.97,-122 180.03,-122 180.03,-86 335.97,-86 335.97,-122"/>
<text text-anchor="middle" x="258" y="-99.8" font-family="Times,serif" font-size="14.00">SafeEditUserComponent</text>
</g>
<!-- SafeUsersModule -->
<g id="node3" class="node">
<title>SafeUsersModule</title>
<polygon fill="#8dd3c7" stroke="black" points="404.29,-187 401.29,-191 380.29,-191 377.29,-187 287.71,-187 287.71,-151 404.29,-151 404.29,-187"/>
<text text-anchor="middle" x="346" y="-164.8" font-family="Times,serif" font-size="14.00">SafeUsersModule</text>
</g>
<!-- SafeEditUserComponent&#45;&gt;SafeUsersModule -->
<g id="edge1" class="edge">
<title>SafeEditUserComponent&#45;&gt;SafeUsersModule</title>
<path fill="none" stroke="black" d="M311.92,-122.11C311.92,-122.11 311.92,-140.99 311.92,-140.99"/>
<polygon fill="black" stroke="black" points="308.42,-140.99 311.92,-150.99 315.42,-140.99 308.42,-140.99"/>
</g>
<!-- SafeUsersComponent -->
<g id="node2" class="node">
<title>SafeUsersComponent</title>
<polygon fill="#ffffb3" stroke="black" points="162.08,-122 23.92,-122 23.92,-86 162.08,-86 162.08,-122"/>
<text text-anchor="middle" x="93" y="-99.8" font-family="Times,serif" font-size="14.00">SafeUsersComponent</text>
</g>
<!-- SafeUsersComponent&#45;&gt;SafeUsersModule -->
<g id="edge2" class="edge">
<title>SafeUsersComponent&#45;&gt;SafeUsersModule</title>
<path fill="none" stroke="black" d="M93,-122.11C93,-141.34 93,-169 93,-169 93,-169 277.64,-169 277.64,-169"/>
<polygon fill="black" stroke="black" points="277.64,-172.5 287.64,-169 277.64,-165.5 277.64,-172.5"/>
</g>
<!-- SafeUsersComponent  -->
<g id="node6" class="node">
<title>SafeUsersComponent </title>
<polygon fill="#fb8072" stroke="black" points="416.58,-252 275.42,-252 275.42,-216 416.58,-216 416.58,-252"/>
<text text-anchor="middle" x="346" y="-229.8" font-family="Times,serif" font-size="14.00">SafeUsersComponent </text>
</g>
<!-- SafeUsersModule&#45;&gt;SafeUsersComponent  -->
<g id="edge5" class="edge">
<title>SafeUsersModule&#45;&gt;SafeUsersComponent </title>
<path fill="none" stroke="black" stroke-dasharray="5,2" d="M346,-187.11C346,-187.11 346,-205.99 346,-205.99"/>
<polygon fill="black" stroke="black" points="342.5,-205.99 346,-215.99 349.5,-205.99 342.5,-205.99"/>
</g>
<!-- SafeButtonModule -->
<g id="node4" class="node">
<title>SafeButtonModule</title>
<polygon fill="#8dd3c7" stroke="black" points="649.04,-122 646.04,-126 625.04,-126 622.04,-122 526.96,-122 526.96,-86 649.04,-86 649.04,-122"/>
<text text-anchor="middle" x="588" y="-99.8" font-family="Times,serif" font-size="14.00">SafeButtonModule</text>
</g>
<!-- SafeButtonModule&#45;&gt;SafeUsersModule -->
<g id="edge3" class="edge">
<title>SafeButtonModule&#45;&gt;SafeUsersModule</title>
<path fill="none" stroke="black" d="M588,-122.11C588,-141.34 588,-169 588,-169 588,-169 414.27,-169 414.27,-169"/>
<polygon fill="black" stroke="black" points="414.27,-165.5 404.27,-169 414.27,-172.5 414.27,-165.5"/>
</g>
<!-- SafeInviteUsersModule -->
<g id="node5" class="node">
<title>SafeInviteUsersModule</title>
<polygon fill="#8dd3c7" stroke="black" points="508.45,-122 505.45,-126 484.45,-126 481.45,-122 359.55,-122 359.55,-86 508.45,-86 508.45,-122"/>
<text text-anchor="middle" x="434" y="-99.8" font-family="Times,serif" font-size="14.00">SafeInviteUsersModule</text>
</g>
<!-- SafeInviteUsersModule&#45;&gt;SafeUsersModule -->
<g id="edge4" class="edge">
<title>SafeInviteUsersModule&#45;&gt;SafeUsersModule</title>
<path fill="none" stroke="black" d="M381.84,-122.11C381.84,-122.11 381.84,-140.99 381.84,-140.99"/>
<polygon fill="black" stroke="black" points="378.34,-140.99 381.84,-150.99 385.34,-140.99 378.34,-140.99"/>
</g>
</g>
</svg>
