<?xml version="1.0" encoding="UTF-8" standalone="no"?>
<!DOCTYPE svg PUBLIC "-//W3C//DTD SVG 1.1//EN"
 "http://www.w3.org/Graphics/SVG/1.1/DTD/svg11.dtd">
<!-- Generated by graphviz version 3.0.0 (20220226.1711)
 -->
<!-- Title: dependencies Pages: 1 -->
<svg width="378pt" height="247pt"
 viewBox="0.00 0.00 378.00 246.80" xmlns="http://www.w3.org/2000/svg" xmlns:xlink="http://www.w3.org/1999/xlink">
<g id="graph0" class="graph" transform="scale(1 1) rotate(0) translate(4 242.8)">
<title>dependencies</title>
<polygon fill="white" stroke="transparent" points="-4,4 -4,-242.8 374,-242.8 374,4 -4,4"/>
<text text-anchor="middle" x="185" y="-8.2" font-family="sans-serif" font-size="14.00">dependencies</text>
<g id="clust1" class="cluster">
<title>cluster_WorkflowWidgetModule</title>
<polygon fill="none" stroke="black" stroke-dasharray="1,5" points="8,-32.8 8,-230.8 362,-230.8 362,-32.8 8,-32.8"/>
</g>
<g id="clust2" class="cluster">
<title>cluster_WorkflowWidgetModule_declarations</title>
<polygon fill="none" stroke="black" points="158,-40.8 158,-92.8 354,-92.8 354,-40.8 158,-40.8"/>
</g>
<g id="clust4" class="cluster">
<title>cluster_WorkflowWidgetModule_imports</title>
<polygon fill="none" stroke="black" points="16,-40.8 16,-92.8 150,-92.8 150,-40.8 16,-40.8"/>
</g>
<g id="clust5" class="cluster">
<title>cluster_WorkflowWidgetModule_exports</title>
<polygon fill="none" stroke="black" points="85,-170.8 85,-222.8 285,-222.8 285,-170.8 85,-170.8"/>
</g>
<!-- WorkflowWidgetComponent -->
<g id="node1" class="node">
<title>WorkflowWidgetComponent</title>
<polygon fill="#ffffb3" stroke="black" points="346.08,-84.8 165.92,-84.8 165.92,-48.8 346.08,-48.8 346.08,-84.8"/>
<text text-anchor="middle" x="256" y="-62.6" font-family="Times,serif" font-size="14.00">WorkflowWidgetComponent</text>
</g>
<!-- WorkflowWidgetModule -->
<g id="node2" class="node">
<title>WorkflowWidgetModule</title>
<polygon fill="#8dd3c7" stroke="black" points="264.3,-149.8 261.3,-153.8 240.3,-153.8 237.3,-149.8 105.7,-149.8 105.7,-113.8 264.3,-113.8 264.3,-149.8"/>
<text text-anchor="middle" x="185" y="-127.6" font-family="Times,serif" font-size="14.00">WorkflowWidgetModule</text>
</g>
<!-- WorkflowWidgetComponent&#45;&gt;WorkflowWidgetModule -->
<g id="edge1" class="edge">
<title>WorkflowWidgetComponent&#45;&gt;WorkflowWidgetModule</title>
<path fill="none" stroke="black" d="M215.06,-84.91C215.06,-84.91 215.06,-103.79 215.06,-103.79"/>
<polygon fill="black" stroke="black" points="211.56,-103.79 215.06,-113.79 218.56,-103.79 211.56,-103.79"/>
</g>
<!-- WorkflowWidgetComponent  -->
<g id="node4" class="node">
<title>WorkflowWidgetComponent </title>
<polygon fill="#fb8072" stroke="black" points="276.58,-214.8 93.42,-214.8 93.42,-178.8 276.58,-178.8 276.58,-214.8"/>
<text text-anchor="middle" x="185" y="-192.6" font-family="Times,serif" font-size="14.00">WorkflowWidgetComponent </text>
</g>
<!-- WorkflowWidgetModule&#45;&gt;WorkflowWidgetComponent  -->
<g id="edge3" class="edge">
<title>WorkflowWidgetModule&#45;&gt;WorkflowWidgetComponent </title>
<path fill="none" stroke="black" stroke-dasharray="5,2" d="M185,-149.91C185,-149.91 185,-168.79 185,-168.79"/>
<polygon fill="black" stroke="black" points="181.5,-168.79 185,-178.79 188.5,-168.79 181.5,-168.79"/>
</g>
<!-- WorkflowModule -->
<g id="node3" class="node">
<title>WorkflowModule</title>
<polygon fill="#8dd3c7" stroke="black" points="141.59,-84.8 138.59,-88.8 117.59,-88.8 114.59,-84.8 24.41,-84.8 24.41,-48.8 141.59,-48.8 141.59,-84.8"/>
<text text-anchor="middle" x="83" y="-62.6" font-family="Times,serif" font-size="14.00">WorkflowModule</text>
</g>
<!-- WorkflowModule&#45;&gt;WorkflowWidgetModule -->
<g id="edge2" class="edge">
<title>WorkflowModule&#45;&gt;WorkflowWidgetModule</title>
<path fill="none" stroke="black" d="M123.7,-84.91C123.7,-84.91 123.7,-103.79 123.7,-103.79"/>
<polygon fill="black" stroke="black" points="120.2,-103.79 123.7,-113.79 127.2,-103.79 120.2,-103.79"/>
</g>
</g>
</svg>
