<?xml version="1.0" encoding="UTF-8" standalone="no"?>
<!DOCTYPE svg PUBLIC "-//W3C//DTD SVG 1.1//EN"
 "http://www.w3.org/Graphics/SVG/1.1/DTD/svg11.dtd">
<!-- Generated by graphviz version 3.0.0 (20220226.1711)
 -->
<!-- Title: dependencies Pages: 1 -->
<svg width="380pt" height="247pt"
 viewBox="0.00 0.00 380.00 246.80" xmlns="http://www.w3.org/2000/svg" xmlns:xlink="http://www.w3.org/1999/xlink">
<g id="graph0" class="graph" transform="scale(1 1) rotate(0) translate(4 242.8)">
<title>dependencies</title>
<polygon fill="white" stroke="transparent" points="-4,4 -4,-242.8 376,-242.8 376,4 -4,4"/>
<text text-anchor="middle" x="186" y="-8.2" font-family="sans-serif" font-size="14.00">dependencies</text>
<g id="clust1" class="cluster">
<title>cluster_WorkflowModule</title>
<polygon fill="none" stroke="black" stroke-dasharray="1,5" points="8,-32.8 8,-230.8 364,-230.8 364,-32.8 8,-32.8"/>
</g>
<g id="clust2" class="cluster">
<title>cluster_WorkflowModule_declarations</title>
<polygon fill="none" stroke="black" points="202,-40.8 202,-92.8 356,-92.8 356,-40.8 202,-40.8"/>
</g>
<g id="clust5" class="cluster">
<title>cluster_WorkflowModule_exports</title>
<polygon fill="none" stroke="black" points="112,-170.8 112,-222.8 270,-222.8 270,-170.8 112,-170.8"/>
</g>
<g id="clust4" class="cluster">
<title>cluster_WorkflowModule_imports</title>
<polygon fill="none" stroke="black" points="16,-40.8 16,-92.8 194,-92.8 194,-40.8 16,-40.8"/>
</g>
<!-- WorkflowComponent -->
<g id="node1" class="node">
<title>WorkflowComponent</title>
<polygon fill="#ffffb3" stroke="black" points="348.37,-84.8 209.63,-84.8 209.63,-48.8 348.37,-48.8 348.37,-84.8"/>
<text text-anchor="middle" x="279" y="-62.6" font-family="Times,serif" font-size="14.00">WorkflowComponent</text>
</g>
<!-- WorkflowModule -->
<g id="node2" class="node">
<title>WorkflowModule</title>
<polygon fill="#8dd3c7" stroke="black" points="249.59,-149.8 246.59,-153.8 225.59,-153.8 222.59,-149.8 132.41,-149.8 132.41,-113.8 249.59,-113.8 249.59,-149.8"/>
<text text-anchor="middle" x="191" y="-127.6" font-family="Times,serif" font-size="14.00">WorkflowModule</text>
</g>
<!-- WorkflowComponent&#45;&gt;WorkflowModule -->
<g id="edge1" class="edge">
<title>WorkflowComponent&#45;&gt;WorkflowModule</title>
<path fill="none" stroke="black" d="M229.56,-84.91C229.56,-84.91 229.56,-103.79 229.56,-103.79"/>
<polygon fill="black" stroke="black" points="226.06,-103.79 229.56,-113.79 233.06,-103.79 226.06,-103.79"/>
</g>
<!-- WorkflowComponent  -->
<g id="node4" class="node">
<title>WorkflowComponent </title>
<polygon fill="#fb8072" stroke="black" points="262.37,-214.8 119.63,-214.8 119.63,-178.8 262.37,-178.8 262.37,-214.8"/>
<text text-anchor="middle" x="191" y="-192.6" font-family="Times,serif" font-size="14.00">WorkflowComponent </text>
</g>
<!-- WorkflowModule&#45;&gt;WorkflowComponent  -->
<g id="edge3" class="edge">
<title>WorkflowModule&#45;&gt;WorkflowComponent </title>
<path fill="none" stroke="black" stroke-dasharray="5,2" d="M191,-149.91C191,-149.91 191,-168.79 191,-168.79"/>
<polygon fill="black" stroke="black" points="187.5,-168.79 191,-178.79 194.5,-168.79 187.5,-168.79"/>
</g>
<!-- WorkflowRoutingModule -->
<g id="node3" class="node">
<title>WorkflowRoutingModule</title>
<polygon fill="#8dd3c7" stroke="black" points="186.21,-84.8 183.21,-88.8 162.21,-88.8 159.21,-84.8 23.79,-84.8 23.79,-48.8 186.21,-48.8 186.21,-84.8"/>
<text text-anchor="middle" x="105" y="-62.6" font-family="Times,serif" font-size="14.00">WorkflowRoutingModule</text>
</g>
<!-- WorkflowRoutingModule&#45;&gt;WorkflowModule -->
<g id="edge2" class="edge">
<title>WorkflowRoutingModule&#45;&gt;WorkflowModule</title>
<path fill="none" stroke="black" d="M159.28,-84.91C159.28,-84.91 159.28,-103.79 159.28,-103.79"/>
<polygon fill="black" stroke="black" points="155.78,-103.79 159.28,-113.79 162.78,-103.79 155.78,-103.79"/>
</g>
</g>
</svg>
