<?xml version="1.0" encoding="UTF-8" standalone="no"?>
<!DOCTYPE svg PUBLIC "-//W3C//DTD SVG 1.1//EN"
 "http://www.w3.org/Graphics/SVG/1.1/DTD/svg11.dtd">
<!-- Generated by graphviz version 3.0.0 (20220226.1711)
 -->
<!-- Title: dependencies Pages: 1 -->
<svg width="934pt" height="247pt"
 viewBox="0.00 0.00 934.00 246.80" xmlns="http://www.w3.org/2000/svg" xmlns:xlink="http://www.w3.org/1999/xlink">
<g id="graph0" class="graph" transform="scale(1 1) rotate(0) translate(4 242.8)">
<title>dependencies</title>
<polygon fill="white" stroke="transparent" points="-4,4 -4,-242.8 930,-242.8 930,4 -4,4"/>
<text text-anchor="middle" x="463" y="-8.2" font-family="sans-serif" font-size="14.00">dependencies</text>
<g id="clust1" class="cluster">
<title>cluster_DistributionListsModule</title>
<polygon fill="none" stroke="black" stroke-dasharray="1,5" points="8,-32.8 8,-230.8 918,-230.8 918,-32.8 8,-32.8"/>
</g>
<g id="clust4" class="cluster">
<title>cluster_DistributionListsModule_imports</title>
<polygon fill="none" stroke="black" points="216,-40.8 216,-92.8 910,-92.8 910,-40.8 216,-40.8"/>
</g>
<g id="clust5" class="cluster">
<title>cluster_DistributionListsModule_exports</title>
<polygon fill="none" stroke="black" points="373,-170.8 373,-222.8 569,-222.8 569,-170.8 373,-170.8"/>
</g>
<g id="clust2" class="cluster">
<title>cluster_DistributionListsModule_declarations</title>
<polygon fill="none" stroke="black" points="16,-40.8 16,-92.8 208,-92.8 208,-40.8 16,-40.8"/>
</g>
<!-- DistributionListsComponent -->
<g id="node1" class="node">
<title>DistributionListsComponent</title>
<polygon fill="#ffffb3" stroke="black" points="200.23,-84.8 23.77,-84.8 23.77,-48.8 200.23,-48.8 200.23,-84.8"/>
<text text-anchor="middle" x="112" y="-62.6" font-family="Times,serif" font-size="14.00">DistributionListsComponent</text>
</g>
<!-- DistributionListsModule -->
<g id="node2" class="node">
<title>DistributionListsModule</title>
<polygon fill="#8dd3c7" stroke="black" points="548.45,-149.8 545.45,-153.8 524.45,-153.8 521.45,-149.8 393.55,-149.8 393.55,-113.8 548.45,-113.8 548.45,-149.8"/>
<text text-anchor="middle" x="471" y="-127.6" font-family="Times,serif" font-size="14.00">DistributionListsModule</text>
</g>
<!-- DistributionListsComponent&#45;&gt;DistributionListsModule -->
<g id="edge1" class="edge">
<title>DistributionListsComponent&#45;&gt;DistributionListsModule</title>
<path fill="none" stroke="black" d="M112,-85.08C112,-106.12 112,-137.8 112,-137.8 112,-137.8 383.54,-137.8 383.54,-137.8"/>
<polygon fill="black" stroke="black" points="383.54,-141.3 393.54,-137.8 383.54,-134.3 383.54,-141.3"/>
</g>
<!-- DistributionListsComponent  -->
<g id="node7" class="node">
<title>DistributionListsComponent </title>
<polygon fill="#fb8072" stroke="black" points="560.73,-214.8 381.27,-214.8 381.27,-178.8 560.73,-178.8 560.73,-214.8"/>
<text text-anchor="middle" x="471" y="-192.6" font-family="Times,serif" font-size="14.00">DistributionListsComponent </text>
</g>
<!-- DistributionListsModule&#45;&gt;DistributionListsComponent  -->
<g id="edge6" class="edge">
<title>DistributionListsModule&#45;&gt;DistributionListsComponent </title>
<path fill="none" stroke="black" stroke-dasharray="5,2" d="M471,-149.91C471,-149.91 471,-168.79 471,-168.79"/>
<polygon fill="black" stroke="black" points="467.5,-168.79 471,-178.79 474.5,-168.79 467.5,-168.79"/>
</g>
<!-- EditDistributionListModalModule -->
<g id="node3" class="node">
<title>EditDistributionListModalModule</title>
<polygon fill="#8dd3c7" stroke="black" points="902.38,-84.8 899.38,-88.8 878.38,-88.8 875.38,-84.8 693.62,-84.8 693.62,-48.8 902.38,-48.8 902.38,-84.8"/>
<text text-anchor="middle" x="798" y="-62.6" font-family="Times,serif" font-size="14.00">EditDistributionListModalModule</text>
</g>
<!-- EditDistributionListModalModule&#45;&gt;DistributionListsModule -->
<g id="edge2" class="edge">
<title>EditDistributionListModalModule&#45;&gt;DistributionListsModule</title>
<path fill="none" stroke="black" d="M798,-85.08C798,-106.12 798,-137.8 798,-137.8 798,-137.8 558.49,-137.8 558.49,-137.8"/>
<polygon fill="black" stroke="black" points="558.49,-134.3 548.49,-137.8 558.49,-141.3 558.49,-134.3"/>
</g>
<!-- SafeButtonModule -->
<g id="node4" class="node">
<title>SafeButtonModule</title>
<polygon fill="#8dd3c7" stroke="black" points="675.05,-84.8 672.05,-88.8 651.05,-88.8 648.05,-84.8 552.95,-84.8 552.95,-48.8 675.05,-48.8 675.05,-84.8"/>
<text text-anchor="middle" x="614" y="-62.6" font-family="Times,serif" font-size="14.00">SafeButtonModule</text>
</g>
<!-- SafeButtonModule&#45;&gt;DistributionListsModule -->
<g id="edge3" class="edge">
<title>SafeButtonModule&#45;&gt;DistributionListsModule</title>
<path fill="none" stroke="black" d="M556.8,-84.82C556.8,-102.17 556.8,-125.8 556.8,-125.8 556.8,-125.8 555.94,-125.8 555.94,-125.8"/>
<polygon fill="black" stroke="black" points="558.26,-122.3 548.26,-125.8 558.26,-129.3 558.26,-122.3"/>
</g>
<!-- SafeDividerModule -->
<g id="node5" class="node">
<title>SafeDividerModule</title>
<polygon fill="#8dd3c7" stroke="black" points="534.69,-84.8 531.69,-88.8 510.69,-88.8 507.69,-84.8 407.31,-84.8 407.31,-48.8 534.69,-48.8 534.69,-84.8"/>
<text text-anchor="middle" x="471" y="-62.6" font-family="Times,serif" font-size="14.00">SafeDividerModule</text>
</g>
<!-- SafeDividerModule&#45;&gt;DistributionListsModule -->
<g id="edge4" class="edge">
<title>SafeDividerModule&#45;&gt;DistributionListsModule</title>
<path fill="none" stroke="black" d="M471,-84.91C471,-84.91 471,-103.79 471,-103.79"/>
<polygon fill="black" stroke="black" points="467.5,-103.79 471,-113.79 474.5,-103.79 467.5,-103.79"/>
</g>
<!-- SafeSkeletonTableModule -->
<g id="node6" class="node">
<title>SafeSkeletonTableModule</title>
<polygon fill="#8dd3c7" stroke="black" points="389.79,-84.8 386.79,-88.8 365.79,-88.8 362.79,-84.8 224.21,-84.8 224.21,-48.8 389.79,-48.8 389.79,-84.8"/>
<text text-anchor="middle" x="307" y="-62.6" font-family="Times,serif" font-size="14.00">SafeSkeletonTableModule</text>
</g>
<!-- SafeSkeletonTableModule&#45;&gt;DistributionListsModule -->
<g id="edge5" class="edge">
<title>SafeSkeletonTableModule&#45;&gt;DistributionListsModule</title>
<path fill="none" stroke="black" d="M385.39,-84.82C385.39,-102.17 385.39,-125.8 385.39,-125.8 385.39,-125.8 386.21,-125.8 386.21,-125.8"/>
<polygon fill="black" stroke="black" points="383.6,-129.3 393.6,-125.8 383.6,-122.3 383.6,-129.3"/>
</g>
</g>
</svg>
