<?xml version="1.0" encoding="UTF-8" standalone="no"?>
<!DOCTYPE svg PUBLIC "-//W3C//DTD SVG 1.1//EN"
 "http://www.w3.org/Graphics/SVG/1.1/DTD/svg11.dtd">
<!-- Generated by graphviz version 3.0.0 (20220226.1711)
 -->
<!-- Title: dependencies Pages: 1 -->
<svg width="934pt" height="247pt"
 viewBox="0.00 0.00 934.00 246.80" xmlns="http://www.w3.org/2000/svg" xmlns:xlink="http://www.w3.org/1999/xlink">
<g id="graph0" class="graph" transform="scale(1 1) rotate(0) translate(4 242.8)">
<title>dependencies</title>
<polygon fill="white" stroke="transparent" points="-4,4 -4,-242.8 930,-242.8 930,4 -4,4"/>
<text text-anchor="middle" x="463" y="-8.2" font-family="sans-serif" font-size="14.00">dependencies</text>
<g id="clust1" class="cluster">
<title>cluster_DistributionListsModule</title>
<polygon fill="none" stroke="black" stroke-dasharray="1,5" points="8,-32.8 8,-230.8 918,-230.8 918,-32.8 8,-32.8"/>
</g>
<g id="clust5" class="cluster">
<title>cluster_DistributionListsModule_exports</title>
<polygon fill="none" stroke="black" points="316,-170.8 316,-222.8 512,-222.8 512,-170.8 316,-170.8"/>
</g>
<g id="clust2" class="cluster">
<title>cluster_DistributionListsModule_declarations</title>
<polygon fill="none" stroke="black" points="718,-40.8 718,-92.8 910,-92.8 910,-40.8 718,-40.8"/>
</g>
<g id="clust4" class="cluster">
<title>cluster_DistributionListsModule_imports</title>
<polygon fill="none" stroke="black" points="16,-40.8 16,-92.8 710,-92.8 710,-40.8 16,-40.8"/>
</g>
<!-- DistributionListsComponent -->
<g id="node1" class="node">
<title>DistributionListsComponent</title>
<polygon fill="#ffffb3" stroke="black" points="902.23,-84.8 725.77,-84.8 725.77,-48.8 902.23,-48.8 902.23,-84.8"/>
<text text-anchor="middle" x="814" y="-62.6" font-family="Times,serif" font-size="14.00">DistributionListsComponent</text>
</g>
<!-- DistributionListsModule -->
<g id="node2" class="node">
<title>DistributionListsModule</title>
<polygon fill="#8dd3c7" stroke="black" points="491.45,-149.8 488.45,-153.8 467.45,-153.8 464.45,-149.8 336.55,-149.8 336.55,-113.8 491.45,-113.8 491.45,-149.8"/>
<text text-anchor="middle" x="414" y="-127.6" font-family="Times,serif" font-size="14.00">DistributionListsModule</text>
</g>
<!-- DistributionListsComponent&#45;&gt;DistributionListsModule -->
<g id="edge1" class="edge">
<title>DistributionListsComponent&#45;&gt;DistributionListsModule</title>
<path fill="none" stroke="black" d="M814,-85.08C814,-106.12 814,-137.8 814,-137.8 814,-137.8 501.6,-137.8 501.6,-137.8"/>
<polygon fill="black" stroke="black" points="501.6,-134.3 491.6,-137.8 501.6,-141.3 501.6,-134.3"/>
</g>
<!-- DistributionListsComponent  -->
<g id="node7" class="node">
<title>DistributionListsComponent </title>
<polygon fill="#fb8072" stroke="black" points="503.73,-214.8 324.27,-214.8 324.27,-178.8 503.73,-178.8 503.73,-214.8"/>
<text text-anchor="middle" x="414" y="-192.6" font-family="Times,serif" font-size="14.00">DistributionListsComponent </text>
</g>
<!-- DistributionListsModule&#45;&gt;DistributionListsComponent  -->
<g id="edge6" class="edge">
<title>DistributionListsModule&#45;&gt;DistributionListsComponent </title>
<path fill="none" stroke="black" stroke-dasharray="5,2" d="M414,-149.91C414,-149.91 414,-168.79 414,-168.79"/>
<polygon fill="black" stroke="black" points="410.5,-168.79 414,-178.79 417.5,-168.79 410.5,-168.79"/>
</g>
<!-- EditDistributionListModalModule -->
<g id="node3" class="node">
<title>EditDistributionListModalModule</title>
<polygon fill="#8dd3c7" stroke="black" points="702.38,-84.8 699.38,-88.8 678.38,-88.8 675.38,-84.8 493.62,-84.8 493.62,-48.8 702.38,-48.8 702.38,-84.8"/>
<text text-anchor="middle" x="598" y="-62.6" font-family="Times,serif" font-size="14.00">EditDistributionListModalModule</text>
</g>
<!-- EditDistributionListModalModule&#45;&gt;DistributionListsModule -->
<g id="edge2" class="edge">
<title>EditDistributionListModalModule&#45;&gt;DistributionListsModule</title>
<path fill="none" stroke="black" d="M498.71,-84.82C498.71,-102.17 498.71,-125.8 498.71,-125.8 498.71,-125.8 497.99,-125.8 497.99,-125.8"/>
<polygon fill="black" stroke="black" points="501.49,-122.3 491.49,-125.8 501.49,-129.3 501.49,-122.3"/>
</g>
<!-- SafeButtonModule -->
<g id="node4" class="node">
<title>SafeButtonModule</title>
<polygon fill="#8dd3c7" stroke="black" points="475.05,-84.8 472.05,-88.8 451.05,-88.8 448.05,-84.8 352.95,-84.8 352.95,-48.8 475.05,-48.8 475.05,-84.8"/>
<text text-anchor="middle" x="414" y="-62.6" font-family="Times,serif" font-size="14.00">SafeButtonModule</text>
</g>
<!-- SafeButtonModule&#45;&gt;DistributionListsModule -->
<g id="edge3" class="edge">
<title>SafeButtonModule&#45;&gt;DistributionListsModule</title>
<path fill="none" stroke="black" d="M414,-84.91C414,-84.91 414,-103.79 414,-103.79"/>
<polygon fill="black" stroke="black" points="410.5,-103.79 414,-113.79 417.5,-103.79 410.5,-103.79"/>
</g>
<!-- SafeDividerModule -->
<g id="node5" class="node">
<title>SafeDividerModule</title>
<polygon fill="#8dd3c7" stroke="black" points="334.69,-84.8 331.69,-88.8 310.69,-88.8 307.69,-84.8 207.31,-84.8 207.31,-48.8 334.69,-48.8 334.69,-84.8"/>
<text text-anchor="middle" x="271" y="-62.6" font-family="Times,serif" font-size="14.00">SafeDividerModule</text>
</g>
<!-- SafeDividerModule&#45;&gt;DistributionListsModule -->
<g id="edge4" class="edge">
<title>SafeDividerModule&#45;&gt;DistributionListsModule</title>
<path fill="none" stroke="black" d="M329.37,-84.82C329.37,-102.17 329.37,-125.8 329.37,-125.8 329.37,-125.8 330.09,-125.8 330.09,-125.8"/>
<polygon fill="black" stroke="black" points="326.58,-129.3 336.58,-125.8 326.58,-122.3 326.58,-129.3"/>
</g>
<!-- SafeSkeletonTableModule -->
<g id="node6" class="node">
<title>SafeSkeletonTableModule</title>
<polygon fill="#8dd3c7" stroke="black" points="189.79,-84.8 186.79,-88.8 165.79,-88.8 162.79,-84.8 24.21,-84.8 24.21,-48.8 189.79,-48.8 189.79,-84.8"/>
<text text-anchor="middle" x="107" y="-62.6" font-family="Times,serif" font-size="14.00">SafeSkeletonTableModule</text>
</g>
<!-- SafeSkeletonTableModule&#45;&gt;DistributionListsModule -->
<g id="edge5" class="edge">
<title>SafeSkeletonTableModule&#45;&gt;DistributionListsModule</title>
<path fill="none" stroke="black" d="M107,-85.08C107,-106.12 107,-137.8 107,-137.8 107,-137.8 326.53,-137.8 326.53,-137.8"/>
<polygon fill="black" stroke="black" points="326.53,-141.3 336.53,-137.8 326.53,-134.3 326.53,-141.3"/>
</g>
</g>
</svg>
