<?xml version="1.0" encoding="UTF-8" standalone="no"?>
<!DOCTYPE svg PUBLIC "-//W3C//DTD SVG 1.1//EN"
 "http://www.w3.org/Graphics/SVG/1.1/DTD/svg11.dtd">
<!-- Generated by graphviz version 3.0.0 (20220226.1711)
 -->
<!-- Title: dependencies Pages: 1 -->
<svg width="570pt" height="247pt"
 viewBox="0.00 0.00 570.00 246.80" xmlns="http://www.w3.org/2000/svg" xmlns:xlink="http://www.w3.org/1999/xlink">
<g id="graph0" class="graph" transform="scale(1 1) rotate(0) translate(4 242.8)">
<title>dependencies</title>
<polygon fill="white" stroke="transparent" points="-4,4 -4,-242.8 566,-242.8 566,4 -4,4"/>
<text text-anchor="middle" x="281" y="-8.2" font-family="sans-serif" font-size="14.00">dependencies</text>
<g id="clust1" class="cluster">
<title>cluster_FormRecordsModule</title>
<polygon fill="none" stroke="black" stroke-dasharray="1,5" points="8,-32.8 8,-230.8 554,-230.8 554,-32.8 8,-32.8"/>
</g>
<g id="clust5" class="cluster">
<title>cluster_FormRecordsModule_exports</title>
<polygon fill="none" stroke="black" points="177,-170.8 177,-222.8 355,-222.8 355,-170.8 177,-170.8"/>
</g>
<g id="clust2" class="cluster">
<title>cluster_FormRecordsModule_declarations</title>
<polygon fill="none" stroke="black" points="372,-40.8 372,-92.8 546,-92.8 546,-40.8 372,-40.8"/>
</g>
<g id="clust4" class="cluster">
<title>cluster_FormRecordsModule_imports</title>
<polygon fill="none" stroke="black" points="16,-40.8 16,-92.8 364,-92.8 364,-40.8 16,-40.8"/>
</g>
<!-- FormRecordsComponent -->
<g id="node1" class="node">
<title>FormRecordsComponent</title>
<polygon fill="#ffffb3" stroke="black" points="537.55,-84.8 380.45,-84.8 380.45,-48.8 537.55,-48.8 537.55,-84.8"/>
<text text-anchor="middle" x="459" y="-62.6" font-family="Times,serif" font-size="14.00">FormRecordsComponent</text>
</g>
<!-- FormRecordsModule -->
<g id="node2" class="node">
<title>FormRecordsModule</title>
<polygon fill="#8dd3c7" stroke="black" points="333.77,-149.8 330.77,-153.8 309.77,-153.8 306.77,-149.8 198.23,-149.8 198.23,-113.8 333.77,-113.8 333.77,-149.8"/>
<text text-anchor="middle" x="266" y="-127.6" font-family="Times,serif" font-size="14.00">FormRecordsModule</text>
</g>
<!-- FormRecordsComponent&#45;&gt;FormRecordsModule -->
<g id="edge1" class="edge">
<title>FormRecordsComponent&#45;&gt;FormRecordsModule</title>
<path fill="none" stroke="black" d="M459,-84.91C459,-104.14 459,-131.8 459,-131.8 459,-131.8 343.77,-131.8 343.77,-131.8"/>
<polygon fill="black" stroke="black" points="343.77,-128.3 333.77,-131.8 343.77,-135.3 343.77,-128.3"/>
</g>
<!-- FormRecordsComponent  -->
<g id="node5" class="node">
<title>FormRecordsComponent </title>
<polygon fill="#fb8072" stroke="black" points="346.54,-214.8 185.46,-214.8 185.46,-178.8 346.54,-178.8 346.54,-214.8"/>
<text text-anchor="middle" x="266" y="-192.6" font-family="Times,serif" font-size="14.00">FormRecordsComponent </text>
</g>
<!-- FormRecordsModule&#45;&gt;FormRecordsComponent  -->
<g id="edge4" class="edge">
<title>FormRecordsModule&#45;&gt;FormRecordsComponent </title>
<path fill="none" stroke="black" stroke-dasharray="5,2" d="M266,-149.91C266,-149.91 266,-168.79 266,-168.79"/>
<polygon fill="black" stroke="black" points="262.5,-168.79 266,-178.79 269.5,-168.79 262.5,-168.79"/>
</g>
<!-- FormRecordsRoutingModule -->
<g id="node3" class="node">
<title>FormRecordsRoutingModule</title>
<polygon fill="#8dd3c7" stroke="black" points="356.38,-84.8 353.38,-88.8 332.38,-88.8 329.38,-84.8 175.62,-84.8 175.62,-48.8 356.38,-48.8 356.38,-84.8"/>
<text text-anchor="middle" x="266" y="-62.6" font-family="Times,serif" font-size="14.00">FormRecordsRoutingModule</text>
</g>
<!-- FormRecordsRoutingModule&#45;&gt;FormRecordsModule -->
<g id="edge2" class="edge">
<title>FormRecordsRoutingModule&#45;&gt;FormRecordsModule</title>
<path fill="none" stroke="black" d="M266,-84.91C266,-84.91 266,-103.79 266,-103.79"/>
<polygon fill="black" stroke="black" points="262.5,-103.79 266,-113.79 269.5,-103.79 262.5,-103.79"/>
</g>
<!-- UploadMenuModule -->
<g id="node4" class="node">
<title>UploadMenuModule</title>
<polygon fill="#8dd3c7" stroke="black" points="157.93,-84.8 154.93,-88.8 133.93,-88.8 130.93,-84.8 24.07,-84.8 24.07,-48.8 157.93,-48.8 157.93,-84.8"/>
<text text-anchor="middle" x="91" y="-62.6" font-family="Times,serif" font-size="14.00">UploadMenuModule</text>
</g>
<!-- UploadMenuModule&#45;&gt;FormRecordsModule -->
<g id="edge3" class="edge">
<title>UploadMenuModule&#45;&gt;FormRecordsModule</title>
<path fill="none" stroke="black" d="M91,-84.91C91,-104.14 91,-131.8 91,-131.8 91,-131.8 188.09,-131.8 188.09,-131.8"/>
<polygon fill="black" stroke="black" points="188.09,-135.3 198.09,-131.8 188.09,-128.3 188.09,-135.3"/>
</g>
</g>
</svg>
