<?xml version="1.0" encoding="UTF-8" standalone="no"?>
<!DOCTYPE svg PUBLIC "-//W3C//DTD SVG 1.1//EN"
 "http://www.w3.org/Graphics/SVG/1.1/DTD/svg11.dtd">
<!-- Generated by graphviz version 3.0.0 (20220226.1711)
 -->
<!-- Title: dependencies Pages: 1 -->
<svg width="680pt" height="312pt"
 viewBox="0.00 0.00 680.00 311.80" xmlns="http://www.w3.org/2000/svg" xmlns:xlink="http://www.w3.org/1999/xlink">
<g id="graph0" class="graph" transform="scale(1 1) rotate(0) translate(4 307.8)">
<title>dependencies</title>
<polygon fill="white" stroke="transparent" points="-4,4 -4,-307.8 676,-307.8 676,4 -4,4"/>
<text text-anchor="middle" x="336" y="-8.2" font-family="sans-serif" font-size="14.00">dependencies</text>
<g id="clust1" class="cluster">
<title>cluster_EditDistributionListModalModule</title>
<polygon fill="none" stroke="black" stroke-dasharray="1,5" points="8,-32.8 8,-295.8 664,-295.8 664,-32.8 8,-32.8"/>
</g>
<g id="clust2" class="cluster">
<title>cluster_EditDistributionListModalModule_declarations</title>
<polygon fill="none" stroke="black" points="213,-105.8 213,-157.8 459,-157.8 459,-105.8 213,-105.8"/>
</g>
<g id="clust5" class="cluster">
<title>cluster_EditDistributionListModalModule_exports</title>
<polygon fill="none" stroke="black" points="113,-235.8 113,-287.8 363,-287.8 363,-235.8 113,-235.8"/>
</g>
<g id="clust3" class="cluster">
<title>cluster_EditDistributionListModalModule_EditDistributionListModalComponent_providers</title>
<polygon fill="none" stroke="black" points="16,-40.8 16,-92.8 656,-92.8 656,-40.8 16,-40.8"/>
</g>
<g id="clust4" class="cluster">
<title>cluster_EditDistributionListModalModule_imports</title>
<polygon fill="none" stroke="black" points="69,-105.8 69,-157.8 205,-157.8 205,-105.8 69,-105.8"/>
</g>
<!-- EditDistributionListModalComponent -->
<g id="node1" class="node">
<title>EditDistributionListModalComponent</title>
<polygon fill="#ffffb3" stroke="black" points="451.16,-149.8 220.84,-149.8 220.84,-113.8 451.16,-113.8 451.16,-149.8"/>
<text text-anchor="middle" x="336" y="-127.6" font-family="Times,serif" font-size="14.00">EditDistributionListModalComponent</text>
</g>
<!-- EditDistributionListModalModule -->
<g id="node2" class="node">
<title>EditDistributionListModalModule</title>
<polygon fill="#8dd3c7" stroke="black" points="342.38,-214.8 339.38,-218.8 318.38,-218.8 315.38,-214.8 133.62,-214.8 133.62,-178.8 342.38,-178.8 342.38,-214.8"/>
<text text-anchor="middle" x="238" y="-192.6" font-family="Times,serif" font-size="14.00">EditDistributionListModalModule</text>
</g>
<!-- EditDistributionListModalComponent&#45;&gt;EditDistributionListModalModule -->
<g id="edge1" class="edge">
<title>EditDistributionListModalComponent&#45;&gt;EditDistributionListModalModule</title>
<path fill="none" stroke="black" d="M281.56,-149.91C281.56,-149.91 281.56,-168.79 281.56,-168.79"/>
<polygon fill="black" stroke="black" points="278.06,-168.79 281.56,-178.79 285.06,-168.79 278.06,-168.79"/>
</g>
<!-- EditDistributionListModalComponent  -->
<g id="node5" class="node">
<title>EditDistributionListModalComponent </title>
<polygon fill="#fb8072" stroke="black" points="355.16,-279.8 120.84,-279.8 120.84,-243.8 355.16,-243.8 355.16,-279.8"/>
<text text-anchor="middle" x="238" y="-257.6" font-family="Times,serif" font-size="14.00">EditDistributionListModalComponent </text>
</g>
<!-- EditDistributionListModalModule&#45;&gt;EditDistributionListModalComponent  -->
<g id="edge4" class="edge">
<title>EditDistributionListModalModule&#45;&gt;EditDistributionListModalComponent </title>
<path fill="none" stroke="black" stroke-dasharray="5,2" d="M238,-214.91C238,-214.91 238,-233.79 238,-233.79"/>
<polygon fill="black" stroke="black" points="234.5,-233.79 238,-243.79 241.5,-233.79 234.5,-233.79"/>
</g>
<!-- { provide: MAT_CHIPS_DEFAULT_OPTIONS, useFactory: codesFactory } -->
<g id="node3" class="node">
<title>{ provide: MAT_CHIPS_DEFAULT_OPTIONS, useFactory: codesFactory }</title>
<ellipse fill="#fdb462" stroke="black" cx="336" cy="-66.8" rx="311.7" ry="18"/>
<text text-anchor="middle" x="336" y="-62.6" font-family="Times,serif" font-size="14.00">{ provide: MAT_CHIPS_DEFAULT_OPTIONS, useFactory: codesFactory }</text>
</g>
<!-- { provide: MAT_CHIPS_DEFAULT_OPTIONS, useFactory: codesFactory }&#45;&gt;EditDistributionListModalComponent -->
<g id="edge2" class="edge">
<title>{ provide: MAT_CHIPS_DEFAULT_OPTIONS, useFactory: codesFactory }&#45;&gt;EditDistributionListModalComponent</title>
<path fill="none" stroke="black" d="M336,-84.91C336,-84.91 336,-103.79 336,-103.79"/>
<polygon fill="black" stroke="black" points="332.5,-103.79 336,-113.79 339.5,-103.79 332.5,-103.79"/>
</g>
<!-- SafeModalModule -->
<g id="node4" class="node">
<title>SafeModalModule</title>
<polygon fill="#8dd3c7" stroke="black" points="197.48,-149.8 194.48,-153.8 173.48,-153.8 170.48,-149.8 76.52,-149.8 76.52,-113.8 197.48,-113.8 197.48,-149.8"/>
<text text-anchor="middle" x="137" y="-127.6" font-family="Times,serif" font-size="14.00">SafeModalModule</text>
</g>
<!-- SafeModalModule&#45;&gt;EditDistributionListModalModule -->
<g id="edge3" class="edge">
<title>SafeModalModule&#45;&gt;EditDistributionListModalModule</title>
<path fill="none" stroke="black" d="M165.52,-149.91C165.52,-149.91 165.52,-168.79 165.52,-168.79"/>
<polygon fill="black" stroke="black" points="162.02,-168.79 165.52,-178.79 169.02,-168.79 162.02,-168.79"/>
</g>
</g>
</svg>
