<?xml version="1.0" encoding="UTF-8" standalone="no"?>
<!DOCTYPE svg PUBLIC "-//W3C//DTD SVG 1.1//EN"
 "http://www.w3.org/Graphics/SVG/1.1/DTD/svg11.dtd">
<!-- Generated by graphviz version 3.0.0 (20220226.1711)
 -->
<!-- Title: dependencies Pages: 1 -->
<svg width="824pt" height="312pt"
 viewBox="0.00 0.00 824.00 311.80" xmlns="http://www.w3.org/2000/svg" xmlns:xlink="http://www.w3.org/1999/xlink">
<g id="graph0" class="graph" transform="scale(1 1) rotate(0) translate(4 307.8)">
<title>dependencies</title>
<polygon fill="white" stroke="transparent" points="-4,4 -4,-307.8 820,-307.8 820,4 -4,4"/>
<text text-anchor="middle" x="408" y="-8.2" font-family="sans-serif" font-size="14.00">dependencies</text>
<g id="clust1" class="cluster">
<title>cluster_EditDistributionListModalModule</title>
<polygon fill="none" stroke="black" stroke-dasharray="1,5" points="8,-32.8 8,-295.8 808,-295.8 808,-32.8 8,-32.8"/>
</g>
<g id="clust5" class="cluster">
<title>cluster_EditDistributionListModalModule_exports</title>
<polygon fill="none" stroke="black" points="87,-235.8 87,-287.8 337,-287.8 337,-235.8 87,-235.8"/>
</g>
<g id="clust3" class="cluster">
<title>cluster_EditDistributionListModalModule_EditDistributionListModalComponent_providers</title>
<polygon fill="none" stroke="black" points="160,-40.8 160,-157.8 800,-157.8 800,-40.8 160,-40.8"/>
</g>
<g id="clust4" class="cluster">
<title>cluster_EditDistributionListModalModule_imports</title>
<polygon fill="none" stroke="black" points="16,-105.8 16,-157.8 152,-157.8 152,-105.8 16,-105.8"/>
</g>
<!-- EditDistributionListModalComponent -->
<g id="node1" class="node">
<title>EditDistributionListModalComponent</title>
<polygon fill="#ffffb3" stroke="black" points="496.16,-149.8 265.84,-149.8 265.84,-113.8 496.16,-113.8 496.16,-149.8"/>
<text text-anchor="middle" x="381" y="-127.6" font-family="Times,serif" font-size="14.00">EditDistributionListModalComponent</text>
</g>
<!-- EditDistributionListModalModule -->
<g id="node2" class="node">
<title>EditDistributionListModalModule</title>
<polygon fill="#8dd3c7" stroke="black" points="316.38,-214.8 313.38,-218.8 292.38,-218.8 289.38,-214.8 107.62,-214.8 107.62,-178.8 316.38,-178.8 316.38,-214.8"/>
<text text-anchor="middle" x="212" y="-192.6" font-family="Times,serif" font-size="14.00">EditDistributionListModalModule</text>
</g>
<!-- EditDistributionListModalComponent&#45;&gt;EditDistributionListModalModule -->
<g id="edge1" class="edge">
<title>EditDistributionListModalComponent&#45;&gt;EditDistributionListModalModule</title>
<path fill="none" stroke="black" d="M291.06,-149.91C291.06,-149.91 291.06,-168.79 291.06,-168.79"/>
<polygon fill="black" stroke="black" points="287.56,-168.79 291.06,-178.79 294.56,-168.79 287.56,-168.79"/>
</g>
<!-- EditDistributionListModalComponent  -->
<g id="node5" class="node">
<title>EditDistributionListModalComponent </title>
<polygon fill="#fb8072" stroke="black" points="329.16,-279.8 94.84,-279.8 94.84,-243.8 329.16,-243.8 329.16,-279.8"/>
<text text-anchor="middle" x="212" y="-257.6" font-family="Times,serif" font-size="14.00">EditDistributionListModalComponent </text>
</g>
<!-- EditDistributionListModalModule&#45;&gt;EditDistributionListModalComponent  -->
<g id="edge4" class="edge">
<title>EditDistributionListModalModule&#45;&gt;EditDistributionListModalComponent </title>
<path fill="none" stroke="black" stroke-dasharray="5,2" d="M212,-214.91C212,-214.91 212,-233.79 212,-233.79"/>
<polygon fill="black" stroke="black" points="208.5,-233.79 212,-243.79 215.5,-233.79 208.5,-233.79"/>
</g>
<!-- { provide: MAT_CHIPS_DEFAULT_OPTIONS, useFactory: codesFactory } -->
<g id="node3" class="node">
<title>{ provide: MAT_CHIPS_DEFAULT_OPTIONS, useFactory: codesFactory }</title>
<ellipse fill="#fdb462" stroke="black" cx="480" cy="-66.8" rx="311.7" ry="18"/>
<text text-anchor="middle" x="480" y="-62.6" font-family="Times,serif" font-size="14.00">{ provide: MAT_CHIPS_DEFAULT_OPTIONS, useFactory: codesFactory }</text>
</g>
<!-- { provide: MAT_CHIPS_DEFAULT_OPTIONS, useFactory: codesFactory }&#45;&gt;EditDistributionListModalComponent -->
<g id="edge2" class="edge">
<title>{ provide: MAT_CHIPS_DEFAULT_OPTIONS, useFactory: codesFactory }&#45;&gt;EditDistributionListModalComponent</title>
<path fill="none" stroke="black" d="M381,-83.88C381,-83.88 381,-103.7 381,-103.7"/>
<polygon fill="black" stroke="black" points="377.5,-103.7 381,-113.7 384.5,-103.7 377.5,-103.7"/>
</g>
<!-- SafeModalModule -->
<g id="node4" class="node">
<title>SafeModalModule</title>
<polygon fill="#8dd3c7" stroke="black" points="144.48,-149.8 141.48,-153.8 120.48,-153.8 117.48,-149.8 23.52,-149.8 23.52,-113.8 144.48,-113.8 144.48,-149.8"/>
<text text-anchor="middle" x="84" y="-127.6" font-family="Times,serif" font-size="14.00">SafeModalModule</text>
</g>
<!-- SafeModalModule&#45;&gt;EditDistributionListModalModule -->
<g id="edge3" class="edge">
<title>SafeModalModule&#45;&gt;EditDistributionListModalModule</title>
<path fill="none" stroke="black" d="M126.02,-149.91C126.02,-149.91 126.02,-168.79 126.02,-168.79"/>
<polygon fill="black" stroke="black" points="122.52,-168.79 126.02,-178.79 129.52,-168.79 122.52,-168.79"/>
</g>
</g>
</svg>
