<?xml version="1.0" encoding="UTF-8" standalone="no"?>
<!DOCTYPE svg PUBLIC "-//W3C//DTD SVG 1.1//EN"
 "http://www.w3.org/Graphics/SVG/1.1/DTD/svg11.dtd">
<!-- Generated by graphviz version 3.0.0 (20220226.1711)
 -->
<!-- Title: dependencies Pages: 1 -->
<svg width="824pt" height="312pt"
 viewBox="0.00 0.00 824.00 311.80" xmlns="http://www.w3.org/2000/svg" xmlns:xlink="http://www.w3.org/1999/xlink">
<g id="graph0" class="graph" transform="scale(1 1) rotate(0) translate(4 307.8)">
<title>dependencies</title>
<polygon fill="white" stroke="transparent" points="-4,4 -4,-307.8 820,-307.8 820,4 -4,4"/>
<text text-anchor="middle" x="408" y="-8.2" font-family="sans-serif" font-size="14.00">dependencies</text>
<g id="clust1" class="cluster">
<title>cluster_EditDistributionListModalModule</title>
<polygon fill="none" stroke="black" stroke-dasharray="1,5" points="8,-32.8 8,-295.8 808,-295.8 808,-32.8 8,-32.8"/>
</g>
<g id="clust4" class="cluster">
<title>cluster_EditDistributionListModalModule_imports</title>
<polygon fill="none" stroke="black" points="664,-105.8 664,-157.8 800,-157.8 800,-105.8 664,-105.8"/>
</g>
<g id="clust3" class="cluster">
<title>cluster_EditDistributionListModalModule_EditDistributionListModalComponent_providers</title>
<polygon fill="none" stroke="black" points="16,-40.8 16,-157.8 656,-157.8 656,-40.8 16,-40.8"/>
</g>
<g id="clust5" class="cluster">
<title>cluster_EditDistributionListModalModule_exports</title>
<polygon fill="none" stroke="black" points="465,-235.8 465,-287.8 715,-287.8 715,-235.8 465,-235.8"/>
</g>
<!-- EditDistributionListModalComponent -->
<g id="node1" class="node">
<title>EditDistributionListModalComponent</title>
<polygon fill="#ffffb3" stroke="black" points="536.16,-149.8 305.84,-149.8 305.84,-113.8 536.16,-113.8 536.16,-149.8"/>
<text text-anchor="middle" x="421" y="-127.6" font-family="Times,serif" font-size="14.00">EditDistributionListModalComponent</text>
</g>
<!-- EditDistributionListModalModule -->
<g id="node2" class="node">
<title>EditDistributionListModalModule</title>
<polygon fill="#8dd3c7" stroke="black" points="694.38,-214.8 691.38,-218.8 670.38,-218.8 667.38,-214.8 485.62,-214.8 485.62,-178.8 694.38,-178.8 694.38,-214.8"/>
<text text-anchor="middle" x="590" y="-192.6" font-family="Times,serif" font-size="14.00">EditDistributionListModalModule</text>
</g>
<!-- EditDistributionListModalComponent&#45;&gt;EditDistributionListModalModule -->
<g id="edge1" class="edge">
<title>EditDistributionListModalComponent&#45;&gt;EditDistributionListModalModule</title>
<path fill="none" stroke="black" d="M510.94,-149.91C510.94,-149.91 510.94,-168.79 510.94,-168.79"/>
<polygon fill="black" stroke="black" points="507.44,-168.79 510.94,-178.79 514.44,-168.79 507.44,-168.79"/>
</g>
<!-- EditDistributionListModalComponent  -->
<g id="node5" class="node">
<title>EditDistributionListModalComponent </title>
<polygon fill="#fb8072" stroke="black" points="707.16,-279.8 472.84,-279.8 472.84,-243.8 707.16,-243.8 707.16,-279.8"/>
<text text-anchor="middle" x="590" y="-257.6" font-family="Times,serif" font-size="14.00">EditDistributionListModalComponent </text>
</g>
<!-- EditDistributionListModalModule&#45;&gt;EditDistributionListModalComponent  -->
<g id="edge4" class="edge">
<title>EditDistributionListModalModule&#45;&gt;EditDistributionListModalComponent </title>
<path fill="none" stroke="black" stroke-dasharray="5,2" d="M590,-214.91C590,-214.91 590,-233.79 590,-233.79"/>
<polygon fill="black" stroke="black" points="586.5,-233.79 590,-243.79 593.5,-233.79 586.5,-233.79"/>
</g>
<!-- { provide: MAT_CHIPS_DEFAULT_OPTIONS, useFactory: codesFactory } -->
<g id="node3" class="node">
<title>{ provide: MAT_CHIPS_DEFAULT_OPTIONS, useFactory: codesFactory }</title>
<ellipse fill="#fdb462" stroke="black" cx="336" cy="-66.8" rx="311.7" ry="18"/>
<text text-anchor="middle" x="336" y="-62.6" font-family="Times,serif" font-size="14.00">{ provide: MAT_CHIPS_DEFAULT_OPTIONS, useFactory: codesFactory }</text>
</g>
<!-- { provide: MAT_CHIPS_DEFAULT_OPTIONS, useFactory: codesFactory }&#45;&gt;EditDistributionListModalComponent -->
<g id="edge2" class="edge">
<title>{ provide: MAT_CHIPS_DEFAULT_OPTIONS, useFactory: codesFactory }&#45;&gt;EditDistributionListModalComponent</title>
<path fill="none" stroke="black" d="M421,-84.22C421,-84.22 421,-103.42 421,-103.42"/>
<polygon fill="black" stroke="black" points="417.5,-103.42 421,-113.42 424.5,-103.42 417.5,-103.42"/>
</g>
<!-- SafeModalModule -->
<g id="node4" class="node">
<title>SafeModalModule</title>
<polygon fill="#8dd3c7" stroke="black" points="792.48,-149.8 789.48,-153.8 768.48,-153.8 765.48,-149.8 671.52,-149.8 671.52,-113.8 792.48,-113.8 792.48,-149.8"/>
<text text-anchor="middle" x="732" y="-127.6" font-family="Times,serif" font-size="14.00">SafeModalModule</text>
</g>
<!-- SafeModalModule&#45;&gt;EditDistributionListModalModule -->
<g id="edge3" class="edge">
<title>SafeModalModule&#45;&gt;EditDistributionListModalModule</title>
<path fill="none" stroke="black" d="M682.98,-149.91C682.98,-149.91 682.98,-168.79 682.98,-168.79"/>
<polygon fill="black" stroke="black" points="679.48,-168.79 682.98,-178.79 686.48,-168.79 679.48,-168.79"/>
</g>
</g>
</svg>
