<?xml version="1.0" encoding="UTF-8" standalone="no"?>
<!DOCTYPE svg PUBLIC "-//W3C//DTD SVG 1.1//EN"
 "http://www.w3.org/Graphics/SVG/1.1/DTD/svg11.dtd">
<!-- Generated by graphviz version 3.0.0 (20220226.1711)
 -->
<!-- Title: dependencies Pages: 1 -->
<svg width="378pt" height="247pt"
 viewBox="0.00 0.00 378.00 246.80" xmlns="http://www.w3.org/2000/svg" xmlns:xlink="http://www.w3.org/1999/xlink">
<g id="graph0" class="graph" transform="scale(1 1) rotate(0) translate(4 242.8)">
<title>dependencies</title>
<polygon fill="white" stroke="transparent" points="-4,4 -4,-242.8 374,-242.8 374,4 -4,4"/>
<text text-anchor="middle" x="185" y="-8.2" font-family="sans-serif" font-size="14.00">dependencies</text>
<g id="clust1" class="cluster">
<title>cluster_DuplicateApplicationModule</title>
<polygon fill="none" stroke="black" stroke-dasharray="1,5" points="8,-32.8 8,-230.8 362,-230.8 362,-32.8 8,-32.8"/>
</g>
<g id="clust5" class="cluster">
<title>cluster_DuplicateApplicationModule_exports</title>
<polygon fill="none" stroke="black" points="74,-170.8 74,-222.8 296,-222.8 296,-170.8 74,-170.8"/>
</g>
<g id="clust2" class="cluster">
<title>cluster_DuplicateApplicationModule_declarations</title>
<polygon fill="none" stroke="black" points="136,-40.8 136,-92.8 354,-92.8 354,-40.8 136,-40.8"/>
</g>
<g id="clust4" class="cluster">
<title>cluster_DuplicateApplicationModule_imports</title>
<polygon fill="none" stroke="black" points="16,-40.8 16,-92.8 128,-92.8 128,-40.8 16,-40.8"/>
</g>
<!-- DuplicateApplicationComponent -->
<g id="node1" class="node">
<title>DuplicateApplicationComponent</title>
<polygon fill="#ffffb3" stroke="black" points="345.85,-84.8 144.15,-84.8 144.15,-48.8 345.85,-48.8 345.85,-84.8"/>
<text text-anchor="middle" x="245" y="-62.6" font-family="Times,serif" font-size="14.00">DuplicateApplicationComponent</text>
</g>
<!-- DuplicateApplicationModule -->
<g id="node2" class="node">
<title>DuplicateApplicationModule</title>
<polygon fill="#8dd3c7" stroke="black" points="275.07,-149.8 272.07,-153.8 251.07,-153.8 248.07,-149.8 94.93,-149.8 94.93,-113.8 275.07,-113.8 275.07,-149.8"/>
<text text-anchor="middle" x="185" y="-127.6" font-family="Times,serif" font-size="14.00">DuplicateApplicationModule</text>
</g>
<!-- DuplicateApplicationComponent&#45;&gt;DuplicateApplicationModule -->
<g id="edge1" class="edge">
<title>DuplicateApplicationComponent&#45;&gt;DuplicateApplicationModule</title>
<path fill="none" stroke="black" d="M209.56,-84.91C209.56,-84.91 209.56,-103.79 209.56,-103.79"/>
<polygon fill="black" stroke="black" points="206.06,-103.79 209.56,-113.79 213.06,-103.79 206.06,-103.79"/>
</g>
<!-- DuplicateApplicationComponent  -->
<g id="node4" class="node">
<title>DuplicateApplicationComponent </title>
<polygon fill="#fb8072" stroke="black" points="287.85,-214.8 82.15,-214.8 82.15,-178.8 287.85,-178.8 287.85,-214.8"/>
<text text-anchor="middle" x="185" y="-192.6" font-family="Times,serif" font-size="14.00">DuplicateApplicationComponent </text>
</g>
<!-- DuplicateApplicationModule&#45;&gt;DuplicateApplicationComponent  -->
<g id="edge3" class="edge">
<title>DuplicateApplicationModule&#45;&gt;DuplicateApplicationComponent </title>
<path fill="none" stroke="black" stroke-dasharray="5,2" d="M185,-149.91C185,-149.91 185,-168.79 185,-168.79"/>
<polygon fill="black" stroke="black" points="181.5,-168.79 185,-178.79 188.5,-168.79 181.5,-168.79"/>
</g>
<!-- FormsModule -->
<g id="node3" class="node">
<title>FormsModule</title>
<polygon fill="#8dd3c7" stroke="black" points="119.84,-84.8 116.84,-88.8 95.84,-88.8 92.84,-84.8 24.16,-84.8 24.16,-48.8 119.84,-48.8 119.84,-84.8"/>
<text text-anchor="middle" x="72" y="-62.6" font-family="Times,serif" font-size="14.00">FormsModule</text>
</g>
<!-- FormsModule&#45;&gt;DuplicateApplicationModule -->
<g id="edge2" class="edge">
<title>FormsModule&#45;&gt;DuplicateApplicationModule</title>
<path fill="none" stroke="black" d="M107.32,-84.91C107.32,-84.91 107.32,-103.79 107.32,-103.79"/>
<polygon fill="black" stroke="black" points="103.82,-103.79 107.32,-113.79 110.82,-103.79 103.82,-103.79"/>
</g>
</g>
</svg>
