<?xml version="1.0" encoding="UTF-8" standalone="no"?>
<!DOCTYPE svg PUBLIC "-//W3C//DTD SVG 1.1//EN"
 "http://www.w3.org/Graphics/SVG/1.1/DTD/svg11.dtd">
<!-- Generated by graphviz version 3.0.0 (20220226.1711)
 -->
<!-- Title: dependencies Pages: 1 -->
<svg width="390pt" height="247pt"
 viewBox="0.00 0.00 390.00 246.80" xmlns="http://www.w3.org/2000/svg" xmlns:xlink="http://www.w3.org/1999/xlink">
<g id="graph0" class="graph" transform="scale(1 1) rotate(0) translate(4 242.8)">
<title>dependencies</title>
<polygon fill="white" stroke="transparent" points="-4,4 -4,-242.8 386,-242.8 386,4 -4,4"/>
<text text-anchor="middle" x="191" y="-8.2" font-family="sans-serif" font-size="14.00">dependencies</text>
<g id="clust1" class="cluster">
<title>cluster_SafeRecordHistoryModule</title>
<polygon fill="none" stroke="black" stroke-dasharray="1,5" points="8,-32.8 8,-230.8 374,-230.8 374,-32.8 8,-32.8"/>
</g>
<g id="clust4" class="cluster">
<title>cluster_SafeRecordHistoryModule_imports</title>
<polygon fill="none" stroke="black" points="228,-40.8 228,-92.8 366,-92.8 366,-40.8 228,-40.8"/>
</g>
<g id="clust5" class="cluster">
<title>cluster_SafeRecordHistoryModule_exports</title>
<polygon fill="none" stroke="black" points="87,-170.8 87,-222.8 295,-222.8 295,-170.8 87,-170.8"/>
</g>
<g id="clust2" class="cluster">
<title>cluster_SafeRecordHistoryModule_declarations</title>
<polygon fill="none" stroke="black" points="16,-40.8 16,-92.8 220,-92.8 220,-40.8 16,-40.8"/>
</g>
<!-- SafeRecordHistoryComponent -->
<g id="node1" class="node">
<title>SafeRecordHistoryComponent</title>
<polygon fill="#ffffb3" stroke="black" points="212.14,-84.8 23.86,-84.8 23.86,-48.8 212.14,-48.8 212.14,-84.8"/>
<text text-anchor="middle" x="118" y="-62.6" font-family="Times,serif" font-size="14.00">SafeRecordHistoryComponent</text>
</g>
<!-- SafeRecordHistoryModule -->
<g id="node2" class="node">
<title>SafeRecordHistoryModule</title>
<polygon fill="#8dd3c7" stroke="black" points="274.36,-149.8 271.36,-153.8 250.36,-153.8 247.36,-149.8 107.64,-149.8 107.64,-113.8 274.36,-113.8 274.36,-149.8"/>
<text text-anchor="middle" x="191" y="-127.6" font-family="Times,serif" font-size="14.00">SafeRecordHistoryModule</text>
</g>
<!-- SafeRecordHistoryComponent&#45;&gt;SafeRecordHistoryModule -->
<g id="edge1" class="edge">
<title>SafeRecordHistoryComponent&#45;&gt;SafeRecordHistoryModule</title>
<path fill="none" stroke="black" d="M159.94,-84.91C159.94,-84.91 159.94,-103.79 159.94,-103.79"/>
<polygon fill="black" stroke="black" points="156.44,-103.79 159.94,-113.79 163.44,-103.79 156.44,-103.79"/>
</g>
<!-- SafeRecordHistoryComponent  -->
<g id="node4" class="node">
<title>SafeRecordHistoryComponent </title>
<polygon fill="#fb8072" stroke="black" points="287.13,-214.8 94.87,-214.8 94.87,-178.8 287.13,-178.8 287.13,-214.8"/>
<text text-anchor="middle" x="191" y="-192.6" font-family="Times,serif" font-size="14.00">SafeRecordHistoryComponent </text>
</g>
<!-- SafeRecordHistoryModule&#45;&gt;SafeRecordHistoryComponent  -->
<g id="edge3" class="edge">
<title>SafeRecordHistoryModule&#45;&gt;SafeRecordHistoryComponent </title>
<path fill="none" stroke="black" stroke-dasharray="5,2" d="M191,-149.91C191,-149.91 191,-168.79 191,-168.79"/>
<polygon fill="black" stroke="black" points="187.5,-168.79 191,-178.79 194.5,-168.79 187.5,-168.79"/>
</g>
<!-- SafeButtonModule -->
<g id="node3" class="node">
<title>SafeButtonModule</title>
<polygon fill="#8dd3c7" stroke="black" points="358.05,-84.8 355.05,-88.8 334.05,-88.8 331.05,-84.8 235.95,-84.8 235.95,-48.8 358.05,-48.8 358.05,-84.8"/>
<text text-anchor="middle" x="297" y="-62.6" font-family="Times,serif" font-size="14.00">SafeButtonModule</text>
</g>
<!-- SafeButtonModule&#45;&gt;SafeRecordHistoryModule -->
<g id="edge2" class="edge">
<title>SafeButtonModule&#45;&gt;SafeRecordHistoryModule</title>
<path fill="none" stroke="black" d="M255.08,-84.91C255.08,-84.91 255.08,-103.79 255.08,-103.79"/>
<polygon fill="black" stroke="black" points="251.58,-103.79 255.08,-113.79 258.58,-103.79 251.58,-103.79"/>
</g>
</g>
</svg>
