<?xml version="1.0" encoding="UTF-8" standalone="no"?>
<!DOCTYPE svg PUBLIC "-//W3C//DTD SVG 1.1//EN"
 "http://www.w3.org/Graphics/SVG/1.1/DTD/svg11.dtd">
<!-- Generated by graphviz version 3.0.0 (20220226.1711)
 -->
<!-- Title: dependencies Pages: 1 -->
<svg width="650pt" height="247pt"
 viewBox="0.00 0.00 650.00 246.80" xmlns="http://www.w3.org/2000/svg" xmlns:xlink="http://www.w3.org/1999/xlink">
<g id="graph0" class="graph" transform="scale(1 1) rotate(0) translate(4 242.8)">
<title>dependencies</title>
<polygon fill="white" stroke="transparent" points="-4,4 -4,-242.8 646,-242.8 646,4 -4,4"/>
<text text-anchor="middle" x="321" y="-8.2" font-family="sans-serif" font-size="14.00">dependencies</text>
<g id="clust1" class="cluster">
<title>cluster_ReferenceDatasModule</title>
<polygon fill="none" stroke="black" stroke-dasharray="1,5" points="8,-32.8 8,-230.8 634,-230.8 634,-32.8 8,-32.8"/>
</g>
<g id="clust2" class="cluster">
<title>cluster_ReferenceDatasModule_declarations</title>
<polygon fill="none" stroke="black" points="234,-40.8 234,-92.8 626,-92.8 626,-40.8 234,-40.8"/>
</g>
<g id="clust6" class="cluster">
<title>cluster_ReferenceDatasModule_exports</title>
<polygon fill="none" stroke="black" points="232,-170.8 232,-222.8 422,-222.8 422,-170.8 232,-170.8"/>
</g>
<g id="clust5" class="cluster">
<title>cluster_ReferenceDatasModule_imports</title>
<polygon fill="none" stroke="black" points="16,-40.8 16,-92.8 226,-92.8 226,-40.8 16,-40.8"/>
</g>
<!-- AddReferenceDataComponent -->
<g id="node1" class="node">
<title>AddReferenceDataComponent</title>
<polygon fill="#ffffb3" stroke="black" points="618.1,-84.8 429.9,-84.8 429.9,-48.8 618.1,-48.8 618.1,-84.8"/>
<text text-anchor="middle" x="524" y="-62.6" font-family="Times,serif" font-size="14.00">AddReferenceDataComponent</text>
</g>
<!-- ReferenceDatasModule -->
<g id="node3" class="node">
<title>ReferenceDatasModule</title>
<polygon fill="#8dd3c7" stroke="black" points="401.16,-149.8 398.16,-153.8 377.16,-153.8 374.16,-149.8 252.84,-149.8 252.84,-113.8 401.16,-113.8 401.16,-149.8"/>
<text text-anchor="middle" x="327" y="-127.6" font-family="Times,serif" font-size="14.00">ReferenceDatasModule</text>
</g>
<!-- AddReferenceDataComponent&#45;&gt;ReferenceDatasModule -->
<g id="edge1" class="edge">
<title>AddReferenceDataComponent&#45;&gt;ReferenceDatasModule</title>
<path fill="none" stroke="black" d="M524,-84.91C524,-104.14 524,-131.8 524,-131.8 524,-131.8 411.2,-131.8 411.2,-131.8"/>
<polygon fill="black" stroke="black" points="411.2,-128.3 401.2,-131.8 411.2,-135.3 411.2,-128.3"/>
</g>
<!-- ReferenceDatasComponent -->
<g id="node2" class="node">
<title>ReferenceDatasComponent</title>
<polygon fill="#ffffb3" stroke="black" points="411.94,-84.8 242.06,-84.8 242.06,-48.8 411.94,-48.8 411.94,-84.8"/>
<text text-anchor="middle" x="327" y="-62.6" font-family="Times,serif" font-size="14.00">ReferenceDatasComponent</text>
</g>
<!-- ReferenceDatasComponent&#45;&gt;ReferenceDatasModule -->
<g id="edge2" class="edge">
<title>ReferenceDatasComponent&#45;&gt;ReferenceDatasModule</title>
<path fill="none" stroke="black" d="M327,-84.91C327,-84.91 327,-103.79 327,-103.79"/>
<polygon fill="black" stroke="black" points="323.5,-103.79 327,-113.79 330.5,-103.79 323.5,-103.79"/>
</g>
<!-- ReferenceDatasComponent  -->
<g id="node5" class="node">
<title>ReferenceDatasComponent </title>
<polygon fill="#fb8072" stroke="black" points="413.94,-214.8 240.06,-214.8 240.06,-178.8 413.94,-178.8 413.94,-214.8"/>
<text text-anchor="middle" x="327" y="-192.6" font-family="Times,serif" font-size="14.00">ReferenceDatasComponent </text>
</g>
<!-- ReferenceDatasModule&#45;&gt;ReferenceDatasComponent  -->
<g id="edge4" class="edge">
<title>ReferenceDatasModule&#45;&gt;ReferenceDatasComponent </title>
<path fill="none" stroke="black" stroke-dasharray="5,2" d="M327,-149.91C327,-149.91 327,-168.79 327,-168.79"/>
<polygon fill="black" stroke="black" points="323.5,-168.79 327,-178.79 330.5,-168.79 323.5,-168.79"/>
</g>
<!-- ReferenceDatasRoutingModule -->
<g id="node4" class="node">
<title>ReferenceDatasRoutingModule</title>
<polygon fill="#8dd3c7" stroke="black" points="217.78,-84.8 214.78,-88.8 193.78,-88.8 190.78,-84.8 24.22,-84.8 24.22,-48.8 217.78,-48.8 217.78,-84.8"/>
<text text-anchor="middle" x="121" y="-62.6" font-family="Times,serif" font-size="14.00">ReferenceDatasRoutingModule</text>
</g>
<!-- ReferenceDatasRoutingModule&#45;&gt;ReferenceDatasModule -->
<g id="edge3" class="edge">
<title>ReferenceDatasRoutingModule&#45;&gt;ReferenceDatasModule</title>
<path fill="none" stroke="black" d="M121,-84.91C121,-104.14 121,-131.8 121,-131.8 121,-131.8 242.92,-131.8 242.92,-131.8"/>
<polygon fill="black" stroke="black" points="242.92,-135.3 252.92,-131.8 242.92,-128.3 242.92,-135.3"/>
</g>
</g>
</svg>
