<?xml version="1.0" encoding="UTF-8" standalone="no"?>
<!DOCTYPE svg PUBLIC "-//W3C//DTD SVG 1.1//EN"
 "http://www.w3.org/Graphics/SVG/1.1/DTD/svg11.dtd">
<!-- Generated by graphviz version 3.0.0 (20220226.1711)
 -->
<!-- Title: dependencies Pages: 1 -->
<svg width="1280pt" height="247pt"
 viewBox="0.00 0.00 1280.00 246.80" xmlns="http://www.w3.org/2000/svg" xmlns:xlink="http://www.w3.org/1999/xlink">
<g id="graph0" class="graph" transform="scale(1 1) rotate(0) translate(4 242.8)">
<title>dependencies</title>
<polygon fill="white" stroke="transparent" points="-4,4 -4,-242.8 1276,-242.8 1276,4 -4,4"/>
<text text-anchor="middle" x="636" y="-8.2" font-family="sans-serif" font-size="14.00">dependencies</text>
<g id="clust1" class="cluster">
<title>cluster_SafeChartModule</title>
<polygon fill="none" stroke="black" stroke-dasharray="1,5" points="8,-32.8 8,-230.8 1264,-230.8 1264,-32.8 8,-32.8"/>
</g>
<g id="clust5" class="cluster">
<title>cluster_SafeChartModule_exports</title>
<polygon fill="none" stroke="black" points="546,-170.8 546,-222.8 702,-222.8 702,-170.8 546,-170.8"/>
</g>
<g id="clust2" class="cluster">
<title>cluster_SafeChartModule_declarations</title>
<polygon fill="none" stroke="black" points="1102,-40.8 1102,-92.8 1256,-92.8 1256,-40.8 1102,-40.8"/>
</g>
<g id="clust4" class="cluster">
<title>cluster_SafeChartModule_imports</title>
<polygon fill="none" stroke="black" points="16,-40.8 16,-92.8 1094,-92.8 1094,-40.8 16,-40.8"/>
</g>
<!-- SafeChartComponent -->
<g id="node1" class="node">
<title>SafeChartComponent</title>
<polygon fill="#ffffb3" stroke="black" points="1247.81,-84.8 1110.19,-84.8 1110.19,-48.8 1247.81,-48.8 1247.81,-84.8"/>
<text text-anchor="middle" x="1179" y="-62.6" font-family="Times,serif" font-size="14.00">SafeChartComponent</text>
</g>
<!-- SafeChartModule -->
<g id="node2" class="node">
<title>SafeChartModule</title>
<polygon fill="#8dd3c7" stroke="black" points="681.53,-149.8 678.53,-153.8 657.53,-153.8 654.53,-149.8 566.47,-149.8 566.47,-113.8 681.53,-113.8 681.53,-149.8"/>
<text text-anchor="middle" x="624" y="-127.6" font-family="Times,serif" font-size="14.00">SafeChartModule</text>
</g>
<!-- SafeChartComponent&#45;&gt;SafeChartModule -->
<g id="edge1" class="edge">
<title>SafeChartComponent&#45;&gt;SafeChartModule</title>
<path fill="none" stroke="black" d="M1179,-85.09C1179,-107.01 1179,-140.8 1179,-140.8 1179,-140.8 691.56,-140.8 691.56,-140.8"/>
<polygon fill="black" stroke="black" points="691.56,-137.3 681.56,-140.8 691.56,-144.3 691.56,-137.3"/>
</g>
<!-- SafeChartComponent  -->
<g id="node10" class="node">
<title>SafeChartComponent </title>
<polygon fill="#fb8072" stroke="black" points="694.31,-214.8 553.69,-214.8 553.69,-178.8 694.31,-178.8 694.31,-214.8"/>
<text text-anchor="middle" x="624" y="-192.6" font-family="Times,serif" font-size="14.00">SafeChartComponent </text>
</g>
<!-- SafeChartModule&#45;&gt;SafeChartComponent  -->
<g id="edge9" class="edge">
<title>SafeChartModule&#45;&gt;SafeChartComponent </title>
<path fill="none" stroke="black" stroke-dasharray="5,2" d="M624,-149.91C624,-149.91 624,-168.79 624,-168.79"/>
<polygon fill="black" stroke="black" points="620.5,-168.79 624,-178.79 627.5,-168.79 620.5,-168.79"/>
</g>
<!-- SafeBarChartModule -->
<g id="node3" class="node">
<title>SafeBarChartModule</title>
<polygon fill="#8dd3c7" stroke="black" points="1085.75,-84.8 1082.75,-88.8 1061.75,-88.8 1058.75,-84.8 950.25,-84.8 950.25,-48.8 1085.75,-48.8 1085.75,-84.8"/>
<text text-anchor="middle" x="1018" y="-62.6" font-family="Times,serif" font-size="14.00">SafeBarChartModule</text>
</g>
<!-- SafeBarChartModule&#45;&gt;SafeChartModule -->
<g id="edge2" class="edge">
<title>SafeBarChartModule&#45;&gt;SafeChartModule</title>
<path fill="none" stroke="black" d="M1018,-84.91C1018,-104.14 1018,-131.8 1018,-131.8 1018,-131.8 691.71,-131.8 691.71,-131.8"/>
<polygon fill="black" stroke="black" points="691.71,-128.3 681.71,-131.8 691.71,-135.3 691.71,-128.3"/>
</g>
<!-- SafeButtonModule -->
<g id="node4" class="node">
<title>SafeButtonModule</title>
<polygon fill="#8dd3c7" stroke="black" points="932.05,-84.8 929.05,-88.8 908.05,-88.8 905.05,-84.8 809.95,-84.8 809.95,-48.8 932.05,-48.8 932.05,-84.8"/>
<text text-anchor="middle" x="871" y="-62.6" font-family="Times,serif" font-size="14.00">SafeButtonModule</text>
</g>
<!-- SafeButtonModule&#45;&gt;SafeChartModule -->
<g id="edge3" class="edge">
<title>SafeButtonModule&#45;&gt;SafeChartModule</title>
<path fill="none" stroke="black" d="M871,-84.83C871,-101.2 871,-122.8 871,-122.8 871,-122.8 691.6,-122.8 691.6,-122.8"/>
<polygon fill="black" stroke="black" points="691.6,-119.3 681.6,-122.8 691.6,-126.3 691.6,-119.3"/>
</g>
<!-- SafeColumnChartModule -->
<g id="node5" class="node">
<title>SafeColumnChartModule</title>
<polygon fill="#8dd3c7" stroke="black" points="791.15,-84.8 788.15,-88.8 767.15,-88.8 764.15,-84.8 630.85,-84.8 630.85,-48.8 791.15,-48.8 791.15,-84.8"/>
<text text-anchor="middle" x="711" y="-62.6" font-family="Times,serif" font-size="14.00">SafeColumnChartModule</text>
</g>
<!-- SafeColumnChartModule&#45;&gt;SafeChartModule -->
<g id="edge4" class="edge">
<title>SafeColumnChartModule&#45;&gt;SafeChartModule</title>
<path fill="none" stroke="black" d="M656.22,-84.91C656.22,-84.91 656.22,-103.79 656.22,-103.79"/>
<polygon fill="black" stroke="black" points="652.72,-103.79 656.22,-113.79 659.72,-103.79 652.72,-103.79"/>
</g>
<!-- SafeDonutChartModule -->
<g id="node6" class="node">
<title>SafeDonutChartModule</title>
<polygon fill="#8dd3c7" stroke="black" points="612.03,-84.8 609.03,-88.8 588.03,-88.8 585.03,-84.8 461.97,-84.8 461.97,-48.8 612.03,-48.8 612.03,-84.8"/>
<text text-anchor="middle" x="537" y="-62.6" font-family="Times,serif" font-size="14.00">SafeDonutChartModule</text>
</g>
<!-- SafeDonutChartModule&#45;&gt;SafeChartModule -->
<g id="edge5" class="edge">
<title>SafeDonutChartModule&#45;&gt;SafeChartModule</title>
<path fill="none" stroke="black" d="M589.25,-84.91C589.25,-84.91 589.25,-103.79 589.25,-103.79"/>
<polygon fill="black" stroke="black" points="585.75,-103.79 589.25,-113.79 592.75,-103.79 585.75,-103.79"/>
</g>
<!-- SafeIconModule -->
<g id="node7" class="node">
<title>SafeIconModule</title>
<polygon fill="#8dd3c7" stroke="black" points="443.8,-84.8 440.8,-88.8 419.8,-88.8 416.8,-84.8 334.2,-84.8 334.2,-48.8 443.8,-48.8 443.8,-84.8"/>
<text text-anchor="middle" x="389" y="-62.6" font-family="Times,serif" font-size="14.00">SafeIconModule</text>
</g>
<!-- SafeIconModule&#45;&gt;SafeChartModule -->
<g id="edge6" class="edge">
<title>SafeIconModule&#45;&gt;SafeChartModule</title>
<path fill="none" stroke="black" d="M389,-84.83C389,-101.2 389,-122.8 389,-122.8 389,-122.8 556.21,-122.8 556.21,-122.8"/>
<polygon fill="black" stroke="black" points="556.21,-126.3 566.21,-122.8 556.21,-119.3 556.21,-126.3"/>
</g>
<!-- SafeLineChartModule -->
<g id="node8" class="node">
<title>SafeLineChartModule</title>
<polygon fill="#8dd3c7" stroke="black" points="316.69,-84.8 313.69,-88.8 292.69,-88.8 289.69,-84.8 175.31,-84.8 175.31,-48.8 316.69,-48.8 316.69,-84.8"/>
<text text-anchor="middle" x="246" y="-62.6" font-family="Times,serif" font-size="14.00">SafeLineChartModule</text>
</g>
<!-- SafeLineChartModule&#45;&gt;SafeChartModule -->
<g id="edge7" class="edge">
<title>SafeLineChartModule&#45;&gt;SafeChartModule</title>
<path fill="none" stroke="black" d="M246,-84.91C246,-104.14 246,-131.8 246,-131.8 246,-131.8 556.18,-131.8 556.18,-131.8"/>
<polygon fill="black" stroke="black" points="556.18,-135.3 566.18,-131.8 556.18,-128.3 556.18,-135.3"/>
</g>
<!-- SafePieChartModule -->
<g id="node9" class="node">
<title>SafePieChartModule</title>
<polygon fill="#8dd3c7" stroke="black" points="157.92,-84.8 154.92,-88.8 133.92,-88.8 130.92,-84.8 24.08,-84.8 24.08,-48.8 157.92,-48.8 157.92,-84.8"/>
<text text-anchor="middle" x="91" y="-62.6" font-family="Times,serif" font-size="14.00">SafePieChartModule</text>
</g>
<!-- SafePieChartModule&#45;&gt;SafeChartModule -->
<g id="edge8" class="edge">
<title>SafePieChartModule&#45;&gt;SafeChartModule</title>
<path fill="none" stroke="black" d="M91,-85.09C91,-107.01 91,-140.8 91,-140.8 91,-140.8 556.45,-140.8 556.45,-140.8"/>
<polygon fill="black" stroke="black" points="556.45,-144.3 566.45,-140.8 556.45,-137.3 556.45,-144.3"/>
</g>
</g>
</svg>
