<?xml version="1.0" encoding="UTF-8" standalone="no"?>
<!DOCTYPE svg PUBLIC "-//W3C//DTD SVG 1.1//EN"
 "http://www.w3.org/Graphics/SVG/1.1/DTD/svg11.dtd">
<!-- Generated by graphviz version 3.0.0 (20220226.1711)
 -->
<!-- Title: dependencies Pages: 1 -->
<svg width="1703pt" height="358pt"
 viewBox="0.00 0.00 1703.00 358.39" xmlns="http://www.w3.org/2000/svg" xmlns:xlink="http://www.w3.org/1999/xlink">
<g id="graph0" class="graph" transform="scale(1 1) rotate(0) translate(4 354.39)">
<title>dependencies</title>
<polygon fill="white" stroke="transparent" points="-4,4 -4,-354.39 1699,-354.39 1699,4 -4,4"/>
<text text-anchor="middle" x="847.5" y="-8.2" font-family="sans-serif" font-size="14.00">dependencies</text>
<g id="clust1" class="cluster">
<title>cluster_SafeGridSettingsModule</title>
<polygon fill="none" stroke="black" stroke-dasharray="1,5" points="8,-32.8 8,-342.39 1687,-342.39 1687,-32.8 8,-32.8"/>
</g>
<g id="clust4" class="cluster">
<title>cluster_SafeGridSettingsModule_SafeGridSettingsComponent_providers</title>
<polygon fill="none" stroke="black" points="787,-40.8 787,-204.39 1679,-204.39 1679,-40.8 787,-40.8"/>
</g>
<g id="clust5" class="cluster">
<title>cluster_SafeGridSettingsModule_imports</title>
<polygon fill="none" stroke="black" points="276,-152.39 276,-204.39 779,-204.39 779,-152.39 276,-152.39"/>
</g>
<g id="clust2" class="cluster">
<title>cluster_SafeGridSettingsModule_declarations</title>
<polygon fill="none" stroke="black" points="16,-152.39 16,-204.39 268,-204.39 268,-152.39 16,-152.39"/>
</g>
<g id="clust6" class="cluster">
<title>cluster_SafeGridSettingsModule_exports</title>
<polygon fill="none" stroke="black" points="427,-282.39 427,-334.39 623,-334.39 623,-282.39 427,-282.39"/>
</g>
<!-- SafeFloatingButtonSettingsComponent -->
<g id="node1" class="node">
<title>SafeFloatingButtonSettingsComponent</title>
<polygon fill="#ffffb3" stroke="black" points="260.11,-196.39 23.89,-196.39 23.89,-160.39 260.11,-160.39 260.11,-196.39"/>
<text text-anchor="middle" x="142" y="-174.19" font-family="Times,serif" font-size="14.00">SafeFloatingButtonSettingsComponent</text>
</g>
<!-- SafeGridSettingsModule -->
<g id="node3" class="node">
<title>SafeGridSettingsModule</title>
<polygon fill="#8dd3c7" stroke="black" points="602.71,-261.39 599.71,-265.39 578.71,-265.39 575.71,-261.39 447.29,-261.39 447.29,-225.39 602.71,-225.39 602.71,-261.39"/>
<text text-anchor="middle" x="525" y="-239.19" font-family="Times,serif" font-size="14.00">SafeGridSettingsModule</text>
</g>
<!-- SafeFloatingButtonSettingsComponent&#45;&gt;SafeGridSettingsModule -->
<g id="edge1" class="edge">
<title>SafeFloatingButtonSettingsComponent&#45;&gt;SafeGridSettingsModule</title>
<path fill="none" stroke="black" d="M142,-196.67C142,-217.71 142,-249.39 142,-249.39 142,-249.39 437.03,-249.39 437.03,-249.39"/>
<polygon fill="black" stroke="black" points="437.03,-252.89 447.03,-249.39 437.03,-245.89 437.03,-252.89"/>
</g>
<!-- SafeGridSettingsComponent -->
<g id="node2" class="node">
<title>SafeGridSettingsComponent</title>
<polygon fill="#ffffb3" stroke="black" points="1146.49,-196.39 969.51,-196.39 969.51,-160.39 1146.49,-160.39 1146.49,-196.39"/>
<text text-anchor="middle" x="1058" y="-174.19" font-family="Times,serif" font-size="14.00">SafeGridSettingsComponent</text>
</g>
<!-- SafeGridSettingsComponent&#45;&gt;SafeGridSettingsModule -->
<g id="edge2" class="edge">
<title>SafeGridSettingsComponent&#45;&gt;SafeGridSettingsModule</title>
<path fill="none" stroke="black" d="M1058,-196.67C1058,-217.71 1058,-249.39 1058,-249.39 1058,-249.39 612.79,-249.39 612.79,-249.39"/>
<polygon fill="black" stroke="black" points="612.79,-245.89 602.79,-249.39 612.79,-252.89 612.79,-245.89"/>
</g>
<!-- SafeGridSettingsComponent  -->
<g id="node8" class="node">
<title>SafeGridSettingsComponent </title>
<polygon fill="#fb8072" stroke="black" points="615.49,-326.39 434.51,-326.39 434.51,-290.39 615.49,-290.39 615.49,-326.39"/>
<text text-anchor="middle" x="525" y="-304.19" font-family="Times,serif" font-size="14.00">SafeGridSettingsComponent </text>
</g>
<!-- SafeGridSettingsModule&#45;&gt;SafeGridSettingsComponent  -->
<g id="edge7" class="edge">
<title>SafeGridSettingsModule&#45;&gt;SafeGridSettingsComponent </title>
<path fill="none" stroke="black" stroke-dasharray="5,2" d="M525,-261.5C525,-261.5 525,-280.38 525,-280.38"/>
<polygon fill="black" stroke="black" points="521.5,-280.38 525,-290.38 528.5,-280.38 521.5,-280.38"/>
</g>
<!-- {
 &#160;&#160;&#160;provide: MAT_AUTOCOMPLETE_SCROLL_STRATEGY, useFactory: scrollFactory, deps: [Overlay],
} -->
<g id="node4" class="node">
<title>{
 &#160;&#160;&#160;provide: MAT_AUTOCOMPLETE_SCROLL_STRATEGY, useFactory: scrollFactory, deps: [Overlay],
}</title>
<ellipse fill="#fdb462" stroke="black" cx="1233" cy="-90.1" rx="438.07" ry="41.09"/>
<text text-anchor="middle" x="1233" y="-102.7" font-family="Times,serif" font-size="14.00">{</text>
<text text-anchor="middle" x="1233" y="-85.9" font-family="Times,serif" font-size="14.00"> &#160;&#160;&#160;provide: MAT_AUTOCOMPLETE_SCROLL_STRATEGY, useFactory: scrollFactory, deps: [Overlay],</text>
<text text-anchor="middle" x="1233" y="-69.1" font-family="Times,serif" font-size="14.00">}</text>
</g>
<!-- {
 &#160;&#160;&#160;provide: MAT_AUTOCOMPLETE_SCROLL_STRATEGY, useFactory: scrollFactory, deps: [Overlay],
}&#45;&gt;SafeGridSettingsComponent -->
<g id="edge3" class="edge">
<title>{
 &#160;&#160;&#160;provide: MAT_AUTOCOMPLETE_SCROLL_STRATEGY, useFactory: scrollFactory, deps: [Overlay],
}&#45;&gt;SafeGridSettingsComponent</title>
<path fill="none" stroke="black" d="M1058,-128.05C1058,-128.05 1058,-150.36 1058,-150.36"/>
<polygon fill="black" stroke="black" points="1054.5,-150.36 1058,-160.36 1061.5,-150.36 1054.5,-150.36"/>
</g>
<!-- LayoutsParametersModule -->
<g id="node5" class="node">
<title>LayoutsParametersModule</title>
<polygon fill="#8dd3c7" stroke="black" points="771.35,-196.39 768.35,-200.39 747.35,-200.39 744.35,-196.39 604.65,-196.39 604.65,-160.39 771.35,-160.39 771.35,-196.39"/>
<text text-anchor="middle" x="688" y="-174.19" font-family="Times,serif" font-size="14.00">LayoutsParametersModule</text>
</g>
<!-- LayoutsParametersModule&#45;&gt;SafeGridSettingsModule -->
<g id="edge4" class="edge">
<title>LayoutsParametersModule&#45;&gt;SafeGridSettingsModule</title>
<path fill="none" stroke="black" d="M609.91,-196.41C609.91,-213.76 609.91,-237.39 609.91,-237.39 609.91,-237.39 609.19,-237.39 609.19,-237.39"/>
<polygon fill="black" stroke="black" points="612.67,-233.89 602.67,-237.39 612.67,-240.89 612.67,-233.89"/>
</g>
<!-- SafeButtonModule -->
<g id="node6" class="node">
<title>SafeButtonModule</title>
<polygon fill="#8dd3c7" stroke="black" points="586.05,-196.39 583.05,-200.39 562.05,-200.39 559.05,-196.39 463.95,-196.39 463.95,-160.39 586.05,-160.39 586.05,-196.39"/>
<text text-anchor="middle" x="525" y="-174.19" font-family="Times,serif" font-size="14.00">SafeButtonModule</text>
</g>
<!-- SafeButtonModule&#45;&gt;SafeGridSettingsModule -->
<g id="edge5" class="edge">
<title>SafeButtonModule&#45;&gt;SafeGridSettingsModule</title>
<path fill="none" stroke="black" d="M525,-196.5C525,-196.5 525,-215.38 525,-215.38"/>
<polygon fill="black" stroke="black" points="521.5,-215.38 525,-225.38 528.5,-215.38 521.5,-215.38"/>
</g>
<!-- SafeQueryBuilderModule -->
<g id="node7" class="node">
<title>SafeQueryBuilderModule</title>
<polygon fill="#8dd3c7" stroke="black" points="445.91,-196.39 442.91,-200.39 421.91,-200.39 418.91,-196.39 284.09,-196.39 284.09,-160.39 445.91,-160.39 445.91,-196.39"/>
<text text-anchor="middle" x="365" y="-174.19" font-family="Times,serif" font-size="14.00">SafeQueryBuilderModule</text>
</g>
<!-- SafeQueryBuilderModule&#45;&gt;SafeGridSettingsModule -->
<g id="edge6" class="edge">
<title>SafeQueryBuilderModule&#45;&gt;SafeGridSettingsModule</title>
<path fill="none" stroke="black" d="M440.23,-196.41C440.23,-213.76 440.23,-237.39 440.23,-237.39 440.23,-237.39 440.92,-237.39 440.92,-237.39"/>
<polygon fill="black" stroke="black" points="437.17,-240.89 447.17,-237.39 437.17,-233.89 437.17,-240.89"/>
</g>
</g>
</svg>
