<?xml version="1.0" encoding="UTF-8" standalone="no"?>
<!DOCTYPE svg PUBLIC "-//W3C//DTD SVG 1.1//EN"
 "http://www.w3.org/Graphics/SVG/1.1/DTD/svg11.dtd">
<!-- Generated by graphviz version 3.0.0 (20220226.1711)
 -->
<!-- Title: dependencies Pages: 1 -->
<svg width="1222pt" height="247pt"
 viewBox="0.00 0.00 1222.00 246.80" xmlns="http://www.w3.org/2000/svg" xmlns:xlink="http://www.w3.org/1999/xlink">
<g id="graph0" class="graph" transform="scale(1 1) rotate(0) translate(4 242.8)">
<title>dependencies</title>
<polygon fill="white" stroke="transparent" points="-4,4 -4,-242.8 1218,-242.8 1218,4 -4,4"/>
<text text-anchor="middle" x="607" y="-8.2" font-family="sans-serif" font-size="14.00">dependencies</text>
<g id="clust1" class="cluster">
<title>cluster_SafeSearchResourceGridModalModule</title>
<polygon fill="none" stroke="black" stroke-dasharray="1,5" points="8,-32.8 8,-230.8 1206,-230.8 1206,-32.8 8,-32.8"/>
</g>
<g id="clust2" class="cluster">
<title>cluster_SafeSearchResourceGridModalModule_declarations</title>
<polygon fill="none" stroke="black" points="962,-40.8 962,-92.8 1198,-92.8 1198,-40.8 962,-40.8"/>
</g>
<g id="clust4" class="cluster">
<title>cluster_SafeSearchResourceGridModalModule_imports</title>
<polygon fill="none" stroke="black" points="16,-40.8 16,-92.8 954,-92.8 954,-40.8 16,-40.8"/>
</g>
<g id="clust5" class="cluster">
<title>cluster_SafeSearchResourceGridModalModule_exports</title>
<polygon fill="none" stroke="black" points="455,-170.8 455,-222.8 695,-222.8 695,-170.8 455,-170.8"/>
</g>
<!-- SafeResourceGridModalComponent -->
<g id="node1" class="node">
<title>SafeResourceGridModalComponent</title>
<polygon fill="#ffffb3" stroke="black" points="1190.01,-84.8 969.99,-84.8 969.99,-48.8 1190.01,-48.8 1190.01,-84.8"/>
<text text-anchor="middle" x="1080" y="-62.6" font-family="Times,serif" font-size="14.00">SafeResourceGridModalComponent</text>
</g>
<!-- SafeSearchResourceGridModalModule -->
<g id="node2" class="node">
<title>SafeSearchResourceGridModalModule</title>
<polygon fill="#8dd3c7" stroke="black" points="693.32,-149.8 690.32,-153.8 669.32,-153.8 666.32,-149.8 456.68,-149.8 456.68,-113.8 693.32,-113.8 693.32,-149.8"/>
<text text-anchor="middle" x="575" y="-127.6" font-family="Times,serif" font-size="14.00">SafeSearchResourceGridModalModule</text>
</g>
<!-- SafeResourceGridModalComponent&#45;&gt;SafeSearchResourceGridModalModule -->
<g id="edge1" class="edge">
<title>SafeResourceGridModalComponent&#45;&gt;SafeSearchResourceGridModalModule</title>
<path fill="none" stroke="black" d="M1080,-85.08C1080,-106.12 1080,-137.8 1080,-137.8 1080,-137.8 703.4,-137.8 703.4,-137.8"/>
<polygon fill="black" stroke="black" points="703.4,-134.3 693.4,-137.8 703.4,-141.3 703.4,-134.3"/>
</g>
<!-- SafeResourceGridModalComponent  -->
<g id="node8" class="node">
<title>SafeResourceGridModalComponent </title>
<polygon fill="#fb8072" stroke="black" points="687.01,-214.8 462.99,-214.8 462.99,-178.8 687.01,-178.8 687.01,-214.8"/>
<text text-anchor="middle" x="575" y="-192.6" font-family="Times,serif" font-size="14.00">SafeResourceGridModalComponent </text>
</g>
<!-- SafeSearchResourceGridModalModule&#45;&gt;SafeResourceGridModalComponent  -->
<g id="edge7" class="edge">
<title>SafeSearchResourceGridModalModule&#45;&gt;SafeResourceGridModalComponent </title>
<path fill="none" stroke="black" stroke-dasharray="5,2" d="M575,-149.91C575,-149.91 575,-168.79 575,-168.79"/>
<polygon fill="black" stroke="black" points="571.5,-168.79 575,-178.79 578.5,-168.79 571.5,-168.79"/>
</g>
<!-- SafeApplicationDropdownModule -->
<g id="node3" class="node">
<title>SafeApplicationDropdownModule</title>
<polygon fill="#8dd3c7" stroke="black" points="946.41,-84.8 943.41,-88.8 922.41,-88.8 919.41,-84.8 735.59,-84.8 735.59,-48.8 946.41,-48.8 946.41,-84.8"/>
<text text-anchor="middle" x="841" y="-62.6" font-family="Times,serif" font-size="14.00">SafeApplicationDropdownModule</text>
</g>
<!-- SafeApplicationDropdownModule&#45;&gt;SafeSearchResourceGridModalModule -->
<g id="edge2" class="edge">
<title>SafeApplicationDropdownModule&#45;&gt;SafeSearchResourceGridModalModule</title>
<path fill="none" stroke="black" d="M841,-84.82C841,-102.17 841,-125.8 841,-125.8 841,-125.8 703.61,-125.8 703.61,-125.8"/>
<polygon fill="black" stroke="black" points="703.61,-122.3 693.61,-125.8 703.61,-129.3 703.61,-122.3"/>
</g>
<!-- SafeCoreGridModule -->
<g id="node4" class="node">
<title>SafeCoreGridModule</title>
<polygon fill="#8dd3c7" stroke="black" points="717.8,-84.8 714.8,-88.8 693.8,-88.8 690.8,-84.8 580.2,-84.8 580.2,-48.8 717.8,-48.8 717.8,-84.8"/>
<text text-anchor="middle" x="649" y="-62.6" font-family="Times,serif" font-size="14.00">SafeCoreGridModule</text>
</g>
<!-- SafeCoreGridModule&#45;&gt;SafeSearchResourceGridModalModule -->
<g id="edge3" class="edge">
<title>SafeCoreGridModule&#45;&gt;SafeSearchResourceGridModalModule</title>
<path fill="none" stroke="black" d="M636.88,-84.91C636.88,-84.91 636.88,-103.79 636.88,-103.79"/>
<polygon fill="black" stroke="black" points="633.38,-103.79 636.88,-113.79 640.38,-103.79 633.38,-103.79"/>
</g>
<!-- SafeModalModule -->
<g id="node5" class="node">
<title>SafeModalModule</title>
<polygon fill="#8dd3c7" stroke="black" points="562.48,-84.8 559.48,-88.8 538.48,-88.8 535.48,-84.8 441.52,-84.8 441.52,-48.8 562.48,-48.8 562.48,-84.8"/>
<text text-anchor="middle" x="502" y="-62.6" font-family="Times,serif" font-size="14.00">SafeModalModule</text>
</g>
<!-- SafeModalModule&#45;&gt;SafeSearchResourceGridModalModule -->
<g id="edge4" class="edge">
<title>SafeModalModule&#45;&gt;SafeSearchResourceGridModalModule</title>
<path fill="none" stroke="black" d="M509.54,-84.91C509.54,-84.91 509.54,-103.79 509.54,-103.79"/>
<polygon fill="black" stroke="black" points="506.04,-103.79 509.54,-113.79 513.04,-103.79 506.04,-103.79"/>
</g>
<!-- SafeRecordDropdownModule -->
<g id="node6" class="node">
<title>SafeRecordDropdownModule</title>
<polygon fill="#8dd3c7" stroke="black" points="423.24,-84.8 420.24,-88.8 399.24,-88.8 396.24,-84.8 238.76,-84.8 238.76,-48.8 423.24,-48.8 423.24,-84.8"/>
<text text-anchor="middle" x="331" y="-62.6" font-family="Times,serif" font-size="14.00">SafeRecordDropdownModule</text>
</g>
<!-- SafeRecordDropdownModule&#45;&gt;SafeSearchResourceGridModalModule -->
<g id="edge5" class="edge">
<title>SafeRecordDropdownModule&#45;&gt;SafeSearchResourceGridModalModule</title>
<path fill="none" stroke="black" d="M331,-84.82C331,-102.17 331,-125.8 331,-125.8 331,-125.8 446.57,-125.8 446.57,-125.8"/>
<polygon fill="black" stroke="black" points="446.57,-129.3 456.57,-125.8 446.57,-122.3 446.57,-129.3"/>
</g>
<!-- SafeResourceDropdownModule -->
<g id="node7" class="node">
<title>SafeResourceDropdownModule</title>
<polygon fill="#8dd3c7" stroke="black" points="220.4,-84.8 217.4,-88.8 196.4,-88.8 193.4,-84.8 23.6,-84.8 23.6,-48.8 220.4,-48.8 220.4,-84.8"/>
<text text-anchor="middle" x="122" y="-62.6" font-family="Times,serif" font-size="14.00">SafeResourceDropdownModule</text>
</g>
<!-- SafeResourceDropdownModule&#45;&gt;SafeSearchResourceGridModalModule -->
<g id="edge6" class="edge">
<title>SafeResourceDropdownModule&#45;&gt;SafeSearchResourceGridModalModule</title>
<path fill="none" stroke="black" d="M122,-85.08C122,-106.12 122,-137.8 122,-137.8 122,-137.8 446.57,-137.8 446.57,-137.8"/>
<polygon fill="black" stroke="black" points="446.57,-141.3 456.57,-137.8 446.57,-134.3 446.57,-141.3"/>
</g>
</g>
</svg>
