<?xml version="1.0" encoding="UTF-8" standalone="no"?>
<!DOCTYPE svg PUBLIC "-//W3C//DTD SVG 1.1//EN"
 "http://www.w3.org/Graphics/SVG/1.1/DTD/svg11.dtd">
<!-- Generated by graphviz version 3.0.0 (20220226.1711)
 -->
<!-- Title: dependencies Pages: 1 -->
<svg width="1427pt" height="247pt"
 viewBox="0.00 0.00 1427.00 246.80" xmlns="http://www.w3.org/2000/svg" xmlns:xlink="http://www.w3.org/1999/xlink">
<g id="graph0" class="graph" transform="scale(1 1) rotate(0) translate(4 242.8)">
<title>dependencies</title>
<polygon fill="white" stroke="transparent" points="-4,4 -4,-242.8 1423,-242.8 1423,4 -4,4"/>
<text text-anchor="middle" x="709.5" y="-8.2" font-family="sans-serif" font-size="14.00">dependencies</text>
<g id="clust1" class="cluster">
<title>cluster_SafeCardModalModule</title>
<polygon fill="none" stroke="black" stroke-dasharray="1,5" points="8,-32.8 8,-230.8 1411,-230.8 1411,-32.8 8,-32.8"/>
</g>
<g id="clust4" class="cluster">
<title>cluster_SafeCardModalModule_imports</title>
<polygon fill="none" stroke="black" points="210,-40.8 210,-92.8 1403,-92.8 1403,-40.8 210,-40.8"/>
</g>
<g id="clust5" class="cluster">
<title>cluster_SafeCardModalModule_exports</title>
<polygon fill="none" stroke="black" points="664,-170.8 664,-222.8 854,-222.8 854,-170.8 664,-170.8"/>
</g>
<g id="clust2" class="cluster">
<title>cluster_SafeCardModalModule_declarations</title>
<polygon fill="none" stroke="black" points="16,-40.8 16,-92.8 202,-92.8 202,-40.8 16,-40.8"/>
</g>
<!-- SafeCardModalComponent -->
<g id="node1" class="node">
<title>SafeCardModalComponent</title>
<polygon fill="#ffffb3" stroke="black" points="193.97,-84.8 24.03,-84.8 24.03,-48.8 193.97,-48.8 193.97,-84.8"/>
<text text-anchor="middle" x="109" y="-62.6" font-family="Times,serif" font-size="14.00">SafeCardModalComponent</text>
</g>
<!-- SafeCardModalModule -->
<g id="node2" class="node">
<title>SafeCardModalModule</title>
<polygon fill="#8dd3c7" stroke="black" points="833.19,-149.8 830.19,-153.8 809.19,-153.8 806.19,-149.8 684.81,-149.8 684.81,-113.8 833.19,-113.8 833.19,-149.8"/>
<text text-anchor="middle" x="759" y="-127.6" font-family="Times,serif" font-size="14.00">SafeCardModalModule</text>
</g>
<!-- SafeCardModalComponent&#45;&gt;SafeCardModalModule -->
<g id="edge1" class="edge">
<title>SafeCardModalComponent&#45;&gt;SafeCardModalModule</title>
<path fill="none" stroke="black" d="M109,-85.09C109,-107.01 109,-140.8 109,-140.8 109,-140.8 674.75,-140.8 674.75,-140.8"/>
<polygon fill="black" stroke="black" points="674.75,-144.3 684.75,-140.8 674.75,-137.3 674.75,-144.3"/>
</g>
<!-- SafeCardModalComponent  -->
<g id="node10" class="node">
<title>SafeCardModalComponent </title>
<polygon fill="#fb8072" stroke="black" points="845.97,-214.8 672.03,-214.8 672.03,-178.8 845.97,-178.8 845.97,-214.8"/>
<text text-anchor="middle" x="759" y="-192.6" font-family="Times,serif" font-size="14.00">SafeCardModalComponent </text>
</g>
<!-- SafeCardModalModule&#45;&gt;SafeCardModalComponent  -->
<g id="edge9" class="edge">
<title>SafeCardModalModule&#45;&gt;SafeCardModalComponent </title>
<path fill="none" stroke="black" stroke-dasharray="5,2" d="M759,-149.91C759,-149.91 759,-168.79 759,-168.79"/>
<polygon fill="black" stroke="black" points="755.5,-168.79 759,-178.79 762.5,-168.79 755.5,-168.79"/>
</g>
<!-- SafeButtonModule -->
<g id="node3" class="node">
<title>SafeButtonModule</title>
<polygon fill="#8dd3c7" stroke="black" points="1395.05,-84.8 1392.05,-88.8 1371.05,-88.8 1368.05,-84.8 1272.95,-84.8 1272.95,-48.8 1395.05,-48.8 1395.05,-84.8"/>
<text text-anchor="middle" x="1334" y="-62.6" font-family="Times,serif" font-size="14.00">SafeButtonModule</text>
</g>
<!-- SafeButtonModule&#45;&gt;SafeCardModalModule -->
<g id="edge2" class="edge">
<title>SafeButtonModule&#45;&gt;SafeCardModalModule</title>
<path fill="none" stroke="black" d="M1334,-85.09C1334,-107.01 1334,-140.8 1334,-140.8 1334,-140.8 843.29,-140.8 843.29,-140.8"/>
<polygon fill="black" stroke="black" points="843.29,-137.3 833.29,-140.8 843.29,-144.3 843.29,-137.3"/>
</g>
<!-- SafeDataSourceTabModule -->
<g id="node4" class="node">
<title>SafeDataSourceTabModule</title>
<polygon fill="#8dd3c7" stroke="black" points="1255,-84.8 1252,-88.8 1231,-88.8 1228,-84.8 1083,-84.8 1083,-48.8 1255,-48.8 1255,-84.8"/>
<text text-anchor="middle" x="1169" y="-62.6" font-family="Times,serif" font-size="14.00">SafeDataSourceTabModule</text>
</g>
<!-- SafeDataSourceTabModule&#45;&gt;SafeCardModalModule -->
<g id="edge3" class="edge">
<title>SafeDataSourceTabModule&#45;&gt;SafeCardModalModule</title>
<path fill="none" stroke="black" d="M1169,-84.91C1169,-104.14 1169,-131.8 1169,-131.8 1169,-131.8 843.25,-131.8 843.25,-131.8"/>
<polygon fill="black" stroke="black" points="843.25,-128.3 833.25,-131.8 843.25,-135.3 843.25,-128.3"/>
</g>
<!-- SafeDisplayTabModule -->
<g id="node5" class="node">
<title>SafeDisplayTabModule</title>
<polygon fill="#8dd3c7" stroke="black" points="1064.75,-84.8 1061.75,-88.8 1040.75,-88.8 1037.75,-84.8 915.25,-84.8 915.25,-48.8 1064.75,-48.8 1064.75,-84.8"/>
<text text-anchor="middle" x="990" y="-62.6" font-family="Times,serif" font-size="14.00">SafeDisplayTabModule</text>
</g>
<!-- SafeDisplayTabModule&#45;&gt;SafeCardModalModule -->
<g id="edge4" class="edge">
<title>SafeDisplayTabModule&#45;&gt;SafeCardModalModule</title>
<path fill="none" stroke="black" d="M990,-84.83C990,-101.2 990,-122.8 990,-122.8 990,-122.8 843.36,-122.8 843.36,-122.8"/>
<polygon fill="black" stroke="black" points="843.36,-119.3 833.36,-122.8 843.36,-126.3 843.36,-119.3"/>
</g>
<!-- SafeModalModule -->
<g id="node6" class="node">
<title>SafeModalModule</title>
<polygon fill="#8dd3c7" stroke="black" points="897.48,-84.8 894.48,-88.8 873.48,-88.8 870.48,-84.8 776.52,-84.8 776.52,-48.8 897.48,-48.8 897.48,-84.8"/>
<text text-anchor="middle" x="837" y="-62.6" font-family="Times,serif" font-size="14.00">SafeModalModule</text>
</g>
<!-- SafeModalModule&#45;&gt;SafeCardModalModule -->
<g id="edge5" class="edge">
<title>SafeModalModule&#45;&gt;SafeCardModalModule</title>
<path fill="none" stroke="black" d="M804.8,-84.91C804.8,-84.91 804.8,-103.79 804.8,-103.79"/>
<polygon fill="black" stroke="black" points="801.3,-103.79 804.8,-113.79 808.3,-103.79 801.3,-103.79"/>
</g>
<!-- SafePreviewTabModule -->
<g id="node7" class="node">
<title>SafePreviewTabModule</title>
<polygon fill="#8dd3c7" stroke="black" points="758.07,-84.8 755.07,-88.8 734.07,-88.8 731.07,-84.8 605.93,-84.8 605.93,-48.8 758.07,-48.8 758.07,-84.8"/>
<text text-anchor="middle" x="682" y="-62.6" font-family="Times,serif" font-size="14.00">SafePreviewTabModule</text>
</g>
<!-- SafePreviewTabModule&#45;&gt;SafeCardModalModule -->
<g id="edge6" class="edge">
<title>SafePreviewTabModule&#45;&gt;SafeCardModalModule</title>
<path fill="none" stroke="black" d="M721.47,-84.91C721.47,-84.91 721.47,-103.79 721.47,-103.79"/>
<polygon fill="black" stroke="black" points="717.97,-103.79 721.47,-113.79 724.97,-103.79 717.97,-103.79"/>
</g>
<!-- SafeTextEditorTabModule -->
<g id="node8" class="node">
<title>SafeTextEditorTabModule</title>
<polygon fill="#8dd3c7" stroke="black" points="588.34,-84.8 585.34,-88.8 564.34,-88.8 561.34,-84.8 421.66,-84.8 421.66,-48.8 588.34,-48.8 588.34,-84.8"/>
<text text-anchor="middle" x="505" y="-62.6" font-family="Times,serif" font-size="14.00">SafeTextEditorTabModule</text>
</g>
<!-- SafeTextEditorTabModule&#45;&gt;SafeCardModalModule -->
<g id="edge7" class="edge">
<title>SafeTextEditorTabModule&#45;&gt;SafeCardModalModule</title>
<path fill="none" stroke="black" d="M505,-84.83C505,-101.2 505,-122.8 505,-122.8 505,-122.8 674.85,-122.8 674.85,-122.8"/>
<polygon fill="black" stroke="black" points="674.85,-126.3 684.85,-122.8 674.85,-119.3 674.85,-126.3"/>
</g>
<!-- SafeValueSelectorTabModule -->
<g id="node9" class="node">
<title>SafeValueSelectorTabModule</title>
<polygon fill="#8dd3c7" stroke="black" points="403.99,-84.8 400.99,-88.8 379.99,-88.8 376.99,-84.8 218.01,-84.8 218.01,-48.8 403.99,-48.8 403.99,-84.8"/>
<text text-anchor="middle" x="311" y="-62.6" font-family="Times,serif" font-size="14.00">SafeValueSelectorTabModule</text>
</g>
<!-- SafeValueSelectorTabModule&#45;&gt;SafeCardModalModule -->
<g id="edge8" class="edge">
<title>SafeValueSelectorTabModule&#45;&gt;SafeCardModalModule</title>
<path fill="none" stroke="black" d="M311,-84.91C311,-104.14 311,-131.8 311,-131.8 311,-131.8 674.77,-131.8 674.77,-131.8"/>
<polygon fill="black" stroke="black" points="674.77,-135.3 684.77,-131.8 674.77,-128.3 674.77,-135.3"/>
</g>
</g>
</svg>
