<?xml version="1.0" encoding="UTF-8" standalone="no"?>
<!DOCTYPE svg PUBLIC "-//W3C//DTD SVG 1.1//EN"
 "http://www.w3.org/Graphics/SVG/1.1/DTD/svg11.dtd">
<!-- Generated by graphviz version 3.0.0 (20220226.1711)
 -->
<!-- Title: dependencies Pages: 1 -->
<svg width="1427pt" height="247pt"
 viewBox="0.00 0.00 1427.00 246.80" xmlns="http://www.w3.org/2000/svg" xmlns:xlink="http://www.w3.org/1999/xlink">
<g id="graph0" class="graph" transform="scale(1 1) rotate(0) translate(4 242.8)">
<title>dependencies</title>
<polygon fill="white" stroke="transparent" points="-4,4 -4,-242.8 1423,-242.8 1423,4 -4,4"/>
<text text-anchor="middle" x="709.5" y="-8.2" font-family="sans-serif" font-size="14.00">dependencies</text>
<g id="clust1" class="cluster">
<title>cluster_SafeCardModalModule</title>
<polygon fill="none" stroke="black" stroke-dasharray="1,5" points="8,-32.8 8,-230.8 1411,-230.8 1411,-32.8 8,-32.8"/>
</g>
<g id="clust5" class="cluster">
<title>cluster_SafeCardModalModule_exports</title>
<polygon fill="none" stroke="black" points="624,-170.8 624,-222.8 814,-222.8 814,-170.8 624,-170.8"/>
</g>
<g id="clust2" class="cluster">
<title>cluster_SafeCardModalModule_declarations</title>
<polygon fill="none" stroke="black" points="1217,-40.8 1217,-92.8 1403,-92.8 1403,-40.8 1217,-40.8"/>
</g>
<g id="clust4" class="cluster">
<title>cluster_SafeCardModalModule_imports</title>
<polygon fill="none" stroke="black" points="16,-40.8 16,-92.8 1209,-92.8 1209,-40.8 16,-40.8"/>
</g>
<!-- SafeCardModalComponent -->
<g id="node1" class="node">
<title>SafeCardModalComponent</title>
<polygon fill="#ffffb3" stroke="black" points="1394.97,-84.8 1225.03,-84.8 1225.03,-48.8 1394.97,-48.8 1394.97,-84.8"/>
<text text-anchor="middle" x="1310" y="-62.6" font-family="Times,serif" font-size="14.00">SafeCardModalComponent</text>
</g>
<!-- SafeCardModalModule -->
<g id="node2" class="node">
<title>SafeCardModalModule</title>
<polygon fill="#8dd3c7" stroke="black" points="793.19,-149.8 790.19,-153.8 769.19,-153.8 766.19,-149.8 644.81,-149.8 644.81,-113.8 793.19,-113.8 793.19,-149.8"/>
<text text-anchor="middle" x="719" y="-127.6" font-family="Times,serif" font-size="14.00">SafeCardModalModule</text>
</g>
<!-- SafeCardModalComponent&#45;&gt;SafeCardModalModule -->
<g id="edge1" class="edge">
<title>SafeCardModalComponent&#45;&gt;SafeCardModalModule</title>
<path fill="none" stroke="black" d="M1310,-85.09C1310,-107.01 1310,-140.8 1310,-140.8 1310,-140.8 803.25,-140.8 803.25,-140.8"/>
<polygon fill="black" stroke="black" points="803.25,-137.3 793.25,-140.8 803.25,-144.3 803.25,-137.3"/>
</g>
<!-- SafeCardModalComponent  -->
<g id="node10" class="node">
<title>SafeCardModalComponent </title>
<polygon fill="#fb8072" stroke="black" points="805.97,-214.8 632.03,-214.8 632.03,-178.8 805.97,-178.8 805.97,-214.8"/>
<text text-anchor="middle" x="719" y="-192.6" font-family="Times,serif" font-size="14.00">SafeCardModalComponent </text>
</g>
<!-- SafeCardModalModule&#45;&gt;SafeCardModalComponent  -->
<g id="edge9" class="edge">
<title>SafeCardModalModule&#45;&gt;SafeCardModalComponent </title>
<path fill="none" stroke="black" stroke-dasharray="5,2" d="M719,-149.91C719,-149.91 719,-168.79 719,-168.79"/>
<polygon fill="black" stroke="black" points="715.5,-168.79 719,-178.79 722.5,-168.79 715.5,-168.79"/>
</g>
<!-- SafeButtonModule -->
<g id="node3" class="node">
<title>SafeButtonModule</title>
<polygon fill="#8dd3c7" stroke="black" points="1201.05,-84.8 1198.05,-88.8 1177.05,-88.8 1174.05,-84.8 1078.95,-84.8 1078.95,-48.8 1201.05,-48.8 1201.05,-84.8"/>
<text text-anchor="middle" x="1140" y="-62.6" font-family="Times,serif" font-size="14.00">SafeButtonModule</text>
</g>
<!-- SafeButtonModule&#45;&gt;SafeCardModalModule -->
<g id="edge2" class="edge">
<title>SafeButtonModule&#45;&gt;SafeCardModalModule</title>
<path fill="none" stroke="black" d="M1140,-84.91C1140,-104.14 1140,-131.8 1140,-131.8 1140,-131.8 803.3,-131.8 803.3,-131.8"/>
<polygon fill="black" stroke="black" points="803.3,-128.3 793.3,-131.8 803.3,-135.3 803.3,-128.3"/>
</g>
<!-- SafeDataSourceTabModule -->
<g id="node4" class="node">
<title>SafeDataSourceTabModule</title>
<polygon fill="#8dd3c7" stroke="black" points="1061,-84.8 1058,-88.8 1037,-88.8 1034,-84.8 889,-84.8 889,-48.8 1061,-48.8 1061,-84.8"/>
<text text-anchor="middle" x="975" y="-62.6" font-family="Times,serif" font-size="14.00">SafeDataSourceTabModule</text>
</g>
<!-- SafeDataSourceTabModule&#45;&gt;SafeCardModalModule -->
<g id="edge3" class="edge">
<title>SafeDataSourceTabModule&#45;&gt;SafeCardModalModule</title>
<path fill="none" stroke="black" d="M975,-84.83C975,-101.2 975,-122.8 975,-122.8 975,-122.8 803.39,-122.8 803.39,-122.8"/>
<polygon fill="black" stroke="black" points="803.39,-119.3 793.39,-122.8 803.39,-126.3 803.39,-119.3"/>
</g>
<!-- SafeDisplayTabModule -->
<g id="node5" class="node">
<title>SafeDisplayTabModule</title>
<polygon fill="#8dd3c7" stroke="black" points="870.75,-84.8 867.75,-88.8 846.75,-88.8 843.75,-84.8 721.25,-84.8 721.25,-48.8 870.75,-48.8 870.75,-84.8"/>
<text text-anchor="middle" x="796" y="-62.6" font-family="Times,serif" font-size="14.00">SafeDisplayTabModule</text>
</g>
<!-- SafeDisplayTabModule&#45;&gt;SafeCardModalModule -->
<g id="edge4" class="edge">
<title>SafeDisplayTabModule&#45;&gt;SafeCardModalModule</title>
<path fill="none" stroke="black" d="M757.11,-84.91C757.11,-84.91 757.11,-103.79 757.11,-103.79"/>
<polygon fill="black" stroke="black" points="753.61,-103.79 757.11,-113.79 760.61,-103.79 753.61,-103.79"/>
</g>
<!-- SafeModalModule -->
<g id="node6" class="node">
<title>SafeModalModule</title>
<polygon fill="#8dd3c7" stroke="black" points="703.48,-84.8 700.48,-88.8 679.48,-88.8 676.48,-84.8 582.52,-84.8 582.52,-48.8 703.48,-48.8 703.48,-84.8"/>
<text text-anchor="middle" x="643" y="-62.6" font-family="Times,serif" font-size="14.00">SafeModalModule</text>
</g>
<!-- SafeModalModule&#45;&gt;SafeCardModalModule -->
<g id="edge5" class="edge">
<title>SafeModalModule&#45;&gt;SafeCardModalModule</title>
<path fill="none" stroke="black" d="M674.2,-84.91C674.2,-84.91 674.2,-103.79 674.2,-103.79"/>
<polygon fill="black" stroke="black" points="670.7,-103.79 674.2,-113.79 677.7,-103.79 670.7,-103.79"/>
</g>
<!-- SafePreviewTabModule -->
<g id="node7" class="node">
<title>SafePreviewTabModule</title>
<polygon fill="#8dd3c7" stroke="black" points="564.07,-84.8 561.07,-88.8 540.07,-88.8 537.07,-84.8 411.93,-84.8 411.93,-48.8 564.07,-48.8 564.07,-84.8"/>
<text text-anchor="middle" x="488" y="-62.6" font-family="Times,serif" font-size="14.00">SafePreviewTabModule</text>
</g>
<!-- SafePreviewTabModule&#45;&gt;SafeCardModalModule -->
<g id="edge6" class="edge">
<title>SafePreviewTabModule&#45;&gt;SafeCardModalModule</title>
<path fill="none" stroke="black" d="M488,-84.83C488,-101.2 488,-122.8 488,-122.8 488,-122.8 634.64,-122.8 634.64,-122.8"/>
<polygon fill="black" stroke="black" points="634.64,-126.3 644.64,-122.8 634.64,-119.3 634.64,-126.3"/>
</g>
<!-- SafeTextEditorTabModule -->
<g id="node8" class="node">
<title>SafeTextEditorTabModule</title>
<polygon fill="#8dd3c7" stroke="black" points="394.34,-84.8 391.34,-88.8 370.34,-88.8 367.34,-84.8 227.66,-84.8 227.66,-48.8 394.34,-48.8 394.34,-84.8"/>
<text text-anchor="middle" x="311" y="-62.6" font-family="Times,serif" font-size="14.00">SafeTextEditorTabModule</text>
</g>
<!-- SafeTextEditorTabModule&#45;&gt;SafeCardModalModule -->
<g id="edge7" class="edge">
<title>SafeTextEditorTabModule&#45;&gt;SafeCardModalModule</title>
<path fill="none" stroke="black" d="M311,-84.91C311,-104.14 311,-131.8 311,-131.8 311,-131.8 634.64,-131.8 634.64,-131.8"/>
<polygon fill="black" stroke="black" points="634.64,-135.3 644.64,-131.8 634.64,-128.3 634.64,-135.3"/>
</g>
<!-- SafeValueSelectorTabModule -->
<g id="node9" class="node">
<title>SafeValueSelectorTabModule</title>
<polygon fill="#8dd3c7" stroke="black" points="209.99,-84.8 206.99,-88.8 185.99,-88.8 182.99,-84.8 24.01,-84.8 24.01,-48.8 209.99,-48.8 209.99,-84.8"/>
<text text-anchor="middle" x="117" y="-62.6" font-family="Times,serif" font-size="14.00">SafeValueSelectorTabModule</text>
</g>
<!-- SafeValueSelectorTabModule&#45;&gt;SafeCardModalModule -->
<g id="edge8" class="edge">
<title>SafeValueSelectorTabModule&#45;&gt;SafeCardModalModule</title>
<path fill="none" stroke="black" d="M117,-85.09C117,-107.01 117,-140.8 117,-140.8 117,-140.8 634.88,-140.8 634.88,-140.8"/>
<polygon fill="black" stroke="black" points="634.88,-144.3 644.88,-140.8 634.88,-137.3 634.88,-144.3"/>
</g>
</g>
</svg>
