<?xml version="1.0" encoding="UTF-8" standalone="no"?>
<!DOCTYPE svg PUBLIC "-//W3C//DTD SVG 1.1//EN"
 "http://www.w3.org/Graphics/SVG/1.1/DTD/svg11.dtd">
<!-- Generated by graphviz version 2.47.0 (20210316.0004)
 -->
<!-- Title: dependencies Pages: 1 -->
<svg width="504pt" height="211pt"
 viewBox="0.00 0.00 504.00 211.00" xmlns="http://www.w3.org/2000/svg" xmlns:xlink="http://www.w3.org/1999/xlink">
<g id="graph0" class="graph" transform="scale(1 1) rotate(0) translate(4 207)">
<title>dependencies</title>
<polygon fill="white" stroke="transparent" points="-4,4 -4,-207 500,-207 500,4 -4,4"/>
<text text-anchor="start" x="227.01" y="-42.4" font-family="sans-serif" font-weight="bold" font-size="14.00">Legend</text>
<polygon fill="#ffffb3" stroke="transparent" points="14,-10 14,-30 34,-30 34,-10 14,-10"/>
<text text-anchor="start" x="37.63" y="-15.4" font-family="sans-serif" font-size="14.00"> &#160;Declarations</text>
<polygon fill="#8dd3c7" stroke="transparent" points="127,-10 127,-30 147,-30 147,-10 127,-10"/>
<text text-anchor="start" x="150.73" y="-15.4" font-family="sans-serif" font-size="14.00"> &#160;Module</text>
<polygon fill="#80b1d3" stroke="transparent" points="213,-10 213,-30 233,-30 233,-10 213,-10"/>
<text text-anchor="start" x="236.78" y="-15.4" font-family="sans-serif" font-size="14.00"> &#160;Bootstrap</text>
<polygon fill="#fdb462" stroke="transparent" points="310,-10 310,-30 330,-30 330,-10 310,-10"/>
<text text-anchor="start" x="333.67" y="-15.4" font-family="sans-serif" font-size="14.00"> &#160;Providers</text>
<polygon fill="#fb8072" stroke="transparent" points="406,-10 406,-30 426,-30 426,-10 406,-10"/>
<text text-anchor="start" x="429.73" y="-15.4" font-family="sans-serif" font-size="14.00"> &#160;Exports</text>
<g id="clust1" class="cluster">
<title>cluster_ApiConfigurationModule</title>
<polygon fill="none" stroke="black" stroke-dasharray="1,5" points="28,-70 28,-195 468,-195 468,-70 28,-70"/>
</g>
<g id="clust2" class="cluster">
<title>cluster_ApiConfigurationModule_declarations</title>
<polygon fill="none" stroke="black" points="264,-78 264,-130 460,-130 460,-78 264,-78"/>
</g>
<g id="clust4" class="cluster">
<title>cluster_ApiConfigurationModule_imports</title>
<polygon fill="none" stroke="black" points="36,-78 36,-130 256,-130 256,-78 36,-78"/>
</g>
<!-- ApiConfigurationComponent -->
<g id="node1" class="node">
<title>ApiConfigurationComponent</title>
<polygon fill="#ffffb3" stroke="black" points="452.37,-122 271.63,-122 271.63,-86 452.37,-86 452.37,-122"/>
<text text-anchor="middle" x="362" y="-99.8" font-family="Times,serif" font-size="14.00">ApiConfigurationComponent</text>
</g>
<!-- ApiConfigurationModule -->
<g id="node2" class="node">
<title>ApiConfigurationModule</title>
<polygon fill="#8dd3c7" stroke="black" points="333.59,-187 330.59,-191 309.59,-191 306.59,-187 174.41,-187 174.41,-151 333.59,-151 333.59,-187"/>
<text text-anchor="middle" x="254" y="-164.8" font-family="Times,serif" font-size="14.00">ApiConfigurationModule</text>
</g>
<!-- ApiConfigurationComponent&#45;&gt;ApiConfigurationModule -->
<g id="edge1" class="edge">
<title>ApiConfigurationComponent&#45;&gt;ApiConfigurationModule</title>
<path fill="none" stroke="black" d="M302.55,-122.11C302.55,-122.11 302.55,-140.99 302.55,-140.99"/>
<polygon fill="black" stroke="black" points="299.05,-140.99 302.55,-150.99 306.05,-140.99 299.05,-140.99"/>
</g>
<!-- ApiConfigurationRoutingModule -->
<g id="node3" class="node">
<title>ApiConfigurationRoutingModule</title>
<polygon fill="#8dd3c7" stroke="black" points="248.21,-122 245.21,-126 224.21,-126 221.21,-122 43.79,-122 43.79,-86 248.21,-86 248.21,-122"/>
<text text-anchor="middle" x="146" y="-99.8" font-family="Times,serif" font-size="14.00">ApiConfigurationRoutingModule</text>
</g>
<!-- ApiConfigurationRoutingModule&#45;&gt;ApiConfigurationModule -->
<g id="edge2" class="edge">
<title>ApiConfigurationRoutingModule&#45;&gt;ApiConfigurationModule</title>
<path fill="none" stroke="black" d="M211.28,-122.11C211.28,-122.11 211.28,-140.99 211.28,-140.99"/>
<polygon fill="black" stroke="black" points="207.78,-140.99 211.28,-150.99 214.78,-140.99 207.78,-140.99"/>
</g>
</g>
</svg>
