<?xml version="1.0" encoding="UTF-8" standalone="no"?>
<!DOCTYPE svg PUBLIC "-//W3C//DTD SVG 1.1//EN"
 "http://www.w3.org/Graphics/SVG/1.1/DTD/svg11.dtd">
<!-- Generated by graphviz version 3.0.0 (20220226.1711)
 -->
<!-- Title: dependencies Pages: 1 -->
<svg width="464pt" height="174pt"
 viewBox="0.00 0.00 464.00 173.80" xmlns="http://www.w3.org/2000/svg" xmlns:xlink="http://www.w3.org/1999/xlink">
<g id="graph0" class="graph" transform="scale(1 1) rotate(0) translate(4 169.8)">
<title>dependencies</title>
<polygon fill="white" stroke="transparent" points="-4,4 -4,-169.8 460,-169.8 460,4 -4,4"/>
<text text-anchor="middle" x="228" y="-8.2" font-family="sans-serif" font-size="14.00">dependencies</text>
<g id="clust1" class="cluster">
<title>cluster_ApiConfigurationModule</title>
<polygon fill="none" stroke="black" stroke-dasharray="1,5" points="8,-32.8 8,-157.8 448,-157.8 448,-32.8 8,-32.8"/>
</g>
<g id="clust2" class="cluster">
<title>cluster_ApiConfigurationModule_declarations</title>
<polygon fill="none" stroke="black" points="244,-40.8 244,-92.8 440,-92.8 440,-40.8 244,-40.8"/>
</g>
<g id="clust4" class="cluster">
<title>cluster_ApiConfigurationModule_imports</title>
<polygon fill="none" stroke="black" points="16,-40.8 16,-92.8 236,-92.8 236,-40.8 16,-40.8"/>
</g>
<!-- ApiConfigurationComponent -->
<g id="node1" class="node">
<title>ApiConfigurationComponent</title>
<polygon fill="#ffffb3" stroke="black" points="432.38,-84.8 251.62,-84.8 251.62,-48.8 432.38,-48.8 432.38,-84.8"/>
<text text-anchor="middle" x="342" y="-62.6" font-family="Times,serif" font-size="14.00">ApiConfigurationComponent</text>
</g>
<!-- ApiConfigurationModule -->
<g id="node2" class="node">
<title>ApiConfigurationModule</title>
<polygon fill="#8dd3c7" stroke="black" points="313.6,-149.8 310.6,-153.8 289.6,-153.8 286.6,-149.8 154.4,-149.8 154.4,-113.8 313.6,-113.8 313.6,-149.8"/>
<text text-anchor="middle" x="234" y="-127.6" font-family="Times,serif" font-size="14.00">ApiConfigurationModule</text>
</g>
<!-- ApiConfigurationComponent&#45;&gt;ApiConfigurationModule -->
<g id="edge1" class="edge">
<title>ApiConfigurationComponent&#45;&gt;ApiConfigurationModule</title>
<path fill="none" stroke="black" d="M282.56,-84.91C282.56,-84.91 282.56,-103.79 282.56,-103.79"/>
<polygon fill="black" stroke="black" points="279.06,-103.79 282.56,-113.79 286.06,-103.79 279.06,-103.79"/>
</g>
<!-- ApiConfigurationRoutingModule -->
<g id="node3" class="node">
<title>ApiConfigurationRoutingModule</title>
<polygon fill="#8dd3c7" stroke="black" points="228.21,-84.8 225.21,-88.8 204.21,-88.8 201.21,-84.8 23.79,-84.8 23.79,-48.8 228.21,-48.8 228.21,-84.8"/>
<text text-anchor="middle" x="126" y="-62.6" font-family="Times,serif" font-size="14.00">ApiConfigurationRoutingModule</text>
</g>
<!-- ApiConfigurationRoutingModule&#45;&gt;ApiConfigurationModule -->
<g id="edge2" class="edge">
<title>ApiConfigurationRoutingModule&#45;&gt;ApiConfigurationModule</title>
<path fill="none" stroke="black" d="M191.28,-84.91C191.28,-84.91 191.28,-103.79 191.28,-103.79"/>
<polygon fill="black" stroke="black" points="187.78,-103.79 191.28,-113.79 194.78,-103.79 187.78,-103.79"/>
</g>
</g>
</svg>
