<?xml version="1.0" encoding="UTF-8" standalone="no"?>
<!DOCTYPE svg PUBLIC "-//W3C//DTD SVG 1.1//EN"
 "http://www.w3.org/Graphics/SVG/1.1/DTD/svg11.dtd">
<!-- Generated by graphviz version 3.0.0 (20220226.1711)
 -->
<!-- Title: dependencies Pages: 1 -->
<svg width="1207pt" height="247pt"
 viewBox="0.00 0.00 1207.00 246.80" xmlns="http://www.w3.org/2000/svg" xmlns:xlink="http://www.w3.org/1999/xlink">
<g id="graph0" class="graph" transform="scale(1 1) rotate(0) translate(4 242.8)">
<title>dependencies</title>
<polygon fill="white" stroke="transparent" points="-4,4 -4,-242.8 1203,-242.8 1203,4 -4,4"/>
<text text-anchor="middle" x="599.5" y="-8.2" font-family="sans-serif" font-size="14.00">dependencies</text>
<g id="clust1" class="cluster">
<title>cluster_SafeRoleSummaryModule</title>
<polygon fill="none" stroke="black" stroke-dasharray="1,5" points="8,-32.8 8,-230.8 1191,-230.8 1191,-32.8 8,-32.8"/>
</g>
<g id="clust4" class="cluster">
<title>cluster_SafeRoleSummaryModule_imports</title>
<polygon fill="none" stroke="black" points="228,-40.8 228,-92.8 1183,-92.8 1183,-40.8 228,-40.8"/>
</g>
<g id="clust2" class="cluster">
<title>cluster_SafeRoleSummaryModule_declarations</title>
<polygon fill="none" stroke="black" points="16,-40.8 16,-92.8 220,-92.8 220,-40.8 16,-40.8"/>
</g>
<g id="clust5" class="cluster">
<title>cluster_SafeRoleSummaryModule_exports</title>
<polygon fill="none" stroke="black" points="507,-170.8 507,-222.8 713,-222.8 713,-170.8 507,-170.8"/>
</g>
<!-- SafeRoleSummaryComponent -->
<g id="node1" class="node">
<title>SafeRoleSummaryComponent</title>
<polygon fill="#ffffb3" stroke="black" points="211.59,-84.8 24.41,-84.8 24.41,-48.8 211.59,-48.8 211.59,-84.8"/>
<text text-anchor="middle" x="118" y="-62.6" font-family="Times,serif" font-size="14.00">SafeRoleSummaryComponent</text>
</g>
<!-- SafeRoleSummaryModule -->
<g id="node2" class="node">
<title>SafeRoleSummaryModule</title>
<polygon fill="#8dd3c7" stroke="black" points="692.81,-149.8 689.81,-153.8 668.81,-153.8 665.81,-149.8 527.19,-149.8 527.19,-113.8 692.81,-113.8 692.81,-149.8"/>
<text text-anchor="middle" x="610" y="-127.6" font-family="Times,serif" font-size="14.00">SafeRoleSummaryModule</text>
</g>
<!-- SafeRoleSummaryComponent&#45;&gt;SafeRoleSummaryModule -->
<g id="edge1" class="edge">
<title>SafeRoleSummaryComponent&#45;&gt;SafeRoleSummaryModule</title>
<path fill="none" stroke="black" d="M118,-85.09C118,-107.01 118,-140.8 118,-140.8 118,-140.8 517.1,-140.8 517.1,-140.8"/>
<polygon fill="black" stroke="black" points="517.1,-144.3 527.1,-140.8 517.1,-137.3 517.1,-144.3"/>
</g>
<!-- SafeRoleSummaryComponent  -->
<g id="node9" class="node">
<title>SafeRoleSummaryComponent </title>
<polygon fill="#fb8072" stroke="black" points="705.09,-214.8 514.91,-214.8 514.91,-178.8 705.09,-178.8 705.09,-214.8"/>
<text text-anchor="middle" x="610" y="-192.6" font-family="Times,serif" font-size="14.00">SafeRoleSummaryComponent </text>
</g>
<!-- SafeRoleSummaryModule&#45;&gt;SafeRoleSummaryComponent  -->
<g id="edge8" class="edge">
<title>SafeRoleSummaryModule&#45;&gt;SafeRoleSummaryComponent </title>
<path fill="none" stroke="black" stroke-dasharray="5,2" d="M610,-149.91C610,-149.91 610,-168.79 610,-168.79"/>
<polygon fill="black" stroke="black" points="606.5,-168.79 610,-178.79 613.5,-168.79 606.5,-168.79"/>
</g>
<!-- RoleAutoAssignmentModule -->
<g id="node3" class="node">
<title>RoleAutoAssignmentModule</title>
<polygon fill="#8dd3c7" stroke="black" points="1175.38,-84.8 1172.38,-88.8 1151.38,-88.8 1148.38,-84.8 994.62,-84.8 994.62,-48.8 1175.38,-48.8 1175.38,-84.8"/>
<text text-anchor="middle" x="1085" y="-62.6" font-family="Times,serif" font-size="14.00">RoleAutoAssignmentModule</text>
</g>
<!-- RoleAutoAssignmentModule&#45;&gt;SafeRoleSummaryModule -->
<g id="edge2" class="edge">
<title>RoleAutoAssignmentModule&#45;&gt;SafeRoleSummaryModule</title>
<path fill="none" stroke="black" d="M1085,-85.09C1085,-107.01 1085,-140.8 1085,-140.8 1085,-140.8 702.74,-140.8 702.74,-140.8"/>
<polygon fill="black" stroke="black" points="702.74,-137.3 692.74,-140.8 702.74,-144.3 702.74,-137.3"/>
</g>
<!-- RoleChannelsModule -->
<g id="node4" class="node">
<title>RoleChannelsModule</title>
<polygon fill="#8dd3c7" stroke="black" points="977.1,-84.8 974.1,-88.8 953.1,-88.8 950.1,-84.8 838.9,-84.8 838.9,-48.8 977.1,-48.8 977.1,-84.8"/>
<text text-anchor="middle" x="908" y="-62.6" font-family="Times,serif" font-size="14.00">RoleChannelsModule</text>
</g>
<!-- RoleChannelsModule&#45;&gt;SafeRoleSummaryModule -->
<g id="edge3" class="edge">
<title>RoleChannelsModule&#45;&gt;SafeRoleSummaryModule</title>
<path fill="none" stroke="black" d="M908,-84.91C908,-104.14 908,-131.8 908,-131.8 908,-131.8 703.01,-131.8 703.01,-131.8"/>
<polygon fill="black" stroke="black" points="703.01,-128.3 693.01,-131.8 703.01,-135.3 703.01,-128.3"/>
</g>
<!-- RoleDetailsModule -->
<g id="node5" class="node">
<title>RoleDetailsModule</title>
<polygon fill="#8dd3c7" stroke="black" points="820.65,-84.8 817.65,-88.8 796.65,-88.8 793.65,-84.8 695.35,-84.8 695.35,-48.8 820.65,-48.8 820.65,-84.8"/>
<text text-anchor="middle" x="758" y="-62.6" font-family="Times,serif" font-size="14.00">RoleDetailsModule</text>
</g>
<!-- RoleDetailsModule&#45;&gt;SafeRoleSummaryModule -->
<g id="edge4" class="edge">
<title>RoleDetailsModule&#45;&gt;SafeRoleSummaryModule</title>
<path fill="none" stroke="black" d="M700.24,-84.83C700.24,-101.2 700.24,-122.8 700.24,-122.8 700.24,-122.8 699.5,-122.8 699.5,-122.8"/>
<polygon fill="black" stroke="black" points="702.85,-119.3 692.85,-122.8 702.85,-126.3 702.85,-119.3"/>
</g>
<!-- RoleFeaturesModule -->
<g id="node6" class="node">
<title>RoleFeaturesModule</title>
<polygon fill="#8dd3c7" stroke="black" points="676.92,-84.8 673.92,-88.8 652.92,-88.8 649.92,-84.8 543.08,-84.8 543.08,-48.8 676.92,-48.8 676.92,-84.8"/>
<text text-anchor="middle" x="610" y="-62.6" font-family="Times,serif" font-size="14.00">RoleFeaturesModule</text>
</g>
<!-- RoleFeaturesModule&#45;&gt;SafeRoleSummaryModule -->
<g id="edge5" class="edge">
<title>RoleFeaturesModule&#45;&gt;SafeRoleSummaryModule</title>
<path fill="none" stroke="black" d="M610,-84.91C610,-84.91 610,-103.79 610,-103.79"/>
<polygon fill="black" stroke="black" points="606.5,-103.79 610,-113.79 613.5,-103.79 606.5,-103.79"/>
</g>
<!-- RoleResourcesModule -->
<g id="node7" class="node">
<title>RoleResourcesModule</title>
<polygon fill="#8dd3c7" stroke="black" points="525.53,-84.8 522.53,-88.8 501.53,-88.8 498.53,-84.8 382.47,-84.8 382.47,-48.8 525.53,-48.8 525.53,-84.8"/>
<text text-anchor="middle" x="454" y="-62.6" font-family="Times,serif" font-size="14.00">RoleResourcesModule</text>
</g>
<!-- RoleResourcesModule&#45;&gt;SafeRoleSummaryModule -->
<g id="edge6" class="edge">
<title>RoleResourcesModule&#45;&gt;SafeRoleSummaryModule</title>
<path fill="none" stroke="black" d="M520.24,-84.83C520.24,-101.2 520.24,-122.8 520.24,-122.8 520.24,-122.8 520.94,-122.8 520.94,-122.8"/>
<polygon fill="black" stroke="black" points="517.28,-126.3 527.28,-122.8 517.28,-119.3 517.28,-126.3"/>
</g>
<!-- SafeSpinnerModule -->
<g id="node8" class="node">
<title>SafeSpinnerModule</title>
<polygon fill="#8dd3c7" stroke="black" points="363.98,-84.8 360.98,-88.8 339.98,-88.8 336.98,-84.8 236.02,-84.8 236.02,-48.8 363.98,-48.8 363.98,-84.8"/>
<text text-anchor="middle" x="300" y="-62.6" font-family="Times,serif" font-size="14.00">SafeSpinnerModule</text>
</g>
<!-- SafeSpinnerModule&#45;&gt;SafeRoleSummaryModule -->
<g id="edge7" class="edge">
<title>SafeSpinnerModule&#45;&gt;SafeRoleSummaryModule</title>
<path fill="none" stroke="black" d="M300,-84.91C300,-104.14 300,-131.8 300,-131.8 300,-131.8 517.33,-131.8 517.33,-131.8"/>
<polygon fill="black" stroke="black" points="517.33,-135.3 527.33,-131.8 517.33,-128.3 517.33,-135.3"/>
</g>
</g>
</svg>
