<?xml version="1.0" encoding="UTF-8" standalone="no"?>
<!DOCTYPE svg PUBLIC "-//W3C//DTD SVG 1.1//EN"
 "http://www.w3.org/Graphics/SVG/1.1/DTD/svg11.dtd">
<!-- Generated by graphviz version 3.0.0 (20220226.1711)
 -->
<!-- Title: dependencies Pages: 1 -->
<svg width="654pt" height="247pt"
 viewBox="0.00 0.00 654.00 246.80" xmlns="http://www.w3.org/2000/svg" xmlns:xlink="http://www.w3.org/1999/xlink">
<g id="graph0" class="graph" transform="scale(1 1) rotate(0) translate(4 242.8)">
<title>dependencies</title>
<polygon fill="white" stroke="transparent" points="-4,4 -4,-242.8 650,-242.8 650,4 -4,4"/>
<text text-anchor="middle" x="323" y="-8.2" font-family="sans-serif" font-size="14.00">dependencies</text>
<g id="clust1" class="cluster">
<title>cluster_PositionModule</title>
<polygon fill="none" stroke="black" stroke-dasharray="1,5" points="8,-32.8 8,-230.8 638,-230.8 638,-32.8 8,-32.8"/>
</g>
<g id="clust5" class="cluster">
<title>cluster_PositionModule_imports</title>
<polygon fill="none" stroke="black" points="350,-40.8 350,-92.8 630,-92.8 630,-40.8 350,-40.8"/>
</g>
<g id="clust6" class="cluster">
<title>cluster_PositionModule_exports</title>
<polygon fill="none" stroke="black" points="278,-170.8 278,-222.8 424,-222.8 424,-170.8 278,-170.8"/>
</g>
<g id="clust2" class="cluster">
<title>cluster_PositionModule_declarations</title>
<polygon fill="none" stroke="black" points="16,-40.8 16,-92.8 342,-92.8 342,-40.8 16,-40.8"/>
</g>
<!-- PositionComponent -->
<g id="node1" class="node">
<title>PositionComponent</title>
<polygon fill="#ffffb3" stroke="black" points="333.73,-84.8 206.27,-84.8 206.27,-48.8 333.73,-48.8 333.73,-84.8"/>
<text text-anchor="middle" x="270" y="-62.6" font-family="Times,serif" font-size="14.00">PositionComponent</text>
</g>
<!-- PositionModule -->
<g id="node3" class="node">
<title>PositionModule</title>
<polygon fill="#8dd3c7" stroke="black" points="403.96,-149.8 400.96,-153.8 379.96,-153.8 376.96,-149.8 298.04,-149.8 298.04,-113.8 403.96,-113.8 403.96,-149.8"/>
<text text-anchor="middle" x="351" y="-127.6" font-family="Times,serif" font-size="14.00">PositionModule</text>
</g>
<!-- PositionComponent&#45;&gt;PositionModule -->
<g id="edge1" class="edge">
<title>PositionComponent&#45;&gt;PositionModule</title>
<path fill="none" stroke="black" d="M315.94,-84.91C315.94,-84.91 315.94,-103.79 315.94,-103.79"/>
<polygon fill="black" stroke="black" points="312.44,-103.79 315.94,-113.79 319.44,-103.79 312.44,-103.79"/>
</g>
<!-- PositionModalComponent -->
<g id="node2" class="node">
<title>PositionModalComponent</title>
<polygon fill="#ffffb3" stroke="black" points="187.79,-84.8 24.21,-84.8 24.21,-48.8 187.79,-48.8 187.79,-84.8"/>
<text text-anchor="middle" x="106" y="-62.6" font-family="Times,serif" font-size="14.00">PositionModalComponent</text>
</g>
<!-- PositionModalComponent&#45;&gt;PositionModule -->
<g id="edge2" class="edge">
<title>PositionModalComponent&#45;&gt;PositionModule</title>
<path fill="none" stroke="black" d="M106,-84.91C106,-104.14 106,-131.8 106,-131.8 106,-131.8 288.14,-131.8 288.14,-131.8"/>
<polygon fill="black" stroke="black" points="288.14,-135.3 298.14,-131.8 288.14,-128.3 288.14,-135.3"/>
</g>
<!-- PositionComponent  -->
<g id="node6" class="node">
<title>PositionComponent </title>
<polygon fill="#fb8072" stroke="black" points="416.23,-214.8 285.77,-214.8 285.77,-178.8 416.23,-178.8 416.23,-214.8"/>
<text text-anchor="middle" x="351" y="-192.6" font-family="Times,serif" font-size="14.00">PositionComponent </text>
</g>
<!-- PositionModule&#45;&gt;PositionComponent  -->
<g id="edge5" class="edge">
<title>PositionModule&#45;&gt;PositionComponent </title>
<path fill="none" stroke="black" stroke-dasharray="5,2" d="M351,-149.91C351,-149.91 351,-168.79 351,-168.79"/>
<polygon fill="black" stroke="black" points="347.5,-168.79 351,-178.79 354.5,-168.79 347.5,-168.79"/>
</g>
<!-- FormsModule -->
<g id="node4" class="node">
<title>FormsModule</title>
<polygon fill="#8dd3c7" stroke="black" points="621.84,-84.8 618.84,-88.8 597.84,-88.8 594.84,-84.8 526.16,-84.8 526.16,-48.8 621.84,-48.8 621.84,-84.8"/>
<text text-anchor="middle" x="574" y="-62.6" font-family="Times,serif" font-size="14.00">FormsModule</text>
</g>
<!-- FormsModule&#45;&gt;PositionModule -->
<g id="edge3" class="edge">
<title>FormsModule&#45;&gt;PositionModule</title>
<path fill="none" stroke="black" d="M574,-84.91C574,-104.14 574,-131.8 574,-131.8 574,-131.8 413.85,-131.8 413.85,-131.8"/>
<polygon fill="black" stroke="black" points="413.85,-128.3 403.85,-131.8 413.85,-135.3 413.85,-128.3"/>
</g>
<!-- PositionRoutingModule -->
<g id="node5" class="node">
<title>PositionRoutingModule</title>
<polygon fill="#8dd3c7" stroke="black" points="508.07,-84.8 505.07,-88.8 484.07,-88.8 481.07,-84.8 357.93,-84.8 357.93,-48.8 508.07,-48.8 508.07,-84.8"/>
<text text-anchor="middle" x="433" y="-62.6" font-family="Times,serif" font-size="14.00">PositionRoutingModule</text>
</g>
<!-- PositionRoutingModule&#45;&gt;PositionModule -->
<g id="edge4" class="edge">
<title>PositionRoutingModule&#45;&gt;PositionModule</title>
<path fill="none" stroke="black" d="M380.72,-84.91C380.72,-84.91 380.72,-103.79 380.72,-103.79"/>
<polygon fill="black" stroke="black" points="377.22,-103.79 380.72,-113.79 384.22,-103.79 377.22,-103.79"/>
</g>
</g>
</svg>
