<?xml version="1.0" encoding="UTF-8" standalone="no"?>
<!DOCTYPE svg PUBLIC "-//W3C//DTD SVG 1.1//EN"
 "http://www.w3.org/Graphics/SVG/1.1/DTD/svg11.dtd">
<!-- Generated by graphviz version 3.0.0 (20220226.1711)
 -->
<!-- Title: dependencies Pages: 1 -->
<svg width="654pt" height="247pt"
 viewBox="0.00 0.00 654.00 246.80" xmlns="http://www.w3.org/2000/svg" xmlns:xlink="http://www.w3.org/1999/xlink">
<g id="graph0" class="graph" transform="scale(1 1) rotate(0) translate(4 242.8)">
<title>dependencies</title>
<polygon fill="white" stroke="transparent" points="-4,4 -4,-242.8 650,-242.8 650,4 -4,4"/>
<text text-anchor="middle" x="323" y="-8.2" font-family="sans-serif" font-size="14.00">dependencies</text>
<g id="clust1" class="cluster">
<title>cluster_PositionModule</title>
<polygon fill="none" stroke="black" stroke-dasharray="1,5" points="8,-32.8 8,-230.8 638,-230.8 638,-32.8 8,-32.8"/>
</g>
<g id="clust2" class="cluster">
<title>cluster_PositionModule_declarations</title>
<polygon fill="none" stroke="black" points="304,-40.8 304,-92.8 630,-92.8 630,-40.8 304,-40.8"/>
</g>
<g id="clust6" class="cluster">
<title>cluster_PositionModule_exports</title>
<polygon fill="none" stroke="black" points="244,-170.8 244,-222.8 390,-222.8 390,-170.8 244,-170.8"/>
</g>
<g id="clust5" class="cluster">
<title>cluster_PositionModule_imports</title>
<polygon fill="none" stroke="black" points="16,-40.8 16,-92.8 296,-92.8 296,-40.8 16,-40.8"/>
</g>
<!-- PositionComponent -->
<g id="node1" class="node">
<title>PositionComponent</title>
<polygon fill="#ffffb3" stroke="black" points="621.73,-84.8 494.27,-84.8 494.27,-48.8 621.73,-48.8 621.73,-84.8"/>
<text text-anchor="middle" x="558" y="-62.6" font-family="Times,serif" font-size="14.00">PositionComponent</text>
</g>
<!-- PositionModule -->
<g id="node3" class="node">
<title>PositionModule</title>
<polygon fill="#8dd3c7" stroke="black" points="369.96,-149.8 366.96,-153.8 345.96,-153.8 342.96,-149.8 264.04,-149.8 264.04,-113.8 369.96,-113.8 369.96,-149.8"/>
<text text-anchor="middle" x="317" y="-127.6" font-family="Times,serif" font-size="14.00">PositionModule</text>
</g>
<!-- PositionComponent&#45;&gt;PositionModule -->
<g id="edge1" class="edge">
<title>PositionComponent&#45;&gt;PositionModule</title>
<path fill="none" stroke="black" d="M558,-84.91C558,-104.14 558,-131.8 558,-131.8 558,-131.8 379.89,-131.8 379.89,-131.8"/>
<polygon fill="black" stroke="black" points="379.89,-128.3 369.89,-131.8 379.89,-135.3 379.89,-128.3"/>
</g>
<!-- PositionModalComponent -->
<g id="node2" class="node">
<title>PositionModalComponent</title>
<polygon fill="#ffffb3" stroke="black" points="475.79,-84.8 312.21,-84.8 312.21,-48.8 475.79,-48.8 475.79,-84.8"/>
<text text-anchor="middle" x="394" y="-62.6" font-family="Times,serif" font-size="14.00">PositionModalComponent</text>
</g>
<!-- PositionModalComponent&#45;&gt;PositionModule -->
<g id="edge2" class="edge">
<title>PositionModalComponent&#45;&gt;PositionModule</title>
<path fill="none" stroke="black" d="M340.92,-84.91C340.92,-84.91 340.92,-103.79 340.92,-103.79"/>
<polygon fill="black" stroke="black" points="337.42,-103.79 340.92,-113.79 344.42,-103.79 337.42,-103.79"/>
</g>
<!-- PositionComponent  -->
<g id="node6" class="node">
<title>PositionComponent </title>
<polygon fill="#fb8072" stroke="black" points="382.23,-214.8 251.77,-214.8 251.77,-178.8 382.23,-178.8 382.23,-214.8"/>
<text text-anchor="middle" x="317" y="-192.6" font-family="Times,serif" font-size="14.00">PositionComponent </text>
</g>
<!-- PositionModule&#45;&gt;PositionComponent  -->
<g id="edge5" class="edge">
<title>PositionModule&#45;&gt;PositionComponent </title>
<path fill="none" stroke="black" stroke-dasharray="5,2" d="M317,-149.91C317,-149.91 317,-168.79 317,-168.79"/>
<polygon fill="black" stroke="black" points="313.5,-168.79 317,-178.79 320.5,-168.79 313.5,-168.79"/>
</g>
<!-- FormsModule -->
<g id="node4" class="node">
<title>FormsModule</title>
<polygon fill="#8dd3c7" stroke="black" points="287.84,-84.8 284.84,-88.8 263.84,-88.8 260.84,-84.8 192.16,-84.8 192.16,-48.8 287.84,-48.8 287.84,-84.8"/>
<text text-anchor="middle" x="240" y="-62.6" font-family="Times,serif" font-size="14.00">FormsModule</text>
</g>
<!-- FormsModule&#45;&gt;PositionModule -->
<g id="edge3" class="edge">
<title>FormsModule&#45;&gt;PositionModule</title>
<path fill="none" stroke="black" d="M275.97,-84.91C275.97,-84.91 275.97,-103.79 275.97,-103.79"/>
<polygon fill="black" stroke="black" points="272.47,-103.79 275.97,-113.79 279.47,-103.79 272.47,-103.79"/>
</g>
<!-- PositionRoutingModule -->
<g id="node5" class="node">
<title>PositionRoutingModule</title>
<polygon fill="#8dd3c7" stroke="black" points="174.07,-84.8 171.07,-88.8 150.07,-88.8 147.07,-84.8 23.93,-84.8 23.93,-48.8 174.07,-48.8 174.07,-84.8"/>
<text text-anchor="middle" x="99" y="-62.6" font-family="Times,serif" font-size="14.00">PositionRoutingModule</text>
</g>
<!-- PositionRoutingModule&#45;&gt;PositionModule -->
<g id="edge4" class="edge">
<title>PositionRoutingModule&#45;&gt;PositionModule</title>
<path fill="none" stroke="black" d="M99,-84.91C99,-104.14 99,-131.8 99,-131.8 99,-131.8 254.23,-131.8 254.23,-131.8"/>
<polygon fill="black" stroke="black" points="254.23,-135.3 264.23,-131.8 254.23,-128.3 254.23,-135.3"/>
</g>
</g>
</svg>
