<?xml version="1.0" encoding="UTF-8" standalone="no"?>
<!DOCTYPE svg PUBLIC "-//W3C//DTD SVG 1.1//EN"
 "http://www.w3.org/Graphics/SVG/1.1/DTD/svg11.dtd">
<!-- Generated by graphviz version 3.0.0 (20220226.1711)
 -->
<!-- Title: dependencies Pages: 1 -->
<svg width="1207pt" height="247pt"
 viewBox="0.00 0.00 1207.00 246.80" xmlns="http://www.w3.org/2000/svg" xmlns:xlink="http://www.w3.org/1999/xlink">
<g id="graph0" class="graph" transform="scale(1 1) rotate(0) translate(4 242.8)">
<title>dependencies</title>
<polygon fill="white" stroke="transparent" points="-4,4 -4,-242.8 1203,-242.8 1203,4 -4,4"/>
<text text-anchor="middle" x="599.5" y="-8.2" font-family="sans-serif" font-size="14.00">dependencies</text>
<g id="clust1" class="cluster">
<title>cluster_SafeRoleSummaryModule</title>
<polygon fill="none" stroke="black" stroke-dasharray="1,5" points="8,-32.8 8,-230.8 1191,-230.8 1191,-32.8 8,-32.8"/>
</g>
<g id="clust2" class="cluster">
<title>cluster_SafeRoleSummaryModule_declarations</title>
<polygon fill="none" stroke="black" points="979,-40.8 979,-92.8 1183,-92.8 1183,-40.8 979,-40.8"/>
</g>
<g id="clust5" class="cluster">
<title>cluster_SafeRoleSummaryModule_exports</title>
<polygon fill="none" stroke="black" points="443,-170.8 443,-222.8 649,-222.8 649,-170.8 443,-170.8"/>
</g>
<g id="clust4" class="cluster">
<title>cluster_SafeRoleSummaryModule_imports</title>
<polygon fill="none" stroke="black" points="16,-40.8 16,-92.8 971,-92.8 971,-40.8 16,-40.8"/>
</g>
<!-- SafeRoleSummaryComponent -->
<g id="node1" class="node">
<title>SafeRoleSummaryComponent</title>
<polygon fill="#ffffb3" stroke="black" points="1174.59,-84.8 987.41,-84.8 987.41,-48.8 1174.59,-48.8 1174.59,-84.8"/>
<text text-anchor="middle" x="1081" y="-62.6" font-family="Times,serif" font-size="14.00">SafeRoleSummaryComponent</text>
</g>
<!-- SafeRoleSummaryModule -->
<g id="node2" class="node">
<title>SafeRoleSummaryModule</title>
<polygon fill="#8dd3c7" stroke="black" points="628.81,-149.8 625.81,-153.8 604.81,-153.8 601.81,-149.8 463.19,-149.8 463.19,-113.8 628.81,-113.8 628.81,-149.8"/>
<text text-anchor="middle" x="546" y="-127.6" font-family="Times,serif" font-size="14.00">SafeRoleSummaryModule</text>
</g>
<!-- SafeRoleSummaryComponent&#45;&gt;SafeRoleSummaryModule -->
<g id="edge1" class="edge">
<title>SafeRoleSummaryComponent&#45;&gt;SafeRoleSummaryModule</title>
<path fill="none" stroke="black" d="M1081,-85.09C1081,-107.01 1081,-140.8 1081,-140.8 1081,-140.8 638.71,-140.8 638.71,-140.8"/>
<polygon fill="black" stroke="black" points="638.71,-137.3 628.71,-140.8 638.71,-144.3 638.71,-137.3"/>
</g>
<!-- SafeRoleSummaryComponent  -->
<g id="node9" class="node">
<title>SafeRoleSummaryComponent </title>
<polygon fill="#fb8072" stroke="black" points="641.09,-214.8 450.91,-214.8 450.91,-178.8 641.09,-178.8 641.09,-214.8"/>
<text text-anchor="middle" x="546" y="-192.6" font-family="Times,serif" font-size="14.00">SafeRoleSummaryComponent </text>
</g>
<!-- SafeRoleSummaryModule&#45;&gt;SafeRoleSummaryComponent  -->
<g id="edge8" class="edge">
<title>SafeRoleSummaryModule&#45;&gt;SafeRoleSummaryComponent </title>
<path fill="none" stroke="black" stroke-dasharray="5,2" d="M546,-149.91C546,-149.91 546,-168.79 546,-168.79"/>
<polygon fill="black" stroke="black" points="542.5,-168.79 546,-178.79 549.5,-168.79 542.5,-168.79"/>
</g>
<!-- RoleAutoAssignmentModule -->
<g id="node3" class="node">
<title>RoleAutoAssignmentModule</title>
<polygon fill="#8dd3c7" stroke="black" points="963.38,-84.8 960.38,-88.8 939.38,-88.8 936.38,-84.8 782.62,-84.8 782.62,-48.8 963.38,-48.8 963.38,-84.8"/>
<text text-anchor="middle" x="873" y="-62.6" font-family="Times,serif" font-size="14.00">RoleAutoAssignmentModule</text>
</g>
<!-- RoleAutoAssignmentModule&#45;&gt;SafeRoleSummaryModule -->
<g id="edge2" class="edge">
<title>RoleAutoAssignmentModule&#45;&gt;SafeRoleSummaryModule</title>
<path fill="none" stroke="black" d="M873,-84.91C873,-104.14 873,-131.8 873,-131.8 873,-131.8 638.94,-131.8 638.94,-131.8"/>
<polygon fill="black" stroke="black" points="638.94,-128.3 628.94,-131.8 638.94,-135.3 638.94,-128.3"/>
</g>
<!-- RoleChannelsModule -->
<g id="node4" class="node">
<title>RoleChannelsModule</title>
<polygon fill="#8dd3c7" stroke="black" points="765.1,-84.8 762.1,-88.8 741.1,-88.8 738.1,-84.8 626.9,-84.8 626.9,-48.8 765.1,-48.8 765.1,-84.8"/>
<text text-anchor="middle" x="696" y="-62.6" font-family="Times,serif" font-size="14.00">RoleChannelsModule</text>
</g>
<!-- RoleChannelsModule&#45;&gt;SafeRoleSummaryModule -->
<g id="edge3" class="edge">
<title>RoleChannelsModule&#45;&gt;SafeRoleSummaryModule</title>
<path fill="none" stroke="black" d="M634.98,-84.83C634.98,-101.2 634.98,-122.8 634.98,-122.8 634.98,-122.8 634.36,-122.8 634.36,-122.8"/>
<polygon fill="black" stroke="black" points="638.86,-119.3 628.86,-122.8 638.86,-126.3 638.86,-119.3"/>
</g>
<!-- RoleDetailsModule -->
<g id="node5" class="node">
<title>RoleDetailsModule</title>
<polygon fill="#8dd3c7" stroke="black" points="608.65,-84.8 605.65,-88.8 584.65,-88.8 581.65,-84.8 483.35,-84.8 483.35,-48.8 608.65,-48.8 608.65,-84.8"/>
<text text-anchor="middle" x="546" y="-62.6" font-family="Times,serif" font-size="14.00">RoleDetailsModule</text>
</g>
<!-- RoleDetailsModule&#45;&gt;SafeRoleSummaryModule -->
<g id="edge4" class="edge">
<title>RoleDetailsModule&#45;&gt;SafeRoleSummaryModule</title>
<path fill="none" stroke="black" d="M546,-84.91C546,-84.91 546,-103.79 546,-103.79"/>
<polygon fill="black" stroke="black" points="542.5,-103.79 546,-113.79 549.5,-103.79 542.5,-103.79"/>
</g>
<!-- RoleFeaturesModule -->
<g id="node6" class="node">
<title>RoleFeaturesModule</title>
<polygon fill="#8dd3c7" stroke="black" points="464.92,-84.8 461.92,-88.8 440.92,-88.8 437.92,-84.8 331.08,-84.8 331.08,-48.8 464.92,-48.8 464.92,-84.8"/>
<text text-anchor="middle" x="398" y="-62.6" font-family="Times,serif" font-size="14.00">RoleFeaturesModule</text>
</g>
<!-- RoleFeaturesModule&#45;&gt;SafeRoleSummaryModule -->
<g id="edge5" class="edge">
<title>RoleFeaturesModule&#45;&gt;SafeRoleSummaryModule</title>
<path fill="none" stroke="black" d="M457.02,-85.09C457.02,-107.01 457.02,-140.8 457.02,-140.8 457.02,-140.8 457.64,-140.8 457.64,-140.8"/>
<polygon fill="black" stroke="black" points="453.14,-144.3 463.14,-140.8 453.14,-137.3 453.14,-144.3"/>
</g>
<!-- RoleResourcesModule -->
<g id="node7" class="node">
<title>RoleResourcesModule</title>
<polygon fill="#8dd3c7" stroke="black" points="313.53,-84.8 310.53,-88.8 289.53,-88.8 286.53,-84.8 170.47,-84.8 170.47,-48.8 313.53,-48.8 313.53,-84.8"/>
<text text-anchor="middle" x="242" y="-62.6" font-family="Times,serif" font-size="14.00">RoleResourcesModule</text>
</g>
<!-- RoleResourcesModule&#45;&gt;SafeRoleSummaryModule -->
<g id="edge6" class="edge">
<title>RoleResourcesModule&#45;&gt;SafeRoleSummaryModule</title>
<path fill="none" stroke="black" d="M242,-84.83C242,-101.2 242,-122.8 242,-122.8 242,-122.8 453.33,-122.8 453.33,-122.8"/>
<polygon fill="black" stroke="black" points="453.33,-126.3 463.33,-122.8 453.33,-119.3 453.33,-126.3"/>
</g>
<!-- SafeSpinnerModule -->
<g id="node8" class="node">
<title>SafeSpinnerModule</title>
<polygon fill="#8dd3c7" stroke="black" points="151.98,-84.8 148.98,-88.8 127.98,-88.8 124.98,-84.8 24.02,-84.8 24.02,-48.8 151.98,-48.8 151.98,-84.8"/>
<text text-anchor="middle" x="88" y="-62.6" font-family="Times,serif" font-size="14.00">SafeSpinnerModule</text>
</g>
<!-- SafeSpinnerModule&#45;&gt;SafeRoleSummaryModule -->
<g id="edge7" class="edge">
<title>SafeSpinnerModule&#45;&gt;SafeRoleSummaryModule</title>
<path fill="none" stroke="black" d="M88,-84.91C88,-104.14 88,-131.8 88,-131.8 88,-131.8 453.32,-131.8 453.32,-131.8"/>
<polygon fill="black" stroke="black" points="453.32,-135.3 463.32,-131.8 453.32,-128.3 453.32,-135.3"/>
</g>
</g>
</svg>
