<?xml version="1.0" encoding="UTF-8" standalone="no"?>
<!DOCTYPE svg PUBLIC "-//W3C//DTD SVG 1.1//EN"
 "http://www.w3.org/Graphics/SVG/1.1/DTD/svg11.dtd">
<!-- Generated by graphviz version 3.0.0 (20220226.1711)
 -->
<!-- Title: dependencies Pages: 1 -->
<svg width="927pt" height="247pt"
 viewBox="0.00 0.00 927.00 246.80" xmlns="http://www.w3.org/2000/svg" xmlns:xlink="http://www.w3.org/1999/xlink">
<g id="graph0" class="graph" transform="scale(1 1) rotate(0) translate(4 242.8)">
<title>dependencies</title>
<polygon fill="white" stroke="transparent" points="-4,4 -4,-242.8 923,-242.8 923,4 -4,4"/>
<text text-anchor="middle" x="459.5" y="-8.2" font-family="sans-serif" font-size="14.00">dependencies</text>
<g id="clust1" class="cluster">
<title>cluster_UserRolesModule</title>
<polygon fill="none" stroke="black" stroke-dasharray="1,5" points="8,-32.8 8,-230.8 911,-230.8 911,-32.8 8,-32.8"/>
</g>
<g id="clust8" class="cluster">
<title>cluster_UserRolesModule_exports</title>
<polygon fill="none" stroke="black" points="372,-170.8 372,-222.8 532,-222.8 532,-170.8 372,-170.8"/>
</g>
<g id="clust2" class="cluster">
<title>cluster_UserRolesModule_declarations</title>
<polygon fill="none" stroke="black" points="212,-40.8 212,-92.8 903,-92.8 903,-40.8 212,-40.8"/>
</g>
<g id="clust7" class="cluster">
<title>cluster_UserRolesModule_imports</title>
<polygon fill="none" stroke="black" points="16,-40.8 16,-92.8 204,-92.8 204,-40.8 16,-40.8"/>
</g>
<!-- UserAppRolesComponent -->
<g id="node1" class="node">
<title>UserAppRolesComponent</title>
<polygon fill="#ffffb3" stroke="black" points="894.77,-84.8 731.23,-84.8 731.23,-48.8 894.77,-48.8 894.77,-84.8"/>
<text text-anchor="middle" x="813" y="-62.6" font-family="Times,serif" font-size="14.00">UserAppRolesComponent</text>
</g>
<!-- UserRolesModule -->
<g id="node5" class="node">
<title>UserRolesModule</title>
<polygon fill="#8dd3c7" stroke="black" points="510.88,-149.8 507.88,-153.8 486.88,-153.8 483.88,-149.8 393.12,-149.8 393.12,-113.8 510.88,-113.8 510.88,-149.8"/>
<text text-anchor="middle" x="452" y="-127.6" font-family="Times,serif" font-size="14.00">UserRolesModule</text>
</g>
<!-- UserAppRolesComponent&#45;&gt;UserRolesModule -->
<g id="edge1" class="edge">
<title>UserAppRolesComponent&#45;&gt;UserRolesModule</title>
<path fill="none" stroke="black" d="M813,-85.08C813,-106.12 813,-137.8 813,-137.8 813,-137.8 521.21,-137.8 521.21,-137.8"/>
<polygon fill="black" stroke="black" points="521.21,-134.3 511.21,-137.8 521.21,-141.3 521.21,-134.3"/>
</g>
<!-- UserBackRolesComponent -->
<g id="node2" class="node">
<title>UserBackRolesComponent</title>
<polygon fill="#ffffb3" stroke="black" points="713.42,-84.8 544.58,-84.8 544.58,-48.8 713.42,-48.8 713.42,-84.8"/>
<text text-anchor="middle" x="629" y="-62.6" font-family="Times,serif" font-size="14.00">UserBackRolesComponent</text>
</g>
<!-- UserBackRolesComponent&#45;&gt;UserRolesModule -->
<g id="edge2" class="edge">
<title>UserBackRolesComponent&#45;&gt;UserRolesModule</title>
<path fill="none" stroke="black" d="M629,-84.82C629,-102.17 629,-125.8 629,-125.8 629,-125.8 520.94,-125.8 520.94,-125.8"/>
<polygon fill="black" stroke="black" points="520.94,-122.3 510.94,-125.8 520.94,-129.3 520.94,-122.3"/>
</g>
<!-- UserGroupsComponent -->
<g id="node3" class="node">
<title>UserGroupsComponent</title>
<polygon fill="#ffffb3" stroke="black" points="526.49,-84.8 377.51,-84.8 377.51,-48.8 526.49,-48.8 526.49,-84.8"/>
<text text-anchor="middle" x="452" y="-62.6" font-family="Times,serif" font-size="14.00">UserGroupsComponent</text>
</g>
<!-- UserGroupsComponent&#45;&gt;UserRolesModule -->
<g id="edge3" class="edge">
<title>UserGroupsComponent&#45;&gt;UserRolesModule</title>
<path fill="none" stroke="black" d="M452,-84.91C452,-84.91 452,-103.79 452,-103.79"/>
<polygon fill="black" stroke="black" points="448.5,-103.79 452,-113.79 455.5,-103.79 448.5,-103.79"/>
</g>
<!-- UserRolesComponent -->
<g id="node4" class="node">
<title>UserRolesComponent</title>
<polygon fill="#ffffb3" stroke="black" points="359.66,-84.8 220.34,-84.8 220.34,-48.8 359.66,-48.8 359.66,-84.8"/>
<text text-anchor="middle" x="290" y="-62.6" font-family="Times,serif" font-size="14.00">UserRolesComponent</text>
</g>
<!-- UserRolesComponent&#45;&gt;UserRolesModule -->
<g id="edge4" class="edge">
<title>UserRolesComponent&#45;&gt;UserRolesModule</title>
<path fill="none" stroke="black" d="M290,-84.82C290,-102.17 290,-125.8 290,-125.8 290,-125.8 383.06,-125.8 383.06,-125.8"/>
<polygon fill="black" stroke="black" points="383.06,-129.3 393.06,-125.8 383.06,-122.3 383.06,-129.3"/>
</g>
<!-- UserRolesComponent  -->
<g id="node7" class="node">
<title>UserRolesComponent </title>
<polygon fill="#fb8072" stroke="black" points="523.66,-214.8 380.34,-214.8 380.34,-178.8 523.66,-178.8 523.66,-214.8"/>
<text text-anchor="middle" x="452" y="-192.6" font-family="Times,serif" font-size="14.00">UserRolesComponent </text>
</g>
<!-- UserRolesModule&#45;&gt;UserRolesComponent  -->
<g id="edge6" class="edge">
<title>UserRolesModule&#45;&gt;UserRolesComponent </title>
<path fill="none" stroke="black" stroke-dasharray="5,2" d="M452,-149.91C452,-149.91 452,-168.79 452,-168.79"/>
<polygon fill="black" stroke="black" points="448.5,-168.79 452,-178.79 455.5,-168.79 448.5,-168.79"/>
</g>
<!-- SafeGraphQLSelectModule -->
<g id="node6" class="node">
<title>SafeGraphQLSelectModule</title>
<polygon fill="#8dd3c7" stroke="black" points="196.28,-84.8 193.28,-88.8 172.28,-88.8 169.28,-84.8 23.72,-84.8 23.72,-48.8 196.28,-48.8 196.28,-84.8"/>
<text text-anchor="middle" x="110" y="-62.6" font-family="Times,serif" font-size="14.00">SafeGraphQLSelectModule</text>
</g>
<!-- SafeGraphQLSelectModule&#45;&gt;UserRolesModule -->
<g id="edge5" class="edge">
<title>SafeGraphQLSelectModule&#45;&gt;UserRolesModule</title>
<path fill="none" stroke="black" d="M110,-85.08C110,-106.12 110,-137.8 110,-137.8 110,-137.8 382.82,-137.8 382.82,-137.8"/>
<polygon fill="black" stroke="black" points="382.82,-141.3 392.82,-137.8 382.82,-134.3 382.82,-141.3"/>
</g>
</g>
</svg>
