<?xml version="1.0" encoding="UTF-8" standalone="no"?>
<!DOCTYPE svg PUBLIC "-//W3C//DTD SVG 1.1//EN"
 "http://www.w3.org/Graphics/SVG/1.1/DTD/svg11.dtd">
<!-- Generated by graphviz version 3.0.0 (20220226.1711)
 -->
<!-- Title: dependencies Pages: 1 -->
<svg width="188pt" height="247pt"
 viewBox="0.00 0.00 188.00 246.80" xmlns="http://www.w3.org/2000/svg" xmlns:xlink="http://www.w3.org/1999/xlink">
<g id="graph0" class="graph" transform="scale(1 1) rotate(0) translate(4 242.8)">
<title>dependencies</title>
<polygon fill="white" stroke="transparent" points="-4,4 -4,-242.8 184,-242.8 184,4 -4,4"/>
<text text-anchor="middle" x="90" y="-8.2" font-family="sans-serif" font-size="14.00">dependencies</text>
<g id="clust1" class="cluster">
<title>cluster_SafeCronParserModule</title>
<polygon fill="none" stroke="black" stroke-dasharray="1,5" points="8,-32.8 8,-230.8 172,-230.8 172,-32.8 8,-32.8"/>
</g>
<g id="clust2" class="cluster">
<title>cluster_SafeCronParserModule_declarations</title>
<polygon fill="none" stroke="black" points="30,-40.8 30,-92.8 150,-92.8 150,-40.8 30,-40.8"/>
</g>
<g id="clust5" class="cluster">
<title>cluster_SafeCronParserModule_exports</title>
<polygon fill="none" stroke="black" points="28,-170.8 28,-222.8 152,-222.8 152,-170.8 28,-170.8"/>
</g>
<!-- CronParserPipe -->
<g id="node1" class="node">
<title>CronParserPipe</title>
<polygon fill="#ffffb3" stroke="black" points="141.88,-84.8 38.12,-84.8 38.12,-48.8 141.88,-48.8 141.88,-84.8"/>
<text text-anchor="middle" x="90" y="-62.6" font-family="Times,serif" font-size="14.00">CronParserPipe</text>
</g>
<!-- SafeCronParserModule -->
<g id="node2" class="node">
<title>SafeCronParserModule</title>
<polygon fill="#8dd3c7" stroke="black" points="163.91,-149.8 160.91,-153.8 139.91,-153.8 136.91,-149.8 16.09,-149.8 16.09,-113.8 163.91,-113.8 163.91,-149.8"/>
<text text-anchor="middle" x="90" y="-127.6" font-family="Times,serif" font-size="14.00">SafeCronParserModule</text>
</g>
<!-- CronParserPipe&#45;&gt;SafeCronParserModule -->
<g id="edge1" class="edge">
<title>CronParserPipe&#45;&gt;SafeCronParserModule</title>
<path fill="none" stroke="black" d="M90,-84.91C90,-84.91 90,-103.79 90,-103.79"/>
<polygon fill="black" stroke="black" points="86.5,-103.79 90,-113.79 93.5,-103.79 86.5,-103.79"/>
</g>
<!-- CronParserPipe  -->
<g id="node3" class="node">
<title>CronParserPipe </title>
<polygon fill="#fb8072" stroke="black" points="143.88,-214.8 36.12,-214.8 36.12,-178.8 143.88,-178.8 143.88,-214.8"/>
<text text-anchor="middle" x="90" y="-192.6" font-family="Times,serif" font-size="14.00">CronParserPipe </text>
</g>
<!-- SafeCronParserModule&#45;&gt;CronParserPipe  -->
<g id="edge2" class="edge">
<title>SafeCronParserModule&#45;&gt;CronParserPipe </title>
<path fill="none" stroke="black" stroke-dasharray="5,2" d="M90,-149.91C90,-149.91 90,-168.79 90,-168.79"/>
<polygon fill="black" stroke="black" points="86.5,-168.79 90,-178.79 93.5,-168.79 86.5,-168.79"/>
</g>
</g>
</svg>
