<?xml version="1.0" encoding="UTF-8" standalone="no"?>
<!DOCTYPE svg PUBLIC "-//W3C//DTD SVG 1.1//EN"
 "http://www.w3.org/Graphics/SVG/1.1/DTD/svg11.dtd">
<!-- Generated by graphviz version 3.0.0 (20220226.1711)
 -->
<!-- Title: dependencies Pages: 1 -->
<svg width="912pt" height="247pt"
 viewBox="0.00 0.00 912.00 246.80" xmlns="http://www.w3.org/2000/svg" xmlns:xlink="http://www.w3.org/1999/xlink">
<g id="graph0" class="graph" transform="scale(1 1) rotate(0) translate(4 242.8)">
<title>dependencies</title>
<polygon fill="white" stroke="transparent" points="-4,4 -4,-242.8 908,-242.8 908,4 -4,4"/>
<text text-anchor="middle" x="452" y="-8.2" font-family="sans-serif" font-size="14.00">dependencies</text>
<g id="clust1" class="cluster">
<title>cluster_SafeLayoutModule</title>
<polygon fill="none" stroke="black" stroke-dasharray="1,5" points="8,-32.8 8,-230.8 896,-230.8 896,-32.8 8,-32.8"/>
</g>
<g id="clust4" class="cluster">
<title>cluster_SafeLayoutModule_imports</title>
<polygon fill="none" stroke="black" points="186,-40.8 186,-92.8 888,-92.8 888,-40.8 186,-40.8"/>
</g>
<g id="clust5" class="cluster">
<title>cluster_SafeLayoutModule_exports</title>
<polygon fill="none" stroke="black" points="378,-170.8 378,-222.8 544,-222.8 544,-170.8 378,-170.8"/>
</g>
<g id="clust2" class="cluster">
<title>cluster_SafeLayoutModule_declarations</title>
<polygon fill="none" stroke="black" points="16,-40.8 16,-92.8 178,-92.8 178,-40.8 16,-40.8"/>
</g>
<!-- SafeLayoutComponent -->
<g id="node1" class="node">
<title>SafeLayoutComponent</title>
<polygon fill="#ffffb3" stroke="black" points="169.86,-84.8 24.14,-84.8 24.14,-48.8 169.86,-48.8 169.86,-84.8"/>
<text text-anchor="middle" x="97" y="-62.6" font-family="Times,serif" font-size="14.00">SafeLayoutComponent</text>
</g>
<!-- SafeLayoutModule -->
<g id="node2" class="node">
<title>SafeLayoutModule</title>
<polygon fill="#8dd3c7" stroke="black" points="523.08,-149.8 520.08,-153.8 499.08,-153.8 496.08,-149.8 398.92,-149.8 398.92,-113.8 523.08,-113.8 523.08,-149.8"/>
<text text-anchor="middle" x="461" y="-127.6" font-family="Times,serif" font-size="14.00">SafeLayoutModule</text>
</g>
<!-- SafeLayoutComponent&#45;&gt;SafeLayoutModule -->
<g id="edge1" class="edge">
<title>SafeLayoutComponent&#45;&gt;SafeLayoutModule</title>
<path fill="none" stroke="black" d="M97,-85.08C97,-106.12 97,-137.8 97,-137.8 97,-137.8 388.84,-137.8 388.84,-137.8"/>
<polygon fill="black" stroke="black" points="388.84,-141.3 398.84,-137.8 388.84,-134.3 388.84,-141.3"/>
</g>
<!-- SafeLayoutComponent  -->
<g id="node7" class="node">
<title>SafeLayoutComponent </title>
<polygon fill="#fb8072" stroke="black" points="535.86,-214.8 386.14,-214.8 386.14,-178.8 535.86,-178.8 535.86,-214.8"/>
<text text-anchor="middle" x="461" y="-192.6" font-family="Times,serif" font-size="14.00">SafeLayoutComponent </text>
</g>
<!-- SafeLayoutModule&#45;&gt;SafeLayoutComponent  -->
<g id="edge6" class="edge">
<title>SafeLayoutModule&#45;&gt;SafeLayoutComponent </title>
<path fill="none" stroke="black" stroke-dasharray="5,2" d="M461,-149.91C461,-149.91 461,-168.79 461,-168.79"/>
<polygon fill="black" stroke="black" points="457.5,-168.79 461,-178.79 464.5,-168.79 457.5,-168.79"/>
</g>
<!-- SafeButtonModule -->
<g id="node3" class="node">
<title>SafeButtonModule</title>
<polygon fill="#8dd3c7" stroke="black" points="880.05,-84.8 877.05,-88.8 856.05,-88.8 853.05,-84.8 757.95,-84.8 757.95,-48.8 880.05,-48.8 880.05,-84.8"/>
<text text-anchor="middle" x="819" y="-62.6" font-family="Times,serif" font-size="14.00">SafeButtonModule</text>
</g>
<!-- SafeButtonModule&#45;&gt;SafeLayoutModule -->
<g id="edge2" class="edge">
<title>SafeButtonModule&#45;&gt;SafeLayoutModule</title>
<path fill="none" stroke="black" d="M819,-85.08C819,-106.12 819,-137.8 819,-137.8 819,-137.8 533.36,-137.8 533.36,-137.8"/>
<polygon fill="black" stroke="black" points="533.36,-134.3 523.36,-137.8 533.36,-141.3 533.36,-134.3"/>
</g>
<!-- SafeConfirmModalModule -->
<g id="node4" class="node">
<title>SafeConfirmModalModule</title>
<polygon fill="#8dd3c7" stroke="black" points="740.42,-84.8 737.42,-88.8 716.42,-88.8 713.42,-84.8 571.58,-84.8 571.58,-48.8 740.42,-48.8 740.42,-84.8"/>
<text text-anchor="middle" x="656" y="-62.6" font-family="Times,serif" font-size="14.00">SafeConfirmModalModule</text>
</g>
<!-- SafeConfirmModalModule&#45;&gt;SafeLayoutModule -->
<g id="edge3" class="edge">
<title>SafeConfirmModalModule&#45;&gt;SafeLayoutModule</title>
<path fill="none" stroke="black" d="M656,-84.82C656,-102.17 656,-125.8 656,-125.8 656,-125.8 533.24,-125.8 533.24,-125.8"/>
<polygon fill="black" stroke="black" points="533.24,-122.3 523.24,-125.8 533.24,-129.3 533.24,-122.3"/>
</g>
<!-- SafePreferencesModalModule -->
<g id="node5" class="node">
<title>SafePreferencesModalModule</title>
<polygon fill="#8dd3c7" stroke="black" points="554.27,-84.8 551.27,-88.8 530.27,-88.8 527.27,-84.8 367.73,-84.8 367.73,-48.8 554.27,-48.8 554.27,-84.8"/>
<text text-anchor="middle" x="461" y="-62.6" font-family="Times,serif" font-size="14.00">SafePreferencesModalModule</text>
</g>
<!-- SafePreferencesModalModule&#45;&gt;SafeLayoutModule -->
<g id="edge4" class="edge">
<title>SafePreferencesModalModule&#45;&gt;SafeLayoutModule</title>
<path fill="none" stroke="black" d="M461,-84.91C461,-84.91 461,-103.79 461,-103.79"/>
<polygon fill="black" stroke="black" points="457.5,-103.79 461,-113.79 464.5,-103.79 457.5,-103.79"/>
</g>
<!-- SafeSearchMenuModule -->
<g id="node6" class="node">
<title>SafeSearchMenuModule</title>
<polygon fill="#8dd3c7" stroke="black" points="349.68,-84.8 346.68,-88.8 325.68,-88.8 322.68,-84.8 194.32,-84.8 194.32,-48.8 349.68,-48.8 349.68,-84.8"/>
<text text-anchor="middle" x="272" y="-62.6" font-family="Times,serif" font-size="14.00">SafeSearchMenuModule</text>
</g>
<!-- SafeSearchMenuModule&#45;&gt;SafeLayoutModule -->
<g id="edge5" class="edge">
<title>SafeSearchMenuModule&#45;&gt;SafeLayoutModule</title>
<path fill="none" stroke="black" d="M272,-84.82C272,-102.17 272,-125.8 272,-125.8 272,-125.8 388.85,-125.8 388.85,-125.8"/>
<polygon fill="black" stroke="black" points="388.85,-129.3 398.85,-125.8 388.85,-122.3 388.85,-129.3"/>
</g>
</g>
</svg>
