<?xml version="1.0" encoding="UTF-8" standalone="no"?>
<!DOCTYPE svg PUBLIC "-//W3C//DTD SVG 1.1//EN"
 "http://www.w3.org/Graphics/SVG/1.1/DTD/svg11.dtd">
<!-- Generated by graphviz version 2.47.0 (20210316.0004)
 -->
<!-- Title: dependencies Pages: 1 -->
<svg width="504pt" height="284pt"
 viewBox="0.00 0.00 504.00 284.00" xmlns="http://www.w3.org/2000/svg" xmlns:xlink="http://www.w3.org/1999/xlink">
<g id="graph0" class="graph" transform="scale(1 1) rotate(0) translate(4 280)">
<title>dependencies</title>
<polygon fill="white" stroke="transparent" points="-4,4 -4,-280 500,-280 500,4 -4,4"/>
<text text-anchor="start" x="227.01" y="-42.4" font-family="sans-serif" font-weight="bold" font-size="14.00">Legend</text>
<polygon fill="#ffffb3" stroke="transparent" points="14,-10 14,-30 34,-30 34,-10 14,-10"/>
<text text-anchor="start" x="37.63" y="-15.4" font-family="sans-serif" font-size="14.00"> &#160;Declarations</text>
<polygon fill="#8dd3c7" stroke="transparent" points="127,-10 127,-30 147,-30 147,-10 127,-10"/>
<text text-anchor="start" x="150.73" y="-15.4" font-family="sans-serif" font-size="14.00"> &#160;Module</text>
<polygon fill="#80b1d3" stroke="transparent" points="213,-10 213,-30 233,-30 233,-10 213,-10"/>
<text text-anchor="start" x="236.78" y="-15.4" font-family="sans-serif" font-size="14.00"> &#160;Bootstrap</text>
<polygon fill="#fdb462" stroke="transparent" points="310,-10 310,-30 330,-30 330,-10 310,-10"/>
<text text-anchor="start" x="333.67" y="-15.4" font-family="sans-serif" font-size="14.00"> &#160;Providers</text>
<polygon fill="#fb8072" stroke="transparent" points="406,-10 406,-30 426,-30 426,-10 406,-10"/>
<text text-anchor="start" x="429.73" y="-15.4" font-family="sans-serif" font-size="14.00"> &#160;Exports</text>
<g id="clust1" class="cluster">
<title>cluster_SafeFormBuilderModule</title>
<polygon fill="none" stroke="black" stroke-dasharray="1,5" points="55,-70 55,-268 441,-268 441,-70 55,-70"/>
</g>
<g id="clust5" class="cluster">
<title>cluster_SafeFormBuilderModule_exports</title>
<polygon fill="none" stroke="black" points="149,-208 149,-260 347,-260 347,-208 149,-208"/>
</g>
<g id="clust2" class="cluster">
<title>cluster_SafeFormBuilderModule_declarations</title>
<polygon fill="none" stroke="black" points="239,-78 239,-130 433,-130 433,-78 239,-78"/>
</g>
<g id="clust4" class="cluster">
<title>cluster_SafeFormBuilderModule_imports</title>
<polygon fill="none" stroke="black" points="63,-78 63,-130 231,-130 231,-78 63,-78"/>
</g>
<!-- SafeFormBuilderComponent -->
<g id="node1" class="node">
<title>SafeFormBuilderComponent</title>
<polygon fill="#ffffb3" stroke="black" points="425.03,-122 246.97,-122 246.97,-86 425.03,-86 425.03,-122"/>
<text text-anchor="middle" x="336" y="-99.8" font-family="Times,serif" font-size="14.00">SafeFormBuilderComponent</text>
</g>
<!-- SafeFormBuilderModule -->
<g id="node2" class="node">
<title>SafeFormBuilderModule</title>
<polygon fill="#8dd3c7" stroke="black" points="326.25,-187 323.25,-191 302.25,-191 299.25,-187 169.75,-187 169.75,-151 326.25,-151 326.25,-187"/>
<text text-anchor="middle" x="248" y="-164.8" font-family="Times,serif" font-size="14.00">SafeFormBuilderModule</text>
</g>
<!-- SafeFormBuilderComponent&#45;&gt;SafeFormBuilderModule -->
<g id="edge1" class="edge">
<title>SafeFormBuilderComponent&#45;&gt;SafeFormBuilderModule</title>
<path fill="none" stroke="black" d="M286.55,-122.11C286.55,-122.11 286.55,-140.99 286.55,-140.99"/>
<polygon fill="black" stroke="black" points="283.05,-140.99 286.55,-150.99 290.05,-140.99 283.05,-140.99"/>
</g>
<!-- SafeFormBuilderComponent  -->
<g id="node4" class="node">
<title>SafeFormBuilderComponent </title>
<polygon fill="#fb8072" stroke="black" points="339.03,-252 156.97,-252 156.97,-216 339.03,-216 339.03,-252"/>
<text text-anchor="middle" x="248" y="-229.8" font-family="Times,serif" font-size="14.00">SafeFormBuilderComponent </text>
</g>
<!-- SafeFormBuilderModule&#45;&gt;SafeFormBuilderComponent  -->
<g id="edge3" class="edge">
<title>SafeFormBuilderModule&#45;&gt;SafeFormBuilderComponent </title>
<path fill="none" stroke="black" stroke-dasharray="5,2" d="M248,-187.11C248,-187.11 248,-205.99 248,-205.99"/>
<polygon fill="black" stroke="black" points="244.5,-205.99 248,-215.99 251.5,-205.99 244.5,-205.99"/>
</g>
<!-- SafeFormModalModule -->
<g id="node3" class="node">
<title>SafeFormModalModule</title>
<polygon fill="#8dd3c7" stroke="black" points="222.81,-122 219.81,-126 198.81,-126 195.81,-122 71.19,-122 71.19,-86 222.81,-86 222.81,-122"/>
<text text-anchor="middle" x="147" y="-99.8" font-family="Times,serif" font-size="14.00">SafeFormModalModule</text>
</g>
<!-- SafeFormModalModule&#45;&gt;SafeFormBuilderModule -->
<g id="edge2" class="edge">
<title>SafeFormModalModule&#45;&gt;SafeFormBuilderModule</title>
<path fill="none" stroke="black" d="M196.14,-122.11C196.14,-122.11 196.14,-140.99 196.14,-140.99"/>
<polygon fill="black" stroke="black" points="192.64,-140.99 196.14,-150.99 199.64,-140.99 192.64,-140.99"/>
</g>
</g>
</svg>
