<?xml version="1.0" encoding="UTF-8" standalone="no"?>
<!DOCTYPE svg PUBLIC "-//W3C//DTD SVG 1.1//EN"
 "http://www.w3.org/Graphics/SVG/1.1/DTD/svg11.dtd">
<!-- Generated by graphviz version 3.0.0 (20220226.1711)
 -->
<!-- Title: dependencies Pages: 1 -->
<svg width="460pt" height="174pt"
 viewBox="0.00 0.00 460.00 173.80" xmlns="http://www.w3.org/2000/svg" xmlns:xlink="http://www.w3.org/1999/xlink">
<g id="graph0" class="graph" transform="scale(1 1) rotate(0) translate(4 169.8)">
<title>dependencies</title>
<polygon fill="white" stroke="transparent" points="-4,4 -4,-169.8 456,-169.8 456,4 -4,4"/>
<text text-anchor="middle" x="226" y="-8.2" font-family="sans-serif" font-size="14.00">dependencies</text>
<g id="clust1" class="cluster">
<title>cluster_AggregationsTabModule</title>
<polygon fill="none" stroke="black" stroke-dasharray="1,5" points="8,-32.8 8,-157.8 444,-157.8 444,-32.8 8,-32.8"/>
</g>
<g id="clust4" class="cluster">
<title>cluster_AggregationsTabModule_imports</title>
<polygon fill="none" stroke="black" points="218,-40.8 218,-92.8 436,-92.8 436,-40.8 218,-40.8"/>
</g>
<g id="clust2" class="cluster">
<title>cluster_AggregationsTabModule_declarations</title>
<polygon fill="none" stroke="black" points="16,-40.8 16,-92.8 210,-92.8 210,-40.8 16,-40.8"/>
</g>
<!-- AggregationsTabComponent -->
<g id="node1" class="node">
<title>AggregationsTabComponent</title>
<polygon fill="#ffffb3" stroke="black" points="202.03,-84.8 23.97,-84.8 23.97,-48.8 202.03,-48.8 202.03,-84.8"/>
<text text-anchor="middle" x="113" y="-62.6" font-family="Times,serif" font-size="14.00">AggregationsTabComponent</text>
</g>
<!-- AggregationsTabModule -->
<g id="node2" class="node">
<title>AggregationsTabModule</title>
<polygon fill="#8dd3c7" stroke="black" points="298.25,-149.8 295.25,-153.8 274.25,-153.8 271.25,-149.8 141.75,-149.8 141.75,-113.8 298.25,-113.8 298.25,-149.8"/>
<text text-anchor="middle" x="220" y="-127.6" font-family="Times,serif" font-size="14.00">AggregationsTabModule</text>
</g>
<!-- AggregationsTabComponent&#45;&gt;AggregationsTabModule -->
<g id="edge1" class="edge">
<title>AggregationsTabComponent&#45;&gt;AggregationsTabModule</title>
<path fill="none" stroke="black" d="M171.94,-84.91C171.94,-84.91 171.94,-103.79 171.94,-103.79"/>
<polygon fill="black" stroke="black" points="168.44,-103.79 171.94,-113.79 175.44,-103.79 168.44,-103.79"/>
</g>
<!-- AggregationsTabRoutingModule -->
<g id="node3" class="node">
<title>AggregationsTabRoutingModule</title>
<polygon fill="#8dd3c7" stroke="black" points="427.86,-84.8 424.86,-88.8 403.86,-88.8 400.86,-84.8 226.14,-84.8 226.14,-48.8 427.86,-48.8 427.86,-84.8"/>
<text text-anchor="middle" x="327" y="-62.6" font-family="Times,serif" font-size="14.00">AggregationsTabRoutingModule</text>
</g>
<!-- AggregationsTabRoutingModule&#45;&gt;AggregationsTabModule -->
<g id="edge2" class="edge">
<title>AggregationsTabRoutingModule&#45;&gt;AggregationsTabModule</title>
<path fill="none" stroke="black" d="M262.22,-84.91C262.22,-84.91 262.22,-103.79 262.22,-103.79"/>
<polygon fill="black" stroke="black" points="258.72,-103.79 262.22,-113.79 265.72,-103.79 258.72,-103.79"/>
</g>
</g>
</svg>
