<?xml version="1.0" encoding="UTF-8" standalone="no"?>
<!DOCTYPE svg PUBLIC "-//W3C//DTD SVG 1.1//EN"
 "http://www.w3.org/Graphics/SVG/1.1/DTD/svg11.dtd">
<!-- Generated by graphviz version 3.0.0 (20220226.1711)
 -->
<!-- Title: dependencies Pages: 1 -->
<svg width="738pt" height="174pt"
 viewBox="0.00 0.00 738.00 173.80" xmlns="http://www.w3.org/2000/svg" xmlns:xlink="http://www.w3.org/1999/xlink">
<g id="graph0" class="graph" transform="scale(1 1) rotate(0) translate(4 169.8)">
<title>dependencies</title>
<polygon fill="white" stroke="transparent" points="-4,4 -4,-169.8 734,-169.8 734,4 -4,4"/>
<text text-anchor="middle" x="365" y="-8.2" font-family="sans-serif" font-size="14.00">dependencies</text>
<g id="clust1" class="cluster">
<title>cluster_SubscriptionsModule</title>
<polygon fill="none" stroke="black" stroke-dasharray="1,5" points="8,-32.8 8,-157.8 722,-157.8 722,-32.8 8,-32.8"/>
</g>
<g id="clust2" class="cluster">
<title>cluster_SubscriptionsModule_declarations</title>
<polygon fill="none" stroke="black" points="334,-40.8 334,-92.8 714,-92.8 714,-40.8 334,-40.8"/>
</g>
<g id="clust5" class="cluster">
<title>cluster_SubscriptionsModule_imports</title>
<polygon fill="none" stroke="black" points="16,-40.8 16,-92.8 326,-92.8 326,-40.8 16,-40.8"/>
</g>
<!-- SubscriptionModalComponent -->
<g id="node1" class="node">
<title>SubscriptionModalComponent</title>
<polygon fill="#ffffb3" stroke="black" points="706.16,-84.8 517.84,-84.8 517.84,-48.8 706.16,-48.8 706.16,-84.8"/>
<text text-anchor="middle" x="612" y="-62.6" font-family="Times,serif" font-size="14.00">SubscriptionModalComponent</text>
</g>
<!-- SubscriptionsModule -->
<g id="node3" class="node">
<title>SubscriptionsModule</title>
<polygon fill="#8dd3c7" stroke="black" points="412.78,-149.8 409.78,-153.8 388.78,-153.8 385.78,-149.8 277.22,-149.8 277.22,-113.8 412.78,-113.8 412.78,-149.8"/>
<text text-anchor="middle" x="345" y="-127.6" font-family="Times,serif" font-size="14.00">SubscriptionsModule</text>
</g>
<!-- SubscriptionModalComponent&#45;&gt;SubscriptionsModule -->
<g id="edge1" class="edge">
<title>SubscriptionModalComponent&#45;&gt;SubscriptionsModule</title>
<path fill="none" stroke="black" d="M612,-84.91C612,-104.14 612,-131.8 612,-131.8 612,-131.8 423.07,-131.8 423.07,-131.8"/>
<polygon fill="black" stroke="black" points="423.07,-128.3 413.07,-131.8 423.07,-135.3 423.07,-128.3"/>
</g>
<!-- SubscriptionsComponent -->
<g id="node2" class="node">
<title>SubscriptionsComponent</title>
<polygon fill="#ffffb3" stroke="black" points="499.56,-84.8 342.44,-84.8 342.44,-48.8 499.56,-48.8 499.56,-84.8"/>
<text text-anchor="middle" x="421" y="-62.6" font-family="Times,serif" font-size="14.00">SubscriptionsComponent</text>
</g>
<!-- SubscriptionsComponent&#45;&gt;SubscriptionsModule -->
<g id="edge2" class="edge">
<title>SubscriptionsComponent&#45;&gt;SubscriptionsModule</title>
<path fill="none" stroke="black" d="M377.56,-84.91C377.56,-84.91 377.56,-103.79 377.56,-103.79"/>
<polygon fill="black" stroke="black" points="374.06,-103.79 377.56,-113.79 381.06,-103.79 374.06,-103.79"/>
</g>
<!-- FormsModule -->
<g id="node4" class="node">
<title>FormsModule</title>
<polygon fill="#8dd3c7" stroke="black" points="317.84,-84.8 314.84,-88.8 293.84,-88.8 290.84,-84.8 222.16,-84.8 222.16,-48.8 317.84,-48.8 317.84,-84.8"/>
<text text-anchor="middle" x="270" y="-62.6" font-family="Times,serif" font-size="14.00">FormsModule</text>
</g>
<!-- FormsModule&#45;&gt;SubscriptionsModule -->
<g id="edge3" class="edge">
<title>FormsModule&#45;&gt;SubscriptionsModule</title>
<path fill="none" stroke="black" d="M297.39,-84.91C297.39,-84.91 297.39,-103.79 297.39,-103.79"/>
<polygon fill="black" stroke="black" points="293.89,-103.79 297.39,-113.79 300.89,-103.79 293.89,-103.79"/>
</g>
<!-- SubscriptionsRoutingModule -->
<g id="node5" class="node">
<title>SubscriptionsRoutingModule</title>
<polygon fill="#8dd3c7" stroke="black" points="204.4,-84.8 201.4,-88.8 180.4,-88.8 177.4,-84.8 23.6,-84.8 23.6,-48.8 204.4,-48.8 204.4,-84.8"/>
<text text-anchor="middle" x="114" y="-62.6" font-family="Times,serif" font-size="14.00">SubscriptionsRoutingModule</text>
</g>
<!-- SubscriptionsRoutingModule&#45;&gt;SubscriptionsModule -->
<g id="edge4" class="edge">
<title>SubscriptionsRoutingModule&#45;&gt;SubscriptionsModule</title>
<path fill="none" stroke="black" d="M114,-84.91C114,-104.14 114,-131.8 114,-131.8 114,-131.8 266.94,-131.8 266.94,-131.8"/>
<polygon fill="black" stroke="black" points="266.94,-135.3 276.94,-131.8 266.94,-128.3 266.94,-135.3"/>
</g>
</g>
</svg>
