<?xml version="1.0" encoding="UTF-8" standalone="no"?>
<!DOCTYPE svg PUBLIC "-//W3C//DTD SVG 1.1//EN"
 "http://www.w3.org/Graphics/SVG/1.1/DTD/svg11.dtd">
<!-- Generated by graphviz version 3.0.0 (20220226.1711)
 -->
<!-- Title: dependencies Pages: 1 -->
<svg width="620pt" height="247pt"
 viewBox="0.00 0.00 620.00 246.80" xmlns="http://www.w3.org/2000/svg" xmlns:xlink="http://www.w3.org/1999/xlink">
<g id="graph0" class="graph" transform="scale(1 1) rotate(0) translate(4 242.8)">
<title>dependencies</title>
<polygon fill="white" stroke="transparent" points="-4,4 -4,-242.8 616,-242.8 616,4 -4,4"/>
<text text-anchor="middle" x="306" y="-8.2" font-family="sans-serif" font-size="14.00">dependencies</text>
<g id="clust1" class="cluster">
<title>cluster_SummaryCardItemModule</title>
<polygon fill="none" stroke="black" stroke-dasharray="1,5" points="8,-32.8 8,-230.8 604,-230.8 604,-32.8 8,-32.8"/>
</g>
<g id="clust2" class="cluster">
<title>cluster_SummaryCardItemModule_declarations</title>
<polygon fill="none" stroke="black" points="392,-40.8 392,-92.8 596,-92.8 596,-40.8 392,-40.8"/>
</g>
<g id="clust4" class="cluster">
<title>cluster_SummaryCardItemModule_imports</title>
<polygon fill="none" stroke="black" points="16,-40.8 16,-92.8 384,-92.8 384,-40.8 16,-40.8"/>
</g>
<g id="clust5" class="cluster">
<title>cluster_SummaryCardItemModule_exports</title>
<polygon fill="none" stroke="black" points="211,-170.8 211,-222.8 419,-222.8 419,-170.8 211,-170.8"/>
</g>
<!-- SummaryCardItemComponent -->
<g id="node1" class="node">
<title>SummaryCardItemComponent</title>
<polygon fill="#ffffb3" stroke="black" points="588.14,-84.8 399.86,-84.8 399.86,-48.8 588.14,-48.8 588.14,-84.8"/>
<text text-anchor="middle" x="494" y="-62.6" font-family="Times,serif" font-size="14.00">SummaryCardItemComponent</text>
</g>
<!-- SummaryCardItemModule -->
<g id="node2" class="node">
<title>SummaryCardItemModule</title>
<polygon fill="#8dd3c7" stroke="black" points="398.36,-149.8 395.36,-153.8 374.36,-153.8 371.36,-149.8 231.64,-149.8 231.64,-113.8 398.36,-113.8 398.36,-149.8"/>
<text text-anchor="middle" x="315" y="-127.6" font-family="Times,serif" font-size="14.00">SummaryCardItemModule</text>
</g>
<!-- SummaryCardItemComponent&#45;&gt;SummaryCardItemModule -->
<g id="edge1" class="edge">
<title>SummaryCardItemComponent&#45;&gt;SummaryCardItemModule</title>
<path fill="none" stroke="black" d="M405.38,-84.91C405.38,-104.14 405.38,-131.8 405.38,-131.8 405.38,-131.8 404.7,-131.8 404.7,-131.8"/>
<polygon fill="black" stroke="black" points="408.58,-128.3 398.58,-131.8 408.58,-135.3 408.58,-128.3"/>
</g>
<!-- SummaryCardItemComponent  -->
<g id="node5" class="node">
<title>SummaryCardItemComponent </title>
<polygon fill="#fb8072" stroke="black" points="411.14,-214.8 218.86,-214.8 218.86,-178.8 411.14,-178.8 411.14,-214.8"/>
<text text-anchor="middle" x="315" y="-192.6" font-family="Times,serif" font-size="14.00">SummaryCardItemComponent </text>
</g>
<!-- SummaryCardItemModule&#45;&gt;SummaryCardItemComponent  -->
<g id="edge4" class="edge">
<title>SummaryCardItemModule&#45;&gt;SummaryCardItemComponent </title>
<path fill="none" stroke="black" stroke-dasharray="5,2" d="M315,-149.91C315,-149.91 315,-168.79 315,-168.79"/>
<polygon fill="black" stroke="black" points="311.5,-168.79 315,-178.79 318.5,-168.79 311.5,-168.79"/>
</g>
<!-- SafeButtonModule -->
<g id="node3" class="node">
<title>SafeButtonModule</title>
<polygon fill="#8dd3c7" stroke="black" points="376.05,-84.8 373.05,-88.8 352.05,-88.8 349.05,-84.8 253.95,-84.8 253.95,-48.8 376.05,-48.8 376.05,-84.8"/>
<text text-anchor="middle" x="315" y="-62.6" font-family="Times,serif" font-size="14.00">SafeButtonModule</text>
</g>
<!-- SafeButtonModule&#45;&gt;SummaryCardItemModule -->
<g id="edge2" class="edge">
<title>SafeButtonModule&#45;&gt;SummaryCardItemModule</title>
<path fill="none" stroke="black" d="M315,-84.91C315,-84.91 315,-103.79 315,-103.79"/>
<polygon fill="black" stroke="black" points="311.5,-103.79 315,-113.79 318.5,-103.79 311.5,-103.79"/>
</g>
<!-- SummaryCardItemContentModule -->
<g id="node4" class="node">
<title>SummaryCardItemContentModule</title>
<polygon fill="#8dd3c7" stroke="black" points="235.69,-84.8 232.69,-88.8 211.69,-88.8 208.69,-84.8 24.31,-84.8 24.31,-48.8 235.69,-48.8 235.69,-84.8"/>
<text text-anchor="middle" x="130" y="-62.6" font-family="Times,serif" font-size="14.00">SummaryCardItemContentModule</text>
</g>
<!-- SummaryCardItemContentModule&#45;&gt;SummaryCardItemModule -->
<g id="edge3" class="edge">
<title>SummaryCardItemContentModule&#45;&gt;SummaryCardItemModule</title>
<path fill="none" stroke="black" d="M225.25,-84.91C225.25,-104.14 225.25,-131.8 225.25,-131.8 225.25,-131.8 225.87,-131.8 225.87,-131.8"/>
<polygon fill="black" stroke="black" points="221.42,-135.3 231.42,-131.8 221.42,-128.3 221.42,-135.3"/>
</g>
</g>
</svg>
