<?xml version="1.0" encoding="UTF-8" standalone="no"?>
<!DOCTYPE svg PUBLIC "-//W3C//DTD SVG 1.1//EN"
 "http://www.w3.org/Graphics/SVG/1.1/DTD/svg11.dtd">
<!-- Generated by graphviz version 3.0.0 (20220226.1711)
 -->
<!-- Title: dependencies Pages: 1 -->
<svg width="814pt" height="247pt"
 viewBox="0.00 0.00 814.00 246.80" xmlns="http://www.w3.org/2000/svg" xmlns:xlink="http://www.w3.org/1999/xlink">
<g id="graph0" class="graph" transform="scale(1 1) rotate(0) translate(4 242.8)">
<title>dependencies</title>
<polygon fill="white" stroke="transparent" points="-4,4 -4,-242.8 810,-242.8 810,4 -4,4"/>
<text text-anchor="middle" x="403" y="-8.2" font-family="sans-serif" font-size="14.00">dependencies</text>
<g id="clust1" class="cluster">
<title>cluster_ResourcesModule</title>
<polygon fill="none" stroke="black" stroke-dasharray="1,5" points="8,-32.8 8,-230.8 798,-230.8 798,-32.8 8,-32.8"/>
</g>
<g id="clust2" class="cluster">
<title>cluster_ResourcesModule_declarations</title>
<polygon fill="none" stroke="black" points="506,-40.8 506,-92.8 790,-92.8 790,-40.8 506,-40.8"/>
</g>
<g id="clust5" class="cluster">
<title>cluster_ResourcesModule_imports</title>
<polygon fill="none" stroke="black" points="16,-40.8 16,-92.8 498,-92.8 498,-40.8 16,-40.8"/>
</g>
<g id="clust6" class="cluster">
<title>cluster_ResourcesModule_exports</title>
<polygon fill="none" stroke="black" points="325,-170.8 325,-222.8 483,-222.8 483,-170.8 325,-170.8"/>
</g>
<!-- FilterComponent -->
<g id="node1" class="node">
<title>FilterComponent</title>
<polygon fill="#ffffb3" stroke="black" points="781.66,-84.8 670.34,-84.8 670.34,-48.8 781.66,-48.8 781.66,-84.8"/>
<text text-anchor="middle" x="726" y="-62.6" font-family="Times,serif" font-size="14.00">FilterComponent</text>
</g>
<!-- ResourcesModule -->
<g id="node3" class="node">
<title>ResourcesModule</title>
<polygon fill="#8dd3c7" stroke="black" points="462.59,-149.8 459.59,-153.8 438.59,-153.8 435.59,-149.8 345.41,-149.8 345.41,-113.8 462.59,-113.8 462.59,-149.8"/>
<text text-anchor="middle" x="404" y="-127.6" font-family="Times,serif" font-size="14.00">ResourcesModule</text>
</g>
<!-- FilterComponent&#45;&gt;ResourcesModule -->
<g id="edge1" class="edge">
<title>FilterComponent&#45;&gt;ResourcesModule</title>
<path fill="none" stroke="black" d="M726,-85.08C726,-106.12 726,-137.8 726,-137.8 726,-137.8 472.69,-137.8 472.69,-137.8"/>
<polygon fill="black" stroke="black" points="472.69,-134.3 462.69,-137.8 472.69,-141.3 472.69,-134.3"/>
</g>
<!-- ResourcesComponent -->
<g id="node2" class="node">
<title>ResourcesComponent</title>
<polygon fill="#ffffb3" stroke="black" points="652.37,-84.8 513.63,-84.8 513.63,-48.8 652.37,-48.8 652.37,-84.8"/>
<text text-anchor="middle" x="583" y="-62.6" font-family="Times,serif" font-size="14.00">ResourcesComponent</text>
</g>
<!-- ResourcesComponent&#45;&gt;ResourcesModule -->
<g id="edge2" class="edge">
<title>ResourcesComponent&#45;&gt;ResourcesModule</title>
<path fill="none" stroke="black" d="M583,-84.82C583,-102.17 583,-125.8 583,-125.8 583,-125.8 472.61,-125.8 472.61,-125.8"/>
<polygon fill="black" stroke="black" points="472.61,-122.3 462.61,-125.8 472.61,-129.3 472.61,-122.3"/>
</g>
<!-- ResourcesComponent  -->
<g id="node7" class="node">
<title>ResourcesComponent </title>
<polygon fill="#fb8072" stroke="black" points="475.37,-214.8 332.63,-214.8 332.63,-178.8 475.37,-178.8 475.37,-214.8"/>
<text text-anchor="middle" x="404" y="-192.6" font-family="Times,serif" font-size="14.00">ResourcesComponent </text>
</g>
<!-- ResourcesModule&#45;&gt;ResourcesComponent  -->
<g id="edge6" class="edge">
<title>ResourcesModule&#45;&gt;ResourcesComponent </title>
<path fill="none" stroke="black" stroke-dasharray="5,2" d="M404,-149.91C404,-149.91 404,-168.79 404,-168.79"/>
<polygon fill="black" stroke="black" points="400.5,-168.79 404,-178.79 407.5,-168.79 400.5,-168.79"/>
</g>
<!-- AddResourceModalModule -->
<g id="node4" class="node">
<title>AddResourceModalModule</title>
<polygon fill="#8dd3c7" stroke="black" points="490.3,-84.8 487.3,-88.8 466.3,-88.8 463.3,-84.8 317.7,-84.8 317.7,-48.8 490.3,-48.8 490.3,-84.8"/>
<text text-anchor="middle" x="404" y="-62.6" font-family="Times,serif" font-size="14.00">AddResourceModalModule</text>
</g>
<!-- AddResourceModalModule&#45;&gt;ResourcesModule -->
<g id="edge3" class="edge">
<title>AddResourceModalModule&#45;&gt;ResourcesModule</title>
<path fill="none" stroke="black" d="M404,-84.91C404,-84.91 404,-103.79 404,-103.79"/>
<polygon fill="black" stroke="black" points="400.5,-103.79 404,-113.79 407.5,-103.79 400.5,-103.79"/>
</g>
<!-- FormsModule -->
<g id="node5" class="node">
<title>FormsModule</title>
<polygon fill="#8dd3c7" stroke="black" points="299.84,-84.8 296.84,-88.8 275.84,-88.8 272.84,-84.8 204.16,-84.8 204.16,-48.8 299.84,-48.8 299.84,-84.8"/>
<text text-anchor="middle" x="252" y="-62.6" font-family="Times,serif" font-size="14.00">FormsModule</text>
</g>
<!-- FormsModule&#45;&gt;ResourcesModule -->
<g id="edge4" class="edge">
<title>FormsModule&#45;&gt;ResourcesModule</title>
<path fill="none" stroke="black" d="M252,-84.82C252,-102.17 252,-125.8 252,-125.8 252,-125.8 335.23,-125.8 335.23,-125.8"/>
<polygon fill="black" stroke="black" points="335.23,-129.3 345.23,-125.8 335.23,-122.3 335.23,-129.3"/>
</g>
<!-- ResourcesRoutingModule -->
<g id="node6" class="node">
<title>ResourcesRoutingModule</title>
<polygon fill="#8dd3c7" stroke="black" points="186.21,-84.8 183.21,-88.8 162.21,-88.8 159.21,-84.8 23.79,-84.8 23.79,-48.8 186.21,-48.8 186.21,-84.8"/>
<text text-anchor="middle" x="105" y="-62.6" font-family="Times,serif" font-size="14.00">ResourcesRoutingModule</text>
</g>
<!-- ResourcesRoutingModule&#45;&gt;ResourcesModule -->
<g id="edge5" class="edge">
<title>ResourcesRoutingModule&#45;&gt;ResourcesModule</title>
<path fill="none" stroke="black" d="M105,-85.08C105,-106.12 105,-137.8 105,-137.8 105,-137.8 335.28,-137.8 335.28,-137.8"/>
<polygon fill="black" stroke="black" points="335.28,-141.3 345.28,-137.8 335.28,-134.3 335.28,-141.3"/>
</g>
</g>
</svg>
