<?xml version="1.0" encoding="UTF-8" standalone="no"?>
<!DOCTYPE svg PUBLIC "-//W3C//DTD SVG 1.1//EN"
 "http://www.w3.org/Graphics/SVG/1.1/DTD/svg11.dtd">
<!-- Generated by graphviz version 3.0.0 (20220226.1711)
 -->
<!-- Title: dependencies Pages: 1 -->
<svg width="713pt" height="247pt"
 viewBox="0.00 0.00 713.00 246.80" xmlns="http://www.w3.org/2000/svg" xmlns:xlink="http://www.w3.org/1999/xlink">
<g id="graph0" class="graph" transform="scale(1 1) rotate(0) translate(4 242.8)">
<title>dependencies</title>
<polygon fill="white" stroke="transparent" points="-4,4 -4,-242.8 709,-242.8 709,4 -4,4"/>
<text text-anchor="middle" x="352.5" y="-8.2" font-family="sans-serif" font-size="14.00">dependencies</text>
<g id="clust1" class="cluster">
<title>cluster_AddLayoutModalModule</title>
<polygon fill="none" stroke="black" stroke-dasharray="1,5" points="8,-32.8 8,-230.8 697,-230.8 697,-32.8 8,-32.8"/>
</g>
<g id="clust5" class="cluster">
<title>cluster_AddLayoutModalModule_exports</title>
<polygon fill="none" stroke="black" points="271,-170.8 271,-222.8 473,-222.8 473,-170.8 271,-170.8"/>
</g>
<g id="clust4" class="cluster">
<title>cluster_AddLayoutModalModule_imports</title>
<polygon fill="none" stroke="black" points="222,-40.8 222,-92.8 689,-92.8 689,-40.8 222,-40.8"/>
</g>
<g id="clust2" class="cluster">
<title>cluster_AddLayoutModalModule_declarations</title>
<polygon fill="none" stroke="black" points="16,-40.8 16,-92.8 214,-92.8 214,-40.8 16,-40.8"/>
</g>
<!-- AddLayoutModalComponent -->
<g id="node1" class="node">
<title>AddLayoutModalComponent</title>
<polygon fill="#ffffb3" stroke="black" points="205.65,-84.8 24.35,-84.8 24.35,-48.8 205.65,-48.8 205.65,-84.8"/>
<text text-anchor="middle" x="115" y="-62.6" font-family="Times,serif" font-size="14.00">AddLayoutModalComponent</text>
</g>
<!-- AddLayoutModalModule -->
<g id="node2" class="node">
<title>AddLayoutModalModule</title>
<polygon fill="#8dd3c7" stroke="black" points="451.87,-149.8 448.87,-153.8 427.87,-153.8 424.87,-149.8 292.13,-149.8 292.13,-113.8 451.87,-113.8 451.87,-149.8"/>
<text text-anchor="middle" x="372" y="-127.6" font-family="Times,serif" font-size="14.00">AddLayoutModalModule</text>
</g>
<!-- AddLayoutModalComponent&#45;&gt;AddLayoutModalModule -->
<g id="edge1" class="edge">
<title>AddLayoutModalComponent&#45;&gt;AddLayoutModalModule</title>
<path fill="none" stroke="black" d="M115,-84.91C115,-104.14 115,-131.8 115,-131.8 115,-131.8 282.09,-131.8 282.09,-131.8"/>
<polygon fill="black" stroke="black" points="282.09,-135.3 292.09,-131.8 282.09,-128.3 282.09,-135.3"/>
</g>
<!-- AddLayoutModalComponent  -->
<g id="node6" class="node">
<title>AddLayoutModalComponent </title>
<polygon fill="#fb8072" stroke="black" points="464.65,-214.8 279.35,-214.8 279.35,-178.8 464.65,-178.8 464.65,-214.8"/>
<text text-anchor="middle" x="372" y="-192.6" font-family="Times,serif" font-size="14.00">AddLayoutModalComponent </text>
</g>
<!-- AddLayoutModalModule&#45;&gt;AddLayoutModalComponent  -->
<g id="edge5" class="edge">
<title>AddLayoutModalModule&#45;&gt;AddLayoutModalComponent </title>
<path fill="none" stroke="black" stroke-dasharray="5,2" d="M372,-149.91C372,-149.91 372,-168.79 372,-168.79"/>
<polygon fill="black" stroke="black" points="368.5,-168.79 372,-178.79 375.5,-168.79 368.5,-168.79"/>
</g>
<!-- SafeButtonModule -->
<g id="node3" class="node">
<title>SafeButtonModule</title>
<polygon fill="#8dd3c7" stroke="black" points="681.05,-84.8 678.05,-88.8 657.05,-88.8 654.05,-84.8 558.95,-84.8 558.95,-48.8 681.05,-48.8 681.05,-84.8"/>
<text text-anchor="middle" x="620" y="-62.6" font-family="Times,serif" font-size="14.00">SafeButtonModule</text>
</g>
<!-- SafeButtonModule&#45;&gt;AddLayoutModalModule -->
<g id="edge2" class="edge">
<title>SafeButtonModule&#45;&gt;AddLayoutModalModule</title>
<path fill="none" stroke="black" d="M620,-84.91C620,-104.14 620,-131.8 620,-131.8 620,-131.8 462.18,-131.8 462.18,-131.8"/>
<polygon fill="black" stroke="black" points="462.18,-128.3 452.18,-131.8 462.18,-135.3 462.18,-128.3"/>
</g>
<!-- SafeGraphQLSelectModule -->
<g id="node4" class="node">
<title>SafeGraphQLSelectModule</title>
<polygon fill="#8dd3c7" stroke="black" points="541.28,-84.8 538.28,-88.8 517.28,-88.8 514.28,-84.8 368.72,-84.8 368.72,-48.8 541.28,-48.8 541.28,-84.8"/>
<text text-anchor="middle" x="455" y="-62.6" font-family="Times,serif" font-size="14.00">SafeGraphQLSelectModule</text>
</g>
<!-- SafeGraphQLSelectModule&#45;&gt;AddLayoutModalModule -->
<g id="edge3" class="edge">
<title>SafeGraphQLSelectModule&#45;&gt;AddLayoutModalModule</title>
<path fill="none" stroke="black" d="M410.4,-84.91C410.4,-84.91 410.4,-103.79 410.4,-103.79"/>
<polygon fill="black" stroke="black" points="406.9,-103.79 410.4,-113.79 413.9,-103.79 406.9,-103.79"/>
</g>
<!-- SafeModalModule -->
<g id="node5" class="node">
<title>SafeModalModule</title>
<polygon fill="#8dd3c7" stroke="black" points="350.48,-84.8 347.48,-88.8 326.48,-88.8 323.48,-84.8 229.52,-84.8 229.52,-48.8 350.48,-48.8 350.48,-84.8"/>
<text text-anchor="middle" x="290" y="-62.6" font-family="Times,serif" font-size="14.00">SafeModalModule</text>
</g>
<!-- SafeModalModule&#45;&gt;AddLayoutModalModule -->
<g id="edge4" class="edge">
<title>SafeModalModule&#45;&gt;AddLayoutModalModule</title>
<path fill="none" stroke="black" d="M321.28,-84.91C321.28,-84.91 321.28,-103.79 321.28,-103.79"/>
<polygon fill="black" stroke="black" points="317.78,-103.79 321.28,-113.79 324.78,-103.79 317.78,-103.79"/>
</g>
</g>
</svg>
