<?xml version="1.0" encoding="UTF-8" standalone="no"?>
<!DOCTYPE svg PUBLIC "-//W3C//DTD SVG 1.1//EN"
 "http://www.w3.org/Graphics/SVG/1.1/DTD/svg11.dtd">
<!-- Generated by graphviz version 3.0.0 (20220226.1711)
 -->
<!-- Title: dependencies Pages: 1 -->
<svg width="1250pt" height="247pt"
 viewBox="0.00 0.00 1250.00 246.80" xmlns="http://www.w3.org/2000/svg" xmlns:xlink="http://www.w3.org/1999/xlink">
<g id="graph0" class="graph" transform="scale(1 1) rotate(0) translate(4 242.8)">
<title>dependencies</title>
<polygon fill="white" stroke="transparent" points="-4,4 -4,-242.8 1246,-242.8 1246,4 -4,4"/>
<text text-anchor="middle" x="621" y="-8.2" font-family="sans-serif" font-size="14.00">dependencies</text>
<g id="clust1" class="cluster">
<title>cluster_SafeRecordModalModule</title>
<polygon fill="none" stroke="black" stroke-dasharray="1,5" points="8,-32.8 8,-230.8 1234,-230.8 1234,-32.8 8,-32.8"/>
</g>
<g id="clust2" class="cluster">
<title>cluster_SafeRecordModalModule_declarations</title>
<polygon fill="none" stroke="black" points="1026,-40.8 1026,-92.8 1226,-92.8 1226,-40.8 1026,-40.8"/>
</g>
<g id="clust5" class="cluster">
<title>cluster_SafeRecordModalModule_exports</title>
<polygon fill="none" stroke="black" points="560,-170.8 560,-222.8 762,-222.8 762,-170.8 560,-170.8"/>
</g>
<g id="clust4" class="cluster">
<title>cluster_SafeRecordModalModule_imports</title>
<polygon fill="none" stroke="black" points="16,-40.8 16,-92.8 1018,-92.8 1018,-40.8 16,-40.8"/>
</g>
<!-- SafeRecordModalComponent -->
<g id="node1" class="node">
<title>SafeRecordModalComponent</title>
<polygon fill="#ffffb3" stroke="black" points="1217.69,-84.8 1034.31,-84.8 1034.31,-48.8 1217.69,-48.8 1217.69,-84.8"/>
<text text-anchor="middle" x="1126" y="-62.6" font-family="Times,serif" font-size="14.00">SafeRecordModalComponent</text>
</g>
<!-- SafeRecordModalModule -->
<g id="node2" class="node">
<title>SafeRecordModalModule</title>
<polygon fill="#8dd3c7" stroke="black" points="741.91,-149.8 738.91,-153.8 717.91,-153.8 714.91,-149.8 580.09,-149.8 580.09,-113.8 741.91,-113.8 741.91,-149.8"/>
<text text-anchor="middle" x="661" y="-127.6" font-family="Times,serif" font-size="14.00">SafeRecordModalModule</text>
</g>
<!-- SafeRecordModalComponent&#45;&gt;SafeRecordModalModule -->
<g id="edge1" class="edge">
<title>SafeRecordModalComponent&#45;&gt;SafeRecordModalModule</title>
<path fill="none" stroke="black" d="M1126,-85.09C1126,-107.01 1126,-140.8 1126,-140.8 1126,-140.8 751.73,-140.8 751.73,-140.8"/>
<polygon fill="black" stroke="black" points="751.73,-137.3 741.73,-140.8 751.73,-144.3 751.73,-137.3"/>
</g>
<!-- SafeRecordModalComponent  -->
<g id="node9" class="node">
<title>SafeRecordModalComponent </title>
<polygon fill="#fb8072" stroke="black" points="754.19,-214.8 567.81,-214.8 567.81,-178.8 754.19,-178.8 754.19,-214.8"/>
<text text-anchor="middle" x="661" y="-192.6" font-family="Times,serif" font-size="14.00">SafeRecordModalComponent </text>
</g>
<!-- SafeRecordModalModule&#45;&gt;SafeRecordModalComponent  -->
<g id="edge8" class="edge">
<title>SafeRecordModalModule&#45;&gt;SafeRecordModalComponent </title>
<path fill="none" stroke="black" stroke-dasharray="5,2" d="M661,-149.91C661,-149.91 661,-168.79 661,-168.79"/>
<polygon fill="black" stroke="black" points="657.5,-168.79 661,-178.79 664.5,-168.79 657.5,-168.79"/>
</g>
<!-- SafeButtonModule -->
<g id="node3" class="node">
<title>SafeButtonModule</title>
<polygon fill="#8dd3c7" stroke="black" points="1010.05,-84.8 1007.05,-88.8 986.05,-88.8 983.05,-84.8 887.95,-84.8 887.95,-48.8 1010.05,-48.8 1010.05,-84.8"/>
<text text-anchor="middle" x="949" y="-62.6" font-family="Times,serif" font-size="14.00">SafeButtonModule</text>
</g>
<!-- SafeButtonModule&#45;&gt;SafeRecordModalModule -->
<g id="edge2" class="edge">
<title>SafeButtonModule&#45;&gt;SafeRecordModalModule</title>
<path fill="none" stroke="black" d="M949,-84.91C949,-104.14 949,-131.8 949,-131.8 949,-131.8 751.99,-131.8 751.99,-131.8"/>
<polygon fill="black" stroke="black" points="751.99,-128.3 741.99,-131.8 751.99,-135.3 751.99,-128.3"/>
</g>
<!-- SafeDateModule -->
<g id="node4" class="node">
<title>SafeDateModule</title>
<polygon fill="#8dd3c7" stroke="black" points="869.36,-84.8 866.36,-88.8 845.36,-88.8 842.36,-84.8 758.64,-84.8 758.64,-48.8 869.36,-48.8 869.36,-84.8"/>
<text text-anchor="middle" x="814" y="-62.6" font-family="Times,serif" font-size="14.00">SafeDateModule</text>
</g>
<!-- SafeDateModule&#45;&gt;SafeRecordModalModule -->
<g id="edge3" class="edge">
<title>SafeDateModule&#45;&gt;SafeRecordModalModule</title>
<path fill="none" stroke="black" d="M814,-84.83C814,-101.2 814,-122.8 814,-122.8 814,-122.8 751.98,-122.8 751.98,-122.8"/>
<polygon fill="black" stroke="black" points="751.98,-119.3 741.98,-122.8 751.98,-126.3 751.98,-119.3"/>
</g>
<!-- SafeFormActionsModule -->
<g id="node5" class="node">
<title>SafeFormActionsModule</title>
<polygon fill="#8dd3c7" stroke="black" points="740.32,-84.8 737.32,-88.8 716.32,-88.8 713.32,-84.8 581.68,-84.8 581.68,-48.8 740.32,-48.8 740.32,-84.8"/>
<text text-anchor="middle" x="661" y="-62.6" font-family="Times,serif" font-size="14.00">SafeFormActionsModule</text>
</g>
<!-- SafeFormActionsModule&#45;&gt;SafeRecordModalModule -->
<g id="edge4" class="edge">
<title>SafeFormActionsModule&#45;&gt;SafeRecordModalModule</title>
<path fill="none" stroke="black" d="M661,-84.91C661,-84.91 661,-103.79 661,-103.79"/>
<polygon fill="black" stroke="black" points="657.5,-103.79 661,-113.79 664.5,-103.79 657.5,-103.79"/>
</g>
<!-- SafeModalModule -->
<g id="node6" class="node">
<title>SafeModalModule</title>
<polygon fill="#8dd3c7" stroke="black" points="563.48,-84.8 560.48,-88.8 539.48,-88.8 536.48,-84.8 442.52,-84.8 442.52,-48.8 563.48,-48.8 563.48,-84.8"/>
<text text-anchor="middle" x="503" y="-62.6" font-family="Times,serif" font-size="14.00">SafeModalModule</text>
</g>
<!-- SafeModalModule&#45;&gt;SafeRecordModalModule -->
<g id="edge5" class="edge">
<title>SafeModalModule&#45;&gt;SafeRecordModalModule</title>
<path fill="none" stroke="black" d="M503,-84.83C503,-101.2 503,-122.8 503,-122.8 503,-122.8 570.15,-122.8 570.15,-122.8"/>
<polygon fill="black" stroke="black" points="570.15,-126.3 580.15,-122.8 570.15,-119.3 570.15,-126.3"/>
</g>
<!-- SafeRecordHistoryModalModule -->
<g id="node7" class="node">
<title>SafeRecordHistoryModalModule</title>
<polygon fill="#8dd3c7" stroke="black" points="424.91,-84.8 421.91,-88.8 400.91,-88.8 397.91,-84.8 221.09,-84.8 221.09,-48.8 424.91,-48.8 424.91,-84.8"/>
<text text-anchor="middle" x="323" y="-62.6" font-family="Times,serif" font-size="14.00">SafeRecordHistoryModalModule</text>
</g>
<!-- SafeRecordHistoryModalModule&#45;&gt;SafeRecordModalModule -->
<g id="edge6" class="edge">
<title>SafeRecordHistoryModalModule&#45;&gt;SafeRecordModalModule</title>
<path fill="none" stroke="black" d="M323,-84.91C323,-104.14 323,-131.8 323,-131.8 323,-131.8 570.04,-131.8 570.04,-131.8"/>
<polygon fill="black" stroke="black" points="570.04,-135.3 580.04,-131.8 570.04,-128.3 570.04,-135.3"/>
</g>
<!-- SafeRecordSummaryModule -->
<g id="node8" class="node">
<title>SafeRecordSummaryModule</title>
<polygon fill="#8dd3c7" stroke="black" points="203.8,-84.8 200.8,-88.8 179.8,-88.8 176.8,-84.8 24.2,-84.8 24.2,-48.8 203.8,-48.8 203.8,-84.8"/>
<text text-anchor="middle" x="114" y="-62.6" font-family="Times,serif" font-size="14.00">SafeRecordSummaryModule</text>
</g>
<!-- SafeRecordSummaryModule&#45;&gt;SafeRecordModalModule -->
<g id="edge7" class="edge">
<title>SafeRecordSummaryModule&#45;&gt;SafeRecordModalModule</title>
<path fill="none" stroke="black" d="M114,-85.09C114,-107.01 114,-140.8 114,-140.8 114,-140.8 570.29,-140.8 570.29,-140.8"/>
<polygon fill="black" stroke="black" points="570.29,-144.3 580.29,-140.8 570.29,-137.3 570.29,-144.3"/>
</g>
</g>
</svg>
