<?xml version="1.0" encoding="UTF-8" standalone="no"?>
<!DOCTYPE svg PUBLIC "-//W3C//DTD SVG 1.1//EN"
 "http://www.w3.org/Graphics/SVG/1.1/DTD/svg11.dtd">
<!-- Generated by graphviz version 3.0.0 (20220226.1711)
 -->
<!-- Title: dependencies Pages: 1 -->
<svg width="1119pt" height="174pt"
 viewBox="0.00 0.00 1119.00 173.80" xmlns="http://www.w3.org/2000/svg" xmlns:xlink="http://www.w3.org/1999/xlink">
<g id="graph0" class="graph" transform="scale(1 1) rotate(0) translate(4 169.8)">
<title>dependencies</title>
<polygon fill="white" stroke="transparent" points="-4,4 -4,-169.8 1115,-169.8 1115,4 -4,4"/>
<text text-anchor="middle" x="555.5" y="-8.2" font-family="sans-serif" font-size="14.00">dependencies</text>
<g id="clust1" class="cluster">
<title>cluster_AppModule</title>
<polygon fill="none" stroke="black" stroke-dasharray="1,5" points="8,-32.8 8,-157.8 1103,-157.8 1103,-32.8 8,-32.8"/>
</g>
<g id="clust2" class="cluster">
<title>cluster_AppModule_declarations</title>
<polygon fill="none" stroke="black" points="842,-40.8 842,-92.8 1095,-92.8 1095,-40.8 842,-40.8"/>
</g>
<g id="clust5" class="cluster">
<title>cluster_AppModule_imports</title>
<polygon fill="none" stroke="black" points="16,-40.8 16,-92.8 834,-92.8 834,-40.8 16,-40.8"/>
</g>
<!-- AppComponent -->
<g id="node1" class="node">
<title>AppComponent</title>
<polygon fill="#ffffb3" stroke="black" points="1086.94,-84.8 981.06,-84.8 981.06,-48.8 1086.94,-48.8 1086.94,-84.8"/>
<text text-anchor="middle" x="1034" y="-62.6" font-family="Times,serif" font-size="14.00">AppComponent</text>
</g>
<!-- AppModule -->
<g id="node3" class="node">
<title>AppModule</title>
<polygon fill="#8dd3c7" stroke="black" points="602.66,-149.8 599.66,-153.8 578.66,-153.8 575.66,-149.8 519.34,-149.8 519.34,-113.8 602.66,-113.8 602.66,-149.8"/>
<text text-anchor="middle" x="561" y="-127.6" font-family="Times,serif" font-size="14.00">AppModule</text>
</g>
<!-- AppComponent&#45;&gt;AppModule -->
<g id="edge1" class="edge">
<title>AppComponent&#45;&gt;AppModule</title>
<path fill="none" stroke="black" d="M1034,-85.09C1034,-107.01 1034,-140.8 1034,-140.8 1034,-140.8 612.98,-140.8 612.98,-140.8"/>
<polygon fill="black" stroke="black" points="612.98,-137.3 602.98,-140.8 612.98,-144.3 612.98,-137.3"/>
</g>
<!-- NewsComponent -->
<g id="node2" class="node">
<title>NewsComponent</title>
<polygon fill="#ffffb3" stroke="black" points="963.71,-84.8 850.29,-84.8 850.29,-48.8 963.71,-48.8 963.71,-84.8"/>
<text text-anchor="middle" x="907" y="-62.6" font-family="Times,serif" font-size="14.00">NewsComponent</text>
</g>
<!-- NewsComponent&#45;&gt;AppModule -->
<g id="edge2" class="edge">
<title>NewsComponent&#45;&gt;AppModule</title>
<path fill="none" stroke="black" d="M907,-84.91C907,-104.14 907,-131.8 907,-131.8 907,-131.8 612.74,-131.8 612.74,-131.8"/>
<polygon fill="black" stroke="black" points="612.74,-128.3 602.74,-131.8 612.74,-135.3 612.74,-128.3"/>
</g>
<!-- ApplicationWidgetModule -->
<g id="node4" class="node">
<title>ApplicationWidgetModule</title>
<polygon fill="#8dd3c7" stroke="black" points="826.36,-84.8 823.36,-88.8 802.36,-88.8 799.36,-84.8 659.64,-84.8 659.64,-48.8 826.36,-48.8 826.36,-84.8"/>
<text text-anchor="middle" x="743" y="-62.6" font-family="Times,serif" font-size="14.00">ApplicationWidgetModule</text>
</g>
<!-- ApplicationWidgetModule&#45;&gt;AppModule -->
<g id="edge3" class="edge">
<title>ApplicationWidgetModule&#45;&gt;AppModule</title>
<path fill="none" stroke="black" d="M743,-84.83C743,-101.2 743,-122.8 743,-122.8 743,-122.8 612.75,-122.8 612.75,-122.8"/>
<polygon fill="black" stroke="black" points="612.75,-119.3 602.75,-122.8 612.75,-126.3 612.75,-119.3"/>
</g>
<!-- DashboardWidgetModule -->
<g id="node5" class="node">
<title>DashboardWidgetModule</title>
<polygon fill="#8dd3c7" stroke="black" points="641.91,-84.8 638.91,-88.8 617.91,-88.8 614.91,-84.8 480.09,-84.8 480.09,-48.8 641.91,-48.8 641.91,-84.8"/>
<text text-anchor="middle" x="561" y="-62.6" font-family="Times,serif" font-size="14.00">DashboardWidgetModule</text>
</g>
<!-- DashboardWidgetModule&#45;&gt;AppModule -->
<g id="edge4" class="edge">
<title>DashboardWidgetModule&#45;&gt;AppModule</title>
<path fill="none" stroke="black" d="M561,-84.91C561,-84.91 561,-103.79 561,-103.79"/>
<polygon fill="black" stroke="black" points="557.5,-103.79 561,-113.79 564.5,-103.79 557.5,-103.79"/>
</g>
<!-- FormWidgetModule -->
<g id="node6" class="node">
<title>FormWidgetModule</title>
<polygon fill="#8dd3c7" stroke="black" points="462.6,-84.8 459.6,-88.8 438.6,-88.8 435.6,-84.8 331.4,-84.8 331.4,-48.8 462.6,-48.8 462.6,-84.8"/>
<text text-anchor="middle" x="397" y="-62.6" font-family="Times,serif" font-size="14.00">FormWidgetModule</text>
</g>
<!-- FormWidgetModule&#45;&gt;AppModule -->
<g id="edge5" class="edge">
<title>FormWidgetModule&#45;&gt;AppModule</title>
<path fill="none" stroke="black" d="M397,-84.83C397,-101.2 397,-122.8 397,-122.8 397,-122.8 509.19,-122.8 509.19,-122.8"/>
<polygon fill="black" stroke="black" points="509.19,-126.3 519.19,-122.8 509.19,-119.3 509.19,-126.3"/>
</g>
<!-- GraphQLModule -->
<g id="node7" class="node">
<title>GraphQLModule</title>
<polygon fill="#8dd3c7" stroke="black" points="313.7,-84.8 310.7,-88.8 289.7,-88.8 286.7,-84.8 200.3,-84.8 200.3,-48.8 313.7,-48.8 313.7,-84.8"/>
<text text-anchor="middle" x="257" y="-62.6" font-family="Times,serif" font-size="14.00">GraphQLModule</text>
</g>
<!-- GraphQLModule&#45;&gt;AppModule -->
<g id="edge6" class="edge">
<title>GraphQLModule&#45;&gt;AppModule</title>
<path fill="none" stroke="black" d="M257,-84.91C257,-104.14 257,-131.8 257,-131.8 257,-131.8 509.05,-131.8 509.05,-131.8"/>
<polygon fill="black" stroke="black" points="509.05,-135.3 519.05,-131.8 509.05,-128.3 509.05,-135.3"/>
</g>
<!-- WorkflowWidgetModule -->
<g id="node8" class="node">
<title>WorkflowWidgetModule</title>
<polygon fill="#8dd3c7" stroke="black" points="182.3,-84.8 179.3,-88.8 158.3,-88.8 155.3,-84.8 23.7,-84.8 23.7,-48.8 182.3,-48.8 182.3,-84.8"/>
<text text-anchor="middle" x="103" y="-62.6" font-family="Times,serif" font-size="14.00">WorkflowWidgetModule</text>
</g>
<!-- WorkflowWidgetModule&#45;&gt;AppModule -->
<g id="edge7" class="edge">
<title>WorkflowWidgetModule&#45;&gt;AppModule</title>
<path fill="none" stroke="black" d="M103,-85.09C103,-107.01 103,-140.8 103,-140.8 103,-140.8 509.14,-140.8 509.14,-140.8"/>
<polygon fill="black" stroke="black" points="509.14,-144.3 519.14,-140.8 509.14,-137.3 509.14,-144.3"/>
</g>
</g>
</svg>
