<?xml version="1.0" encoding="UTF-8" standalone="no"?>
<!DOCTYPE svg PUBLIC "-//W3C//DTD SVG 1.1//EN"
 "http://www.w3.org/Graphics/SVG/1.1/DTD/svg11.dtd">
<!-- Generated by graphviz version 3.0.0 (20220226.1711)
 -->
<!-- Title: dependencies Pages: 1 -->
<svg width="1703pt" height="358pt"
 viewBox="0.00 0.00 1703.00 358.39" xmlns="http://www.w3.org/2000/svg" xmlns:xlink="http://www.w3.org/1999/xlink">
<g id="graph0" class="graph" transform="scale(1 1) rotate(0) translate(4 354.39)">
<title>dependencies</title>
<polygon fill="white" stroke="transparent" points="-4,4 -4,-354.39 1699,-354.39 1699,4 -4,4"/>
<text text-anchor="middle" x="847.5" y="-8.2" font-family="sans-serif" font-size="14.00">dependencies</text>
<g id="clust1" class="cluster">
<title>cluster_SafeGridSettingsModule</title>
<polygon fill="none" stroke="black" stroke-dasharray="1,5" points="8,-32.8 8,-342.39 1687,-342.39 1687,-32.8 8,-32.8"/>
</g>
<g id="clust4" class="cluster">
<title>cluster_SafeGridSettingsModule_SafeGridSettingsComponent_providers</title>
<polygon fill="none" stroke="black" points="787,-40.8 787,-204.39 1679,-204.39 1679,-40.8 787,-40.8"/>
</g>
<g id="clust2" class="cluster">
<title>cluster_SafeGridSettingsModule_declarations</title>
<polygon fill="none" stroke="black" points="527,-152.39 527,-204.39 779,-204.39 779,-152.39 527,-152.39"/>
</g>
<g id="clust5" class="cluster">
<title>cluster_SafeGridSettingsModule_imports</title>
<polygon fill="none" stroke="black" points="16,-152.39 16,-204.39 519,-204.39 519,-152.39 16,-152.39"/>
</g>
<g id="clust6" class="cluster">
<title>cluster_SafeGridSettingsModule_exports</title>
<polygon fill="none" stroke="black" points="330,-282.39 330,-334.39 526,-334.39 526,-282.39 330,-282.39"/>
</g>
<!-- SafeFloatingButtonSettingsComponent -->
<g id="node1" class="node">
<title>SafeFloatingButtonSettingsComponent</title>
<polygon fill="#ffffb3" stroke="black" points="771.11,-196.39 534.89,-196.39 534.89,-160.39 771.11,-160.39 771.11,-196.39"/>
<text text-anchor="middle" x="653" y="-174.19" font-family="Times,serif" font-size="14.00">SafeFloatingButtonSettingsComponent</text>
</g>
<!-- SafeGridSettingsModule -->
<g id="node3" class="node">
<title>SafeGridSettingsModule</title>
<polygon fill="#8dd3c7" stroke="black" points="505.71,-261.39 502.71,-265.39 481.71,-265.39 478.71,-261.39 350.29,-261.39 350.29,-225.39 505.71,-225.39 505.71,-261.39"/>
<text text-anchor="middle" x="428" y="-239.19" font-family="Times,serif" font-size="14.00">SafeGridSettingsModule</text>
</g>
<!-- SafeFloatingButtonSettingsComponent&#45;&gt;SafeGridSettingsModule -->
<g id="edge1" class="edge">
<title>SafeFloatingButtonSettingsComponent&#45;&gt;SafeGridSettingsModule</title>
<path fill="none" stroke="black" d="M653,-196.41C653,-213.76 653,-237.39 653,-237.39 653,-237.39 515.75,-237.39 515.75,-237.39"/>
<polygon fill="black" stroke="black" points="515.75,-233.89 505.75,-237.39 515.75,-240.89 515.75,-233.89"/>
</g>
<!-- SafeGridSettingsComponent -->
<g id="node2" class="node">
<title>SafeGridSettingsComponent</title>
<polygon fill="#ffffb3" stroke="black" points="1146.49,-196.39 969.51,-196.39 969.51,-160.39 1146.49,-160.39 1146.49,-196.39"/>
<text text-anchor="middle" x="1058" y="-174.19" font-family="Times,serif" font-size="14.00">SafeGridSettingsComponent</text>
</g>
<!-- SafeGridSettingsComponent&#45;&gt;SafeGridSettingsModule -->
<g id="edge2" class="edge">
<title>SafeGridSettingsComponent&#45;&gt;SafeGridSettingsModule</title>
<path fill="none" stroke="black" d="M1058,-196.67C1058,-217.71 1058,-249.39 1058,-249.39 1058,-249.39 515.88,-249.39 515.88,-249.39"/>
<polygon fill="black" stroke="black" points="515.88,-245.89 505.88,-249.39 515.88,-252.89 515.88,-245.89"/>
</g>
<!-- SafeGridSettingsComponent  -->
<g id="node8" class="node">
<title>SafeGridSettingsComponent </title>
<polygon fill="#fb8072" stroke="black" points="518.49,-326.39 337.51,-326.39 337.51,-290.39 518.49,-290.39 518.49,-326.39"/>
<text text-anchor="middle" x="428" y="-304.19" font-family="Times,serif" font-size="14.00">SafeGridSettingsComponent </text>
</g>
<!-- SafeGridSettingsModule&#45;&gt;SafeGridSettingsComponent  -->
<g id="edge7" class="edge">
<title>SafeGridSettingsModule&#45;&gt;SafeGridSettingsComponent </title>
<path fill="none" stroke="black" stroke-dasharray="5,2" d="M428,-261.5C428,-261.5 428,-280.38 428,-280.38"/>
<polygon fill="black" stroke="black" points="424.5,-280.38 428,-290.38 431.5,-280.38 424.5,-280.38"/>
</g>
<!-- {
 &#160;&#160;&#160;provide: MAT_AUTOCOMPLETE_SCROLL_STRATEGY, useFactory: scrollFactory, deps: [Overlay],
} -->
<g id="node4" class="node">
<title>{
 &#160;&#160;&#160;provide: MAT_AUTOCOMPLETE_SCROLL_STRATEGY, useFactory: scrollFactory, deps: [Overlay],
}</title>
<ellipse fill="#fdb462" stroke="black" cx="1233" cy="-90.1" rx="438.07" ry="41.09"/>
<text text-anchor="middle" x="1233" y="-102.7" font-family="Times,serif" font-size="14.00">{</text>
<text text-anchor="middle" x="1233" y="-85.9" font-family="Times,serif" font-size="14.00"> &#160;&#160;&#160;provide: MAT_AUTOCOMPLETE_SCROLL_STRATEGY, useFactory: scrollFactory, deps: [Overlay],</text>
<text text-anchor="middle" x="1233" y="-69.1" font-family="Times,serif" font-size="14.00">}</text>
</g>
<!-- {
 &#160;&#160;&#160;provide: MAT_AUTOCOMPLETE_SCROLL_STRATEGY, useFactory: scrollFactory, deps: [Overlay],
}&#45;&gt;SafeGridSettingsComponent -->
<g id="edge3" class="edge">
<title>{
 &#160;&#160;&#160;provide: MAT_AUTOCOMPLETE_SCROLL_STRATEGY, useFactory: scrollFactory, deps: [Overlay],
}&#45;&gt;SafeGridSettingsComponent</title>
<path fill="none" stroke="black" d="M1058,-128.05C1058,-128.05 1058,-150.36 1058,-150.36"/>
<polygon fill="black" stroke="black" points="1054.5,-150.36 1058,-160.36 1061.5,-150.36 1054.5,-150.36"/>
</g>
<!-- LayoutsParametersModule -->
<g id="node5" class="node">
<title>LayoutsParametersModule</title>
<polygon fill="#8dd3c7" stroke="black" points="511.35,-196.39 508.35,-200.39 487.35,-200.39 484.35,-196.39 344.65,-196.39 344.65,-160.39 511.35,-160.39 511.35,-196.39"/>
<text text-anchor="middle" x="428" y="-174.19" font-family="Times,serif" font-size="14.00">LayoutsParametersModule</text>
</g>
<!-- LayoutsParametersModule&#45;&gt;SafeGridSettingsModule -->
<g id="edge4" class="edge">
<title>LayoutsParametersModule&#45;&gt;SafeGridSettingsModule</title>
<path fill="none" stroke="black" d="M428,-196.5C428,-196.5 428,-215.38 428,-215.38"/>
<polygon fill="black" stroke="black" points="424.5,-215.38 428,-225.38 431.5,-215.38 424.5,-215.38"/>
</g>
<!-- SafeButtonModule -->
<g id="node6" class="node">
<title>SafeButtonModule</title>
<polygon fill="#8dd3c7" stroke="black" points="326.05,-196.39 323.05,-200.39 302.05,-200.39 299.05,-196.39 203.95,-196.39 203.95,-160.39 326.05,-160.39 326.05,-196.39"/>
<text text-anchor="middle" x="265" y="-174.19" font-family="Times,serif" font-size="14.00">SafeButtonModule</text>
</g>
<!-- SafeButtonModule&#45;&gt;SafeGridSettingsModule -->
<g id="edge5" class="edge">
<title>SafeButtonModule&#45;&gt;SafeGridSettingsModule</title>
<path fill="none" stroke="black" d="M265,-196.41C265,-213.76 265,-237.39 265,-237.39 265,-237.39 340.32,-237.39 340.32,-237.39"/>
<polygon fill="black" stroke="black" points="340.32,-240.89 350.32,-237.39 340.32,-233.89 340.32,-240.89"/>
</g>
<!-- SafeQueryBuilderModule -->
<g id="node7" class="node">
<title>SafeQueryBuilderModule</title>
<polygon fill="#8dd3c7" stroke="black" points="185.91,-196.39 182.91,-200.39 161.91,-200.39 158.91,-196.39 24.09,-196.39 24.09,-160.39 185.91,-160.39 185.91,-196.39"/>
<text text-anchor="middle" x="105" y="-174.19" font-family="Times,serif" font-size="14.00">SafeQueryBuilderModule</text>
</g>
<!-- SafeQueryBuilderModule&#45;&gt;SafeGridSettingsModule -->
<g id="edge6" class="edge">
<title>SafeQueryBuilderModule&#45;&gt;SafeGridSettingsModule</title>
<path fill="none" stroke="black" d="M105,-196.67C105,-217.71 105,-249.39 105,-249.39 105,-249.39 340.22,-249.39 340.22,-249.39"/>
<polygon fill="black" stroke="black" points="340.22,-252.89 350.22,-249.39 340.22,-245.89 340.22,-252.89"/>
</g>
</g>
</svg>
