<?xml version="1.0" encoding="UTF-8" standalone="no"?>
<!DOCTYPE svg PUBLIC "-//W3C//DTD SVG 1.1//EN"
 "http://www.w3.org/Graphics/SVG/1.1/DTD/svg11.dtd">
<!-- Generated by graphviz version 3.0.0 (20220226.1711)
 -->
<!-- Title: dependencies Pages: 1 -->
<svg width="1703pt" height="358pt"
 viewBox="0.00 0.00 1703.00 358.39" xmlns="http://www.w3.org/2000/svg" xmlns:xlink="http://www.w3.org/1999/xlink">
<g id="graph0" class="graph" transform="scale(1 1) rotate(0) translate(4 354.39)">
<title>dependencies</title>
<polygon fill="white" stroke="transparent" points="-4,4 -4,-354.39 1699,-354.39 1699,4 -4,4"/>
<text text-anchor="middle" x="847.5" y="-8.2" font-family="sans-serif" font-size="14.00">dependencies</text>
<g id="clust1" class="cluster">
<title>cluster_SafeGridSettingsModule</title>
<polygon fill="none" stroke="black" stroke-dasharray="1,5" points="8,-32.8 8,-342.39 1687,-342.39 1687,-32.8 8,-32.8"/>
</g>
<g id="clust5" class="cluster">
<title>cluster_SafeGridSettingsModule_imports</title>
<polygon fill="none" stroke="black" points="1176,-152.39 1176,-204.39 1679,-204.39 1679,-152.39 1176,-152.39"/>
</g>
<g id="clust6" class="cluster">
<title>cluster_SafeGridSettingsModule_exports</title>
<polygon fill="none" stroke="black" points="1167,-282.39 1167,-334.39 1363,-334.39 1363,-282.39 1167,-282.39"/>
</g>
<g id="clust4" class="cluster">
<title>cluster_SafeGridSettingsModule_SafeGridSettingsComponent_providers</title>
<polygon fill="none" stroke="black" points="276,-40.8 276,-204.39 1168,-204.39 1168,-40.8 276,-40.8"/>
</g>
<g id="clust2" class="cluster">
<title>cluster_SafeGridSettingsModule_declarations</title>
<polygon fill="none" stroke="black" points="16,-152.39 16,-204.39 268,-204.39 268,-152.39 16,-152.39"/>
</g>
<!-- SafeFloatingButtonSettingsComponent -->
<g id="node1" class="node">
<title>SafeFloatingButtonSettingsComponent</title>
<polygon fill="#ffffb3" stroke="black" points="260.11,-196.39 23.89,-196.39 23.89,-160.39 260.11,-160.39 260.11,-196.39"/>
<text text-anchor="middle" x="142" y="-174.19" font-family="Times,serif" font-size="14.00">SafeFloatingButtonSettingsComponent</text>
</g>
<!-- SafeGridSettingsModule -->
<g id="node3" class="node">
<title>SafeGridSettingsModule</title>
<polygon fill="#8dd3c7" stroke="black" points="1342.71,-261.39 1339.71,-265.39 1318.71,-265.39 1315.71,-261.39 1187.29,-261.39 1187.29,-225.39 1342.71,-225.39 1342.71,-261.39"/>
<text text-anchor="middle" x="1265" y="-239.19" font-family="Times,serif" font-size="14.00">SafeGridSettingsModule</text>
</g>
<!-- SafeFloatingButtonSettingsComponent&#45;&gt;SafeGridSettingsModule -->
<g id="edge1" class="edge">
<title>SafeFloatingButtonSettingsComponent&#45;&gt;SafeGridSettingsModule</title>
<path fill="none" stroke="black" d="M142,-196.67C142,-217.71 142,-249.39 142,-249.39 142,-249.39 1177.37,-249.39 1177.37,-249.39"/>
<polygon fill="black" stroke="black" points="1177.37,-252.89 1187.37,-249.39 1177.37,-245.89 1177.37,-252.89"/>
</g>
<!-- SafeGridSettingsComponent -->
<g id="node2" class="node">
<title>SafeGridSettingsComponent</title>
<polygon fill="#ffffb3" stroke="black" points="985.49,-196.39 808.51,-196.39 808.51,-160.39 985.49,-160.39 985.49,-196.39"/>
<text text-anchor="middle" x="897" y="-174.19" font-family="Times,serif" font-size="14.00">SafeGridSettingsComponent</text>
</g>
<!-- SafeGridSettingsComponent&#45;&gt;SafeGridSettingsModule -->
<g id="edge2" class="edge">
<title>SafeGridSettingsComponent&#45;&gt;SafeGridSettingsModule</title>
<path fill="none" stroke="black" d="M897,-196.41C897,-213.76 897,-237.39 897,-237.39 897,-237.39 1176.96,-237.39 1176.96,-237.39"/>
<polygon fill="black" stroke="black" points="1176.96,-240.89 1186.96,-237.39 1176.96,-233.89 1176.96,-240.89"/>
</g>
<!-- SafeGridSettingsComponent  -->
<g id="node8" class="node">
<title>SafeGridSettingsComponent </title>
<polygon fill="#fb8072" stroke="black" points="1355.49,-326.39 1174.51,-326.39 1174.51,-290.39 1355.49,-290.39 1355.49,-326.39"/>
<text text-anchor="middle" x="1265" y="-304.19" font-family="Times,serif" font-size="14.00">SafeGridSettingsComponent </text>
</g>
<!-- SafeGridSettingsModule&#45;&gt;SafeGridSettingsComponent  -->
<g id="edge7" class="edge">
<title>SafeGridSettingsModule&#45;&gt;SafeGridSettingsComponent </title>
<path fill="none" stroke="black" stroke-dasharray="5,2" d="M1265,-261.5C1265,-261.5 1265,-280.38 1265,-280.38"/>
<polygon fill="black" stroke="black" points="1261.5,-280.38 1265,-290.38 1268.5,-280.38 1261.5,-280.38"/>
</g>
<!-- {
 &#160;&#160;&#160;provide: MAT_AUTOCOMPLETE_SCROLL_STRATEGY, useFactory: scrollFactory, deps: [Overlay],
} -->
<g id="node4" class="node">
<title>{
 &#160;&#160;&#160;provide: MAT_AUTOCOMPLETE_SCROLL_STRATEGY, useFactory: scrollFactory, deps: [Overlay],
}</title>
<ellipse fill="#fdb462" stroke="black" cx="722" cy="-90.1" rx="438.07" ry="41.09"/>
<text text-anchor="middle" x="722" y="-102.7" font-family="Times,serif" font-size="14.00">{</text>
<text text-anchor="middle" x="722" y="-85.9" font-family="Times,serif" font-size="14.00"> &#160;&#160;&#160;provide: MAT_AUTOCOMPLETE_SCROLL_STRATEGY, useFactory: scrollFactory, deps: [Overlay],</text>
<text text-anchor="middle" x="722" y="-69.1" font-family="Times,serif" font-size="14.00">}</text>
</g>
<!-- {
 &#160;&#160;&#160;provide: MAT_AUTOCOMPLETE_SCROLL_STRATEGY, useFactory: scrollFactory, deps: [Overlay],
}&#45;&gt;SafeGridSettingsComponent -->
<g id="edge3" class="edge">
<title>{
 &#160;&#160;&#160;provide: MAT_AUTOCOMPLETE_SCROLL_STRATEGY, useFactory: scrollFactory, deps: [Overlay],
}&#45;&gt;SafeGridSettingsComponent</title>
<path fill="none" stroke="black" d="M897,-128.05C897,-128.05 897,-150.36 897,-150.36"/>
<polygon fill="black" stroke="black" points="893.5,-150.36 897,-160.36 900.5,-150.36 893.5,-150.36"/>
</g>
<!-- LayoutsParametersModule -->
<g id="node5" class="node">
<title>LayoutsParametersModule</title>
<polygon fill="#8dd3c7" stroke="black" points="1671.35,-196.39 1668.35,-200.39 1647.35,-200.39 1644.35,-196.39 1504.65,-196.39 1504.65,-160.39 1671.35,-160.39 1671.35,-196.39"/>
<text text-anchor="middle" x="1588" y="-174.19" font-family="Times,serif" font-size="14.00">LayoutsParametersModule</text>
</g>
<!-- LayoutsParametersModule&#45;&gt;SafeGridSettingsModule -->
<g id="edge4" class="edge">
<title>LayoutsParametersModule&#45;&gt;SafeGridSettingsModule</title>
<path fill="none" stroke="black" d="M1588,-196.67C1588,-217.71 1588,-249.39 1588,-249.39 1588,-249.39 1352.78,-249.39 1352.78,-249.39"/>
<polygon fill="black" stroke="black" points="1352.78,-245.89 1342.78,-249.39 1352.78,-252.89 1352.78,-245.89"/>
</g>
<!-- SafeButtonModule -->
<g id="node6" class="node">
<title>SafeButtonModule</title>
<polygon fill="#8dd3c7" stroke="black" points="1486.05,-196.39 1483.05,-200.39 1462.05,-200.39 1459.05,-196.39 1363.95,-196.39 1363.95,-160.39 1486.05,-160.39 1486.05,-196.39"/>
<text text-anchor="middle" x="1425" y="-174.19" font-family="Times,serif" font-size="14.00">SafeButtonModule</text>
</g>
<!-- SafeButtonModule&#45;&gt;SafeGridSettingsModule -->
<g id="edge5" class="edge">
<title>SafeButtonModule&#45;&gt;SafeGridSettingsModule</title>
<path fill="none" stroke="black" d="M1425,-196.41C1425,-213.76 1425,-237.39 1425,-237.39 1425,-237.39 1352.66,-237.39 1352.66,-237.39"/>
<polygon fill="black" stroke="black" points="1352.66,-233.89 1342.66,-237.39 1352.66,-240.89 1352.66,-233.89"/>
</g>
<!-- SafeQueryBuilderModule -->
<g id="node7" class="node">
<title>SafeQueryBuilderModule</title>
<polygon fill="#8dd3c7" stroke="black" points="1345.91,-196.39 1342.91,-200.39 1321.91,-200.39 1318.91,-196.39 1184.09,-196.39 1184.09,-160.39 1345.91,-160.39 1345.91,-196.39"/>
<text text-anchor="middle" x="1265" y="-174.19" font-family="Times,serif" font-size="14.00">SafeQueryBuilderModule</text>
</g>
<!-- SafeQueryBuilderModule&#45;&gt;SafeGridSettingsModule -->
<g id="edge6" class="edge">
<title>SafeQueryBuilderModule&#45;&gt;SafeGridSettingsModule</title>
<path fill="none" stroke="black" d="M1265,-196.5C1265,-196.5 1265,-215.38 1265,-215.38"/>
<polygon fill="black" stroke="black" points="1261.5,-215.38 1265,-225.38 1268.5,-215.38 1261.5,-215.38"/>
</g>
</g>
</svg>
