<?xml version="1.0" encoding="UTF-8" standalone="no"?>
<!DOCTYPE svg PUBLIC "-//W3C//DTD SVG 1.1//EN"
 "http://www.w3.org/Graphics/SVG/1.1/DTD/svg11.dtd">
<!-- Generated by graphviz version 3.0.0 (20220226.1711)
 -->
<!-- Title: dependencies Pages: 1 -->
<svg width="998pt" height="358pt"
 viewBox="0.00 0.00 998.00 358.39" xmlns="http://www.w3.org/2000/svg" xmlns:xlink="http://www.w3.org/1999/xlink">
<g id="graph0" class="graph" transform="scale(1 1) rotate(0) translate(4 354.39)">
<title>dependencies</title>
<polygon fill="white" stroke="transparent" points="-4,4 -4,-354.39 994,-354.39 994,4 -4,4"/>
<text text-anchor="middle" x="495" y="-8.2" font-family="sans-serif" font-size="14.00">dependencies</text>
<g id="clust1" class="cluster">
<title>cluster_SafeGridSettingsModule</title>
<polygon fill="none" stroke="black" stroke-dasharray="1,5" points="8,-32.8 8,-342.39 982,-342.39 982,-32.8 8,-32.8"/>
</g>
<g id="clust5" class="cluster">
<title>cluster_SafeGridSettingsModule_imports</title>
<polygon fill="none" stroke="black" points="471,-152.39 471,-204.39 974,-204.39 974,-152.39 471,-152.39"/>
</g>
<g id="clust2" class="cluster">
<title>cluster_SafeGridSettingsModule_declarations</title>
<polygon fill="none" stroke="black" points="16,-152.39 16,-204.39 463,-204.39 463,-152.39 16,-152.39"/>
</g>
<g id="clust6" class="cluster">
<title>cluster_SafeGridSettingsModule_exports</title>
<polygon fill="none" stroke="black" points="462,-282.39 462,-334.39 658,-334.39 658,-282.39 462,-282.39"/>
</g>
<g id="clust4" class="cluster">
<title>cluster_SafeGridSettingsModule_SafeGridSettingsComponent_providers</title>
<polygon fill="none" stroke="black" points="16,-40.8 16,-139.39 908,-139.39 908,-40.8 16,-40.8"/>
</g>
<!-- SafeFloatingButtonSettingsComponent -->
<g id="node1" class="node">
<title>SafeFloatingButtonSettingsComponent</title>
<polygon fill="#ffffb3" stroke="black" points="455.11,-196.39 218.89,-196.39 218.89,-160.39 455.11,-160.39 455.11,-196.39"/>
<text text-anchor="middle" x="337" y="-174.19" font-family="Times,serif" font-size="14.00">SafeFloatingButtonSettingsComponent</text>
</g>
<!-- SafeGridSettingsModule -->
<g id="node3" class="node">
<title>SafeGridSettingsModule</title>
<polygon fill="#8dd3c7" stroke="black" points="637.71,-261.39 634.71,-265.39 613.71,-265.39 610.71,-261.39 482.29,-261.39 482.29,-225.39 637.71,-225.39 637.71,-261.39"/>
<text text-anchor="middle" x="560" y="-239.19" font-family="Times,serif" font-size="14.00">SafeGridSettingsModule</text>
</g>
<!-- SafeFloatingButtonSettingsComponent&#45;&gt;SafeGridSettingsModule -->
<g id="edge1" class="edge">
<title>SafeFloatingButtonSettingsComponent&#45;&gt;SafeGridSettingsModule</title>
<path fill="none" stroke="black" d="M337,-196.41C337,-213.76 337,-237.39 337,-237.39 337,-237.39 472.32,-237.39 472.32,-237.39"/>
<polygon fill="black" stroke="black" points="472.32,-240.89 482.32,-237.39 472.32,-233.89 472.32,-240.89"/>
</g>
<!-- SafeGridSettingsComponent -->
<g id="node2" class="node">
<title>SafeGridSettingsComponent</title>
<polygon fill="#ffffb3" stroke="black" points="200.49,-196.39 23.51,-196.39 23.51,-160.39 200.49,-160.39 200.49,-196.39"/>
<text text-anchor="middle" x="112" y="-174.19" font-family="Times,serif" font-size="14.00">SafeGridSettingsComponent</text>
</g>
<!-- SafeGridSettingsComponent&#45;&gt;SafeGridSettingsModule -->
<g id="edge2" class="edge">
<title>SafeGridSettingsComponent&#45;&gt;SafeGridSettingsModule</title>
<path fill="none" stroke="black" d="M112,-196.67C112,-217.71 112,-249.39 112,-249.39 112,-249.39 472.22,-249.39 472.22,-249.39"/>
<polygon fill="black" stroke="black" points="472.22,-252.89 482.22,-249.39 472.22,-245.89 472.22,-252.89"/>
</g>
<!-- SafeGridSettingsComponent  -->
<g id="node8" class="node">
<title>SafeGridSettingsComponent </title>
<polygon fill="#fb8072" stroke="black" points="650.49,-326.39 469.51,-326.39 469.51,-290.39 650.49,-290.39 650.49,-326.39"/>
<text text-anchor="middle" x="560" y="-304.19" font-family="Times,serif" font-size="14.00">SafeGridSettingsComponent </text>
</g>
<!-- SafeGridSettingsModule&#45;&gt;SafeGridSettingsComponent  -->
<g id="edge7" class="edge">
<title>SafeGridSettingsModule&#45;&gt;SafeGridSettingsComponent </title>
<path fill="none" stroke="black" stroke-dasharray="5,2" d="M560,-261.5C560,-261.5 560,-280.38 560,-280.38"/>
<polygon fill="black" stroke="black" points="556.5,-280.38 560,-290.38 563.5,-280.38 556.5,-280.38"/>
</g>
<!-- {
 &#160;&#160;&#160;provide: MAT_AUTOCOMPLETE_SCROLL_STRATEGY, useFactory: scrollFactory, deps: [Overlay],
} -->
<g id="node4" class="node">
<title>{
 &#160;&#160;&#160;provide: MAT_AUTOCOMPLETE_SCROLL_STRATEGY, useFactory: scrollFactory, deps: [Overlay],
}</title>
<ellipse fill="#fdb462" stroke="black" cx="462" cy="-90.1" rx="438.07" ry="41.09"/>
<text text-anchor="middle" x="462" y="-102.7" font-family="Times,serif" font-size="14.00">{</text>
<text text-anchor="middle" x="462" y="-85.9" font-family="Times,serif" font-size="14.00"> &#160;&#160;&#160;provide: MAT_AUTOCOMPLETE_SCROLL_STRATEGY, useFactory: scrollFactory, deps: [Overlay],</text>
<text text-anchor="middle" x="462" y="-69.1" font-family="Times,serif" font-size="14.00">}</text>
</g>
<!-- {
 &#160;&#160;&#160;provide: MAT_AUTOCOMPLETE_SCROLL_STRATEGY, useFactory: scrollFactory, deps: [Overlay],
}&#45;&gt;SafeGridSettingsComponent -->
<g id="edge3" class="edge">
<title>{
 &#160;&#160;&#160;provide: MAT_AUTOCOMPLETE_SCROLL_STRATEGY, useFactory: scrollFactory, deps: [Overlay],
}&#45;&gt;SafeGridSettingsComponent</title>
<path fill="none" stroke="black" d="M112.23,-115.16C112.23,-115.16 112.23,-150.28 112.23,-150.28"/>
<polygon fill="black" stroke="black" points="108.73,-150.28 112.23,-160.28 115.73,-150.28 108.73,-150.28"/>
</g>
<!-- LayoutsParametersModule -->
<g id="node5" class="node">
<title>LayoutsParametersModule</title>
<polygon fill="#8dd3c7" stroke="black" points="966.35,-196.39 963.35,-200.39 942.35,-200.39 939.35,-196.39 799.65,-196.39 799.65,-160.39 966.35,-160.39 966.35,-196.39"/>
<text text-anchor="middle" x="883" y="-174.19" font-family="Times,serif" font-size="14.00">LayoutsParametersModule</text>
</g>
<!-- LayoutsParametersModule&#45;&gt;SafeGridSettingsModule -->
<g id="edge4" class="edge">
<title>LayoutsParametersModule&#45;&gt;SafeGridSettingsModule</title>
<path fill="none" stroke="black" d="M883,-196.67C883,-217.71 883,-249.39 883,-249.39 883,-249.39 647.78,-249.39 647.78,-249.39"/>
<polygon fill="black" stroke="black" points="647.78,-245.89 637.78,-249.39 647.78,-252.89 647.78,-245.89"/>
</g>
<!-- SafeButtonModule -->
<g id="node6" class="node">
<title>SafeButtonModule</title>
<polygon fill="#8dd3c7" stroke="black" points="781.05,-196.39 778.05,-200.39 757.05,-200.39 754.05,-196.39 658.95,-196.39 658.95,-160.39 781.05,-160.39 781.05,-196.39"/>
<text text-anchor="middle" x="720" y="-174.19" font-family="Times,serif" font-size="14.00">SafeButtonModule</text>
</g>
<!-- SafeButtonModule&#45;&gt;SafeGridSettingsModule -->
<g id="edge5" class="edge">
<title>SafeButtonModule&#45;&gt;SafeGridSettingsModule</title>
<path fill="none" stroke="black" d="M720,-196.41C720,-213.76 720,-237.39 720,-237.39 720,-237.39 647.66,-237.39 647.66,-237.39"/>
<polygon fill="black" stroke="black" points="647.66,-233.89 637.66,-237.39 647.66,-240.89 647.66,-233.89"/>
</g>
<!-- SafeQueryBuilderModule -->
<g id="node7" class="node">
<title>SafeQueryBuilderModule</title>
<polygon fill="#8dd3c7" stroke="black" points="640.91,-196.39 637.91,-200.39 616.91,-200.39 613.91,-196.39 479.09,-196.39 479.09,-160.39 640.91,-160.39 640.91,-196.39"/>
<text text-anchor="middle" x="560" y="-174.19" font-family="Times,serif" font-size="14.00">SafeQueryBuilderModule</text>
</g>
<!-- SafeQueryBuilderModule&#45;&gt;SafeGridSettingsModule -->
<g id="edge6" class="edge">
<title>SafeQueryBuilderModule&#45;&gt;SafeGridSettingsModule</title>
<path fill="none" stroke="black" d="M560,-196.5C560,-196.5 560,-215.38 560,-215.38"/>
<polygon fill="black" stroke="black" points="556.5,-215.38 560,-225.38 563.5,-215.38 556.5,-215.38"/>
</g>
</g>
</svg>
