<?xml version="1.0" encoding="UTF-8" standalone="no"?>
<!DOCTYPE svg PUBLIC "-//W3C//DTD SVG 1.1//EN"
 "http://www.w3.org/Graphics/SVG/1.1/DTD/svg11.dtd">
<!-- Generated by graphviz version 3.0.0 (20220226.1711)
 -->
<!-- Title: dependencies Pages: 1 -->
<svg width="675pt" height="247pt"
 viewBox="0.00 0.00 675.00 246.80" xmlns="http://www.w3.org/2000/svg" xmlns:xlink="http://www.w3.org/1999/xlink">
<g id="graph0" class="graph" transform="scale(1 1) rotate(0) translate(4 242.8)">
<title>dependencies</title>
<polygon fill="white" stroke="transparent" points="-4,4 -4,-242.8 671,-242.8 671,4 -4,4"/>
<text text-anchor="middle" x="333.5" y="-8.2" font-family="sans-serif" font-size="14.00">dependencies</text>
<g id="clust1" class="cluster">
<title>cluster_SafeAccessModule</title>
<polygon fill="none" stroke="black" stroke-dasharray="1,5" points="8,-32.8 8,-230.8 659,-230.8 659,-32.8 8,-32.8"/>
</g>
<g id="clust2" class="cluster">
<title>cluster_SafeAccessModule_declarations</title>
<polygon fill="none" stroke="black" points="301,-40.8 301,-92.8 651,-92.8 651,-40.8 301,-40.8"/>
</g>
<g id="clust6" class="cluster">
<title>cluster_SafeAccessModule_exports</title>
<polygon fill="none" stroke="black" points="226,-170.8 226,-222.8 392,-222.8 392,-170.8 226,-170.8"/>
</g>
<g id="clust5" class="cluster">
<title>cluster_SafeAccessModule_imports</title>
<polygon fill="none" stroke="black" points="16,-40.8 16,-92.8 293,-92.8 293,-40.8 16,-40.8"/>
</g>
<!-- SafeAccessComponent -->
<g id="node1" class="node">
<title>SafeAccessComponent</title>
<polygon fill="#ffffb3" stroke="black" points="642.86,-84.8 497.14,-84.8 497.14,-48.8 642.86,-48.8 642.86,-84.8"/>
<text text-anchor="middle" x="570" y="-62.6" font-family="Times,serif" font-size="14.00">SafeAccessComponent</text>
</g>
<!-- SafeAccessModule -->
<g id="node3" class="node">
<title>SafeAccessModule</title>
<polygon fill="#8dd3c7" stroke="black" points="371.08,-149.8 368.08,-153.8 347.08,-153.8 344.08,-149.8 246.92,-149.8 246.92,-113.8 371.08,-113.8 371.08,-149.8"/>
<text text-anchor="middle" x="309" y="-127.6" font-family="Times,serif" font-size="14.00">SafeAccessModule</text>
</g>
<!-- SafeAccessComponent&#45;&gt;SafeAccessModule -->
<g id="edge1" class="edge">
<title>SafeAccessComponent&#45;&gt;SafeAccessModule</title>
<path fill="none" stroke="black" d="M570,-84.91C570,-104.14 570,-131.8 570,-131.8 570,-131.8 381.18,-131.8 381.18,-131.8"/>
<polygon fill="black" stroke="black" points="381.18,-128.3 371.18,-131.8 381.18,-135.3 381.18,-128.3"/>
</g>
<!-- SafeEditAccessComponent -->
<g id="node2" class="node">
<title>SafeEditAccessComponent</title>
<polygon fill="#ffffb3" stroke="black" points="478.69,-84.8 309.31,-84.8 309.31,-48.8 478.69,-48.8 478.69,-84.8"/>
<text text-anchor="middle" x="394" y="-62.6" font-family="Times,serif" font-size="14.00">SafeEditAccessComponent</text>
</g>
<!-- SafeEditAccessComponent&#45;&gt;SafeAccessModule -->
<g id="edge2" class="edge">
<title>SafeEditAccessComponent&#45;&gt;SafeAccessModule</title>
<path fill="none" stroke="black" d="M340.22,-84.91C340.22,-84.91 340.22,-103.79 340.22,-103.79"/>
<polygon fill="black" stroke="black" points="336.72,-103.79 340.22,-113.79 343.72,-103.79 336.72,-103.79"/>
</g>
<!-- SafeAccessComponent  -->
<g id="node6" class="node">
<title>SafeAccessComponent </title>
<polygon fill="#fb8072" stroke="black" points="383.86,-214.8 234.14,-214.8 234.14,-178.8 383.86,-178.8 383.86,-214.8"/>
<text text-anchor="middle" x="309" y="-192.6" font-family="Times,serif" font-size="14.00">SafeAccessComponent </text>
</g>
<!-- SafeAccessModule&#45;&gt;SafeAccessComponent  -->
<g id="edge5" class="edge">
<title>SafeAccessModule&#45;&gt;SafeAccessComponent </title>
<path fill="none" stroke="black" stroke-dasharray="5,2" d="M309,-149.91C309,-149.91 309,-168.79 309,-168.79"/>
<polygon fill="black" stroke="black" points="305.5,-168.79 309,-178.79 312.5,-168.79 305.5,-168.79"/>
</g>
<!-- SafeButtonModule -->
<g id="node4" class="node">
<title>SafeButtonModule</title>
<polygon fill="#8dd3c7" stroke="black" points="285.05,-84.8 282.05,-88.8 261.05,-88.8 258.05,-84.8 162.95,-84.8 162.95,-48.8 285.05,-48.8 285.05,-84.8"/>
<text text-anchor="middle" x="224" y="-62.6" font-family="Times,serif" font-size="14.00">SafeButtonModule</text>
</g>
<!-- SafeButtonModule&#45;&gt;SafeAccessModule -->
<g id="edge3" class="edge">
<title>SafeButtonModule&#45;&gt;SafeAccessModule</title>
<path fill="none" stroke="black" d="M266.12,-84.91C266.12,-84.91 266.12,-103.79 266.12,-103.79"/>
<polygon fill="black" stroke="black" points="262.62,-103.79 266.12,-113.79 269.62,-103.79 262.62,-103.79"/>
</g>
<!-- SafeModalModule -->
<g id="node5" class="node">
<title>SafeModalModule</title>
<polygon fill="#8dd3c7" stroke="black" points="144.48,-84.8 141.48,-88.8 120.48,-88.8 117.48,-84.8 23.52,-84.8 23.52,-48.8 144.48,-48.8 144.48,-84.8"/>
<text text-anchor="middle" x="84" y="-62.6" font-family="Times,serif" font-size="14.00">SafeModalModule</text>
</g>
<!-- SafeModalModule&#45;&gt;SafeAccessModule -->
<g id="edge4" class="edge">
<title>SafeModalModule&#45;&gt;SafeAccessModule</title>
<path fill="none" stroke="black" d="M84,-84.91C84,-104.14 84,-131.8 84,-131.8 84,-131.8 236.92,-131.8 236.92,-131.8"/>
<polygon fill="black" stroke="black" points="236.92,-135.3 246.92,-131.8 236.92,-128.3 236.92,-135.3"/>
</g>
</g>
</svg>
