<?xml version="1.0" encoding="UTF-8" standalone="no"?>
<!DOCTYPE svg PUBLIC "-//W3C//DTD SVG 1.1//EN"
 "http://www.w3.org/Graphics/SVG/1.1/DTD/svg11.dtd">
<!-- Generated by graphviz version 3.0.0 (20220226.1711)
 -->
<!-- Title: dependencies Pages: 1 -->
<svg width="470pt" height="174pt"
 viewBox="0.00 0.00 470.00 173.80" xmlns="http://www.w3.org/2000/svg" xmlns:xlink="http://www.w3.org/1999/xlink">
<g id="graph0" class="graph" transform="scale(1 1) rotate(0) translate(4 169.8)">
<title>dependencies</title>
<polygon fill="white" stroke="transparent" points="-4,4 -4,-169.8 466,-169.8 466,4 -4,4"/>
<text text-anchor="middle" x="231" y="-8.2" font-family="sans-serif" font-size="14.00">dependencies</text>
<g id="clust1" class="cluster">
<title>cluster_SettingsModule</title>
<polygon fill="none" stroke="black" stroke-dasharray="1,5" points="8,-32.8 8,-157.8 454,-157.8 454,-32.8 8,-32.8"/>
</g>
<g id="clust2" class="cluster">
<title>cluster_SettingsModule_declarations</title>
<polygon fill="none" stroke="black" points="304,-40.8 304,-92.8 446,-92.8 446,-40.8 304,-40.8"/>
</g>
<g id="clust4" class="cluster">
<title>cluster_SettingsModule_imports</title>
<polygon fill="none" stroke="black" points="16,-40.8 16,-92.8 296,-92.8 296,-40.8 16,-40.8"/>
</g>
<!-- SettingsComponent -->
<g id="node1" class="node">
<title>SettingsComponent</title>
<polygon fill="#ffffb3" stroke="black" points="438.45,-84.8 311.55,-84.8 311.55,-48.8 438.45,-48.8 438.45,-84.8"/>
<text text-anchor="middle" x="375" y="-62.6" font-family="Times,serif" font-size="14.00">SettingsComponent</text>
</g>
<!-- SettingsModule -->
<g id="node2" class="node">
<title>SettingsModule</title>
<polygon fill="#8dd3c7" stroke="black" points="292.17,-149.8 289.17,-153.8 268.17,-153.8 265.17,-149.8 187.83,-149.8 187.83,-113.8 292.17,-113.8 292.17,-149.8"/>
<text text-anchor="middle" x="240" y="-127.6" font-family="Times,serif" font-size="14.00">SettingsModule</text>
</g>
<!-- SettingsComponent&#45;&gt;SettingsModule -->
<g id="edge1" class="edge">
<title>SettingsComponent&#45;&gt;SettingsModule</title>
<path fill="none" stroke="black" d="M375,-84.91C375,-104.14 375,-131.8 375,-131.8 375,-131.8 302.19,-131.8 302.19,-131.8"/>
<polygon fill="black" stroke="black" points="302.19,-128.3 292.19,-131.8 302.19,-135.3 302.19,-128.3"/>
</g>
<!-- FormsModule -->
<g id="node3" class="node">
<title>FormsModule</title>
<polygon fill="#8dd3c7" stroke="black" points="287.84,-84.8 284.84,-88.8 263.84,-88.8 260.84,-84.8 192.16,-84.8 192.16,-48.8 287.84,-48.8 287.84,-84.8"/>
<text text-anchor="middle" x="240" y="-62.6" font-family="Times,serif" font-size="14.00">FormsModule</text>
</g>
<!-- FormsModule&#45;&gt;SettingsModule -->
<g id="edge2" class="edge">
<title>FormsModule&#45;&gt;SettingsModule</title>
<path fill="none" stroke="black" d="M240,-84.91C240,-84.91 240,-103.79 240,-103.79"/>
<polygon fill="black" stroke="black" points="236.5,-103.79 240,-113.79 243.5,-103.79 236.5,-103.79"/>
</g>
<!-- SettingsRoutingModule -->
<g id="node4" class="node">
<title>SettingsRoutingModule</title>
<polygon fill="#8dd3c7" stroke="black" points="173.79,-84.8 170.79,-88.8 149.79,-88.8 146.79,-84.8 24.21,-84.8 24.21,-48.8 173.79,-48.8 173.79,-84.8"/>
<text text-anchor="middle" x="99" y="-62.6" font-family="Times,serif" font-size="14.00">SettingsRoutingModule</text>
</g>
<!-- SettingsRoutingModule&#45;&gt;SettingsModule -->
<g id="edge3" class="edge">
<title>SettingsRoutingModule&#45;&gt;SettingsModule</title>
<path fill="none" stroke="black" d="M99,-84.91C99,-104.14 99,-131.8 99,-131.8 99,-131.8 177.5,-131.8 177.5,-131.8"/>
<polygon fill="black" stroke="black" points="177.5,-135.3 187.5,-131.8 177.5,-128.3 177.5,-135.3"/>
</g>
</g>
</svg>
