<?xml version="1.0" encoding="UTF-8" standalone="no"?>
<!DOCTYPE svg PUBLIC "-//W3C//DTD SVG 1.1//EN"
 "http://www.w3.org/Graphics/SVG/1.1/DTD/svg11.dtd">
<!-- Generated by graphviz version 3.0.0 (20220226.1711)
 -->
<!-- Title: dependencies Pages: 1 -->
<svg width="912pt" height="247pt"
 viewBox="0.00 0.00 912.00 246.80" xmlns="http://www.w3.org/2000/svg" xmlns:xlink="http://www.w3.org/1999/xlink">
<g id="graph0" class="graph" transform="scale(1 1) rotate(0) translate(4 242.8)">
<title>dependencies</title>
<polygon fill="white" stroke="transparent" points="-4,4 -4,-242.8 908,-242.8 908,4 -4,4"/>
<text text-anchor="middle" x="452" y="-8.2" font-family="sans-serif" font-size="14.00">dependencies</text>
<g id="clust1" class="cluster">
<title>cluster_SafeLayoutModule</title>
<polygon fill="none" stroke="black" stroke-dasharray="1,5" points="8,-32.8 8,-230.8 896,-230.8 896,-32.8 8,-32.8"/>
</g>
<g id="clust2" class="cluster">
<title>cluster_SafeLayoutModule_declarations</title>
<polygon fill="none" stroke="black" points="726,-40.8 726,-92.8 888,-92.8 888,-40.8 726,-40.8"/>
</g>
<g id="clust5" class="cluster">
<title>cluster_SafeLayoutModule_exports</title>
<polygon fill="none" stroke="black" points="403,-170.8 403,-222.8 569,-222.8 569,-170.8 403,-170.8"/>
</g>
<g id="clust4" class="cluster">
<title>cluster_SafeLayoutModule_imports</title>
<polygon fill="none" stroke="black" points="16,-40.8 16,-92.8 718,-92.8 718,-40.8 16,-40.8"/>
</g>
<!-- SafeLayoutComponent -->
<g id="node1" class="node">
<title>SafeLayoutComponent</title>
<polygon fill="#ffffb3" stroke="black" points="879.86,-84.8 734.14,-84.8 734.14,-48.8 879.86,-48.8 879.86,-84.8"/>
<text text-anchor="middle" x="807" y="-62.6" font-family="Times,serif" font-size="14.00">SafeLayoutComponent</text>
</g>
<!-- SafeLayoutModule -->
<g id="node2" class="node">
<title>SafeLayoutModule</title>
<polygon fill="#8dd3c7" stroke="black" points="548.08,-149.8 545.08,-153.8 524.08,-153.8 521.08,-149.8 423.92,-149.8 423.92,-113.8 548.08,-113.8 548.08,-149.8"/>
<text text-anchor="middle" x="486" y="-127.6" font-family="Times,serif" font-size="14.00">SafeLayoutModule</text>
</g>
<!-- SafeLayoutComponent&#45;&gt;SafeLayoutModule -->
<g id="edge1" class="edge">
<title>SafeLayoutComponent&#45;&gt;SafeLayoutModule</title>
<path fill="none" stroke="black" d="M807,-85.08C807,-106.12 807,-137.8 807,-137.8 807,-137.8 558.27,-137.8 558.27,-137.8"/>
<polygon fill="black" stroke="black" points="558.27,-134.3 548.27,-137.8 558.27,-141.3 558.27,-134.3"/>
</g>
<!-- SafeLayoutComponent  -->
<g id="node7" class="node">
<title>SafeLayoutComponent </title>
<polygon fill="#fb8072" stroke="black" points="560.86,-214.8 411.14,-214.8 411.14,-178.8 560.86,-178.8 560.86,-214.8"/>
<text text-anchor="middle" x="486" y="-192.6" font-family="Times,serif" font-size="14.00">SafeLayoutComponent </text>
</g>
<!-- SafeLayoutModule&#45;&gt;SafeLayoutComponent  -->
<g id="edge6" class="edge">
<title>SafeLayoutModule&#45;&gt;SafeLayoutComponent </title>
<path fill="none" stroke="black" stroke-dasharray="5,2" d="M486,-149.91C486,-149.91 486,-168.79 486,-168.79"/>
<polygon fill="black" stroke="black" points="482.5,-168.79 486,-178.79 489.5,-168.79 482.5,-168.79"/>
</g>
<!-- SafeButtonModule -->
<g id="node3" class="node">
<title>SafeButtonModule</title>
<polygon fill="#8dd3c7" stroke="black" points="710.05,-84.8 707.05,-88.8 686.05,-88.8 683.05,-84.8 587.95,-84.8 587.95,-48.8 710.05,-48.8 710.05,-84.8"/>
<text text-anchor="middle" x="649" y="-62.6" font-family="Times,serif" font-size="14.00">SafeButtonModule</text>
</g>
<!-- SafeButtonModule&#45;&gt;SafeLayoutModule -->
<g id="edge2" class="edge">
<title>SafeButtonModule&#45;&gt;SafeLayoutModule</title>
<path fill="none" stroke="black" d="M649,-84.82C649,-102.17 649,-125.8 649,-125.8 649,-125.8 558.09,-125.8 558.09,-125.8"/>
<polygon fill="black" stroke="black" points="558.09,-122.3 548.09,-125.8 558.09,-129.3 558.09,-122.3"/>
</g>
<!-- SafeConfirmModalModule -->
<g id="node4" class="node">
<title>SafeConfirmModalModule</title>
<polygon fill="#8dd3c7" stroke="black" points="570.42,-84.8 567.42,-88.8 546.42,-88.8 543.42,-84.8 401.58,-84.8 401.58,-48.8 570.42,-48.8 570.42,-84.8"/>
<text text-anchor="middle" x="486" y="-62.6" font-family="Times,serif" font-size="14.00">SafeConfirmModalModule</text>
</g>
<!-- SafeConfirmModalModule&#45;&gt;SafeLayoutModule -->
<g id="edge3" class="edge">
<title>SafeConfirmModalModule&#45;&gt;SafeLayoutModule</title>
<path fill="none" stroke="black" d="M486,-84.91C486,-84.91 486,-103.79 486,-103.79"/>
<polygon fill="black" stroke="black" points="482.5,-103.79 486,-113.79 489.5,-103.79 482.5,-103.79"/>
</g>
<!-- SafePreferencesModalModule -->
<g id="node5" class="node">
<title>SafePreferencesModalModule</title>
<polygon fill="#8dd3c7" stroke="black" points="384.27,-84.8 381.27,-88.8 360.27,-88.8 357.27,-84.8 197.73,-84.8 197.73,-48.8 384.27,-48.8 384.27,-84.8"/>
<text text-anchor="middle" x="291" y="-62.6" font-family="Times,serif" font-size="14.00">SafePreferencesModalModule</text>
</g>
<!-- SafePreferencesModalModule&#45;&gt;SafeLayoutModule -->
<g id="edge4" class="edge">
<title>SafePreferencesModalModule&#45;&gt;SafeLayoutModule</title>
<path fill="none" stroke="black" d="M291,-84.82C291,-102.17 291,-125.8 291,-125.8 291,-125.8 413.76,-125.8 413.76,-125.8"/>
<polygon fill="black" stroke="black" points="413.76,-129.3 423.76,-125.8 413.76,-122.3 413.76,-129.3"/>
</g>
<!-- SafeSearchMenuModule -->
<g id="node6" class="node">
<title>SafeSearchMenuModule</title>
<polygon fill="#8dd3c7" stroke="black" points="179.68,-84.8 176.68,-88.8 155.68,-88.8 152.68,-84.8 24.32,-84.8 24.32,-48.8 179.68,-48.8 179.68,-84.8"/>
<text text-anchor="middle" x="102" y="-62.6" font-family="Times,serif" font-size="14.00">SafeSearchMenuModule</text>
</g>
<!-- SafeSearchMenuModule&#45;&gt;SafeLayoutModule -->
<g id="edge5" class="edge">
<title>SafeSearchMenuModule&#45;&gt;SafeLayoutModule</title>
<path fill="none" stroke="black" d="M102,-85.08C102,-106.12 102,-137.8 102,-137.8 102,-137.8 413.88,-137.8 413.88,-137.8"/>
<polygon fill="black" stroke="black" points="413.88,-141.3 423.88,-137.8 413.88,-134.3 413.88,-141.3"/>
</g>
</g>
</svg>
