<?xml version="1.0" encoding="UTF-8" standalone="no"?>
<!DOCTYPE svg PUBLIC "-//W3C//DTD SVG 1.1//EN"
 "http://www.w3.org/Graphics/SVG/1.1/DTD/svg11.dtd">
<!-- Generated by graphviz version 3.0.0 (20220226.1711)
 -->
<!-- Title: dependencies Pages: 1 -->
<svg width="681pt" height="247pt"
 viewBox="0.00 0.00 681.00 246.80" xmlns="http://www.w3.org/2000/svg" xmlns:xlink="http://www.w3.org/1999/xlink">
<g id="graph0" class="graph" transform="scale(1 1) rotate(0) translate(4 242.8)">
<title>dependencies</title>
<polygon fill="white" stroke="transparent" points="-4,4 -4,-242.8 677,-242.8 677,4 -4,4"/>
<text text-anchor="middle" x="336.5" y="-8.2" font-family="sans-serif" font-size="14.00">dependencies</text>
<g id="clust1" class="cluster">
<title>cluster_SafeUsersModule</title>
<polygon fill="none" stroke="black" stroke-dasharray="1,5" points="8,-32.8 8,-230.8 665,-230.8 665,-32.8 8,-32.8"/>
</g>
<g id="clust5" class="cluster">
<title>cluster_SafeUsersModule_imports</title>
<polygon fill="none" stroke="black" points="352,-40.8 352,-92.8 657,-92.8 657,-40.8 352,-40.8"/>
</g>
<g id="clust6" class="cluster">
<title>cluster_SafeUsersModule_exports</title>
<polygon fill="none" stroke="black" points="267,-170.8 267,-222.8 425,-222.8 425,-170.8 267,-170.8"/>
</g>
<g id="clust2" class="cluster">
<title>cluster_SafeUsersModule_declarations</title>
<polygon fill="none" stroke="black" points="16,-40.8 16,-92.8 344,-92.8 344,-40.8 16,-40.8"/>
</g>
<!-- SafeEditUserComponent -->
<g id="node1" class="node">
<title>SafeEditUserComponent</title>
<polygon fill="#ffffb3" stroke="black" points="335.97,-84.8 180.03,-84.8 180.03,-48.8 335.97,-48.8 335.97,-84.8"/>
<text text-anchor="middle" x="258" y="-62.6" font-family="Times,serif" font-size="14.00">SafeEditUserComponent</text>
</g>
<!-- SafeUsersModule -->
<g id="node3" class="node">
<title>SafeUsersModule</title>
<polygon fill="#8dd3c7" stroke="black" points="404.31,-149.8 401.31,-153.8 380.31,-153.8 377.31,-149.8 287.69,-149.8 287.69,-113.8 404.31,-113.8 404.31,-149.8"/>
<text text-anchor="middle" x="346" y="-127.6" font-family="Times,serif" font-size="14.00">SafeUsersModule</text>
</g>
<!-- SafeEditUserComponent&#45;&gt;SafeUsersModule -->
<g id="edge1" class="edge">
<title>SafeEditUserComponent&#45;&gt;SafeUsersModule</title>
<path fill="none" stroke="black" d="M311.92,-84.91C311.92,-84.91 311.92,-103.79 311.92,-103.79"/>
<polygon fill="black" stroke="black" points="308.42,-103.79 311.92,-113.79 315.42,-103.79 308.42,-103.79"/>
</g>
<!-- SafeUsersComponent -->
<g id="node2" class="node">
<title>SafeUsersComponent</title>
<polygon fill="#ffffb3" stroke="black" points="162.09,-84.8 23.91,-84.8 23.91,-48.8 162.09,-48.8 162.09,-84.8"/>
<text text-anchor="middle" x="93" y="-62.6" font-family="Times,serif" font-size="14.00">SafeUsersComponent</text>
</g>
<!-- SafeUsersComponent&#45;&gt;SafeUsersModule -->
<g id="edge2" class="edge">
<title>SafeUsersComponent&#45;&gt;SafeUsersModule</title>
<path fill="none" stroke="black" d="M93,-84.91C93,-104.14 93,-131.8 93,-131.8 93,-131.8 277.64,-131.8 277.64,-131.8"/>
<polygon fill="black" stroke="black" points="277.64,-135.3 287.64,-131.8 277.64,-128.3 277.64,-135.3"/>
</g>
<!-- SafeUsersComponent  -->
<g id="node6" class="node">
<title>SafeUsersComponent </title>
<polygon fill="#fb8072" stroke="black" points="416.59,-214.8 275.41,-214.8 275.41,-178.8 416.59,-178.8 416.59,-214.8"/>
<text text-anchor="middle" x="346" y="-192.6" font-family="Times,serif" font-size="14.00">SafeUsersComponent </text>
</g>
<!-- SafeUsersModule&#45;&gt;SafeUsersComponent  -->
<g id="edge5" class="edge">
<title>SafeUsersModule&#45;&gt;SafeUsersComponent </title>
<path fill="none" stroke="black" stroke-dasharray="5,2" d="M346,-149.91C346,-149.91 346,-168.79 346,-168.79"/>
<polygon fill="black" stroke="black" points="342.5,-168.79 346,-178.79 349.5,-168.79 342.5,-168.79"/>
</g>
<!-- SafeButtonModule -->
<g id="node4" class="node">
<title>SafeButtonModule</title>
<polygon fill="#8dd3c7" stroke="black" points="649.05,-84.8 646.05,-88.8 625.05,-88.8 622.05,-84.8 526.95,-84.8 526.95,-48.8 649.05,-48.8 649.05,-84.8"/>
<text text-anchor="middle" x="588" y="-62.6" font-family="Times,serif" font-size="14.00">SafeButtonModule</text>
</g>
<!-- SafeButtonModule&#45;&gt;SafeUsersModule -->
<g id="edge3" class="edge">
<title>SafeButtonModule&#45;&gt;SafeUsersModule</title>
<path fill="none" stroke="black" d="M588,-84.91C588,-104.14 588,-131.8 588,-131.8 588,-131.8 414.27,-131.8 414.27,-131.8"/>
<polygon fill="black" stroke="black" points="414.27,-128.3 404.27,-131.8 414.27,-135.3 414.27,-128.3"/>
</g>
<!-- SafeInviteUsersModule -->
<g id="node5" class="node">
<title>SafeInviteUsersModule</title>
<polygon fill="#8dd3c7" stroke="black" points="508.47,-84.8 505.47,-88.8 484.47,-88.8 481.47,-84.8 359.53,-84.8 359.53,-48.8 508.47,-48.8 508.47,-84.8"/>
<text text-anchor="middle" x="434" y="-62.6" font-family="Times,serif" font-size="14.00">SafeInviteUsersModule</text>
</g>
<!-- SafeInviteUsersModule&#45;&gt;SafeUsersModule -->
<g id="edge4" class="edge">
<title>SafeInviteUsersModule&#45;&gt;SafeUsersModule</title>
<path fill="none" stroke="black" d="M381.84,-84.91C381.84,-84.91 381.84,-103.79 381.84,-103.79"/>
<polygon fill="black" stroke="black" points="378.34,-103.79 381.84,-113.79 385.34,-103.79 378.34,-103.79"/>
</g>
</g>
</svg>
