<?xml version="1.0" encoding="UTF-8" standalone="no"?>
<!DOCTYPE svg PUBLIC "-//W3C//DTD SVG 1.1//EN"
 "http://www.w3.org/Graphics/SVG/1.1/DTD/svg11.dtd">
<!-- Generated by graphviz version 3.0.0 (20220226.1711)
 -->
<!-- Title: dependencies Pages: 1 -->
<svg width="681pt" height="247pt"
 viewBox="0.00 0.00 681.00 246.80" xmlns="http://www.w3.org/2000/svg" xmlns:xlink="http://www.w3.org/1999/xlink">
<g id="graph0" class="graph" transform="scale(1 1) rotate(0) translate(4 242.8)">
<title>dependencies</title>
<polygon fill="white" stroke="transparent" points="-4,4 -4,-242.8 677,-242.8 677,4 -4,4"/>
<text text-anchor="middle" x="336.5" y="-8.2" font-family="sans-serif" font-size="14.00">dependencies</text>
<g id="clust1" class="cluster">
<title>cluster_SafeUsersModule</title>
<polygon fill="none" stroke="black" stroke-dasharray="1,5" points="8,-32.8 8,-230.8 665,-230.8 665,-32.8 8,-32.8"/>
</g>
<g id="clust2" class="cluster">
<title>cluster_SafeUsersModule_declarations</title>
<polygon fill="none" stroke="black" points="329,-40.8 329,-92.8 657,-92.8 657,-40.8 329,-40.8"/>
</g>
<g id="clust5" class="cluster">
<title>cluster_SafeUsersModule_imports</title>
<polygon fill="none" stroke="black" points="16,-40.8 16,-92.8 321,-92.8 321,-40.8 16,-40.8"/>
</g>
<g id="clust6" class="cluster">
<title>cluster_SafeUsersModule_exports</title>
<polygon fill="none" stroke="black" points="250,-170.8 250,-222.8 408,-222.8 408,-170.8 250,-170.8"/>
</g>
<!-- SafeEditUserComponent -->
<g id="node1" class="node">
<title>SafeEditUserComponent</title>
<polygon fill="#ffffb3" stroke="black" points="648.97,-84.8 493.03,-84.8 493.03,-48.8 648.97,-48.8 648.97,-84.8"/>
<text text-anchor="middle" x="571" y="-62.6" font-family="Times,serif" font-size="14.00">SafeEditUserComponent</text>
</g>
<!-- SafeUsersModule -->
<g id="node3" class="node">
<title>SafeUsersModule</title>
<polygon fill="#8dd3c7" stroke="black" points="387.31,-149.8 384.31,-153.8 363.31,-153.8 360.31,-149.8 270.69,-149.8 270.69,-113.8 387.31,-113.8 387.31,-149.8"/>
<text text-anchor="middle" x="329" y="-127.6" font-family="Times,serif" font-size="14.00">SafeUsersModule</text>
</g>
<!-- SafeEditUserComponent&#45;&gt;SafeUsersModule -->
<g id="edge1" class="edge">
<title>SafeEditUserComponent&#45;&gt;SafeUsersModule</title>
<path fill="none" stroke="black" d="M571,-84.91C571,-104.14 571,-131.8 571,-131.8 571,-131.8 397.27,-131.8 397.27,-131.8"/>
<polygon fill="black" stroke="black" points="397.27,-128.3 387.27,-131.8 397.27,-135.3 397.27,-128.3"/>
</g>
<!-- SafeUsersComponent -->
<g id="node2" class="node">
<title>SafeUsersComponent</title>
<polygon fill="#ffffb3" stroke="black" points="475.09,-84.8 336.91,-84.8 336.91,-48.8 475.09,-48.8 475.09,-84.8"/>
<text text-anchor="middle" x="406" y="-62.6" font-family="Times,serif" font-size="14.00">SafeUsersComponent</text>
</g>
<!-- SafeUsersComponent&#45;&gt;SafeUsersModule -->
<g id="edge2" class="edge">
<title>SafeUsersComponent&#45;&gt;SafeUsersModule</title>
<path fill="none" stroke="black" d="M362.06,-84.91C362.06,-84.91 362.06,-103.79 362.06,-103.79"/>
<polygon fill="black" stroke="black" points="358.56,-103.79 362.06,-113.79 365.56,-103.79 358.56,-103.79"/>
</g>
<!-- SafeUsersComponent  -->
<g id="node6" class="node">
<title>SafeUsersComponent </title>
<polygon fill="#fb8072" stroke="black" points="399.59,-214.8 258.41,-214.8 258.41,-178.8 399.59,-178.8 399.59,-214.8"/>
<text text-anchor="middle" x="329" y="-192.6" font-family="Times,serif" font-size="14.00">SafeUsersComponent </text>
</g>
<!-- SafeUsersModule&#45;&gt;SafeUsersComponent  -->
<g id="edge5" class="edge">
<title>SafeUsersModule&#45;&gt;SafeUsersComponent </title>
<path fill="none" stroke="black" stroke-dasharray="5,2" d="M329,-149.91C329,-149.91 329,-168.79 329,-168.79"/>
<polygon fill="black" stroke="black" points="325.5,-168.79 329,-178.79 332.5,-168.79 325.5,-168.79"/>
</g>
<!-- SafeButtonModule -->
<g id="node4" class="node">
<title>SafeButtonModule</title>
<polygon fill="#8dd3c7" stroke="black" points="313.05,-84.8 310.05,-88.8 289.05,-88.8 286.05,-84.8 190.95,-84.8 190.95,-48.8 313.05,-48.8 313.05,-84.8"/>
<text text-anchor="middle" x="252" y="-62.6" font-family="Times,serif" font-size="14.00">SafeButtonModule</text>
</g>
<!-- SafeButtonModule&#45;&gt;SafeUsersModule -->
<g id="edge3" class="edge">
<title>SafeButtonModule&#45;&gt;SafeUsersModule</title>
<path fill="none" stroke="black" d="M292.06,-84.91C292.06,-84.91 292.06,-103.79 292.06,-103.79"/>
<polygon fill="black" stroke="black" points="288.56,-103.79 292.06,-113.79 295.56,-103.79 288.56,-103.79"/>
</g>
<!-- SafeInviteUsersModule -->
<g id="node5" class="node">
<title>SafeInviteUsersModule</title>
<polygon fill="#8dd3c7" stroke="black" points="172.47,-84.8 169.47,-88.8 148.47,-88.8 145.47,-84.8 23.53,-84.8 23.53,-48.8 172.47,-48.8 172.47,-84.8"/>
<text text-anchor="middle" x="98" y="-62.6" font-family="Times,serif" font-size="14.00">SafeInviteUsersModule</text>
</g>
<!-- SafeInviteUsersModule&#45;&gt;SafeUsersModule -->
<g id="edge4" class="edge">
<title>SafeInviteUsersModule&#45;&gt;SafeUsersModule</title>
<path fill="none" stroke="black" d="M98,-84.91C98,-104.14 98,-131.8 98,-131.8 98,-131.8 260.71,-131.8 260.71,-131.8"/>
<polygon fill="black" stroke="black" points="260.71,-135.3 270.71,-131.8 260.71,-128.3 260.71,-135.3"/>
</g>
</g>
</svg>
