<?xml version="1.0" encoding="UTF-8" standalone="no"?>
<!DOCTYPE svg PUBLIC "-//W3C//DTD SVG 1.1//EN"
 "http://www.w3.org/Graphics/SVG/1.1/DTD/svg11.dtd">
<!-- Generated by graphviz version 3.0.0 (20220226.1711)
 -->
<!-- Title: dependencies Pages: 1 -->
<svg width="660pt" height="247pt"
 viewBox="0.00 0.00 660.00 246.80" xmlns="http://www.w3.org/2000/svg" xmlns:xlink="http://www.w3.org/1999/xlink">
<g id="graph0" class="graph" transform="scale(1 1) rotate(0) translate(4 242.8)">
<title>dependencies</title>
<polygon fill="white" stroke="transparent" points="-4,4 -4,-242.8 656,-242.8 656,4 -4,4"/>
<text text-anchor="middle" x="326" y="-8.2" font-family="sans-serif" font-size="14.00">dependencies</text>
<g id="clust1" class="cluster">
<title>cluster_SafeFilterModule</title>
<polygon fill="none" stroke="black" stroke-dasharray="1,5" points="8,-32.8 8,-230.8 644,-230.8 644,-32.8 8,-32.8"/>
</g>
<g id="clust2" class="cluster">
<title>cluster_SafeFilterModule_declarations</title>
<polygon fill="none" stroke="black" points="162,-40.8 162,-92.8 636,-92.8 636,-40.8 162,-40.8"/>
</g>
<g id="clust7" class="cluster">
<title>cluster_SafeFilterModule_exports</title>
<polygon fill="none" stroke="black" points="237,-170.8 237,-222.8 393,-222.8 393,-170.8 237,-170.8"/>
</g>
<g id="clust6" class="cluster">
<title>cluster_SafeFilterModule_imports</title>
<polygon fill="none" stroke="black" points="16,-40.8 16,-92.8 154,-92.8 154,-40.8 16,-40.8"/>
</g>
<!-- FilterGroupComponent -->
<g id="node1" class="node">
<title>FilterGroupComponent</title>
<polygon fill="#ffffb3" stroke="black" points="627.94,-84.8 480.06,-84.8 480.06,-48.8 627.94,-48.8 627.94,-84.8"/>
<text text-anchor="middle" x="554" y="-62.6" font-family="Times,serif" font-size="14.00">FilterGroupComponent</text>
</g>
<!-- SafeFilterModule -->
<g id="node4" class="node">
<title>SafeFilterModule</title>
<polygon fill="#8dd3c7" stroke="black" points="372.26,-149.8 369.26,-153.8 348.26,-153.8 345.26,-149.8 257.74,-149.8 257.74,-113.8 372.26,-113.8 372.26,-149.8"/>
<text text-anchor="middle" x="315" y="-127.6" font-family="Times,serif" font-size="14.00">SafeFilterModule</text>
</g>
<!-- FilterGroupComponent&#45;&gt;SafeFilterModule -->
<g id="edge1" class="edge">
<title>FilterGroupComponent&#45;&gt;SafeFilterModule</title>
<path fill="none" stroke="black" d="M554,-84.91C554,-104.14 554,-131.8 554,-131.8 554,-131.8 382.55,-131.8 382.55,-131.8"/>
<polygon fill="black" stroke="black" points="382.55,-128.3 372.55,-131.8 382.55,-135.3 382.55,-128.3"/>
</g>
<!-- FilterRowComponent -->
<g id="node2" class="node">
<title>FilterRowComponent</title>
<polygon fill="#ffffb3" stroke="black" points="462.11,-84.8 323.89,-84.8 323.89,-48.8 462.11,-48.8 462.11,-84.8"/>
<text text-anchor="middle" x="393" y="-62.6" font-family="Times,serif" font-size="14.00">FilterRowComponent</text>
</g>
<!-- FilterRowComponent&#45;&gt;SafeFilterModule -->
<g id="edge2" class="edge">
<title>FilterRowComponent&#45;&gt;SafeFilterModule</title>
<path fill="none" stroke="black" d="M348.16,-84.91C348.16,-84.91 348.16,-103.79 348.16,-103.79"/>
<polygon fill="black" stroke="black" points="344.66,-103.79 348.16,-113.79 351.66,-103.79 344.66,-103.79"/>
</g>
<!-- SafeFilterComponent -->
<g id="node3" class="node">
<title>SafeFilterComponent</title>
<polygon fill="#ffffb3" stroke="black" points="306.04,-84.8 169.96,-84.8 169.96,-48.8 306.04,-48.8 306.04,-84.8"/>
<text text-anchor="middle" x="238" y="-62.6" font-family="Times,serif" font-size="14.00">SafeFilterComponent</text>
</g>
<!-- SafeFilterComponent&#45;&gt;SafeFilterModule -->
<g id="edge3" class="edge">
<title>SafeFilterComponent&#45;&gt;SafeFilterModule</title>
<path fill="none" stroke="black" d="M281.94,-84.91C281.94,-84.91 281.94,-103.79 281.94,-103.79"/>
<polygon fill="black" stroke="black" points="278.44,-103.79 281.94,-113.79 285.44,-103.79 278.44,-103.79"/>
</g>
<!-- SafeFilterComponent  -->
<g id="node6" class="node">
<title>SafeFilterComponent </title>
<polygon fill="#fb8072" stroke="black" points="385.04,-214.8 244.96,-214.8 244.96,-178.8 385.04,-178.8 385.04,-214.8"/>
<text text-anchor="middle" x="315" y="-192.6" font-family="Times,serif" font-size="14.00">SafeFilterComponent </text>
</g>
<!-- SafeFilterModule&#45;&gt;SafeFilterComponent  -->
<g id="edge5" class="edge">
<title>SafeFilterModule&#45;&gt;SafeFilterComponent </title>
<path fill="none" stroke="black" stroke-dasharray="5,2" d="M315,-149.91C315,-149.91 315,-168.79 315,-168.79"/>
<polygon fill="black" stroke="black" points="311.5,-168.79 315,-178.79 318.5,-168.79 311.5,-168.79"/>
</g>
<!-- SafeButtonModule -->
<g id="node5" class="node">
<title>SafeButtonModule</title>
<polygon fill="#8dd3c7" stroke="black" points="146.05,-84.8 143.05,-88.8 122.05,-88.8 119.05,-84.8 23.95,-84.8 23.95,-48.8 146.05,-48.8 146.05,-84.8"/>
<text text-anchor="middle" x="85" y="-62.6" font-family="Times,serif" font-size="14.00">SafeButtonModule</text>
</g>
<!-- SafeButtonModule&#45;&gt;SafeFilterModule -->
<g id="edge4" class="edge">
<title>SafeButtonModule&#45;&gt;SafeFilterModule</title>
<path fill="none" stroke="black" d="M85,-84.91C85,-104.14 85,-131.8 85,-131.8 85,-131.8 247.55,-131.8 247.55,-131.8"/>
<polygon fill="black" stroke="black" points="247.55,-135.3 257.55,-131.8 247.55,-128.3 247.55,-135.3"/>
</g>
</g>
</svg>
