<?xml version="1.0" encoding="UTF-8" standalone="no"?>
<!DOCTYPE svg PUBLIC "-//W3C//DTD SVG 1.1//EN"
 "http://www.w3.org/Graphics/SVG/1.1/DTD/svg11.dtd">
<!-- Generated by graphviz version 3.0.0 (20220226.1711)
 -->
<!-- Title: dependencies Pages: 1 -->
<svg width="685pt" height="247pt"
 viewBox="0.00 0.00 685.00 246.80" xmlns="http://www.w3.org/2000/svg" xmlns:xlink="http://www.w3.org/1999/xlink">
<g id="graph0" class="graph" transform="scale(1 1) rotate(0) translate(4 242.8)">
<title>dependencies</title>
<polygon fill="white" stroke="transparent" points="-4,4 -4,-242.8 681,-242.8 681,4 -4,4"/>
<text text-anchor="middle" x="338.5" y="-8.2" font-family="sans-serif" font-size="14.00">dependencies</text>
<g id="clust1" class="cluster">
<title>cluster_SafeRoleListModule</title>
<polygon fill="none" stroke="black" stroke-dasharray="1,5" points="8,-32.8 8,-230.8 669,-230.8 669,-32.8 8,-32.8"/>
</g>
<g id="clust4" class="cluster">
<title>cluster_SafeRoleListModule_imports</title>
<polygon fill="none" stroke="black" points="194,-40.8 194,-92.8 661,-92.8 661,-40.8 194,-40.8"/>
</g>
<g id="clust2" class="cluster">
<title>cluster_SafeRoleListModule_declarations</title>
<polygon fill="none" stroke="black" points="16,-40.8 16,-92.8 186,-92.8 186,-40.8 16,-40.8"/>
</g>
<g id="clust5" class="cluster">
<title>cluster_SafeRoleListModule_exports</title>
<polygon fill="none" stroke="black" points="280,-170.8 280,-222.8 454,-222.8 454,-170.8 280,-170.8"/>
</g>
<!-- SafeRoleListComponent -->
<g id="node1" class="node">
<title>SafeRoleListComponent</title>
<polygon fill="#ffffb3" stroke="black" points="178.43,-84.8 23.57,-84.8 23.57,-48.8 178.43,-48.8 178.43,-84.8"/>
<text text-anchor="middle" x="101" y="-62.6" font-family="Times,serif" font-size="14.00">SafeRoleListComponent</text>
</g>
<!-- SafeRoleListModule -->
<g id="node2" class="node">
<title>SafeRoleListModule</title>
<polygon fill="#8dd3c7" stroke="black" points="433.15,-149.8 430.15,-153.8 409.15,-153.8 406.15,-149.8 300.85,-149.8 300.85,-113.8 433.15,-113.8 433.15,-149.8"/>
<text text-anchor="middle" x="367" y="-127.6" font-family="Times,serif" font-size="14.00">SafeRoleListModule</text>
</g>
<!-- SafeRoleListComponent&#45;&gt;SafeRoleListModule -->
<g id="edge1" class="edge">
<title>SafeRoleListComponent&#45;&gt;SafeRoleListModule</title>
<path fill="none" stroke="black" d="M101,-84.91C101,-104.14 101,-131.8 101,-131.8 101,-131.8 290.56,-131.8 290.56,-131.8"/>
<polygon fill="black" stroke="black" points="290.56,-135.3 300.56,-131.8 290.56,-128.3 290.56,-135.3"/>
</g>
<!-- SafeRoleListComponent  -->
<g id="node6" class="node">
<title>SafeRoleListComponent </title>
<polygon fill="#fb8072" stroke="black" points="445.93,-214.8 288.07,-214.8 288.07,-178.8 445.93,-178.8 445.93,-214.8"/>
<text text-anchor="middle" x="367" y="-192.6" font-family="Times,serif" font-size="14.00">SafeRoleListComponent </text>
</g>
<!-- SafeRoleListModule&#45;&gt;SafeRoleListComponent  -->
<g id="edge5" class="edge">
<title>SafeRoleListModule&#45;&gt;SafeRoleListComponent </title>
<path fill="none" stroke="black" stroke-dasharray="5,2" d="M367,-149.91C367,-149.91 367,-168.79 367,-168.79"/>
<polygon fill="black" stroke="black" points="363.5,-168.79 367,-178.79 370.5,-168.79 363.5,-168.79"/>
</g>
<!-- SafeButtonModule -->
<g id="node3" class="node">
<title>SafeButtonModule</title>
<polygon fill="#8dd3c7" stroke="black" points="653.05,-84.8 650.05,-88.8 629.05,-88.8 626.05,-84.8 530.95,-84.8 530.95,-48.8 653.05,-48.8 653.05,-84.8"/>
<text text-anchor="middle" x="592" y="-62.6" font-family="Times,serif" font-size="14.00">SafeButtonModule</text>
</g>
<!-- SafeButtonModule&#45;&gt;SafeRoleListModule -->
<g id="edge2" class="edge">
<title>SafeButtonModule&#45;&gt;SafeRoleListModule</title>
<path fill="none" stroke="black" d="M592,-84.91C592,-104.14 592,-131.8 592,-131.8 592,-131.8 443.29,-131.8 443.29,-131.8"/>
<polygon fill="black" stroke="black" points="443.29,-128.3 433.29,-131.8 443.29,-135.3 443.29,-128.3"/>
</g>
<!-- SafeDividerModule -->
<g id="node4" class="node">
<title>SafeDividerModule</title>
<polygon fill="#8dd3c7" stroke="black" points="512.69,-84.8 509.69,-88.8 488.69,-88.8 485.69,-84.8 385.31,-84.8 385.31,-48.8 512.69,-48.8 512.69,-84.8"/>
<text text-anchor="middle" x="449" y="-62.6" font-family="Times,serif" font-size="14.00">SafeDividerModule</text>
</g>
<!-- SafeDividerModule&#45;&gt;SafeRoleListModule -->
<g id="edge3" class="edge">
<title>SafeDividerModule&#45;&gt;SafeRoleListModule</title>
<path fill="none" stroke="black" d="M409.36,-84.91C409.36,-84.91 409.36,-103.79 409.36,-103.79"/>
<polygon fill="black" stroke="black" points="405.86,-103.79 409.36,-113.79 412.86,-103.79 405.86,-103.79"/>
</g>
<!-- SafeSkeletonTableModule -->
<g id="node5" class="node">
<title>SafeSkeletonTableModule</title>
<polygon fill="#8dd3c7" stroke="black" points="367.79,-84.8 364.79,-88.8 343.79,-88.8 340.79,-84.8 202.21,-84.8 202.21,-48.8 367.79,-48.8 367.79,-84.8"/>
<text text-anchor="middle" x="285" y="-62.6" font-family="Times,serif" font-size="14.00">SafeSkeletonTableModule</text>
</g>
<!-- SafeSkeletonTableModule&#45;&gt;SafeRoleListModule -->
<g id="edge4" class="edge">
<title>SafeSkeletonTableModule&#45;&gt;SafeRoleListModule</title>
<path fill="none" stroke="black" d="M334.16,-84.91C334.16,-84.91 334.16,-103.79 334.16,-103.79"/>
<polygon fill="black" stroke="black" points="330.66,-103.79 334.16,-113.79 337.66,-103.79 330.66,-103.79"/>
</g>
</g>
</svg>
