<?xml version="1.0" encoding="UTF-8" standalone="no"?>
<!DOCTYPE svg PUBLIC "-//W3C//DTD SVG 1.1//EN"
 "http://www.w3.org/Graphics/SVG/1.1/DTD/svg11.dtd">
<!-- Generated by graphviz version 3.0.0 (20220226.1711)
 -->
<!-- Title: dependencies Pages: 1 -->
<svg width="685pt" height="247pt"
 viewBox="0.00 0.00 685.00 246.80" xmlns="http://www.w3.org/2000/svg" xmlns:xlink="http://www.w3.org/1999/xlink">
<g id="graph0" class="graph" transform="scale(1 1) rotate(0) translate(4 242.8)">
<title>dependencies</title>
<polygon fill="white" stroke="transparent" points="-4,4 -4,-242.8 681,-242.8 681,4 -4,4"/>
<text text-anchor="middle" x="338.5" y="-8.2" font-family="sans-serif" font-size="14.00">dependencies</text>
<g id="clust1" class="cluster">
<title>cluster_SafeRoleListModule</title>
<polygon fill="none" stroke="black" stroke-dasharray="1,5" points="8,-32.8 8,-230.8 669,-230.8 669,-32.8 8,-32.8"/>
</g>
<g id="clust5" class="cluster">
<title>cluster_SafeRoleListModule_exports</title>
<polygon fill="none" stroke="black" points="255,-170.8 255,-222.8 429,-222.8 429,-170.8 255,-170.8"/>
</g>
<g id="clust2" class="cluster">
<title>cluster_SafeRoleListModule_declarations</title>
<polygon fill="none" stroke="black" points="491,-40.8 491,-92.8 661,-92.8 661,-40.8 491,-40.8"/>
</g>
<g id="clust4" class="cluster">
<title>cluster_SafeRoleListModule_imports</title>
<polygon fill="none" stroke="black" points="16,-40.8 16,-92.8 483,-92.8 483,-40.8 16,-40.8"/>
</g>
<!-- SafeRoleListComponent -->
<g id="node1" class="node">
<title>SafeRoleListComponent</title>
<polygon fill="#ffffb3" stroke="black" points="653.43,-84.8 498.57,-84.8 498.57,-48.8 653.43,-48.8 653.43,-84.8"/>
<text text-anchor="middle" x="576" y="-62.6" font-family="Times,serif" font-size="14.00">SafeRoleListComponent</text>
</g>
<!-- SafeRoleListModule -->
<g id="node2" class="node">
<title>SafeRoleListModule</title>
<polygon fill="#8dd3c7" stroke="black" points="408.15,-149.8 405.15,-153.8 384.15,-153.8 381.15,-149.8 275.85,-149.8 275.85,-113.8 408.15,-113.8 408.15,-149.8"/>
<text text-anchor="middle" x="342" y="-127.6" font-family="Times,serif" font-size="14.00">SafeRoleListModule</text>
</g>
<!-- SafeRoleListComponent&#45;&gt;SafeRoleListModule -->
<g id="edge1" class="edge">
<title>SafeRoleListComponent&#45;&gt;SafeRoleListModule</title>
<path fill="none" stroke="black" d="M576,-84.91C576,-104.14 576,-131.8 576,-131.8 576,-131.8 418.43,-131.8 418.43,-131.8"/>
<polygon fill="black" stroke="black" points="418.43,-128.3 408.43,-131.8 418.43,-135.3 418.43,-128.3"/>
</g>
<!-- SafeRoleListComponent  -->
<g id="node6" class="node">
<title>SafeRoleListComponent </title>
<polygon fill="#fb8072" stroke="black" points="420.93,-214.8 263.07,-214.8 263.07,-178.8 420.93,-178.8 420.93,-214.8"/>
<text text-anchor="middle" x="342" y="-192.6" font-family="Times,serif" font-size="14.00">SafeRoleListComponent </text>
</g>
<!-- SafeRoleListModule&#45;&gt;SafeRoleListComponent  -->
<g id="edge5" class="edge">
<title>SafeRoleListModule&#45;&gt;SafeRoleListComponent </title>
<path fill="none" stroke="black" stroke-dasharray="5,2" d="M342,-149.91C342,-149.91 342,-168.79 342,-168.79"/>
<polygon fill="black" stroke="black" points="338.5,-168.79 342,-178.79 345.5,-168.79 338.5,-168.79"/>
</g>
<!-- SafeButtonModule -->
<g id="node3" class="node">
<title>SafeButtonModule</title>
<polygon fill="#8dd3c7" stroke="black" points="475.05,-84.8 472.05,-88.8 451.05,-88.8 448.05,-84.8 352.95,-84.8 352.95,-48.8 475.05,-48.8 475.05,-84.8"/>
<text text-anchor="middle" x="414" y="-62.6" font-family="Times,serif" font-size="14.00">SafeButtonModule</text>
</g>
<!-- SafeButtonModule&#45;&gt;SafeRoleListModule -->
<g id="edge2" class="edge">
<title>SafeButtonModule&#45;&gt;SafeRoleListModule</title>
<path fill="none" stroke="black" d="M380.53,-84.91C380.53,-84.91 380.53,-103.79 380.53,-103.79"/>
<polygon fill="black" stroke="black" points="377.03,-103.79 380.53,-113.79 384.03,-103.79 377.03,-103.79"/>
</g>
<!-- SafeDividerModule -->
<g id="node4" class="node">
<title>SafeDividerModule</title>
<polygon fill="#8dd3c7" stroke="black" points="334.69,-84.8 331.69,-88.8 310.69,-88.8 307.69,-84.8 207.31,-84.8 207.31,-48.8 334.69,-48.8 334.69,-84.8"/>
<text text-anchor="middle" x="271" y="-62.6" font-family="Times,serif" font-size="14.00">SafeDividerModule</text>
</g>
<!-- SafeDividerModule&#45;&gt;SafeRoleListModule -->
<g id="edge3" class="edge">
<title>SafeDividerModule&#45;&gt;SafeRoleListModule</title>
<path fill="none" stroke="black" d="M305.14,-84.91C305.14,-84.91 305.14,-103.79 305.14,-103.79"/>
<polygon fill="black" stroke="black" points="301.64,-103.79 305.14,-113.79 308.64,-103.79 301.64,-103.79"/>
</g>
<!-- SafeSkeletonTableModule -->
<g id="node5" class="node">
<title>SafeSkeletonTableModule</title>
<polygon fill="#8dd3c7" stroke="black" points="189.79,-84.8 186.79,-88.8 165.79,-88.8 162.79,-84.8 24.21,-84.8 24.21,-48.8 189.79,-48.8 189.79,-84.8"/>
<text text-anchor="middle" x="107" y="-62.6" font-family="Times,serif" font-size="14.00">SafeSkeletonTableModule</text>
</g>
<!-- SafeSkeletonTableModule&#45;&gt;SafeRoleListModule -->
<g id="edge4" class="edge">
<title>SafeSkeletonTableModule&#45;&gt;SafeRoleListModule</title>
<path fill="none" stroke="black" d="M107,-84.91C107,-104.14 107,-131.8 107,-131.8 107,-131.8 265.6,-131.8 265.6,-131.8"/>
<polygon fill="black" stroke="black" points="265.6,-135.3 275.6,-131.8 265.6,-128.3 265.6,-135.3"/>
</g>
</g>
</svg>
