<?xml version="1.0" encoding="UTF-8" standalone="no"?>
<!DOCTYPE svg PUBLIC "-//W3C//DTD SVG 1.1//EN"
 "http://www.w3.org/Graphics/SVG/1.1/DTD/svg11.dtd">
<!-- Generated by graphviz version 3.0.0 (20220226.1711)
 -->
<!-- Title: dependencies Pages: 1 -->
<svg width="1280pt" height="247pt"
 viewBox="0.00 0.00 1280.00 246.80" xmlns="http://www.w3.org/2000/svg" xmlns:xlink="http://www.w3.org/1999/xlink">
<g id="graph0" class="graph" transform="scale(1 1) rotate(0) translate(4 242.8)">
<title>dependencies</title>
<polygon fill="white" stroke="transparent" points="-4,4 -4,-242.8 1276,-242.8 1276,4 -4,4"/>
<text text-anchor="middle" x="636" y="-8.2" font-family="sans-serif" font-size="14.00">dependencies</text>
<g id="clust1" class="cluster">
<title>cluster_SafeChartModule</title>
<polygon fill="none" stroke="black" stroke-dasharray="1,5" points="8,-32.8 8,-230.8 1264,-230.8 1264,-32.8 8,-32.8"/>
</g>
<g id="clust4" class="cluster">
<title>cluster_SafeChartModule_imports</title>
<polygon fill="none" stroke="black" points="178,-40.8 178,-92.8 1256,-92.8 1256,-40.8 178,-40.8"/>
</g>
<g id="clust2" class="cluster">
<title>cluster_SafeChartModule_declarations</title>
<polygon fill="none" stroke="black" points="16,-40.8 16,-92.8 170,-92.8 170,-40.8 16,-40.8"/>
</g>
<g id="clust5" class="cluster">
<title>cluster_SafeChartModule_exports</title>
<polygon fill="none" stroke="black" points="547,-170.8 547,-222.8 703,-222.8 703,-170.8 547,-170.8"/>
</g>
<!-- SafeChartComponent -->
<g id="node1" class="node">
<title>SafeChartComponent</title>
<polygon fill="#ffffb3" stroke="black" points="161.81,-84.8 24.19,-84.8 24.19,-48.8 161.81,-48.8 161.81,-84.8"/>
<text text-anchor="middle" x="93" y="-62.6" font-family="Times,serif" font-size="14.00">SafeChartComponent</text>
</g>
<!-- SafeChartModule -->
<g id="node2" class="node">
<title>SafeChartModule</title>
<polygon fill="#8dd3c7" stroke="black" points="682.53,-149.8 679.53,-153.8 658.53,-153.8 655.53,-149.8 567.47,-149.8 567.47,-113.8 682.53,-113.8 682.53,-149.8"/>
<text text-anchor="middle" x="625" y="-127.6" font-family="Times,serif" font-size="14.00">SafeChartModule</text>
</g>
<!-- SafeChartComponent&#45;&gt;SafeChartModule -->
<g id="edge1" class="edge">
<title>SafeChartComponent&#45;&gt;SafeChartModule</title>
<path fill="none" stroke="black" d="M93,-85.09C93,-107.01 93,-140.8 93,-140.8 93,-140.8 557.31,-140.8 557.31,-140.8"/>
<polygon fill="black" stroke="black" points="557.31,-144.3 567.31,-140.8 557.31,-137.3 557.31,-144.3"/>
</g>
<!-- SafeChartComponent  -->
<g id="node10" class="node">
<title>SafeChartComponent </title>
<polygon fill="#fb8072" stroke="black" points="695.31,-214.8 554.69,-214.8 554.69,-178.8 695.31,-178.8 695.31,-214.8"/>
<text text-anchor="middle" x="625" y="-192.6" font-family="Times,serif" font-size="14.00">SafeChartComponent </text>
</g>
<!-- SafeChartModule&#45;&gt;SafeChartComponent  -->
<g id="edge9" class="edge">
<title>SafeChartModule&#45;&gt;SafeChartComponent </title>
<path fill="none" stroke="black" stroke-dasharray="5,2" d="M625,-149.91C625,-149.91 625,-168.79 625,-168.79"/>
<polygon fill="black" stroke="black" points="621.5,-168.79 625,-178.79 628.5,-168.79 621.5,-168.79"/>
</g>
<!-- SafeBarChartModule -->
<g id="node3" class="node">
<title>SafeBarChartModule</title>
<polygon fill="#8dd3c7" stroke="black" points="1247.75,-84.8 1244.75,-88.8 1223.75,-88.8 1220.75,-84.8 1112.25,-84.8 1112.25,-48.8 1247.75,-48.8 1247.75,-84.8"/>
<text text-anchor="middle" x="1180" y="-62.6" font-family="Times,serif" font-size="14.00">SafeBarChartModule</text>
</g>
<!-- SafeBarChartModule&#45;&gt;SafeChartModule -->
<g id="edge2" class="edge">
<title>SafeBarChartModule&#45;&gt;SafeChartModule</title>
<path fill="none" stroke="black" d="M1180,-85.09C1180,-107.01 1180,-140.8 1180,-140.8 1180,-140.8 692.56,-140.8 692.56,-140.8"/>
<polygon fill="black" stroke="black" points="692.56,-137.3 682.56,-140.8 692.56,-144.3 692.56,-137.3"/>
</g>
<!-- SafeButtonModule -->
<g id="node4" class="node">
<title>SafeButtonModule</title>
<polygon fill="#8dd3c7" stroke="black" points="1094.05,-84.8 1091.05,-88.8 1070.05,-88.8 1067.05,-84.8 971.95,-84.8 971.95,-48.8 1094.05,-48.8 1094.05,-84.8"/>
<text text-anchor="middle" x="1033" y="-62.6" font-family="Times,serif" font-size="14.00">SafeButtonModule</text>
</g>
<!-- SafeButtonModule&#45;&gt;SafeChartModule -->
<g id="edge3" class="edge">
<title>SafeButtonModule&#45;&gt;SafeChartModule</title>
<path fill="none" stroke="black" d="M1033,-84.91C1033,-104.14 1033,-131.8 1033,-131.8 1033,-131.8 692.59,-131.8 692.59,-131.8"/>
<polygon fill="black" stroke="black" points="692.59,-128.3 682.59,-131.8 692.59,-135.3 692.59,-128.3"/>
</g>
<!-- SafeColumnChartModule -->
<g id="node5" class="node">
<title>SafeColumnChartModule</title>
<polygon fill="#8dd3c7" stroke="black" points="953.15,-84.8 950.15,-88.8 929.15,-88.8 926.15,-84.8 792.85,-84.8 792.85,-48.8 953.15,-48.8 953.15,-84.8"/>
<text text-anchor="middle" x="873" y="-62.6" font-family="Times,serif" font-size="14.00">SafeColumnChartModule</text>
</g>
<!-- SafeColumnChartModule&#45;&gt;SafeChartModule -->
<g id="edge4" class="edge">
<title>SafeColumnChartModule&#45;&gt;SafeChartModule</title>
<path fill="none" stroke="black" d="M873,-84.83C873,-101.2 873,-122.8 873,-122.8 873,-122.8 692.83,-122.8 692.83,-122.8"/>
<polygon fill="black" stroke="black" points="692.83,-119.3 682.83,-122.8 692.83,-126.3 692.83,-119.3"/>
</g>
<!-- SafeDonutChartModule -->
<g id="node6" class="node">
<title>SafeDonutChartModule</title>
<polygon fill="#8dd3c7" stroke="black" points="774.03,-84.8 771.03,-88.8 750.03,-88.8 747.03,-84.8 623.97,-84.8 623.97,-48.8 774.03,-48.8 774.03,-84.8"/>
<text text-anchor="middle" x="699" y="-62.6" font-family="Times,serif" font-size="14.00">SafeDonutChartModule</text>
</g>
<!-- SafeDonutChartModule&#45;&gt;SafeChartModule -->
<g id="edge5" class="edge">
<title>SafeDonutChartModule&#45;&gt;SafeChartModule</title>
<path fill="none" stroke="black" d="M653.25,-84.91C653.25,-84.91 653.25,-103.79 653.25,-103.79"/>
<polygon fill="black" stroke="black" points="649.75,-103.79 653.25,-113.79 656.75,-103.79 649.75,-103.79"/>
</g>
<!-- SafeIconModule -->
<g id="node7" class="node">
<title>SafeIconModule</title>
<polygon fill="#8dd3c7" stroke="black" points="605.8,-84.8 602.8,-88.8 581.8,-88.8 578.8,-84.8 496.2,-84.8 496.2,-48.8 605.8,-48.8 605.8,-84.8"/>
<text text-anchor="middle" x="551" y="-62.6" font-family="Times,serif" font-size="14.00">SafeIconModule</text>
</g>
<!-- SafeIconModule&#45;&gt;SafeChartModule -->
<g id="edge6" class="edge">
<title>SafeIconModule&#45;&gt;SafeChartModule</title>
<path fill="none" stroke="black" d="M586.44,-84.91C586.44,-84.91 586.44,-103.79 586.44,-103.79"/>
<polygon fill="black" stroke="black" points="582.94,-103.79 586.44,-113.79 589.94,-103.79 582.94,-103.79"/>
</g>
<!-- SafeLineChartModule -->
<g id="node8" class="node">
<title>SafeLineChartModule</title>
<polygon fill="#8dd3c7" stroke="black" points="478.69,-84.8 475.69,-88.8 454.69,-88.8 451.69,-84.8 337.31,-84.8 337.31,-48.8 478.69,-48.8 478.69,-84.8"/>
<text text-anchor="middle" x="408" y="-62.6" font-family="Times,serif" font-size="14.00">SafeLineChartModule</text>
</g>
<!-- SafeLineChartModule&#45;&gt;SafeChartModule -->
<g id="edge7" class="edge">
<title>SafeLineChartModule&#45;&gt;SafeChartModule</title>
<path fill="none" stroke="black" d="M408,-84.83C408,-101.2 408,-122.8 408,-122.8 408,-122.8 557.42,-122.8 557.42,-122.8"/>
<polygon fill="black" stroke="black" points="557.42,-126.3 567.42,-122.8 557.42,-119.3 557.42,-126.3"/>
</g>
<!-- SafePieChartModule -->
<g id="node9" class="node">
<title>SafePieChartModule</title>
<polygon fill="#8dd3c7" stroke="black" points="319.92,-84.8 316.92,-88.8 295.92,-88.8 292.92,-84.8 186.08,-84.8 186.08,-48.8 319.92,-48.8 319.92,-84.8"/>
<text text-anchor="middle" x="253" y="-62.6" font-family="Times,serif" font-size="14.00">SafePieChartModule</text>
</g>
<!-- SafePieChartModule&#45;&gt;SafeChartModule -->
<g id="edge8" class="edge">
<title>SafePieChartModule&#45;&gt;SafeChartModule</title>
<path fill="none" stroke="black" d="M253,-84.91C253,-104.14 253,-131.8 253,-131.8 253,-131.8 557.28,-131.8 557.28,-131.8"/>
<polygon fill="black" stroke="black" points="557.28,-135.3 567.28,-131.8 557.28,-128.3 557.28,-135.3"/>
</g>
</g>
</svg>
