<?xml version="1.0" encoding="UTF-8" standalone="no"?>
<!DOCTYPE svg PUBLIC "-//W3C//DTD SVG 1.1//EN"
 "http://www.w3.org/Graphics/SVG/1.1/DTD/svg11.dtd">
<!-- Generated by graphviz version 3.0.0 (20220226.1711)
 -->
<!-- Title: dependencies Pages: 1 -->
<svg width="1494pt" height="247pt"
 viewBox="0.00 0.00 1494.00 246.80" xmlns="http://www.w3.org/2000/svg" xmlns:xlink="http://www.w3.org/1999/xlink">
<g id="graph0" class="graph" transform="scale(1 1) rotate(0) translate(4 242.8)">
<title>dependencies</title>
<polygon fill="white" stroke="transparent" points="-4,4 -4,-242.8 1490,-242.8 1490,4 -4,4"/>
<text text-anchor="middle" x="743" y="-8.2" font-family="sans-serif" font-size="14.00">dependencies</text>
<g id="clust1" class="cluster">
<title>cluster_RoleResourcesModule</title>
<polygon fill="none" stroke="black" stroke-dasharray="1,5" points="8,-32.8 8,-230.8 1478,-230.8 1478,-32.8 8,-32.8"/>
</g>
<g id="clust2" class="cluster">
<title>cluster_RoleResourcesModule_declarations</title>
<polygon fill="none" stroke="black" points="735,-40.8 735,-92.8 1470,-92.8 1470,-40.8 735,-40.8"/>
</g>
<g id="clust7" class="cluster">
<title>cluster_RoleResourcesModule_imports</title>
<polygon fill="none" stroke="black" points="16,-40.8 16,-92.8 727,-92.8 727,-40.8 16,-40.8"/>
</g>
<g id="clust8" class="cluster">
<title>cluster_RoleResourcesModule_exports</title>
<polygon fill="none" stroke="black" points="566,-170.8 566,-222.8 750,-222.8 750,-170.8 566,-170.8"/>
</g>
<!-- FilterComponent -->
<g id="node1" class="node">
<title>FilterComponent</title>
<polygon fill="#ffffb3" stroke="black" points="1461.66,-84.8 1350.34,-84.8 1350.34,-48.8 1461.66,-48.8 1461.66,-84.8"/>
<text text-anchor="middle" x="1406" y="-62.6" font-family="Times,serif" font-size="14.00">FilterComponent</text>
</g>
<!-- RoleResourcesModule -->
<g id="node5" class="node">
<title>RoleResourcesModule</title>
<polygon fill="#8dd3c7" stroke="black" points="729.53,-149.8 726.53,-153.8 705.53,-153.8 702.53,-149.8 586.47,-149.8 586.47,-113.8 729.53,-113.8 729.53,-149.8"/>
<text text-anchor="middle" x="658" y="-127.6" font-family="Times,serif" font-size="14.00">RoleResourcesModule</text>
</g>
<!-- FilterComponent&#45;&gt;RoleResourcesModule -->
<g id="edge1" class="edge">
<title>FilterComponent&#45;&gt;RoleResourcesModule</title>
<path fill="none" stroke="black" d="M1406,-85.09C1406,-107.01 1406,-140.8 1406,-140.8 1406,-140.8 739.72,-140.8 739.72,-140.8"/>
<polygon fill="black" stroke="black" points="739.72,-137.3 729.72,-140.8 739.72,-144.3 739.72,-137.3"/>
</g>
<!-- ResourceFieldsComponent -->
<g id="node2" class="node">
<title>ResourceFieldsComponent</title>
<polygon fill="#ffffb3" stroke="black" points="1331.65,-84.8 1164.35,-84.8 1164.35,-48.8 1331.65,-48.8 1331.65,-84.8"/>
<text text-anchor="middle" x="1248" y="-62.6" font-family="Times,serif" font-size="14.00">ResourceFieldsComponent</text>
</g>
<!-- ResourceFieldsComponent&#45;&gt;RoleResourcesModule -->
<g id="edge2" class="edge">
<title>ResourceFieldsComponent&#45;&gt;RoleResourcesModule</title>
<path fill="none" stroke="black" d="M1248,-84.91C1248,-104.14 1248,-131.8 1248,-131.8 1248,-131.8 739.76,-131.8 739.76,-131.8"/>
<polygon fill="black" stroke="black" points="739.76,-128.3 729.76,-131.8 739.76,-135.3 739.76,-128.3"/>
</g>
<!-- RoleResourcesComponent -->
<g id="node3" class="node">
<title>RoleResourcesComponent</title>
<polygon fill="#ffffb3" stroke="black" points="1146.81,-84.8 981.19,-84.8 981.19,-48.8 1146.81,-48.8 1146.81,-84.8"/>
<text text-anchor="middle" x="1064" y="-62.6" font-family="Times,serif" font-size="14.00">RoleResourcesComponent</text>
</g>
<!-- RoleResourcesComponent&#45;&gt;RoleResourcesModule -->
<g id="edge3" class="edge">
<title>RoleResourcesComponent&#45;&gt;RoleResourcesModule</title>
<path fill="none" stroke="black" d="M1064,-84.83C1064,-101.2 1064,-122.8 1064,-122.8 1064,-122.8 739.65,-122.8 739.65,-122.8"/>
<polygon fill="black" stroke="black" points="739.65,-119.3 729.65,-122.8 739.65,-126.3 739.65,-119.3"/>
</g>
<!-- SafeRoleResourceFiltersComponent -->
<g id="node4" class="node">
<title>SafeRoleResourceFiltersComponent</title>
<polygon fill="#ffffb3" stroke="black" points="963.02,-84.8 742.98,-84.8 742.98,-48.8 963.02,-48.8 963.02,-84.8"/>
<text text-anchor="middle" x="853" y="-62.6" font-family="Times,serif" font-size="14.00">SafeRoleResourceFiltersComponent</text>
</g>
<!-- SafeRoleResourceFiltersComponent&#45;&gt;RoleResourcesModule -->
<g id="edge4" class="edge">
<title>SafeRoleResourceFiltersComponent&#45;&gt;RoleResourcesModule</title>
<path fill="none" stroke="black" d="M742.93,-66.8C731.81,-66.8 724.52,-66.8 724.52,-66.8 724.52,-66.8 724.52,-103.69 724.52,-103.69"/>
<polygon fill="black" stroke="black" points="721.02,-103.69 724.52,-113.69 728.02,-103.69 721.02,-103.69"/>
</g>
<!-- RoleResourcesComponent  -->
<g id="node11" class="node">
<title>RoleResourcesComponent </title>
<polygon fill="#fb8072" stroke="black" points="742.31,-214.8 573.69,-214.8 573.69,-178.8 742.31,-178.8 742.31,-214.8"/>
<text text-anchor="middle" x="658" y="-192.6" font-family="Times,serif" font-size="14.00">RoleResourcesComponent </text>
</g>
<!-- RoleResourcesModule&#45;&gt;RoleResourcesComponent  -->
<g id="edge10" class="edge">
<title>RoleResourcesModule&#45;&gt;RoleResourcesComponent </title>
<path fill="none" stroke="black" stroke-dasharray="5,2" d="M658,-149.91C658,-149.91 658,-168.79 658,-168.79"/>
<polygon fill="black" stroke="black" points="654.5,-168.79 658,-178.79 661.5,-168.79 654.5,-168.79"/>
</g>
<!-- SafeButtonModule -->
<g id="node6" class="node">
<title>SafeButtonModule</title>
<polygon fill="#8dd3c7" stroke="black" points="719.05,-84.8 716.05,-88.8 695.05,-88.8 692.05,-84.8 596.95,-84.8 596.95,-48.8 719.05,-48.8 719.05,-84.8"/>
<text text-anchor="middle" x="658" y="-62.6" font-family="Times,serif" font-size="14.00">SafeButtonModule</text>
</g>
<!-- SafeButtonModule&#45;&gt;RoleResourcesModule -->
<g id="edge5" class="edge">
<title>SafeButtonModule&#45;&gt;RoleResourcesModule</title>
<path fill="none" stroke="black" d="M658,-84.91C658,-84.91 658,-103.79 658,-103.79"/>
<polygon fill="black" stroke="black" points="654.5,-103.79 658,-113.79 661.5,-103.79 654.5,-103.79"/>
</g>
<!-- SafeDateModule -->
<g id="node7" class="node">
<title>SafeDateModule</title>
<polygon fill="#8dd3c7" stroke="black" points="578.36,-84.8 575.36,-88.8 554.36,-88.8 551.36,-84.8 467.64,-84.8 467.64,-48.8 578.36,-48.8 578.36,-84.8"/>
<text text-anchor="middle" x="523" y="-62.6" font-family="Times,serif" font-size="14.00">SafeDateModule</text>
</g>
<!-- SafeDateModule&#45;&gt;RoleResourcesModule -->
<g id="edge6" class="edge">
<title>SafeDateModule&#45;&gt;RoleResourcesModule</title>
<path fill="none" stroke="black" d="M578.6,-66.8C586.21,-66.8 591.48,-66.8 591.48,-66.8 591.48,-66.8 591.48,-103.69 591.48,-103.69"/>
<polygon fill="black" stroke="black" points="587.98,-103.69 591.48,-113.69 594.98,-103.69 587.98,-103.69"/>
</g>
<!-- SafeFilterModule -->
<g id="node8" class="node">
<title>SafeFilterModule</title>
<polygon fill="#8dd3c7" stroke="black" points="449.26,-84.8 446.26,-88.8 425.26,-88.8 422.26,-84.8 334.74,-84.8 334.74,-48.8 449.26,-48.8 449.26,-84.8"/>
<text text-anchor="middle" x="392" y="-62.6" font-family="Times,serif" font-size="14.00">SafeFilterModule</text>
</g>
<!-- SafeFilterModule&#45;&gt;RoleResourcesModule -->
<g id="edge7" class="edge">
<title>SafeFilterModule&#45;&gt;RoleResourcesModule</title>
<path fill="none" stroke="black" d="M392,-84.83C392,-101.2 392,-122.8 392,-122.8 392,-122.8 576.37,-122.8 576.37,-122.8"/>
<polygon fill="black" stroke="black" points="576.37,-126.3 586.37,-122.8 576.37,-119.3 576.37,-126.3"/>
</g>
<!-- SafeIconModule -->
<g id="node9" class="node">
<title>SafeIconModule</title>
<polygon fill="#8dd3c7" stroke="black" points="316.8,-84.8 313.8,-88.8 292.8,-88.8 289.8,-84.8 207.2,-84.8 207.2,-48.8 316.8,-48.8 316.8,-84.8"/>
<text text-anchor="middle" x="262" y="-62.6" font-family="Times,serif" font-size="14.00">SafeIconModule</text>
</g>
<!-- SafeIconModule&#45;&gt;RoleResourcesModule -->
<g id="edge8" class="edge">
<title>SafeIconModule&#45;&gt;RoleResourcesModule</title>
<path fill="none" stroke="black" d="M262,-84.91C262,-104.14 262,-131.8 262,-131.8 262,-131.8 576.29,-131.8 576.29,-131.8"/>
<polygon fill="black" stroke="black" points="576.29,-135.3 586.29,-131.8 576.29,-128.3 576.29,-135.3"/>
</g>
<!-- SafeSkeletonTableModule -->
<g id="node10" class="node">
<title>SafeSkeletonTableModule</title>
<polygon fill="#8dd3c7" stroke="black" points="189.79,-84.8 186.79,-88.8 165.79,-88.8 162.79,-84.8 24.21,-84.8 24.21,-48.8 189.79,-48.8 189.79,-84.8"/>
<text text-anchor="middle" x="107" y="-62.6" font-family="Times,serif" font-size="14.00">SafeSkeletonTableModule</text>
</g>
<!-- SafeSkeletonTableModule&#45;&gt;RoleResourcesModule -->
<g id="edge9" class="edge">
<title>SafeSkeletonTableModule&#45;&gt;RoleResourcesModule</title>
<path fill="none" stroke="black" d="M107,-85.09C107,-107.01 107,-140.8 107,-140.8 107,-140.8 576.25,-140.8 576.25,-140.8"/>
<polygon fill="black" stroke="black" points="576.25,-144.3 586.25,-140.8 576.25,-137.3 576.25,-144.3"/>
</g>
</g>
</svg>
