<?xml version="1.0" encoding="UTF-8" standalone="no"?>
<!DOCTYPE svg PUBLIC "-//W3C//DTD SVG 1.1//EN"
 "http://www.w3.org/Graphics/SVG/1.1/DTD/svg11.dtd">
<!-- Generated by graphviz version 3.0.0 (20220226.1711)
 -->
<!-- Title: dependencies Pages: 1 -->
<svg width="1494pt" height="247pt"
 viewBox="0.00 0.00 1494.00 246.80" xmlns="http://www.w3.org/2000/svg" xmlns:xlink="http://www.w3.org/1999/xlink">
<g id="graph0" class="graph" transform="scale(1 1) rotate(0) translate(4 242.8)">
<title>dependencies</title>
<polygon fill="white" stroke="transparent" points="-4,4 -4,-242.8 1490,-242.8 1490,4 -4,4"/>
<text text-anchor="middle" x="743" y="-8.2" font-family="sans-serif" font-size="14.00">dependencies</text>
<g id="clust1" class="cluster">
<title>cluster_RoleResourcesModule</title>
<polygon fill="none" stroke="black" stroke-dasharray="1,5" points="8,-32.8 8,-230.8 1478,-230.8 1478,-32.8 8,-32.8"/>
</g>
<g id="clust7" class="cluster">
<title>cluster_RoleResourcesModule_imports</title>
<polygon fill="none" stroke="black" points="759,-40.8 759,-92.8 1470,-92.8 1470,-40.8 759,-40.8"/>
</g>
<g id="clust8" class="cluster">
<title>cluster_RoleResourcesModule_exports</title>
<polygon fill="none" stroke="black" points="758,-170.8 758,-222.8 942,-222.8 942,-170.8 758,-170.8"/>
</g>
<g id="clust2" class="cluster">
<title>cluster_RoleResourcesModule_declarations</title>
<polygon fill="none" stroke="black" points="16,-40.8 16,-92.8 751,-92.8 751,-40.8 16,-40.8"/>
</g>
<!-- FilterComponent -->
<g id="node1" class="node">
<title>FilterComponent</title>
<polygon fill="#ffffb3" stroke="black" points="742.66,-84.8 631.34,-84.8 631.34,-48.8 742.66,-48.8 742.66,-84.8"/>
<text text-anchor="middle" x="687" y="-62.6" font-family="Times,serif" font-size="14.00">FilterComponent</text>
</g>
<!-- RoleResourcesModule -->
<g id="node5" class="node">
<title>RoleResourcesModule</title>
<polygon fill="#8dd3c7" stroke="black" points="921.53,-149.8 918.53,-153.8 897.53,-153.8 894.53,-149.8 778.47,-149.8 778.47,-113.8 921.53,-113.8 921.53,-149.8"/>
<text text-anchor="middle" x="850" y="-127.6" font-family="Times,serif" font-size="14.00">RoleResourcesModule</text>
</g>
<!-- FilterComponent&#45;&gt;RoleResourcesModule -->
<g id="edge1" class="edge">
<title>FilterComponent&#45;&gt;RoleResourcesModule</title>
<path fill="none" stroke="black" d="M687,-84.81C687,-100.85 687,-121.8 687,-121.8 687,-121.8 768.03,-121.8 768.03,-121.8"/>
<polygon fill="black" stroke="black" points="768.03,-125.3 778.03,-121.8 768.03,-118.3 768.03,-125.3"/>
</g>
<!-- ResourceFieldsComponent -->
<g id="node2" class="node">
<title>ResourceFieldsComponent</title>
<polygon fill="#ffffb3" stroke="black" points="612.65,-84.8 445.35,-84.8 445.35,-48.8 612.65,-48.8 612.65,-84.8"/>
<text text-anchor="middle" x="529" y="-62.6" font-family="Times,serif" font-size="14.00">ResourceFieldsComponent</text>
</g>
<!-- ResourceFieldsComponent&#45;&gt;RoleResourcesModule -->
<g id="edge2" class="edge">
<title>ResourceFieldsComponent&#45;&gt;RoleResourcesModule</title>
<path fill="none" stroke="black" d="M529,-85.07C529,-103.36 529,-128.8 529,-128.8 529,-128.8 768.36,-128.8 768.36,-128.8"/>
<polygon fill="black" stroke="black" points="768.36,-132.3 778.36,-128.8 768.36,-125.3 768.36,-132.3"/>
</g>
<!-- RoleResourcesComponent -->
<g id="node3" class="node">
<title>RoleResourcesComponent</title>
<polygon fill="#ffffb3" stroke="black" points="427.81,-84.8 262.19,-84.8 262.19,-48.8 427.81,-48.8 427.81,-84.8"/>
<text text-anchor="middle" x="345" y="-62.6" font-family="Times,serif" font-size="14.00">RoleResourcesComponent</text>
</g>
<!-- RoleResourcesComponent&#45;&gt;RoleResourcesModule -->
<g id="edge3" class="edge">
<title>RoleResourcesComponent&#45;&gt;RoleResourcesModule</title>
<path fill="none" stroke="black" d="M345,-84.93C345,-105.37 345,-135.8 345,-135.8 345,-135.8 768.45,-135.8 768.45,-135.8"/>
<polygon fill="black" stroke="black" points="768.45,-139.3 778.45,-135.8 768.45,-132.3 768.45,-139.3"/>
</g>
<!-- SafeRoleResourceFiltersComponent -->
<g id="node4" class="node">
<title>SafeRoleResourceFiltersComponent</title>
<polygon fill="#ffffb3" stroke="black" points="244.02,-84.8 23.98,-84.8 23.98,-48.8 244.02,-48.8 244.02,-84.8"/>
<text text-anchor="middle" x="134" y="-62.6" font-family="Times,serif" font-size="14.00">SafeRoleResourceFiltersComponent</text>
</g>
<!-- SafeRoleResourceFiltersComponent&#45;&gt;RoleResourcesModule -->
<g id="edge4" class="edge">
<title>SafeRoleResourceFiltersComponent&#45;&gt;RoleResourcesModule</title>
<path fill="none" stroke="black" d="M134,-84.81C134,-107.29 134,-142.8 134,-142.8 134,-142.8 768.4,-142.8 768.4,-142.8"/>
<polygon fill="black" stroke="black" points="768.4,-146.3 778.4,-142.8 768.4,-139.3 768.4,-146.3"/>
</g>
<!-- RoleResourcesComponent  -->
<g id="node11" class="node">
<title>RoleResourcesComponent </title>
<polygon fill="#fb8072" stroke="black" points="934.31,-214.8 765.69,-214.8 765.69,-178.8 934.31,-178.8 934.31,-214.8"/>
<text text-anchor="middle" x="850" y="-192.6" font-family="Times,serif" font-size="14.00">RoleResourcesComponent </text>
</g>
<!-- RoleResourcesModule&#45;&gt;RoleResourcesComponent  -->
<g id="edge10" class="edge">
<title>RoleResourcesModule&#45;&gt;RoleResourcesComponent </title>
<path fill="none" stroke="black" stroke-dasharray="5,2" d="M850,-149.91C850,-149.91 850,-168.79 850,-168.79"/>
<polygon fill="black" stroke="black" points="846.5,-168.79 850,-178.79 853.5,-168.79 846.5,-168.79"/>
</g>
<!-- SafeButtonModule -->
<g id="node6" class="node">
<title>SafeButtonModule</title>
<polygon fill="#8dd3c7" stroke="black" points="1462.05,-84.8 1459.05,-88.8 1438.05,-88.8 1435.05,-84.8 1339.95,-84.8 1339.95,-48.8 1462.05,-48.8 1462.05,-84.8"/>
<text text-anchor="middle" x="1401" y="-62.6" font-family="Times,serif" font-size="14.00">SafeButtonModule</text>
</g>
<!-- SafeButtonModule&#45;&gt;RoleResourcesModule -->
<g id="edge5" class="edge">
<title>SafeButtonModule&#45;&gt;RoleResourcesModule</title>
<path fill="none" stroke="black" d="M1401,-84.81C1401,-107.29 1401,-142.8 1401,-142.8 1401,-142.8 931.75,-142.8 931.75,-142.8"/>
<polygon fill="black" stroke="black" points="931.75,-139.3 921.75,-142.8 931.75,-146.3 931.75,-139.3"/>
</g>
<!-- SafeDateModule -->
<g id="node7" class="node">
<title>SafeDateModule</title>
<polygon fill="#8dd3c7" stroke="black" points="1321.36,-84.8 1318.36,-88.8 1297.36,-88.8 1294.36,-84.8 1210.64,-84.8 1210.64,-48.8 1321.36,-48.8 1321.36,-84.8"/>
<text text-anchor="middle" x="1266" y="-62.6" font-family="Times,serif" font-size="14.00">SafeDateModule</text>
</g>
<!-- SafeDateModule&#45;&gt;RoleResourcesModule -->
<g id="edge6" class="edge">
<title>SafeDateModule&#45;&gt;RoleResourcesModule</title>
<path fill="none" stroke="black" d="M1266,-84.93C1266,-105.37 1266,-135.8 1266,-135.8 1266,-135.8 931.99,-135.8 931.99,-135.8"/>
<polygon fill="black" stroke="black" points="931.99,-132.3 921.99,-135.8 931.99,-139.3 931.99,-132.3"/>
</g>
<!-- SafeFilterModule -->
<g id="node8" class="node">
<title>SafeFilterModule</title>
<polygon fill="#8dd3c7" stroke="black" points="1192.26,-84.8 1189.26,-88.8 1168.26,-88.8 1165.26,-84.8 1077.74,-84.8 1077.74,-48.8 1192.26,-48.8 1192.26,-84.8"/>
<text text-anchor="middle" x="1135" y="-62.6" font-family="Times,serif" font-size="14.00">SafeFilterModule</text>
</g>
<!-- SafeFilterModule&#45;&gt;RoleResourcesModule -->
<g id="edge7" class="edge">
<title>SafeFilterModule&#45;&gt;RoleResourcesModule</title>
<path fill="none" stroke="black" d="M1135,-85.07C1135,-103.36 1135,-128.8 1135,-128.8 1135,-128.8 931.55,-128.8 931.55,-128.8"/>
<polygon fill="black" stroke="black" points="931.55,-125.3 921.55,-128.8 931.55,-132.3 931.55,-125.3"/>
</g>
<!-- SafeIconModule -->
<g id="node9" class="node">
<title>SafeIconModule</title>
<polygon fill="#8dd3c7" stroke="black" points="1059.8,-84.8 1056.8,-88.8 1035.8,-88.8 1032.8,-84.8 950.2,-84.8 950.2,-48.8 1059.8,-48.8 1059.8,-84.8"/>
<text text-anchor="middle" x="1005" y="-62.6" font-family="Times,serif" font-size="14.00">SafeIconModule</text>
</g>
<!-- SafeIconModule&#45;&gt;RoleResourcesModule -->
<g id="edge8" class="edge">
<title>SafeIconModule&#45;&gt;RoleResourcesModule</title>
<path fill="none" stroke="black" d="M1005,-84.81C1005,-100.85 1005,-121.8 1005,-121.8 1005,-121.8 931.6,-121.8 931.6,-121.8"/>
<polygon fill="black" stroke="black" points="931.6,-118.3 921.6,-121.8 931.6,-125.3 931.6,-118.3"/>
</g>
<!-- SafeSkeletonTableModule -->
<g id="node10" class="node">
<title>SafeSkeletonTableModule</title>
<polygon fill="#8dd3c7" stroke="black" points="932.79,-84.8 929.79,-88.8 908.79,-88.8 905.79,-84.8 767.21,-84.8 767.21,-48.8 932.79,-48.8 932.79,-84.8"/>
<text text-anchor="middle" x="850" y="-62.6" font-family="Times,serif" font-size="14.00">SafeSkeletonTableModule</text>
</g>
<!-- SafeSkeletonTableModule&#45;&gt;RoleResourcesModule -->
<g id="edge9" class="edge">
<title>SafeSkeletonTableModule&#45;&gt;RoleResourcesModule</title>
<path fill="none" stroke="black" d="M850,-84.91C850,-84.91 850,-103.79 850,-103.79"/>
<polygon fill="black" stroke="black" points="846.5,-103.79 850,-113.79 853.5,-103.79 846.5,-103.79"/>
</g>
</g>
</svg>
