<?xml version="1.0" encoding="UTF-8" standalone="no"?>
<!DOCTYPE svg PUBLIC "-//W3C//DTD SVG 1.1//EN"
 "http://www.w3.org/Graphics/SVG/1.1/DTD/svg11.dtd">
<!-- Generated by graphviz version 3.0.0 (20220226.1711)
 -->
<!-- Title: dependencies Pages: 1 -->
<svg width="1004pt" height="247pt"
 viewBox="0.00 0.00 1004.00 246.80" xmlns="http://www.w3.org/2000/svg" xmlns:xlink="http://www.w3.org/1999/xlink">
<g id="graph0" class="graph" transform="scale(1 1) rotate(0) translate(4 242.8)">
<title>dependencies</title>
<polygon fill="white" stroke="transparent" points="-4,4 -4,-242.8 1000,-242.8 1000,4 -4,4"/>
<text text-anchor="middle" x="498" y="-8.2" font-family="sans-serif" font-size="14.00">dependencies</text>
<g id="clust1" class="cluster">
<title>cluster_SafeWorkflowStepperModule</title>
<polygon fill="none" stroke="black" stroke-dasharray="1,5" points="8,-32.8 8,-230.8 988,-230.8 988,-32.8 8,-32.8"/>
</g>
<g id="clust2" class="cluster">
<title>cluster_SafeWorkflowStepperModule_declarations</title>
<polygon fill="none" stroke="black" points="435,-40.8 435,-92.8 980,-92.8 980,-40.8 435,-40.8"/>
</g>
<g id="clust6" class="cluster">
<title>cluster_SafeWorkflowStepperModule_imports</title>
<polygon fill="none" stroke="black" points="16,-40.8 16,-92.8 427,-92.8 427,-40.8 16,-40.8"/>
</g>
<g id="clust7" class="cluster">
<title>cluster_SafeWorkflowStepperModule_exports</title>
<polygon fill="none" stroke="black" points="149,-170.8 149,-222.8 704,-222.8 704,-170.8 149,-170.8"/>
</g>
<!-- SafeAddStepComponent -->
<g id="node1" class="node">
<title>SafeAddStepComponent</title>
<polygon fill="#ffffb3" stroke="black" points="971.71,-84.8 816.29,-84.8 816.29,-48.8 971.71,-48.8 971.71,-84.8"/>
<text text-anchor="middle" x="894" y="-62.6" font-family="Times,serif" font-size="14.00">SafeAddStepComponent</text>
</g>
<!-- SafeWorkflowStepperModule -->
<g id="node4" class="node">
<title>SafeWorkflowStepperModule</title>
<polygon fill="#8dd3c7" stroke="black" points="544.23,-149.8 541.23,-153.8 520.23,-153.8 517.23,-149.8 359.77,-149.8 359.77,-113.8 544.23,-113.8 544.23,-149.8"/>
<text text-anchor="middle" x="452" y="-127.6" font-family="Times,serif" font-size="14.00">SafeWorkflowStepperModule</text>
</g>
<!-- SafeAddStepComponent&#45;&gt;SafeWorkflowStepperModule -->
<g id="edge1" class="edge">
<title>SafeAddStepComponent&#45;&gt;SafeWorkflowStepperModule</title>
<path fill="none" stroke="black" d="M894,-85.08C894,-106.12 894,-137.8 894,-137.8 894,-137.8 554.39,-137.8 554.39,-137.8"/>
<polygon fill="black" stroke="black" points="554.39,-134.3 544.39,-137.8 554.39,-141.3 554.39,-134.3"/>
</g>
<!-- SafeStepComponent -->
<g id="node2" class="node">
<title>SafeStepComponent</title>
<polygon fill="#ffffb3" stroke="black" points="798.6,-84.8 667.4,-84.8 667.4,-48.8 798.6,-48.8 798.6,-84.8"/>
<text text-anchor="middle" x="733" y="-62.6" font-family="Times,serif" font-size="14.00">SafeStepComponent</text>
</g>
<!-- SafeStepComponent&#45;&gt;SafeWorkflowStepperModule -->
<g id="edge2" class="edge">
<title>SafeStepComponent&#45;&gt;SafeWorkflowStepperModule</title>
<path fill="none" stroke="black" d="M681.9,-84.82C681.9,-102.17 681.9,-125.8 681.9,-125.8 681.9,-125.8 554.52,-125.8 554.52,-125.8"/>
<polygon fill="black" stroke="black" points="554.52,-122.3 544.52,-125.8 554.52,-129.3 554.52,-122.3"/>
</g>
<!-- SafeWorkflowStepperComponent -->
<g id="node3" class="node">
<title>SafeWorkflowStepperComponent</title>
<polygon fill="#ffffb3" stroke="black" points="649.01,-84.8 442.99,-84.8 442.99,-48.8 649.01,-48.8 649.01,-84.8"/>
<text text-anchor="middle" x="546" y="-62.6" font-family="Times,serif" font-size="14.00">SafeWorkflowStepperComponent</text>
</g>
<!-- SafeWorkflowStepperComponent&#45;&gt;SafeWorkflowStepperModule -->
<g id="edge3" class="edge">
<title>SafeWorkflowStepperComponent&#45;&gt;SafeWorkflowStepperModule</title>
<path fill="none" stroke="black" d="M493.56,-84.91C493.56,-84.91 493.56,-103.79 493.56,-103.79"/>
<polygon fill="black" stroke="black" points="490.06,-103.79 493.56,-113.79 497.06,-103.79 490.06,-103.79"/>
</g>
<!-- SafeAddStepComponent  -->
<g id="node8" class="node">
<title>SafeAddStepComponent </title>
<polygon fill="#fb8072" stroke="black" points="696.21,-214.8 537.79,-214.8 537.79,-178.8 696.21,-178.8 696.21,-214.8"/>
<text text-anchor="middle" x="617" y="-192.6" font-family="Times,serif" font-size="14.00">SafeAddStepComponent </text>
</g>
<!-- SafeWorkflowStepperModule&#45;&gt;SafeAddStepComponent  -->
<g id="edge7" class="edge">
<title>SafeWorkflowStepperModule&#45;&gt;SafeAddStepComponent </title>
<path fill="none" stroke="black" stroke-dasharray="5,2" d="M528.47,-149.91C528.47,-169.14 528.47,-196.8 528.47,-196.8 528.47,-196.8 529.39,-196.8 529.39,-196.8"/>
<polygon fill="black" stroke="black" points="527.61,-200.3 537.61,-196.8 527.61,-193.3 527.61,-200.3"/>
</g>
<!-- SafeStepComponent  -->
<g id="node9" class="node">
<title>SafeStepComponent </title>
<polygon fill="#fb8072" stroke="black" points="519.1,-214.8 384.9,-214.8 384.9,-178.8 519.1,-178.8 519.1,-214.8"/>
<text text-anchor="middle" x="452" y="-192.6" font-family="Times,serif" font-size="14.00">SafeStepComponent </text>
</g>
<!-- SafeWorkflowStepperModule&#45;&gt;SafeStepComponent  -->
<g id="edge8" class="edge">
<title>SafeWorkflowStepperModule&#45;&gt;SafeStepComponent </title>
<path fill="none" stroke="black" stroke-dasharray="5,2" d="M452,-149.91C452,-149.91 452,-168.79 452,-168.79"/>
<polygon fill="black" stroke="black" points="448.5,-168.79 452,-178.79 455.5,-168.79 448.5,-168.79"/>
</g>
<!-- SafeWorkflowStepperComponent  -->
<g id="node10" class="node">
<title>SafeWorkflowStepperComponent </title>
<polygon fill="#fb8072" stroke="black" points="367.01,-214.8 156.99,-214.8 156.99,-178.8 367.01,-178.8 367.01,-214.8"/>
<text text-anchor="middle" x="262" y="-192.6" font-family="Times,serif" font-size="14.00">SafeWorkflowStepperComponent </text>
</g>
<!-- SafeWorkflowStepperModule&#45;&gt;SafeWorkflowStepperComponent  -->
<g id="edge9" class="edge">
<title>SafeWorkflowStepperModule&#45;&gt;SafeWorkflowStepperComponent </title>
<path fill="none" stroke="black" stroke-dasharray="5,2" d="M363.32,-149.91C363.32,-149.91 363.32,-168.79 363.32,-168.79"/>
<polygon fill="black" stroke="black" points="359.82,-168.79 363.32,-178.79 366.82,-168.79 359.82,-168.79"/>
</g>
<!-- SafeButtonModule -->
<g id="node5" class="node">
<title>SafeButtonModule</title>
<polygon fill="#8dd3c7" stroke="black" points="419.05,-84.8 416.05,-88.8 395.05,-88.8 392.05,-84.8 296.95,-84.8 296.95,-48.8 419.05,-48.8 419.05,-84.8"/>
<text text-anchor="middle" x="358" y="-62.6" font-family="Times,serif" font-size="14.00">SafeButtonModule</text>
</g>
<!-- SafeButtonModule&#45;&gt;SafeWorkflowStepperModule -->
<g id="edge4" class="edge">
<title>SafeButtonModule&#45;&gt;SafeWorkflowStepperModule</title>
<path fill="none" stroke="black" d="M389.45,-84.91C389.45,-84.91 389.45,-103.79 389.45,-103.79"/>
<polygon fill="black" stroke="black" points="385.95,-103.79 389.45,-113.79 392.95,-103.79 385.95,-103.79"/>
</g>
<!-- SafeDividerModule -->
<g id="node6" class="node">
<title>SafeDividerModule</title>
<polygon fill="#8dd3c7" stroke="black" points="278.69,-84.8 275.69,-88.8 254.69,-88.8 251.69,-84.8 151.31,-84.8 151.31,-48.8 278.69,-48.8 278.69,-84.8"/>
<text text-anchor="middle" x="215" y="-62.6" font-family="Times,serif" font-size="14.00">SafeDividerModule</text>
</g>
<!-- SafeDividerModule&#45;&gt;SafeWorkflowStepperModule -->
<g id="edge5" class="edge">
<title>SafeDividerModule&#45;&gt;SafeWorkflowStepperModule</title>
<path fill="none" stroke="black" d="M217.8,-84.82C217.8,-102.17 217.8,-125.8 217.8,-125.8 217.8,-125.8 349.44,-125.8 349.44,-125.8"/>
<polygon fill="black" stroke="black" points="349.44,-129.3 359.44,-125.8 349.44,-122.3 349.44,-129.3"/>
</g>
<!-- SafeIconModule -->
<g id="node7" class="node">
<title>SafeIconModule</title>
<polygon fill="#8dd3c7" stroke="black" points="133.8,-84.8 130.8,-88.8 109.8,-88.8 106.8,-84.8 24.2,-84.8 24.2,-48.8 133.8,-48.8 133.8,-84.8"/>
<text text-anchor="middle" x="79" y="-62.6" font-family="Times,serif" font-size="14.00">SafeIconModule</text>
</g>
<!-- SafeIconModule&#45;&gt;SafeWorkflowStepperModule -->
<g id="edge6" class="edge">
<title>SafeIconModule&#45;&gt;SafeWorkflowStepperModule</title>
<path fill="none" stroke="black" d="M79,-85.08C79,-106.12 79,-137.8 79,-137.8 79,-137.8 349.32,-137.8 349.32,-137.8"/>
<polygon fill="black" stroke="black" points="349.32,-141.3 359.32,-137.8 349.32,-134.3 349.32,-141.3"/>
</g>
</g>
</svg>
