<?xml version="1.0" encoding="UTF-8" standalone="no"?>
<!DOCTYPE svg PUBLIC "-//W3C//DTD SVG 1.1//EN"
 "http://www.w3.org/Graphics/SVG/1.1/DTD/svg11.dtd">
<!-- Generated by graphviz version 3.0.0 (20220226.1711)
 -->
<!-- Title: dependencies Pages: 1 -->
<svg width="312pt" height="247pt"
 viewBox="0.00 0.00 312.00 246.80" xmlns="http://www.w3.org/2000/svg" xmlns:xlink="http://www.w3.org/1999/xlink">
<g id="graph0" class="graph" transform="scale(1 1) rotate(0) translate(4 242.8)">
<title>dependencies</title>
<polygon fill="white" stroke="transparent" points="-4,4 -4,-242.8 308,-242.8 308,4 -4,4"/>
<text text-anchor="middle" x="152" y="-8.2" font-family="sans-serif" font-size="14.00">dependencies</text>
<g id="clust1" class="cluster">
<title>cluster_AddFormModule</title>
<polygon fill="none" stroke="black" stroke-dasharray="1,5" points="8,-32.8 8,-230.8 296,-230.8 296,-32.8 8,-32.8"/>
</g>
<g id="clust2" class="cluster">
<title>cluster_AddFormModule_declarations</title>
<polygon fill="none" stroke="black" points="136,-40.8 136,-92.8 288,-92.8 288,-40.8 136,-40.8"/>
</g>
<g id="clust4" class="cluster">
<title>cluster_AddFormModule_imports</title>
<polygon fill="none" stroke="black" points="16,-40.8 16,-92.8 128,-92.8 128,-40.8 16,-40.8"/>
</g>
<g id="clust5" class="cluster">
<title>cluster_AddFormModule_exports</title>
<polygon fill="none" stroke="black" points="74,-170.8 74,-222.8 230,-222.8 230,-170.8 74,-170.8"/>
</g>
<!-- AddFormComponent -->
<g id="node1" class="node">
<title>AddFormComponent</title>
<polygon fill="#ffffb3" stroke="black" points="279.78,-84.8 144.22,-84.8 144.22,-48.8 279.78,-48.8 279.78,-84.8"/>
<text text-anchor="middle" x="212" y="-62.6" font-family="Times,serif" font-size="14.00">AddFormComponent</text>
</g>
<!-- AddFormModule -->
<g id="node2" class="node">
<title>AddFormModule</title>
<polygon fill="#8dd3c7" stroke="black" points="209,-149.8 206,-153.8 185,-153.8 182,-149.8 95,-149.8 95,-113.8 209,-113.8 209,-149.8"/>
<text text-anchor="middle" x="152" y="-127.6" font-family="Times,serif" font-size="14.00">AddFormModule</text>
</g>
<!-- AddFormComponent&#45;&gt;AddFormModule -->
<g id="edge1" class="edge">
<title>AddFormComponent&#45;&gt;AddFormModule</title>
<path fill="none" stroke="black" d="M176.56,-84.91C176.56,-84.91 176.56,-103.79 176.56,-103.79"/>
<polygon fill="black" stroke="black" points="173.06,-103.79 176.56,-113.79 180.06,-103.79 173.06,-103.79"/>
</g>
<!-- AddFormComponent  -->
<g id="node4" class="node">
<title>AddFormComponent </title>
<polygon fill="#fb8072" stroke="black" points="221.78,-214.8 82.22,-214.8 82.22,-178.8 221.78,-178.8 221.78,-214.8"/>
<text text-anchor="middle" x="152" y="-192.6" font-family="Times,serif" font-size="14.00">AddFormComponent </text>
</g>
<!-- AddFormModule&#45;&gt;AddFormComponent  -->
<g id="edge3" class="edge">
<title>AddFormModule&#45;&gt;AddFormComponent </title>
<path fill="none" stroke="black" stroke-dasharray="5,2" d="M152,-149.91C152,-149.91 152,-168.79 152,-168.79"/>
<polygon fill="black" stroke="black" points="148.5,-168.79 152,-178.79 155.5,-168.79 148.5,-168.79"/>
</g>
<!-- FormsModule -->
<g id="node3" class="node">
<title>FormsModule</title>
<polygon fill="#8dd3c7" stroke="black" points="119.84,-84.8 116.84,-88.8 95.84,-88.8 92.84,-84.8 24.16,-84.8 24.16,-48.8 119.84,-48.8 119.84,-84.8"/>
<text text-anchor="middle" x="72" y="-62.6" font-family="Times,serif" font-size="14.00">FormsModule</text>
</g>
<!-- FormsModule&#45;&gt;AddFormModule -->
<g id="edge2" class="edge">
<title>FormsModule&#45;&gt;AddFormModule</title>
<path fill="none" stroke="black" d="M107.33,-84.91C107.33,-84.91 107.33,-103.79 107.33,-103.79"/>
<polygon fill="black" stroke="black" points="103.83,-103.79 107.33,-113.79 110.83,-103.79 103.83,-103.79"/>
</g>
</g>
</svg>
