<?xml version="1.0" encoding="UTF-8" standalone="no"?>
<!DOCTYPE svg PUBLIC "-//W3C//DTD SVG 1.1//EN"
 "http://www.w3.org/Graphics/SVG/1.1/DTD/svg11.dtd">
<!-- Generated by graphviz version 3.0.0 (20220226.1711)
 -->
<!-- Title: dependencies Pages: 1 -->
<svg width="404pt" height="247pt"
 viewBox="0.00 0.00 404.00 246.80" xmlns="http://www.w3.org/2000/svg" xmlns:xlink="http://www.w3.org/1999/xlink">
<g id="graph0" class="graph" transform="scale(1 1) rotate(0) translate(4 242.8)">
<title>dependencies</title>
<polygon fill="white" stroke="transparent" points="-4,4 -4,-242.8 400,-242.8 400,4 -4,4"/>
<text text-anchor="middle" x="198" y="-8.2" font-family="sans-serif" font-size="14.00">dependencies</text>
<g id="clust1" class="cluster">
<title>cluster_SafeRecordSummaryModule</title>
<polygon fill="none" stroke="black" stroke-dasharray="1,5" points="8,-32.8 8,-230.8 388,-230.8 388,-32.8 8,-32.8"/>
</g>
<g id="clust2" class="cluster">
<title>cluster_SafeRecordSummaryModule_declarations</title>
<polygon fill="none" stroke="black" points="162,-40.8 162,-92.8 380,-92.8 380,-40.8 162,-40.8"/>
</g>
<g id="clust5" class="cluster">
<title>cluster_SafeRecordSummaryModule_exports</title>
<polygon fill="none" stroke="black" points="88,-170.8 88,-222.8 308,-222.8 308,-170.8 88,-170.8"/>
</g>
<g id="clust4" class="cluster">
<title>cluster_SafeRecordSummaryModule_imports</title>
<polygon fill="none" stroke="black" points="16,-40.8 16,-92.8 154,-92.8 154,-40.8 16,-40.8"/>
</g>
<!-- SafeRecordSummaryComponent -->
<g id="node1" class="node">
<title>SafeRecordSummaryComponent</title>
<polygon fill="#ffffb3" stroke="black" points="371.58,-84.8 170.42,-84.8 170.42,-48.8 371.58,-48.8 371.58,-84.8"/>
<text text-anchor="middle" x="271" y="-62.6" font-family="Times,serif" font-size="14.00">SafeRecordSummaryComponent</text>
</g>
<!-- SafeRecordSummaryModule -->
<g id="node2" class="node">
<title>SafeRecordSummaryModule</title>
<polygon fill="#8dd3c7" stroke="black" points="287.8,-149.8 284.8,-153.8 263.8,-153.8 260.8,-149.8 108.2,-149.8 108.2,-113.8 287.8,-113.8 287.8,-149.8"/>
<text text-anchor="middle" x="198" y="-127.6" font-family="Times,serif" font-size="14.00">SafeRecordSummaryModule</text>
</g>
<!-- SafeRecordSummaryComponent&#45;&gt;SafeRecordSummaryModule -->
<g id="edge1" class="edge">
<title>SafeRecordSummaryComponent&#45;&gt;SafeRecordSummaryModule</title>
<path fill="none" stroke="black" d="M229.06,-84.91C229.06,-84.91 229.06,-103.79 229.06,-103.79"/>
<polygon fill="black" stroke="black" points="225.56,-103.79 229.06,-113.79 232.56,-103.79 225.56,-103.79"/>
</g>
<!-- SafeRecordSummaryComponent  -->
<g id="node4" class="node">
<title>SafeRecordSummaryComponent </title>
<polygon fill="#fb8072" stroke="black" points="300.08,-214.8 95.92,-214.8 95.92,-178.8 300.08,-178.8 300.08,-214.8"/>
<text text-anchor="middle" x="198" y="-192.6" font-family="Times,serif" font-size="14.00">SafeRecordSummaryComponent </text>
</g>
<!-- SafeRecordSummaryModule&#45;&gt;SafeRecordSummaryComponent  -->
<g id="edge3" class="edge">
<title>SafeRecordSummaryModule&#45;&gt;SafeRecordSummaryComponent </title>
<path fill="none" stroke="black" stroke-dasharray="5,2" d="M198,-149.91C198,-149.91 198,-168.79 198,-168.79"/>
<polygon fill="black" stroke="black" points="194.5,-168.79 198,-178.79 201.5,-168.79 194.5,-168.79"/>
</g>
<!-- SafeButtonModule -->
<g id="node3" class="node">
<title>SafeButtonModule</title>
<polygon fill="#8dd3c7" stroke="black" points="146.05,-84.8 143.05,-88.8 122.05,-88.8 119.05,-84.8 23.95,-84.8 23.95,-48.8 146.05,-48.8 146.05,-84.8"/>
<text text-anchor="middle" x="85" y="-62.6" font-family="Times,serif" font-size="14.00">SafeButtonModule</text>
</g>
<!-- SafeButtonModule&#45;&gt;SafeRecordSummaryModule -->
<g id="edge2" class="edge">
<title>SafeButtonModule&#45;&gt;SafeRecordSummaryModule</title>
<path fill="none" stroke="black" d="M127.31,-84.91C127.31,-84.91 127.31,-103.79 127.31,-103.79"/>
<polygon fill="black" stroke="black" points="123.81,-103.79 127.31,-113.79 130.81,-103.79 123.81,-103.79"/>
</g>
</g>
</svg>
