<?xml version="1.0" encoding="UTF-8" standalone="no"?>
<!DOCTYPE svg PUBLIC "-//W3C//DTD SVG 1.1//EN"
 "http://www.w3.org/Graphics/SVG/1.1/DTD/svg11.dtd">
<!-- Generated by graphviz version 3.0.0 (20220226.1711)
 -->
<!-- Title: dependencies Pages: 1 -->
<svg width="666pt" height="247pt"
 viewBox="0.00 0.00 666.00 246.80" xmlns="http://www.w3.org/2000/svg" xmlns:xlink="http://www.w3.org/1999/xlink">
<g id="graph0" class="graph" transform="scale(1 1) rotate(0) translate(4 242.8)">
<title>dependencies</title>
<polygon fill="white" stroke="transparent" points="-4,4 -4,-242.8 662,-242.8 662,4 -4,4"/>
<text text-anchor="middle" x="329" y="-8.2" font-family="sans-serif" font-size="14.00">dependencies</text>
<g id="clust1" class="cluster">
<title>cluster_FormBuilderModule</title>
<polygon fill="none" stroke="black" stroke-dasharray="1,5" points="8,-32.8 8,-230.8 650,-230.8 650,-32.8 8,-32.8"/>
</g>
<g id="clust5" class="cluster">
<title>cluster_FormBuilderModule_imports</title>
<polygon fill="none" stroke="black" points="335,-40.8 335,-92.8 642,-92.8 642,-40.8 335,-40.8"/>
</g>
<g id="clust2" class="cluster">
<title>cluster_FormBuilderModule_declarations</title>
<polygon fill="none" stroke="black" points="16,-40.8 16,-92.8 327,-92.8 327,-40.8 16,-40.8"/>
</g>
<g id="clust6" class="cluster">
<title>cluster_FormBuilderModule_exports</title>
<polygon fill="none" stroke="black" points="229,-170.8 229,-222.8 403,-222.8 403,-170.8 229,-170.8"/>
</g>
<!-- FormBuilderComponent -->
<g id="node1" class="node">
<title>FormBuilderComponent</title>
<polygon fill="#ffffb3" stroke="black" points="318.66,-84.8 165.34,-84.8 165.34,-48.8 318.66,-48.8 318.66,-84.8"/>
<text text-anchor="middle" x="242" y="-62.6" font-family="Times,serif" font-size="14.00">FormBuilderComponent</text>
</g>
<!-- FormBuilderModule -->
<g id="node3" class="node">
<title>FormBuilderModule</title>
<polygon fill="#8dd3c7" stroke="black" points="381.88,-149.8 378.88,-153.8 357.88,-153.8 354.88,-149.8 250.12,-149.8 250.12,-113.8 381.88,-113.8 381.88,-149.8"/>
<text text-anchor="middle" x="316" y="-127.6" font-family="Times,serif" font-size="14.00">FormBuilderModule</text>
</g>
<!-- FormBuilderComponent&#45;&gt;FormBuilderModule -->
<g id="edge1" class="edge">
<title>FormBuilderComponent&#45;&gt;FormBuilderModule</title>
<path fill="none" stroke="black" d="M284.44,-84.91C284.44,-84.91 284.44,-103.79 284.44,-103.79"/>
<polygon fill="black" stroke="black" points="280.94,-103.79 284.44,-113.79 287.94,-103.79 280.94,-103.79"/>
</g>
<!-- HistoryComponent -->
<g id="node2" class="node">
<title>HistoryComponent</title>
<polygon fill="#ffffb3" stroke="black" points="147.83,-84.8 24.17,-84.8 24.17,-48.8 147.83,-48.8 147.83,-84.8"/>
<text text-anchor="middle" x="86" y="-62.6" font-family="Times,serif" font-size="14.00">HistoryComponent</text>
</g>
<!-- HistoryComponent&#45;&gt;FormBuilderModule -->
<g id="edge2" class="edge">
<title>HistoryComponent&#45;&gt;FormBuilderModule</title>
<path fill="none" stroke="black" d="M86,-84.91C86,-104.14 86,-131.8 86,-131.8 86,-131.8 240.09,-131.8 240.09,-131.8"/>
<polygon fill="black" stroke="black" points="240.09,-135.3 250.09,-131.8 240.09,-128.3 240.09,-135.3"/>
</g>
<!-- FormBuilderComponent  -->
<g id="node6" class="node">
<title>FormBuilderComponent </title>
<polygon fill="#fb8072" stroke="black" points="394.66,-214.8 237.34,-214.8 237.34,-178.8 394.66,-178.8 394.66,-214.8"/>
<text text-anchor="middle" x="316" y="-192.6" font-family="Times,serif" font-size="14.00">FormBuilderComponent </text>
</g>
<!-- FormBuilderModule&#45;&gt;FormBuilderComponent  -->
<g id="edge5" class="edge">
<title>FormBuilderModule&#45;&gt;FormBuilderComponent </title>
<path fill="none" stroke="black" stroke-dasharray="5,2" d="M316,-149.91C316,-149.91 316,-168.79 316,-168.79"/>
<polygon fill="black" stroke="black" points="312.5,-168.79 316,-178.79 319.5,-168.79 312.5,-168.79"/>
</g>
<!-- FormBuilderRoutingModule -->
<g id="node4" class="node">
<title>FormBuilderRoutingModule</title>
<polygon fill="#8dd3c7" stroke="black" points="633.5,-84.8 630.5,-88.8 609.5,-88.8 606.5,-84.8 456.5,-84.8 456.5,-48.8 633.5,-48.8 633.5,-84.8"/>
<text text-anchor="middle" x="545" y="-62.6" font-family="Times,serif" font-size="14.00">FormBuilderRoutingModule</text>
</g>
<!-- FormBuilderRoutingModule&#45;&gt;FormBuilderModule -->
<g id="edge3" class="edge">
<title>FormBuilderRoutingModule&#45;&gt;FormBuilderModule</title>
<path fill="none" stroke="black" d="M545,-84.91C545,-104.14 545,-131.8 545,-131.8 545,-131.8 391.93,-131.8 391.93,-131.8"/>
<polygon fill="black" stroke="black" points="391.93,-128.3 381.93,-131.8 391.93,-135.3 391.93,-128.3"/>
</g>
<!-- FormsModule -->
<g id="node5" class="node">
<title>FormsModule</title>
<polygon fill="#8dd3c7" stroke="black" points="438.84,-84.8 435.84,-88.8 414.84,-88.8 411.84,-84.8 343.16,-84.8 343.16,-48.8 438.84,-48.8 438.84,-84.8"/>
<text text-anchor="middle" x="391" y="-62.6" font-family="Times,serif" font-size="14.00">FormsModule</text>
</g>
<!-- FormsModule&#45;&gt;FormBuilderModule -->
<g id="edge4" class="edge">
<title>FormsModule&#45;&gt;FormBuilderModule</title>
<path fill="none" stroke="black" d="M362.64,-84.91C362.64,-84.91 362.64,-103.79 362.64,-103.79"/>
<polygon fill="black" stroke="black" points="359.14,-103.79 362.64,-113.79 366.14,-103.79 359.14,-103.79"/>
</g>
</g>
</svg>
