<?xml version="1.0" encoding="UTF-8" standalone="no"?>
<!DOCTYPE svg PUBLIC "-//W3C//DTD SVG 1.1//EN"
 "http://www.w3.org/Graphics/SVG/1.1/DTD/svg11.dtd">
<!-- Generated by graphviz version 3.0.0 (20220226.1711)
 -->
<!-- Title: dependencies Pages: 1 -->
<svg width="781pt" height="247pt"
 viewBox="0.00 0.00 781.00 246.80" xmlns="http://www.w3.org/2000/svg" xmlns:xlink="http://www.w3.org/1999/xlink">
<g id="graph0" class="graph" transform="scale(1 1) rotate(0) translate(4 242.8)">
<title>dependencies</title>
<polygon fill="white" stroke="transparent" points="-4,4 -4,-242.8 777,-242.8 777,4 -4,4"/>
<text text-anchor="middle" x="386.5" y="-8.2" font-family="sans-serif" font-size="14.00">dependencies</text>
<g id="clust1" class="cluster">
<title>cluster_ConfigDisplayGridFieldsModalModule</title>
<polygon fill="none" stroke="black" stroke-dasharray="1,5" points="8,-32.8 8,-230.8 765,-230.8 765,-32.8 8,-32.8"/>
</g>
<g id="clust4" class="cluster">
<title>cluster_ConfigDisplayGridFieldsModalModule_imports</title>
<polygon fill="none" stroke="black" points="300,-40.8 300,-92.8 757,-92.8 757,-40.8 300,-40.8"/>
</g>
<g id="clust2" class="cluster">
<title>cluster_ConfigDisplayGridFieldsModalModule_declarations</title>
<polygon fill="none" stroke="black" points="16,-40.8 16,-92.8 292,-92.8 292,-40.8 16,-40.8"/>
</g>
<g id="clust5" class="cluster">
<title>cluster_ConfigDisplayGridFieldsModalModule_exports</title>
<polygon fill="none" stroke="black" points="328,-170.8 328,-222.8 608,-222.8 608,-170.8 328,-170.8"/>
</g>
<!-- ConfigDisplayGridFieldsModalComponent -->
<g id="node1" class="node">
<title>ConfigDisplayGridFieldsModalComponent</title>
<polygon fill="#ffffb3" stroke="black" points="284.21,-84.8 23.79,-84.8 23.79,-48.8 284.21,-48.8 284.21,-84.8"/>
<text text-anchor="middle" x="154" y="-62.6" font-family="Times,serif" font-size="14.00">ConfigDisplayGridFieldsModalComponent</text>
</g>
<!-- ConfigDisplayGridFieldsModalModule -->
<g id="node2" class="node">
<title>ConfigDisplayGridFieldsModalModule</title>
<polygon fill="#8dd3c7" stroke="black" points="587.43,-149.8 584.43,-153.8 563.43,-153.8 560.43,-149.8 348.57,-149.8 348.57,-113.8 587.43,-113.8 587.43,-149.8"/>
<text text-anchor="middle" x="468" y="-127.6" font-family="Times,serif" font-size="14.00">ConfigDisplayGridFieldsModalModule</text>
</g>
<!-- ConfigDisplayGridFieldsModalComponent&#45;&gt;ConfigDisplayGridFieldsModalModule -->
<g id="edge1" class="edge">
<title>ConfigDisplayGridFieldsModalComponent&#45;&gt;ConfigDisplayGridFieldsModalModule</title>
<path fill="none" stroke="black" d="M154,-84.91C154,-104.14 154,-131.8 154,-131.8 154,-131.8 338.39,-131.8 338.39,-131.8"/>
<polygon fill="black" stroke="black" points="338.39,-135.3 348.39,-131.8 338.39,-128.3 338.39,-135.3"/>
</g>
<!-- ConfigDisplayGridFieldsModalComponent  -->
<g id="node6" class="node">
<title>ConfigDisplayGridFieldsModalComponent </title>
<polygon fill="#fb8072" stroke="black" points="599.71,-214.8 336.29,-214.8 336.29,-178.8 599.71,-178.8 599.71,-214.8"/>
<text text-anchor="middle" x="468" y="-192.6" font-family="Times,serif" font-size="14.00">ConfigDisplayGridFieldsModalComponent </text>
</g>
<!-- ConfigDisplayGridFieldsModalModule&#45;&gt;ConfigDisplayGridFieldsModalComponent  -->
<g id="edge5" class="edge">
<title>ConfigDisplayGridFieldsModalModule&#45;&gt;ConfigDisplayGridFieldsModalComponent </title>
<path fill="none" stroke="black" stroke-dasharray="5,2" d="M468,-149.91C468,-149.91 468,-168.79 468,-168.79"/>
<polygon fill="black" stroke="black" points="464.5,-168.79 468,-178.79 471.5,-168.79 464.5,-168.79"/>
</g>
<!-- SafeButtonModule -->
<g id="node3" class="node">
<title>SafeButtonModule</title>
<polygon fill="#8dd3c7" stroke="black" points="749.05,-84.8 746.05,-88.8 725.05,-88.8 722.05,-84.8 626.95,-84.8 626.95,-48.8 749.05,-48.8 749.05,-84.8"/>
<text text-anchor="middle" x="688" y="-62.6" font-family="Times,serif" font-size="14.00">SafeButtonModule</text>
</g>
<!-- SafeButtonModule&#45;&gt;ConfigDisplayGridFieldsModalModule -->
<g id="edge2" class="edge">
<title>SafeButtonModule&#45;&gt;ConfigDisplayGridFieldsModalModule</title>
<path fill="none" stroke="black" d="M688,-84.91C688,-104.14 688,-131.8 688,-131.8 688,-131.8 597.34,-131.8 597.34,-131.8"/>
<polygon fill="black" stroke="black" points="597.34,-128.3 587.34,-131.8 597.34,-135.3 597.34,-128.3"/>
</g>
<!-- SafeModalModule -->
<g id="node4" class="node">
<title>SafeModalModule</title>
<polygon fill="#8dd3c7" stroke="black" points="608.48,-84.8 605.48,-88.8 584.48,-88.8 581.48,-84.8 487.52,-84.8 487.52,-48.8 608.48,-48.8 608.48,-84.8"/>
<text text-anchor="middle" x="548" y="-62.6" font-family="Times,serif" font-size="14.00">SafeModalModule</text>
</g>
<!-- SafeModalModule&#45;&gt;ConfigDisplayGridFieldsModalModule -->
<g id="edge3" class="edge">
<title>SafeModalModule&#45;&gt;ConfigDisplayGridFieldsModalModule</title>
<path fill="none" stroke="black" d="M537.36,-84.91C537.36,-84.91 537.36,-103.79 537.36,-103.79"/>
<polygon fill="black" stroke="black" points="533.86,-103.79 537.36,-113.79 540.86,-103.79 533.86,-103.79"/>
</g>
<!-- SafeQueryBuilderModule -->
<g id="node5" class="node">
<title>SafeQueryBuilderModule</title>
<polygon fill="#8dd3c7" stroke="black" points="469.91,-84.8 466.91,-88.8 445.91,-88.8 442.91,-84.8 308.09,-84.8 308.09,-48.8 469.91,-48.8 469.91,-84.8"/>
<text text-anchor="middle" x="389" y="-62.6" font-family="Times,serif" font-size="14.00">SafeQueryBuilderModule</text>
</g>
<!-- SafeQueryBuilderModule&#45;&gt;ConfigDisplayGridFieldsModalModule -->
<g id="edge4" class="edge">
<title>SafeQueryBuilderModule&#45;&gt;ConfigDisplayGridFieldsModalModule</title>
<path fill="none" stroke="black" d="M409.24,-84.91C409.24,-84.91 409.24,-103.79 409.24,-103.79"/>
<polygon fill="black" stroke="black" points="405.74,-103.79 409.24,-113.79 412.74,-103.79 405.74,-103.79"/>
</g>
</g>
</svg>
