<?xml version="1.0" encoding="UTF-8" standalone="no"?>
<!DOCTYPE svg PUBLIC "-//W3C//DTD SVG 1.1//EN"
 "http://www.w3.org/Graphics/SVG/1.1/DTD/svg11.dtd">
<!-- Generated by graphviz version 3.0.0 (20220226.1711)
 -->
<!-- Title: dependencies Pages: 1 -->
<svg width="2275pt" height="358pt"
 viewBox="0.00 0.00 2275.00 358.39" xmlns="http://www.w3.org/2000/svg" xmlns:xlink="http://www.w3.org/1999/xlink">
<g id="graph0" class="graph" transform="scale(1 1) rotate(0) translate(4 354.39)">
<title>dependencies</title>
<polygon fill="white" stroke="transparent" points="-4,4 -4,-354.39 2271,-354.39 2271,4 -4,4"/>
<text text-anchor="middle" x="1133.5" y="-8.2" font-family="sans-serif" font-size="14.00">dependencies</text>
<g id="clust1" class="cluster">
<title>cluster_ConfigDisplayGridFieldsModalModule</title>
<polygon fill="none" stroke="black" stroke-dasharray="1,5" points="8,-32.8 8,-342.39 2259,-342.39 2259,-32.8 8,-32.8"/>
</g>
<g id="clust3" class="cluster">
<title>cluster_ConfigDisplayGridFieldsModalModule_ConfigDisplayGridFieldsModalComponent_providers</title>
<polygon fill="none" stroke="black" points="481,-40.8 481,-204.39 2251,-204.39 2251,-40.8 481,-40.8"/>
</g>
<g id="clust4" class="cluster">
<title>cluster_ConfigDisplayGridFieldsModalModule_imports</title>
<polygon fill="none" stroke="black" points="16,-152.39 16,-204.39 473,-204.39 473,-152.39 16,-152.39"/>
</g>
<g id="clust5" class="cluster">
<title>cluster_ConfigDisplayGridFieldsModalModule_exports</title>
<polygon fill="none" stroke="black" points="194,-282.39 194,-334.39 474,-334.39 474,-282.39 194,-282.39"/>
</g>
<!-- ConfigDisplayGridFieldsModalComponent -->
<g id="node1" class="node">
<title>ConfigDisplayGridFieldsModalComponent</title>
<polygon fill="#ffffb3" stroke="black" points="1425.21,-196.39 1164.79,-196.39 1164.79,-160.39 1425.21,-160.39 1425.21,-196.39"/>
<text text-anchor="middle" x="1295" y="-174.19" font-family="Times,serif" font-size="14.00">ConfigDisplayGridFieldsModalComponent</text>
</g>
<!-- ConfigDisplayGridFieldsModalModule -->
<g id="node2" class="node">
<title>ConfigDisplayGridFieldsModalModule</title>
<polygon fill="#8dd3c7" stroke="black" points="453.43,-261.39 450.43,-265.39 429.43,-265.39 426.43,-261.39 214.57,-261.39 214.57,-225.39 453.43,-225.39 453.43,-261.39"/>
<text text-anchor="middle" x="334" y="-239.19" font-family="Times,serif" font-size="14.00">ConfigDisplayGridFieldsModalModule</text>
</g>
<!-- ConfigDisplayGridFieldsModalComponent&#45;&gt;ConfigDisplayGridFieldsModalModule -->
<g id="edge1" class="edge">
<title>ConfigDisplayGridFieldsModalComponent&#45;&gt;ConfigDisplayGridFieldsModalModule</title>
<path fill="none" stroke="black" d="M1295,-196.5C1295,-215.73 1295,-243.39 1295,-243.39 1295,-243.39 463.28,-243.39 463.28,-243.39"/>
<polygon fill="black" stroke="black" points="463.28,-239.89 453.28,-243.39 463.28,-246.89 463.28,-239.89"/>
</g>
<!-- ConfigDisplayGridFieldsModalComponent  -->
<g id="node9" class="node">
<title>ConfigDisplayGridFieldsModalComponent </title>
<polygon fill="#fb8072" stroke="black" points="465.71,-326.39 202.29,-326.39 202.29,-290.39 465.71,-290.39 465.71,-326.39"/>
<text text-anchor="middle" x="334" y="-304.19" font-family="Times,serif" font-size="14.00">ConfigDisplayGridFieldsModalComponent </text>
</g>
<!-- ConfigDisplayGridFieldsModalModule&#45;&gt;ConfigDisplayGridFieldsModalComponent  -->
<g id="edge8" class="edge">
<title>ConfigDisplayGridFieldsModalModule&#45;&gt;ConfigDisplayGridFieldsModalComponent </title>
<path fill="none" stroke="black" stroke-dasharray="5,2" d="M334,-261.5C334,-261.5 334,-280.38 334,-280.38"/>
<polygon fill="black" stroke="black" points="330.5,-280.38 334,-290.38 337.5,-280.38 330.5,-280.38"/>
</g>
<!-- PopupService -->
<g id="node3" class="node">
<title>PopupService</title>
<ellipse fill="#fdb462" stroke="black" cx="2178" cy="-90.1" rx="64.86" ry="18"/>
<text text-anchor="middle" x="2178" y="-85.9" font-family="Times,serif" font-size="14.00">PopupService</text>
</g>
<!-- PopupService&#45;&gt;ConfigDisplayGridFieldsModalComponent -->
<g id="edge2" class="edge">
<title>PopupService&#45;&gt;ConfigDisplayGridFieldsModalComponent</title>
<path fill="none" stroke="black" d="M2178,-108.39C2178,-134.25 2178,-178.39 2178,-178.39 2178,-178.39 1435.29,-178.39 1435.29,-178.39"/>
<polygon fill="black" stroke="black" points="1435.29,-174.89 1425.29,-178.39 1435.29,-181.89 1435.29,-174.89"/>
</g>
<!-- {
 &#160;&#160;&#160;provide: MAT_SELECT_SCROLL_STRATEGY, useFactory: scrollFactory, deps: [Overlay],
} -->
<g id="node4" class="node">
<title>{
 &#160;&#160;&#160;provide: MAT_SELECT_SCROLL_STRATEGY, useFactory: scrollFactory, deps: [Overlay],
}</title>
<ellipse fill="#fdb462" stroke="black" cx="1701" cy="-90.1" rx="394.68" ry="41.09"/>
<text text-anchor="middle" x="1701" y="-102.7" font-family="Times,serif" font-size="14.00">{</text>
<text text-anchor="middle" x="1701" y="-85.9" font-family="Times,serif" font-size="14.00"> &#160;&#160;&#160;provide: MAT_SELECT_SCROLL_STRATEGY, useFactory: scrollFactory, deps: [Overlay],</text>
<text text-anchor="middle" x="1701" y="-69.1" font-family="Times,serif" font-size="14.00">}</text>
</g>
<!-- {
 &#160;&#160;&#160;provide: MAT_SELECT_SCROLL_STRATEGY, useFactory: scrollFactory, deps: [Overlay],
}&#45;&gt;ConfigDisplayGridFieldsModalComponent -->
<g id="edge3" class="edge">
<title>{
 &#160;&#160;&#160;provide: MAT_SELECT_SCROLL_STRATEGY, useFactory: scrollFactory, deps: [Overlay],
}&#45;&gt;ConfigDisplayGridFieldsModalComponent</title>
<path fill="none" stroke="black" d="M1365.76,-111.92C1365.76,-111.92 1365.76,-150.38 1365.76,-150.38"/>
<polygon fill="black" stroke="black" points="1362.26,-150.38 1365.76,-160.38 1369.26,-150.38 1362.26,-150.38"/>
</g>
<!-- {
 &#160;&#160;&#160;provide: MAT_TOOLTIP_SCROLL_STRATEGY, useFactory: scrollFactory, deps: [Overlay],
} -->
<g id="node5" class="node">
<title>{
 &#160;&#160;&#160;provide: MAT_TOOLTIP_SCROLL_STRATEGY, useFactory: scrollFactory, deps: [Overlay],
}</title>
<ellipse fill="#fdb462" stroke="black" cx="889" cy="-90.1" rx="399.57" ry="41.09"/>
<text text-anchor="middle" x="889" y="-102.7" font-family="Times,serif" font-size="14.00">{</text>
<text text-anchor="middle" x="889" y="-85.9" font-family="Times,serif" font-size="14.00"> &#160;&#160;&#160;provide: MAT_TOOLTIP_SCROLL_STRATEGY, useFactory: scrollFactory, deps: [Overlay],</text>
<text text-anchor="middle" x="889" y="-69.1" font-family="Times,serif" font-size="14.00">}</text>
</g>
<!-- {
 &#160;&#160;&#160;provide: MAT_TOOLTIP_SCROLL_STRATEGY, useFactory: scrollFactory, deps: [Overlay],
}&#45;&gt;ConfigDisplayGridFieldsModalComponent -->
<g id="edge4" class="edge">
<title>{
 &#160;&#160;&#160;provide: MAT_TOOLTIP_SCROLL_STRATEGY, useFactory: scrollFactory, deps: [Overlay],
}&#45;&gt;ConfigDisplayGridFieldsModalComponent</title>
<path fill="none" stroke="black" d="M1226.71,-112.38C1226.71,-112.38 1226.71,-150.28 1226.71,-150.28"/>
<polygon fill="black" stroke="black" points="1223.21,-150.28 1226.71,-160.28 1230.21,-150.28 1223.21,-150.28"/>
</g>
<!-- SafeButtonModule -->
<g id="node6" class="node">
<title>SafeButtonModule</title>
<polygon fill="#8dd3c7" stroke="black" points="465.05,-196.39 462.05,-200.39 441.05,-200.39 438.05,-196.39 342.95,-196.39 342.95,-160.39 465.05,-160.39 465.05,-196.39"/>
<text text-anchor="middle" x="404" y="-174.19" font-family="Times,serif" font-size="14.00">SafeButtonModule</text>
</g>
<!-- SafeButtonModule&#45;&gt;ConfigDisplayGridFieldsModalModule -->
<g id="edge5" class="edge">
<title>SafeButtonModule&#45;&gt;ConfigDisplayGridFieldsModalModule</title>
<path fill="none" stroke="black" d="M397.97,-196.5C397.97,-196.5 397.97,-215.38 397.97,-215.38"/>
<polygon fill="black" stroke="black" points="394.47,-215.38 397.97,-225.38 401.47,-215.38 394.47,-215.38"/>
</g>
<!-- SafeModalModule -->
<g id="node7" class="node">
<title>SafeModalModule</title>
<polygon fill="#8dd3c7" stroke="black" points="324.48,-196.39 321.48,-200.39 300.48,-200.39 297.48,-196.39 203.52,-196.39 203.52,-160.39 324.48,-160.39 324.48,-196.39"/>
<text text-anchor="middle" x="264" y="-174.19" font-family="Times,serif" font-size="14.00">SafeModalModule</text>
</g>
<!-- SafeModalModule&#45;&gt;ConfigDisplayGridFieldsModalModule -->
<g id="edge6" class="edge">
<title>SafeModalModule&#45;&gt;ConfigDisplayGridFieldsModalModule</title>
<path fill="none" stroke="black" d="M269.64,-196.5C269.64,-196.5 269.64,-215.38 269.64,-215.38"/>
<polygon fill="black" stroke="black" points="266.14,-215.38 269.64,-225.38 273.14,-215.38 266.14,-215.38"/>
</g>
<!-- SafeQueryBuilderModule -->
<g id="node8" class="node">
<title>SafeQueryBuilderModule</title>
<polygon fill="#8dd3c7" stroke="black" points="185.91,-196.39 182.91,-200.39 161.91,-200.39 158.91,-196.39 24.09,-196.39 24.09,-160.39 185.91,-160.39 185.91,-196.39"/>
<text text-anchor="middle" x="105" y="-174.19" font-family="Times,serif" font-size="14.00">SafeQueryBuilderModule</text>
</g>
<!-- SafeQueryBuilderModule&#45;&gt;ConfigDisplayGridFieldsModalModule -->
<g id="edge7" class="edge">
<title>SafeQueryBuilderModule&#45;&gt;ConfigDisplayGridFieldsModalModule</title>
<path fill="none" stroke="black" d="M105,-196.5C105,-215.73 105,-243.39 105,-243.39 105,-243.39 204.47,-243.39 204.47,-243.39"/>
<polygon fill="black" stroke="black" points="204.47,-246.89 214.47,-243.39 204.47,-239.89 204.47,-246.89"/>
</g>
</g>
</svg>
