<?xml version="1.0" encoding="UTF-8" standalone="no"?>
<!DOCTYPE svg PUBLIC "-//W3C//DTD SVG 1.1//EN"
 "http://www.w3.org/Graphics/SVG/1.1/DTD/svg11.dtd">
<!-- Generated by graphviz version 3.0.0 (20220226.1711)
 -->
<!-- Title: dependencies Pages: 1 -->
<svg width="1810pt" height="358pt"
 viewBox="0.00 0.00 1810.00 358.39" xmlns="http://www.w3.org/2000/svg" xmlns:xlink="http://www.w3.org/1999/xlink">
<g id="graph0" class="graph" transform="scale(1 1) rotate(0) translate(4 354.39)">
<title>dependencies</title>
<polygon fill="white" stroke="transparent" points="-4,4 -4,-354.39 1806,-354.39 1806,4 -4,4"/>
<text text-anchor="middle" x="901" y="-8.2" font-family="sans-serif" font-size="14.00">dependencies</text>
<g id="clust1" class="cluster">
<title>cluster_ConfigDisplayGridFieldsModalModule</title>
<polygon fill="none" stroke="black" stroke-dasharray="1,5" points="8,-32.8 8,-342.39 1794,-342.39 1794,-32.8 8,-32.8"/>
</g>
<g id="clust2" class="cluster">
<title>cluster_ConfigDisplayGridFieldsModalModule_declarations</title>
<polygon fill="none" stroke="black" points="1098,-152.39 1098,-204.39 1374,-204.39 1374,-152.39 1098,-152.39"/>
</g>
<g id="clust5" class="cluster">
<title>cluster_ConfigDisplayGridFieldsModalModule_exports</title>
<polygon fill="none" stroke="black" points="811,-282.39 811,-334.39 1091,-334.39 1091,-282.39 811,-282.39"/>
</g>
<g id="clust3" class="cluster">
<title>cluster_ConfigDisplayGridFieldsModalModule_ConfigDisplayGridFieldsModalComponent_providers</title>
<polygon fill="none" stroke="black" points="16,-40.8 16,-139.39 1786,-139.39 1786,-40.8 16,-40.8"/>
</g>
<g id="clust4" class="cluster">
<title>cluster_ConfigDisplayGridFieldsModalModule_imports</title>
<polygon fill="none" stroke="black" points="633,-152.39 633,-204.39 1090,-204.39 1090,-152.39 633,-152.39"/>
</g>
<!-- ConfigDisplayGridFieldsModalComponent -->
<g id="node1" class="node">
<title>ConfigDisplayGridFieldsModalComponent</title>
<polygon fill="#ffffb3" stroke="black" points="1366.21,-196.39 1105.79,-196.39 1105.79,-160.39 1366.21,-160.39 1366.21,-196.39"/>
<text text-anchor="middle" x="1236" y="-174.19" font-family="Times,serif" font-size="14.00">ConfigDisplayGridFieldsModalComponent</text>
</g>
<!-- ConfigDisplayGridFieldsModalModule -->
<g id="node2" class="node">
<title>ConfigDisplayGridFieldsModalModule</title>
<polygon fill="#8dd3c7" stroke="black" points="1070.43,-261.39 1067.43,-265.39 1046.43,-265.39 1043.43,-261.39 831.57,-261.39 831.57,-225.39 1070.43,-225.39 1070.43,-261.39"/>
<text text-anchor="middle" x="951" y="-239.19" font-family="Times,serif" font-size="14.00">ConfigDisplayGridFieldsModalModule</text>
</g>
<!-- ConfigDisplayGridFieldsModalComponent&#45;&gt;ConfigDisplayGridFieldsModalModule -->
<g id="edge1" class="edge">
<title>ConfigDisplayGridFieldsModalComponent&#45;&gt;ConfigDisplayGridFieldsModalModule</title>
<path fill="none" stroke="black" d="M1236,-196.5C1236,-215.73 1236,-243.39 1236,-243.39 1236,-243.39 1080.63,-243.39 1080.63,-243.39"/>
<polygon fill="black" stroke="black" points="1080.63,-239.89 1070.63,-243.39 1080.63,-246.89 1080.63,-239.89"/>
</g>
<!-- ConfigDisplayGridFieldsModalComponent  -->
<g id="node9" class="node">
<title>ConfigDisplayGridFieldsModalComponent </title>
<polygon fill="#fb8072" stroke="black" points="1082.71,-326.39 819.29,-326.39 819.29,-290.39 1082.71,-290.39 1082.71,-326.39"/>
<text text-anchor="middle" x="951" y="-304.19" font-family="Times,serif" font-size="14.00">ConfigDisplayGridFieldsModalComponent </text>
</g>
<!-- ConfigDisplayGridFieldsModalModule&#45;&gt;ConfigDisplayGridFieldsModalComponent  -->
<g id="edge8" class="edge">
<title>ConfigDisplayGridFieldsModalModule&#45;&gt;ConfigDisplayGridFieldsModalComponent </title>
<path fill="none" stroke="black" stroke-dasharray="5,2" d="M951,-261.5C951,-261.5 951,-280.38 951,-280.38"/>
<polygon fill="black" stroke="black" points="947.5,-280.38 951,-290.38 954.5,-280.38 947.5,-280.38"/>
</g>
<!-- PopupService -->
<g id="node3" class="node">
<title>PopupService</title>
<ellipse fill="#fdb462" stroke="black" cx="1713" cy="-90.1" rx="64.86" ry="18"/>
<text text-anchor="middle" x="1713" y="-85.9" font-family="Times,serif" font-size="14.00">PopupService</text>
</g>
<!-- PopupService&#45;&gt;ConfigDisplayGridFieldsModalComponent -->
<g id="edge2" class="edge">
<title>PopupService&#45;&gt;ConfigDisplayGridFieldsModalComponent</title>
<path fill="none" stroke="black" d="M1713,-108.39C1713,-134.25 1713,-178.39 1713,-178.39 1713,-178.39 1376.34,-178.39 1376.34,-178.39"/>
<polygon fill="black" stroke="black" points="1376.34,-174.89 1366.34,-178.39 1376.34,-181.89 1376.34,-174.89"/>
</g>
<!-- {
 &#160;&#160;&#160;provide: MAT_SELECT_SCROLL_STRATEGY, useFactory: scrollFactory, deps: [Overlay],
} -->
<g id="node4" class="node">
<title>{
 &#160;&#160;&#160;provide: MAT_SELECT_SCROLL_STRATEGY, useFactory: scrollFactory, deps: [Overlay],
}</title>
<ellipse fill="#fdb462" stroke="black" cx="1236" cy="-90.1" rx="394.68" ry="41.09"/>
<text text-anchor="middle" x="1236" y="-102.7" font-family="Times,serif" font-size="14.00">{</text>
<text text-anchor="middle" x="1236" y="-85.9" font-family="Times,serif" font-size="14.00"> &#160;&#160;&#160;provide: MAT_SELECT_SCROLL_STRATEGY, useFactory: scrollFactory, deps: [Overlay],</text>
<text text-anchor="middle" x="1236" y="-69.1" font-family="Times,serif" font-size="14.00">}</text>
</g>
<!-- {
 &#160;&#160;&#160;provide: MAT_SELECT_SCROLL_STRATEGY, useFactory: scrollFactory, deps: [Overlay],
}&#45;&gt;ConfigDisplayGridFieldsModalComponent -->
<g id="edge3" class="edge">
<title>{
 &#160;&#160;&#160;provide: MAT_SELECT_SCROLL_STRATEGY, useFactory: scrollFactory, deps: [Overlay],
}&#45;&gt;ConfigDisplayGridFieldsModalComponent</title>
<path fill="none" stroke="black" d="M1279.37,-131.14C1279.37,-131.14 1279.37,-150.38 1279.37,-150.38"/>
<polygon fill="black" stroke="black" points="1275.87,-150.38 1279.37,-160.38 1282.87,-150.38 1275.87,-150.38"/>
</g>
<!-- {
 &#160;&#160;&#160;provide: MAT_TOOLTIP_SCROLL_STRATEGY, useFactory: scrollFactory, deps: [Overlay],
} -->
<g id="node5" class="node">
<title>{
 &#160;&#160;&#160;provide: MAT_TOOLTIP_SCROLL_STRATEGY, useFactory: scrollFactory, deps: [Overlay],
}</title>
<ellipse fill="#fdb462" stroke="black" cx="424" cy="-90.1" rx="399.57" ry="41.09"/>
<text text-anchor="middle" x="424" y="-102.7" font-family="Times,serif" font-size="14.00">{</text>
<text text-anchor="middle" x="424" y="-85.9" font-family="Times,serif" font-size="14.00"> &#160;&#160;&#160;provide: MAT_TOOLTIP_SCROLL_STRATEGY, useFactory: scrollFactory, deps: [Overlay],</text>
<text text-anchor="middle" x="424" y="-69.1" font-family="Times,serif" font-size="14.00">}</text>
</g>
<!-- {
 &#160;&#160;&#160;provide: MAT_TOOLTIP_SCROLL_STRATEGY, useFactory: scrollFactory, deps: [Overlay],
}&#45;&gt;ConfigDisplayGridFieldsModalComponent -->
<g id="edge4" class="edge">
<title>{
 &#160;&#160;&#160;provide: MAT_TOOLTIP_SCROLL_STRATEGY, useFactory: scrollFactory, deps: [Overlay],
}&#45;&gt;ConfigDisplayGridFieldsModalComponent</title>
<path fill="none" stroke="black" d="M810.92,-100.42C810.92,-116.67 810.92,-146.39 810.92,-146.39 810.92,-146.39 1192.63,-146.39 1192.63,-146.39 1192.63,-146.39 1192.63,-150.15 1192.63,-150.15"/>
<polygon fill="black" stroke="black" points="1189.13,-150.15 1192.63,-160.15 1196.13,-150.15 1189.13,-150.15"/>
</g>
<!-- SafeButtonModule -->
<g id="node6" class="node">
<title>SafeButtonModule</title>
<polygon fill="#8dd3c7" stroke="black" points="1082.05,-196.39 1079.05,-200.39 1058.05,-200.39 1055.05,-196.39 959.95,-196.39 959.95,-160.39 1082.05,-160.39 1082.05,-196.39"/>
<text text-anchor="middle" x="1021" y="-174.19" font-family="Times,serif" font-size="14.00">SafeButtonModule</text>
</g>
<!-- SafeButtonModule&#45;&gt;ConfigDisplayGridFieldsModalModule -->
<g id="edge5" class="edge">
<title>SafeButtonModule&#45;&gt;ConfigDisplayGridFieldsModalModule</title>
<path fill="none" stroke="black" d="M1014.97,-196.5C1014.97,-196.5 1014.97,-215.38 1014.97,-215.38"/>
<polygon fill="black" stroke="black" points="1011.47,-215.38 1014.97,-225.38 1018.47,-215.38 1011.47,-215.38"/>
</g>
<!-- SafeModalModule -->
<g id="node7" class="node">
<title>SafeModalModule</title>
<polygon fill="#8dd3c7" stroke="black" points="941.48,-196.39 938.48,-200.39 917.48,-200.39 914.48,-196.39 820.52,-196.39 820.52,-160.39 941.48,-160.39 941.48,-196.39"/>
<text text-anchor="middle" x="881" y="-174.19" font-family="Times,serif" font-size="14.00">SafeModalModule</text>
</g>
<!-- SafeModalModule&#45;&gt;ConfigDisplayGridFieldsModalModule -->
<g id="edge6" class="edge">
<title>SafeModalModule&#45;&gt;ConfigDisplayGridFieldsModalModule</title>
<path fill="none" stroke="black" d="M886.64,-196.5C886.64,-196.5 886.64,-215.38 886.64,-215.38"/>
<polygon fill="black" stroke="black" points="883.14,-215.38 886.64,-225.38 890.14,-215.38 883.14,-215.38"/>
</g>
<!-- SafeQueryBuilderModule -->
<g id="node8" class="node">
<title>SafeQueryBuilderModule</title>
<polygon fill="#8dd3c7" stroke="black" points="802.91,-196.39 799.91,-200.39 778.91,-200.39 775.91,-196.39 641.09,-196.39 641.09,-160.39 802.91,-160.39 802.91,-196.39"/>
<text text-anchor="middle" x="722" y="-174.19" font-family="Times,serif" font-size="14.00">SafeQueryBuilderModule</text>
</g>
<!-- SafeQueryBuilderModule&#45;&gt;ConfigDisplayGridFieldsModalModule -->
<g id="edge7" class="edge">
<title>SafeQueryBuilderModule&#45;&gt;ConfigDisplayGridFieldsModalModule</title>
<path fill="none" stroke="black" d="M722,-196.5C722,-215.73 722,-243.39 722,-243.39 722,-243.39 821.47,-243.39 821.47,-243.39"/>
<polygon fill="black" stroke="black" points="821.47,-246.89 831.47,-243.39 821.47,-239.89 821.47,-246.89"/>
</g>
</g>
</svg>
