<?xml version="1.0" encoding="UTF-8" standalone="no"?>
<!DOCTYPE svg PUBLIC "-//W3C//DTD SVG 1.1//EN"
 "http://www.w3.org/Graphics/SVG/1.1/DTD/svg11.dtd">
<!-- Generated by graphviz version 3.0.0 (20220226.1711)
 -->
<!-- Title: dependencies Pages: 1 -->
<svg width="2275pt" height="358pt"
 viewBox="0.00 0.00 2275.00 358.39" xmlns="http://www.w3.org/2000/svg" xmlns:xlink="http://www.w3.org/1999/xlink">
<g id="graph0" class="graph" transform="scale(1 1) rotate(0) translate(4 354.39)">
<title>dependencies</title>
<polygon fill="white" stroke="transparent" points="-4,4 -4,-354.39 2271,-354.39 2271,4 -4,4"/>
<text text-anchor="middle" x="1133.5" y="-8.2" font-family="sans-serif" font-size="14.00">dependencies</text>
<g id="clust1" class="cluster">
<title>cluster_ConfigDisplayGridFieldsModalModule</title>
<polygon fill="none" stroke="black" stroke-dasharray="1,5" points="8,-32.8 8,-342.39 2259,-342.39 2259,-32.8 8,-32.8"/>
</g>
<g id="clust4" class="cluster">
<title>cluster_ConfigDisplayGridFieldsModalModule_imports</title>
<polygon fill="none" stroke="black" points="1794,-152.39 1794,-204.39 2251,-204.39 2251,-152.39 1794,-152.39"/>
</g>
<g id="clust3" class="cluster">
<title>cluster_ConfigDisplayGridFieldsModalModule_ConfigDisplayGridFieldsModalComponent_providers</title>
<polygon fill="none" stroke="black" points="16,-40.8 16,-204.39 1786,-204.39 1786,-40.8 16,-40.8"/>
</g>
<g id="clust5" class="cluster">
<title>cluster_ConfigDisplayGridFieldsModalModule_exports</title>
<polygon fill="none" stroke="black" points="1822,-282.39 1822,-334.39 2102,-334.39 2102,-282.39 1822,-282.39"/>
</g>
<!-- ConfigDisplayGridFieldsModalComponent -->
<g id="node1" class="node">
<title>ConfigDisplayGridFieldsModalComponent</title>
<polygon fill="#ffffb3" stroke="black" points="1572.21,-196.39 1311.79,-196.39 1311.79,-160.39 1572.21,-160.39 1572.21,-196.39"/>
<text text-anchor="middle" x="1442" y="-174.19" font-family="Times,serif" font-size="14.00">ConfigDisplayGridFieldsModalComponent</text>
</g>
<!-- ConfigDisplayGridFieldsModalModule -->
<g id="node2" class="node">
<title>ConfigDisplayGridFieldsModalModule</title>
<polygon fill="#8dd3c7" stroke="black" points="2081.43,-261.39 2078.43,-265.39 2057.43,-265.39 2054.43,-261.39 1842.57,-261.39 1842.57,-225.39 2081.43,-225.39 2081.43,-261.39"/>
<text text-anchor="middle" x="1962" y="-239.19" font-family="Times,serif" font-size="14.00">ConfigDisplayGridFieldsModalModule</text>
</g>
<!-- ConfigDisplayGridFieldsModalComponent&#45;&gt;ConfigDisplayGridFieldsModalModule -->
<g id="edge1" class="edge">
<title>ConfigDisplayGridFieldsModalComponent&#45;&gt;ConfigDisplayGridFieldsModalModule</title>
<path fill="none" stroke="black" d="M1442,-196.5C1442,-215.73 1442,-243.39 1442,-243.39 1442,-243.39 1832.7,-243.39 1832.7,-243.39"/>
<polygon fill="black" stroke="black" points="1832.7,-246.89 1842.7,-243.39 1832.7,-239.89 1832.7,-246.89"/>
</g>
<!-- ConfigDisplayGridFieldsModalComponent  -->
<g id="node9" class="node">
<title>ConfigDisplayGridFieldsModalComponent </title>
<polygon fill="#fb8072" stroke="black" points="2093.71,-326.39 1830.29,-326.39 1830.29,-290.39 2093.71,-290.39 2093.71,-326.39"/>
<text text-anchor="middle" x="1962" y="-304.19" font-family="Times,serif" font-size="14.00">ConfigDisplayGridFieldsModalComponent </text>
</g>
<!-- ConfigDisplayGridFieldsModalModule&#45;&gt;ConfigDisplayGridFieldsModalComponent  -->
<g id="edge8" class="edge">
<title>ConfigDisplayGridFieldsModalModule&#45;&gt;ConfigDisplayGridFieldsModalComponent </title>
<path fill="none" stroke="black" stroke-dasharray="5,2" d="M1962,-261.5C1962,-261.5 1962,-280.38 1962,-280.38"/>
<polygon fill="black" stroke="black" points="1958.5,-280.38 1962,-290.38 1965.5,-280.38 1958.5,-280.38"/>
</g>
<!-- PopupService -->
<g id="node3" class="node">
<title>PopupService</title>
<ellipse fill="#fdb462" stroke="black" cx="1713" cy="-90.1" rx="64.86" ry="18"/>
<text text-anchor="middle" x="1713" y="-85.9" font-family="Times,serif" font-size="14.00">PopupService</text>
</g>
<!-- PopupService&#45;&gt;ConfigDisplayGridFieldsModalComponent -->
<g id="edge2" class="edge">
<title>PopupService&#45;&gt;ConfigDisplayGridFieldsModalComponent</title>
<path fill="none" stroke="black" d="M1713,-108.39C1713,-134.25 1713,-178.39 1713,-178.39 1713,-178.39 1582.34,-178.39 1582.34,-178.39"/>
<polygon fill="black" stroke="black" points="1582.34,-174.89 1572.34,-178.39 1582.34,-181.89 1582.34,-174.89"/>
</g>
<!-- {
 &#160;&#160;&#160;provide: MAT_SELECT_SCROLL_STRATEGY, useFactory: scrollFactory, deps: [Overlay],
} -->
<g id="node4" class="node">
<title>{
 &#160;&#160;&#160;provide: MAT_SELECT_SCROLL_STRATEGY, useFactory: scrollFactory, deps: [Overlay],
}</title>
<ellipse fill="#fdb462" stroke="black" cx="1236" cy="-90.1" rx="394.68" ry="41.09"/>
<text text-anchor="middle" x="1236" y="-102.7" font-family="Times,serif" font-size="14.00">{</text>
<text text-anchor="middle" x="1236" y="-85.9" font-family="Times,serif" font-size="14.00"> &#160;&#160;&#160;provide: MAT_SELECT_SCROLL_STRATEGY, useFactory: scrollFactory, deps: [Overlay],</text>
<text text-anchor="middle" x="1236" y="-69.1" font-family="Times,serif" font-size="14.00">}</text>
</g>
<!-- {
 &#160;&#160;&#160;provide: MAT_SELECT_SCROLL_STRATEGY, useFactory: scrollFactory, deps: [Overlay],
}&#45;&gt;ConfigDisplayGridFieldsModalComponent -->
<g id="edge3" class="edge">
<title>{
 &#160;&#160;&#160;provide: MAT_SELECT_SCROLL_STRATEGY, useFactory: scrollFactory, deps: [Overlay],
}&#45;&gt;ConfigDisplayGridFieldsModalComponent</title>
<path fill="none" stroke="black" d="M1442,-125.5C1442,-125.5 1442,-150.2 1442,-150.2"/>
<polygon fill="black" stroke="black" points="1438.5,-150.2 1442,-160.2 1445.5,-150.2 1438.5,-150.2"/>
</g>
<!-- {
 &#160;&#160;&#160;provide: MAT_TOOLTIP_SCROLL_STRATEGY, useFactory: scrollFactory, deps: [Overlay],
} -->
<g id="node5" class="node">
<title>{
 &#160;&#160;&#160;provide: MAT_TOOLTIP_SCROLL_STRATEGY, useFactory: scrollFactory, deps: [Overlay],
}</title>
<ellipse fill="#fdb462" stroke="black" cx="424" cy="-90.1" rx="399.57" ry="41.09"/>
<text text-anchor="middle" x="424" y="-102.7" font-family="Times,serif" font-size="14.00">{</text>
<text text-anchor="middle" x="424" y="-85.9" font-family="Times,serif" font-size="14.00"> &#160;&#160;&#160;provide: MAT_TOOLTIP_SCROLL_STRATEGY, useFactory: scrollFactory, deps: [Overlay],</text>
<text text-anchor="middle" x="424" y="-69.1" font-family="Times,serif" font-size="14.00">}</text>
</g>
<!-- {
 &#160;&#160;&#160;provide: MAT_TOOLTIP_SCROLL_STRATEGY, useFactory: scrollFactory, deps: [Overlay],
}&#45;&gt;ConfigDisplayGridFieldsModalComponent -->
<g id="edge4" class="edge">
<title>{
 &#160;&#160;&#160;provide: MAT_TOOLTIP_SCROLL_STRATEGY, useFactory: scrollFactory, deps: [Overlay],
}&#45;&gt;ConfigDisplayGridFieldsModalComponent</title>
<path fill="none" stroke="black" d="M424,-131.4C424,-154.38 424,-178.39 424,-178.39 424,-178.39 1301.78,-178.39 1301.78,-178.39"/>
<polygon fill="black" stroke="black" points="1301.78,-181.89 1311.78,-178.39 1301.78,-174.89 1301.78,-181.89"/>
</g>
<!-- SafeButtonModule -->
<g id="node6" class="node">
<title>SafeButtonModule</title>
<polygon fill="#8dd3c7" stroke="black" points="2243.05,-196.39 2240.05,-200.39 2219.05,-200.39 2216.05,-196.39 2120.95,-196.39 2120.95,-160.39 2243.05,-160.39 2243.05,-196.39"/>
<text text-anchor="middle" x="2182" y="-174.19" font-family="Times,serif" font-size="14.00">SafeButtonModule</text>
</g>
<!-- SafeButtonModule&#45;&gt;ConfigDisplayGridFieldsModalModule -->
<g id="edge5" class="edge">
<title>SafeButtonModule&#45;&gt;ConfigDisplayGridFieldsModalModule</title>
<path fill="none" stroke="black" d="M2182,-196.5C2182,-215.73 2182,-243.39 2182,-243.39 2182,-243.39 2091.34,-243.39 2091.34,-243.39"/>
<polygon fill="black" stroke="black" points="2091.34,-239.89 2081.34,-243.39 2091.34,-246.89 2091.34,-239.89"/>
</g>
<!-- SafeModalModule -->
<g id="node7" class="node">
<title>SafeModalModule</title>
<polygon fill="#8dd3c7" stroke="black" points="2102.48,-196.39 2099.48,-200.39 2078.48,-200.39 2075.48,-196.39 1981.52,-196.39 1981.52,-160.39 2102.48,-160.39 2102.48,-196.39"/>
<text text-anchor="middle" x="2042" y="-174.19" font-family="Times,serif" font-size="14.00">SafeModalModule</text>
</g>
<!-- SafeModalModule&#45;&gt;ConfigDisplayGridFieldsModalModule -->
<g id="edge6" class="edge">
<title>SafeModalModule&#45;&gt;ConfigDisplayGridFieldsModalModule</title>
<path fill="none" stroke="black" d="M2031.36,-196.5C2031.36,-196.5 2031.36,-215.38 2031.36,-215.38"/>
<polygon fill="black" stroke="black" points="2027.86,-215.38 2031.36,-225.38 2034.86,-215.38 2027.86,-215.38"/>
</g>
<!-- SafeQueryBuilderModule -->
<g id="node8" class="node">
<title>SafeQueryBuilderModule</title>
<polygon fill="#8dd3c7" stroke="black" points="1963.91,-196.39 1960.91,-200.39 1939.91,-200.39 1936.91,-196.39 1802.09,-196.39 1802.09,-160.39 1963.91,-160.39 1963.91,-196.39"/>
<text text-anchor="middle" x="1883" y="-174.19" font-family="Times,serif" font-size="14.00">SafeQueryBuilderModule</text>
</g>
<!-- SafeQueryBuilderModule&#45;&gt;ConfigDisplayGridFieldsModalModule -->
<g id="edge7" class="edge">
<title>SafeQueryBuilderModule&#45;&gt;ConfigDisplayGridFieldsModalModule</title>
<path fill="none" stroke="black" d="M1903.24,-196.5C1903.24,-196.5 1903.24,-215.38 1903.24,-215.38"/>
<polygon fill="black" stroke="black" points="1899.74,-215.38 1903.24,-225.38 1906.74,-215.38 1899.74,-215.38"/>
</g>
</g>
</svg>
