<?xml version="1.0" encoding="UTF-8" standalone="no"?>
<!DOCTYPE svg PUBLIC "-//W3C//DTD SVG 1.1//EN"
 "http://www.w3.org/Graphics/SVG/1.1/DTD/svg11.dtd">
<!-- Generated by graphviz version 3.0.0 (20220226.1711)
 -->
<!-- Title: dependencies Pages: 1 -->
<svg width="1810pt" height="358pt"
 viewBox="0.00 0.00 1810.00 358.39" xmlns="http://www.w3.org/2000/svg" xmlns:xlink="http://www.w3.org/1999/xlink">
<g id="graph0" class="graph" transform="scale(1 1) rotate(0) translate(4 354.39)">
<title>dependencies</title>
<polygon fill="white" stroke="transparent" points="-4,4 -4,-354.39 1806,-354.39 1806,4 -4,4"/>
<text text-anchor="middle" x="901" y="-8.2" font-family="sans-serif" font-size="14.00">dependencies</text>
<g id="clust1" class="cluster">
<title>cluster_ConfigDisplayGridFieldsModalModule</title>
<polygon fill="none" stroke="black" stroke-dasharray="1,5" points="8,-32.8 8,-342.39 1794,-342.39 1794,-32.8 8,-32.8"/>
</g>
<g id="clust2" class="cluster">
<title>cluster_ConfigDisplayGridFieldsModalModule_declarations</title>
<polygon fill="none" stroke="black" points="1045,-152.39 1045,-204.39 1321,-204.39 1321,-152.39 1045,-152.39"/>
</g>
<g id="clust5" class="cluster">
<title>cluster_ConfigDisplayGridFieldsModalModule_exports</title>
<polygon fill="none" stroke="black" points="1357,-282.39 1357,-334.39 1637,-334.39 1637,-282.39 1357,-282.39"/>
</g>
<g id="clust4" class="cluster">
<title>cluster_ConfigDisplayGridFieldsModalModule_imports</title>
<polygon fill="none" stroke="black" points="1329,-152.39 1329,-204.39 1786,-204.39 1786,-152.39 1329,-152.39"/>
</g>
<g id="clust3" class="cluster">
<title>cluster_ConfigDisplayGridFieldsModalModule_ConfigDisplayGridFieldsModalComponent_providers</title>
<polygon fill="none" stroke="black" points="16,-40.8 16,-139.39 1786,-139.39 1786,-40.8 16,-40.8"/>
</g>
<!-- ConfigDisplayGridFieldsModalComponent -->
<g id="node1" class="node">
<title>ConfigDisplayGridFieldsModalComponent</title>
<polygon fill="#ffffb3" stroke="black" points="1313.21,-196.39 1052.79,-196.39 1052.79,-160.39 1313.21,-160.39 1313.21,-196.39"/>
<text text-anchor="middle" x="1183" y="-174.19" font-family="Times,serif" font-size="14.00">ConfigDisplayGridFieldsModalComponent</text>
</g>
<!-- ConfigDisplayGridFieldsModalModule -->
<g id="node2" class="node">
<title>ConfigDisplayGridFieldsModalModule</title>
<polygon fill="#8dd3c7" stroke="black" points="1616.43,-261.39 1613.43,-265.39 1592.43,-265.39 1589.43,-261.39 1377.57,-261.39 1377.57,-225.39 1616.43,-225.39 1616.43,-261.39"/>
<text text-anchor="middle" x="1497" y="-239.19" font-family="Times,serif" font-size="14.00">ConfigDisplayGridFieldsModalModule</text>
</g>
<!-- ConfigDisplayGridFieldsModalComponent&#45;&gt;ConfigDisplayGridFieldsModalModule -->
<g id="edge1" class="edge">
<title>ConfigDisplayGridFieldsModalComponent&#45;&gt;ConfigDisplayGridFieldsModalModule</title>
<path fill="none" stroke="black" d="M1183,-196.5C1183,-215.73 1183,-243.39 1183,-243.39 1183,-243.39 1367.39,-243.39 1367.39,-243.39"/>
<polygon fill="black" stroke="black" points="1367.39,-246.89 1377.39,-243.39 1367.39,-239.89 1367.39,-246.89"/>
</g>
<!-- ConfigDisplayGridFieldsModalComponent  -->
<g id="node9" class="node">
<title>ConfigDisplayGridFieldsModalComponent </title>
<polygon fill="#fb8072" stroke="black" points="1628.71,-326.39 1365.29,-326.39 1365.29,-290.39 1628.71,-290.39 1628.71,-326.39"/>
<text text-anchor="middle" x="1497" y="-304.19" font-family="Times,serif" font-size="14.00">ConfigDisplayGridFieldsModalComponent </text>
</g>
<!-- ConfigDisplayGridFieldsModalModule&#45;&gt;ConfigDisplayGridFieldsModalComponent  -->
<g id="edge8" class="edge">
<title>ConfigDisplayGridFieldsModalModule&#45;&gt;ConfigDisplayGridFieldsModalComponent </title>
<path fill="none" stroke="black" stroke-dasharray="5,2" d="M1497,-261.5C1497,-261.5 1497,-280.38 1497,-280.38"/>
<polygon fill="black" stroke="black" points="1493.5,-280.38 1497,-290.38 1500.5,-280.38 1493.5,-280.38"/>
</g>
<!-- PopupService -->
<g id="node3" class="node">
<title>PopupService</title>
<ellipse fill="#fdb462" stroke="black" cx="1713" cy="-90.1" rx="64.86" ry="18"/>
<text text-anchor="middle" x="1713" y="-85.9" font-family="Times,serif" font-size="14.00">PopupService</text>
</g>
<!-- PopupService&#45;&gt;ConfigDisplayGridFieldsModalComponent -->
<g id="edge2" class="edge">
<title>PopupService&#45;&gt;ConfigDisplayGridFieldsModalComponent</title>
<path fill="none" stroke="black" d="M1652.02,-96.12C1652.02,-110.64 1652.02,-146.39 1652.02,-146.39 1652.02,-146.39 1226.37,-146.39 1226.37,-146.39 1226.37,-146.39 1226.37,-150.15 1226.37,-150.15"/>
<polygon fill="black" stroke="black" points="1222.87,-150.15 1226.37,-160.15 1229.87,-150.15 1222.87,-150.15"/>
</g>
<!-- {
 &#160;&#160;&#160;provide: MAT_SELECT_SCROLL_STRATEGY, useFactory: scrollFactory, deps: [Overlay],
} -->
<g id="node4" class="node">
<title>{
 &#160;&#160;&#160;provide: MAT_SELECT_SCROLL_STRATEGY, useFactory: scrollFactory, deps: [Overlay],
}</title>
<ellipse fill="#fdb462" stroke="black" cx="1236" cy="-90.1" rx="394.68" ry="41.09"/>
<text text-anchor="middle" x="1236" y="-102.7" font-family="Times,serif" font-size="14.00">{</text>
<text text-anchor="middle" x="1236" y="-85.9" font-family="Times,serif" font-size="14.00"> &#160;&#160;&#160;provide: MAT_SELECT_SCROLL_STRATEGY, useFactory: scrollFactory, deps: [Overlay],</text>
<text text-anchor="middle" x="1236" y="-69.1" font-family="Times,serif" font-size="14.00">}</text>
</g>
<!-- {
 &#160;&#160;&#160;provide: MAT_SELECT_SCROLL_STRATEGY, useFactory: scrollFactory, deps: [Overlay],
}&#45;&gt;ConfigDisplayGridFieldsModalComponent -->
<g id="edge3" class="edge">
<title>{
 &#160;&#160;&#160;provide: MAT_SELECT_SCROLL_STRATEGY, useFactory: scrollFactory, deps: [Overlay],
}&#45;&gt;ConfigDisplayGridFieldsModalComponent</title>
<path fill="none" stroke="black" d="M1139.63,-130.37C1139.63,-130.37 1139.63,-150.03 1139.63,-150.03"/>
<polygon fill="black" stroke="black" points="1136.13,-150.03 1139.63,-160.03 1143.13,-150.03 1136.13,-150.03"/>
</g>
<!-- {
 &#160;&#160;&#160;provide: MAT_TOOLTIP_SCROLL_STRATEGY, useFactory: scrollFactory, deps: [Overlay],
} -->
<g id="node5" class="node">
<title>{
 &#160;&#160;&#160;provide: MAT_TOOLTIP_SCROLL_STRATEGY, useFactory: scrollFactory, deps: [Overlay],
}</title>
<ellipse fill="#fdb462" stroke="black" cx="424" cy="-90.1" rx="399.57" ry="41.09"/>
<text text-anchor="middle" x="424" y="-102.7" font-family="Times,serif" font-size="14.00">{</text>
<text text-anchor="middle" x="424" y="-85.9" font-family="Times,serif" font-size="14.00"> &#160;&#160;&#160;provide: MAT_TOOLTIP_SCROLL_STRATEGY, useFactory: scrollFactory, deps: [Overlay],</text>
<text text-anchor="middle" x="424" y="-69.1" font-family="Times,serif" font-size="14.00">}</text>
</g>
<!-- {
 &#160;&#160;&#160;provide: MAT_TOOLTIP_SCROLL_STRATEGY, useFactory: scrollFactory, deps: [Overlay],
}&#45;&gt;ConfigDisplayGridFieldsModalComponent -->
<g id="edge4" class="edge">
<title>{
 &#160;&#160;&#160;provide: MAT_TOOLTIP_SCROLL_STRATEGY, useFactory: scrollFactory, deps: [Overlay],
}&#45;&gt;ConfigDisplayGridFieldsModalComponent</title>
<path fill="none" stroke="black" d="M424,-131.4C424,-154.38 424,-178.39 424,-178.39 424,-178.39 1042.52,-178.39 1042.52,-178.39"/>
<polygon fill="black" stroke="black" points="1042.52,-181.89 1052.52,-178.39 1042.52,-174.89 1042.52,-181.89"/>
</g>
<!-- SafeButtonModule -->
<g id="node6" class="node">
<title>SafeButtonModule</title>
<polygon fill="#8dd3c7" stroke="black" points="1778.05,-196.39 1775.05,-200.39 1754.05,-200.39 1751.05,-196.39 1655.95,-196.39 1655.95,-160.39 1778.05,-160.39 1778.05,-196.39"/>
<text text-anchor="middle" x="1717" y="-174.19" font-family="Times,serif" font-size="14.00">SafeButtonModule</text>
</g>
<!-- SafeButtonModule&#45;&gt;ConfigDisplayGridFieldsModalModule -->
<g id="edge5" class="edge">
<title>SafeButtonModule&#45;&gt;ConfigDisplayGridFieldsModalModule</title>
<path fill="none" stroke="black" d="M1717,-196.5C1717,-215.73 1717,-243.39 1717,-243.39 1717,-243.39 1626.34,-243.39 1626.34,-243.39"/>
<polygon fill="black" stroke="black" points="1626.34,-239.89 1616.34,-243.39 1626.34,-246.89 1626.34,-239.89"/>
</g>
<!-- SafeModalModule -->
<g id="node7" class="node">
<title>SafeModalModule</title>
<polygon fill="#8dd3c7" stroke="black" points="1637.48,-196.39 1634.48,-200.39 1613.48,-200.39 1610.48,-196.39 1516.52,-196.39 1516.52,-160.39 1637.48,-160.39 1637.48,-196.39"/>
<text text-anchor="middle" x="1577" y="-174.19" font-family="Times,serif" font-size="14.00">SafeModalModule</text>
</g>
<!-- SafeModalModule&#45;&gt;ConfigDisplayGridFieldsModalModule -->
<g id="edge6" class="edge">
<title>SafeModalModule&#45;&gt;ConfigDisplayGridFieldsModalModule</title>
<path fill="none" stroke="black" d="M1566.36,-196.5C1566.36,-196.5 1566.36,-215.38 1566.36,-215.38"/>
<polygon fill="black" stroke="black" points="1562.86,-215.38 1566.36,-225.38 1569.86,-215.38 1562.86,-215.38"/>
</g>
<!-- SafeQueryBuilderModule -->
<g id="node8" class="node">
<title>SafeQueryBuilderModule</title>
<polygon fill="#8dd3c7" stroke="black" points="1498.91,-196.39 1495.91,-200.39 1474.91,-200.39 1471.91,-196.39 1337.09,-196.39 1337.09,-160.39 1498.91,-160.39 1498.91,-196.39"/>
<text text-anchor="middle" x="1418" y="-174.19" font-family="Times,serif" font-size="14.00">SafeQueryBuilderModule</text>
</g>
<!-- SafeQueryBuilderModule&#45;&gt;ConfigDisplayGridFieldsModalModule -->
<g id="edge7" class="edge">
<title>SafeQueryBuilderModule&#45;&gt;ConfigDisplayGridFieldsModalModule</title>
<path fill="none" stroke="black" d="M1438.24,-196.5C1438.24,-196.5 1438.24,-215.38 1438.24,-215.38"/>
<polygon fill="black" stroke="black" points="1434.74,-215.38 1438.24,-225.38 1441.74,-215.38 1434.74,-215.38"/>
</g>
</g>
</svg>
