<?xml version="1.0" encoding="UTF-8" standalone="no"?>
<!DOCTYPE svg PUBLIC "-//W3C//DTD SVG 1.1//EN"
 "http://www.w3.org/Graphics/SVG/1.1/DTD/svg11.dtd">
<!-- Generated by graphviz version 3.0.0 (20220226.1711)
 -->
<!-- Title: dependencies Pages: 1 -->
<svg width="814pt" height="247pt"
 viewBox="0.00 0.00 814.00 246.80" xmlns="http://www.w3.org/2000/svg" xmlns:xlink="http://www.w3.org/1999/xlink">
<g id="graph0" class="graph" transform="scale(1 1) rotate(0) translate(4 242.8)">
<title>dependencies</title>
<polygon fill="white" stroke="transparent" points="-4,4 -4,-242.8 810,-242.8 810,4 -4,4"/>
<text text-anchor="middle" x="403" y="-8.2" font-family="sans-serif" font-size="14.00">dependencies</text>
<g id="clust1" class="cluster">
<title>cluster_ResourcesModule</title>
<polygon fill="none" stroke="black" stroke-dasharray="1,5" points="8,-32.8 8,-230.8 798,-230.8 798,-32.8 8,-32.8"/>
</g>
<g id="clust6" class="cluster">
<title>cluster_ResourcesModule_exports</title>
<polygon fill="none" stroke="black" points="318,-170.8 318,-222.8 476,-222.8 476,-170.8 318,-170.8"/>
</g>
<g id="clust5" class="cluster">
<title>cluster_ResourcesModule_imports</title>
<polygon fill="none" stroke="black" points="308,-40.8 308,-92.8 790,-92.8 790,-40.8 308,-40.8"/>
</g>
<g id="clust2" class="cluster">
<title>cluster_ResourcesModule_declarations</title>
<polygon fill="none" stroke="black" points="16,-40.8 16,-92.8 300,-92.8 300,-40.8 16,-40.8"/>
</g>
<!-- FilterComponent -->
<g id="node1" class="node">
<title>FilterComponent</title>
<polygon fill="#ffffb3" stroke="black" points="291.66,-84.8 180.34,-84.8 180.34,-48.8 291.66,-48.8 291.66,-84.8"/>
<text text-anchor="middle" x="236" y="-62.6" font-family="Times,serif" font-size="14.00">FilterComponent</text>
</g>
<!-- ResourcesModule -->
<g id="node3" class="node">
<title>ResourcesModule</title>
<polygon fill="#8dd3c7" stroke="black" points="455.59,-149.8 452.59,-153.8 431.59,-153.8 428.59,-149.8 338.41,-149.8 338.41,-113.8 455.59,-113.8 455.59,-149.8"/>
<text text-anchor="middle" x="397" y="-127.6" font-family="Times,serif" font-size="14.00">ResourcesModule</text>
</g>
<!-- FilterComponent&#45;&gt;ResourcesModule -->
<g id="edge1" class="edge">
<title>FilterComponent&#45;&gt;ResourcesModule</title>
<path fill="none" stroke="black" d="M236,-84.82C236,-102.17 236,-125.8 236,-125.8 236,-125.8 328.42,-125.8 328.42,-125.8"/>
<polygon fill="black" stroke="black" points="328.42,-129.3 338.42,-125.8 328.42,-122.3 328.42,-129.3"/>
</g>
<!-- ResourcesComponent -->
<g id="node2" class="node">
<title>ResourcesComponent</title>
<polygon fill="#ffffb3" stroke="black" points="162.37,-84.8 23.63,-84.8 23.63,-48.8 162.37,-48.8 162.37,-84.8"/>
<text text-anchor="middle" x="93" y="-62.6" font-family="Times,serif" font-size="14.00">ResourcesComponent</text>
</g>
<!-- ResourcesComponent&#45;&gt;ResourcesModule -->
<g id="edge2" class="edge">
<title>ResourcesComponent&#45;&gt;ResourcesModule</title>
<path fill="none" stroke="black" d="M93,-85.08C93,-106.12 93,-137.8 93,-137.8 93,-137.8 328.39,-137.8 328.39,-137.8"/>
<polygon fill="black" stroke="black" points="328.39,-141.3 338.39,-137.8 328.39,-134.3 328.39,-141.3"/>
</g>
<!-- ResourcesComponent  -->
<g id="node7" class="node">
<title>ResourcesComponent </title>
<polygon fill="#fb8072" stroke="black" points="468.37,-214.8 325.63,-214.8 325.63,-178.8 468.37,-178.8 468.37,-214.8"/>
<text text-anchor="middle" x="397" y="-192.6" font-family="Times,serif" font-size="14.00">ResourcesComponent </text>
</g>
<!-- ResourcesModule&#45;&gt;ResourcesComponent  -->
<g id="edge6" class="edge">
<title>ResourcesModule&#45;&gt;ResourcesComponent </title>
<path fill="none" stroke="black" stroke-dasharray="5,2" d="M397,-149.91C397,-149.91 397,-168.79 397,-168.79"/>
<polygon fill="black" stroke="black" points="393.5,-168.79 397,-178.79 400.5,-168.79 393.5,-168.79"/>
</g>
<!-- AddResourceModalModule -->
<g id="node4" class="node">
<title>AddResourceModalModule</title>
<polygon fill="#8dd3c7" stroke="black" points="782.3,-84.8 779.3,-88.8 758.3,-88.8 755.3,-84.8 609.7,-84.8 609.7,-48.8 782.3,-48.8 782.3,-84.8"/>
<text text-anchor="middle" x="696" y="-62.6" font-family="Times,serif" font-size="14.00">AddResourceModalModule</text>
</g>
<!-- AddResourceModalModule&#45;&gt;ResourcesModule -->
<g id="edge3" class="edge">
<title>AddResourceModalModule&#45;&gt;ResourcesModule</title>
<path fill="none" stroke="black" d="M696,-85.08C696,-106.12 696,-137.8 696,-137.8 696,-137.8 465.72,-137.8 465.72,-137.8"/>
<polygon fill="black" stroke="black" points="465.72,-134.3 455.72,-137.8 465.72,-141.3 465.72,-134.3"/>
</g>
<!-- FormsModule -->
<g id="node5" class="node">
<title>FormsModule</title>
<polygon fill="#8dd3c7" stroke="black" points="591.84,-84.8 588.84,-88.8 567.84,-88.8 564.84,-84.8 496.16,-84.8 496.16,-48.8 591.84,-48.8 591.84,-84.8"/>
<text text-anchor="middle" x="544" y="-62.6" font-family="Times,serif" font-size="14.00">FormsModule</text>
</g>
<!-- FormsModule&#45;&gt;ResourcesModule -->
<g id="edge4" class="edge">
<title>FormsModule&#45;&gt;ResourcesModule</title>
<path fill="none" stroke="black" d="M544,-84.82C544,-102.17 544,-125.8 544,-125.8 544,-125.8 465.94,-125.8 465.94,-125.8"/>
<polygon fill="black" stroke="black" points="465.94,-122.3 455.94,-125.8 465.94,-129.3 465.94,-122.3"/>
</g>
<!-- ResourcesRoutingModule -->
<g id="node6" class="node">
<title>ResourcesRoutingModule</title>
<polygon fill="#8dd3c7" stroke="black" points="478.21,-84.8 475.21,-88.8 454.21,-88.8 451.21,-84.8 315.79,-84.8 315.79,-48.8 478.21,-48.8 478.21,-84.8"/>
<text text-anchor="middle" x="397" y="-62.6" font-family="Times,serif" font-size="14.00">ResourcesRoutingModule</text>
</g>
<!-- ResourcesRoutingModule&#45;&gt;ResourcesModule -->
<g id="edge5" class="edge">
<title>ResourcesRoutingModule&#45;&gt;ResourcesModule</title>
<path fill="none" stroke="black" d="M397,-84.91C397,-84.91 397,-103.79 397,-103.79"/>
<polygon fill="black" stroke="black" points="393.5,-103.79 397,-113.79 400.5,-103.79 393.5,-103.79"/>
</g>
</g>
</svg>
