<?xml version="1.0" encoding="UTF-8" standalone="no"?>
<!DOCTYPE svg PUBLIC "-//W3C//DTD SVG 1.1//EN"
 "http://www.w3.org/Graphics/SVG/1.1/DTD/svg11.dtd">
<!-- Generated by graphviz version 3.0.0 (20220226.1711)
 -->
<!-- Title: dependencies Pages: 1 -->
<svg width="2117pt" height="247pt"
 viewBox="0.00 0.00 2117.00 246.80" xmlns="http://www.w3.org/2000/svg" xmlns:xlink="http://www.w3.org/1999/xlink">
<g id="graph0" class="graph" transform="scale(1 1) rotate(0) translate(4 242.8)">
<title>dependencies</title>
<polygon fill="white" stroke="transparent" points="-4,4 -4,-242.8 2113,-242.8 2113,4 -4,4"/>
<text text-anchor="middle" x="1054.5" y="-8.2" font-family="sans-serif" font-size="14.00">dependencies</text>
<g id="clust1" class="cluster">
<title>cluster_TabMainModule</title>
<polygon fill="none" stroke="black" stroke-dasharray="1,5" points="8,-32.8 8,-230.8 2101,-230.8 2101,-32.8 8,-32.8"/>
</g>
<g id="clust2" class="cluster">
<title>cluster_TabMainModule_declarations</title>
<polygon fill="none" stroke="black" points="1945,-40.8 1945,-92.8 2093,-92.8 2093,-40.8 1945,-40.8"/>
</g>
<g id="clust4" class="cluster">
<title>cluster_TabMainModule_imports</title>
<polygon fill="none" stroke="black" points="16,-40.8 16,-92.8 1937,-92.8 1937,-40.8 16,-40.8"/>
</g>
<g id="clust5" class="cluster">
<title>cluster_TabMainModule_exports</title>
<polygon fill="none" stroke="black" points="944,-170.8 944,-222.8 1096,-222.8 1096,-170.8 944,-170.8"/>
</g>
<!-- TabMainComponent -->
<g id="node1" class="node">
<title>TabMainComponent</title>
<polygon fill="#ffffb3" stroke="black" points="2085.15,-84.8 1952.85,-84.8 1952.85,-48.8 2085.15,-48.8 2085.15,-84.8"/>
<text text-anchor="middle" x="2019" y="-62.6" font-family="Times,serif" font-size="14.00">TabMainComponent</text>
</g>
<!-- TabMainModule -->
<g id="node2" class="node">
<title>TabMainModule</title>
<polygon fill="#8dd3c7" stroke="black" points="1075.37,-149.8 1072.37,-153.8 1051.37,-153.8 1048.37,-149.8 964.63,-149.8 964.63,-113.8 1075.37,-113.8 1075.37,-149.8"/>
<text text-anchor="middle" x="1020" y="-127.6" font-family="Times,serif" font-size="14.00">TabMainModule</text>
</g>
<!-- TabMainComponent&#45;&gt;TabMainModule -->
<g id="edge1" class="edge">
<title>TabMainComponent&#45;&gt;TabMainModule</title>
<path fill="none" stroke="black" d="M2019,-85.05C2019,-107.82 2019,-143.8 2019,-143.8 2019,-143.8 1085.49,-143.8 1085.49,-143.8"/>
<polygon fill="black" stroke="black" points="1085.49,-140.3 1075.49,-143.8 1085.49,-147.3 1085.49,-140.3"/>
</g>
<!-- TabMainComponent  -->
<g id="node14" class="node">
<title>TabMainComponent </title>
<polygon fill="#fb8072" stroke="black" points="1088.15,-214.8 951.85,-214.8 951.85,-178.8 1088.15,-178.8 1088.15,-214.8"/>
<text text-anchor="middle" x="1020" y="-192.6" font-family="Times,serif" font-size="14.00">TabMainComponent </text>
</g>
<!-- TabMainModule&#45;&gt;TabMainComponent  -->
<g id="edge13" class="edge">
<title>TabMainModule&#45;&gt;TabMainComponent </title>
<path fill="none" stroke="black" stroke-dasharray="5,2" d="M1020,-149.91C1020,-149.91 1020,-168.79 1020,-168.79"/>
<polygon fill="black" stroke="black" points="1016.5,-168.79 1020,-178.79 1023.5,-168.79 1016.5,-168.79"/>
</g>
<!-- AddAggregationModalModule -->
<g id="node3" class="node">
<title>AddAggregationModalModule</title>
<polygon fill="#8dd3c7" stroke="black" points="1929.19,-84.8 1926.19,-88.8 1905.19,-88.8 1902.19,-84.8 1738.81,-84.8 1738.81,-48.8 1929.19,-48.8 1929.19,-84.8"/>
<text text-anchor="middle" x="1834" y="-62.6" font-family="Times,serif" font-size="14.00">AddAggregationModalModule</text>
</g>
<!-- AddAggregationModalModule&#45;&gt;TabMainModule -->
<g id="edge2" class="edge">
<title>AddAggregationModalModule&#45;&gt;TabMainModule</title>
<path fill="none" stroke="black" d="M1834,-85.08C1834,-106.12 1834,-137.8 1834,-137.8 1834,-137.8 1085.63,-137.8 1085.63,-137.8"/>
<polygon fill="black" stroke="black" points="1085.63,-134.3 1075.63,-137.8 1085.63,-141.3 1085.63,-134.3"/>
</g>
<!-- SafeAggregationBuilderModule -->
<g id="node4" class="node">
<title>SafeAggregationBuilderModule</title>
<polygon fill="#8dd3c7" stroke="black" points="1721.4,-84.8 1718.4,-88.8 1697.4,-88.8 1694.4,-84.8 1524.6,-84.8 1524.6,-48.8 1721.4,-48.8 1721.4,-84.8"/>
<text text-anchor="middle" x="1623" y="-62.6" font-family="Times,serif" font-size="14.00">SafeAggregationBuilderModule</text>
</g>
<!-- SafeAggregationBuilderModule&#45;&gt;TabMainModule -->
<g id="edge3" class="edge">
<title>SafeAggregationBuilderModule&#45;&gt;TabMainModule</title>
<path fill="none" stroke="black" d="M1623,-84.91C1623,-104.14 1623,-131.8 1623,-131.8 1623,-131.8 1085.38,-131.8 1085.38,-131.8"/>
<polygon fill="black" stroke="black" points="1085.38,-128.3 1075.38,-131.8 1085.38,-135.3 1085.38,-128.3"/>
</g>
<!-- SafeButtonModule -->
<g id="node5" class="node">
<title>SafeButtonModule</title>
<polygon fill="#8dd3c7" stroke="black" points="1507.05,-84.8 1504.05,-88.8 1483.05,-88.8 1480.05,-84.8 1384.95,-84.8 1384.95,-48.8 1507.05,-48.8 1507.05,-84.8"/>
<text text-anchor="middle" x="1446" y="-62.6" font-family="Times,serif" font-size="14.00">SafeButtonModule</text>
</g>
<!-- SafeButtonModule&#45;&gt;TabMainModule -->
<g id="edge4" class="edge">
<title>SafeButtonModule&#45;&gt;TabMainModule</title>
<path fill="none" stroke="black" d="M1446,-84.82C1446,-102.17 1446,-125.8 1446,-125.8 1446,-125.8 1085.69,-125.8 1085.69,-125.8"/>
<polygon fill="black" stroke="black" points="1085.69,-122.3 1075.69,-125.8 1085.69,-129.3 1085.69,-122.3"/>
</g>
<!-- SafeChartModule -->
<g id="node6" class="node">
<title>SafeChartModule</title>
<polygon fill="#8dd3c7" stroke="black" points="1366.53,-84.8 1363.53,-88.8 1342.53,-88.8 1339.53,-84.8 1251.47,-84.8 1251.47,-48.8 1366.53,-48.8 1366.53,-84.8"/>
<text text-anchor="middle" x="1309" y="-62.6" font-family="Times,serif" font-size="14.00">SafeChartModule</text>
</g>
<!-- SafeChartModule&#45;&gt;TabMainModule -->
<g id="edge5" class="edge">
<title>SafeChartModule&#45;&gt;TabMainModule</title>
<path fill="none" stroke="black" d="M1309,-85.04C1309,-100.37 1309,-119.8 1309,-119.8 1309,-119.8 1085.38,-119.8 1085.38,-119.8"/>
<polygon fill="black" stroke="black" points="1085.38,-116.3 1075.38,-119.8 1085.38,-123.3 1085.38,-116.3"/>
</g>
<!-- SafeEditAggregationModalModule -->
<g id="node7" class="node">
<title>SafeEditAggregationModalModule</title>
<polygon fill="#8dd3c7" stroke="black" points="1233.29,-84.8 1230.29,-88.8 1209.29,-88.8 1206.29,-84.8 1018.71,-84.8 1018.71,-48.8 1233.29,-48.8 1233.29,-84.8"/>
<text text-anchor="middle" x="1126" y="-62.6" font-family="Times,serif" font-size="14.00">SafeEditAggregationModalModule</text>
</g>
<!-- SafeEditAggregationModalModule&#45;&gt;TabMainModule -->
<g id="edge6" class="edge">
<title>SafeEditAggregationModalModule&#45;&gt;TabMainModule</title>
<path fill="none" stroke="black" d="M1047.14,-84.91C1047.14,-84.91 1047.14,-103.79 1047.14,-103.79"/>
<polygon fill="black" stroke="black" points="1043.64,-103.79 1047.14,-113.79 1050.64,-103.79 1043.64,-103.79"/>
</g>
<!-- SafeGraphQLSelectModule -->
<g id="node8" class="node">
<title>SafeGraphQLSelectModule</title>
<polygon fill="#8dd3c7" stroke="black" points="1001.28,-84.8 998.28,-88.8 977.28,-88.8 974.28,-84.8 828.72,-84.8 828.72,-48.8 1001.28,-48.8 1001.28,-84.8"/>
<text text-anchor="middle" x="915" y="-62.6" font-family="Times,serif" font-size="14.00">SafeGraphQLSelectModule</text>
</g>
<!-- SafeGraphQLSelectModule&#45;&gt;TabMainModule -->
<g id="edge7" class="edge">
<title>SafeGraphQLSelectModule&#45;&gt;TabMainModule</title>
<path fill="none" stroke="black" d="M982.85,-84.91C982.85,-84.91 982.85,-103.79 982.85,-103.79"/>
<polygon fill="black" stroke="black" points="979.35,-103.79 982.85,-113.79 986.35,-103.79 979.35,-103.79"/>
</g>
<!-- SafeGridModule -->
<g id="node9" class="node">
<title>SafeGridModule</title>
<polygon fill="#8dd3c7" stroke="black" points="811.09,-84.8 808.09,-88.8 787.09,-88.8 784.09,-84.8 700.91,-84.8 700.91,-48.8 811.09,-48.8 811.09,-84.8"/>
<text text-anchor="middle" x="756" y="-62.6" font-family="Times,serif" font-size="14.00">SafeGridModule</text>
</g>
<!-- SafeGridModule&#45;&gt;TabMainModule -->
<g id="edge8" class="edge">
<title>SafeGridModule&#45;&gt;TabMainModule</title>
<path fill="none" stroke="black" d="M756,-85.04C756,-100.37 756,-119.8 756,-119.8 756,-119.8 954.33,-119.8 954.33,-119.8"/>
<polygon fill="black" stroke="black" points="954.34,-123.3 964.33,-119.8 954.33,-116.3 954.34,-123.3"/>
</g>
<!-- SafeIconModule -->
<g id="node10" class="node">
<title>SafeIconModule</title>
<polygon fill="#8dd3c7" stroke="black" points="682.8,-84.8 679.8,-88.8 658.8,-88.8 655.8,-84.8 573.2,-84.8 573.2,-48.8 682.8,-48.8 682.8,-84.8"/>
<text text-anchor="middle" x="628" y="-62.6" font-family="Times,serif" font-size="14.00">SafeIconModule</text>
</g>
<!-- SafeIconModule&#45;&gt;TabMainModule -->
<g id="edge9" class="edge">
<title>SafeIconModule&#45;&gt;TabMainModule</title>
<path fill="none" stroke="black" d="M628,-84.82C628,-102.17 628,-125.8 628,-125.8 628,-125.8 954.25,-125.8 954.25,-125.8"/>
<polygon fill="black" stroke="black" points="954.25,-129.3 964.25,-125.8 954.25,-122.3 954.25,-129.3"/>
</g>
<!-- SafePaletteControlModule -->
<g id="node11" class="node">
<title>SafePaletteControlModule</title>
<polygon fill="#8dd3c7" stroke="black" points="555.8,-84.8 552.8,-88.8 531.8,-88.8 528.8,-84.8 390.2,-84.8 390.2,-48.8 555.8,-48.8 555.8,-84.8"/>
<text text-anchor="middle" x="473" y="-62.6" font-family="Times,serif" font-size="14.00">SafePaletteControlModule</text>
</g>
<!-- SafePaletteControlModule&#45;&gt;TabMainModule -->
<g id="edge10" class="edge">
<title>SafePaletteControlModule&#45;&gt;TabMainModule</title>
<path fill="none" stroke="black" d="M473,-84.91C473,-104.14 473,-131.8 473,-131.8 473,-131.8 954.54,-131.8 954.54,-131.8"/>
<polygon fill="black" stroke="black" points="954.54,-135.3 964.54,-131.8 954.54,-128.3 954.54,-135.3"/>
</g>
<!-- SafeQueryBuilderModule -->
<g id="node12" class="node">
<title>SafeQueryBuilderModule</title>
<polygon fill="#8dd3c7" stroke="black" points="372.91,-84.8 369.91,-88.8 348.91,-88.8 345.91,-84.8 211.09,-84.8 211.09,-48.8 372.91,-48.8 372.91,-84.8"/>
<text text-anchor="middle" x="292" y="-62.6" font-family="Times,serif" font-size="14.00">SafeQueryBuilderModule</text>
</g>
<!-- SafeQueryBuilderModule&#45;&gt;TabMainModule -->
<g id="edge11" class="edge">
<title>SafeQueryBuilderModule&#45;&gt;TabMainModule</title>
<path fill="none" stroke="black" d="M292,-85.08C292,-106.12 292,-137.8 292,-137.8 292,-137.8 954.38,-137.8 954.38,-137.8"/>
<polygon fill="black" stroke="black" points="954.38,-141.3 964.38,-137.8 954.38,-134.3 954.38,-141.3"/>
</g>
<!-- SafeSeriesMappingModule -->
<g id="node13" class="node">
<title>SafeSeriesMappingModule</title>
<polygon fill="#8dd3c7" stroke="black" points="193.69,-84.8 190.69,-88.8 169.69,-88.8 166.69,-84.8 24.31,-84.8 24.31,-48.8 193.69,-48.8 193.69,-84.8"/>
<text text-anchor="middle" x="109" y="-62.6" font-family="Times,serif" font-size="14.00">SafeSeriesMappingModule</text>
</g>
<!-- SafeSeriesMappingModule&#45;&gt;TabMainModule -->
<g id="edge12" class="edge">
<title>SafeSeriesMappingModule&#45;&gt;TabMainModule</title>
<path fill="none" stroke="black" d="M109,-85.05C109,-107.82 109,-143.8 109,-143.8 109,-143.8 954.38,-143.8 954.38,-143.8"/>
<polygon fill="black" stroke="black" points="954.38,-147.3 964.38,-143.8 954.38,-140.3 954.38,-147.3"/>
</g>
</g>
</svg>
