<?xml version="1.0" encoding="UTF-8" standalone="no"?>
<!DOCTYPE svg PUBLIC "-//W3C//DTD SVG 1.1//EN"
 "http://www.w3.org/Graphics/SVG/1.1/DTD/svg11.dtd">
<!-- Generated by graphviz version 3.0.0 (20220226.1711)
 -->
<!-- Title: dependencies Pages: 1 -->
<svg width="662pt" height="247pt"
 viewBox="0.00 0.00 662.00 246.80" xmlns="http://www.w3.org/2000/svg" xmlns:xlink="http://www.w3.org/1999/xlink">
<g id="graph0" class="graph" transform="scale(1 1) rotate(0) translate(4 242.8)">
<title>dependencies</title>
<polygon fill="white" stroke="transparent" points="-4,4 -4,-242.8 658,-242.8 658,4 -4,4"/>
<text text-anchor="middle" x="327" y="-8.2" font-family="sans-serif" font-size="14.00">dependencies</text>
<g id="clust1" class="cluster">
<title>cluster_TabMainModule</title>
<polygon fill="none" stroke="black" stroke-dasharray="1,5" points="8,-32.8 8,-230.8 646,-230.8 646,-32.8 8,-32.8"/>
</g>
<g id="clust4" class="cluster">
<title>cluster_TabMainModule_imports</title>
<polygon fill="none" stroke="black" points="172,-40.8 172,-92.8 638,-92.8 638,-40.8 172,-40.8"/>
</g>
<g id="clust5" class="cluster">
<title>cluster_TabMainModule_exports</title>
<polygon fill="none" stroke="black" points="238,-170.8 238,-222.8 390,-222.8 390,-170.8 238,-170.8"/>
</g>
<g id="clust2" class="cluster">
<title>cluster_TabMainModule_declarations</title>
<polygon fill="none" stroke="black" points="16,-40.8 16,-92.8 164,-92.8 164,-40.8 16,-40.8"/>
</g>
<!-- TabMainComponent -->
<g id="node1" class="node">
<title>TabMainComponent</title>
<polygon fill="#ffffb3" stroke="black" points="156.15,-84.8 23.85,-84.8 23.85,-48.8 156.15,-48.8 156.15,-84.8"/>
<text text-anchor="middle" x="90" y="-62.6" font-family="Times,serif" font-size="14.00">TabMainComponent</text>
</g>
<!-- TabMainModule -->
<g id="node2" class="node">
<title>TabMainModule</title>
<polygon fill="#8dd3c7" stroke="black" points="369.37,-149.8 366.37,-153.8 345.37,-153.8 342.37,-149.8 258.63,-149.8 258.63,-113.8 369.37,-113.8 369.37,-149.8"/>
<text text-anchor="middle" x="314" y="-127.6" font-family="Times,serif" font-size="14.00">TabMainModule</text>
</g>
<!-- TabMainComponent&#45;&gt;TabMainModule -->
<g id="edge1" class="edge">
<title>TabMainComponent&#45;&gt;TabMainModule</title>
<path fill="none" stroke="black" d="M90,-84.91C90,-104.14 90,-131.8 90,-131.8 90,-131.8 248.63,-131.8 248.63,-131.8"/>
<polygon fill="black" stroke="black" points="248.63,-135.3 258.63,-131.8 248.63,-128.3 248.63,-135.3"/>
</g>
<!-- TabMainComponent  -->
<g id="node6" class="node">
<title>TabMainComponent </title>
<polygon fill="#fb8072" stroke="black" points="382.15,-214.8 245.85,-214.8 245.85,-178.8 382.15,-178.8 382.15,-214.8"/>
<text text-anchor="middle" x="314" y="-192.6" font-family="Times,serif" font-size="14.00">TabMainComponent </text>
</g>
<!-- TabMainModule&#45;&gt;TabMainComponent  -->
<g id="edge5" class="edge">
<title>TabMainModule&#45;&gt;TabMainComponent </title>
<path fill="none" stroke="black" stroke-dasharray="5,2" d="M314,-149.91C314,-149.91 314,-168.79 314,-168.79"/>
<polygon fill="black" stroke="black" points="310.5,-168.79 314,-178.79 317.5,-168.79 310.5,-168.79"/>
</g>
<!-- LayoutTableModule -->
<g id="node3" class="node">
<title>LayoutTableModule</title>
<polygon fill="#8dd3c7" stroke="black" points="629.58,-84.8 626.58,-88.8 605.58,-88.8 602.58,-84.8 498.42,-84.8 498.42,-48.8 629.58,-48.8 629.58,-84.8"/>
<text text-anchor="middle" x="564" y="-62.6" font-family="Times,serif" font-size="14.00">LayoutTableModule</text>
</g>
<!-- LayoutTableModule&#45;&gt;TabMainModule -->
<g id="edge2" class="edge">
<title>LayoutTableModule&#45;&gt;TabMainModule</title>
<path fill="none" stroke="black" d="M564,-84.91C564,-104.14 564,-131.8 564,-131.8 564,-131.8 379.48,-131.8 379.48,-131.8"/>
<polygon fill="black" stroke="black" points="379.48,-128.3 369.48,-131.8 379.48,-135.3 379.48,-128.3"/>
</g>
<!-- SafeGraphQLSelectModule -->
<g id="node4" class="node">
<title>SafeGraphQLSelectModule</title>
<polygon fill="#8dd3c7" stroke="black" points="480.28,-84.8 477.28,-88.8 456.28,-88.8 453.28,-84.8 307.72,-84.8 307.72,-48.8 480.28,-48.8 480.28,-84.8"/>
<text text-anchor="middle" x="394" y="-62.6" font-family="Times,serif" font-size="14.00">SafeGraphQLSelectModule</text>
</g>
<!-- SafeGraphQLSelectModule&#45;&gt;TabMainModule -->
<g id="edge3" class="edge">
<title>SafeGraphQLSelectModule&#45;&gt;TabMainModule</title>
<path fill="none" stroke="black" d="M338.65,-84.91C338.65,-84.91 338.65,-103.79 338.65,-103.79"/>
<polygon fill="black" stroke="black" points="335.15,-103.79 338.65,-113.79 342.15,-103.79 335.15,-103.79"/>
</g>
<!-- SafeIconModule -->
<g id="node5" class="node">
<title>SafeIconModule</title>
<polygon fill="#8dd3c7" stroke="black" points="289.8,-84.8 286.8,-88.8 265.8,-88.8 262.8,-84.8 180.2,-84.8 180.2,-48.8 289.8,-48.8 289.8,-84.8"/>
<text text-anchor="middle" x="235" y="-62.6" font-family="Times,serif" font-size="14.00">SafeIconModule</text>
</g>
<!-- SafeIconModule&#45;&gt;TabMainModule -->
<g id="edge4" class="edge">
<title>SafeIconModule&#45;&gt;TabMainModule</title>
<path fill="none" stroke="black" d="M274.11,-84.91C274.11,-84.91 274.11,-103.79 274.11,-103.79"/>
<polygon fill="black" stroke="black" points="270.61,-103.79 274.11,-113.79 277.61,-103.79 270.61,-103.79"/>
</g>
</g>
</svg>
