<?xml version="1.0" encoding="UTF-8" standalone="no"?>
<!DOCTYPE svg PUBLIC "-//W3C//DTD SVG 1.1//EN"
 "http://www.w3.org/Graphics/SVG/1.1/DTD/svg11.dtd">
<!-- Generated by graphviz version 3.0.0 (20220226.1711)
 -->
<!-- Title: dependencies Pages: 1 -->
<svg width="404pt" height="247pt"
 viewBox="0.00 0.00 404.00 246.80" xmlns="http://www.w3.org/2000/svg" xmlns:xlink="http://www.w3.org/1999/xlink">
<g id="graph0" class="graph" transform="scale(1 1) rotate(0) translate(4 242.8)">
<title>dependencies</title>
<polygon fill="white" stroke="transparent" points="-4,4 -4,-242.8 400,-242.8 400,4 -4,4"/>
<text text-anchor="middle" x="198" y="-8.2" font-family="sans-serif" font-size="14.00">dependencies</text>
<g id="clust1" class="cluster">
<title>cluster_EmailTemplateModalModule</title>
<polygon fill="none" stroke="black" stroke-dasharray="1,5" points="8,-32.8 8,-230.8 388,-230.8 388,-32.8 8,-32.8"/>
</g>
<g id="clust4" class="cluster">
<title>cluster_EmailTemplateModalModule_imports</title>
<polygon fill="none" stroke="black" points="244,-40.8 244,-92.8 380,-92.8 380,-40.8 244,-40.8"/>
</g>
<g id="clust2" class="cluster">
<title>cluster_EmailTemplateModalModule_declarations</title>
<polygon fill="none" stroke="black" points="16,-40.8 16,-92.8 236,-92.8 236,-40.8 16,-40.8"/>
</g>
<g id="clust5" class="cluster">
<title>cluster_EmailTemplateModalModule_exports</title>
<polygon fill="none" stroke="black" points="86,-170.8 86,-222.8 310,-222.8 310,-170.8 86,-170.8"/>
</g>
<!-- EmailTemplateModalComponent -->
<g id="node1" class="node">
<title>EmailTemplateModalComponent</title>
<polygon fill="#ffffb3" stroke="black" points="228.18,-84.8 23.82,-84.8 23.82,-48.8 228.18,-48.8 228.18,-84.8"/>
<text text-anchor="middle" x="126" y="-62.6" font-family="Times,serif" font-size="14.00">EmailTemplateModalComponent</text>
</g>
<!-- EmailTemplateModalModule -->
<g id="node2" class="node">
<title>EmailTemplateModalModule</title>
<polygon fill="#8dd3c7" stroke="black" points="289.4,-149.8 286.4,-153.8 265.4,-153.8 262.4,-149.8 106.6,-149.8 106.6,-113.8 289.4,-113.8 289.4,-149.8"/>
<text text-anchor="middle" x="198" y="-127.6" font-family="Times,serif" font-size="14.00">EmailTemplateModalModule</text>
</g>
<!-- EmailTemplateModalComponent&#45;&gt;EmailTemplateModalModule -->
<g id="edge1" class="edge">
<title>EmailTemplateModalComponent&#45;&gt;EmailTemplateModalModule</title>
<path fill="none" stroke="black" d="M167.44,-84.91C167.44,-84.91 167.44,-103.79 167.44,-103.79"/>
<polygon fill="black" stroke="black" points="163.94,-103.79 167.44,-113.79 170.94,-103.79 163.94,-103.79"/>
</g>
<!-- EmailTemplateModalComponent  -->
<g id="node4" class="node">
<title>EmailTemplateModalComponent </title>
<polygon fill="#fb8072" stroke="black" points="301.68,-214.8 94.32,-214.8 94.32,-178.8 301.68,-178.8 301.68,-214.8"/>
<text text-anchor="middle" x="198" y="-192.6" font-family="Times,serif" font-size="14.00">EmailTemplateModalComponent </text>
</g>
<!-- EmailTemplateModalModule&#45;&gt;EmailTemplateModalComponent  -->
<g id="edge3" class="edge">
<title>EmailTemplateModalModule&#45;&gt;EmailTemplateModalComponent </title>
<path fill="none" stroke="black" stroke-dasharray="5,2" d="M198,-149.91C198,-149.91 198,-168.79 198,-168.79"/>
<polygon fill="black" stroke="black" points="194.5,-168.79 198,-178.79 201.5,-168.79 194.5,-168.79"/>
</g>
<!-- SafeModalModule -->
<g id="node3" class="node">
<title>SafeModalModule</title>
<polygon fill="#8dd3c7" stroke="black" points="372.48,-84.8 369.48,-88.8 348.48,-88.8 345.48,-84.8 251.52,-84.8 251.52,-48.8 372.48,-48.8 372.48,-84.8"/>
<text text-anchor="middle" x="312" y="-62.6" font-family="Times,serif" font-size="14.00">SafeModalModule</text>
</g>
<!-- SafeModalModule&#45;&gt;EmailTemplateModalModule -->
<g id="edge2" class="edge">
<title>SafeModalModule&#45;&gt;EmailTemplateModalModule</title>
<path fill="none" stroke="black" d="M270.36,-84.91C270.36,-84.91 270.36,-103.79 270.36,-103.79"/>
<polygon fill="black" stroke="black" points="266.86,-103.79 270.36,-113.79 273.86,-103.79 266.86,-103.79"/>
</g>
</g>
</svg>
