<?xml version="1.0" encoding="UTF-8" standalone="no"?>
<!DOCTYPE svg PUBLIC "-//W3C//DTD SVG 1.1//EN"
 "http://www.w3.org/Graphics/SVG/1.1/DTD/svg11.dtd">
<!-- Generated by graphviz version 3.0.0 (20220226.1711)
 -->
<!-- Title: dependencies Pages: 1 -->
<svg width="232pt" height="247pt"
 viewBox="0.00 0.00 232.00 246.80" xmlns="http://www.w3.org/2000/svg" xmlns:xlink="http://www.w3.org/1999/xlink">
<g id="graph0" class="graph" transform="scale(1 1) rotate(0) translate(4 242.8)">
<title>dependencies</title>
<polygon fill="white" stroke="transparent" points="-4,4 -4,-242.8 228,-242.8 228,4 -4,4"/>
<text text-anchor="middle" x="112" y="-8.2" font-family="sans-serif" font-size="14.00">dependencies</text>
<g id="clust1" class="cluster">
<title>cluster_PreviewToolbarModule</title>
<polygon fill="none" stroke="black" stroke-dasharray="1,5" points="8,-32.8 8,-230.8 216,-230.8 216,-32.8 8,-32.8"/>
</g>
<g id="clust2" class="cluster">
<title>cluster_PreviewToolbarModule_declarations</title>
<polygon fill="none" stroke="black" points="18,-40.8 18,-92.8 206,-92.8 206,-40.8 18,-40.8"/>
</g>
<g id="clust5" class="cluster">
<title>cluster_PreviewToolbarModule_exports</title>
<polygon fill="none" stroke="black" points="16,-170.8 16,-222.8 208,-222.8 208,-170.8 16,-170.8"/>
</g>
<!-- PreviewToolbarComponent -->
<g id="node1" class="node">
<title>PreviewToolbarComponent</title>
<polygon fill="#ffffb3" stroke="black" points="197.53,-84.8 26.47,-84.8 26.47,-48.8 197.53,-48.8 197.53,-84.8"/>
<text text-anchor="middle" x="112" y="-62.6" font-family="Times,serif" font-size="14.00">PreviewToolbarComponent</text>
</g>
<!-- PreviewToolbarModule -->
<g id="node2" class="node">
<title>PreviewToolbarModule</title>
<polygon fill="#8dd3c7" stroke="black" points="186.75,-149.8 183.75,-153.8 162.75,-153.8 159.75,-149.8 37.25,-149.8 37.25,-113.8 186.75,-113.8 186.75,-149.8"/>
<text text-anchor="middle" x="112" y="-127.6" font-family="Times,serif" font-size="14.00">PreviewToolbarModule</text>
</g>
<!-- PreviewToolbarComponent&#45;&gt;PreviewToolbarModule -->
<g id="edge1" class="edge">
<title>PreviewToolbarComponent&#45;&gt;PreviewToolbarModule</title>
<path fill="none" stroke="black" d="M112,-84.91C112,-84.91 112,-103.79 112,-103.79"/>
<polygon fill="black" stroke="black" points="108.5,-103.79 112,-113.79 115.5,-103.79 108.5,-103.79"/>
</g>
<!-- PreviewToolbarComponent  -->
<g id="node3" class="node">
<title>PreviewToolbarComponent </title>
<polygon fill="#fb8072" stroke="black" points="199.52,-214.8 24.48,-214.8 24.48,-178.8 199.52,-178.8 199.52,-214.8"/>
<text text-anchor="middle" x="112" y="-192.6" font-family="Times,serif" font-size="14.00">PreviewToolbarComponent </text>
</g>
<!-- PreviewToolbarModule&#45;&gt;PreviewToolbarComponent  -->
<g id="edge2" class="edge">
<title>PreviewToolbarModule&#45;&gt;PreviewToolbarComponent </title>
<path fill="none" stroke="black" stroke-dasharray="5,2" d="M112,-149.91C112,-149.91 112,-168.79 112,-168.79"/>
<polygon fill="black" stroke="black" points="108.5,-168.79 112,-178.79 115.5,-168.79 108.5,-168.79"/>
</g>
</g>
</svg>
