<?xml version="1.0" encoding="UTF-8" standalone="no"?>
<!DOCTYPE svg PUBLIC "-//W3C//DTD SVG 1.1//EN"
 "http://www.w3.org/Graphics/SVG/1.1/DTD/svg11.dtd">
<!-- Generated by graphviz version 3.0.0 (20220226.1711)
 -->
<!-- Title: dependencies Pages: 1 -->
<svg width="346pt" height="247pt"
 viewBox="0.00 0.00 346.00 246.80" xmlns="http://www.w3.org/2000/svg" xmlns:xlink="http://www.w3.org/1999/xlink">
<g id="graph0" class="graph" transform="scale(1 1) rotate(0) translate(4 242.8)">
<title>dependencies</title>
<polygon fill="white" stroke="transparent" points="-4,4 -4,-242.8 342,-242.8 342,4 -4,4"/>
<text text-anchor="middle" x="169" y="-8.2" font-family="sans-serif" font-size="14.00">dependencies</text>
<g id="clust1" class="cluster">
<title>cluster_SafeProfileModule</title>
<polygon fill="none" stroke="black" stroke-dasharray="1,5" points="8,-32.8 8,-230.8 330,-230.8 330,-32.8 8,-32.8"/>
</g>
<g id="clust5" class="cluster">
<title>cluster_SafeProfileModule_exports</title>
<polygon fill="none" stroke="black" points="87,-170.8 87,-222.8 251,-222.8 251,-170.8 87,-170.8"/>
</g>
<g id="clust2" class="cluster">
<title>cluster_SafeProfileModule_declarations</title>
<polygon fill="none" stroke="black" points="162,-40.8 162,-92.8 322,-92.8 322,-40.8 162,-40.8"/>
</g>
<g id="clust4" class="cluster">
<title>cluster_SafeProfileModule_imports</title>
<polygon fill="none" stroke="black" points="16,-40.8 16,-92.8 154,-92.8 154,-40.8 16,-40.8"/>
</g>
<!-- SafeProfileComponent -->
<g id="node1" class="node">
<title>SafeProfileComponent</title>
<polygon fill="#ffffb3" stroke="black" points="314.31,-84.8 169.69,-84.8 169.69,-48.8 314.31,-48.8 314.31,-84.8"/>
<text text-anchor="middle" x="242" y="-62.6" font-family="Times,serif" font-size="14.00">SafeProfileComponent</text>
</g>
<!-- SafeProfileModule -->
<g id="node2" class="node">
<title>SafeProfileModule</title>
<polygon fill="#8dd3c7" stroke="black" points="230.03,-149.8 227.03,-153.8 206.03,-153.8 203.03,-149.8 107.97,-149.8 107.97,-113.8 230.03,-113.8 230.03,-149.8"/>
<text text-anchor="middle" x="169" y="-127.6" font-family="Times,serif" font-size="14.00">SafeProfileModule</text>
</g>
<!-- SafeProfileComponent&#45;&gt;SafeProfileModule -->
<g id="edge1" class="edge">
<title>SafeProfileComponent&#45;&gt;SafeProfileModule</title>
<path fill="none" stroke="black" d="M200.06,-84.91C200.06,-84.91 200.06,-103.79 200.06,-103.79"/>
<polygon fill="black" stroke="black" points="196.56,-103.79 200.06,-113.79 203.56,-103.79 196.56,-103.79"/>
</g>
<!-- SafeProfileComponent  -->
<g id="node4" class="node">
<title>SafeProfileComponent </title>
<polygon fill="#fb8072" stroke="black" points="242.81,-214.8 95.19,-214.8 95.19,-178.8 242.81,-178.8 242.81,-214.8"/>
<text text-anchor="middle" x="169" y="-192.6" font-family="Times,serif" font-size="14.00">SafeProfileComponent </text>
</g>
<!-- SafeProfileModule&#45;&gt;SafeProfileComponent  -->
<g id="edge3" class="edge">
<title>SafeProfileModule&#45;&gt;SafeProfileComponent </title>
<path fill="none" stroke="black" stroke-dasharray="5,2" d="M169,-149.91C169,-149.91 169,-168.79 169,-168.79"/>
<polygon fill="black" stroke="black" points="165.5,-168.79 169,-178.79 172.5,-168.79 165.5,-168.79"/>
</g>
<!-- SafeButtonModule -->
<g id="node3" class="node">
<title>SafeButtonModule</title>
<polygon fill="#8dd3c7" stroke="black" points="146.05,-84.8 143.05,-88.8 122.05,-88.8 119.05,-84.8 23.95,-84.8 23.95,-48.8 146.05,-48.8 146.05,-84.8"/>
<text text-anchor="middle" x="85" y="-62.6" font-family="Times,serif" font-size="14.00">SafeButtonModule</text>
</g>
<!-- SafeButtonModule&#45;&gt;SafeProfileModule -->
<g id="edge2" class="edge">
<title>SafeButtonModule&#45;&gt;SafeProfileModule</title>
<path fill="none" stroke="black" d="M127,-84.91C127,-84.91 127,-103.79 127,-103.79"/>
<polygon fill="black" stroke="black" points="123.5,-103.79 127,-113.79 130.5,-103.79 123.5,-103.79"/>
</g>
</g>
</svg>
