<?xml version="1.0" encoding="UTF-8" standalone="no"?>
<!DOCTYPE svg PUBLIC "-//W3C//DTD SVG 1.1//EN"
 "http://www.w3.org/Graphics/SVG/1.1/DTD/svg11.dtd">
<!-- Generated by graphviz version 3.0.0 (20220226.1711)
 -->
<!-- Title: dependencies Pages: 1 -->
<svg width="1767pt" height="358pt"
 viewBox="0.00 0.00 1767.00 358.39" xmlns="http://www.w3.org/2000/svg" xmlns:xlink="http://www.w3.org/1999/xlink">
<g id="graph0" class="graph" transform="scale(1 1) rotate(0) translate(4 354.39)">
<title>dependencies</title>
<polygon fill="white" stroke="transparent" points="-4,4 -4,-354.39 1763,-354.39 1763,4 -4,4"/>
<text text-anchor="middle" x="879.5" y="-8.2" font-family="sans-serif" font-size="14.00">dependencies</text>
<g id="clust1" class="cluster">
<title>cluster_SafeChartSettingsModule</title>
<polygon fill="none" stroke="black" stroke-dasharray="1,5" points="8,-32.8 8,-342.39 1751,-342.39 1751,-32.8 8,-32.8"/>
</g>
<g id="clust2" class="cluster">
<title>cluster_SafeChartSettingsModule_declarations</title>
<polygon fill="none" stroke="black" points="1545,-152.39 1545,-204.39 1743,-204.39 1743,-152.39 1545,-152.39"/>
</g>
<g id="clust3" class="cluster">
<title>cluster_SafeChartSettingsModule_SafeChartSettingsComponent_providers</title>
<polygon fill="none" stroke="black" points="209,-40.8 209,-139.39 1743,-139.39 1743,-40.8 209,-40.8"/>
</g>
<g id="clust5" class="cluster">
<title>cluster_SafeChartSettingsModule_exports</title>
<polygon fill="none" stroke="black" points="757,-282.39 757,-334.39 959,-334.39 959,-282.39 757,-282.39"/>
</g>
<g id="clust4" class="cluster">
<title>cluster_SafeChartSettingsModule_imports</title>
<polygon fill="none" stroke="black" points="16,-152.39 16,-204.39 1537,-204.39 1537,-152.39 16,-152.39"/>
</g>
<!-- SafeChartSettingsComponent -->
<g id="node1" class="node">
<title>SafeChartSettingsComponent</title>
<polygon fill="#ffffb3" stroke="black" points="1735.43,-196.39 1552.57,-196.39 1552.57,-160.39 1735.43,-160.39 1735.43,-196.39"/>
<text text-anchor="middle" x="1644" y="-174.19" font-family="Times,serif" font-size="14.00">SafeChartSettingsComponent</text>
</g>
<!-- SafeChartSettingsModule -->
<g id="node2" class="node">
<title>SafeChartSettingsModule</title>
<polygon fill="#8dd3c7" stroke="black" points="938.15,-261.39 935.15,-265.39 914.15,-265.39 911.15,-261.39 777.85,-261.39 777.85,-225.39 938.15,-225.39 938.15,-261.39"/>
<text text-anchor="middle" x="858" y="-239.19" font-family="Times,serif" font-size="14.00">SafeChartSettingsModule</text>
</g>
<!-- SafeChartSettingsComponent&#45;&gt;SafeChartSettingsModule -->
<g id="edge1" class="edge">
<title>SafeChartSettingsComponent&#45;&gt;SafeChartSettingsModule</title>
<path fill="none" stroke="black" d="M1644,-196.4C1644,-218.88 1644,-254.39 1644,-254.39 1644,-254.39 948.42,-254.39 948.42,-254.39"/>
<polygon fill="black" stroke="black" points="948.42,-250.89 938.42,-254.39 948.42,-257.89 948.42,-250.89"/>
</g>
<!-- SafeChartSettingsComponent  -->
<g id="node15" class="node">
<title>SafeChartSettingsComponent </title>
<polygon fill="#fb8072" stroke="black" points="950.93,-326.39 765.07,-326.39 765.07,-290.39 950.93,-290.39 950.93,-326.39"/>
<text text-anchor="middle" x="858" y="-304.19" font-family="Times,serif" font-size="14.00">SafeChartSettingsComponent </text>
</g>
<!-- SafeChartSettingsModule&#45;&gt;SafeChartSettingsComponent  -->
<g id="edge14" class="edge">
<title>SafeChartSettingsModule&#45;&gt;SafeChartSettingsComponent </title>
<path fill="none" stroke="black" stroke-dasharray="5,2" d="M858,-261.5C858,-261.5 858,-280.38 858,-280.38"/>
<polygon fill="black" stroke="black" points="854.5,-280.38 858,-290.38 861.5,-280.38 854.5,-280.38"/>
</g>
<!-- {
 &#160;&#160;&#160;provide: MAT_AUTOCOMPLETE_SCROLL_STRATEGY, useFactory: scrollFactory, deps: [Overlay],
} -->
<g id="node3" class="node">
<title>{
 &#160;&#160;&#160;provide: MAT_AUTOCOMPLETE_SCROLL_STRATEGY, useFactory: scrollFactory, deps: [Overlay],
}</title>
<ellipse fill="#fdb462" stroke="black" cx="1297" cy="-90.1" rx="438.07" ry="41.09"/>
<text text-anchor="middle" x="1297" y="-102.7" font-family="Times,serif" font-size="14.00">{</text>
<text text-anchor="middle" x="1297" y="-85.9" font-family="Times,serif" font-size="14.00"> &#160;&#160;&#160;provide: MAT_AUTOCOMPLETE_SCROLL_STRATEGY, useFactory: scrollFactory, deps: [Overlay],</text>
<text text-anchor="middle" x="1297" y="-69.1" font-family="Times,serif" font-size="14.00">}</text>
</g>
<!-- {
 &#160;&#160;&#160;provide: MAT_AUTOCOMPLETE_SCROLL_STRATEGY, useFactory: scrollFactory, deps: [Overlay],
}&#45;&gt;SafeChartSettingsComponent -->
<g id="edge2" class="edge">
<title>{
 &#160;&#160;&#160;provide: MAT_AUTOCOMPLETE_SCROLL_STRATEGY, useFactory: scrollFactory, deps: [Overlay],
}&#45;&gt;SafeChartSettingsComponent</title>
<path fill="none" stroke="black" d="M1674.29,-111.47C1674.29,-111.47 1674.29,-150.2 1674.29,-150.2"/>
<polygon fill="black" stroke="black" points="1670.79,-150.2 1674.29,-160.2 1677.79,-150.2 1670.79,-150.2"/>
</g>
<!-- { provide: MAT_CHIPS_DEFAULT_OPTIONS, useFactory: codesFactory } -->
<g id="node4" class="node">
<title>{ provide: MAT_CHIPS_DEFAULT_OPTIONS, useFactory: codesFactory }</title>
<ellipse fill="#fdb462" stroke="black" cx="529" cy="-90.1" rx="311.7" ry="18"/>
<text text-anchor="middle" x="529" y="-85.9" font-family="Times,serif" font-size="14.00">{ provide: MAT_CHIPS_DEFAULT_OPTIONS, useFactory: codesFactory }</text>
</g>
<!-- { provide: MAT_CHIPS_DEFAULT_OPTIONS, useFactory: codesFactory }&#45;&gt;SafeChartSettingsComponent -->
<g id="edge3" class="edge">
<title>{ provide: MAT_CHIPS_DEFAULT_OPTIONS, useFactory: codesFactory }&#45;&gt;SafeChartSettingsComponent</title>
<path fill="none" stroke="black" d="M821.97,-96.55C821.97,-111.34 821.97,-146.39 821.97,-146.39 821.97,-146.39 1613.54,-146.39 1613.54,-146.39 1613.54,-146.39 1613.54,-150.15 1613.54,-150.15"/>
<polygon fill="black" stroke="black" points="1610.04,-150.15 1613.54,-160.15 1617.04,-150.15 1610.04,-150.15"/>
</g>
<!-- SafeAggregationBuilderModule -->
<g id="node5" class="node">
<title>SafeAggregationBuilderModule</title>
<polygon fill="#8dd3c7" stroke="black" points="1529.4,-196.39 1526.4,-200.39 1505.4,-200.39 1502.4,-196.39 1332.6,-196.39 1332.6,-160.39 1529.4,-160.39 1529.4,-196.39"/>
<text text-anchor="middle" x="1431" y="-174.19" font-family="Times,serif" font-size="14.00">SafeAggregationBuilderModule</text>
</g>
<!-- SafeAggregationBuilderModule&#45;&gt;SafeChartSettingsModule -->
<g id="edge4" class="edge">
<title>SafeAggregationBuilderModule&#45;&gt;SafeChartSettingsModule</title>
<path fill="none" stroke="black" d="M1431,-196.52C1431,-216.96 1431,-247.39 1431,-247.39 1431,-247.39 948.28,-247.39 948.28,-247.39"/>
<polygon fill="black" stroke="black" points="948.28,-243.89 938.28,-247.39 948.28,-250.89 948.28,-243.89"/>
</g>
<!-- SafeButtonModule -->
<g id="node6" class="node">
<title>SafeButtonModule</title>
<polygon fill="#8dd3c7" stroke="black" points="1315.05,-196.39 1312.05,-200.39 1291.05,-200.39 1288.05,-196.39 1192.95,-196.39 1192.95,-160.39 1315.05,-160.39 1315.05,-196.39"/>
<text text-anchor="middle" x="1254" y="-174.19" font-family="Times,serif" font-size="14.00">SafeButtonModule</text>
</g>
<!-- SafeButtonModule&#45;&gt;SafeChartSettingsModule -->
<g id="edge5" class="edge">
<title>SafeButtonModule&#45;&gt;SafeChartSettingsModule</title>
<path fill="none" stroke="black" d="M1254,-196.66C1254,-214.95 1254,-240.39 1254,-240.39 1254,-240.39 948.61,-240.39 948.61,-240.39"/>
<polygon fill="black" stroke="black" points="948.61,-236.89 938.61,-240.39 948.61,-243.89 948.61,-236.89"/>
</g>
<!-- SafeChartModule -->
<g id="node7" class="node">
<title>SafeChartModule</title>
<polygon fill="#8dd3c7" stroke="black" points="1174.53,-196.39 1171.53,-200.39 1150.53,-200.39 1147.53,-196.39 1059.47,-196.39 1059.47,-160.39 1174.53,-160.39 1174.53,-196.39"/>
<text text-anchor="middle" x="1117" y="-174.19" font-family="Times,serif" font-size="14.00">SafeChartModule</text>
</g>
<!-- SafeChartModule&#45;&gt;SafeChartSettingsModule -->
<g id="edge6" class="edge">
<title>SafeChartModule&#45;&gt;SafeChartSettingsModule</title>
<path fill="none" stroke="black" d="M1117,-196.4C1117,-212.44 1117,-233.39 1117,-233.39 1117,-233.39 948.18,-233.39 948.18,-233.39"/>
<polygon fill="black" stroke="black" points="948.18,-229.89 938.18,-233.39 948.18,-236.89 948.18,-229.89"/>
</g>
<!-- SafeGridModule -->
<g id="node8" class="node">
<title>SafeGridModule</title>
<polygon fill="#8dd3c7" stroke="black" points="1041.09,-196.39 1038.09,-200.39 1017.09,-200.39 1014.09,-196.39 930.91,-196.39 930.91,-160.39 1041.09,-160.39 1041.09,-196.39"/>
<text text-anchor="middle" x="986" y="-174.19" font-family="Times,serif" font-size="14.00">SafeGridModule</text>
</g>
<!-- SafeGridModule&#45;&gt;SafeChartSettingsModule -->
<g id="edge7" class="edge">
<title>SafeGridModule&#45;&gt;SafeChartSettingsModule</title>
<path fill="none" stroke="black" d="M934.64,-196.5C934.64,-196.5 934.64,-215.38 934.64,-215.38"/>
<polygon fill="black" stroke="black" points="931.14,-215.38 934.64,-225.38 938.14,-215.38 931.14,-215.38"/>
</g>
<!-- SafeIconModule -->
<g id="node9" class="node">
<title>SafeIconModule</title>
<polygon fill="#8dd3c7" stroke="black" points="912.8,-196.39 909.8,-200.39 888.8,-200.39 885.8,-196.39 803.2,-196.39 803.2,-160.39 912.8,-160.39 912.8,-196.39"/>
<text text-anchor="middle" x="858" y="-174.19" font-family="Times,serif" font-size="14.00">SafeIconModule</text>
</g>
<!-- SafeIconModule&#45;&gt;SafeChartSettingsModule -->
<g id="edge8" class="edge">
<title>SafeIconModule&#45;&gt;SafeChartSettingsModule</title>
<path fill="none" stroke="black" d="M858,-196.5C858,-196.5 858,-215.38 858,-215.38"/>
<polygon fill="black" stroke="black" points="854.5,-215.38 858,-225.38 861.5,-215.38 854.5,-215.38"/>
</g>
<!-- SafePaletteControlModule -->
<g id="node10" class="node">
<title>SafePaletteControlModule</title>
<polygon fill="#8dd3c7" stroke="black" points="785.8,-196.39 782.8,-200.39 761.8,-200.39 758.8,-196.39 620.2,-196.39 620.2,-160.39 785.8,-160.39 785.8,-196.39"/>
<text text-anchor="middle" x="703" y="-174.19" font-family="Times,serif" font-size="14.00">SafePaletteControlModule</text>
</g>
<!-- SafePaletteControlModule&#45;&gt;SafeChartSettingsModule -->
<g id="edge9" class="edge">
<title>SafePaletteControlModule&#45;&gt;SafeChartSettingsModule</title>
<path fill="none" stroke="black" d="M781.66,-196.5C781.66,-196.5 781.66,-215.38 781.66,-215.38"/>
<polygon fill="black" stroke="black" points="778.16,-215.38 781.66,-225.38 785.16,-215.38 778.16,-215.38"/>
</g>
<!-- SafeQueryBuilderModule -->
<g id="node11" class="node">
<title>SafeQueryBuilderModule</title>
<polygon fill="#8dd3c7" stroke="black" points="602.91,-196.39 599.91,-200.39 578.91,-200.39 575.91,-196.39 441.09,-196.39 441.09,-160.39 602.91,-160.39 602.91,-196.39"/>
<text text-anchor="middle" x="522" y="-174.19" font-family="Times,serif" font-size="14.00">SafeQueryBuilderModule</text>
</g>
<!-- SafeQueryBuilderModule&#45;&gt;SafeChartSettingsModule -->
<g id="edge10" class="edge">
<title>SafeQueryBuilderModule&#45;&gt;SafeChartSettingsModule</title>
<path fill="none" stroke="black" d="M522,-196.4C522,-212.44 522,-233.39 522,-233.39 522,-233.39 767.52,-233.39 767.52,-233.39"/>
<polygon fill="black" stroke="black" points="767.52,-236.89 777.52,-233.39 767.52,-229.89 767.52,-236.89"/>
</g>
<!-- TabDisplayModule -->
<g id="node12" class="node">
<title>TabDisplayModule</title>
<polygon fill="#8dd3c7" stroke="black" points="423.37,-196.39 420.37,-200.39 399.37,-200.39 396.37,-196.39 298.63,-196.39 298.63,-160.39 423.37,-160.39 423.37,-196.39"/>
<text text-anchor="middle" x="361" y="-174.19" font-family="Times,serif" font-size="14.00">TabDisplayModule</text>
</g>
<!-- TabDisplayModule&#45;&gt;SafeChartSettingsModule -->
<g id="edge11" class="edge">
<title>TabDisplayModule&#45;&gt;SafeChartSettingsModule</title>
<path fill="none" stroke="black" d="M361,-196.66C361,-214.95 361,-240.39 361,-240.39 361,-240.39 767.6,-240.39 767.6,-240.39"/>
<polygon fill="black" stroke="black" points="767.6,-243.89 777.6,-240.39 767.6,-236.89 767.6,-243.89"/>
</g>
<!-- TabMainModule -->
<g id="node13" class="node">
<title>TabMainModule</title>
<polygon fill="#8dd3c7" stroke="black" points="280.37,-196.39 277.37,-200.39 256.37,-200.39 253.37,-196.39 169.63,-196.39 169.63,-160.39 280.37,-160.39 280.37,-196.39"/>
<text text-anchor="middle" x="225" y="-174.19" font-family="Times,serif" font-size="14.00">TabMainModule</text>
</g>
<!-- TabMainModule&#45;&gt;SafeChartSettingsModule -->
<g id="edge12" class="edge">
<title>TabMainModule&#45;&gt;SafeChartSettingsModule</title>
<path fill="none" stroke="black" d="M225,-196.52C225,-216.96 225,-247.39 225,-247.39 225,-247.39 767.83,-247.39 767.83,-247.39"/>
<polygon fill="black" stroke="black" points="767.83,-250.89 777.83,-247.39 767.83,-243.89 767.83,-250.89"/>
</g>
<!-- TabPreviewModule -->
<g id="node14" class="node">
<title>TabPreviewModule</title>
<polygon fill="#8dd3c7" stroke="black" points="151.69,-196.39 148.69,-200.39 127.69,-200.39 124.69,-196.39 24.31,-196.39 24.31,-160.39 151.69,-160.39 151.69,-196.39"/>
<text text-anchor="middle" x="88" y="-174.19" font-family="Times,serif" font-size="14.00">TabPreviewModule</text>
</g>
<!-- TabPreviewModule&#45;&gt;SafeChartSettingsModule -->
<g id="edge13" class="edge">
<title>TabPreviewModule&#45;&gt;SafeChartSettingsModule</title>
<path fill="none" stroke="black" d="M88,-196.4C88,-218.88 88,-254.39 88,-254.39 88,-254.39 767.78,-254.39 767.78,-254.39"/>
<polygon fill="black" stroke="black" points="767.78,-257.89 777.78,-254.39 767.78,-250.89 767.78,-257.89"/>
</g>
</g>
</svg>
