<?xml version="1.0" encoding="UTF-8" standalone="no"?>
<!DOCTYPE svg PUBLIC "-//W3C//DTD SVG 1.1//EN"
 "http://www.w3.org/Graphics/SVG/1.1/DTD/svg11.dtd">
<!-- Generated by graphviz version 2.47.0 (20210316.0004)
 -->
<!-- Title: dependencies Pages: 1 -->
<svg width="635pt" height="284pt"
 viewBox="0.00 0.00 635.00 284.00" xmlns="http://www.w3.org/2000/svg" xmlns:xlink="http://www.w3.org/1999/xlink">
<g id="graph0" class="graph" transform="scale(1 1) rotate(0) translate(4 280)">
<title>dependencies</title>
<polygon fill="white" stroke="transparent" points="-4,4 -4,-280 631,-280 631,4 -4,4"/>
<text text-anchor="start" x="292.51" y="-42.4" font-family="sans-serif" font-weight="bold" font-size="14.00">Legend</text>
<polygon fill="#ffffb3" stroke="transparent" points="79.5,-10 79.5,-30 99.5,-30 99.5,-10 79.5,-10"/>
<text text-anchor="start" x="103.13" y="-15.4" font-family="sans-serif" font-size="14.00"> &#160;Declarations</text>
<polygon fill="#8dd3c7" stroke="transparent" points="192.5,-10 192.5,-30 212.5,-30 212.5,-10 192.5,-10"/>
<text text-anchor="start" x="216.23" y="-15.4" font-family="sans-serif" font-size="14.00"> &#160;Module</text>
<polygon fill="#80b1d3" stroke="transparent" points="278.5,-10 278.5,-30 298.5,-30 298.5,-10 278.5,-10"/>
<text text-anchor="start" x="302.28" y="-15.4" font-family="sans-serif" font-size="14.00"> &#160;Bootstrap</text>
<polygon fill="#fdb462" stroke="transparent" points="375.5,-10 375.5,-30 395.5,-30 395.5,-10 375.5,-10"/>
<text text-anchor="start" x="399.17" y="-15.4" font-family="sans-serif" font-size="14.00"> &#160;Providers</text>
<polygon fill="#fb8072" stroke="transparent" points="471.5,-10 471.5,-30 491.5,-30 491.5,-10 471.5,-10"/>
<text text-anchor="start" x="495.23" y="-15.4" font-family="sans-serif" font-size="14.00"> &#160;Exports</text>
<g id="clust1" class="cluster">
<title>cluster_SafeFormModule</title>
<polygon fill="none" stroke="black" stroke-dasharray="1,5" points="8,-70 8,-268 619,-268 619,-70 8,-70"/>
</g>
<g id="clust4" class="cluster">
<title>cluster_SafeFormModule_imports</title>
<polygon fill="none" stroke="black" points="176,-78 176,-130 611,-130 611,-78 176,-78"/>
</g>
<g id="clust2" class="cluster">
<title>cluster_SafeFormModule_declarations</title>
<polygon fill="none" stroke="black" points="16,-78 16,-130 168,-130 168,-78 16,-78"/>
</g>
<g id="clust5" class="cluster">
<title>cluster_SafeFormModule_exports</title>
<polygon fill="none" stroke="black" points="235,-208 235,-260 391,-260 391,-208 235,-208"/>
</g>
<!-- SafeFormComponent -->
<g id="node1" class="node">
<title>SafeFormComponent</title>
<polygon fill="#ffffb3" stroke="black" points="160.04,-122 23.96,-122 23.96,-86 160.04,-86 160.04,-122"/>
<text text-anchor="middle" x="92" y="-99.8" font-family="Times,serif" font-size="14.00">SafeFormComponent</text>
</g>
<!-- SafeFormModule -->
<g id="node2" class="node">
<title>SafeFormModule</title>
<polygon fill="#8dd3c7" stroke="black" points="370.26,-187 367.26,-191 346.26,-191 343.26,-187 255.74,-187 255.74,-151 370.26,-151 370.26,-187"/>
<text text-anchor="middle" x="313" y="-164.8" font-family="Times,serif" font-size="14.00">SafeFormModule</text>
</g>
<!-- SafeFormComponent&#45;&gt;SafeFormModule -->
<g id="edge1" class="edge">
<title>SafeFormComponent&#45;&gt;SafeFormModule</title>
<path fill="none" stroke="black" d="M92,-122.11C92,-141.34 92,-169 92,-169 92,-169 245.51,-169 245.51,-169"/>
<polygon fill="black" stroke="black" points="245.51,-172.5 255.51,-169 245.51,-165.5 245.51,-172.5"/>
</g>
<!-- SafeFormComponent  -->
<g id="node6" class="node">
<title>SafeFormComponent </title>
<polygon fill="#fb8072" stroke="black" points="383.04,-252 242.96,-252 242.96,-216 383.04,-216 383.04,-252"/>
<text text-anchor="middle" x="313" y="-229.8" font-family="Times,serif" font-size="14.00">SafeFormComponent </text>
</g>
<!-- SafeFormModule&#45;&gt;SafeFormComponent  -->
<g id="edge5" class="edge">
<title>SafeFormModule&#45;&gt;SafeFormComponent </title>
<path fill="none" stroke="black" stroke-dasharray="5,2" d="M313,-187.11C313,-187.11 313,-205.99 313,-205.99"/>
<polygon fill="black" stroke="black" points="309.5,-205.99 313,-215.99 316.5,-205.99 309.5,-205.99"/>
</g>
<!-- SafeButtonModule -->
<g id="node3" class="node">
<title>SafeButtonModule</title>
<polygon fill="#8dd3c7" stroke="black" points="603.04,-122 600.04,-126 579.04,-126 576.04,-122 480.96,-122 480.96,-86 603.04,-86 603.04,-122"/>
<text text-anchor="middle" x="542" y="-99.8" font-family="Times,serif" font-size="14.00">SafeButtonModule</text>
</g>
<!-- SafeButtonModule&#45;&gt;SafeFormModule -->
<g id="edge2" class="edge">
<title>SafeButtonModule&#45;&gt;SafeFormModule</title>
<path fill="none" stroke="black" d="M542,-122.11C542,-141.34 542,-169 542,-169 542,-169 380.49,-169 380.49,-169"/>
<polygon fill="black" stroke="black" points="380.49,-165.5 370.49,-169 380.49,-172.5 380.49,-165.5"/>
</g>
<!-- SafeFormModalModule -->
<g id="node4" class="node">
<title>SafeFormModalModule</title>
<polygon fill="#8dd3c7" stroke="black" points="462.81,-122 459.81,-126 438.81,-126 435.81,-122 311.19,-122 311.19,-86 462.81,-86 462.81,-122"/>
<text text-anchor="middle" x="387" y="-99.8" font-family="Times,serif" font-size="14.00">SafeFormModalModule</text>
</g>
<!-- SafeFormModalModule&#45;&gt;SafeFormModule -->
<g id="edge3" class="edge">
<title>SafeFormModalModule&#45;&gt;SafeFormModule</title>
<path fill="none" stroke="black" d="M340.86,-122.11C340.86,-122.11 340.86,-140.99 340.86,-140.99"/>
<polygon fill="black" stroke="black" points="337.36,-140.99 340.86,-150.99 344.36,-140.99 337.36,-140.99"/>
</g>
<!-- SafeIconModule -->
<g id="node5" class="node">
<title>SafeIconModule</title>
<polygon fill="#8dd3c7" stroke="black" points="293.8,-122 290.8,-126 269.8,-126 266.8,-122 184.2,-122 184.2,-86 293.8,-86 293.8,-122"/>
<text text-anchor="middle" x="239" y="-99.8" font-family="Times,serif" font-size="14.00">SafeIconModule</text>
</g>
<!-- SafeIconModule&#45;&gt;SafeFormModule -->
<g id="edge4" class="edge">
<title>SafeIconModule&#45;&gt;SafeFormModule</title>
<path fill="none" stroke="black" d="M274.64,-122.11C274.64,-122.11 274.64,-140.99 274.64,-140.99"/>
<polygon fill="black" stroke="black" points="271.14,-140.99 274.64,-150.99 278.14,-140.99 271.14,-140.99"/>
</g>
</g>
</svg>
