<?xml version="1.0" encoding="UTF-8" standalone="no"?>
<!DOCTYPE svg PUBLIC "-//W3C//DTD SVG 1.1//EN"
 "http://www.w3.org/Graphics/SVG/1.1/DTD/svg11.dtd">
<!-- Generated by graphviz version 2.47.0 (20210316.0004)
 -->
<!-- Title: dependencies Pages: 1 -->
<svg width="635pt" height="284pt"
 viewBox="0.00 0.00 635.00 284.00" xmlns="http://www.w3.org/2000/svg" xmlns:xlink="http://www.w3.org/1999/xlink">
<g id="graph0" class="graph" transform="scale(1 1) rotate(0) translate(4 280)">
<title>dependencies</title>
<polygon fill="white" stroke="transparent" points="-4,4 -4,-280 631,-280 631,4 -4,4"/>
<text text-anchor="start" x="292.51" y="-42.4" font-family="sans-serif" font-weight="bold" font-size="14.00">Legend</text>
<polygon fill="#ffffb3" stroke="transparent" points="79.5,-10 79.5,-30 99.5,-30 99.5,-10 79.5,-10"/>
<text text-anchor="start" x="103.13" y="-15.4" font-family="sans-serif" font-size="14.00"> &#160;Declarations</text>
<polygon fill="#8dd3c7" stroke="transparent" points="192.5,-10 192.5,-30 212.5,-30 212.5,-10 192.5,-10"/>
<text text-anchor="start" x="216.23" y="-15.4" font-family="sans-serif" font-size="14.00"> &#160;Module</text>
<polygon fill="#80b1d3" stroke="transparent" points="278.5,-10 278.5,-30 298.5,-30 298.5,-10 278.5,-10"/>
<text text-anchor="start" x="302.28" y="-15.4" font-family="sans-serif" font-size="14.00"> &#160;Bootstrap</text>
<polygon fill="#fdb462" stroke="transparent" points="375.5,-10 375.5,-30 395.5,-30 395.5,-10 375.5,-10"/>
<text text-anchor="start" x="399.17" y="-15.4" font-family="sans-serif" font-size="14.00"> &#160;Providers</text>
<polygon fill="#fb8072" stroke="transparent" points="471.5,-10 471.5,-30 491.5,-30 491.5,-10 471.5,-10"/>
<text text-anchor="start" x="495.23" y="-15.4" font-family="sans-serif" font-size="14.00"> &#160;Exports</text>
<g id="clust1" class="cluster">
<title>cluster_SafeFormModule</title>
<polygon fill="none" stroke="black" stroke-dasharray="1,5" points="8,-70 8,-268 619,-268 619,-70 8,-70"/>
</g>
<g id="clust5" class="cluster">
<title>cluster_SafeFormModule_exports</title>
<polygon fill="none" stroke="black" points="226,-208 226,-260 382,-260 382,-208 226,-208"/>
</g>
<g id="clust2" class="cluster">
<title>cluster_SafeFormModule_declarations</title>
<polygon fill="none" stroke="black" points="459,-78 459,-130 611,-130 611,-78 459,-78"/>
</g>
<g id="clust4" class="cluster">
<title>cluster_SafeFormModule_imports</title>
<polygon fill="none" stroke="black" points="16,-78 16,-130 451,-130 451,-78 16,-78"/>
</g>
<!-- SafeFormComponent -->
<g id="node1" class="node">
<title>SafeFormComponent</title>
<polygon fill="#ffffb3" stroke="black" points="603.04,-122 466.96,-122 466.96,-86 603.04,-86 603.04,-122"/>
<text text-anchor="middle" x="535" y="-99.8" font-family="Times,serif" font-size="14.00">SafeFormComponent</text>
</g>
<!-- SafeFormModule -->
<g id="node2" class="node">
<title>SafeFormModule</title>
<polygon fill="#8dd3c7" stroke="black" points="361.26,-187 358.26,-191 337.26,-191 334.26,-187 246.74,-187 246.74,-151 361.26,-151 361.26,-187"/>
<text text-anchor="middle" x="304" y="-164.8" font-family="Times,serif" font-size="14.00">SafeFormModule</text>
</g>
<!-- SafeFormComponent&#45;&gt;SafeFormModule -->
<g id="edge1" class="edge">
<title>SafeFormComponent&#45;&gt;SafeFormModule</title>
<path fill="none" stroke="black" d="M535,-122.11C535,-141.34 535,-169 535,-169 535,-169 371.4,-169 371.4,-169"/>
<polygon fill="black" stroke="black" points="371.4,-165.5 361.4,-169 371.4,-172.5 371.4,-165.5"/>
</g>
<!-- SafeFormComponent  -->
<g id="node6" class="node">
<title>SafeFormComponent </title>
<polygon fill="#fb8072" stroke="black" points="374.04,-252 233.96,-252 233.96,-216 374.04,-216 374.04,-252"/>
<text text-anchor="middle" x="304" y="-229.8" font-family="Times,serif" font-size="14.00">SafeFormComponent </text>
</g>
<!-- SafeFormModule&#45;&gt;SafeFormComponent  -->
<g id="edge5" class="edge">
<title>SafeFormModule&#45;&gt;SafeFormComponent </title>
<path fill="none" stroke="black" stroke-dasharray="5,2" d="M304,-187.11C304,-187.11 304,-205.99 304,-205.99"/>
<polygon fill="black" stroke="black" points="300.5,-205.99 304,-215.99 307.5,-205.99 300.5,-205.99"/>
</g>
<!-- SafeButtonModule -->
<g id="node3" class="node">
<title>SafeButtonModule</title>
<polygon fill="#8dd3c7" stroke="black" points="443.04,-122 440.04,-126 419.04,-126 416.04,-122 320.96,-122 320.96,-86 443.04,-86 443.04,-122"/>
<text text-anchor="middle" x="382" y="-99.8" font-family="Times,serif" font-size="14.00">SafeButtonModule</text>
</g>
<!-- SafeButtonModule&#45;&gt;SafeFormModule -->
<g id="edge2" class="edge">
<title>SafeButtonModule&#45;&gt;SafeFormModule</title>
<path fill="none" stroke="black" d="M341.05,-122.11C341.05,-122.11 341.05,-140.99 341.05,-140.99"/>
<polygon fill="black" stroke="black" points="337.55,-140.99 341.05,-150.99 344.55,-140.99 337.55,-140.99"/>
</g>
<!-- SafeFormModalModule -->
<g id="node4" class="node">
<title>SafeFormModalModule</title>
<polygon fill="#8dd3c7" stroke="black" points="302.81,-122 299.81,-126 278.81,-126 275.81,-122 151.19,-122 151.19,-86 302.81,-86 302.81,-122"/>
<text text-anchor="middle" x="227" y="-99.8" font-family="Times,serif" font-size="14.00">SafeFormModalModule</text>
</g>
<!-- SafeFormModalModule&#45;&gt;SafeFormModule -->
<g id="edge3" class="edge">
<title>SafeFormModalModule&#45;&gt;SafeFormModule</title>
<path fill="none" stroke="black" d="M274.64,-122.11C274.64,-122.11 274.64,-140.99 274.64,-140.99"/>
<polygon fill="black" stroke="black" points="271.14,-140.99 274.64,-150.99 278.14,-140.99 271.14,-140.99"/>
</g>
<!-- SafeIconModule -->
<g id="node5" class="node">
<title>SafeIconModule</title>
<polygon fill="#8dd3c7" stroke="black" points="133.8,-122 130.8,-126 109.8,-126 106.8,-122 24.2,-122 24.2,-86 133.8,-86 133.8,-122"/>
<text text-anchor="middle" x="79" y="-99.8" font-family="Times,serif" font-size="14.00">SafeIconModule</text>
</g>
<!-- SafeIconModule&#45;&gt;SafeFormModule -->
<g id="edge4" class="edge">
<title>SafeIconModule&#45;&gt;SafeFormModule</title>
<path fill="none" stroke="black" d="M79,-122.11C79,-141.34 79,-169 79,-169 79,-169 236.64,-169 236.64,-169"/>
<polygon fill="black" stroke="black" points="236.64,-172.5 246.64,-169 236.64,-165.5 236.64,-172.5"/>
</g>
</g>
</svg>
