<?xml version="1.0" encoding="UTF-8" standalone="no"?>
<!DOCTYPE svg PUBLIC "-//W3C//DTD SVG 1.1//EN"
 "http://www.w3.org/Graphics/SVG/1.1/DTD/svg11.dtd">
<!-- Generated by graphviz version 2.47.0 (20210316.0004)
 -->
<!-- Title: dependencies Pages: 1 -->
<svg width="504pt" height="284pt"
 viewBox="0.00 0.00 504.00 284.00" xmlns="http://www.w3.org/2000/svg" xmlns:xlink="http://www.w3.org/1999/xlink">
<g id="graph0" class="graph" transform="scale(1 1) rotate(0) translate(4 280)">
<title>dependencies</title>
<polygon fill="white" stroke="transparent" points="-4,4 -4,-280 500,-280 500,4 -4,4"/>
<text text-anchor="start" x="227.01" y="-42.4" font-family="sans-serif" font-weight="bold" font-size="14.00">Legend</text>
<polygon fill="#ffffb3" stroke="transparent" points="14,-10 14,-30 34,-30 34,-10 14,-10"/>
<text text-anchor="start" x="37.63" y="-15.4" font-family="sans-serif" font-size="14.00"> &#160;Declarations</text>
<polygon fill="#8dd3c7" stroke="transparent" points="127,-10 127,-30 147,-30 147,-10 127,-10"/>
<text text-anchor="start" x="150.73" y="-15.4" font-family="sans-serif" font-size="14.00"> &#160;Module</text>
<polygon fill="#80b1d3" stroke="transparent" points="213,-10 213,-30 233,-30 233,-10 213,-10"/>
<text text-anchor="start" x="236.78" y="-15.4" font-family="sans-serif" font-size="14.00"> &#160;Bootstrap</text>
<polygon fill="#fdb462" stroke="transparent" points="310,-10 310,-30 330,-30 330,-10 310,-10"/>
<text text-anchor="start" x="333.67" y="-15.4" font-family="sans-serif" font-size="14.00"> &#160;Providers</text>
<polygon fill="#fb8072" stroke="transparent" points="406,-10 406,-30 426,-30 426,-10 406,-10"/>
<text text-anchor="start" x="429.73" y="-15.4" font-family="sans-serif" font-size="14.00"> &#160;Exports</text>
<g id="clust1" class="cluster">
<title>cluster_SafeFormModule</title>
<polygon fill="none" stroke="black" stroke-dasharray="1,5" points="76,-70 76,-268 420,-268 420,-70 76,-70"/>
</g>
<g id="clust2" class="cluster">
<title>cluster_SafeFormModule_declarations</title>
<polygon fill="none" stroke="black" points="260,-78 260,-130 412,-130 412,-78 260,-78"/>
</g>
<g id="clust4" class="cluster">
<title>cluster_SafeFormModule_imports</title>
<polygon fill="none" stroke="black" points="84,-78 84,-130 252,-130 252,-78 84,-78"/>
</g>
<g id="clust5" class="cluster">
<title>cluster_SafeFormModule_exports</title>
<polygon fill="none" stroke="black" points="173,-208 173,-260 329,-260 329,-208 173,-208"/>
</g>
<!-- SafeFormComponent -->
<g id="node1" class="node">
<title>SafeFormComponent</title>
<polygon fill="#ffffb3" stroke="black" points="404.04,-122 267.96,-122 267.96,-86 404.04,-86 404.04,-122"/>
<text text-anchor="middle" x="336" y="-99.8" font-family="Times,serif" font-size="14.00">SafeFormComponent</text>
</g>
<!-- SafeFormModule -->
<g id="node2" class="node">
<title>SafeFormModule</title>
<polygon fill="#8dd3c7" stroke="black" points="308.26,-187 305.26,-191 284.26,-191 281.26,-187 193.74,-187 193.74,-151 308.26,-151 308.26,-187"/>
<text text-anchor="middle" x="251" y="-164.8" font-family="Times,serif" font-size="14.00">SafeFormModule</text>
</g>
<!-- SafeFormComponent&#45;&gt;SafeFormModule -->
<g id="edge1" class="edge">
<title>SafeFormComponent&#45;&gt;SafeFormModule</title>
<path fill="none" stroke="black" d="M288.05,-122.11C288.05,-122.11 288.05,-140.99 288.05,-140.99"/>
<polygon fill="black" stroke="black" points="284.55,-140.99 288.05,-150.99 291.55,-140.99 284.55,-140.99"/>
</g>
<!-- SafeFormComponent  -->
<g id="node4" class="node">
<title>SafeFormComponent </title>
<polygon fill="#fb8072" stroke="black" points="321.04,-252 180.96,-252 180.96,-216 321.04,-216 321.04,-252"/>
<text text-anchor="middle" x="251" y="-229.8" font-family="Times,serif" font-size="14.00">SafeFormComponent </text>
</g>
<!-- SafeFormModule&#45;&gt;SafeFormComponent  -->
<g id="edge3" class="edge">
<title>SafeFormModule&#45;&gt;SafeFormComponent </title>
<path fill="none" stroke="black" stroke-dasharray="5,2" d="M251,-187.11C251,-187.11 251,-205.99 251,-205.99"/>
<polygon fill="black" stroke="black" points="247.5,-205.99 251,-215.99 254.5,-205.99 247.5,-205.99"/>
</g>
<!-- SafeFormModalModule -->
<g id="node3" class="node">
<title>SafeFormModalModule</title>
<polygon fill="#8dd3c7" stroke="black" points="243.81,-122 240.81,-126 219.81,-126 216.81,-122 92.19,-122 92.19,-86 243.81,-86 243.81,-122"/>
<text text-anchor="middle" x="168" y="-99.8" font-family="Times,serif" font-size="14.00">SafeFormModalModule</text>
</g>
<!-- SafeFormModalModule&#45;&gt;SafeFormModule -->
<g id="edge2" class="edge">
<title>SafeFormModalModule&#45;&gt;SafeFormModule</title>
<path fill="none" stroke="black" d="M218.64,-122.11C218.64,-122.11 218.64,-140.99 218.64,-140.99"/>
<polygon fill="black" stroke="black" points="215.14,-140.99 218.64,-150.99 222.14,-140.99 215.14,-140.99"/>
</g>
</g>
</svg>
