<?xml version="1.0" encoding="UTF-8" standalone="no"?>
<!DOCTYPE svg PUBLIC "-//W3C//DTD SVG 1.1//EN"
 "http://www.w3.org/Graphics/SVG/1.1/DTD/svg11.dtd">
<!-- Generated by graphviz version 3.0.0 (20220226.1711)
 -->
<!-- Title: dependencies Pages: 1 -->
<svg width="742pt" height="247pt"
 viewBox="0.00 0.00 742.00 246.80" xmlns="http://www.w3.org/2000/svg" xmlns:xlink="http://www.w3.org/1999/xlink">
<g id="graph0" class="graph" transform="scale(1 1) rotate(0) translate(4 242.8)">
<title>dependencies</title>
<polygon fill="white" stroke="transparent" points="-4,4 -4,-242.8 738,-242.8 738,4 -4,4"/>
<text text-anchor="middle" x="367" y="-8.2" font-family="sans-serif" font-size="14.00">dependencies</text>
<g id="clust1" class="cluster">
<title>cluster_SafeEditLayoutModalModule</title>
<polygon fill="none" stroke="black" stroke-dasharray="1,5" points="8,-32.8 8,-230.8 726,-230.8 726,-32.8 8,-32.8"/>
</g>
<g id="clust4" class="cluster">
<title>cluster_SafeEditLayoutModalModule_imports</title>
<polygon fill="none" stroke="black" points="246,-40.8 246,-92.8 718,-92.8 718,-40.8 246,-40.8"/>
</g>
<g id="clust2" class="cluster">
<title>cluster_SafeEditLayoutModalModule_declarations</title>
<polygon fill="none" stroke="black" points="16,-40.8 16,-92.8 238,-92.8 238,-40.8 16,-40.8"/>
</g>
<g id="clust5" class="cluster">
<title>cluster_SafeEditLayoutModalModule_exports</title>
<polygon fill="none" stroke="black" points="301,-170.8 301,-222.8 527,-222.8 527,-170.8 301,-170.8"/>
</g>
<!-- SafeEditLayoutModalComponent -->
<g id="node1" class="node">
<title>SafeEditLayoutModalComponent</title>
<polygon fill="#ffffb3" stroke="black" points="229.75,-84.8 24.25,-84.8 24.25,-48.8 229.75,-48.8 229.75,-84.8"/>
<text text-anchor="middle" x="127" y="-62.6" font-family="Times,serif" font-size="14.00">SafeEditLayoutModalComponent</text>
</g>
<!-- SafeEditLayoutModalModule -->
<g id="node2" class="node">
<title>SafeEditLayoutModalModule</title>
<polygon fill="#8dd3c7" stroke="black" points="505.97,-149.8 502.97,-153.8 481.97,-153.8 478.97,-149.8 322.03,-149.8 322.03,-113.8 505.97,-113.8 505.97,-149.8"/>
<text text-anchor="middle" x="414" y="-127.6" font-family="Times,serif" font-size="14.00">SafeEditLayoutModalModule</text>
</g>
<!-- SafeEditLayoutModalComponent&#45;&gt;SafeEditLayoutModalModule -->
<g id="edge1" class="edge">
<title>SafeEditLayoutModalComponent&#45;&gt;SafeEditLayoutModalModule</title>
<path fill="none" stroke="black" d="M127,-84.91C127,-104.14 127,-131.8 127,-131.8 127,-131.8 312.01,-131.8 312.01,-131.8"/>
<polygon fill="black" stroke="black" points="312.01,-135.3 322.01,-131.8 312.01,-128.3 312.01,-135.3"/>
</g>
<!-- SafeEditLayoutModalComponent  -->
<g id="node6" class="node">
<title>SafeEditLayoutModalComponent </title>
<polygon fill="#fb8072" stroke="black" points="518.75,-214.8 309.25,-214.8 309.25,-178.8 518.75,-178.8 518.75,-214.8"/>
<text text-anchor="middle" x="414" y="-192.6" font-family="Times,serif" font-size="14.00">SafeEditLayoutModalComponent </text>
</g>
<!-- SafeEditLayoutModalModule&#45;&gt;SafeEditLayoutModalComponent  -->
<g id="edge5" class="edge">
<title>SafeEditLayoutModalModule&#45;&gt;SafeEditLayoutModalComponent </title>
<path fill="none" stroke="black" stroke-dasharray="5,2" d="M414,-149.91C414,-149.91 414,-168.79 414,-168.79"/>
<polygon fill="black" stroke="black" points="410.5,-168.79 414,-178.79 417.5,-168.79 410.5,-168.79"/>
</g>
<!-- SafeCoreGridModule -->
<g id="node3" class="node">
<title>SafeCoreGridModule</title>
<polygon fill="#8dd3c7" stroke="black" points="709.8,-84.8 706.8,-88.8 685.8,-88.8 682.8,-84.8 572.2,-84.8 572.2,-48.8 709.8,-48.8 709.8,-84.8"/>
<text text-anchor="middle" x="641" y="-62.6" font-family="Times,serif" font-size="14.00">SafeCoreGridModule</text>
</g>
<!-- SafeCoreGridModule&#45;&gt;SafeEditLayoutModalModule -->
<g id="edge2" class="edge">
<title>SafeCoreGridModule&#45;&gt;SafeEditLayoutModalModule</title>
<path fill="none" stroke="black" d="M641,-84.91C641,-104.14 641,-131.8 641,-131.8 641,-131.8 516,-131.8 516,-131.8"/>
<polygon fill="black" stroke="black" points="516,-128.3 506,-131.8 516,-135.3 516,-128.3"/>
</g>
<!-- SafeModalModule -->
<g id="node4" class="node">
<title>SafeModalModule</title>
<polygon fill="#8dd3c7" stroke="black" points="554.48,-84.8 551.48,-88.8 530.48,-88.8 527.48,-84.8 433.52,-84.8 433.52,-48.8 554.48,-48.8 554.48,-84.8"/>
<text text-anchor="middle" x="494" y="-62.6" font-family="Times,serif" font-size="14.00">SafeModalModule</text>
</g>
<!-- SafeModalModule&#45;&gt;SafeEditLayoutModalModule -->
<g id="edge3" class="edge">
<title>SafeModalModule&#45;&gt;SafeEditLayoutModalModule</title>
<path fill="none" stroke="black" d="M469.75,-84.91C469.75,-84.91 469.75,-103.79 469.75,-103.79"/>
<polygon fill="black" stroke="black" points="466.25,-103.79 469.75,-113.79 473.25,-103.79 466.25,-103.79"/>
</g>
<!-- SafeQueryBuilderModule -->
<g id="node5" class="node">
<title>SafeQueryBuilderModule</title>
<polygon fill="#8dd3c7" stroke="black" points="415.91,-84.8 412.91,-88.8 391.91,-88.8 388.91,-84.8 254.09,-84.8 254.09,-48.8 415.91,-48.8 415.91,-84.8"/>
<text text-anchor="middle" x="335" y="-62.6" font-family="Times,serif" font-size="14.00">SafeQueryBuilderModule</text>
</g>
<!-- SafeQueryBuilderModule&#45;&gt;SafeEditLayoutModalModule -->
<g id="edge4" class="edge">
<title>SafeQueryBuilderModule&#45;&gt;SafeEditLayoutModalModule</title>
<path fill="none" stroke="black" d="M368.86,-84.91C368.86,-84.91 368.86,-103.79 368.86,-103.79"/>
<polygon fill="black" stroke="black" points="365.36,-103.79 368.86,-113.79 372.36,-103.79 365.36,-103.79"/>
</g>
</g>
</svg>
