<?xml version="1.0" encoding="UTF-8" standalone="no"?>
<!DOCTYPE svg PUBLIC "-//W3C//DTD SVG 1.1//EN"
 "http://www.w3.org/Graphics/SVG/1.1/DTD/svg11.dtd">
<!-- Generated by graphviz version 3.0.0 (20220226.1711)
 -->
<!-- Title: dependencies Pages: 1 -->
<svg width="742pt" height="247pt"
 viewBox="0.00 0.00 742.00 246.80" xmlns="http://www.w3.org/2000/svg" xmlns:xlink="http://www.w3.org/1999/xlink">
<g id="graph0" class="graph" transform="scale(1 1) rotate(0) translate(4 242.8)">
<title>dependencies</title>
<polygon fill="white" stroke="transparent" points="-4,4 -4,-242.8 738,-242.8 738,4 -4,4"/>
<text text-anchor="middle" x="367" y="-8.2" font-family="sans-serif" font-size="14.00">dependencies</text>
<g id="clust1" class="cluster">
<title>cluster_SafeEditLayoutModalModule</title>
<polygon fill="none" stroke="black" stroke-dasharray="1,5" points="8,-32.8 8,-230.8 726,-230.8 726,-32.8 8,-32.8"/>
</g>
<g id="clust2" class="cluster">
<title>cluster_SafeEditLayoutModalModule_declarations</title>
<polygon fill="none" stroke="black" points="496,-40.8 496,-92.8 718,-92.8 718,-40.8 496,-40.8"/>
</g>
<g id="clust5" class="cluster">
<title>cluster_SafeEditLayoutModalModule_exports</title>
<polygon fill="none" stroke="black" points="224,-170.8 224,-222.8 450,-222.8 450,-170.8 224,-170.8"/>
</g>
<g id="clust4" class="cluster">
<title>cluster_SafeEditLayoutModalModule_imports</title>
<polygon fill="none" stroke="black" points="16,-40.8 16,-92.8 488,-92.8 488,-40.8 16,-40.8"/>
</g>
<!-- SafeEditLayoutModalComponent -->
<g id="node1" class="node">
<title>SafeEditLayoutModalComponent</title>
<polygon fill="#ffffb3" stroke="black" points="709.75,-84.8 504.25,-84.8 504.25,-48.8 709.75,-48.8 709.75,-84.8"/>
<text text-anchor="middle" x="607" y="-62.6" font-family="Times,serif" font-size="14.00">SafeEditLayoutModalComponent</text>
</g>
<!-- SafeEditLayoutModalModule -->
<g id="node2" class="node">
<title>SafeEditLayoutModalModule</title>
<polygon fill="#8dd3c7" stroke="black" points="428.97,-149.8 425.97,-153.8 404.97,-153.8 401.97,-149.8 245.03,-149.8 245.03,-113.8 428.97,-113.8 428.97,-149.8"/>
<text text-anchor="middle" x="337" y="-127.6" font-family="Times,serif" font-size="14.00">SafeEditLayoutModalModule</text>
</g>
<!-- SafeEditLayoutModalComponent&#45;&gt;SafeEditLayoutModalModule -->
<g id="edge1" class="edge">
<title>SafeEditLayoutModalComponent&#45;&gt;SafeEditLayoutModalModule</title>
<path fill="none" stroke="black" d="M607,-84.91C607,-104.14 607,-131.8 607,-131.8 607,-131.8 439.16,-131.8 439.16,-131.8"/>
<polygon fill="black" stroke="black" points="439.16,-128.3 429.16,-131.8 439.16,-135.3 439.16,-128.3"/>
</g>
<!-- SafeEditLayoutModalComponent  -->
<g id="node6" class="node">
<title>SafeEditLayoutModalComponent </title>
<polygon fill="#fb8072" stroke="black" points="441.75,-214.8 232.25,-214.8 232.25,-178.8 441.75,-178.8 441.75,-214.8"/>
<text text-anchor="middle" x="337" y="-192.6" font-family="Times,serif" font-size="14.00">SafeEditLayoutModalComponent </text>
</g>
<!-- SafeEditLayoutModalModule&#45;&gt;SafeEditLayoutModalComponent  -->
<g id="edge5" class="edge">
<title>SafeEditLayoutModalModule&#45;&gt;SafeEditLayoutModalComponent </title>
<path fill="none" stroke="black" stroke-dasharray="5,2" d="M337,-149.91C337,-149.91 337,-168.79 337,-168.79"/>
<polygon fill="black" stroke="black" points="333.5,-168.79 337,-178.79 340.5,-168.79 333.5,-168.79"/>
</g>
<!-- SafeCoreGridModule -->
<g id="node3" class="node">
<title>SafeCoreGridModule</title>
<polygon fill="#8dd3c7" stroke="black" points="479.8,-84.8 476.8,-88.8 455.8,-88.8 452.8,-84.8 342.2,-84.8 342.2,-48.8 479.8,-48.8 479.8,-84.8"/>
<text text-anchor="middle" x="411" y="-62.6" font-family="Times,serif" font-size="14.00">SafeCoreGridModule</text>
</g>
<!-- SafeCoreGridModule&#45;&gt;SafeEditLayoutModalModule -->
<g id="edge2" class="edge">
<title>SafeCoreGridModule&#45;&gt;SafeEditLayoutModalModule</title>
<path fill="none" stroke="black" d="M385.67,-84.91C385.67,-84.91 385.67,-103.79 385.67,-103.79"/>
<polygon fill="black" stroke="black" points="382.17,-103.79 385.67,-113.79 389.17,-103.79 382.17,-103.79"/>
</g>
<!-- SafeModalModule -->
<g id="node4" class="node">
<title>SafeModalModule</title>
<polygon fill="#8dd3c7" stroke="black" points="324.48,-84.8 321.48,-88.8 300.48,-88.8 297.48,-84.8 203.52,-84.8 203.52,-48.8 324.48,-48.8 324.48,-84.8"/>
<text text-anchor="middle" x="264" y="-62.6" font-family="Times,serif" font-size="14.00">SafeModalModule</text>
</g>
<!-- SafeModalModule&#45;&gt;SafeEditLayoutModalModule -->
<g id="edge3" class="edge">
<title>SafeModalModule&#45;&gt;SafeEditLayoutModalModule</title>
<path fill="none" stroke="black" d="M284.75,-84.91C284.75,-84.91 284.75,-103.79 284.75,-103.79"/>
<polygon fill="black" stroke="black" points="281.25,-103.79 284.75,-113.79 288.25,-103.79 281.25,-103.79"/>
</g>
<!-- SafeQueryBuilderModule -->
<g id="node5" class="node">
<title>SafeQueryBuilderModule</title>
<polygon fill="#8dd3c7" stroke="black" points="185.91,-84.8 182.91,-88.8 161.91,-88.8 158.91,-84.8 24.09,-84.8 24.09,-48.8 185.91,-48.8 185.91,-84.8"/>
<text text-anchor="middle" x="105" y="-62.6" font-family="Times,serif" font-size="14.00">SafeQueryBuilderModule</text>
</g>
<!-- SafeQueryBuilderModule&#45;&gt;SafeEditLayoutModalModule -->
<g id="edge4" class="edge">
<title>SafeQueryBuilderModule&#45;&gt;SafeEditLayoutModalModule</title>
<path fill="none" stroke="black" d="M105,-84.91C105,-104.14 105,-131.8 105,-131.8 105,-131.8 234.97,-131.8 234.97,-131.8"/>
<polygon fill="black" stroke="black" points="234.97,-135.3 244.97,-131.8 234.97,-128.3 234.97,-135.3"/>
</g>
</g>
</svg>
