<?xml version="1.0" encoding="UTF-8" standalone="no"?>
<!DOCTYPE svg PUBLIC "-//W3C//DTD SVG 1.1//EN"
 "http://www.w3.org/Graphics/SVG/1.1/DTD/svg11.dtd">
<!-- Generated by graphviz version 3.0.0 (20220226.1711)
 -->
<!-- Title: dependencies Pages: 1 -->
<svg width="538pt" height="247pt"
 viewBox="0.00 0.00 538.00 246.80" xmlns="http://www.w3.org/2000/svg" xmlns:xlink="http://www.w3.org/1999/xlink">
<g id="graph0" class="graph" transform="scale(1 1) rotate(0) translate(4 242.8)">
<title>dependencies</title>
<polygon fill="white" stroke="transparent" points="-4,4 -4,-242.8 534,-242.8 534,4 -4,4"/>
<text text-anchor="middle" x="265" y="-8.2" font-family="sans-serif" font-size="14.00">dependencies</text>
<g id="clust1" class="cluster">
<title>cluster_SafeSnackbarSpinnerModule</title>
<polygon fill="none" stroke="black" stroke-dasharray="1,5" points="8,-32.8 8,-230.8 522,-230.8 522,-32.8 8,-32.8"/>
</g>
<g id="clust5" class="cluster">
<title>cluster_SafeSnackbarSpinnerModule_exports</title>
<polygon fill="none" stroke="black" points="203,-170.8 203,-222.8 425,-222.8 425,-170.8 203,-170.8"/>
</g>
<g id="clust4" class="cluster">
<title>cluster_SafeSnackbarSpinnerModule_imports</title>
<polygon fill="none" stroke="black" points="242,-40.8 242,-92.8 514,-92.8 514,-40.8 242,-40.8"/>
</g>
<g id="clust2" class="cluster">
<title>cluster_SafeSnackbarSpinnerModule_declarations</title>
<polygon fill="none" stroke="black" points="16,-40.8 16,-92.8 234,-92.8 234,-40.8 16,-40.8"/>
</g>
<!-- SafeSnackbarSpinnerComponent -->
<g id="node1" class="node">
<title>SafeSnackbarSpinnerComponent</title>
<polygon fill="#ffffb3" stroke="black" points="225.85,-84.8 24.15,-84.8 24.15,-48.8 225.85,-48.8 225.85,-84.8"/>
<text text-anchor="middle" x="125" y="-62.6" font-family="Times,serif" font-size="14.00">SafeSnackbarSpinnerComponent</text>
</g>
<!-- SafeSnackbarSpinnerModule -->
<g id="node2" class="node">
<title>SafeSnackbarSpinnerModule</title>
<polygon fill="#8dd3c7" stroke="black" points="404.07,-149.8 401.07,-153.8 380.07,-153.8 377.07,-149.8 223.93,-149.8 223.93,-113.8 404.07,-113.8 404.07,-149.8"/>
<text text-anchor="middle" x="314" y="-127.6" font-family="Times,serif" font-size="14.00">SafeSnackbarSpinnerModule</text>
</g>
<!-- SafeSnackbarSpinnerComponent&#45;&gt;SafeSnackbarSpinnerModule -->
<g id="edge1" class="edge">
<title>SafeSnackbarSpinnerComponent&#45;&gt;SafeSnackbarSpinnerModule</title>
<path fill="none" stroke="black" d="M217.65,-84.91C217.65,-104.14 217.65,-131.8 217.65,-131.8 217.65,-131.8 218.25,-131.8 218.25,-131.8"/>
<polygon fill="black" stroke="black" points="213.67,-135.3 223.67,-131.8 213.67,-128.3 213.67,-135.3"/>
</g>
<!-- SafeSnackbarSpinnerComponent  -->
<g id="node5" class="node">
<title>SafeSnackbarSpinnerComponent </title>
<polygon fill="#fb8072" stroke="black" points="416.85,-214.8 211.15,-214.8 211.15,-178.8 416.85,-178.8 416.85,-214.8"/>
<text text-anchor="middle" x="314" y="-192.6" font-family="Times,serif" font-size="14.00">SafeSnackbarSpinnerComponent </text>
</g>
<!-- SafeSnackbarSpinnerModule&#45;&gt;SafeSnackbarSpinnerComponent  -->
<g id="edge4" class="edge">
<title>SafeSnackbarSpinnerModule&#45;&gt;SafeSnackbarSpinnerComponent </title>
<path fill="none" stroke="black" stroke-dasharray="5,2" d="M314,-149.91C314,-149.91 314,-168.79 314,-168.79"/>
<polygon fill="black" stroke="black" points="310.5,-168.79 314,-178.79 317.5,-168.79 310.5,-168.79"/>
</g>
<!-- SafeIconModule -->
<g id="node3" class="node">
<title>SafeIconModule</title>
<polygon fill="#8dd3c7" stroke="black" points="505.8,-84.8 502.8,-88.8 481.8,-88.8 478.8,-84.8 396.2,-84.8 396.2,-48.8 505.8,-48.8 505.8,-84.8"/>
<text text-anchor="middle" x="451" y="-62.6" font-family="Times,serif" font-size="14.00">SafeIconModule</text>
</g>
<!-- SafeIconModule&#45;&gt;SafeSnackbarSpinnerModule -->
<g id="edge2" class="edge">
<title>SafeIconModule&#45;&gt;SafeSnackbarSpinnerModule</title>
<path fill="none" stroke="black" d="M400.19,-84.91C400.19,-84.91 400.19,-103.79 400.19,-103.79"/>
<polygon fill="black" stroke="black" points="396.69,-103.79 400.19,-113.79 403.69,-103.79 396.69,-103.79"/>
</g>
<!-- SafeSpinnerModule -->
<g id="node4" class="node">
<title>SafeSpinnerModule</title>
<polygon fill="#8dd3c7" stroke="black" points="377.98,-84.8 374.98,-88.8 353.98,-88.8 350.98,-84.8 250.02,-84.8 250.02,-48.8 377.98,-48.8 377.98,-84.8"/>
<text text-anchor="middle" x="314" y="-62.6" font-family="Times,serif" font-size="14.00">SafeSpinnerModule</text>
</g>
<!-- SafeSpinnerModule&#45;&gt;SafeSnackbarSpinnerModule -->
<g id="edge3" class="edge">
<title>SafeSpinnerModule&#45;&gt;SafeSnackbarSpinnerModule</title>
<path fill="none" stroke="black" d="M314,-84.91C314,-84.91 314,-103.79 314,-103.79"/>
<polygon fill="black" stroke="black" points="310.5,-103.79 314,-113.79 317.5,-103.79 310.5,-103.79"/>
</g>
</g>
</svg>
