<?xml version="1.0" encoding="UTF-8" standalone="no"?>
<!DOCTYPE svg PUBLIC "-//W3C//DTD SVG 1.1//EN"
 "http://www.w3.org/Graphics/SVG/1.1/DTD/svg11.dtd">
<!-- Generated by graphviz version 2.47.0 (20210316.0004)
 -->
<!-- Title: dependencies Pages: 1 -->
<svg width="538pt" height="284pt"
 viewBox="0.00 0.00 538.00 284.00" xmlns="http://www.w3.org/2000/svg" xmlns:xlink="http://www.w3.org/1999/xlink">
<g id="graph0" class="graph" transform="scale(1 1) rotate(0) translate(4 280)">
<title>dependencies</title>
<polygon fill="white" stroke="transparent" points="-4,4 -4,-280 534,-280 534,4 -4,4"/>
<text text-anchor="start" x="244.01" y="-42.4" font-family="sans-serif" font-weight="bold" font-size="14.00">Legend</text>
<polygon fill="#ffffb3" stroke="transparent" points="31,-10 31,-30 51,-30 51,-10 31,-10"/>
<text text-anchor="start" x="54.63" y="-15.4" font-family="sans-serif" font-size="14.00"> &#160;Declarations</text>
<polygon fill="#8dd3c7" stroke="transparent" points="144,-10 144,-30 164,-30 164,-10 144,-10"/>
<text text-anchor="start" x="167.73" y="-15.4" font-family="sans-serif" font-size="14.00"> &#160;Module</text>
<polygon fill="#80b1d3" stroke="transparent" points="230,-10 230,-30 250,-30 250,-10 230,-10"/>
<text text-anchor="start" x="253.78" y="-15.4" font-family="sans-serif" font-size="14.00"> &#160;Bootstrap</text>
<polygon fill="#fdb462" stroke="transparent" points="327,-10 327,-30 347,-30 347,-10 327,-10"/>
<text text-anchor="start" x="350.67" y="-15.4" font-family="sans-serif" font-size="14.00"> &#160;Providers</text>
<polygon fill="#fb8072" stroke="transparent" points="423,-10 423,-30 443,-30 443,-10 423,-10"/>
<text text-anchor="start" x="446.73" y="-15.4" font-family="sans-serif" font-size="14.00"> &#160;Exports</text>
<g id="clust1" class="cluster">
<title>cluster_SafeSnackbarSpinnerModule</title>
<polygon fill="none" stroke="black" stroke-dasharray="1,5" points="8,-70 8,-268 522,-268 522,-70 8,-70"/>
</g>
<g id="clust5" class="cluster">
<title>cluster_SafeSnackbarSpinnerModule_exports</title>
<polygon fill="none" stroke="black" points="203,-208 203,-260 425,-260 425,-208 203,-208"/>
</g>
<g id="clust4" class="cluster">
<title>cluster_SafeSnackbarSpinnerModule_imports</title>
<polygon fill="none" stroke="black" points="242,-78 242,-130 514,-130 514,-78 242,-78"/>
</g>
<g id="clust2" class="cluster">
<title>cluster_SafeSnackbarSpinnerModule_declarations</title>
<polygon fill="none" stroke="black" points="16,-78 16,-130 234,-130 234,-78 16,-78"/>
</g>
<!-- SafeSnackbarSpinnerComponent -->
<g id="node1" class="node">
<title>SafeSnackbarSpinnerComponent</title>
<polygon fill="#ffffb3" stroke="black" points="225.84,-122 24.16,-122 24.16,-86 225.84,-86 225.84,-122"/>
<text text-anchor="middle" x="125" y="-99.8" font-family="Times,serif" font-size="14.00">SafeSnackbarSpinnerComponent</text>
</g>
<!-- SafeSnackbarSpinnerModule -->
<g id="node2" class="node">
<title>SafeSnackbarSpinnerModule</title>
<polygon fill="#8dd3c7" stroke="black" points="404.06,-187 401.06,-191 380.06,-191 377.06,-187 223.94,-187 223.94,-151 404.06,-151 404.06,-187"/>
<text text-anchor="middle" x="314" y="-164.8" font-family="Times,serif" font-size="14.00">SafeSnackbarSpinnerModule</text>
</g>
<!-- SafeSnackbarSpinnerComponent&#45;&gt;SafeSnackbarSpinnerModule -->
<g id="edge1" class="edge">
<title>SafeSnackbarSpinnerComponent&#45;&gt;SafeSnackbarSpinnerModule</title>
<path fill="none" stroke="black" d="M217.65,-122.11C217.65,-141.34 217.65,-169 217.65,-169 217.65,-169 218.25,-169 218.25,-169"/>
<polygon fill="black" stroke="black" points="213.68,-172.5 223.68,-169 213.68,-165.5 213.68,-172.5"/>
</g>
<!-- SafeSnackbarSpinnerComponent  -->
<g id="node5" class="node">
<title>SafeSnackbarSpinnerComponent </title>
<polygon fill="#fb8072" stroke="black" points="416.84,-252 211.16,-252 211.16,-216 416.84,-216 416.84,-252"/>
<text text-anchor="middle" x="314" y="-229.8" font-family="Times,serif" font-size="14.00">SafeSnackbarSpinnerComponent </text>
</g>
<!-- SafeSnackbarSpinnerModule&#45;&gt;SafeSnackbarSpinnerComponent  -->
<g id="edge4" class="edge">
<title>SafeSnackbarSpinnerModule&#45;&gt;SafeSnackbarSpinnerComponent </title>
<path fill="none" stroke="black" stroke-dasharray="5,2" d="M314,-187.11C314,-187.11 314,-205.99 314,-205.99"/>
<polygon fill="black" stroke="black" points="310.5,-205.99 314,-215.99 317.5,-205.99 310.5,-205.99"/>
</g>
<!-- SafeIconModule -->
<g id="node3" class="node">
<title>SafeIconModule</title>
<polygon fill="#8dd3c7" stroke="black" points="505.8,-122 502.8,-126 481.8,-126 478.8,-122 396.2,-122 396.2,-86 505.8,-86 505.8,-122"/>
<text text-anchor="middle" x="451" y="-99.8" font-family="Times,serif" font-size="14.00">SafeIconModule</text>
</g>
<!-- SafeIconModule&#45;&gt;SafeSnackbarSpinnerModule -->
<g id="edge2" class="edge">
<title>SafeIconModule&#45;&gt;SafeSnackbarSpinnerModule</title>
<path fill="none" stroke="black" d="M400.19,-122.11C400.19,-122.11 400.19,-140.99 400.19,-140.99"/>
<polygon fill="black" stroke="black" points="396.69,-140.99 400.19,-150.99 403.69,-140.99 396.69,-140.99"/>
</g>
<!-- SafeSpinnerModule -->
<g id="node4" class="node">
<title>SafeSpinnerModule</title>
<polygon fill="#8dd3c7" stroke="black" points="377.97,-122 374.97,-126 353.97,-126 350.97,-122 250.03,-122 250.03,-86 377.97,-86 377.97,-122"/>
<text text-anchor="middle" x="314" y="-99.8" font-family="Times,serif" font-size="14.00">SafeSpinnerModule</text>
</g>
<!-- SafeSpinnerModule&#45;&gt;SafeSnackbarSpinnerModule -->
<g id="edge3" class="edge">
<title>SafeSpinnerModule&#45;&gt;SafeSnackbarSpinnerModule</title>
<path fill="none" stroke="black" d="M314,-122.11C314,-122.11 314,-140.99 314,-140.99"/>
<polygon fill="black" stroke="black" points="310.5,-140.99 314,-150.99 317.5,-140.99 310.5,-140.99"/>
</g>
</g>
</svg>
