<?xml version="1.0" encoding="UTF-8" standalone="no"?>
<!DOCTYPE svg PUBLIC "-//W3C//DTD SVG 1.1//EN"
 "http://www.w3.org/Graphics/SVG/1.1/DTD/svg11.dtd">
<!-- Generated by graphviz version 3.0.0 (20220226.1711)
 -->
<!-- Title: dependencies Pages: 1 -->
<svg width="538pt" height="247pt"
 viewBox="0.00 0.00 538.00 246.80" xmlns="http://www.w3.org/2000/svg" xmlns:xlink="http://www.w3.org/1999/xlink">
<g id="graph0" class="graph" transform="scale(1 1) rotate(0) translate(4 242.8)">
<title>dependencies</title>
<polygon fill="white" stroke="transparent" points="-4,4 -4,-242.8 534,-242.8 534,4 -4,4"/>
<text text-anchor="middle" x="265" y="-8.2" font-family="sans-serif" font-size="14.00">dependencies</text>
<g id="clust1" class="cluster">
<title>cluster_SafeSnackbarSpinnerModule</title>
<polygon fill="none" stroke="black" stroke-dasharray="1,5" points="8,-32.8 8,-230.8 522,-230.8 522,-32.8 8,-32.8"/>
</g>
<g id="clust2" class="cluster">
<title>cluster_SafeSnackbarSpinnerModule_declarations</title>
<polygon fill="none" stroke="black" points="296,-40.8 296,-92.8 514,-92.8 514,-40.8 296,-40.8"/>
</g>
<g id="clust5" class="cluster">
<title>cluster_SafeSnackbarSpinnerModule_exports</title>
<polygon fill="none" stroke="black" points="114,-170.8 114,-222.8 336,-222.8 336,-170.8 114,-170.8"/>
</g>
<g id="clust4" class="cluster">
<title>cluster_SafeSnackbarSpinnerModule_imports</title>
<polygon fill="none" stroke="black" points="16,-40.8 16,-92.8 288,-92.8 288,-40.8 16,-40.8"/>
</g>
<!-- SafeSnackbarSpinnerComponent -->
<g id="node1" class="node">
<title>SafeSnackbarSpinnerComponent</title>
<polygon fill="#ffffb3" stroke="black" points="505.85,-84.8 304.15,-84.8 304.15,-48.8 505.85,-48.8 505.85,-84.8"/>
<text text-anchor="middle" x="405" y="-62.6" font-family="Times,serif" font-size="14.00">SafeSnackbarSpinnerComponent</text>
</g>
<!-- SafeSnackbarSpinnerModule -->
<g id="node2" class="node">
<title>SafeSnackbarSpinnerModule</title>
<polygon fill="#8dd3c7" stroke="black" points="315.07,-149.8 312.07,-153.8 291.07,-153.8 288.07,-149.8 134.93,-149.8 134.93,-113.8 315.07,-113.8 315.07,-149.8"/>
<text text-anchor="middle" x="225" y="-127.6" font-family="Times,serif" font-size="14.00">SafeSnackbarSpinnerModule</text>
</g>
<!-- SafeSnackbarSpinnerComponent&#45;&gt;SafeSnackbarSpinnerModule -->
<g id="edge1" class="edge">
<title>SafeSnackbarSpinnerComponent&#45;&gt;SafeSnackbarSpinnerModule</title>
<path fill="none" stroke="black" d="M309.56,-84.91C309.56,-84.91 309.56,-103.79 309.56,-103.79"/>
<polygon fill="black" stroke="black" points="306.06,-103.79 309.56,-113.79 313.06,-103.79 306.06,-103.79"/>
</g>
<!-- SafeSnackbarSpinnerComponent  -->
<g id="node5" class="node">
<title>SafeSnackbarSpinnerComponent </title>
<polygon fill="#fb8072" stroke="black" points="327.85,-214.8 122.15,-214.8 122.15,-178.8 327.85,-178.8 327.85,-214.8"/>
<text text-anchor="middle" x="225" y="-192.6" font-family="Times,serif" font-size="14.00">SafeSnackbarSpinnerComponent </text>
</g>
<!-- SafeSnackbarSpinnerModule&#45;&gt;SafeSnackbarSpinnerComponent  -->
<g id="edge4" class="edge">
<title>SafeSnackbarSpinnerModule&#45;&gt;SafeSnackbarSpinnerComponent </title>
<path fill="none" stroke="black" stroke-dasharray="5,2" d="M225,-149.91C225,-149.91 225,-168.79 225,-168.79"/>
<polygon fill="black" stroke="black" points="221.5,-168.79 225,-178.79 228.5,-168.79 221.5,-168.79"/>
</g>
<!-- SafeIconModule -->
<g id="node3" class="node">
<title>SafeIconModule</title>
<polygon fill="#8dd3c7" stroke="black" points="279.8,-84.8 276.8,-88.8 255.8,-88.8 252.8,-84.8 170.2,-84.8 170.2,-48.8 279.8,-48.8 279.8,-84.8"/>
<text text-anchor="middle" x="225" y="-62.6" font-family="Times,serif" font-size="14.00">SafeIconModule</text>
</g>
<!-- SafeIconModule&#45;&gt;SafeSnackbarSpinnerModule -->
<g id="edge2" class="edge">
<title>SafeIconModule&#45;&gt;SafeSnackbarSpinnerModule</title>
<path fill="none" stroke="black" d="M225,-84.91C225,-84.91 225,-103.79 225,-103.79"/>
<polygon fill="black" stroke="black" points="221.5,-103.79 225,-113.79 228.5,-103.79 221.5,-103.79"/>
</g>
<!-- SafeSpinnerModule -->
<g id="node4" class="node">
<title>SafeSpinnerModule</title>
<polygon fill="#8dd3c7" stroke="black" points="151.98,-84.8 148.98,-88.8 127.98,-88.8 124.98,-84.8 24.02,-84.8 24.02,-48.8 151.98,-48.8 151.98,-84.8"/>
<text text-anchor="middle" x="88" y="-62.6" font-family="Times,serif" font-size="14.00">SafeSpinnerModule</text>
</g>
<!-- SafeSpinnerModule&#45;&gt;SafeSnackbarSpinnerModule -->
<g id="edge3" class="edge">
<title>SafeSpinnerModule&#45;&gt;SafeSnackbarSpinnerModule</title>
<path fill="none" stroke="black" d="M143.48,-84.91C143.48,-84.91 143.48,-103.79 143.48,-103.79"/>
<polygon fill="black" stroke="black" points="139.98,-103.79 143.48,-113.79 146.98,-103.79 139.98,-103.79"/>
</g>
</g>
</svg>
