<?xml version="1.0" encoding="UTF-8" standalone="no"?>
<!DOCTYPE svg PUBLIC "-//W3C//DTD SVG 1.1//EN"
 "http://www.w3.org/Graphics/SVG/1.1/DTD/svg11.dtd">
<!-- Generated by graphviz version 2.47.0 (20210316.0004)
 -->
<!-- Title: dependencies Pages: 1 -->
<svg width="538pt" height="284pt"
 viewBox="0.00 0.00 538.00 284.00" xmlns="http://www.w3.org/2000/svg" xmlns:xlink="http://www.w3.org/1999/xlink">
<g id="graph0" class="graph" transform="scale(1 1) rotate(0) translate(4 280)">
<title>dependencies</title>
<polygon fill="white" stroke="transparent" points="-4,4 -4,-280 534,-280 534,4 -4,4"/>
<text text-anchor="start" x="244.01" y="-42.4" font-family="sans-serif" font-weight="bold" font-size="14.00">Legend</text>
<polygon fill="#ffffb3" stroke="transparent" points="31,-10 31,-30 51,-30 51,-10 31,-10"/>
<text text-anchor="start" x="54.63" y="-15.4" font-family="sans-serif" font-size="14.00"> &#160;Declarations</text>
<polygon fill="#8dd3c7" stroke="transparent" points="144,-10 144,-30 164,-30 164,-10 144,-10"/>
<text text-anchor="start" x="167.73" y="-15.4" font-family="sans-serif" font-size="14.00"> &#160;Module</text>
<polygon fill="#80b1d3" stroke="transparent" points="230,-10 230,-30 250,-30 250,-10 230,-10"/>
<text text-anchor="start" x="253.78" y="-15.4" font-family="sans-serif" font-size="14.00"> &#160;Bootstrap</text>
<polygon fill="#fdb462" stroke="transparent" points="327,-10 327,-30 347,-30 347,-10 327,-10"/>
<text text-anchor="start" x="350.67" y="-15.4" font-family="sans-serif" font-size="14.00"> &#160;Providers</text>
<polygon fill="#fb8072" stroke="transparent" points="423,-10 423,-30 443,-30 443,-10 423,-10"/>
<text text-anchor="start" x="446.73" y="-15.4" font-family="sans-serif" font-size="14.00"> &#160;Exports</text>
<g id="clust1" class="cluster">
<title>cluster_SafeSnackbarSpinnerModule</title>
<polygon fill="none" stroke="black" stroke-dasharray="1,5" points="8,-70 8,-268 522,-268 522,-70 8,-70"/>
</g>
<g id="clust5" class="cluster">
<title>cluster_SafeSnackbarSpinnerModule_exports</title>
<polygon fill="none" stroke="black" points="114,-208 114,-260 336,-260 336,-208 114,-208"/>
</g>
<g id="clust2" class="cluster">
<title>cluster_SafeSnackbarSpinnerModule_declarations</title>
<polygon fill="none" stroke="black" points="296,-78 296,-130 514,-130 514,-78 296,-78"/>
</g>
<g id="clust4" class="cluster">
<title>cluster_SafeSnackbarSpinnerModule_imports</title>
<polygon fill="none" stroke="black" points="16,-78 16,-130 288,-130 288,-78 16,-78"/>
</g>
<!-- SafeSnackbarSpinnerComponent -->
<g id="node1" class="node">
<title>SafeSnackbarSpinnerComponent</title>
<polygon fill="#ffffb3" stroke="black" points="505.84,-122 304.16,-122 304.16,-86 505.84,-86 505.84,-122"/>
<text text-anchor="middle" x="405" y="-99.8" font-family="Times,serif" font-size="14.00">SafeSnackbarSpinnerComponent</text>
</g>
<!-- SafeSnackbarSpinnerModule -->
<g id="node2" class="node">
<title>SafeSnackbarSpinnerModule</title>
<polygon fill="#8dd3c7" stroke="black" points="315.06,-187 312.06,-191 291.06,-191 288.06,-187 134.94,-187 134.94,-151 315.06,-151 315.06,-187"/>
<text text-anchor="middle" x="225" y="-164.8" font-family="Times,serif" font-size="14.00">SafeSnackbarSpinnerModule</text>
</g>
<!-- SafeSnackbarSpinnerComponent&#45;&gt;SafeSnackbarSpinnerModule -->
<g id="edge1" class="edge">
<title>SafeSnackbarSpinnerComponent&#45;&gt;SafeSnackbarSpinnerModule</title>
<path fill="none" stroke="black" d="M309.55,-122.11C309.55,-122.11 309.55,-140.99 309.55,-140.99"/>
<polygon fill="black" stroke="black" points="306.05,-140.99 309.55,-150.99 313.05,-140.99 306.05,-140.99"/>
</g>
<!-- SafeSnackbarSpinnerComponent  -->
<g id="node5" class="node">
<title>SafeSnackbarSpinnerComponent </title>
<polygon fill="#fb8072" stroke="black" points="327.84,-252 122.16,-252 122.16,-216 327.84,-216 327.84,-252"/>
<text text-anchor="middle" x="225" y="-229.8" font-family="Times,serif" font-size="14.00">SafeSnackbarSpinnerComponent </text>
</g>
<!-- SafeSnackbarSpinnerModule&#45;&gt;SafeSnackbarSpinnerComponent  -->
<g id="edge4" class="edge">
<title>SafeSnackbarSpinnerModule&#45;&gt;SafeSnackbarSpinnerComponent </title>
<path fill="none" stroke="black" stroke-dasharray="5,2" d="M225,-187.11C225,-187.11 225,-205.99 225,-205.99"/>
<polygon fill="black" stroke="black" points="221.5,-205.99 225,-215.99 228.5,-205.99 221.5,-205.99"/>
</g>
<!-- SafeIconModule -->
<g id="node3" class="node">
<title>SafeIconModule</title>
<polygon fill="#8dd3c7" stroke="black" points="279.8,-122 276.8,-126 255.8,-126 252.8,-122 170.2,-122 170.2,-86 279.8,-86 279.8,-122"/>
<text text-anchor="middle" x="225" y="-99.8" font-family="Times,serif" font-size="14.00">SafeIconModule</text>
</g>
<!-- SafeIconModule&#45;&gt;SafeSnackbarSpinnerModule -->
<g id="edge2" class="edge">
<title>SafeIconModule&#45;&gt;SafeSnackbarSpinnerModule</title>
<path fill="none" stroke="black" d="M225,-122.11C225,-122.11 225,-140.99 225,-140.99"/>
<polygon fill="black" stroke="black" points="221.5,-140.99 225,-150.99 228.5,-140.99 221.5,-140.99"/>
</g>
<!-- SafeSpinnerModule -->
<g id="node4" class="node">
<title>SafeSpinnerModule</title>
<polygon fill="#8dd3c7" stroke="black" points="151.97,-122 148.97,-126 127.97,-126 124.97,-122 24.03,-122 24.03,-86 151.97,-86 151.97,-122"/>
<text text-anchor="middle" x="88" y="-99.8" font-family="Times,serif" font-size="14.00">SafeSpinnerModule</text>
</g>
<!-- SafeSpinnerModule&#45;&gt;SafeSnackbarSpinnerModule -->
<g id="edge3" class="edge">
<title>SafeSpinnerModule&#45;&gt;SafeSnackbarSpinnerModule</title>
<path fill="none" stroke="black" d="M143.48,-122.11C143.48,-122.11 143.48,-140.99 143.48,-140.99"/>
<polygon fill="black" stroke="black" points="139.98,-140.99 143.48,-150.99 146.98,-140.99 139.98,-140.99"/>
</g>
</g>
</svg>
