<?xml version="1.0" encoding="UTF-8" standalone="no"?>
<!DOCTYPE svg PUBLIC "-//W3C//DTD SVG 1.1//EN"
 "http://www.w3.org/Graphics/SVG/1.1/DTD/svg11.dtd">
<!-- Generated by graphviz version 3.0.0 (20220226.1711)
 -->
<!-- Title: dependencies Pages: 1 -->
<svg width="522pt" height="247pt"
 viewBox="0.00 0.00 522.00 246.80" xmlns="http://www.w3.org/2000/svg" xmlns:xlink="http://www.w3.org/1999/xlink">
<g id="graph0" class="graph" transform="scale(1 1) rotate(0) translate(4 242.8)">
<title>dependencies</title>
<polygon fill="white" stroke="transparent" points="-4,4 -4,-242.8 518,-242.8 518,4 -4,4"/>
<text text-anchor="middle" x="257" y="-8.2" font-family="sans-serif" font-size="14.00">dependencies</text>
<g id="clust1" class="cluster">
<title>cluster_SafeLeftSidenavModule</title>
<polygon fill="none" stroke="black" stroke-dasharray="1,5" points="8,-32.8 8,-230.8 506,-230.8 506,-32.8 8,-32.8"/>
</g>
<g id="clust5" class="cluster">
<title>cluster_SafeLeftSidenavModule_exports</title>
<polygon fill="none" stroke="black" points="134,-170.8 134,-222.8 328,-222.8 328,-170.8 134,-170.8"/>
</g>
<g id="clust2" class="cluster">
<title>cluster_SafeLeftSidenavModule_declarations</title>
<polygon fill="none" stroke="black" points="308,-40.8 308,-92.8 498,-92.8 498,-40.8 308,-40.8"/>
</g>
<g id="clust4" class="cluster">
<title>cluster_SafeLeftSidenavModule_imports</title>
<polygon fill="none" stroke="black" points="16,-40.8 16,-92.8 300,-92.8 300,-40.8 16,-40.8"/>
</g>
<!-- SafeLeftSidenavComponent -->
<g id="node1" class="node">
<title>SafeLeftSidenavComponent</title>
<polygon fill="#ffffb3" stroke="black" points="490.13,-84.8 315.87,-84.8 315.87,-48.8 490.13,-48.8 490.13,-84.8"/>
<text text-anchor="middle" x="403" y="-62.6" font-family="Times,serif" font-size="14.00">SafeLeftSidenavComponent</text>
</g>
<!-- SafeLeftSidenavModule -->
<g id="node2" class="node">
<title>SafeLeftSidenavModule</title>
<polygon fill="#8dd3c7" stroke="black" points="307.35,-149.8 304.35,-153.8 283.35,-153.8 280.35,-149.8 154.65,-149.8 154.65,-113.8 307.35,-113.8 307.35,-149.8"/>
<text text-anchor="middle" x="231" y="-127.6" font-family="Times,serif" font-size="14.00">SafeLeftSidenavModule</text>
</g>
<!-- SafeLeftSidenavComponent&#45;&gt;SafeLeftSidenavModule -->
<g id="edge1" class="edge">
<title>SafeLeftSidenavComponent&#45;&gt;SafeLeftSidenavModule</title>
<path fill="none" stroke="black" d="M315.51,-66.8C306.1,-66.8 299.85,-66.8 299.85,-66.8 299.85,-66.8 299.85,-103.69 299.85,-103.69"/>
<polygon fill="black" stroke="black" points="296.35,-103.69 299.85,-113.69 303.35,-103.69 296.35,-103.69"/>
</g>
<!-- SafeLeftSidenavComponent  -->
<g id="node5" class="node">
<title>SafeLeftSidenavComponent </title>
<polygon fill="#fb8072" stroke="black" points="320.13,-214.8 141.87,-214.8 141.87,-178.8 320.13,-178.8 320.13,-214.8"/>
<text text-anchor="middle" x="231" y="-192.6" font-family="Times,serif" font-size="14.00">SafeLeftSidenavComponent </text>
</g>
<!-- SafeLeftSidenavModule&#45;&gt;SafeLeftSidenavComponent  -->
<g id="edge4" class="edge">
<title>SafeLeftSidenavModule&#45;&gt;SafeLeftSidenavComponent </title>
<path fill="none" stroke="black" stroke-dasharray="5,2" d="M231,-149.91C231,-149.91 231,-168.79 231,-168.79"/>
<polygon fill="black" stroke="black" points="227.5,-168.79 231,-178.79 234.5,-168.79 227.5,-168.79"/>
</g>
<!-- SafeButtonModule -->
<g id="node3" class="node">
<title>SafeButtonModule</title>
<polygon fill="#8dd3c7" stroke="black" points="292.05,-84.8 289.05,-88.8 268.05,-88.8 265.05,-84.8 169.95,-84.8 169.95,-48.8 292.05,-48.8 292.05,-84.8"/>
<text text-anchor="middle" x="231" y="-62.6" font-family="Times,serif" font-size="14.00">SafeButtonModule</text>
</g>
<!-- SafeButtonModule&#45;&gt;SafeLeftSidenavModule -->
<g id="edge2" class="edge">
<title>SafeButtonModule&#45;&gt;SafeLeftSidenavModule</title>
<path fill="none" stroke="black" d="M231,-84.91C231,-84.91 231,-103.79 231,-103.79"/>
<polygon fill="black" stroke="black" points="227.5,-103.79 231,-113.79 234.5,-103.79 227.5,-103.79"/>
</g>
<!-- SafeDividerModule -->
<g id="node4" class="node">
<title>SafeDividerModule</title>
<polygon fill="#8dd3c7" stroke="black" points="151.69,-84.8 148.69,-88.8 127.69,-88.8 124.69,-84.8 24.31,-84.8 24.31,-48.8 151.69,-48.8 151.69,-84.8"/>
<text text-anchor="middle" x="88" y="-62.6" font-family="Times,serif" font-size="14.00">SafeDividerModule</text>
</g>
<!-- SafeDividerModule&#45;&gt;SafeLeftSidenavModule -->
<g id="edge3" class="edge">
<title>SafeDividerModule&#45;&gt;SafeLeftSidenavModule</title>
<path fill="none" stroke="black" d="M146.77,-84.91C146.77,-104.14 146.77,-131.8 146.77,-131.8 146.77,-131.8 147.54,-131.8 147.54,-131.8"/>
<polygon fill="black" stroke="black" points="144.54,-135.3 154.54,-131.8 144.54,-128.3 144.54,-135.3"/>
</g>
</g>
</svg>
