<?xml version="1.0" encoding="UTF-8" standalone="no"?>
<!DOCTYPE svg PUBLIC "-//W3C//DTD SVG 1.1//EN"
 "http://www.w3.org/Graphics/SVG/1.1/DTD/svg11.dtd">
<!-- Generated by graphviz version 3.0.0 (20220226.1711)
 -->
<!-- Title: dependencies Pages: 1 -->
<svg width="522pt" height="247pt"
 viewBox="0.00 0.00 522.00 246.80" xmlns="http://www.w3.org/2000/svg" xmlns:xlink="http://www.w3.org/1999/xlink">
<g id="graph0" class="graph" transform="scale(1 1) rotate(0) translate(4 242.8)">
<title>dependencies</title>
<polygon fill="white" stroke="transparent" points="-4,4 -4,-242.8 518,-242.8 518,4 -4,4"/>
<text text-anchor="middle" x="257" y="-8.2" font-family="sans-serif" font-size="14.00">dependencies</text>
<g id="clust1" class="cluster">
<title>cluster_SafeLeftSidenavModule</title>
<polygon fill="none" stroke="black" stroke-dasharray="1,5" points="8,-32.8 8,-230.8 506,-230.8 506,-32.8 8,-32.8"/>
</g>
<g id="clust4" class="cluster">
<title>cluster_SafeLeftSidenavModule_imports</title>
<polygon fill="none" stroke="black" points="214,-40.8 214,-92.8 498,-92.8 498,-40.8 214,-40.8"/>
</g>
<g id="clust2" class="cluster">
<title>cluster_SafeLeftSidenavModule_declarations</title>
<polygon fill="none" stroke="black" points="16,-40.8 16,-92.8 206,-92.8 206,-40.8 16,-40.8"/>
</g>
<g id="clust5" class="cluster">
<title>cluster_SafeLeftSidenavModule_exports</title>
<polygon fill="none" stroke="black" points="189,-170.8 189,-222.8 383,-222.8 383,-170.8 189,-170.8"/>
</g>
<!-- SafeLeftSidenavComponent -->
<g id="node1" class="node">
<title>SafeLeftSidenavComponent</title>
<polygon fill="#ffffb3" stroke="black" points="198.13,-84.8 23.87,-84.8 23.87,-48.8 198.13,-48.8 198.13,-84.8"/>
<text text-anchor="middle" x="111" y="-62.6" font-family="Times,serif" font-size="14.00">SafeLeftSidenavComponent</text>
</g>
<!-- SafeLeftSidenavModule -->
<g id="node2" class="node">
<title>SafeLeftSidenavModule</title>
<polygon fill="#8dd3c7" stroke="black" points="362.35,-149.8 359.35,-153.8 338.35,-153.8 335.35,-149.8 209.65,-149.8 209.65,-113.8 362.35,-113.8 362.35,-149.8"/>
<text text-anchor="middle" x="286" y="-127.6" font-family="Times,serif" font-size="14.00">SafeLeftSidenavModule</text>
</g>
<!-- SafeLeftSidenavComponent&#45;&gt;SafeLeftSidenavModule -->
<g id="edge1" class="edge">
<title>SafeLeftSidenavComponent&#45;&gt;SafeLeftSidenavModule</title>
<path fill="none" stroke="black" d="M198.18,-66.8C208.8,-66.8 215.99,-66.8 215.99,-66.8 215.99,-66.8 215.99,-103.69 215.99,-103.69"/>
<polygon fill="black" stroke="black" points="212.49,-103.69 215.99,-113.69 219.49,-103.69 212.49,-103.69"/>
</g>
<!-- SafeLeftSidenavComponent  -->
<g id="node5" class="node">
<title>SafeLeftSidenavComponent </title>
<polygon fill="#fb8072" stroke="black" points="375.13,-214.8 196.87,-214.8 196.87,-178.8 375.13,-178.8 375.13,-214.8"/>
<text text-anchor="middle" x="286" y="-192.6" font-family="Times,serif" font-size="14.00">SafeLeftSidenavComponent </text>
</g>
<!-- SafeLeftSidenavModule&#45;&gt;SafeLeftSidenavComponent  -->
<g id="edge4" class="edge">
<title>SafeLeftSidenavModule&#45;&gt;SafeLeftSidenavComponent </title>
<path fill="none" stroke="black" stroke-dasharray="5,2" d="M286,-149.91C286,-149.91 286,-168.79 286,-168.79"/>
<polygon fill="black" stroke="black" points="282.5,-168.79 286,-178.79 289.5,-168.79 282.5,-168.79"/>
</g>
<!-- SafeButtonModule -->
<g id="node3" class="node">
<title>SafeButtonModule</title>
<polygon fill="#8dd3c7" stroke="black" points="490.05,-84.8 487.05,-88.8 466.05,-88.8 463.05,-84.8 367.95,-84.8 367.95,-48.8 490.05,-48.8 490.05,-84.8"/>
<text text-anchor="middle" x="429" y="-62.6" font-family="Times,serif" font-size="14.00">SafeButtonModule</text>
</g>
<!-- SafeButtonModule&#45;&gt;SafeLeftSidenavModule -->
<g id="edge2" class="edge">
<title>SafeButtonModule&#45;&gt;SafeLeftSidenavModule</title>
<path fill="none" stroke="black" d="M371.4,-84.91C371.4,-104.14 371.4,-131.8 371.4,-131.8 371.4,-131.8 370.51,-131.8 370.51,-131.8"/>
<polygon fill="black" stroke="black" points="372.58,-128.3 362.58,-131.8 372.58,-135.3 372.58,-128.3"/>
</g>
<!-- SafeDividerModule -->
<g id="node4" class="node">
<title>SafeDividerModule</title>
<polygon fill="#8dd3c7" stroke="black" points="349.69,-84.8 346.69,-88.8 325.69,-88.8 322.69,-84.8 222.31,-84.8 222.31,-48.8 349.69,-48.8 349.69,-84.8"/>
<text text-anchor="middle" x="286" y="-62.6" font-family="Times,serif" font-size="14.00">SafeDividerModule</text>
</g>
<!-- SafeDividerModule&#45;&gt;SafeLeftSidenavModule -->
<g id="edge3" class="edge">
<title>SafeDividerModule&#45;&gt;SafeLeftSidenavModule</title>
<path fill="none" stroke="black" d="M286,-84.91C286,-84.91 286,-103.79 286,-103.79"/>
<polygon fill="black" stroke="black" points="282.5,-103.79 286,-113.79 289.5,-103.79 282.5,-103.79"/>
</g>
</g>
</svg>
