<?xml version="1.0" encoding="UTF-8" standalone="no"?>
<!DOCTYPE svg PUBLIC "-//W3C//DTD SVG 1.1//EN"
 "http://www.w3.org/Graphics/SVG/1.1/DTD/svg11.dtd">
<!-- Generated by graphviz version 3.0.0 (20220226.1711)
 -->
<!-- Title: dependencies Pages: 1 -->
<svg width="1090pt" height="247pt"
 viewBox="0.00 0.00 1090.00 246.80" xmlns="http://www.w3.org/2000/svg" xmlns:xlink="http://www.w3.org/1999/xlink">
<g id="graph0" class="graph" transform="scale(1 1) rotate(0) translate(4 242.8)">
<title>dependencies</title>
<polygon fill="white" stroke="transparent" points="-4,4 -4,-242.8 1086,-242.8 1086,4 -4,4"/>
<text text-anchor="middle" x="541" y="-8.2" font-family="sans-serif" font-size="14.00">dependencies</text>
<g id="clust1" class="cluster">
<title>cluster_SafeDataSourceTabModule</title>
<polygon fill="none" stroke="black" stroke-dasharray="1,5" points="8,-32.8 8,-230.8 1074,-230.8 1074,-32.8 8,-32.8"/>
</g>
<g id="clust5" class="cluster">
<title>cluster_SafeDataSourceTabModule_exports</title>
<polygon fill="none" stroke="black" points="410,-170.8 410,-222.8 622,-222.8 622,-170.8 410,-170.8"/>
</g>
<g id="clust2" class="cluster">
<title>cluster_SafeDataSourceTabModule_declarations</title>
<polygon fill="none" stroke="black" points="856,-40.8 856,-92.8 1066,-92.8 1066,-40.8 856,-40.8"/>
</g>
<g id="clust4" class="cluster">
<title>cluster_SafeDataSourceTabModule_imports</title>
<polygon fill="none" stroke="black" points="16,-40.8 16,-92.8 848,-92.8 848,-40.8 16,-40.8"/>
</g>
<!-- SafeDataSourceTabComponent -->
<g id="node1" class="node">
<title>SafeDataSourceTabComponent</title>
<polygon fill="#ffffb3" stroke="black" points="1057.78,-84.8 864.22,-84.8 864.22,-48.8 1057.78,-48.8 1057.78,-84.8"/>
<text text-anchor="middle" x="961" y="-62.6" font-family="Times,serif" font-size="14.00">SafeDataSourceTabComponent</text>
</g>
<!-- SafeDataSourceTabModule -->
<g id="node2" class="node">
<title>SafeDataSourceTabModule</title>
<polygon fill="#8dd3c7" stroke="black" points="602,-149.8 599,-153.8 578,-153.8 575,-149.8 430,-149.8 430,-113.8 602,-113.8 602,-149.8"/>
<text text-anchor="middle" x="516" y="-127.6" font-family="Times,serif" font-size="14.00">SafeDataSourceTabModule</text>
</g>
<!-- SafeDataSourceTabComponent&#45;&gt;SafeDataSourceTabModule -->
<g id="edge1" class="edge">
<title>SafeDataSourceTabComponent&#45;&gt;SafeDataSourceTabModule</title>
<path fill="none" stroke="black" d="M961,-85.08C961,-106.12 961,-137.8 961,-137.8 961,-137.8 611.8,-137.8 611.8,-137.8"/>
<polygon fill="black" stroke="black" points="611.8,-134.3 601.8,-137.8 611.8,-141.3 611.8,-134.3"/>
</g>
<!-- SafeDataSourceTabComponent  -->
<g id="node8" class="node">
<title>SafeDataSourceTabComponent </title>
<polygon fill="#fb8072" stroke="black" points="614.28,-214.8 417.72,-214.8 417.72,-178.8 614.28,-178.8 614.28,-214.8"/>
<text text-anchor="middle" x="516" y="-192.6" font-family="Times,serif" font-size="14.00">SafeDataSourceTabComponent </text>
</g>
<!-- SafeDataSourceTabModule&#45;&gt;SafeDataSourceTabComponent  -->
<g id="edge7" class="edge">
<title>SafeDataSourceTabModule&#45;&gt;SafeDataSourceTabComponent </title>
<path fill="none" stroke="black" stroke-dasharray="5,2" d="M516,-149.91C516,-149.91 516,-168.79 516,-168.79"/>
<polygon fill="black" stroke="black" points="512.5,-168.79 516,-178.79 519.5,-168.79 512.5,-168.79"/>
</g>
<!-- AddLayoutModalModule -->
<g id="node3" class="node">
<title>AddLayoutModalModule</title>
<polygon fill="#8dd3c7" stroke="black" points="839.87,-84.8 836.87,-88.8 815.87,-88.8 812.87,-84.8 680.13,-84.8 680.13,-48.8 839.87,-48.8 839.87,-84.8"/>
<text text-anchor="middle" x="760" y="-62.6" font-family="Times,serif" font-size="14.00">AddLayoutModalModule</text>
</g>
<!-- AddLayoutModalModule&#45;&gt;SafeDataSourceTabModule -->
<g id="edge2" class="edge">
<title>AddLayoutModalModule&#45;&gt;SafeDataSourceTabModule</title>
<path fill="none" stroke="black" d="M760,-84.82C760,-102.17 760,-125.8 760,-125.8 760,-125.8 612.03,-125.8 612.03,-125.8"/>
<polygon fill="black" stroke="black" points="612.03,-122.3 602.03,-125.8 612.03,-129.3 612.03,-122.3"/>
</g>
<!-- SafeButtonModule -->
<g id="node4" class="node">
<title>SafeButtonModule</title>
<polygon fill="#8dd3c7" stroke="black" points="662.05,-84.8 659.05,-88.8 638.05,-88.8 635.05,-84.8 539.95,-84.8 539.95,-48.8 662.05,-48.8 662.05,-84.8"/>
<text text-anchor="middle" x="601" y="-62.6" font-family="Times,serif" font-size="14.00">SafeButtonModule</text>
</g>
<!-- SafeButtonModule&#45;&gt;SafeDataSourceTabModule -->
<g id="edge3" class="edge">
<title>SafeButtonModule&#45;&gt;SafeDataSourceTabModule</title>
<path fill="none" stroke="black" d="M570.74,-84.91C570.74,-84.91 570.74,-103.79 570.74,-103.79"/>
<polygon fill="black" stroke="black" points="567.24,-103.79 570.74,-113.79 574.24,-103.79 567.24,-103.79"/>
</g>
<!-- SafeFormsDropdownModule -->
<g id="node5" class="node">
<title>SafeFormsDropdownModule</title>
<polygon fill="#8dd3c7" stroke="black" points="522.1,-84.8 519.1,-88.8 498.1,-88.8 495.1,-84.8 341.9,-84.8 341.9,-48.8 522.1,-48.8 522.1,-84.8"/>
<text text-anchor="middle" x="432" y="-62.6" font-family="Times,serif" font-size="14.00">SafeFormsDropdownModule</text>
</g>
<!-- SafeFormsDropdownModule&#45;&gt;SafeDataSourceTabModule -->
<g id="edge4" class="edge">
<title>SafeFormsDropdownModule&#45;&gt;SafeDataSourceTabModule</title>
<path fill="none" stroke="black" d="M476.15,-84.91C476.15,-84.91 476.15,-103.79 476.15,-103.79"/>
<polygon fill="black" stroke="black" points="472.65,-103.79 476.15,-113.79 479.65,-103.79 472.65,-103.79"/>
</g>
<!-- SafeGraphQLSelectModule -->
<g id="node6" class="node">
<title>SafeGraphQLSelectModule</title>
<polygon fill="#8dd3c7" stroke="black" points="324.28,-84.8 321.28,-88.8 300.28,-88.8 297.28,-84.8 151.72,-84.8 151.72,-48.8 324.28,-48.8 324.28,-84.8"/>
<text text-anchor="middle" x="238" y="-62.6" font-family="Times,serif" font-size="14.00">SafeGraphQLSelectModule</text>
</g>
<!-- SafeGraphQLSelectModule&#45;&gt;SafeDataSourceTabModule -->
<g id="edge5" class="edge">
<title>SafeGraphQLSelectModule&#45;&gt;SafeDataSourceTabModule</title>
<path fill="none" stroke="black" d="M238,-84.82C238,-102.17 238,-125.8 238,-125.8 238,-125.8 419.94,-125.8 419.94,-125.8"/>
<polygon fill="black" stroke="black" points="419.94,-129.3 429.94,-125.8 419.94,-122.3 419.94,-129.3"/>
</g>
<!-- SafeIconModule -->
<g id="node7" class="node">
<title>SafeIconModule</title>
<polygon fill="#8dd3c7" stroke="black" points="133.8,-84.8 130.8,-88.8 109.8,-88.8 106.8,-84.8 24.2,-84.8 24.2,-48.8 133.8,-48.8 133.8,-84.8"/>
<text text-anchor="middle" x="79" y="-62.6" font-family="Times,serif" font-size="14.00">SafeIconModule</text>
</g>
<!-- SafeIconModule&#45;&gt;SafeDataSourceTabModule -->
<g id="edge6" class="edge">
<title>SafeIconModule&#45;&gt;SafeDataSourceTabModule</title>
<path fill="none" stroke="black" d="M79,-85.08C79,-106.12 79,-137.8 79,-137.8 79,-137.8 420.18,-137.8 420.18,-137.8"/>
<polygon fill="black" stroke="black" points="420.18,-141.3 430.18,-137.8 420.18,-134.3 420.18,-141.3"/>
</g>
</g>
</svg>
