<?xml version="1.0" encoding="UTF-8" standalone="no"?>
<!DOCTYPE svg PUBLIC "-//W3C//DTD SVG 1.1//EN"
 "http://www.w3.org/Graphics/SVG/1.1/DTD/svg11.dtd">
<!-- Generated by graphviz version 3.0.0 (20220226.1711)
 -->
<!-- Title: dependencies Pages: 1 -->
<svg width="975pt" height="247pt"
 viewBox="0.00 0.00 975.00 246.80" xmlns="http://www.w3.org/2000/svg" xmlns:xlink="http://www.w3.org/1999/xlink">
<g id="graph0" class="graph" transform="scale(1 1) rotate(0) translate(4 242.8)">
<title>dependencies</title>
<polygon fill="white" stroke="transparent" points="-4,4 -4,-242.8 971,-242.8 971,4 -4,4"/>
<text text-anchor="middle" x="483.5" y="-8.2" font-family="sans-serif" font-size="14.00">dependencies</text>
<g id="clust1" class="cluster">
<title>cluster_AddAggregationModalModule</title>
<polygon fill="none" stroke="black" stroke-dasharray="1,5" points="8,-32.8 8,-230.8 959,-230.8 959,-32.8 8,-32.8"/>
</g>
<g id="clust5" class="cluster">
<title>cluster_AddAggregationModalModule_exports</title>
<polygon fill="none" stroke="black" points="369,-170.8 369,-222.8 601,-222.8 601,-170.8 369,-170.8"/>
</g>
<g id="clust4" class="cluster">
<title>cluster_AddAggregationModalModule_imports</title>
<polygon fill="none" stroke="black" points="252,-40.8 252,-92.8 951,-92.8 951,-40.8 252,-40.8"/>
</g>
<g id="clust2" class="cluster">
<title>cluster_AddAggregationModalModule_declarations</title>
<polygon fill="none" stroke="black" points="16,-40.8 16,-92.8 244,-92.8 244,-40.8 16,-40.8"/>
</g>
<!-- AddAggregationModalComponent -->
<g id="node1" class="node">
<title>AddAggregationModalComponent</title>
<polygon fill="#ffffb3" stroke="black" points="235.97,-84.8 24.03,-84.8 24.03,-48.8 235.97,-48.8 235.97,-84.8"/>
<text text-anchor="middle" x="130" y="-62.6" font-family="Times,serif" font-size="14.00">AddAggregationModalComponent</text>
</g>
<!-- AddAggregationModalModule -->
<g id="node2" class="node">
<title>AddAggregationModalModule</title>
<polygon fill="#8dd3c7" stroke="black" points="580.19,-149.8 577.19,-153.8 556.19,-153.8 553.19,-149.8 389.81,-149.8 389.81,-113.8 580.19,-113.8 580.19,-149.8"/>
<text text-anchor="middle" x="485" y="-127.6" font-family="Times,serif" font-size="14.00">AddAggregationModalModule</text>
</g>
<!-- AddAggregationModalComponent&#45;&gt;AddAggregationModalModule -->
<g id="edge1" class="edge">
<title>AddAggregationModalComponent&#45;&gt;AddAggregationModalModule</title>
<path fill="none" stroke="black" d="M130,-84.91C130,-104.14 130,-131.8 130,-131.8 130,-131.8 379.87,-131.8 379.87,-131.8"/>
<polygon fill="black" stroke="black" points="379.87,-135.3 389.87,-131.8 379.87,-128.3 379.87,-135.3"/>
</g>
<!-- AddAggregationModalComponent  -->
<g id="node7" class="node">
<title>AddAggregationModalComponent </title>
<polygon fill="#fb8072" stroke="black" points="592.97,-214.8 377.03,-214.8 377.03,-178.8 592.97,-178.8 592.97,-214.8"/>
<text text-anchor="middle" x="485" y="-192.6" font-family="Times,serif" font-size="14.00">AddAggregationModalComponent </text>
</g>
<!-- AddAggregationModalModule&#45;&gt;AddAggregationModalComponent  -->
<g id="edge6" class="edge">
<title>AddAggregationModalModule&#45;&gt;AddAggregationModalComponent </title>
<path fill="none" stroke="black" stroke-dasharray="5,2" d="M485,-149.91C485,-149.91 485,-168.79 485,-168.79"/>
<polygon fill="black" stroke="black" points="481.5,-168.79 485,-178.79 488.5,-168.79 481.5,-168.79"/>
</g>
<!-- SafeButtonModule -->
<g id="node3" class="node">
<title>SafeButtonModule</title>
<polygon fill="#8dd3c7" stroke="black" points="943.05,-84.8 940.05,-88.8 919.05,-88.8 916.05,-84.8 820.95,-84.8 820.95,-48.8 943.05,-48.8 943.05,-84.8"/>
<text text-anchor="middle" x="882" y="-62.6" font-family="Times,serif" font-size="14.00">SafeButtonModule</text>
</g>
<!-- SafeButtonModule&#45;&gt;AddAggregationModalModule -->
<g id="edge2" class="edge">
<title>SafeButtonModule&#45;&gt;AddAggregationModalModule</title>
<path fill="none" stroke="black" d="M882,-84.91C882,-104.14 882,-131.8 882,-131.8 882,-131.8 590.34,-131.8 590.34,-131.8"/>
<polygon fill="black" stroke="black" points="590.34,-128.3 580.34,-131.8 590.34,-135.3 590.34,-128.3"/>
</g>
<!-- SafeEditAggregationModalModule -->
<g id="node4" class="node">
<title>SafeEditAggregationModalModule</title>
<polygon fill="#8dd3c7" stroke="black" points="803.29,-84.8 800.29,-88.8 779.29,-88.8 776.29,-84.8 588.71,-84.8 588.71,-48.8 803.29,-48.8 803.29,-84.8"/>
<text text-anchor="middle" x="696" y="-62.6" font-family="Times,serif" font-size="14.00">SafeEditAggregationModalModule</text>
</g>
<!-- SafeEditAggregationModalModule&#45;&gt;AddAggregationModalModule -->
<g id="edge3" class="edge">
<title>SafeEditAggregationModalModule&#45;&gt;AddAggregationModalModule</title>
<path fill="none" stroke="black" d="M588.5,-66.8C580.59,-66.8 575.62,-66.8 575.62,-66.8 575.62,-66.8 575.62,-103.69 575.62,-103.69"/>
<polygon fill="black" stroke="black" points="572.12,-103.69 575.62,-113.69 579.12,-103.69 572.12,-103.69"/>
</g>
<!-- SafeGraphQLSelectModule -->
<g id="node5" class="node">
<title>SafeGraphQLSelectModule</title>
<polygon fill="#8dd3c7" stroke="black" points="571.28,-84.8 568.28,-88.8 547.28,-88.8 544.28,-84.8 398.72,-84.8 398.72,-48.8 571.28,-48.8 571.28,-84.8"/>
<text text-anchor="middle" x="485" y="-62.6" font-family="Times,serif" font-size="14.00">SafeGraphQLSelectModule</text>
</g>
<!-- SafeGraphQLSelectModule&#45;&gt;AddAggregationModalModule -->
<g id="edge4" class="edge">
<title>SafeGraphQLSelectModule&#45;&gt;AddAggregationModalModule</title>
<path fill="none" stroke="black" d="M485,-84.91C485,-84.91 485,-103.79 485,-103.79"/>
<polygon fill="black" stroke="black" points="481.5,-103.79 485,-113.79 488.5,-103.79 481.5,-103.79"/>
</g>
<!-- SafeModalModule -->
<g id="node6" class="node">
<title>SafeModalModule</title>
<polygon fill="#8dd3c7" stroke="black" points="380.48,-84.8 377.48,-88.8 356.48,-88.8 353.48,-84.8 259.52,-84.8 259.52,-48.8 380.48,-48.8 380.48,-84.8"/>
<text text-anchor="middle" x="320" y="-62.6" font-family="Times,serif" font-size="14.00">SafeModalModule</text>
</g>
<!-- SafeModalModule&#45;&gt;AddAggregationModalModule -->
<g id="edge5" class="edge">
<title>SafeModalModule&#45;&gt;AddAggregationModalModule</title>
<path fill="none" stroke="black" d="M380.74,-66.8C388.82,-66.8 394.38,-66.8 394.38,-66.8 394.38,-66.8 394.38,-103.69 394.38,-103.69"/>
<polygon fill="black" stroke="black" points="390.88,-103.69 394.38,-113.69 397.88,-103.69 390.88,-103.69"/>
</g>
</g>
</svg>
