<?xml version="1.0" encoding="UTF-8" standalone="no"?>
<!DOCTYPE svg PUBLIC "-//W3C//DTD SVG 1.1//EN"
 "http://www.w3.org/Graphics/SVG/1.1/DTD/svg11.dtd">
<!-- Generated by graphviz version 3.0.0 (20220226.1711)
 -->
<!-- Title: dependencies Pages: 1 -->
<svg width="550pt" height="247pt"
 viewBox="0.00 0.00 550.00 246.80" xmlns="http://www.w3.org/2000/svg" xmlns:xlink="http://www.w3.org/1999/xlink">
<g id="graph0" class="graph" transform="scale(1 1) rotate(0) translate(4 242.8)">
<title>dependencies</title>
<polygon fill="white" stroke="transparent" points="-4,4 -4,-242.8 546,-242.8 546,4 -4,4"/>
<text text-anchor="middle" x="271" y="-8.2" font-family="sans-serif" font-size="14.00">dependencies</text>
<g id="clust1" class="cluster">
<title>cluster_SafeGroupListModule</title>
<polygon fill="none" stroke="black" stroke-dasharray="1,5" points="8,-32.8 8,-230.8 534,-230.8 534,-32.8 8,-32.8"/>
</g>
<g id="clust4" class="cluster">
<title>cluster_SafeGroupListModule_imports</title>
<polygon fill="none" stroke="black" points="204,-40.8 204,-92.8 526,-92.8 526,-40.8 204,-40.8"/>
</g>
<g id="clust5" class="cluster">
<title>cluster_SafeGroupListModule_exports</title>
<polygon fill="none" stroke="black" points="203,-170.8 203,-222.8 387,-222.8 387,-170.8 203,-170.8"/>
</g>
<g id="clust2" class="cluster">
<title>cluster_SafeGroupListModule_declarations</title>
<polygon fill="none" stroke="black" points="16,-40.8 16,-92.8 196,-92.8 196,-40.8 16,-40.8"/>
</g>
<!-- SafeGroupListComponent -->
<g id="node1" class="node">
<title>SafeGroupListComponent</title>
<polygon fill="#ffffb3" stroke="black" points="187.76,-84.8 24.24,-84.8 24.24,-48.8 187.76,-48.8 187.76,-84.8"/>
<text text-anchor="middle" x="106" y="-62.6" font-family="Times,serif" font-size="14.00">SafeGroupListComponent</text>
</g>
<!-- SafeGroupListModule -->
<g id="node2" class="node">
<title>SafeGroupListModule</title>
<polygon fill="#8dd3c7" stroke="black" points="365.98,-149.8 362.98,-153.8 341.98,-153.8 338.98,-149.8 224.02,-149.8 224.02,-113.8 365.98,-113.8 365.98,-149.8"/>
<text text-anchor="middle" x="295" y="-127.6" font-family="Times,serif" font-size="14.00">SafeGroupListModule</text>
</g>
<!-- SafeGroupListComponent&#45;&gt;SafeGroupListModule -->
<g id="edge1" class="edge">
<title>SafeGroupListComponent&#45;&gt;SafeGroupListModule</title>
<path fill="none" stroke="black" d="M106,-84.91C106,-104.14 106,-131.8 106,-131.8 106,-131.8 213.82,-131.8 213.82,-131.8"/>
<polygon fill="black" stroke="black" points="213.82,-135.3 223.82,-131.8 213.82,-128.3 213.82,-135.3"/>
</g>
<!-- SafeGroupListComponent  -->
<g id="node5" class="node">
<title>SafeGroupListComponent </title>
<polygon fill="#fb8072" stroke="black" points="378.76,-214.8 211.24,-214.8 211.24,-178.8 378.76,-178.8 378.76,-214.8"/>
<text text-anchor="middle" x="295" y="-192.6" font-family="Times,serif" font-size="14.00">SafeGroupListComponent </text>
</g>
<!-- SafeGroupListModule&#45;&gt;SafeGroupListComponent  -->
<g id="edge4" class="edge">
<title>SafeGroupListModule&#45;&gt;SafeGroupListComponent </title>
<path fill="none" stroke="black" stroke-dasharray="5,2" d="M295,-149.91C295,-149.91 295,-168.79 295,-168.79"/>
<polygon fill="black" stroke="black" points="291.5,-168.79 295,-178.79 298.5,-168.79 291.5,-168.79"/>
</g>
<!-- SafeButtonModule -->
<g id="node3" class="node">
<title>SafeButtonModule</title>
<polygon fill="#8dd3c7" stroke="black" points="518.05,-84.8 515.05,-88.8 494.05,-88.8 491.05,-84.8 395.95,-84.8 395.95,-48.8 518.05,-48.8 518.05,-84.8"/>
<text text-anchor="middle" x="457" y="-62.6" font-family="Times,serif" font-size="14.00">SafeButtonModule</text>
</g>
<!-- SafeButtonModule&#45;&gt;SafeGroupListModule -->
<g id="edge2" class="edge">
<title>SafeButtonModule&#45;&gt;SafeGroupListModule</title>
<path fill="none" stroke="black" d="M457,-84.91C457,-104.14 457,-131.8 457,-131.8 457,-131.8 376.06,-131.8 376.06,-131.8"/>
<polygon fill="black" stroke="black" points="376.06,-128.3 366.06,-131.8 376.06,-135.3 376.06,-128.3"/>
</g>
<!-- SafeSkeletonTableModule -->
<g id="node4" class="node">
<title>SafeSkeletonTableModule</title>
<polygon fill="#8dd3c7" stroke="black" points="377.79,-84.8 374.79,-88.8 353.79,-88.8 350.79,-84.8 212.21,-84.8 212.21,-48.8 377.79,-48.8 377.79,-84.8"/>
<text text-anchor="middle" x="295" y="-62.6" font-family="Times,serif" font-size="14.00">SafeSkeletonTableModule</text>
</g>
<!-- SafeSkeletonTableModule&#45;&gt;SafeGroupListModule -->
<g id="edge3" class="edge">
<title>SafeSkeletonTableModule&#45;&gt;SafeGroupListModule</title>
<path fill="none" stroke="black" d="M295,-84.91C295,-84.91 295,-103.79 295,-103.79"/>
<polygon fill="black" stroke="black" points="291.5,-103.79 295,-113.79 298.5,-103.79 291.5,-103.79"/>
</g>
</g>
</svg>
