<?xml version="1.0" encoding="UTF-8" standalone="no"?>
<!DOCTYPE svg PUBLIC "-//W3C//DTD SVG 1.1//EN"
 "http://www.w3.org/Graphics/SVG/1.1/DTD/svg11.dtd">
<!-- Generated by graphviz version 3.0.0 (20220226.1711)
 -->
<!-- Title: dependencies Pages: 1 -->
<svg width="550pt" height="247pt"
 viewBox="0.00 0.00 550.00 246.80" xmlns="http://www.w3.org/2000/svg" xmlns:xlink="http://www.w3.org/1999/xlink">
<g id="graph0" class="graph" transform="scale(1 1) rotate(0) translate(4 242.8)">
<title>dependencies</title>
<polygon fill="white" stroke="transparent" points="-4,4 -4,-242.8 546,-242.8 546,4 -4,4"/>
<text text-anchor="middle" x="271" y="-8.2" font-family="sans-serif" font-size="14.00">dependencies</text>
<g id="clust1" class="cluster">
<title>cluster_SafeGroupListModule</title>
<polygon fill="none" stroke="black" stroke-dasharray="1,5" points="8,-32.8 8,-230.8 534,-230.8 534,-32.8 8,-32.8"/>
</g>
<g id="clust2" class="cluster">
<title>cluster_SafeGroupListModule_declarations</title>
<polygon fill="none" stroke="black" points="346,-40.8 346,-92.8 526,-92.8 526,-40.8 346,-40.8"/>
</g>
<g id="clust4" class="cluster">
<title>cluster_SafeGroupListModule_imports</title>
<polygon fill="none" stroke="black" points="16,-40.8 16,-92.8 338,-92.8 338,-40.8 16,-40.8"/>
</g>
<g id="clust5" class="cluster">
<title>cluster_SafeGroupListModule_exports</title>
<polygon fill="none" stroke="black" points="177,-170.8 177,-222.8 361,-222.8 361,-170.8 177,-170.8"/>
</g>
<!-- SafeGroupListComponent -->
<g id="node1" class="node">
<title>SafeGroupListComponent</title>
<polygon fill="#ffffb3" stroke="black" points="517.76,-84.8 354.24,-84.8 354.24,-48.8 517.76,-48.8 517.76,-84.8"/>
<text text-anchor="middle" x="436" y="-62.6" font-family="Times,serif" font-size="14.00">SafeGroupListComponent</text>
</g>
<!-- SafeGroupListModule -->
<g id="node2" class="node">
<title>SafeGroupListModule</title>
<polygon fill="#8dd3c7" stroke="black" points="339.98,-149.8 336.98,-153.8 315.98,-153.8 312.98,-149.8 198.02,-149.8 198.02,-113.8 339.98,-113.8 339.98,-149.8"/>
<text text-anchor="middle" x="269" y="-127.6" font-family="Times,serif" font-size="14.00">SafeGroupListModule</text>
</g>
<!-- SafeGroupListComponent&#45;&gt;SafeGroupListModule -->
<g id="edge1" class="edge">
<title>SafeGroupListComponent&#45;&gt;SafeGroupListModule</title>
<path fill="none" stroke="black" d="M354.1,-66.8C342.89,-66.8 335.13,-66.8 335.13,-66.8 335.13,-66.8 335.13,-103.69 335.13,-103.69"/>
<polygon fill="black" stroke="black" points="331.63,-103.69 335.13,-113.69 338.63,-103.69 331.63,-103.69"/>
</g>
<!-- SafeGroupListComponent  -->
<g id="node5" class="node">
<title>SafeGroupListComponent </title>
<polygon fill="#fb8072" stroke="black" points="352.76,-214.8 185.24,-214.8 185.24,-178.8 352.76,-178.8 352.76,-214.8"/>
<text text-anchor="middle" x="269" y="-192.6" font-family="Times,serif" font-size="14.00">SafeGroupListComponent </text>
</g>
<!-- SafeGroupListModule&#45;&gt;SafeGroupListComponent  -->
<g id="edge4" class="edge">
<title>SafeGroupListModule&#45;&gt;SafeGroupListComponent </title>
<path fill="none" stroke="black" stroke-dasharray="5,2" d="M269,-149.91C269,-149.91 269,-168.79 269,-168.79"/>
<polygon fill="black" stroke="black" points="265.5,-168.79 269,-178.79 272.5,-168.79 265.5,-168.79"/>
</g>
<!-- SafeButtonModule -->
<g id="node3" class="node">
<title>SafeButtonModule</title>
<polygon fill="#8dd3c7" stroke="black" points="330.05,-84.8 327.05,-88.8 306.05,-88.8 303.05,-84.8 207.95,-84.8 207.95,-48.8 330.05,-48.8 330.05,-84.8"/>
<text text-anchor="middle" x="269" y="-62.6" font-family="Times,serif" font-size="14.00">SafeButtonModule</text>
</g>
<!-- SafeButtonModule&#45;&gt;SafeGroupListModule -->
<g id="edge2" class="edge">
<title>SafeButtonModule&#45;&gt;SafeGroupListModule</title>
<path fill="none" stroke="black" d="M269,-84.91C269,-84.91 269,-103.79 269,-103.79"/>
<polygon fill="black" stroke="black" points="265.5,-103.79 269,-113.79 272.5,-103.79 265.5,-103.79"/>
</g>
<!-- SafeSkeletonTableModule -->
<g id="node4" class="node">
<title>SafeSkeletonTableModule</title>
<polygon fill="#8dd3c7" stroke="black" points="189.79,-84.8 186.79,-88.8 165.79,-88.8 162.79,-84.8 24.21,-84.8 24.21,-48.8 189.79,-48.8 189.79,-84.8"/>
<text text-anchor="middle" x="107" y="-62.6" font-family="Times,serif" font-size="14.00">SafeSkeletonTableModule</text>
</g>
<!-- SafeSkeletonTableModule&#45;&gt;SafeGroupListModule -->
<g id="edge3" class="edge">
<title>SafeSkeletonTableModule&#45;&gt;SafeGroupListModule</title>
<path fill="none" stroke="black" d="M189.94,-66.8C197.78,-66.8 202.87,-66.8 202.87,-66.8 202.87,-66.8 202.87,-103.69 202.87,-103.69"/>
<polygon fill="black" stroke="black" points="199.37,-103.69 202.87,-113.69 206.37,-103.69 199.37,-103.69"/>
</g>
</g>
</svg>
