<?xml version="1.0" encoding="UTF-8" standalone="no"?>
<!DOCTYPE svg PUBLIC "-//W3C//DTD SVG 1.1//EN"
 "http://www.w3.org/Graphics/SVG/1.1/DTD/svg11.dtd">
<!-- Generated by graphviz version 2.47.0 (20210316.0004)
 -->
<!-- Title: dependencies Pages: 1 -->
<svg width="1966pt" height="349pt"
 viewBox="0.00 0.00 1966.00 349.00" xmlns="http://www.w3.org/2000/svg" xmlns:xlink="http://www.w3.org/1999/xlink">
<g id="graph0" class="graph" transform="scale(1 1) rotate(0) translate(4 345)">
<title>dependencies</title>
<polygon fill="white" stroke="transparent" points="-4,4 -4,-345 1962,-345 1962,4 -4,4"/>
<text text-anchor="start" x="958.01" y="-42.4" font-family="sans-serif" font-weight="bold" font-size="14.00">Legend</text>
<polygon fill="#ffffb3" stroke="transparent" points="745,-10 745,-30 765,-30 765,-10 745,-10"/>
<text text-anchor="start" x="768.63" y="-15.4" font-family="sans-serif" font-size="14.00"> &#160;Declarations</text>
<polygon fill="#8dd3c7" stroke="transparent" points="858,-10 858,-30 878,-30 878,-10 858,-10"/>
<text text-anchor="start" x="881.73" y="-15.4" font-family="sans-serif" font-size="14.00"> &#160;Module</text>
<polygon fill="#80b1d3" stroke="transparent" points="944,-10 944,-30 964,-30 964,-10 944,-10"/>
<text text-anchor="start" x="967.78" y="-15.4" font-family="sans-serif" font-size="14.00"> &#160;Bootstrap</text>
<polygon fill="#fdb462" stroke="transparent" points="1041,-10 1041,-30 1061,-30 1061,-10 1041,-10"/>
<text text-anchor="start" x="1064.67" y="-15.4" font-family="sans-serif" font-size="14.00"> &#160;Providers</text>
<polygon fill="#fb8072" stroke="transparent" points="1137,-10 1137,-30 1157,-30 1157,-10 1137,-10"/>
<text text-anchor="start" x="1160.73" y="-15.4" font-family="sans-serif" font-size="14.00"> &#160;Exports</text>
<g id="clust1" class="cluster">
<title>cluster_ConfigDisplayGridFieldsModalModule</title>
<polygon fill="none" stroke="black" stroke-dasharray="1,5" points="8,-70 8,-333 1950,-333 1950,-70 8,-70"/>
</g>
<g id="clust3" class="cluster">
<title>cluster_ConfigDisplayGridFieldsModalModule_ConfigDisplayGridFieldsModalComponent_providers</title>
<polygon fill="none" stroke="black" points="202,-78 202,-195 1942,-195 1942,-78 202,-78"/>
</g>
<g id="clust4" class="cluster">
<title>cluster_ConfigDisplayGridFieldsModalModule_imports</title>
<polygon fill="none" stroke="black" points="16,-143 16,-195 194,-195 194,-143 16,-143"/>
</g>
<g id="clust5" class="cluster">
<title>cluster_ConfigDisplayGridFieldsModalModule_exports</title>
<polygon fill="none" stroke="black" points="239,-273 239,-325 519,-325 519,-273 239,-273"/>
</g>
<!-- ConfigDisplayGridFieldsModalComponent -->
<g id="node1" class="node">
<title>ConfigDisplayGridFieldsModalComponent</title>
<polygon fill="#ffffb3" stroke="black" points="1130.2,-187 869.8,-187 869.8,-151 1130.2,-151 1130.2,-187"/>
<text text-anchor="middle" x="1000" y="-164.8" font-family="Times,serif" font-size="14.00">ConfigDisplayGridFieldsModalComponent</text>
</g>
<!-- ConfigDisplayGridFieldsModalModule -->
<g id="node2" class="node">
<title>ConfigDisplayGridFieldsModalModule</title>
<polygon fill="#8dd3c7" stroke="black" points="498.42,-252 495.42,-256 474.42,-256 471.42,-252 259.58,-252 259.58,-216 498.42,-216 498.42,-252"/>
<text text-anchor="middle" x="379" y="-229.8" font-family="Times,serif" font-size="14.00">ConfigDisplayGridFieldsModalModule</text>
</g>
<!-- ConfigDisplayGridFieldsModalComponent&#45;&gt;ConfigDisplayGridFieldsModalModule -->
<g id="edge1" class="edge">
<title>ConfigDisplayGridFieldsModalComponent&#45;&gt;ConfigDisplayGridFieldsModalModule</title>
<path fill="none" stroke="black" d="M869.82,-169C687.72,-169 379,-169 379,-169 379,-169 379,-205.89 379,-205.89"/>
<polygon fill="black" stroke="black" points="375.5,-205.89 379,-215.89 382.5,-205.89 375.5,-205.89"/>
</g>
<!-- ConfigDisplayGridFieldsModalComponent  -->
<g id="node7" class="node">
<title>ConfigDisplayGridFieldsModalComponent </title>
<polygon fill="#fb8072" stroke="black" points="510.7,-317 247.3,-317 247.3,-281 510.7,-281 510.7,-317"/>
<text text-anchor="middle" x="379" y="-294.8" font-family="Times,serif" font-size="14.00">ConfigDisplayGridFieldsModalComponent </text>
</g>
<!-- ConfigDisplayGridFieldsModalModule&#45;&gt;ConfigDisplayGridFieldsModalComponent  -->
<g id="edge6" class="edge">
<title>ConfigDisplayGridFieldsModalModule&#45;&gt;ConfigDisplayGridFieldsModalComponent </title>
<path fill="none" stroke="black" stroke-dasharray="5,2" d="M379,-252.11C379,-252.11 379,-270.99 379,-270.99"/>
<polygon fill="black" stroke="black" points="375.5,-270.99 379,-280.99 382.5,-270.99 375.5,-270.99"/>
</g>
<!-- PopupService -->
<g id="node3" class="node">
<title>PopupService</title>
<ellipse fill="#fdb462" stroke="black" cx="1869" cy="-104" rx="64.85" ry="18"/>
<text text-anchor="middle" x="1869" y="-99.8" font-family="Times,serif" font-size="14.00">PopupService</text>
</g>
<!-- PopupService&#45;&gt;ConfigDisplayGridFieldsModalComponent -->
<g id="edge2" class="edge">
<title>PopupService&#45;&gt;ConfigDisplayGridFieldsModalComponent</title>
<path fill="none" stroke="black" d="M1869,-122.11C1869,-141.34 1869,-169 1869,-169 1869,-169 1140.57,-169 1140.57,-169"/>
<polygon fill="black" stroke="black" points="1140.57,-165.5 1130.57,-169 1140.57,-172.5 1140.57,-165.5"/>
</g>
<!-- { provide: MAT_SELECT_SCROLL_STRATEGY, useFactory: scrollFactory, deps: [Overlay] } -->
<g id="node4" class="node">
<title>{ provide: MAT_SELECT_SCROLL_STRATEGY, useFactory: scrollFactory, deps: [Overlay] }</title>
<ellipse fill="#fdb462" stroke="black" cx="1399" cy="-104" rx="386.83" ry="18"/>
<text text-anchor="middle" x="1399" y="-99.8" font-family="Times,serif" font-size="14.00">{ provide: MAT_SELECT_SCROLL_STRATEGY, useFactory: scrollFactory, deps: [Overlay] }</text>
</g>
<!-- { provide: MAT_SELECT_SCROLL_STRATEGY, useFactory: scrollFactory, deps: [Overlay] }&#45;&gt;ConfigDisplayGridFieldsModalComponent -->
<g id="edge3" class="edge">
<title>{ provide: MAT_SELECT_SCROLL_STRATEGY, useFactory: scrollFactory, deps: [Overlay] }&#45;&gt;ConfigDisplayGridFieldsModalComponent</title>
<path fill="none" stroke="black" d="M1071.09,-113.59C1071.09,-113.59 1071.09,-140.75 1071.09,-140.75"/>
<polygon fill="black" stroke="black" points="1067.59,-140.75 1071.09,-150.75 1074.59,-140.75 1067.59,-140.75"/>
</g>
<!-- { provide: MAT_TOOLTIP_SCROLL_STRATEGY, useFactory: scrollFactory, deps: [Overlay] } -->
<g id="node5" class="node">
<title>{ provide: MAT_TOOLTIP_SCROLL_STRATEGY, useFactory: scrollFactory, deps: [Overlay] }</title>
<ellipse fill="#fdb462" stroke="black" cx="602" cy="-104" rx="391.97" ry="18"/>
<text text-anchor="middle" x="602" y="-99.8" font-family="Times,serif" font-size="14.00">{ provide: MAT_TOOLTIP_SCROLL_STRATEGY, useFactory: scrollFactory, deps: [Overlay] }</text>
</g>
<!-- { provide: MAT_TOOLTIP_SCROLL_STRATEGY, useFactory: scrollFactory, deps: [Overlay] }&#45;&gt;ConfigDisplayGridFieldsModalComponent -->
<g id="edge4" class="edge">
<title>{ provide: MAT_TOOLTIP_SCROLL_STRATEGY, useFactory: scrollFactory, deps: [Overlay] }&#45;&gt;ConfigDisplayGridFieldsModalComponent</title>
<path fill="none" stroke="black" d="M931.82,-113.87C931.82,-113.87 931.82,-140.91 931.82,-140.91"/>
<polygon fill="black" stroke="black" points="928.32,-140.91 931.82,-150.91 935.32,-140.91 928.32,-140.91"/>
</g>
<!-- SafeQueryBuilderModule -->
<g id="node6" class="node">
<title>SafeQueryBuilderModule</title>
<polygon fill="#8dd3c7" stroke="black" points="185.9,-187 182.9,-191 161.9,-191 158.9,-187 24.1,-187 24.1,-151 185.9,-151 185.9,-187"/>
<text text-anchor="middle" x="105" y="-164.8" font-family="Times,serif" font-size="14.00">SafeQueryBuilderModule</text>
</g>
<!-- SafeQueryBuilderModule&#45;&gt;ConfigDisplayGridFieldsModalModule -->
<g id="edge5" class="edge">
<title>SafeQueryBuilderModule&#45;&gt;ConfigDisplayGridFieldsModalModule</title>
<path fill="none" stroke="black" d="M105,-187.11C105,-206.34 105,-234 105,-234 105,-234 249.62,-234 249.62,-234"/>
<polygon fill="black" stroke="black" points="249.62,-237.5 259.62,-234 249.62,-230.5 249.62,-237.5"/>
</g>
</g>
</svg>
