<?xml version="1.0" encoding="UTF-8" standalone="no"?>
<!DOCTYPE svg PUBLIC "-//W3C//DTD SVG 1.1//EN"
 "http://www.w3.org/Graphics/SVG/1.1/DTD/svg11.dtd">
<!-- Generated by graphviz version 3.0.0 (20220226.1711)
 -->
<!-- Title: dependencies Pages: 1 -->
<svg width="8408pt" height="174pt"
 viewBox="0.00 0.00 8408.00 173.80" xmlns="http://www.w3.org/2000/svg" xmlns:xlink="http://www.w3.org/1999/xlink">
<g id="graph0" class="graph" transform="scale(1 1) rotate(0) translate(4 169.8)">
<title>dependencies</title>
<polygon fill="white" stroke="transparent" points="-4,4 -4,-169.8 8404,-169.8 8404,4 -4,4"/>
<text text-anchor="middle" x="4200" y="-8.2" font-family="sans-serif" font-size="14.00">dependencies</text>
<g id="clust1" class="cluster">
<title>cluster_SafeModule</title>
<polygon fill="none" stroke="black" stroke-dasharray="1,5" points="8,-32.8 8,-157.8 8392,-157.8 8392,-32.8 8,-32.8"/>
</g>
<g id="clust4" class="cluster">
<title>cluster_SafeModule_exports</title>
<polygon fill="none" stroke="black" points="16,-97.8 16,-149.8 8384,-149.8 8384,-97.8 16,-97.8"/>
</g>
<!-- SafeAccessModule  -->
<g id="node1" class="node">
<title>SafeAccessModule </title>
<polygon fill="#fb8072" stroke="black" points="8375.58,-141.8 8248.42,-141.8 8248.42,-105.8 8375.58,-105.8 8375.58,-141.8"/>
<text text-anchor="middle" x="8312" y="-119.6" font-family="Times,serif" font-size="14.00">SafeAccessModule </text>
</g>
<!-- SafeAggregationBuilderModule  -->
<g id="node2" class="node">
<title>SafeAggregationBuilderModule </title>
<polygon fill="#fb8072" stroke="black" points="8229.9,-141.8 8030.1,-141.8 8030.1,-105.8 8229.9,-105.8 8229.9,-141.8"/>
<text text-anchor="middle" x="8130" y="-119.6" font-family="Times,serif" font-size="14.00">SafeAggregationBuilderModule </text>
</g>
<!-- SafeApplicationDistributionListsModule  -->
<g id="node3" class="node">
<title>SafeApplicationDistributionListsModule </title>
<polygon fill="#fb8072" stroke="black" points="8012.42,-141.8 7763.58,-141.8 7763.58,-105.8 8012.42,-105.8 8012.42,-141.8"/>
<text text-anchor="middle" x="7888" y="-119.6" font-family="Times,serif" font-size="14.00">SafeApplicationDistributionListsModule </text>
</g>
<!-- SafeApplicationTemplatesModule  -->
<g id="node4" class="node">
<title>SafeApplicationTemplatesModule </title>
<polygon fill="#fb8072" stroke="black" points="7745.34,-141.8 7532.66,-141.8 7532.66,-105.8 7745.34,-105.8 7745.34,-141.8"/>
<text text-anchor="middle" x="7639" y="-119.6" font-family="Times,serif" font-size="14.00">SafeApplicationTemplatesModule </text>
</g>
<!-- SafeApplicationsSummaryModule  -->
<g id="node5" class="node">
<title>SafeApplicationsSummaryModule </title>
<polygon fill="#fb8072" stroke="black" points="7514.91,-141.8 7301.09,-141.8 7301.09,-105.8 7514.91,-105.8 7514.91,-141.8"/>
<text text-anchor="middle" x="7408" y="-119.6" font-family="Times,serif" font-size="14.00">SafeApplicationsSummaryModule </text>
</g>
<!-- SafeButtonModule  -->
<g id="node6" class="node">
<title>SafeButtonModule </title>
<polygon fill="#fb8072" stroke="black" points="7283.04,-141.8 7156.96,-141.8 7156.96,-105.8 7283.04,-105.8 7283.04,-141.8"/>
<text text-anchor="middle" x="7220" y="-119.6" font-family="Times,serif" font-size="14.00">SafeButtonModule </text>
</g>
<!-- SafeChartModule  -->
<g id="node7" class="node">
<title>SafeChartModule </title>
<polygon fill="#fb8072" stroke="black" points="7138.53,-141.8 7019.47,-141.8 7019.47,-105.8 7138.53,-105.8 7138.53,-141.8"/>
<text text-anchor="middle" x="7079" y="-119.6" font-family="Times,serif" font-size="14.00">SafeChartModule </text>
</g>
<!-- SafeChartSettingsModule  -->
<g id="node8" class="node">
<title>SafeChartSettingsModule </title>
<polygon fill="#fb8072" stroke="black" points="7001.15,-141.8 6836.85,-141.8 6836.85,-105.8 7001.15,-105.8 7001.15,-141.8"/>
<text text-anchor="middle" x="6919" y="-119.6" font-family="Times,serif" font-size="14.00">SafeChartSettingsModule </text>
</g>
<!-- SafeContentChoiceModule  -->
<g id="node9" class="node">
<title>SafeContentChoiceModule </title>
<polygon fill="#fb8072" stroke="black" points="6818.91,-141.8 6647.09,-141.8 6647.09,-105.8 6818.91,-105.8 6818.91,-141.8"/>
<text text-anchor="middle" x="6733" y="-119.6" font-family="Times,serif" font-size="14.00">SafeContentChoiceModule </text>
</g>
<!-- SafeConvertModalModule  -->
<g id="node10" class="node">
<title>SafeConvertModalModule </title>
<polygon fill="#fb8072" stroke="black" points="6628.58,-141.8 6459.42,-141.8 6459.42,-105.8 6628.58,-105.8 6628.58,-141.8"/>
<text text-anchor="middle" x="6544" y="-119.6" font-family="Times,serif" font-size="14.00">SafeConvertModalModule </text>
</g>
<!-- SafeCronParserModule  -->
<g id="node11" class="node">
<title>SafeCronParserModule </title>
<polygon fill="#fb8072" stroke="black" points="6441.41,-141.8 6290.59,-141.8 6290.59,-105.8 6441.41,-105.8 6441.41,-141.8"/>
<text text-anchor="middle" x="6366" y="-119.6" font-family="Times,serif" font-size="14.00">SafeCronParserModule </text>
</g>
<!-- SafeDateModule  -->
<g id="node12" class="node">
<title>SafeDateModule </title>
<polygon fill="#fb8072" stroke="black" points="6272.36,-141.8 6157.64,-141.8 6157.64,-105.8 6272.36,-105.8 6272.36,-141.8"/>
<text text-anchor="middle" x="6215" y="-119.6" font-family="Times,serif" font-size="14.00">SafeDateModule </text>
</g>
<!-- SafeDividerModule  -->
<g id="node13" class="node">
<title>SafeDividerModule </title>
<polygon fill="#fb8072" stroke="black" points="6139.19,-141.8 6008.81,-141.8 6008.81,-105.8 6139.19,-105.8 6139.19,-141.8"/>
<text text-anchor="middle" x="6074" y="-119.6" font-family="Times,serif" font-size="14.00">SafeDividerModule </text>
</g>
<!-- SafeEditLayoutModalModule  -->
<g id="node14" class="node">
<title>SafeEditLayoutModalModule </title>
<polygon fill="#fb8072" stroke="black" points="5990.97,-141.8 5803.03,-141.8 5803.03,-105.8 5990.97,-105.8 5990.97,-141.8"/>
<text text-anchor="middle" x="5897" y="-119.6" font-family="Times,serif" font-size="14.00">SafeEditLayoutModalModule </text>
</g>
<!-- SafeEditorModule  -->
<g id="node15" class="node">
<title>SafeEditorModule </title>
<polygon fill="#fb8072" stroke="black" points="5785.42,-141.8 5662.58,-141.8 5662.58,-105.8 5785.42,-105.8 5785.42,-141.8"/>
<text text-anchor="middle" x="5724" y="-119.6" font-family="Times,serif" font-size="14.00">SafeEditorModule </text>
</g>
<!-- SafeEditorSettingsModule  -->
<g id="node16" class="node">
<title>SafeEditorSettingsModule </title>
<polygon fill="#fb8072" stroke="black" points="5645.04,-141.8 5476.96,-141.8 5476.96,-105.8 5645.04,-105.8 5645.04,-141.8"/>
<text text-anchor="middle" x="5561" y="-119.6" font-family="Times,serif" font-size="14.00">SafeEditorSettingsModule </text>
</g>
<!-- SafeEmptyModule  -->
<g id="node17" class="node">
<title>SafeEmptyModule </title>
<polygon fill="#fb8072" stroke="black" points="5458.76,-141.8 5333.24,-141.8 5333.24,-105.8 5458.76,-105.8 5458.76,-141.8"/>
<text text-anchor="middle" x="5396" y="-119.6" font-family="Times,serif" font-size="14.00">SafeEmptyModule </text>
</g>
<!-- SafeFormBuilderModule  -->
<g id="node18" class="node">
<title>SafeFormBuilderModule </title>
<polygon fill="#fb8072" stroke="black" points="5315.26,-141.8 5154.74,-141.8 5154.74,-105.8 5315.26,-105.8 5315.26,-141.8"/>
<text text-anchor="middle" x="5235" y="-119.6" font-family="Times,serif" font-size="14.00">SafeFormBuilderModule </text>
</g>
<!-- SafeFormModule  -->
<g id="node19" class="node">
<title>SafeFormModule </title>
<polygon fill="#fb8072" stroke="black" points="5137.27,-141.8 5018.73,-141.8 5018.73,-105.8 5137.27,-105.8 5137.27,-141.8"/>
<text text-anchor="middle" x="5078" y="-119.6" font-family="Times,serif" font-size="14.00">SafeFormModule </text>
</g>
<!-- SafeGraphQLSelectModule  -->
<g id="node20" class="node">
<title>SafeGraphQLSelectModule </title>
<polygon fill="#fb8072" stroke="black" points="5000.78,-141.8 4825.22,-141.8 4825.22,-105.8 5000.78,-105.8 5000.78,-141.8"/>
<text text-anchor="middle" x="4913" y="-119.6" font-family="Times,serif" font-size="14.00">SafeGraphQLSelectModule </text>
</g>
<!-- SafeGridSettingsModule  -->
<g id="node21" class="node">
<title>SafeGridSettingsModule </title>
<polygon fill="#fb8072" stroke="black" points="4807.21,-141.8 4648.79,-141.8 4648.79,-105.8 4807.21,-105.8 4807.21,-141.8"/>
<text text-anchor="middle" x="4728" y="-119.6" font-family="Times,serif" font-size="14.00">SafeGridSettingsModule </text>
</g>
<!-- SafeGridWidgetModule  -->
<g id="node22" class="node">
<title>SafeGridWidgetModule </title>
<polygon fill="#fb8072" stroke="black" points="4630.3,-141.8 4475.7,-141.8 4475.7,-105.8 4630.3,-105.8 4630.3,-141.8"/>
<text text-anchor="middle" x="4553" y="-119.6" font-family="Times,serif" font-size="14.00">SafeGridWidgetModule </text>
</g>
<!-- SafeIconModule  -->
<g id="node23" class="node">
<title>SafeIconModule </title>
<polygon fill="#fb8072" stroke="black" points="4457.3,-141.8 4344.7,-141.8 4344.7,-105.8 4457.3,-105.8 4457.3,-141.8"/>
<text text-anchor="middle" x="4401" y="-119.6" font-family="Times,serif" font-size="14.00">SafeIconModule </text>
</g>
<!-- SafeLayoutModule  -->
<g id="node24" class="node">
<title>SafeLayoutModule </title>
<polygon fill="#fb8072" stroke="black" points="4326.58,-141.8 4199.42,-141.8 4199.42,-105.8 4326.58,-105.8 4326.58,-141.8"/>
<text text-anchor="middle" x="4263" y="-119.6" font-family="Times,serif" font-size="14.00">SafeLayoutModule </text>
</g>
<!-- SafeLeftSidenavModule  -->
<g id="node25" class="node">
<title>SafeLeftSidenavModule </title>
<polygon fill="#fb8072" stroke="black" points="4181.35,-141.8 4024.65,-141.8 4024.65,-105.8 4181.35,-105.8 4181.35,-141.8"/>
<text text-anchor="middle" x="4103" y="-119.6" font-family="Times,serif" font-size="14.00">SafeLeftSidenavModule </text>
</g>
<!-- SafeMapModule  -->
<g id="node26" class="node">
<title>SafeMapModule </title>
<polygon fill="#fb8072" stroke="black" points="4006.59,-141.8 3893.41,-141.8 3893.41,-105.8 4006.59,-105.8 4006.59,-141.8"/>
<text text-anchor="middle" x="3950" y="-119.6" font-family="Times,serif" font-size="14.00">SafeMapModule </text>
</g>
<!-- SafeMapSettingsModule  -->
<g id="node27" class="node">
<title>SafeMapSettingsModule </title>
<polygon fill="#fb8072" stroke="black" points="3875.21,-141.8 3716.79,-141.8 3716.79,-105.8 3875.21,-105.8 3875.21,-141.8"/>
<text text-anchor="middle" x="3796" y="-119.6" font-family="Times,serif" font-size="14.00">SafeMapSettingsModule </text>
</g>
<!-- SafeModalModule  -->
<g id="node28" class="node">
<title>SafeModalModule </title>
<polygon fill="#fb8072" stroke="black" points="3698.48,-141.8 3573.52,-141.8 3573.52,-105.8 3698.48,-105.8 3698.48,-141.8"/>
<text text-anchor="middle" x="3636" y="-119.6" font-family="Times,serif" font-size="14.00">SafeModalModule </text>
</g>
<!-- SafeProfileModule  -->
<g id="node29" class="node">
<title>SafeProfileModule </title>
<polygon fill="#fb8072" stroke="black" points="3556.03,-141.8 3429.97,-141.8 3429.97,-105.8 3556.03,-105.8 3556.03,-141.8"/>
<text text-anchor="middle" x="3493" y="-119.6" font-family="Times,serif" font-size="14.00">SafeProfileModule </text>
</g>
<!-- SafeReadableCronModule  -->
<g id="node30" class="node">
<title>SafeReadableCronModule </title>
<polygon fill="#fb8072" stroke="black" points="3412.01,-141.8 3243.99,-141.8 3243.99,-105.8 3412.01,-105.8 3412.01,-141.8"/>
<text text-anchor="middle" x="3328" y="-119.6" font-family="Times,serif" font-size="14.00">SafeReadableCronModule </text>
</g>
<!-- SafeRecordHistoryModule  -->
<g id="node31" class="node">
<title>SafeRecordHistoryModule </title>
<polygon fill="#fb8072" stroke="black" points="3226.36,-141.8 3055.64,-141.8 3055.64,-105.8 3226.36,-105.8 3226.36,-141.8"/>
<text text-anchor="middle" x="3141" y="-119.6" font-family="Times,serif" font-size="14.00">SafeRecordHistoryModule </text>
</g>
<!-- SafeRecordModalModule  -->
<g id="node32" class="node">
<title>SafeRecordModalModule </title>
<polygon fill="#fb8072" stroke="black" points="3037.41,-141.8 2872.59,-141.8 2872.59,-105.8 3037.41,-105.8 3037.41,-141.8"/>
<text text-anchor="middle" x="2955" y="-119.6" font-family="Times,serif" font-size="14.00">SafeRecordModalModule </text>
</g>
<!-- SafeRoleSummaryModule  -->
<g id="node33" class="node">
<title>SafeRoleSummaryModule </title>
<polygon fill="#fb8072" stroke="black" points="2854.31,-141.8 2685.69,-141.8 2685.69,-105.8 2854.31,-105.8 2854.31,-141.8"/>
<text text-anchor="middle" x="2770" y="-119.6" font-family="Times,serif" font-size="14.00">SafeRoleSummaryModule </text>
</g>
<!-- SafeRolesModule  -->
<g id="node34" class="node">
<title>SafeRolesModule </title>
<polygon fill="#fb8072" stroke="black" points="2667.82,-141.8 2548.18,-141.8 2548.18,-105.8 2667.82,-105.8 2667.82,-141.8"/>
<text text-anchor="middle" x="2608" y="-119.6" font-family="Times,serif" font-size="14.00">SafeRolesModule </text>
</g>
<!-- SafeSchedulerModule  -->
<g id="node35" class="node">
<title>SafeSchedulerModule </title>
<polygon fill="#fb8072" stroke="black" points="2529.91,-141.8 2386.09,-141.8 2386.09,-105.8 2529.91,-105.8 2529.91,-141.8"/>
<text text-anchor="middle" x="2458" y="-119.6" font-family="Times,serif" font-size="14.00">SafeSchedulerModule </text>
</g>
<!-- SafeSchedulerSettingsModule  -->
<g id="node36" class="node">
<title>SafeSchedulerSettingsModule </title>
<polygon fill="#fb8072" stroke="black" points="2368.52,-141.8 2179.48,-141.8 2179.48,-105.8 2368.52,-105.8 2368.52,-141.8"/>
<text text-anchor="middle" x="2274" y="-119.6" font-family="Times,serif" font-size="14.00">SafeSchedulerSettingsModule </text>
</g>
<!-- SafeSearchMenuModule  -->
<g id="node37" class="node">
<title>SafeSearchMenuModule </title>
<polygon fill="#fb8072" stroke="black" points="2161.18,-141.8 2002.82,-141.8 2002.82,-105.8 2161.18,-105.8 2161.18,-141.8"/>
<text text-anchor="middle" x="2082" y="-119.6" font-family="Times,serif" font-size="14.00">SafeSearchMenuModule </text>
</g>
<!-- SafeSearchResourceGridModalModule  -->
<g id="node38" class="node">
<title>SafeSearchResourceGridModalModule </title>
<polygon fill="#fb8072" stroke="black" points="1984.32,-141.8 1743.68,-141.8 1743.68,-105.8 1984.32,-105.8 1984.32,-141.8"/>
<text text-anchor="middle" x="1864" y="-119.6" font-family="Times,serif" font-size="14.00">SafeSearchResourceGridModalModule </text>
</g>
<!-- SafeSkeletonModule  -->
<g id="node39" class="node">
<title>SafeSkeletonModule </title>
<polygon fill="#fb8072" stroke="black" points="1725.42,-141.8 1588.58,-141.8 1588.58,-105.8 1725.42,-105.8 1725.42,-141.8"/>
<text text-anchor="middle" x="1657" y="-119.6" font-family="Times,serif" font-size="14.00">SafeSkeletonModule </text>
</g>
<!-- SafeSkeletonTableModule  -->
<g id="node40" class="node">
<title>SafeSkeletonTableModule </title>
<polygon fill="#fb8072" stroke="black" points="1570.29,-141.8 1401.71,-141.8 1401.71,-105.8 1570.29,-105.8 1570.29,-141.8"/>
<text text-anchor="middle" x="1486" y="-119.6" font-family="Times,serif" font-size="14.00">SafeSkeletonTableModule </text>
</g>
<!-- SafeSnackbarSpinnerModule  -->
<g id="node41" class="node">
<title>SafeSnackbarSpinnerModule </title>
<polygon fill="#fb8072" stroke="black" points="1383.57,-141.8 1200.43,-141.8 1200.43,-105.8 1383.57,-105.8 1383.57,-141.8"/>
<text text-anchor="middle" x="1292" y="-119.6" font-family="Times,serif" font-size="14.00">SafeSnackbarSpinnerModule </text>
</g>
<!-- SafeStatusModalModule  -->
<g id="node42" class="node">
<title>SafeStatusModalModule </title>
<polygon fill="#fb8072" stroke="black" points="1182.21,-141.8 1023.79,-141.8 1023.79,-105.8 1182.21,-105.8 1182.21,-141.8"/>
<text text-anchor="middle" x="1103" y="-119.6" font-family="Times,serif" font-size="14.00">SafeStatusModalModule </text>
</g>
<!-- SafeTagboxModule  -->
<g id="node43" class="node">
<title>SafeTagboxModule </title>
<polygon fill="#fb8072" stroke="black" points="1005.19,-141.8 874.81,-141.8 874.81,-105.8 1005.19,-105.8 1005.19,-141.8"/>
<text text-anchor="middle" x="940" y="-119.6" font-family="Times,serif" font-size="14.00">SafeTagboxModule </text>
</g>
<!-- SafeUserSummaryModule  -->
<g id="node44" class="node">
<title>SafeUserSummaryModule </title>
<polygon fill="#fb8072" stroke="black" points="856.3,-141.8 687.7,-141.8 687.7,-105.8 856.3,-105.8 856.3,-141.8"/>
<text text-anchor="middle" x="772" y="-119.6" font-family="Times,serif" font-size="14.00">SafeUserSummaryModule </text>
</g>
<!-- SafeUsersModule  -->
<g id="node45" class="node">
<title>SafeUsersModule </title>
<polygon fill="#fb8072" stroke="black" points="669.81,-141.8 550.19,-141.8 550.19,-105.8 669.81,-105.8 669.81,-141.8"/>
<text text-anchor="middle" x="610" y="-119.6" font-family="Times,serif" font-size="14.00">SafeUsersModule </text>
</g>
<!-- SafeWidgetGridModule  -->
<g id="node46" class="node">
<title>SafeWidgetGridModule </title>
<polygon fill="#fb8072" stroke="black" points="532.3,-141.8 377.7,-141.8 377.7,-105.8 532.3,-105.8 532.3,-141.8"/>
<text text-anchor="middle" x="455" y="-119.6" font-family="Times,serif" font-size="14.00">SafeWidgetGridModule </text>
</g>
<!-- SafeWidgetModule  -->
<g id="node47" class="node">
<title>SafeWidgetModule </title>
<polygon fill="#fb8072" stroke="black" points="359.63,-141.8 230.37,-141.8 230.37,-105.8 359.63,-105.8 359.63,-141.8"/>
<text text-anchor="middle" x="295" y="-119.6" font-family="Times,serif" font-size="14.00">SafeWidgetModule </text>
</g>
<!-- SafeWorkflowStepperModule  -->
<g id="node48" class="node">
<title>SafeWorkflowStepperModule </title>
<polygon fill="#fb8072" stroke="black" points="212.23,-141.8 23.77,-141.8 23.77,-105.8 212.23,-105.8 212.23,-141.8"/>
<text text-anchor="middle" x="118" y="-119.6" font-family="Times,serif" font-size="14.00">SafeWorkflowStepperModule </text>
</g>
<!-- SafeModule -->
<g id="node49" class="node">
<title>SafeModule</title>
<polygon fill="#8dd3c7" stroke="black" points="4225.43,-76.8 4222.43,-80.8 4201.43,-80.8 4198.43,-76.8 4140.57,-76.8 4140.57,-40.8 4225.43,-40.8 4225.43,-76.8"/>
<text text-anchor="middle" x="4183" y="-54.6" font-family="Times,serif" font-size="14.00">SafeModule</text>
</g>
<!-- SafeModule&#45;&gt;SafeAccessModule  -->
<g id="edge1" class="edge">
<title>SafeModule&#45;&gt;SafeAccessModule </title>
<path fill="none" stroke="black" stroke-dasharray="5,2" d="M4221.96,-76.88C4221.96,-78.65 4221.96,-79.8 4221.96,-79.8 4221.96,-79.8 8312,-79.8 8312,-79.8 8312,-79.8 8312,-95.65 8312,-95.65"/>
<polygon fill="black" stroke="black" points="8308.5,-95.65 8312,-105.65 8315.5,-95.65 8308.5,-95.65"/>
</g>
<!-- SafeModule&#45;&gt;SafeAggregationBuilderModule  -->
<g id="edge2" class="edge">
<title>SafeModule&#45;&gt;SafeAggregationBuilderModule </title>
<path fill="none" stroke="black" stroke-dasharray="5,2" d="M4218.71,-76.97C4218.71,-80.85 4218.71,-83.8 4218.71,-83.8 4218.71,-83.8 8130,-83.8 8130,-83.8 8130,-83.8 8130,-95.67 8130,-95.67"/>
<polygon fill="black" stroke="black" points="8126.5,-95.67 8130,-105.67 8133.5,-95.67 8126.5,-95.67"/>
</g>
<!-- SafeModule&#45;&gt;SafeApplicationDistributionListsModule  -->
<g id="edge3" class="edge">
<title>SafeModule&#45;&gt;SafeApplicationDistributionListsModule </title>
<path fill="none" stroke="black" stroke-dasharray="5,2" d="M4215.46,-77.04C4215.46,-84.23 4215.46,-90.8 4215.46,-90.8 4215.46,-90.8 7888,-90.8 7888,-90.8 7888,-90.8 7888,-95.76 7888,-95.76"/>
<polygon fill="black" stroke="black" points="7884.5,-95.76 7888,-105.76 7891.5,-95.76 7884.5,-95.76"/>
</g>
<!-- SafeModule&#45;&gt;SafeApplicationTemplatesModule  -->
<g id="edge4" class="edge">
<title>SafeModule&#45;&gt;SafeApplicationTemplatesModule </title>
<path fill="none" stroke="black" stroke-dasharray="5,2" d="M4212.21,-77.22C4212.21,-86.08 4212.21,-94.8 4212.21,-94.8 4212.21,-94.8 7639,-94.8 7639,-94.8 7639,-94.8 7639,-95.88 7639,-95.88"/>
<polygon fill="black" stroke="black" points="7635.5,-95.6 7639,-105.6 7642.5,-95.6 7635.5,-95.6"/>
</g>
<!-- SafeModule&#45;&gt;SafeApplicationsSummaryModule  -->
<g id="edge5" class="edge">
<title>SafeModule&#45;&gt;SafeApplicationsSummaryModule </title>
<path fill="none" stroke="black" stroke-dasharray="5,2" d="M4208.96,-77.29C4208.96,-88.94 4208.96,-101.8 4208.96,-101.8 4208.96,-101.8 7408,-101.8 7408,-101.8 7408,-101.8 7408,-102.18 7408,-102.18"/>
<polygon fill="black" stroke="black" points="7404.5,-95.63 7408,-105.63 7411.5,-95.63 7404.5,-95.63"/>
</g>
<!-- SafeModule&#45;&gt;SafeButtonModule  -->
<g id="edge6" class="edge">
<title>SafeModule&#45;&gt;SafeButtonModule </title>
<path fill="none" stroke="black" stroke-dasharray="5,2" d="M4205.71,-76.84C4205.71,-89.36 4205.71,-103.8 4205.71,-103.8 4205.71,-103.8 7220,-103.8 7220,-103.8 7220,-103.8 7220,-103.98 7220,-103.98"/>
<polygon fill="black" stroke="black" points="7216.5,-95.65 7220,-105.65 7223.5,-95.65 7216.5,-95.65"/>
</g>
<!-- SafeModule&#45;&gt;SafeChartModule  -->
<g id="edge7" class="edge">
<title>SafeModule&#45;&gt;SafeChartModule </title>
<path fill="none" stroke="black" stroke-dasharray="5,2" d="M4225.34,-42.8C4582.5,-42.8 7079,-42.8 7079,-42.8 7079,-42.8 7079,-95.42 7079,-95.42"/>
<polygon fill="black" stroke="black" points="7075.5,-95.42 7079,-105.42 7082.5,-95.42 7075.5,-95.42"/>
</g>
<!-- SafeModule&#45;&gt;SafeChartSettingsModule  -->
<g id="edge8" class="edge">
<title>SafeModule&#45;&gt;SafeChartSettingsModule </title>
<path fill="none" stroke="black" stroke-dasharray="5,2" d="M4225.43,-44.8C4571.58,-44.8 6919,-44.8 6919,-44.8 6919,-44.8 6919,-95.48 6919,-95.48"/>
<polygon fill="black" stroke="black" points="6915.5,-95.48 6919,-105.48 6922.5,-95.48 6915.5,-95.48"/>
</g>
<!-- SafeModule&#45;&gt;SafeContentChoiceModule  -->
<g id="edge9" class="edge">
<title>SafeModule&#45;&gt;SafeContentChoiceModule </title>
<path fill="none" stroke="black" stroke-dasharray="5,2" d="M4225.4,-46.8C4557.83,-46.8 6733,-46.8 6733,-46.8 6733,-46.8 6733,-95.55 6733,-95.55"/>
<polygon fill="black" stroke="black" points="6729.5,-95.55 6733,-105.55 6736.5,-95.55 6729.5,-95.55"/>
</g>
<!-- SafeModule&#45;&gt;SafeConvertModalModule  -->
<g id="edge10" class="edge">
<title>SafeModule&#45;&gt;SafeConvertModalModule </title>
<path fill="none" stroke="black" stroke-dasharray="5,2" d="M4225.23,-48.8C4542.81,-48.8 6544,-48.8 6544,-48.8 6544,-48.8 6544,-95.64 6544,-95.64"/>
<polygon fill="black" stroke="black" points="6540.5,-95.64 6544,-105.64 6547.5,-95.64 6540.5,-95.64"/>
</g>
<!-- SafeModule&#45;&gt;SafeCronParserModule  -->
<g id="edge11" class="edge">
<title>SafeModule&#45;&gt;SafeCronParserModule </title>
<path fill="none" stroke="black" stroke-dasharray="5,2" d="M4225.63,-50.8C4530.37,-50.8 6366,-50.8 6366,-50.8 6366,-50.8 6366,-95.76 6366,-95.76"/>
<polygon fill="black" stroke="black" points="6362.5,-95.76 6366,-105.76 6369.5,-95.76 6362.5,-95.76"/>
</g>
<!-- SafeModule&#45;&gt;SafeDateModule  -->
<g id="edge12" class="edge">
<title>SafeModule&#45;&gt;SafeDateModule </title>
<path fill="none" stroke="black" stroke-dasharray="5,2" d="M4225.44,-52.8C4517.24,-52.8 6215,-52.8 6215,-52.8 6215,-52.8 6215,-95.52 6215,-95.52"/>
<polygon fill="black" stroke="black" points="6211.5,-95.52 6215,-105.52 6218.5,-95.52 6211.5,-95.52"/>
</g>
<!-- SafeModule&#45;&gt;SafeDividerModule  -->
<g id="edge13" class="edge">
<title>SafeModule&#45;&gt;SafeDividerModule </title>
<path fill="none" stroke="black" stroke-dasharray="5,2" d="M4225.6,-54.8C4505.84,-54.8 6074,-54.8 6074,-54.8 6074,-54.8 6074,-95.67 6074,-95.67"/>
<polygon fill="black" stroke="black" points="6070.5,-95.67 6074,-105.67 6077.5,-95.67 6070.5,-95.67"/>
</g>
<!-- SafeModule&#45;&gt;SafeEditLayoutModalModule  -->
<g id="edge14" class="edge">
<title>SafeModule&#45;&gt;SafeEditLayoutModalModule </title>
<path fill="none" stroke="black" stroke-dasharray="5,2" d="M4225.37,-56.8C4489.31,-56.8 5897,-56.8 5897,-56.8 5897,-56.8 5897,-95.49 5897,-95.49"/>
<polygon fill="black" stroke="black" points="5893.5,-95.49 5897,-105.49 5900.5,-95.49 5893.5,-95.49"/>
</g>
<!-- SafeModule&#45;&gt;SafeEditorModule  -->
<g id="edge15" class="edge">
<title>SafeModule&#45;&gt;SafeEditorModule </title>
<path fill="none" stroke="black" stroke-dasharray="5,2" d="M4225.42,-58.8C4473.35,-58.8 5724,-58.8 5724,-58.8 5724,-58.8 5724,-95.69 5724,-95.69"/>
<polygon fill="black" stroke="black" points="5720.5,-95.69 5724,-105.69 5727.5,-95.69 5720.5,-95.69"/>
</g>
<!-- SafeModule&#45;&gt;SafeEditorSettingsModule  -->
<g id="edge16" class="edge">
<title>SafeModule&#45;&gt;SafeEditorSettingsModule </title>
<path fill="none" stroke="black" stroke-dasharray="5,2" d="M4225.37,-60.8C4457.14,-60.8 5561,-60.8 5561,-60.8 5561,-60.8 5561,-95.58 5561,-95.58"/>
<polygon fill="black" stroke="black" points="5557.5,-95.58 5561,-105.58 5564.5,-95.58 5557.5,-95.58"/>
</g>
<!-- SafeModule&#45;&gt;SafeEmptyModule  -->
<g id="edge17" class="edge">
<title>SafeModule&#45;&gt;SafeEmptyModule </title>
<path fill="none" stroke="black" stroke-dasharray="5,2" d="M4225.46,-62.8C4440.15,-62.8 5396,-62.8 5396,-62.8 5396,-62.8 5396,-95.5 5396,-95.5"/>
<polygon fill="black" stroke="black" points="5392.5,-95.5 5396,-105.5 5399.5,-95.5 5392.5,-95.5"/>
</g>
<!-- SafeModule&#45;&gt;SafeFormBuilderModule  -->
<g id="edge18" class="edge">
<title>SafeModule&#45;&gt;SafeFormBuilderModule </title>
<path fill="none" stroke="black" stroke-dasharray="5,2" d="M4225.22,-64.8C4421.45,-64.8 5235,-64.8 5235,-64.8 5235,-64.8 5235,-95.78 5235,-95.78"/>
<polygon fill="black" stroke="black" points="5231.5,-95.78 5235,-105.78 5238.5,-95.78 5231.5,-95.78"/>
</g>
<!-- SafeModule&#45;&gt;SafeFormModule  -->
<g id="edge19" class="edge">
<title>SafeModule&#45;&gt;SafeFormModule </title>
<path fill="none" stroke="black" stroke-dasharray="5,2" d="M4225.27,-66.8C4402.67,-66.8 5078,-66.8 5078,-66.8 5078,-66.8 5078,-95.76 5078,-95.76"/>
<polygon fill="black" stroke="black" points="5074.5,-95.76 5078,-105.76 5081.5,-95.76 5074.5,-95.76"/>
</g>
<!-- SafeModule&#45;&gt;SafeGraphQLSelectModule  -->
<g id="edge20" class="edge">
<title>SafeModule&#45;&gt;SafeGraphQLSelectModule </title>
<path fill="none" stroke="black" stroke-dasharray="5,2" d="M4225.4,-68.8C4381.2,-68.8 4913,-68.8 4913,-68.8 4913,-68.8 4913,-95.79 4913,-95.79"/>
<polygon fill="black" stroke="black" points="4909.5,-95.79 4913,-105.79 4916.5,-95.79 4909.5,-95.79"/>
</g>
<!-- SafeModule&#45;&gt;SafeGridSettingsModule  -->
<g id="edge21" class="edge">
<title>SafeModule&#45;&gt;SafeGridSettingsModule </title>
<path fill="none" stroke="black" stroke-dasharray="5,2" d="M4225.31,-70.8C4353.36,-70.8 4728,-70.8 4728,-70.8 4728,-70.8 4728,-95.56 4728,-95.56"/>
<polygon fill="black" stroke="black" points="4724.5,-95.56 4728,-105.56 4731.5,-95.56 4724.5,-95.56"/>
</g>
<!-- SafeModule&#45;&gt;SafeGridWidgetModule  -->
<g id="edge22" class="edge">
<title>SafeModule&#45;&gt;SafeGridWidgetModule </title>
<path fill="none" stroke="black" stroke-dasharray="5,2" d="M4225.44,-72.8C4322.63,-72.8 4553,-72.8 4553,-72.8 4553,-72.8 4553,-95.68 4553,-95.68"/>
<polygon fill="black" stroke="black" points="4549.5,-95.68 4553,-105.68 4556.5,-95.68 4549.5,-95.68"/>
</g>
<!-- SafeModule&#45;&gt;SafeIconModule  -->
<g id="edge23" class="edge">
<title>SafeModule&#45;&gt;SafeIconModule </title>
<path fill="none" stroke="black" stroke-dasharray="5,2" d="M4225.29,-74.8C4288.69,-74.8 4401,-74.8 4401,-74.8 4401,-74.8 4401,-95.55 4401,-95.55"/>
<polygon fill="black" stroke="black" points="4397.5,-95.55 4401,-105.55 4404.5,-95.55 4397.5,-95.55"/>
</g>
<!-- SafeModule&#45;&gt;SafeLayoutModule  -->
<g id="edge24" class="edge">
<title>SafeModule&#45;&gt;SafeLayoutModule </title>
<path fill="none" stroke="black" stroke-dasharray="5,2" d="M4202.46,-76.91C4202.46,-76.91 4202.46,-95.79 4202.46,-95.79"/>
<polygon fill="black" stroke="black" points="4198.96,-95.79 4202.46,-105.79 4205.96,-95.79 4198.96,-95.79"/>
</g>
<!-- SafeModule&#45;&gt;SafeLeftSidenavModule  -->
<g id="edge25" class="edge">
<title>SafeModule&#45;&gt;SafeLeftSidenavModule </title>
<path fill="none" stroke="black" stroke-dasharray="5,2" d="M4176.13,-76.91C4176.13,-76.91 4176.13,-95.79 4176.13,-95.79"/>
<polygon fill="black" stroke="black" points="4172.63,-95.79 4176.13,-105.79 4179.63,-95.79 4172.63,-95.79"/>
</g>
<!-- SafeModule&#45;&gt;SafeMapModule  -->
<g id="edge26" class="edge">
<title>SafeModule&#45;&gt;SafeMapModule </title>
<path fill="none" stroke="black" stroke-dasharray="5,2" d="M4140.54,-74.8C4073.33,-74.8 3950,-74.8 3950,-74.8 3950,-74.8 3950,-95.55 3950,-95.55"/>
<polygon fill="black" stroke="black" points="3946.5,-95.55 3950,-105.55 3953.5,-95.55 3946.5,-95.55"/>
</g>
<!-- SafeModule&#45;&gt;SafeMapSettingsModule  -->
<g id="edge27" class="edge">
<title>SafeModule&#45;&gt;SafeMapSettingsModule </title>
<path fill="none" stroke="black" stroke-dasharray="5,2" d="M4140.48,-72.8C4039.95,-72.8 3796,-72.8 3796,-72.8 3796,-72.8 3796,-95.68 3796,-95.68"/>
<polygon fill="black" stroke="black" points="3792.5,-95.68 3796,-105.68 3799.5,-95.68 3792.5,-95.68"/>
</g>
<!-- SafeModule&#45;&gt;SafeModalModule  -->
<g id="edge28" class="edge">
<title>SafeModule&#45;&gt;SafeModalModule </title>
<path fill="none" stroke="black" stroke-dasharray="5,2" d="M4140.53,-70.8C4012.01,-70.8 3636,-70.8 3636,-70.8 3636,-70.8 3636,-95.56 3636,-95.56"/>
<polygon fill="black" stroke="black" points="3632.5,-95.56 3636,-105.56 3639.5,-95.56 3632.5,-95.56"/>
</g>
<!-- SafeModule&#45;&gt;SafeProfileModule  -->
<g id="edge29" class="edge">
<title>SafeModule&#45;&gt;SafeProfileModule </title>
<path fill="none" stroke="black" stroke-dasharray="5,2" d="M4140.62,-68.8C3990.49,-68.8 3493,-68.8 3493,-68.8 3493,-68.8 3493,-95.79 3493,-95.79"/>
<polygon fill="black" stroke="black" points="3489.5,-95.79 3493,-105.79 3496.5,-95.79 3489.5,-95.79"/>
</g>
<!-- SafeModule&#45;&gt;SafeReadableCronModule  -->
<g id="edge30" class="edge">
<title>SafeModule&#45;&gt;SafeReadableCronModule </title>
<path fill="none" stroke="black" stroke-dasharray="5,2" d="M4140.6,-66.8C3968.08,-66.8 3328,-66.8 3328,-66.8 3328,-66.8 3328,-95.76 3328,-95.76"/>
<polygon fill="black" stroke="black" points="3324.5,-95.76 3328,-105.76 3331.5,-95.76 3324.5,-95.76"/>
</g>
<!-- SafeModule&#45;&gt;SafeRecordHistoryModule  -->
<g id="edge31" class="edge">
<title>SafeModule&#45;&gt;SafeRecordHistoryModule </title>
<path fill="none" stroke="black" stroke-dasharray="5,2" d="M4140.54,-64.8C3945.03,-64.8 3141,-64.8 3141,-64.8 3141,-64.8 3141,-95.78 3141,-95.78"/>
<polygon fill="black" stroke="black" points="3137.5,-95.78 3141,-105.78 3144.5,-95.78 3137.5,-95.78"/>
</g>
<!-- SafeModule&#45;&gt;SafeRecordModalModule  -->
<g id="edge32" class="edge">
<title>SafeModule&#45;&gt;SafeRecordModalModule </title>
<path fill="none" stroke="black" stroke-dasharray="5,2" d="M4140.73,-62.8C3924.8,-62.8 2955,-62.8 2955,-62.8 2955,-62.8 2955,-95.5 2955,-95.5"/>
<polygon fill="black" stroke="black" points="2951.5,-95.5 2955,-105.5 2958.5,-95.5 2951.5,-95.5"/>
</g>
<!-- SafeModule&#45;&gt;SafeRoleSummaryModule  -->
<g id="edge33" class="edge">
<title>SafeModule&#45;&gt;SafeRoleSummaryModule </title>
<path fill="none" stroke="black" stroke-dasharray="5,2" d="M4140.71,-60.8C3905.61,-60.8 2770,-60.8 2770,-60.8 2770,-60.8 2770,-95.58 2770,-95.58"/>
<polygon fill="black" stroke="black" points="2766.5,-95.58 2770,-105.58 2773.5,-95.58 2766.5,-95.58"/>
</g>
<!-- SafeModule&#45;&gt;SafeRolesModule  -->
<g id="edge34" class="edge">
<title>SafeModule&#45;&gt;SafeRolesModule </title>
<path fill="none" stroke="black" stroke-dasharray="5,2" d="M4140.47,-58.8C3889.02,-58.8 2608,-58.8 2608,-58.8 2608,-58.8 2608,-95.69 2608,-95.69"/>
<polygon fill="black" stroke="black" points="2604.5,-95.69 2608,-105.69 2611.5,-95.69 2604.5,-95.69"/>
</g>
<!-- SafeModule&#45;&gt;SafeSchedulerModule  -->
<g id="edge35" class="edge">
<title>SafeModule&#45;&gt;SafeSchedulerModule </title>
<path fill="none" stroke="black" stroke-dasharray="5,2" d="M4140.36,-56.8C3874.72,-56.8 2458,-56.8 2458,-56.8 2458,-56.8 2458,-95.49 2458,-95.49"/>
<polygon fill="black" stroke="black" points="2454.5,-95.49 2458,-105.49 2461.5,-95.49 2454.5,-95.49"/>
</g>
<!-- SafeModule&#45;&gt;SafeSchedulerSettingsModule  -->
<g id="edge36" class="edge">
<title>SafeModule&#45;&gt;SafeSchedulerSettingsModule </title>
<path fill="none" stroke="black" stroke-dasharray="5,2" d="M4140.45,-54.8C3858.78,-54.8 2274,-54.8 2274,-54.8 2274,-54.8 2274,-95.67 2274,-95.67"/>
<polygon fill="black" stroke="black" points="2270.5,-95.67 2274,-105.67 2277.5,-95.67 2270.5,-95.67"/>
</g>
<!-- SafeModule&#45;&gt;SafeSearchMenuModule  -->
<g id="edge37" class="edge">
<title>SafeModule&#45;&gt;SafeSearchMenuModule </title>
<path fill="none" stroke="black" stroke-dasharray="5,2" d="M4140.56,-52.8C3843.04,-52.8 2082,-52.8 2082,-52.8 2082,-52.8 2082,-95.52 2082,-95.52"/>
<polygon fill="black" stroke="black" points="2078.5,-95.52 2082,-105.52 2085.5,-95.52 2078.5,-95.52"/>
</g>
<!-- SafeModule&#45;&gt;SafeSearchResourceGridModalModule  -->
<g id="edge38" class="edge">
<title>SafeModule&#45;&gt;SafeSearchResourceGridModalModule </title>
<path fill="none" stroke="black" stroke-dasharray="5,2" d="M4140.77,-50.8C3826.47,-50.8 1864,-50.8 1864,-50.8 1864,-50.8 1864,-95.76 1864,-95.76"/>
<polygon fill="black" stroke="black" points="1860.5,-95.76 1864,-105.76 1867.5,-95.76 1860.5,-95.76"/>
</g>
<!-- SafeModule&#45;&gt;SafeSkeletonModule  -->
<g id="edge39" class="edge">
<title>SafeModule&#45;&gt;SafeSkeletonModule </title>
<path fill="none" stroke="black" stroke-dasharray="5,2" d="M4140.74,-48.8C3810.56,-48.8 1657,-48.8 1657,-48.8 1657,-48.8 1657,-95.64 1657,-95.64"/>
<polygon fill="black" stroke="black" points="1653.5,-95.64 1657,-105.64 1660.5,-95.64 1653.5,-95.64"/>
</g>
<!-- SafeModule&#45;&gt;SafeSkeletonTableModule  -->
<g id="edge40" class="edge">
<title>SafeModule&#45;&gt;SafeSkeletonTableModule </title>
<path fill="none" stroke="black" stroke-dasharray="5,2" d="M4140.64,-46.8C3797.52,-46.8 1486,-46.8 1486,-46.8 1486,-46.8 1486,-95.55 1486,-95.55"/>
<polygon fill="black" stroke="black" points="1482.5,-95.55 1486,-105.55 1489.5,-95.55 1482.5,-95.55"/>
</g>
<!-- SafeModule&#45;&gt;SafeSnackbarSpinnerModule  -->
<g id="edge41" class="edge">
<title>SafeModule&#45;&gt;SafeSnackbarSpinnerModule </title>
<path fill="none" stroke="black" stroke-dasharray="5,2" d="M4140.74,-44.8C3784.19,-44.8 1292,-44.8 1292,-44.8 1292,-44.8 1292,-95.48 1292,-95.48"/>
<polygon fill="black" stroke="black" points="1288.5,-95.48 1292,-105.48 1295.5,-95.48 1288.5,-95.48"/>
</g>
<!-- SafeModule&#45;&gt;SafeStatusModalModule  -->
<g id="edge42" class="edge">
<title>SafeModule&#45;&gt;SafeStatusModalModule </title>
<path fill="none" stroke="black" stroke-dasharray="5,2" d="M4140.63,-42.8C3770.7,-42.8 1103,-42.8 1103,-42.8 1103,-42.8 1103,-95.42 1103,-95.42"/>
<polygon fill="black" stroke="black" points="1099.5,-95.42 1103,-105.42 1106.5,-95.42 1099.5,-95.42"/>
</g>
<!-- SafeModule&#45;&gt;SafeTagboxModule  -->
<g id="edge43" class="edge">
<title>SafeModule&#45;&gt;SafeTagboxModule </title>
<path fill="none" stroke="black" stroke-dasharray="5,2" d="M4171.08,-76.9C4171.08,-87.89 4171.08,-99.8 4171.08,-99.8 4171.08,-99.8 940,-99.8 940,-99.8 940,-99.8 940,-100.38 940,-100.38"/>
<polygon fill="black" stroke="black" points="936.5,-95.61 940,-105.61 943.5,-95.61 936.5,-95.61"/>
</g>
<!-- SafeModule&#45;&gt;SafeUserSummaryModule  -->
<g id="edge44" class="edge">
<title>SafeModule&#45;&gt;SafeUserSummaryModule </title>
<path fill="none" stroke="black" stroke-dasharray="5,2" d="M4166.03,-76.93C4166.03,-87.11 4166.03,-97.8 4166.03,-97.8 4166.03,-97.8 772,-97.8 772,-97.8 772,-97.8 772,-98.59 772,-98.59"/>
<polygon fill="black" stroke="black" points="768.5,-95.74 772,-105.74 775.5,-95.74 768.5,-95.74"/>
</g>
<!-- SafeModule&#45;&gt;SafeUsersModule  -->
<g id="edge45" class="edge">
<title>SafeModule&#45;&gt;SafeUsersModule </title>
<path fill="none" stroke="black" stroke-dasharray="5,2" d="M4160.98,-76.99C4160.98,-85.08 4160.98,-92.8 4160.98,-92.8 4160.98,-92.8 610,-92.8 610,-92.8 610,-92.8 610,-95.77 610,-95.77"/>
<polygon fill="black" stroke="black" points="606.5,-95.77 610,-105.77 613.5,-95.77 606.5,-95.77"/>
</g>
<!-- SafeModule&#45;&gt;SafeWidgetGridModule  -->
<g id="edge46" class="edge">
<title>SafeModule&#45;&gt;SafeWidgetGridModule </title>
<path fill="none" stroke="black" stroke-dasharray="5,2" d="M4155.93,-76.94C4155.93,-83.26 4155.93,-88.8 4155.93,-88.8 4155.93,-88.8 455,-88.8 455,-88.8 455,-88.8 455,-95.48 455,-95.48"/>
<polygon fill="black" stroke="black" points="451.5,-95.48 455,-105.48 458.5,-95.48 451.5,-95.48"/>
</g>
<!-- SafeModule&#45;&gt;SafeWidgetModule  -->
<g id="edge47" class="edge">
<title>SafeModule&#45;&gt;SafeWidgetModule </title>
<path fill="none" stroke="black" stroke-dasharray="5,2" d="M4150.88,-76.96C4150.88,-81.84 4150.88,-85.8 4150.88,-85.8 4150.88,-85.8 295,-85.8 295,-85.8 295,-85.8 295,-95.69 295,-95.69"/>
<polygon fill="black" stroke="black" points="291.5,-95.69 295,-105.69 298.5,-95.69 291.5,-95.69"/>
</g>
<!-- SafeModule&#45;&gt;SafeWorkflowStepperModule  -->
<g id="edge48" class="edge">
<title>SafeModule&#45;&gt;SafeWorkflowStepperModule </title>
<path fill="none" stroke="black" stroke-dasharray="5,2" d="M4145.83,-76.92C4145.83,-79.77 4145.83,-81.8 4145.83,-81.8 4145.83,-81.8 118,-81.8 118,-81.8 118,-81.8 118,-95.74 118,-95.74"/>
<polygon fill="black" stroke="black" points="114.5,-95.74 118,-105.74 121.5,-95.74 114.5,-95.74"/>
</g>
</g>
</svg>
