<?xml version="1.0" encoding="UTF-8" standalone="no"?>
<!DOCTYPE svg PUBLIC "-//W3C//DTD SVG 1.1//EN"
 "http://www.w3.org/Graphics/SVG/1.1/DTD/svg11.dtd">
<!-- Generated by graphviz version 3.0.0 (20220226.1711)
 -->
<!-- Title: dependencies Pages: 1 -->
<svg width="8239pt" height="174pt"
 viewBox="0.00 0.00 8239.00 173.80" xmlns="http://www.w3.org/2000/svg" xmlns:xlink="http://www.w3.org/1999/xlink">
<g id="graph0" class="graph" transform="scale(1 1) rotate(0) translate(4 169.8)">
<title>dependencies</title>
<polygon fill="white" stroke="transparent" points="-4,4 -4,-169.8 8235,-169.8 8235,4 -4,4"/>
<text text-anchor="middle" x="4115.5" y="-8.2" font-family="sans-serif" font-size="14.00">dependencies</text>
<g id="clust1" class="cluster">
<title>cluster_SafeModule</title>
<polygon fill="none" stroke="black" stroke-dasharray="1,5" points="8,-32.8 8,-157.8 8223,-157.8 8223,-32.8 8,-32.8"/>
</g>
<g id="clust4" class="cluster">
<title>cluster_SafeModule_exports</title>
<polygon fill="none" stroke="black" points="16,-97.8 16,-149.8 8215,-149.8 8215,-97.8 16,-97.8"/>
</g>
<!-- SafeAccessModule  -->
<g id="node1" class="node">
<title>SafeAccessModule </title>
<polygon fill="#fb8072" stroke="black" points="8206.58,-141.8 8079.42,-141.8 8079.42,-105.8 8206.58,-105.8 8206.58,-141.8"/>
<text text-anchor="middle" x="8143" y="-119.6" font-family="Times,serif" font-size="14.00">SafeAccessModule </text>
</g>
<!-- SafeAggregationBuilderModule  -->
<g id="node2" class="node">
<title>SafeAggregationBuilderModule </title>
<polygon fill="#fb8072" stroke="black" points="8060.9,-141.8 7861.1,-141.8 7861.1,-105.8 8060.9,-105.8 8060.9,-141.8"/>
<text text-anchor="middle" x="7961" y="-119.6" font-family="Times,serif" font-size="14.00">SafeAggregationBuilderModule </text>
</g>
<!-- SafeApplicationDistributionListsModule  -->
<g id="node3" class="node">
<title>SafeApplicationDistributionListsModule </title>
<polygon fill="#fb8072" stroke="black" points="7843.42,-141.8 7594.58,-141.8 7594.58,-105.8 7843.42,-105.8 7843.42,-141.8"/>
<text text-anchor="middle" x="7719" y="-119.6" font-family="Times,serif" font-size="14.00">SafeApplicationDistributionListsModule </text>
</g>
<!-- SafeApplicationTemplatesModule  -->
<g id="node4" class="node">
<title>SafeApplicationTemplatesModule </title>
<polygon fill="#fb8072" stroke="black" points="7576.34,-141.8 7363.66,-141.8 7363.66,-105.8 7576.34,-105.8 7576.34,-141.8"/>
<text text-anchor="middle" x="7470" y="-119.6" font-family="Times,serif" font-size="14.00">SafeApplicationTemplatesModule </text>
</g>
<!-- SafeApplicationsSummaryModule  -->
<g id="node5" class="node">
<title>SafeApplicationsSummaryModule </title>
<polygon fill="#fb8072" stroke="black" points="7345.91,-141.8 7132.09,-141.8 7132.09,-105.8 7345.91,-105.8 7345.91,-141.8"/>
<text text-anchor="middle" x="7239" y="-119.6" font-family="Times,serif" font-size="14.00">SafeApplicationsSummaryModule </text>
</g>
<!-- SafeButtonModule  -->
<g id="node6" class="node">
<title>SafeButtonModule </title>
<polygon fill="#fb8072" stroke="black" points="7114.04,-141.8 6987.96,-141.8 6987.96,-105.8 7114.04,-105.8 7114.04,-141.8"/>
<text text-anchor="middle" x="7051" y="-119.6" font-family="Times,serif" font-size="14.00">SafeButtonModule </text>
</g>
<!-- SafeChartModule  -->
<g id="node7" class="node">
<title>SafeChartModule </title>
<polygon fill="#fb8072" stroke="black" points="6969.53,-141.8 6850.47,-141.8 6850.47,-105.8 6969.53,-105.8 6969.53,-141.8"/>
<text text-anchor="middle" x="6910" y="-119.6" font-family="Times,serif" font-size="14.00">SafeChartModule </text>
</g>
<!-- SafeChartSettingsModule  -->
<g id="node8" class="node">
<title>SafeChartSettingsModule </title>
<polygon fill="#fb8072" stroke="black" points="6832.15,-141.8 6667.85,-141.8 6667.85,-105.8 6832.15,-105.8 6832.15,-141.8"/>
<text text-anchor="middle" x="6750" y="-119.6" font-family="Times,serif" font-size="14.00">SafeChartSettingsModule </text>
</g>
<!-- SafeContentChoiceModule  -->
<g id="node9" class="node">
<title>SafeContentChoiceModule </title>
<polygon fill="#fb8072" stroke="black" points="6649.91,-141.8 6478.09,-141.8 6478.09,-105.8 6649.91,-105.8 6649.91,-141.8"/>
<text text-anchor="middle" x="6564" y="-119.6" font-family="Times,serif" font-size="14.00">SafeContentChoiceModule </text>
</g>
<!-- SafeConvertModalModule  -->
<g id="node10" class="node">
<title>SafeConvertModalModule </title>
<polygon fill="#fb8072" stroke="black" points="6459.58,-141.8 6290.42,-141.8 6290.42,-105.8 6459.58,-105.8 6459.58,-141.8"/>
<text text-anchor="middle" x="6375" y="-119.6" font-family="Times,serif" font-size="14.00">SafeConvertModalModule </text>
</g>
<!-- SafeDateModule  -->
<g id="node11" class="node">
<title>SafeDateModule </title>
<polygon fill="#fb8072" stroke="black" points="6272.36,-141.8 6157.64,-141.8 6157.64,-105.8 6272.36,-105.8 6272.36,-141.8"/>
<text text-anchor="middle" x="6215" y="-119.6" font-family="Times,serif" font-size="14.00">SafeDateModule </text>
</g>
<!-- SafeDividerModule  -->
<g id="node12" class="node">
<title>SafeDividerModule </title>
<polygon fill="#fb8072" stroke="black" points="6139.19,-141.8 6008.81,-141.8 6008.81,-105.8 6139.19,-105.8 6139.19,-141.8"/>
<text text-anchor="middle" x="6074" y="-119.6" font-family="Times,serif" font-size="14.00">SafeDividerModule </text>
</g>
<!-- SafeEditLayoutModalModule  -->
<g id="node13" class="node">
<title>SafeEditLayoutModalModule </title>
<polygon fill="#fb8072" stroke="black" points="5990.97,-141.8 5803.03,-141.8 5803.03,-105.8 5990.97,-105.8 5990.97,-141.8"/>
<text text-anchor="middle" x="5897" y="-119.6" font-family="Times,serif" font-size="14.00">SafeEditLayoutModalModule </text>
</g>
<!-- SafeEditorModule  -->
<g id="node14" class="node">
<title>SafeEditorModule </title>
<polygon fill="#fb8072" stroke="black" points="5785.42,-141.8 5662.58,-141.8 5662.58,-105.8 5785.42,-105.8 5785.42,-141.8"/>
<text text-anchor="middle" x="5724" y="-119.6" font-family="Times,serif" font-size="14.00">SafeEditorModule </text>
</g>
<!-- SafeEditorSettingsModule  -->
<g id="node15" class="node">
<title>SafeEditorSettingsModule </title>
<polygon fill="#fb8072" stroke="black" points="5645.04,-141.8 5476.96,-141.8 5476.96,-105.8 5645.04,-105.8 5645.04,-141.8"/>
<text text-anchor="middle" x="5561" y="-119.6" font-family="Times,serif" font-size="14.00">SafeEditorSettingsModule </text>
</g>
<!-- SafeEmptyModule  -->
<g id="node16" class="node">
<title>SafeEmptyModule </title>
<polygon fill="#fb8072" stroke="black" points="5458.76,-141.8 5333.24,-141.8 5333.24,-105.8 5458.76,-105.8 5458.76,-141.8"/>
<text text-anchor="middle" x="5396" y="-119.6" font-family="Times,serif" font-size="14.00">SafeEmptyModule </text>
</g>
<!-- SafeFormBuilderModule  -->
<g id="node17" class="node">
<title>SafeFormBuilderModule </title>
<polygon fill="#fb8072" stroke="black" points="5315.26,-141.8 5154.74,-141.8 5154.74,-105.8 5315.26,-105.8 5315.26,-141.8"/>
<text text-anchor="middle" x="5235" y="-119.6" font-family="Times,serif" font-size="14.00">SafeFormBuilderModule </text>
</g>
<!-- SafeFormModule  -->
<g id="node18" class="node">
<title>SafeFormModule </title>
<polygon fill="#fb8072" stroke="black" points="5137.27,-141.8 5018.73,-141.8 5018.73,-105.8 5137.27,-105.8 5137.27,-141.8"/>
<text text-anchor="middle" x="5078" y="-119.6" font-family="Times,serif" font-size="14.00">SafeFormModule </text>
</g>
<!-- SafeGraphQLSelectModule  -->
<g id="node19" class="node">
<title>SafeGraphQLSelectModule </title>
<polygon fill="#fb8072" stroke="black" points="5000.78,-141.8 4825.22,-141.8 4825.22,-105.8 5000.78,-105.8 5000.78,-141.8"/>
<text text-anchor="middle" x="4913" y="-119.6" font-family="Times,serif" font-size="14.00">SafeGraphQLSelectModule </text>
</g>
<!-- SafeGridSettingsModule  -->
<g id="node20" class="node">
<title>SafeGridSettingsModule </title>
<polygon fill="#fb8072" stroke="black" points="4807.21,-141.8 4648.79,-141.8 4648.79,-105.8 4807.21,-105.8 4807.21,-141.8"/>
<text text-anchor="middle" x="4728" y="-119.6" font-family="Times,serif" font-size="14.00">SafeGridSettingsModule </text>
</g>
<!-- SafeGridWidgetModule  -->
<g id="node21" class="node">
<title>SafeGridWidgetModule </title>
<polygon fill="#fb8072" stroke="black" points="4630.3,-141.8 4475.7,-141.8 4475.7,-105.8 4630.3,-105.8 4630.3,-141.8"/>
<text text-anchor="middle" x="4553" y="-119.6" font-family="Times,serif" font-size="14.00">SafeGridWidgetModule </text>
</g>
<!-- SafeIconModule  -->
<g id="node22" class="node">
<title>SafeIconModule </title>
<polygon fill="#fb8072" stroke="black" points="4457.3,-141.8 4344.7,-141.8 4344.7,-105.8 4457.3,-105.8 4457.3,-141.8"/>
<text text-anchor="middle" x="4401" y="-119.6" font-family="Times,serif" font-size="14.00">SafeIconModule </text>
</g>
<!-- SafeLayoutModule  -->
<g id="node23" class="node">
<title>SafeLayoutModule </title>
<polygon fill="#fb8072" stroke="black" points="4326.58,-141.8 4199.42,-141.8 4199.42,-105.8 4326.58,-105.8 4326.58,-141.8"/>
<text text-anchor="middle" x="4263" y="-119.6" font-family="Times,serif" font-size="14.00">SafeLayoutModule </text>
</g>
<!-- SafeLeftSidenavModule  -->
<g id="node24" class="node">
<title>SafeLeftSidenavModule </title>
<polygon fill="#fb8072" stroke="black" points="4181.35,-141.8 4024.65,-141.8 4024.65,-105.8 4181.35,-105.8 4181.35,-141.8"/>
<text text-anchor="middle" x="4103" y="-119.6" font-family="Times,serif" font-size="14.00">SafeLeftSidenavModule </text>
</g>
<!-- SafeMapModule  -->
<g id="node25" class="node">
<title>SafeMapModule </title>
<polygon fill="#fb8072" stroke="black" points="4006.59,-141.8 3893.41,-141.8 3893.41,-105.8 4006.59,-105.8 4006.59,-141.8"/>
<text text-anchor="middle" x="3950" y="-119.6" font-family="Times,serif" font-size="14.00">SafeMapModule </text>
</g>
<!-- SafeMapSettingsModule  -->
<g id="node26" class="node">
<title>SafeMapSettingsModule </title>
<polygon fill="#fb8072" stroke="black" points="3875.21,-141.8 3716.79,-141.8 3716.79,-105.8 3875.21,-105.8 3875.21,-141.8"/>
<text text-anchor="middle" x="3796" y="-119.6" font-family="Times,serif" font-size="14.00">SafeMapSettingsModule </text>
</g>
<!-- SafeModalModule  -->
<g id="node27" class="node">
<title>SafeModalModule </title>
<polygon fill="#fb8072" stroke="black" points="3698.48,-141.8 3573.52,-141.8 3573.52,-105.8 3698.48,-105.8 3698.48,-141.8"/>
<text text-anchor="middle" x="3636" y="-119.6" font-family="Times,serif" font-size="14.00">SafeModalModule </text>
</g>
<!-- SafeProfileModule  -->
<g id="node28" class="node">
<title>SafeProfileModule </title>
<polygon fill="#fb8072" stroke="black" points="3556.03,-141.8 3429.97,-141.8 3429.97,-105.8 3556.03,-105.8 3556.03,-141.8"/>
<text text-anchor="middle" x="3493" y="-119.6" font-family="Times,serif" font-size="14.00">SafeProfileModule </text>
</g>
<!-- SafeReadableCronModule  -->
<g id="node29" class="node">
<title>SafeReadableCronModule </title>
<polygon fill="#fb8072" stroke="black" points="3412.01,-141.8 3243.99,-141.8 3243.99,-105.8 3412.01,-105.8 3412.01,-141.8"/>
<text text-anchor="middle" x="3328" y="-119.6" font-family="Times,serif" font-size="14.00">SafeReadableCronModule </text>
</g>
<!-- SafeRecordHistoryModule  -->
<g id="node30" class="node">
<title>SafeRecordHistoryModule </title>
<polygon fill="#fb8072" stroke="black" points="3226.36,-141.8 3055.64,-141.8 3055.64,-105.8 3226.36,-105.8 3226.36,-141.8"/>
<text text-anchor="middle" x="3141" y="-119.6" font-family="Times,serif" font-size="14.00">SafeRecordHistoryModule </text>
</g>
<!-- SafeRecordModalModule  -->
<g id="node31" class="node">
<title>SafeRecordModalModule </title>
<polygon fill="#fb8072" stroke="black" points="3037.41,-141.8 2872.59,-141.8 2872.59,-105.8 3037.41,-105.8 3037.41,-141.8"/>
<text text-anchor="middle" x="2955" y="-119.6" font-family="Times,serif" font-size="14.00">SafeRecordModalModule </text>
</g>
<!-- SafeRoleSummaryModule  -->
<g id="node32" class="node">
<title>SafeRoleSummaryModule </title>
<polygon fill="#fb8072" stroke="black" points="2854.31,-141.8 2685.69,-141.8 2685.69,-105.8 2854.31,-105.8 2854.31,-141.8"/>
<text text-anchor="middle" x="2770" y="-119.6" font-family="Times,serif" font-size="14.00">SafeRoleSummaryModule </text>
</g>
<!-- SafeRolesModule  -->
<g id="node33" class="node">
<title>SafeRolesModule </title>
<polygon fill="#fb8072" stroke="black" points="2667.82,-141.8 2548.18,-141.8 2548.18,-105.8 2667.82,-105.8 2667.82,-141.8"/>
<text text-anchor="middle" x="2608" y="-119.6" font-family="Times,serif" font-size="14.00">SafeRolesModule </text>
</g>
<!-- SafeSchedulerModule  -->
<g id="node34" class="node">
<title>SafeSchedulerModule </title>
<polygon fill="#fb8072" stroke="black" points="2529.91,-141.8 2386.09,-141.8 2386.09,-105.8 2529.91,-105.8 2529.91,-141.8"/>
<text text-anchor="middle" x="2458" y="-119.6" font-family="Times,serif" font-size="14.00">SafeSchedulerModule </text>
</g>
<!-- SafeSchedulerSettingsModule  -->
<g id="node35" class="node">
<title>SafeSchedulerSettingsModule </title>
<polygon fill="#fb8072" stroke="black" points="2368.52,-141.8 2179.48,-141.8 2179.48,-105.8 2368.52,-105.8 2368.52,-141.8"/>
<text text-anchor="middle" x="2274" y="-119.6" font-family="Times,serif" font-size="14.00">SafeSchedulerSettingsModule </text>
</g>
<!-- SafeSearchMenuModule  -->
<g id="node36" class="node">
<title>SafeSearchMenuModule </title>
<polygon fill="#fb8072" stroke="black" points="2161.18,-141.8 2002.82,-141.8 2002.82,-105.8 2161.18,-105.8 2161.18,-141.8"/>
<text text-anchor="middle" x="2082" y="-119.6" font-family="Times,serif" font-size="14.00">SafeSearchMenuModule </text>
</g>
<!-- SafeSearchResourceGridModalModule  -->
<g id="node37" class="node">
<title>SafeSearchResourceGridModalModule </title>
<polygon fill="#fb8072" stroke="black" points="1984.32,-141.8 1743.68,-141.8 1743.68,-105.8 1984.32,-105.8 1984.32,-141.8"/>
<text text-anchor="middle" x="1864" y="-119.6" font-family="Times,serif" font-size="14.00">SafeSearchResourceGridModalModule </text>
</g>
<!-- SafeSkeletonModule  -->
<g id="node38" class="node">
<title>SafeSkeletonModule </title>
<polygon fill="#fb8072" stroke="black" points="1725.42,-141.8 1588.58,-141.8 1588.58,-105.8 1725.42,-105.8 1725.42,-141.8"/>
<text text-anchor="middle" x="1657" y="-119.6" font-family="Times,serif" font-size="14.00">SafeSkeletonModule </text>
</g>
<!-- SafeSkeletonTableModule  -->
<g id="node39" class="node">
<title>SafeSkeletonTableModule </title>
<polygon fill="#fb8072" stroke="black" points="1570.29,-141.8 1401.71,-141.8 1401.71,-105.8 1570.29,-105.8 1570.29,-141.8"/>
<text text-anchor="middle" x="1486" y="-119.6" font-family="Times,serif" font-size="14.00">SafeSkeletonTableModule </text>
</g>
<!-- SafeSnackbarSpinnerModule  -->
<g id="node40" class="node">
<title>SafeSnackbarSpinnerModule </title>
<polygon fill="#fb8072" stroke="black" points="1383.57,-141.8 1200.43,-141.8 1200.43,-105.8 1383.57,-105.8 1383.57,-141.8"/>
<text text-anchor="middle" x="1292" y="-119.6" font-family="Times,serif" font-size="14.00">SafeSnackbarSpinnerModule </text>
</g>
<!-- SafeStatusModalModule  -->
<g id="node41" class="node">
<title>SafeStatusModalModule </title>
<polygon fill="#fb8072" stroke="black" points="1182.21,-141.8 1023.79,-141.8 1023.79,-105.8 1182.21,-105.8 1182.21,-141.8"/>
<text text-anchor="middle" x="1103" y="-119.6" font-family="Times,serif" font-size="14.00">SafeStatusModalModule </text>
</g>
<!-- SafeTagboxModule  -->
<g id="node42" class="node">
<title>SafeTagboxModule </title>
<polygon fill="#fb8072" stroke="black" points="1005.19,-141.8 874.81,-141.8 874.81,-105.8 1005.19,-105.8 1005.19,-141.8"/>
<text text-anchor="middle" x="940" y="-119.6" font-family="Times,serif" font-size="14.00">SafeTagboxModule </text>
</g>
<!-- SafeUserSummaryModule  -->
<g id="node43" class="node">
<title>SafeUserSummaryModule </title>
<polygon fill="#fb8072" stroke="black" points="856.3,-141.8 687.7,-141.8 687.7,-105.8 856.3,-105.8 856.3,-141.8"/>
<text text-anchor="middle" x="772" y="-119.6" font-family="Times,serif" font-size="14.00">SafeUserSummaryModule </text>
</g>
<!-- SafeUsersModule  -->
<g id="node44" class="node">
<title>SafeUsersModule </title>
<polygon fill="#fb8072" stroke="black" points="669.81,-141.8 550.19,-141.8 550.19,-105.8 669.81,-105.8 669.81,-141.8"/>
<text text-anchor="middle" x="610" y="-119.6" font-family="Times,serif" font-size="14.00">SafeUsersModule </text>
</g>
<!-- SafeWidgetGridModule  -->
<g id="node45" class="node">
<title>SafeWidgetGridModule </title>
<polygon fill="#fb8072" stroke="black" points="532.3,-141.8 377.7,-141.8 377.7,-105.8 532.3,-105.8 532.3,-141.8"/>
<text text-anchor="middle" x="455" y="-119.6" font-family="Times,serif" font-size="14.00">SafeWidgetGridModule </text>
</g>
<!-- SafeWidgetModule  -->
<g id="node46" class="node">
<title>SafeWidgetModule </title>
<polygon fill="#fb8072" stroke="black" points="359.63,-141.8 230.37,-141.8 230.37,-105.8 359.63,-105.8 359.63,-141.8"/>
<text text-anchor="middle" x="295" y="-119.6" font-family="Times,serif" font-size="14.00">SafeWidgetModule </text>
</g>
<!-- SafeWorkflowStepperModule  -->
<g id="node47" class="node">
<title>SafeWorkflowStepperModule </title>
<polygon fill="#fb8072" stroke="black" points="212.23,-141.8 23.77,-141.8 23.77,-105.8 212.23,-105.8 212.23,-141.8"/>
<text text-anchor="middle" x="118" y="-119.6" font-family="Times,serif" font-size="14.00">SafeWorkflowStepperModule </text>
</g>
<!-- SafeModule -->
<g id="node48" class="node">
<title>SafeModule</title>
<polygon fill="#8dd3c7" stroke="black" points="4145.43,-76.8 4142.43,-80.8 4121.43,-80.8 4118.43,-76.8 4060.57,-76.8 4060.57,-40.8 4145.43,-40.8 4145.43,-76.8"/>
<text text-anchor="middle" x="4103" y="-54.6" font-family="Times,serif" font-size="14.00">SafeModule</text>
</g>
<!-- SafeModule&#45;&gt;SafeAccessModule  -->
<g id="edge1" class="edge">
<title>SafeModule&#45;&gt;SafeAccessModule </title>
<path fill="none" stroke="black" stroke-dasharray="5,2" d="M4139.18,-76.88C4139.18,-78.65 4139.18,-79.8 4139.18,-79.8 4139.18,-79.8 8143,-79.8 8143,-79.8 8143,-79.8 8143,-95.65 8143,-95.65"/>
<polygon fill="black" stroke="black" points="8139.5,-95.65 8143,-105.65 8146.5,-95.65 8139.5,-95.65"/>
</g>
<!-- SafeModule&#45;&gt;SafeAggregationBuilderModule  -->
<g id="edge2" class="edge">
<title>SafeModule&#45;&gt;SafeAggregationBuilderModule </title>
<path fill="none" stroke="black" stroke-dasharray="5,2" d="M4133.15,-76.97C4133.15,-80.85 4133.15,-83.8 4133.15,-83.8 4133.15,-83.8 7961,-83.8 7961,-83.8 7961,-83.8 7961,-95.67 7961,-95.67"/>
<polygon fill="black" stroke="black" points="7957.5,-95.67 7961,-105.67 7964.5,-95.67 7957.5,-95.67"/>
</g>
<!-- SafeModule&#45;&gt;SafeApplicationDistributionListsModule  -->
<g id="edge3" class="edge">
<title>SafeModule&#45;&gt;SafeApplicationDistributionListsModule </title>
<path fill="none" stroke="black" stroke-dasharray="5,2" d="M4127.12,-77.04C4127.12,-84.23 4127.12,-90.8 4127.12,-90.8 4127.12,-90.8 7719,-90.8 7719,-90.8 7719,-90.8 7719,-95.76 7719,-95.76"/>
<polygon fill="black" stroke="black" points="7715.5,-95.76 7719,-105.76 7722.5,-95.76 7715.5,-95.76"/>
</g>
<!-- SafeModule&#45;&gt;SafeApplicationTemplatesModule  -->
<g id="edge4" class="edge">
<title>SafeModule&#45;&gt;SafeApplicationTemplatesModule </title>
<path fill="none" stroke="black" stroke-dasharray="5,2" d="M4121.09,-77.22C4121.09,-86.08 4121.09,-94.8 4121.09,-94.8 4121.09,-94.8 7470,-94.8 7470,-94.8 7470,-94.8 7470,-95.88 7470,-95.88"/>
<polygon fill="black" stroke="black" points="7466.5,-95.6 7470,-105.6 7473.5,-95.6 7466.5,-95.6"/>
</g>
<!-- SafeModule&#45;&gt;SafeApplicationsSummaryModule  -->
<g id="edge5" class="edge">
<title>SafeModule&#45;&gt;SafeApplicationsSummaryModule </title>
<path fill="none" stroke="black" stroke-dasharray="5,2" d="M4115.06,-77.29C4115.06,-88.94 4115.06,-101.8 4115.06,-101.8 4115.06,-101.8 7239,-101.8 7239,-101.8 7239,-101.8 7239,-102.18 7239,-102.18"/>
<polygon fill="black" stroke="black" points="7235.5,-95.63 7239,-105.63 7242.5,-95.63 7235.5,-95.63"/>
</g>
<!-- SafeModule&#45;&gt;SafeButtonModule  -->
<g id="edge6" class="edge">
<title>SafeModule&#45;&gt;SafeButtonModule </title>
<path fill="none" stroke="black" stroke-dasharray="5,2" d="M4109.03,-76.84C4109.03,-89.36 4109.03,-103.8 4109.03,-103.8 4109.03,-103.8 7051,-103.8 7051,-103.8 7051,-103.8 7051,-103.98 7051,-103.98"/>
<polygon fill="black" stroke="black" points="7047.5,-95.65 7051,-105.65 7054.5,-95.65 7047.5,-95.65"/>
</g>
<!-- SafeModule&#45;&gt;SafeChartModule  -->
<g id="edge7" class="edge">
<title>SafeModule&#45;&gt;SafeChartModule </title>
<path fill="none" stroke="black" stroke-dasharray="5,2" d="M4145.41,-42.8C4496.58,-42.8 6910,-42.8 6910,-42.8 6910,-42.8 6910,-95.42 6910,-95.42"/>
<polygon fill="black" stroke="black" points="6906.5,-95.42 6910,-105.42 6913.5,-95.42 6906.5,-95.42"/>
</g>
<!-- SafeModule&#45;&gt;SafeChartSettingsModule  -->
<g id="edge8" class="edge">
<title>SafeModule&#45;&gt;SafeChartSettingsModule </title>
<path fill="none" stroke="black" stroke-dasharray="5,2" d="M4145.38,-44.8C4484.92,-44.8 6750,-44.8 6750,-44.8 6750,-44.8 6750,-95.48 6750,-95.48"/>
<polygon fill="black" stroke="black" points="6746.5,-95.48 6750,-105.48 6753.5,-95.48 6746.5,-95.48"/>
</g>
<!-- SafeModule&#45;&gt;SafeContentChoiceModule  -->
<g id="edge9" class="edge">
<title>SafeModule&#45;&gt;SafeContentChoiceModule </title>
<path fill="none" stroke="black" stroke-dasharray="5,2" d="M4145.46,-46.8C4471.4,-46.8 6564,-46.8 6564,-46.8 6564,-46.8 6564,-95.55 6564,-95.55"/>
<polygon fill="black" stroke="black" points="6560.5,-95.55 6564,-105.55 6567.5,-95.55 6560.5,-95.55"/>
</g>
<!-- SafeModule&#45;&gt;SafeConvertModalModule  -->
<g id="edge10" class="edge">
<title>SafeModule&#45;&gt;SafeConvertModalModule </title>
<path fill="none" stroke="black" stroke-dasharray="5,2" d="M4145.36,-48.8C4456.39,-48.8 6375,-48.8 6375,-48.8 6375,-48.8 6375,-95.64 6375,-95.64"/>
<polygon fill="black" stroke="black" points="6371.5,-95.64 6375,-105.64 6378.5,-95.64 6371.5,-95.64"/>
</g>
<!-- SafeModule&#45;&gt;SafeDateModule  -->
<g id="edge11" class="edge">
<title>SafeModule&#45;&gt;SafeDateModule </title>
<path fill="none" stroke="black" stroke-dasharray="5,2" d="M4145.67,-50.8C4444.74,-50.8 6215,-50.8 6215,-50.8 6215,-50.8 6215,-95.76 6215,-95.76"/>
<polygon fill="black" stroke="black" points="6211.5,-95.76 6215,-105.76 6218.5,-95.76 6211.5,-95.76"/>
</g>
<!-- SafeModule&#45;&gt;SafeDividerModule  -->
<g id="edge12" class="edge">
<title>SafeModule&#45;&gt;SafeDividerModule </title>
<path fill="none" stroke="black" stroke-dasharray="5,2" d="M4145.54,-52.8C4432.48,-52.8 6074,-52.8 6074,-52.8 6074,-52.8 6074,-95.52 6074,-95.52"/>
<polygon fill="black" stroke="black" points="6070.5,-95.52 6074,-105.52 6077.5,-95.52 6070.5,-95.52"/>
</g>
<!-- SafeModule&#45;&gt;SafeEditLayoutModalModule  -->
<g id="edge13" class="edge">
<title>SafeModule&#45;&gt;SafeEditLayoutModalModule </title>
<path fill="none" stroke="black" stroke-dasharray="5,2" d="M4145.58,-54.8C4417.25,-54.8 5897,-54.8 5897,-54.8 5897,-54.8 5897,-95.67 5897,-95.67"/>
<polygon fill="black" stroke="black" points="5893.5,-95.67 5897,-105.67 5900.5,-95.67 5893.5,-95.67"/>
</g>
<!-- SafeModule&#45;&gt;SafeEditorModule  -->
<g id="edge14" class="edge">
<title>SafeModule&#45;&gt;SafeEditorModule </title>
<path fill="none" stroke="black" stroke-dasharray="5,2" d="M4145.52,-56.8C4401.28,-56.8 5724,-56.8 5724,-56.8 5724,-56.8 5724,-95.49 5724,-95.49"/>
<polygon fill="black" stroke="black" points="5720.5,-95.49 5724,-105.49 5727.5,-95.49 5720.5,-95.49"/>
</g>
<!-- SafeModule&#45;&gt;SafeEditorSettingsModule  -->
<g id="edge15" class="edge">
<title>SafeModule&#45;&gt;SafeEditorSettingsModule </title>
<path fill="none" stroke="black" stroke-dasharray="5,2" d="M4145.45,-58.8C4385.4,-58.8 5561,-58.8 5561,-58.8 5561,-58.8 5561,-95.69 5561,-95.69"/>
<polygon fill="black" stroke="black" points="5557.5,-95.69 5561,-105.69 5564.5,-95.69 5557.5,-95.69"/>
</g>
<!-- SafeModule&#45;&gt;SafeEmptyModule  -->
<g id="edge16" class="edge">
<title>SafeModule&#45;&gt;SafeEmptyModule </title>
<path fill="none" stroke="black" stroke-dasharray="5,2" d="M4145.29,-60.8C4368.13,-60.8 5396,-60.8 5396,-60.8 5396,-60.8 5396,-95.58 5396,-95.58"/>
<polygon fill="black" stroke="black" points="5392.5,-95.58 5396,-105.58 5399.5,-95.58 5392.5,-95.58"/>
</g>
<!-- SafeModule&#45;&gt;SafeFormBuilderModule  -->
<g id="edge17" class="edge">
<title>SafeModule&#45;&gt;SafeFormBuilderModule </title>
<path fill="none" stroke="black" stroke-dasharray="5,2" d="M4145.31,-62.8C4350.81,-62.8 5235,-62.8 5235,-62.8 5235,-62.8 5235,-95.5 5235,-95.5"/>
<polygon fill="black" stroke="black" points="5231.5,-95.5 5235,-105.5 5238.5,-95.5 5231.5,-95.5"/>
</g>
<!-- SafeModule&#45;&gt;SafeFormModule  -->
<g id="edge18" class="edge">
<title>SafeModule&#45;&gt;SafeFormModule </title>
<path fill="none" stroke="black" stroke-dasharray="5,2" d="M4145.52,-64.8C4333.18,-64.8 5078,-64.8 5078,-64.8 5078,-64.8 5078,-95.78 5078,-95.78"/>
<polygon fill="black" stroke="black" points="5074.5,-95.78 5078,-105.78 5081.5,-95.78 5074.5,-95.78"/>
</g>
<!-- SafeModule&#45;&gt;SafeGraphQLSelectModule  -->
<g id="edge19" class="edge">
<title>SafeModule&#45;&gt;SafeGraphQLSelectModule </title>
<path fill="none" stroke="black" stroke-dasharray="5,2" d="M4145.41,-66.8C4312.07,-66.8 4913,-66.8 4913,-66.8 4913,-66.8 4913,-95.76 4913,-95.76"/>
<polygon fill="black" stroke="black" points="4909.5,-95.76 4913,-105.76 4916.5,-95.76 4909.5,-95.76"/>
</g>
<!-- SafeModule&#45;&gt;SafeGridSettingsModule  -->
<g id="edge20" class="edge">
<title>SafeModule&#45;&gt;SafeGridSettingsModule </title>
<path fill="none" stroke="black" stroke-dasharray="5,2" d="M4145.47,-68.8C4286.14,-68.8 4728,-68.8 4728,-68.8 4728,-68.8 4728,-95.79 4728,-95.79"/>
<polygon fill="black" stroke="black" points="4724.5,-95.79 4728,-105.79 4731.5,-95.79 4724.5,-95.79"/>
</g>
<!-- SafeModule&#45;&gt;SafeGridWidgetModule  -->
<g id="edge21" class="edge">
<title>SafeModule&#45;&gt;SafeGridWidgetModule </title>
<path fill="none" stroke="black" stroke-dasharray="5,2" d="M4145.33,-70.8C4257.36,-70.8 4553,-70.8 4553,-70.8 4553,-70.8 4553,-95.56 4553,-95.56"/>
<polygon fill="black" stroke="black" points="4549.5,-95.56 4553,-105.56 4556.5,-95.56 4549.5,-95.56"/>
</g>
<!-- SafeModule&#45;&gt;SafeIconModule  -->
<g id="edge22" class="edge">
<title>SafeModule&#45;&gt;SafeIconModule </title>
<path fill="none" stroke="black" stroke-dasharray="5,2" d="M4145.38,-72.8C4227.65,-72.8 4401,-72.8 4401,-72.8 4401,-72.8 4401,-95.68 4401,-95.68"/>
<polygon fill="black" stroke="black" points="4397.5,-95.68 4401,-105.68 4404.5,-95.68 4397.5,-95.68"/>
</g>
<!-- SafeModule&#45;&gt;SafeLayoutModule  -->
<g id="edge23" class="edge">
<title>SafeModule&#45;&gt;SafeLayoutModule </title>
<path fill="none" stroke="black" stroke-dasharray="5,2" d="M4145.46,-74.8C4192.86,-74.8 4263,-74.8 4263,-74.8 4263,-74.8 4263,-95.55 4263,-95.55"/>
<polygon fill="black" stroke="black" points="4259.5,-95.55 4263,-105.55 4266.5,-95.55 4259.5,-95.55"/>
</g>
<!-- SafeModule&#45;&gt;SafeLeftSidenavModule  -->
<g id="edge24" class="edge">
<title>SafeModule&#45;&gt;SafeLeftSidenavModule </title>
<path fill="none" stroke="black" stroke-dasharray="5,2" d="M4103,-76.91C4103,-76.91 4103,-95.79 4103,-95.79"/>
<polygon fill="black" stroke="black" points="4099.5,-95.79 4103,-105.79 4106.5,-95.79 4099.5,-95.79"/>
</g>
<!-- SafeModule&#45;&gt;SafeMapModule  -->
<g id="edge25" class="edge">
<title>SafeModule&#45;&gt;SafeMapModule </title>
<path fill="none" stroke="black" stroke-dasharray="5,2" d="M4060.38,-74.8C4015.11,-74.8 3950,-74.8 3950,-74.8 3950,-74.8 3950,-95.55 3950,-95.55"/>
<polygon fill="black" stroke="black" points="3946.5,-95.55 3950,-105.55 3953.5,-95.55 3946.5,-95.55"/>
</g>
<!-- SafeModule&#45;&gt;SafeMapSettingsModule  -->
<g id="edge26" class="edge">
<title>SafeModule&#45;&gt;SafeMapSettingsModule </title>
<path fill="none" stroke="black" stroke-dasharray="5,2" d="M4060.64,-72.8C3976.42,-72.8 3796,-72.8 3796,-72.8 3796,-72.8 3796,-95.68 3796,-95.68"/>
<polygon fill="black" stroke="black" points="3792.5,-95.68 3796,-105.68 3799.5,-95.68 3792.5,-95.68"/>
</g>
<!-- SafeModule&#45;&gt;SafeModalModule  -->
<g id="edge27" class="edge">
<title>SafeModule&#45;&gt;SafeModalModule </title>
<path fill="none" stroke="black" stroke-dasharray="5,2" d="M4060.73,-70.8C3945.78,-70.8 3636,-70.8 3636,-70.8 3636,-70.8 3636,-95.56 3636,-95.56"/>
<polygon fill="black" stroke="black" points="3632.5,-95.56 3636,-105.56 3639.5,-95.56 3632.5,-95.56"/>
</g>
<!-- SafeModule&#45;&gt;SafeProfileModule  -->
<g id="edge28" class="edge">
<title>SafeModule&#45;&gt;SafeProfileModule </title>
<path fill="none" stroke="black" stroke-dasharray="5,2" d="M4060.59,-68.8C3922.26,-68.8 3493,-68.8 3493,-68.8 3493,-68.8 3493,-95.79 3493,-95.79"/>
<polygon fill="black" stroke="black" points="3489.5,-95.79 3493,-105.79 3496.5,-95.79 3489.5,-95.79"/>
</g>
<!-- SafeModule&#45;&gt;SafeReadableCronModule  -->
<g id="edge29" class="edge">
<title>SafeModule&#45;&gt;SafeReadableCronModule </title>
<path fill="none" stroke="black" stroke-dasharray="5,2" d="M4060.78,-66.8C3899.06,-66.8 3328,-66.8 3328,-66.8 3328,-66.8 3328,-95.76 3328,-95.76"/>
<polygon fill="black" stroke="black" points="3324.5,-95.76 3328,-105.76 3331.5,-95.76 3324.5,-95.76"/>
</g>
<!-- SafeModule&#45;&gt;SafeRecordHistoryModule  -->
<g id="edge30" class="edge">
<title>SafeModule&#45;&gt;SafeRecordHistoryModule </title>
<path fill="none" stroke="black" stroke-dasharray="5,2" d="M4060.73,-64.8C3875.07,-64.8 3141,-64.8 3141,-64.8 3141,-64.8 3141,-95.78 3141,-95.78"/>
<polygon fill="black" stroke="black" points="3137.5,-95.78 3141,-105.78 3144.5,-95.78 3137.5,-95.78"/>
</g>
<!-- SafeModule&#45;&gt;SafeRecordModalModule  -->
<g id="edge31" class="edge">
<title>SafeModule&#45;&gt;SafeRecordModalModule </title>
<path fill="none" stroke="black" stroke-dasharray="5,2" d="M4060.78,-62.8C3853.67,-62.8 2955,-62.8 2955,-62.8 2955,-62.8 2955,-95.5 2955,-95.5"/>
<polygon fill="black" stroke="black" points="2951.5,-95.5 2955,-105.5 2958.5,-95.5 2951.5,-95.5"/>
</g>
<!-- SafeModule&#45;&gt;SafeRoleSummaryModule  -->
<g id="edge32" class="edge">
<title>SafeModule&#45;&gt;SafeRoleSummaryModule </title>
<path fill="none" stroke="black" stroke-dasharray="5,2" d="M4060.53,-60.8C3833.16,-60.8 2770,-60.8 2770,-60.8 2770,-60.8 2770,-95.58 2770,-95.58"/>
<polygon fill="black" stroke="black" points="2766.5,-95.58 2770,-105.58 2773.5,-95.58 2766.5,-95.58"/>
</g>
<!-- SafeModule&#45;&gt;SafeRolesModule  -->
<g id="edge33" class="edge">
<title>SafeModule&#45;&gt;SafeRolesModule </title>
<path fill="none" stroke="black" stroke-dasharray="5,2" d="M4060.67,-58.8C3817.37,-58.8 2608,-58.8 2608,-58.8 2608,-58.8 2608,-95.69 2608,-95.69"/>
<polygon fill="black" stroke="black" points="2604.5,-95.69 2608,-105.69 2611.5,-95.69 2604.5,-95.69"/>
</g>
<!-- SafeModule&#45;&gt;SafeSchedulerModule  -->
<g id="edge34" class="edge">
<title>SafeModule&#45;&gt;SafeSchedulerModule </title>
<path fill="none" stroke="black" stroke-dasharray="5,2" d="M4060.68,-56.8C3803.2,-56.8 2458,-56.8 2458,-56.8 2458,-56.8 2458,-95.49 2458,-95.49"/>
<polygon fill="black" stroke="black" points="2454.5,-95.49 2458,-105.49 2461.5,-95.49 2454.5,-95.49"/>
</g>
<!-- SafeModule&#45;&gt;SafeSchedulerSettingsModule  -->
<g id="edge35" class="edge">
<title>SafeModule&#45;&gt;SafeSchedulerSettingsModule </title>
<path fill="none" stroke="black" stroke-dasharray="5,2" d="M4060.48,-54.8C3785.87,-54.8 2274,-54.8 2274,-54.8 2274,-54.8 2274,-95.67 2274,-95.67"/>
<polygon fill="black" stroke="black" points="2270.5,-95.67 2274,-105.67 2277.5,-95.67 2270.5,-95.67"/>
</g>
<!-- SafeModule&#45;&gt;SafeSearchMenuModule  -->
<g id="edge36" class="edge">
<title>SafeModule&#45;&gt;SafeSearchMenuModule </title>
<path fill="none" stroke="black" stroke-dasharray="5,2" d="M4060.32,-52.8C3768.76,-52.8 2082,-52.8 2082,-52.8 2082,-52.8 2082,-95.52 2082,-95.52"/>
<polygon fill="black" stroke="black" points="2078.5,-95.52 2082,-105.52 2085.5,-95.52 2078.5,-95.52"/>
</g>
<!-- SafeModule&#45;&gt;SafeSearchResourceGridModalModule  -->
<g id="edge37" class="edge">
<title>SafeModule&#45;&gt;SafeSearchResourceGridModalModule </title>
<path fill="none" stroke="black" stroke-dasharray="5,2" d="M4060.76,-50.8C3752.74,-50.8 1864,-50.8 1864,-50.8 1864,-50.8 1864,-95.76 1864,-95.76"/>
<polygon fill="black" stroke="black" points="1860.5,-95.76 1864,-105.76 1867.5,-95.76 1860.5,-95.76"/>
</g>
<!-- SafeModule&#45;&gt;SafeSkeletonModule  -->
<g id="edge38" class="edge">
<title>SafeModule&#45;&gt;SafeSkeletonModule </title>
<path fill="none" stroke="black" stroke-dasharray="5,2" d="M4060.55,-48.8C3735.74,-48.8 1657,-48.8 1657,-48.8 1657,-48.8 1657,-95.64 1657,-95.64"/>
<polygon fill="black" stroke="black" points="1653.5,-95.64 1657,-105.64 1660.5,-95.64 1653.5,-95.64"/>
</g>
<!-- SafeModule&#45;&gt;SafeSkeletonTableModule  -->
<g id="edge39" class="edge">
<title>SafeModule&#45;&gt;SafeSkeletonTableModule </title>
<path fill="none" stroke="black" stroke-dasharray="5,2" d="M4060.57,-46.8C3723.04,-46.8 1486,-46.8 1486,-46.8 1486,-46.8 1486,-95.55 1486,-95.55"/>
<polygon fill="black" stroke="black" points="1482.5,-95.55 1486,-105.55 1489.5,-95.55 1482.5,-95.55"/>
</g>
<!-- SafeModule&#45;&gt;SafeSnackbarSpinnerModule  -->
<g id="edge40" class="edge">
<title>SafeModule&#45;&gt;SafeSnackbarSpinnerModule </title>
<path fill="none" stroke="black" stroke-dasharray="5,2" d="M4060.53,-44.8C3708.86,-44.8 1292,-44.8 1292,-44.8 1292,-44.8 1292,-95.48 1292,-95.48"/>
<polygon fill="black" stroke="black" points="1288.5,-95.48 1292,-105.48 1295.5,-95.48 1288.5,-95.48"/>
</g>
<!-- SafeModule&#45;&gt;SafeStatusModalModule  -->
<g id="edge41" class="edge">
<title>SafeModule&#45;&gt;SafeStatusModalModule </title>
<path fill="none" stroke="black" stroke-dasharray="5,2" d="M4060.59,-42.8C3695.96,-42.8 1103,-42.8 1103,-42.8 1103,-42.8 1103,-95.42 1103,-95.42"/>
<polygon fill="black" stroke="black" points="1099.5,-95.42 1103,-105.42 1106.5,-95.42 1099.5,-95.42"/>
</g>
<!-- SafeModule&#45;&gt;SafeTagboxModule  -->
<g id="edge42" class="edge">
<title>SafeModule&#45;&gt;SafeTagboxModule </title>
<path fill="none" stroke="black" stroke-dasharray="5,2" d="M4096.97,-76.9C4096.97,-87.89 4096.97,-99.8 4096.97,-99.8 4096.97,-99.8 940,-99.8 940,-99.8 940,-99.8 940,-100.38 940,-100.38"/>
<polygon fill="black" stroke="black" points="936.5,-95.61 940,-105.61 943.5,-95.61 936.5,-95.61"/>
</g>
<!-- SafeModule&#45;&gt;SafeUserSummaryModule  -->
<g id="edge43" class="edge">
<title>SafeModule&#45;&gt;SafeUserSummaryModule </title>
<path fill="none" stroke="black" stroke-dasharray="5,2" d="M4090.94,-76.93C4090.94,-87.11 4090.94,-97.8 4090.94,-97.8 4090.94,-97.8 772,-97.8 772,-97.8 772,-97.8 772,-98.59 772,-98.59"/>
<polygon fill="black" stroke="black" points="768.5,-95.74 772,-105.74 775.5,-95.74 768.5,-95.74"/>
</g>
<!-- SafeModule&#45;&gt;SafeUsersModule  -->
<g id="edge44" class="edge">
<title>SafeModule&#45;&gt;SafeUsersModule </title>
<path fill="none" stroke="black" stroke-dasharray="5,2" d="M4084.91,-76.99C4084.91,-85.08 4084.91,-92.8 4084.91,-92.8 4084.91,-92.8 610,-92.8 610,-92.8 610,-92.8 610,-95.77 610,-95.77"/>
<polygon fill="black" stroke="black" points="606.5,-95.77 610,-105.77 613.5,-95.77 606.5,-95.77"/>
</g>
<!-- SafeModule&#45;&gt;SafeWidgetGridModule  -->
<g id="edge45" class="edge">
<title>SafeModule&#45;&gt;SafeWidgetGridModule </title>
<path fill="none" stroke="black" stroke-dasharray="5,2" d="M4078.88,-76.94C4078.88,-83.26 4078.88,-88.8 4078.88,-88.8 4078.88,-88.8 455,-88.8 455,-88.8 455,-88.8 455,-95.48 455,-95.48"/>
<polygon fill="black" stroke="black" points="451.5,-95.48 455,-105.48 458.5,-95.48 451.5,-95.48"/>
</g>
<!-- SafeModule&#45;&gt;SafeWidgetModule  -->
<g id="edge46" class="edge">
<title>SafeModule&#45;&gt;SafeWidgetModule </title>
<path fill="none" stroke="black" stroke-dasharray="5,2" d="M4072.85,-76.96C4072.85,-81.84 4072.85,-85.8 4072.85,-85.8 4072.85,-85.8 295,-85.8 295,-85.8 295,-85.8 295,-95.69 295,-95.69"/>
<polygon fill="black" stroke="black" points="291.5,-95.69 295,-105.69 298.5,-95.69 291.5,-95.69"/>
</g>
<!-- SafeModule&#45;&gt;SafeWorkflowStepperModule  -->
<g id="edge47" class="edge">
<title>SafeModule&#45;&gt;SafeWorkflowStepperModule </title>
<path fill="none" stroke="black" stroke-dasharray="5,2" d="M4066.82,-76.92C4066.82,-79.77 4066.82,-81.8 4066.82,-81.8 4066.82,-81.8 118,-81.8 118,-81.8 118,-81.8 118,-95.74 118,-95.74"/>
<polygon fill="black" stroke="black" points="114.5,-95.74 118,-105.74 121.5,-95.74 114.5,-95.74"/>
</g>
</g>
</svg>
