<?xml version="1.0" encoding="UTF-8" standalone="no"?>
<!DOCTYPE svg PUBLIC "-//W3C//DTD SVG 1.1//EN"
 "http://www.w3.org/Graphics/SVG/1.1/DTD/svg11.dtd">
<!-- Generated by graphviz version 3.0.0 (20220226.1711)
 -->
<!-- Title: dependencies Pages: 1 -->
<svg width="8053pt" height="174pt"
 viewBox="0.00 0.00 8053.00 173.80" xmlns="http://www.w3.org/2000/svg" xmlns:xlink="http://www.w3.org/1999/xlink">
<g id="graph0" class="graph" transform="scale(1 1) rotate(0) translate(4 169.8)">
<title>dependencies</title>
<polygon fill="white" stroke="transparent" points="-4,4 -4,-169.8 8049,-169.8 8049,4 -4,4"/>
<text text-anchor="middle" x="4022.5" y="-8.2" font-family="sans-serif" font-size="14.00">dependencies</text>
<g id="clust1" class="cluster">
<title>cluster_SafeModule</title>
<polygon fill="none" stroke="black" stroke-dasharray="1,5" points="8,-32.8 8,-157.8 8037,-157.8 8037,-32.8 8,-32.8"/>
</g>
<g id="clust4" class="cluster">
<title>cluster_SafeModule_exports</title>
<polygon fill="none" stroke="black" points="16,-97.8 16,-149.8 8029,-149.8 8029,-97.8 16,-97.8"/>
</g>
<!-- SafeAccessModule  -->
<g id="node1" class="node">
<title>SafeAccessModule </title>
<polygon fill="#fb8072" stroke="black" points="8020.58,-141.8 7893.42,-141.8 7893.42,-105.8 8020.58,-105.8 8020.58,-141.8"/>
<text text-anchor="middle" x="7957" y="-119.6" font-family="Times,serif" font-size="14.00">SafeAccessModule </text>
</g>
<!-- SafeAggregationBuilderModule  -->
<g id="node2" class="node">
<title>SafeAggregationBuilderModule </title>
<polygon fill="#fb8072" stroke="black" points="7874.9,-141.8 7675.1,-141.8 7675.1,-105.8 7874.9,-105.8 7874.9,-141.8"/>
<text text-anchor="middle" x="7775" y="-119.6" font-family="Times,serif" font-size="14.00">SafeAggregationBuilderModule </text>
</g>
<!-- SafeApplicationDistributionListsModule  -->
<g id="node3" class="node">
<title>SafeApplicationDistributionListsModule </title>
<polygon fill="#fb8072" stroke="black" points="7657.42,-141.8 7408.58,-141.8 7408.58,-105.8 7657.42,-105.8 7657.42,-141.8"/>
<text text-anchor="middle" x="7533" y="-119.6" font-family="Times,serif" font-size="14.00">SafeApplicationDistributionListsModule </text>
</g>
<!-- SafeApplicationTemplatesModule  -->
<g id="node4" class="node">
<title>SafeApplicationTemplatesModule </title>
<polygon fill="#fb8072" stroke="black" points="7390.34,-141.8 7177.66,-141.8 7177.66,-105.8 7390.34,-105.8 7390.34,-141.8"/>
<text text-anchor="middle" x="7284" y="-119.6" font-family="Times,serif" font-size="14.00">SafeApplicationTemplatesModule </text>
</g>
<!-- SafeApplicationsSummaryModule  -->
<g id="node5" class="node">
<title>SafeApplicationsSummaryModule </title>
<polygon fill="#fb8072" stroke="black" points="7159.91,-141.8 6946.09,-141.8 6946.09,-105.8 7159.91,-105.8 7159.91,-141.8"/>
<text text-anchor="middle" x="7053" y="-119.6" font-family="Times,serif" font-size="14.00">SafeApplicationsSummaryModule </text>
</g>
<!-- SafeButtonModule  -->
<g id="node6" class="node">
<title>SafeButtonModule </title>
<polygon fill="#fb8072" stroke="black" points="6928.04,-141.8 6801.96,-141.8 6801.96,-105.8 6928.04,-105.8 6928.04,-141.8"/>
<text text-anchor="middle" x="6865" y="-119.6" font-family="Times,serif" font-size="14.00">SafeButtonModule </text>
</g>
<!-- SafeChartModule  -->
<g id="node7" class="node">
<title>SafeChartModule </title>
<polygon fill="#fb8072" stroke="black" points="6783.53,-141.8 6664.47,-141.8 6664.47,-105.8 6783.53,-105.8 6783.53,-141.8"/>
<text text-anchor="middle" x="6724" y="-119.6" font-family="Times,serif" font-size="14.00">SafeChartModule </text>
</g>
<!-- SafeChartSettingsModule  -->
<g id="node8" class="node">
<title>SafeChartSettingsModule </title>
<polygon fill="#fb8072" stroke="black" points="6646.15,-141.8 6481.85,-141.8 6481.85,-105.8 6646.15,-105.8 6646.15,-141.8"/>
<text text-anchor="middle" x="6564" y="-119.6" font-family="Times,serif" font-size="14.00">SafeChartSettingsModule </text>
</g>
<!-- SafeContentChoiceModule  -->
<g id="node9" class="node">
<title>SafeContentChoiceModule </title>
<polygon fill="#fb8072" stroke="black" points="6463.91,-141.8 6292.09,-141.8 6292.09,-105.8 6463.91,-105.8 6463.91,-141.8"/>
<text text-anchor="middle" x="6378" y="-119.6" font-family="Times,serif" font-size="14.00">SafeContentChoiceModule </text>
</g>
<!-- SafeConvertModalModule  -->
<g id="node10" class="node">
<title>SafeConvertModalModule </title>
<polygon fill="#fb8072" stroke="black" points="6273.58,-141.8 6104.42,-141.8 6104.42,-105.8 6273.58,-105.8 6273.58,-141.8"/>
<text text-anchor="middle" x="6189" y="-119.6" font-family="Times,serif" font-size="14.00">SafeConvertModalModule </text>
</g>
<!-- SafeDateModule  -->
<g id="node11" class="node">
<title>SafeDateModule </title>
<polygon fill="#fb8072" stroke="black" points="6086.36,-141.8 5971.64,-141.8 5971.64,-105.8 6086.36,-105.8 6086.36,-141.8"/>
<text text-anchor="middle" x="6029" y="-119.6" font-family="Times,serif" font-size="14.00">SafeDateModule </text>
</g>
<!-- SafeDividerModule  -->
<g id="node12" class="node">
<title>SafeDividerModule </title>
<polygon fill="#fb8072" stroke="black" points="5953.19,-141.8 5822.81,-141.8 5822.81,-105.8 5953.19,-105.8 5953.19,-141.8"/>
<text text-anchor="middle" x="5888" y="-119.6" font-family="Times,serif" font-size="14.00">SafeDividerModule </text>
</g>
<!-- SafeEditLayoutModalModule  -->
<g id="node13" class="node">
<title>SafeEditLayoutModalModule </title>
<polygon fill="#fb8072" stroke="black" points="5804.97,-141.8 5617.03,-141.8 5617.03,-105.8 5804.97,-105.8 5804.97,-141.8"/>
<text text-anchor="middle" x="5711" y="-119.6" font-family="Times,serif" font-size="14.00">SafeEditLayoutModalModule </text>
</g>
<!-- SafeEditorModule  -->
<g id="node14" class="node">
<title>SafeEditorModule </title>
<polygon fill="#fb8072" stroke="black" points="5599.42,-141.8 5476.58,-141.8 5476.58,-105.8 5599.42,-105.8 5599.42,-141.8"/>
<text text-anchor="middle" x="5538" y="-119.6" font-family="Times,serif" font-size="14.00">SafeEditorModule </text>
</g>
<!-- SafeEditorSettingsModule  -->
<g id="node15" class="node">
<title>SafeEditorSettingsModule </title>
<polygon fill="#fb8072" stroke="black" points="5459.04,-141.8 5290.96,-141.8 5290.96,-105.8 5459.04,-105.8 5459.04,-141.8"/>
<text text-anchor="middle" x="5375" y="-119.6" font-family="Times,serif" font-size="14.00">SafeEditorSettingsModule </text>
</g>
<!-- SafeEmptyModule  -->
<g id="node16" class="node">
<title>SafeEmptyModule </title>
<polygon fill="#fb8072" stroke="black" points="5272.76,-141.8 5147.24,-141.8 5147.24,-105.8 5272.76,-105.8 5272.76,-141.8"/>
<text text-anchor="middle" x="5210" y="-119.6" font-family="Times,serif" font-size="14.00">SafeEmptyModule </text>
</g>
<!-- SafeFormBuilderModule  -->
<g id="node17" class="node">
<title>SafeFormBuilderModule </title>
<polygon fill="#fb8072" stroke="black" points="5129.26,-141.8 4968.74,-141.8 4968.74,-105.8 5129.26,-105.8 5129.26,-141.8"/>
<text text-anchor="middle" x="5049" y="-119.6" font-family="Times,serif" font-size="14.00">SafeFormBuilderModule </text>
</g>
<!-- SafeFormModule  -->
<g id="node18" class="node">
<title>SafeFormModule </title>
<polygon fill="#fb8072" stroke="black" points="4951.27,-141.8 4832.73,-141.8 4832.73,-105.8 4951.27,-105.8 4951.27,-141.8"/>
<text text-anchor="middle" x="4892" y="-119.6" font-family="Times,serif" font-size="14.00">SafeFormModule </text>
</g>
<!-- SafeGraphQLSelectModule  -->
<g id="node19" class="node">
<title>SafeGraphQLSelectModule </title>
<polygon fill="#fb8072" stroke="black" points="4814.78,-141.8 4639.22,-141.8 4639.22,-105.8 4814.78,-105.8 4814.78,-141.8"/>
<text text-anchor="middle" x="4727" y="-119.6" font-family="Times,serif" font-size="14.00">SafeGraphQLSelectModule </text>
</g>
<!-- SafeGridSettingsModule  -->
<g id="node20" class="node">
<title>SafeGridSettingsModule </title>
<polygon fill="#fb8072" stroke="black" points="4621.21,-141.8 4462.79,-141.8 4462.79,-105.8 4621.21,-105.8 4621.21,-141.8"/>
<text text-anchor="middle" x="4542" y="-119.6" font-family="Times,serif" font-size="14.00">SafeGridSettingsModule </text>
</g>
<!-- SafeGridWidgetModule  -->
<g id="node21" class="node">
<title>SafeGridWidgetModule </title>
<polygon fill="#fb8072" stroke="black" points="4444.3,-141.8 4289.7,-141.8 4289.7,-105.8 4444.3,-105.8 4444.3,-141.8"/>
<text text-anchor="middle" x="4367" y="-119.6" font-family="Times,serif" font-size="14.00">SafeGridWidgetModule </text>
</g>
<!-- SafeIconModule  -->
<g id="node22" class="node">
<title>SafeIconModule </title>
<polygon fill="#fb8072" stroke="black" points="4271.3,-141.8 4158.7,-141.8 4158.7,-105.8 4271.3,-105.8 4271.3,-141.8"/>
<text text-anchor="middle" x="4215" y="-119.6" font-family="Times,serif" font-size="14.00">SafeIconModule </text>
</g>
<!-- SafeLayoutModule  -->
<g id="node23" class="node">
<title>SafeLayoutModule </title>
<polygon fill="#fb8072" stroke="black" points="4140.58,-141.8 4013.42,-141.8 4013.42,-105.8 4140.58,-105.8 4140.58,-141.8"/>
<text text-anchor="middle" x="4077" y="-119.6" font-family="Times,serif" font-size="14.00">SafeLayoutModule </text>
</g>
<!-- SafeLeftSidenavModule  -->
<g id="node24" class="node">
<title>SafeLeftSidenavModule </title>
<polygon fill="#fb8072" stroke="black" points="3995.35,-141.8 3838.65,-141.8 3838.65,-105.8 3995.35,-105.8 3995.35,-141.8"/>
<text text-anchor="middle" x="3917" y="-119.6" font-family="Times,serif" font-size="14.00">SafeLeftSidenavModule </text>
</g>
<!-- SafeMapModule  -->
<g id="node25" class="node">
<title>SafeMapModule </title>
<polygon fill="#fb8072" stroke="black" points="3820.59,-141.8 3707.41,-141.8 3707.41,-105.8 3820.59,-105.8 3820.59,-141.8"/>
<text text-anchor="middle" x="3764" y="-119.6" font-family="Times,serif" font-size="14.00">SafeMapModule </text>
</g>
<!-- SafeMapSettingsModule  -->
<g id="node26" class="node">
<title>SafeMapSettingsModule </title>
<polygon fill="#fb8072" stroke="black" points="3689.21,-141.8 3530.79,-141.8 3530.79,-105.8 3689.21,-105.8 3689.21,-141.8"/>
<text text-anchor="middle" x="3610" y="-119.6" font-family="Times,serif" font-size="14.00">SafeMapSettingsModule </text>
</g>
<!-- SafeModalModule  -->
<g id="node27" class="node">
<title>SafeModalModule </title>
<polygon fill="#fb8072" stroke="black" points="3512.48,-141.8 3387.52,-141.8 3387.52,-105.8 3512.48,-105.8 3512.48,-141.8"/>
<text text-anchor="middle" x="3450" y="-119.6" font-family="Times,serif" font-size="14.00">SafeModalModule </text>
</g>
<!-- SafeProfileModule  -->
<g id="node28" class="node">
<title>SafeProfileModule </title>
<polygon fill="#fb8072" stroke="black" points="3370.03,-141.8 3243.97,-141.8 3243.97,-105.8 3370.03,-105.8 3370.03,-141.8"/>
<text text-anchor="middle" x="3307" y="-119.6" font-family="Times,serif" font-size="14.00">SafeProfileModule </text>
</g>
<!-- SafeRecordHistoryModule  -->
<g id="node29" class="node">
<title>SafeRecordHistoryModule </title>
<polygon fill="#fb8072" stroke="black" points="3226.36,-141.8 3055.64,-141.8 3055.64,-105.8 3226.36,-105.8 3226.36,-141.8"/>
<text text-anchor="middle" x="3141" y="-119.6" font-family="Times,serif" font-size="14.00">SafeRecordHistoryModule </text>
</g>
<!-- SafeRecordModalModule  -->
<g id="node30" class="node">
<title>SafeRecordModalModule </title>
<polygon fill="#fb8072" stroke="black" points="3037.41,-141.8 2872.59,-141.8 2872.59,-105.8 3037.41,-105.8 3037.41,-141.8"/>
<text text-anchor="middle" x="2955" y="-119.6" font-family="Times,serif" font-size="14.00">SafeRecordModalModule </text>
</g>
<!-- SafeRoleSummaryModule  -->
<g id="node31" class="node">
<title>SafeRoleSummaryModule </title>
<polygon fill="#fb8072" stroke="black" points="2854.31,-141.8 2685.69,-141.8 2685.69,-105.8 2854.31,-105.8 2854.31,-141.8"/>
<text text-anchor="middle" x="2770" y="-119.6" font-family="Times,serif" font-size="14.00">SafeRoleSummaryModule </text>
</g>
<!-- SafeRolesModule  -->
<g id="node32" class="node">
<title>SafeRolesModule </title>
<polygon fill="#fb8072" stroke="black" points="2667.82,-141.8 2548.18,-141.8 2548.18,-105.8 2667.82,-105.8 2667.82,-141.8"/>
<text text-anchor="middle" x="2608" y="-119.6" font-family="Times,serif" font-size="14.00">SafeRolesModule </text>
</g>
<!-- SafeSchedulerModule  -->
<g id="node33" class="node">
<title>SafeSchedulerModule </title>
<polygon fill="#fb8072" stroke="black" points="2529.91,-141.8 2386.09,-141.8 2386.09,-105.8 2529.91,-105.8 2529.91,-141.8"/>
<text text-anchor="middle" x="2458" y="-119.6" font-family="Times,serif" font-size="14.00">SafeSchedulerModule </text>
</g>
<!-- SafeSchedulerSettingsModule  -->
<g id="node34" class="node">
<title>SafeSchedulerSettingsModule </title>
<polygon fill="#fb8072" stroke="black" points="2368.52,-141.8 2179.48,-141.8 2179.48,-105.8 2368.52,-105.8 2368.52,-141.8"/>
<text text-anchor="middle" x="2274" y="-119.6" font-family="Times,serif" font-size="14.00">SafeSchedulerSettingsModule </text>
</g>
<!-- SafeSearchMenuModule  -->
<g id="node35" class="node">
<title>SafeSearchMenuModule </title>
<polygon fill="#fb8072" stroke="black" points="2161.18,-141.8 2002.82,-141.8 2002.82,-105.8 2161.18,-105.8 2161.18,-141.8"/>
<text text-anchor="middle" x="2082" y="-119.6" font-family="Times,serif" font-size="14.00">SafeSearchMenuModule </text>
</g>
<!-- SafeSearchResourceGridModalModule  -->
<g id="node36" class="node">
<title>SafeSearchResourceGridModalModule </title>
<polygon fill="#fb8072" stroke="black" points="1984.32,-141.8 1743.68,-141.8 1743.68,-105.8 1984.32,-105.8 1984.32,-141.8"/>
<text text-anchor="middle" x="1864" y="-119.6" font-family="Times,serif" font-size="14.00">SafeSearchResourceGridModalModule </text>
</g>
<!-- SafeSkeletonModule  -->
<g id="node37" class="node">
<title>SafeSkeletonModule </title>
<polygon fill="#fb8072" stroke="black" points="1725.42,-141.8 1588.58,-141.8 1588.58,-105.8 1725.42,-105.8 1725.42,-141.8"/>
<text text-anchor="middle" x="1657" y="-119.6" font-family="Times,serif" font-size="14.00">SafeSkeletonModule </text>
</g>
<!-- SafeSkeletonTableModule  -->
<g id="node38" class="node">
<title>SafeSkeletonTableModule </title>
<polygon fill="#fb8072" stroke="black" points="1570.29,-141.8 1401.71,-141.8 1401.71,-105.8 1570.29,-105.8 1570.29,-141.8"/>
<text text-anchor="middle" x="1486" y="-119.6" font-family="Times,serif" font-size="14.00">SafeSkeletonTableModule </text>
</g>
<!-- SafeSnackbarSpinnerModule  -->
<g id="node39" class="node">
<title>SafeSnackbarSpinnerModule </title>
<polygon fill="#fb8072" stroke="black" points="1383.57,-141.8 1200.43,-141.8 1200.43,-105.8 1383.57,-105.8 1383.57,-141.8"/>
<text text-anchor="middle" x="1292" y="-119.6" font-family="Times,serif" font-size="14.00">SafeSnackbarSpinnerModule </text>
</g>
<!-- SafeStatusModalModule  -->
<g id="node40" class="node">
<title>SafeStatusModalModule </title>
<polygon fill="#fb8072" stroke="black" points="1182.21,-141.8 1023.79,-141.8 1023.79,-105.8 1182.21,-105.8 1182.21,-141.8"/>
<text text-anchor="middle" x="1103" y="-119.6" font-family="Times,serif" font-size="14.00">SafeStatusModalModule </text>
</g>
<!-- SafeTagboxModule  -->
<g id="node41" class="node">
<title>SafeTagboxModule </title>
<polygon fill="#fb8072" stroke="black" points="1005.19,-141.8 874.81,-141.8 874.81,-105.8 1005.19,-105.8 1005.19,-141.8"/>
<text text-anchor="middle" x="940" y="-119.6" font-family="Times,serif" font-size="14.00">SafeTagboxModule </text>
</g>
<!-- SafeUserSummaryModule  -->
<g id="node42" class="node">
<title>SafeUserSummaryModule </title>
<polygon fill="#fb8072" stroke="black" points="856.3,-141.8 687.7,-141.8 687.7,-105.8 856.3,-105.8 856.3,-141.8"/>
<text text-anchor="middle" x="772" y="-119.6" font-family="Times,serif" font-size="14.00">SafeUserSummaryModule </text>
</g>
<!-- SafeUsersModule  -->
<g id="node43" class="node">
<title>SafeUsersModule </title>
<polygon fill="#fb8072" stroke="black" points="669.81,-141.8 550.19,-141.8 550.19,-105.8 669.81,-105.8 669.81,-141.8"/>
<text text-anchor="middle" x="610" y="-119.6" font-family="Times,serif" font-size="14.00">SafeUsersModule </text>
</g>
<!-- SafeWidgetGridModule  -->
<g id="node44" class="node">
<title>SafeWidgetGridModule </title>
<polygon fill="#fb8072" stroke="black" points="532.3,-141.8 377.7,-141.8 377.7,-105.8 532.3,-105.8 532.3,-141.8"/>
<text text-anchor="middle" x="455" y="-119.6" font-family="Times,serif" font-size="14.00">SafeWidgetGridModule </text>
</g>
<!-- SafeWidgetModule  -->
<g id="node45" class="node">
<title>SafeWidgetModule </title>
<polygon fill="#fb8072" stroke="black" points="359.63,-141.8 230.37,-141.8 230.37,-105.8 359.63,-105.8 359.63,-141.8"/>
<text text-anchor="middle" x="295" y="-119.6" font-family="Times,serif" font-size="14.00">SafeWidgetModule </text>
</g>
<!-- SafeWorkflowStepperModule  -->
<g id="node46" class="node">
<title>SafeWorkflowStepperModule </title>
<polygon fill="#fb8072" stroke="black" points="212.23,-141.8 23.77,-141.8 23.77,-105.8 212.23,-105.8 212.23,-141.8"/>
<text text-anchor="middle" x="118" y="-119.6" font-family="Times,serif" font-size="14.00">SafeWorkflowStepperModule </text>
</g>
<!-- SafeModule -->
<g id="node47" class="node">
<title>SafeModule</title>
<polygon fill="#8dd3c7" stroke="black" points="4039.43,-76.8 4036.43,-80.8 4015.43,-80.8 4012.43,-76.8 3954.57,-76.8 3954.57,-40.8 4039.43,-40.8 4039.43,-76.8"/>
<text text-anchor="middle" x="3997" y="-54.6" font-family="Times,serif" font-size="14.00">SafeModule</text>
</g>
<!-- SafeModule&#45;&gt;SafeAccessModule  -->
<g id="edge1" class="edge">
<title>SafeModule&#45;&gt;SafeAccessModule </title>
<path fill="none" stroke="black" stroke-dasharray="5,2" d="M4035.5,-76.88C4035.5,-78.65 4035.5,-79.8 4035.5,-79.8 4035.5,-79.8 7957,-79.8 7957,-79.8 7957,-79.8 7957,-95.65 7957,-95.65"/>
<polygon fill="black" stroke="black" points="7953.5,-95.65 7957,-105.65 7960.5,-95.65 7953.5,-95.65"/>
</g>
<!-- SafeModule&#45;&gt;SafeAggregationBuilderModule  -->
<g id="edge2" class="edge">
<title>SafeModule&#45;&gt;SafeAggregationBuilderModule </title>
<path fill="none" stroke="black" stroke-dasharray="5,2" d="M4031.78,-76.86C4031.78,-81.29 4031.78,-84.8 4031.78,-84.8 4031.78,-84.8 7775,-84.8 7775,-84.8 7775,-84.8 7775,-95.67 7775,-95.67"/>
<polygon fill="black" stroke="black" points="7771.5,-95.67 7775,-105.67 7778.5,-95.67 7771.5,-95.67"/>
</g>
<!-- SafeModule&#45;&gt;SafeApplicationDistributionListsModule  -->
<g id="edge3" class="edge">
<title>SafeModule&#45;&gt;SafeApplicationDistributionListsModule </title>
<path fill="none" stroke="black" stroke-dasharray="5,2" d="M4028.07,-76.99C4028.07,-85.08 4028.07,-92.8 4028.07,-92.8 4028.07,-92.8 7533,-92.8 7533,-92.8 7533,-92.8 7533,-95.77 7533,-95.77"/>
<polygon fill="black" stroke="black" points="7529.5,-95.77 7533,-105.77 7536.5,-95.77 7529.5,-95.77"/>
</g>
<!-- SafeModule&#45;&gt;SafeApplicationTemplatesModule  -->
<g id="edge4" class="edge">
<title>SafeModule&#45;&gt;SafeApplicationTemplatesModule </title>
<path fill="none" stroke="black" stroke-dasharray="5,2" d="M4024.35,-76.93C4024.35,-87.51 4024.35,-98.8 4024.35,-98.8 4024.35,-98.8 7284,-98.8 7284,-98.8 7284,-98.8 7284,-99.48 7284,-99.48"/>
<polygon fill="black" stroke="black" points="7280.5,-95.63 7284,-105.63 7287.5,-95.63 7280.5,-95.63"/>
</g>
<!-- SafeModule&#45;&gt;SafeApplicationsSummaryModule  -->
<g id="edge5" class="edge">
<title>SafeModule&#45;&gt;SafeApplicationsSummaryModule </title>
<path fill="none" stroke="black" stroke-dasharray="5,2" d="M4020.64,-76.84C4020.64,-89.36 4020.64,-103.8 4020.64,-103.8 4020.64,-103.8 7053,-103.8 7053,-103.8 7053,-103.8 7053,-103.98 7053,-103.98"/>
<polygon fill="black" stroke="black" points="7049.5,-95.65 7053,-105.65 7056.5,-95.65 7049.5,-95.65"/>
</g>
<!-- SafeModule&#45;&gt;SafeButtonModule  -->
<g id="edge6" class="edge">
<title>SafeModule&#45;&gt;SafeButtonModule </title>
<path fill="none" stroke="black" stroke-dasharray="5,2" d="M4039.49,-42.8C4395.24,-42.8 6865,-42.8 6865,-42.8 6865,-42.8 6865,-95.42 6865,-95.42"/>
<polygon fill="black" stroke="black" points="6861.5,-95.42 6865,-105.42 6868.5,-95.42 6861.5,-95.42"/>
</g>
<!-- SafeModule&#45;&gt;SafeChartModule  -->
<g id="edge7" class="edge">
<title>SafeModule&#45;&gt;SafeChartModule </title>
<path fill="none" stroke="black" stroke-dasharray="5,2" d="M4039.29,-44.8C4384.3,-44.8 6724,-44.8 6724,-44.8 6724,-44.8 6724,-95.48 6724,-95.48"/>
<polygon fill="black" stroke="black" points="6720.5,-95.48 6724,-105.48 6727.5,-95.48 6720.5,-95.48"/>
</g>
<!-- SafeModule&#45;&gt;SafeChartSettingsModule  -->
<g id="edge8" class="edge">
<title>SafeModule&#45;&gt;SafeChartSettingsModule </title>
<path fill="none" stroke="black" stroke-dasharray="5,2" d="M4039.41,-46.8C4373.17,-46.8 6564,-46.8 6564,-46.8 6564,-46.8 6564,-95.55 6564,-95.55"/>
<polygon fill="black" stroke="black" points="6560.5,-95.55 6564,-105.55 6567.5,-95.55 6560.5,-95.55"/>
</g>
<!-- SafeModule&#45;&gt;SafeContentChoiceModule  -->
<g id="edge9" class="edge">
<title>SafeModule&#45;&gt;SafeContentChoiceModule </title>
<path fill="none" stroke="black" stroke-dasharray="5,2" d="M4039.34,-48.8C4358.78,-48.8 6378,-48.8 6378,-48.8 6378,-48.8 6378,-95.64 6378,-95.64"/>
<polygon fill="black" stroke="black" points="6374.5,-95.64 6378,-105.64 6381.5,-95.64 6374.5,-95.64"/>
</g>
<!-- SafeModule&#45;&gt;SafeConvertModalModule  -->
<g id="edge10" class="edge">
<title>SafeModule&#45;&gt;SafeConvertModalModule </title>
<path fill="none" stroke="black" stroke-dasharray="5,2" d="M4039.32,-50.8C4343.84,-50.8 6189,-50.8 6189,-50.8 6189,-50.8 6189,-95.76 6189,-95.76"/>
<polygon fill="black" stroke="black" points="6185.5,-95.76 6189,-105.76 6192.5,-95.76 6185.5,-95.76"/>
</g>
<!-- SafeModule&#45;&gt;SafeDateModule  -->
<g id="edge11" class="edge">
<title>SafeModule&#45;&gt;SafeDateModule </title>
<path fill="none" stroke="black" stroke-dasharray="5,2" d="M4039.44,-52.8C4331.24,-52.8 6029,-52.8 6029,-52.8 6029,-52.8 6029,-95.52 6029,-95.52"/>
<polygon fill="black" stroke="black" points="6025.5,-95.52 6029,-105.52 6032.5,-95.52 6025.5,-95.52"/>
</g>
<!-- SafeModule&#45;&gt;SafeDividerModule  -->
<g id="edge12" class="edge">
<title>SafeModule&#45;&gt;SafeDividerModule </title>
<path fill="none" stroke="black" stroke-dasharray="5,2" d="M4039.6,-54.8C4319.84,-54.8 5888,-54.8 5888,-54.8 5888,-54.8 5888,-95.67 5888,-95.67"/>
<polygon fill="black" stroke="black" points="5884.5,-95.67 5888,-105.67 5891.5,-95.67 5884.5,-95.67"/>
</g>
<!-- SafeModule&#45;&gt;SafeEditLayoutModalModule  -->
<g id="edge13" class="edge">
<title>SafeModule&#45;&gt;SafeEditLayoutModalModule </title>
<path fill="none" stroke="black" stroke-dasharray="5,2" d="M4039.37,-56.8C4303.31,-56.8 5711,-56.8 5711,-56.8 5711,-56.8 5711,-95.49 5711,-95.49"/>
<polygon fill="black" stroke="black" points="5707.5,-95.49 5711,-105.49 5714.5,-95.49 5707.5,-95.49"/>
</g>
<!-- SafeModule&#45;&gt;SafeEditorModule  -->
<g id="edge14" class="edge">
<title>SafeModule&#45;&gt;SafeEditorModule </title>
<path fill="none" stroke="black" stroke-dasharray="5,2" d="M4039.42,-58.8C4287.35,-58.8 5538,-58.8 5538,-58.8 5538,-58.8 5538,-95.69 5538,-95.69"/>
<polygon fill="black" stroke="black" points="5534.5,-95.69 5538,-105.69 5541.5,-95.69 5534.5,-95.69"/>
</g>
<!-- SafeModule&#45;&gt;SafeEditorSettingsModule  -->
<g id="edge15" class="edge">
<title>SafeModule&#45;&gt;SafeEditorSettingsModule </title>
<path fill="none" stroke="black" stroke-dasharray="5,2" d="M4039.37,-60.8C4271.14,-60.8 5375,-60.8 5375,-60.8 5375,-60.8 5375,-95.58 5375,-95.58"/>
<polygon fill="black" stroke="black" points="5371.5,-95.58 5375,-105.58 5378.5,-95.58 5371.5,-95.58"/>
</g>
<!-- SafeModule&#45;&gt;SafeEmptyModule  -->
<g id="edge16" class="edge">
<title>SafeModule&#45;&gt;SafeEmptyModule </title>
<path fill="none" stroke="black" stroke-dasharray="5,2" d="M4039.46,-62.8C4254.15,-62.8 5210,-62.8 5210,-62.8 5210,-62.8 5210,-95.5 5210,-95.5"/>
<polygon fill="black" stroke="black" points="5206.5,-95.5 5210,-105.5 5213.5,-95.5 5206.5,-95.5"/>
</g>
<!-- SafeModule&#45;&gt;SafeFormBuilderModule  -->
<g id="edge17" class="edge">
<title>SafeModule&#45;&gt;SafeFormBuilderModule </title>
<path fill="none" stroke="black" stroke-dasharray="5,2" d="M4039.22,-64.8C4235.45,-64.8 5049,-64.8 5049,-64.8 5049,-64.8 5049,-95.78 5049,-95.78"/>
<polygon fill="black" stroke="black" points="5045.5,-95.78 5049,-105.78 5052.5,-95.78 5045.5,-95.78"/>
</g>
<!-- SafeModule&#45;&gt;SafeFormModule  -->
<g id="edge18" class="edge">
<title>SafeModule&#45;&gt;SafeFormModule </title>
<path fill="none" stroke="black" stroke-dasharray="5,2" d="M4039.27,-66.8C4216.67,-66.8 4892,-66.8 4892,-66.8 4892,-66.8 4892,-95.76 4892,-95.76"/>
<polygon fill="black" stroke="black" points="4888.5,-95.76 4892,-105.76 4895.5,-95.76 4888.5,-95.76"/>
</g>
<!-- SafeModule&#45;&gt;SafeGraphQLSelectModule  -->
<g id="edge19" class="edge">
<title>SafeModule&#45;&gt;SafeGraphQLSelectModule </title>
<path fill="none" stroke="black" stroke-dasharray="5,2" d="M4039.4,-68.8C4195.2,-68.8 4727,-68.8 4727,-68.8 4727,-68.8 4727,-95.79 4727,-95.79"/>
<polygon fill="black" stroke="black" points="4723.5,-95.79 4727,-105.79 4730.5,-95.79 4723.5,-95.79"/>
</g>
<!-- SafeModule&#45;&gt;SafeGridSettingsModule  -->
<g id="edge20" class="edge">
<title>SafeModule&#45;&gt;SafeGridSettingsModule </title>
<path fill="none" stroke="black" stroke-dasharray="5,2" d="M4039.31,-70.8C4167.36,-70.8 4542,-70.8 4542,-70.8 4542,-70.8 4542,-95.56 4542,-95.56"/>
<polygon fill="black" stroke="black" points="4538.5,-95.56 4542,-105.56 4545.5,-95.56 4538.5,-95.56"/>
</g>
<!-- SafeModule&#45;&gt;SafeGridWidgetModule  -->
<g id="edge21" class="edge">
<title>SafeModule&#45;&gt;SafeGridWidgetModule </title>
<path fill="none" stroke="black" stroke-dasharray="5,2" d="M4039.44,-72.8C4136.63,-72.8 4367,-72.8 4367,-72.8 4367,-72.8 4367,-95.68 4367,-95.68"/>
<polygon fill="black" stroke="black" points="4363.5,-95.68 4367,-105.68 4370.5,-95.68 4363.5,-95.68"/>
</g>
<!-- SafeModule&#45;&gt;SafeIconModule  -->
<g id="edge22" class="edge">
<title>SafeModule&#45;&gt;SafeIconModule </title>
<path fill="none" stroke="black" stroke-dasharray="5,2" d="M4039.29,-74.8C4102.69,-74.8 4215,-74.8 4215,-74.8 4215,-74.8 4215,-95.55 4215,-95.55"/>
<polygon fill="black" stroke="black" points="4211.5,-95.55 4215,-105.55 4218.5,-95.55 4211.5,-95.55"/>
</g>
<!-- SafeModule&#45;&gt;SafeLayoutModule  -->
<g id="edge23" class="edge">
<title>SafeModule&#45;&gt;SafeLayoutModule </title>
<path fill="none" stroke="black" stroke-dasharray="5,2" d="M4016.92,-76.91C4016.92,-76.91 4016.92,-95.79 4016.92,-95.79"/>
<polygon fill="black" stroke="black" points="4013.42,-95.79 4016.92,-105.79 4020.42,-95.79 4013.42,-95.79"/>
</g>
<!-- SafeModule&#45;&gt;SafeLeftSidenavModule  -->
<g id="edge24" class="edge">
<title>SafeModule&#45;&gt;SafeLeftSidenavModule </title>
<path fill="none" stroke="black" stroke-dasharray="5,2" d="M3989.4,-76.91C3989.4,-76.91 3989.4,-95.79 3989.4,-95.79"/>
<polygon fill="black" stroke="black" points="3985.9,-95.79 3989.4,-105.79 3992.9,-95.79 3985.9,-95.79"/>
</g>
<!-- SafeModule&#45;&gt;SafeMapModule  -->
<g id="edge25" class="edge">
<title>SafeModule&#45;&gt;SafeMapModule </title>
<path fill="none" stroke="black" stroke-dasharray="5,2" d="M3954.54,-74.8C3887.33,-74.8 3764,-74.8 3764,-74.8 3764,-74.8 3764,-95.55 3764,-95.55"/>
<polygon fill="black" stroke="black" points="3760.5,-95.55 3764,-105.55 3767.5,-95.55 3760.5,-95.55"/>
</g>
<!-- SafeModule&#45;&gt;SafeMapSettingsModule  -->
<g id="edge26" class="edge">
<title>SafeModule&#45;&gt;SafeMapSettingsModule </title>
<path fill="none" stroke="black" stroke-dasharray="5,2" d="M3954.48,-72.8C3853.95,-72.8 3610,-72.8 3610,-72.8 3610,-72.8 3610,-95.68 3610,-95.68"/>
<polygon fill="black" stroke="black" points="3606.5,-95.68 3610,-105.68 3613.5,-95.68 3606.5,-95.68"/>
</g>
<!-- SafeModule&#45;&gt;SafeModalModule  -->
<g id="edge27" class="edge">
<title>SafeModule&#45;&gt;SafeModalModule </title>
<path fill="none" stroke="black" stroke-dasharray="5,2" d="M3954.53,-70.8C3826.01,-70.8 3450,-70.8 3450,-70.8 3450,-70.8 3450,-95.56 3450,-95.56"/>
<polygon fill="black" stroke="black" points="3446.5,-95.56 3450,-105.56 3453.5,-95.56 3446.5,-95.56"/>
</g>
<!-- SafeModule&#45;&gt;SafeProfileModule  -->
<g id="edge28" class="edge">
<title>SafeModule&#45;&gt;SafeProfileModule </title>
<path fill="none" stroke="black" stroke-dasharray="5,2" d="M3954.62,-68.8C3804.49,-68.8 3307,-68.8 3307,-68.8 3307,-68.8 3307,-95.79 3307,-95.79"/>
<polygon fill="black" stroke="black" points="3303.5,-95.79 3307,-105.79 3310.5,-95.79 3303.5,-95.79"/>
</g>
<!-- SafeModule&#45;&gt;SafeRecordHistoryModule  -->
<g id="edge29" class="edge">
<title>SafeModule&#45;&gt;SafeRecordHistoryModule </title>
<path fill="none" stroke="black" stroke-dasharray="5,2" d="M3954.55,-66.8C3781.83,-66.8 3141,-66.8 3141,-66.8 3141,-66.8 3141,-95.76 3141,-95.76"/>
<polygon fill="black" stroke="black" points="3137.5,-95.76 3141,-105.76 3144.5,-95.76 3137.5,-95.76"/>
</g>
<!-- SafeModule&#45;&gt;SafeRecordModalModule  -->
<g id="edge30" class="edge">
<title>SafeModule&#45;&gt;SafeRecordModalModule </title>
<path fill="none" stroke="black" stroke-dasharray="5,2" d="M3954.54,-64.8C3759.03,-64.8 2955,-64.8 2955,-64.8 2955,-64.8 2955,-95.78 2955,-95.78"/>
<polygon fill="black" stroke="black" points="2951.5,-95.78 2955,-105.78 2958.5,-95.78 2951.5,-95.78"/>
</g>
<!-- SafeModule&#45;&gt;SafeRoleSummaryModule  -->
<g id="edge31" class="edge">
<title>SafeModule&#45;&gt;SafeRoleSummaryModule </title>
<path fill="none" stroke="black" stroke-dasharray="5,2" d="M3954.76,-62.8C3739.01,-62.8 2770,-62.8 2770,-62.8 2770,-62.8 2770,-95.5 2770,-95.5"/>
<polygon fill="black" stroke="black" points="2766.5,-95.5 2770,-105.5 2773.5,-95.5 2766.5,-95.5"/>
</g>
<!-- SafeModule&#45;&gt;SafeRolesModule  -->
<g id="edge32" class="edge">
<title>SafeModule&#45;&gt;SafeRolesModule </title>
<path fill="none" stroke="black" stroke-dasharray="5,2" d="M3954.67,-60.8C3721.89,-60.8 2608,-60.8 2608,-60.8 2608,-60.8 2608,-95.58 2608,-95.58"/>
<polygon fill="black" stroke="black" points="2604.5,-95.58 2608,-105.58 2611.5,-95.58 2604.5,-95.58"/>
</g>
<!-- SafeModule&#45;&gt;SafeSchedulerModule  -->
<g id="edge33" class="edge">
<title>SafeModule&#45;&gt;SafeSchedulerModule </title>
<path fill="none" stroke="black" stroke-dasharray="5,2" d="M3954.64,-58.8C3707.03,-58.8 2458,-58.8 2458,-58.8 2458,-58.8 2458,-95.69 2458,-95.69"/>
<polygon fill="black" stroke="black" points="2454.5,-95.69 2458,-105.69 2461.5,-95.69 2454.5,-95.69"/>
</g>
<!-- SafeModule&#45;&gt;SafeSchedulerSettingsModule  -->
<g id="edge34" class="edge">
<title>SafeModule&#45;&gt;SafeSchedulerSettingsModule </title>
<path fill="none" stroke="black" stroke-dasharray="5,2" d="M3954.41,-56.8C3689.08,-56.8 2274,-56.8 2274,-56.8 2274,-56.8 2274,-95.49 2274,-95.49"/>
<polygon fill="black" stroke="black" points="2270.5,-95.49 2274,-105.49 2277.5,-95.49 2270.5,-95.49"/>
</g>
<!-- SafeModule&#45;&gt;SafeSearchMenuModule  -->
<g id="edge35" class="edge">
<title>SafeModule&#45;&gt;SafeSearchMenuModule </title>
<path fill="none" stroke="black" stroke-dasharray="5,2" d="M3954.77,-54.8C3673.47,-54.8 2082,-54.8 2082,-54.8 2082,-54.8 2082,-95.67 2082,-95.67"/>
<polygon fill="black" stroke="black" points="2078.5,-95.67 2082,-105.67 2085.5,-95.67 2078.5,-95.67"/>
</g>
<!-- SafeModule&#45;&gt;SafeSearchResourceGridModalModule  -->
<g id="edge36" class="edge">
<title>SafeModule&#45;&gt;SafeSearchResourceGridModalModule </title>
<path fill="none" stroke="black" stroke-dasharray="5,2" d="M3954.39,-52.8C3653.77,-52.8 1864,-52.8 1864,-52.8 1864,-52.8 1864,-95.52 1864,-95.52"/>
<polygon fill="black" stroke="black" points="1860.5,-95.52 1864,-105.52 1867.5,-95.52 1860.5,-95.52"/>
</g>
<!-- SafeModule&#45;&gt;SafeSkeletonModule  -->
<g id="edge37" class="edge">
<title>SafeModule&#45;&gt;SafeSkeletonModule </title>
<path fill="none" stroke="black" stroke-dasharray="5,2" d="M3954.64,-50.8C3638.29,-50.8 1657,-50.8 1657,-50.8 1657,-50.8 1657,-95.76 1657,-95.76"/>
<polygon fill="black" stroke="black" points="1653.5,-95.76 1657,-105.76 1660.5,-95.76 1653.5,-95.76"/>
</g>
<!-- SafeModule&#45;&gt;SafeSkeletonTableModule  -->
<g id="edge38" class="edge">
<title>SafeModule&#45;&gt;SafeSkeletonTableModule </title>
<path fill="none" stroke="black" stroke-dasharray="5,2" d="M3954.73,-48.8C3625.64,-48.8 1486,-48.8 1486,-48.8 1486,-48.8 1486,-95.64 1486,-95.64"/>
<polygon fill="black" stroke="black" points="1482.5,-95.64 1486,-105.64 1489.5,-95.64 1482.5,-95.64"/>
</g>
<!-- SafeModule&#45;&gt;SafeSnackbarSpinnerModule  -->
<g id="edge39" class="edge">
<title>SafeModule&#45;&gt;SafeSnackbarSpinnerModule </title>
<path fill="none" stroke="black" stroke-dasharray="5,2" d="M3954.78,-46.8C3611.6,-46.8 1292,-46.8 1292,-46.8 1292,-46.8 1292,-95.55 1292,-95.55"/>
<polygon fill="black" stroke="black" points="1288.5,-95.55 1292,-105.55 1295.5,-95.55 1288.5,-95.55"/>
</g>
<!-- SafeModule&#45;&gt;SafeStatusModalModule  -->
<g id="edge40" class="edge">
<title>SafeModule&#45;&gt;SafeStatusModalModule </title>
<path fill="none" stroke="black" stroke-dasharray="5,2" d="M3954.69,-44.8C3597.77,-44.8 1103,-44.8 1103,-44.8 1103,-44.8 1103,-95.48 1103,-95.48"/>
<polygon fill="black" stroke="black" points="1099.5,-95.48 1103,-105.48 1106.5,-95.48 1099.5,-95.48"/>
</g>
<!-- SafeModule&#45;&gt;SafeTagboxModule  -->
<g id="edge41" class="edge">
<title>SafeModule&#45;&gt;SafeTagboxModule </title>
<path fill="none" stroke="black" stroke-dasharray="5,2" d="M3954.66,-42.8C3586.39,-42.8 940,-42.8 940,-42.8 940,-42.8 940,-95.42 940,-95.42"/>
<polygon fill="black" stroke="black" points="936.5,-95.42 940,-105.42 943.5,-95.42 936.5,-95.42"/>
</g>
<!-- SafeModule&#45;&gt;SafeUserSummaryModule  -->
<g id="edge42" class="edge">
<title>SafeModule&#45;&gt;SafeUserSummaryModule </title>
<path fill="none" stroke="black" stroke-dasharray="5,2" d="M3983.63,-76.86C3983.63,-88.24 3983.63,-100.8 3983.63,-100.8 3983.63,-100.8 772,-100.8 772,-100.8 772,-100.8 772,-101.29 772,-101.29"/>
<polygon fill="black" stroke="black" points="768.5,-95.68 772,-105.68 775.5,-95.68 768.5,-95.68"/>
</g>
<!-- SafeModule&#45;&gt;SafeUsersModule  -->
<g id="edge43" class="edge">
<title>SafeModule&#45;&gt;SafeUsersModule </title>
<path fill="none" stroke="black" stroke-dasharray="5,2" d="M3977.87,-76.87C3977.87,-86.26 3977.87,-95.8 3977.87,-95.8 3977.87,-95.8 610,-95.8 610,-95.8 610,-95.8 610,-96.78 610,-96.78"/>
<polygon fill="black" stroke="black" points="606.5,-95.59 610,-105.59 613.5,-95.59 606.5,-95.59"/>
</g>
<!-- SafeModule&#45;&gt;SafeWidgetGridModule  -->
<g id="edge44" class="edge">
<title>SafeModule&#45;&gt;SafeWidgetGridModule </title>
<path fill="none" stroke="black" stroke-dasharray="5,2" d="M3972.1,-77.04C3972.1,-84.23 3972.1,-90.8 3972.1,-90.8 3972.1,-90.8 455,-90.8 455,-90.8 455,-90.8 455,-95.76 455,-95.76"/>
<polygon fill="black" stroke="black" points="451.5,-95.76 455,-105.76 458.5,-95.76 451.5,-95.76"/>
</g>
<!-- SafeModule&#45;&gt;SafeWidgetModule  -->
<g id="edge45" class="edge">
<title>SafeModule&#45;&gt;SafeWidgetModule </title>
<path fill="none" stroke="black" stroke-dasharray="5,2" d="M3966.33,-77C3966.33,-82.83 3966.33,-87.8 3966.33,-87.8 3966.33,-87.8 295,-87.8 295,-87.8 295,-87.8 295,-95.38 295,-95.38"/>
<polygon fill="black" stroke="black" points="291.5,-95.38 295,-105.38 298.5,-95.38 291.5,-95.38"/>
</g>
<!-- SafeModule&#45;&gt;SafeWorkflowStepperModule  -->
<g id="edge46" class="edge">
<title>SafeModule&#45;&gt;SafeWorkflowStepperModule </title>
<path fill="none" stroke="black" stroke-dasharray="5,2" d="M3960.56,-76.99C3960.56,-80.34 3960.56,-82.8 3960.56,-82.8 3960.56,-82.8 118,-82.8 118,-82.8 118,-82.8 118,-95.7 118,-95.7"/>
<polygon fill="black" stroke="black" points="114.5,-95.7 118,-105.7 121.5,-95.7 114.5,-95.7"/>
</g>
</g>
</svg>
