<?xml version="1.0" encoding="UTF-8" standalone="no"?>
<!DOCTYPE svg PUBLIC "-//W3C//DTD SVG 1.1//EN"
 "http://www.w3.org/Graphics/SVG/1.1/DTD/svg11.dtd">
<!-- Generated by graphviz version 3.0.0 (20220226.1711)
 -->
<!-- Title: dependencies Pages: 1 -->
<svg width="1004pt" height="247pt"
 viewBox="0.00 0.00 1004.00 246.80" xmlns="http://www.w3.org/2000/svg" xmlns:xlink="http://www.w3.org/1999/xlink">
<g id="graph0" class="graph" transform="scale(1 1) rotate(0) translate(4 242.8)">
<title>dependencies</title>
<polygon fill="white" stroke="transparent" points="-4,4 -4,-242.8 1000,-242.8 1000,4 -4,4"/>
<text text-anchor="middle" x="498" y="-8.2" font-family="sans-serif" font-size="14.00">dependencies</text>
<g id="clust1" class="cluster">
<title>cluster_SafeWorkflowStepperModule</title>
<polygon fill="none" stroke="black" stroke-dasharray="1,5" points="8,-32.8 8,-230.8 988,-230.8 988,-32.8 8,-32.8"/>
</g>
<g id="clust6" class="cluster">
<title>cluster_SafeWorkflowStepperModule_imports</title>
<polygon fill="none" stroke="black" points="569,-40.8 569,-92.8 980,-92.8 980,-40.8 569,-40.8"/>
</g>
<g id="clust7" class="cluster">
<title>cluster_SafeWorkflowStepperModule_exports</title>
<polygon fill="none" stroke="black" points="250,-170.8 250,-222.8 805,-222.8 805,-170.8 250,-170.8"/>
</g>
<g id="clust2" class="cluster">
<title>cluster_SafeWorkflowStepperModule_declarations</title>
<polygon fill="none" stroke="black" points="16,-40.8 16,-92.8 561,-92.8 561,-40.8 16,-40.8"/>
</g>
<!-- SafeAddStepComponent -->
<g id="node1" class="node">
<title>SafeAddStepComponent</title>
<polygon fill="#ffffb3" stroke="black" points="552.71,-84.8 397.29,-84.8 397.29,-48.8 552.71,-48.8 552.71,-84.8"/>
<text text-anchor="middle" x="475" y="-62.6" font-family="Times,serif" font-size="14.00">SafeAddStepComponent</text>
</g>
<!-- SafeWorkflowStepperModule -->
<g id="node4" class="node">
<title>SafeWorkflowStepperModule</title>
<polygon fill="#8dd3c7" stroke="black" points="645.23,-149.8 642.23,-153.8 621.23,-153.8 618.23,-149.8 460.77,-149.8 460.77,-113.8 645.23,-113.8 645.23,-149.8"/>
<text text-anchor="middle" x="553" y="-127.6" font-family="Times,serif" font-size="14.00">SafeWorkflowStepperModule</text>
</g>
<!-- SafeAddStepComponent&#45;&gt;SafeWorkflowStepperModule -->
<g id="edge1" class="edge">
<title>SafeAddStepComponent&#45;&gt;SafeWorkflowStepperModule</title>
<path fill="none" stroke="black" d="M506.62,-84.91C506.62,-84.91 506.62,-103.79 506.62,-103.79"/>
<polygon fill="black" stroke="black" points="503.12,-103.79 506.62,-113.79 510.12,-103.79 503.12,-103.79"/>
</g>
<!-- SafeStepComponent -->
<g id="node2" class="node">
<title>SafeStepComponent</title>
<polygon fill="#ffffb3" stroke="black" points="379.6,-84.8 248.4,-84.8 248.4,-48.8 379.6,-48.8 379.6,-84.8"/>
<text text-anchor="middle" x="314" y="-62.6" font-family="Times,serif" font-size="14.00">SafeStepComponent</text>
</g>
<!-- SafeStepComponent&#45;&gt;SafeWorkflowStepperModule -->
<g id="edge2" class="edge">
<title>SafeStepComponent&#45;&gt;SafeWorkflowStepperModule</title>
<path fill="none" stroke="black" d="M318.77,-84.82C318.77,-102.17 318.77,-125.8 318.77,-125.8 318.77,-125.8 450.76,-125.8 450.76,-125.8"/>
<polygon fill="black" stroke="black" points="450.76,-129.3 460.76,-125.8 450.76,-122.3 450.76,-129.3"/>
</g>
<!-- SafeWorkflowStepperComponent -->
<g id="node3" class="node">
<title>SafeWorkflowStepperComponent</title>
<polygon fill="#ffffb3" stroke="black" points="230.01,-84.8 23.99,-84.8 23.99,-48.8 230.01,-48.8 230.01,-84.8"/>
<text text-anchor="middle" x="127" y="-62.6" font-family="Times,serif" font-size="14.00">SafeWorkflowStepperComponent</text>
</g>
<!-- SafeWorkflowStepperComponent&#45;&gt;SafeWorkflowStepperModule -->
<g id="edge3" class="edge">
<title>SafeWorkflowStepperComponent&#45;&gt;SafeWorkflowStepperModule</title>
<path fill="none" stroke="black" d="M127,-85.08C127,-106.12 127,-137.8 127,-137.8 127,-137.8 450.56,-137.8 450.56,-137.8"/>
<polygon fill="black" stroke="black" points="450.56,-141.3 460.56,-137.8 450.56,-134.3 450.56,-141.3"/>
</g>
<!-- SafeAddStepComponent  -->
<g id="node8" class="node">
<title>SafeAddStepComponent </title>
<polygon fill="#fb8072" stroke="black" points="797.21,-214.8 638.79,-214.8 638.79,-178.8 797.21,-178.8 797.21,-214.8"/>
<text text-anchor="middle" x="718" y="-192.6" font-family="Times,serif" font-size="14.00">SafeAddStepComponent </text>
</g>
<!-- SafeWorkflowStepperModule&#45;&gt;SafeAddStepComponent  -->
<g id="edge7" class="edge">
<title>SafeWorkflowStepperModule&#45;&gt;SafeAddStepComponent </title>
<path fill="none" stroke="black" stroke-dasharray="5,2" d="M629.47,-149.91C629.47,-169.14 629.47,-196.8 629.47,-196.8 629.47,-196.8 630.39,-196.8 630.39,-196.8"/>
<polygon fill="black" stroke="black" points="628.61,-200.3 638.61,-196.8 628.61,-193.3 628.61,-200.3"/>
</g>
<!-- SafeStepComponent  -->
<g id="node9" class="node">
<title>SafeStepComponent </title>
<polygon fill="#fb8072" stroke="black" points="620.1,-214.8 485.9,-214.8 485.9,-178.8 620.1,-178.8 620.1,-214.8"/>
<text text-anchor="middle" x="553" y="-192.6" font-family="Times,serif" font-size="14.00">SafeStepComponent </text>
</g>
<!-- SafeWorkflowStepperModule&#45;&gt;SafeStepComponent  -->
<g id="edge8" class="edge">
<title>SafeWorkflowStepperModule&#45;&gt;SafeStepComponent </title>
<path fill="none" stroke="black" stroke-dasharray="5,2" d="M553,-149.91C553,-149.91 553,-168.79 553,-168.79"/>
<polygon fill="black" stroke="black" points="549.5,-168.79 553,-178.79 556.5,-168.79 549.5,-168.79"/>
</g>
<!-- SafeWorkflowStepperComponent  -->
<g id="node10" class="node">
<title>SafeWorkflowStepperComponent </title>
<polygon fill="#fb8072" stroke="black" points="468.01,-214.8 257.99,-214.8 257.99,-178.8 468.01,-178.8 468.01,-214.8"/>
<text text-anchor="middle" x="363" y="-192.6" font-family="Times,serif" font-size="14.00">SafeWorkflowStepperComponent </text>
</g>
<!-- SafeWorkflowStepperModule&#45;&gt;SafeWorkflowStepperComponent  -->
<g id="edge9" class="edge">
<title>SafeWorkflowStepperModule&#45;&gt;SafeWorkflowStepperComponent </title>
<path fill="none" stroke="black" stroke-dasharray="5,2" d="M464.32,-149.91C464.32,-149.91 464.32,-168.79 464.32,-168.79"/>
<polygon fill="black" stroke="black" points="460.82,-168.79 464.32,-178.79 467.82,-168.79 460.82,-168.79"/>
</g>
<!-- SafeButtonModule -->
<g id="node5" class="node">
<title>SafeButtonModule</title>
<polygon fill="#8dd3c7" stroke="black" points="972.05,-84.8 969.05,-88.8 948.05,-88.8 945.05,-84.8 849.95,-84.8 849.95,-48.8 972.05,-48.8 972.05,-84.8"/>
<text text-anchor="middle" x="911" y="-62.6" font-family="Times,serif" font-size="14.00">SafeButtonModule</text>
</g>
<!-- SafeButtonModule&#45;&gt;SafeWorkflowStepperModule -->
<g id="edge4" class="edge">
<title>SafeButtonModule&#45;&gt;SafeWorkflowStepperModule</title>
<path fill="none" stroke="black" d="M911,-85.08C911,-106.12 911,-137.8 911,-137.8 911,-137.8 655.66,-137.8 655.66,-137.8"/>
<polygon fill="black" stroke="black" points="655.66,-134.3 645.66,-137.8 655.66,-141.3 655.66,-134.3"/>
</g>
<!-- SafeDividerModule -->
<g id="node6" class="node">
<title>SafeDividerModule</title>
<polygon fill="#8dd3c7" stroke="black" points="831.69,-84.8 828.69,-88.8 807.69,-88.8 804.69,-84.8 704.31,-84.8 704.31,-48.8 831.69,-48.8 831.69,-84.8"/>
<text text-anchor="middle" x="768" y="-62.6" font-family="Times,serif" font-size="14.00">SafeDividerModule</text>
</g>
<!-- SafeDividerModule&#45;&gt;SafeWorkflowStepperModule -->
<g id="edge5" class="edge">
<title>SafeDividerModule&#45;&gt;SafeWorkflowStepperModule</title>
<path fill="none" stroke="black" d="M750.88,-84.82C750.88,-102.17 750.88,-125.8 750.88,-125.8 750.88,-125.8 655.28,-125.8 655.28,-125.8"/>
<polygon fill="black" stroke="black" points="655.28,-122.3 645.28,-125.8 655.28,-129.3 655.28,-122.3"/>
</g>
<!-- SafeIconModule -->
<g id="node7" class="node">
<title>SafeIconModule</title>
<polygon fill="#8dd3c7" stroke="black" points="686.8,-84.8 683.8,-88.8 662.8,-88.8 659.8,-84.8 577.2,-84.8 577.2,-48.8 686.8,-48.8 686.8,-84.8"/>
<text text-anchor="middle" x="632" y="-62.6" font-family="Times,serif" font-size="14.00">SafeIconModule</text>
</g>
<!-- SafeIconModule&#45;&gt;SafeWorkflowStepperModule -->
<g id="edge6" class="edge">
<title>SafeIconModule&#45;&gt;SafeWorkflowStepperModule</title>
<path fill="none" stroke="black" d="M611.36,-84.91C611.36,-84.91 611.36,-103.79 611.36,-103.79"/>
<polygon fill="black" stroke="black" points="607.86,-103.79 611.36,-113.79 614.86,-103.79 607.86,-103.79"/>
</g>
</g>
</svg>
