<?xml version="1.0" encoding="UTF-8" standalone="no"?>
<!DOCTYPE svg PUBLIC "-//W3C//DTD SVG 1.1//EN"
 "http://www.w3.org/Graphics/SVG/1.1/DTD/svg11.dtd">
<!-- Generated by graphviz version 3.0.0 (20220226.1711)
 -->
<!-- Title: dependencies Pages: 1 -->
<svg width="334pt" height="247pt"
 viewBox="0.00 0.00 334.00 246.80" xmlns="http://www.w3.org/2000/svg" xmlns:xlink="http://www.w3.org/1999/xlink">
<g id="graph0" class="graph" transform="scale(1 1) rotate(0) translate(4 242.8)">
<title>dependencies</title>
<polygon fill="white" stroke="transparent" points="-4,4 -4,-242.8 330,-242.8 330,4 -4,4"/>
<text text-anchor="middle" x="163" y="-8.2" font-family="sans-serif" font-size="14.00">dependencies</text>
<g id="clust1" class="cluster">
<title>cluster_SafeAvatarModule</title>
<polygon fill="none" stroke="black" stroke-dasharray="1,5" points="8,-32.8 8,-230.8 318,-230.8 318,-32.8 8,-32.8"/>
</g>
<g id="clust2" class="cluster">
<title>cluster_SafeAvatarModule_declarations</title>
<polygon fill="none" stroke="black" points="150,-40.8 150,-92.8 310,-92.8 310,-40.8 150,-40.8"/>
</g>
<g id="clust4" class="cluster">
<title>cluster_SafeAvatarModule_imports</title>
<polygon fill="none" stroke="black" points="16,-40.8 16,-92.8 142,-92.8 142,-40.8 16,-40.8"/>
</g>
<g id="clust5" class="cluster">
<title>cluster_SafeAvatarModule_exports</title>
<polygon fill="none" stroke="black" points="81,-170.8 81,-222.8 245,-222.8 245,-170.8 81,-170.8"/>
</g>
<!-- SafeAvatarComponent -->
<g id="node1" class="node">
<title>SafeAvatarComponent</title>
<polygon fill="#ffffb3" stroke="black" points="302.3,-84.8 157.7,-84.8 157.7,-48.8 302.3,-48.8 302.3,-84.8"/>
<text text-anchor="middle" x="230" y="-62.6" font-family="Times,serif" font-size="14.00">SafeAvatarComponent</text>
</g>
<!-- SafeAvatarModule -->
<g id="node2" class="node">
<title>SafeAvatarModule</title>
<polygon fill="#8dd3c7" stroke="black" points="224.02,-149.8 221.02,-153.8 200.02,-153.8 197.02,-149.8 101.98,-149.8 101.98,-113.8 224.02,-113.8 224.02,-149.8"/>
<text text-anchor="middle" x="163" y="-127.6" font-family="Times,serif" font-size="14.00">SafeAvatarModule</text>
</g>
<!-- SafeAvatarComponent&#45;&gt;SafeAvatarModule -->
<g id="edge1" class="edge">
<title>SafeAvatarComponent&#45;&gt;SafeAvatarModule</title>
<path fill="none" stroke="black" d="M191.06,-84.91C191.06,-84.91 191.06,-103.79 191.06,-103.79"/>
<polygon fill="black" stroke="black" points="187.56,-103.79 191.06,-113.79 194.56,-103.79 187.56,-103.79"/>
</g>
<!-- SafeAvatarComponent  -->
<g id="node4" class="node">
<title>SafeAvatarComponent </title>
<polygon fill="#fb8072" stroke="black" points="236.8,-214.8 89.2,-214.8 89.2,-178.8 236.8,-178.8 236.8,-214.8"/>
<text text-anchor="middle" x="163" y="-192.6" font-family="Times,serif" font-size="14.00">SafeAvatarComponent </text>
</g>
<!-- SafeAvatarModule&#45;&gt;SafeAvatarComponent  -->
<g id="edge3" class="edge">
<title>SafeAvatarModule&#45;&gt;SafeAvatarComponent </title>
<path fill="none" stroke="black" stroke-dasharray="5,2" d="M163,-149.91C163,-149.91 163,-168.79 163,-168.79"/>
<polygon fill="black" stroke="black" points="159.5,-168.79 163,-178.79 166.5,-168.79 159.5,-168.79"/>
</g>
<!-- SafeIconModule -->
<g id="node3" class="node">
<title>SafeIconModule</title>
<polygon fill="#8dd3c7" stroke="black" points="133.8,-84.8 130.8,-88.8 109.8,-88.8 106.8,-84.8 24.2,-84.8 24.2,-48.8 133.8,-48.8 133.8,-84.8"/>
<text text-anchor="middle" x="79" y="-62.6" font-family="Times,serif" font-size="14.00">SafeIconModule</text>
</g>
<!-- SafeIconModule&#45;&gt;SafeAvatarModule -->
<g id="edge2" class="edge">
<title>SafeIconModule&#45;&gt;SafeAvatarModule</title>
<path fill="none" stroke="black" d="M117.7,-84.91C117.7,-84.91 117.7,-103.79 117.7,-103.79"/>
<polygon fill="black" stroke="black" points="114.2,-103.79 117.7,-113.79 121.2,-103.79 114.2,-103.79"/>
</g>
</g>
</svg>
