<?xml version="1.0" encoding="UTF-8" standalone="no"?>
<!DOCTYPE svg PUBLIC "-//W3C//DTD SVG 1.1//EN"
 "http://www.w3.org/Graphics/SVG/1.1/DTD/svg11.dtd">
<!-- Generated by graphviz version 3.0.0 (20220226.1711)
 -->
<!-- Title: dependencies Pages: 1 -->
<svg width="376pt" height="174pt"
 viewBox="0.00 0.00 376.00 173.80" xmlns="http://www.w3.org/2000/svg" xmlns:xlink="http://www.w3.org/1999/xlink">
<g id="graph0" class="graph" transform="scale(1 1) rotate(0) translate(4 169.8)">
<title>dependencies</title>
<polygon fill="white" stroke="transparent" points="-4,4 -4,-169.8 372,-169.8 372,4 -4,4"/>
<text text-anchor="middle" x="184" y="-8.2" font-family="sans-serif" font-size="14.00">dependencies</text>
<g id="clust1" class="cluster">
<title>cluster_SafeStatusModalModule</title>
<polygon fill="none" stroke="black" stroke-dasharray="1,5" points="8,-32.8 8,-157.8 360,-157.8 360,-32.8 8,-32.8"/>
</g>
<g id="clust4" class="cluster">
<title>cluster_SafeStatusModalModule_imports</title>
<polygon fill="none" stroke="black" points="216,-40.8 216,-92.8 352,-92.8 352,-40.8 216,-40.8"/>
</g>
<g id="clust2" class="cluster">
<title>cluster_SafeStatusModalModule_declarations</title>
<polygon fill="none" stroke="black" points="16,-40.8 16,-92.8 208,-92.8 208,-40.8 16,-40.8"/>
</g>
<!-- SafeStatusModalComponent -->
<g id="node1" class="node">
<title>SafeStatusModalComponent</title>
<polygon fill="#ffffb3" stroke="black" points="200.49,-84.8 23.51,-84.8 23.51,-48.8 200.49,-48.8 200.49,-84.8"/>
<text text-anchor="middle" x="112" y="-62.6" font-family="Times,serif" font-size="14.00">SafeStatusModalComponent</text>
</g>
<!-- SafeStatusModalModule -->
<g id="node2" class="node">
<title>SafeStatusModalModule</title>
<polygon fill="#8dd3c7" stroke="black" points="270.71,-149.8 267.71,-153.8 246.71,-153.8 243.71,-149.8 115.29,-149.8 115.29,-113.8 270.71,-113.8 270.71,-149.8"/>
<text text-anchor="middle" x="193" y="-127.6" font-family="Times,serif" font-size="14.00">SafeStatusModalModule</text>
</g>
<!-- SafeStatusModalComponent&#45;&gt;SafeStatusModalModule -->
<g id="edge1" class="edge">
<title>SafeStatusModalComponent&#45;&gt;SafeStatusModalModule</title>
<path fill="none" stroke="black" d="M157.94,-84.91C157.94,-84.91 157.94,-103.79 157.94,-103.79"/>
<polygon fill="black" stroke="black" points="154.44,-103.79 157.94,-113.79 161.44,-103.79 154.44,-103.79"/>
</g>
<!-- SafeModalModule -->
<g id="node3" class="node">
<title>SafeModalModule</title>
<polygon fill="#8dd3c7" stroke="black" points="344.48,-84.8 341.48,-88.8 320.48,-88.8 317.48,-84.8 223.52,-84.8 223.52,-48.8 344.48,-48.8 344.48,-84.8"/>
<text text-anchor="middle" x="284" y="-62.6" font-family="Times,serif" font-size="14.00">SafeModalModule</text>
</g>
<!-- SafeModalModule&#45;&gt;SafeStatusModalModule -->
<g id="edge2" class="edge">
<title>SafeModalModule&#45;&gt;SafeStatusModalModule</title>
<path fill="none" stroke="black" d="M247.06,-84.91C247.06,-84.91 247.06,-103.79 247.06,-103.79"/>
<polygon fill="black" stroke="black" points="243.56,-103.79 247.06,-113.79 250.56,-103.79 243.56,-103.79"/>
</g>
</g>
</svg>
