<?xml version="1.0" encoding="UTF-8" standalone="no"?>
<!DOCTYPE svg PUBLIC "-//W3C//DTD SVG 1.1//EN"
 "http://www.w3.org/Graphics/SVG/1.1/DTD/svg11.dtd">
<!-- Generated by graphviz version 3.0.0 (20220226.1711)
 -->
<!-- Title: dependencies Pages: 1 -->
<svg width="667pt" height="247pt"
 viewBox="0.00 0.00 667.00 246.80" xmlns="http://www.w3.org/2000/svg" xmlns:xlink="http://www.w3.org/1999/xlink">
<g id="graph0" class="graph" transform="scale(1 1) rotate(0) translate(4 242.8)">
<title>dependencies</title>
<polygon fill="white" stroke="transparent" points="-4,4 -4,-242.8 663,-242.8 663,4 -4,4"/>
<text text-anchor="middle" x="329.5" y="-8.2" font-family="sans-serif" font-size="14.00">dependencies</text>
<g id="clust1" class="cluster">
<title>cluster_ButtonConfigModule</title>
<polygon fill="none" stroke="black" stroke-dasharray="1,5" points="8,-32.8 8,-230.8 651,-230.8 651,-32.8 8,-32.8"/>
</g>
<g id="clust4" class="cluster">
<title>cluster_ButtonConfigModule_imports</title>
<polygon fill="none" stroke="black" points="198,-40.8 198,-92.8 643,-92.8 643,-40.8 198,-40.8"/>
</g>
<g id="clust2" class="cluster">
<title>cluster_ButtonConfigModule_declarations</title>
<polygon fill="none" stroke="black" points="16,-40.8 16,-92.8 190,-92.8 190,-40.8 16,-40.8"/>
</g>
<g id="clust5" class="cluster">
<title>cluster_ButtonConfigModule_exports</title>
<polygon fill="none" stroke="black" points="274,-170.8 274,-222.8 452,-222.8 452,-170.8 274,-170.8"/>
</g>
<!-- ButtonConfigComponent -->
<g id="node1" class="node">
<title>ButtonConfigComponent</title>
<polygon fill="#ffffb3" stroke="black" points="182.34,-84.8 23.66,-84.8 23.66,-48.8 182.34,-48.8 182.34,-84.8"/>
<text text-anchor="middle" x="103" y="-62.6" font-family="Times,serif" font-size="14.00">ButtonConfigComponent</text>
</g>
<!-- ButtonConfigModule -->
<g id="node2" class="node">
<title>ButtonConfigModule</title>
<polygon fill="#8dd3c7" stroke="black" points="431.06,-149.8 428.06,-153.8 407.06,-153.8 404.06,-149.8 294.94,-149.8 294.94,-113.8 431.06,-113.8 431.06,-149.8"/>
<text text-anchor="middle" x="363" y="-127.6" font-family="Times,serif" font-size="14.00">ButtonConfigModule</text>
</g>
<!-- ButtonConfigComponent&#45;&gt;ButtonConfigModule -->
<g id="edge1" class="edge">
<title>ButtonConfigComponent&#45;&gt;ButtonConfigModule</title>
<path fill="none" stroke="black" d="M103,-84.91C103,-104.14 103,-131.8 103,-131.8 103,-131.8 284.69,-131.8 284.69,-131.8"/>
<polygon fill="black" stroke="black" points="284.69,-135.3 294.69,-131.8 284.69,-128.3 284.69,-135.3"/>
</g>
<!-- ButtonConfigComponent  -->
<g id="node6" class="node">
<title>ButtonConfigComponent </title>
<polygon fill="#fb8072" stroke="black" points="443.84,-214.8 282.16,-214.8 282.16,-178.8 443.84,-178.8 443.84,-214.8"/>
<text text-anchor="middle" x="363" y="-192.6" font-family="Times,serif" font-size="14.00">ButtonConfigComponent </text>
</g>
<!-- ButtonConfigModule&#45;&gt;ButtonConfigComponent  -->
<g id="edge5" class="edge">
<title>ButtonConfigModule&#45;&gt;ButtonConfigComponent </title>
<path fill="none" stroke="black" stroke-dasharray="5,2" d="M363,-149.91C363,-149.91 363,-168.79 363,-168.79"/>
<polygon fill="black" stroke="black" points="359.5,-168.79 363,-178.79 366.5,-168.79 359.5,-168.79"/>
</g>
<!-- SafeButtonModule -->
<g id="node3" class="node">
<title>SafeButtonModule</title>
<polygon fill="#8dd3c7" stroke="black" points="635.05,-84.8 632.05,-88.8 611.05,-88.8 608.05,-84.8 512.95,-84.8 512.95,-48.8 635.05,-48.8 635.05,-84.8"/>
<text text-anchor="middle" x="574" y="-62.6" font-family="Times,serif" font-size="14.00">SafeButtonModule</text>
</g>
<!-- SafeButtonModule&#45;&gt;ButtonConfigModule -->
<g id="edge2" class="edge">
<title>SafeButtonModule&#45;&gt;ButtonConfigModule</title>
<path fill="none" stroke="black" d="M574,-84.91C574,-104.14 574,-131.8 574,-131.8 574,-131.8 441.21,-131.8 441.21,-131.8"/>
<polygon fill="black" stroke="black" points="441.21,-128.3 431.21,-131.8 441.21,-135.3 441.21,-128.3"/>
</g>
<!-- SafeIconModule -->
<g id="node4" class="node">
<title>SafeIconModule</title>
<polygon fill="#8dd3c7" stroke="black" points="494.8,-84.8 491.8,-88.8 470.8,-88.8 467.8,-84.8 385.2,-84.8 385.2,-48.8 494.8,-48.8 494.8,-84.8"/>
<text text-anchor="middle" x="440" y="-62.6" font-family="Times,serif" font-size="14.00">SafeIconModule</text>
</g>
<!-- SafeIconModule&#45;&gt;ButtonConfigModule -->
<g id="edge3" class="edge">
<title>SafeIconModule&#45;&gt;ButtonConfigModule</title>
<path fill="none" stroke="black" d="M408.31,-84.91C408.31,-84.91 408.31,-103.79 408.31,-103.79"/>
<polygon fill="black" stroke="black" points="404.81,-103.79 408.31,-113.79 411.81,-103.79 404.81,-103.79"/>
</g>
<!-- SafeQueryBuilderModule -->
<g id="node5" class="node">
<title>SafeQueryBuilderModule</title>
<polygon fill="#8dd3c7" stroke="black" points="367.91,-84.8 364.91,-88.8 343.91,-88.8 340.91,-84.8 206.09,-84.8 206.09,-48.8 367.91,-48.8 367.91,-84.8"/>
<text text-anchor="middle" x="287" y="-62.6" font-family="Times,serif" font-size="14.00">SafeQueryBuilderModule</text>
</g>
<!-- SafeQueryBuilderModule&#45;&gt;ButtonConfigModule -->
<g id="edge4" class="edge">
<title>SafeQueryBuilderModule&#45;&gt;ButtonConfigModule</title>
<path fill="none" stroke="black" d="M331.21,-84.91C331.21,-84.91 331.21,-103.79 331.21,-103.79"/>
<polygon fill="black" stroke="black" points="327.71,-103.79 331.21,-113.79 334.71,-103.79 327.71,-103.79"/>
</g>
</g>
</svg>
