<?xml version="1.0" encoding="UTF-8" standalone="no"?>
<!DOCTYPE svg PUBLIC "-//W3C//DTD SVG 1.1//EN"
 "http://www.w3.org/Graphics/SVG/1.1/DTD/svg11.dtd">
<!-- Generated by graphviz version 3.0.0 (20220226.1711)
 -->
<!-- Title: dependencies Pages: 1 -->
<svg width="680pt" height="312pt"
 viewBox="0.00 0.00 680.00 311.80" xmlns="http://www.w3.org/2000/svg" xmlns:xlink="http://www.w3.org/1999/xlink">
<g id="graph0" class="graph" transform="scale(1 1) rotate(0) translate(4 307.8)">
<title>dependencies</title>
<polygon fill="white" stroke="transparent" points="-4,4 -4,-307.8 676,-307.8 676,4 -4,4"/>
<text text-anchor="middle" x="336" y="-8.2" font-family="sans-serif" font-size="14.00">dependencies</text>
<g id="clust1" class="cluster">
<title>cluster_ButtonConfigModule</title>
<polygon fill="none" stroke="black" stroke-dasharray="1,5" points="8,-32.8 8,-295.8 664,-295.8 664,-32.8 8,-32.8"/>
</g>
<g id="clust5" class="cluster">
<title>cluster_ButtonConfigModule_exports</title>
<polygon fill="none" stroke="black" points="236,-235.8 236,-287.8 414,-287.8 414,-235.8 236,-235.8"/>
</g>
<g id="clust2" class="cluster">
<title>cluster_ButtonConfigModule_declarations</title>
<polygon fill="none" stroke="black" points="469,-105.8 469,-157.8 643,-157.8 643,-105.8 469,-105.8"/>
</g>
<g id="clust3" class="cluster">
<title>cluster_ButtonConfigModule_ButtonConfigComponent_providers</title>
<polygon fill="none" stroke="black" points="16,-40.8 16,-92.8 656,-92.8 656,-40.8 16,-40.8"/>
</g>
<g id="clust4" class="cluster">
<title>cluster_ButtonConfigModule_imports</title>
<polygon fill="none" stroke="black" points="16,-105.8 16,-157.8 461,-157.8 461,-105.8 16,-105.8"/>
</g>
<!-- ButtonConfigComponent -->
<g id="node1" class="node">
<title>ButtonConfigComponent</title>
<polygon fill="#ffffb3" stroke="black" points="635.34,-149.8 476.66,-149.8 476.66,-113.8 635.34,-113.8 635.34,-149.8"/>
<text text-anchor="middle" x="556" y="-127.6" font-family="Times,serif" font-size="14.00">ButtonConfigComponent</text>
</g>
<!-- ButtonConfigModule -->
<g id="node2" class="node">
<title>ButtonConfigModule</title>
<polygon fill="#8dd3c7" stroke="black" points="393.06,-214.8 390.06,-218.8 369.06,-218.8 366.06,-214.8 256.94,-214.8 256.94,-178.8 393.06,-178.8 393.06,-214.8"/>
<text text-anchor="middle" x="325" y="-192.6" font-family="Times,serif" font-size="14.00">ButtonConfigModule</text>
</g>
<!-- ButtonConfigComponent&#45;&gt;ButtonConfigModule -->
<g id="edge1" class="edge">
<title>ButtonConfigComponent&#45;&gt;ButtonConfigModule</title>
<path fill="none" stroke="black" d="M556,-149.91C556,-169.14 556,-196.8 556,-196.8 556,-196.8 403.37,-196.8 403.37,-196.8"/>
<polygon fill="black" stroke="black" points="403.37,-193.3 393.37,-196.8 403.37,-200.3 403.37,-193.3"/>
</g>
<!-- ButtonConfigComponent  -->
<g id="node7" class="node">
<title>ButtonConfigComponent </title>
<polygon fill="#fb8072" stroke="black" points="405.84,-279.8 244.16,-279.8 244.16,-243.8 405.84,-243.8 405.84,-279.8"/>
<text text-anchor="middle" x="325" y="-257.6" font-family="Times,serif" font-size="14.00">ButtonConfigComponent </text>
</g>
<!-- ButtonConfigModule&#45;&gt;ButtonConfigComponent  -->
<g id="edge6" class="edge">
<title>ButtonConfigModule&#45;&gt;ButtonConfigComponent </title>
<path fill="none" stroke="black" stroke-dasharray="5,2" d="M325,-214.91C325,-214.91 325,-233.79 325,-233.79"/>
<polygon fill="black" stroke="black" points="321.5,-233.79 325,-243.79 328.5,-233.79 321.5,-233.79"/>
</g>
<!-- { provide: MAT_CHIPS_DEFAULT_OPTIONS, useFactory: codesFactory } -->
<g id="node3" class="node">
<title>{ provide: MAT_CHIPS_DEFAULT_OPTIONS, useFactory: codesFactory }</title>
<ellipse fill="#fdb462" stroke="black" cx="336" cy="-66.8" rx="311.7" ry="18"/>
<text text-anchor="middle" x="336" y="-62.6" font-family="Times,serif" font-size="14.00">{ provide: MAT_CHIPS_DEFAULT_OPTIONS, useFactory: codesFactory }</text>
</g>
<!-- { provide: MAT_CHIPS_DEFAULT_OPTIONS, useFactory: codesFactory }&#45;&gt;ButtonConfigComponent -->
<g id="edge2" class="edge">
<title>{ provide: MAT_CHIPS_DEFAULT_OPTIONS, useFactory: codesFactory }&#45;&gt;ButtonConfigComponent</title>
<path fill="none" stroke="black" d="M556,-79.64C556,-79.64 556,-103.32 556,-103.32"/>
<polygon fill="black" stroke="black" points="552.5,-103.32 556,-113.32 559.5,-103.32 552.5,-103.32"/>
</g>
<!-- SafeButtonModule -->
<g id="node4" class="node">
<title>SafeButtonModule</title>
<polygon fill="#8dd3c7" stroke="black" points="453.05,-149.8 450.05,-153.8 429.05,-153.8 426.05,-149.8 330.95,-149.8 330.95,-113.8 453.05,-113.8 453.05,-149.8"/>
<text text-anchor="middle" x="392" y="-127.6" font-family="Times,serif" font-size="14.00">SafeButtonModule</text>
</g>
<!-- SafeButtonModule&#45;&gt;ButtonConfigModule -->
<g id="edge3" class="edge">
<title>SafeButtonModule&#45;&gt;ButtonConfigModule</title>
<path fill="none" stroke="black" d="M362,-149.91C362,-149.91 362,-168.79 362,-168.79"/>
<polygon fill="black" stroke="black" points="358.5,-168.79 362,-178.79 365.5,-168.79 358.5,-168.79"/>
</g>
<!-- SafeIconModule -->
<g id="node5" class="node">
<title>SafeIconModule</title>
<polygon fill="#8dd3c7" stroke="black" points="312.8,-149.8 309.8,-153.8 288.8,-153.8 285.8,-149.8 203.2,-149.8 203.2,-113.8 312.8,-113.8 312.8,-149.8"/>
<text text-anchor="middle" x="258" y="-127.6" font-family="Times,serif" font-size="14.00">SafeIconModule</text>
</g>
<!-- SafeIconModule&#45;&gt;ButtonConfigModule -->
<g id="edge4" class="edge">
<title>SafeIconModule&#45;&gt;ButtonConfigModule</title>
<path fill="none" stroke="black" d="M284.69,-149.91C284.69,-149.91 284.69,-168.79 284.69,-168.79"/>
<polygon fill="black" stroke="black" points="281.19,-168.79 284.69,-178.79 288.19,-168.79 281.19,-168.79"/>
</g>
<!-- SafeQueryBuilderModule -->
<g id="node6" class="node">
<title>SafeQueryBuilderModule</title>
<polygon fill="#8dd3c7" stroke="black" points="185.91,-149.8 182.91,-153.8 161.91,-153.8 158.91,-149.8 24.09,-149.8 24.09,-113.8 185.91,-113.8 185.91,-149.8"/>
<text text-anchor="middle" x="105" y="-127.6" font-family="Times,serif" font-size="14.00">SafeQueryBuilderModule</text>
</g>
<!-- SafeQueryBuilderModule&#45;&gt;ButtonConfigModule -->
<g id="edge5" class="edge">
<title>SafeQueryBuilderModule&#45;&gt;ButtonConfigModule</title>
<path fill="none" stroke="black" d="M105,-149.91C105,-169.14 105,-196.8 105,-196.8 105,-196.8 246.9,-196.8 246.9,-196.8"/>
<polygon fill="black" stroke="black" points="246.9,-200.3 256.9,-196.8 246.9,-193.3 246.9,-200.3"/>
</g>
</g>
</svg>
