<?xml version="1.0" encoding="UTF-8" standalone="no"?>
<!DOCTYPE svg PUBLIC "-//W3C//DTD SVG 1.1//EN"
 "http://www.w3.org/Graphics/SVG/1.1/DTD/svg11.dtd">
<!-- Generated by graphviz version 3.0.0 (20220226.1711)
 -->
<!-- Title: dependencies Pages: 1 -->
<svg width="680pt" height="312pt"
 viewBox="0.00 0.00 680.00 311.80" xmlns="http://www.w3.org/2000/svg" xmlns:xlink="http://www.w3.org/1999/xlink">
<g id="graph0" class="graph" transform="scale(1 1) rotate(0) translate(4 307.8)">
<title>dependencies</title>
<polygon fill="white" stroke="transparent" points="-4,4 -4,-307.8 676,-307.8 676,4 -4,4"/>
<text text-anchor="middle" x="336" y="-8.2" font-family="sans-serif" font-size="14.00">dependencies</text>
<g id="clust1" class="cluster">
<title>cluster_ButtonConfigModule</title>
<polygon fill="none" stroke="black" stroke-dasharray="1,5" points="8,-32.8 8,-295.8 664,-295.8 664,-32.8 8,-32.8"/>
</g>
<g id="clust2" class="cluster">
<title>cluster_ButtonConfigModule_declarations</title>
<polygon fill="none" stroke="black" points="29,-105.8 29,-157.8 203,-157.8 203,-105.8 29,-105.8"/>
</g>
<g id="clust5" class="cluster">
<title>cluster_ButtonConfigModule_exports</title>
<polygon fill="none" stroke="black" points="287,-235.8 287,-287.8 465,-287.8 465,-235.8 287,-235.8"/>
</g>
<g id="clust4" class="cluster">
<title>cluster_ButtonConfigModule_imports</title>
<polygon fill="none" stroke="black" points="211,-105.8 211,-157.8 656,-157.8 656,-105.8 211,-105.8"/>
</g>
<g id="clust3" class="cluster">
<title>cluster_ButtonConfigModule_ButtonConfigComponent_providers</title>
<polygon fill="none" stroke="black" points="16,-40.8 16,-92.8 656,-92.8 656,-40.8 16,-40.8"/>
</g>
<!-- ButtonConfigComponent -->
<g id="node1" class="node">
<title>ButtonConfigComponent</title>
<polygon fill="#ffffb3" stroke="black" points="195.34,-149.8 36.66,-149.8 36.66,-113.8 195.34,-113.8 195.34,-149.8"/>
<text text-anchor="middle" x="116" y="-127.6" font-family="Times,serif" font-size="14.00">ButtonConfigComponent</text>
</g>
<!-- ButtonConfigModule -->
<g id="node2" class="node">
<title>ButtonConfigModule</title>
<polygon fill="#8dd3c7" stroke="black" points="444.06,-214.8 441.06,-218.8 420.06,-218.8 417.06,-214.8 307.94,-214.8 307.94,-178.8 444.06,-178.8 444.06,-214.8"/>
<text text-anchor="middle" x="376" y="-192.6" font-family="Times,serif" font-size="14.00">ButtonConfigModule</text>
</g>
<!-- ButtonConfigComponent&#45;&gt;ButtonConfigModule -->
<g id="edge1" class="edge">
<title>ButtonConfigComponent&#45;&gt;ButtonConfigModule</title>
<path fill="none" stroke="black" d="M116,-149.91C116,-169.14 116,-196.8 116,-196.8 116,-196.8 297.69,-196.8 297.69,-196.8"/>
<polygon fill="black" stroke="black" points="297.69,-200.3 307.69,-196.8 297.69,-193.3 297.69,-200.3"/>
</g>
<!-- ButtonConfigComponent  -->
<g id="node7" class="node">
<title>ButtonConfigComponent </title>
<polygon fill="#fb8072" stroke="black" points="456.84,-279.8 295.16,-279.8 295.16,-243.8 456.84,-243.8 456.84,-279.8"/>
<text text-anchor="middle" x="376" y="-257.6" font-family="Times,serif" font-size="14.00">ButtonConfigComponent </text>
</g>
<!-- ButtonConfigModule&#45;&gt;ButtonConfigComponent  -->
<g id="edge6" class="edge">
<title>ButtonConfigModule&#45;&gt;ButtonConfigComponent </title>
<path fill="none" stroke="black" stroke-dasharray="5,2" d="M376,-214.91C376,-214.91 376,-233.79 376,-233.79"/>
<polygon fill="black" stroke="black" points="372.5,-233.79 376,-243.79 379.5,-233.79 372.5,-233.79"/>
</g>
<!-- { provide: MAT_CHIPS_DEFAULT_OPTIONS, useFactory: codesFactory } -->
<g id="node3" class="node">
<title>{ provide: MAT_CHIPS_DEFAULT_OPTIONS, useFactory: codesFactory }</title>
<ellipse fill="#fdb462" stroke="black" cx="336" cy="-66.8" rx="311.7" ry="18"/>
<text text-anchor="middle" x="336" y="-62.6" font-family="Times,serif" font-size="14.00">{ provide: MAT_CHIPS_DEFAULT_OPTIONS, useFactory: codesFactory }</text>
</g>
<!-- { provide: MAT_CHIPS_DEFAULT_OPTIONS, useFactory: codesFactory }&#45;&gt;ButtonConfigComponent -->
<g id="edge2" class="edge">
<title>{ provide: MAT_CHIPS_DEFAULT_OPTIONS, useFactory: codesFactory }&#45;&gt;ButtonConfigComponent</title>
<path fill="none" stroke="black" d="M116,-79.64C116,-79.64 116,-103.32 116,-103.32"/>
<polygon fill="black" stroke="black" points="112.5,-103.32 116,-113.32 119.5,-103.32 112.5,-103.32"/>
</g>
<!-- SafeButtonModule -->
<g id="node4" class="node">
<title>SafeButtonModule</title>
<polygon fill="#8dd3c7" stroke="black" points="648.05,-149.8 645.05,-153.8 624.05,-153.8 621.05,-149.8 525.95,-149.8 525.95,-113.8 648.05,-113.8 648.05,-149.8"/>
<text text-anchor="middle" x="587" y="-127.6" font-family="Times,serif" font-size="14.00">SafeButtonModule</text>
</g>
<!-- SafeButtonModule&#45;&gt;ButtonConfigModule -->
<g id="edge3" class="edge">
<title>SafeButtonModule&#45;&gt;ButtonConfigModule</title>
<path fill="none" stroke="black" d="M587,-149.91C587,-169.14 587,-196.8 587,-196.8 587,-196.8 454.21,-196.8 454.21,-196.8"/>
<polygon fill="black" stroke="black" points="454.21,-193.3 444.21,-196.8 454.21,-200.3 454.21,-193.3"/>
</g>
<!-- SafeIconModule -->
<g id="node5" class="node">
<title>SafeIconModule</title>
<polygon fill="#8dd3c7" stroke="black" points="507.8,-149.8 504.8,-153.8 483.8,-153.8 480.8,-149.8 398.2,-149.8 398.2,-113.8 507.8,-113.8 507.8,-149.8"/>
<text text-anchor="middle" x="453" y="-127.6" font-family="Times,serif" font-size="14.00">SafeIconModule</text>
</g>
<!-- SafeIconModule&#45;&gt;ButtonConfigModule -->
<g id="edge4" class="edge">
<title>SafeIconModule&#45;&gt;ButtonConfigModule</title>
<path fill="none" stroke="black" d="M421.31,-149.91C421.31,-149.91 421.31,-168.79 421.31,-168.79"/>
<polygon fill="black" stroke="black" points="417.81,-168.79 421.31,-178.79 424.81,-168.79 417.81,-168.79"/>
</g>
<!-- SafeQueryBuilderModule -->
<g id="node6" class="node">
<title>SafeQueryBuilderModule</title>
<polygon fill="#8dd3c7" stroke="black" points="380.91,-149.8 377.91,-153.8 356.91,-153.8 353.91,-149.8 219.09,-149.8 219.09,-113.8 380.91,-113.8 380.91,-149.8"/>
<text text-anchor="middle" x="300" y="-127.6" font-family="Times,serif" font-size="14.00">SafeQueryBuilderModule</text>
</g>
<!-- SafeQueryBuilderModule&#45;&gt;ButtonConfigModule -->
<g id="edge5" class="edge">
<title>SafeQueryBuilderModule&#45;&gt;ButtonConfigModule</title>
<path fill="none" stroke="black" d="M344.21,-149.91C344.21,-149.91 344.21,-168.79 344.21,-168.79"/>
<polygon fill="black" stroke="black" points="340.71,-168.79 344.21,-178.79 347.71,-168.79 340.71,-168.79"/>
</g>
</g>
</svg>
