<?xml version="1.0" encoding="UTF-8" standalone="no"?>
<!DOCTYPE svg PUBLIC "-//W3C//DTD SVG 1.1//EN"
 "http://www.w3.org/Graphics/SVG/1.1/DTD/svg11.dtd">
<!-- Generated by graphviz version 3.0.0 (20220226.1711)
 -->
<!-- Title: dependencies Pages: 1 -->
<svg width="1133pt" height="312pt"
 viewBox="0.00 0.00 1133.00 311.80" xmlns="http://www.w3.org/2000/svg" xmlns:xlink="http://www.w3.org/1999/xlink">
<g id="graph0" class="graph" transform="scale(1 1) rotate(0) translate(4 307.8)">
<title>dependencies</title>
<polygon fill="white" stroke="transparent" points="-4,4 -4,-307.8 1129,-307.8 1129,4 -4,4"/>
<text text-anchor="middle" x="562.5" y="-8.2" font-family="sans-serif" font-size="14.00">dependencies</text>
<g id="clust1" class="cluster">
<title>cluster_ButtonConfigModule</title>
<polygon fill="none" stroke="black" stroke-dasharray="1,5" points="8,-32.8 8,-295.8 1117,-295.8 1117,-32.8 8,-32.8"/>
</g>
<g id="clust4" class="cluster">
<title>cluster_ButtonConfigModule_imports</title>
<polygon fill="none" stroke="black" points="664,-105.8 664,-157.8 1109,-157.8 1109,-105.8 664,-105.8"/>
</g>
<g id="clust3" class="cluster">
<title>cluster_ButtonConfigModule_ButtonConfigComponent_providers</title>
<polygon fill="none" stroke="black" points="16,-40.8 16,-157.8 656,-157.8 656,-40.8 16,-40.8"/>
</g>
<g id="clust5" class="cluster">
<title>cluster_ButtonConfigModule_exports</title>
<polygon fill="none" stroke="black" points="740,-235.8 740,-287.8 918,-287.8 918,-235.8 740,-235.8"/>
</g>
<!-- ButtonConfigComponent -->
<g id="node1" class="node">
<title>ButtonConfigComponent</title>
<polygon fill="#ffffb3" stroke="black" points="531.34,-149.8 372.66,-149.8 372.66,-113.8 531.34,-113.8 531.34,-149.8"/>
<text text-anchor="middle" x="452" y="-127.6" font-family="Times,serif" font-size="14.00">ButtonConfigComponent</text>
</g>
<!-- ButtonConfigModule -->
<g id="node2" class="node">
<title>ButtonConfigModule</title>
<polygon fill="#8dd3c7" stroke="black" points="897.06,-214.8 894.06,-218.8 873.06,-218.8 870.06,-214.8 760.94,-214.8 760.94,-178.8 897.06,-178.8 897.06,-214.8"/>
<text text-anchor="middle" x="829" y="-192.6" font-family="Times,serif" font-size="14.00">ButtonConfigModule</text>
</g>
<!-- ButtonConfigComponent&#45;&gt;ButtonConfigModule -->
<g id="edge1" class="edge">
<title>ButtonConfigComponent&#45;&gt;ButtonConfigModule</title>
<path fill="none" stroke="black" d="M452,-149.91C452,-169.14 452,-196.8 452,-196.8 452,-196.8 750.73,-196.8 750.73,-196.8"/>
<polygon fill="black" stroke="black" points="750.73,-200.3 760.73,-196.8 750.73,-193.3 750.73,-200.3"/>
</g>
<!-- ButtonConfigComponent  -->
<g id="node7" class="node">
<title>ButtonConfigComponent </title>
<polygon fill="#fb8072" stroke="black" points="909.84,-279.8 748.16,-279.8 748.16,-243.8 909.84,-243.8 909.84,-279.8"/>
<text text-anchor="middle" x="829" y="-257.6" font-family="Times,serif" font-size="14.00">ButtonConfigComponent </text>
</g>
<!-- ButtonConfigModule&#45;&gt;ButtonConfigComponent  -->
<g id="edge6" class="edge">
<title>ButtonConfigModule&#45;&gt;ButtonConfigComponent </title>
<path fill="none" stroke="black" stroke-dasharray="5,2" d="M829,-214.91C829,-214.91 829,-233.79 829,-233.79"/>
<polygon fill="black" stroke="black" points="825.5,-233.79 829,-243.79 832.5,-233.79 825.5,-233.79"/>
</g>
<!-- { provide: MAT_CHIPS_DEFAULT_OPTIONS, useFactory: codesFactory } -->
<g id="node3" class="node">
<title>{ provide: MAT_CHIPS_DEFAULT_OPTIONS, useFactory: codesFactory }</title>
<ellipse fill="#fdb462" stroke="black" cx="336" cy="-66.8" rx="311.7" ry="18"/>
<text text-anchor="middle" x="336" y="-62.6" font-family="Times,serif" font-size="14.00">{ provide: MAT_CHIPS_DEFAULT_OPTIONS, useFactory: codesFactory }</text>
</g>
<!-- { provide: MAT_CHIPS_DEFAULT_OPTIONS, useFactory: codesFactory }&#45;&gt;ButtonConfigComponent -->
<g id="edge2" class="edge">
<title>{ provide: MAT_CHIPS_DEFAULT_OPTIONS, useFactory: codesFactory }&#45;&gt;ButtonConfigComponent</title>
<path fill="none" stroke="black" d="M452,-83.54C452,-83.54 452,-103.52 452,-103.52"/>
<polygon fill="black" stroke="black" points="448.5,-103.52 452,-113.52 455.5,-103.52 448.5,-103.52"/>
</g>
<!-- SafeButtonModule -->
<g id="node4" class="node">
<title>SafeButtonModule</title>
<polygon fill="#8dd3c7" stroke="black" points="1101.05,-149.8 1098.05,-153.8 1077.05,-153.8 1074.05,-149.8 978.95,-149.8 978.95,-113.8 1101.05,-113.8 1101.05,-149.8"/>
<text text-anchor="middle" x="1040" y="-127.6" font-family="Times,serif" font-size="14.00">SafeButtonModule</text>
</g>
<!-- SafeButtonModule&#45;&gt;ButtonConfigModule -->
<g id="edge3" class="edge">
<title>SafeButtonModule&#45;&gt;ButtonConfigModule</title>
<path fill="none" stroke="black" d="M1040,-149.91C1040,-169.14 1040,-196.8 1040,-196.8 1040,-196.8 907.21,-196.8 907.21,-196.8"/>
<polygon fill="black" stroke="black" points="907.21,-193.3 897.21,-196.8 907.21,-200.3 907.21,-193.3"/>
</g>
<!-- SafeIconModule -->
<g id="node5" class="node">
<title>SafeIconModule</title>
<polygon fill="#8dd3c7" stroke="black" points="960.8,-149.8 957.8,-153.8 936.8,-153.8 933.8,-149.8 851.2,-149.8 851.2,-113.8 960.8,-113.8 960.8,-149.8"/>
<text text-anchor="middle" x="906" y="-127.6" font-family="Times,serif" font-size="14.00">SafeIconModule</text>
</g>
<!-- SafeIconModule&#45;&gt;ButtonConfigModule -->
<g id="edge4" class="edge">
<title>SafeIconModule&#45;&gt;ButtonConfigModule</title>
<path fill="none" stroke="black" d="M874.31,-149.91C874.31,-149.91 874.31,-168.79 874.31,-168.79"/>
<polygon fill="black" stroke="black" points="870.81,-168.79 874.31,-178.79 877.81,-168.79 870.81,-168.79"/>
</g>
<!-- SafeQueryBuilderModule -->
<g id="node6" class="node">
<title>SafeQueryBuilderModule</title>
<polygon fill="#8dd3c7" stroke="black" points="833.91,-149.8 830.91,-153.8 809.91,-153.8 806.91,-149.8 672.09,-149.8 672.09,-113.8 833.91,-113.8 833.91,-149.8"/>
<text text-anchor="middle" x="753" y="-127.6" font-family="Times,serif" font-size="14.00">SafeQueryBuilderModule</text>
</g>
<!-- SafeQueryBuilderModule&#45;&gt;ButtonConfigModule -->
<g id="edge5" class="edge">
<title>SafeQueryBuilderModule&#45;&gt;ButtonConfigModule</title>
<path fill="none" stroke="black" d="M797.21,-149.91C797.21,-149.91 797.21,-168.79 797.21,-168.79"/>
<polygon fill="black" stroke="black" points="793.71,-168.79 797.21,-178.79 800.71,-168.79 793.71,-168.79"/>
</g>
</g>
</svg>
