<?xml version="1.0" encoding="UTF-8" standalone="no"?>
<!DOCTYPE svg PUBLIC "-//W3C//DTD SVG 1.1//EN"
 "http://www.w3.org/Graphics/SVG/1.1/DTD/svg11.dtd">
<!-- Generated by graphviz version 3.0.0 (20220226.1711)
 -->
<!-- Title: dependencies Pages: 1 -->
<svg width="1250pt" height="247pt"
 viewBox="0.00 0.00 1250.00 246.80" xmlns="http://www.w3.org/2000/svg" xmlns:xlink="http://www.w3.org/1999/xlink">
<g id="graph0" class="graph" transform="scale(1 1) rotate(0) translate(4 242.8)">
<title>dependencies</title>
<polygon fill="white" stroke="transparent" points="-4,4 -4,-242.8 1246,-242.8 1246,4 -4,4"/>
<text text-anchor="middle" x="621" y="-8.2" font-family="sans-serif" font-size="14.00">dependencies</text>
<g id="clust1" class="cluster">
<title>cluster_SafeRecordModalModule</title>
<polygon fill="none" stroke="black" stroke-dasharray="1,5" points="8,-32.8 8,-230.8 1234,-230.8 1234,-32.8 8,-32.8"/>
</g>
<g id="clust4" class="cluster">
<title>cluster_SafeRecordModalModule_imports</title>
<polygon fill="none" stroke="black" points="224,-40.8 224,-92.8 1226,-92.8 1226,-40.8 224,-40.8"/>
</g>
<g id="clust5" class="cluster">
<title>cluster_SafeRecordModalModule_exports</title>
<polygon fill="none" stroke="black" points="610,-170.8 610,-222.8 812,-222.8 812,-170.8 610,-170.8"/>
</g>
<g id="clust2" class="cluster">
<title>cluster_SafeRecordModalModule_declarations</title>
<polygon fill="none" stroke="black" points="16,-40.8 16,-92.8 216,-92.8 216,-40.8 16,-40.8"/>
</g>
<!-- SafeRecordModalComponent -->
<g id="node1" class="node">
<title>SafeRecordModalComponent</title>
<polygon fill="#ffffb3" stroke="black" points="207.69,-84.8 24.31,-84.8 24.31,-48.8 207.69,-48.8 207.69,-84.8"/>
<text text-anchor="middle" x="116" y="-62.6" font-family="Times,serif" font-size="14.00">SafeRecordModalComponent</text>
</g>
<!-- SafeRecordModalModule -->
<g id="node2" class="node">
<title>SafeRecordModalModule</title>
<polygon fill="#8dd3c7" stroke="black" points="791.91,-149.8 788.91,-153.8 767.91,-153.8 764.91,-149.8 630.09,-149.8 630.09,-113.8 791.91,-113.8 791.91,-149.8"/>
<text text-anchor="middle" x="711" y="-127.6" font-family="Times,serif" font-size="14.00">SafeRecordModalModule</text>
</g>
<!-- SafeRecordModalComponent&#45;&gt;SafeRecordModalModule -->
<g id="edge1" class="edge">
<title>SafeRecordModalComponent&#45;&gt;SafeRecordModalModule</title>
<path fill="none" stroke="black" d="M116,-84.91C116,-104.14 116,-131.8 116,-131.8 116,-131.8 620.14,-131.8 620.14,-131.8"/>
<polygon fill="black" stroke="black" points="620.14,-135.3 630.14,-131.8 620.14,-128.3 620.14,-135.3"/>
</g>
<!-- SafeRecordModalComponent  -->
<g id="node9" class="node">
<title>SafeRecordModalComponent </title>
<polygon fill="#fb8072" stroke="black" points="804.19,-214.8 617.81,-214.8 617.81,-178.8 804.19,-178.8 804.19,-214.8"/>
<text text-anchor="middle" x="711" y="-192.6" font-family="Times,serif" font-size="14.00">SafeRecordModalComponent </text>
</g>
<!-- SafeRecordModalModule&#45;&gt;SafeRecordModalComponent  -->
<g id="edge8" class="edge">
<title>SafeRecordModalModule&#45;&gt;SafeRecordModalComponent </title>
<path fill="none" stroke="black" stroke-dasharray="5,2" d="M711,-149.91C711,-149.91 711,-168.79 711,-168.79"/>
<polygon fill="black" stroke="black" points="707.5,-168.79 711,-178.79 714.5,-168.79 707.5,-168.79"/>
</g>
<!-- SafeButtonModule -->
<g id="node3" class="node">
<title>SafeButtonModule</title>
<polygon fill="#8dd3c7" stroke="black" points="1218.05,-84.8 1215.05,-88.8 1194.05,-88.8 1191.05,-84.8 1095.95,-84.8 1095.95,-48.8 1218.05,-48.8 1218.05,-84.8"/>
<text text-anchor="middle" x="1157" y="-62.6" font-family="Times,serif" font-size="14.00">SafeButtonModule</text>
</g>
<!-- SafeButtonModule&#45;&gt;SafeRecordModalModule -->
<g id="edge2" class="edge">
<title>SafeButtonModule&#45;&gt;SafeRecordModalModule</title>
<path fill="none" stroke="black" d="M1157,-85.09C1157,-107.01 1157,-140.8 1157,-140.8 1157,-140.8 801.77,-140.8 801.77,-140.8"/>
<polygon fill="black" stroke="black" points="801.77,-137.3 791.77,-140.8 801.77,-144.3 801.77,-137.3"/>
</g>
<!-- SafeDateModule -->
<g id="node4" class="node">
<title>SafeDateModule</title>
<polygon fill="#8dd3c7" stroke="black" points="1077.36,-84.8 1074.36,-88.8 1053.36,-88.8 1050.36,-84.8 966.64,-84.8 966.64,-48.8 1077.36,-48.8 1077.36,-84.8"/>
<text text-anchor="middle" x="1022" y="-62.6" font-family="Times,serif" font-size="14.00">SafeDateModule</text>
</g>
<!-- SafeDateModule&#45;&gt;SafeRecordModalModule -->
<g id="edge3" class="edge">
<title>SafeDateModule&#45;&gt;SafeRecordModalModule</title>
<path fill="none" stroke="black" d="M1022,-84.91C1022,-104.14 1022,-131.8 1022,-131.8 1022,-131.8 801.9,-131.8 801.9,-131.8"/>
<polygon fill="black" stroke="black" points="801.9,-128.3 791.9,-131.8 801.9,-135.3 801.9,-128.3"/>
</g>
<!-- SafeFormActionsModule -->
<g id="node5" class="node">
<title>SafeFormActionsModule</title>
<polygon fill="#8dd3c7" stroke="black" points="948.32,-84.8 945.32,-88.8 924.32,-88.8 921.32,-84.8 789.68,-84.8 789.68,-48.8 948.32,-48.8 948.32,-84.8"/>
<text text-anchor="middle" x="869" y="-62.6" font-family="Times,serif" font-size="14.00">SafeFormActionsModule</text>
</g>
<!-- SafeFormActionsModule&#45;&gt;SafeRecordModalModule -->
<g id="edge4" class="edge">
<title>SafeFormActionsModule&#45;&gt;SafeRecordModalModule</title>
<path fill="none" stroke="black" d="M798.02,-84.83C798.02,-101.2 798.02,-122.8 798.02,-122.8 798.02,-122.8 797.4,-122.8 797.4,-122.8"/>
<polygon fill="black" stroke="black" points="801.76,-119.3 791.76,-122.8 801.76,-126.3 801.76,-119.3"/>
</g>
<!-- SafeModalModule -->
<g id="node6" class="node">
<title>SafeModalModule</title>
<polygon fill="#8dd3c7" stroke="black" points="771.48,-84.8 768.48,-88.8 747.48,-88.8 744.48,-84.8 650.52,-84.8 650.52,-48.8 771.48,-48.8 771.48,-84.8"/>
<text text-anchor="middle" x="711" y="-62.6" font-family="Times,serif" font-size="14.00">SafeModalModule</text>
</g>
<!-- SafeModalModule&#45;&gt;SafeRecordModalModule -->
<g id="edge5" class="edge">
<title>SafeModalModule&#45;&gt;SafeRecordModalModule</title>
<path fill="none" stroke="black" d="M711,-84.91C711,-84.91 711,-103.79 711,-103.79"/>
<polygon fill="black" stroke="black" points="707.5,-103.79 711,-113.79 714.5,-103.79 707.5,-103.79"/>
</g>
<!-- SafeRecordHistoryModalModule -->
<g id="node7" class="node">
<title>SafeRecordHistoryModalModule</title>
<polygon fill="#8dd3c7" stroke="black" points="632.91,-84.8 629.91,-88.8 608.91,-88.8 605.91,-84.8 429.09,-84.8 429.09,-48.8 632.91,-48.8 632.91,-84.8"/>
<text text-anchor="middle" x="531" y="-62.6" font-family="Times,serif" font-size="14.00">SafeRecordHistoryModalModule</text>
</g>
<!-- SafeRecordHistoryModalModule&#45;&gt;SafeRecordModalModule -->
<g id="edge6" class="edge">
<title>SafeRecordHistoryModalModule&#45;&gt;SafeRecordModalModule</title>
<path fill="none" stroke="black" d="M623.98,-85.09C623.98,-107.01 623.98,-140.8 623.98,-140.8 623.98,-140.8 624.6,-140.8 624.6,-140.8"/>
<polygon fill="black" stroke="black" points="620.24,-144.3 630.24,-140.8 620.24,-137.3 620.24,-144.3"/>
</g>
<!-- SafeRecordSummaryModule -->
<g id="node8" class="node">
<title>SafeRecordSummaryModule</title>
<polygon fill="#8dd3c7" stroke="black" points="411.8,-84.8 408.8,-88.8 387.8,-88.8 384.8,-84.8 232.2,-84.8 232.2,-48.8 411.8,-48.8 411.8,-84.8"/>
<text text-anchor="middle" x="322" y="-62.6" font-family="Times,serif" font-size="14.00">SafeRecordSummaryModule</text>
</g>
<!-- SafeRecordSummaryModule&#45;&gt;SafeRecordModalModule -->
<g id="edge7" class="edge">
<title>SafeRecordSummaryModule&#45;&gt;SafeRecordModalModule</title>
<path fill="none" stroke="black" d="M322,-84.83C322,-101.2 322,-122.8 322,-122.8 322,-122.8 619.93,-122.8 619.93,-122.8"/>
<polygon fill="black" stroke="black" points="619.93,-126.3 629.93,-122.8 619.93,-119.3 619.93,-126.3"/>
</g>
</g>
</svg>
