<?xml version="1.0" encoding="UTF-8" standalone="no"?>
<!DOCTYPE svg PUBLIC "-//W3C//DTD SVG 1.1//EN"
 "http://www.w3.org/Graphics/SVG/1.1/DTD/svg11.dtd">
<!-- Generated by graphviz version 3.0.0 (20220226.1711)
 -->
<!-- Title: dependencies Pages: 1 -->
<svg width="1723pt" height="247pt"
 viewBox="0.00 0.00 1723.00 246.80" xmlns="http://www.w3.org/2000/svg" xmlns:xlink="http://www.w3.org/1999/xlink">
<g id="graph0" class="graph" transform="scale(1 1) rotate(0) translate(4 242.8)">
<title>dependencies</title>
<polygon fill="white" stroke="transparent" points="-4,4 -4,-242.8 1719,-242.8 1719,4 -4,4"/>
<text text-anchor="middle" x="857.5" y="-8.2" font-family="sans-serif" font-size="14.00">dependencies</text>
<g id="clust1" class="cluster">
<title>cluster_SafeWidgetGridModule</title>
<polygon fill="none" stroke="black" stroke-dasharray="1,5" points="8,-32.8 8,-230.8 1707,-230.8 1707,-32.8 8,-32.8"/>
</g>
<g id="clust2" class="cluster">
<title>cluster_SafeWidgetGridModule_declarations</title>
<polygon fill="none" stroke="black" points="900,-40.8 900,-92.8 1699,-92.8 1699,-40.8 900,-40.8"/>
</g>
<g id="clust7" class="cluster">
<title>cluster_SafeWidgetGridModule_imports</title>
<polygon fill="none" stroke="black" points="16,-40.8 16,-92.8 892,-92.8 892,-40.8 16,-40.8"/>
</g>
<g id="clust8" class="cluster">
<title>cluster_SafeWidgetGridModule_exports</title>
<polygon fill="none" stroke="black" points="562,-170.8 562,-222.8 931,-222.8 931,-170.8 562,-170.8"/>
</g>
<!-- SafeExpandedWidgetComponent -->
<g id="node1" class="node">
<title>SafeExpandedWidgetComponent</title>
<polygon fill="#ffffb3" stroke="black" points="1690.89,-84.8 1487.11,-84.8 1487.11,-48.8 1690.89,-48.8 1690.89,-84.8"/>
<text text-anchor="middle" x="1589" y="-62.6" font-family="Times,serif" font-size="14.00">SafeExpandedWidgetComponent</text>
</g>
<!-- SafeWidgetGridModule -->
<g id="node5" class="node">
<title>SafeWidgetGridModule</title>
<polygon fill="#8dd3c7" stroke="black" points="826.8,-149.8 823.8,-153.8 802.8,-153.8 799.8,-149.8 675.2,-149.8 675.2,-113.8 826.8,-113.8 826.8,-149.8"/>
<text text-anchor="middle" x="751" y="-127.6" font-family="Times,serif" font-size="14.00">SafeWidgetGridModule</text>
</g>
<!-- SafeExpandedWidgetComponent&#45;&gt;SafeWidgetGridModule -->
<g id="edge1" class="edge">
<title>SafeExpandedWidgetComponent&#45;&gt;SafeWidgetGridModule</title>
<path fill="none" stroke="black" d="M1589,-84.81C1589,-107.29 1589,-142.8 1589,-142.8 1589,-142.8 836.84,-142.8 836.84,-142.8"/>
<polygon fill="black" stroke="black" points="836.84,-139.3 826.84,-142.8 836.84,-146.3 836.84,-139.3"/>
</g>
<!-- SafeFloatingOptionsComponent -->
<g id="node2" class="node">
<title>SafeFloatingOptionsComponent</title>
<polygon fill="#ffffb3" stroke="black" points="1469.71,-84.8 1272.29,-84.8 1272.29,-48.8 1469.71,-48.8 1469.71,-84.8"/>
<text text-anchor="middle" x="1371" y="-62.6" font-family="Times,serif" font-size="14.00">SafeFloatingOptionsComponent</text>
</g>
<!-- SafeFloatingOptionsComponent&#45;&gt;SafeWidgetGridModule -->
<g id="edge2" class="edge">
<title>SafeFloatingOptionsComponent&#45;&gt;SafeWidgetGridModule</title>
<path fill="none" stroke="black" d="M1371,-84.93C1371,-105.37 1371,-135.8 1371,-135.8 1371,-135.8 836.71,-135.8 836.71,-135.8"/>
<polygon fill="black" stroke="black" points="836.71,-132.3 826.71,-135.8 836.71,-139.3 836.71,-132.3"/>
</g>
<!-- SafeTileDataComponent -->
<g id="node3" class="node">
<title>SafeTileDataComponent</title>
<polygon fill="#ffffb3" stroke="black" points="1254.68,-84.8 1099.32,-84.8 1099.32,-48.8 1254.68,-48.8 1254.68,-84.8"/>
<text text-anchor="middle" x="1177" y="-62.6" font-family="Times,serif" font-size="14.00">SafeTileDataComponent</text>
</g>
<!-- SafeTileDataComponent&#45;&gt;SafeWidgetGridModule -->
<g id="edge3" class="edge">
<title>SafeTileDataComponent&#45;&gt;SafeWidgetGridModule</title>
<path fill="none" stroke="black" d="M1177,-85.07C1177,-103.36 1177,-128.8 1177,-128.8 1177,-128.8 836.67,-128.8 836.67,-128.8"/>
<polygon fill="black" stroke="black" points="836.67,-125.3 826.67,-128.8 836.67,-132.3 836.67,-125.3"/>
</g>
<!-- SafeWidgetGridComponent -->
<g id="node4" class="node">
<title>SafeWidgetGridComponent</title>
<polygon fill="#ffffb3" stroke="black" points="1081.58,-84.8 908.42,-84.8 908.42,-48.8 1081.58,-48.8 1081.58,-84.8"/>
<text text-anchor="middle" x="995" y="-62.6" font-family="Times,serif" font-size="14.00">SafeWidgetGridComponent</text>
</g>
<!-- SafeWidgetGridComponent&#45;&gt;SafeWidgetGridModule -->
<g id="edge4" class="edge">
<title>SafeWidgetGridComponent&#45;&gt;SafeWidgetGridModule</title>
<path fill="none" stroke="black" d="M915.9,-84.81C915.9,-100.85 915.9,-121.8 915.9,-121.8 915.9,-121.8 836.69,-121.8 836.69,-121.8"/>
<polygon fill="black" stroke="black" points="836.69,-118.3 826.69,-121.8 836.69,-125.3 836.69,-118.3"/>
</g>
<!-- SafeTileDataComponent  -->
<g id="node12" class="node">
<title>SafeTileDataComponent </title>
<polygon fill="#fb8072" stroke="black" points="923.18,-214.8 764.82,-214.8 764.82,-178.8 923.18,-178.8 923.18,-214.8"/>
<text text-anchor="middle" x="844" y="-192.6" font-family="Times,serif" font-size="14.00">SafeTileDataComponent </text>
</g>
<!-- SafeWidgetGridModule&#45;&gt;SafeTileDataComponent  -->
<g id="edge11" class="edge">
<title>SafeWidgetGridModule&#45;&gt;SafeTileDataComponent </title>
<path fill="none" stroke="black" stroke-dasharray="5,2" d="M795.65,-149.91C795.65,-149.91 795.65,-168.79 795.65,-168.79"/>
<polygon fill="black" stroke="black" points="792.15,-168.79 795.65,-178.79 799.15,-168.79 792.15,-168.79"/>
</g>
<!-- SafeWidgetGridComponent  -->
<g id="node13" class="node">
<title>SafeWidgetGridComponent </title>
<polygon fill="#fb8072" stroke="black" points="746.08,-214.8 569.92,-214.8 569.92,-178.8 746.08,-178.8 746.08,-214.8"/>
<text text-anchor="middle" x="658" y="-192.6" font-family="Times,serif" font-size="14.00">SafeWidgetGridComponent </text>
</g>
<!-- SafeWidgetGridModule&#45;&gt;SafeWidgetGridComponent  -->
<g id="edge12" class="edge">
<title>SafeWidgetGridModule&#45;&gt;SafeWidgetGridComponent </title>
<path fill="none" stroke="black" stroke-dasharray="5,2" d="M710.82,-149.91C710.82,-149.91 710.82,-168.79 710.82,-168.79"/>
<polygon fill="black" stroke="black" points="707.32,-168.79 710.82,-178.79 714.32,-168.79 707.32,-168.79"/>
</g>
<!-- SafeButtonModule -->
<g id="node6" class="node">
<title>SafeButtonModule</title>
<polygon fill="#8dd3c7" stroke="black" points="884.05,-84.8 881.05,-88.8 860.05,-88.8 857.05,-84.8 761.95,-84.8 761.95,-48.8 884.05,-48.8 884.05,-84.8"/>
<text text-anchor="middle" x="823" y="-62.6" font-family="Times,serif" font-size="14.00">SafeButtonModule</text>
</g>
<!-- SafeButtonModule&#45;&gt;SafeWidgetGridModule -->
<g id="edge5" class="edge">
<title>SafeButtonModule&#45;&gt;SafeWidgetGridModule</title>
<path fill="none" stroke="black" d="M794.19,-84.91C794.19,-84.91 794.19,-103.79 794.19,-103.79"/>
<polygon fill="black" stroke="black" points="790.69,-103.79 794.19,-113.79 797.69,-103.79 790.69,-103.79"/>
</g>
<!-- SafeDividerModule -->
<g id="node7" class="node">
<title>SafeDividerModule</title>
<polygon fill="#8dd3c7" stroke="black" points="743.69,-84.8 740.69,-88.8 719.69,-88.8 716.69,-84.8 616.31,-84.8 616.31,-48.8 743.69,-48.8 743.69,-84.8"/>
<text text-anchor="middle" x="680" y="-62.6" font-family="Times,serif" font-size="14.00">SafeDividerModule</text>
</g>
<!-- SafeDividerModule&#45;&gt;SafeWidgetGridModule -->
<g id="edge6" class="edge">
<title>SafeDividerModule&#45;&gt;SafeWidgetGridModule</title>
<path fill="none" stroke="black" d="M709.47,-84.91C709.47,-84.91 709.47,-103.79 709.47,-103.79"/>
<polygon fill="black" stroke="black" points="705.97,-103.79 709.47,-113.79 712.97,-103.79 705.97,-103.79"/>
</g>
<!-- SafeIconModule -->
<g id="node8" class="node">
<title>SafeIconModule</title>
<polygon fill="#8dd3c7" stroke="black" points="598.8,-84.8 595.8,-88.8 574.8,-88.8 571.8,-84.8 489.2,-84.8 489.2,-48.8 598.8,-48.8 598.8,-84.8"/>
<text text-anchor="middle" x="544" y="-62.6" font-family="Times,serif" font-size="14.00">SafeIconModule</text>
</g>
<!-- SafeIconModule&#45;&gt;SafeWidgetGridModule -->
<g id="edge7" class="edge">
<title>SafeIconModule&#45;&gt;SafeWidgetGridModule</title>
<path fill="none" stroke="black" d="M584.18,-84.81C584.18,-100.85 584.18,-121.8 584.18,-121.8 584.18,-121.8 664.91,-121.8 664.91,-121.8"/>
<polygon fill="black" stroke="black" points="664.91,-125.3 674.91,-121.8 664.91,-118.3 664.91,-125.3"/>
</g>
<!-- SafeModalModule -->
<g id="node9" class="node">
<title>SafeModalModule</title>
<polygon fill="#8dd3c7" stroke="black" points="471.48,-84.8 468.48,-88.8 447.48,-88.8 444.48,-84.8 350.52,-84.8 350.52,-48.8 471.48,-48.8 471.48,-84.8"/>
<text text-anchor="middle" x="411" y="-62.6" font-family="Times,serif" font-size="14.00">SafeModalModule</text>
</g>
<!-- SafeModalModule&#45;&gt;SafeWidgetGridModule -->
<g id="edge8" class="edge">
<title>SafeModalModule&#45;&gt;SafeWidgetGridModule</title>
<path fill="none" stroke="black" d="M411,-85.07C411,-103.36 411,-128.8 411,-128.8 411,-128.8 665.12,-128.8 665.12,-128.8"/>
<polygon fill="black" stroke="black" points="665.12,-132.3 675.12,-128.8 665.12,-125.3 665.12,-132.3"/>
</g>
<!-- SafeWidgetChoiceModule -->
<g id="node10" class="node">
<title>SafeWidgetChoiceModule</title>
<polygon fill="#8dd3c7" stroke="black" points="332.79,-84.8 329.79,-88.8 308.79,-88.8 305.79,-84.8 167.21,-84.8 167.21,-48.8 332.79,-48.8 332.79,-84.8"/>
<text text-anchor="middle" x="250" y="-62.6" font-family="Times,serif" font-size="14.00">SafeWidgetChoiceModule</text>
</g>
<!-- SafeWidgetChoiceModule&#45;&gt;SafeWidgetGridModule -->
<g id="edge9" class="edge">
<title>SafeWidgetChoiceModule&#45;&gt;SafeWidgetGridModule</title>
<path fill="none" stroke="black" d="M250,-84.93C250,-105.37 250,-135.8 250,-135.8 250,-135.8 665.18,-135.8 665.18,-135.8"/>
<polygon fill="black" stroke="black" points="665.18,-139.3 675.18,-135.8 665.18,-132.3 665.18,-139.3"/>
</g>
<!-- SafeWidgetModule -->
<g id="node11" class="node">
<title>SafeWidgetModule</title>
<polygon fill="#8dd3c7" stroke="black" points="149.64,-84.8 146.64,-88.8 125.64,-88.8 122.64,-84.8 24.36,-84.8 24.36,-48.8 149.64,-48.8 149.64,-84.8"/>
<text text-anchor="middle" x="87" y="-62.6" font-family="Times,serif" font-size="14.00">SafeWidgetModule</text>
</g>
<!-- SafeWidgetModule&#45;&gt;SafeWidgetGridModule -->
<g id="edge10" class="edge">
<title>SafeWidgetModule&#45;&gt;SafeWidgetGridModule</title>
<path fill="none" stroke="black" d="M87,-84.81C87,-107.29 87,-142.8 87,-142.8 87,-142.8 665.15,-142.8 665.15,-142.8"/>
<polygon fill="black" stroke="black" points="665.15,-146.3 675.15,-142.8 665.15,-139.3 665.15,-146.3"/>
</g>
</g>
</svg>
