<?xml version="1.0" encoding="UTF-8" standalone="no"?>
<!DOCTYPE svg PUBLIC "-//W3C//DTD SVG 1.1//EN"
 "http://www.w3.org/Graphics/SVG/1.1/DTD/svg11.dtd">
<!-- Generated by graphviz version 3.0.0 (20220226.1711)
 -->
<!-- Title: dependencies Pages: 1 -->
<svg width="1723pt" height="247pt"
 viewBox="0.00 0.00 1723.00 246.80" xmlns="http://www.w3.org/2000/svg" xmlns:xlink="http://www.w3.org/1999/xlink">
<g id="graph0" class="graph" transform="scale(1 1) rotate(0) translate(4 242.8)">
<title>dependencies</title>
<polygon fill="white" stroke="transparent" points="-4,4 -4,-242.8 1719,-242.8 1719,4 -4,4"/>
<text text-anchor="middle" x="857.5" y="-8.2" font-family="sans-serif" font-size="14.00">dependencies</text>
<g id="clust1" class="cluster">
<title>cluster_SafeWidgetGridModule</title>
<polygon fill="none" stroke="black" stroke-dasharray="1,5" points="8,-32.8 8,-230.8 1707,-230.8 1707,-32.8 8,-32.8"/>
</g>
<g id="clust7" class="cluster">
<title>cluster_SafeWidgetGridModule_imports</title>
<polygon fill="none" stroke="black" points="823,-40.8 823,-92.8 1699,-92.8 1699,-40.8 823,-40.8"/>
</g>
<g id="clust8" class="cluster">
<title>cluster_SafeWidgetGridModule_exports</title>
<polygon fill="none" stroke="black" points="786,-170.8 786,-222.8 1155,-222.8 1155,-170.8 786,-170.8"/>
</g>
<g id="clust2" class="cluster">
<title>cluster_SafeWidgetGridModule_declarations</title>
<polygon fill="none" stroke="black" points="16,-40.8 16,-92.8 815,-92.8 815,-40.8 16,-40.8"/>
</g>
<!-- SafeExpandedWidgetComponent -->
<g id="node1" class="node">
<title>SafeExpandedWidgetComponent</title>
<polygon fill="#ffffb3" stroke="black" points="806.89,-84.8 603.11,-84.8 603.11,-48.8 806.89,-48.8 806.89,-84.8"/>
<text text-anchor="middle" x="705" y="-62.6" font-family="Times,serif" font-size="14.00">SafeExpandedWidgetComponent</text>
</g>
<!-- SafeWidgetGridModule -->
<g id="node5" class="node">
<title>SafeWidgetGridModule</title>
<polygon fill="#8dd3c7" stroke="black" points="1050.8,-149.8 1047.8,-153.8 1026.8,-153.8 1023.8,-149.8 899.2,-149.8 899.2,-113.8 1050.8,-113.8 1050.8,-149.8"/>
<text text-anchor="middle" x="975" y="-127.6" font-family="Times,serif" font-size="14.00">SafeWidgetGridModule</text>
</g>
<!-- SafeExpandedWidgetComponent&#45;&gt;SafeWidgetGridModule -->
<g id="edge1" class="edge">
<title>SafeExpandedWidgetComponent&#45;&gt;SafeWidgetGridModule</title>
<path fill="none" stroke="black" d="M800.2,-84.81C800.2,-100.85 800.2,-121.8 800.2,-121.8 800.2,-121.8 889.35,-121.8 889.35,-121.8"/>
<polygon fill="black" stroke="black" points="889.35,-125.3 899.35,-121.8 889.35,-118.3 889.35,-125.3"/>
</g>
<!-- SafeFloatingOptionsComponent -->
<g id="node2" class="node">
<title>SafeFloatingOptionsComponent</title>
<polygon fill="#ffffb3" stroke="black" points="585.71,-84.8 388.29,-84.8 388.29,-48.8 585.71,-48.8 585.71,-84.8"/>
<text text-anchor="middle" x="487" y="-62.6" font-family="Times,serif" font-size="14.00">SafeFloatingOptionsComponent</text>
</g>
<!-- SafeFloatingOptionsComponent&#45;&gt;SafeWidgetGridModule -->
<g id="edge2" class="edge">
<title>SafeFloatingOptionsComponent&#45;&gt;SafeWidgetGridModule</title>
<path fill="none" stroke="black" d="M487,-85.07C487,-103.36 487,-128.8 487,-128.8 487,-128.8 889.29,-128.8 889.29,-128.8"/>
<polygon fill="black" stroke="black" points="889.29,-132.3 899.29,-128.8 889.29,-125.3 889.29,-132.3"/>
</g>
<!-- SafeTileDataComponent -->
<g id="node3" class="node">
<title>SafeTileDataComponent</title>
<polygon fill="#ffffb3" stroke="black" points="370.68,-84.8 215.32,-84.8 215.32,-48.8 370.68,-48.8 370.68,-84.8"/>
<text text-anchor="middle" x="293" y="-62.6" font-family="Times,serif" font-size="14.00">SafeTileDataComponent</text>
</g>
<!-- SafeTileDataComponent&#45;&gt;SafeWidgetGridModule -->
<g id="edge3" class="edge">
<title>SafeTileDataComponent&#45;&gt;SafeWidgetGridModule</title>
<path fill="none" stroke="black" d="M293,-84.93C293,-105.37 293,-135.8 293,-135.8 293,-135.8 889.08,-135.8 889.08,-135.8"/>
<polygon fill="black" stroke="black" points="889.08,-139.3 899.08,-135.8 889.08,-132.3 889.08,-139.3"/>
</g>
<!-- SafeWidgetGridComponent -->
<g id="node4" class="node">
<title>SafeWidgetGridComponent</title>
<polygon fill="#ffffb3" stroke="black" points="197.58,-84.8 24.42,-84.8 24.42,-48.8 197.58,-48.8 197.58,-84.8"/>
<text text-anchor="middle" x="111" y="-62.6" font-family="Times,serif" font-size="14.00">SafeWidgetGridComponent</text>
</g>
<!-- SafeWidgetGridComponent&#45;&gt;SafeWidgetGridModule -->
<g id="edge4" class="edge">
<title>SafeWidgetGridComponent&#45;&gt;SafeWidgetGridModule</title>
<path fill="none" stroke="black" d="M111,-84.81C111,-107.29 111,-142.8 111,-142.8 111,-142.8 889.08,-142.8 889.08,-142.8"/>
<polygon fill="black" stroke="black" points="889.08,-146.3 899.08,-142.8 889.08,-139.3 889.08,-146.3"/>
</g>
<!-- SafeTileDataComponent  -->
<g id="node12" class="node">
<title>SafeTileDataComponent </title>
<polygon fill="#fb8072" stroke="black" points="1147.18,-214.8 988.82,-214.8 988.82,-178.8 1147.18,-178.8 1147.18,-214.8"/>
<text text-anchor="middle" x="1068" y="-192.6" font-family="Times,serif" font-size="14.00">SafeTileDataComponent </text>
</g>
<!-- SafeWidgetGridModule&#45;&gt;SafeTileDataComponent  -->
<g id="edge11" class="edge">
<title>SafeWidgetGridModule&#45;&gt;SafeTileDataComponent </title>
<path fill="none" stroke="black" stroke-dasharray="5,2" d="M1019.65,-149.91C1019.65,-149.91 1019.65,-168.79 1019.65,-168.79"/>
<polygon fill="black" stroke="black" points="1016.15,-168.79 1019.65,-178.79 1023.15,-168.79 1016.15,-168.79"/>
</g>
<!-- SafeWidgetGridComponent  -->
<g id="node13" class="node">
<title>SafeWidgetGridComponent </title>
<polygon fill="#fb8072" stroke="black" points="970.08,-214.8 793.92,-214.8 793.92,-178.8 970.08,-178.8 970.08,-214.8"/>
<text text-anchor="middle" x="882" y="-192.6" font-family="Times,serif" font-size="14.00">SafeWidgetGridComponent </text>
</g>
<!-- SafeWidgetGridModule&#45;&gt;SafeWidgetGridComponent  -->
<g id="edge12" class="edge">
<title>SafeWidgetGridModule&#45;&gt;SafeWidgetGridComponent </title>
<path fill="none" stroke="black" stroke-dasharray="5,2" d="M934.82,-149.91C934.82,-149.91 934.82,-168.79 934.82,-168.79"/>
<polygon fill="black" stroke="black" points="931.32,-168.79 934.82,-178.79 938.32,-168.79 931.32,-168.79"/>
</g>
<!-- SafeButtonModule -->
<g id="node6" class="node">
<title>SafeButtonModule</title>
<polygon fill="#8dd3c7" stroke="black" points="1691.05,-84.8 1688.05,-88.8 1667.05,-88.8 1664.05,-84.8 1568.95,-84.8 1568.95,-48.8 1691.05,-48.8 1691.05,-84.8"/>
<text text-anchor="middle" x="1630" y="-62.6" font-family="Times,serif" font-size="14.00">SafeButtonModule</text>
</g>
<!-- SafeButtonModule&#45;&gt;SafeWidgetGridModule -->
<g id="edge5" class="edge">
<title>SafeButtonModule&#45;&gt;SafeWidgetGridModule</title>
<path fill="none" stroke="black" d="M1630,-84.81C1630,-107.29 1630,-142.8 1630,-142.8 1630,-142.8 1060.78,-142.8 1060.78,-142.8"/>
<polygon fill="black" stroke="black" points="1060.78,-139.3 1050.78,-142.8 1060.78,-146.3 1060.78,-139.3"/>
</g>
<!-- SafeDividerModule -->
<g id="node7" class="node">
<title>SafeDividerModule</title>
<polygon fill="#8dd3c7" stroke="black" points="1550.69,-84.8 1547.69,-88.8 1526.69,-88.8 1523.69,-84.8 1423.31,-84.8 1423.31,-48.8 1550.69,-48.8 1550.69,-84.8"/>
<text text-anchor="middle" x="1487" y="-62.6" font-family="Times,serif" font-size="14.00">SafeDividerModule</text>
</g>
<!-- SafeDividerModule&#45;&gt;SafeWidgetGridModule -->
<g id="edge6" class="edge">
<title>SafeDividerModule&#45;&gt;SafeWidgetGridModule</title>
<path fill="none" stroke="black" d="M1487,-84.93C1487,-105.37 1487,-135.8 1487,-135.8 1487,-135.8 1060.82,-135.8 1060.82,-135.8"/>
<polygon fill="black" stroke="black" points="1060.82,-132.3 1050.82,-135.8 1060.82,-139.3 1060.82,-132.3"/>
</g>
<!-- SafeIconModule -->
<g id="node8" class="node">
<title>SafeIconModule</title>
<polygon fill="#8dd3c7" stroke="black" points="1405.8,-84.8 1402.8,-88.8 1381.8,-88.8 1378.8,-84.8 1296.2,-84.8 1296.2,-48.8 1405.8,-48.8 1405.8,-84.8"/>
<text text-anchor="middle" x="1351" y="-62.6" font-family="Times,serif" font-size="14.00">SafeIconModule</text>
</g>
<!-- SafeIconModule&#45;&gt;SafeWidgetGridModule -->
<g id="edge7" class="edge">
<title>SafeIconModule&#45;&gt;SafeWidgetGridModule</title>
<path fill="none" stroke="black" d="M1351,-85.07C1351,-103.36 1351,-128.8 1351,-128.8 1351,-128.8 1061.09,-128.8 1061.09,-128.8"/>
<polygon fill="black" stroke="black" points="1061.09,-125.3 1051.09,-128.8 1061.09,-132.3 1061.09,-125.3"/>
</g>
<!-- SafeModalModule -->
<g id="node9" class="node">
<title>SafeModalModule</title>
<polygon fill="#8dd3c7" stroke="black" points="1278.48,-84.8 1275.48,-88.8 1254.48,-88.8 1251.48,-84.8 1157.52,-84.8 1157.52,-48.8 1278.48,-48.8 1278.48,-84.8"/>
<text text-anchor="middle" x="1218" y="-62.6" font-family="Times,serif" font-size="14.00">SafeModalModule</text>
</g>
<!-- SafeModalModule&#45;&gt;SafeWidgetGridModule -->
<g id="edge8" class="edge">
<title>SafeModalModule&#45;&gt;SafeWidgetGridModule</title>
<path fill="none" stroke="black" d="M1218,-84.81C1218,-100.85 1218,-121.8 1218,-121.8 1218,-121.8 1060.89,-121.8 1060.89,-121.8"/>
<polygon fill="black" stroke="black" points="1060.89,-118.3 1050.89,-121.8 1060.89,-125.3 1060.89,-118.3"/>
</g>
<!-- SafeWidgetChoiceModule -->
<g id="node10" class="node">
<title>SafeWidgetChoiceModule</title>
<polygon fill="#8dd3c7" stroke="black" points="1139.79,-84.8 1136.79,-88.8 1115.79,-88.8 1112.79,-84.8 974.21,-84.8 974.21,-48.8 1139.79,-48.8 1139.79,-84.8"/>
<text text-anchor="middle" x="1057" y="-62.6" font-family="Times,serif" font-size="14.00">SafeWidgetChoiceModule</text>
</g>
<!-- SafeWidgetChoiceModule&#45;&gt;SafeWidgetGridModule -->
<g id="edge9" class="edge">
<title>SafeWidgetChoiceModule&#45;&gt;SafeWidgetGridModule</title>
<path fill="none" stroke="black" d="M1012.5,-84.91C1012.5,-84.91 1012.5,-103.79 1012.5,-103.79"/>
<polygon fill="black" stroke="black" points="1009,-103.79 1012.5,-113.79 1016,-103.79 1009,-103.79"/>
</g>
<!-- SafeWidgetModule -->
<g id="node11" class="node">
<title>SafeWidgetModule</title>
<polygon fill="#8dd3c7" stroke="black" points="956.64,-84.8 953.64,-88.8 932.64,-88.8 929.64,-84.8 831.36,-84.8 831.36,-48.8 956.64,-48.8 956.64,-84.8"/>
<text text-anchor="middle" x="894" y="-62.6" font-family="Times,serif" font-size="14.00">SafeWidgetModule</text>
</g>
<!-- SafeWidgetModule&#45;&gt;SafeWidgetGridModule -->
<g id="edge10" class="edge">
<title>SafeWidgetModule&#45;&gt;SafeWidgetGridModule</title>
<path fill="none" stroke="black" d="M928.08,-84.91C928.08,-84.91 928.08,-103.79 928.08,-103.79"/>
<polygon fill="black" stroke="black" points="924.58,-103.79 928.08,-113.79 931.58,-103.79 924.58,-103.79"/>
</g>
</g>
</svg>
