<?xml version="1.0" encoding="UTF-8" standalone="no"?>
<!DOCTYPE svg PUBLIC "-//W3C//DTD SVG 1.1//EN"
 "http://www.w3.org/Graphics/SVG/1.1/DTD/svg11.dtd">
<!-- Generated by graphviz version 3.0.0 (20220226.1711)
 -->
<!-- Title: dependencies Pages: 1 -->
<svg width="482pt" height="174pt"
 viewBox="0.00 0.00 482.00 173.80" xmlns="http://www.w3.org/2000/svg" xmlns:xlink="http://www.w3.org/1999/xlink">
<g id="graph0" class="graph" transform="scale(1 1) rotate(0) translate(4 169.8)">
<title>dependencies</title>
<polygon fill="white" stroke="transparent" points="-4,4 -4,-169.8 478,-169.8 478,4 -4,4"/>
<text text-anchor="middle" x="237" y="-8.2" font-family="sans-serif" font-size="14.00">dependencies</text>
<g id="clust1" class="cluster">
<title>cluster_AddPageModule</title>
<polygon fill="none" stroke="black" stroke-dasharray="1,5" points="8,-32.8 8,-157.8 466,-157.8 466,-32.8 8,-32.8"/>
</g>
<g id="clust4" class="cluster">
<title>cluster_AddPageModule_imports</title>
<polygon fill="none" stroke="black" points="172,-40.8 172,-92.8 458,-92.8 458,-40.8 172,-40.8"/>
</g>
<g id="clust2" class="cluster">
<title>cluster_AddPageModule_declarations</title>
<polygon fill="none" stroke="black" points="16,-40.8 16,-92.8 164,-92.8 164,-40.8 16,-40.8"/>
</g>
<!-- AddPageComponent -->
<g id="node1" class="node">
<title>AddPageComponent</title>
<polygon fill="#ffffb3" stroke="black" points="156.16,-84.8 23.84,-84.8 23.84,-48.8 156.16,-48.8 156.16,-84.8"/>
<text text-anchor="middle" x="90" y="-62.6" font-family="Times,serif" font-size="14.00">AddPageComponent</text>
</g>
<!-- AddPageModule -->
<g id="node2" class="node">
<title>AddPageModule</title>
<polygon fill="#8dd3c7" stroke="black" points="283.38,-149.8 280.38,-153.8 259.38,-153.8 256.38,-149.8 172.62,-149.8 172.62,-113.8 283.38,-113.8 283.38,-149.8"/>
<text text-anchor="middle" x="228" y="-127.6" font-family="Times,serif" font-size="14.00">AddPageModule</text>
</g>
<!-- AddPageComponent&#45;&gt;AddPageModule -->
<g id="edge1" class="edge">
<title>AddPageComponent&#45;&gt;AddPageModule</title>
<path fill="none" stroke="black" d="M156.4,-66.8C168,-66.8 176.45,-66.8 176.45,-66.8 176.45,-66.8 176.45,-103.69 176.45,-103.69"/>
<polygon fill="black" stroke="black" points="172.95,-103.69 176.45,-113.69 179.95,-103.69 172.95,-103.69"/>
</g>
<!-- AddPageRoutingModule -->
<g id="node3" class="node">
<title>AddPageRoutingModule</title>
<polygon fill="#8dd3c7" stroke="black" points="449.99,-84.8 446.99,-88.8 425.99,-88.8 422.99,-84.8 294.01,-84.8 294.01,-48.8 449.99,-48.8 449.99,-84.8"/>
<text text-anchor="middle" x="372" y="-62.6" font-family="Times,serif" font-size="14.00">AddPageRoutingModule</text>
</g>
<!-- AddPageRoutingModule&#45;&gt;AddPageModule -->
<g id="edge2" class="edge">
<title>AddPageRoutingModule&#45;&gt;AddPageModule</title>
<path fill="none" stroke="black" d="M294,-66.8C285.33,-66.8 279.55,-66.8 279.55,-66.8 279.55,-66.8 279.55,-103.69 279.55,-103.69"/>
<polygon fill="black" stroke="black" points="276.05,-103.69 279.55,-113.69 283.05,-103.69 276.05,-103.69"/>
</g>
<!-- FormsModule -->
<g id="node4" class="node">
<title>FormsModule</title>
<polygon fill="#8dd3c7" stroke="black" points="275.84,-84.8 272.84,-88.8 251.84,-88.8 248.84,-84.8 180.16,-84.8 180.16,-48.8 275.84,-48.8 275.84,-84.8"/>
<text text-anchor="middle" x="228" y="-62.6" font-family="Times,serif" font-size="14.00">FormsModule</text>
</g>
<!-- FormsModule&#45;&gt;AddPageModule -->
<g id="edge3" class="edge">
<title>FormsModule&#45;&gt;AddPageModule</title>
<path fill="none" stroke="black" d="M228,-84.91C228,-84.91 228,-103.79 228,-103.79"/>
<polygon fill="black" stroke="black" points="224.5,-103.79 228,-113.79 231.5,-103.79 224.5,-103.79"/>
</g>
</g>
</svg>
