<?xml version="1.0" encoding="UTF-8" standalone="no"?>
<!DOCTYPE svg PUBLIC "-//W3C//DTD SVG 1.1//EN"
 "http://www.w3.org/Graphics/SVG/1.1/DTD/svg11.dtd">
<!-- Generated by graphviz version 3.0.0 (20220226.1711)
 -->
<!-- Title: dependencies Pages: 1 -->
<svg width="390pt" height="174pt"
 viewBox="0.00 0.00 390.00 173.80" xmlns="http://www.w3.org/2000/svg" xmlns:xlink="http://www.w3.org/1999/xlink">
<g id="graph0" class="graph" transform="scale(1 1) rotate(0) translate(4 169.8)">
<title>dependencies</title>
<polygon fill="white" stroke="transparent" points="-4,4 -4,-169.8 386,-169.8 386,4 -4,4"/>
<text text-anchor="middle" x="191" y="-8.2" font-family="sans-serif" font-size="14.00">dependencies</text>
<g id="clust1" class="cluster">
<title>cluster_SafeConfirmModalModule</title>
<polygon fill="none" stroke="black" stroke-dasharray="1,5" points="8,-32.8 8,-157.8 374,-157.8 374,-32.8 8,-32.8"/>
</g>
<g id="clust2" class="cluster">
<title>cluster_SafeConfirmModalModule_declarations</title>
<polygon fill="none" stroke="black" points="160,-40.8 160,-92.8 366,-92.8 366,-40.8 160,-40.8"/>
</g>
<g id="clust4" class="cluster">
<title>cluster_SafeConfirmModalModule_imports</title>
<polygon fill="none" stroke="black" points="16,-40.8 16,-92.8 152,-92.8 152,-40.8 16,-40.8"/>
</g>
<!-- SafeConfirmModalComponent -->
<g id="node1" class="node">
<title>SafeConfirmModalComponent</title>
<polygon fill="#ffffb3" stroke="black" points="358.2,-84.8 167.8,-84.8 167.8,-48.8 358.2,-48.8 358.2,-84.8"/>
<text text-anchor="middle" x="263" y="-62.6" font-family="Times,serif" font-size="14.00">SafeConfirmModalComponent</text>
</g>
<!-- SafeConfirmModalModule -->
<g id="node2" class="node">
<title>SafeConfirmModalModule</title>
<polygon fill="#8dd3c7" stroke="black" points="265.42,-149.8 262.42,-153.8 241.42,-153.8 238.42,-149.8 96.58,-149.8 96.58,-113.8 265.42,-113.8 265.42,-149.8"/>
<text text-anchor="middle" x="181" y="-127.6" font-family="Times,serif" font-size="14.00">SafeConfirmModalModule</text>
</g>
<!-- SafeConfirmModalComponent&#45;&gt;SafeConfirmModalModule -->
<g id="edge1" class="edge">
<title>SafeConfirmModalComponent&#45;&gt;SafeConfirmModalModule</title>
<path fill="none" stroke="black" d="M216.56,-84.91C216.56,-84.91 216.56,-103.79 216.56,-103.79"/>
<polygon fill="black" stroke="black" points="213.06,-103.79 216.56,-113.79 220.06,-103.79 213.06,-103.79"/>
</g>
<!-- SafeModalModule -->
<g id="node3" class="node">
<title>SafeModalModule</title>
<polygon fill="#8dd3c7" stroke="black" points="144.48,-84.8 141.48,-88.8 120.48,-88.8 117.48,-84.8 23.52,-84.8 23.52,-48.8 144.48,-48.8 144.48,-84.8"/>
<text text-anchor="middle" x="84" y="-62.6" font-family="Times,serif" font-size="14.00">SafeModalModule</text>
</g>
<!-- SafeModalModule&#45;&gt;SafeConfirmModalModule -->
<g id="edge2" class="edge">
<title>SafeModalModule&#45;&gt;SafeConfirmModalModule</title>
<path fill="none" stroke="black" d="M120.64,-84.91C120.64,-84.91 120.64,-103.79 120.64,-103.79"/>
<polygon fill="black" stroke="black" points="117.14,-103.79 120.64,-113.79 124.14,-103.79 117.14,-103.79"/>
</g>
</g>
</svg>
