<?xml version="1.0" encoding="UTF-8" standalone="no"?>
<!DOCTYPE svg PUBLIC "-//W3C//DTD SVG 1.1//EN"
 "http://www.w3.org/Graphics/SVG/1.1/DTD/svg11.dtd">
<!-- Generated by graphviz version 3.0.0 (20220226.1711)
 -->
<!-- Title: dependencies Pages: 1 -->
<svg width="428pt" height="247pt"
 viewBox="0.00 0.00 428.00 246.80" xmlns="http://www.w3.org/2000/svg" xmlns:xlink="http://www.w3.org/1999/xlink">
<g id="graph0" class="graph" transform="scale(1 1) rotate(0) translate(4 242.8)">
<title>dependencies</title>
<polygon fill="white" stroke="transparent" points="-4,4 -4,-242.8 424,-242.8 424,4 -4,4"/>
<text text-anchor="middle" x="210" y="-8.2" font-family="sans-serif" font-size="14.00">dependencies</text>
<g id="clust1" class="cluster">
<title>cluster_UserSummaryModule</title>
<polygon fill="none" stroke="black" stroke-dasharray="1,5" points="8,-32.8 8,-230.8 412,-230.8 412,-32.8 8,-32.8"/>
</g>
<g id="clust5" class="cluster">
<title>cluster_UserSummaryModule_exports</title>
<polygon fill="none" stroke="black" points="114,-170.8 114,-222.8 296,-222.8 296,-170.8 114,-170.8"/>
</g>
<g id="clust4" class="cluster">
<title>cluster_UserSummaryModule_imports</title>
<polygon fill="none" stroke="black" points="202,-40.8 202,-92.8 404,-92.8 404,-40.8 202,-40.8"/>
</g>
<g id="clust2" class="cluster">
<title>cluster_UserSummaryModule_declarations</title>
<polygon fill="none" stroke="black" points="16,-40.8 16,-92.8 194,-92.8 194,-40.8 16,-40.8"/>
</g>
<!-- UserSummaryComponent -->
<g id="node1" class="node">
<title>UserSummaryComponent</title>
<polygon fill="#ffffb3" stroke="black" points="186.21,-84.8 23.79,-84.8 23.79,-48.8 186.21,-48.8 186.21,-84.8"/>
<text text-anchor="middle" x="105" y="-62.6" font-family="Times,serif" font-size="14.00">UserSummaryComponent</text>
</g>
<!-- UserSummaryModule -->
<g id="node2" class="node">
<title>UserSummaryModule</title>
<polygon fill="#8dd3c7" stroke="black" points="275.43,-149.8 272.43,-153.8 251.43,-153.8 248.43,-149.8 134.57,-149.8 134.57,-113.8 275.43,-113.8 275.43,-149.8"/>
<text text-anchor="middle" x="205" y="-127.6" font-family="Times,serif" font-size="14.00">UserSummaryModule</text>
</g>
<!-- UserSummaryComponent&#45;&gt;UserSummaryModule -->
<g id="edge1" class="edge">
<title>UserSummaryComponent&#45;&gt;UserSummaryModule</title>
<path fill="none" stroke="black" d="M160.44,-84.91C160.44,-84.91 160.44,-103.79 160.44,-103.79"/>
<polygon fill="black" stroke="black" points="156.94,-103.79 160.44,-113.79 163.94,-103.79 156.94,-103.79"/>
</g>
<!-- UserSummaryComponent  -->
<g id="node4" class="node">
<title>UserSummaryComponent </title>
<polygon fill="#fb8072" stroke="black" points="287.71,-214.8 122.29,-214.8 122.29,-178.8 287.71,-178.8 287.71,-214.8"/>
<text text-anchor="middle" x="205" y="-192.6" font-family="Times,serif" font-size="14.00">UserSummaryComponent </text>
</g>
<!-- UserSummaryModule&#45;&gt;UserSummaryComponent  -->
<g id="edge3" class="edge">
<title>UserSummaryModule&#45;&gt;UserSummaryComponent </title>
<path fill="none" stroke="black" stroke-dasharray="5,2" d="M205,-149.91C205,-149.91 205,-168.79 205,-168.79"/>
<polygon fill="black" stroke="black" points="201.5,-168.79 205,-178.79 208.5,-168.79 201.5,-168.79"/>
</g>
<!-- UserSummaryRoutingModule -->
<g id="node3" class="node">
<title>UserSummaryRoutingModule</title>
<polygon fill="#8dd3c7" stroke="black" points="395.55,-84.8 392.55,-88.8 371.55,-88.8 368.55,-84.8 210.45,-84.8 210.45,-48.8 395.55,-48.8 395.55,-84.8"/>
<text text-anchor="middle" x="303" y="-62.6" font-family="Times,serif" font-size="14.00">UserSummaryRoutingModule</text>
</g>
<!-- UserSummaryRoutingModule&#45;&gt;UserSummaryModule -->
<g id="edge2" class="edge">
<title>UserSummaryRoutingModule&#45;&gt;UserSummaryModule</title>
<path fill="none" stroke="black" d="M242.72,-84.91C242.72,-84.91 242.72,-103.79 242.72,-103.79"/>
<polygon fill="black" stroke="black" points="239.22,-103.79 242.72,-113.79 246.22,-103.79 239.22,-103.79"/>
</g>
</g>
</svg>
