<?xml version="1.0" encoding="UTF-8" standalone="no"?>
<!DOCTYPE svg PUBLIC "-//W3C//DTD SVG 1.1//EN"
 "http://www.w3.org/Graphics/SVG/1.1/DTD/svg11.dtd">
<!-- Generated by graphviz version 3.0.0 (20220226.1711)
 -->
<!-- Title: dependencies Pages: 1 -->
<svg width="330pt" height="247pt"
 viewBox="0.00 0.00 330.00 246.80" xmlns="http://www.w3.org/2000/svg" xmlns:xlink="http://www.w3.org/1999/xlink">
<g id="graph0" class="graph" transform="scale(1 1) rotate(0) translate(4 242.8)">
<title>dependencies</title>
<polygon fill="white" stroke="transparent" points="-4,4 -4,-242.8 326,-242.8 326,4 -4,4"/>
<text text-anchor="middle" x="161" y="-8.2" font-family="sans-serif" font-size="14.00">dependencies</text>
<g id="clust1" class="cluster">
<title>cluster_UsersModule</title>
<polygon fill="none" stroke="black" stroke-dasharray="1,5" points="8,-32.8 8,-230.8 314,-230.8 314,-32.8 8,-32.8"/>
</g>
<g id="clust4" class="cluster">
<title>cluster_UsersModule_imports</title>
<polygon fill="none" stroke="black" points="154,-40.8 154,-92.8 306,-92.8 306,-40.8 154,-40.8"/>
</g>
<g id="clust5" class="cluster">
<title>cluster_UsersModule_exports</title>
<polygon fill="none" stroke="black" points="90,-170.8 90,-222.8 222,-222.8 222,-170.8 90,-170.8"/>
</g>
<g id="clust2" class="cluster">
<title>cluster_UsersModule_declarations</title>
<polygon fill="none" stroke="black" points="16,-40.8 16,-92.8 146,-92.8 146,-40.8 16,-40.8"/>
</g>
<!-- UsersComponent -->
<g id="node1" class="node">
<title>UsersComponent</title>
<polygon fill="#ffffb3" stroke="black" points="137.71,-84.8 24.29,-84.8 24.29,-48.8 137.71,-48.8 137.71,-84.8"/>
<text text-anchor="middle" x="81" y="-62.6" font-family="Times,serif" font-size="14.00">UsersComponent</text>
</g>
<!-- UsersModule -->
<g id="node2" class="node">
<title>UsersModule</title>
<polygon fill="#8dd3c7" stroke="black" points="201.94,-149.8 198.94,-153.8 177.94,-153.8 174.94,-149.8 110.06,-149.8 110.06,-113.8 201.94,-113.8 201.94,-149.8"/>
<text text-anchor="middle" x="156" y="-127.6" font-family="Times,serif" font-size="14.00">UsersModule</text>
</g>
<!-- UsersComponent&#45;&gt;UsersModule -->
<g id="edge1" class="edge">
<title>UsersComponent&#45;&gt;UsersModule</title>
<path fill="none" stroke="black" d="M123.94,-84.91C123.94,-84.91 123.94,-103.79 123.94,-103.79"/>
<polygon fill="black" stroke="black" points="120.44,-103.79 123.94,-113.79 127.44,-103.79 120.44,-103.79"/>
</g>
<!-- UsersComponent  -->
<g id="node4" class="node">
<title>UsersComponent </title>
<polygon fill="#fb8072" stroke="black" points="214.21,-214.8 97.79,-214.8 97.79,-178.8 214.21,-178.8 214.21,-214.8"/>
<text text-anchor="middle" x="156" y="-192.6" font-family="Times,serif" font-size="14.00">UsersComponent </text>
</g>
<!-- UsersModule&#45;&gt;UsersComponent  -->
<g id="edge3" class="edge">
<title>UsersModule&#45;&gt;UsersComponent </title>
<path fill="none" stroke="black" stroke-dasharray="5,2" d="M156,-149.91C156,-149.91 156,-168.79 156,-168.79"/>
<polygon fill="black" stroke="black" points="152.5,-168.79 156,-178.79 159.5,-168.79 152.5,-168.79"/>
</g>
<!-- UsersRoutingModule -->
<g id="node3" class="node">
<title>UsersRoutingModule</title>
<polygon fill="#8dd3c7" stroke="black" points="298.05,-84.8 295.05,-88.8 274.05,-88.8 271.05,-84.8 161.95,-84.8 161.95,-48.8 298.05,-48.8 298.05,-84.8"/>
<text text-anchor="middle" x="230" y="-62.6" font-family="Times,serif" font-size="14.00">UsersRoutingModule</text>
</g>
<!-- UsersRoutingModule&#45;&gt;UsersModule -->
<g id="edge2" class="edge">
<title>UsersRoutingModule&#45;&gt;UsersModule</title>
<path fill="none" stroke="black" d="M181.72,-84.91C181.72,-84.91 181.72,-103.79 181.72,-103.79"/>
<polygon fill="black" stroke="black" points="178.22,-103.79 181.72,-113.79 185.22,-103.79 178.22,-103.79"/>
</g>
</g>
</svg>
