<?xml version="1.0" encoding="UTF-8" standalone="no"?>
<!DOCTYPE svg PUBLIC "-//W3C//DTD SVG 1.1//EN"
 "http://www.w3.org/Graphics/SVG/1.1/DTD/svg11.dtd">
<!-- Generated by graphviz version 3.0.0 (20220226.1711)
 -->
<!-- Title: dependencies Pages: 1 -->
<svg width="414pt" height="247pt"
 viewBox="0.00 0.00 414.00 246.80" xmlns="http://www.w3.org/2000/svg" xmlns:xlink="http://www.w3.org/1999/xlink">
<g id="graph0" class="graph" transform="scale(1 1) rotate(0) translate(4 242.8)">
<title>dependencies</title>
<polygon fill="white" stroke="transparent" points="-4,4 -4,-242.8 410,-242.8 410,4 -4,4"/>
<text text-anchor="middle" x="203" y="-8.2" font-family="sans-serif" font-size="14.00">dependencies</text>
<g id="clust1" class="cluster">
<title>cluster_DuplicateApplicationModalModule</title>
<polygon fill="none" stroke="black" stroke-dasharray="1,5" points="8,-32.8 8,-230.8 398,-230.8 398,-32.8 8,-32.8"/>
</g>
<g id="clust2" class="cluster">
<title>cluster_DuplicateApplicationModalModule_declarations</title>
<polygon fill="none" stroke="black" points="136,-40.8 136,-92.8 390,-92.8 390,-40.8 136,-40.8"/>
</g>
<g id="clust4" class="cluster">
<title>cluster_DuplicateApplicationModalModule_imports</title>
<polygon fill="none" stroke="black" points="16,-40.8 16,-92.8 128,-92.8 128,-40.8 16,-40.8"/>
</g>
<g id="clust5" class="cluster">
<title>cluster_DuplicateApplicationModalModule_exports</title>
<polygon fill="none" stroke="black" points="74,-170.8 74,-222.8 332,-222.8 332,-170.8 74,-170.8"/>
</g>
<!-- DuplicateApplicationModalComponent -->
<g id="node1" class="node">
<title>DuplicateApplicationModalComponent</title>
<polygon fill="#ffffb3" stroke="black" points="382.4,-84.8 143.6,-84.8 143.6,-48.8 382.4,-48.8 382.4,-84.8"/>
<text text-anchor="middle" x="263" y="-62.6" font-family="Times,serif" font-size="14.00">DuplicateApplicationModalComponent</text>
</g>
<!-- DuplicateApplicationModalModule -->
<g id="node2" class="node">
<title>DuplicateApplicationModalModule</title>
<polygon fill="#8dd3c7" stroke="black" points="311.12,-149.8 308.12,-153.8 287.12,-153.8 284.12,-149.8 94.88,-149.8 94.88,-113.8 311.12,-113.8 311.12,-149.8"/>
<text text-anchor="middle" x="203" y="-127.6" font-family="Times,serif" font-size="14.00">DuplicateApplicationModalModule</text>
</g>
<!-- DuplicateApplicationModalComponent&#45;&gt;DuplicateApplicationModalModule -->
<g id="edge1" class="edge">
<title>DuplicateApplicationModalComponent&#45;&gt;DuplicateApplicationModalModule</title>
<path fill="none" stroke="black" d="M227.56,-84.91C227.56,-84.91 227.56,-103.79 227.56,-103.79"/>
<polygon fill="black" stroke="black" points="224.06,-103.79 227.56,-113.79 231.06,-103.79 224.06,-103.79"/>
</g>
<!-- DuplicateApplicationModalComponent  -->
<g id="node4" class="node">
<title>DuplicateApplicationModalComponent </title>
<polygon fill="#fb8072" stroke="black" points="323.9,-214.8 82.1,-214.8 82.1,-178.8 323.9,-178.8 323.9,-214.8"/>
<text text-anchor="middle" x="203" y="-192.6" font-family="Times,serif" font-size="14.00">DuplicateApplicationModalComponent </text>
</g>
<!-- DuplicateApplicationModalModule&#45;&gt;DuplicateApplicationModalComponent  -->
<g id="edge3" class="edge">
<title>DuplicateApplicationModalModule&#45;&gt;DuplicateApplicationModalComponent </title>
<path fill="none" stroke="black" stroke-dasharray="5,2" d="M203,-149.91C203,-149.91 203,-168.79 203,-168.79"/>
<polygon fill="black" stroke="black" points="199.5,-168.79 203,-178.79 206.5,-168.79 199.5,-168.79"/>
</g>
<!-- FormsModule -->
<g id="node3" class="node">
<title>FormsModule</title>
<polygon fill="#8dd3c7" stroke="black" points="119.84,-84.8 116.84,-88.8 95.84,-88.8 92.84,-84.8 24.16,-84.8 24.16,-48.8 119.84,-48.8 119.84,-84.8"/>
<text text-anchor="middle" x="72" y="-62.6" font-family="Times,serif" font-size="14.00">FormsModule</text>
</g>
<!-- FormsModule&#45;&gt;DuplicateApplicationModalModule -->
<g id="edge2" class="edge">
<title>FormsModule&#45;&gt;DuplicateApplicationModalModule</title>
<path fill="none" stroke="black" d="M107.18,-84.91C107.18,-84.91 107.18,-103.79 107.18,-103.79"/>
<polygon fill="black" stroke="black" points="103.68,-103.79 107.18,-113.79 110.68,-103.79 103.68,-103.79"/>
</g>
</g>
</svg>
