<?xml version="1.0" encoding="UTF-8" standalone="no"?>
<!DOCTYPE svg PUBLIC "-//W3C//DTD SVG 1.1//EN"
 "http://www.w3.org/Graphics/SVG/1.1/DTD/svg11.dtd">
<!-- Generated by graphviz version 3.0.0 (20220226.1711)
 -->
<!-- Title: dependencies Pages: 1 -->
<svg width="965pt" height="247pt"
 viewBox="0.00 0.00 965.00 246.80" xmlns="http://www.w3.org/2000/svg" xmlns:xlink="http://www.w3.org/1999/xlink">
<g id="graph0" class="graph" transform="scale(1 1) rotate(0) translate(4 242.8)">
<title>dependencies</title>
<polygon fill="white" stroke="transparent" points="-4,4 -4,-242.8 961,-242.8 961,4 -4,4"/>
<text text-anchor="middle" x="478.5" y="-8.2" font-family="sans-serif" font-size="14.00">dependencies</text>
<g id="clust1" class="cluster">
<title>cluster_SafeGridWidgetModule</title>
<polygon fill="none" stroke="black" stroke-dasharray="1,5" points="8,-32.8 8,-230.8 949,-230.8 949,-32.8 8,-32.8"/>
</g>
<g id="clust2" class="cluster">
<title>cluster_SafeGridWidgetModule_declarations</title>
<polygon fill="none" stroke="black" points="751,-40.8 751,-92.8 941,-92.8 941,-40.8 751,-40.8"/>
</g>
<g id="clust5" class="cluster">
<title>cluster_SafeGridWidgetModule_exports</title>
<polygon fill="none" stroke="black" points="349,-170.8 349,-222.8 541,-222.8 541,-170.8 349,-170.8"/>
</g>
<g id="clust4" class="cluster">
<title>cluster_SafeGridWidgetModule_imports</title>
<polygon fill="none" stroke="black" points="16,-40.8 16,-92.8 743,-92.8 743,-40.8 16,-40.8"/>
</g>
<!-- SafeGridWidgetComponent -->
<g id="node1" class="node">
<title>SafeGridWidgetComponent</title>
<polygon fill="#ffffb3" stroke="black" points="932.58,-84.8 759.42,-84.8 759.42,-48.8 932.58,-48.8 932.58,-84.8"/>
<text text-anchor="middle" x="846" y="-62.6" font-family="Times,serif" font-size="14.00">SafeGridWidgetComponent</text>
</g>
<!-- SafeGridWidgetModule -->
<g id="node2" class="node">
<title>SafeGridWidgetModule</title>
<polygon fill="#8dd3c7" stroke="black" points="520.8,-149.8 517.8,-153.8 496.8,-153.8 493.8,-149.8 369.2,-149.8 369.2,-113.8 520.8,-113.8 520.8,-149.8"/>
<text text-anchor="middle" x="445" y="-127.6" font-family="Times,serif" font-size="14.00">SafeGridWidgetModule</text>
</g>
<!-- SafeGridWidgetComponent&#45;&gt;SafeGridWidgetModule -->
<g id="edge1" class="edge">
<title>SafeGridWidgetComponent&#45;&gt;SafeGridWidgetModule</title>
<path fill="none" stroke="black" d="M846,-85.08C846,-106.12 846,-137.8 846,-137.8 846,-137.8 530.9,-137.8 530.9,-137.8"/>
<polygon fill="black" stroke="black" points="530.9,-134.3 520.9,-137.8 530.9,-141.3 530.9,-134.3"/>
</g>
<!-- SafeGridWidgetComponent  -->
<g id="node7" class="node">
<title>SafeGridWidgetComponent </title>
<polygon fill="#fb8072" stroke="black" points="533.08,-214.8 356.92,-214.8 356.92,-178.8 533.08,-178.8 533.08,-214.8"/>
<text text-anchor="middle" x="445" y="-192.6" font-family="Times,serif" font-size="14.00">SafeGridWidgetComponent </text>
</g>
<!-- SafeGridWidgetModule&#45;&gt;SafeGridWidgetComponent  -->
<g id="edge6" class="edge">
<title>SafeGridWidgetModule&#45;&gt;SafeGridWidgetComponent </title>
<path fill="none" stroke="black" stroke-dasharray="5,2" d="M445,-149.91C445,-149.91 445,-168.79 445,-168.79"/>
<polygon fill="black" stroke="black" points="441.5,-168.79 445,-178.79 448.5,-168.79 441.5,-168.79"/>
</g>
<!-- SafeChooseRecordModalModule -->
<g id="node3" class="node">
<title>SafeChooseRecordModalModule</title>
<polygon fill="#8dd3c7" stroke="black" points="734.91,-84.8 731.91,-88.8 710.91,-88.8 707.91,-84.8 531.09,-84.8 531.09,-48.8 734.91,-48.8 734.91,-84.8"/>
<text text-anchor="middle" x="633" y="-62.6" font-family="Times,serif" font-size="14.00">SafeChooseRecordModalModule</text>
</g>
<!-- SafeChooseRecordModalModule&#45;&gt;SafeGridWidgetModule -->
<g id="edge2" class="edge">
<title>SafeChooseRecordModalModule&#45;&gt;SafeGridWidgetModule</title>
<path fill="none" stroke="black" d="M634,-84.82C634,-102.17 634,-125.8 634,-125.8 634,-125.8 530.78,-125.8 530.78,-125.8"/>
<polygon fill="black" stroke="black" points="530.78,-122.3 520.78,-125.8 530.78,-129.3 530.78,-122.3"/>
</g>
<!-- SafeCoreGridModule -->
<g id="node4" class="node">
<title>SafeCoreGridModule</title>
<polygon fill="#8dd3c7" stroke="black" points="513.8,-84.8 510.8,-88.8 489.8,-88.8 486.8,-84.8 376.2,-84.8 376.2,-48.8 513.8,-48.8 513.8,-84.8"/>
<text text-anchor="middle" x="445" y="-62.6" font-family="Times,serif" font-size="14.00">SafeCoreGridModule</text>
</g>
<!-- SafeCoreGridModule&#45;&gt;SafeGridWidgetModule -->
<g id="edge3" class="edge">
<title>SafeCoreGridModule&#45;&gt;SafeGridWidgetModule</title>
<path fill="none" stroke="black" d="M445,-84.91C445,-84.91 445,-103.79 445,-103.79"/>
<polygon fill="black" stroke="black" points="441.5,-103.79 445,-113.79 448.5,-103.79 441.5,-103.79"/>
</g>
<!-- SafeEmailPreviewModule -->
<g id="node5" class="node">
<title>SafeEmailPreviewModule</title>
<polygon fill="#8dd3c7" stroke="black" points="357.74,-84.8 354.74,-88.8 333.74,-88.8 330.74,-84.8 194.26,-84.8 194.26,-48.8 357.74,-48.8 357.74,-84.8"/>
<text text-anchor="middle" x="276" y="-62.6" font-family="Times,serif" font-size="14.00">SafeEmailPreviewModule</text>
</g>
<!-- SafeEmailPreviewModule&#45;&gt;SafeGridWidgetModule -->
<g id="edge4" class="edge">
<title>SafeEmailPreviewModule&#45;&gt;SafeGridWidgetModule</title>
<path fill="none" stroke="black" d="M275.42,-84.82C275.42,-102.17 275.42,-125.8 275.42,-125.8 275.42,-125.8 359.14,-125.8 359.14,-125.8"/>
<polygon fill="black" stroke="black" points="359.14,-129.3 369.14,-125.8 359.14,-122.3 359.14,-129.3"/>
</g>
<!-- SafeFormModalModule -->
<g id="node6" class="node">
<title>SafeFormModalModule</title>
<polygon fill="#8dd3c7" stroke="black" points="175.82,-84.8 172.82,-88.8 151.82,-88.8 148.82,-84.8 24.18,-84.8 24.18,-48.8 175.82,-48.8 175.82,-84.8"/>
<text text-anchor="middle" x="100" y="-62.6" font-family="Times,serif" font-size="14.00">SafeFormModalModule</text>
</g>
<!-- SafeFormModalModule&#45;&gt;SafeGridWidgetModule -->
<g id="edge5" class="edge">
<title>SafeFormModalModule&#45;&gt;SafeGridWidgetModule</title>
<path fill="none" stroke="black" d="M100,-85.08C100,-106.12 100,-137.8 100,-137.8 100,-137.8 359.29,-137.8 359.29,-137.8"/>
<polygon fill="black" stroke="black" points="359.29,-141.3 369.29,-137.8 359.29,-134.3 359.29,-141.3"/>
</g>
</g>
</svg>
