<?xml version="1.0" encoding="UTF-8" standalone="no"?>
<!DOCTYPE svg PUBLIC "-//W3C//DTD SVG 1.1//EN"
 "http://www.w3.org/Graphics/SVG/1.1/DTD/svg11.dtd">
<!-- Generated by graphviz version 2.47.0 (20210316.0004)
 -->
<!-- Title: dependencies Pages: 1 -->
<svg width="782pt" height="284pt"
 viewBox="0.00 0.00 782.00 284.00" xmlns="http://www.w3.org/2000/svg" xmlns:xlink="http://www.w3.org/1999/xlink">
<g id="graph0" class="graph" transform="scale(1 1) rotate(0) translate(4 280)">
<title>dependencies</title>
<polygon fill="white" stroke="transparent" points="-4,4 -4,-280 778,-280 778,4 -4,4"/>
<text text-anchor="start" x="366.01" y="-42.4" font-family="sans-serif" font-weight="bold" font-size="14.00">Legend</text>
<polygon fill="#ffffb3" stroke="transparent" points="153,-10 153,-30 173,-30 173,-10 153,-10"/>
<text text-anchor="start" x="176.63" y="-15.4" font-family="sans-serif" font-size="14.00"> &#160;Declarations</text>
<polygon fill="#8dd3c7" stroke="transparent" points="266,-10 266,-30 286,-30 286,-10 266,-10"/>
<text text-anchor="start" x="289.73" y="-15.4" font-family="sans-serif" font-size="14.00"> &#160;Module</text>
<polygon fill="#80b1d3" stroke="transparent" points="352,-10 352,-30 372,-30 372,-10 352,-10"/>
<text text-anchor="start" x="375.78" y="-15.4" font-family="sans-serif" font-size="14.00"> &#160;Bootstrap</text>
<polygon fill="#fdb462" stroke="transparent" points="449,-10 449,-30 469,-30 469,-10 449,-10"/>
<text text-anchor="start" x="472.67" y="-15.4" font-family="sans-serif" font-size="14.00"> &#160;Providers</text>
<polygon fill="#fb8072" stroke="transparent" points="545,-10 545,-30 565,-30 565,-10 545,-10"/>
<text text-anchor="start" x="568.73" y="-15.4" font-family="sans-serif" font-size="14.00"> &#160;Exports</text>
<g id="clust1" class="cluster">
<title>cluster_SafeGridWidgetModule</title>
<polygon fill="none" stroke="black" stroke-dasharray="1,5" points="8,-70 8,-268 766,-268 766,-70 8,-70"/>
</g>
<g id="clust2" class="cluster">
<title>cluster_SafeGridWidgetModule_declarations</title>
<polygon fill="none" stroke="black" points="568,-78 568,-130 758,-130 758,-78 568,-78"/>
</g>
<g id="clust4" class="cluster">
<title>cluster_SafeGridWidgetModule_imports</title>
<polygon fill="none" stroke="black" points="16,-78 16,-130 560,-130 560,-78 16,-78"/>
</g>
<g id="clust5" class="cluster">
<title>cluster_SafeGridWidgetModule_exports</title>
<polygon fill="none" stroke="black" points="260,-208 260,-260 452,-260 452,-208 260,-208"/>
</g>
<!-- SafeGridWidgetComponent -->
<g id="node1" class="node">
<title>SafeGridWidgetComponent</title>
<polygon fill="#ffffb3" stroke="black" points="749.57,-122 576.43,-122 576.43,-86 749.57,-86 749.57,-122"/>
<text text-anchor="middle" x="663" y="-99.8" font-family="Times,serif" font-size="14.00">SafeGridWidgetComponent</text>
</g>
<!-- SafeGridWidgetModule -->
<g id="node2" class="node">
<title>SafeGridWidgetModule</title>
<polygon fill="#8dd3c7" stroke="black" points="431.79,-187 428.79,-191 407.79,-191 404.79,-187 280.21,-187 280.21,-151 431.79,-151 431.79,-187"/>
<text text-anchor="middle" x="356" y="-164.8" font-family="Times,serif" font-size="14.00">SafeGridWidgetModule</text>
</g>
<!-- SafeGridWidgetComponent&#45;&gt;SafeGridWidgetModule -->
<g id="edge1" class="edge">
<title>SafeGridWidgetComponent&#45;&gt;SafeGridWidgetModule</title>
<path fill="none" stroke="black" d="M663,-122.11C663,-141.34 663,-169 663,-169 663,-169 441.89,-169 441.89,-169"/>
<polygon fill="black" stroke="black" points="441.89,-165.5 431.89,-169 441.89,-172.5 441.89,-165.5"/>
</g>
<!-- SafeGridWidgetComponent  -->
<g id="node6" class="node">
<title>SafeGridWidgetComponent </title>
<polygon fill="#fb8072" stroke="black" points="444.07,-252 267.93,-252 267.93,-216 444.07,-216 444.07,-252"/>
<text text-anchor="middle" x="356" y="-229.8" font-family="Times,serif" font-size="14.00">SafeGridWidgetComponent </text>
</g>
<!-- SafeGridWidgetModule&#45;&gt;SafeGridWidgetComponent  -->
<g id="edge5" class="edge">
<title>SafeGridWidgetModule&#45;&gt;SafeGridWidgetComponent </title>
<path fill="none" stroke="black" stroke-dasharray="5,2" d="M356,-187.11C356,-187.11 356,-205.99 356,-205.99"/>
<polygon fill="black" stroke="black" points="352.5,-205.99 356,-215.99 359.5,-205.99 352.5,-205.99"/>
</g>
<!-- SafeChooseRecordModalModule -->
<g id="node3" class="node">
<title>SafeChooseRecordModalModule</title>
<polygon fill="#8dd3c7" stroke="black" points="551.89,-122 548.89,-126 527.89,-126 524.89,-122 348.11,-122 348.11,-86 551.89,-86 551.89,-122"/>
<text text-anchor="middle" x="450" y="-99.8" font-family="Times,serif" font-size="14.00">SafeChooseRecordModalModule</text>
</g>
<!-- SafeChooseRecordModalModule&#45;&gt;SafeGridWidgetModule -->
<g id="edge2" class="edge">
<title>SafeChooseRecordModalModule&#45;&gt;SafeGridWidgetModule</title>
<path fill="none" stroke="black" d="M389.97,-122.11C389.97,-122.11 389.97,-140.99 389.97,-140.99"/>
<polygon fill="black" stroke="black" points="386.47,-140.99 389.97,-150.99 393.47,-140.99 386.47,-140.99"/>
</g>
<!-- SafeCoreGridModule -->
<g id="node4" class="node">
<title>SafeCoreGridModule</title>
<polygon fill="#8dd3c7" stroke="black" points="330.79,-122 327.79,-126 306.79,-126 303.79,-122 193.21,-122 193.21,-86 330.79,-86 330.79,-122"/>
<text text-anchor="middle" x="262" y="-99.8" font-family="Times,serif" font-size="14.00">SafeCoreGridModule</text>
</g>
<!-- SafeCoreGridModule&#45;&gt;SafeGridWidgetModule -->
<g id="edge3" class="edge">
<title>SafeCoreGridModule&#45;&gt;SafeGridWidgetModule</title>
<path fill="none" stroke="black" d="M305.5,-122.11C305.5,-122.11 305.5,-140.99 305.5,-140.99"/>
<polygon fill="black" stroke="black" points="302,-140.99 305.5,-150.99 309,-140.99 302,-140.99"/>
</g>
<!-- SafeFormModalModule -->
<g id="node5" class="node">
<title>SafeFormModalModule</title>
<polygon fill="#8dd3c7" stroke="black" points="175.81,-122 172.81,-126 151.81,-126 148.81,-122 24.19,-122 24.19,-86 175.81,-86 175.81,-122"/>
<text text-anchor="middle" x="100" y="-99.8" font-family="Times,serif" font-size="14.00">SafeFormModalModule</text>
</g>
<!-- SafeFormModalModule&#45;&gt;SafeGridWidgetModule -->
<g id="edge4" class="edge">
<title>SafeFormModalModule&#45;&gt;SafeGridWidgetModule</title>
<path fill="none" stroke="black" d="M100,-122.11C100,-141.34 100,-169 100,-169 100,-169 270.23,-169 270.23,-169"/>
<polygon fill="black" stroke="black" points="270.23,-172.5 280.23,-169 270.23,-165.5 270.23,-172.5"/>
</g>
</g>
</svg>
