<?xml version="1.0" encoding="UTF-8" standalone="no"?>
<!DOCTYPE svg PUBLIC "-//W3C//DTD SVG 1.1//EN"
 "http://www.w3.org/Graphics/SVG/1.1/DTD/svg11.dtd">
<!-- Generated by graphviz version 2.47.0 (20210316.0004)
 -->
<!-- Title: dependencies Pages: 1 -->
<svg width="965pt" height="284pt"
 viewBox="0.00 0.00 965.00 284.00" xmlns="http://www.w3.org/2000/svg" xmlns:xlink="http://www.w3.org/1999/xlink">
<g id="graph0" class="graph" transform="scale(1 1) rotate(0) translate(4 280)">
<title>dependencies</title>
<polygon fill="white" stroke="transparent" points="-4,4 -4,-280 961,-280 961,4 -4,4"/>
<text text-anchor="start" x="457.51" y="-42.4" font-family="sans-serif" font-weight="bold" font-size="14.00">Legend</text>
<polygon fill="#ffffb3" stroke="transparent" points="244.5,-10 244.5,-30 264.5,-30 264.5,-10 244.5,-10"/>
<text text-anchor="start" x="268.13" y="-15.4" font-family="sans-serif" font-size="14.00"> &#160;Declarations</text>
<polygon fill="#8dd3c7" stroke="transparent" points="357.5,-10 357.5,-30 377.5,-30 377.5,-10 357.5,-10"/>
<text text-anchor="start" x="381.23" y="-15.4" font-family="sans-serif" font-size="14.00"> &#160;Module</text>
<polygon fill="#80b1d3" stroke="transparent" points="443.5,-10 443.5,-30 463.5,-30 463.5,-10 443.5,-10"/>
<text text-anchor="start" x="467.28" y="-15.4" font-family="sans-serif" font-size="14.00"> &#160;Bootstrap</text>
<polygon fill="#fdb462" stroke="transparent" points="540.5,-10 540.5,-30 560.5,-30 560.5,-10 540.5,-10"/>
<text text-anchor="start" x="564.17" y="-15.4" font-family="sans-serif" font-size="14.00"> &#160;Providers</text>
<polygon fill="#fb8072" stroke="transparent" points="636.5,-10 636.5,-30 656.5,-30 656.5,-10 636.5,-10"/>
<text text-anchor="start" x="660.23" y="-15.4" font-family="sans-serif" font-size="14.00"> &#160;Exports</text>
<g id="clust1" class="cluster">
<title>cluster_SafeGridWidgetModule</title>
<polygon fill="none" stroke="black" stroke-dasharray="1,5" points="8,-70 8,-268 949,-268 949,-70 8,-70"/>
</g>
<g id="clust4" class="cluster">
<title>cluster_SafeGridWidgetModule_imports</title>
<polygon fill="none" stroke="black" points="214,-78 214,-130 941,-130 941,-78 214,-78"/>
</g>
<g id="clust2" class="cluster">
<title>cluster_SafeGridWidgetModule_declarations</title>
<polygon fill="none" stroke="black" points="16,-78 16,-130 206,-130 206,-78 16,-78"/>
</g>
<g id="clust5" class="cluster">
<title>cluster_SafeGridWidgetModule_exports</title>
<polygon fill="none" stroke="black" points="378,-208 378,-260 570,-260 570,-208 378,-208"/>
</g>
<!-- SafeGridWidgetComponent -->
<g id="node1" class="node">
<title>SafeGridWidgetComponent</title>
<polygon fill="#ffffb3" stroke="black" points="197.57,-122 24.43,-122 24.43,-86 197.57,-86 197.57,-122"/>
<text text-anchor="middle" x="111" y="-99.8" font-family="Times,serif" font-size="14.00">SafeGridWidgetComponent</text>
</g>
<!-- SafeGridWidgetModule -->
<g id="node2" class="node">
<title>SafeGridWidgetModule</title>
<polygon fill="#8dd3c7" stroke="black" points="549.79,-187 546.79,-191 525.79,-191 522.79,-187 398.21,-187 398.21,-151 549.79,-151 549.79,-187"/>
<text text-anchor="middle" x="474" y="-164.8" font-family="Times,serif" font-size="14.00">SafeGridWidgetModule</text>
</g>
<!-- SafeGridWidgetComponent&#45;&gt;SafeGridWidgetModule -->
<g id="edge1" class="edge">
<title>SafeGridWidgetComponent&#45;&gt;SafeGridWidgetModule</title>
<path fill="none" stroke="black" d="M111,-122.28C111,-143.32 111,-175 111,-175 111,-175 388.35,-175 388.35,-175"/>
<polygon fill="black" stroke="black" points="388.35,-178.5 398.35,-175 388.35,-171.5 388.35,-178.5"/>
</g>
<!-- SafeGridWidgetComponent  -->
<g id="node7" class="node">
<title>SafeGridWidgetComponent </title>
<polygon fill="#fb8072" stroke="black" points="562.07,-252 385.93,-252 385.93,-216 562.07,-216 562.07,-252"/>
<text text-anchor="middle" x="474" y="-229.8" font-family="Times,serif" font-size="14.00">SafeGridWidgetComponent </text>
</g>
<!-- SafeGridWidgetModule&#45;&gt;SafeGridWidgetComponent  -->
<g id="edge6" class="edge">
<title>SafeGridWidgetModule&#45;&gt;SafeGridWidgetComponent </title>
<path fill="none" stroke="black" stroke-dasharray="5,2" d="M474,-187.11C474,-187.11 474,-205.99 474,-205.99"/>
<polygon fill="black" stroke="black" points="470.5,-205.99 474,-215.99 477.5,-205.99 470.5,-205.99"/>
</g>
<!-- SafeChooseRecordModalModule -->
<g id="node3" class="node">
<title>SafeChooseRecordModalModule</title>
<polygon fill="#8dd3c7" stroke="black" points="932.89,-122 929.89,-126 908.89,-126 905.89,-122 729.11,-122 729.11,-86 932.89,-86 932.89,-122"/>
<text text-anchor="middle" x="831" y="-99.8" font-family="Times,serif" font-size="14.00">SafeChooseRecordModalModule</text>
</g>
<!-- SafeChooseRecordModalModule&#45;&gt;SafeGridWidgetModule -->
<g id="edge2" class="edge">
<title>SafeChooseRecordModalModule&#45;&gt;SafeGridWidgetModule</title>
<path fill="none" stroke="black" d="M831,-122.28C831,-143.32 831,-175 831,-175 831,-175 559.71,-175 559.71,-175"/>
<polygon fill="black" stroke="black" points="559.71,-171.5 549.71,-175 559.71,-178.5 559.71,-171.5"/>
</g>
<!-- SafeCoreGridModule -->
<g id="node4" class="node">
<title>SafeCoreGridModule</title>
<polygon fill="#8dd3c7" stroke="black" points="711.79,-122 708.79,-126 687.79,-126 684.79,-122 574.21,-122 574.21,-86 711.79,-86 711.79,-122"/>
<text text-anchor="middle" x="643" y="-99.8" font-family="Times,serif" font-size="14.00">SafeCoreGridModule</text>
</g>
<!-- SafeCoreGridModule&#45;&gt;SafeGridWidgetModule -->
<g id="edge3" class="edge">
<title>SafeCoreGridModule&#45;&gt;SafeGridWidgetModule</title>
<path fill="none" stroke="black" d="M643,-122.02C643,-139.37 643,-163 643,-163 643,-163 560.1,-163 560.1,-163"/>
<polygon fill="black" stroke="black" points="560.1,-159.5 550.1,-163 560.1,-166.5 560.1,-159.5"/>
</g>
<!-- SafeEmailPreviewModule -->
<g id="node5" class="node">
<title>SafeEmailPreviewModule</title>
<polygon fill="#8dd3c7" stroke="black" points="555.73,-122 552.73,-126 531.73,-126 528.73,-122 392.27,-122 392.27,-86 555.73,-86 555.73,-122"/>
<text text-anchor="middle" x="474" y="-99.8" font-family="Times,serif" font-size="14.00">SafeEmailPreviewModule</text>
</g>
<!-- SafeEmailPreviewModule&#45;&gt;SafeGridWidgetModule -->
<g id="edge4" class="edge">
<title>SafeEmailPreviewModule&#45;&gt;SafeGridWidgetModule</title>
<path fill="none" stroke="black" d="M474,-122.11C474,-122.11 474,-140.99 474,-140.99"/>
<polygon fill="black" stroke="black" points="470.5,-140.99 474,-150.99 477.5,-140.99 470.5,-140.99"/>
</g>
<!-- SafeFormModalModule -->
<g id="node6" class="node">
<title>SafeFormModalModule</title>
<polygon fill="#8dd3c7" stroke="black" points="373.81,-122 370.81,-126 349.81,-126 346.81,-122 222.19,-122 222.19,-86 373.81,-86 373.81,-122"/>
<text text-anchor="middle" x="298" y="-99.8" font-family="Times,serif" font-size="14.00">SafeFormModalModule</text>
</g>
<!-- SafeFormModalModule&#45;&gt;SafeGridWidgetModule -->
<g id="edge5" class="edge">
<title>SafeFormModalModule&#45;&gt;SafeGridWidgetModule</title>
<path fill="none" stroke="black" d="M298,-122.02C298,-139.37 298,-163 298,-163 298,-163 388.34,-163 388.34,-163"/>
<polygon fill="black" stroke="black" points="388.34,-166.5 398.34,-163 388.34,-159.5 388.34,-166.5"/>
</g>
</g>
</svg>
