<?xml version="1.0" encoding="UTF-8" standalone="no"?>
<!DOCTYPE svg PUBLIC "-//W3C//DTD SVG 1.1//EN"
 "http://www.w3.org/Graphics/SVG/1.1/DTD/svg11.dtd">
<!-- Generated by graphviz version 3.0.0 (20220226.1711)
 -->
<!-- Title: dependencies Pages: 1 -->
<svg width="1316pt" height="247pt"
 viewBox="0.00 0.00 1316.00 246.80" xmlns="http://www.w3.org/2000/svg" xmlns:xlink="http://www.w3.org/1999/xlink">
<g id="graph0" class="graph" transform="scale(1 1) rotate(0) translate(4 242.8)">
<title>dependencies</title>
<polygon fill="white" stroke="transparent" points="-4,4 -4,-242.8 1312,-242.8 1312,4 -4,4"/>
<text text-anchor="middle" x="654" y="-8.2" font-family="sans-serif" font-size="14.00">dependencies</text>
<g id="clust1" class="cluster">
<title>cluster_TabPreviewModule</title>
<polygon fill="none" stroke="black" stroke-dasharray="1,5" points="8,-32.8 8,-230.8 1300,-230.8 1300,-32.8 8,-32.8"/>
</g>
<g id="clust2" class="cluster">
<title>cluster_TabPreviewModule_declarations</title>
<polygon fill="none" stroke="black" points="1128,-40.8 1128,-92.8 1292,-92.8 1292,-40.8 1128,-40.8"/>
</g>
<g id="clust5" class="cluster">
<title>cluster_TabPreviewModule_exports</title>
<polygon fill="none" stroke="black" points="550,-170.8 550,-222.8 718,-222.8 718,-170.8 550,-170.8"/>
</g>
<g id="clust4" class="cluster">
<title>cluster_TabPreviewModule_imports</title>
<polygon fill="none" stroke="black" points="16,-40.8 16,-92.8 1120,-92.8 1120,-40.8 16,-40.8"/>
</g>
<!-- TabPreviewComponent -->
<g id="node1" class="node">
<title>TabPreviewComponent</title>
<polygon fill="#ffffb3" stroke="black" points="1284.47,-84.8 1135.53,-84.8 1135.53,-48.8 1284.47,-48.8 1284.47,-84.8"/>
<text text-anchor="middle" x="1210" y="-62.6" font-family="Times,serif" font-size="14.00">TabPreviewComponent</text>
</g>
<!-- TabPreviewModule -->
<g id="node2" class="node">
<title>TabPreviewModule</title>
<polygon fill="#8dd3c7" stroke="black" points="697.69,-149.8 694.69,-153.8 673.69,-153.8 670.69,-149.8 570.31,-149.8 570.31,-113.8 697.69,-113.8 697.69,-149.8"/>
<text text-anchor="middle" x="634" y="-127.6" font-family="Times,serif" font-size="14.00">TabPreviewModule</text>
</g>
<!-- TabPreviewComponent&#45;&gt;TabPreviewModule -->
<g id="edge1" class="edge">
<title>TabPreviewComponent&#45;&gt;TabPreviewModule</title>
<path fill="none" stroke="black" d="M1210,-85.09C1210,-107.01 1210,-140.8 1210,-140.8 1210,-140.8 707.84,-140.8 707.84,-140.8"/>
<polygon fill="black" stroke="black" points="707.84,-137.3 697.84,-140.8 707.84,-144.3 707.84,-137.3"/>
</g>
<!-- TabPreviewComponent  -->
<g id="node10" class="node">
<title>TabPreviewComponent </title>
<polygon fill="#fb8072" stroke="black" points="710.47,-214.8 557.53,-214.8 557.53,-178.8 710.47,-178.8 710.47,-214.8"/>
<text text-anchor="middle" x="634" y="-192.6" font-family="Times,serif" font-size="14.00">TabPreviewComponent </text>
</g>
<!-- TabPreviewModule&#45;&gt;TabPreviewComponent  -->
<g id="edge9" class="edge">
<title>TabPreviewModule&#45;&gt;TabPreviewComponent </title>
<path fill="none" stroke="black" stroke-dasharray="5,2" d="M634,-149.91C634,-149.91 634,-168.79 634,-168.79"/>
<polygon fill="black" stroke="black" points="630.5,-168.79 634,-178.79 637.5,-168.79 630.5,-168.79"/>
</g>
<!-- SafeAggregationBuilderModule -->
<g id="node3" class="node">
<title>SafeAggregationBuilderModule</title>
<polygon fill="#8dd3c7" stroke="black" points="1112.4,-84.8 1109.4,-88.8 1088.4,-88.8 1085.4,-84.8 915.6,-84.8 915.6,-48.8 1112.4,-48.8 1112.4,-84.8"/>
<text text-anchor="middle" x="1014" y="-62.6" font-family="Times,serif" font-size="14.00">SafeAggregationBuilderModule</text>
</g>
<!-- SafeAggregationBuilderModule&#45;&gt;TabPreviewModule -->
<g id="edge2" class="edge">
<title>SafeAggregationBuilderModule&#45;&gt;TabPreviewModule</title>
<path fill="none" stroke="black" d="M1014,-84.91C1014,-104.14 1014,-131.8 1014,-131.8 1014,-131.8 707.6,-131.8 707.6,-131.8"/>
<polygon fill="black" stroke="black" points="707.6,-128.3 697.6,-131.8 707.6,-135.3 707.6,-128.3"/>
</g>
<!-- SafeButtonModule -->
<g id="node4" class="node">
<title>SafeButtonModule</title>
<polygon fill="#8dd3c7" stroke="black" points="898.05,-84.8 895.05,-88.8 874.05,-88.8 871.05,-84.8 775.95,-84.8 775.95,-48.8 898.05,-48.8 898.05,-84.8"/>
<text text-anchor="middle" x="837" y="-62.6" font-family="Times,serif" font-size="14.00">SafeButtonModule</text>
</g>
<!-- SafeButtonModule&#45;&gt;TabPreviewModule -->
<g id="edge3" class="edge">
<title>SafeButtonModule&#45;&gt;TabPreviewModule</title>
<path fill="none" stroke="black" d="M837,-84.83C837,-101.2 837,-122.8 837,-122.8 837,-122.8 707.67,-122.8 707.67,-122.8"/>
<polygon fill="black" stroke="black" points="707.67,-119.3 697.67,-122.8 707.67,-126.3 707.67,-119.3"/>
</g>
<!-- SafeChartModule -->
<g id="node5" class="node">
<title>SafeChartModule</title>
<polygon fill="#8dd3c7" stroke="black" points="757.53,-84.8 754.53,-88.8 733.53,-88.8 730.53,-84.8 642.47,-84.8 642.47,-48.8 757.53,-48.8 757.53,-84.8"/>
<text text-anchor="middle" x="700" y="-62.6" font-family="Times,serif" font-size="14.00">SafeChartModule</text>
</g>
<!-- SafeChartModule&#45;&gt;TabPreviewModule -->
<g id="edge4" class="edge">
<title>SafeChartModule&#45;&gt;TabPreviewModule</title>
<path fill="none" stroke="black" d="M669.92,-84.91C669.92,-84.91 669.92,-103.79 669.92,-103.79"/>
<polygon fill="black" stroke="black" points="666.42,-103.79 669.92,-113.79 673.42,-103.79 666.42,-103.79"/>
</g>
<!-- SafeGridModule -->
<g id="node6" class="node">
<title>SafeGridModule</title>
<polygon fill="#8dd3c7" stroke="black" points="624.09,-84.8 621.09,-88.8 600.09,-88.8 597.09,-84.8 513.91,-84.8 513.91,-48.8 624.09,-48.8 624.09,-84.8"/>
<text text-anchor="middle" x="569" y="-62.6" font-family="Times,serif" font-size="14.00">SafeGridModule</text>
</g>
<!-- SafeGridModule&#45;&gt;TabPreviewModule -->
<g id="edge5" class="edge">
<title>SafeGridModule&#45;&gt;TabPreviewModule</title>
<path fill="none" stroke="black" d="M597.22,-84.91C597.22,-84.91 597.22,-103.79 597.22,-103.79"/>
<polygon fill="black" stroke="black" points="593.72,-103.79 597.22,-113.79 600.72,-103.79 593.72,-103.79"/>
</g>
<!-- SafeIconModule -->
<g id="node7" class="node">
<title>SafeIconModule</title>
<polygon fill="#8dd3c7" stroke="black" points="495.8,-84.8 492.8,-88.8 471.8,-88.8 468.8,-84.8 386.2,-84.8 386.2,-48.8 495.8,-48.8 495.8,-84.8"/>
<text text-anchor="middle" x="441" y="-62.6" font-family="Times,serif" font-size="14.00">SafeIconModule</text>
</g>
<!-- SafeIconModule&#45;&gt;TabPreviewModule -->
<g id="edge6" class="edge">
<title>SafeIconModule&#45;&gt;TabPreviewModule</title>
<path fill="none" stroke="black" d="M441,-84.83C441,-101.2 441,-122.8 441,-122.8 441,-122.8 560.27,-122.8 560.27,-122.8"/>
<polygon fill="black" stroke="black" points="560.27,-126.3 570.27,-122.8 560.27,-119.3 560.27,-126.3"/>
</g>
<!-- SafePaletteControlModule -->
<g id="node8" class="node">
<title>SafePaletteControlModule</title>
<polygon fill="#8dd3c7" stroke="black" points="368.8,-84.8 365.8,-88.8 344.8,-88.8 341.8,-84.8 203.2,-84.8 203.2,-48.8 368.8,-48.8 368.8,-84.8"/>
<text text-anchor="middle" x="286" y="-62.6" font-family="Times,serif" font-size="14.00">SafePaletteControlModule</text>
</g>
<!-- SafePaletteControlModule&#45;&gt;TabPreviewModule -->
<g id="edge7" class="edge">
<title>SafePaletteControlModule&#45;&gt;TabPreviewModule</title>
<path fill="none" stroke="black" d="M286,-84.91C286,-104.14 286,-131.8 286,-131.8 286,-131.8 560.17,-131.8 560.17,-131.8"/>
<polygon fill="black" stroke="black" points="560.17,-135.3 570.17,-131.8 560.17,-128.3 560.17,-135.3"/>
</g>
<!-- SafeQueryBuilderModule -->
<g id="node9" class="node">
<title>SafeQueryBuilderModule</title>
<polygon fill="#8dd3c7" stroke="black" points="185.91,-84.8 182.91,-88.8 161.91,-88.8 158.91,-84.8 24.09,-84.8 24.09,-48.8 185.91,-48.8 185.91,-84.8"/>
<text text-anchor="middle" x="105" y="-62.6" font-family="Times,serif" font-size="14.00">SafeQueryBuilderModule</text>
</g>
<!-- SafeQueryBuilderModule&#45;&gt;TabPreviewModule -->
<g id="edge8" class="edge">
<title>SafeQueryBuilderModule&#45;&gt;TabPreviewModule</title>
<path fill="none" stroke="black" d="M105,-85.09C105,-107.01 105,-140.8 105,-140.8 105,-140.8 560.19,-140.8 560.19,-140.8"/>
<polygon fill="black" stroke="black" points="560.19,-144.3 570.19,-140.8 560.19,-137.3 560.19,-144.3"/>
</g>
</g>
</svg>
