<?xml version="1.0" encoding="UTF-8" standalone="no"?>
<!DOCTYPE svg PUBLIC "-//W3C//DTD SVG 1.1//EN"
 "http://www.w3.org/Graphics/SVG/1.1/DTD/svg11.dtd">
<!-- Generated by graphviz version 3.0.0 (20220226.1711)
 -->
<!-- Title: dependencies Pages: 1 -->
<svg width="368pt" height="247pt"
 viewBox="0.00 0.00 368.00 246.80" xmlns="http://www.w3.org/2000/svg" xmlns:xlink="http://www.w3.org/1999/xlink">
<g id="graph0" class="graph" transform="scale(1 1) rotate(0) translate(4 242.8)">
<title>dependencies</title>
<polygon fill="white" stroke="transparent" points="-4,4 -4,-242.8 364,-242.8 364,4 -4,4"/>
<text text-anchor="middle" x="180" y="-8.2" font-family="sans-serif" font-size="14.00">dependencies</text>
<g id="clust1" class="cluster">
<title>cluster_MapMarkerRuleModule</title>
<polygon fill="none" stroke="black" stroke-dasharray="1,5" points="8,-32.8 8,-230.8 352,-230.8 352,-32.8 8,-32.8"/>
</g>
<g id="clust2" class="cluster">
<title>cluster_MapMarkerRuleModule_declarations</title>
<polygon fill="none" stroke="black" points="154,-40.8 154,-92.8 344,-92.8 344,-40.8 154,-40.8"/>
</g>
<g id="clust4" class="cluster">
<title>cluster_MapMarkerRuleModule_imports</title>
<polygon fill="none" stroke="black" points="16,-40.8 16,-92.8 146,-92.8 146,-40.8 16,-40.8"/>
</g>
<g id="clust5" class="cluster">
<title>cluster_MapMarkerRuleModule_exports</title>
<polygon fill="none" stroke="black" points="83,-170.8 83,-222.8 277,-222.8 277,-170.8 83,-170.8"/>
</g>
<!-- MapMarkerRuleComponent -->
<g id="node1" class="node">
<title>MapMarkerRuleComponent</title>
<polygon fill="#ffffb3" stroke="black" points="336.14,-84.8 161.86,-84.8 161.86,-48.8 336.14,-48.8 336.14,-84.8"/>
<text text-anchor="middle" x="249" y="-62.6" font-family="Times,serif" font-size="14.00">MapMarkerRuleComponent</text>
</g>
<!-- MapMarkerRuleModule -->
<g id="node2" class="node">
<title>MapMarkerRuleModule</title>
<polygon fill="#8dd3c7" stroke="black" points="256.36,-149.8 253.36,-153.8 232.36,-153.8 229.36,-149.8 103.64,-149.8 103.64,-113.8 256.36,-113.8 256.36,-149.8"/>
<text text-anchor="middle" x="180" y="-127.6" font-family="Times,serif" font-size="14.00">MapMarkerRuleModule</text>
</g>
<!-- MapMarkerRuleComponent&#45;&gt;MapMarkerRuleModule -->
<g id="edge1" class="edge">
<title>MapMarkerRuleComponent&#45;&gt;MapMarkerRuleModule</title>
<path fill="none" stroke="black" d="M209.06,-84.91C209.06,-84.91 209.06,-103.79 209.06,-103.79"/>
<polygon fill="black" stroke="black" points="205.56,-103.79 209.06,-113.79 212.56,-103.79 205.56,-103.79"/>
</g>
<!-- MapMarkerRuleComponent  -->
<g id="node4" class="node">
<title>MapMarkerRuleComponent </title>
<polygon fill="#fb8072" stroke="black" points="269.13,-214.8 90.87,-214.8 90.87,-178.8 269.13,-178.8 269.13,-214.8"/>
<text text-anchor="middle" x="180" y="-192.6" font-family="Times,serif" font-size="14.00">MapMarkerRuleComponent </text>
</g>
<!-- MapMarkerRuleModule&#45;&gt;MapMarkerRuleComponent  -->
<g id="edge3" class="edge">
<title>MapMarkerRuleModule&#45;&gt;MapMarkerRuleComponent </title>
<path fill="none" stroke="black" stroke-dasharray="5,2" d="M180,-149.91C180,-149.91 180,-168.79 180,-168.79"/>
<polygon fill="black" stroke="black" points="176.5,-168.79 180,-178.79 183.5,-168.79 176.5,-168.79"/>
</g>
<!-- SafeFilterModule -->
<g id="node3" class="node">
<title>SafeFilterModule</title>
<polygon fill="#8dd3c7" stroke="black" points="138.26,-84.8 135.26,-88.8 114.26,-88.8 111.26,-84.8 23.74,-84.8 23.74,-48.8 138.26,-48.8 138.26,-84.8"/>
<text text-anchor="middle" x="81" y="-62.6" font-family="Times,serif" font-size="14.00">SafeFilterModule</text>
</g>
<!-- SafeFilterModule&#45;&gt;MapMarkerRuleModule -->
<g id="edge2" class="edge">
<title>SafeFilterModule&#45;&gt;MapMarkerRuleModule</title>
<path fill="none" stroke="black" d="M120.98,-84.91C120.98,-84.91 120.98,-103.79 120.98,-103.79"/>
<polygon fill="black" stroke="black" points="117.48,-103.79 120.98,-113.79 124.48,-103.79 117.48,-103.79"/>
</g>
</g>
</svg>
