<?xml version="1.0" encoding="UTF-8" standalone="no"?>
<!DOCTYPE svg PUBLIC "-//W3C//DTD SVG 1.1//EN"
 "http://www.w3.org/Graphics/SVG/1.1/DTD/svg11.dtd">
<!-- Generated by graphviz version 3.0.0 (20220226.1711)
 -->
<!-- Title: dependencies Pages: 1 -->
<svg width="386pt" height="247pt"
 viewBox="0.00 0.00 386.00 246.80" xmlns="http://www.w3.org/2000/svg" xmlns:xlink="http://www.w3.org/1999/xlink">
<g id="graph0" class="graph" transform="scale(1 1) rotate(0) translate(4 242.8)">
<title>dependencies</title>
<polygon fill="white" stroke="transparent" points="-4,4 -4,-242.8 382,-242.8 382,4 -4,4"/>
<text text-anchor="middle" x="189" y="-8.2" font-family="sans-serif" font-size="14.00">dependencies</text>
<g id="clust1" class="cluster">
<title>cluster_SafeEmailPreviewModule</title>
<polygon fill="none" stroke="black" stroke-dasharray="1,5" points="8,-32.8 8,-230.8 370,-230.8 370,-32.8 8,-32.8"/>
</g>
<g id="clust4" class="cluster">
<title>cluster_SafeEmailPreviewModule_imports</title>
<polygon fill="none" stroke="black" points="226,-40.8 226,-92.8 362,-92.8 362,-40.8 226,-40.8"/>
</g>
<g id="clust2" class="cluster">
<title>cluster_SafeEmailPreviewModule_declarations</title>
<polygon fill="none" stroke="black" points="16,-40.8 16,-92.8 218,-92.8 218,-40.8 16,-40.8"/>
</g>
<g id="clust5" class="cluster">
<title>cluster_SafeEmailPreviewModule_exports</title>
<polygon fill="none" stroke="black" points="86,-170.8 86,-222.8 292,-222.8 292,-170.8 86,-170.8"/>
</g>
<!-- SafeEmailPreviewComponent -->
<g id="node1" class="node">
<title>SafeEmailPreviewComponent</title>
<polygon fill="#ffffb3" stroke="black" points="209.52,-84.8 24.48,-84.8 24.48,-48.8 209.52,-48.8 209.52,-84.8"/>
<text text-anchor="middle" x="117" y="-62.6" font-family="Times,serif" font-size="14.00">SafeEmailPreviewComponent</text>
</g>
<!-- SafeEmailPreviewModule -->
<g id="node2" class="node">
<title>SafeEmailPreviewModule</title>
<polygon fill="#8dd3c7" stroke="black" points="270.74,-149.8 267.74,-153.8 246.74,-153.8 243.74,-149.8 107.26,-149.8 107.26,-113.8 270.74,-113.8 270.74,-149.8"/>
<text text-anchor="middle" x="189" y="-127.6" font-family="Times,serif" font-size="14.00">SafeEmailPreviewModule</text>
</g>
<!-- SafeEmailPreviewComponent&#45;&gt;SafeEmailPreviewModule -->
<g id="edge1" class="edge">
<title>SafeEmailPreviewComponent&#45;&gt;SafeEmailPreviewModule</title>
<path fill="none" stroke="black" d="M158.44,-84.91C158.44,-84.91 158.44,-103.79 158.44,-103.79"/>
<polygon fill="black" stroke="black" points="154.94,-103.79 158.44,-113.79 161.94,-103.79 154.94,-103.79"/>
</g>
<!-- SafeEmailPreviewComponent  -->
<g id="node4" class="node">
<title>SafeEmailPreviewComponent </title>
<polygon fill="#fb8072" stroke="black" points="283.52,-214.8 94.48,-214.8 94.48,-178.8 283.52,-178.8 283.52,-214.8"/>
<text text-anchor="middle" x="189" y="-192.6" font-family="Times,serif" font-size="14.00">SafeEmailPreviewComponent </text>
</g>
<!-- SafeEmailPreviewModule&#45;&gt;SafeEmailPreviewComponent  -->
<g id="edge3" class="edge">
<title>SafeEmailPreviewModule&#45;&gt;SafeEmailPreviewComponent </title>
<path fill="none" stroke="black" stroke-dasharray="5,2" d="M189,-149.91C189,-149.91 189,-168.79 189,-168.79"/>
<polygon fill="black" stroke="black" points="185.5,-168.79 189,-178.79 192.5,-168.79 185.5,-168.79"/>
</g>
<!-- SafeModalModule -->
<g id="node3" class="node">
<title>SafeModalModule</title>
<polygon fill="#8dd3c7" stroke="black" points="354.48,-84.8 351.48,-88.8 330.48,-88.8 327.48,-84.8 233.52,-84.8 233.52,-48.8 354.48,-48.8 354.48,-84.8"/>
<text text-anchor="middle" x="294" y="-62.6" font-family="Times,serif" font-size="14.00">SafeModalModule</text>
</g>
<!-- SafeModalModule&#45;&gt;SafeEmailPreviewModule -->
<g id="edge2" class="edge">
<title>SafeModalModule&#45;&gt;SafeEmailPreviewModule</title>
<path fill="none" stroke="black" d="M252.19,-84.91C252.19,-84.91 252.19,-103.79 252.19,-103.79"/>
<polygon fill="black" stroke="black" points="248.69,-103.79 252.19,-113.79 255.69,-103.79 248.69,-103.79"/>
</g>
</g>
</svg>
