<?xml version="1.0" encoding="UTF-8" standalone="no"?>
<!DOCTYPE svg PUBLIC "-//W3C//DTD SVG 1.1//EN"
 "http://www.w3.org/Graphics/SVG/1.1/DTD/svg11.dtd">
<!-- Generated by graphviz version 3.0.0 (20220226.1711)
 -->
<!-- Title: dependencies Pages: 1 -->
<svg width="787pt" height="247pt"
 viewBox="0.00 0.00 787.00 246.80" xmlns="http://www.w3.org/2000/svg" xmlns:xlink="http://www.w3.org/1999/xlink">
<g id="graph0" class="graph" transform="scale(1 1) rotate(0) translate(4 242.8)">
<title>dependencies</title>
<polygon fill="white" stroke="transparent" points="-4,4 -4,-242.8 783,-242.8 783,4 -4,4"/>
<text text-anchor="middle" x="389.5" y="-8.2" font-family="sans-serif" font-size="14.00">dependencies</text>
<g id="clust1" class="cluster">
<title>cluster_SafeRecordHistoryModule</title>
<polygon fill="none" stroke="black" stroke-dasharray="1,5" points="8,-32.8 8,-230.8 771,-230.8 771,-32.8 8,-32.8"/>
</g>
<g id="clust4" class="cluster">
<title>cluster_SafeRecordHistoryModule_imports</title>
<polygon fill="none" stroke="black" points="228,-40.8 228,-92.8 763,-92.8 763,-40.8 228,-40.8"/>
</g>
<g id="clust5" class="cluster">
<title>cluster_SafeRecordHistoryModule_exports</title>
<polygon fill="none" stroke="black" points="321,-170.8 321,-222.8 529,-222.8 529,-170.8 321,-170.8"/>
</g>
<g id="clust2" class="cluster">
<title>cluster_SafeRecordHistoryModule_declarations</title>
<polygon fill="none" stroke="black" points="16,-40.8 16,-92.8 220,-92.8 220,-40.8 16,-40.8"/>
</g>
<!-- SafeRecordHistoryComponent -->
<g id="node1" class="node">
<title>SafeRecordHistoryComponent</title>
<polygon fill="#ffffb3" stroke="black" points="212.14,-84.8 23.86,-84.8 23.86,-48.8 212.14,-48.8 212.14,-84.8"/>
<text text-anchor="middle" x="118" y="-62.6" font-family="Times,serif" font-size="14.00">SafeRecordHistoryComponent</text>
</g>
<!-- SafeRecordHistoryModule -->
<g id="node2" class="node">
<title>SafeRecordHistoryModule</title>
<polygon fill="#8dd3c7" stroke="black" points="508.36,-149.8 505.36,-153.8 484.36,-153.8 481.36,-149.8 341.64,-149.8 341.64,-113.8 508.36,-113.8 508.36,-149.8"/>
<text text-anchor="middle" x="425" y="-127.6" font-family="Times,serif" font-size="14.00">SafeRecordHistoryModule</text>
</g>
<!-- SafeRecordHistoryComponent&#45;&gt;SafeRecordHistoryModule -->
<g id="edge1" class="edge">
<title>SafeRecordHistoryComponent&#45;&gt;SafeRecordHistoryModule</title>
<path fill="none" stroke="black" d="M118,-84.82C118,-102.17 118,-125.8 118,-125.8 118,-125.8 331.52,-125.8 331.52,-125.8"/>
<polygon fill="black" stroke="black" points="331.52,-129.3 341.52,-125.8 331.52,-122.3 331.52,-129.3"/>
</g>
<!-- SafeRecordHistoryComponent  -->
<g id="node7" class="node">
<title>SafeRecordHistoryComponent </title>
<polygon fill="#fb8072" stroke="black" points="521.13,-214.8 328.87,-214.8 328.87,-178.8 521.13,-178.8 521.13,-214.8"/>
<text text-anchor="middle" x="425" y="-192.6" font-family="Times,serif" font-size="14.00">SafeRecordHistoryComponent </text>
</g>
<!-- SafeRecordHistoryModule&#45;&gt;SafeRecordHistoryComponent  -->
<g id="edge6" class="edge">
<title>SafeRecordHistoryModule&#45;&gt;SafeRecordHistoryComponent </title>
<path fill="none" stroke="black" stroke-dasharray="5,2" d="M425,-149.91C425,-149.91 425,-168.79 425,-168.79"/>
<polygon fill="black" stroke="black" points="421.5,-168.79 425,-178.79 428.5,-168.79 421.5,-168.79"/>
</g>
<!-- SafeButtonModule -->
<g id="node3" class="node">
<title>SafeButtonModule</title>
<polygon fill="#8dd3c7" stroke="black" points="755.05,-84.8 752.05,-88.8 731.05,-88.8 728.05,-84.8 632.95,-84.8 632.95,-48.8 755.05,-48.8 755.05,-84.8"/>
<text text-anchor="middle" x="694" y="-62.6" font-family="Times,serif" font-size="14.00">SafeButtonModule</text>
</g>
<!-- SafeButtonModule&#45;&gt;SafeRecordHistoryModule -->
<g id="edge2" class="edge">
<title>SafeButtonModule&#45;&gt;SafeRecordHistoryModule</title>
<path fill="none" stroke="black" d="M694,-85.08C694,-106.12 694,-137.8 694,-137.8 694,-137.8 518.64,-137.8 518.64,-137.8"/>
<polygon fill="black" stroke="black" points="518.64,-134.3 508.64,-137.8 518.64,-141.3 518.64,-134.3"/>
</g>
<!-- SafeDateModule -->
<g id="node4" class="node">
<title>SafeDateModule</title>
<polygon fill="#8dd3c7" stroke="black" points="614.36,-84.8 611.36,-88.8 590.36,-88.8 587.36,-84.8 503.64,-84.8 503.64,-48.8 614.36,-48.8 614.36,-84.8"/>
<text text-anchor="middle" x="559" y="-62.6" font-family="Times,serif" font-size="14.00">SafeDateModule</text>
</g>
<!-- SafeDateModule&#45;&gt;SafeRecordHistoryModule -->
<g id="edge3" class="edge">
<title>SafeDateModule&#45;&gt;SafeRecordHistoryModule</title>
<path fill="none" stroke="black" d="M514.75,-84.82C514.75,-102.17 514.75,-125.8 514.75,-125.8 514.75,-125.8 514.13,-125.8 514.13,-125.8"/>
<polygon fill="black" stroke="black" points="518.58,-122.3 508.58,-125.8 518.58,-129.3 518.58,-122.3"/>
</g>
<!-- SafeEmptyModule -->
<g id="node5" class="node">
<title>SafeEmptyModule</title>
<polygon fill="#8dd3c7" stroke="black" points="485.76,-84.8 482.76,-88.8 461.76,-88.8 458.76,-84.8 364.24,-84.8 364.24,-48.8 485.76,-48.8 485.76,-84.8"/>
<text text-anchor="middle" x="425" y="-62.6" font-family="Times,serif" font-size="14.00">SafeEmptyModule</text>
</g>
<!-- SafeEmptyModule&#45;&gt;SafeRecordHistoryModule -->
<g id="edge4" class="edge">
<title>SafeEmptyModule&#45;&gt;SafeRecordHistoryModule</title>
<path fill="none" stroke="black" d="M425,-84.91C425,-84.91 425,-103.79 425,-103.79"/>
<polygon fill="black" stroke="black" points="421.5,-103.79 425,-113.79 428.5,-103.79 421.5,-103.79"/>
</g>
<!-- SafeIconModule -->
<g id="node6" class="node">
<title>SafeIconModule</title>
<polygon fill="#8dd3c7" stroke="black" points="345.8,-84.8 342.8,-88.8 321.8,-88.8 318.8,-84.8 236.2,-84.8 236.2,-48.8 345.8,-48.8 345.8,-84.8"/>
<text text-anchor="middle" x="291" y="-62.6" font-family="Times,serif" font-size="14.00">SafeIconModule</text>
</g>
<!-- SafeIconModule&#45;&gt;SafeRecordHistoryModule -->
<g id="edge5" class="edge">
<title>SafeIconModule&#45;&gt;SafeRecordHistoryModule</title>
<path fill="none" stroke="black" d="M335.25,-85.08C335.25,-106.12 335.25,-137.8 335.25,-137.8 335.25,-137.8 335.87,-137.8 335.87,-137.8"/>
<polygon fill="black" stroke="black" points="331.42,-141.3 341.42,-137.8 331.42,-134.3 331.42,-141.3"/>
</g>
</g>
</svg>
