<?xml version="1.0" encoding="UTF-8" standalone="no"?>
<!DOCTYPE svg PUBLIC "-//W3C//DTD SVG 1.1//EN"
 "http://www.w3.org/Graphics/SVG/1.1/DTD/svg11.dtd">
<!-- Generated by graphviz version 3.0.0 (20220226.1711)
 -->
<!-- Title: dependencies Pages: 1 -->
<svg width="885pt" height="247pt"
 viewBox="0.00 0.00 885.00 246.80" xmlns="http://www.w3.org/2000/svg" xmlns:xlink="http://www.w3.org/1999/xlink">
<g id="graph0" class="graph" transform="scale(1 1) rotate(0) translate(4 242.8)">
<title>dependencies</title>
<polygon fill="white" stroke="transparent" points="-4,4 -4,-242.8 881,-242.8 881,4 -4,4"/>
<text text-anchor="middle" x="438.5" y="-8.2" font-family="sans-serif" font-size="14.00">dependencies</text>
<g id="clust1" class="cluster">
<title>cluster_SafeTemplatesModule</title>
<polygon fill="none" stroke="black" stroke-dasharray="1,5" points="8,-32.8 8,-230.8 869,-230.8 869,-32.8 8,-32.8"/>
</g>
<g id="clust2" class="cluster">
<title>cluster_SafeTemplatesModule_declarations</title>
<polygon fill="none" stroke="black" points="681,-40.8 681,-92.8 861,-92.8 861,-40.8 681,-40.8"/>
</g>
<g id="clust4" class="cluster">
<title>cluster_SafeTemplatesModule_imports</title>
<polygon fill="none" stroke="black" points="16,-40.8 16,-92.8 673,-92.8 673,-40.8 16,-40.8"/>
</g>
<g id="clust5" class="cluster">
<title>cluster_SafeTemplatesModule_exports</title>
<polygon fill="none" stroke="black" points="322,-170.8 322,-222.8 506,-222.8 506,-170.8 322,-170.8"/>
</g>
<!-- SafeTemplatesComponent -->
<g id="node1" class="node">
<title>SafeTemplatesComponent</title>
<polygon fill="#ffffb3" stroke="black" points="853.02,-84.8 688.98,-84.8 688.98,-48.8 853.02,-48.8 853.02,-84.8"/>
<text text-anchor="middle" x="771" y="-62.6" font-family="Times,serif" font-size="14.00">SafeTemplatesComponent</text>
</g>
<!-- SafeTemplatesModule -->
<g id="node2" class="node">
<title>SafeTemplatesModule</title>
<polygon fill="#8dd3c7" stroke="black" points="485.24,-149.8 482.24,-153.8 461.24,-153.8 458.24,-149.8 342.76,-149.8 342.76,-113.8 485.24,-113.8 485.24,-149.8"/>
<text text-anchor="middle" x="414" y="-127.6" font-family="Times,serif" font-size="14.00">SafeTemplatesModule</text>
</g>
<!-- SafeTemplatesComponent&#45;&gt;SafeTemplatesModule -->
<g id="edge1" class="edge">
<title>SafeTemplatesComponent&#45;&gt;SafeTemplatesModule</title>
<path fill="none" stroke="black" d="M771,-84.91C771,-104.14 771,-131.8 771,-131.8 771,-131.8 495.39,-131.8 495.39,-131.8"/>
<polygon fill="black" stroke="black" points="495.39,-128.3 485.39,-131.8 495.39,-135.3 495.39,-128.3"/>
</g>
<!-- SafeTemplatesComponent  -->
<g id="node7" class="node">
<title>SafeTemplatesComponent </title>
<polygon fill="#fb8072" stroke="black" points="498.02,-214.8 329.98,-214.8 329.98,-178.8 498.02,-178.8 498.02,-214.8"/>
<text text-anchor="middle" x="414" y="-192.6" font-family="Times,serif" font-size="14.00">SafeTemplatesComponent </text>
</g>
<!-- SafeTemplatesModule&#45;&gt;SafeTemplatesComponent  -->
<g id="edge6" class="edge">
<title>SafeTemplatesModule&#45;&gt;SafeTemplatesComponent </title>
<path fill="none" stroke="black" stroke-dasharray="5,2" d="M414,-149.91C414,-149.91 414,-168.79 414,-168.79"/>
<polygon fill="black" stroke="black" points="410.5,-168.79 414,-178.79 417.5,-168.79 410.5,-168.79"/>
</g>
<!-- EditTemplateModalModule -->
<g id="node3" class="node">
<title>EditTemplateModalModule</title>
<polygon fill="#8dd3c7" stroke="black" points="665.3,-84.8 662.3,-88.8 641.3,-88.8 638.3,-84.8 492.7,-84.8 492.7,-48.8 665.3,-48.8 665.3,-84.8"/>
<text text-anchor="middle" x="579" y="-62.6" font-family="Times,serif" font-size="14.00">EditTemplateModalModule</text>
</g>
<!-- EditTemplateModalModule&#45;&gt;SafeTemplatesModule -->
<g id="edge2" class="edge">
<title>EditTemplateModalModule&#45;&gt;SafeTemplatesModule</title>
<path fill="none" stroke="black" d="M492.82,-66.8C485.21,-66.8 480.32,-66.8 480.32,-66.8 480.32,-66.8 480.32,-103.69 480.32,-103.69"/>
<polygon fill="black" stroke="black" points="476.82,-103.69 480.32,-113.69 483.82,-103.69 476.82,-103.69"/>
</g>
<!-- SafeButtonModule -->
<g id="node4" class="node">
<title>SafeButtonModule</title>
<polygon fill="#8dd3c7" stroke="black" points="475.05,-84.8 472.05,-88.8 451.05,-88.8 448.05,-84.8 352.95,-84.8 352.95,-48.8 475.05,-48.8 475.05,-84.8"/>
<text text-anchor="middle" x="414" y="-62.6" font-family="Times,serif" font-size="14.00">SafeButtonModule</text>
</g>
<!-- SafeButtonModule&#45;&gt;SafeTemplatesModule -->
<g id="edge3" class="edge">
<title>SafeButtonModule&#45;&gt;SafeTemplatesModule</title>
<path fill="none" stroke="black" d="M414,-84.91C414,-84.91 414,-103.79 414,-103.79"/>
<polygon fill="black" stroke="black" points="410.5,-103.79 414,-113.79 417.5,-103.79 410.5,-103.79"/>
</g>
<!-- SafeDividerModule -->
<g id="node5" class="node">
<title>SafeDividerModule</title>
<polygon fill="#8dd3c7" stroke="black" points="334.69,-84.8 331.69,-88.8 310.69,-88.8 307.69,-84.8 207.31,-84.8 207.31,-48.8 334.69,-48.8 334.69,-84.8"/>
<text text-anchor="middle" x="271" y="-62.6" font-family="Times,serif" font-size="14.00">SafeDividerModule</text>
</g>
<!-- SafeDividerModule&#45;&gt;SafeTemplatesModule -->
<g id="edge4" class="edge">
<title>SafeDividerModule&#45;&gt;SafeTemplatesModule</title>
<path fill="none" stroke="black" d="M334.67,-66.8C342.43,-66.8 347.68,-66.8 347.68,-66.8 347.68,-66.8 347.68,-103.69 347.68,-103.69"/>
<polygon fill="black" stroke="black" points="344.18,-103.69 347.68,-113.69 351.18,-103.69 344.18,-103.69"/>
</g>
<!-- SafeSkeletonTableModule -->
<g id="node6" class="node">
<title>SafeSkeletonTableModule</title>
<polygon fill="#8dd3c7" stroke="black" points="189.79,-84.8 186.79,-88.8 165.79,-88.8 162.79,-84.8 24.21,-84.8 24.21,-48.8 189.79,-48.8 189.79,-84.8"/>
<text text-anchor="middle" x="107" y="-62.6" font-family="Times,serif" font-size="14.00">SafeSkeletonTableModule</text>
</g>
<!-- SafeSkeletonTableModule&#45;&gt;SafeTemplatesModule -->
<g id="edge5" class="edge">
<title>SafeSkeletonTableModule&#45;&gt;SafeTemplatesModule</title>
<path fill="none" stroke="black" d="M107,-84.91C107,-104.14 107,-131.8 107,-131.8 107,-131.8 332.41,-131.8 332.41,-131.8"/>
<polygon fill="black" stroke="black" points="332.41,-135.3 342.41,-131.8 332.41,-128.3 332.41,-135.3"/>
</g>
</g>
</svg>
