<?xml version="1.0" encoding="UTF-8" standalone="no"?>
<!DOCTYPE svg PUBLIC "-//W3C//DTD SVG 1.1//EN"
 "http://www.w3.org/Graphics/SVG/1.1/DTD/svg11.dtd">
<!-- Generated by graphviz version 3.0.0 (20220226.1711)
 -->
<!-- Title: dependencies Pages: 1 -->
<svg width="1086pt" height="247pt"
 viewBox="0.00 0.00 1086.00 246.80" xmlns="http://www.w3.org/2000/svg" xmlns:xlink="http://www.w3.org/1999/xlink">
<g id="graph0" class="graph" transform="scale(1 1) rotate(0) translate(4 242.8)">
<title>dependencies</title>
<polygon fill="white" stroke="transparent" points="-4,4 -4,-242.8 1082,-242.8 1082,4 -4,4"/>
<text text-anchor="middle" x="539" y="-8.2" font-family="sans-serif" font-size="14.00">dependencies</text>
<g id="clust1" class="cluster">
<title>cluster_SafeAggregationBuilderModule</title>
<polygon fill="none" stroke="black" stroke-dasharray="1,5" points="8,-32.8 8,-230.8 1070,-230.8 1070,-32.8 8,-32.8"/>
</g>
<g id="clust2" class="cluster">
<title>cluster_SafeAggregationBuilderModule_declarations</title>
<polygon fill="none" stroke="black" points="828,-40.8 828,-92.8 1062,-92.8 1062,-40.8 828,-40.8"/>
</g>
<g id="clust4" class="cluster">
<title>cluster_SafeAggregationBuilderModule_imports</title>
<polygon fill="none" stroke="black" points="16,-40.8 16,-92.8 820,-92.8 820,-40.8 16,-40.8"/>
</g>
<g id="clust5" class="cluster">
<title>cluster_SafeAggregationBuilderModule_exports</title>
<polygon fill="none" stroke="black" points="361,-170.8 361,-222.8 599,-222.8 599,-170.8 361,-170.8"/>
</g>
<!-- SafeAggregationBuilderComponent -->
<g id="node1" class="node">
<title>SafeAggregationBuilderComponent</title>
<polygon fill="#ffffb3" stroke="black" points="1054.18,-84.8 835.82,-84.8 835.82,-48.8 1054.18,-48.8 1054.18,-84.8"/>
<text text-anchor="middle" x="945" y="-62.6" font-family="Times,serif" font-size="14.00">SafeAggregationBuilderComponent</text>
</g>
<!-- SafeAggregationBuilderModule -->
<g id="node2" class="node">
<title>SafeAggregationBuilderModule</title>
<polygon fill="#8dd3c7" stroke="black" points="578.4,-149.8 575.4,-153.8 554.4,-153.8 551.4,-149.8 381.6,-149.8 381.6,-113.8 578.4,-113.8 578.4,-149.8"/>
<text text-anchor="middle" x="480" y="-127.6" font-family="Times,serif" font-size="14.00">SafeAggregationBuilderModule</text>
</g>
<!-- SafeAggregationBuilderComponent&#45;&gt;SafeAggregationBuilderModule -->
<g id="edge1" class="edge">
<title>SafeAggregationBuilderComponent&#45;&gt;SafeAggregationBuilderModule</title>
<path fill="none" stroke="black" d="M945,-85.08C945,-106.12 945,-137.8 945,-137.8 945,-137.8 588.33,-137.8 588.33,-137.8"/>
<polygon fill="black" stroke="black" points="588.33,-134.3 578.33,-137.8 588.33,-141.3 588.33,-134.3"/>
</g>
<!-- SafeAggregationBuilderComponent  -->
<g id="node8" class="node">
<title>SafeAggregationBuilderComponent </title>
<polygon fill="#fb8072" stroke="black" points="590.68,-214.8 369.32,-214.8 369.32,-178.8 590.68,-178.8 590.68,-214.8"/>
<text text-anchor="middle" x="480" y="-192.6" font-family="Times,serif" font-size="14.00">SafeAggregationBuilderComponent </text>
</g>
<!-- SafeAggregationBuilderModule&#45;&gt;SafeAggregationBuilderComponent  -->
<g id="edge7" class="edge">
<title>SafeAggregationBuilderModule&#45;&gt;SafeAggregationBuilderComponent </title>
<path fill="none" stroke="black" stroke-dasharray="5,2" d="M480,-149.91C480,-149.91 480,-168.79 480,-168.79"/>
<polygon fill="black" stroke="black" points="476.5,-168.79 480,-178.79 483.5,-168.79 476.5,-168.79"/>
</g>
<!-- SafeFormsDropdownModule -->
<g id="node3" class="node">
<title>SafeFormsDropdownModule</title>
<polygon fill="#8dd3c7" stroke="black" points="812.1,-84.8 809.1,-88.8 788.1,-88.8 785.1,-84.8 631.9,-84.8 631.9,-48.8 812.1,-48.8 812.1,-84.8"/>
<text text-anchor="middle" x="722" y="-62.6" font-family="Times,serif" font-size="14.00">SafeFormsDropdownModule</text>
</g>
<!-- SafeFormsDropdownModule&#45;&gt;SafeAggregationBuilderModule -->
<g id="edge2" class="edge">
<title>SafeFormsDropdownModule&#45;&gt;SafeAggregationBuilderModule</title>
<path fill="none" stroke="black" d="M722,-84.82C722,-102.17 722,-125.8 722,-125.8 722,-125.8 588.43,-125.8 588.43,-125.8"/>
<polygon fill="black" stroke="black" points="588.43,-122.3 578.43,-125.8 588.43,-129.3 588.43,-122.3"/>
</g>
<!-- SafeGridModule -->
<g id="node4" class="node">
<title>SafeGridModule</title>
<polygon fill="#8dd3c7" stroke="black" points="614.09,-84.8 611.09,-88.8 590.09,-88.8 587.09,-84.8 503.91,-84.8 503.91,-48.8 614.09,-48.8 614.09,-84.8"/>
<text text-anchor="middle" x="559" y="-62.6" font-family="Times,serif" font-size="14.00">SafeGridModule</text>
</g>
<!-- SafeGridModule&#45;&gt;SafeAggregationBuilderModule -->
<g id="edge3" class="edge">
<title>SafeGridModule&#45;&gt;SafeAggregationBuilderModule</title>
<path fill="none" stroke="black" d="M541.08,-84.91C541.08,-84.91 541.08,-103.79 541.08,-103.79"/>
<polygon fill="black" stroke="black" points="537.58,-103.79 541.08,-113.79 544.58,-103.79 537.58,-103.79"/>
</g>
<!-- SafeSeriesMappingModule -->
<g id="node5" class="node">
<title>SafeSeriesMappingModule</title>
<polygon fill="#8dd3c7" stroke="black" points="485.69,-84.8 482.69,-88.8 461.69,-88.8 458.69,-84.8 316.31,-84.8 316.31,-48.8 485.69,-48.8 485.69,-84.8"/>
<text text-anchor="middle" x="401" y="-62.6" font-family="Times,serif" font-size="14.00">SafeSeriesMappingModule</text>
</g>
<!-- SafeSeriesMappingModule&#45;&gt;SafeAggregationBuilderModule -->
<g id="edge4" class="edge">
<title>SafeSeriesMappingModule&#45;&gt;SafeAggregationBuilderModule</title>
<path fill="none" stroke="black" d="M433.7,-84.91C433.7,-84.91 433.7,-103.79 433.7,-103.79"/>
<polygon fill="black" stroke="black" points="430.2,-103.79 433.7,-113.79 437.2,-103.79 430.2,-103.79"/>
</g>
<!-- SafeSpinnerModule -->
<g id="node6" class="node">
<title>SafeSpinnerModule</title>
<polygon fill="#8dd3c7" stroke="black" points="297.98,-84.8 294.98,-88.8 273.98,-88.8 270.98,-84.8 170.02,-84.8 170.02,-48.8 297.98,-48.8 297.98,-84.8"/>
<text text-anchor="middle" x="234" y="-62.6" font-family="Times,serif" font-size="14.00">SafeSpinnerModule</text>
</g>
<!-- SafeSpinnerModule&#45;&gt;SafeAggregationBuilderModule -->
<g id="edge5" class="edge">
<title>SafeSpinnerModule&#45;&gt;SafeAggregationBuilderModule</title>
<path fill="none" stroke="black" d="M234,-84.82C234,-102.17 234,-125.8 234,-125.8 234,-125.8 371.71,-125.8 371.71,-125.8"/>
<polygon fill="black" stroke="black" points="371.71,-129.3 381.71,-125.8 371.71,-122.3 371.71,-129.3"/>
</g>
<!-- SafeTagboxModule -->
<g id="node7" class="node">
<title>SafeTagboxModule</title>
<polygon fill="#8dd3c7" stroke="black" points="151.69,-84.8 148.69,-88.8 127.69,-88.8 124.69,-84.8 24.31,-84.8 24.31,-48.8 151.69,-48.8 151.69,-84.8"/>
<text text-anchor="middle" x="88" y="-62.6" font-family="Times,serif" font-size="14.00">SafeTagboxModule</text>
</g>
<!-- SafeTagboxModule&#45;&gt;SafeAggregationBuilderModule -->
<g id="edge6" class="edge">
<title>SafeTagboxModule&#45;&gt;SafeAggregationBuilderModule</title>
<path fill="none" stroke="black" d="M88,-85.08C88,-106.12 88,-137.8 88,-137.8 88,-137.8 371.59,-137.8 371.59,-137.8"/>
<polygon fill="black" stroke="black" points="371.59,-141.3 381.59,-137.8 371.59,-134.3 371.59,-141.3"/>
</g>
</g>
</svg>
