<?xml version="1.0" encoding="UTF-8" standalone="no"?>
<!DOCTYPE svg PUBLIC "-//W3C//DTD SVG 1.1//EN"
 "http://www.w3.org/Graphics/SVG/1.1/DTD/svg11.dtd">
<!-- Generated by graphviz version 3.0.0 (20220226.1711)
 -->
<!-- Title: dependencies Pages: 1 -->
<svg width="666pt" height="247pt"
 viewBox="0.00 0.00 666.00 246.80" xmlns="http://www.w3.org/2000/svg" xmlns:xlink="http://www.w3.org/1999/xlink">
<g id="graph0" class="graph" transform="scale(1 1) rotate(0) translate(4 242.8)">
<title>dependencies</title>
<polygon fill="white" stroke="transparent" points="-4,4 -4,-242.8 662,-242.8 662,4 -4,4"/>
<text text-anchor="middle" x="329" y="-8.2" font-family="sans-serif" font-size="14.00">dependencies</text>
<g id="clust1" class="cluster">
<title>cluster_FormBuilderModule</title>
<polygon fill="none" stroke="black" stroke-dasharray="1,5" points="8,-32.8 8,-230.8 650,-230.8 650,-32.8 8,-32.8"/>
</g>
<g id="clust6" class="cluster">
<title>cluster_FormBuilderModule_exports</title>
<polygon fill="none" stroke="black" points="226,-170.8 226,-222.8 400,-222.8 400,-170.8 226,-170.8"/>
</g>
<g id="clust2" class="cluster">
<title>cluster_FormBuilderModule_declarations</title>
<polygon fill="none" stroke="black" points="331,-40.8 331,-92.8 642,-92.8 642,-40.8 331,-40.8"/>
</g>
<g id="clust5" class="cluster">
<title>cluster_FormBuilderModule_imports</title>
<polygon fill="none" stroke="black" points="16,-40.8 16,-92.8 323,-92.8 323,-40.8 16,-40.8"/>
</g>
<!-- FormBuilderComponent -->
<g id="node1" class="node">
<title>FormBuilderComponent</title>
<polygon fill="#ffffb3" stroke="black" points="633.66,-84.8 480.34,-84.8 480.34,-48.8 633.66,-48.8 633.66,-84.8"/>
<text text-anchor="middle" x="557" y="-62.6" font-family="Times,serif" font-size="14.00">FormBuilderComponent</text>
</g>
<!-- FormBuilderModule -->
<g id="node3" class="node">
<title>FormBuilderModule</title>
<polygon fill="#8dd3c7" stroke="black" points="378.88,-149.8 375.88,-153.8 354.88,-153.8 351.88,-149.8 247.12,-149.8 247.12,-113.8 378.88,-113.8 378.88,-149.8"/>
<text text-anchor="middle" x="313" y="-127.6" font-family="Times,serif" font-size="14.00">FormBuilderModule</text>
</g>
<!-- FormBuilderComponent&#45;&gt;FormBuilderModule -->
<g id="edge1" class="edge">
<title>FormBuilderComponent&#45;&gt;FormBuilderModule</title>
<path fill="none" stroke="black" d="M557,-84.91C557,-104.14 557,-131.8 557,-131.8 557,-131.8 389.03,-131.8 389.03,-131.8"/>
<polygon fill="black" stroke="black" points="389.03,-128.3 379.03,-131.8 389.03,-135.3 389.03,-128.3"/>
</g>
<!-- HistoryComponent -->
<g id="node2" class="node">
<title>HistoryComponent</title>
<polygon fill="#ffffb3" stroke="black" points="462.83,-84.8 339.17,-84.8 339.17,-48.8 462.83,-48.8 462.83,-84.8"/>
<text text-anchor="middle" x="401" y="-62.6" font-family="Times,serif" font-size="14.00">HistoryComponent</text>
</g>
<!-- HistoryComponent&#45;&gt;FormBuilderModule -->
<g id="edge2" class="edge">
<title>HistoryComponent&#45;&gt;FormBuilderModule</title>
<path fill="none" stroke="black" d="M359.14,-84.91C359.14,-84.91 359.14,-103.79 359.14,-103.79"/>
<polygon fill="black" stroke="black" points="355.64,-103.79 359.14,-113.79 362.64,-103.79 355.64,-103.79"/>
</g>
<!-- FormBuilderComponent  -->
<g id="node6" class="node">
<title>FormBuilderComponent </title>
<polygon fill="#fb8072" stroke="black" points="391.66,-214.8 234.34,-214.8 234.34,-178.8 391.66,-178.8 391.66,-214.8"/>
<text text-anchor="middle" x="313" y="-192.6" font-family="Times,serif" font-size="14.00">FormBuilderComponent </text>
</g>
<!-- FormBuilderModule&#45;&gt;FormBuilderComponent  -->
<g id="edge5" class="edge">
<title>FormBuilderModule&#45;&gt;FormBuilderComponent </title>
<path fill="none" stroke="black" stroke-dasharray="5,2" d="M313,-149.91C313,-149.91 313,-168.79 313,-168.79"/>
<polygon fill="black" stroke="black" points="309.5,-168.79 313,-178.79 316.5,-168.79 309.5,-168.79"/>
</g>
<!-- FormBuilderRoutingModule -->
<g id="node4" class="node">
<title>FormBuilderRoutingModule</title>
<polygon fill="#8dd3c7" stroke="black" points="314.5,-84.8 311.5,-88.8 290.5,-88.8 287.5,-84.8 137.5,-84.8 137.5,-48.8 314.5,-48.8 314.5,-84.8"/>
<text text-anchor="middle" x="226" y="-62.6" font-family="Times,serif" font-size="14.00">FormBuilderRoutingModule</text>
</g>
<!-- FormBuilderRoutingModule&#45;&gt;FormBuilderModule -->
<g id="edge3" class="edge">
<title>FormBuilderRoutingModule&#45;&gt;FormBuilderModule</title>
<path fill="none" stroke="black" d="M280.78,-84.91C280.78,-84.91 280.78,-103.79 280.78,-103.79"/>
<polygon fill="black" stroke="black" points="277.28,-103.79 280.78,-113.79 284.28,-103.79 277.28,-103.79"/>
</g>
<!-- FormsModule -->
<g id="node5" class="node">
<title>FormsModule</title>
<polygon fill="#8dd3c7" stroke="black" points="119.84,-84.8 116.84,-88.8 95.84,-88.8 92.84,-84.8 24.16,-84.8 24.16,-48.8 119.84,-48.8 119.84,-84.8"/>
<text text-anchor="middle" x="72" y="-62.6" font-family="Times,serif" font-size="14.00">FormsModule</text>
</g>
<!-- FormsModule&#45;&gt;FormBuilderModule -->
<g id="edge4" class="edge">
<title>FormsModule&#45;&gt;FormBuilderModule</title>
<path fill="none" stroke="black" d="M72,-84.91C72,-104.14 72,-131.8 72,-131.8 72,-131.8 236.83,-131.8 236.83,-131.8"/>
<polygon fill="black" stroke="black" points="236.83,-135.3 246.83,-131.8 236.83,-128.3 236.83,-135.3"/>
</g>
</g>
</svg>
