<?xml version="1.0" encoding="UTF-8" standalone="no"?>
<!DOCTYPE svg PUBLIC "-//W3C//DTD SVG 1.1//EN"
 "http://www.w3.org/Graphics/SVG/1.1/DTD/svg11.dtd">
<!-- Generated by graphviz version 2.47.0 (20210316.0004)
 -->
<!-- Title: dependencies Pages: 1 -->
<svg width="665pt" height="284pt"
 viewBox="0.00 0.00 665.00 284.00" xmlns="http://www.w3.org/2000/svg" xmlns:xlink="http://www.w3.org/1999/xlink">
<g id="graph0" class="graph" transform="scale(1 1) rotate(0) translate(4 280)">
<title>dependencies</title>
<polygon fill="white" stroke="transparent" points="-4,4 -4,-280 661,-280 661,4 -4,4"/>
<text text-anchor="start" x="307.51" y="-42.4" font-family="sans-serif" font-weight="bold" font-size="14.00">Legend</text>
<polygon fill="#ffffb3" stroke="transparent" points="94.5,-10 94.5,-30 114.5,-30 114.5,-10 94.5,-10"/>
<text text-anchor="start" x="118.13" y="-15.4" font-family="sans-serif" font-size="14.00"> &#160;Declarations</text>
<polygon fill="#8dd3c7" stroke="transparent" points="207.5,-10 207.5,-30 227.5,-30 227.5,-10 207.5,-10"/>
<text text-anchor="start" x="231.23" y="-15.4" font-family="sans-serif" font-size="14.00"> &#160;Module</text>
<polygon fill="#80b1d3" stroke="transparent" points="293.5,-10 293.5,-30 313.5,-30 313.5,-10 293.5,-10"/>
<text text-anchor="start" x="317.28" y="-15.4" font-family="sans-serif" font-size="14.00"> &#160;Bootstrap</text>
<polygon fill="#fdb462" stroke="transparent" points="390.5,-10 390.5,-30 410.5,-30 410.5,-10 390.5,-10"/>
<text text-anchor="start" x="414.17" y="-15.4" font-family="sans-serif" font-size="14.00"> &#160;Providers</text>
<polygon fill="#fb8072" stroke="transparent" points="486.5,-10 486.5,-30 506.5,-30 506.5,-10 486.5,-10"/>
<text text-anchor="start" x="510.23" y="-15.4" font-family="sans-serif" font-size="14.00"> &#160;Exports</text>
<g id="clust1" class="cluster">
<title>cluster_FormBuilderModule</title>
<polygon fill="none" stroke="black" stroke-dasharray="1,5" points="8,-70 8,-268 649,-268 649,-70 8,-70"/>
</g>
<g id="clust2" class="cluster">
<title>cluster_FormBuilderModule_declarations</title>
<polygon fill="none" stroke="black" points="330,-78 330,-130 641,-130 641,-78 330,-78"/>
</g>
<g id="clust6" class="cluster">
<title>cluster_FormBuilderModule_exports</title>
<polygon fill="none" stroke="black" points="226,-208 226,-260 400,-260 400,-208 226,-208"/>
</g>
<g id="clust5" class="cluster">
<title>cluster_FormBuilderModule_imports</title>
<polygon fill="none" stroke="black" points="16,-78 16,-130 322,-130 322,-78 16,-78"/>
</g>
<!-- FormBuilderComponent -->
<g id="node1" class="node">
<title>FormBuilderComponent</title>
<polygon fill="#ffffb3" stroke="black" points="632.66,-122 479.34,-122 479.34,-86 632.66,-86 632.66,-122"/>
<text text-anchor="middle" x="556" y="-99.8" font-family="Times,serif" font-size="14.00">FormBuilderComponent</text>
</g>
<!-- FormBuilderModule -->
<g id="node3" class="node">
<title>FormBuilderModule</title>
<polygon fill="#8dd3c7" stroke="black" points="378.88,-187 375.88,-191 354.88,-191 351.88,-187 247.12,-187 247.12,-151 378.88,-151 378.88,-187"/>
<text text-anchor="middle" x="313" y="-164.8" font-family="Times,serif" font-size="14.00">FormBuilderModule</text>
</g>
<!-- FormBuilderComponent&#45;&gt;FormBuilderModule -->
<g id="edge1" class="edge">
<title>FormBuilderComponent&#45;&gt;FormBuilderModule</title>
<path fill="none" stroke="black" d="M556,-122.11C556,-141.34 556,-169 556,-169 556,-169 389.08,-169 389.08,-169"/>
<polygon fill="black" stroke="black" points="389.08,-165.5 379.08,-169 389.08,-172.5 389.08,-165.5"/>
</g>
<!-- HistoryComponent -->
<g id="node2" class="node">
<title>HistoryComponent</title>
<polygon fill="#ffffb3" stroke="black" points="461.83,-122 338.17,-122 338.17,-86 461.83,-86 461.83,-122"/>
<text text-anchor="middle" x="400" y="-99.8" font-family="Times,serif" font-size="14.00">HistoryComponent</text>
</g>
<!-- HistoryComponent&#45;&gt;FormBuilderModule -->
<g id="edge2" class="edge">
<title>HistoryComponent&#45;&gt;FormBuilderModule</title>
<path fill="none" stroke="black" d="M358.64,-122.11C358.64,-122.11 358.64,-140.99 358.64,-140.99"/>
<polygon fill="black" stroke="black" points="355.14,-140.99 358.64,-150.99 362.14,-140.99 355.14,-140.99"/>
</g>
<!-- FormBuilderComponent  -->
<g id="node6" class="node">
<title>FormBuilderComponent </title>
<polygon fill="#fb8072" stroke="black" points="391.66,-252 234.34,-252 234.34,-216 391.66,-216 391.66,-252"/>
<text text-anchor="middle" x="313" y="-229.8" font-family="Times,serif" font-size="14.00">FormBuilderComponent </text>
</g>
<!-- FormBuilderModule&#45;&gt;FormBuilderComponent  -->
<g id="edge5" class="edge">
<title>FormBuilderModule&#45;&gt;FormBuilderComponent </title>
<path fill="none" stroke="black" stroke-dasharray="5,2" d="M313,-187.11C313,-187.11 313,-205.99 313,-205.99"/>
<polygon fill="black" stroke="black" points="309.5,-205.99 313,-215.99 316.5,-205.99 309.5,-205.99"/>
</g>
<!-- FormBuilderRoutingModule -->
<g id="node4" class="node">
<title>FormBuilderRoutingModule</title>
<polygon fill="#8dd3c7" stroke="black" points="314.49,-122 311.49,-126 290.49,-126 287.49,-122 137.51,-122 137.51,-86 314.49,-86 314.49,-122"/>
<text text-anchor="middle" x="226" y="-99.8" font-family="Times,serif" font-size="14.00">FormBuilderRoutingModule</text>
</g>
<!-- FormBuilderRoutingModule&#45;&gt;FormBuilderModule -->
<g id="edge3" class="edge">
<title>FormBuilderRoutingModule&#45;&gt;FormBuilderModule</title>
<path fill="none" stroke="black" d="M280.78,-122.11C280.78,-122.11 280.78,-140.99 280.78,-140.99"/>
<polygon fill="black" stroke="black" points="277.28,-140.99 280.78,-150.99 284.28,-140.99 277.28,-140.99"/>
</g>
<!-- FormsModule -->
<g id="node5" class="node">
<title>FormsModule</title>
<polygon fill="#8dd3c7" stroke="black" points="119.83,-122 116.83,-126 95.83,-126 92.83,-122 24.17,-122 24.17,-86 119.83,-86 119.83,-122"/>
<text text-anchor="middle" x="72" y="-99.8" font-family="Times,serif" font-size="14.00">FormsModule</text>
</g>
<!-- FormsModule&#45;&gt;FormBuilderModule -->
<g id="edge4" class="edge">
<title>FormsModule&#45;&gt;FormBuilderModule</title>
<path fill="none" stroke="black" d="M72,-122.11C72,-141.34 72,-169 72,-169 72,-169 236.83,-169 236.83,-169"/>
<polygon fill="black" stroke="black" points="236.83,-172.5 246.83,-169 236.83,-165.5 236.83,-172.5"/>
</g>
</g>
</svg>
