<?xml version="1.0" encoding="UTF-8" standalone="no"?>
<!DOCTYPE svg PUBLIC "-//W3C//DTD SVG 1.1//EN"
 "http://www.w3.org/Graphics/SVG/1.1/DTD/svg11.dtd">
<!-- Generated by graphviz version 3.0.0 (20220226.1711)
 -->
<!-- Title: dependencies Pages: 1 -->
<svg width="3036pt" height="402pt"
 viewBox="0.00 0.00 3036.00 401.80" xmlns="http://www.w3.org/2000/svg" xmlns:xlink="http://www.w3.org/1999/xlink">
<g id="graph0" class="graph" transform="scale(1 1) rotate(0) translate(4 397.8)">
<title>dependencies</title>
<polygon fill="white" stroke="transparent" points="-4,4 -4,-397.8 3032,-397.8 3032,4 -4,4"/>
<text text-anchor="middle" x="1514" y="-8.2" font-family="sans-serif" font-size="14.00">dependencies</text>
<g id="clust1" class="cluster">
<title>cluster_ApplicationModule</title>
<polygon fill="none" stroke="black" stroke-dasharray="1,5" points="240,-32.8 240,-317.8 704,-317.8 704,-32.8 240,-32.8"/>
</g>
<g id="clust2" class="cluster">
<title>cluster_ApplicationModule_declarations</title>
<polygon fill="none" stroke="black" points="280,-105.8 280,-157.8 444,-157.8 444,-105.8 280,-105.8"/>
</g>
<g id="clust4" class="cluster">
<title>cluster_ApplicationModule_imports</title>
<polygon fill="none" stroke="black" points="452,-40.8 452,-157.8 696,-157.8 696,-40.8 452,-40.8"/>
</g>
<g id="clust5" class="cluster">
<title>cluster_ApplicationModule_exports</title>
<polygon fill="none" stroke="black" points="248,-257.8 248,-309.8 414,-309.8 414,-257.8 248,-257.8"/>
</g>
<g id="clust8" class="cluster">
<title>cluster_ApplicationWidgetModule</title>
<polygon fill="none" stroke="black" stroke-dasharray="1,5" points="8,-173.8 8,-385.8 232,-385.8 232,-173.8 8,-173.8"/>
</g>
<g id="clust9" class="cluster">
<title>cluster_ApplicationWidgetModule_declarations</title>
<polygon fill="none" stroke="black" points="20,-181.8 20,-233.8 224,-233.8 224,-181.8 20,-181.8"/>
</g>
<g id="clust12" class="cluster">
<title>cluster_ApplicationWidgetModule_exports</title>
<polygon fill="none" stroke="black" points="16,-325.8 16,-377.8 224,-377.8 224,-325.8 16,-325.8"/>
</g>
<g id="clust15" class="cluster">
<title>cluster_AppModule</title>
<polygon fill="none" stroke="black" stroke-dasharray="1,5" points="1179,-249.8 1179,-377.8 1960,-377.8 1960,-249.8 1179,-249.8"/>
</g>
<g id="clust16" class="cluster">
<title>cluster_AppModule_declarations</title>
<polygon fill="none" stroke="black" points="1830,-257.8 1830,-309.8 1952,-309.8 1952,-257.8 1830,-257.8"/>
</g>
<g id="clust18" class="cluster">
<title>cluster_AppModule_imports</title>
<polygon fill="none" stroke="black" points="1187,-257.8 1187,-309.8 1822,-309.8 1822,-257.8 1187,-257.8"/>
</g>
<g id="clust22" class="cluster">
<title>cluster_DashboardModule</title>
<polygon fill="none" stroke="black" stroke-dasharray="1,5" points="2384,-97.8 2384,-165.8 2728,-165.8 2728,-97.8 2384,-97.8"/>
</g>
<g id="clust23" class="cluster">
<title>cluster_DashboardModule_declarations</title>
<polygon fill="none" stroke="black" points="2562,-105.8 2562,-157.8 2720,-157.8 2720,-105.8 2562,-105.8"/>
</g>
<g id="clust26" class="cluster">
<title>cluster_DashboardModule_exports</title>
<polygon fill="none" stroke="black" points="2392,-105.8 2392,-157.8 2554,-157.8 2554,-105.8 2392,-105.8"/>
</g>
<g id="clust29" class="cluster">
<title>cluster_DashboardWidgetModule</title>
<polygon fill="none" stroke="black" stroke-dasharray="1,5" points="712,-173.8 712,-241.8 1138,-241.8 1138,-173.8 712,-173.8"/>
</g>
<g id="clust30" class="cluster">
<title>cluster_DashboardWidgetModule_declarations</title>
<polygon fill="none" stroke="black" points="930,-181.8 930,-233.8 1130,-233.8 1130,-181.8 930,-181.8"/>
</g>
<g id="clust33" class="cluster">
<title>cluster_DashboardWidgetModule_exports</title>
<polygon fill="none" stroke="black" points="720,-181.8 720,-233.8 922,-233.8 922,-181.8 720,-181.8"/>
</g>
<g id="clust36" class="cluster">
<title>cluster_FormModule</title>
<polygon fill="none" stroke="black" stroke-dasharray="1,5" points="2736,-97.8 2736,-165.8 3020,-165.8 3020,-97.8 2736,-97.8"/>
</g>
<g id="clust37" class="cluster">
<title>cluster_FormModule_declarations</title>
<polygon fill="none" stroke="black" points="2884,-105.8 2884,-157.8 3012,-157.8 3012,-105.8 2884,-105.8"/>
</g>
<g id="clust40" class="cluster">
<title>cluster_FormModule_exports</title>
<polygon fill="none" stroke="black" points="2744,-105.8 2744,-157.8 2876,-157.8 2876,-105.8 2744,-105.8"/>
</g>
<g id="clust43" class="cluster">
<title>cluster_FormWidgetModule</title>
<polygon fill="none" stroke="black" stroke-dasharray="1,5" points="1146,-173.8 1146,-241.8 1510,-241.8 1510,-173.8 1146,-173.8"/>
</g>
<g id="clust44" class="cluster">
<title>cluster_FormWidgetModule_declarations</title>
<polygon fill="none" stroke="black" points="1334,-181.8 1334,-233.8 1502,-233.8 1502,-181.8 1334,-181.8"/>
</g>
<g id="clust47" class="cluster">
<title>cluster_FormWidgetModule_exports</title>
<polygon fill="none" stroke="black" points="1154,-181.8 1154,-233.8 1326,-233.8 1326,-181.8 1154,-181.8"/>
</g>
<g id="clust56" class="cluster">
<title>cluster_WorkflowModule</title>
<polygon fill="none" stroke="black" stroke-dasharray="1,5" points="1974,-173.8 1974,-241.8 2310,-241.8 2310,-173.8 1974,-173.8"/>
</g>
<g id="clust57" class="cluster">
<title>cluster_WorkflowModule_declarations</title>
<polygon fill="none" stroke="black" points="2148,-181.8 2148,-233.8 2302,-233.8 2302,-181.8 2148,-181.8"/>
</g>
<g id="clust60" class="cluster">
<title>cluster_WorkflowModule_exports</title>
<polygon fill="none" stroke="black" points="1982,-181.8 1982,-233.8 2140,-233.8 2140,-181.8 1982,-181.8"/>
</g>
<g id="clust63" class="cluster">
<title>cluster_WorkflowWidgetModule</title>
<polygon fill="none" stroke="black" stroke-dasharray="1,5" points="1518,-173.8 1518,-241.8 1938,-241.8 1938,-173.8 1518,-173.8"/>
</g>
<g id="clust64" class="cluster">
<title>cluster_WorkflowWidgetModule_declarations</title>
<polygon fill="none" stroke="black" points="1734,-181.8 1734,-233.8 1930,-233.8 1930,-181.8 1734,-181.8"/>
</g>
<g id="clust67" class="cluster">
<title>cluster_WorkflowWidgetModule_exports</title>
<polygon fill="none" stroke="black" points="1526,-181.8 1526,-233.8 1726,-233.8 1726,-181.8 1526,-181.8"/>
</g>
<!-- ApplicationComponent -->
<g id="node1" class="node">
<title>ApplicationComponent</title>
<polygon fill="#ffffb3" stroke="black" points="435.93,-149.8 288.07,-149.8 288.07,-113.8 435.93,-113.8 435.93,-149.8"/>
<text text-anchor="middle" x="362" y="-127.6" font-family="Times,serif" font-size="14.00">ApplicationComponent</text>
</g>
<!-- ApplicationModule -->
<g id="node2" class="node">
<title>ApplicationModule</title>
<polygon fill="#8dd3c7" stroke="black" points="383.65,-225.8 380.65,-229.8 359.65,-229.8 356.65,-225.8 258.35,-225.8 258.35,-189.8 383.65,-189.8 383.65,-225.8"/>
<text text-anchor="middle" x="321" y="-203.6" font-family="Times,serif" font-size="14.00">ApplicationModule</text>
</g>
<!-- ApplicationComponent&#45;&gt;ApplicationModule -->
<g id="edge1" class="edge">
<title>ApplicationComponent&#45;&gt;ApplicationModule</title>
<path fill="none" stroke="black" d="M336.06,-149.81C336.06,-149.81 336.06,-179.65 336.06,-179.65"/>
<polygon fill="black" stroke="black" points="332.56,-179.65 336.06,-189.65 339.56,-179.65 332.56,-179.65"/>
</g>
<!-- ApplicationComponent  -->
<g id="node6" class="node">
<title>ApplicationComponent </title>
<polygon fill="#fb8072" stroke="black" points="406.43,-301.8 255.57,-301.8 255.57,-265.8 406.43,-265.8 406.43,-301.8"/>
<text text-anchor="middle" x="331" y="-279.6" font-family="Times,serif" font-size="14.00">ApplicationComponent </text>
</g>
<!-- ApplicationModule&#45;&gt;ApplicationComponent  -->
<g id="edge5" class="edge">
<title>ApplicationModule&#45;&gt;ApplicationComponent </title>
<path fill="none" stroke="black" stroke-dasharray="5,2" d="M321,-225.81C321,-225.81 321,-255.65 321,-255.65"/>
<polygon fill="black" stroke="black" points="317.5,-255.65 321,-265.65 324.5,-255.65 317.5,-255.65"/>
</g>
<!-- ApplicationWidgetModule -->
<g id="node8" class="node">
<title>ApplicationWidgetModule</title>
<polygon fill="#8dd3c7" stroke="black" points="214.36,-301.8 211.36,-305.8 190.36,-305.8 187.36,-301.8 47.64,-301.8 47.64,-265.8 214.36,-265.8 214.36,-301.8"/>
<text text-anchor="middle" x="131" y="-279.6" font-family="Times,serif" font-size="14.00">ApplicationWidgetModule</text>
</g>
<!-- ApplicationModule&#45;&gt;ApplicationWidgetModule -->
<g id="edge7" class="edge">
<title>ApplicationModule&#45;&gt;ApplicationWidgetModule</title>
<path fill="none" stroke="black" d="M257.98,-207.8C248.85,-207.8 242.46,-207.8 242.46,-207.8 242.46,-207.8 242.46,-277.8 242.46,-277.8 242.46,-277.8 224.62,-277.8 224.62,-277.8"/>
<polygon fill="black" stroke="black" points="224.62,-274.3 214.62,-277.8 224.62,-281.3 224.62,-274.3"/>
</g>
<!-- DashboardModule -->
<g id="node3" class="node">
<title>DashboardModule</title>
<polygon fill="#8dd3c7" stroke="black" points="580.2,-84.8 577.2,-88.8 556.2,-88.8 553.2,-84.8 459.8,-84.8 459.8,-48.8 580.2,-48.8 580.2,-84.8"/>
<text text-anchor="middle" x="520" y="-62.6" font-family="Times,serif" font-size="14.00">DashboardModule</text>
</g>
<!-- DashboardModule&#45;&gt;ApplicationModule -->
<g id="edge2" class="edge">
<title>DashboardModule&#45;&gt;ApplicationModule</title>
<path fill="none" stroke="black" d="M496.75,-85.01C496.75,-121.86 496.75,-201.8 496.75,-201.8 496.75,-201.8 393.95,-201.8 393.95,-201.8"/>
<polygon fill="black" stroke="black" points="393.95,-198.3 383.95,-201.8 393.95,-205.3 393.95,-198.3"/>
</g>
<!-- WorkflowModule -->
<g id="node5" class="node">
<title>WorkflowModule</title>
<polygon fill="#8dd3c7" stroke="black" points="687.59,-149.8 684.59,-153.8 663.59,-153.8 660.59,-149.8 570.41,-149.8 570.41,-113.8 687.59,-113.8 687.59,-149.8"/>
<text text-anchor="middle" x="629" y="-127.6" font-family="Times,serif" font-size="14.00">WorkflowModule</text>
</g>
<!-- DashboardModule&#45;&gt;WorkflowModule -->
<g id="edge26" class="edge">
<title>DashboardModule&#45;&gt;WorkflowModule</title>
<path fill="none" stroke="black" d="M572.87,-84.91C572.87,-84.91 572.87,-103.79 572.87,-103.79"/>
<polygon fill="black" stroke="black" points="569.37,-103.79 572.87,-113.79 576.37,-103.79 569.37,-103.79"/>
</g>
<!-- DashboardWidgetModule -->
<g id="node12" class="node">
<title>DashboardWidgetModule</title>
<polygon fill="#8dd3c7" stroke="black" points="1356.91,-301.8 1353.91,-305.8 1332.91,-305.8 1329.91,-301.8 1195.09,-301.8 1195.09,-265.8 1356.91,-265.8 1356.91,-301.8"/>
<text text-anchor="middle" x="1276" y="-279.6" font-family="Times,serif" font-size="14.00">DashboardWidgetModule</text>
</g>
<!-- DashboardModule&#45;&gt;DashboardWidgetModule -->
<g id="edge18" class="edge">
<title>DashboardModule&#45;&gt;DashboardWidgetModule</title>
<path fill="none" stroke="black" d="M533.6,-84.91C533.6,-138.54 533.6,-292.8 533.6,-292.8 533.6,-292.8 1185.14,-292.8 1185.14,-292.8"/>
<polygon fill="black" stroke="black" points="1185.14,-296.3 1195.14,-292.8 1185.14,-289.3 1185.14,-296.3"/>
</g>
<!-- DashboardComponent  -->
<g id="node17" class="node">
<title>DashboardComponent </title>
<polygon fill="#fb8072" stroke="black" points="2545.98,-149.8 2400.02,-149.8 2400.02,-113.8 2545.98,-113.8 2545.98,-149.8"/>
<text text-anchor="middle" x="2473" y="-127.6" font-family="Times,serif" font-size="14.00">DashboardComponent </text>
</g>
<!-- DashboardModule&#45;&gt;DashboardComponent  -->
<g id="edge16" class="edge">
<title>DashboardModule&#45;&gt;DashboardComponent </title>
<path fill="none" stroke="black" stroke-dasharray="5,2" d="M577.69,-84.84C577.69,-92.55 577.69,-99.8 577.69,-99.8 577.69,-99.8 2473,-99.8 2473,-99.8 2473,-99.8 2473,-103.56 2473,-103.56"/>
<polygon fill="black" stroke="black" points="2469.5,-103.56 2473,-113.56 2476.5,-103.56 2469.5,-103.56"/>
</g>
<!-- FormModule -->
<g id="node4" class="node">
<title>FormModule</title>
<polygon fill="#8dd3c7" stroke="black" points="687.89,-84.8 684.89,-88.8 663.89,-88.8 660.89,-84.8 598.11,-84.8 598.11,-48.8 687.89,-48.8 687.89,-84.8"/>
<text text-anchor="middle" x="643" y="-62.6" font-family="Times,serif" font-size="14.00">FormModule</text>
</g>
<!-- FormModule&#45;&gt;ApplicationModule -->
<g id="edge3" class="edge">
<title>FormModule&#45;&gt;ApplicationModule</title>
<path fill="none" stroke="black" d="M627.89,-84.93C627.89,-95.51 627.89,-106.8 627.89,-106.8 627.89,-106.8 273.23,-106.8 273.23,-106.8 273.23,-106.8 273.23,-179.74 273.23,-179.74"/>
<polygon fill="black" stroke="black" points="269.73,-179.74 273.23,-189.74 276.73,-179.74 269.73,-179.74"/>
</g>
<!-- FormModule&#45;&gt;WorkflowModule -->
<g id="edge27" class="edge">
<title>FormModule&#45;&gt;WorkflowModule</title>
<path fill="none" stroke="black" d="M657.72,-84.91C657.72,-84.91 657.72,-103.79 657.72,-103.79"/>
<polygon fill="black" stroke="black" points="654.22,-103.79 657.72,-113.79 661.22,-103.79 654.22,-103.79"/>
</g>
<!-- FormWidgetModule -->
<g id="node13" class="node">
<title>FormWidgetModule</title>
<polygon fill="#8dd3c7" stroke="black" points="1505.6,-301.8 1502.6,-305.8 1481.6,-305.8 1478.6,-301.8 1374.4,-301.8 1374.4,-265.8 1505.6,-265.8 1505.6,-301.8"/>
<text text-anchor="middle" x="1440" y="-279.6" font-family="Times,serif" font-size="14.00">FormWidgetModule</text>
</g>
<!-- FormModule&#45;&gt;FormWidgetModule -->
<g id="edge23" class="edge">
<title>FormModule&#45;&gt;FormWidgetModule</title>
<path fill="none" stroke="black" d="M688.17,-75.8C864.92,-75.8 1499.99,-75.8 1499.99,-75.8 1499.99,-75.8 1499.99,-255.71 1499.99,-255.71"/>
<polygon fill="black" stroke="black" points="1496.49,-255.71 1499.99,-265.71 1503.49,-255.71 1496.49,-255.71"/>
</g>
<!-- FormComponent  -->
<g id="node21" class="node">
<title>FormComponent </title>
<polygon fill="#fb8072" stroke="black" points="2867.67,-149.8 2752.33,-149.8 2752.33,-113.8 2867.67,-113.8 2867.67,-149.8"/>
<text text-anchor="middle" x="2810" y="-127.6" font-family="Times,serif" font-size="14.00">FormComponent </text>
</g>
<!-- FormModule&#45;&gt;FormComponent  -->
<g id="edge21" class="edge">
<title>FormModule&#45;&gt;FormComponent </title>
<path fill="none" stroke="black" stroke-dasharray="5,2" d="M688.26,-66.8C999.45,-66.8 2810,-66.8 2810,-66.8 2810,-66.8 2810,-103.69 2810,-103.69"/>
<polygon fill="black" stroke="black" points="2806.5,-103.69 2810,-113.69 2813.5,-103.69 2806.5,-103.69"/>
</g>
<!-- WorkflowModule&#45;&gt;ApplicationModule -->
<g id="edge4" class="edge">
<title>WorkflowModule&#45;&gt;ApplicationModule</title>
<path fill="none" stroke="black" d="M629,-150C629,-174.16 629,-213.8 629,-213.8 629,-213.8 393.7,-213.8 393.7,-213.8"/>
<polygon fill="black" stroke="black" points="393.7,-210.3 383.7,-213.8 393.7,-217.3 393.7,-210.3"/>
</g>
<!-- WorkflowWidgetModule -->
<g id="node15" class="node">
<title>WorkflowWidgetModule</title>
<polygon fill="#8dd3c7" stroke="black" points="1682.3,-301.8 1679.3,-305.8 1658.3,-305.8 1655.3,-301.8 1523.7,-301.8 1523.7,-265.8 1682.3,-265.8 1682.3,-301.8"/>
<text text-anchor="middle" x="1603" y="-279.6" font-family="Times,serif" font-size="14.00">WorkflowWidgetModule</text>
</g>
<!-- WorkflowModule&#45;&gt;WorkflowWidgetModule -->
<g id="edge30" class="edge">
<title>WorkflowModule&#45;&gt;WorkflowWidgetModule</title>
<path fill="none" stroke="black" d="M687.71,-140.8C887.54,-140.8 1529.03,-140.8 1529.03,-140.8 1529.03,-140.8 1529.03,-255.69 1529.03,-255.69"/>
<polygon fill="black" stroke="black" points="1525.53,-255.69 1529.03,-265.69 1532.53,-255.69 1525.53,-255.69"/>
</g>
<!-- WorkflowComponent  -->
<g id="node25" class="node">
<title>WorkflowComponent </title>
<polygon fill="#fb8072" stroke="black" points="2132.37,-225.8 1989.63,-225.8 1989.63,-189.8 2132.37,-189.8 2132.37,-225.8"/>
<text text-anchor="middle" x="2061" y="-203.6" font-family="Times,serif" font-size="14.00">WorkflowComponent </text>
</g>
<!-- WorkflowModule&#45;&gt;WorkflowComponent  -->
<g id="edge28" class="edge">
<title>WorkflowModule&#45;&gt;WorkflowComponent </title>
<path fill="none" stroke="black" stroke-dasharray="5,2" d="M687.81,-131.8C957.27,-131.8 2061,-131.8 2061,-131.8 2061,-131.8 2061,-179.79 2061,-179.79"/>
<polygon fill="black" stroke="black" points="2057.5,-179.79 2061,-189.79 2064.5,-179.79 2057.5,-179.79"/>
</g>
<!-- ApplicationWidgetComponent -->
<g id="node7" class="node">
<title>ApplicationWidgetComponent</title>
<polygon fill="#ffffb3" stroke="black" points="216.14,-225.8 27.86,-225.8 27.86,-189.8 216.14,-189.8 216.14,-225.8"/>
<text text-anchor="middle" x="122" y="-203.6" font-family="Times,serif" font-size="14.00">ApplicationWidgetComponent</text>
</g>
<!-- ApplicationWidgetComponent&#45;&gt;ApplicationWidgetModule -->
<g id="edge6" class="edge">
<title>ApplicationWidgetComponent&#45;&gt;ApplicationWidgetModule</title>
<path fill="none" stroke="black" d="M131,-225.81C131,-225.81 131,-255.65 131,-255.65"/>
<polygon fill="black" stroke="black" points="127.5,-255.65 131,-265.65 134.5,-255.65 127.5,-255.65"/>
</g>
<!-- ApplicationWidgetComponent  -->
<g id="node9" class="node">
<title>ApplicationWidgetComponent </title>
<polygon fill="#fb8072" stroke="black" points="216.13,-369.8 23.87,-369.8 23.87,-333.8 216.13,-333.8 216.13,-369.8"/>
<text text-anchor="middle" x="120" y="-347.6" font-family="Times,serif" font-size="14.00">ApplicationWidgetComponent </text>
</g>
<!-- ApplicationWidgetModule&#45;&gt;ApplicationWidgetComponent  -->
<g id="edge8" class="edge">
<title>ApplicationWidgetModule&#45;&gt;ApplicationWidgetComponent </title>
<path fill="none" stroke="black" stroke-dasharray="5,2" d="M131,-302.02C131,-302.02 131,-323.53 131,-323.53"/>
<polygon fill="black" stroke="black" points="127.5,-323.53 131,-333.53 134.5,-323.53 127.5,-323.53"/>
</g>
<!-- AppModule -->
<g id="node11" class="node">
<title>AppModule</title>
<polygon fill="#8dd3c7" stroke="black" points="1562.66,-369.8 1559.66,-373.8 1538.66,-373.8 1535.66,-369.8 1479.34,-369.8 1479.34,-333.8 1562.66,-333.8 1562.66,-369.8"/>
<text text-anchor="middle" x="1521" y="-347.6" font-family="Times,serif" font-size="14.00">AppModule</text>
</g>
<!-- ApplicationWidgetModule&#45;&gt;AppModule -->
<g id="edge10" class="edge">
<title>ApplicationWidgetModule&#45;&gt;AppModule</title>
<path fill="none" stroke="black" d="M214.45,-289.8C223.43,-289.8 229.39,-289.8 229.39,-289.8 229.39,-289.8 229.39,-357.8 229.39,-357.8 229.39,-357.8 1469.13,-357.8 1469.13,-357.8"/>
<polygon fill="black" stroke="black" points="1469.13,-361.3 1479.13,-357.8 1469.13,-354.3 1469.13,-361.3"/>
</g>
<!-- AppComponent -->
<g id="node10" class="node">
<title>AppComponent</title>
<polygon fill="#ffffb3" stroke="black" points="1943.94,-301.8 1838.06,-301.8 1838.06,-265.8 1943.94,-265.8 1943.94,-301.8"/>
<text text-anchor="middle" x="1891" y="-279.6" font-family="Times,serif" font-size="14.00">AppComponent</text>
</g>
<!-- AppComponent&#45;&gt;AppModule -->
<g id="edge9" class="edge">
<title>AppComponent&#45;&gt;AppModule</title>
<path fill="none" stroke="black" d="M1891,-302.09C1891,-324.01 1891,-357.8 1891,-357.8 1891,-357.8 1572.72,-357.8 1572.72,-357.8"/>
<polygon fill="black" stroke="black" points="1572.72,-354.3 1562.72,-357.8 1572.72,-361.3 1572.72,-354.3"/>
</g>
<!-- DashboardWidgetModule&#45;&gt;AppModule -->
<g id="edge11" class="edge">
<title>DashboardWidgetModule&#45;&gt;AppModule</title>
<path fill="none" stroke="black" d="M1276,-302.07C1276,-320.36 1276,-345.8 1276,-345.8 1276,-345.8 1469.16,-345.8 1469.16,-345.8"/>
<polygon fill="black" stroke="black" points="1469.16,-349.3 1479.16,-345.8 1469.16,-342.3 1469.16,-349.3"/>
</g>
<!-- DashboardWidgetComponent  -->
<g id="node19" class="node">
<title>DashboardWidgetComponent </title>
<polygon fill="#fb8072" stroke="black" points="914.19,-225.8 727.81,-225.8 727.81,-189.8 914.19,-189.8 914.19,-225.8"/>
<text text-anchor="middle" x="821" y="-203.6" font-family="Times,serif" font-size="14.00">DashboardWidgetComponent </text>
</g>
<!-- DashboardWidgetModule&#45;&gt;DashboardWidgetComponent  -->
<g id="edge19" class="edge">
<title>DashboardWidgetModule&#45;&gt;DashboardWidgetComponent </title>
<path fill="none" stroke="black" stroke-dasharray="5,2" d="M1195.18,-283.8C1064.43,-283.8 821,-283.8 821,-283.8 821,-283.8 821,-235.81 821,-235.81"/>
<polygon fill="black" stroke="black" points="824.5,-235.81 821,-225.81 817.5,-235.81 824.5,-235.81"/>
</g>
<!-- FormWidgetModule&#45;&gt;AppModule -->
<g id="edge12" class="edge">
<title>FormWidgetModule&#45;&gt;AppModule</title>
<path fill="none" stroke="black" d="M1492.36,-302.02C1492.36,-302.02 1492.36,-323.53 1492.36,-323.53"/>
<polygon fill="black" stroke="black" points="1488.86,-323.53 1492.36,-333.53 1495.86,-323.53 1488.86,-323.53"/>
</g>
<!-- FormWidgetComponent  -->
<g id="node23" class="node">
<title>FormWidgetComponent </title>
<polygon fill="#fb8072" stroke="black" points="1318.38,-225.8 1161.62,-225.8 1161.62,-189.8 1318.38,-189.8 1318.38,-225.8"/>
<text text-anchor="middle" x="1240" y="-203.6" font-family="Times,serif" font-size="14.00">FormWidgetComponent </text>
</g>
<!-- FormWidgetModule&#45;&gt;FormWidgetComponent  -->
<g id="edge24" class="edge">
<title>FormWidgetModule&#45;&gt;FormWidgetComponent </title>
<path fill="none" stroke="black" stroke-dasharray="5,2" d="M1414.45,-265.77C1414.45,-258.95 1414.45,-252.8 1414.45,-252.8 1414.45,-252.8 1256.74,-252.8 1256.74,-252.8 1256.74,-252.8 1256.74,-235.84 1256.74,-235.84"/>
<polygon fill="black" stroke="black" points="1260.24,-235.84 1256.74,-225.84 1253.24,-235.84 1260.24,-235.84"/>
</g>
<!-- GraphQLModule -->
<g id="node14" class="node">
<title>GraphQLModule</title>
<polygon fill="#8dd3c7" stroke="black" points="1813.7,-301.8 1810.7,-305.8 1789.7,-305.8 1786.7,-301.8 1700.3,-301.8 1700.3,-265.8 1813.7,-265.8 1813.7,-301.8"/>
<text text-anchor="middle" x="1757" y="-279.6" font-family="Times,serif" font-size="14.00">GraphQLModule</text>
</g>
<!-- GraphQLModule&#45;&gt;AppModule -->
<g id="edge13" class="edge">
<title>GraphQLModule&#45;&gt;AppModule</title>
<path fill="none" stroke="black" d="M1757,-302.07C1757,-320.36 1757,-345.8 1757,-345.8 1757,-345.8 1572.92,-345.8 1572.92,-345.8"/>
<polygon fill="black" stroke="black" points="1572.92,-342.3 1562.92,-345.8 1572.92,-349.3 1572.92,-342.3"/>
</g>
<!-- WorkflowWidgetModule&#45;&gt;AppModule -->
<g id="edge14" class="edge">
<title>WorkflowWidgetModule&#45;&gt;AppModule</title>
<path fill="none" stroke="black" d="M1543.34,-302.02C1543.34,-302.02 1543.34,-323.53 1543.34,-323.53"/>
<polygon fill="black" stroke="black" points="1539.84,-323.53 1543.34,-333.53 1546.84,-323.53 1539.84,-323.53"/>
</g>
<!-- WorkflowWidgetComponent  -->
<g id="node27" class="node">
<title>WorkflowWidgetComponent </title>
<polygon fill="#fb8072" stroke="black" points="1717.58,-225.8 1534.42,-225.8 1534.42,-189.8 1717.58,-189.8 1717.58,-225.8"/>
<text text-anchor="middle" x="1626" y="-203.6" font-family="Times,serif" font-size="14.00">WorkflowWidgetComponent </text>
</g>
<!-- WorkflowWidgetModule&#45;&gt;WorkflowWidgetComponent  -->
<g id="edge31" class="edge">
<title>WorkflowWidgetModule&#45;&gt;WorkflowWidgetComponent </title>
<path fill="none" stroke="black" stroke-dasharray="5,2" d="M1583.52,-265.79C1583.52,-265.79 1583.52,-235.95 1583.52,-235.95"/>
<polygon fill="black" stroke="black" points="1587.02,-235.95 1583.52,-225.95 1580.02,-235.95 1587.02,-235.95"/>
</g>
<!-- DashboardComponent -->
<g id="node16" class="node">
<title>DashboardComponent</title>
<polygon fill="#ffffb3" stroke="black" points="2711.98,-149.8 2570.02,-149.8 2570.02,-113.8 2711.98,-113.8 2711.98,-149.8"/>
<text text-anchor="middle" x="2641" y="-127.6" font-family="Times,serif" font-size="14.00">DashboardComponent</text>
</g>
<!-- DashboardComponent&#45;&gt;DashboardModule -->
<g id="edge15" class="edge">
<title>DashboardComponent&#45;&gt;DashboardModule</title>
<path fill="none" stroke="black" d="M2641,-113.67C2641,-103.49 2641,-92.8 2641,-92.8 2641,-92.8 575.28,-92.8 575.28,-92.8 575.28,-92.8 575.28,-92.01 575.28,-92.01"/>
<polygon fill="black" stroke="black" points="578.78,-94.86 575.28,-84.86 571.78,-94.86 578.78,-94.86"/>
</g>
<!-- DashboardWidgetComponent -->
<g id="node18" class="node">
<title>DashboardWidgetComponent</title>
<polygon fill="#ffffb3" stroke="black" points="1121.69,-225.8 938.31,-225.8 938.31,-189.8 1121.69,-189.8 1121.69,-225.8"/>
<text text-anchor="middle" x="1030" y="-203.6" font-family="Times,serif" font-size="14.00">DashboardWidgetComponent</text>
</g>
<!-- DashboardWidgetComponent&#45;&gt;DashboardWidgetModule -->
<g id="edge17" class="edge">
<title>DashboardWidgetComponent&#45;&gt;DashboardWidgetModule</title>
<path fill="none" stroke="black" d="M1030,-226.11C1030,-245.95 1030,-274.8 1030,-274.8 1030,-274.8 1185.11,-274.8 1185.11,-274.8"/>
<polygon fill="black" stroke="black" points="1185.11,-278.3 1195.11,-274.8 1185.11,-271.3 1185.11,-278.3"/>
</g>
<!-- FormComponent -->
<g id="node20" class="node">
<title>FormComponent</title>
<polygon fill="#ffffb3" stroke="black" points="3003.67,-149.8 2892.33,-149.8 2892.33,-113.8 3003.67,-113.8 3003.67,-149.8"/>
<text text-anchor="middle" x="2948" y="-127.6" font-family="Times,serif" font-size="14.00">FormComponent</text>
</g>
<!-- FormComponent&#45;&gt;FormModule -->
<g id="edge20" class="edge">
<title>FormComponent&#45;&gt;FormModule</title>
<path fill="none" stroke="black" d="M2948,-113.51C2948,-91.59 2948,-57.8 2948,-57.8 2948,-57.8 698.01,-57.8 698.01,-57.8"/>
<polygon fill="black" stroke="black" points="698.01,-54.3 688.01,-57.8 698.01,-61.3 698.01,-54.3"/>
</g>
<!-- FormWidgetComponent -->
<g id="node22" class="node">
<title>FormWidgetComponent</title>
<polygon fill="#ffffb3" stroke="black" points="1494.38,-225.8 1341.62,-225.8 1341.62,-189.8 1494.38,-189.8 1494.38,-225.8"/>
<text text-anchor="middle" x="1418" y="-203.6" font-family="Times,serif" font-size="14.00">FormWidgetComponent</text>
</g>
<!-- FormWidgetComponent&#45;&gt;FormWidgetModule -->
<g id="edge22" class="edge">
<title>FormWidgetComponent&#45;&gt;FormWidgetModule</title>
<path fill="none" stroke="black" d="M1454.44,-225.81C1454.44,-225.81 1454.44,-255.65 1454.44,-255.65"/>
<polygon fill="black" stroke="black" points="1450.94,-255.65 1454.44,-265.65 1457.94,-255.65 1450.94,-255.65"/>
</g>
<!-- WorkflowComponent -->
<g id="node24" class="node">
<title>WorkflowComponent</title>
<polygon fill="#ffffb3" stroke="black" points="2294.37,-225.8 2155.63,-225.8 2155.63,-189.8 2294.37,-189.8 2294.37,-225.8"/>
<text text-anchor="middle" x="2225" y="-203.6" font-family="Times,serif" font-size="14.00">WorkflowComponent</text>
</g>
<!-- WorkflowComponent&#45;&gt;WorkflowModule -->
<g id="edge25" class="edge">
<title>WorkflowComponent&#45;&gt;WorkflowModule</title>
<path fill="none" stroke="black" d="M2225,-189.77C2225,-164.82 2225,-122.8 2225,-122.8 2225,-122.8 697.7,-122.8 697.7,-122.8"/>
<polygon fill="black" stroke="black" points="697.7,-119.3 687.7,-122.8 697.7,-126.3 697.7,-119.3"/>
</g>
<!-- WorkflowWidgetComponent -->
<g id="node26" class="node">
<title>WorkflowWidgetComponent</title>
<polygon fill="#ffffb3" stroke="black" points="1922.08,-225.8 1741.92,-225.8 1741.92,-189.8 1922.08,-189.8 1922.08,-225.8"/>
<text text-anchor="middle" x="1832" y="-203.6" font-family="Times,serif" font-size="14.00">WorkflowWidgetComponent</text>
</g>
<!-- WorkflowWidgetComponent&#45;&gt;WorkflowWidgetModule -->
<g id="edge29" class="edge">
<title>WorkflowWidgetComponent&#45;&gt;WorkflowWidgetModule</title>
<path fill="none" stroke="black" d="M1777.78,-226.04C1777.78,-233.23 1777.78,-239.8 1777.78,-239.8 1777.78,-239.8 1632.84,-239.8 1632.84,-239.8 1632.84,-239.8 1632.84,-255.65 1632.84,-255.65"/>
<polygon fill="black" stroke="black" points="1629.34,-255.65 1632.84,-265.65 1636.34,-255.65 1629.34,-255.65"/>
</g>
</g>
</svg>
