<?xml version="1.0" encoding="UTF-8" standalone="no"?>
<!DOCTYPE svg PUBLIC "-//W3C//DTD SVG 1.1//EN"
 "http://www.w3.org/Graphics/SVG/1.1/DTD/svg11.dtd">
<!-- Generated by graphviz version 3.0.0 (20220226.1711)
 -->
<!-- Title: dependencies Pages: 1 -->
<svg width="651pt" height="247pt"
 viewBox="0.00 0.00 651.00 246.80" xmlns="http://www.w3.org/2000/svg" xmlns:xlink="http://www.w3.org/1999/xlink">
<g id="graph0" class="graph" transform="scale(1 1) rotate(0) translate(4 242.8)">
<title>dependencies</title>
<polygon fill="white" stroke="transparent" points="-4,4 -4,-242.8 647,-242.8 647,4 -4,4"/>
<text text-anchor="middle" x="321.5" y="-8.2" font-family="sans-serif" font-size="14.00">dependencies</text>
<g id="clust1" class="cluster">
<title>cluster_SafeEditAggregationModalModule</title>
<polygon fill="none" stroke="black" stroke-dasharray="1,5" points="8,-32.8 8,-230.8 635,-230.8 635,-32.8 8,-32.8"/>
</g>
<g id="clust4" class="cluster">
<title>cluster_SafeEditAggregationModalModule_imports</title>
<polygon fill="none" stroke="black" points="276,-40.8 276,-92.8 627,-92.8 627,-40.8 276,-40.8"/>
</g>
<g id="clust2" class="cluster">
<title>cluster_SafeEditAggregationModalModule_declarations</title>
<polygon fill="none" stroke="black" points="16,-40.8 16,-92.8 268,-92.8 268,-40.8 16,-40.8"/>
</g>
<g id="clust5" class="cluster">
<title>cluster_SafeEditAggregationModalModule_exports</title>
<polygon fill="none" stroke="black" points="216,-170.8 216,-222.8 472,-222.8 472,-170.8 216,-170.8"/>
</g>
<!-- SafeEditAggregationModalComponent -->
<g id="node1" class="node">
<title>SafeEditAggregationModalComponent</title>
<polygon fill="#ffffb3" stroke="black" points="260.07,-84.8 23.93,-84.8 23.93,-48.8 260.07,-48.8 260.07,-84.8"/>
<text text-anchor="middle" x="142" y="-62.6" font-family="Times,serif" font-size="14.00">SafeEditAggregationModalComponent</text>
</g>
<!-- SafeEditAggregationModalModule -->
<g id="node2" class="node">
<title>SafeEditAggregationModalModule</title>
<polygon fill="#8dd3c7" stroke="black" points="451.29,-149.8 448.29,-153.8 427.29,-153.8 424.29,-149.8 236.71,-149.8 236.71,-113.8 451.29,-113.8 451.29,-149.8"/>
<text text-anchor="middle" x="344" y="-127.6" font-family="Times,serif" font-size="14.00">SafeEditAggregationModalModule</text>
</g>
<!-- SafeEditAggregationModalComponent&#45;&gt;SafeEditAggregationModalModule -->
<g id="edge1" class="edge">
<title>SafeEditAggregationModalComponent&#45;&gt;SafeEditAggregationModalModule</title>
<path fill="none" stroke="black" d="M248.44,-84.91C248.44,-84.91 248.44,-103.79 248.44,-103.79"/>
<polygon fill="black" stroke="black" points="244.94,-103.79 248.44,-113.79 251.94,-103.79 244.94,-103.79"/>
</g>
<!-- SafeEditAggregationModalComponent  -->
<g id="node5" class="node">
<title>SafeEditAggregationModalComponent </title>
<polygon fill="#fb8072" stroke="black" points="463.57,-214.8 224.43,-214.8 224.43,-178.8 463.57,-178.8 463.57,-214.8"/>
<text text-anchor="middle" x="344" y="-192.6" font-family="Times,serif" font-size="14.00">SafeEditAggregationModalComponent </text>
</g>
<!-- SafeEditAggregationModalModule&#45;&gt;SafeEditAggregationModalComponent  -->
<g id="edge4" class="edge">
<title>SafeEditAggregationModalModule&#45;&gt;SafeEditAggregationModalComponent </title>
<path fill="none" stroke="black" stroke-dasharray="5,2" d="M344,-149.91C344,-149.91 344,-168.79 344,-168.79"/>
<polygon fill="black" stroke="black" points="340.5,-168.79 344,-178.79 347.5,-168.79 340.5,-168.79"/>
</g>
<!-- SafeAggregationBuilderModule -->
<g id="node3" class="node">
<title>SafeAggregationBuilderModule</title>
<polygon fill="#8dd3c7" stroke="black" points="619.4,-84.8 616.4,-88.8 595.4,-88.8 592.4,-84.8 422.6,-84.8 422.6,-48.8 619.4,-48.8 619.4,-84.8"/>
<text text-anchor="middle" x="521" y="-62.6" font-family="Times,serif" font-size="14.00">SafeAggregationBuilderModule</text>
</g>
<!-- SafeAggregationBuilderModule&#45;&gt;SafeEditAggregationModalModule -->
<g id="edge2" class="edge">
<title>SafeAggregationBuilderModule&#45;&gt;SafeEditAggregationModalModule</title>
<path fill="none" stroke="black" d="M436.97,-84.91C436.97,-84.91 436.97,-103.79 436.97,-103.79"/>
<polygon fill="black" stroke="black" points="433.47,-103.79 436.97,-113.79 440.47,-103.79 433.47,-103.79"/>
</g>
<!-- SafeModalModule -->
<g id="node4" class="node">
<title>SafeModalModule</title>
<polygon fill="#8dd3c7" stroke="black" points="404.48,-84.8 401.48,-88.8 380.48,-88.8 377.48,-84.8 283.52,-84.8 283.52,-48.8 404.48,-48.8 404.48,-84.8"/>
<text text-anchor="middle" x="344" y="-62.6" font-family="Times,serif" font-size="14.00">SafeModalModule</text>
</g>
<!-- SafeModalModule&#45;&gt;SafeEditAggregationModalModule -->
<g id="edge3" class="edge">
<title>SafeModalModule&#45;&gt;SafeEditAggregationModalModule</title>
<path fill="none" stroke="black" d="M344,-84.91C344,-84.91 344,-103.79 344,-103.79"/>
<polygon fill="black" stroke="black" points="340.5,-103.79 344,-113.79 347.5,-103.79 340.5,-103.79"/>
</g>
</g>
</svg>
