<?xml version="1.0" encoding="UTF-8" standalone="no"?>
<!DOCTYPE svg PUBLIC "-//W3C//DTD SVG 1.1//EN"
 "http://www.w3.org/Graphics/SVG/1.1/DTD/svg11.dtd">
<!-- Generated by graphviz version 3.0.0 (20220226.1711)
 -->
<!-- Title: dependencies Pages: 1 -->
<svg width="651pt" height="247pt"
 viewBox="0.00 0.00 651.00 246.80" xmlns="http://www.w3.org/2000/svg" xmlns:xlink="http://www.w3.org/1999/xlink">
<g id="graph0" class="graph" transform="scale(1 1) rotate(0) translate(4 242.8)">
<title>dependencies</title>
<polygon fill="white" stroke="transparent" points="-4,4 -4,-242.8 647,-242.8 647,4 -4,4"/>
<text text-anchor="middle" x="321.5" y="-8.2" font-family="sans-serif" font-size="14.00">dependencies</text>
<g id="clust1" class="cluster">
<title>cluster_SafeEditAggregationModalModule</title>
<polygon fill="none" stroke="black" stroke-dasharray="1,5" points="8,-32.8 8,-230.8 635,-230.8 635,-32.8 8,-32.8"/>
</g>
<g id="clust2" class="cluster">
<title>cluster_SafeEditAggregationModalModule_declarations</title>
<polygon fill="none" stroke="black" points="375,-40.8 375,-92.8 627,-92.8 627,-40.8 375,-40.8"/>
</g>
<g id="clust4" class="cluster">
<title>cluster_SafeEditAggregationModalModule_imports</title>
<polygon fill="none" stroke="black" points="16,-40.8 16,-92.8 367,-92.8 367,-40.8 16,-40.8"/>
</g>
<g id="clust5" class="cluster">
<title>cluster_SafeEditAggregationModalModule_exports</title>
<polygon fill="none" stroke="black" points="133,-170.8 133,-222.8 389,-222.8 389,-170.8 133,-170.8"/>
</g>
<!-- SafeEditAggregationModalComponent -->
<g id="node1" class="node">
<title>SafeEditAggregationModalComponent</title>
<polygon fill="#ffffb3" stroke="black" points="619.07,-84.8 382.93,-84.8 382.93,-48.8 619.07,-48.8 619.07,-84.8"/>
<text text-anchor="middle" x="501" y="-62.6" font-family="Times,serif" font-size="14.00">SafeEditAggregationModalComponent</text>
</g>
<!-- SafeEditAggregationModalModule -->
<g id="node2" class="node">
<title>SafeEditAggregationModalModule</title>
<polygon fill="#8dd3c7" stroke="black" points="368.29,-149.8 365.29,-153.8 344.29,-153.8 341.29,-149.8 153.71,-149.8 153.71,-113.8 368.29,-113.8 368.29,-149.8"/>
<text text-anchor="middle" x="261" y="-127.6" font-family="Times,serif" font-size="14.00">SafeEditAggregationModalModule</text>
</g>
<!-- SafeEditAggregationModalComponent&#45;&gt;SafeEditAggregationModalModule -->
<g id="edge1" class="edge">
<title>SafeEditAggregationModalComponent&#45;&gt;SafeEditAggregationModalModule</title>
<path fill="none" stroke="black" d="M382.77,-66.8C371.22,-66.8 363.67,-66.8 363.67,-66.8 363.67,-66.8 363.67,-103.69 363.67,-103.69"/>
<polygon fill="black" stroke="black" points="360.17,-103.69 363.67,-113.69 367.17,-103.69 360.17,-103.69"/>
</g>
<!-- SafeEditAggregationModalComponent  -->
<g id="node5" class="node">
<title>SafeEditAggregationModalComponent </title>
<polygon fill="#fb8072" stroke="black" points="380.57,-214.8 141.43,-214.8 141.43,-178.8 380.57,-178.8 380.57,-214.8"/>
<text text-anchor="middle" x="261" y="-192.6" font-family="Times,serif" font-size="14.00">SafeEditAggregationModalComponent </text>
</g>
<!-- SafeEditAggregationModalModule&#45;&gt;SafeEditAggregationModalComponent  -->
<g id="edge4" class="edge">
<title>SafeEditAggregationModalModule&#45;&gt;SafeEditAggregationModalComponent </title>
<path fill="none" stroke="black" stroke-dasharray="5,2" d="M261,-149.91C261,-149.91 261,-168.79 261,-168.79"/>
<polygon fill="black" stroke="black" points="257.5,-168.79 261,-178.79 264.5,-168.79 257.5,-168.79"/>
</g>
<!-- SafeAggregationBuilderModule -->
<g id="node3" class="node">
<title>SafeAggregationBuilderModule</title>
<polygon fill="#8dd3c7" stroke="black" points="359.4,-84.8 356.4,-88.8 335.4,-88.8 332.4,-84.8 162.6,-84.8 162.6,-48.8 359.4,-48.8 359.4,-84.8"/>
<text text-anchor="middle" x="261" y="-62.6" font-family="Times,serif" font-size="14.00">SafeAggregationBuilderModule</text>
</g>
<!-- SafeAggregationBuilderModule&#45;&gt;SafeEditAggregationModalModule -->
<g id="edge2" class="edge">
<title>SafeAggregationBuilderModule&#45;&gt;SafeEditAggregationModalModule</title>
<path fill="none" stroke="black" d="M261,-84.91C261,-84.91 261,-103.79 261,-103.79"/>
<polygon fill="black" stroke="black" points="257.5,-103.79 261,-113.79 264.5,-103.79 257.5,-103.79"/>
</g>
<!-- SafeModalModule -->
<g id="node4" class="node">
<title>SafeModalModule</title>
<polygon fill="#8dd3c7" stroke="black" points="144.48,-84.8 141.48,-88.8 120.48,-88.8 117.48,-84.8 23.52,-84.8 23.52,-48.8 144.48,-48.8 144.48,-84.8"/>
<text text-anchor="middle" x="84" y="-62.6" font-family="Times,serif" font-size="14.00">SafeModalModule</text>
</g>
<!-- SafeModalModule&#45;&gt;SafeEditAggregationModalModule -->
<g id="edge3" class="edge">
<title>SafeModalModule&#45;&gt;SafeEditAggregationModalModule</title>
<path fill="none" stroke="black" d="M144.69,-66.8C152.77,-66.8 158.33,-66.8 158.33,-66.8 158.33,-66.8 158.33,-103.69 158.33,-103.69"/>
<polygon fill="black" stroke="black" points="154.83,-103.69 158.33,-113.69 161.83,-103.69 154.83,-103.69"/>
</g>
</g>
</svg>
