<?xml version="1.0" encoding="UTF-8" standalone="no"?>
<!DOCTYPE svg PUBLIC "-//W3C//DTD SVG 1.1//EN"
 "http://www.w3.org/Graphics/SVG/1.1/DTD/svg11.dtd">
<!-- Generated by graphviz version 3.0.0 (20220226.1711)
 -->
<!-- Title: dependencies Pages: 1 -->
<svg width="330pt" height="247pt"
 viewBox="0.00 0.00 330.00 246.80" xmlns="http://www.w3.org/2000/svg" xmlns:xlink="http://www.w3.org/1999/xlink">
<g id="graph0" class="graph" transform="scale(1 1) rotate(0) translate(4 242.8)">
<title>dependencies</title>
<polygon fill="white" stroke="transparent" points="-4,4 -4,-242.8 326,-242.8 326,4 -4,4"/>
<text text-anchor="middle" x="161" y="-8.2" font-family="sans-serif" font-size="14.00">dependencies</text>
<g id="clust1" class="cluster">
<title>cluster_RolesModule</title>
<polygon fill="none" stroke="black" stroke-dasharray="1,5" points="8,-32.8 8,-230.8 314,-230.8 314,-32.8 8,-32.8"/>
</g>
<g id="clust4" class="cluster">
<title>cluster_RolesModule_imports</title>
<polygon fill="none" stroke="black" points="154,-40.8 154,-92.8 306,-92.8 306,-40.8 154,-40.8"/>
</g>
<g id="clust2" class="cluster">
<title>cluster_RolesModule_declarations</title>
<polygon fill="none" stroke="black" points="16,-40.8 16,-92.8 146,-92.8 146,-40.8 16,-40.8"/>
</g>
<g id="clust5" class="cluster">
<title>cluster_RolesModule_exports</title>
<polygon fill="none" stroke="black" points="90,-170.8 90,-222.8 222,-222.8 222,-170.8 90,-170.8"/>
</g>
<!-- RolesComponent -->
<g id="node1" class="node">
<title>RolesComponent</title>
<polygon fill="#ffffb3" stroke="black" points="137.72,-84.8 24.28,-84.8 24.28,-48.8 137.72,-48.8 137.72,-84.8"/>
<text text-anchor="middle" x="81" y="-62.6" font-family="Times,serif" font-size="14.00">RolesComponent</text>
</g>
<!-- RolesModule -->
<g id="node2" class="node">
<title>RolesModule</title>
<polygon fill="#8dd3c7" stroke="black" points="201.94,-149.8 198.94,-153.8 177.94,-153.8 174.94,-149.8 110.06,-149.8 110.06,-113.8 201.94,-113.8 201.94,-149.8"/>
<text text-anchor="middle" x="156" y="-127.6" font-family="Times,serif" font-size="14.00">RolesModule</text>
</g>
<!-- RolesComponent&#45;&gt;RolesModule -->
<g id="edge1" class="edge">
<title>RolesComponent&#45;&gt;RolesModule</title>
<path fill="none" stroke="black" d="M123.94,-84.91C123.94,-84.91 123.94,-103.79 123.94,-103.79"/>
<polygon fill="black" stroke="black" points="120.44,-103.79 123.94,-113.79 127.44,-103.79 120.44,-103.79"/>
</g>
<!-- RolesComponent  -->
<g id="node4" class="node">
<title>RolesComponent </title>
<polygon fill="#fb8072" stroke="black" points="214.22,-214.8 97.78,-214.8 97.78,-178.8 214.22,-178.8 214.22,-214.8"/>
<text text-anchor="middle" x="156" y="-192.6" font-family="Times,serif" font-size="14.00">RolesComponent </text>
</g>
<!-- RolesModule&#45;&gt;RolesComponent  -->
<g id="edge3" class="edge">
<title>RolesModule&#45;&gt;RolesComponent </title>
<path fill="none" stroke="black" stroke-dasharray="5,2" d="M156,-149.91C156,-149.91 156,-168.79 156,-168.79"/>
<polygon fill="black" stroke="black" points="152.5,-168.79 156,-178.79 159.5,-168.79 152.5,-168.79"/>
</g>
<!-- RolesRoutingModule -->
<g id="node3" class="node">
<title>RolesRoutingModule</title>
<polygon fill="#8dd3c7" stroke="black" points="298.06,-84.8 295.06,-88.8 274.06,-88.8 271.06,-84.8 161.94,-84.8 161.94,-48.8 298.06,-48.8 298.06,-84.8"/>
<text text-anchor="middle" x="230" y="-62.6" font-family="Times,serif" font-size="14.00">RolesRoutingModule</text>
</g>
<!-- RolesRoutingModule&#45;&gt;RolesModule -->
<g id="edge2" class="edge">
<title>RolesRoutingModule&#45;&gt;RolesModule</title>
<path fill="none" stroke="black" d="M181.72,-84.91C181.72,-84.91 181.72,-103.79 181.72,-103.79"/>
<polygon fill="black" stroke="black" points="178.22,-103.79 181.72,-113.79 185.22,-103.79 178.22,-103.79"/>
</g>
</g>
</svg>
