<?xml version="1.0" encoding="UTF-8" standalone="no"?>
<!DOCTYPE svg PUBLIC "-//W3C//DTD SVG 1.1//EN"
 "http://www.w3.org/Graphics/SVG/1.1/DTD/svg11.dtd">
<!-- Generated by graphviz version 3.0.0 (20220226.1711)
 -->
<!-- Title: dependencies Pages: 1 -->
<svg width="641pt" height="247pt"
 viewBox="0.00 0.00 641.00 246.80" xmlns="http://www.w3.org/2000/svg" xmlns:xlink="http://www.w3.org/1999/xlink">
<g id="graph0" class="graph" transform="scale(1 1) rotate(0) translate(4 242.8)">
<title>dependencies</title>
<polygon fill="white" stroke="transparent" points="-4,4 -4,-242.8 637,-242.8 637,4 -4,4"/>
<text text-anchor="middle" x="316.5" y="-8.2" font-family="sans-serif" font-size="14.00">dependencies</text>
<g id="clust1" class="cluster">
<title>cluster_PositionModule</title>
<polygon fill="none" stroke="black" stroke-dasharray="1,5" points="8,-32.8 8,-230.8 625,-230.8 625,-32.8 8,-32.8"/>
</g>
<g id="clust5" class="cluster">
<title>cluster_PositionModule_imports</title>
<polygon fill="none" stroke="black" points="337,-40.8 337,-92.8 617,-92.8 617,-40.8 337,-40.8"/>
</g>
<g id="clust2" class="cluster">
<title>cluster_PositionModule_declarations</title>
<polygon fill="none" stroke="black" points="16,-40.8 16,-92.8 329,-92.8 329,-40.8 16,-40.8"/>
</g>
<g id="clust6" class="cluster">
<title>cluster_PositionModule_exports</title>
<polygon fill="none" stroke="black" points="259,-170.8 259,-222.8 405,-222.8 405,-170.8 259,-170.8"/>
</g>
<!-- AddPositionComponent -->
<g id="node1" class="node">
<title>AddPositionComponent</title>
<polygon fill="#ffffb3" stroke="black" points="320.85,-84.8 169.15,-84.8 169.15,-48.8 320.85,-48.8 320.85,-84.8"/>
<text text-anchor="middle" x="245" y="-62.6" font-family="Times,serif" font-size="14.00">AddPositionComponent</text>
</g>
<!-- PositionModule -->
<g id="node3" class="node">
<title>PositionModule</title>
<polygon fill="#8dd3c7" stroke="black" points="384.96,-149.8 381.96,-153.8 360.96,-153.8 357.96,-149.8 279.04,-149.8 279.04,-113.8 384.96,-113.8 384.96,-149.8"/>
<text text-anchor="middle" x="332" y="-127.6" font-family="Times,serif" font-size="14.00">PositionModule</text>
</g>
<!-- AddPositionComponent&#45;&gt;PositionModule -->
<g id="edge1" class="edge">
<title>AddPositionComponent&#45;&gt;PositionModule</title>
<path fill="none" stroke="black" d="M299.97,-84.91C299.97,-84.91 299.97,-103.79 299.97,-103.79"/>
<polygon fill="black" stroke="black" points="296.47,-103.79 299.97,-113.79 303.47,-103.79 296.47,-103.79"/>
</g>
<!-- PositionComponent -->
<g id="node2" class="node">
<title>PositionComponent</title>
<polygon fill="#ffffb3" stroke="black" points="151.73,-84.8 24.27,-84.8 24.27,-48.8 151.73,-48.8 151.73,-84.8"/>
<text text-anchor="middle" x="88" y="-62.6" font-family="Times,serif" font-size="14.00">PositionComponent</text>
</g>
<!-- PositionComponent&#45;&gt;PositionModule -->
<g id="edge2" class="edge">
<title>PositionComponent&#45;&gt;PositionModule</title>
<path fill="none" stroke="black" d="M88,-84.91C88,-104.14 88,-131.8 88,-131.8 88,-131.8 269.06,-131.8 269.06,-131.8"/>
<polygon fill="black" stroke="black" points="269.06,-135.3 279.06,-131.8 269.06,-128.3 269.06,-135.3"/>
</g>
<!-- PositionComponent  -->
<g id="node6" class="node">
<title>PositionComponent </title>
<polygon fill="#fb8072" stroke="black" points="397.23,-214.8 266.77,-214.8 266.77,-178.8 397.23,-178.8 397.23,-214.8"/>
<text text-anchor="middle" x="332" y="-192.6" font-family="Times,serif" font-size="14.00">PositionComponent </text>
</g>
<!-- PositionModule&#45;&gt;PositionComponent  -->
<g id="edge5" class="edge">
<title>PositionModule&#45;&gt;PositionComponent </title>
<path fill="none" stroke="black" stroke-dasharray="5,2" d="M332,-149.91C332,-149.91 332,-168.79 332,-168.79"/>
<polygon fill="black" stroke="black" points="328.5,-168.79 332,-178.79 335.5,-168.79 328.5,-168.79"/>
</g>
<!-- FormsModule -->
<g id="node4" class="node">
<title>FormsModule</title>
<polygon fill="#8dd3c7" stroke="black" points="608.84,-84.8 605.84,-88.8 584.84,-88.8 581.84,-84.8 513.16,-84.8 513.16,-48.8 608.84,-48.8 608.84,-84.8"/>
<text text-anchor="middle" x="561" y="-62.6" font-family="Times,serif" font-size="14.00">FormsModule</text>
</g>
<!-- FormsModule&#45;&gt;PositionModule -->
<g id="edge3" class="edge">
<title>FormsModule&#45;&gt;PositionModule</title>
<path fill="none" stroke="black" d="M561,-84.91C561,-104.14 561,-131.8 561,-131.8 561,-131.8 394.82,-131.8 394.82,-131.8"/>
<polygon fill="black" stroke="black" points="394.82,-128.3 384.82,-131.8 394.82,-135.3 394.82,-128.3"/>
</g>
<!-- PositionRoutingModule -->
<g id="node5" class="node">
<title>PositionRoutingModule</title>
<polygon fill="#8dd3c7" stroke="black" points="495.07,-84.8 492.07,-88.8 471.07,-88.8 468.07,-84.8 344.93,-84.8 344.93,-48.8 495.07,-48.8 495.07,-84.8"/>
<text text-anchor="middle" x="420" y="-62.6" font-family="Times,serif" font-size="14.00">PositionRoutingModule</text>
</g>
<!-- PositionRoutingModule&#45;&gt;PositionModule -->
<g id="edge4" class="edge">
<title>PositionRoutingModule&#45;&gt;PositionModule</title>
<path fill="none" stroke="black" d="M364.72,-84.91C364.72,-84.91 364.72,-103.79 364.72,-103.79"/>
<polygon fill="black" stroke="black" points="361.22,-103.79 364.72,-113.79 368.22,-103.79 361.22,-103.79"/>
</g>
</g>
</svg>
