<?xml version="1.0" encoding="UTF-8" standalone="no"?>
<!DOCTYPE svg PUBLIC "-//W3C//DTD SVG 1.1//EN"
 "http://www.w3.org/Graphics/SVG/1.1/DTD/svg11.dtd">
<!-- Generated by graphviz version 3.0.0 (20220226.1711)
 -->
<!-- Title: dependencies Pages: 1 -->
<svg width="719pt" height="247pt"
 viewBox="0.00 0.00 719.00 246.80" xmlns="http://www.w3.org/2000/svg" xmlns:xlink="http://www.w3.org/1999/xlink">
<g id="graph0" class="graph" transform="scale(1 1) rotate(0) translate(4 242.8)">
<title>dependencies</title>
<polygon fill="white" stroke="transparent" points="-4,4 -4,-242.8 715,-242.8 715,4 -4,4"/>
<text text-anchor="middle" x="355.5" y="-8.2" font-family="sans-serif" font-size="14.00">dependencies</text>
<g id="clust1" class="cluster">
<title>cluster_SafeLayoutModalModule</title>
<polygon fill="none" stroke="black" stroke-dasharray="1,5" points="8,-32.8 8,-230.8 703,-230.8 703,-32.8 8,-32.8"/>
</g>
<g id="clust4" class="cluster">
<title>cluster_SafeLayoutModalModule_imports</title>
<polygon fill="none" stroke="black" points="222,-40.8 222,-92.8 695,-92.8 695,-40.8 222,-40.8"/>
</g>
<g id="clust2" class="cluster">
<title>cluster_SafeLayoutModalModule_declarations</title>
<polygon fill="none" stroke="black" points="16,-40.8 16,-92.8 214,-92.8 214,-40.8 16,-40.8"/>
</g>
<g id="clust5" class="cluster">
<title>cluster_SafeLayoutModalModule_exports</title>
<polygon fill="none" stroke="black" points="293,-170.8 293,-222.8 495,-222.8 495,-170.8 293,-170.8"/>
</g>
<!-- SafeLayoutModalComponent -->
<g id="node1" class="node">
<title>SafeLayoutModalComponent</title>
<polygon fill="#ffffb3" stroke="black" points="206.41,-84.8 23.59,-84.8 23.59,-48.8 206.41,-48.8 206.41,-84.8"/>
<text text-anchor="middle" x="115" y="-62.6" font-family="Times,serif" font-size="14.00">SafeLayoutModalComponent</text>
</g>
<!-- SafeLayoutModalModule -->
<g id="node2" class="node">
<title>SafeLayoutModalModule</title>
<polygon fill="#8dd3c7" stroke="black" points="474.14,-149.8 471.14,-153.8 450.14,-153.8 447.14,-149.8 313.86,-149.8 313.86,-113.8 474.14,-113.8 474.14,-149.8"/>
<text text-anchor="middle" x="394" y="-127.6" font-family="Times,serif" font-size="14.00">SafeLayoutModalModule</text>
</g>
<!-- SafeLayoutModalComponent&#45;&gt;SafeLayoutModalModule -->
<g id="edge1" class="edge">
<title>SafeLayoutModalComponent&#45;&gt;SafeLayoutModalModule</title>
<path fill="none" stroke="black" d="M115,-84.91C115,-104.14 115,-131.8 115,-131.8 115,-131.8 303.68,-131.8 303.68,-131.8"/>
<polygon fill="black" stroke="black" points="303.68,-135.3 313.68,-131.8 303.68,-128.3 303.68,-135.3"/>
</g>
<!-- SafeLayoutModalComponent  -->
<g id="node6" class="node">
<title>SafeLayoutModalComponent </title>
<polygon fill="#fb8072" stroke="black" points="486.91,-214.8 301.09,-214.8 301.09,-178.8 486.91,-178.8 486.91,-214.8"/>
<text text-anchor="middle" x="394" y="-192.6" font-family="Times,serif" font-size="14.00">SafeLayoutModalComponent </text>
</g>
<!-- SafeLayoutModalModule&#45;&gt;SafeLayoutModalComponent  -->
<g id="edge5" class="edge">
<title>SafeLayoutModalModule&#45;&gt;SafeLayoutModalComponent </title>
<path fill="none" stroke="black" stroke-dasharray="5,2" d="M394,-149.91C394,-149.91 394,-168.79 394,-168.79"/>
<polygon fill="black" stroke="black" points="390.5,-168.79 394,-178.79 397.5,-168.79 390.5,-168.79"/>
</g>
<!-- SafeButtonModule -->
<g id="node3" class="node">
<title>SafeButtonModule</title>
<polygon fill="#8dd3c7" stroke="black" points="687.05,-84.8 684.05,-88.8 663.05,-88.8 660.05,-84.8 564.95,-84.8 564.95,-48.8 687.05,-48.8 687.05,-84.8"/>
<text text-anchor="middle" x="626" y="-62.6" font-family="Times,serif" font-size="14.00">SafeButtonModule</text>
</g>
<!-- SafeButtonModule&#45;&gt;SafeLayoutModalModule -->
<g id="edge2" class="edge">
<title>SafeButtonModule&#45;&gt;SafeLayoutModalModule</title>
<path fill="none" stroke="black" d="M626,-84.91C626,-104.14 626,-131.8 626,-131.8 626,-131.8 484.17,-131.8 484.17,-131.8"/>
<polygon fill="black" stroke="black" points="484.17,-128.3 474.17,-131.8 484.17,-135.3 484.17,-128.3"/>
</g>
<!-- SafeCoreGridModule -->
<g id="node4" class="node">
<title>SafeCoreGridModule</title>
<polygon fill="#8dd3c7" stroke="black" points="546.8,-84.8 543.8,-88.8 522.8,-88.8 519.8,-84.8 409.2,-84.8 409.2,-48.8 546.8,-48.8 546.8,-84.8"/>
<text text-anchor="middle" x="478" y="-62.6" font-family="Times,serif" font-size="14.00">SafeCoreGridModule</text>
</g>
<!-- SafeCoreGridModule&#45;&gt;SafeLayoutModalModule -->
<g id="edge3" class="edge">
<title>SafeCoreGridModule&#45;&gt;SafeLayoutModalModule</title>
<path fill="none" stroke="black" d="M441.83,-84.91C441.83,-84.91 441.83,-103.79 441.83,-103.79"/>
<polygon fill="black" stroke="black" points="438.33,-103.79 441.83,-113.79 445.33,-103.79 438.33,-103.79"/>
</g>
<!-- SafeQueryBuilderModule -->
<g id="node5" class="node">
<title>SafeQueryBuilderModule</title>
<polygon fill="#8dd3c7" stroke="black" points="391.91,-84.8 388.91,-88.8 367.91,-88.8 364.91,-84.8 230.09,-84.8 230.09,-48.8 391.91,-48.8 391.91,-84.8"/>
<text text-anchor="middle" x="311" y="-62.6" font-family="Times,serif" font-size="14.00">SafeQueryBuilderModule</text>
</g>
<!-- SafeQueryBuilderModule&#45;&gt;SafeLayoutModalModule -->
<g id="edge4" class="edge">
<title>SafeQueryBuilderModule&#45;&gt;SafeLayoutModalModule</title>
<path fill="none" stroke="black" d="M352.69,-84.91C352.69,-84.91 352.69,-103.79 352.69,-103.79"/>
<polygon fill="black" stroke="black" points="349.19,-103.79 352.69,-113.79 356.19,-103.79 349.19,-103.79"/>
</g>
</g>
</svg>
