<?xml version="1.0" encoding="UTF-8" standalone="no"?>
<!DOCTYPE svg PUBLIC "-//W3C//DTD SVG 1.1//EN"
 "http://www.w3.org/Graphics/SVG/1.1/DTD/svg11.dtd">
<!-- Generated by graphviz version 3.0.0 (20220226.1711)
 -->
<!-- Title: dependencies Pages: 1 -->
<svg width="719pt" height="247pt"
 viewBox="0.00 0.00 719.00 246.80" xmlns="http://www.w3.org/2000/svg" xmlns:xlink="http://www.w3.org/1999/xlink">
<g id="graph0" class="graph" transform="scale(1 1) rotate(0) translate(4 242.8)">
<title>dependencies</title>
<polygon fill="white" stroke="transparent" points="-4,4 -4,-242.8 715,-242.8 715,4 -4,4"/>
<text text-anchor="middle" x="355.5" y="-8.2" font-family="sans-serif" font-size="14.00">dependencies</text>
<g id="clust1" class="cluster">
<title>cluster_SafeLayoutModalModule</title>
<polygon fill="none" stroke="black" stroke-dasharray="1,5" points="8,-32.8 8,-230.8 703,-230.8 703,-32.8 8,-32.8"/>
</g>
<g id="clust5" class="cluster">
<title>cluster_SafeLayoutModalModule_exports</title>
<polygon fill="none" stroke="black" points="245,-170.8 245,-222.8 447,-222.8 447,-170.8 245,-170.8"/>
</g>
<g id="clust2" class="cluster">
<title>cluster_SafeLayoutModalModule_declarations</title>
<polygon fill="none" stroke="black" points="497,-40.8 497,-92.8 695,-92.8 695,-40.8 497,-40.8"/>
</g>
<g id="clust4" class="cluster">
<title>cluster_SafeLayoutModalModule_imports</title>
<polygon fill="none" stroke="black" points="16,-40.8 16,-92.8 489,-92.8 489,-40.8 16,-40.8"/>
</g>
<!-- SafeLayoutModalComponent -->
<g id="node1" class="node">
<title>SafeLayoutModalComponent</title>
<polygon fill="#ffffb3" stroke="black" points="687.41,-84.8 504.59,-84.8 504.59,-48.8 687.41,-48.8 687.41,-84.8"/>
<text text-anchor="middle" x="596" y="-62.6" font-family="Times,serif" font-size="14.00">SafeLayoutModalComponent</text>
</g>
<!-- SafeLayoutModalModule -->
<g id="node2" class="node">
<title>SafeLayoutModalModule</title>
<polygon fill="#8dd3c7" stroke="black" points="426.14,-149.8 423.14,-153.8 402.14,-153.8 399.14,-149.8 265.86,-149.8 265.86,-113.8 426.14,-113.8 426.14,-149.8"/>
<text text-anchor="middle" x="346" y="-127.6" font-family="Times,serif" font-size="14.00">SafeLayoutModalModule</text>
</g>
<!-- SafeLayoutModalComponent&#45;&gt;SafeLayoutModalModule -->
<g id="edge1" class="edge">
<title>SafeLayoutModalComponent&#45;&gt;SafeLayoutModalModule</title>
<path fill="none" stroke="black" d="M596,-84.91C596,-104.14 596,-131.8 596,-131.8 596,-131.8 436.48,-131.8 436.48,-131.8"/>
<polygon fill="black" stroke="black" points="436.48,-128.3 426.48,-131.8 436.48,-135.3 436.48,-128.3"/>
</g>
<!-- SafeLayoutModalComponent  -->
<g id="node6" class="node">
<title>SafeLayoutModalComponent </title>
<polygon fill="#fb8072" stroke="black" points="438.91,-214.8 253.09,-214.8 253.09,-178.8 438.91,-178.8 438.91,-214.8"/>
<text text-anchor="middle" x="346" y="-192.6" font-family="Times,serif" font-size="14.00">SafeLayoutModalComponent </text>
</g>
<!-- SafeLayoutModalModule&#45;&gt;SafeLayoutModalComponent  -->
<g id="edge5" class="edge">
<title>SafeLayoutModalModule&#45;&gt;SafeLayoutModalComponent </title>
<path fill="none" stroke="black" stroke-dasharray="5,2" d="M346,-149.91C346,-149.91 346,-168.79 346,-168.79"/>
<polygon fill="black" stroke="black" points="342.5,-168.79 346,-178.79 349.5,-168.79 342.5,-168.79"/>
</g>
<!-- SafeButtonModule -->
<g id="node3" class="node">
<title>SafeButtonModule</title>
<polygon fill="#8dd3c7" stroke="black" points="481.05,-84.8 478.05,-88.8 457.05,-88.8 454.05,-84.8 358.95,-84.8 358.95,-48.8 481.05,-48.8 481.05,-84.8"/>
<text text-anchor="middle" x="420" y="-62.6" font-family="Times,serif" font-size="14.00">SafeButtonModule</text>
</g>
<!-- SafeButtonModule&#45;&gt;SafeLayoutModalModule -->
<g id="edge2" class="edge">
<title>SafeButtonModule&#45;&gt;SafeLayoutModalModule</title>
<path fill="none" stroke="black" d="M392.52,-84.91C392.52,-84.91 392.52,-103.79 392.52,-103.79"/>
<polygon fill="black" stroke="black" points="389.02,-103.79 392.52,-113.79 396.02,-103.79 389.02,-103.79"/>
</g>
<!-- SafeCoreGridModule -->
<g id="node4" class="node">
<title>SafeCoreGridModule</title>
<polygon fill="#8dd3c7" stroke="black" points="340.8,-84.8 337.8,-88.8 316.8,-88.8 313.8,-84.8 203.2,-84.8 203.2,-48.8 340.8,-48.8 340.8,-84.8"/>
<text text-anchor="middle" x="272" y="-62.6" font-family="Times,serif" font-size="14.00">SafeCoreGridModule</text>
</g>
<!-- SafeCoreGridModule&#45;&gt;SafeLayoutModalModule -->
<g id="edge3" class="edge">
<title>SafeCoreGridModule&#45;&gt;SafeLayoutModalModule</title>
<path fill="none" stroke="black" d="M303.17,-84.91C303.17,-84.91 303.17,-103.79 303.17,-103.79"/>
<polygon fill="black" stroke="black" points="299.67,-103.79 303.17,-113.79 306.67,-103.79 299.67,-103.79"/>
</g>
<!-- SafeQueryBuilderModule -->
<g id="node5" class="node">
<title>SafeQueryBuilderModule</title>
<polygon fill="#8dd3c7" stroke="black" points="185.91,-84.8 182.91,-88.8 161.91,-88.8 158.91,-84.8 24.09,-84.8 24.09,-48.8 185.91,-48.8 185.91,-84.8"/>
<text text-anchor="middle" x="105" y="-62.6" font-family="Times,serif" font-size="14.00">SafeQueryBuilderModule</text>
</g>
<!-- SafeQueryBuilderModule&#45;&gt;SafeLayoutModalModule -->
<g id="edge4" class="edge">
<title>SafeQueryBuilderModule&#45;&gt;SafeLayoutModalModule</title>
<path fill="none" stroke="black" d="M105,-84.91C105,-104.14 105,-131.8 105,-131.8 105,-131.8 255.75,-131.8 255.75,-131.8"/>
<polygon fill="black" stroke="black" points="255.75,-135.3 265.75,-131.8 255.75,-128.3 255.75,-135.3"/>
</g>
</g>
</svg>
