<?xml version="1.0" encoding="UTF-8" standalone="no"?>
<!DOCTYPE svg PUBLIC "-//W3C//DTD SVG 1.1//EN"
 "http://www.w3.org/Graphics/SVG/1.1/DTD/svg11.dtd">
<!-- Generated by graphviz version 2.47.0 (20210316.0004)
 -->
<!-- Title: dependencies Pages: 1 -->
<svg width="1537pt" height="284pt"
 viewBox="0.00 0.00 1537.00 284.00" xmlns="http://www.w3.org/2000/svg" xmlns:xlink="http://www.w3.org/1999/xlink">
<g id="graph0" class="graph" transform="scale(1 1) rotate(0) translate(4 280)">
<title>dependencies</title>
<polygon fill="white" stroke="transparent" points="-4,4 -4,-280 1533,-280 1533,4 -4,4"/>
<text text-anchor="start" x="743.51" y="-42.4" font-family="sans-serif" font-weight="bold" font-size="14.00">Legend</text>
<polygon fill="#ffffb3" stroke="transparent" points="530.5,-10 530.5,-30 550.5,-30 550.5,-10 530.5,-10"/>
<text text-anchor="start" x="554.13" y="-15.4" font-family="sans-serif" font-size="14.00"> &#160;Declarations</text>
<polygon fill="#8dd3c7" stroke="transparent" points="643.5,-10 643.5,-30 663.5,-30 663.5,-10 643.5,-10"/>
<text text-anchor="start" x="667.23" y="-15.4" font-family="sans-serif" font-size="14.00"> &#160;Module</text>
<polygon fill="#80b1d3" stroke="transparent" points="729.5,-10 729.5,-30 749.5,-30 749.5,-10 729.5,-10"/>
<text text-anchor="start" x="753.28" y="-15.4" font-family="sans-serif" font-size="14.00"> &#160;Bootstrap</text>
<polygon fill="#fdb462" stroke="transparent" points="826.5,-10 826.5,-30 846.5,-30 846.5,-10 826.5,-10"/>
<text text-anchor="start" x="850.17" y="-15.4" font-family="sans-serif" font-size="14.00"> &#160;Providers</text>
<polygon fill="#fb8072" stroke="transparent" points="922.5,-10 922.5,-30 942.5,-30 942.5,-10 922.5,-10"/>
<text text-anchor="start" x="946.23" y="-15.4" font-family="sans-serif" font-size="14.00"> &#160;Exports</text>
<g id="clust1" class="cluster">
<title>cluster_SafeWidgetGridModule</title>
<polygon fill="none" stroke="black" stroke-dasharray="1,5" points="8,-70 8,-268 1521,-268 1521,-70 8,-70"/>
</g>
<g id="clust10" class="cluster">
<title>cluster_SafeWidgetGridModule_exports</title>
<polygon fill="none" stroke="black" points="691,-208 691,-260 883,-260 883,-208 691,-208"/>
</g>
<g id="clust9" class="cluster">
<title>cluster_SafeWidgetGridModule_imports</title>
<polygon fill="none" stroke="black" points="1231,-78 1231,-130 1513,-130 1513,-78 1231,-78"/>
</g>
<g id="clust2" class="cluster">
<title>cluster_SafeWidgetGridModule_declarations</title>
<polygon fill="none" stroke="black" points="16,-78 16,-130 1223,-130 1223,-78 16,-78"/>
</g>
<!-- SafeDashboardMenuComponent -->
<g id="node1" class="node">
<title>SafeDashboardMenuComponent</title>
<polygon fill="#ffffb3" stroke="black" points="1214.51,-122 1015.49,-122 1015.49,-86 1214.51,-86 1214.51,-122"/>
<text text-anchor="middle" x="1115" y="-99.8" font-family="Times,serif" font-size="14.00">SafeDashboardMenuComponent</text>
</g>
<!-- SafeWidgetGridModule -->
<g id="node7" class="node">
<title>SafeWidgetGridModule</title>
<polygon fill="#8dd3c7" stroke="black" points="862.79,-187 859.79,-191 838.79,-191 835.79,-187 711.21,-187 711.21,-151 862.79,-151 862.79,-187"/>
<text text-anchor="middle" x="787" y="-164.8" font-family="Times,serif" font-size="14.00">SafeWidgetGridModule</text>
</g>
<!-- SafeDashboardMenuComponent&#45;&gt;SafeWidgetGridModule -->
<g id="edge1" class="edge">
<title>SafeDashboardMenuComponent&#45;&gt;SafeWidgetGridModule</title>
<path fill="none" stroke="black" d="M1115,-122.03C1115,-138.4 1115,-160 1115,-160 1115,-160 872.66,-160 872.66,-160"/>
<polygon fill="black" stroke="black" points="872.66,-156.5 862.66,-160 872.66,-163.5 872.66,-156.5"/>
</g>
<!-- SafeExpandedWidgetComponent -->
<g id="node2" class="node">
<title>SafeExpandedWidgetComponent</title>
<polygon fill="#ffffb3" stroke="black" points="997.9,-122 794.1,-122 794.1,-86 997.9,-86 997.9,-122"/>
<text text-anchor="middle" x="896" y="-99.8" font-family="Times,serif" font-size="14.00">SafeExpandedWidgetComponent</text>
</g>
<!-- SafeExpandedWidgetComponent&#45;&gt;SafeWidgetGridModule -->
<g id="edge2" class="edge">
<title>SafeExpandedWidgetComponent&#45;&gt;SafeWidgetGridModule</title>
<path fill="none" stroke="black" d="M828.47,-122.11C828.47,-122.11 828.47,-140.99 828.47,-140.99"/>
<polygon fill="black" stroke="black" points="824.97,-140.99 828.47,-150.99 831.97,-140.99 824.97,-140.99"/>
</g>
<!-- SafeFloatingOptionsComponent -->
<g id="node3" class="node">
<title>SafeFloatingOptionsComponent</title>
<polygon fill="#ffffb3" stroke="black" points="776.71,-122 579.29,-122 579.29,-86 776.71,-86 776.71,-122"/>
<text text-anchor="middle" x="678" y="-99.8" font-family="Times,serif" font-size="14.00">SafeFloatingOptionsComponent</text>
</g>
<!-- SafeFloatingOptionsComponent&#45;&gt;SafeWidgetGridModule -->
<g id="edge3" class="edge">
<title>SafeFloatingOptionsComponent&#45;&gt;SafeWidgetGridModule</title>
<path fill="none" stroke="black" d="M743.98,-122.11C743.98,-122.11 743.98,-140.99 743.98,-140.99"/>
<polygon fill="black" stroke="black" points="740.48,-140.99 743.98,-150.99 747.48,-140.99 740.48,-140.99"/>
</g>
<!-- SafeTileDataComponent -->
<g id="node4" class="node">
<title>SafeTileDataComponent</title>
<polygon fill="#ffffb3" stroke="black" points="561.68,-122 406.32,-122 406.32,-86 561.68,-86 561.68,-122"/>
<text text-anchor="middle" x="484" y="-99.8" font-family="Times,serif" font-size="14.00">SafeTileDataComponent</text>
</g>
<!-- SafeTileDataComponent&#45;&gt;SafeWidgetGridModule -->
<g id="edge4" class="edge">
<title>SafeTileDataComponent&#45;&gt;SafeWidgetGridModule</title>
<path fill="none" stroke="black" d="M484,-122.03C484,-138.4 484,-160 484,-160 484,-160 701.32,-160 701.32,-160"/>
<polygon fill="black" stroke="black" points="701.32,-163.5 711.32,-160 701.32,-156.5 701.32,-163.5"/>
</g>
<!-- SafeTileDisplayComponent -->
<g id="node5" class="node">
<title>SafeTileDisplayComponent</title>
<polygon fill="#ffffb3" stroke="black" points="388.3,-122 215.7,-122 215.7,-86 388.3,-86 388.3,-122"/>
<text text-anchor="middle" x="302" y="-99.8" font-family="Times,serif" font-size="14.00">SafeTileDisplayComponent</text>
</g>
<!-- SafeTileDisplayComponent&#45;&gt;SafeWidgetGridModule -->
<g id="edge5" class="edge">
<title>SafeTileDisplayComponent&#45;&gt;SafeWidgetGridModule</title>
<path fill="none" stroke="black" d="M302,-122.11C302,-141.34 302,-169 302,-169 302,-169 701.22,-169 701.22,-169"/>
<polygon fill="black" stroke="black" points="701.22,-172.5 711.22,-169 701.22,-165.5 701.22,-172.5"/>
</g>
<!-- SafeWidgetGridComponent -->
<g id="node6" class="node">
<title>SafeWidgetGridComponent</title>
<polygon fill="#ffffb3" stroke="black" points="197.57,-122 24.43,-122 24.43,-86 197.57,-86 197.57,-122"/>
<text text-anchor="middle" x="111" y="-99.8" font-family="Times,serif" font-size="14.00">SafeWidgetGridComponent</text>
</g>
<!-- SafeWidgetGridComponent&#45;&gt;SafeWidgetGridModule -->
<g id="edge6" class="edge">
<title>SafeWidgetGridComponent&#45;&gt;SafeWidgetGridModule</title>
<path fill="none" stroke="black" d="M111,-122.29C111,-144.21 111,-178 111,-178 111,-178 701.1,-178 701.1,-178"/>
<polygon fill="black" stroke="black" points="701.1,-181.5 711.1,-178 701.1,-174.5 701.1,-181.5"/>
</g>
<!-- SafeWidgetGridComponent  -->
<g id="node10" class="node">
<title>SafeWidgetGridComponent </title>
<polygon fill="#fb8072" stroke="black" points="875.07,-252 698.93,-252 698.93,-216 875.07,-216 875.07,-252"/>
<text text-anchor="middle" x="787" y="-229.8" font-family="Times,serif" font-size="14.00">SafeWidgetGridComponent </text>
</g>
<!-- SafeWidgetGridModule&#45;&gt;SafeWidgetGridComponent  -->
<g id="edge9" class="edge">
<title>SafeWidgetGridModule&#45;&gt;SafeWidgetGridComponent </title>
<path fill="none" stroke="black" stroke-dasharray="5,2" d="M787,-187.11C787,-187.11 787,-205.99 787,-205.99"/>
<polygon fill="black" stroke="black" points="783.5,-205.99 787,-215.99 790.5,-205.99 783.5,-205.99"/>
</g>
<!-- SafeButtonModule -->
<g id="node8" class="node">
<title>SafeButtonModule</title>
<polygon fill="#8dd3c7" stroke="black" points="1505.04,-122 1502.04,-126 1481.04,-126 1478.04,-122 1382.96,-122 1382.96,-86 1505.04,-86 1505.04,-122"/>
<text text-anchor="middle" x="1444" y="-99.8" font-family="Times,serif" font-size="14.00">SafeButtonModule</text>
</g>
<!-- SafeButtonModule&#45;&gt;SafeWidgetGridModule -->
<g id="edge7" class="edge">
<title>SafeButtonModule&#45;&gt;SafeWidgetGridModule</title>
<path fill="none" stroke="black" d="M1444,-122.29C1444,-144.21 1444,-178 1444,-178 1444,-178 872.69,-178 872.69,-178"/>
<polygon fill="black" stroke="black" points="872.69,-174.5 862.69,-178 872.69,-181.5 872.69,-174.5"/>
</g>
<!-- SafeWidgetModule -->
<g id="node9" class="node">
<title>SafeWidgetModule</title>
<polygon fill="#8dd3c7" stroke="black" points="1364.63,-122 1361.63,-126 1340.63,-126 1337.63,-122 1239.37,-122 1239.37,-86 1364.63,-86 1364.63,-122"/>
<text text-anchor="middle" x="1302" y="-99.8" font-family="Times,serif" font-size="14.00">SafeWidgetModule</text>
</g>
<!-- SafeWidgetModule&#45;&gt;SafeWidgetGridModule -->
<g id="edge8" class="edge">
<title>SafeWidgetModule&#45;&gt;SafeWidgetGridModule</title>
<path fill="none" stroke="black" d="M1302,-122.11C1302,-141.34 1302,-169 1302,-169 1302,-169 872.71,-169 872.71,-169"/>
<polygon fill="black" stroke="black" points="872.71,-165.5 862.71,-169 872.71,-172.5 872.71,-165.5"/>
</g>
</g>
</svg>
