<?xml version="1.0" encoding="UTF-8" standalone="no"?>
<!DOCTYPE svg PUBLIC "-//W3C//DTD SVG 1.1//EN"
 "http://www.w3.org/Graphics/SVG/1.1/DTD/svg11.dtd">
<!-- Generated by graphviz version 2.47.0 (20210316.0004)
 -->
<!-- Title: dependencies Pages: 1 -->
<svg width="1503pt" height="284pt"
 viewBox="0.00 0.00 1503.00 284.00" xmlns="http://www.w3.org/2000/svg" xmlns:xlink="http://www.w3.org/1999/xlink">
<g id="graph0" class="graph" transform="scale(1 1) rotate(0) translate(4 280)">
<title>dependencies</title>
<polygon fill="white" stroke="transparent" points="-4,4 -4,-280 1499,-280 1499,4 -4,4"/>
<text text-anchor="start" x="726.51" y="-42.4" font-family="sans-serif" font-weight="bold" font-size="14.00">Legend</text>
<polygon fill="#ffffb3" stroke="transparent" points="513.5,-10 513.5,-30 533.5,-30 533.5,-10 513.5,-10"/>
<text text-anchor="start" x="537.13" y="-15.4" font-family="sans-serif" font-size="14.00"> &#160;Declarations</text>
<polygon fill="#8dd3c7" stroke="transparent" points="626.5,-10 626.5,-30 646.5,-30 646.5,-10 626.5,-10"/>
<text text-anchor="start" x="650.23" y="-15.4" font-family="sans-serif" font-size="14.00"> &#160;Module</text>
<polygon fill="#80b1d3" stroke="transparent" points="712.5,-10 712.5,-30 732.5,-30 732.5,-10 712.5,-10"/>
<text text-anchor="start" x="736.28" y="-15.4" font-family="sans-serif" font-size="14.00"> &#160;Bootstrap</text>
<polygon fill="#fdb462" stroke="transparent" points="809.5,-10 809.5,-30 829.5,-30 829.5,-10 809.5,-10"/>
<text text-anchor="start" x="833.17" y="-15.4" font-family="sans-serif" font-size="14.00"> &#160;Providers</text>
<polygon fill="#fb8072" stroke="transparent" points="905.5,-10 905.5,-30 925.5,-30 925.5,-10 905.5,-10"/>
<text text-anchor="start" x="929.23" y="-15.4" font-family="sans-serif" font-size="14.00"> &#160;Exports</text>
<g id="clust1" class="cluster">
<title>cluster_SafeWidgetGridModule</title>
<polygon fill="none" stroke="black" stroke-dasharray="1,5" points="8,-70 8,-268 1487,-268 1487,-70 8,-70"/>
</g>
<g id="clust2" class="cluster">
<title>cluster_SafeWidgetGridModule_declarations</title>
<polygon fill="none" stroke="black" points="489,-78 489,-130 1479,-130 1479,-78 489,-78"/>
</g>
<g id="clust9" class="cluster">
<title>cluster_SafeWidgetGridModule_exports</title>
<polygon fill="none" stroke="black" points="583,-208 583,-260 775,-260 775,-208 583,-208"/>
</g>
<g id="clust8" class="cluster">
<title>cluster_SafeWidgetGridModule_imports</title>
<polygon fill="none" stroke="black" points="16,-78 16,-130 481,-130 481,-78 16,-78"/>
</g>
<!-- SafeExpandedWidgetComponent -->
<g id="node1" class="node">
<title>SafeExpandedWidgetComponent</title>
<polygon fill="#ffffb3" stroke="black" points="1470.9,-122 1267.1,-122 1267.1,-86 1470.9,-86 1470.9,-122"/>
<text text-anchor="middle" x="1369" y="-99.8" font-family="Times,serif" font-size="14.00">SafeExpandedWidgetComponent</text>
</g>
<!-- SafeWidgetGridModule -->
<g id="node6" class="node">
<title>SafeWidgetGridModule</title>
<polygon fill="#8dd3c7" stroke="black" points="754.79,-187 751.79,-191 730.79,-191 727.79,-187 603.21,-187 603.21,-151 754.79,-151 754.79,-187"/>
<text text-anchor="middle" x="679" y="-164.8" font-family="Times,serif" font-size="14.00">SafeWidgetGridModule</text>
</g>
<!-- SafeExpandedWidgetComponent&#45;&gt;SafeWidgetGridModule -->
<g id="edge1" class="edge">
<title>SafeExpandedWidgetComponent&#45;&gt;SafeWidgetGridModule</title>
<path fill="none" stroke="black" d="M1369,-122.29C1369,-144.21 1369,-178 1369,-178 1369,-178 764.82,-178 764.82,-178"/>
<polygon fill="black" stroke="black" points="764.82,-174.5 754.82,-178 764.82,-181.5 764.82,-174.5"/>
</g>
<!-- SafeFloatingOptionsComponent -->
<g id="node2" class="node">
<title>SafeFloatingOptionsComponent</title>
<polygon fill="#ffffb3" stroke="black" points="1249.71,-122 1052.29,-122 1052.29,-86 1249.71,-86 1249.71,-122"/>
<text text-anchor="middle" x="1151" y="-99.8" font-family="Times,serif" font-size="14.00">SafeFloatingOptionsComponent</text>
</g>
<!-- SafeFloatingOptionsComponent&#45;&gt;SafeWidgetGridModule -->
<g id="edge2" class="edge">
<title>SafeFloatingOptionsComponent&#45;&gt;SafeWidgetGridModule</title>
<path fill="none" stroke="black" d="M1151,-122.11C1151,-141.34 1151,-169 1151,-169 1151,-169 764.83,-169 764.83,-169"/>
<polygon fill="black" stroke="black" points="764.84,-165.5 754.83,-169 764.83,-172.5 764.84,-165.5"/>
</g>
<!-- SafeTileDataComponent -->
<g id="node3" class="node">
<title>SafeTileDataComponent</title>
<polygon fill="#ffffb3" stroke="black" points="1034.68,-122 879.32,-122 879.32,-86 1034.68,-86 1034.68,-122"/>
<text text-anchor="middle" x="957" y="-99.8" font-family="Times,serif" font-size="14.00">SafeTileDataComponent</text>
</g>
<!-- SafeTileDataComponent&#45;&gt;SafeWidgetGridModule -->
<g id="edge3" class="edge">
<title>SafeTileDataComponent&#45;&gt;SafeWidgetGridModule</title>
<path fill="none" stroke="black" d="M957,-122.03C957,-138.4 957,-160 957,-160 957,-160 764.96,-160 764.96,-160"/>
<polygon fill="black" stroke="black" points="764.96,-156.5 754.96,-160 764.96,-163.5 764.96,-156.5"/>
</g>
<!-- SafeTileDisplayComponent -->
<g id="node4" class="node">
<title>SafeTileDisplayComponent</title>
<polygon fill="#ffffb3" stroke="black" points="861.3,-122 688.7,-122 688.7,-86 861.3,-86 861.3,-122"/>
<text text-anchor="middle" x="775" y="-99.8" font-family="Times,serif" font-size="14.00">SafeTileDisplayComponent</text>
</g>
<!-- SafeTileDisplayComponent&#45;&gt;SafeWidgetGridModule -->
<g id="edge4" class="edge">
<title>SafeTileDisplayComponent&#45;&gt;SafeWidgetGridModule</title>
<path fill="none" stroke="black" d="M721.75,-122.11C721.75,-122.11 721.75,-140.99 721.75,-140.99"/>
<polygon fill="black" stroke="black" points="718.25,-140.99 721.75,-150.99 725.25,-140.99 718.25,-140.99"/>
</g>
<!-- SafeWidgetGridComponent -->
<g id="node5" class="node">
<title>SafeWidgetGridComponent</title>
<polygon fill="#ffffb3" stroke="black" points="670.57,-122 497.43,-122 497.43,-86 670.57,-86 670.57,-122"/>
<text text-anchor="middle" x="584" y="-99.8" font-family="Times,serif" font-size="14.00">SafeWidgetGridComponent</text>
</g>
<!-- SafeWidgetGridComponent&#45;&gt;SafeWidgetGridModule -->
<g id="edge5" class="edge">
<title>SafeWidgetGridComponent&#45;&gt;SafeWidgetGridModule</title>
<path fill="none" stroke="black" d="M636.95,-122.11C636.95,-122.11 636.95,-140.99 636.95,-140.99"/>
<polygon fill="black" stroke="black" points="633.45,-140.99 636.95,-150.99 640.45,-140.99 633.45,-140.99"/>
</g>
<!-- SafeWidgetGridComponent  -->
<g id="node10" class="node">
<title>SafeWidgetGridComponent </title>
<polygon fill="#fb8072" stroke="black" points="767.07,-252 590.93,-252 590.93,-216 767.07,-216 767.07,-252"/>
<text text-anchor="middle" x="679" y="-229.8" font-family="Times,serif" font-size="14.00">SafeWidgetGridComponent </text>
</g>
<!-- SafeWidgetGridModule&#45;&gt;SafeWidgetGridComponent  -->
<g id="edge9" class="edge">
<title>SafeWidgetGridModule&#45;&gt;SafeWidgetGridComponent </title>
<path fill="none" stroke="black" stroke-dasharray="5,2" d="M679,-187.11C679,-187.11 679,-205.99 679,-205.99"/>
<polygon fill="black" stroke="black" points="675.5,-205.99 679,-215.99 682.5,-205.99 675.5,-205.99"/>
</g>
<!-- SafeButtonModule -->
<g id="node7" class="node">
<title>SafeButtonModule</title>
<polygon fill="#8dd3c7" stroke="black" points="473.04,-122 470.04,-126 449.04,-126 446.04,-122 350.96,-122 350.96,-86 473.04,-86 473.04,-122"/>
<text text-anchor="middle" x="412" y="-99.8" font-family="Times,serif" font-size="14.00">SafeButtonModule</text>
</g>
<!-- SafeButtonModule&#45;&gt;SafeWidgetGridModule -->
<g id="edge6" class="edge">
<title>SafeButtonModule&#45;&gt;SafeWidgetGridModule</title>
<path fill="none" stroke="black" d="M412,-122.03C412,-138.4 412,-160 412,-160 412,-160 593.2,-160 593.2,-160"/>
<polygon fill="black" stroke="black" points="593.2,-163.5 603.2,-160 593.2,-156.5 593.2,-163.5"/>
</g>
<!-- SafeWidgetChoiceModule -->
<g id="node8" class="node">
<title>SafeWidgetChoiceModule</title>
<polygon fill="#8dd3c7" stroke="black" points="332.79,-122 329.79,-126 308.79,-126 305.79,-122 167.21,-122 167.21,-86 332.79,-86 332.79,-122"/>
<text text-anchor="middle" x="250" y="-99.8" font-family="Times,serif" font-size="14.00">SafeWidgetChoiceModule</text>
</g>
<!-- SafeWidgetChoiceModule&#45;&gt;SafeWidgetGridModule -->
<g id="edge7" class="edge">
<title>SafeWidgetChoiceModule&#45;&gt;SafeWidgetGridModule</title>
<path fill="none" stroke="black" d="M250,-122.11C250,-141.34 250,-169 250,-169 250,-169 593.29,-169 593.29,-169"/>
<polygon fill="black" stroke="black" points="593.29,-172.5 603.29,-169 593.29,-165.5 593.29,-172.5"/>
</g>
<!-- SafeWidgetModule -->
<g id="node9" class="node">
<title>SafeWidgetModule</title>
<polygon fill="#8dd3c7" stroke="black" points="149.63,-122 146.63,-126 125.63,-126 122.63,-122 24.37,-122 24.37,-86 149.63,-86 149.63,-122"/>
<text text-anchor="middle" x="87" y="-99.8" font-family="Times,serif" font-size="14.00">SafeWidgetModule</text>
</g>
<!-- SafeWidgetModule&#45;&gt;SafeWidgetGridModule -->
<g id="edge8" class="edge">
<title>SafeWidgetModule&#45;&gt;SafeWidgetGridModule</title>
<path fill="none" stroke="black" d="M87,-122.29C87,-144.21 87,-178 87,-178 87,-178 593.12,-178 593.12,-178"/>
<polygon fill="black" stroke="black" points="593.12,-181.5 603.12,-178 593.12,-174.5 593.12,-181.5"/>
</g>
</g>
</svg>
