<?xml version="1.0" encoding="UTF-8" standalone="no"?>
<!DOCTYPE svg PUBLIC "-//W3C//DTD SVG 1.1//EN"
 "http://www.w3.org/Graphics/SVG/1.1/DTD/svg11.dtd">
<!-- Generated by graphviz version 2.47.0 (20210316.0004)
 -->
<!-- Title: dependencies Pages: 1 -->
<svg width="1537pt" height="284pt"
 viewBox="0.00 0.00 1537.00 284.00" xmlns="http://www.w3.org/2000/svg" xmlns:xlink="http://www.w3.org/1999/xlink">
<g id="graph0" class="graph" transform="scale(1 1) rotate(0) translate(4 280)">
<title>dependencies</title>
<polygon fill="white" stroke="transparent" points="-4,4 -4,-280 1533,-280 1533,4 -4,4"/>
<text text-anchor="start" x="743.51" y="-42.4" font-family="sans-serif" font-weight="bold" font-size="14.00">Legend</text>
<polygon fill="#ffffb3" stroke="transparent" points="530.5,-10 530.5,-30 550.5,-30 550.5,-10 530.5,-10"/>
<text text-anchor="start" x="554.13" y="-15.4" font-family="sans-serif" font-size="14.00"> &#160;Declarations</text>
<polygon fill="#8dd3c7" stroke="transparent" points="643.5,-10 643.5,-30 663.5,-30 663.5,-10 643.5,-10"/>
<text text-anchor="start" x="667.23" y="-15.4" font-family="sans-serif" font-size="14.00"> &#160;Module</text>
<polygon fill="#80b1d3" stroke="transparent" points="729.5,-10 729.5,-30 749.5,-30 749.5,-10 729.5,-10"/>
<text text-anchor="start" x="753.28" y="-15.4" font-family="sans-serif" font-size="14.00"> &#160;Bootstrap</text>
<polygon fill="#fdb462" stroke="transparent" points="826.5,-10 826.5,-30 846.5,-30 846.5,-10 826.5,-10"/>
<text text-anchor="start" x="850.17" y="-15.4" font-family="sans-serif" font-size="14.00"> &#160;Providers</text>
<polygon fill="#fb8072" stroke="transparent" points="922.5,-10 922.5,-30 942.5,-30 942.5,-10 922.5,-10"/>
<text text-anchor="start" x="946.23" y="-15.4" font-family="sans-serif" font-size="14.00"> &#160;Exports</text>
<g id="clust1" class="cluster">
<title>cluster_SafeWidgetGridModule</title>
<polygon fill="none" stroke="black" stroke-dasharray="1,5" points="8,-70 8,-268 1521,-268 1521,-70 8,-70"/>
</g>
<g id="clust10" class="cluster">
<title>cluster_SafeWidgetGridModule_exports</title>
<polygon fill="none" stroke="black" points="587,-208 587,-260 779,-260 779,-208 587,-208"/>
</g>
<g id="clust2" class="cluster">
<title>cluster_SafeWidgetGridModule_declarations</title>
<polygon fill="none" stroke="black" points="306,-78 306,-130 1513,-130 1513,-78 306,-78"/>
</g>
<g id="clust9" class="cluster">
<title>cluster_SafeWidgetGridModule_imports</title>
<polygon fill="none" stroke="black" points="16,-78 16,-130 298,-130 298,-78 16,-78"/>
</g>
<!-- SafeDashboardMenuComponent -->
<g id="node1" class="node">
<title>SafeDashboardMenuComponent</title>
<polygon fill="#ffffb3" stroke="black" points="1504.51,-122 1305.49,-122 1305.49,-86 1504.51,-86 1504.51,-122"/>
<text text-anchor="middle" x="1405" y="-99.8" font-family="Times,serif" font-size="14.00">SafeDashboardMenuComponent</text>
</g>
<!-- SafeWidgetGridModule -->
<g id="node7" class="node">
<title>SafeWidgetGridModule</title>
<polygon fill="#8dd3c7" stroke="black" points="758.79,-187 755.79,-191 734.79,-191 731.79,-187 607.21,-187 607.21,-151 758.79,-151 758.79,-187"/>
<text text-anchor="middle" x="683" y="-164.8" font-family="Times,serif" font-size="14.00">SafeWidgetGridModule</text>
</g>
<!-- SafeDashboardMenuComponent&#45;&gt;SafeWidgetGridModule -->
<g id="edge1" class="edge">
<title>SafeDashboardMenuComponent&#45;&gt;SafeWidgetGridModule</title>
<path fill="none" stroke="black" d="M1405,-122.29C1405,-144.21 1405,-178 1405,-178 1405,-178 768.9,-178 768.9,-178"/>
<polygon fill="black" stroke="black" points="768.9,-174.5 758.9,-178 768.9,-181.5 768.9,-174.5"/>
</g>
<!-- SafeExpandedWidgetComponent -->
<g id="node2" class="node">
<title>SafeExpandedWidgetComponent</title>
<polygon fill="#ffffb3" stroke="black" points="1287.9,-122 1084.1,-122 1084.1,-86 1287.9,-86 1287.9,-122"/>
<text text-anchor="middle" x="1186" y="-99.8" font-family="Times,serif" font-size="14.00">SafeExpandedWidgetComponent</text>
</g>
<!-- SafeExpandedWidgetComponent&#45;&gt;SafeWidgetGridModule -->
<g id="edge2" class="edge">
<title>SafeExpandedWidgetComponent&#45;&gt;SafeWidgetGridModule</title>
<path fill="none" stroke="black" d="M1186,-122.11C1186,-141.34 1186,-169 1186,-169 1186,-169 768.85,-169 768.85,-169"/>
<polygon fill="black" stroke="black" points="768.85,-165.5 758.85,-169 768.85,-172.5 768.85,-165.5"/>
</g>
<!-- SafeFloatingOptionsComponent -->
<g id="node3" class="node">
<title>SafeFloatingOptionsComponent</title>
<polygon fill="#ffffb3" stroke="black" points="1066.71,-122 869.29,-122 869.29,-86 1066.71,-86 1066.71,-122"/>
<text text-anchor="middle" x="968" y="-99.8" font-family="Times,serif" font-size="14.00">SafeFloatingOptionsComponent</text>
</g>
<!-- SafeFloatingOptionsComponent&#45;&gt;SafeWidgetGridModule -->
<g id="edge3" class="edge">
<title>SafeFloatingOptionsComponent&#45;&gt;SafeWidgetGridModule</title>
<path fill="none" stroke="black" d="M968,-122.03C968,-138.4 968,-160 968,-160 968,-160 769,-160 769,-160"/>
<polygon fill="black" stroke="black" points="769,-156.5 759,-160 769,-163.5 769,-156.5"/>
</g>
<!-- SafeTileDataComponent -->
<g id="node4" class="node">
<title>SafeTileDataComponent</title>
<polygon fill="#ffffb3" stroke="black" points="851.68,-122 696.32,-122 696.32,-86 851.68,-86 851.68,-122"/>
<text text-anchor="middle" x="774" y="-99.8" font-family="Times,serif" font-size="14.00">SafeTileDataComponent</text>
</g>
<!-- SafeTileDataComponent&#45;&gt;SafeWidgetGridModule -->
<g id="edge4" class="edge">
<title>SafeTileDataComponent&#45;&gt;SafeWidgetGridModule</title>
<path fill="none" stroke="black" d="M727.53,-122.11C727.53,-122.11 727.53,-140.99 727.53,-140.99"/>
<polygon fill="black" stroke="black" points="724.03,-140.99 727.53,-150.99 731.03,-140.99 724.03,-140.99"/>
</g>
<!-- SafeTileDisplayComponent -->
<g id="node5" class="node">
<title>SafeTileDisplayComponent</title>
<polygon fill="#ffffb3" stroke="black" points="678.3,-122 505.7,-122 505.7,-86 678.3,-86 678.3,-122"/>
<text text-anchor="middle" x="592" y="-99.8" font-family="Times,serif" font-size="14.00">SafeTileDisplayComponent</text>
</g>
<!-- SafeTileDisplayComponent&#45;&gt;SafeWidgetGridModule -->
<g id="edge5" class="edge">
<title>SafeTileDisplayComponent&#45;&gt;SafeWidgetGridModule</title>
<path fill="none" stroke="black" d="M642.75,-122.11C642.75,-122.11 642.75,-140.99 642.75,-140.99"/>
<polygon fill="black" stroke="black" points="639.25,-140.99 642.75,-150.99 646.25,-140.99 639.25,-140.99"/>
</g>
<!-- SafeWidgetGridComponent -->
<g id="node6" class="node">
<title>SafeWidgetGridComponent</title>
<polygon fill="#ffffb3" stroke="black" points="487.57,-122 314.43,-122 314.43,-86 487.57,-86 487.57,-122"/>
<text text-anchor="middle" x="401" y="-99.8" font-family="Times,serif" font-size="14.00">SafeWidgetGridComponent</text>
</g>
<!-- SafeWidgetGridComponent&#45;&gt;SafeWidgetGridModule -->
<g id="edge6" class="edge">
<title>SafeWidgetGridComponent&#45;&gt;SafeWidgetGridModule</title>
<path fill="none" stroke="black" d="M401,-122.03C401,-138.4 401,-160 401,-160 401,-160 597.06,-160 597.06,-160"/>
<polygon fill="black" stroke="black" points="597.06,-163.5 607.06,-160 597.06,-156.5 597.06,-163.5"/>
</g>
<!-- SafeWidgetGridComponent  -->
<g id="node10" class="node">
<title>SafeWidgetGridComponent </title>
<polygon fill="#fb8072" stroke="black" points="771.07,-252 594.93,-252 594.93,-216 771.07,-216 771.07,-252"/>
<text text-anchor="middle" x="683" y="-229.8" font-family="Times,serif" font-size="14.00">SafeWidgetGridComponent </text>
</g>
<!-- SafeWidgetGridModule&#45;&gt;SafeWidgetGridComponent  -->
<g id="edge9" class="edge">
<title>SafeWidgetGridModule&#45;&gt;SafeWidgetGridComponent </title>
<path fill="none" stroke="black" stroke-dasharray="5,2" d="M683,-187.11C683,-187.11 683,-205.99 683,-205.99"/>
<polygon fill="black" stroke="black" points="679.5,-205.99 683,-215.99 686.5,-205.99 679.5,-205.99"/>
</g>
<!-- SafeButtonModule -->
<g id="node8" class="node">
<title>SafeButtonModule</title>
<polygon fill="#8dd3c7" stroke="black" points="290.04,-122 287.04,-126 266.04,-126 263.04,-122 167.96,-122 167.96,-86 290.04,-86 290.04,-122"/>
<text text-anchor="middle" x="229" y="-99.8" font-family="Times,serif" font-size="14.00">SafeButtonModule</text>
</g>
<!-- SafeButtonModule&#45;&gt;SafeWidgetGridModule -->
<g id="edge7" class="edge">
<title>SafeButtonModule&#45;&gt;SafeWidgetGridModule</title>
<path fill="none" stroke="black" d="M229,-122.11C229,-141.34 229,-169 229,-169 229,-169 597.27,-169 597.27,-169"/>
<polygon fill="black" stroke="black" points="597.27,-172.5 607.27,-169 597.27,-165.5 597.27,-172.5"/>
</g>
<!-- SafeWidgetModule -->
<g id="node9" class="node">
<title>SafeWidgetModule</title>
<polygon fill="#8dd3c7" stroke="black" points="149.63,-122 146.63,-126 125.63,-126 122.63,-122 24.37,-122 24.37,-86 149.63,-86 149.63,-122"/>
<text text-anchor="middle" x="87" y="-99.8" font-family="Times,serif" font-size="14.00">SafeWidgetModule</text>
</g>
<!-- SafeWidgetModule&#45;&gt;SafeWidgetGridModule -->
<g id="edge8" class="edge">
<title>SafeWidgetModule&#45;&gt;SafeWidgetGridModule</title>
<path fill="none" stroke="black" d="M87,-122.29C87,-144.21 87,-178 87,-178 87,-178 597.21,-178 597.21,-178"/>
<polygon fill="black" stroke="black" points="597.21,-181.5 607.21,-178 597.21,-174.5 597.21,-181.5"/>
</g>
</g>
</svg>
