<?xml version="1.0" encoding="UTF-8" standalone="no"?>
<!DOCTYPE svg PUBLIC "-//W3C//DTD SVG 1.1//EN"
 "http://www.w3.org/Graphics/SVG/1.1/DTD/svg11.dtd">
<!-- Generated by graphviz version 3.0.0 (20220226.1711)
 -->
<!-- Title: dependencies Pages: 1 -->
<svg width="446pt" height="247pt"
 viewBox="0.00 0.00 446.00 246.80" xmlns="http://www.w3.org/2000/svg" xmlns:xlink="http://www.w3.org/1999/xlink">
<g id="graph0" class="graph" transform="scale(1 1) rotate(0) translate(4 242.8)">
<title>dependencies</title>
<polygon fill="white" stroke="transparent" points="-4,4 -4,-242.8 442,-242.8 442,4 -4,4"/>
<text text-anchor="middle" x="219" y="-8.2" font-family="sans-serif" font-size="14.00">dependencies</text>
<g id="clust1" class="cluster">
<title>cluster_SafeRecordHistoryModalModule</title>
<polygon fill="none" stroke="black" stroke-dasharray="1,5" points="8,-32.8 8,-230.8 430,-230.8 430,-32.8 8,-32.8"/>
</g>
<g id="clust4" class="cluster">
<title>cluster_SafeRecordHistoryModalModule_imports</title>
<polygon fill="none" stroke="black" points="240,-40.8 240,-92.8 422,-92.8 422,-40.8 240,-40.8"/>
</g>
<g id="clust2" class="cluster">
<title>cluster_SafeRecordHistoryModalModule_declarations</title>
<polygon fill="none" stroke="black" points="16,-40.8 16,-92.8 232,-92.8 232,-40.8 16,-40.8"/>
</g>
<g id="clust5" class="cluster">
<title>cluster_SafeRecordHistoryModalModule_exports</title>
<polygon fill="none" stroke="black" points="109,-170.8 109,-222.8 329,-222.8 329,-170.8 109,-170.8"/>
</g>
<!-- RecordHistoryModalComponent -->
<g id="node1" class="node">
<title>RecordHistoryModalComponent</title>
<polygon fill="#ffffb3" stroke="black" points="224.31,-84.8 23.69,-84.8 23.69,-48.8 224.31,-48.8 224.31,-84.8"/>
<text text-anchor="middle" x="124" y="-62.6" font-family="Times,serif" font-size="14.00">RecordHistoryModalComponent</text>
</g>
<!-- SafeRecordHistoryModalModule -->
<g id="node2" class="node">
<title>SafeRecordHistoryModalModule</title>
<polygon fill="#8dd3c7" stroke="black" points="320.91,-149.8 317.91,-153.8 296.91,-153.8 293.91,-149.8 117.09,-149.8 117.09,-113.8 320.91,-113.8 320.91,-149.8"/>
<text text-anchor="middle" x="219" y="-127.6" font-family="Times,serif" font-size="14.00">SafeRecordHistoryModalModule</text>
</g>
<!-- RecordHistoryModalComponent&#45;&gt;SafeRecordHistoryModalModule -->
<g id="edge1" class="edge">
<title>RecordHistoryModalComponent&#45;&gt;SafeRecordHistoryModalModule</title>
<path fill="none" stroke="black" d="M170.73,-84.91C170.73,-84.91 170.73,-103.79 170.73,-103.79"/>
<polygon fill="black" stroke="black" points="167.23,-103.79 170.73,-113.79 174.23,-103.79 167.23,-103.79"/>
</g>
<!-- RecordHistoryModalComponent  -->
<g id="node4" class="node">
<title>RecordHistoryModalComponent </title>
<polygon fill="#fb8072" stroke="black" points="320.81,-214.8 117.19,-214.8 117.19,-178.8 320.81,-178.8 320.81,-214.8"/>
<text text-anchor="middle" x="219" y="-192.6" font-family="Times,serif" font-size="14.00">RecordHistoryModalComponent </text>
</g>
<!-- SafeRecordHistoryModalModule&#45;&gt;RecordHistoryModalComponent  -->
<g id="edge3" class="edge">
<title>SafeRecordHistoryModalModule&#45;&gt;RecordHistoryModalComponent </title>
<path fill="none" stroke="black" stroke-dasharray="5,2" d="M219,-149.91C219,-149.91 219,-168.79 219,-168.79"/>
<polygon fill="black" stroke="black" points="215.5,-168.79 219,-178.79 222.5,-168.79 215.5,-168.79"/>
</g>
<!-- SafeRecordHistoryModule -->
<g id="node3" class="node">
<title>SafeRecordHistoryModule</title>
<polygon fill="#8dd3c7" stroke="black" points="414.36,-84.8 411.36,-88.8 390.36,-88.8 387.36,-84.8 247.64,-84.8 247.64,-48.8 414.36,-48.8 414.36,-84.8"/>
<text text-anchor="middle" x="331" y="-62.6" font-family="Times,serif" font-size="14.00">SafeRecordHistoryModule</text>
</g>
<!-- SafeRecordHistoryModule&#45;&gt;SafeRecordHistoryModalModule -->
<g id="edge2" class="edge">
<title>SafeRecordHistoryModule&#45;&gt;SafeRecordHistoryModalModule</title>
<path fill="none" stroke="black" d="M284.14,-84.91C284.14,-84.91 284.14,-103.79 284.14,-103.79"/>
<polygon fill="black" stroke="black" points="280.64,-103.79 284.14,-113.79 287.64,-103.79 280.64,-103.79"/>
</g>
</g>
</svg>
