<?xml version="1.0" encoding="UTF-8" standalone="no"?>
<!DOCTYPE svg PUBLIC "-//W3C//DTD SVG 1.1//EN"
 "http://www.w3.org/Graphics/SVG/1.1/DTD/svg11.dtd">
<!-- Generated by graphviz version 3.0.0 (20220226.1711)
 -->
<!-- Title: dependencies Pages: 1 -->
<svg width="975pt" height="247pt"
 viewBox="0.00 0.00 975.00 246.80" xmlns="http://www.w3.org/2000/svg" xmlns:xlink="http://www.w3.org/1999/xlink">
<g id="graph0" class="graph" transform="scale(1 1) rotate(0) translate(4 242.8)">
<title>dependencies</title>
<polygon fill="white" stroke="transparent" points="-4,4 -4,-242.8 971,-242.8 971,4 -4,4"/>
<text text-anchor="middle" x="483.5" y="-8.2" font-family="sans-serif" font-size="14.00">dependencies</text>
<g id="clust1" class="cluster">
<title>cluster_AddAggregationModalModule</title>
<polygon fill="none" stroke="black" stroke-dasharray="1,5" points="8,-32.8 8,-230.8 959,-230.8 959,-32.8 8,-32.8"/>
</g>
<g id="clust2" class="cluster">
<title>cluster_AddAggregationModalModule_declarations</title>
<polygon fill="none" stroke="black" points="723,-40.8 723,-92.8 951,-92.8 951,-40.8 723,-40.8"/>
</g>
<g id="clust4" class="cluster">
<title>cluster_AddAggregationModalModule_imports</title>
<polygon fill="none" stroke="black" points="16,-40.8 16,-92.8 715,-92.8 715,-40.8 16,-40.8"/>
</g>
<g id="clust5" class="cluster">
<title>cluster_AddAggregationModalModule_exports</title>
<polygon fill="none" stroke="black" points="344,-170.8 344,-222.8 576,-222.8 576,-170.8 344,-170.8"/>
</g>
<!-- AddAggregationModalComponent -->
<g id="node1" class="node">
<title>AddAggregationModalComponent</title>
<polygon fill="#ffffb3" stroke="black" points="942.97,-84.8 731.03,-84.8 731.03,-48.8 942.97,-48.8 942.97,-84.8"/>
<text text-anchor="middle" x="837" y="-62.6" font-family="Times,serif" font-size="14.00">AddAggregationModalComponent</text>
</g>
<!-- AddAggregationModalModule -->
<g id="node2" class="node">
<title>AddAggregationModalModule</title>
<polygon fill="#8dd3c7" stroke="black" points="555.19,-149.8 552.19,-153.8 531.19,-153.8 528.19,-149.8 364.81,-149.8 364.81,-113.8 555.19,-113.8 555.19,-149.8"/>
<text text-anchor="middle" x="460" y="-127.6" font-family="Times,serif" font-size="14.00">AddAggregationModalModule</text>
</g>
<!-- AddAggregationModalComponent&#45;&gt;AddAggregationModalModule -->
<g id="edge1" class="edge">
<title>AddAggregationModalComponent&#45;&gt;AddAggregationModalModule</title>
<path fill="none" stroke="black" d="M837,-85.08C837,-106.12 837,-137.8 837,-137.8 837,-137.8 565.13,-137.8 565.13,-137.8"/>
<polygon fill="black" stroke="black" points="565.13,-134.3 555.13,-137.8 565.13,-141.3 565.13,-134.3"/>
</g>
<!-- AddAggregationModalComponent  -->
<g id="node7" class="node">
<title>AddAggregationModalComponent </title>
<polygon fill="#fb8072" stroke="black" points="567.97,-214.8 352.03,-214.8 352.03,-178.8 567.97,-178.8 567.97,-214.8"/>
<text text-anchor="middle" x="460" y="-192.6" font-family="Times,serif" font-size="14.00">AddAggregationModalComponent </text>
</g>
<!-- AddAggregationModalModule&#45;&gt;AddAggregationModalComponent  -->
<g id="edge6" class="edge">
<title>AddAggregationModalModule&#45;&gt;AddAggregationModalComponent </title>
<path fill="none" stroke="black" stroke-dasharray="5,2" d="M460,-149.91C460,-149.91 460,-168.79 460,-168.79"/>
<polygon fill="black" stroke="black" points="456.5,-168.79 460,-178.79 463.5,-168.79 456.5,-168.79"/>
</g>
<!-- SafeButtonModule -->
<g id="node3" class="node">
<title>SafeButtonModule</title>
<polygon fill="#8dd3c7" stroke="black" points="707.05,-84.8 704.05,-88.8 683.05,-88.8 680.05,-84.8 584.95,-84.8 584.95,-48.8 707.05,-48.8 707.05,-84.8"/>
<text text-anchor="middle" x="646" y="-62.6" font-family="Times,serif" font-size="14.00">SafeButtonModule</text>
</g>
<!-- SafeButtonModule&#45;&gt;AddAggregationModalModule -->
<g id="edge2" class="edge">
<title>SafeButtonModule&#45;&gt;AddAggregationModalModule</title>
<path fill="none" stroke="black" d="M646,-84.82C646,-102.17 646,-125.8 646,-125.8 646,-125.8 565.18,-125.8 565.18,-125.8"/>
<polygon fill="black" stroke="black" points="565.18,-122.3 555.18,-125.8 565.18,-129.3 565.18,-122.3"/>
</g>
<!-- SafeEditAggregationModalModule -->
<g id="node4" class="node">
<title>SafeEditAggregationModalModule</title>
<polygon fill="#8dd3c7" stroke="black" points="567.29,-84.8 564.29,-88.8 543.29,-88.8 540.29,-84.8 352.71,-84.8 352.71,-48.8 567.29,-48.8 567.29,-84.8"/>
<text text-anchor="middle" x="460" y="-62.6" font-family="Times,serif" font-size="14.00">SafeEditAggregationModalModule</text>
</g>
<!-- SafeEditAggregationModalModule&#45;&gt;AddAggregationModalModule -->
<g id="edge3" class="edge">
<title>SafeEditAggregationModalModule&#45;&gt;AddAggregationModalModule</title>
<path fill="none" stroke="black" d="M460,-84.91C460,-84.91 460,-103.79 460,-103.79"/>
<polygon fill="black" stroke="black" points="456.5,-103.79 460,-113.79 463.5,-103.79 456.5,-103.79"/>
</g>
<!-- SafeGraphQLSelectModule -->
<g id="node5" class="node">
<title>SafeGraphQLSelectModule</title>
<polygon fill="#8dd3c7" stroke="black" points="335.28,-84.8 332.28,-88.8 311.28,-88.8 308.28,-84.8 162.72,-84.8 162.72,-48.8 335.28,-48.8 335.28,-84.8"/>
<text text-anchor="middle" x="249" y="-62.6" font-family="Times,serif" font-size="14.00">SafeGraphQLSelectModule</text>
</g>
<!-- SafeGraphQLSelectModule&#45;&gt;AddAggregationModalModule -->
<g id="edge4" class="edge">
<title>SafeGraphQLSelectModule&#45;&gt;AddAggregationModalModule</title>
<path fill="none" stroke="black" d="M249,-84.82C249,-102.17 249,-125.8 249,-125.8 249,-125.8 354.69,-125.8 354.69,-125.8"/>
<polygon fill="black" stroke="black" points="354.69,-129.3 364.69,-125.8 354.69,-122.3 354.69,-129.3"/>
</g>
<!-- SafeModalModule -->
<g id="node6" class="node">
<title>SafeModalModule</title>
<polygon fill="#8dd3c7" stroke="black" points="144.48,-84.8 141.48,-88.8 120.48,-88.8 117.48,-84.8 23.52,-84.8 23.52,-48.8 144.48,-48.8 144.48,-84.8"/>
<text text-anchor="middle" x="84" y="-62.6" font-family="Times,serif" font-size="14.00">SafeModalModule</text>
</g>
<!-- SafeModalModule&#45;&gt;AddAggregationModalModule -->
<g id="edge5" class="edge">
<title>SafeModalModule&#45;&gt;AddAggregationModalModule</title>
<path fill="none" stroke="black" d="M84,-85.08C84,-106.12 84,-137.8 84,-137.8 84,-137.8 354.63,-137.8 354.63,-137.8"/>
<polygon fill="black" stroke="black" points="354.63,-141.3 364.63,-137.8 354.63,-134.3 354.63,-141.3"/>
</g>
</g>
</svg>
