<?xml version="1.0" encoding="UTF-8" standalone="no"?>
<!DOCTYPE svg PUBLIC "-//W3C//DTD SVG 1.1//EN"
 "http://www.w3.org/Graphics/SVG/1.1/DTD/svg11.dtd">
<!-- Generated by graphviz version 3.0.0 (20220226.1711)
 -->
<!-- Title: dependencies Pages: 1 -->
<svg width="390pt" height="247pt"
 viewBox="0.00 0.00 390.00 246.80" xmlns="http://www.w3.org/2000/svg" xmlns:xlink="http://www.w3.org/1999/xlink">
<g id="graph0" class="graph" transform="scale(1 1) rotate(0) translate(4 242.8)">
<title>dependencies</title>
<polygon fill="white" stroke="transparent" points="-4,4 -4,-242.8 386,-242.8 386,4 -4,4"/>
<text text-anchor="middle" x="191" y="-8.2" font-family="sans-serif" font-size="14.00">dependencies</text>
<g id="clust1" class="cluster">
<title>cluster_SafeWidgetChoiceModule</title>
<polygon fill="none" stroke="black" stroke-dasharray="1,5" points="8,-32.8 8,-230.8 374,-230.8 374,-32.8 8,-32.8"/>
</g>
<g id="clust2" class="cluster">
<title>cluster_SafeWidgetChoiceModule_declarations</title>
<polygon fill="none" stroke="black" points="162,-40.8 162,-92.8 366,-92.8 366,-40.8 162,-40.8"/>
</g>
<g id="clust4" class="cluster">
<title>cluster_SafeWidgetChoiceModule_imports</title>
<polygon fill="none" stroke="black" points="16,-40.8 16,-92.8 154,-92.8 154,-40.8 16,-40.8"/>
</g>
<g id="clust5" class="cluster">
<title>cluster_SafeWidgetChoiceModule_exports</title>
<polygon fill="none" stroke="black" points="88,-170.8 88,-222.8 294,-222.8 294,-170.8 88,-170.8"/>
</g>
<!-- SafeWidgetChoiceComponent -->
<g id="node1" class="node">
<title>SafeWidgetChoiceComponent</title>
<polygon fill="#ffffb3" stroke="black" points="357.57,-84.8 170.43,-84.8 170.43,-48.8 357.57,-48.8 357.57,-84.8"/>
<text text-anchor="middle" x="264" y="-62.6" font-family="Times,serif" font-size="14.00">SafeWidgetChoiceComponent</text>
</g>
<!-- SafeWidgetChoiceModule -->
<g id="node2" class="node">
<title>SafeWidgetChoiceModule</title>
<polygon fill="#8dd3c7" stroke="black" points="273.79,-149.8 270.79,-153.8 249.79,-153.8 246.79,-149.8 108.21,-149.8 108.21,-113.8 273.79,-113.8 273.79,-149.8"/>
<text text-anchor="middle" x="191" y="-127.6" font-family="Times,serif" font-size="14.00">SafeWidgetChoiceModule</text>
</g>
<!-- SafeWidgetChoiceComponent&#45;&gt;SafeWidgetChoiceModule -->
<g id="edge1" class="edge">
<title>SafeWidgetChoiceComponent&#45;&gt;SafeWidgetChoiceModule</title>
<path fill="none" stroke="black" d="M222.06,-84.91C222.06,-84.91 222.06,-103.79 222.06,-103.79"/>
<polygon fill="black" stroke="black" points="218.56,-103.79 222.06,-113.79 225.56,-103.79 218.56,-103.79"/>
</g>
<!-- SafeWidgetChoiceComponent  -->
<g id="node4" class="node">
<title>SafeWidgetChoiceComponent </title>
<polygon fill="#fb8072" stroke="black" points="286.07,-214.8 95.93,-214.8 95.93,-178.8 286.07,-178.8 286.07,-214.8"/>
<text text-anchor="middle" x="191" y="-192.6" font-family="Times,serif" font-size="14.00">SafeWidgetChoiceComponent </text>
</g>
<!-- SafeWidgetChoiceModule&#45;&gt;SafeWidgetChoiceComponent  -->
<g id="edge3" class="edge">
<title>SafeWidgetChoiceModule&#45;&gt;SafeWidgetChoiceComponent </title>
<path fill="none" stroke="black" stroke-dasharray="5,2" d="M191,-149.91C191,-149.91 191,-168.79 191,-168.79"/>
<polygon fill="black" stroke="black" points="187.5,-168.79 191,-178.79 194.5,-168.79 187.5,-168.79"/>
</g>
<!-- SafeButtonModule -->
<g id="node3" class="node">
<title>SafeButtonModule</title>
<polygon fill="#8dd3c7" stroke="black" points="146.05,-84.8 143.05,-88.8 122.05,-88.8 119.05,-84.8 23.95,-84.8 23.95,-48.8 146.05,-48.8 146.05,-84.8"/>
<text text-anchor="middle" x="85" y="-62.6" font-family="Times,serif" font-size="14.00">SafeButtonModule</text>
</g>
<!-- SafeButtonModule&#45;&gt;SafeWidgetChoiceModule -->
<g id="edge2" class="edge">
<title>SafeButtonModule&#45;&gt;SafeWidgetChoiceModule</title>
<path fill="none" stroke="black" d="M127.31,-84.91C127.31,-84.91 127.31,-103.79 127.31,-103.79"/>
<polygon fill="black" stroke="black" points="123.81,-103.79 127.31,-113.79 130.81,-103.79 123.81,-103.79"/>
</g>
</g>
</svg>
