<?xml version="1.0" encoding="UTF-8" standalone="no"?>
<!DOCTYPE svg PUBLIC "-//W3C//DTD SVG 1.1//EN"
 "http://www.w3.org/Graphics/SVG/1.1/DTD/svg11.dtd">
<!-- Generated by graphviz version 3.0.0 (20220226.1711)
 -->
<!-- Title: dependencies Pages: 1 -->
<svg width="738pt" height="174pt"
 viewBox="0.00 0.00 738.00 173.80" xmlns="http://www.w3.org/2000/svg" xmlns:xlink="http://www.w3.org/1999/xlink">
<g id="graph0" class="graph" transform="scale(1 1) rotate(0) translate(4 169.8)">
<title>dependencies</title>
<polygon fill="white" stroke="transparent" points="-4,4 -4,-169.8 734,-169.8 734,4 -4,4"/>
<text text-anchor="middle" x="365" y="-8.2" font-family="sans-serif" font-size="14.00">dependencies</text>
<g id="clust1" class="cluster">
<title>cluster_SubscriptionsModule</title>
<polygon fill="none" stroke="black" stroke-dasharray="1,5" points="8,-32.8 8,-157.8 722,-157.8 722,-32.8 8,-32.8"/>
</g>
<g id="clust5" class="cluster">
<title>cluster_SubscriptionsModule_imports</title>
<polygon fill="none" stroke="black" points="404,-40.8 404,-92.8 714,-92.8 714,-40.8 404,-40.8"/>
</g>
<g id="clust2" class="cluster">
<title>cluster_SubscriptionsModule_declarations</title>
<polygon fill="none" stroke="black" points="16,-40.8 16,-92.8 396,-92.8 396,-40.8 16,-40.8"/>
</g>
<!-- SubscriptionModalComponent -->
<g id="node1" class="node">
<title>SubscriptionModalComponent</title>
<polygon fill="#ffffb3" stroke="black" points="388.16,-84.8 199.84,-84.8 199.84,-48.8 388.16,-48.8 388.16,-84.8"/>
<text text-anchor="middle" x="294" y="-62.6" font-family="Times,serif" font-size="14.00">SubscriptionModalComponent</text>
</g>
<!-- SubscriptionsModule -->
<g id="node3" class="node">
<title>SubscriptionsModule</title>
<polygon fill="#8dd3c7" stroke="black" points="465.78,-149.8 462.78,-153.8 441.78,-153.8 438.78,-149.8 330.22,-149.8 330.22,-113.8 465.78,-113.8 465.78,-149.8"/>
<text text-anchor="middle" x="398" y="-127.6" font-family="Times,serif" font-size="14.00">SubscriptionsModule</text>
</g>
<!-- SubscriptionModalComponent&#45;&gt;SubscriptionsModule -->
<g id="edge1" class="edge">
<title>SubscriptionModalComponent&#45;&gt;SubscriptionsModule</title>
<path fill="none" stroke="black" d="M359.22,-84.91C359.22,-84.91 359.22,-103.79 359.22,-103.79"/>
<polygon fill="black" stroke="black" points="355.72,-103.79 359.22,-113.79 362.72,-103.79 355.72,-103.79"/>
</g>
<!-- SubscriptionsComponent -->
<g id="node2" class="node">
<title>SubscriptionsComponent</title>
<polygon fill="#ffffb3" stroke="black" points="181.56,-84.8 24.44,-84.8 24.44,-48.8 181.56,-48.8 181.56,-84.8"/>
<text text-anchor="middle" x="103" y="-62.6" font-family="Times,serif" font-size="14.00">SubscriptionsComponent</text>
</g>
<!-- SubscriptionsComponent&#45;&gt;SubscriptionsModule -->
<g id="edge2" class="edge">
<title>SubscriptionsComponent&#45;&gt;SubscriptionsModule</title>
<path fill="none" stroke="black" d="M103,-84.91C103,-104.14 103,-131.8 103,-131.8 103,-131.8 319.95,-131.8 319.95,-131.8"/>
<polygon fill="black" stroke="black" points="319.95,-135.3 329.95,-131.8 319.95,-128.3 319.95,-135.3"/>
</g>
<!-- FormsModule -->
<g id="node4" class="node">
<title>FormsModule</title>
<polygon fill="#8dd3c7" stroke="black" points="705.84,-84.8 702.84,-88.8 681.84,-88.8 678.84,-84.8 610.16,-84.8 610.16,-48.8 705.84,-48.8 705.84,-84.8"/>
<text text-anchor="middle" x="658" y="-62.6" font-family="Times,serif" font-size="14.00">FormsModule</text>
</g>
<!-- FormsModule&#45;&gt;SubscriptionsModule -->
<g id="edge3" class="edge">
<title>FormsModule&#45;&gt;SubscriptionsModule</title>
<path fill="none" stroke="black" d="M658,-84.91C658,-104.14 658,-131.8 658,-131.8 658,-131.8 475.97,-131.8 475.97,-131.8"/>
<polygon fill="black" stroke="black" points="475.97,-128.3 465.97,-131.8 475.97,-135.3 475.97,-128.3"/>
</g>
<!-- SubscriptionsRoutingModule -->
<g id="node5" class="node">
<title>SubscriptionsRoutingModule</title>
<polygon fill="#8dd3c7" stroke="black" points="592.4,-84.8 589.4,-88.8 568.4,-88.8 565.4,-84.8 411.6,-84.8 411.6,-48.8 592.4,-48.8 592.4,-84.8"/>
<text text-anchor="middle" x="502" y="-62.6" font-family="Times,serif" font-size="14.00">SubscriptionsRoutingModule</text>
</g>
<!-- SubscriptionsRoutingModule&#45;&gt;SubscriptionsModule -->
<g id="edge4" class="edge">
<title>SubscriptionsRoutingModule&#45;&gt;SubscriptionsModule</title>
<path fill="none" stroke="black" d="M438.72,-84.91C438.72,-84.91 438.72,-103.79 438.72,-103.79"/>
<polygon fill="black" stroke="black" points="435.22,-103.79 438.72,-113.79 442.22,-103.79 435.22,-103.79"/>
</g>
</g>
</svg>
