<?xml version="1.0" encoding="UTF-8" standalone="no"?>
<!DOCTYPE svg PUBLIC "-//W3C//DTD SVG 1.1//EN"
 "http://www.w3.org/Graphics/SVG/1.1/DTD/svg11.dtd">
<!-- Generated by graphviz version 2.47.0 (20210316.0004)
 -->
<!-- Title: dependencies Pages: 1 -->
<svg width="536pt" height="284pt"
 viewBox="0.00 0.00 536.00 284.00" xmlns="http://www.w3.org/2000/svg" xmlns:xlink="http://www.w3.org/1999/xlink">
<g id="graph0" class="graph" transform="scale(1 1) rotate(0) translate(4 280)">
<title>dependencies</title>
<polygon fill="white" stroke="transparent" points="-4,4 -4,-280 532,-280 532,4 -4,4"/>
<text text-anchor="start" x="243.01" y="-42.4" font-family="sans-serif" font-weight="bold" font-size="14.00">Legend</text>
<polygon fill="#ffffb3" stroke="transparent" points="30,-10 30,-30 50,-30 50,-10 30,-10"/>
<text text-anchor="start" x="53.63" y="-15.4" font-family="sans-serif" font-size="14.00"> &#160;Declarations</text>
<polygon fill="#8dd3c7" stroke="transparent" points="143,-10 143,-30 163,-30 163,-10 143,-10"/>
<text text-anchor="start" x="166.73" y="-15.4" font-family="sans-serif" font-size="14.00"> &#160;Module</text>
<polygon fill="#80b1d3" stroke="transparent" points="229,-10 229,-30 249,-30 249,-10 229,-10"/>
<text text-anchor="start" x="252.78" y="-15.4" font-family="sans-serif" font-size="14.00"> &#160;Bootstrap</text>
<polygon fill="#fdb462" stroke="transparent" points="326,-10 326,-30 346,-30 346,-10 326,-10"/>
<text text-anchor="start" x="349.67" y="-15.4" font-family="sans-serif" font-size="14.00"> &#160;Providers</text>
<polygon fill="#fb8072" stroke="transparent" points="422,-10 422,-30 442,-30 442,-10 422,-10"/>
<text text-anchor="start" x="445.73" y="-15.4" font-family="sans-serif" font-size="14.00"> &#160;Exports</text>
<g id="clust1" class="cluster">
<title>cluster_SafeAccessModule</title>
<polygon fill="none" stroke="black" stroke-dasharray="1,5" points="8,-70 8,-268 520,-268 520,-70 8,-70"/>
</g>
<g id="clust2" class="cluster">
<title>cluster_SafeAccessModule_declarations</title>
<polygon fill="none" stroke="black" points="162,-78 162,-130 512,-130 512,-78 162,-78"/>
</g>
<g id="clust5" class="cluster">
<title>cluster_SafeAccessModule_imports</title>
<polygon fill="none" stroke="black" points="16,-78 16,-130 154,-130 154,-78 16,-78"/>
</g>
<g id="clust6" class="cluster">
<title>cluster_SafeAccessModule_exports</title>
<polygon fill="none" stroke="black" points="172,-208 172,-260 338,-260 338,-208 172,-208"/>
</g>
<!-- SafeAccessComponent -->
<g id="node1" class="node">
<title>SafeAccessComponent</title>
<polygon fill="#ffffb3" stroke="black" points="503.84,-122 358.16,-122 358.16,-86 503.84,-86 503.84,-122"/>
<text text-anchor="middle" x="431" y="-99.8" font-family="Times,serif" font-size="14.00">SafeAccessComponent</text>
</g>
<!-- SafeAccessModule -->
<g id="node3" class="node">
<title>SafeAccessModule</title>
<polygon fill="#8dd3c7" stroke="black" points="317.06,-187 314.06,-191 293.06,-191 290.06,-187 192.94,-187 192.94,-151 317.06,-151 317.06,-187"/>
<text text-anchor="middle" x="255" y="-164.8" font-family="Times,serif" font-size="14.00">SafeAccessModule</text>
</g>
<!-- SafeAccessComponent&#45;&gt;SafeAccessModule -->
<g id="edge1" class="edge">
<title>SafeAccessComponent&#45;&gt;SafeAccessModule</title>
<path fill="none" stroke="black" d="M431,-122.11C431,-141.34 431,-169 431,-169 431,-169 327.05,-169 327.05,-169"/>
<polygon fill="black" stroke="black" points="327.05,-165.5 317.05,-169 327.05,-172.5 327.05,-165.5"/>
</g>
<!-- SafeEditAccessComponent -->
<g id="node2" class="node">
<title>SafeEditAccessComponent</title>
<polygon fill="#ffffb3" stroke="black" points="339.68,-122 170.32,-122 170.32,-86 339.68,-86 339.68,-122"/>
<text text-anchor="middle" x="255" y="-99.8" font-family="Times,serif" font-size="14.00">SafeEditAccessComponent</text>
</g>
<!-- SafeEditAccessComponent&#45;&gt;SafeAccessModule -->
<g id="edge2" class="edge">
<title>SafeEditAccessComponent&#45;&gt;SafeAccessModule</title>
<path fill="none" stroke="black" d="M255,-122.11C255,-122.11 255,-140.99 255,-140.99"/>
<polygon fill="black" stroke="black" points="251.5,-140.99 255,-150.99 258.5,-140.99 251.5,-140.99"/>
</g>
<!-- SafeAccessComponent  -->
<g id="node5" class="node">
<title>SafeAccessComponent </title>
<polygon fill="#fb8072" stroke="black" points="329.84,-252 180.16,-252 180.16,-216 329.84,-216 329.84,-252"/>
<text text-anchor="middle" x="255" y="-229.8" font-family="Times,serif" font-size="14.00">SafeAccessComponent </text>
</g>
<!-- SafeAccessModule&#45;&gt;SafeAccessComponent  -->
<g id="edge4" class="edge">
<title>SafeAccessModule&#45;&gt;SafeAccessComponent </title>
<path fill="none" stroke="black" stroke-dasharray="5,2" d="M255,-187.11C255,-187.11 255,-205.99 255,-205.99"/>
<polygon fill="black" stroke="black" points="251.5,-205.99 255,-215.99 258.5,-205.99 251.5,-205.99"/>
</g>
<!-- SafeButtonModule -->
<g id="node4" class="node">
<title>SafeButtonModule</title>
<polygon fill="#8dd3c7" stroke="black" points="146.04,-122 143.04,-126 122.04,-126 119.04,-122 23.96,-122 23.96,-86 146.04,-86 146.04,-122"/>
<text text-anchor="middle" x="85" y="-99.8" font-family="Times,serif" font-size="14.00">SafeButtonModule</text>
</g>
<!-- SafeButtonModule&#45;&gt;SafeAccessModule -->
<g id="edge3" class="edge">
<title>SafeButtonModule&#45;&gt;SafeAccessModule</title>
<path fill="none" stroke="black" d="M85,-122.11C85,-141.34 85,-169 85,-169 85,-169 182.66,-169 182.66,-169"/>
<polygon fill="black" stroke="black" points="182.66,-172.5 192.66,-169 182.66,-165.5 182.66,-172.5"/>
</g>
</g>
</svg>
