<?xml version="1.0" encoding="UTF-8" standalone="no"?>
<!DOCTYPE svg PUBLIC "-//W3C//DTD SVG 1.1//EN"
 "http://www.w3.org/Graphics/SVG/1.1/DTD/svg11.dtd">
<!-- Generated by graphviz version 3.0.0 (20220226.1711)
 -->
<!-- Title: dependencies Pages: 1 -->
<svg width="2503pt" height="358pt"
 viewBox="0.00 0.00 2503.00 358.39" xmlns="http://www.w3.org/2000/svg" xmlns:xlink="http://www.w3.org/1999/xlink">
<g id="graph0" class="graph" transform="scale(1 1) rotate(0) translate(4 354.39)">
<title>dependencies</title>
<polygon fill="white" stroke="transparent" points="-4,4 -4,-354.39 2499,-354.39 2499,4 -4,4"/>
<text text-anchor="middle" x="1247.5" y="-8.2" font-family="sans-serif" font-size="14.00">dependencies</text>
<g id="clust1" class="cluster">
<title>cluster_SafeChartSettingsModule</title>
<polygon fill="none" stroke="black" stroke-dasharray="1,5" points="8,-32.8 8,-342.39 2487,-342.39 2487,-32.8 8,-32.8"/>
</g>
<g id="clust3" class="cluster">
<title>cluster_SafeChartSettingsModule_SafeChartSettingsComponent_providers</title>
<polygon fill="none" stroke="black" points="945,-40.8 945,-204.39 2479,-204.39 2479,-40.8 945,-40.8"/>
</g>
<g id="clust4" class="cluster">
<title>cluster_SafeChartSettingsModule_imports</title>
<polygon fill="none" stroke="black" points="16,-152.39 16,-204.39 937,-204.39 937,-152.39 16,-152.39"/>
</g>
<g id="clust5" class="cluster">
<title>cluster_SafeChartSettingsModule_exports</title>
<polygon fill="none" stroke="black" points="416,-282.39 416,-334.39 618,-334.39 618,-282.39 416,-282.39"/>
</g>
<!-- SafeChartSettingsComponent -->
<g id="node1" class="node">
<title>SafeChartSettingsComponent</title>
<polygon fill="#ffffb3" stroke="black" points="1356.43,-196.39 1173.57,-196.39 1173.57,-160.39 1356.43,-160.39 1356.43,-196.39"/>
<text text-anchor="middle" x="1265" y="-174.19" font-family="Times,serif" font-size="14.00">SafeChartSettingsComponent</text>
</g>
<!-- SafeChartSettingsModule -->
<g id="node2" class="node">
<title>SafeChartSettingsModule</title>
<polygon fill="#8dd3c7" stroke="black" points="597.15,-261.39 594.15,-265.39 573.15,-265.39 570.15,-261.39 436.85,-261.39 436.85,-225.39 597.15,-225.39 597.15,-261.39"/>
<text text-anchor="middle" x="517" y="-239.19" font-family="Times,serif" font-size="14.00">SafeChartSettingsModule</text>
</g>
<!-- SafeChartSettingsComponent&#45;&gt;SafeChartSettingsModule -->
<g id="edge1" class="edge">
<title>SafeChartSettingsComponent&#45;&gt;SafeChartSettingsModule</title>
<path fill="none" stroke="black" d="M1265,-196.68C1265,-218.6 1265,-252.39 1265,-252.39 1265,-252.39 607.4,-252.39 607.4,-252.39"/>
<polygon fill="black" stroke="black" points="607.4,-248.89 597.4,-252.39 607.4,-255.89 607.4,-248.89"/>
</g>
<!-- SafeChartSettingsComponent  -->
<g id="node11" class="node">
<title>SafeChartSettingsComponent </title>
<polygon fill="#fb8072" stroke="black" points="609.93,-326.39 424.07,-326.39 424.07,-290.39 609.93,-290.39 609.93,-326.39"/>
<text text-anchor="middle" x="517" y="-304.19" font-family="Times,serif" font-size="14.00">SafeChartSettingsComponent </text>
</g>
<!-- SafeChartSettingsModule&#45;&gt;SafeChartSettingsComponent  -->
<g id="edge10" class="edge">
<title>SafeChartSettingsModule&#45;&gt;SafeChartSettingsComponent </title>
<path fill="none" stroke="black" stroke-dasharray="5,2" d="M517,-261.5C517,-261.5 517,-280.38 517,-280.38"/>
<polygon fill="black" stroke="black" points="513.5,-280.38 517,-290.38 520.5,-280.38 513.5,-280.38"/>
</g>
<!-- {
 &#160;&#160;&#160;provide: MAT_AUTOCOMPLETE_SCROLL_STRATEGY, useFactory: scrollFactory, deps: [Overlay],
} -->
<g id="node3" class="node">
<title>{
 &#160;&#160;&#160;provide: MAT_AUTOCOMPLETE_SCROLL_STRATEGY, useFactory: scrollFactory, deps: [Overlay],
}</title>
<ellipse fill="#fdb462" stroke="black" cx="2033" cy="-90.1" rx="438.07" ry="41.09"/>
<text text-anchor="middle" x="2033" y="-102.7" font-family="Times,serif" font-size="14.00">{</text>
<text text-anchor="middle" x="2033" y="-85.9" font-family="Times,serif" font-size="14.00"> &#160;&#160;&#160;provide: MAT_AUTOCOMPLETE_SCROLL_STRATEGY, useFactory: scrollFactory, deps: [Overlay],</text>
<text text-anchor="middle" x="2033" y="-69.1" font-family="Times,serif" font-size="14.00">}</text>
</g>
<!-- {
 &#160;&#160;&#160;provide: MAT_AUTOCOMPLETE_SCROLL_STRATEGY, useFactory: scrollFactory, deps: [Overlay],
}&#45;&gt;SafeChartSettingsComponent -->
<g id="edge2" class="edge">
<title>{
 &#160;&#160;&#160;provide: MAT_AUTOCOMPLETE_SCROLL_STRATEGY, useFactory: scrollFactory, deps: [Overlay],
}&#45;&gt;SafeChartSettingsComponent</title>
<path fill="none" stroke="black" d="M1735.12,-120.39C1530.41,-120.39 1295.4,-120.39 1295.4,-120.39 1295.4,-120.39 1295.4,-150.36 1295.4,-150.36"/>
<polygon fill="black" stroke="black" points="1291.9,-150.36 1295.4,-160.36 1298.9,-150.36 1291.9,-150.36"/>
</g>
<!-- { provide: MAT_CHIPS_DEFAULT_OPTIONS, useFactory: codesFactory } -->
<g id="node4" class="node">
<title>{ provide: MAT_CHIPS_DEFAULT_OPTIONS, useFactory: codesFactory }</title>
<ellipse fill="#fdb462" stroke="black" cx="1265" cy="-90.1" rx="311.7" ry="18"/>
<text text-anchor="middle" x="1265" y="-85.9" font-family="Times,serif" font-size="14.00">{ provide: MAT_CHIPS_DEFAULT_OPTIONS, useFactory: codesFactory }</text>
</g>
<!-- { provide: MAT_CHIPS_DEFAULT_OPTIONS, useFactory: codesFactory }&#45;&gt;SafeChartSettingsComponent -->
<g id="edge3" class="edge">
<title>{ provide: MAT_CHIPS_DEFAULT_OPTIONS, useFactory: codesFactory }&#45;&gt;SafeChartSettingsComponent</title>
<path fill="none" stroke="black" d="M1234.6,-108.39C1234.6,-108.39 1234.6,-150.12 1234.6,-150.12"/>
<polygon fill="black" stroke="black" points="1231.1,-150.12 1234.6,-160.12 1238.1,-150.12 1231.1,-150.12"/>
</g>
<!-- SafeAggregationBuilderModule -->
<g id="node5" class="node">
<title>SafeAggregationBuilderModule</title>
<polygon fill="#8dd3c7" stroke="black" points="929.4,-196.39 926.4,-200.39 905.4,-200.39 902.4,-196.39 732.6,-196.39 732.6,-160.39 929.4,-160.39 929.4,-196.39"/>
<text text-anchor="middle" x="831" y="-174.19" font-family="Times,serif" font-size="14.00">SafeAggregationBuilderModule</text>
</g>
<!-- SafeAggregationBuilderModule&#45;&gt;SafeChartSettingsModule -->
<g id="edge4" class="edge">
<title>SafeAggregationBuilderModule&#45;&gt;SafeChartSettingsModule</title>
<path fill="none" stroke="black" d="M831,-196.5C831,-215.73 831,-243.39 831,-243.39 831,-243.39 607.46,-243.39 607.46,-243.39"/>
<polygon fill="black" stroke="black" points="607.46,-239.89 597.46,-243.39 607.46,-246.89 607.46,-239.89"/>
</g>
<!-- SafeButtonModule -->
<g id="node6" class="node">
<title>SafeButtonModule</title>
<polygon fill="#8dd3c7" stroke="black" points="715.05,-196.39 712.05,-200.39 691.05,-200.39 688.05,-196.39 592.95,-196.39 592.95,-160.39 715.05,-160.39 715.05,-196.39"/>
<text text-anchor="middle" x="654" y="-174.19" font-family="Times,serif" font-size="14.00">SafeButtonModule</text>
</g>
<!-- SafeButtonModule&#45;&gt;SafeChartSettingsModule -->
<g id="edge5" class="edge">
<title>SafeButtonModule&#45;&gt;SafeChartSettingsModule</title>
<path fill="none" stroke="black" d="M603.64,-196.42C603.64,-212.79 603.64,-234.39 603.64,-234.39 603.64,-234.39 603.02,-234.39 603.02,-234.39"/>
<polygon fill="black" stroke="black" points="607.41,-230.89 597.41,-234.39 607.41,-237.89 607.41,-230.89"/>
</g>
<!-- SafeChartModule -->
<g id="node7" class="node">
<title>SafeChartModule</title>
<polygon fill="#8dd3c7" stroke="black" points="574.53,-196.39 571.53,-200.39 550.53,-200.39 547.53,-196.39 459.47,-196.39 459.47,-160.39 574.53,-160.39 574.53,-196.39"/>
<text text-anchor="middle" x="517" y="-174.19" font-family="Times,serif" font-size="14.00">SafeChartModule</text>
</g>
<!-- SafeChartModule&#45;&gt;SafeChartSettingsModule -->
<g id="edge6" class="edge">
<title>SafeChartModule&#45;&gt;SafeChartSettingsModule</title>
<path fill="none" stroke="black" d="M517,-196.5C517,-196.5 517,-215.38 517,-215.38"/>
<polygon fill="black" stroke="black" points="513.5,-215.38 517,-225.38 520.5,-215.38 513.5,-215.38"/>
</g>
<!-- SafeGridModule -->
<g id="node8" class="node">
<title>SafeGridModule</title>
<polygon fill="#8dd3c7" stroke="black" points="441.09,-196.39 438.09,-200.39 417.09,-200.39 414.09,-196.39 330.91,-196.39 330.91,-160.39 441.09,-160.39 441.09,-196.39"/>
<text text-anchor="middle" x="386" y="-174.19" font-family="Times,serif" font-size="14.00">SafeGridModule</text>
</g>
<!-- SafeGridModule&#45;&gt;SafeChartSettingsModule -->
<g id="edge7" class="edge">
<title>SafeGridModule&#45;&gt;SafeChartSettingsModule</title>
<path fill="none" stroke="black" d="M430.36,-196.68C430.36,-218.6 430.36,-252.39 430.36,-252.39 430.36,-252.39 430.98,-252.39 430.98,-252.39"/>
<polygon fill="black" stroke="black" points="426.59,-255.89 436.59,-252.39 426.59,-248.89 426.59,-255.89"/>
</g>
<!-- SafeIconModule -->
<g id="node9" class="node">
<title>SafeIconModule</title>
<polygon fill="#8dd3c7" stroke="black" points="312.8,-196.39 309.8,-200.39 288.8,-200.39 285.8,-196.39 203.2,-196.39 203.2,-160.39 312.8,-160.39 312.8,-196.39"/>
<text text-anchor="middle" x="258" y="-174.19" font-family="Times,serif" font-size="14.00">SafeIconModule</text>
</g>
<!-- SafeIconModule&#45;&gt;SafeChartSettingsModule -->
<g id="edge8" class="edge">
<title>SafeIconModule&#45;&gt;SafeChartSettingsModule</title>
<path fill="none" stroke="black" d="M258,-196.42C258,-212.79 258,-234.39 258,-234.39 258,-234.39 426.82,-234.39 426.82,-234.39"/>
<polygon fill="black" stroke="black" points="426.82,-237.89 436.82,-234.39 426.82,-230.89 426.82,-237.89"/>
</g>
<!-- SafeQueryBuilderModule -->
<g id="node10" class="node">
<title>SafeQueryBuilderModule</title>
<polygon fill="#8dd3c7" stroke="black" points="185.91,-196.39 182.91,-200.39 161.91,-200.39 158.91,-196.39 24.09,-196.39 24.09,-160.39 185.91,-160.39 185.91,-196.39"/>
<text text-anchor="middle" x="105" y="-174.19" font-family="Times,serif" font-size="14.00">SafeQueryBuilderModule</text>
</g>
<!-- SafeQueryBuilderModule&#45;&gt;SafeChartSettingsModule -->
<g id="edge9" class="edge">
<title>SafeQueryBuilderModule&#45;&gt;SafeChartSettingsModule</title>
<path fill="none" stroke="black" d="M105,-196.5C105,-215.73 105,-243.39 105,-243.39 105,-243.39 426.58,-243.39 426.58,-243.39"/>
<polygon fill="black" stroke="black" points="426.58,-246.89 436.58,-243.39 426.58,-239.89 426.58,-246.89"/>
</g>
</g>
</svg>
