<?xml version="1.0" encoding="UTF-8" standalone="no"?>
<!DOCTYPE svg PUBLIC "-//W3C//DTD SVG 1.1//EN"
 "http://www.w3.org/Graphics/SVG/1.1/DTD/svg11.dtd">
<!-- Generated by graphviz version 3.0.0 (20220226.1711)
 -->
<!-- Title: dependencies Pages: 1 -->
<svg width="1574pt" height="358pt"
 viewBox="0.00 0.00 1574.00 358.39" xmlns="http://www.w3.org/2000/svg" xmlns:xlink="http://www.w3.org/1999/xlink">
<g id="graph0" class="graph" transform="scale(1 1) rotate(0) translate(4 354.39)">
<title>dependencies</title>
<polygon fill="white" stroke="transparent" points="-4,4 -4,-354.39 1570,-354.39 1570,4 -4,4"/>
<text text-anchor="middle" x="783" y="-8.2" font-family="sans-serif" font-size="14.00">dependencies</text>
<g id="clust1" class="cluster">
<title>cluster_SafeChartSettingsModule</title>
<polygon fill="none" stroke="black" stroke-dasharray="1,5" points="8,-32.8 8,-342.39 1558,-342.39 1558,-32.8 8,-32.8"/>
</g>
<g id="clust2" class="cluster">
<title>cluster_SafeChartSettingsModule_declarations</title>
<polygon fill="none" stroke="black" points="975,-152.39 975,-204.39 1173,-204.39 1173,-152.39 975,-152.39"/>
</g>
<g id="clust3" class="cluster">
<title>cluster_SafeChartSettingsModule_SafeChartSettingsComponent_providers</title>
<polygon fill="none" stroke="black" points="16,-40.8 16,-139.39 1550,-139.39 1550,-40.8 16,-40.8"/>
</g>
<g id="clust4" class="cluster">
<title>cluster_SafeChartSettingsModule_imports</title>
<polygon fill="none" stroke="black" points="46,-152.39 46,-204.39 967,-204.39 967,-152.39 46,-152.39"/>
</g>
<g id="clust5" class="cluster">
<title>cluster_SafeChartSettingsModule_exports</title>
<polygon fill="none" stroke="black" points="446,-282.39 446,-334.39 648,-334.39 648,-282.39 446,-282.39"/>
</g>
<!-- SafeChartSettingsComponent -->
<g id="node1" class="node">
<title>SafeChartSettingsComponent</title>
<polygon fill="#ffffb3" stroke="black" points="1165.43,-196.39 982.57,-196.39 982.57,-160.39 1165.43,-160.39 1165.43,-196.39"/>
<text text-anchor="middle" x="1074" y="-174.19" font-family="Times,serif" font-size="14.00">SafeChartSettingsComponent</text>
</g>
<!-- SafeChartSettingsModule -->
<g id="node2" class="node">
<title>SafeChartSettingsModule</title>
<polygon fill="#8dd3c7" stroke="black" points="627.15,-261.39 624.15,-265.39 603.15,-265.39 600.15,-261.39 466.85,-261.39 466.85,-225.39 627.15,-225.39 627.15,-261.39"/>
<text text-anchor="middle" x="547" y="-239.19" font-family="Times,serif" font-size="14.00">SafeChartSettingsModule</text>
</g>
<!-- SafeChartSettingsComponent&#45;&gt;SafeChartSettingsModule -->
<g id="edge1" class="edge">
<title>SafeChartSettingsComponent&#45;&gt;SafeChartSettingsModule</title>
<path fill="none" stroke="black" d="M1074,-196.68C1074,-218.6 1074,-252.39 1074,-252.39 1074,-252.39 637.33,-252.39 637.33,-252.39"/>
<polygon fill="black" stroke="black" points="637.33,-248.89 627.33,-252.39 637.33,-255.89 637.33,-248.89"/>
</g>
<!-- SafeChartSettingsComponent  -->
<g id="node11" class="node">
<title>SafeChartSettingsComponent </title>
<polygon fill="#fb8072" stroke="black" points="639.93,-326.39 454.07,-326.39 454.07,-290.39 639.93,-290.39 639.93,-326.39"/>
<text text-anchor="middle" x="547" y="-304.19" font-family="Times,serif" font-size="14.00">SafeChartSettingsComponent </text>
</g>
<!-- SafeChartSettingsModule&#45;&gt;SafeChartSettingsComponent  -->
<g id="edge10" class="edge">
<title>SafeChartSettingsModule&#45;&gt;SafeChartSettingsComponent </title>
<path fill="none" stroke="black" stroke-dasharray="5,2" d="M547,-261.5C547,-261.5 547,-280.38 547,-280.38"/>
<polygon fill="black" stroke="black" points="543.5,-280.38 547,-290.38 550.5,-280.38 543.5,-280.38"/>
</g>
<!-- {
 &#160;&#160;&#160;provide: MAT_AUTOCOMPLETE_SCROLL_STRATEGY, useFactory: scrollFactory, deps: [Overlay],
} -->
<g id="node3" class="node">
<title>{
 &#160;&#160;&#160;provide: MAT_AUTOCOMPLETE_SCROLL_STRATEGY, useFactory: scrollFactory, deps: [Overlay],
}</title>
<ellipse fill="#fdb462" stroke="black" cx="1104" cy="-90.1" rx="438.07" ry="41.09"/>
<text text-anchor="middle" x="1104" y="-102.7" font-family="Times,serif" font-size="14.00">{</text>
<text text-anchor="middle" x="1104" y="-85.9" font-family="Times,serif" font-size="14.00"> &#160;&#160;&#160;provide: MAT_AUTOCOMPLETE_SCROLL_STRATEGY, useFactory: scrollFactory, deps: [Overlay],</text>
<text text-anchor="middle" x="1104" y="-69.1" font-family="Times,serif" font-size="14.00">}</text>
</g>
<!-- {
 &#160;&#160;&#160;provide: MAT_AUTOCOMPLETE_SCROLL_STRATEGY, useFactory: scrollFactory, deps: [Overlay],
}&#45;&gt;SafeChartSettingsComponent -->
<g id="edge2" class="edge">
<title>{
 &#160;&#160;&#160;provide: MAT_AUTOCOMPLETE_SCROLL_STRATEGY, useFactory: scrollFactory, deps: [Overlay],
}&#45;&gt;SafeChartSettingsComponent</title>
<path fill="none" stroke="black" d="M1104.4,-131.4C1104.4,-131.4 1104.4,-150.06 1104.4,-150.06"/>
<polygon fill="black" stroke="black" points="1100.9,-150.06 1104.4,-160.06 1107.9,-150.06 1100.9,-150.06"/>
</g>
<!-- { provide: MAT_CHIPS_DEFAULT_OPTIONS, useFactory: codesFactory } -->
<g id="node4" class="node">
<title>{ provide: MAT_CHIPS_DEFAULT_OPTIONS, useFactory: codesFactory }</title>
<ellipse fill="#fdb462" stroke="black" cx="336" cy="-90.1" rx="311.7" ry="18"/>
<text text-anchor="middle" x="336" y="-85.9" font-family="Times,serif" font-size="14.00">{ provide: MAT_CHIPS_DEFAULT_OPTIONS, useFactory: codesFactory }</text>
</g>
<!-- { provide: MAT_CHIPS_DEFAULT_OPTIONS, useFactory: codesFactory }&#45;&gt;SafeChartSettingsComponent -->
<g id="edge3" class="edge">
<title>{ provide: MAT_CHIPS_DEFAULT_OPTIONS, useFactory: codesFactory }&#45;&gt;SafeChartSettingsComponent</title>
<path fill="none" stroke="black" d="M635.16,-95.29C635.16,-109.23 635.16,-146.39 635.16,-146.39 635.16,-146.39 1043.6,-146.39 1043.6,-146.39 1043.6,-146.39 1043.6,-150.15 1043.6,-150.15"/>
<polygon fill="black" stroke="black" points="1040.1,-150.15 1043.6,-160.15 1047.1,-150.15 1040.1,-150.15"/>
</g>
<!-- SafeAggregationBuilderModule -->
<g id="node5" class="node">
<title>SafeAggregationBuilderModule</title>
<polygon fill="#8dd3c7" stroke="black" points="959.4,-196.39 956.4,-200.39 935.4,-200.39 932.4,-196.39 762.6,-196.39 762.6,-160.39 959.4,-160.39 959.4,-196.39"/>
<text text-anchor="middle" x="861" y="-174.19" font-family="Times,serif" font-size="14.00">SafeAggregationBuilderModule</text>
</g>
<!-- SafeAggregationBuilderModule&#45;&gt;SafeChartSettingsModule -->
<g id="edge4" class="edge">
<title>SafeAggregationBuilderModule&#45;&gt;SafeChartSettingsModule</title>
<path fill="none" stroke="black" d="M861,-196.5C861,-215.73 861,-243.39 861,-243.39 861,-243.39 637.46,-243.39 637.46,-243.39"/>
<polygon fill="black" stroke="black" points="637.46,-239.89 627.46,-243.39 637.46,-246.89 637.46,-239.89"/>
</g>
<!-- SafeButtonModule -->
<g id="node6" class="node">
<title>SafeButtonModule</title>
<polygon fill="#8dd3c7" stroke="black" points="745.05,-196.39 742.05,-200.39 721.05,-200.39 718.05,-196.39 622.95,-196.39 622.95,-160.39 745.05,-160.39 745.05,-196.39"/>
<text text-anchor="middle" x="684" y="-174.19" font-family="Times,serif" font-size="14.00">SafeButtonModule</text>
</g>
<!-- SafeButtonModule&#45;&gt;SafeChartSettingsModule -->
<g id="edge5" class="edge">
<title>SafeButtonModule&#45;&gt;SafeChartSettingsModule</title>
<path fill="none" stroke="black" d="M633.64,-196.42C633.64,-212.79 633.64,-234.39 633.64,-234.39 633.64,-234.39 633.02,-234.39 633.02,-234.39"/>
<polygon fill="black" stroke="black" points="637.41,-230.89 627.41,-234.39 637.41,-237.89 637.41,-230.89"/>
</g>
<!-- SafeChartModule -->
<g id="node7" class="node">
<title>SafeChartModule</title>
<polygon fill="#8dd3c7" stroke="black" points="604.53,-196.39 601.53,-200.39 580.53,-200.39 577.53,-196.39 489.47,-196.39 489.47,-160.39 604.53,-160.39 604.53,-196.39"/>
<text text-anchor="middle" x="547" y="-174.19" font-family="Times,serif" font-size="14.00">SafeChartModule</text>
</g>
<!-- SafeChartModule&#45;&gt;SafeChartSettingsModule -->
<g id="edge6" class="edge">
<title>SafeChartModule&#45;&gt;SafeChartSettingsModule</title>
<path fill="none" stroke="black" d="M547,-196.5C547,-196.5 547,-215.38 547,-215.38"/>
<polygon fill="black" stroke="black" points="543.5,-215.38 547,-225.38 550.5,-215.38 543.5,-215.38"/>
</g>
<!-- SafeGridModule -->
<g id="node8" class="node">
<title>SafeGridModule</title>
<polygon fill="#8dd3c7" stroke="black" points="471.09,-196.39 468.09,-200.39 447.09,-200.39 444.09,-196.39 360.91,-196.39 360.91,-160.39 471.09,-160.39 471.09,-196.39"/>
<text text-anchor="middle" x="416" y="-174.19" font-family="Times,serif" font-size="14.00">SafeGridModule</text>
</g>
<!-- SafeGridModule&#45;&gt;SafeChartSettingsModule -->
<g id="edge7" class="edge">
<title>SafeGridModule&#45;&gt;SafeChartSettingsModule</title>
<path fill="none" stroke="black" d="M460.36,-196.68C460.36,-218.6 460.36,-252.39 460.36,-252.39 460.36,-252.39 460.98,-252.39 460.98,-252.39"/>
<polygon fill="black" stroke="black" points="456.59,-255.89 466.59,-252.39 456.59,-248.89 456.59,-255.89"/>
</g>
<!-- SafeIconModule -->
<g id="node9" class="node">
<title>SafeIconModule</title>
<polygon fill="#8dd3c7" stroke="black" points="342.8,-196.39 339.8,-200.39 318.8,-200.39 315.8,-196.39 233.2,-196.39 233.2,-160.39 342.8,-160.39 342.8,-196.39"/>
<text text-anchor="middle" x="288" y="-174.19" font-family="Times,serif" font-size="14.00">SafeIconModule</text>
</g>
<!-- SafeIconModule&#45;&gt;SafeChartSettingsModule -->
<g id="edge8" class="edge">
<title>SafeIconModule&#45;&gt;SafeChartSettingsModule</title>
<path fill="none" stroke="black" d="M288,-196.42C288,-212.79 288,-234.39 288,-234.39 288,-234.39 456.82,-234.39 456.82,-234.39"/>
<polygon fill="black" stroke="black" points="456.82,-237.89 466.82,-234.39 456.82,-230.89 456.82,-237.89"/>
</g>
<!-- SafeQueryBuilderModule -->
<g id="node10" class="node">
<title>SafeQueryBuilderModule</title>
<polygon fill="#8dd3c7" stroke="black" points="215.91,-196.39 212.91,-200.39 191.91,-200.39 188.91,-196.39 54.09,-196.39 54.09,-160.39 215.91,-160.39 215.91,-196.39"/>
<text text-anchor="middle" x="135" y="-174.19" font-family="Times,serif" font-size="14.00">SafeQueryBuilderModule</text>
</g>
<!-- SafeQueryBuilderModule&#45;&gt;SafeChartSettingsModule -->
<g id="edge9" class="edge">
<title>SafeQueryBuilderModule&#45;&gt;SafeChartSettingsModule</title>
<path fill="none" stroke="black" d="M135,-196.5C135,-215.73 135,-243.39 135,-243.39 135,-243.39 456.58,-243.39 456.58,-243.39"/>
<polygon fill="black" stroke="black" points="456.58,-246.89 466.58,-243.39 456.58,-239.89 456.58,-246.89"/>
</g>
</g>
</svg>
