<?xml version="1.0" encoding="UTF-8" standalone="no"?>
<!DOCTYPE svg PUBLIC "-//W3C//DTD SVG 1.1//EN"
 "http://www.w3.org/Graphics/SVG/1.1/DTD/svg11.dtd">
<!-- Generated by graphviz version 2.47.0 (20210316.0004)
 -->
<!-- Title: dependencies Pages: 1 -->
<svg width="699pt" height="284pt"
 viewBox="0.00 0.00 699.00 284.00" xmlns="http://www.w3.org/2000/svg" xmlns:xlink="http://www.w3.org/1999/xlink">
<g id="graph0" class="graph" transform="scale(1 1) rotate(0) translate(4 280)">
<title>dependencies</title>
<polygon fill="white" stroke="transparent" points="-4,4 -4,-280 695,-280 695,4 -4,4"/>
<text text-anchor="start" x="324.51" y="-42.4" font-family="sans-serif" font-weight="bold" font-size="14.00">Legend</text>
<polygon fill="#ffffb3" stroke="transparent" points="111.5,-10 111.5,-30 131.5,-30 131.5,-10 111.5,-10"/>
<text text-anchor="start" x="135.13" y="-15.4" font-family="sans-serif" font-size="14.00"> &#160;Declarations</text>
<polygon fill="#8dd3c7" stroke="transparent" points="224.5,-10 224.5,-30 244.5,-30 244.5,-10 224.5,-10"/>
<text text-anchor="start" x="248.23" y="-15.4" font-family="sans-serif" font-size="14.00"> &#160;Module</text>
<polygon fill="#80b1d3" stroke="transparent" points="310.5,-10 310.5,-30 330.5,-30 330.5,-10 310.5,-10"/>
<text text-anchor="start" x="334.28" y="-15.4" font-family="sans-serif" font-size="14.00"> &#160;Bootstrap</text>
<polygon fill="#fdb462" stroke="transparent" points="407.5,-10 407.5,-30 427.5,-30 427.5,-10 407.5,-10"/>
<text text-anchor="start" x="431.17" y="-15.4" font-family="sans-serif" font-size="14.00"> &#160;Providers</text>
<polygon fill="#fb8072" stroke="transparent" points="503.5,-10 503.5,-30 523.5,-30 523.5,-10 503.5,-10"/>
<text text-anchor="start" x="527.23" y="-15.4" font-family="sans-serif" font-size="14.00"> &#160;Exports</text>
<g id="clust1" class="cluster">
<title>cluster_ApiConfigurationsModule</title>
<polygon fill="none" stroke="black" stroke-dasharray="1,5" points="8,-70 8,-268 683,-268 683,-70 8,-70"/>
</g>
<g id="clust2" class="cluster">
<title>cluster_ApiConfigurationsModule_declarations</title>
<polygon fill="none" stroke="black" points="250,-78 250,-130 675,-130 675,-78 250,-78"/>
</g>
<g id="clust6" class="cluster">
<title>cluster_ApiConfigurationsModule_exports</title>
<polygon fill="none" stroke="black" points="248,-208 248,-260 454,-260 454,-208 248,-208"/>
</g>
<g id="clust5" class="cluster">
<title>cluster_ApiConfigurationsModule_imports</title>
<polygon fill="none" stroke="black" points="16,-78 16,-130 242,-130 242,-78 16,-78"/>
</g>
<!-- AddApiConfigurationComponent -->
<g id="node1" class="node">
<title>AddApiConfigurationComponent</title>
<polygon fill="#ffffb3" stroke="black" points="667.48,-122 462.52,-122 462.52,-86 667.48,-86 667.48,-122"/>
<text text-anchor="middle" x="565" y="-99.8" font-family="Times,serif" font-size="14.00">AddApiConfigurationComponent</text>
</g>
<!-- ApiConfigurationsModule -->
<g id="node3" class="node">
<title>ApiConfigurationsModule</title>
<polygon fill="#8dd3c7" stroke="black" points="433.04,-187 430.04,-191 409.04,-191 406.04,-187 268.96,-187 268.96,-151 433.04,-151 433.04,-187"/>
<text text-anchor="middle" x="351" y="-164.8" font-family="Times,serif" font-size="14.00">ApiConfigurationsModule</text>
</g>
<!-- AddApiConfigurationComponent&#45;&gt;ApiConfigurationsModule -->
<g id="edge1" class="edge">
<title>AddApiConfigurationComponent&#45;&gt;ApiConfigurationsModule</title>
<path fill="none" stroke="black" d="M565,-122.11C565,-141.34 565,-169 565,-169 565,-169 443.13,-169 443.13,-169"/>
<polygon fill="black" stroke="black" points="443.13,-165.5 433.13,-169 443.13,-172.5 443.13,-165.5"/>
</g>
<!-- ApiConfigurationsComponent -->
<g id="node2" class="node">
<title>ApiConfigurationsComponent</title>
<polygon fill="#ffffb3" stroke="black" points="444.32,-122 257.68,-122 257.68,-86 444.32,-86 444.32,-122"/>
<text text-anchor="middle" x="351" y="-99.8" font-family="Times,serif" font-size="14.00">ApiConfigurationsComponent</text>
</g>
<!-- ApiConfigurationsComponent&#45;&gt;ApiConfigurationsModule -->
<g id="edge2" class="edge">
<title>ApiConfigurationsComponent&#45;&gt;ApiConfigurationsModule</title>
<path fill="none" stroke="black" d="M351,-122.11C351,-122.11 351,-140.99 351,-140.99"/>
<polygon fill="black" stroke="black" points="347.5,-140.99 351,-150.99 354.5,-140.99 347.5,-140.99"/>
</g>
<!-- ApiConfigurationsComponent  -->
<g id="node5" class="node">
<title>ApiConfigurationsComponent </title>
<polygon fill="#fb8072" stroke="black" points="445.82,-252 256.18,-252 256.18,-216 445.82,-216 445.82,-252"/>
<text text-anchor="middle" x="351" y="-229.8" font-family="Times,serif" font-size="14.00">ApiConfigurationsComponent </text>
</g>
<!-- ApiConfigurationsModule&#45;&gt;ApiConfigurationsComponent  -->
<g id="edge4" class="edge">
<title>ApiConfigurationsModule&#45;&gt;ApiConfigurationsComponent </title>
<path fill="none" stroke="black" stroke-dasharray="5,2" d="M351,-187.11C351,-187.11 351,-205.99 351,-205.99"/>
<polygon fill="black" stroke="black" points="347.5,-205.99 351,-215.99 354.5,-205.99 347.5,-205.99"/>
</g>
<!-- ApiConfigurationsRoutingModule -->
<g id="node4" class="node">
<title>ApiConfigurationsRoutingModule</title>
<polygon fill="#8dd3c7" stroke="black" points="233.65,-122 230.65,-126 209.65,-126 206.65,-122 24.35,-122 24.35,-86 233.65,-86 233.65,-122"/>
<text text-anchor="middle" x="129" y="-99.8" font-family="Times,serif" font-size="14.00">ApiConfigurationsRoutingModule</text>
</g>
<!-- ApiConfigurationsRoutingModule&#45;&gt;ApiConfigurationsModule -->
<g id="edge3" class="edge">
<title>ApiConfigurationsRoutingModule&#45;&gt;ApiConfigurationsModule</title>
<path fill="none" stroke="black" d="M129,-122.11C129,-141.34 129,-169 129,-169 129,-169 258.65,-169 258.65,-169"/>
<polygon fill="black" stroke="black" points="258.65,-172.5 268.65,-169 258.65,-165.5 258.65,-172.5"/>
</g>
</g>
</svg>
