<?xml version="1.0" encoding="UTF-8" standalone="no"?>
<!DOCTYPE svg PUBLIC "-//W3C//DTD SVG 1.1//EN"
 "http://www.w3.org/Graphics/SVG/1.1/DTD/svg11.dtd">
<!-- Generated by graphviz version 2.47.0 (20210316.0004)
 -->
<!-- Title: dependencies Pages: 1 -->
<svg width="504pt" height="284pt"
 viewBox="0.00 0.00 504.00 284.00" xmlns="http://www.w3.org/2000/svg" xmlns:xlink="http://www.w3.org/1999/xlink">
<g id="graph0" class="graph" transform="scale(1 1) rotate(0) translate(4 280)">
<title>dependencies</title>
<polygon fill="white" stroke="transparent" points="-4,4 -4,-280 500,-280 500,4 -4,4"/>
<text text-anchor="start" x="227.01" y="-42.4" font-family="sans-serif" font-weight="bold" font-size="14.00">Legend</text>
<polygon fill="#ffffb3" stroke="transparent" points="14,-10 14,-30 34,-30 34,-10 14,-10"/>
<text text-anchor="start" x="37.63" y="-15.4" font-family="sans-serif" font-size="14.00"> &#160;Declarations</text>
<polygon fill="#8dd3c7" stroke="transparent" points="127,-10 127,-30 147,-30 147,-10 127,-10"/>
<text text-anchor="start" x="150.73" y="-15.4" font-family="sans-serif" font-size="14.00"> &#160;Module</text>
<polygon fill="#80b1d3" stroke="transparent" points="213,-10 213,-30 233,-30 233,-10 213,-10"/>
<text text-anchor="start" x="236.78" y="-15.4" font-family="sans-serif" font-size="14.00"> &#160;Bootstrap</text>
<polygon fill="#fdb462" stroke="transparent" points="310,-10 310,-30 330,-30 330,-10 310,-10"/>
<text text-anchor="start" x="333.67" y="-15.4" font-family="sans-serif" font-size="14.00"> &#160;Providers</text>
<polygon fill="#fb8072" stroke="transparent" points="406,-10 406,-30 426,-30 426,-10 406,-10"/>
<text text-anchor="start" x="429.73" y="-15.4" font-family="sans-serif" font-size="14.00"> &#160;Exports</text>
<g id="clust1" class="cluster">
<title>cluster_SafeButtonModule</title>
<polygon fill="none" stroke="black" stroke-dasharray="1,5" points="20,-70 20,-268 476,-268 476,-70 20,-70"/>
</g>
<g id="clust2" class="cluster">
<title>cluster_SafeButtonModule_declarations</title>
<polygon fill="none" stroke="black" points="308,-78 308,-130 468,-130 468,-78 308,-78"/>
</g>
<g id="clust5" class="cluster">
<title>cluster_SafeButtonModule_exports</title>
<polygon fill="none" stroke="black" points="155,-208 155,-260 319,-260 319,-208 155,-208"/>
</g>
<g id="clust4" class="cluster">
<title>cluster_SafeButtonModule_imports</title>
<polygon fill="none" stroke="black" points="28,-78 28,-130 300,-130 300,-78 28,-78"/>
</g>
<!-- SafeButtonComponent -->
<g id="node1" class="node">
<title>SafeButtonComponent</title>
<polygon fill="#ffffb3" stroke="black" points="460.32,-122 315.68,-122 315.68,-86 460.32,-86 460.32,-122"/>
<text text-anchor="middle" x="388" y="-99.8" font-family="Times,serif" font-size="14.00">SafeButtonComponent</text>
</g>
<!-- SafeButtonModule -->
<g id="node2" class="node">
<title>SafeButtonModule</title>
<polygon fill="#8dd3c7" stroke="black" points="298.04,-187 295.04,-191 274.04,-191 271.04,-187 175.96,-187 175.96,-151 298.04,-151 298.04,-187"/>
<text text-anchor="middle" x="237" y="-164.8" font-family="Times,serif" font-size="14.00">SafeButtonModule</text>
</g>
<!-- SafeButtonComponent&#45;&gt;SafeButtonModule -->
<g id="edge1" class="edge">
<title>SafeButtonComponent&#45;&gt;SafeButtonModule</title>
<path fill="none" stroke="black" d="M388,-122.11C388,-141.34 388,-169 388,-169 388,-169 308.42,-169 308.42,-169"/>
<polygon fill="black" stroke="black" points="308.42,-165.5 298.42,-169 308.42,-172.5 308.42,-165.5"/>
</g>
<!-- SafeButtonComponent  -->
<g id="node5" class="node">
<title>SafeButtonComponent </title>
<polygon fill="#fb8072" stroke="black" points="310.82,-252 163.18,-252 163.18,-216 310.82,-216 310.82,-252"/>
<text text-anchor="middle" x="237" y="-229.8" font-family="Times,serif" font-size="14.00">SafeButtonComponent </text>
</g>
<!-- SafeButtonModule&#45;&gt;SafeButtonComponent  -->
<g id="edge4" class="edge">
<title>SafeButtonModule&#45;&gt;SafeButtonComponent </title>
<path fill="none" stroke="black" stroke-dasharray="5,2" d="M237,-187.11C237,-187.11 237,-205.99 237,-205.99"/>
<polygon fill="black" stroke="black" points="233.5,-205.99 237,-215.99 240.5,-205.99 233.5,-205.99"/>
</g>
<!-- SafeIconModule -->
<g id="node3" class="node">
<title>SafeIconModule</title>
<polygon fill="#8dd3c7" stroke="black" points="291.8,-122 288.8,-126 267.8,-126 264.8,-122 182.2,-122 182.2,-86 291.8,-86 291.8,-122"/>
<text text-anchor="middle" x="237" y="-99.8" font-family="Times,serif" font-size="14.00">SafeIconModule</text>
</g>
<!-- SafeIconModule&#45;&gt;SafeButtonModule -->
<g id="edge2" class="edge">
<title>SafeIconModule&#45;&gt;SafeButtonModule</title>
<path fill="none" stroke="black" d="M237,-122.11C237,-122.11 237,-140.99 237,-140.99"/>
<polygon fill="black" stroke="black" points="233.5,-140.99 237,-150.99 240.5,-140.99 233.5,-140.99"/>
</g>
<!-- SafeSpinnerModule -->
<g id="node4" class="node">
<title>SafeSpinnerModule</title>
<polygon fill="#8dd3c7" stroke="black" points="163.97,-122 160.97,-126 139.97,-126 136.97,-122 36.03,-122 36.03,-86 163.97,-86 163.97,-122"/>
<text text-anchor="middle" x="100" y="-99.8" font-family="Times,serif" font-size="14.00">SafeSpinnerModule</text>
</g>
<!-- SafeSpinnerModule&#45;&gt;SafeButtonModule -->
<g id="edge3" class="edge">
<title>SafeSpinnerModule&#45;&gt;SafeButtonModule</title>
<path fill="none" stroke="black" d="M99.55,-122.11C99.55,-141.34 99.55,-169 99.55,-169 99.55,-169 165.91,-169 165.91,-169"/>
<polygon fill="black" stroke="black" points="165.91,-172.5 175.91,-169 165.91,-165.5 165.91,-172.5"/>
</g>
</g>
</svg>
