<?xml version="1.0" encoding="UTF-8" standalone="no"?>
<!DOCTYPE svg PUBLIC "-//W3C//DTD SVG 1.1//EN"
 "http://www.w3.org/Graphics/SVG/1.1/DTD/svg11.dtd">
<!-- Generated by graphviz version 2.47.0 (20210316.0004)
 -->
<!-- Title: dependencies Pages: 1 -->
<svg width="504pt" height="284pt"
 viewBox="0.00 0.00 504.00 284.00" xmlns="http://www.w3.org/2000/svg" xmlns:xlink="http://www.w3.org/1999/xlink">
<g id="graph0" class="graph" transform="scale(1 1) rotate(0) translate(4 280)">
<title>dependencies</title>
<polygon fill="white" stroke="transparent" points="-4,4 -4,-280 500,-280 500,4 -4,4"/>
<text text-anchor="start" x="227.01" y="-42.4" font-family="sans-serif" font-weight="bold" font-size="14.00">Legend</text>
<polygon fill="#ffffb3" stroke="transparent" points="14,-10 14,-30 34,-30 34,-10 14,-10"/>
<text text-anchor="start" x="37.63" y="-15.4" font-family="sans-serif" font-size="14.00"> &#160;Declarations</text>
<polygon fill="#8dd3c7" stroke="transparent" points="127,-10 127,-30 147,-30 147,-10 127,-10"/>
<text text-anchor="start" x="150.73" y="-15.4" font-family="sans-serif" font-size="14.00"> &#160;Module</text>
<polygon fill="#80b1d3" stroke="transparent" points="213,-10 213,-30 233,-30 233,-10 213,-10"/>
<text text-anchor="start" x="236.78" y="-15.4" font-family="sans-serif" font-size="14.00"> &#160;Bootstrap</text>
<polygon fill="#fdb462" stroke="transparent" points="310,-10 310,-30 330,-30 330,-10 310,-10"/>
<text text-anchor="start" x="333.67" y="-15.4" font-family="sans-serif" font-size="14.00"> &#160;Providers</text>
<polygon fill="#fb8072" stroke="transparent" points="406,-10 406,-30 426,-30 426,-10 406,-10"/>
<text text-anchor="start" x="429.73" y="-15.4" font-family="sans-serif" font-size="14.00"> &#160;Exports</text>
<g id="clust1" class="cluster">
<title>cluster_SafeButtonModule</title>
<polygon fill="none" stroke="black" stroke-dasharray="1,5" points="20,-70 20,-268 476,-268 476,-70 20,-70"/>
</g>
<g id="clust4" class="cluster">
<title>cluster_SafeButtonModule_imports</title>
<polygon fill="none" stroke="black" points="196,-78 196,-130 468,-130 468,-78 196,-78"/>
</g>
<g id="clust5" class="cluster">
<title>cluster_SafeButtonModule_exports</title>
<polygon fill="none" stroke="black" points="186,-208 186,-260 350,-260 350,-208 186,-208"/>
</g>
<g id="clust2" class="cluster">
<title>cluster_SafeButtonModule_declarations</title>
<polygon fill="none" stroke="black" points="28,-78 28,-130 188,-130 188,-78 28,-78"/>
</g>
<!-- SafeButtonComponent -->
<g id="node1" class="node">
<title>SafeButtonComponent</title>
<polygon fill="#ffffb3" stroke="black" points="180.32,-122 35.68,-122 35.68,-86 180.32,-86 180.32,-122"/>
<text text-anchor="middle" x="108" y="-99.8" font-family="Times,serif" font-size="14.00">SafeButtonComponent</text>
</g>
<!-- SafeButtonModule -->
<g id="node2" class="node">
<title>SafeButtonModule</title>
<polygon fill="#8dd3c7" stroke="black" points="329.04,-187 326.04,-191 305.04,-191 302.04,-187 206.96,-187 206.96,-151 329.04,-151 329.04,-187"/>
<text text-anchor="middle" x="268" y="-164.8" font-family="Times,serif" font-size="14.00">SafeButtonModule</text>
</g>
<!-- SafeButtonComponent&#45;&gt;SafeButtonModule -->
<g id="edge1" class="edge">
<title>SafeButtonComponent&#45;&gt;SafeButtonModule</title>
<path fill="none" stroke="black" d="M108,-122.11C108,-141.34 108,-169 108,-169 108,-169 196.6,-169 196.6,-169"/>
<polygon fill="black" stroke="black" points="196.6,-172.5 206.6,-169 196.6,-165.5 196.6,-172.5"/>
</g>
<!-- SafeButtonComponent  -->
<g id="node5" class="node">
<title>SafeButtonComponent </title>
<polygon fill="#fb8072" stroke="black" points="341.82,-252 194.18,-252 194.18,-216 341.82,-216 341.82,-252"/>
<text text-anchor="middle" x="268" y="-229.8" font-family="Times,serif" font-size="14.00">SafeButtonComponent </text>
</g>
<!-- SafeButtonModule&#45;&gt;SafeButtonComponent  -->
<g id="edge4" class="edge">
<title>SafeButtonModule&#45;&gt;SafeButtonComponent </title>
<path fill="none" stroke="black" stroke-dasharray="5,2" d="M268,-187.11C268,-187.11 268,-205.99 268,-205.99"/>
<polygon fill="black" stroke="black" points="264.5,-205.99 268,-215.99 271.5,-205.99 264.5,-205.99"/>
</g>
<!-- SafeIconModule -->
<g id="node3" class="node">
<title>SafeIconModule</title>
<polygon fill="#8dd3c7" stroke="black" points="459.8,-122 456.8,-126 435.8,-126 432.8,-122 350.2,-122 350.2,-86 459.8,-86 459.8,-122"/>
<text text-anchor="middle" x="405" y="-99.8" font-family="Times,serif" font-size="14.00">SafeIconModule</text>
</g>
<!-- SafeIconModule&#45;&gt;SafeButtonModule -->
<g id="edge2" class="edge">
<title>SafeIconModule&#45;&gt;SafeButtonModule</title>
<path fill="none" stroke="black" d="M405,-122.11C405,-141.34 405,-169 405,-169 405,-169 339.29,-169 339.29,-169"/>
<polygon fill="black" stroke="black" points="339.29,-165.5 329.29,-169 339.29,-172.5 339.29,-165.5"/>
</g>
<!-- SafeSpinnerModule -->
<g id="node4" class="node">
<title>SafeSpinnerModule</title>
<polygon fill="#8dd3c7" stroke="black" points="331.97,-122 328.97,-126 307.97,-126 304.97,-122 204.03,-122 204.03,-86 331.97,-86 331.97,-122"/>
<text text-anchor="middle" x="268" y="-99.8" font-family="Times,serif" font-size="14.00">SafeSpinnerModule</text>
</g>
<!-- SafeSpinnerModule&#45;&gt;SafeButtonModule -->
<g id="edge3" class="edge">
<title>SafeSpinnerModule&#45;&gt;SafeButtonModule</title>
<path fill="none" stroke="black" d="M268,-122.11C268,-122.11 268,-140.99 268,-140.99"/>
<polygon fill="black" stroke="black" points="264.5,-140.99 268,-150.99 271.5,-140.99 264.5,-140.99"/>
</g>
</g>
</svg>
