<?xml version="1.0" encoding="UTF-8" standalone="no"?>
<!DOCTYPE svg PUBLIC "-//W3C//DTD SVG 1.1//EN"
 "http://www.w3.org/Graphics/SVG/1.1/DTD/svg11.dtd">
<!-- Generated by graphviz version 3.0.0 (20220226.1711)
 -->
<!-- Title: dependencies Pages: 1 -->
<svg width="859pt" height="247pt"
 viewBox="0.00 0.00 859.00 246.80" xmlns="http://www.w3.org/2000/svg" xmlns:xlink="http://www.w3.org/1999/xlink">
<g id="graph0" class="graph" transform="scale(1 1) rotate(0) translate(4 242.8)">
<title>dependencies</title>
<polygon fill="white" stroke="transparent" points="-4,4 -4,-242.8 855,-242.8 855,4 -4,4"/>
<text text-anchor="middle" x="425.5" y="-8.2" font-family="sans-serif" font-size="14.00">dependencies</text>
<g id="clust1" class="cluster">
<title>cluster_SafeWorkflowStepperModule</title>
<polygon fill="none" stroke="black" stroke-dasharray="1,5" points="8,-32.8 8,-230.8 843,-230.8 843,-32.8 8,-32.8"/>
</g>
<g id="clust6" class="cluster">
<title>cluster_SafeWorkflowStepperModule_imports</title>
<polygon fill="none" stroke="black" points="569,-40.8 569,-92.8 835,-92.8 835,-40.8 569,-40.8"/>
</g>
<g id="clust7" class="cluster">
<title>cluster_SafeWorkflowStepperModule_exports</title>
<polygon fill="none" stroke="black" points="172,-170.8 172,-222.8 727,-222.8 727,-170.8 172,-170.8"/>
</g>
<g id="clust2" class="cluster">
<title>cluster_SafeWorkflowStepperModule_declarations</title>
<polygon fill="none" stroke="black" points="16,-40.8 16,-92.8 561,-92.8 561,-40.8 16,-40.8"/>
</g>
<!-- SafeAddStepComponent -->
<g id="node1" class="node">
<title>SafeAddStepComponent</title>
<polygon fill="#ffffb3" stroke="black" points="552.71,-84.8 397.29,-84.8 397.29,-48.8 552.71,-48.8 552.71,-84.8"/>
<text text-anchor="middle" x="475" y="-62.6" font-family="Times,serif" font-size="14.00">SafeAddStepComponent</text>
</g>
<!-- SafeWorkflowStepperModule -->
<g id="node4" class="node">
<title>SafeWorkflowStepperModule</title>
<polygon fill="#8dd3c7" stroke="black" points="567.23,-149.8 564.23,-153.8 543.23,-153.8 540.23,-149.8 382.77,-149.8 382.77,-113.8 567.23,-113.8 567.23,-149.8"/>
<text text-anchor="middle" x="475" y="-127.6" font-family="Times,serif" font-size="14.00">SafeWorkflowStepperModule</text>
</g>
<!-- SafeAddStepComponent&#45;&gt;SafeWorkflowStepperModule -->
<g id="edge1" class="edge">
<title>SafeAddStepComponent&#45;&gt;SafeWorkflowStepperModule</title>
<path fill="none" stroke="black" d="M475,-84.91C475,-84.91 475,-103.79 475,-103.79"/>
<polygon fill="black" stroke="black" points="471.5,-103.79 475,-113.79 478.5,-103.79 471.5,-103.79"/>
</g>
<!-- SafeStepComponent -->
<g id="node2" class="node">
<title>SafeStepComponent</title>
<polygon fill="#ffffb3" stroke="black" points="379.6,-84.8 248.4,-84.8 248.4,-48.8 379.6,-48.8 379.6,-84.8"/>
<text text-anchor="middle" x="314" y="-62.6" font-family="Times,serif" font-size="14.00">SafeStepComponent</text>
</g>
<!-- SafeStepComponent&#45;&gt;SafeWorkflowStepperModule -->
<g id="edge2" class="edge">
<title>SafeStepComponent&#45;&gt;SafeWorkflowStepperModule</title>
<path fill="none" stroke="black" d="M379.76,-66.8C385.98,-66.8 390.02,-66.8 390.02,-66.8 390.02,-66.8 390.02,-103.69 390.02,-103.69"/>
<polygon fill="black" stroke="black" points="386.52,-103.69 390.02,-113.69 393.52,-103.69 386.52,-103.69"/>
</g>
<!-- SafeWorkflowStepperComponent -->
<g id="node3" class="node">
<title>SafeWorkflowStepperComponent</title>
<polygon fill="#ffffb3" stroke="black" points="230.01,-84.8 23.99,-84.8 23.99,-48.8 230.01,-48.8 230.01,-84.8"/>
<text text-anchor="middle" x="127" y="-62.6" font-family="Times,serif" font-size="14.00">SafeWorkflowStepperComponent</text>
</g>
<!-- SafeWorkflowStepperComponent&#45;&gt;SafeWorkflowStepperModule -->
<g id="edge3" class="edge">
<title>SafeWorkflowStepperComponent&#45;&gt;SafeWorkflowStepperModule</title>
<path fill="none" stroke="black" d="M205.12,-84.91C205.12,-104.14 205.12,-131.8 205.12,-131.8 205.12,-131.8 372.5,-131.8 372.5,-131.8"/>
<polygon fill="black" stroke="black" points="372.5,-135.3 382.5,-131.8 372.5,-128.3 372.5,-135.3"/>
</g>
<!-- SafeAddStepComponent  -->
<g id="node7" class="node">
<title>SafeAddStepComponent </title>
<polygon fill="#fb8072" stroke="black" points="719.21,-214.8 560.79,-214.8 560.79,-178.8 719.21,-178.8 719.21,-214.8"/>
<text text-anchor="middle" x="640" y="-192.6" font-family="Times,serif" font-size="14.00">SafeAddStepComponent </text>
</g>
<!-- SafeWorkflowStepperModule&#45;&gt;SafeAddStepComponent  -->
<g id="edge6" class="edge">
<title>SafeWorkflowStepperModule&#45;&gt;SafeAddStepComponent </title>
<path fill="none" stroke="black" stroke-dasharray="5,2" d="M567.4,-137.8C570.54,-137.8 572.36,-137.8 572.36,-137.8 572.36,-137.8 572.36,-168.78 572.36,-168.78"/>
<polygon fill="black" stroke="black" points="568.86,-168.78 572.36,-178.78 575.86,-168.78 568.86,-168.78"/>
</g>
<!-- SafeStepComponent  -->
<g id="node8" class="node">
<title>SafeStepComponent </title>
<polygon fill="#fb8072" stroke="black" points="542.1,-214.8 407.9,-214.8 407.9,-178.8 542.1,-178.8 542.1,-214.8"/>
<text text-anchor="middle" x="475" y="-192.6" font-family="Times,serif" font-size="14.00">SafeStepComponent </text>
</g>
<!-- SafeWorkflowStepperModule&#45;&gt;SafeStepComponent  -->
<g id="edge7" class="edge">
<title>SafeWorkflowStepperModule&#45;&gt;SafeStepComponent </title>
<path fill="none" stroke="black" stroke-dasharray="5,2" d="M475,-149.91C475,-149.91 475,-168.79 475,-168.79"/>
<polygon fill="black" stroke="black" points="471.5,-168.79 475,-178.79 478.5,-168.79 471.5,-168.79"/>
</g>
<!-- SafeWorkflowStepperComponent  -->
<g id="node9" class="node">
<title>SafeWorkflowStepperComponent </title>
<polygon fill="#fb8072" stroke="black" points="390.01,-214.8 179.99,-214.8 179.99,-178.8 390.01,-178.8 390.01,-214.8"/>
<text text-anchor="middle" x="285" y="-192.6" font-family="Times,serif" font-size="14.00">SafeWorkflowStepperComponent </text>
</g>
<!-- SafeWorkflowStepperModule&#45;&gt;SafeWorkflowStepperComponent  -->
<g id="edge8" class="edge">
<title>SafeWorkflowStepperModule&#45;&gt;SafeWorkflowStepperComponent </title>
<path fill="none" stroke="black" stroke-dasharray="5,2" d="M386.32,-149.91C386.32,-149.91 386.32,-168.79 386.32,-168.79"/>
<polygon fill="black" stroke="black" points="382.82,-168.79 386.32,-178.79 389.82,-168.79 382.82,-168.79"/>
</g>
<!-- SafeButtonModule -->
<g id="node5" class="node">
<title>SafeButtonModule</title>
<polygon fill="#8dd3c7" stroke="black" points="827.05,-84.8 824.05,-88.8 803.05,-88.8 800.05,-84.8 704.95,-84.8 704.95,-48.8 827.05,-48.8 827.05,-84.8"/>
<text text-anchor="middle" x="766" y="-62.6" font-family="Times,serif" font-size="14.00">SafeButtonModule</text>
</g>
<!-- SafeButtonModule&#45;&gt;SafeWorkflowStepperModule -->
<g id="edge4" class="edge">
<title>SafeButtonModule&#45;&gt;SafeWorkflowStepperModule</title>
<path fill="none" stroke="black" d="M712.04,-84.82C712.04,-102.17 712.04,-125.8 712.04,-125.8 712.04,-125.8 577.32,-125.8 577.32,-125.8"/>
<polygon fill="black" stroke="black" points="577.32,-122.3 567.32,-125.8 577.32,-129.3 577.32,-122.3"/>
</g>
<!-- SafeIconModule -->
<g id="node6" class="node">
<title>SafeIconModule</title>
<polygon fill="#8dd3c7" stroke="black" points="686.8,-84.8 683.8,-88.8 662.8,-88.8 659.8,-84.8 577.2,-84.8 577.2,-48.8 686.8,-48.8 686.8,-84.8"/>
<text text-anchor="middle" x="632" y="-62.6" font-family="Times,serif" font-size="14.00">SafeIconModule</text>
</g>
<!-- SafeIconModule&#45;&gt;SafeWorkflowStepperModule -->
<g id="edge5" class="edge">
<title>SafeIconModule&#45;&gt;SafeWorkflowStepperModule</title>
<path fill="none" stroke="black" d="M577.05,-66.8C567.19,-66.8 559.98,-66.8 559.98,-66.8 559.98,-66.8 559.98,-103.69 559.98,-103.69"/>
<polygon fill="black" stroke="black" points="556.48,-103.69 559.98,-113.69 563.48,-103.69 556.48,-103.69"/>
</g>
</g>
</svg>
