<?xml version="1.0" encoding="UTF-8" standalone="no"?>
<!DOCTYPE svg PUBLIC "-//W3C//DTD SVG 1.1//EN"
 "http://www.w3.org/Graphics/SVG/1.1/DTD/svg11.dtd">
<!-- Generated by graphviz version 3.0.0 (20220226.1711)
 -->
<!-- Title: dependencies Pages: 1 -->
<svg width="859pt" height="247pt"
 viewBox="0.00 0.00 859.00 246.80" xmlns="http://www.w3.org/2000/svg" xmlns:xlink="http://www.w3.org/1999/xlink">
<g id="graph0" class="graph" transform="scale(1 1) rotate(0) translate(4 242.8)">
<title>dependencies</title>
<polygon fill="white" stroke="transparent" points="-4,4 -4,-242.8 855,-242.8 855,4 -4,4"/>
<text text-anchor="middle" x="425.5" y="-8.2" font-family="sans-serif" font-size="14.00">dependencies</text>
<g id="clust1" class="cluster">
<title>cluster_SafeWorkflowStepperModule</title>
<polygon fill="none" stroke="black" stroke-dasharray="1,5" points="8,-32.8 8,-230.8 843,-230.8 843,-32.8 8,-32.8"/>
</g>
<g id="clust2" class="cluster">
<title>cluster_SafeWorkflowStepperModule_declarations</title>
<polygon fill="none" stroke="black" points="290,-40.8 290,-92.8 835,-92.8 835,-40.8 290,-40.8"/>
</g>
<g id="clust7" class="cluster">
<title>cluster_SafeWorkflowStepperModule_exports</title>
<polygon fill="none" stroke="black" points="98,-170.8 98,-222.8 653,-222.8 653,-170.8 98,-170.8"/>
</g>
<g id="clust6" class="cluster">
<title>cluster_SafeWorkflowStepperModule_imports</title>
<polygon fill="none" stroke="black" points="16,-40.8 16,-92.8 282,-92.8 282,-40.8 16,-40.8"/>
</g>
<!-- SafeAddStepComponent -->
<g id="node1" class="node">
<title>SafeAddStepComponent</title>
<polygon fill="#ffffb3" stroke="black" points="826.71,-84.8 671.29,-84.8 671.29,-48.8 826.71,-48.8 826.71,-84.8"/>
<text text-anchor="middle" x="749" y="-62.6" font-family="Times,serif" font-size="14.00">SafeAddStepComponent</text>
</g>
<!-- SafeWorkflowStepperModule -->
<g id="node4" class="node">
<title>SafeWorkflowStepperModule</title>
<polygon fill="#8dd3c7" stroke="black" points="493.23,-149.8 490.23,-153.8 469.23,-153.8 466.23,-149.8 308.77,-149.8 308.77,-113.8 493.23,-113.8 493.23,-149.8"/>
<text text-anchor="middle" x="401" y="-127.6" font-family="Times,serif" font-size="14.00">SafeWorkflowStepperModule</text>
</g>
<!-- SafeAddStepComponent&#45;&gt;SafeWorkflowStepperModule -->
<g id="edge1" class="edge">
<title>SafeAddStepComponent&#45;&gt;SafeWorkflowStepperModule</title>
<path fill="none" stroke="black" d="M749,-84.91C749,-104.14 749,-131.8 749,-131.8 749,-131.8 503.34,-131.8 503.34,-131.8"/>
<polygon fill="black" stroke="black" points="503.34,-128.3 493.34,-131.8 503.34,-135.3 503.34,-128.3"/>
</g>
<!-- SafeStepComponent -->
<g id="node2" class="node">
<title>SafeStepComponent</title>
<polygon fill="#ffffb3" stroke="black" points="653.6,-84.8 522.4,-84.8 522.4,-48.8 653.6,-48.8 653.6,-84.8"/>
<text text-anchor="middle" x="588" y="-62.6" font-family="Times,serif" font-size="14.00">SafeStepComponent</text>
</g>
<!-- SafeStepComponent&#45;&gt;SafeWorkflowStepperModule -->
<g id="edge2" class="edge">
<title>SafeStepComponent&#45;&gt;SafeWorkflowStepperModule</title>
<path fill="none" stroke="black" d="M583.9,-84.83C583.9,-101.2 583.9,-122.8 583.9,-122.8 583.9,-122.8 503.26,-122.8 503.26,-122.8"/>
<polygon fill="black" stroke="black" points="503.26,-119.3 493.26,-122.8 503.26,-126.3 503.26,-119.3"/>
</g>
<!-- SafeWorkflowStepperComponent -->
<g id="node3" class="node">
<title>SafeWorkflowStepperComponent</title>
<polygon fill="#ffffb3" stroke="black" points="504.01,-84.8 297.99,-84.8 297.99,-48.8 504.01,-48.8 504.01,-84.8"/>
<text text-anchor="middle" x="401" y="-62.6" font-family="Times,serif" font-size="14.00">SafeWorkflowStepperComponent</text>
</g>
<!-- SafeWorkflowStepperComponent&#45;&gt;SafeWorkflowStepperModule -->
<g id="edge3" class="edge">
<title>SafeWorkflowStepperComponent&#45;&gt;SafeWorkflowStepperModule</title>
<path fill="none" stroke="black" d="M401,-84.91C401,-84.91 401,-103.79 401,-103.79"/>
<polygon fill="black" stroke="black" points="397.5,-103.79 401,-113.79 404.5,-103.79 397.5,-103.79"/>
</g>
<!-- SafeAddStepComponent  -->
<g id="node7" class="node">
<title>SafeAddStepComponent </title>
<polygon fill="#fb8072" stroke="black" points="645.21,-214.8 486.79,-214.8 486.79,-178.8 645.21,-178.8 645.21,-214.8"/>
<text text-anchor="middle" x="566" y="-192.6" font-family="Times,serif" font-size="14.00">SafeAddStepComponent </text>
</g>
<!-- SafeWorkflowStepperModule&#45;&gt;SafeAddStepComponent  -->
<g id="edge6" class="edge">
<title>SafeWorkflowStepperModule&#45;&gt;SafeAddStepComponent </title>
<path fill="none" stroke="black" stroke-dasharray="5,2" d="M493.27,-140.8C496.77,-140.8 498.81,-140.8 498.81,-140.8 498.81,-140.8 498.81,-168.77 498.81,-168.77"/>
<polygon fill="black" stroke="black" points="495.31,-168.77 498.81,-178.77 502.31,-168.77 495.31,-168.77"/>
</g>
<!-- SafeStepComponent  -->
<g id="node8" class="node">
<title>SafeStepComponent </title>
<polygon fill="#fb8072" stroke="black" points="468.1,-214.8 333.9,-214.8 333.9,-178.8 468.1,-178.8 468.1,-214.8"/>
<text text-anchor="middle" x="401" y="-192.6" font-family="Times,serif" font-size="14.00">SafeStepComponent </text>
</g>
<!-- SafeWorkflowStepperModule&#45;&gt;SafeStepComponent  -->
<g id="edge7" class="edge">
<title>SafeWorkflowStepperModule&#45;&gt;SafeStepComponent </title>
<path fill="none" stroke="black" stroke-dasharray="5,2" d="M401,-149.91C401,-149.91 401,-168.79 401,-168.79"/>
<polygon fill="black" stroke="black" points="397.5,-168.79 401,-178.79 404.5,-168.79 397.5,-168.79"/>
</g>
<!-- SafeWorkflowStepperComponent  -->
<g id="node9" class="node">
<title>SafeWorkflowStepperComponent </title>
<polygon fill="#fb8072" stroke="black" points="316.01,-214.8 105.99,-214.8 105.99,-178.8 316.01,-178.8 316.01,-214.8"/>
<text text-anchor="middle" x="211" y="-192.6" font-family="Times,serif" font-size="14.00">SafeWorkflowStepperComponent </text>
</g>
<!-- SafeWorkflowStepperModule&#45;&gt;SafeWorkflowStepperComponent  -->
<g id="edge8" class="edge">
<title>SafeWorkflowStepperModule&#45;&gt;SafeWorkflowStepperComponent </title>
<path fill="none" stroke="black" stroke-dasharray="5,2" d="M312.32,-149.91C312.32,-149.91 312.32,-168.79 312.32,-168.79"/>
<polygon fill="black" stroke="black" points="308.82,-168.79 312.32,-178.79 315.82,-168.79 308.82,-168.79"/>
</g>
<!-- SafeButtonModule -->
<g id="node5" class="node">
<title>SafeButtonModule</title>
<polygon fill="#8dd3c7" stroke="black" points="274.05,-84.8 271.05,-88.8 250.05,-88.8 247.05,-84.8 151.95,-84.8 151.95,-48.8 274.05,-48.8 274.05,-84.8"/>
<text text-anchor="middle" x="213" y="-62.6" font-family="Times,serif" font-size="14.00">SafeButtonModule</text>
</g>
<!-- SafeButtonModule&#45;&gt;SafeWorkflowStepperModule -->
<g id="edge4" class="edge">
<title>SafeButtonModule&#45;&gt;SafeWorkflowStepperModule</title>
<path fill="none" stroke="black" d="M213,-84.82C213,-102.17 213,-125.8 213,-125.8 213,-125.8 298.65,-125.8 298.65,-125.8"/>
<polygon fill="black" stroke="black" points="298.65,-129.3 308.65,-125.8 298.65,-122.3 298.65,-129.3"/>
</g>
<!-- SafeIconModule -->
<g id="node6" class="node">
<title>SafeIconModule</title>
<polygon fill="#8dd3c7" stroke="black" points="133.8,-84.8 130.8,-88.8 109.8,-88.8 106.8,-84.8 24.2,-84.8 24.2,-48.8 133.8,-48.8 133.8,-84.8"/>
<text text-anchor="middle" x="79" y="-62.6" font-family="Times,serif" font-size="14.00">SafeIconModule</text>
</g>
<!-- SafeIconModule&#45;&gt;SafeWorkflowStepperModule -->
<g id="edge5" class="edge">
<title>SafeIconModule&#45;&gt;SafeWorkflowStepperModule</title>
<path fill="none" stroke="black" d="M119.82,-85.08C119.82,-106.12 119.82,-137.8 119.82,-137.8 119.82,-137.8 298.54,-137.8 298.54,-137.8"/>
<polygon fill="black" stroke="black" points="298.54,-141.3 308.54,-137.8 298.54,-134.3 298.54,-141.3"/>
</g>
</g>
</svg>
