<?xml version="1.0" encoding="UTF-8" standalone="no"?>
<!DOCTYPE svg PUBLIC "-//W3C//DTD SVG 1.1//EN"
 "http://www.w3.org/Graphics/SVG/1.1/DTD/svg11.dtd">
<!-- Generated by graphviz version 3.0.0 (20220226.1711)
 -->
<!-- Title: dependencies Pages: 1 -->
<svg width="410pt" height="247pt"
 viewBox="0.00 0.00 410.00 246.80" xmlns="http://www.w3.org/2000/svg" xmlns:xlink="http://www.w3.org/1999/xlink">
<g id="graph0" class="graph" transform="scale(1 1) rotate(0) translate(4 242.8)">
<title>dependencies</title>
<polygon fill="white" stroke="transparent" points="-4,4 -4,-242.8 406,-242.8 406,4 -4,4"/>
<text text-anchor="middle" x="201" y="-8.2" font-family="sans-serif" font-size="14.00">dependencies</text>
<g id="clust1" class="cluster">
<title>cluster_MapClorophletDivisionModule</title>
<polygon fill="none" stroke="black" stroke-dasharray="1,5" points="8,-32.8 8,-230.8 394,-230.8 394,-32.8 8,-32.8"/>
</g>
<g id="clust5" class="cluster">
<title>cluster_MapClorophletDivisionModule_exports</title>
<polygon fill="none" stroke="black" points="84,-170.8 84,-222.8 318,-222.8 318,-170.8 84,-170.8"/>
</g>
<g id="clust2" class="cluster">
<title>cluster_MapClorophletDivisionModule_declarations</title>
<polygon fill="none" stroke="black" points="154,-40.8 154,-92.8 386,-92.8 386,-40.8 154,-40.8"/>
</g>
<g id="clust4" class="cluster">
<title>cluster_MapClorophletDivisionModule_imports</title>
<polygon fill="none" stroke="black" points="16,-40.8 16,-92.8 146,-92.8 146,-40.8 16,-40.8"/>
</g>
<!-- MapClorophletDivisionComponent -->
<g id="node1" class="node">
<title>MapClorophletDivisionComponent</title>
<polygon fill="#ffffb3" stroke="black" points="377.6,-84.8 162.4,-84.8 162.4,-48.8 377.6,-48.8 377.6,-84.8"/>
<text text-anchor="middle" x="270" y="-62.6" font-family="Times,serif" font-size="14.00">MapClorophletDivisionComponent</text>
</g>
<!-- MapClorophletDivisionModule -->
<g id="node2" class="node">
<title>MapClorophletDivisionModule</title>
<polygon fill="#8dd3c7" stroke="black" points="297.82,-149.8 294.82,-153.8 273.82,-153.8 270.82,-149.8 104.18,-149.8 104.18,-113.8 297.82,-113.8 297.82,-149.8"/>
<text text-anchor="middle" x="201" y="-127.6" font-family="Times,serif" font-size="14.00">MapClorophletDivisionModule</text>
</g>
<!-- MapClorophletDivisionComponent&#45;&gt;MapClorophletDivisionModule -->
<g id="edge1" class="edge">
<title>MapClorophletDivisionComponent&#45;&gt;MapClorophletDivisionModule</title>
<path fill="none" stroke="black" d="M230.06,-84.91C230.06,-84.91 230.06,-103.79 230.06,-103.79"/>
<polygon fill="black" stroke="black" points="226.56,-103.79 230.06,-113.79 233.56,-103.79 226.56,-103.79"/>
</g>
<!-- MapClorophletDivisionComponent  -->
<g id="node4" class="node">
<title>MapClorophletDivisionComponent </title>
<polygon fill="#fb8072" stroke="black" points="310.1,-214.8 91.9,-214.8 91.9,-178.8 310.1,-178.8 310.1,-214.8"/>
<text text-anchor="middle" x="201" y="-192.6" font-family="Times,serif" font-size="14.00">MapClorophletDivisionComponent </text>
</g>
<!-- MapClorophletDivisionModule&#45;&gt;MapClorophletDivisionComponent  -->
<g id="edge3" class="edge">
<title>MapClorophletDivisionModule&#45;&gt;MapClorophletDivisionComponent </title>
<path fill="none" stroke="black" stroke-dasharray="5,2" d="M201,-149.91C201,-149.91 201,-168.79 201,-168.79"/>
<polygon fill="black" stroke="black" points="197.5,-168.79 201,-178.79 204.5,-168.79 197.5,-168.79"/>
</g>
<!-- SafeFilterModule -->
<g id="node3" class="node">
<title>SafeFilterModule</title>
<polygon fill="#8dd3c7" stroke="black" points="138.26,-84.8 135.26,-88.8 114.26,-88.8 111.26,-84.8 23.74,-84.8 23.74,-48.8 138.26,-48.8 138.26,-84.8"/>
<text text-anchor="middle" x="81" y="-62.6" font-family="Times,serif" font-size="14.00">SafeFilterModule</text>
</g>
<!-- SafeFilterModule&#45;&gt;MapClorophletDivisionModule -->
<g id="edge2" class="edge">
<title>SafeFilterModule&#45;&gt;MapClorophletDivisionModule</title>
<path fill="none" stroke="black" d="M121.36,-84.91C121.36,-84.91 121.36,-103.79 121.36,-103.79"/>
<polygon fill="black" stroke="black" points="117.86,-103.79 121.36,-113.79 124.86,-103.79 117.86,-103.79"/>
</g>
</g>
</svg>
