<?xml version="1.0" encoding="UTF-8" standalone="no"?>
<!DOCTYPE svg PUBLIC "-//W3C//DTD SVG 1.1//EN"
 "http://www.w3.org/Graphics/SVG/1.1/DTD/svg11.dtd">
<!-- Generated by graphviz version 3.0.0 (20220226.1711)
 -->
<!-- Title: dependencies Pages: 1 -->
<svg width="523pt" height="247pt"
 viewBox="0.00 0.00 523.00 246.80" xmlns="http://www.w3.org/2000/svg" xmlns:xlink="http://www.w3.org/1999/xlink">
<g id="graph0" class="graph" transform="scale(1 1) rotate(0) translate(4 242.8)">
<title>dependencies</title>
<polygon fill="white" stroke="transparent" points="-4,4 -4,-242.8 519,-242.8 519,4 -4,4"/>
<text text-anchor="middle" x="257.5" y="-8.2" font-family="sans-serif" font-size="14.00">dependencies</text>
<g id="clust1" class="cluster">
<title>cluster_SafeInviteUsersModule</title>
<polygon fill="none" stroke="black" stroke-dasharray="1,5" points="8,-32.8 8,-230.8 507,-230.8 507,-32.8 8,-32.8"/>
</g>
<g id="clust5" class="cluster">
<title>cluster_SafeInviteUsersModule_exports</title>
<polygon fill="none" stroke="black" points="135,-170.8 135,-222.8 325,-222.8 325,-170.8 135,-170.8"/>
</g>
<g id="clust2" class="cluster">
<title>cluster_SafeInviteUsersModule_declarations</title>
<polygon fill="none" stroke="black" points="313,-40.8 313,-92.8 499,-92.8 499,-40.8 313,-40.8"/>
</g>
<g id="clust4" class="cluster">
<title>cluster_SafeInviteUsersModule_imports</title>
<polygon fill="none" stroke="black" points="16,-40.8 16,-92.8 305,-92.8 305,-40.8 16,-40.8"/>
</g>
<!-- SafeInviteUsersComponent -->
<g id="node1" class="node">
<title>SafeInviteUsersComponent</title>
<polygon fill="#ffffb3" stroke="black" points="491.25,-84.8 320.75,-84.8 320.75,-48.8 491.25,-48.8 491.25,-84.8"/>
<text text-anchor="middle" x="406" y="-62.6" font-family="Times,serif" font-size="14.00">SafeInviteUsersComponent</text>
</g>
<!-- SafeInviteUsersModule -->
<g id="node2" class="node">
<title>SafeInviteUsersModule</title>
<polygon fill="#8dd3c7" stroke="black" points="304.47,-149.8 301.47,-153.8 280.47,-153.8 277.47,-149.8 155.53,-149.8 155.53,-113.8 304.47,-113.8 304.47,-149.8"/>
<text text-anchor="middle" x="230" y="-127.6" font-family="Times,serif" font-size="14.00">SafeInviteUsersModule</text>
</g>
<!-- SafeInviteUsersComponent&#45;&gt;SafeInviteUsersModule -->
<g id="edge1" class="edge">
<title>SafeInviteUsersComponent&#45;&gt;SafeInviteUsersModule</title>
<path fill="none" stroke="black" d="M406,-84.91C406,-104.14 406,-131.8 406,-131.8 406,-131.8 314.64,-131.8 314.64,-131.8"/>
<polygon fill="black" stroke="black" points="314.64,-128.3 304.64,-131.8 314.64,-135.3 314.64,-128.3"/>
</g>
<!-- SafeInviteUsersComponent  -->
<g id="node5" class="node">
<title>SafeInviteUsersComponent </title>
<polygon fill="#fb8072" stroke="black" points="317.25,-214.8 142.75,-214.8 142.75,-178.8 317.25,-178.8 317.25,-214.8"/>
<text text-anchor="middle" x="230" y="-192.6" font-family="Times,serif" font-size="14.00">SafeInviteUsersComponent </text>
</g>
<!-- SafeInviteUsersModule&#45;&gt;SafeInviteUsersComponent  -->
<g id="edge4" class="edge">
<title>SafeInviteUsersModule&#45;&gt;SafeInviteUsersComponent </title>
<path fill="none" stroke="black" stroke-dasharray="5,2" d="M230,-149.91C230,-149.91 230,-168.79 230,-168.79"/>
<polygon fill="black" stroke="black" points="226.5,-168.79 230,-178.79 233.5,-168.79 226.5,-168.79"/>
</g>
<!-- SafeAddUserModule -->
<g id="node3" class="node">
<title>SafeAddUserModule</title>
<polygon fill="#8dd3c7" stroke="black" points="297.47,-84.8 294.47,-88.8 273.47,-88.8 270.47,-84.8 162.53,-84.8 162.53,-48.8 297.47,-48.8 297.47,-84.8"/>
<text text-anchor="middle" x="230" y="-62.6" font-family="Times,serif" font-size="14.00">SafeAddUserModule</text>
</g>
<!-- SafeAddUserModule&#45;&gt;SafeInviteUsersModule -->
<g id="edge2" class="edge">
<title>SafeAddUserModule&#45;&gt;SafeInviteUsersModule</title>
<path fill="none" stroke="black" d="M230,-84.91C230,-84.91 230,-103.79 230,-103.79"/>
<polygon fill="black" stroke="black" points="226.5,-103.79 230,-113.79 233.5,-103.79 226.5,-103.79"/>
</g>
<!-- SafeModalModule -->
<g id="node4" class="node">
<title>SafeModalModule</title>
<polygon fill="#8dd3c7" stroke="black" points="144.48,-84.8 141.48,-88.8 120.48,-88.8 117.48,-84.8 23.52,-84.8 23.52,-48.8 144.48,-48.8 144.48,-84.8"/>
<text text-anchor="middle" x="84" y="-62.6" font-family="Times,serif" font-size="14.00">SafeModalModule</text>
</g>
<!-- SafeModalModule&#45;&gt;SafeInviteUsersModule -->
<g id="edge3" class="edge">
<title>SafeModalModule&#45;&gt;SafeInviteUsersModule</title>
<path fill="none" stroke="black" d="M83.19,-84.91C83.19,-104.14 83.19,-131.8 83.19,-131.8 83.19,-131.8 145.31,-131.8 145.31,-131.8"/>
<polygon fill="black" stroke="black" points="145.31,-135.3 155.31,-131.8 145.31,-128.3 145.31,-135.3"/>
</g>
</g>
</svg>
