<?xml version="1.0" encoding="UTF-8" standalone="no"?>
<!DOCTYPE svg PUBLIC "-//W3C//DTD SVG 1.1//EN"
 "http://www.w3.org/Graphics/SVG/1.1/DTD/svg11.dtd">
<!-- Generated by graphviz version 3.0.0 (20220226.1711)
 -->
<!-- Title: dependencies Pages: 1 -->
<svg width="523pt" height="247pt"
 viewBox="0.00 0.00 523.00 246.80" xmlns="http://www.w3.org/2000/svg" xmlns:xlink="http://www.w3.org/1999/xlink">
<g id="graph0" class="graph" transform="scale(1 1) rotate(0) translate(4 242.8)">
<title>dependencies</title>
<polygon fill="white" stroke="transparent" points="-4,4 -4,-242.8 519,-242.8 519,4 -4,4"/>
<text text-anchor="middle" x="257.5" y="-8.2" font-family="sans-serif" font-size="14.00">dependencies</text>
<g id="clust1" class="cluster">
<title>cluster_SafeInviteUsersModule</title>
<polygon fill="none" stroke="black" stroke-dasharray="1,5" points="8,-32.8 8,-230.8 507,-230.8 507,-32.8 8,-32.8"/>
</g>
<g id="clust5" class="cluster">
<title>cluster_SafeInviteUsersModule_exports</title>
<polygon fill="none" stroke="black" points="183,-170.8 183,-222.8 373,-222.8 373,-170.8 183,-170.8"/>
</g>
<g id="clust4" class="cluster">
<title>cluster_SafeInviteUsersModule_imports</title>
<polygon fill="none" stroke="black" points="210,-40.8 210,-92.8 499,-92.8 499,-40.8 210,-40.8"/>
</g>
<g id="clust2" class="cluster">
<title>cluster_SafeInviteUsersModule_declarations</title>
<polygon fill="none" stroke="black" points="16,-40.8 16,-92.8 202,-92.8 202,-40.8 16,-40.8"/>
</g>
<!-- SafeInviteUsersComponent -->
<g id="node1" class="node">
<title>SafeInviteUsersComponent</title>
<polygon fill="#ffffb3" stroke="black" points="194.25,-84.8 23.75,-84.8 23.75,-48.8 194.25,-48.8 194.25,-84.8"/>
<text text-anchor="middle" x="109" y="-62.6" font-family="Times,serif" font-size="14.00">SafeInviteUsersComponent</text>
</g>
<!-- SafeInviteUsersModule -->
<g id="node2" class="node">
<title>SafeInviteUsersModule</title>
<polygon fill="#8dd3c7" stroke="black" points="352.47,-149.8 349.47,-153.8 328.47,-153.8 325.47,-149.8 203.53,-149.8 203.53,-113.8 352.47,-113.8 352.47,-149.8"/>
<text text-anchor="middle" x="278" y="-127.6" font-family="Times,serif" font-size="14.00">SafeInviteUsersModule</text>
</g>
<!-- SafeInviteUsersComponent&#45;&gt;SafeInviteUsersModule -->
<g id="edge1" class="edge">
<title>SafeInviteUsersComponent&#45;&gt;SafeInviteUsersModule</title>
<path fill="none" stroke="black" d="M194.65,-66.8C204.17,-66.8 210.51,-66.8 210.51,-66.8 210.51,-66.8 210.51,-103.69 210.51,-103.69"/>
<polygon fill="black" stroke="black" points="207.01,-103.69 210.51,-113.69 214.01,-103.69 207.01,-103.69"/>
</g>
<!-- SafeInviteUsersComponent  -->
<g id="node5" class="node">
<title>SafeInviteUsersComponent </title>
<polygon fill="#fb8072" stroke="black" points="365.25,-214.8 190.75,-214.8 190.75,-178.8 365.25,-178.8 365.25,-214.8"/>
<text text-anchor="middle" x="278" y="-192.6" font-family="Times,serif" font-size="14.00">SafeInviteUsersComponent </text>
</g>
<!-- SafeInviteUsersModule&#45;&gt;SafeInviteUsersComponent  -->
<g id="edge4" class="edge">
<title>SafeInviteUsersModule&#45;&gt;SafeInviteUsersComponent </title>
<path fill="none" stroke="black" stroke-dasharray="5,2" d="M278,-149.91C278,-149.91 278,-168.79 278,-168.79"/>
<polygon fill="black" stroke="black" points="274.5,-168.79 278,-178.79 281.5,-168.79 274.5,-168.79"/>
</g>
<!-- SafeAddUserModule -->
<g id="node3" class="node">
<title>SafeAddUserModule</title>
<polygon fill="#8dd3c7" stroke="black" points="491.47,-84.8 488.47,-88.8 467.47,-88.8 464.47,-84.8 356.53,-84.8 356.53,-48.8 491.47,-48.8 491.47,-84.8"/>
<text text-anchor="middle" x="424" y="-62.6" font-family="Times,serif" font-size="14.00">SafeAddUserModule</text>
</g>
<!-- SafeAddUserModule&#45;&gt;SafeInviteUsersModule -->
<g id="edge2" class="edge">
<title>SafeAddUserModule&#45;&gt;SafeInviteUsersModule</title>
<path fill="none" stroke="black" d="M360.82,-84.91C360.82,-104.14 360.82,-131.8 360.82,-131.8 360.82,-131.8 359.99,-131.8 359.99,-131.8"/>
<polygon fill="black" stroke="black" points="362.57,-128.3 352.57,-131.8 362.57,-135.3 362.57,-128.3"/>
</g>
<!-- SafeModalModule -->
<g id="node4" class="node">
<title>SafeModalModule</title>
<polygon fill="#8dd3c7" stroke="black" points="338.48,-84.8 335.48,-88.8 314.48,-88.8 311.48,-84.8 217.52,-84.8 217.52,-48.8 338.48,-48.8 338.48,-84.8"/>
<text text-anchor="middle" x="278" y="-62.6" font-family="Times,serif" font-size="14.00">SafeModalModule</text>
</g>
<!-- SafeModalModule&#45;&gt;SafeInviteUsersModule -->
<g id="edge3" class="edge">
<title>SafeModalModule&#45;&gt;SafeInviteUsersModule</title>
<path fill="none" stroke="black" d="M278,-84.91C278,-84.91 278,-103.79 278,-103.79"/>
<polygon fill="black" stroke="black" points="274.5,-103.79 278,-113.79 281.5,-103.79 274.5,-103.79"/>
</g>
</g>
</svg>
