<?xml version="1.0" encoding="UTF-8" standalone="no"?>
<!DOCTYPE svg PUBLIC "-//W3C//DTD SVG 1.1//EN"
 "http://www.w3.org/Graphics/SVG/1.1/DTD/svg11.dtd">
<!-- Generated by graphviz version 3.0.0 (20220226.1711)
 -->
<!-- Title: dependencies Pages: 1 -->
<svg width="936pt" height="247pt"
 viewBox="0.00 0.00 936.00 246.80" xmlns="http://www.w3.org/2000/svg" xmlns:xlink="http://www.w3.org/1999/xlink">
<g id="graph0" class="graph" transform="scale(1 1) rotate(0) translate(4 242.8)">
<title>dependencies</title>
<polygon fill="white" stroke="transparent" points="-4,4 -4,-242.8 932,-242.8 932,4 -4,4"/>
<text text-anchor="middle" x="464" y="-8.2" font-family="sans-serif" font-size="14.00">dependencies</text>
<g id="clust1" class="cluster">
<title>cluster_SafeWidgetModule</title>
<polygon fill="none" stroke="black" stroke-dasharray="1,5" points="8,-32.8 8,-230.8 920,-230.8 920,-32.8 8,-32.8"/>
</g>
<g id="clust4" class="cluster">
<title>cluster_SafeWidgetModule_imports</title>
<polygon fill="none" stroke="black" points="188,-40.8 188,-92.8 912,-92.8 912,-40.8 188,-40.8"/>
</g>
<g id="clust2" class="cluster">
<title>cluster_SafeWidgetModule_declarations</title>
<polygon fill="none" stroke="black" points="16,-40.8 16,-92.8 180,-92.8 180,-40.8 16,-40.8"/>
</g>
<g id="clust5" class="cluster">
<title>cluster_SafeWidgetModule_exports</title>
<polygon fill="none" stroke="black" points="400,-170.8 400,-222.8 566,-222.8 566,-170.8 400,-170.8"/>
</g>
<!-- SafeWidgetComponent -->
<g id="node1" class="node">
<title>SafeWidgetComponent</title>
<polygon fill="#ffffb3" stroke="black" points="171.91,-84.8 24.09,-84.8 24.09,-48.8 171.91,-48.8 171.91,-84.8"/>
<text text-anchor="middle" x="98" y="-62.6" font-family="Times,serif" font-size="14.00">SafeWidgetComponent</text>
</g>
<!-- SafeWidgetModule -->
<g id="node2" class="node">
<title>SafeWidgetModule</title>
<polygon fill="#8dd3c7" stroke="black" points="545.64,-149.8 542.64,-153.8 521.64,-153.8 518.64,-149.8 420.36,-149.8 420.36,-113.8 545.64,-113.8 545.64,-149.8"/>
<text text-anchor="middle" x="483" y="-127.6" font-family="Times,serif" font-size="14.00">SafeWidgetModule</text>
</g>
<!-- SafeWidgetComponent&#45;&gt;SafeWidgetModule -->
<g id="edge1" class="edge">
<title>SafeWidgetComponent&#45;&gt;SafeWidgetModule</title>
<path fill="none" stroke="black" d="M98,-85.08C98,-106.12 98,-137.8 98,-137.8 98,-137.8 410.29,-137.8 410.29,-137.8"/>
<polygon fill="black" stroke="black" points="410.29,-141.3 420.29,-137.8 410.29,-134.3 410.29,-141.3"/>
</g>
<!-- SafeWidgetComponent  -->
<g id="node8" class="node">
<title>SafeWidgetComponent </title>
<polygon fill="#fb8072" stroke="black" points="558.41,-214.8 407.59,-214.8 407.59,-178.8 558.41,-178.8 558.41,-214.8"/>
<text text-anchor="middle" x="483" y="-192.6" font-family="Times,serif" font-size="14.00">SafeWidgetComponent </text>
</g>
<!-- SafeWidgetModule&#45;&gt;SafeWidgetComponent  -->
<g id="edge7" class="edge">
<title>SafeWidgetModule&#45;&gt;SafeWidgetComponent </title>
<path fill="none" stroke="black" stroke-dasharray="5,2" d="M483,-149.91C483,-149.91 483,-168.79 483,-168.79"/>
<polygon fill="black" stroke="black" points="479.5,-168.79 483,-178.79 486.5,-168.79 479.5,-168.79"/>
</g>
<!-- SafeChartModule -->
<g id="node3" class="node">
<title>SafeChartModule</title>
<polygon fill="#8dd3c7" stroke="black" points="903.53,-84.8 900.53,-88.8 879.53,-88.8 876.53,-84.8 788.47,-84.8 788.47,-48.8 903.53,-48.8 903.53,-84.8"/>
<text text-anchor="middle" x="846" y="-62.6" font-family="Times,serif" font-size="14.00">SafeChartModule</text>
</g>
<!-- SafeChartModule&#45;&gt;SafeWidgetModule -->
<g id="edge2" class="edge">
<title>SafeChartModule&#45;&gt;SafeWidgetModule</title>
<path fill="none" stroke="black" d="M846,-85.08C846,-106.12 846,-137.8 846,-137.8 846,-137.8 555.82,-137.8 555.82,-137.8"/>
<polygon fill="black" stroke="black" points="555.82,-134.3 545.82,-137.8 555.82,-141.3 555.82,-134.3"/>
</g>
<!-- SafeEditorModule -->
<g id="node4" class="node">
<title>SafeEditorModule</title>
<polygon fill="#8dd3c7" stroke="black" points="770.92,-84.8 767.92,-88.8 746.92,-88.8 743.92,-84.8 651.08,-84.8 651.08,-48.8 770.92,-48.8 770.92,-84.8"/>
<text text-anchor="middle" x="711" y="-62.6" font-family="Times,serif" font-size="14.00">SafeEditorModule</text>
</g>
<!-- SafeEditorModule&#45;&gt;SafeWidgetModule -->
<g id="edge3" class="edge">
<title>SafeEditorModule&#45;&gt;SafeWidgetModule</title>
<path fill="none" stroke="black" d="M711,-84.82C711,-102.17 711,-125.8 711,-125.8 711,-125.8 555.91,-125.8 555.91,-125.8"/>
<polygon fill="black" stroke="black" points="555.91,-122.3 545.91,-125.8 555.91,-129.3 555.91,-122.3"/>
</g>
<!-- SafeGridWidgetModule -->
<g id="node5" class="node">
<title>SafeGridWidgetModule</title>
<polygon fill="#8dd3c7" stroke="black" points="633.8,-84.8 630.8,-88.8 609.8,-88.8 606.8,-84.8 482.2,-84.8 482.2,-48.8 633.8,-48.8 633.8,-84.8"/>
<text text-anchor="middle" x="558" y="-62.6" font-family="Times,serif" font-size="14.00">SafeGridWidgetModule</text>
</g>
<!-- SafeGridWidgetModule&#45;&gt;SafeWidgetModule -->
<g id="edge4" class="edge">
<title>SafeGridWidgetModule&#45;&gt;SafeWidgetModule</title>
<path fill="none" stroke="black" d="M514.08,-84.91C514.08,-84.91 514.08,-103.79 514.08,-103.79"/>
<polygon fill="black" stroke="black" points="510.58,-103.79 514.08,-113.79 517.58,-103.79 510.58,-103.79"/>
</g>
<!-- SafeMapModule -->
<g id="node6" class="node">
<title>SafeMapModule</title>
<polygon fill="#8dd3c7" stroke="black" points="464.09,-84.8 461.09,-88.8 440.09,-88.8 437.09,-84.8 353.91,-84.8 353.91,-48.8 464.09,-48.8 464.09,-84.8"/>
<text text-anchor="middle" x="409" y="-62.6" font-family="Times,serif" font-size="14.00">SafeMapModule</text>
</g>
<!-- SafeMapModule&#45;&gt;SafeWidgetModule -->
<g id="edge5" class="edge">
<title>SafeMapModule&#45;&gt;SafeWidgetModule</title>
<path fill="none" stroke="black" d="M442.11,-84.91C442.11,-84.91 442.11,-103.79 442.11,-103.79"/>
<polygon fill="black" stroke="black" points="438.61,-103.79 442.11,-113.79 445.61,-103.79 438.61,-103.79"/>
</g>
<!-- SafeSchedulerModule -->
<g id="node7" class="node">
<title>SafeSchedulerModule</title>
<polygon fill="#8dd3c7" stroke="black" points="336.41,-84.8 333.41,-88.8 312.41,-88.8 309.41,-84.8 195.59,-84.8 195.59,-48.8 336.41,-48.8 336.41,-84.8"/>
<text text-anchor="middle" x="266" y="-62.6" font-family="Times,serif" font-size="14.00">SafeSchedulerModule</text>
</g>
<!-- SafeSchedulerModule&#45;&gt;SafeWidgetModule -->
<g id="edge6" class="edge">
<title>SafeSchedulerModule&#45;&gt;SafeWidgetModule</title>
<path fill="none" stroke="black" d="M266,-84.82C266,-102.17 266,-125.8 266,-125.8 266,-125.8 410.23,-125.8 410.23,-125.8"/>
<polygon fill="black" stroke="black" points="410.23,-129.3 420.23,-125.8 410.23,-122.3 410.23,-129.3"/>
</g>
</g>
</svg>
