<?xml version="1.0" encoding="UTF-8" standalone="no"?>
<!DOCTYPE svg PUBLIC "-//W3C//DTD SVG 1.1//EN"
 "http://www.w3.org/Graphics/SVG/1.1/DTD/svg11.dtd">
<!-- Generated by graphviz version 3.0.0 (20220226.1711)
 -->
<!-- Title: dependencies Pages: 1 -->
<svg width="936pt" height="247pt"
 viewBox="0.00 0.00 936.00 246.80" xmlns="http://www.w3.org/2000/svg" xmlns:xlink="http://www.w3.org/1999/xlink">
<g id="graph0" class="graph" transform="scale(1 1) rotate(0) translate(4 242.8)">
<title>dependencies</title>
<polygon fill="white" stroke="transparent" points="-4,4 -4,-242.8 932,-242.8 932,4 -4,4"/>
<text text-anchor="middle" x="464" y="-8.2" font-family="sans-serif" font-size="14.00">dependencies</text>
<g id="clust1" class="cluster">
<title>cluster_SafeWidgetModule</title>
<polygon fill="none" stroke="black" stroke-dasharray="1,5" points="8,-32.8 8,-230.8 920,-230.8 920,-32.8 8,-32.8"/>
</g>
<g id="clust2" class="cluster">
<title>cluster_SafeWidgetModule_declarations</title>
<polygon fill="none" stroke="black" points="748,-40.8 748,-92.8 912,-92.8 912,-40.8 748,-40.8"/>
</g>
<g id="clust5" class="cluster">
<title>cluster_SafeWidgetModule_exports</title>
<polygon fill="none" stroke="black" points="379,-170.8 379,-222.8 545,-222.8 545,-170.8 379,-170.8"/>
</g>
<g id="clust4" class="cluster">
<title>cluster_SafeWidgetModule_imports</title>
<polygon fill="none" stroke="black" points="16,-40.8 16,-92.8 740,-92.8 740,-40.8 16,-40.8"/>
</g>
<!-- SafeWidgetComponent -->
<g id="node1" class="node">
<title>SafeWidgetComponent</title>
<polygon fill="#ffffb3" stroke="black" points="903.91,-84.8 756.09,-84.8 756.09,-48.8 903.91,-48.8 903.91,-84.8"/>
<text text-anchor="middle" x="830" y="-62.6" font-family="Times,serif" font-size="14.00">SafeWidgetComponent</text>
</g>
<!-- SafeWidgetModule -->
<g id="node2" class="node">
<title>SafeWidgetModule</title>
<polygon fill="#8dd3c7" stroke="black" points="524.64,-149.8 521.64,-153.8 500.64,-153.8 497.64,-149.8 399.36,-149.8 399.36,-113.8 524.64,-113.8 524.64,-149.8"/>
<text text-anchor="middle" x="462" y="-127.6" font-family="Times,serif" font-size="14.00">SafeWidgetModule</text>
</g>
<!-- SafeWidgetComponent&#45;&gt;SafeWidgetModule -->
<g id="edge1" class="edge">
<title>SafeWidgetComponent&#45;&gt;SafeWidgetModule</title>
<path fill="none" stroke="black" d="M830,-85.08C830,-106.12 830,-137.8 830,-137.8 830,-137.8 534.84,-137.8 534.84,-137.8"/>
<polygon fill="black" stroke="black" points="534.84,-134.3 524.84,-137.8 534.84,-141.3 534.84,-134.3"/>
</g>
<!-- SafeWidgetComponent  -->
<g id="node8" class="node">
<title>SafeWidgetComponent </title>
<polygon fill="#fb8072" stroke="black" points="537.41,-214.8 386.59,-214.8 386.59,-178.8 537.41,-178.8 537.41,-214.8"/>
<text text-anchor="middle" x="462" y="-192.6" font-family="Times,serif" font-size="14.00">SafeWidgetComponent </text>
</g>
<!-- SafeWidgetModule&#45;&gt;SafeWidgetComponent  -->
<g id="edge7" class="edge">
<title>SafeWidgetModule&#45;&gt;SafeWidgetComponent </title>
<path fill="none" stroke="black" stroke-dasharray="5,2" d="M462,-149.91C462,-149.91 462,-168.79 462,-168.79"/>
<polygon fill="black" stroke="black" points="458.5,-168.79 462,-178.79 465.5,-168.79 458.5,-168.79"/>
</g>
<!-- SafeChartModule -->
<g id="node3" class="node">
<title>SafeChartModule</title>
<polygon fill="#8dd3c7" stroke="black" points="731.53,-84.8 728.53,-88.8 707.53,-88.8 704.53,-84.8 616.47,-84.8 616.47,-48.8 731.53,-48.8 731.53,-84.8"/>
<text text-anchor="middle" x="674" y="-62.6" font-family="Times,serif" font-size="14.00">SafeChartModule</text>
</g>
<!-- SafeChartModule&#45;&gt;SafeWidgetModule -->
<g id="edge2" class="edge">
<title>SafeChartModule&#45;&gt;SafeWidgetModule</title>
<path fill="none" stroke="black" d="M674,-84.82C674,-102.17 674,-125.8 674,-125.8 674,-125.8 534.75,-125.8 534.75,-125.8"/>
<polygon fill="black" stroke="black" points="534.75,-122.3 524.75,-125.8 534.75,-129.3 534.75,-122.3"/>
</g>
<!-- SafeEditorModule -->
<g id="node4" class="node">
<title>SafeEditorModule</title>
<polygon fill="#8dd3c7" stroke="black" points="598.92,-84.8 595.92,-88.8 574.92,-88.8 571.92,-84.8 479.08,-84.8 479.08,-48.8 598.92,-48.8 598.92,-84.8"/>
<text text-anchor="middle" x="539" y="-62.6" font-family="Times,serif" font-size="14.00">SafeEditorModule</text>
</g>
<!-- SafeEditorModule&#45;&gt;SafeWidgetModule -->
<g id="edge3" class="edge">
<title>SafeEditorModule&#45;&gt;SafeWidgetModule</title>
<path fill="none" stroke="black" d="M502.05,-84.91C502.05,-84.91 502.05,-103.79 502.05,-103.79"/>
<polygon fill="black" stroke="black" points="498.55,-103.79 502.05,-113.79 505.55,-103.79 498.55,-103.79"/>
</g>
<!-- SafeGridWidgetModule -->
<g id="node5" class="node">
<title>SafeGridWidgetModule</title>
<polygon fill="#8dd3c7" stroke="black" points="461.8,-84.8 458.8,-88.8 437.8,-88.8 434.8,-84.8 310.2,-84.8 310.2,-48.8 461.8,-48.8 461.8,-84.8"/>
<text text-anchor="middle" x="386" y="-62.6" font-family="Times,serif" font-size="14.00">SafeGridWidgetModule</text>
</g>
<!-- SafeGridWidgetModule&#45;&gt;SafeWidgetModule -->
<g id="edge4" class="edge">
<title>SafeGridWidgetModule&#45;&gt;SafeWidgetModule</title>
<path fill="none" stroke="black" d="M430.42,-84.91C430.42,-84.91 430.42,-103.79 430.42,-103.79"/>
<polygon fill="black" stroke="black" points="426.92,-103.79 430.42,-113.79 433.92,-103.79 426.92,-103.79"/>
</g>
<!-- SafeMapModule -->
<g id="node6" class="node">
<title>SafeMapModule</title>
<polygon fill="#8dd3c7" stroke="black" points="292.09,-84.8 289.09,-88.8 268.09,-88.8 265.09,-84.8 181.91,-84.8 181.91,-48.8 292.09,-48.8 292.09,-84.8"/>
<text text-anchor="middle" x="237" y="-62.6" font-family="Times,serif" font-size="14.00">SafeMapModule</text>
</g>
<!-- SafeMapModule&#45;&gt;SafeWidgetModule -->
<g id="edge5" class="edge">
<title>SafeMapModule&#45;&gt;SafeWidgetModule</title>
<path fill="none" stroke="black" d="M237,-84.82C237,-102.17 237,-125.8 237,-125.8 237,-125.8 389.32,-125.8 389.32,-125.8"/>
<polygon fill="black" stroke="black" points="389.32,-129.3 399.32,-125.8 389.32,-122.3 389.32,-129.3"/>
</g>
<!-- SafeSchedulerModule -->
<g id="node7" class="node">
<title>SafeSchedulerModule</title>
<polygon fill="#8dd3c7" stroke="black" points="164.41,-84.8 161.41,-88.8 140.41,-88.8 137.41,-84.8 23.59,-84.8 23.59,-48.8 164.41,-48.8 164.41,-84.8"/>
<text text-anchor="middle" x="94" y="-62.6" font-family="Times,serif" font-size="14.00">SafeSchedulerModule</text>
</g>
<!-- SafeSchedulerModule&#45;&gt;SafeWidgetModule -->
<g id="edge6" class="edge">
<title>SafeSchedulerModule&#45;&gt;SafeWidgetModule</title>
<path fill="none" stroke="black" d="M94,-85.08C94,-106.12 94,-137.8 94,-137.8 94,-137.8 389.16,-137.8 389.16,-137.8"/>
<polygon fill="black" stroke="black" points="389.16,-141.3 399.16,-137.8 389.16,-134.3 389.16,-141.3"/>
</g>
</g>
</svg>
