<?xml version="1.0" encoding="UTF-8" standalone="no"?>
<!DOCTYPE svg PUBLIC "-//W3C//DTD SVG 1.1//EN"
 "http://www.w3.org/Graphics/SVG/1.1/DTD/svg11.dtd">
<!-- Generated by graphviz version 3.0.0 (20220226.1711)
 -->
<!-- Title: dependencies Pages: 1 -->
<svg width="881pt" height="247pt"
 viewBox="0.00 0.00 881.00 246.80" xmlns="http://www.w3.org/2000/svg" xmlns:xlink="http://www.w3.org/1999/xlink">
<g id="graph0" class="graph" transform="scale(1 1) rotate(0) translate(4 242.8)">
<title>dependencies</title>
<polygon fill="white" stroke="transparent" points="-4,4 -4,-242.8 877,-242.8 877,4 -4,4"/>
<text text-anchor="middle" x="436.5" y="-8.2" font-family="sans-serif" font-size="14.00">dependencies</text>
<g id="clust1" class="cluster">
<title>cluster_ApplicationsModule</title>
<polygon fill="none" stroke="black" stroke-dasharray="1,5" points="8,-32.8 8,-230.8 865,-230.8 865,-32.8 8,-32.8"/>
</g>
<g id="clust2" class="cluster">
<title>cluster_ApplicationsModule_declarations</title>
<polygon fill="none" stroke="black" points="528,-40.8 528,-92.8 857,-92.8 857,-40.8 528,-40.8"/>
</g>
<g id="clust6" class="cluster">
<title>cluster_ApplicationsModule_exports</title>
<polygon fill="none" stroke="black" points="338,-170.8 338,-222.8 510,-222.8 510,-170.8 338,-170.8"/>
</g>
<g id="clust5" class="cluster">
<title>cluster_ApplicationsModule_imports</title>
<polygon fill="none" stroke="black" points="16,-40.8 16,-92.8 520,-92.8 520,-40.8 16,-40.8"/>
</g>
<!-- ApplicationsComponent -->
<g id="node1" class="node">
<title>ApplicationsComponent</title>
<polygon fill="#ffffb3" stroke="black" points="849.38,-84.8 696.62,-84.8 696.62,-48.8 849.38,-48.8 849.38,-84.8"/>
<text text-anchor="middle" x="773" y="-62.6" font-family="Times,serif" font-size="14.00">ApplicationsComponent</text>
</g>
<!-- ApplicationsModule -->
<g id="node3" class="node">
<title>ApplicationsModule</title>
<polygon fill="#8dd3c7" stroke="black" points="489.6,-149.8 486.6,-153.8 465.6,-153.8 462.6,-149.8 358.4,-149.8 358.4,-113.8 489.6,-113.8 489.6,-149.8"/>
<text text-anchor="middle" x="424" y="-127.6" font-family="Times,serif" font-size="14.00">ApplicationsModule</text>
</g>
<!-- ApplicationsComponent&#45;&gt;ApplicationsModule -->
<g id="edge1" class="edge">
<title>ApplicationsComponent&#45;&gt;ApplicationsModule</title>
<path fill="none" stroke="black" d="M773,-85.08C773,-106.12 773,-137.8 773,-137.8 773,-137.8 499.64,-137.8 499.64,-137.8"/>
<polygon fill="black" stroke="black" points="499.64,-134.3 489.64,-137.8 499.64,-141.3 499.64,-134.3"/>
</g>
<!-- ChoseRoleComponent -->
<g id="node2" class="node">
<title>ChoseRoleComponent</title>
<polygon fill="#ffffb3" stroke="black" points="678.27,-84.8 535.73,-84.8 535.73,-48.8 678.27,-48.8 678.27,-84.8"/>
<text text-anchor="middle" x="607" y="-62.6" font-family="Times,serif" font-size="14.00">ChoseRoleComponent</text>
</g>
<!-- ChoseRoleComponent&#45;&gt;ApplicationsModule -->
<g id="edge2" class="edge">
<title>ChoseRoleComponent&#45;&gt;ApplicationsModule</title>
<path fill="none" stroke="black" d="M607,-84.82C607,-102.17 607,-125.8 607,-125.8 607,-125.8 499.55,-125.8 499.55,-125.8"/>
<polygon fill="black" stroke="black" points="499.55,-122.3 489.55,-125.8 499.55,-129.3 499.55,-122.3"/>
</g>
<!-- ApplicationsComponent  -->
<g id="node7" class="node">
<title>ApplicationsComponent </title>
<polygon fill="#fb8072" stroke="black" points="502.38,-214.8 345.62,-214.8 345.62,-178.8 502.38,-178.8 502.38,-214.8"/>
<text text-anchor="middle" x="424" y="-192.6" font-family="Times,serif" font-size="14.00">ApplicationsComponent </text>
</g>
<!-- ApplicationsModule&#45;&gt;ApplicationsComponent  -->
<g id="edge6" class="edge">
<title>ApplicationsModule&#45;&gt;ApplicationsComponent </title>
<path fill="none" stroke="black" stroke-dasharray="5,2" d="M424,-149.91C424,-149.91 424,-168.79 424,-168.79"/>
<polygon fill="black" stroke="black" points="420.5,-168.79 424,-178.79 427.5,-168.79 420.5,-168.79"/>
</g>
<!-- ApplicationsRoutingModule -->
<g id="node4" class="node">
<title>ApplicationsRoutingModule</title>
<polygon fill="#8dd3c7" stroke="black" points="512.21,-84.8 509.21,-88.8 488.21,-88.8 485.21,-84.8 335.79,-84.8 335.79,-48.8 512.21,-48.8 512.21,-84.8"/>
<text text-anchor="middle" x="424" y="-62.6" font-family="Times,serif" font-size="14.00">ApplicationsRoutingModule</text>
</g>
<!-- ApplicationsRoutingModule&#45;&gt;ApplicationsModule -->
<g id="edge3" class="edge">
<title>ApplicationsRoutingModule&#45;&gt;ApplicationsModule</title>
<path fill="none" stroke="black" d="M424,-84.91C424,-84.91 424,-103.79 424,-103.79"/>
<polygon fill="black" stroke="black" points="420.5,-103.79 424,-113.79 427.5,-103.79 420.5,-103.79"/>
</g>
<!-- DuplicateApplicationModule -->
<g id="node5" class="node">
<title>DuplicateApplicationModule</title>
<polygon fill="#8dd3c7" stroke="black" points="318.07,-84.8 315.07,-88.8 294.07,-88.8 291.07,-84.8 137.93,-84.8 137.93,-48.8 318.07,-48.8 318.07,-84.8"/>
<text text-anchor="middle" x="228" y="-62.6" font-family="Times,serif" font-size="14.00">DuplicateApplicationModule</text>
</g>
<!-- DuplicateApplicationModule&#45;&gt;ApplicationsModule -->
<g id="edge4" class="edge">
<title>DuplicateApplicationModule&#45;&gt;ApplicationsModule</title>
<path fill="none" stroke="black" d="M228,-84.82C228,-102.17 228,-125.8 228,-125.8 228,-125.8 348.19,-125.8 348.19,-125.8"/>
<polygon fill="black" stroke="black" points="348.19,-129.3 358.19,-125.8 348.19,-122.3 348.19,-129.3"/>
</g>
<!-- FormsModule -->
<g id="node6" class="node">
<title>FormsModule</title>
<polygon fill="#8dd3c7" stroke="black" points="119.84,-84.8 116.84,-88.8 95.84,-88.8 92.84,-84.8 24.16,-84.8 24.16,-48.8 119.84,-48.8 119.84,-84.8"/>
<text text-anchor="middle" x="72" y="-62.6" font-family="Times,serif" font-size="14.00">FormsModule</text>
</g>
<!-- FormsModule&#45;&gt;ApplicationsModule -->
<g id="edge5" class="edge">
<title>FormsModule&#45;&gt;ApplicationsModule</title>
<path fill="none" stroke="black" d="M72,-85.08C72,-106.12 72,-137.8 72,-137.8 72,-137.8 348.2,-137.8 348.2,-137.8"/>
<polygon fill="black" stroke="black" points="348.2,-141.3 358.2,-137.8 348.2,-134.3 348.2,-141.3"/>
</g>
</g>
</svg>
