<?xml version="1.0" encoding="UTF-8" standalone="no"?>
<!DOCTYPE svg PUBLIC "-//W3C//DTD SVG 1.1//EN"
 "http://www.w3.org/Graphics/SVG/1.1/DTD/svg11.dtd">
<!-- Generated by graphviz version 3.0.0 (20220226.1711)
 -->
<!-- Title: dependencies Pages: 1 -->
<svg width="595pt" height="247pt"
 viewBox="0.00 0.00 595.00 246.80" xmlns="http://www.w3.org/2000/svg" xmlns:xlink="http://www.w3.org/1999/xlink">
<g id="graph0" class="graph" transform="scale(1 1) rotate(0) translate(4 242.8)">
<title>dependencies</title>
<polygon fill="white" stroke="transparent" points="-4,4 -4,-242.8 591,-242.8 591,4 -4,4"/>
<text text-anchor="middle" x="293.5" y="-8.2" font-family="sans-serif" font-size="14.00">dependencies</text>
<g id="clust1" class="cluster">
<title>cluster_EditRoleAutoAssignmentModalModule</title>
<polygon fill="none" stroke="black" stroke-dasharray="1,5" points="8,-32.8 8,-230.8 579,-230.8 579,-32.8 8,-32.8"/>
</g>
<g id="clust5" class="cluster">
<title>cluster_EditRoleAutoAssignmentModalModule_exports</title>
<polygon fill="none" stroke="black" points="229,-170.8 229,-222.8 511,-222.8 511,-170.8 229,-170.8"/>
</g>
<g id="clust4" class="cluster">
<title>cluster_EditRoleAutoAssignmentModalModule_imports</title>
<polygon fill="none" stroke="black" points="302,-40.8 302,-92.8 571,-92.8 571,-40.8 302,-40.8"/>
</g>
<g id="clust2" class="cluster">
<title>cluster_EditRoleAutoAssignmentModalModule_declarations</title>
<polygon fill="none" stroke="black" points="16,-40.8 16,-92.8 294,-92.8 294,-40.8 16,-40.8"/>
</g>
<!-- EditRoleAutoAssignmentModalComponent -->
<g id="node1" class="node">
<title>EditRoleAutoAssignmentModalComponent</title>
<polygon fill="#ffffb3" stroke="black" points="286.05,-84.8 23.95,-84.8 23.95,-48.8 286.05,-48.8 286.05,-84.8"/>
<text text-anchor="middle" x="155" y="-62.6" font-family="Times,serif" font-size="14.00">EditRoleAutoAssignmentModalComponent</text>
</g>
<!-- EditRoleAutoAssignmentModalModule -->
<g id="node2" class="node">
<title>EditRoleAutoAssignmentModalModule</title>
<polygon fill="#8dd3c7" stroke="black" points="490.27,-149.8 487.27,-153.8 466.27,-153.8 463.27,-149.8 249.73,-149.8 249.73,-113.8 490.27,-113.8 490.27,-149.8"/>
<text text-anchor="middle" x="370" y="-127.6" font-family="Times,serif" font-size="14.00">EditRoleAutoAssignmentModalModule</text>
</g>
<!-- EditRoleAutoAssignmentModalComponent&#45;&gt;EditRoleAutoAssignmentModalModule -->
<g id="edge1" class="edge">
<title>EditRoleAutoAssignmentModalComponent&#45;&gt;EditRoleAutoAssignmentModalModule</title>
<path fill="none" stroke="black" d="M267.94,-84.91C267.94,-84.91 267.94,-103.79 267.94,-103.79"/>
<polygon fill="black" stroke="black" points="264.44,-103.79 267.94,-113.79 271.44,-103.79 264.44,-103.79"/>
</g>
<!-- EditRoleAutoAssignmentModalComponent  -->
<g id="node5" class="node">
<title>EditRoleAutoAssignmentModalComponent </title>
<polygon fill="#fb8072" stroke="black" points="503.04,-214.8 236.96,-214.8 236.96,-178.8 503.04,-178.8 503.04,-214.8"/>
<text text-anchor="middle" x="370" y="-192.6" font-family="Times,serif" font-size="14.00">EditRoleAutoAssignmentModalComponent </text>
</g>
<!-- EditRoleAutoAssignmentModalModule&#45;&gt;EditRoleAutoAssignmentModalComponent  -->
<g id="edge4" class="edge">
<title>EditRoleAutoAssignmentModalModule&#45;&gt;EditRoleAutoAssignmentModalComponent </title>
<path fill="none" stroke="black" stroke-dasharray="5,2" d="M370,-149.91C370,-149.91 370,-168.79 370,-168.79"/>
<polygon fill="black" stroke="black" points="366.5,-168.79 370,-178.79 373.5,-168.79 366.5,-168.79"/>
</g>
<!-- SafeFilterModule -->
<g id="node3" class="node">
<title>SafeFilterModule</title>
<polygon fill="#8dd3c7" stroke="black" points="563.26,-84.8 560.26,-88.8 539.26,-88.8 536.26,-84.8 448.74,-84.8 448.74,-48.8 563.26,-48.8 563.26,-84.8"/>
<text text-anchor="middle" x="506" y="-62.6" font-family="Times,serif" font-size="14.00">SafeFilterModule</text>
</g>
<!-- SafeFilterModule&#45;&gt;EditRoleAutoAssignmentModalModule -->
<g id="edge2" class="edge">
<title>SafeFilterModule&#45;&gt;EditRoleAutoAssignmentModalModule</title>
<path fill="none" stroke="black" d="M469.5,-84.91C469.5,-84.91 469.5,-103.79 469.5,-103.79"/>
<polygon fill="black" stroke="black" points="466,-103.79 469.5,-113.79 473,-103.79 466,-103.79"/>
</g>
<!-- SafeModalModule -->
<g id="node4" class="node">
<title>SafeModalModule</title>
<polygon fill="#8dd3c7" stroke="black" points="430.48,-84.8 427.48,-88.8 406.48,-88.8 403.48,-84.8 309.52,-84.8 309.52,-48.8 430.48,-48.8 430.48,-84.8"/>
<text text-anchor="middle" x="370" y="-62.6" font-family="Times,serif" font-size="14.00">SafeModalModule</text>
</g>
<!-- SafeModalModule&#45;&gt;EditRoleAutoAssignmentModalModule -->
<g id="edge3" class="edge">
<title>SafeModalModule&#45;&gt;EditRoleAutoAssignmentModalModule</title>
<path fill="none" stroke="black" d="M370,-84.91C370,-84.91 370,-103.79 370,-103.79"/>
<polygon fill="black" stroke="black" points="366.5,-103.79 370,-113.79 373.5,-103.79 366.5,-103.79"/>
</g>
</g>
</svg>
