<?xml version="1.0" encoding="UTF-8" standalone="no"?>
<!DOCTYPE svg PUBLIC "-//W3C//DTD SVG 1.1//EN"
 "http://www.w3.org/Graphics/SVG/1.1/DTD/svg11.dtd">
<!-- Generated by graphviz version 3.0.0 (20220226.1711)
 -->
<!-- Title: dependencies Pages: 1 -->
<svg width="595pt" height="247pt"
 viewBox="0.00 0.00 595.00 246.80" xmlns="http://www.w3.org/2000/svg" xmlns:xlink="http://www.w3.org/1999/xlink">
<g id="graph0" class="graph" transform="scale(1 1) rotate(0) translate(4 242.8)">
<title>dependencies</title>
<polygon fill="white" stroke="transparent" points="-4,4 -4,-242.8 591,-242.8 591,4 -4,4"/>
<text text-anchor="middle" x="293.5" y="-8.2" font-family="sans-serif" font-size="14.00">dependencies</text>
<g id="clust1" class="cluster">
<title>cluster_EditRoleAutoAssignmentModalModule</title>
<polygon fill="none" stroke="black" stroke-dasharray="1,5" points="8,-32.8 8,-230.8 579,-230.8 579,-32.8 8,-32.8"/>
</g>
<g id="clust2" class="cluster">
<title>cluster_EditRoleAutoAssignmentModalModule_declarations</title>
<polygon fill="none" stroke="black" points="293,-40.8 293,-92.8 571,-92.8 571,-40.8 293,-40.8"/>
</g>
<g id="clust5" class="cluster">
<title>cluster_EditRoleAutoAssignmentModalModule_exports</title>
<polygon fill="none" stroke="black" points="79,-170.8 79,-222.8 361,-222.8 361,-170.8 79,-170.8"/>
</g>
<g id="clust4" class="cluster">
<title>cluster_EditRoleAutoAssignmentModalModule_imports</title>
<polygon fill="none" stroke="black" points="16,-40.8 16,-92.8 285,-92.8 285,-40.8 16,-40.8"/>
</g>
<!-- EditRoleAutoAssignmentModalComponent -->
<g id="node1" class="node">
<title>EditRoleAutoAssignmentModalComponent</title>
<polygon fill="#ffffb3" stroke="black" points="563.05,-84.8 300.95,-84.8 300.95,-48.8 563.05,-48.8 563.05,-84.8"/>
<text text-anchor="middle" x="432" y="-62.6" font-family="Times,serif" font-size="14.00">EditRoleAutoAssignmentModalComponent</text>
</g>
<!-- EditRoleAutoAssignmentModalModule -->
<g id="node2" class="node">
<title>EditRoleAutoAssignmentModalModule</title>
<polygon fill="#8dd3c7" stroke="black" points="340.27,-149.8 337.27,-153.8 316.27,-153.8 313.27,-149.8 99.73,-149.8 99.73,-113.8 340.27,-113.8 340.27,-149.8"/>
<text text-anchor="middle" x="220" y="-127.6" font-family="Times,serif" font-size="14.00">EditRoleAutoAssignmentModalModule</text>
</g>
<!-- EditRoleAutoAssignmentModalComponent&#45;&gt;EditRoleAutoAssignmentModalModule -->
<g id="edge1" class="edge">
<title>EditRoleAutoAssignmentModalComponent&#45;&gt;EditRoleAutoAssignmentModalModule</title>
<path fill="none" stroke="black" d="M320.56,-84.91C320.56,-84.91 320.56,-103.79 320.56,-103.79"/>
<polygon fill="black" stroke="black" points="317.06,-103.79 320.56,-113.79 324.06,-103.79 317.06,-103.79"/>
</g>
<!-- EditRoleAutoAssignmentModalComponent  -->
<g id="node5" class="node">
<title>EditRoleAutoAssignmentModalComponent </title>
<polygon fill="#fb8072" stroke="black" points="353.04,-214.8 86.96,-214.8 86.96,-178.8 353.04,-178.8 353.04,-214.8"/>
<text text-anchor="middle" x="220" y="-192.6" font-family="Times,serif" font-size="14.00">EditRoleAutoAssignmentModalComponent </text>
</g>
<!-- EditRoleAutoAssignmentModalModule&#45;&gt;EditRoleAutoAssignmentModalComponent  -->
<g id="edge4" class="edge">
<title>EditRoleAutoAssignmentModalModule&#45;&gt;EditRoleAutoAssignmentModalComponent </title>
<path fill="none" stroke="black" stroke-dasharray="5,2" d="M220,-149.91C220,-149.91 220,-168.79 220,-168.79"/>
<polygon fill="black" stroke="black" points="216.5,-168.79 220,-178.79 223.5,-168.79 216.5,-168.79"/>
</g>
<!-- SafeFilterModule -->
<g id="node3" class="node">
<title>SafeFilterModule</title>
<polygon fill="#8dd3c7" stroke="black" points="277.26,-84.8 274.26,-88.8 253.26,-88.8 250.26,-84.8 162.74,-84.8 162.74,-48.8 277.26,-48.8 277.26,-84.8"/>
<text text-anchor="middle" x="220" y="-62.6" font-family="Times,serif" font-size="14.00">SafeFilterModule</text>
</g>
<!-- SafeFilterModule&#45;&gt;EditRoleAutoAssignmentModalModule -->
<g id="edge2" class="edge">
<title>SafeFilterModule&#45;&gt;EditRoleAutoAssignmentModalModule</title>
<path fill="none" stroke="black" d="M220,-84.91C220,-84.91 220,-103.79 220,-103.79"/>
<polygon fill="black" stroke="black" points="216.5,-103.79 220,-113.79 223.5,-103.79 216.5,-103.79"/>
</g>
<!-- SafeModalModule -->
<g id="node4" class="node">
<title>SafeModalModule</title>
<polygon fill="#8dd3c7" stroke="black" points="144.48,-84.8 141.48,-88.8 120.48,-88.8 117.48,-84.8 23.52,-84.8 23.52,-48.8 144.48,-48.8 144.48,-84.8"/>
<text text-anchor="middle" x="84" y="-62.6" font-family="Times,serif" font-size="14.00">SafeModalModule</text>
</g>
<!-- SafeModalModule&#45;&gt;EditRoleAutoAssignmentModalModule -->
<g id="edge3" class="edge">
<title>SafeModalModule&#45;&gt;EditRoleAutoAssignmentModalModule</title>
<path fill="none" stroke="black" d="M122.05,-84.91C122.05,-84.91 122.05,-103.79 122.05,-103.79"/>
<polygon fill="black" stroke="black" points="118.55,-103.79 122.05,-113.79 125.55,-103.79 118.55,-103.79"/>
</g>
</g>
</svg>
