<?xml version="1.0" encoding="UTF-8" standalone="no"?>
<!DOCTYPE svg PUBLIC "-//W3C//DTD SVG 1.1//EN"
 "http://www.w3.org/Graphics/SVG/1.1/DTD/svg11.dtd">
<!-- Generated by graphviz version 3.0.0 (20220226.1711)
 -->
<!-- Title: dependencies Pages: 1 -->
<svg width="1021pt" height="247pt"
 viewBox="0.00 0.00 1021.00 246.80" xmlns="http://www.w3.org/2000/svg" xmlns:xlink="http://www.w3.org/1999/xlink">
<g id="graph0" class="graph" transform="scale(1 1) rotate(0) translate(4 242.8)">
<title>dependencies</title>
<polygon fill="white" stroke="transparent" points="-4,4 -4,-242.8 1017,-242.8 1017,4 -4,4"/>
<text text-anchor="middle" x="506.5" y="-8.2" font-family="sans-serif" font-size="14.00">dependencies</text>
<g id="clust1" class="cluster">
<title>cluster_SafeApplicationsSummaryModule</title>
<polygon fill="none" stroke="black" stroke-dasharray="1,5" points="8,-32.8 8,-230.8 1005,-230.8 1005,-32.8 8,-32.8"/>
</g>
<g id="clust2" class="cluster">
<title>cluster_SafeApplicationsSummaryModule_declarations</title>
<polygon fill="none" stroke="black" points="290,-40.8 290,-92.8 997,-92.8 997,-40.8 290,-40.8"/>
</g>
<g id="clust6" class="cluster">
<title>cluster_SafeApplicationsSummaryModule_imports</title>
<polygon fill="none" stroke="black" points="16,-40.8 16,-92.8 282,-92.8 282,-40.8 16,-40.8"/>
</g>
<g id="clust7" class="cluster">
<title>cluster_SafeApplicationsSummaryModule_exports</title>
<polygon fill="none" stroke="black" points="37,-170.8 37,-222.8 755,-222.8 755,-170.8 37,-170.8"/>
</g>
<!-- SafeAddApplicationComponent -->
<g id="node1" class="node">
<title>SafeAddApplicationComponent</title>
<polygon fill="#ffffb3" stroke="black" points="989.41,-84.8 792.59,-84.8 792.59,-48.8 989.41,-48.8 989.41,-84.8"/>
<text text-anchor="middle" x="891" y="-62.6" font-family="Times,serif" font-size="14.00">SafeAddApplicationComponent</text>
</g>
<!-- SafeApplicationsSummaryModule -->
<g id="node4" class="node">
<title>SafeApplicationsSummaryModule</title>
<polygon fill="#8dd3c7" stroke="black" points="519.41,-149.8 516.41,-153.8 495.41,-153.8 492.41,-149.8 308.59,-149.8 308.59,-113.8 519.41,-113.8 519.41,-149.8"/>
<text text-anchor="middle" x="414" y="-127.6" font-family="Times,serif" font-size="14.00">SafeApplicationsSummaryModule</text>
</g>
<!-- SafeAddApplicationComponent&#45;&gt;SafeApplicationsSummaryModule -->
<g id="edge1" class="edge">
<title>SafeAddApplicationComponent&#45;&gt;SafeApplicationsSummaryModule</title>
<path fill="none" stroke="black" d="M891,-84.91C891,-104.14 891,-131.8 891,-131.8 891,-131.8 529.27,-131.8 529.27,-131.8"/>
<polygon fill="black" stroke="black" points="529.27,-128.3 519.27,-131.8 529.27,-135.3 529.27,-128.3"/>
</g>
<!-- SafeApplicationSummaryComponent -->
<g id="node2" class="node">
<title>SafeApplicationSummaryComponent</title>
<polygon fill="#ffffb3" stroke="black" points="774.25,-84.8 547.75,-84.8 547.75,-48.8 774.25,-48.8 774.25,-84.8"/>
<text text-anchor="middle" x="661" y="-62.6" font-family="Times,serif" font-size="14.00">SafeApplicationSummaryComponent</text>
</g>
<!-- SafeApplicationSummaryComponent&#45;&gt;SafeApplicationsSummaryModule -->
<g id="edge2" class="edge">
<title>SafeApplicationSummaryComponent&#45;&gt;SafeApplicationsSummaryModule</title>
<path fill="none" stroke="black" d="M614.07,-84.83C614.07,-101.2 614.07,-122.8 614.07,-122.8 614.07,-122.8 529.31,-122.8 529.31,-122.8"/>
<polygon fill="black" stroke="black" points="529.31,-119.3 519.31,-122.8 529.31,-126.3 529.31,-119.3"/>
</g>
<!-- SafeApplicationsSummaryComponent -->
<g id="node3" class="node">
<title>SafeApplicationsSummaryComponent</title>
<polygon fill="#ffffb3" stroke="black" points="530.19,-84.8 297.81,-84.8 297.81,-48.8 530.19,-48.8 530.19,-84.8"/>
<text text-anchor="middle" x="414" y="-62.6" font-family="Times,serif" font-size="14.00">SafeApplicationsSummaryComponent</text>
</g>
<!-- SafeApplicationsSummaryComponent&#45;&gt;SafeApplicationsSummaryModule -->
<g id="edge3" class="edge">
<title>SafeApplicationsSummaryComponent&#45;&gt;SafeApplicationsSummaryModule</title>
<path fill="none" stroke="black" d="M414,-84.91C414,-84.91 414,-103.79 414,-103.79"/>
<polygon fill="black" stroke="black" points="410.5,-103.79 414,-113.79 417.5,-103.79 410.5,-103.79"/>
</g>
<!-- SafeAddApplicationComponent  -->
<g id="node7" class="node">
<title>SafeAddApplicationComponent </title>
<polygon fill="#fb8072" stroke="black" points="746.91,-214.8 547.09,-214.8 547.09,-178.8 746.91,-178.8 746.91,-214.8"/>
<text text-anchor="middle" x="647" y="-192.6" font-family="Times,serif" font-size="14.00">SafeAddApplicationComponent </text>
</g>
<!-- SafeApplicationsSummaryModule&#45;&gt;SafeAddApplicationComponent  -->
<g id="edge6" class="edge">
<title>SafeApplicationsSummaryModule&#45;&gt;SafeAddApplicationComponent </title>
<path fill="none" stroke="black" stroke-dasharray="5,2" d="M519.33,-140.8C593.83,-140.8 680.51,-140.8 680.51,-140.8 680.51,-140.8 680.51,-168.77 680.51,-168.77"/>
<polygon fill="black" stroke="black" points="677.01,-168.77 680.51,-178.77 684.01,-168.77 677.01,-168.77"/>
</g>
<!-- SafeApplicationSummaryComponent  -->
<g id="node8" class="node">
<title>SafeApplicationSummaryComponent </title>
<polygon fill="#fb8072" stroke="black" points="529.25,-214.8 298.75,-214.8 298.75,-178.8 529.25,-178.8 529.25,-214.8"/>
<text text-anchor="middle" x="414" y="-192.6" font-family="Times,serif" font-size="14.00">SafeApplicationSummaryComponent </text>
</g>
<!-- SafeApplicationsSummaryModule&#45;&gt;SafeApplicationSummaryComponent  -->
<g id="edge7" class="edge">
<title>SafeApplicationsSummaryModule&#45;&gt;SafeApplicationSummaryComponent </title>
<path fill="none" stroke="black" stroke-dasharray="5,2" d="M414,-149.91C414,-149.91 414,-168.79 414,-168.79"/>
<polygon fill="black" stroke="black" points="410.5,-168.79 414,-178.79 417.5,-168.79 410.5,-168.79"/>
</g>
<!-- SafeApplicationsSummaryComponent  -->
<g id="node9" class="node">
<title>SafeApplicationsSummaryComponent </title>
<polygon fill="#fb8072" stroke="black" points="280.69,-214.8 45.31,-214.8 45.31,-178.8 280.69,-178.8 280.69,-214.8"/>
<text text-anchor="middle" x="163" y="-192.6" font-family="Times,serif" font-size="14.00">SafeApplicationsSummaryComponent </text>
</g>
<!-- SafeApplicationsSummaryModule&#45;&gt;SafeApplicationsSummaryComponent  -->
<g id="edge8" class="edge">
<title>SafeApplicationsSummaryModule&#45;&gt;SafeApplicationsSummaryComponent </title>
<path fill="none" stroke="black" stroke-dasharray="5,2" d="M308.48,-140.8C251.45,-140.8 192.58,-140.8 192.58,-140.8 192.58,-140.8 192.58,-168.77 192.58,-168.77"/>
<polygon fill="black" stroke="black" points="189.08,-168.77 192.58,-178.77 196.08,-168.77 189.08,-168.77"/>
</g>
<!-- SafeButtonModule -->
<g id="node5" class="node">
<title>SafeButtonModule</title>
<polygon fill="#8dd3c7" stroke="black" points="274.05,-84.8 271.05,-88.8 250.05,-88.8 247.05,-84.8 151.95,-84.8 151.95,-48.8 274.05,-48.8 274.05,-84.8"/>
<text text-anchor="middle" x="213" y="-62.6" font-family="Times,serif" font-size="14.00">SafeButtonModule</text>
</g>
<!-- SafeButtonModule&#45;&gt;SafeApplicationsSummaryModule -->
<g id="edge4" class="edge">
<title>SafeButtonModule&#45;&gt;SafeApplicationsSummaryModule</title>
<path fill="none" stroke="black" d="M233.42,-84.83C233.42,-101.2 233.42,-122.8 233.42,-122.8 233.42,-122.8 298.7,-122.8 298.7,-122.8"/>
<polygon fill="black" stroke="black" points="298.7,-126.3 308.7,-122.8 298.7,-119.3 298.7,-126.3"/>
</g>
<!-- SafeIconModule -->
<g id="node6" class="node">
<title>SafeIconModule</title>
<polygon fill="#8dd3c7" stroke="black" points="133.8,-84.8 130.8,-88.8 109.8,-88.8 106.8,-84.8 24.2,-84.8 24.2,-48.8 133.8,-48.8 133.8,-84.8"/>
<text text-anchor="middle" x="79" y="-62.6" font-family="Times,serif" font-size="14.00">SafeIconModule</text>
</g>
<!-- SafeIconModule&#45;&gt;SafeApplicationsSummaryModule -->
<g id="edge5" class="edge">
<title>SafeIconModule&#45;&gt;SafeApplicationsSummaryModule</title>
<path fill="none" stroke="black" d="M89.4,-84.91C89.4,-104.14 89.4,-131.8 89.4,-131.8 89.4,-131.8 298.61,-131.8 298.61,-131.8"/>
<polygon fill="black" stroke="black" points="298.61,-135.3 308.61,-131.8 298.61,-128.3 298.61,-135.3"/>
</g>
</g>
</svg>
