<?xml version="1.0" encoding="UTF-8" standalone="no"?>
<!DOCTYPE svg PUBLIC "-//W3C//DTD SVG 1.1//EN"
 "http://www.w3.org/Graphics/SVG/1.1/DTD/svg11.dtd">
<!-- Generated by graphviz version 3.0.0 (20220226.1711)
 -->
<!-- Title: dependencies Pages: 1 -->
<svg width="3398pt" height="358pt"
 viewBox="0.00 0.00 3398.00 358.39" xmlns="http://www.w3.org/2000/svg" xmlns:xlink="http://www.w3.org/1999/xlink">
<g id="graph0" class="graph" transform="scale(1 1) rotate(0) translate(4 354.39)">
<title>dependencies</title>
<polygon fill="white" stroke="transparent" points="-4,4 -4,-354.39 3394,-354.39 3394,4 -4,4"/>
<text text-anchor="middle" x="1695" y="-8.2" font-family="sans-serif" font-size="14.00">dependencies</text>
<g id="clust1" class="cluster">
<title>cluster_SafeGridModule</title>
<polygon fill="none" stroke="black" stroke-dasharray="1,5" points="8,-32.8 8,-342.39 3382,-342.39 3382,-32.8 8,-32.8"/>
</g>
<g id="clust2" class="cluster">
<title>cluster_SafeGridModule_declarations</title>
<polygon fill="none" stroke="black" points="2553,-152.39 2553,-204.39 2701,-204.39 2701,-152.39 2553,-152.39"/>
</g>
<g id="clust3" class="cluster">
<title>cluster_SafeGridModule_SafeGridComponent_providers</title>
<polygon fill="none" stroke="black" points="16,-40.8 16,-139.39 3374,-139.39 3374,-40.8 16,-40.8"/>
</g>
<g id="clust5" class="cluster">
<title>cluster_SafeGridModule_exports</title>
<polygon fill="none" stroke="black" points="1619,-282.39 1619,-334.39 1771,-334.39 1771,-282.39 1619,-282.39"/>
</g>
<g id="clust4" class="cluster">
<title>cluster_SafeGridModule_imports</title>
<polygon fill="none" stroke="black" points="598,-152.39 598,-204.39 2545,-204.39 2545,-152.39 598,-152.39"/>
</g>
<!-- SafeGridComponent -->
<g id="node1" class="node">
<title>SafeGridComponent</title>
<polygon fill="#ffffb3" stroke="black" points="2692.87,-196.39 2561.13,-196.39 2561.13,-160.39 2692.87,-160.39 2692.87,-196.39"/>
<text text-anchor="middle" x="2627" y="-174.19" font-family="Times,serif" font-size="14.00">SafeGridComponent</text>
</g>
<!-- SafeGridModule -->
<g id="node2" class="node">
<title>SafeGridModule</title>
<polygon fill="#8dd3c7" stroke="black" points="1750.09,-261.39 1747.09,-265.39 1726.09,-265.39 1723.09,-261.39 1639.91,-261.39 1639.91,-225.39 1750.09,-225.39 1750.09,-261.39"/>
<text text-anchor="middle" x="1695" y="-239.19" font-family="Times,serif" font-size="14.00">SafeGridModule</text>
</g>
<!-- SafeGridComponent&#45;&gt;SafeGridModule -->
<g id="edge1" class="edge">
<title>SafeGridComponent&#45;&gt;SafeGridModule</title>
<path fill="none" stroke="black" d="M2627,-196.64C2627,-219.41 2627,-255.39 2627,-255.39 2627,-255.39 1760.17,-255.39 1760.17,-255.39"/>
<polygon fill="black" stroke="black" points="1760.17,-251.89 1750.17,-255.39 1760.17,-258.89 1760.17,-251.89"/>
</g>
<!-- SafeGridComponent  -->
<g id="node22" class="node">
<title>SafeGridComponent </title>
<polygon fill="#fb8072" stroke="black" points="1762.87,-326.39 1627.13,-326.39 1627.13,-290.39 1762.87,-290.39 1762.87,-326.39"/>
<text text-anchor="middle" x="1695" y="-304.19" font-family="Times,serif" font-size="14.00">SafeGridComponent </text>
</g>
<!-- SafeGridModule&#45;&gt;SafeGridComponent  -->
<g id="edge21" class="edge">
<title>SafeGridModule&#45;&gt;SafeGridComponent </title>
<path fill="none" stroke="black" stroke-dasharray="5,2" d="M1695,-261.5C1695,-261.5 1695,-280.38 1695,-280.38"/>
<polygon fill="black" stroke="black" points="1691.5,-280.38 1695,-290.38 1698.5,-280.38 1691.5,-280.38"/>
</g>
<!-- PopupService -->
<g id="node3" class="node">
<title>PopupService</title>
<ellipse fill="#fdb462" stroke="black" cx="3301" cy="-90.1" rx="64.86" ry="18"/>
<text text-anchor="middle" x="3301" y="-85.9" font-family="Times,serif" font-size="14.00">PopupService</text>
</g>
<!-- PopupService&#45;&gt;SafeGridComponent -->
<g id="edge2" class="edge">
<title>PopupService&#45;&gt;SafeGridComponent</title>
<path fill="none" stroke="black" d="M3301,-108.4C3301,-136.58 3301,-187.39 3301,-187.39 3301,-187.39 2703.16,-187.39 2703.16,-187.39"/>
<polygon fill="black" stroke="black" points="2703.16,-183.89 2693.16,-187.39 2703.16,-190.89 2703.16,-183.89"/>
</g>
<!-- ResizeBatchService -->
<g id="node4" class="node">
<title>ResizeBatchService</title>
<ellipse fill="#fdb462" stroke="black" cx="3130" cy="-90.1" rx="88.02" ry="18"/>
<text text-anchor="middle" x="3130" y="-85.9" font-family="Times,serif" font-size="14.00">ResizeBatchService</text>
</g>
<!-- ResizeBatchService&#45;&gt;SafeGridComponent -->
<g id="edge3" class="edge">
<title>ResizeBatchService&#45;&gt;SafeGridComponent</title>
<path fill="none" stroke="black" d="M3130,-108.39C3130,-134.25 3130,-178.39 3130,-178.39 3130,-178.39 2703.02,-178.39 2703.02,-178.39"/>
<polygon fill="black" stroke="black" points="2703.02,-174.89 2693.02,-178.39 2703.02,-181.89 2703.02,-174.89"/>
</g>
<!-- CalendarDOMService -->
<g id="node5" class="node">
<title>CalendarDOMService</title>
<ellipse fill="#fdb462" stroke="black" cx="2926" cy="-90.1" rx="97.27" ry="18"/>
<text text-anchor="middle" x="2926" y="-85.9" font-family="Times,serif" font-size="14.00">CalendarDOMService</text>
</g>
<!-- CalendarDOMService&#45;&gt;SafeGridComponent -->
<g id="edge4" class="edge">
<title>CalendarDOMService&#45;&gt;SafeGridComponent</title>
<path fill="none" stroke="black" d="M2926,-108.49C2926,-131.91 2926,-169.39 2926,-169.39 2926,-169.39 2702.99,-169.39 2702.99,-169.39"/>
<polygon fill="black" stroke="black" points="2702.99,-165.89 2692.99,-169.39 2702.99,-172.89 2702.99,-165.89"/>
</g>
<!-- MonthViewService -->
<g id="node6" class="node">
<title>MonthViewService</title>
<ellipse fill="#fdb462" stroke="black" cx="2724" cy="-90.1" rx="86.83" ry="18"/>
<text text-anchor="middle" x="2724" y="-85.9" font-family="Times,serif" font-size="14.00">MonthViewService</text>
</g>
<!-- MonthViewService&#45;&gt;SafeGridComponent -->
<g id="edge5" class="edge">
<title>MonthViewService&#45;&gt;SafeGridComponent</title>
<path fill="none" stroke="black" d="M2665.13,-103.51C2665.13,-103.51 2665.13,-150.25 2665.13,-150.25"/>
<polygon fill="black" stroke="black" points="2661.63,-150.25 2665.13,-160.25 2668.63,-150.25 2661.63,-150.25"/>
</g>
<!-- WeekNamesService -->
<g id="node7" class="node">
<title>WeekNamesService</title>
<ellipse fill="#fdb462" stroke="black" cx="2530" cy="-90.1" rx="89.15" ry="18"/>
<text text-anchor="middle" x="2530" y="-85.9" font-family="Times,serif" font-size="14.00">WeekNamesService</text>
</g>
<!-- WeekNamesService&#45;&gt;SafeGridComponent -->
<g id="edge6" class="edge">
<title>WeekNamesService&#45;&gt;SafeGridComponent</title>
<path fill="none" stroke="black" d="M2607.67,-99.21C2607.67,-99.21 2607.67,-150.32 2607.67,-150.32"/>
<polygon fill="black" stroke="black" points="2604.17,-150.32 2607.67,-160.32 2611.17,-150.32 2604.17,-150.32"/>
</g>
<!-- {
 &#160;&#160;&#160;provide: MAT_SELECT_SCROLL_STRATEGY, useFactory: scrollFactory, deps: [Overlay],
} -->
<g id="node8" class="node">
<title>{
 &#160;&#160;&#160;provide: MAT_SELECT_SCROLL_STRATEGY, useFactory: scrollFactory, deps: [Overlay],
}</title>
<ellipse fill="#fdb462" stroke="black" cx="2028" cy="-90.1" rx="394.68" ry="41.09"/>
<text text-anchor="middle" x="2028" y="-102.7" font-family="Times,serif" font-size="14.00">{</text>
<text text-anchor="middle" x="2028" y="-85.9" font-family="Times,serif" font-size="14.00"> &#160;&#160;&#160;provide: MAT_SELECT_SCROLL_STRATEGY, useFactory: scrollFactory, deps: [Overlay],</text>
<text text-anchor="middle" x="2028" y="-69.1" font-family="Times,serif" font-size="14.00">}</text>
</g>
<!-- {
 &#160;&#160;&#160;provide: MAT_SELECT_SCROLL_STRATEGY, useFactory: scrollFactory, deps: [Overlay],
}&#45;&gt;SafeGridComponent -->
<g id="edge7" class="edge">
<title>{
 &#160;&#160;&#160;provide: MAT_SELECT_SCROLL_STRATEGY, useFactory: scrollFactory, deps: [Overlay],
}&#45;&gt;SafeGridComponent</title>
<path fill="none" stroke="black" d="M2296.21,-120.39C2443.28,-120.39 2596.02,-120.39 2596.02,-120.39 2596.02,-120.39 2596.02,-150.36 2596.02,-150.36"/>
<polygon fill="black" stroke="black" points="2592.52,-150.36 2596.02,-160.36 2599.52,-150.36 2592.52,-150.36"/>
</g>
<!-- {
 &#160;&#160;&#160;provide: MAT_TOOLTIP_SCROLL_STRATEGY, useFactory: scrollFactory, deps: [Overlay],
} -->
<g id="node9" class="node">
<title>{
 &#160;&#160;&#160;provide: MAT_TOOLTIP_SCROLL_STRATEGY, useFactory: scrollFactory, deps: [Overlay],
}</title>
<ellipse fill="#fdb462" stroke="black" cx="1216" cy="-90.1" rx="399.57" ry="41.09"/>
<text text-anchor="middle" x="1216" y="-102.7" font-family="Times,serif" font-size="14.00">{</text>
<text text-anchor="middle" x="1216" y="-85.9" font-family="Times,serif" font-size="14.00"> &#160;&#160;&#160;provide: MAT_TOOLTIP_SCROLL_STRATEGY, useFactory: scrollFactory, deps: [Overlay],</text>
<text text-anchor="middle" x="1216" y="-69.1" font-family="Times,serif" font-size="14.00">}</text>
</g>
<!-- {
 &#160;&#160;&#160;provide: MAT_TOOLTIP_SCROLL_STRATEGY, useFactory: scrollFactory, deps: [Overlay],
}&#45;&gt;SafeGridComponent -->
<g id="edge8" class="edge">
<title>{
 &#160;&#160;&#160;provide: MAT_TOOLTIP_SCROLL_STRATEGY, useFactory: scrollFactory, deps: [Overlay],
}&#45;&gt;SafeGridComponent</title>
<path fill="none" stroke="black" d="M1559.61,-111.25C1559.61,-125.38 1559.61,-141.39 1559.61,-141.39 1559.61,-141.39 2584.37,-141.39 2584.37,-141.39 2584.37,-141.39 2584.37,-150.32 2584.37,-150.32"/>
<polygon fill="black" stroke="black" points="2580.87,-150.32 2584.37,-160.32 2587.87,-150.32 2580.87,-150.32"/>
</g>
<!-- {
 &#160;&#160;&#160;provide: MAT_MENU_SCROLL_STRATEGY, useFactory: scrollFactory, deps: [Overlay],
} -->
<g id="node10" class="node">
<title>{
 &#160;&#160;&#160;provide: MAT_MENU_SCROLL_STRATEGY, useFactory: scrollFactory, deps: [Overlay],
}</title>
<ellipse fill="#fdb462" stroke="black" cx="411" cy="-90.1" rx="387.38" ry="41.09"/>
<text text-anchor="middle" x="411" y="-102.7" font-family="Times,serif" font-size="14.00">{</text>
<text text-anchor="middle" x="411" y="-85.9" font-family="Times,serif" font-size="14.00"> &#160;&#160;&#160;provide: MAT_MENU_SCROLL_STRATEGY, useFactory: scrollFactory, deps: [Overlay],</text>
<text text-anchor="middle" x="411" y="-69.1" font-family="Times,serif" font-size="14.00">}</text>
</g>
<!-- {
 &#160;&#160;&#160;provide: MAT_MENU_SCROLL_STRATEGY, useFactory: scrollFactory, deps: [Overlay],
}&#45;&gt;SafeGridComponent -->
<g id="edge9" class="edge">
<title>{
 &#160;&#160;&#160;provide: MAT_MENU_SCROLL_STRATEGY, useFactory: scrollFactory, deps: [Overlay],
}&#45;&gt;SafeGridComponent</title>
<path fill="none" stroke="black" d="M788.2,-99.67C788.2,-116.91 788.2,-151.39 788.2,-151.39 788.2,-151.39 2572.72,-151.39 2572.72,-151.39 2572.72,-151.39 2572.72,-152.27 2572.72,-152.27"/>
<polygon fill="black" stroke="black" points="2569.22,-150.23 2572.72,-160.23 2576.22,-150.23 2569.22,-150.23"/>
</g>
<!-- SafeArrayFilterMenuModule -->
<g id="node11" class="node">
<title>SafeArrayFilterMenuModule</title>
<polygon fill="#8dd3c7" stroke="black" points="2537.07,-196.39 2534.07,-200.39 2513.07,-200.39 2510.07,-196.39 2356.93,-196.39 2356.93,-160.39 2537.07,-160.39 2537.07,-196.39"/>
<text text-anchor="middle" x="2447" y="-174.19" font-family="Times,serif" font-size="14.00">SafeArrayFilterMenuModule</text>
</g>
<!-- SafeArrayFilterMenuModule&#45;&gt;SafeGridModule -->
<g id="edge10" class="edge">
<title>SafeArrayFilterMenuModule&#45;&gt;SafeGridModule</title>
<path fill="none" stroke="black" d="M2447,-196.67C2447,-217.71 2447,-249.39 2447,-249.39 2447,-249.39 1760.3,-249.39 1760.3,-249.39"/>
<polygon fill="black" stroke="black" points="1760.3,-245.89 1750.3,-249.39 1760.3,-252.89 1760.3,-245.89"/>
</g>
<!-- SafeArrayFilterModule -->
<g id="node12" class="node">
<title>SafeArrayFilterModule</title>
<polygon fill="#8dd3c7" stroke="black" points="2338.91,-196.39 2335.91,-200.39 2314.91,-200.39 2311.91,-196.39 2191.09,-196.39 2191.09,-160.39 2338.91,-160.39 2338.91,-196.39"/>
<text text-anchor="middle" x="2265" y="-174.19" font-family="Times,serif" font-size="14.00">SafeArrayFilterModule</text>
</g>
<!-- SafeArrayFilterModule&#45;&gt;SafeGridModule -->
<g id="edge11" class="edge">
<title>SafeArrayFilterModule&#45;&gt;SafeGridModule</title>
<path fill="none" stroke="black" d="M2265,-196.5C2265,-215.73 2265,-243.39 2265,-243.39 2265,-243.39 1760.17,-243.39 1760.17,-243.39"/>
<polygon fill="black" stroke="black" points="1760.17,-239.89 1750.17,-243.39 1760.17,-246.89 1760.17,-239.89"/>
</g>
<!-- SafeButtonModule -->
<g id="node13" class="node">
<title>SafeButtonModule</title>
<polygon fill="#8dd3c7" stroke="black" points="2173.05,-196.39 2170.05,-200.39 2149.05,-200.39 2146.05,-196.39 2050.95,-196.39 2050.95,-160.39 2173.05,-160.39 2173.05,-196.39"/>
<text text-anchor="middle" x="2112" y="-174.19" font-family="Times,serif" font-size="14.00">SafeButtonModule</text>
</g>
<!-- SafeButtonModule&#45;&gt;SafeGridModule -->
<g id="edge12" class="edge">
<title>SafeButtonModule&#45;&gt;SafeGridModule</title>
<path fill="none" stroke="black" d="M2112,-196.41C2112,-213.76 2112,-237.39 2112,-237.39 2112,-237.39 1760.37,-237.39 1760.37,-237.39"/>
<polygon fill="black" stroke="black" points="1760.37,-233.89 1750.37,-237.39 1760.37,-240.89 1760.37,-233.89"/>
</g>
<!-- SafeDateModule -->
<g id="node14" class="node">
<title>SafeDateModule</title>
<polygon fill="#8dd3c7" stroke="black" points="2032.36,-196.39 2029.36,-200.39 2008.36,-200.39 2005.36,-196.39 1921.64,-196.39 1921.64,-160.39 2032.36,-160.39 2032.36,-196.39"/>
<text text-anchor="middle" x="1977" y="-174.19" font-family="Times,serif" font-size="14.00">SafeDateModule</text>
</g>
<!-- SafeDateModule&#45;&gt;SafeGridModule -->
<g id="edge13" class="edge">
<title>SafeDateModule&#45;&gt;SafeGridModule</title>
<path fill="none" stroke="black" d="M1977,-196.63C1977,-211.96 1977,-231.39 1977,-231.39 1977,-231.39 1760.38,-231.39 1760.38,-231.39"/>
<polygon fill="black" stroke="black" points="1760.38,-227.89 1750.38,-231.39 1760.38,-234.89 1760.38,-227.89"/>
</g>
<!-- SafeDropdownFilterMenuModule -->
<g id="node15" class="node">
<title>SafeDropdownFilterMenuModule</title>
<polygon fill="#8dd3c7" stroke="black" points="1903.8,-196.39 1900.8,-200.39 1879.8,-200.39 1876.8,-196.39 1696.2,-196.39 1696.2,-160.39 1903.8,-160.39 1903.8,-196.39"/>
<text text-anchor="middle" x="1800" y="-174.19" font-family="Times,serif" font-size="14.00">SafeDropdownFilterMenuModule</text>
</g>
<!-- SafeDropdownFilterMenuModule&#45;&gt;SafeGridModule -->
<g id="edge14" class="edge">
<title>SafeDropdownFilterMenuModule&#45;&gt;SafeGridModule</title>
<path fill="none" stroke="black" d="M1723.2,-196.5C1723.2,-196.5 1723.2,-215.38 1723.2,-215.38"/>
<polygon fill="black" stroke="black" points="1719.7,-215.38 1723.2,-225.38 1726.7,-215.38 1719.7,-215.38"/>
</g>
<!-- SafeDropdownFilterModule -->
<g id="node16" class="node">
<title>SafeDropdownFilterModule</title>
<polygon fill="#8dd3c7" stroke="black" points="1678.14,-196.39 1675.14,-200.39 1654.14,-200.39 1651.14,-196.39 1503.86,-196.39 1503.86,-160.39 1678.14,-160.39 1678.14,-196.39"/>
<text text-anchor="middle" x="1591" y="-174.19" font-family="Times,serif" font-size="14.00">SafeDropdownFilterModule</text>
</g>
<!-- SafeDropdownFilterModule&#45;&gt;SafeGridModule -->
<g id="edge15" class="edge">
<title>SafeDropdownFilterModule&#45;&gt;SafeGridModule</title>
<path fill="none" stroke="black" d="M1659.14,-196.5C1659.14,-196.5 1659.14,-215.38 1659.14,-215.38"/>
<polygon fill="black" stroke="black" points="1655.64,-215.38 1659.14,-225.38 1662.64,-215.38 1655.64,-215.38"/>
</g>
<!-- SafeErrorsModalModule -->
<g id="node17" class="node">
<title>SafeErrorsModalModule</title>
<polygon fill="#8dd3c7" stroke="black" points="1485.97,-196.39 1482.97,-200.39 1461.97,-200.39 1458.97,-196.39 1330.03,-196.39 1330.03,-160.39 1485.97,-160.39 1485.97,-196.39"/>
<text text-anchor="middle" x="1408" y="-174.19" font-family="Times,serif" font-size="14.00">SafeErrorsModalModule</text>
</g>
<!-- SafeErrorsModalModule&#45;&gt;SafeGridModule -->
<g id="edge16" class="edge">
<title>SafeErrorsModalModule&#45;&gt;SafeGridModule</title>
<path fill="none" stroke="black" d="M1408,-196.63C1408,-211.96 1408,-231.39 1408,-231.39 1408,-231.39 1629.66,-231.39 1629.66,-231.39"/>
<polygon fill="black" stroke="black" points="1629.66,-234.89 1639.66,-231.39 1629.66,-227.89 1629.66,-234.89"/>
</g>
<!-- SafeExpandedCommentModule -->
<g id="node18" class="node">
<title>SafeExpandedCommentModule</title>
<polygon fill="#8dd3c7" stroke="black" points="1311.63,-196.39 1308.63,-200.39 1287.63,-200.39 1284.63,-196.39 1116.37,-196.39 1116.37,-160.39 1311.63,-160.39 1311.63,-196.39"/>
<text text-anchor="middle" x="1214" y="-174.19" font-family="Times,serif" font-size="14.00">SafeExpandedCommentModule</text>
</g>
<!-- SafeExpandedCommentModule&#45;&gt;SafeGridModule -->
<g id="edge17" class="edge">
<title>SafeExpandedCommentModule&#45;&gt;SafeGridModule</title>
<path fill="none" stroke="black" d="M1214,-196.41C1214,-213.76 1214,-237.39 1214,-237.39 1214,-237.39 1629.82,-237.39 1629.82,-237.39"/>
<polygon fill="black" stroke="black" points="1629.82,-240.89 1639.82,-237.39 1629.82,-233.89 1629.82,-240.89"/>
</g>
<!-- SafeExportModule -->
<g id="node19" class="node">
<title>SafeExportModule</title>
<polygon fill="#8dd3c7" stroke="black" points="1098.03,-196.39 1095.03,-200.39 1074.03,-200.39 1071.03,-196.39 975.97,-196.39 975.97,-160.39 1098.03,-160.39 1098.03,-196.39"/>
<text text-anchor="middle" x="1037" y="-174.19" font-family="Times,serif" font-size="14.00">SafeExportModule</text>
</g>
<!-- SafeExportModule&#45;&gt;SafeGridModule -->
<g id="edge18" class="edge">
<title>SafeExportModule&#45;&gt;SafeGridModule</title>
<path fill="none" stroke="black" d="M1037,-196.5C1037,-215.73 1037,-243.39 1037,-243.39 1037,-243.39 1629.75,-243.39 1629.75,-243.39"/>
<polygon fill="black" stroke="black" points="1629.75,-246.89 1639.75,-243.39 1629.75,-239.89 1629.75,-246.89"/>
</g>
<!-- SafeGridRowActionsModule -->
<g id="node20" class="node">
<title>SafeGridRowActionsModule</title>
<polygon fill="#8dd3c7" stroke="black" points="958.09,-196.39 955.09,-200.39 934.09,-200.39 931.09,-196.39 777.91,-196.39 777.91,-160.39 958.09,-160.39 958.09,-196.39"/>
<text text-anchor="middle" x="868" y="-174.19" font-family="Times,serif" font-size="14.00">SafeGridRowActionsModule</text>
</g>
<!-- SafeGridRowActionsModule&#45;&gt;SafeGridModule -->
<g id="edge19" class="edge">
<title>SafeGridRowActionsModule&#45;&gt;SafeGridModule</title>
<path fill="none" stroke="black" d="M868,-196.67C868,-217.71 868,-249.39 868,-249.39 868,-249.39 1629.78,-249.39 1629.78,-249.39"/>
<polygon fill="black" stroke="black" points="1629.78,-252.89 1639.78,-249.39 1629.78,-245.89 1629.78,-252.89"/>
</g>
<!-- SafeGridToolbarModule -->
<g id="node21" class="node">
<title>SafeGridToolbarModule</title>
<polygon fill="#8dd3c7" stroke="black" points="760.41,-196.39 757.41,-200.39 736.41,-200.39 733.41,-196.39 605.59,-196.39 605.59,-160.39 760.41,-160.39 760.41,-196.39"/>
<text text-anchor="middle" x="683" y="-174.19" font-family="Times,serif" font-size="14.00">SafeGridToolbarModule</text>
</g>
<!-- SafeGridToolbarModule&#45;&gt;SafeGridModule -->
<g id="edge20" class="edge">
<title>SafeGridToolbarModule&#45;&gt;SafeGridModule</title>
<path fill="none" stroke="black" d="M683,-196.64C683,-219.41 683,-255.39 683,-255.39 683,-255.39 1629.87,-255.39 1629.87,-255.39"/>
<polygon fill="black" stroke="black" points="1629.87,-258.89 1639.87,-255.39 1629.87,-251.89 1629.87,-258.89"/>
</g>
</g>
</svg>
