<?xml version="1.0" encoding="UTF-8" standalone="no"?>
<!DOCTYPE svg PUBLIC "-//W3C//DTD SVG 1.1//EN"
 "http://www.w3.org/Graphics/SVG/1.1/DTD/svg11.dtd">
<!-- Generated by graphviz version 3.0.0 (20220226.1711)
 -->
<!-- Title: dependencies Pages: 1 -->
<svg width="1083pt" height="247pt"
 viewBox="0.00 0.00 1083.00 246.80" xmlns="http://www.w3.org/2000/svg" xmlns:xlink="http://www.w3.org/1999/xlink">
<g id="graph0" class="graph" transform="scale(1 1) rotate(0) translate(4 242.8)">
<title>dependencies</title>
<polygon fill="white" stroke="transparent" points="-4,4 -4,-242.8 1079,-242.8 1079,4 -4,4"/>
<text text-anchor="middle" x="537.5" y="-8.2" font-family="sans-serif" font-size="14.00">dependencies</text>
<g id="clust1" class="cluster">
<title>cluster_SafeSearchResourceGridModalModule</title>
<polygon fill="none" stroke="black" stroke-dasharray="1,5" points="8,-32.8 8,-230.8 1067,-230.8 1067,-32.8 8,-32.8"/>
</g>
<g id="clust5" class="cluster">
<title>cluster_SafeSearchResourceGridModalModule_exports</title>
<polygon fill="none" stroke="black" points="455,-170.8 455,-222.8 695,-222.8 695,-170.8 455,-170.8"/>
</g>
<g id="clust4" class="cluster">
<title>cluster_SafeSearchResourceGridModalModule_imports</title>
<polygon fill="none" stroke="black" points="260,-40.8 260,-92.8 1059,-92.8 1059,-40.8 260,-40.8"/>
</g>
<g id="clust2" class="cluster">
<title>cluster_SafeSearchResourceGridModalModule_declarations</title>
<polygon fill="none" stroke="black" points="16,-40.8 16,-92.8 252,-92.8 252,-40.8 16,-40.8"/>
</g>
<!-- SafeResourceGridModalComponent -->
<g id="node1" class="node">
<title>SafeResourceGridModalComponent</title>
<polygon fill="#ffffb3" stroke="black" points="244.01,-84.8 23.99,-84.8 23.99,-48.8 244.01,-48.8 244.01,-84.8"/>
<text text-anchor="middle" x="134" y="-62.6" font-family="Times,serif" font-size="14.00">SafeResourceGridModalComponent</text>
</g>
<!-- SafeSearchResourceGridModalModule -->
<g id="node2" class="node">
<title>SafeSearchResourceGridModalModule</title>
<polygon fill="#8dd3c7" stroke="black" points="693.32,-149.8 690.32,-153.8 669.32,-153.8 666.32,-149.8 456.68,-149.8 456.68,-113.8 693.32,-113.8 693.32,-149.8"/>
<text text-anchor="middle" x="575" y="-127.6" font-family="Times,serif" font-size="14.00">SafeSearchResourceGridModalModule</text>
</g>
<!-- SafeResourceGridModalComponent&#45;&gt;SafeSearchResourceGridModalModule -->
<g id="edge1" class="edge">
<title>SafeResourceGridModalComponent&#45;&gt;SafeSearchResourceGridModalModule</title>
<path fill="none" stroke="black" d="M134,-84.91C134,-104.14 134,-131.8 134,-131.8 134,-131.8 446.53,-131.8 446.53,-131.8"/>
<polygon fill="black" stroke="black" points="446.53,-135.3 456.53,-131.8 446.53,-128.3 446.53,-135.3"/>
</g>
<!-- SafeResourceGridModalComponent  -->
<g id="node7" class="node">
<title>SafeResourceGridModalComponent </title>
<polygon fill="#fb8072" stroke="black" points="687.01,-214.8 462.99,-214.8 462.99,-178.8 687.01,-178.8 687.01,-214.8"/>
<text text-anchor="middle" x="575" y="-192.6" font-family="Times,serif" font-size="14.00">SafeResourceGridModalComponent </text>
</g>
<!-- SafeSearchResourceGridModalModule&#45;&gt;SafeResourceGridModalComponent  -->
<g id="edge6" class="edge">
<title>SafeSearchResourceGridModalModule&#45;&gt;SafeResourceGridModalComponent </title>
<path fill="none" stroke="black" stroke-dasharray="5,2" d="M575,-149.91C575,-149.91 575,-168.79 575,-168.79"/>
<polygon fill="black" stroke="black" points="571.5,-168.79 575,-178.79 578.5,-168.79 571.5,-168.79"/>
</g>
<!-- SafeApplicationDropdownModule -->
<g id="node3" class="node">
<title>SafeApplicationDropdownModule</title>
<polygon fill="#8dd3c7" stroke="black" points="1051.41,-84.8 1048.41,-88.8 1027.41,-88.8 1024.41,-84.8 840.59,-84.8 840.59,-48.8 1051.41,-48.8 1051.41,-84.8"/>
<text text-anchor="middle" x="946" y="-62.6" font-family="Times,serif" font-size="14.00">SafeApplicationDropdownModule</text>
</g>
<!-- SafeApplicationDropdownModule&#45;&gt;SafeSearchResourceGridModalModule -->
<g id="edge2" class="edge">
<title>SafeApplicationDropdownModule&#45;&gt;SafeSearchResourceGridModalModule</title>
<path fill="none" stroke="black" d="M946,-84.91C946,-104.14 946,-131.8 946,-131.8 946,-131.8 703.41,-131.8 703.41,-131.8"/>
<polygon fill="black" stroke="black" points="703.41,-128.3 693.41,-131.8 703.41,-135.3 703.41,-128.3"/>
</g>
<!-- SafeCoreGridModule -->
<g id="node4" class="node">
<title>SafeCoreGridModule</title>
<polygon fill="#8dd3c7" stroke="black" points="822.8,-84.8 819.8,-88.8 798.8,-88.8 795.8,-84.8 685.2,-84.8 685.2,-48.8 822.8,-48.8 822.8,-84.8"/>
<text text-anchor="middle" x="754" y="-62.6" font-family="Times,serif" font-size="14.00">SafeCoreGridModule</text>
</g>
<!-- SafeCoreGridModule&#45;&gt;SafeSearchResourceGridModalModule -->
<g id="edge3" class="edge">
<title>SafeCoreGridModule&#45;&gt;SafeSearchResourceGridModalModule</title>
<path fill="none" stroke="black" d="M689.38,-84.91C689.38,-84.91 689.38,-103.79 689.38,-103.79"/>
<polygon fill="black" stroke="black" points="685.88,-103.79 689.38,-113.79 692.88,-103.79 685.88,-103.79"/>
</g>
<!-- SafeRecordDropdownModule -->
<g id="node5" class="node">
<title>SafeRecordDropdownModule</title>
<polygon fill="#8dd3c7" stroke="black" points="667.24,-84.8 664.24,-88.8 643.24,-88.8 640.24,-84.8 482.76,-84.8 482.76,-48.8 667.24,-48.8 667.24,-84.8"/>
<text text-anchor="middle" x="575" y="-62.6" font-family="Times,serif" font-size="14.00">SafeRecordDropdownModule</text>
</g>
<!-- SafeRecordDropdownModule&#45;&gt;SafeSearchResourceGridModalModule -->
<g id="edge4" class="edge">
<title>SafeRecordDropdownModule&#45;&gt;SafeSearchResourceGridModalModule</title>
<path fill="none" stroke="black" d="M575,-84.91C575,-84.91 575,-103.79 575,-103.79"/>
<polygon fill="black" stroke="black" points="571.5,-103.79 575,-113.79 578.5,-103.79 571.5,-103.79"/>
</g>
<!-- SafeResourceDropdownModule -->
<g id="node6" class="node">
<title>SafeResourceDropdownModule</title>
<polygon fill="#8dd3c7" stroke="black" points="464.4,-84.8 461.4,-88.8 440.4,-88.8 437.4,-84.8 267.6,-84.8 267.6,-48.8 464.4,-48.8 464.4,-84.8"/>
<text text-anchor="middle" x="366" y="-62.6" font-family="Times,serif" font-size="14.00">SafeResourceDropdownModule</text>
</g>
<!-- SafeResourceDropdownModule&#45;&gt;SafeSearchResourceGridModalModule -->
<g id="edge5" class="edge">
<title>SafeResourceDropdownModule&#45;&gt;SafeSearchResourceGridModalModule</title>
<path fill="none" stroke="black" d="M460.39,-84.91C460.39,-84.91 460.39,-103.79 460.39,-103.79"/>
<polygon fill="black" stroke="black" points="456.89,-103.79 460.39,-113.79 463.89,-103.79 456.89,-103.79"/>
</g>
</g>
</svg>
