<?xml version="1.0" encoding="UTF-8" standalone="no"?>
<!DOCTYPE svg PUBLIC "-//W3C//DTD SVG 1.1//EN"
 "http://www.w3.org/Graphics/SVG/1.1/DTD/svg11.dtd">
<!-- Generated by graphviz version 2.47.0 (20210316.0004)
 -->
<!-- Title: dependencies Pages: 1 -->
<svg width="1083pt" height="284pt"
 viewBox="0.00 0.00 1083.00 284.00" xmlns="http://www.w3.org/2000/svg" xmlns:xlink="http://www.w3.org/1999/xlink">
<g id="graph0" class="graph" transform="scale(1 1) rotate(0) translate(4 280)">
<title>dependencies</title>
<polygon fill="white" stroke="transparent" points="-4,4 -4,-280 1079,-280 1079,4 -4,4"/>
<text text-anchor="start" x="516.51" y="-42.4" font-family="sans-serif" font-weight="bold" font-size="14.00">Legend</text>
<polygon fill="#ffffb3" stroke="transparent" points="303.5,-10 303.5,-30 323.5,-30 323.5,-10 303.5,-10"/>
<text text-anchor="start" x="327.13" y="-15.4" font-family="sans-serif" font-size="14.00"> &#160;Declarations</text>
<polygon fill="#8dd3c7" stroke="transparent" points="416.5,-10 416.5,-30 436.5,-30 436.5,-10 416.5,-10"/>
<text text-anchor="start" x="440.23" y="-15.4" font-family="sans-serif" font-size="14.00"> &#160;Module</text>
<polygon fill="#80b1d3" stroke="transparent" points="502.5,-10 502.5,-30 522.5,-30 522.5,-10 502.5,-10"/>
<text text-anchor="start" x="526.28" y="-15.4" font-family="sans-serif" font-size="14.00"> &#160;Bootstrap</text>
<polygon fill="#fdb462" stroke="transparent" points="599.5,-10 599.5,-30 619.5,-30 619.5,-10 599.5,-10"/>
<text text-anchor="start" x="623.17" y="-15.4" font-family="sans-serif" font-size="14.00"> &#160;Providers</text>
<polygon fill="#fb8072" stroke="transparent" points="695.5,-10 695.5,-30 715.5,-30 715.5,-10 695.5,-10"/>
<text text-anchor="start" x="719.23" y="-15.4" font-family="sans-serif" font-size="14.00"> &#160;Exports</text>
<g id="clust1" class="cluster">
<title>cluster_SafeSearchResourceGridModalModule</title>
<polygon fill="none" stroke="black" stroke-dasharray="1,5" points="8,-70 8,-268 1067,-268 1067,-70 8,-70"/>
</g>
<g id="clust4" class="cluster">
<title>cluster_SafeSearchResourceGridModalModule_imports</title>
<polygon fill="none" stroke="black" points="260,-78 260,-130 1059,-130 1059,-78 260,-78"/>
</g>
<g id="clust2" class="cluster">
<title>cluster_SafeSearchResourceGridModalModule_declarations</title>
<polygon fill="none" stroke="black" points="16,-78 16,-130 252,-130 252,-78 16,-78"/>
</g>
<g id="clust5" class="cluster">
<title>cluster_SafeSearchResourceGridModalModule_exports</title>
<polygon fill="none" stroke="black" points="455,-208 455,-260 695,-260 695,-208 455,-208"/>
</g>
<!-- SafeResourceGridModalComponent -->
<g id="node1" class="node">
<title>SafeResourceGridModalComponent</title>
<polygon fill="#ffffb3" stroke="black" points="244.5,-122 23.5,-122 23.5,-86 244.5,-86 244.5,-122"/>
<text text-anchor="middle" x="134" y="-99.8" font-family="Times,serif" font-size="14.00">SafeResourceGridModalComponent</text>
</g>
<!-- SafeSearchResourceGridModalModule -->
<g id="node2" class="node">
<title>SafeSearchResourceGridModalModule</title>
<polygon fill="#8dd3c7" stroke="black" points="693.3,-187 690.3,-191 669.3,-191 666.3,-187 456.7,-187 456.7,-151 693.3,-151 693.3,-187"/>
<text text-anchor="middle" x="575" y="-164.8" font-family="Times,serif" font-size="14.00">SafeSearchResourceGridModalModule</text>
</g>
<!-- SafeResourceGridModalComponent&#45;&gt;SafeSearchResourceGridModalModule -->
<g id="edge1" class="edge">
<title>SafeResourceGridModalComponent&#45;&gt;SafeSearchResourceGridModalModule</title>
<path fill="none" stroke="black" d="M134,-122.11C134,-141.34 134,-169 134,-169 134,-169 446.53,-169 446.53,-169"/>
<polygon fill="black" stroke="black" points="446.53,-172.5 456.53,-169 446.53,-165.5 446.53,-172.5"/>
</g>
<!-- SafeResourceGridModalComponent  -->
<g id="node7" class="node">
<title>SafeResourceGridModalComponent </title>
<polygon fill="#fb8072" stroke="black" points="687,-252 463,-252 463,-216 687,-216 687,-252"/>
<text text-anchor="middle" x="575" y="-229.8" font-family="Times,serif" font-size="14.00">SafeResourceGridModalComponent </text>
</g>
<!-- SafeSearchResourceGridModalModule&#45;&gt;SafeResourceGridModalComponent  -->
<g id="edge6" class="edge">
<title>SafeSearchResourceGridModalModule&#45;&gt;SafeResourceGridModalComponent </title>
<path fill="none" stroke="black" stroke-dasharray="5,2" d="M575,-187.11C575,-187.11 575,-205.99 575,-205.99"/>
<polygon fill="black" stroke="black" points="571.5,-205.99 575,-215.99 578.5,-205.99 571.5,-205.99"/>
</g>
<!-- SafeApplicationDropdownModule -->
<g id="node3" class="node">
<title>SafeApplicationDropdownModule</title>
<polygon fill="#8dd3c7" stroke="black" points="1051.39,-122 1048.39,-126 1027.39,-126 1024.39,-122 840.61,-122 840.61,-86 1051.39,-86 1051.39,-122"/>
<text text-anchor="middle" x="946" y="-99.8" font-family="Times,serif" font-size="14.00">SafeApplicationDropdownModule</text>
</g>
<!-- SafeApplicationDropdownModule&#45;&gt;SafeSearchResourceGridModalModule -->
<g id="edge2" class="edge">
<title>SafeApplicationDropdownModule&#45;&gt;SafeSearchResourceGridModalModule</title>
<path fill="none" stroke="black" d="M946,-122.11C946,-141.34 946,-169 946,-169 946,-169 703.41,-169 703.41,-169"/>
<polygon fill="black" stroke="black" points="703.41,-165.5 693.41,-169 703.41,-172.5 703.41,-165.5"/>
</g>
<!-- SafeCoreGridModule -->
<g id="node4" class="node">
<title>SafeCoreGridModule</title>
<polygon fill="#8dd3c7" stroke="black" points="822.79,-122 819.79,-126 798.79,-126 795.79,-122 685.21,-122 685.21,-86 822.79,-86 822.79,-122"/>
<text text-anchor="middle" x="754" y="-99.8" font-family="Times,serif" font-size="14.00">SafeCoreGridModule</text>
</g>
<!-- SafeCoreGridModule&#45;&gt;SafeSearchResourceGridModalModule -->
<g id="edge3" class="edge">
<title>SafeCoreGridModule&#45;&gt;SafeSearchResourceGridModalModule</title>
<path fill="none" stroke="black" d="M689.38,-122.11C689.38,-122.11 689.38,-140.99 689.38,-140.99"/>
<polygon fill="black" stroke="black" points="685.88,-140.99 689.38,-150.99 692.88,-140.99 685.88,-140.99"/>
</g>
<!-- SafeRecordDropdownModule -->
<g id="node5" class="node">
<title>SafeRecordDropdownModule</title>
<polygon fill="#8dd3c7" stroke="black" points="667.22,-122 664.22,-126 643.22,-126 640.22,-122 482.78,-122 482.78,-86 667.22,-86 667.22,-122"/>
<text text-anchor="middle" x="575" y="-99.8" font-family="Times,serif" font-size="14.00">SafeRecordDropdownModule</text>
</g>
<!-- SafeRecordDropdownModule&#45;&gt;SafeSearchResourceGridModalModule -->
<g id="edge4" class="edge">
<title>SafeRecordDropdownModule&#45;&gt;SafeSearchResourceGridModalModule</title>
<path fill="none" stroke="black" d="M575,-122.11C575,-122.11 575,-140.99 575,-140.99"/>
<polygon fill="black" stroke="black" points="571.5,-140.99 575,-150.99 578.5,-140.99 571.5,-140.99"/>
</g>
<!-- SafeResourceDropdownModule -->
<g id="node6" class="node">
<title>SafeResourceDropdownModule</title>
<polygon fill="#8dd3c7" stroke="black" points="464.38,-122 461.38,-126 440.38,-126 437.38,-122 267.62,-122 267.62,-86 464.38,-86 464.38,-122"/>
<text text-anchor="middle" x="366" y="-99.8" font-family="Times,serif" font-size="14.00">SafeResourceDropdownModule</text>
</g>
<!-- SafeResourceDropdownModule&#45;&gt;SafeSearchResourceGridModalModule -->
<g id="edge5" class="edge">
<title>SafeResourceDropdownModule&#45;&gt;SafeSearchResourceGridModalModule</title>
<path fill="none" stroke="black" d="M460.39,-122.11C460.39,-122.11 460.39,-140.99 460.39,-140.99"/>
<polygon fill="black" stroke="black" points="456.89,-140.99 460.39,-150.99 463.89,-140.99 456.89,-140.99"/>
</g>
</g>
</svg>
