<?xml version="1.0" encoding="UTF-8" standalone="no"?>
<!DOCTYPE svg PUBLIC "-//W3C//DTD SVG 1.1//EN"
 "http://www.w3.org/Graphics/SVG/1.1/DTD/svg11.dtd">
<!-- Generated by graphviz version 3.0.0 (20220226.1711)
 -->
<!-- Title: dependencies Pages: 1 -->
<svg width="478pt" height="174pt"
 viewBox="0.00 0.00 478.00 173.80" xmlns="http://www.w3.org/2000/svg" xmlns:xlink="http://www.w3.org/1999/xlink">
<g id="graph0" class="graph" transform="scale(1 1) rotate(0) translate(4 169.8)">
<title>dependencies</title>
<polygon fill="white" stroke="transparent" points="-4,4 -4,-169.8 474,-169.8 474,4 -4,4"/>
<text text-anchor="middle" x="235" y="-8.2" font-family="sans-serif" font-size="14.00">dependencies</text>
<g id="clust1" class="cluster">
<title>cluster_AddStepModule</title>
<polygon fill="none" stroke="black" stroke-dasharray="1,5" points="8,-32.8 8,-157.8 462,-157.8 462,-32.8 8,-32.8"/>
</g>
<g id="clust2" class="cluster">
<title>cluster_AddStepModule_declarations</title>
<polygon fill="none" stroke="black" points="308,-40.8 308,-92.8 454,-92.8 454,-40.8 308,-40.8"/>
</g>
<g id="clust4" class="cluster">
<title>cluster_AddStepModule_imports</title>
<polygon fill="none" stroke="black" points="16,-40.8 16,-92.8 300,-92.8 300,-40.8 16,-40.8"/>
</g>
<!-- AddStepComponent -->
<g id="node1" class="node">
<title>AddStepComponent</title>
<polygon fill="#ffffb3" stroke="black" points="446.33,-84.8 315.67,-84.8 315.67,-48.8 446.33,-48.8 446.33,-84.8"/>
<text text-anchor="middle" x="381" y="-62.6" font-family="Times,serif" font-size="14.00">AddStepComponent</text>
</g>
<!-- AddStepModule -->
<g id="node2" class="node">
<title>AddStepModule</title>
<polygon fill="#8dd3c7" stroke="black" points="269.05,-149.8 266.05,-153.8 245.05,-153.8 242.05,-149.8 160.95,-149.8 160.95,-113.8 269.05,-113.8 269.05,-149.8"/>
<text text-anchor="middle" x="215" y="-127.6" font-family="Times,serif" font-size="14.00">AddStepModule</text>
</g>
<!-- AddStepComponent&#45;&gt;AddStepModule -->
<g id="edge1" class="edge">
<title>AddStepComponent&#45;&gt;AddStepModule</title>
<path fill="none" stroke="black" d="M381,-84.91C381,-104.14 381,-131.8 381,-131.8 381,-131.8 279.35,-131.8 279.35,-131.8"/>
<polygon fill="black" stroke="black" points="279.35,-128.3 269.35,-131.8 279.35,-135.3 279.35,-128.3"/>
</g>
<!-- AddStepRoutingModule -->
<g id="node3" class="node">
<title>AddStepRoutingModule</title>
<polygon fill="#8dd3c7" stroke="black" points="291.67,-84.8 288.67,-88.8 267.67,-88.8 264.67,-84.8 138.33,-84.8 138.33,-48.8 291.67,-48.8 291.67,-84.8"/>
<text text-anchor="middle" x="215" y="-62.6" font-family="Times,serif" font-size="14.00">AddStepRoutingModule</text>
</g>
<!-- AddStepRoutingModule&#45;&gt;AddStepModule -->
<g id="edge2" class="edge">
<title>AddStepRoutingModule&#45;&gt;AddStepModule</title>
<path fill="none" stroke="black" d="M215,-84.91C215,-84.91 215,-103.79 215,-103.79"/>
<polygon fill="black" stroke="black" points="211.5,-103.79 215,-113.79 218.5,-103.79 211.5,-103.79"/>
</g>
<!-- FormsModule -->
<g id="node4" class="node">
<title>FormsModule</title>
<polygon fill="#8dd3c7" stroke="black" points="119.84,-84.8 116.84,-88.8 95.84,-88.8 92.84,-84.8 24.16,-84.8 24.16,-48.8 119.84,-48.8 119.84,-84.8"/>
<text text-anchor="middle" x="72" y="-62.6" font-family="Times,serif" font-size="14.00">FormsModule</text>
</g>
<!-- FormsModule&#45;&gt;AddStepModule -->
<g id="edge3" class="edge">
<title>FormsModule&#45;&gt;AddStepModule</title>
<path fill="none" stroke="black" d="M72,-84.91C72,-104.14 72,-131.8 72,-131.8 72,-131.8 150.94,-131.8 150.94,-131.8"/>
<polygon fill="black" stroke="black" points="150.94,-135.3 160.94,-131.8 150.94,-128.3 150.94,-135.3"/>
</g>
</g>
</svg>
