<?xml version="1.0" encoding="UTF-8" standalone="no"?>
<!DOCTYPE svg PUBLIC "-//W3C//DTD SVG 1.1//EN"
 "http://www.w3.org/Graphics/SVG/1.1/DTD/svg11.dtd">
<!-- Generated by graphviz version 2.47.0 (20210316.0004)
 -->
<!-- Title: dependencies Pages: 1 -->
<svg width="912pt" height="284pt"
 viewBox="0.00 0.00 912.00 284.00" xmlns="http://www.w3.org/2000/svg" xmlns:xlink="http://www.w3.org/1999/xlink">
<g id="graph0" class="graph" transform="scale(1 1) rotate(0) translate(4 280)">
<title>dependencies</title>
<polygon fill="white" stroke="transparent" points="-4,4 -4,-280 908,-280 908,4 -4,4"/>
<text text-anchor="start" x="431.01" y="-42.4" font-family="sans-serif" font-weight="bold" font-size="14.00">Legend</text>
<polygon fill="#ffffb3" stroke="transparent" points="218,-10 218,-30 238,-30 238,-10 218,-10"/>
<text text-anchor="start" x="241.63" y="-15.4" font-family="sans-serif" font-size="14.00"> &#160;Declarations</text>
<polygon fill="#8dd3c7" stroke="transparent" points="331,-10 331,-30 351,-30 351,-10 331,-10"/>
<text text-anchor="start" x="354.73" y="-15.4" font-family="sans-serif" font-size="14.00"> &#160;Module</text>
<polygon fill="#80b1d3" stroke="transparent" points="417,-10 417,-30 437,-30 437,-10 417,-10"/>
<text text-anchor="start" x="440.78" y="-15.4" font-family="sans-serif" font-size="14.00"> &#160;Bootstrap</text>
<polygon fill="#fdb462" stroke="transparent" points="514,-10 514,-30 534,-30 534,-10 514,-10"/>
<text text-anchor="start" x="537.67" y="-15.4" font-family="sans-serif" font-size="14.00"> &#160;Providers</text>
<polygon fill="#fb8072" stroke="transparent" points="610,-10 610,-30 630,-30 630,-10 610,-10"/>
<text text-anchor="start" x="633.73" y="-15.4" font-family="sans-serif" font-size="14.00"> &#160;Exports</text>
<g id="clust1" class="cluster">
<title>cluster_SafeQueryBuilderModule</title>
<polygon fill="none" stroke="black" stroke-dasharray="1,5" points="8,-70 8,-268 896,-268 896,-70 8,-70"/>
</g>
<g id="clust7" class="cluster">
<title>cluster_SafeQueryBuilderModule_imports</title>
<polygon fill="none" stroke="black" points="750,-78 750,-130 888,-130 888,-78 750,-78"/>
</g>
<g id="clust2" class="cluster">
<title>cluster_SafeQueryBuilderModule_declarations</title>
<polygon fill="none" stroke="black" points="16,-78 16,-130 742,-130 742,-78 16,-78"/>
</g>
<g id="clust8" class="cluster">
<title>cluster_SafeQueryBuilderModule_exports</title>
<polygon fill="none" stroke="black" points="263,-208 263,-260 649,-260 649,-208 263,-208"/>
</g>
<!-- SafeQueryBuilderComponent -->
<g id="node1" class="node">
<title>SafeQueryBuilderComponent</title>
<polygon fill="#ffffb3" stroke="black" points="733.68,-122 550.32,-122 550.32,-86 733.68,-86 733.68,-122"/>
<text text-anchor="middle" x="642" y="-99.8" font-family="Times,serif" font-size="14.00">SafeQueryBuilderComponent</text>
</g>
<!-- SafeQueryBuilderModule -->
<g id="node5" class="node">
<title>SafeQueryBuilderModule</title>
<polygon fill="#8dd3c7" stroke="black" points="531.9,-187 528.9,-191 507.9,-191 504.9,-187 370.1,-187 370.1,-151 531.9,-151 531.9,-187"/>
<text text-anchor="middle" x="451" y="-164.8" font-family="Times,serif" font-size="14.00">SafeQueryBuilderModule</text>
</g>
<!-- SafeQueryBuilderComponent&#45;&gt;SafeQueryBuilderModule -->
<g id="edge1" class="edge">
<title>SafeQueryBuilderComponent&#45;&gt;SafeQueryBuilderModule</title>
<path fill="none" stroke="black" d="M595.88,-122.02C595.88,-139.37 595.88,-163 595.88,-163 595.88,-163 541.91,-163 541.91,-163"/>
<polygon fill="black" stroke="black" points="541.91,-159.5 531.91,-163 541.91,-166.5 541.91,-159.5"/>
</g>
<!-- SafeTabFieldsComponent -->
<g id="node2" class="node">
<title>SafeTabFieldsComponent</title>
<polygon fill="#ffffb3" stroke="black" points="532.2,-122 369.8,-122 369.8,-86 532.2,-86 532.2,-122"/>
<text text-anchor="middle" x="451" y="-99.8" font-family="Times,serif" font-size="14.00">SafeTabFieldsComponent</text>
</g>
<!-- SafeTabFieldsComponent&#45;&gt;SafeQueryBuilderModule -->
<g id="edge2" class="edge">
<title>SafeTabFieldsComponent&#45;&gt;SafeQueryBuilderModule</title>
<path fill="none" stroke="black" d="M451,-122.11C451,-122.11 451,-140.99 451,-140.99"/>
<polygon fill="black" stroke="black" points="447.5,-140.99 451,-150.99 454.5,-140.99 447.5,-140.99"/>
</g>
<!-- SafeTabFilterComponent -->
<g id="node3" class="node">
<title>SafeTabFilterComponent</title>
<polygon fill="#ffffb3" stroke="black" points="352.3,-122 193.7,-122 193.7,-86 352.3,-86 352.3,-122"/>
<text text-anchor="middle" x="273" y="-99.8" font-family="Times,serif" font-size="14.00">SafeTabFilterComponent</text>
</g>
<!-- SafeTabFilterComponent&#45;&gt;SafeQueryBuilderModule -->
<g id="edge3" class="edge">
<title>SafeTabFilterComponent&#45;&gt;SafeQueryBuilderModule</title>
<path fill="none" stroke="black" d="M311.65,-122.02C311.65,-139.37 311.65,-163 311.65,-163 311.65,-163 359.94,-163 359.94,-163"/>
<polygon fill="black" stroke="black" points="359.94,-166.5 369.94,-163 359.94,-159.5 359.94,-166.5"/>
</g>
<!-- SafeTabSortComponent -->
<g id="node4" class="node">
<title>SafeTabSortComponent</title>
<polygon fill="#ffffb3" stroke="black" points="175.81,-122 24.19,-122 24.19,-86 175.81,-86 175.81,-122"/>
<text text-anchor="middle" x="100" y="-99.8" font-family="Times,serif" font-size="14.00">SafeTabSortComponent</text>
</g>
<!-- SafeTabSortComponent&#45;&gt;SafeQueryBuilderModule -->
<g id="edge4" class="edge">
<title>SafeTabSortComponent&#45;&gt;SafeQueryBuilderModule</title>
<path fill="none" stroke="black" d="M100,-122.28C100,-143.32 100,-175 100,-175 100,-175 360.03,-175 360.03,-175"/>
<polygon fill="black" stroke="black" points="360.03,-178.5 370.03,-175 360.03,-171.5 360.03,-178.5"/>
</g>
<!-- SafeQueryBuilderComponent  -->
<g id="node7" class="node">
<title>SafeQueryBuilderComponent </title>
<polygon fill="#fb8072" stroke="black" points="641.18,-252 454.82,-252 454.82,-216 641.18,-216 641.18,-252"/>
<text text-anchor="middle" x="548" y="-229.8" font-family="Times,serif" font-size="14.00">SafeQueryBuilderComponent </text>
</g>
<!-- SafeQueryBuilderModule&#45;&gt;SafeQueryBuilderComponent  -->
<g id="edge6" class="edge">
<title>SafeQueryBuilderModule&#45;&gt;SafeQueryBuilderComponent </title>
<path fill="none" stroke="black" stroke-dasharray="5,2" d="M493.18,-187.11C493.18,-187.11 493.18,-205.99 493.18,-205.99"/>
<polygon fill="black" stroke="black" points="489.68,-205.99 493.18,-215.99 496.68,-205.99 489.68,-205.99"/>
</g>
<!-- SafeTabFieldsComponent  -->
<g id="node8" class="node">
<title>SafeTabFieldsComponent </title>
<polygon fill="#fb8072" stroke="black" points="436.7,-252 271.3,-252 271.3,-216 436.7,-216 436.7,-252"/>
<text text-anchor="middle" x="354" y="-229.8" font-family="Times,serif" font-size="14.00">SafeTabFieldsComponent </text>
</g>
<!-- SafeQueryBuilderModule&#45;&gt;SafeTabFieldsComponent  -->
<g id="edge7" class="edge">
<title>SafeQueryBuilderModule&#45;&gt;SafeTabFieldsComponent </title>
<path fill="none" stroke="black" stroke-dasharray="5,2" d="M403.57,-187.11C403.57,-187.11 403.57,-205.99 403.57,-205.99"/>
<polygon fill="black" stroke="black" points="400.07,-205.99 403.57,-215.99 407.07,-205.99 400.07,-205.99"/>
</g>
<!-- SafeButtonModule -->
<g id="node6" class="node">
<title>SafeButtonModule</title>
<polygon fill="#8dd3c7" stroke="black" points="880.04,-122 877.04,-126 856.04,-126 853.04,-122 757.96,-122 757.96,-86 880.04,-86 880.04,-122"/>
<text text-anchor="middle" x="819" y="-99.8" font-family="Times,serif" font-size="14.00">SafeButtonModule</text>
</g>
<!-- SafeButtonModule&#45;&gt;SafeQueryBuilderModule -->
<g id="edge5" class="edge">
<title>SafeButtonModule&#45;&gt;SafeQueryBuilderModule</title>
<path fill="none" stroke="black" d="M819,-122.28C819,-143.32 819,-175 819,-175 819,-175 541.76,-175 541.76,-175"/>
<polygon fill="black" stroke="black" points="541.76,-171.5 531.76,-175 541.76,-178.5 541.76,-171.5"/>
</g>
</g>
</svg>
