<?xml version="1.0" encoding="UTF-8" standalone="no"?>
<!DOCTYPE svg PUBLIC "-//W3C//DTD SVG 1.1//EN"
 "http://www.w3.org/Graphics/SVG/1.1/DTD/svg11.dtd">
<!-- Generated by graphviz version 3.0.0 (20220226.1711)
 -->
<!-- Title: dependencies Pages: 1 -->
<svg width="2290pt" height="358pt"
 viewBox="0.00 0.00 2290.00 358.39" xmlns="http://www.w3.org/2000/svg" xmlns:xlink="http://www.w3.org/1999/xlink">
<g id="graph0" class="graph" transform="scale(1 1) rotate(0) translate(4 354.39)">
<title>dependencies</title>
<polygon fill="white" stroke="transparent" points="-4,4 -4,-354.39 2286,-354.39 2286,4 -4,4"/>
<text text-anchor="middle" x="1141" y="-8.2" font-family="sans-serif" font-size="14.00">dependencies</text>
<g id="clust1" class="cluster">
<title>cluster_SafeQueryBuilderModule</title>
<polygon fill="none" stroke="black" stroke-dasharray="1,5" points="8,-32.8 8,-342.39 2274,-342.39 2274,-32.8 8,-32.8"/>
</g>
<g id="clust13" class="cluster">
<title>cluster_SafeQueryBuilderModule_exports</title>
<polygon fill="none" stroke="black" points="822,-282.39 822,-334.39 1560,-334.39 1560,-282.39 822,-282.39"/>
</g>
<g id="clust12" class="cluster">
<title>cluster_SafeQueryBuilderModule_imports</title>
<polygon fill="none" stroke="black" points="1787,-152.39 1787,-204.39 2266,-204.39 2266,-152.39 1787,-152.39"/>
</g>
<g id="clust2" class="cluster">
<title>cluster_SafeQueryBuilderModule_declarations</title>
<polygon fill="none" stroke="black" points="16,-152.39 16,-204.39 1779,-204.39 1779,-152.39 16,-152.39"/>
</g>
<g id="clust3" class="cluster">
<title>cluster_SafeQueryBuilderModule_SafeQueryBuilderComponent_providers</title>
<polygon fill="none" stroke="black" points="1233,-40.8 1233,-139.39 2125,-139.39 2125,-40.8 1233,-40.8"/>
</g>
<!-- SafeQueryBuilderComponent -->
<g id="node1" class="node">
<title>SafeQueryBuilderComponent</title>
<polygon fill="#ffffb3" stroke="black" points="1770.69,-196.39 1587.31,-196.39 1587.31,-160.39 1770.69,-160.39 1770.69,-196.39"/>
<text text-anchor="middle" x="1679" y="-174.19" font-family="Times,serif" font-size="14.00">SafeQueryBuilderComponent</text>
</g>
<!-- SafeQueryBuilderModule -->
<g id="node10" class="node">
<title>SafeQueryBuilderModule</title>
<polygon fill="#8dd3c7" stroke="black" points="1254.91,-261.39 1251.91,-265.39 1230.91,-265.39 1227.91,-261.39 1093.09,-261.39 1093.09,-225.39 1254.91,-225.39 1254.91,-261.39"/>
<text text-anchor="middle" x="1174" y="-239.19" font-family="Times,serif" font-size="14.00">SafeQueryBuilderModule</text>
</g>
<!-- SafeQueryBuilderComponent&#45;&gt;SafeQueryBuilderModule -->
<g id="edge1" class="edge">
<title>SafeQueryBuilderComponent&#45;&gt;SafeQueryBuilderModule</title>
<path fill="none" stroke="black" d="M1679,-196.42C1679,-213.45 1679,-236.39 1679,-236.39 1679,-236.39 1264.86,-236.39 1264.86,-236.39"/>
<polygon fill="black" stroke="black" points="1264.86,-232.89 1254.86,-236.39 1264.86,-239.89 1264.86,-232.89"/>
</g>
<!-- SafeQueryStyleComponent -->
<g id="node2" class="node">
<title>SafeQueryStyleComponent</title>
<polygon fill="#ffffb3" stroke="black" points="1568.97,-196.39 1399.03,-196.39 1399.03,-160.39 1568.97,-160.39 1568.97,-196.39"/>
<text text-anchor="middle" x="1484" y="-174.19" font-family="Times,serif" font-size="14.00">SafeQueryStyleComponent</text>
</g>
<!-- SafeQueryStyleComponent&#45;&gt;SafeQueryBuilderModule -->
<g id="edge3" class="edge">
<title>SafeQueryStyleComponent&#45;&gt;SafeQueryBuilderModule</title>
<path fill="none" stroke="black" d="M1475.68,-196.63C1475.68,-211.96 1475.68,-231.39 1475.68,-231.39 1475.68,-231.39 1264.84,-231.39 1264.84,-231.39"/>
<polygon fill="black" stroke="black" points="1264.84,-227.89 1254.84,-231.39 1264.84,-234.89 1264.84,-227.89"/>
</g>
<!-- SafeQueryStyleListComponent -->
<g id="node3" class="node">
<title>SafeQueryStyleListComponent</title>
<polygon fill="#ffffb3" stroke="black" points="1380.75,-196.39 1189.25,-196.39 1189.25,-160.39 1380.75,-160.39 1380.75,-196.39"/>
<text text-anchor="middle" x="1285" y="-174.19" font-family="Times,serif" font-size="14.00">SafeQueryStyleListComponent</text>
</g>
<!-- SafeQueryStyleListComponent&#45;&gt;SafeQueryBuilderModule -->
<g id="edge4" class="edge">
<title>SafeQueryStyleListComponent&#45;&gt;SafeQueryBuilderModule</title>
<path fill="none" stroke="black" d="M1221.91,-196.5C1221.91,-196.5 1221.91,-215.38 1221.91,-215.38"/>
<polygon fill="black" stroke="black" points="1218.41,-215.38 1221.91,-225.38 1225.41,-215.38 1218.41,-215.38"/>
</g>
<!-- SafeQueryStylePreviewComponent -->
<g id="node4" class="node">
<title>SafeQueryStylePreviewComponent</title>
<polygon fill="#ffffb3" stroke="black" points="1170.85,-196.39 955.15,-196.39 955.15,-160.39 1170.85,-160.39 1170.85,-196.39"/>
<text text-anchor="middle" x="1063" y="-174.19" font-family="Times,serif" font-size="14.00">SafeQueryStylePreviewComponent</text>
</g>
<!-- SafeQueryStylePreviewComponent&#45;&gt;SafeQueryBuilderModule -->
<g id="edge5" class="edge">
<title>SafeQueryStylePreviewComponent&#45;&gt;SafeQueryBuilderModule</title>
<path fill="none" stroke="black" d="M1132.11,-196.5C1132.11,-196.5 1132.11,-215.38 1132.11,-215.38"/>
<polygon fill="black" stroke="black" points="1128.61,-215.38 1132.11,-225.38 1135.61,-215.38 1128.61,-215.38"/>
</g>
<!-- SafeTabFieldsComponent -->
<g id="node5" class="node">
<title>SafeTabFieldsComponent</title>
<polygon fill="#ffffb3" stroke="black" points="937.2,-196.39 774.8,-196.39 774.8,-160.39 937.2,-160.39 937.2,-196.39"/>
<text text-anchor="middle" x="856" y="-174.19" font-family="Times,serif" font-size="14.00">SafeTabFieldsComponent</text>
</g>
<!-- SafeTabFieldsComponent&#45;&gt;SafeQueryBuilderModule -->
<g id="edge6" class="edge">
<title>SafeTabFieldsComponent&#45;&gt;SafeQueryBuilderModule</title>
<path fill="none" stroke="black" d="M883.35,-196.63C883.35,-211.96 883.35,-231.39 883.35,-231.39 883.35,-231.39 1083.04,-231.39 1083.04,-231.39"/>
<polygon fill="black" stroke="black" points="1083.04,-234.89 1093.04,-231.39 1083.04,-227.89 1083.04,-234.89"/>
</g>
<!-- SafeTabFilterComponent -->
<g id="node6" class="node">
<title>SafeTabFilterComponent</title>
<polygon fill="#ffffb3" stroke="black" points="757.3,-196.39 598.7,-196.39 598.7,-160.39 757.3,-160.39 757.3,-196.39"/>
<text text-anchor="middle" x="678" y="-174.19" font-family="Times,serif" font-size="14.00">SafeTabFilterComponent</text>
</g>
<!-- SafeTabFilterComponent&#45;&gt;SafeQueryBuilderModule -->
<g id="edge7" class="edge">
<title>SafeTabFilterComponent&#45;&gt;SafeQueryBuilderModule</title>
<path fill="none" stroke="black" d="M678,-196.42C678,-213.45 678,-236.39 678,-236.39 678,-236.39 1083.21,-236.39 1083.21,-236.39"/>
<polygon fill="black" stroke="black" points="1083.21,-239.89 1093.21,-236.39 1083.21,-232.89 1083.21,-239.89"/>
</g>
<!-- SafeTabLayoutPreviewComponent -->
<g id="node7" class="node">
<title>SafeTabLayoutPreviewComponent</title>
<polygon fill="#ffffb3" stroke="black" points="580.5,-196.39 367.5,-196.39 367.5,-160.39 580.5,-160.39 580.5,-196.39"/>
<text text-anchor="middle" x="474" y="-174.19" font-family="Times,serif" font-size="14.00">SafeTabLayoutPreviewComponent</text>
</g>
<!-- SafeTabLayoutPreviewComponent&#45;&gt;SafeQueryBuilderModule -->
<g id="edge8" class="edge">
<title>SafeTabLayoutPreviewComponent&#45;&gt;SafeQueryBuilderModule</title>
<path fill="none" stroke="black" d="M474,-196.61C474,-215.22 474,-241.39 474,-241.39 474,-241.39 1083.02,-241.39 1083.02,-241.39"/>
<polygon fill="black" stroke="black" points="1083.02,-244.89 1093.02,-241.39 1083.02,-237.89 1083.02,-244.89"/>
</g>
<!-- SafeTabSortComponent -->
<g id="node8" class="node">
<title>SafeTabSortComponent</title>
<polygon fill="#ffffb3" stroke="black" points="349.81,-196.39 198.19,-196.39 198.19,-160.39 349.81,-160.39 349.81,-196.39"/>
<text text-anchor="middle" x="274" y="-174.19" font-family="Times,serif" font-size="14.00">SafeTabSortComponent</text>
</g>
<!-- SafeTabSortComponent&#45;&gt;SafeQueryBuilderModule -->
<g id="edge9" class="edge">
<title>SafeTabSortComponent&#45;&gt;SafeQueryBuilderModule</title>
<path fill="none" stroke="black" d="M274,-196.61C274,-216.76 274,-246.39 274,-246.39 274,-246.39 1082.94,-246.39 1082.94,-246.39"/>
<polygon fill="black" stroke="black" points="1082.94,-249.89 1092.94,-246.39 1082.94,-242.89 1082.94,-249.89"/>
</g>
<!-- SafeTabStyleComponent -->
<g id="node9" class="node">
<title>SafeTabStyleComponent</title>
<polygon fill="#ffffb3" stroke="black" points="180.25,-196.39 23.75,-196.39 23.75,-160.39 180.25,-160.39 180.25,-196.39"/>
<text text-anchor="middle" x="102" y="-174.19" font-family="Times,serif" font-size="14.00">SafeTabStyleComponent</text>
</g>
<!-- SafeTabStyleComponent&#45;&gt;SafeQueryBuilderModule -->
<g id="edge10" class="edge">
<title>SafeTabStyleComponent&#45;&gt;SafeQueryBuilderModule</title>
<path fill="none" stroke="black" d="M102,-196.44C102,-218.05 102,-251.39 102,-251.39 102,-251.39 1082.99,-251.39 1082.99,-251.39"/>
<polygon fill="black" stroke="black" points="1082.99,-254.89 1092.99,-251.39 1082.99,-247.89 1082.99,-254.89"/>
</g>
<!-- SafeQueryBuilderComponent  -->
<g id="node15" class="node">
<title>SafeQueryBuilderComponent </title>
<polygon fill="#fb8072" stroke="black" points="1552.19,-326.39 1365.81,-326.39 1365.81,-290.39 1552.19,-290.39 1552.19,-326.39"/>
<text text-anchor="middle" x="1459" y="-304.19" font-family="Times,serif" font-size="14.00">SafeQueryBuilderComponent </text>
</g>
<!-- SafeQueryBuilderModule&#45;&gt;SafeQueryBuilderComponent  -->
<g id="edge14" class="edge">
<title>SafeQueryBuilderModule&#45;&gt;SafeQueryBuilderComponent </title>
<path fill="none" stroke="black" stroke-dasharray="5,2" d="M1254.76,-256.39C1310,-256.39 1373.27,-256.39 1373.27,-256.39 1373.27,-256.39 1373.27,-280.2 1373.27,-280.2"/>
<polygon fill="black" stroke="black" points="1369.77,-280.2 1373.27,-290.2 1376.77,-280.2 1369.77,-280.2"/>
</g>
<!-- SafeTabFieldsComponent  -->
<g id="node16" class="node">
<title>SafeTabFieldsComponent </title>
<polygon fill="#fb8072" stroke="black" points="1347.7,-326.39 1182.3,-326.39 1182.3,-290.39 1347.7,-290.39 1347.7,-326.39"/>
<text text-anchor="middle" x="1265" y="-304.19" font-family="Times,serif" font-size="14.00">SafeTabFieldsComponent </text>
</g>
<!-- SafeQueryBuilderModule&#45;&gt;SafeTabFieldsComponent  -->
<g id="edge15" class="edge">
<title>SafeQueryBuilderModule&#45;&gt;SafeTabFieldsComponent </title>
<path fill="none" stroke="black" stroke-dasharray="5,2" d="M1218.43,-261.5C1218.43,-261.5 1218.43,-280.38 1218.43,-280.38"/>
<polygon fill="black" stroke="black" points="1214.93,-280.38 1218.43,-290.38 1221.93,-280.38 1214.93,-280.38"/>
</g>
<!-- SafeTabFilterComponent  -->
<g id="node17" class="node">
<title>SafeTabFilterComponent </title>
<polygon fill="#fb8072" stroke="black" points="1163.8,-326.39 1002.2,-326.39 1002.2,-290.39 1163.8,-290.39 1163.8,-326.39"/>
<text text-anchor="middle" x="1083" y="-304.19" font-family="Times,serif" font-size="14.00">SafeTabFilterComponent </text>
</g>
<!-- SafeQueryBuilderModule&#45;&gt;SafeTabFilterComponent  -->
<g id="edge16" class="edge">
<title>SafeQueryBuilderModule&#45;&gt;SafeTabFilterComponent </title>
<path fill="none" stroke="black" stroke-dasharray="5,2" d="M1128.6,-261.5C1128.6,-261.5 1128.6,-280.38 1128.6,-280.38"/>
<polygon fill="black" stroke="black" points="1125.1,-280.38 1128.6,-290.38 1132.1,-280.38 1125.1,-280.38"/>
</g>
<!-- SafeTabSortComponent  -->
<g id="node18" class="node">
<title>SafeTabSortComponent </title>
<polygon fill="#fb8072" stroke="black" points="984.31,-326.39 829.69,-326.39 829.69,-290.39 984.31,-290.39 984.31,-326.39"/>
<text text-anchor="middle" x="907" y="-304.19" font-family="Times,serif" font-size="14.00">SafeTabSortComponent </text>
</g>
<!-- SafeQueryBuilderModule&#45;&gt;SafeTabSortComponent  -->
<g id="edge17" class="edge">
<title>SafeQueryBuilderModule&#45;&gt;SafeTabSortComponent </title>
<path fill="none" stroke="black" stroke-dasharray="5,2" d="M1093.27,-256.39C1036.18,-256.39 969.74,-256.39 969.74,-256.39 969.74,-256.39 969.74,-280.2 969.74,-280.2"/>
<polygon fill="black" stroke="black" points="966.24,-280.2 969.74,-290.2 973.24,-280.2 966.24,-280.2"/>
</g>
<!-- {
 &#160;&#160;&#160;provide: MAT_AUTOCOMPLETE_SCROLL_STRATEGY, useFactory: scrollFactory, deps: [Overlay],
} -->
<g id="node11" class="node">
<title>{
 &#160;&#160;&#160;provide: MAT_AUTOCOMPLETE_SCROLL_STRATEGY, useFactory: scrollFactory, deps: [Overlay],
}</title>
<ellipse fill="#fdb462" stroke="black" cx="1679" cy="-90.1" rx="438.07" ry="41.09"/>
<text text-anchor="middle" x="1679" y="-102.7" font-family="Times,serif" font-size="14.00">{</text>
<text text-anchor="middle" x="1679" y="-85.9" font-family="Times,serif" font-size="14.00"> &#160;&#160;&#160;provide: MAT_AUTOCOMPLETE_SCROLL_STRATEGY, useFactory: scrollFactory, deps: [Overlay],</text>
<text text-anchor="middle" x="1679" y="-69.1" font-family="Times,serif" font-size="14.00">}</text>
</g>
<!-- {
 &#160;&#160;&#160;provide: MAT_AUTOCOMPLETE_SCROLL_STRATEGY, useFactory: scrollFactory, deps: [Overlay],
}&#45;&gt;SafeQueryBuilderComponent -->
<g id="edge2" class="edge">
<title>{
 &#160;&#160;&#160;provide: MAT_AUTOCOMPLETE_SCROLL_STRATEGY, useFactory: scrollFactory, deps: [Overlay],
}&#45;&gt;SafeQueryBuilderComponent</title>
<path fill="none" stroke="black" d="M1679,-131.4C1679,-131.4 1679,-150.06 1679,-150.06"/>
<polygon fill="black" stroke="black" points="1675.5,-150.06 1679,-160.06 1682.5,-150.06 1675.5,-150.06"/>
</g>
<!-- SafeButtonModule -->
<g id="node12" class="node">
<title>SafeButtonModule</title>
<polygon fill="#8dd3c7" stroke="black" points="2258.05,-196.39 2255.05,-200.39 2234.05,-200.39 2231.05,-196.39 2135.95,-196.39 2135.95,-160.39 2258.05,-160.39 2258.05,-196.39"/>
<text text-anchor="middle" x="2197" y="-174.19" font-family="Times,serif" font-size="14.00">SafeButtonModule</text>
</g>
<!-- SafeButtonModule&#45;&gt;SafeQueryBuilderModule -->
<g id="edge11" class="edge">
<title>SafeButtonModule&#45;&gt;SafeQueryBuilderModule</title>
<path fill="none" stroke="black" d="M2197,-196.44C2197,-218.05 2197,-251.39 2197,-251.39 2197,-251.39 1265.13,-251.39 1265.13,-251.39"/>
<polygon fill="black" stroke="black" points="1265.13,-247.89 1255.13,-251.39 1265.13,-254.89 1265.13,-247.89"/>
</g>
<!-- SafeCheckboxTreeModule -->
<g id="node13" class="node">
<title>SafeCheckboxTreeModule</title>
<polygon fill="#8dd3c7" stroke="black" points="2117.34,-196.39 2114.34,-200.39 2093.34,-200.39 2090.34,-196.39 1950.66,-196.39 1950.66,-160.39 2117.34,-160.39 2117.34,-196.39"/>
<text text-anchor="middle" x="2034" y="-174.19" font-family="Times,serif" font-size="14.00">SafeCheckboxTreeModule</text>
</g>
<!-- SafeCheckboxTreeModule&#45;&gt;SafeQueryBuilderModule -->
<g id="edge12" class="edge">
<title>SafeCheckboxTreeModule&#45;&gt;SafeQueryBuilderModule</title>
<path fill="none" stroke="black" d="M2034,-196.61C2034,-216.76 2034,-246.39 2034,-246.39 2034,-246.39 1264.91,-246.39 1264.91,-246.39"/>
<polygon fill="black" stroke="black" points="1264.91,-242.89 1254.91,-246.39 1264.91,-249.89 1264.91,-242.89"/>
</g>
<!-- SafeCoreGridModule -->
<g id="node14" class="node">
<title>SafeCoreGridModule</title>
<polygon fill="#8dd3c7" stroke="black" points="1932.8,-196.39 1929.8,-200.39 1908.8,-200.39 1905.8,-196.39 1795.2,-196.39 1795.2,-160.39 1932.8,-160.39 1932.8,-196.39"/>
<text text-anchor="middle" x="1864" y="-174.19" font-family="Times,serif" font-size="14.00">SafeCoreGridModule</text>
</g>
<!-- SafeCoreGridModule&#45;&gt;SafeQueryBuilderModule -->
<g id="edge13" class="edge">
<title>SafeCoreGridModule&#45;&gt;SafeQueryBuilderModule</title>
<path fill="none" stroke="black" d="M1864,-196.61C1864,-215.22 1864,-241.39 1864,-241.39 1864,-241.39 1264.84,-241.39 1264.84,-241.39"/>
<polygon fill="black" stroke="black" points="1264.84,-237.89 1254.84,-241.39 1264.84,-244.89 1264.84,-237.89"/>
</g>
</g>
</svg>
