<?xml version="1.0" encoding="UTF-8" standalone="no"?>
<!DOCTYPE svg PUBLIC "-//W3C//DTD SVG 1.1//EN"
 "http://www.w3.org/Graphics/SVG/1.1/DTD/svg11.dtd">
<!-- Generated by graphviz version 3.0.0 (20220226.1711)
 -->
<!-- Title: dependencies Pages: 1 -->
<svg width="2290pt" height="358pt"
 viewBox="0.00 0.00 2290.00 358.39" xmlns="http://www.w3.org/2000/svg" xmlns:xlink="http://www.w3.org/1999/xlink">
<g id="graph0" class="graph" transform="scale(1 1) rotate(0) translate(4 354.39)">
<title>dependencies</title>
<polygon fill="white" stroke="transparent" points="-4,4 -4,-354.39 2286,-354.39 2286,4 -4,4"/>
<text text-anchor="middle" x="1141" y="-8.2" font-family="sans-serif" font-size="14.00">dependencies</text>
<g id="clust1" class="cluster">
<title>cluster_SafeQueryBuilderModule</title>
<polygon fill="none" stroke="black" stroke-dasharray="1,5" points="8,-32.8 8,-342.39 2274,-342.39 2274,-32.8 8,-32.8"/>
</g>
<g id="clust2" class="cluster">
<title>cluster_SafeQueryBuilderModule_declarations</title>
<polygon fill="none" stroke="black" points="503,-152.39 503,-204.39 2266,-204.39 2266,-152.39 503,-152.39"/>
</g>
<g id="clust3" class="cluster">
<title>cluster_SafeQueryBuilderModule_SafeQueryBuilderComponent_providers</title>
<polygon fill="none" stroke="black" points="1374,-40.8 1374,-139.39 2266,-139.39 2266,-40.8 1374,-40.8"/>
</g>
<g id="clust12" class="cluster">
<title>cluster_SafeQueryBuilderModule_imports</title>
<polygon fill="none" stroke="black" points="16,-152.39 16,-204.39 495,-204.39 495,-152.39 16,-152.39"/>
</g>
<g id="clust13" class="cluster">
<title>cluster_SafeQueryBuilderModule_exports</title>
<polygon fill="none" stroke="black" points="711,-282.39 711,-334.39 1449,-334.39 1449,-282.39 711,-282.39"/>
</g>
<!-- SafeQueryBuilderComponent -->
<g id="node1" class="node">
<title>SafeQueryBuilderComponent</title>
<polygon fill="#ffffb3" stroke="black" points="2257.69,-196.39 2074.31,-196.39 2074.31,-160.39 2257.69,-160.39 2257.69,-196.39"/>
<text text-anchor="middle" x="2166" y="-174.19" font-family="Times,serif" font-size="14.00">SafeQueryBuilderComponent</text>
</g>
<!-- SafeQueryBuilderModule -->
<g id="node10" class="node">
<title>SafeQueryBuilderModule</title>
<polygon fill="#8dd3c7" stroke="black" points="1143.91,-261.39 1140.91,-265.39 1119.91,-265.39 1116.91,-261.39 982.09,-261.39 982.09,-225.39 1143.91,-225.39 1143.91,-261.39"/>
<text text-anchor="middle" x="1063" y="-239.19" font-family="Times,serif" font-size="14.00">SafeQueryBuilderModule</text>
</g>
<!-- SafeQueryBuilderComponent&#45;&gt;SafeQueryBuilderModule -->
<g id="edge1" class="edge">
<title>SafeQueryBuilderComponent&#45;&gt;SafeQueryBuilderModule</title>
<path fill="none" stroke="black" d="M2166,-196.44C2166,-218.05 2166,-251.39 2166,-251.39 2166,-251.39 1154.11,-251.39 1154.11,-251.39"/>
<polygon fill="black" stroke="black" points="1154.11,-247.89 1144.11,-251.39 1154.11,-254.89 1154.11,-247.89"/>
</g>
<!-- SafeQueryStyleComponent -->
<g id="node2" class="node">
<title>SafeQueryStyleComponent</title>
<polygon fill="#ffffb3" stroke="black" points="2055.97,-196.39 1886.03,-196.39 1886.03,-160.39 2055.97,-160.39 2055.97,-196.39"/>
<text text-anchor="middle" x="1971" y="-174.19" font-family="Times,serif" font-size="14.00">SafeQueryStyleComponent</text>
</g>
<!-- SafeQueryStyleComponent&#45;&gt;SafeQueryBuilderModule -->
<g id="edge3" class="edge">
<title>SafeQueryStyleComponent&#45;&gt;SafeQueryBuilderModule</title>
<path fill="none" stroke="black" d="M1971,-196.61C1971,-216.76 1971,-246.39 1971,-246.39 1971,-246.39 1153.98,-246.39 1153.98,-246.39"/>
<polygon fill="black" stroke="black" points="1153.98,-242.89 1143.98,-246.39 1153.98,-249.89 1153.98,-242.89"/>
</g>
<!-- SafeQueryStyleListComponent -->
<g id="node3" class="node">
<title>SafeQueryStyleListComponent</title>
<polygon fill="#ffffb3" stroke="black" points="1867.75,-196.39 1676.25,-196.39 1676.25,-160.39 1867.75,-160.39 1867.75,-196.39"/>
<text text-anchor="middle" x="1772" y="-174.19" font-family="Times,serif" font-size="14.00">SafeQueryStyleListComponent</text>
</g>
<!-- SafeQueryStyleListComponent&#45;&gt;SafeQueryBuilderModule -->
<g id="edge4" class="edge">
<title>SafeQueryStyleListComponent&#45;&gt;SafeQueryBuilderModule</title>
<path fill="none" stroke="black" d="M1772,-196.61C1772,-215.22 1772,-241.39 1772,-241.39 1772,-241.39 1153.99,-241.39 1153.99,-241.39"/>
<polygon fill="black" stroke="black" points="1153.99,-237.89 1143.99,-241.39 1153.99,-244.89 1153.99,-237.89"/>
</g>
<!-- SafeQueryStylePreviewComponent -->
<g id="node4" class="node">
<title>SafeQueryStylePreviewComponent</title>
<polygon fill="#ffffb3" stroke="black" points="1657.85,-196.39 1442.15,-196.39 1442.15,-160.39 1657.85,-160.39 1657.85,-196.39"/>
<text text-anchor="middle" x="1550" y="-174.19" font-family="Times,serif" font-size="14.00">SafeQueryStylePreviewComponent</text>
</g>
<!-- SafeQueryStylePreviewComponent&#45;&gt;SafeQueryBuilderModule -->
<g id="edge5" class="edge">
<title>SafeQueryStylePreviewComponent&#45;&gt;SafeQueryBuilderModule</title>
<path fill="none" stroke="black" d="M1550,-196.42C1550,-213.45 1550,-236.39 1550,-236.39 1550,-236.39 1153.96,-236.39 1153.96,-236.39"/>
<polygon fill="black" stroke="black" points="1153.96,-232.89 1143.96,-236.39 1153.96,-239.89 1153.96,-232.89"/>
</g>
<!-- SafeTabFieldsComponent -->
<g id="node5" class="node">
<title>SafeTabFieldsComponent</title>
<polygon fill="#ffffb3" stroke="black" points="1424.2,-196.39 1261.8,-196.39 1261.8,-160.39 1424.2,-160.39 1424.2,-196.39"/>
<text text-anchor="middle" x="1343" y="-174.19" font-family="Times,serif" font-size="14.00">SafeTabFieldsComponent</text>
</g>
<!-- SafeTabFieldsComponent&#45;&gt;SafeQueryBuilderModule -->
<g id="edge6" class="edge">
<title>SafeTabFieldsComponent&#45;&gt;SafeQueryBuilderModule</title>
<path fill="none" stroke="black" d="M1343,-196.63C1343,-211.96 1343,-231.39 1343,-231.39 1343,-231.39 1153.99,-231.39 1153.99,-231.39"/>
<polygon fill="black" stroke="black" points="1153.99,-227.89 1143.99,-231.39 1153.99,-234.89 1153.99,-227.89"/>
</g>
<!-- SafeTabFilterComponent -->
<g id="node6" class="node">
<title>SafeTabFilterComponent</title>
<polygon fill="#ffffb3" stroke="black" points="1244.3,-196.39 1085.7,-196.39 1085.7,-160.39 1244.3,-160.39 1244.3,-196.39"/>
<text text-anchor="middle" x="1165" y="-174.19" font-family="Times,serif" font-size="14.00">SafeTabFilterComponent</text>
</g>
<!-- SafeTabFilterComponent&#45;&gt;SafeQueryBuilderModule -->
<g id="edge7" class="edge">
<title>SafeTabFilterComponent&#45;&gt;SafeQueryBuilderModule</title>
<path fill="none" stroke="black" d="M1114.78,-196.5C1114.78,-196.5 1114.78,-215.38 1114.78,-215.38"/>
<polygon fill="black" stroke="black" points="1111.28,-215.38 1114.78,-225.38 1118.28,-215.38 1111.28,-215.38"/>
</g>
<!-- SafeTabLayoutPreviewComponent -->
<g id="node7" class="node">
<title>SafeTabLayoutPreviewComponent</title>
<polygon fill="#ffffb3" stroke="black" points="1067.5,-196.39 854.5,-196.39 854.5,-160.39 1067.5,-160.39 1067.5,-196.39"/>
<text text-anchor="middle" x="961" y="-174.19" font-family="Times,serif" font-size="14.00">SafeTabLayoutPreviewComponent</text>
</g>
<!-- SafeTabLayoutPreviewComponent&#45;&gt;SafeQueryBuilderModule -->
<g id="edge8" class="edge">
<title>SafeTabLayoutPreviewComponent&#45;&gt;SafeQueryBuilderModule</title>
<path fill="none" stroke="black" d="M1025.02,-196.5C1025.02,-196.5 1025.02,-215.38 1025.02,-215.38"/>
<polygon fill="black" stroke="black" points="1021.52,-215.38 1025.02,-225.38 1028.52,-215.38 1021.52,-215.38"/>
</g>
<!-- SafeTabSortComponent -->
<g id="node8" class="node">
<title>SafeTabSortComponent</title>
<polygon fill="#ffffb3" stroke="black" points="836.81,-196.39 685.19,-196.39 685.19,-160.39 836.81,-160.39 836.81,-196.39"/>
<text text-anchor="middle" x="761" y="-174.19" font-family="Times,serif" font-size="14.00">SafeTabSortComponent</text>
</g>
<!-- SafeTabSortComponent&#45;&gt;SafeQueryBuilderModule -->
<g id="edge9" class="edge">
<title>SafeTabSortComponent&#45;&gt;SafeQueryBuilderModule</title>
<path fill="none" stroke="black" d="M777.62,-196.63C777.62,-211.96 777.62,-231.39 777.62,-231.39 777.62,-231.39 971.99,-231.39 971.99,-231.39"/>
<polygon fill="black" stroke="black" points="971.99,-234.89 981.99,-231.39 971.99,-227.89 971.99,-234.89"/>
</g>
<!-- SafeTabStyleComponent -->
<g id="node9" class="node">
<title>SafeTabStyleComponent</title>
<polygon fill="#ffffb3" stroke="black" points="667.25,-196.39 510.75,-196.39 510.75,-160.39 667.25,-160.39 667.25,-196.39"/>
<text text-anchor="middle" x="589" y="-174.19" font-family="Times,serif" font-size="14.00">SafeTabStyleComponent</text>
</g>
<!-- SafeTabStyleComponent&#45;&gt;SafeQueryBuilderModule -->
<g id="edge10" class="edge">
<title>SafeTabStyleComponent&#45;&gt;SafeQueryBuilderModule</title>
<path fill="none" stroke="black" d="M589,-196.42C589,-213.45 589,-236.39 589,-236.39 589,-236.39 972.06,-236.39 972.06,-236.39"/>
<polygon fill="black" stroke="black" points="972.06,-239.89 982.06,-236.39 972.06,-232.89 972.06,-239.89"/>
</g>
<!-- SafeQueryBuilderComponent  -->
<g id="node15" class="node">
<title>SafeQueryBuilderComponent </title>
<polygon fill="#fb8072" stroke="black" points="1441.19,-326.39 1254.81,-326.39 1254.81,-290.39 1441.19,-290.39 1441.19,-326.39"/>
<text text-anchor="middle" x="1348" y="-304.19" font-family="Times,serif" font-size="14.00">SafeQueryBuilderComponent </text>
</g>
<!-- SafeQueryBuilderModule&#45;&gt;SafeQueryBuilderComponent  -->
<g id="edge14" class="edge">
<title>SafeQueryBuilderModule&#45;&gt;SafeQueryBuilderComponent </title>
<path fill="none" stroke="black" stroke-dasharray="5,2" d="M1143.84,-256.39C1197.56,-256.39 1258.28,-256.39 1258.28,-256.39 1258.28,-256.39 1258.28,-280.2 1258.28,-280.2"/>
<polygon fill="black" stroke="black" points="1254.78,-280.2 1258.28,-290.2 1261.78,-280.2 1254.78,-280.2"/>
</g>
<!-- SafeTabFieldsComponent  -->
<g id="node16" class="node">
<title>SafeTabFieldsComponent </title>
<polygon fill="#fb8072" stroke="black" points="1236.7,-326.39 1071.3,-326.39 1071.3,-290.39 1236.7,-290.39 1236.7,-326.39"/>
<text text-anchor="middle" x="1154" y="-304.19" font-family="Times,serif" font-size="14.00">SafeTabFieldsComponent </text>
</g>
<!-- SafeQueryBuilderModule&#45;&gt;SafeTabFieldsComponent  -->
<g id="edge15" class="edge">
<title>SafeQueryBuilderModule&#45;&gt;SafeTabFieldsComponent </title>
<path fill="none" stroke="black" stroke-dasharray="5,2" d="M1107.43,-261.5C1107.43,-261.5 1107.43,-280.38 1107.43,-280.38"/>
<polygon fill="black" stroke="black" points="1103.93,-280.38 1107.43,-290.38 1110.93,-280.38 1103.93,-280.38"/>
</g>
<!-- SafeTabFilterComponent  -->
<g id="node17" class="node">
<title>SafeTabFilterComponent </title>
<polygon fill="#fb8072" stroke="black" points="1052.8,-326.39 891.2,-326.39 891.2,-290.39 1052.8,-290.39 1052.8,-326.39"/>
<text text-anchor="middle" x="972" y="-304.19" font-family="Times,serif" font-size="14.00">SafeTabFilterComponent </text>
</g>
<!-- SafeQueryBuilderModule&#45;&gt;SafeTabFilterComponent  -->
<g id="edge16" class="edge">
<title>SafeQueryBuilderModule&#45;&gt;SafeTabFilterComponent </title>
<path fill="none" stroke="black" stroke-dasharray="5,2" d="M1017.6,-261.5C1017.6,-261.5 1017.6,-280.38 1017.6,-280.38"/>
<polygon fill="black" stroke="black" points="1014.1,-280.38 1017.6,-290.38 1021.1,-280.38 1014.1,-280.38"/>
</g>
<!-- SafeTabSortComponent  -->
<g id="node18" class="node">
<title>SafeTabSortComponent </title>
<polygon fill="#fb8072" stroke="black" points="873.31,-326.39 718.69,-326.39 718.69,-290.39 873.31,-290.39 873.31,-326.39"/>
<text text-anchor="middle" x="796" y="-304.19" font-family="Times,serif" font-size="14.00">SafeTabSortComponent </text>
</g>
<!-- SafeQueryBuilderModule&#45;&gt;SafeTabSortComponent  -->
<g id="edge17" class="edge">
<title>SafeQueryBuilderModule&#45;&gt;SafeTabSortComponent </title>
<path fill="none" stroke="black" stroke-dasharray="5,2" d="M982.28,-256.39C927.07,-256.39 863.83,-256.39 863.83,-256.39 863.83,-256.39 863.83,-280.2 863.83,-280.2"/>
<polygon fill="black" stroke="black" points="860.33,-280.2 863.83,-290.2 867.33,-280.2 860.33,-280.2"/>
</g>
<!-- {
 &#160;&#160;&#160;provide: MAT_AUTOCOMPLETE_SCROLL_STRATEGY, useFactory: scrollFactory, deps: [Overlay],
} -->
<g id="node11" class="node">
<title>{
 &#160;&#160;&#160;provide: MAT_AUTOCOMPLETE_SCROLL_STRATEGY, useFactory: scrollFactory, deps: [Overlay],
}</title>
<ellipse fill="#fdb462" stroke="black" cx="1820" cy="-90.1" rx="438.07" ry="41.09"/>
<text text-anchor="middle" x="1820" y="-102.7" font-family="Times,serif" font-size="14.00">{</text>
<text text-anchor="middle" x="1820" y="-85.9" font-family="Times,serif" font-size="14.00"> &#160;&#160;&#160;provide: MAT_AUTOCOMPLETE_SCROLL_STRATEGY, useFactory: scrollFactory, deps: [Overlay],</text>
<text text-anchor="middle" x="1820" y="-69.1" font-family="Times,serif" font-size="14.00">}</text>
</g>
<!-- {
 &#160;&#160;&#160;provide: MAT_AUTOCOMPLETE_SCROLL_STRATEGY, useFactory: scrollFactory, deps: [Overlay],
}&#45;&gt;SafeQueryBuilderComponent -->
<g id="edge2" class="edge">
<title>{
 &#160;&#160;&#160;provide: MAT_AUTOCOMPLETE_SCROLL_STRATEGY, useFactory: scrollFactory, deps: [Overlay],
}&#45;&gt;SafeQueryBuilderComponent</title>
<path fill="none" stroke="black" d="M2166,-115.63C2166,-115.63 2166,-150.2 2166,-150.2"/>
<polygon fill="black" stroke="black" points="2162.5,-150.2 2166,-160.2 2169.5,-150.2 2162.5,-150.2"/>
</g>
<!-- SafeButtonModule -->
<g id="node12" class="node">
<title>SafeButtonModule</title>
<polygon fill="#8dd3c7" stroke="black" points="487.05,-196.39 484.05,-200.39 463.05,-200.39 460.05,-196.39 364.95,-196.39 364.95,-160.39 487.05,-160.39 487.05,-196.39"/>
<text text-anchor="middle" x="426" y="-174.19" font-family="Times,serif" font-size="14.00">SafeButtonModule</text>
</g>
<!-- SafeButtonModule&#45;&gt;SafeQueryBuilderModule -->
<g id="edge11" class="edge">
<title>SafeButtonModule&#45;&gt;SafeQueryBuilderModule</title>
<path fill="none" stroke="black" d="M426,-196.61C426,-215.22 426,-241.39 426,-241.39 426,-241.39 972,-241.39 972,-241.39"/>
<polygon fill="black" stroke="black" points="972,-244.89 982,-241.39 972,-237.89 972,-244.89"/>
</g>
<!-- SafeCheckboxTreeModule -->
<g id="node13" class="node">
<title>SafeCheckboxTreeModule</title>
<polygon fill="#8dd3c7" stroke="black" points="346.34,-196.39 343.34,-200.39 322.34,-200.39 319.34,-196.39 179.66,-196.39 179.66,-160.39 346.34,-160.39 346.34,-196.39"/>
<text text-anchor="middle" x="263" y="-174.19" font-family="Times,serif" font-size="14.00">SafeCheckboxTreeModule</text>
</g>
<!-- SafeCheckboxTreeModule&#45;&gt;SafeQueryBuilderModule -->
<g id="edge12" class="edge">
<title>SafeCheckboxTreeModule&#45;&gt;SafeQueryBuilderModule</title>
<path fill="none" stroke="black" d="M263,-196.61C263,-216.76 263,-246.39 263,-246.39 263,-246.39 972.26,-246.39 972.26,-246.39"/>
<polygon fill="black" stroke="black" points="972.26,-249.89 982.26,-246.39 972.26,-242.89 972.26,-249.89"/>
</g>
<!-- SafeCoreGridModule -->
<g id="node14" class="node">
<title>SafeCoreGridModule</title>
<polygon fill="#8dd3c7" stroke="black" points="161.8,-196.39 158.8,-200.39 137.8,-200.39 134.8,-196.39 24.2,-196.39 24.2,-160.39 161.8,-160.39 161.8,-196.39"/>
<text text-anchor="middle" x="93" y="-174.19" font-family="Times,serif" font-size="14.00">SafeCoreGridModule</text>
</g>
<!-- SafeCoreGridModule&#45;&gt;SafeQueryBuilderModule -->
<g id="edge13" class="edge">
<title>SafeCoreGridModule&#45;&gt;SafeQueryBuilderModule</title>
<path fill="none" stroke="black" d="M93,-196.44C93,-218.05 93,-251.39 93,-251.39 93,-251.39 971.97,-251.39 971.97,-251.39"/>
<polygon fill="black" stroke="black" points="971.97,-254.89 981.97,-251.39 971.97,-247.89 971.97,-254.89"/>
</g>
</g>
</svg>
