<?xml version="1.0" encoding="UTF-8" standalone="no"?>
<!DOCTYPE svg PUBLIC "-//W3C//DTD SVG 1.1//EN"
 "http://www.w3.org/Graphics/SVG/1.1/DTD/svg11.dtd">
<!-- Generated by graphviz version 3.0.0 (20220226.1711)
 -->
<!-- Title: dependencies Pages: 1 -->
<svg width="552pt" height="174pt"
 viewBox="0.00 0.00 552.00 173.80" xmlns="http://www.w3.org/2000/svg" xmlns:xlink="http://www.w3.org/1999/xlink">
<g id="graph0" class="graph" transform="scale(1 1) rotate(0) translate(4 169.8)">
<title>dependencies</title>
<polygon fill="white" stroke="transparent" points="-4,4 -4,-169.8 548,-169.8 548,4 -4,4"/>
<text text-anchor="middle" x="272" y="-8.2" font-family="sans-serif" font-size="14.00">dependencies</text>
<g id="clust1" class="cluster">
<title>cluster_RecordsTabModule</title>
<polygon fill="none" stroke="black" stroke-dasharray="1,5" points="8,-32.8 8,-157.8 536,-157.8 536,-32.8 8,-32.8"/>
</g>
<g id="clust4" class="cluster">
<title>cluster_RecordsTabModule_imports</title>
<polygon fill="none" stroke="black" points="188,-40.8 188,-92.8 528,-92.8 528,-40.8 188,-40.8"/>
</g>
<g id="clust2" class="cluster">
<title>cluster_RecordsTabModule_declarations</title>
<polygon fill="none" stroke="black" points="16,-40.8 16,-92.8 180,-92.8 180,-40.8 16,-40.8"/>
</g>
<!-- RecordsTabComponent -->
<g id="node1" class="node">
<title>RecordsTabComponent</title>
<polygon fill="#ffffb3" stroke="black" points="172.47,-84.8 23.53,-84.8 23.53,-48.8 172.47,-48.8 172.47,-84.8"/>
<text text-anchor="middle" x="98" y="-62.6" font-family="Times,serif" font-size="14.00">RecordsTabComponent</text>
</g>
<!-- RecordsTabModule -->
<g id="node2" class="node">
<title>RecordsTabModule</title>
<polygon fill="#8dd3c7" stroke="black" points="326.69,-149.8 323.69,-153.8 302.69,-153.8 299.69,-149.8 199.31,-149.8 199.31,-113.8 326.69,-113.8 326.69,-149.8"/>
<text text-anchor="middle" x="263" y="-127.6" font-family="Times,serif" font-size="14.00">RecordsTabModule</text>
</g>
<!-- RecordsTabComponent&#45;&gt;RecordsTabModule -->
<g id="edge1" class="edge">
<title>RecordsTabComponent&#45;&gt;RecordsTabModule</title>
<path fill="none" stroke="black" d="M98,-84.91C98,-104.14 98,-131.8 98,-131.8 98,-131.8 189.21,-131.8 189.21,-131.8"/>
<polygon fill="black" stroke="black" points="189.21,-135.3 199.21,-131.8 189.21,-128.3 189.21,-135.3"/>
</g>
<!-- RecordsTabRoutingModule -->
<g id="node3" class="node">
<title>RecordsTabRoutingModule</title>
<polygon fill="#8dd3c7" stroke="black" points="520.31,-84.8 517.31,-88.8 496.31,-88.8 493.31,-84.8 347.69,-84.8 347.69,-48.8 520.31,-48.8 520.31,-84.8"/>
<text text-anchor="middle" x="434" y="-62.6" font-family="Times,serif" font-size="14.00">RecordsTabRoutingModule</text>
</g>
<!-- RecordsTabRoutingModule&#45;&gt;RecordsTabModule -->
<g id="edge2" class="edge">
<title>RecordsTabRoutingModule&#45;&gt;RecordsTabModule</title>
<path fill="none" stroke="black" d="M434,-84.91C434,-104.14 434,-131.8 434,-131.8 434,-131.8 336.67,-131.8 336.67,-131.8"/>
<polygon fill="black" stroke="black" points="336.67,-128.3 326.67,-131.8 336.67,-135.3 336.67,-128.3"/>
</g>
<!-- UploadMenuModule -->
<g id="node4" class="node">
<title>UploadMenuModule</title>
<polygon fill="#8dd3c7" stroke="black" points="329.93,-84.8 326.93,-88.8 305.93,-88.8 302.93,-84.8 196.07,-84.8 196.07,-48.8 329.93,-48.8 329.93,-84.8"/>
<text text-anchor="middle" x="263" y="-62.6" font-family="Times,serif" font-size="14.00">UploadMenuModule</text>
</g>
<!-- UploadMenuModule&#45;&gt;RecordsTabModule -->
<g id="edge3" class="edge">
<title>UploadMenuModule&#45;&gt;RecordsTabModule</title>
<path fill="none" stroke="black" d="M263,-84.91C263,-84.91 263,-103.79 263,-103.79"/>
<polygon fill="black" stroke="black" points="259.5,-103.79 263,-113.79 266.5,-103.79 259.5,-103.79"/>
</g>
</g>
</svg>
