<?xml version="1.0" encoding="UTF-8" standalone="no"?>
<!DOCTYPE svg PUBLIC "-//W3C//DTD SVG 1.1//EN"
 "http://www.w3.org/Graphics/SVG/1.1/DTD/svg11.dtd">
<!-- Generated by graphviz version 3.0.0 (20220226.1711)
 -->
<!-- Title: dependencies Pages: 1 -->
<svg width="810pt" height="247pt"
 viewBox="0.00 0.00 810.00 246.80" xmlns="http://www.w3.org/2000/svg" xmlns:xlink="http://www.w3.org/1999/xlink">
<g id="graph0" class="graph" transform="scale(1 1) rotate(0) translate(4 242.8)">
<title>dependencies</title>
<polygon fill="white" stroke="transparent" points="-4,4 -4,-242.8 806,-242.8 806,4 -4,4"/>
<text text-anchor="middle" x="401" y="-8.2" font-family="sans-serif" font-size="14.00">dependencies</text>
<g id="clust1" class="cluster">
<title>cluster_SafeApplicationDistributionListsModule</title>
<polygon fill="none" stroke="black" stroke-dasharray="1,5" points="8,-32.8 8,-230.8 794,-230.8 794,-32.8 8,-32.8"/>
</g>
<g id="clust4" class="cluster">
<title>cluster_SafeApplicationDistributionListsModule_imports</title>
<polygon fill="none" stroke="black" points="308,-40.8 308,-92.8 786,-92.8 786,-40.8 308,-40.8"/>
</g>
<g id="clust5" class="cluster">
<title>cluster_SafeApplicationDistributionListsModule_exports</title>
<polygon fill="none" stroke="black" points="318,-170.8 318,-222.8 604,-222.8 604,-170.8 318,-170.8"/>
</g>
<g id="clust2" class="cluster">
<title>cluster_SafeApplicationDistributionListsModule_declarations</title>
<polygon fill="none" stroke="black" points="16,-40.8 16,-92.8 300,-92.8 300,-40.8 16,-40.8"/>
</g>
<!-- SafeApplicationDistributionListsComponent -->
<g id="node1" class="node">
<title>SafeApplicationDistributionListsComponent</title>
<polygon fill="#ffffb3" stroke="black" points="291.7,-84.8 24.3,-84.8 24.3,-48.8 291.7,-48.8 291.7,-84.8"/>
<text text-anchor="middle" x="158" y="-62.6" font-family="Times,serif" font-size="14.00">SafeApplicationDistributionListsComponent</text>
</g>
<!-- SafeApplicationDistributionListsModule -->
<g id="node2" class="node">
<title>SafeApplicationDistributionListsModule</title>
<polygon fill="#8dd3c7" stroke="black" points="583.92,-149.8 580.92,-153.8 559.92,-153.8 556.92,-149.8 338.08,-149.8 338.08,-113.8 583.92,-113.8 583.92,-149.8"/>
<text text-anchor="middle" x="461" y="-127.6" font-family="Times,serif" font-size="14.00">SafeApplicationDistributionListsModule</text>
</g>
<!-- SafeApplicationDistributionListsComponent&#45;&gt;SafeApplicationDistributionListsModule -->
<g id="edge1" class="edge">
<title>SafeApplicationDistributionListsComponent&#45;&gt;SafeApplicationDistributionListsModule</title>
<path fill="none" stroke="black" d="M158,-84.91C158,-104.14 158,-131.8 158,-131.8 158,-131.8 328.2,-131.8 328.2,-131.8"/>
<polygon fill="black" stroke="black" points="328.2,-135.3 338.2,-131.8 328.2,-128.3 328.2,-135.3"/>
</g>
<!-- SafeApplicationDistributionListsComponent  -->
<g id="node5" class="node">
<title>SafeApplicationDistributionListsComponent </title>
<polygon fill="#fb8072" stroke="black" points="596.2,-214.8 325.8,-214.8 325.8,-178.8 596.2,-178.8 596.2,-214.8"/>
<text text-anchor="middle" x="461" y="-192.6" font-family="Times,serif" font-size="14.00">SafeApplicationDistributionListsComponent </text>
</g>
<!-- SafeApplicationDistributionListsModule&#45;&gt;SafeApplicationDistributionListsComponent  -->
<g id="edge4" class="edge">
<title>SafeApplicationDistributionListsModule&#45;&gt;SafeApplicationDistributionListsComponent </title>
<path fill="none" stroke="black" stroke-dasharray="5,2" d="M461,-149.91C461,-149.91 461,-168.79 461,-168.79"/>
<polygon fill="black" stroke="black" points="457.5,-168.79 461,-178.79 464.5,-168.79 457.5,-168.79"/>
</g>
<!-- DistributionListsModule -->
<g id="node3" class="node">
<title>DistributionListsModule</title>
<polygon fill="#8dd3c7" stroke="black" points="778.45,-84.8 775.45,-88.8 754.45,-88.8 751.45,-84.8 623.55,-84.8 623.55,-48.8 778.45,-48.8 778.45,-84.8"/>
<text text-anchor="middle" x="701" y="-62.6" font-family="Times,serif" font-size="14.00">DistributionListsModule</text>
</g>
<!-- DistributionListsModule&#45;&gt;SafeApplicationDistributionListsModule -->
<g id="edge2" class="edge">
<title>DistributionListsModule&#45;&gt;SafeApplicationDistributionListsModule</title>
<path fill="none" stroke="black" d="M701,-84.91C701,-104.14 701,-131.8 701,-131.8 701,-131.8 593.81,-131.8 593.81,-131.8"/>
<polygon fill="black" stroke="black" points="593.81,-128.3 583.81,-131.8 593.81,-135.3 593.81,-128.3"/>
</g>
<!-- SafeApplicationDistributionListsRoutingModule -->
<g id="node4" class="node">
<title>SafeApplicationDistributionListsRoutingModule</title>
<polygon fill="#8dd3c7" stroke="black" points="606.04,-84.8 603.04,-88.8 582.04,-88.8 579.04,-84.8 315.96,-84.8 315.96,-48.8 606.04,-48.8 606.04,-84.8"/>
<text text-anchor="middle" x="461" y="-62.6" font-family="Times,serif" font-size="14.00">SafeApplicationDistributionListsRoutingModule</text>
</g>
<!-- SafeApplicationDistributionListsRoutingModule&#45;&gt;SafeApplicationDistributionListsModule -->
<g id="edge3" class="edge">
<title>SafeApplicationDistributionListsRoutingModule&#45;&gt;SafeApplicationDistributionListsModule</title>
<path fill="none" stroke="black" d="M461,-84.91C461,-84.91 461,-103.79 461,-103.79"/>
<polygon fill="black" stroke="black" points="457.5,-103.79 461,-113.79 464.5,-103.79 457.5,-103.79"/>
</g>
</g>
</svg>
