<?xml version="1.0" encoding="UTF-8" standalone="no"?>
<!DOCTYPE svg PUBLIC "-//W3C//DTD SVG 1.1//EN"
 "http://www.w3.org/Graphics/SVG/1.1/DTD/svg11.dtd">
<!-- Generated by graphviz version 2.47.0 (20210316.0004)
 -->
<!-- Title: dependencies Pages: 1 -->
<svg width="823pt" height="211pt"
 viewBox="0.00 0.00 823.00 211.00" xmlns="http://www.w3.org/2000/svg" xmlns:xlink="http://www.w3.org/1999/xlink">
<g id="graph0" class="graph" transform="scale(1 1) rotate(0) translate(4 207)">
<title>dependencies</title>
<polygon fill="white" stroke="transparent" points="-4,4 -4,-207 819,-207 819,4 -4,4"/>
<text text-anchor="start" x="386.51" y="-42.4" font-family="sans-serif" font-weight="bold" font-size="14.00">Legend</text>
<polygon fill="#ffffb3" stroke="transparent" points="173.5,-10 173.5,-30 193.5,-30 193.5,-10 173.5,-10"/>
<text text-anchor="start" x="197.13" y="-15.4" font-family="sans-serif" font-size="14.00"> &#160;Declarations</text>
<polygon fill="#8dd3c7" stroke="transparent" points="286.5,-10 286.5,-30 306.5,-30 306.5,-10 286.5,-10"/>
<text text-anchor="start" x="310.23" y="-15.4" font-family="sans-serif" font-size="14.00"> &#160;Module</text>
<polygon fill="#80b1d3" stroke="transparent" points="372.5,-10 372.5,-30 392.5,-30 392.5,-10 372.5,-10"/>
<text text-anchor="start" x="396.28" y="-15.4" font-family="sans-serif" font-size="14.00"> &#160;Bootstrap</text>
<polygon fill="#fdb462" stroke="transparent" points="469.5,-10 469.5,-30 489.5,-30 489.5,-10 469.5,-10"/>
<text text-anchor="start" x="493.17" y="-15.4" font-family="sans-serif" font-size="14.00"> &#160;Providers</text>
<polygon fill="#fb8072" stroke="transparent" points="565.5,-10 565.5,-30 585.5,-30 585.5,-10 565.5,-10"/>
<text text-anchor="start" x="589.23" y="-15.4" font-family="sans-serif" font-size="14.00"> &#160;Exports</text>
<g id="clust1" class="cluster">
<title>cluster_ChannelsModule</title>
<polygon fill="none" stroke="black" stroke-dasharray="1,5" points="8,-70 8,-195 807,-195 807,-70 8,-70"/>
</g>
<g id="clust6" class="cluster">
<title>cluster_ChannelsModule_imports</title>
<polygon fill="none" stroke="black" points="513,-78 513,-130 799,-130 799,-78 513,-78"/>
</g>
<g id="clust2" class="cluster">
<title>cluster_ChannelsModule_declarations</title>
<polygon fill="none" stroke="black" points="16,-78 16,-130 505,-130 505,-78 16,-78"/>
</g>
<!-- AddChannelComponent -->
<g id="node1" class="node">
<title>AddChannelComponent</title>
<polygon fill="#ffffb3" stroke="black" points="497.1,-122 344.9,-122 344.9,-86 497.1,-86 497.1,-122"/>
<text text-anchor="middle" x="421" y="-99.8" font-family="Times,serif" font-size="14.00">AddChannelComponent</text>
</g>
<!-- ChannelsModule -->
<g id="node4" class="node">
<title>ChannelsModule</title>
<polygon fill="#8dd3c7" stroke="black" points="476.65,-187 473.65,-191 452.65,-191 449.65,-187 365.35,-187 365.35,-151 476.65,-151 476.65,-187"/>
<text text-anchor="middle" x="421" y="-164.8" font-family="Times,serif" font-size="14.00">ChannelsModule</text>
</g>
<!-- AddChannelComponent&#45;&gt;ChannelsModule -->
<g id="edge1" class="edge">
<title>AddChannelComponent&#45;&gt;ChannelsModule</title>
<path fill="none" stroke="black" d="M421,-122.11C421,-122.11 421,-140.99 421,-140.99"/>
<polygon fill="black" stroke="black" points="417.5,-140.99 421,-150.99 424.5,-140.99 417.5,-140.99"/>
</g>
<!-- ChannelsComponent -->
<g id="node2" class="node">
<title>ChannelsComponent</title>
<polygon fill="#ffffb3" stroke="black" points="326.93,-122 193.07,-122 193.07,-86 326.93,-86 326.93,-122"/>
<text text-anchor="middle" x="260" y="-99.8" font-family="Times,serif" font-size="14.00">ChannelsComponent</text>
</g>
<!-- ChannelsComponent&#45;&gt;ChannelsModule -->
<g id="edge2" class="edge">
<title>ChannelsComponent&#45;&gt;ChannelsModule</title>
<path fill="none" stroke="black" d="M260,-122.02C260,-139.37 260,-163 260,-163 260,-163 355.14,-163 355.14,-163"/>
<polygon fill="black" stroke="black" points="355.14,-166.5 365.14,-163 355.14,-159.5 355.14,-166.5"/>
</g>
<!-- EditChannelComponent -->
<g id="node3" class="node">
<title>EditChannelComponent</title>
<polygon fill="#ffffb3" stroke="black" points="175.82,-122 24.18,-122 24.18,-86 175.82,-86 175.82,-122"/>
<text text-anchor="middle" x="100" y="-99.8" font-family="Times,serif" font-size="14.00">EditChannelComponent</text>
</g>
<!-- EditChannelComponent&#45;&gt;ChannelsModule -->
<g id="edge3" class="edge">
<title>EditChannelComponent&#45;&gt;ChannelsModule</title>
<path fill="none" stroke="black" d="M100,-122.28C100,-143.32 100,-175 100,-175 100,-175 355.09,-175 355.09,-175"/>
<polygon fill="black" stroke="black" points="355.09,-178.5 365.09,-175 355.09,-171.5 355.09,-178.5"/>
</g>
<!-- ChannelsRoutingModule -->
<g id="node5" class="node">
<title>ChannelsRoutingModule</title>
<polygon fill="#8dd3c7" stroke="black" points="791.27,-122 788.27,-126 767.27,-126 764.27,-122 634.73,-122 634.73,-86 791.27,-86 791.27,-122"/>
<text text-anchor="middle" x="713" y="-99.8" font-family="Times,serif" font-size="14.00">ChannelsRoutingModule</text>
</g>
<!-- ChannelsRoutingModule&#45;&gt;ChannelsModule -->
<g id="edge4" class="edge">
<title>ChannelsRoutingModule&#45;&gt;ChannelsModule</title>
<path fill="none" stroke="black" d="M713,-122.28C713,-143.32 713,-175 713,-175 713,-175 486.96,-175 486.96,-175"/>
<polygon fill="black" stroke="black" points="486.96,-171.5 476.96,-175 486.96,-178.5 486.96,-171.5"/>
</g>
<!-- FormsModule -->
<g id="node6" class="node">
<title>FormsModule</title>
<polygon fill="#8dd3c7" stroke="black" points="616.83,-122 613.83,-126 592.83,-126 589.83,-122 521.17,-122 521.17,-86 616.83,-86 616.83,-122"/>
<text text-anchor="middle" x="569" y="-99.8" font-family="Times,serif" font-size="14.00">FormsModule</text>
</g>
<!-- FormsModule&#45;&gt;ChannelsModule -->
<g id="edge5" class="edge">
<title>FormsModule&#45;&gt;ChannelsModule</title>
<path fill="none" stroke="black" d="M569,-122.02C569,-139.37 569,-163 569,-163 569,-163 486.95,-163 486.95,-163"/>
<polygon fill="black" stroke="black" points="486.95,-159.5 476.95,-163 486.95,-166.5 486.95,-159.5"/>
</g>
</g>
</svg>
