<?xml version="1.0" encoding="UTF-8" standalone="no"?>
<!DOCTYPE svg PUBLIC "-//W3C//DTD SVG 1.1//EN"
 "http://www.w3.org/Graphics/SVG/1.1/DTD/svg11.dtd">
<!-- Generated by graphviz version 2.47.0 (20210316.0004)
 -->
<!-- Title: dependencies Pages: 1 -->
<svg width="823pt" height="211pt"
 viewBox="0.00 0.00 823.00 211.00" xmlns="http://www.w3.org/2000/svg" xmlns:xlink="http://www.w3.org/1999/xlink">
<g id="graph0" class="graph" transform="scale(1 1) rotate(0) translate(4 207)">
<title>dependencies</title>
<polygon fill="white" stroke="transparent" points="-4,4 -4,-207 819,-207 819,4 -4,4"/>
<text text-anchor="start" x="386.51" y="-42.4" font-family="sans-serif" font-weight="bold" font-size="14.00">Legend</text>
<polygon fill="#ffffb3" stroke="transparent" points="173.5,-10 173.5,-30 193.5,-30 193.5,-10 173.5,-10"/>
<text text-anchor="start" x="197.13" y="-15.4" font-family="sans-serif" font-size="14.00"> &#160;Declarations</text>
<polygon fill="#8dd3c7" stroke="transparent" points="286.5,-10 286.5,-30 306.5,-30 306.5,-10 286.5,-10"/>
<text text-anchor="start" x="310.23" y="-15.4" font-family="sans-serif" font-size="14.00"> &#160;Module</text>
<polygon fill="#80b1d3" stroke="transparent" points="372.5,-10 372.5,-30 392.5,-30 392.5,-10 372.5,-10"/>
<text text-anchor="start" x="396.28" y="-15.4" font-family="sans-serif" font-size="14.00"> &#160;Bootstrap</text>
<polygon fill="#fdb462" stroke="transparent" points="469.5,-10 469.5,-30 489.5,-30 489.5,-10 469.5,-10"/>
<text text-anchor="start" x="493.17" y="-15.4" font-family="sans-serif" font-size="14.00"> &#160;Providers</text>
<polygon fill="#fb8072" stroke="transparent" points="565.5,-10 565.5,-30 585.5,-30 585.5,-10 565.5,-10"/>
<text text-anchor="start" x="589.23" y="-15.4" font-family="sans-serif" font-size="14.00"> &#160;Exports</text>
<g id="clust1" class="cluster">
<title>cluster_ChannelsModule</title>
<polygon fill="none" stroke="black" stroke-dasharray="1,5" points="8,-70 8,-195 807,-195 807,-70 8,-70"/>
</g>
<g id="clust2" class="cluster">
<title>cluster_ChannelsModule_declarations</title>
<polygon fill="none" stroke="black" points="310,-78 310,-130 799,-130 799,-78 310,-78"/>
</g>
<g id="clust6" class="cluster">
<title>cluster_ChannelsModule_imports</title>
<polygon fill="none" stroke="black" points="16,-78 16,-130 302,-130 302,-78 16,-78"/>
</g>
<!-- AddChannelComponent -->
<g id="node1" class="node">
<title>AddChannelComponent</title>
<polygon fill="#ffffb3" stroke="black" points="791.1,-122 638.9,-122 638.9,-86 791.1,-86 791.1,-122"/>
<text text-anchor="middle" x="715" y="-99.8" font-family="Times,serif" font-size="14.00">AddChannelComponent</text>
</g>
<!-- ChannelsModule -->
<g id="node4" class="node">
<title>ChannelsModule</title>
<polygon fill="#8dd3c7" stroke="black" points="449.65,-187 446.65,-191 425.65,-191 422.65,-187 338.35,-187 338.35,-151 449.65,-151 449.65,-187"/>
<text text-anchor="middle" x="394" y="-164.8" font-family="Times,serif" font-size="14.00">ChannelsModule</text>
</g>
<!-- AddChannelComponent&#45;&gt;ChannelsModule -->
<g id="edge1" class="edge">
<title>AddChannelComponent&#45;&gt;ChannelsModule</title>
<path fill="none" stroke="black" d="M715,-122.28C715,-143.32 715,-175 715,-175 715,-175 459.91,-175 459.91,-175"/>
<polygon fill="black" stroke="black" points="459.91,-171.5 449.91,-175 459.91,-178.5 459.91,-171.5"/>
</g>
<!-- ChannelsComponent -->
<g id="node2" class="node">
<title>ChannelsComponent</title>
<polygon fill="#ffffb3" stroke="black" points="620.93,-122 487.07,-122 487.07,-86 620.93,-86 620.93,-122"/>
<text text-anchor="middle" x="554" y="-99.8" font-family="Times,serif" font-size="14.00">ChannelsComponent</text>
</g>
<!-- ChannelsComponent&#45;&gt;ChannelsModule -->
<g id="edge2" class="edge">
<title>ChannelsComponent&#45;&gt;ChannelsModule</title>
<path fill="none" stroke="black" d="M554,-122.02C554,-139.37 554,-163 554,-163 554,-163 459.96,-163 459.96,-163"/>
<polygon fill="black" stroke="black" points="459.96,-159.5 449.96,-163 459.96,-166.5 459.96,-159.5"/>
</g>
<!-- EditChannelComponent -->
<g id="node3" class="node">
<title>EditChannelComponent</title>
<polygon fill="#ffffb3" stroke="black" points="469.82,-122 318.18,-122 318.18,-86 469.82,-86 469.82,-122"/>
<text text-anchor="middle" x="394" y="-99.8" font-family="Times,serif" font-size="14.00">EditChannelComponent</text>
</g>
<!-- EditChannelComponent&#45;&gt;ChannelsModule -->
<g id="edge3" class="edge">
<title>EditChannelComponent&#45;&gt;ChannelsModule</title>
<path fill="none" stroke="black" d="M394,-122.11C394,-122.11 394,-140.99 394,-140.99"/>
<polygon fill="black" stroke="black" points="390.5,-140.99 394,-150.99 397.5,-140.99 390.5,-140.99"/>
</g>
<!-- ChannelsRoutingModule -->
<g id="node5" class="node">
<title>ChannelsRoutingModule</title>
<polygon fill="#8dd3c7" stroke="black" points="294.27,-122 291.27,-126 270.27,-126 267.27,-122 137.73,-122 137.73,-86 294.27,-86 294.27,-122"/>
<text text-anchor="middle" x="216" y="-99.8" font-family="Times,serif" font-size="14.00">ChannelsRoutingModule</text>
</g>
<!-- ChannelsRoutingModule&#45;&gt;ChannelsModule -->
<g id="edge4" class="edge">
<title>ChannelsRoutingModule&#45;&gt;ChannelsModule</title>
<path fill="none" stroke="black" d="M216,-122.02C216,-139.37 216,-163 216,-163 216,-163 328.17,-163 328.17,-163"/>
<polygon fill="black" stroke="black" points="328.17,-166.5 338.17,-163 328.17,-159.5 328.17,-166.5"/>
</g>
<!-- FormsModule -->
<g id="node6" class="node">
<title>FormsModule</title>
<polygon fill="#8dd3c7" stroke="black" points="119.83,-122 116.83,-126 95.83,-126 92.83,-122 24.17,-122 24.17,-86 119.83,-86 119.83,-122"/>
<text text-anchor="middle" x="72" y="-99.8" font-family="Times,serif" font-size="14.00">FormsModule</text>
</g>
<!-- FormsModule&#45;&gt;ChannelsModule -->
<g id="edge5" class="edge">
<title>FormsModule&#45;&gt;ChannelsModule</title>
<path fill="none" stroke="black" d="M72,-122.28C72,-143.32 72,-175 72,-175 72,-175 328.28,-175 328.28,-175"/>
<polygon fill="black" stroke="black" points="328.28,-178.5 338.28,-175 328.28,-171.5 328.28,-178.5"/>
</g>
</g>
</svg>
