<?xml version="1.0" encoding="UTF-8" standalone="no"?>
<!DOCTYPE svg PUBLIC "-//W3C//DTD SVG 1.1//EN"
 "http://www.w3.org/Graphics/SVG/1.1/DTD/svg11.dtd">
<!-- Generated by graphviz version 3.0.0 (20220226.1711)
 -->
<!-- Title: dependencies Pages: 1 -->
<svg width="192pt" height="247pt"
 viewBox="0.00 0.00 192.00 246.80" xmlns="http://www.w3.org/2000/svg" xmlns:xlink="http://www.w3.org/1999/xlink">
<g id="graph0" class="graph" transform="scale(1 1) rotate(0) translate(4 242.8)">
<title>dependencies</title>
<polygon fill="white" stroke="transparent" points="-4,4 -4,-242.8 188,-242.8 188,4 -4,4"/>
<text text-anchor="middle" x="92" y="-8.2" font-family="sans-serif" font-size="14.00">dependencies</text>
<g id="clust1" class="cluster">
<title>cluster_SafeMapModule</title>
<polygon fill="none" stroke="black" stroke-dasharray="1,5" points="8,-32.8 8,-230.8 176,-230.8 176,-32.8 8,-32.8"/>
</g>
<g id="clust2" class="cluster">
<title>cluster_SafeMapModule_declarations</title>
<polygon fill="none" stroke="black" points="18,-40.8 18,-92.8 166,-92.8 166,-40.8 18,-40.8"/>
</g>
<g id="clust5" class="cluster">
<title>cluster_SafeMapModule_exports</title>
<polygon fill="none" stroke="black" points="16,-170.8 16,-222.8 168,-222.8 168,-170.8 16,-170.8"/>
</g>
<!-- SafeMapComponent -->
<g id="node1" class="node">
<title>SafeMapComponent</title>
<polygon fill="#ffffb3" stroke="black" points="157.87,-84.8 26.13,-84.8 26.13,-48.8 157.87,-48.8 157.87,-84.8"/>
<text text-anchor="middle" x="92" y="-62.6" font-family="Times,serif" font-size="14.00">SafeMapComponent</text>
</g>
<!-- SafeMapModule -->
<g id="node2" class="node">
<title>SafeMapModule</title>
<polygon fill="#8dd3c7" stroke="black" points="147.09,-149.8 144.09,-153.8 123.09,-153.8 120.09,-149.8 36.91,-149.8 36.91,-113.8 147.09,-113.8 147.09,-149.8"/>
<text text-anchor="middle" x="92" y="-127.6" font-family="Times,serif" font-size="14.00">SafeMapModule</text>
</g>
<!-- SafeMapComponent&#45;&gt;SafeMapModule -->
<g id="edge1" class="edge">
<title>SafeMapComponent&#45;&gt;SafeMapModule</title>
<path fill="none" stroke="black" d="M92,-84.91C92,-84.91 92,-103.79 92,-103.79"/>
<polygon fill="black" stroke="black" points="88.5,-103.79 92,-113.79 95.5,-103.79 88.5,-103.79"/>
</g>
<!-- SafeMapComponent  -->
<g id="node3" class="node">
<title>SafeMapComponent </title>
<polygon fill="#fb8072" stroke="black" points="159.87,-214.8 24.13,-214.8 24.13,-178.8 159.87,-178.8 159.87,-214.8"/>
<text text-anchor="middle" x="92" y="-192.6" font-family="Times,serif" font-size="14.00">SafeMapComponent </text>
</g>
<!-- SafeMapModule&#45;&gt;SafeMapComponent  -->
<g id="edge2" class="edge">
<title>SafeMapModule&#45;&gt;SafeMapComponent </title>
<path fill="none" stroke="black" stroke-dasharray="5,2" d="M92,-149.91C92,-149.91 92,-168.79 92,-168.79"/>
<polygon fill="black" stroke="black" points="88.5,-168.79 92,-178.79 95.5,-168.79 88.5,-168.79"/>
</g>
</g>
</svg>
