<?xml version="1.0" encoding="UTF-8" standalone="no"?>
<!DOCTYPE svg PUBLIC "-//W3C//DTD SVG 1.1//EN"
 "http://www.w3.org/Graphics/SVG/1.1/DTD/svg11.dtd">
<!-- Generated by graphviz version 3.0.0 (20220226.1711)
 -->
<!-- Title: dependencies Pages: 1 -->
<svg width="394pt" height="247pt"
 viewBox="0.00 0.00 394.00 246.80" xmlns="http://www.w3.org/2000/svg" xmlns:xlink="http://www.w3.org/1999/xlink">
<g id="graph0" class="graph" transform="scale(1 1) rotate(0) translate(4 242.8)">
<title>dependencies</title>
<polygon fill="white" stroke="transparent" points="-4,4 -4,-242.8 390,-242.8 390,4 -4,4"/>
<text text-anchor="middle" x="193" y="-8.2" font-family="sans-serif" font-size="14.00">dependencies</text>
<g id="clust1" class="cluster">
<title>cluster_EditTemplateModalModule</title>
<polygon fill="none" stroke="black" stroke-dasharray="1,5" points="8,-32.8 8,-230.8 378,-230.8 378,-32.8 8,-32.8"/>
</g>
<g id="clust5" class="cluster">
<title>cluster_EditTemplateModalModule_exports</title>
<polygon fill="none" stroke="black" points="86,-170.8 86,-222.8 300,-222.8 300,-170.8 86,-170.8"/>
</g>
<g id="clust2" class="cluster">
<title>cluster_EditTemplateModalModule_declarations</title>
<polygon fill="none" stroke="black" points="160,-40.8 160,-92.8 370,-92.8 370,-40.8 160,-40.8"/>
</g>
<g id="clust4" class="cluster">
<title>cluster_EditTemplateModalModule_imports</title>
<polygon fill="none" stroke="black" points="16,-40.8 16,-92.8 152,-92.8 152,-40.8 16,-40.8"/>
</g>
<!-- EditTemplateModalComponent -->
<g id="node1" class="node">
<title>EditTemplateModalComponent</title>
<polygon fill="#ffffb3" stroke="black" points="362.08,-84.8 167.92,-84.8 167.92,-48.8 362.08,-48.8 362.08,-84.8"/>
<text text-anchor="middle" x="265" y="-62.6" font-family="Times,serif" font-size="14.00">EditTemplateModalComponent</text>
</g>
<!-- EditTemplateModalModule -->
<g id="node2" class="node">
<title>EditTemplateModalModule</title>
<polygon fill="#8dd3c7" stroke="black" points="279.3,-149.8 276.3,-153.8 255.3,-153.8 252.3,-149.8 106.7,-149.8 106.7,-113.8 279.3,-113.8 279.3,-149.8"/>
<text text-anchor="middle" x="193" y="-127.6" font-family="Times,serif" font-size="14.00">EditTemplateModalModule</text>
</g>
<!-- EditTemplateModalComponent&#45;&gt;EditTemplateModalModule -->
<g id="edge1" class="edge">
<title>EditTemplateModalComponent&#45;&gt;EditTemplateModalModule</title>
<path fill="none" stroke="black" d="M223.56,-84.91C223.56,-84.91 223.56,-103.79 223.56,-103.79"/>
<polygon fill="black" stroke="black" points="220.06,-103.79 223.56,-113.79 227.06,-103.79 220.06,-103.79"/>
</g>
<!-- EditTemplateModalComponent  -->
<g id="node4" class="node">
<title>EditTemplateModalComponent </title>
<polygon fill="#fb8072" stroke="black" points="291.58,-214.8 94.42,-214.8 94.42,-178.8 291.58,-178.8 291.58,-214.8"/>
<text text-anchor="middle" x="193" y="-192.6" font-family="Times,serif" font-size="14.00">EditTemplateModalComponent </text>
</g>
<!-- EditTemplateModalModule&#45;&gt;EditTemplateModalComponent  -->
<g id="edge3" class="edge">
<title>EditTemplateModalModule&#45;&gt;EditTemplateModalComponent </title>
<path fill="none" stroke="black" stroke-dasharray="5,2" d="M193,-149.91C193,-149.91 193,-168.79 193,-168.79"/>
<polygon fill="black" stroke="black" points="189.5,-168.79 193,-178.79 196.5,-168.79 189.5,-168.79"/>
</g>
<!-- SafeModalModule -->
<g id="node3" class="node">
<title>SafeModalModule</title>
<polygon fill="#8dd3c7" stroke="black" points="144.48,-84.8 141.48,-88.8 120.48,-88.8 117.48,-84.8 23.52,-84.8 23.52,-48.8 144.48,-48.8 144.48,-84.8"/>
<text text-anchor="middle" x="84" y="-62.6" font-family="Times,serif" font-size="14.00">SafeModalModule</text>
</g>
<!-- SafeModalModule&#45;&gt;EditTemplateModalModule -->
<g id="edge2" class="edge">
<title>SafeModalModule&#45;&gt;EditTemplateModalModule</title>
<path fill="none" stroke="black" d="M125.67,-84.91C125.67,-84.91 125.67,-103.79 125.67,-103.79"/>
<polygon fill="black" stroke="black" points="122.17,-103.79 125.67,-113.79 129.17,-103.79 122.17,-103.79"/>
</g>
</g>
</svg>
