<?xml version="1.0" encoding="UTF-8" standalone="no"?>
<!DOCTYPE svg PUBLIC "-//W3C//DTD SVG 1.1//EN"
 "http://www.w3.org/Graphics/SVG/1.1/DTD/svg11.dtd">
<!-- Generated by graphviz version 2.47.0 (20210316.0004)
 -->
<!-- Title: dependencies Pages: 1 -->
<svg width="805pt" height="284pt"
 viewBox="0.00 0.00 805.00 284.00" xmlns="http://www.w3.org/2000/svg" xmlns:xlink="http://www.w3.org/1999/xlink">
<g id="graph0" class="graph" transform="scale(1 1) rotate(0) translate(4 280)">
<title>dependencies</title>
<polygon fill="white" stroke="transparent" points="-4,4 -4,-280 801,-280 801,4 -4,4"/>
<text text-anchor="start" x="377.51" y="-42.4" font-family="sans-serif" font-weight="bold" font-size="14.00">Legend</text>
<polygon fill="#ffffb3" stroke="transparent" points="164.5,-10 164.5,-30 184.5,-30 184.5,-10 164.5,-10"/>
<text text-anchor="start" x="188.13" y="-15.4" font-family="sans-serif" font-size="14.00"> &#160;Declarations</text>
<polygon fill="#8dd3c7" stroke="transparent" points="277.5,-10 277.5,-30 297.5,-30 297.5,-10 277.5,-10"/>
<text text-anchor="start" x="301.23" y="-15.4" font-family="sans-serif" font-size="14.00"> &#160;Module</text>
<polygon fill="#80b1d3" stroke="transparent" points="363.5,-10 363.5,-30 383.5,-30 383.5,-10 363.5,-10"/>
<text text-anchor="start" x="387.28" y="-15.4" font-family="sans-serif" font-size="14.00"> &#160;Bootstrap</text>
<polygon fill="#fdb462" stroke="transparent" points="460.5,-10 460.5,-30 480.5,-30 480.5,-10 460.5,-10"/>
<text text-anchor="start" x="484.17" y="-15.4" font-family="sans-serif" font-size="14.00"> &#160;Providers</text>
<polygon fill="#fb8072" stroke="transparent" points="556.5,-10 556.5,-30 576.5,-30 576.5,-10 556.5,-10"/>
<text text-anchor="start" x="580.23" y="-15.4" font-family="sans-serif" font-size="14.00"> &#160;Exports</text>
<g id="clust1" class="cluster">
<title>cluster_SafeRecordModalModule</title>
<polygon fill="none" stroke="black" stroke-dasharray="1,5" points="8,-70 8,-268 789,-268 789,-70 8,-70"/>
</g>
<g id="clust2" class="cluster">
<title>cluster_SafeRecordModalModule_declarations</title>
<polygon fill="none" stroke="black" points="581,-78 581,-130 781,-130 781,-78 581,-78"/>
</g>
<g id="clust4" class="cluster">
<title>cluster_SafeRecordModalModule_imports</title>
<polygon fill="none" stroke="black" points="16,-78 16,-130 573,-130 573,-78 16,-78"/>
</g>
<g id="clust5" class="cluster">
<title>cluster_SafeRecordModalModule_exports</title>
<polygon fill="none" stroke="black" points="312,-208 312,-260 514,-260 514,-208 312,-208"/>
</g>
<!-- SafeRecordModalComponent -->
<g id="node1" class="node">
<title>SafeRecordModalComponent</title>
<polygon fill="#ffffb3" stroke="black" points="772.68,-122 589.32,-122 589.32,-86 772.68,-86 772.68,-122"/>
<text text-anchor="middle" x="681" y="-99.8" font-family="Times,serif" font-size="14.00">SafeRecordModalComponent</text>
</g>
<!-- SafeRecordModalModule -->
<g id="node2" class="node">
<title>SafeRecordModalModule</title>
<polygon fill="#8dd3c7" stroke="black" points="493.9,-187 490.9,-191 469.9,-191 466.9,-187 332.1,-187 332.1,-151 493.9,-151 493.9,-187"/>
<text text-anchor="middle" x="413" y="-164.8" font-family="Times,serif" font-size="14.00">SafeRecordModalModule</text>
</g>
<!-- SafeRecordModalComponent&#45;&gt;SafeRecordModalModule -->
<g id="edge1" class="edge">
<title>SafeRecordModalComponent&#45;&gt;SafeRecordModalModule</title>
<path fill="none" stroke="black" d="M681,-122.11C681,-141.34 681,-169 681,-169 681,-169 503.77,-169 503.77,-169"/>
<polygon fill="black" stroke="black" points="503.77,-165.5 493.77,-169 503.77,-172.5 503.77,-165.5"/>
</g>
<!-- SafeRecordModalComponent  -->
<g id="node6" class="node">
<title>SafeRecordModalComponent </title>
<polygon fill="#fb8072" stroke="black" points="506.18,-252 319.82,-252 319.82,-216 506.18,-216 506.18,-252"/>
<text text-anchor="middle" x="413" y="-229.8" font-family="Times,serif" font-size="14.00">SafeRecordModalComponent </text>
</g>
<!-- SafeRecordModalModule&#45;&gt;SafeRecordModalComponent  -->
<g id="edge5" class="edge">
<title>SafeRecordModalModule&#45;&gt;SafeRecordModalComponent </title>
<path fill="none" stroke="black" stroke-dasharray="5,2" d="M413,-187.11C413,-187.11 413,-205.99 413,-205.99"/>
<polygon fill="black" stroke="black" points="409.5,-205.99 413,-215.99 416.5,-205.99 409.5,-205.99"/>
</g>
<!-- SafeButtonModule -->
<g id="node3" class="node">
<title>SafeButtonModule</title>
<polygon fill="#8dd3c7" stroke="black" points="565.04,-122 562.04,-126 541.04,-126 538.04,-122 442.96,-122 442.96,-86 565.04,-86 565.04,-122"/>
<text text-anchor="middle" x="504" y="-99.8" font-family="Times,serif" font-size="14.00">SafeButtonModule</text>
</g>
<!-- SafeButtonModule&#45;&gt;SafeRecordModalModule -->
<g id="edge2" class="edge">
<title>SafeButtonModule&#45;&gt;SafeRecordModalModule</title>
<path fill="none" stroke="black" d="M468.21,-122.11C468.21,-122.11 468.21,-140.99 468.21,-140.99"/>
<polygon fill="black" stroke="black" points="464.71,-140.99 468.21,-150.99 471.71,-140.99 464.71,-140.99"/>
</g>
<!-- SafeRecordHistoryModalModule -->
<g id="node4" class="node">
<title>SafeRecordHistoryModalModule</title>
<polygon fill="#8dd3c7" stroke="black" points="424.89,-122 421.89,-126 400.89,-126 397.89,-122 221.11,-122 221.11,-86 424.89,-86 424.89,-122"/>
<text text-anchor="middle" x="323" y="-99.8" font-family="Times,serif" font-size="14.00">SafeRecordHistoryModalModule</text>
</g>
<!-- SafeRecordHistoryModalModule&#45;&gt;SafeRecordModalModule -->
<g id="edge3" class="edge">
<title>SafeRecordHistoryModalModule&#45;&gt;SafeRecordModalModule</title>
<path fill="none" stroke="black" d="M378.5,-122.11C378.5,-122.11 378.5,-140.99 378.5,-140.99"/>
<polygon fill="black" stroke="black" points="375,-140.99 378.5,-150.99 382,-140.99 375,-140.99"/>
</g>
<!-- SafeRecordSummaryModule -->
<g id="node5" class="node">
<title>SafeRecordSummaryModule</title>
<polygon fill="#8dd3c7" stroke="black" points="203.79,-122 200.79,-126 179.79,-126 176.79,-122 24.21,-122 24.21,-86 203.79,-86 203.79,-122"/>
<text text-anchor="middle" x="114" y="-99.8" font-family="Times,serif" font-size="14.00">SafeRecordSummaryModule</text>
</g>
<!-- SafeRecordSummaryModule&#45;&gt;SafeRecordModalModule -->
<g id="edge4" class="edge">
<title>SafeRecordSummaryModule&#45;&gt;SafeRecordModalModule</title>
<path fill="none" stroke="black" d="M114,-122.11C114,-141.34 114,-169 114,-169 114,-169 322.09,-169 322.09,-169"/>
<polygon fill="black" stroke="black" points="322.09,-172.5 332.09,-169 322.09,-165.5 322.09,-172.5"/>
</g>
</g>
</svg>
