<?xml version="1.0" encoding="UTF-8" standalone="no"?>
<!DOCTYPE svg PUBLIC "-//W3C//DTD SVG 1.1//EN"
 "http://www.w3.org/Graphics/SVG/1.1/DTD/svg11.dtd">
<!-- Generated by graphviz version 2.47.0 (20210316.0004)
 -->
<!-- Title: dependencies Pages: 1 -->
<svg width="504pt" height="284pt"
 viewBox="0.00 0.00 504.00 284.00" xmlns="http://www.w3.org/2000/svg" xmlns:xlink="http://www.w3.org/1999/xlink">
<g id="graph0" class="graph" transform="scale(1 1) rotate(0) translate(4 280)">
<title>dependencies</title>
<polygon fill="white" stroke="transparent" points="-4,4 -4,-280 500,-280 500,4 -4,4"/>
<text text-anchor="start" x="227.01" y="-42.4" font-family="sans-serif" font-weight="bold" font-size="14.00">Legend</text>
<polygon fill="#ffffb3" stroke="transparent" points="14,-10 14,-30 34,-30 34,-10 14,-10"/>
<text text-anchor="start" x="37.63" y="-15.4" font-family="sans-serif" font-size="14.00"> &#160;Declarations</text>
<polygon fill="#8dd3c7" stroke="transparent" points="127,-10 127,-30 147,-30 147,-10 127,-10"/>
<text text-anchor="start" x="150.73" y="-15.4" font-family="sans-serif" font-size="14.00"> &#160;Module</text>
<polygon fill="#80b1d3" stroke="transparent" points="213,-10 213,-30 233,-30 233,-10 213,-10"/>
<text text-anchor="start" x="236.78" y="-15.4" font-family="sans-serif" font-size="14.00"> &#160;Bootstrap</text>
<polygon fill="#fdb462" stroke="transparent" points="310,-10 310,-30 330,-30 330,-10 310,-10"/>
<text text-anchor="start" x="333.67" y="-15.4" font-family="sans-serif" font-size="14.00"> &#160;Providers</text>
<polygon fill="#fb8072" stroke="transparent" points="406,-10 406,-30 426,-30 426,-10 406,-10"/>
<text text-anchor="start" x="429.73" y="-15.4" font-family="sans-serif" font-size="14.00"> &#160;Exports</text>
<g id="clust1" class="cluster">
<title>cluster_SafeRecordModalModule</title>
<polygon fill="none" stroke="black" stroke-dasharray="1,5" points="67,-70 67,-268 429,-268 429,-70 67,-70"/>
</g>
<g id="clust4" class="cluster">
<title>cluster_SafeRecordModalModule_imports</title>
<polygon fill="none" stroke="black" points="283,-78 283,-130 421,-130 421,-78 283,-78"/>
</g>
<g id="clust2" class="cluster">
<title>cluster_SafeRecordModalModule_declarations</title>
<polygon fill="none" stroke="black" points="75,-78 75,-130 275,-130 275,-78 75,-78"/>
</g>
<g id="clust5" class="cluster">
<title>cluster_SafeRecordModalModule_exports</title>
<polygon fill="none" stroke="black" points="147,-208 147,-260 349,-260 349,-208 147,-208"/>
</g>
<!-- SafeRecordModalComponent -->
<g id="node1" class="node">
<title>SafeRecordModalComponent</title>
<polygon fill="#ffffb3" stroke="black" points="266.68,-122 83.32,-122 83.32,-86 266.68,-86 266.68,-122"/>
<text text-anchor="middle" x="175" y="-99.8" font-family="Times,serif" font-size="14.00">SafeRecordModalComponent</text>
</g>
<!-- SafeRecordModalModule -->
<g id="node2" class="node">
<title>SafeRecordModalModule</title>
<polygon fill="#8dd3c7" stroke="black" points="328.9,-187 325.9,-191 304.9,-191 301.9,-187 167.1,-187 167.1,-151 328.9,-151 328.9,-187"/>
<text text-anchor="middle" x="248" y="-164.8" font-family="Times,serif" font-size="14.00">SafeRecordModalModule</text>
</g>
<!-- SafeRecordModalComponent&#45;&gt;SafeRecordModalModule -->
<g id="edge1" class="edge">
<title>SafeRecordModalComponent&#45;&gt;SafeRecordModalModule</title>
<path fill="none" stroke="black" d="M216.95,-122.11C216.95,-122.11 216.95,-140.99 216.95,-140.99"/>
<polygon fill="black" stroke="black" points="213.45,-140.99 216.95,-150.99 220.45,-140.99 213.45,-140.99"/>
</g>
<!-- SafeRecordModalComponent  -->
<g id="node4" class="node">
<title>SafeRecordModalComponent </title>
<polygon fill="#fb8072" stroke="black" points="341.18,-252 154.82,-252 154.82,-216 341.18,-216 341.18,-252"/>
<text text-anchor="middle" x="248" y="-229.8" font-family="Times,serif" font-size="14.00">SafeRecordModalComponent </text>
</g>
<!-- SafeRecordModalModule&#45;&gt;SafeRecordModalComponent  -->
<g id="edge3" class="edge">
<title>SafeRecordModalModule&#45;&gt;SafeRecordModalComponent </title>
<path fill="none" stroke="black" stroke-dasharray="5,2" d="M248,-187.11C248,-187.11 248,-205.99 248,-205.99"/>
<polygon fill="black" stroke="black" points="244.5,-205.99 248,-215.99 251.5,-205.99 244.5,-205.99"/>
</g>
<!-- SafeButtonModule -->
<g id="node3" class="node">
<title>SafeButtonModule</title>
<polygon fill="#8dd3c7" stroke="black" points="413.04,-122 410.04,-126 389.04,-126 386.04,-122 290.96,-122 290.96,-86 413.04,-86 413.04,-122"/>
<text text-anchor="middle" x="352" y="-99.8" font-family="Times,serif" font-size="14.00">SafeButtonModule</text>
</g>
<!-- SafeButtonModule&#45;&gt;SafeRecordModalModule -->
<g id="edge2" class="edge">
<title>SafeButtonModule&#45;&gt;SafeRecordModalModule</title>
<path fill="none" stroke="black" d="M309.71,-122.11C309.71,-122.11 309.71,-140.99 309.71,-140.99"/>
<polygon fill="black" stroke="black" points="306.21,-140.99 309.71,-150.99 313.21,-140.99 306.21,-140.99"/>
</g>
</g>
</svg>
