<?xml version="1.0" encoding="UTF-8" standalone="no"?>
<!DOCTYPE svg PUBLIC "-//W3C//DTD SVG 1.1//EN"
 "http://www.w3.org/Graphics/SVG/1.1/DTD/svg11.dtd">
<!-- Generated by graphviz version 3.0.0 (20220226.1711)
 -->
<!-- Title: dependencies Pages: 1 -->
<svg width="962pt" height="247pt"
 viewBox="0.00 0.00 962.00 246.80" xmlns="http://www.w3.org/2000/svg" xmlns:xlink="http://www.w3.org/1999/xlink">
<g id="graph0" class="graph" transform="scale(1 1) rotate(0) translate(4 242.8)">
<title>dependencies</title>
<polygon fill="white" stroke="transparent" points="-4,4 -4,-242.8 958,-242.8 958,4 -4,4"/>
<text text-anchor="middle" x="477" y="-8.2" font-family="sans-serif" font-size="14.00">dependencies</text>
<g id="clust1" class="cluster">
<title>cluster_SafeWidgetModule</title>
<polygon fill="none" stroke="black" stroke-dasharray="1,5" points="8,-32.8 8,-230.8 946,-230.8 946,-32.8 8,-32.8"/>
</g>
<g id="clust5" class="cluster">
<title>cluster_SafeWidgetModule_exports</title>
<polygon fill="none" stroke="black" points="405,-170.8 405,-222.8 571,-222.8 571,-170.8 405,-170.8"/>
</g>
<g id="clust2" class="cluster">
<title>cluster_SafeWidgetModule_declarations</title>
<polygon fill="none" stroke="black" points="774,-40.8 774,-92.8 938,-92.8 938,-40.8 774,-40.8"/>
</g>
<g id="clust4" class="cluster">
<title>cluster_SafeWidgetModule_imports</title>
<polygon fill="none" stroke="black" points="16,-40.8 16,-92.8 766,-92.8 766,-40.8 16,-40.8"/>
</g>
<!-- SafeWidgetComponent -->
<g id="node1" class="node">
<title>SafeWidgetComponent</title>
<polygon fill="#ffffb3" stroke="black" points="929.91,-84.8 782.09,-84.8 782.09,-48.8 929.91,-48.8 929.91,-84.8"/>
<text text-anchor="middle" x="856" y="-62.6" font-family="Times,serif" font-size="14.00">SafeWidgetComponent</text>
</g>
<!-- SafeWidgetModule -->
<g id="node2" class="node">
<title>SafeWidgetModule</title>
<polygon fill="#8dd3c7" stroke="black" points="550.64,-149.8 547.64,-153.8 526.64,-153.8 523.64,-149.8 425.36,-149.8 425.36,-113.8 550.64,-113.8 550.64,-149.8"/>
<text text-anchor="middle" x="488" y="-127.6" font-family="Times,serif" font-size="14.00">SafeWidgetModule</text>
</g>
<!-- SafeWidgetComponent&#45;&gt;SafeWidgetModule -->
<g id="edge1" class="edge">
<title>SafeWidgetComponent&#45;&gt;SafeWidgetModule</title>
<path fill="none" stroke="black" d="M856,-85.08C856,-106.12 856,-137.8 856,-137.8 856,-137.8 560.84,-137.8 560.84,-137.8"/>
<polygon fill="black" stroke="black" points="560.84,-134.3 550.84,-137.8 560.84,-141.3 560.84,-134.3"/>
</g>
<!-- SafeWidgetComponent  -->
<g id="node8" class="node">
<title>SafeWidgetComponent </title>
<polygon fill="#fb8072" stroke="black" points="563.41,-214.8 412.59,-214.8 412.59,-178.8 563.41,-178.8 563.41,-214.8"/>
<text text-anchor="middle" x="488" y="-192.6" font-family="Times,serif" font-size="14.00">SafeWidgetComponent </text>
</g>
<!-- SafeWidgetModule&#45;&gt;SafeWidgetComponent  -->
<g id="edge7" class="edge">
<title>SafeWidgetModule&#45;&gt;SafeWidgetComponent </title>
<path fill="none" stroke="black" stroke-dasharray="5,2" d="M488,-149.91C488,-149.91 488,-168.79 488,-168.79"/>
<polygon fill="black" stroke="black" points="484.5,-168.79 488,-178.79 491.5,-168.79 484.5,-168.79"/>
</g>
<!-- SafeChartModule -->
<g id="node3" class="node">
<title>SafeChartModule</title>
<polygon fill="#8dd3c7" stroke="black" points="757.53,-84.8 754.53,-88.8 733.53,-88.8 730.53,-84.8 642.47,-84.8 642.47,-48.8 757.53,-48.8 757.53,-84.8"/>
<text text-anchor="middle" x="700" y="-62.6" font-family="Times,serif" font-size="14.00">SafeChartModule</text>
</g>
<!-- SafeChartModule&#45;&gt;SafeWidgetModule -->
<g id="edge2" class="edge">
<title>SafeChartModule&#45;&gt;SafeWidgetModule</title>
<path fill="none" stroke="black" d="M700,-84.82C700,-102.17 700,-125.8 700,-125.8 700,-125.8 560.75,-125.8 560.75,-125.8"/>
<polygon fill="black" stroke="black" points="560.75,-122.3 550.75,-125.8 560.75,-129.3 560.75,-122.3"/>
</g>
<!-- SafeEditorModule -->
<g id="node4" class="node">
<title>SafeEditorModule</title>
<polygon fill="#8dd3c7" stroke="black" points="624.92,-84.8 621.92,-88.8 600.92,-88.8 597.92,-84.8 505.08,-84.8 505.08,-48.8 624.92,-48.8 624.92,-84.8"/>
<text text-anchor="middle" x="565" y="-62.6" font-family="Times,serif" font-size="14.00">SafeEditorModule</text>
</g>
<!-- SafeEditorModule&#45;&gt;SafeWidgetModule -->
<g id="edge3" class="edge">
<title>SafeEditorModule&#45;&gt;SafeWidgetModule</title>
<path fill="none" stroke="black" d="M528.05,-84.91C528.05,-84.91 528.05,-103.79 528.05,-103.79"/>
<polygon fill="black" stroke="black" points="524.55,-103.79 528.05,-113.79 531.55,-103.79 524.55,-103.79"/>
</g>
<!-- SafeGridWidgetModule -->
<g id="node5" class="node">
<title>SafeGridWidgetModule</title>
<polygon fill="#8dd3c7" stroke="black" points="487.8,-84.8 484.8,-88.8 463.8,-88.8 460.8,-84.8 336.2,-84.8 336.2,-48.8 487.8,-48.8 487.8,-84.8"/>
<text text-anchor="middle" x="412" y="-62.6" font-family="Times,serif" font-size="14.00">SafeGridWidgetModule</text>
</g>
<!-- SafeGridWidgetModule&#45;&gt;SafeWidgetModule -->
<g id="edge4" class="edge">
<title>SafeGridWidgetModule&#45;&gt;SafeWidgetModule</title>
<path fill="none" stroke="black" d="M456.42,-84.91C456.42,-84.91 456.42,-103.79 456.42,-103.79"/>
<polygon fill="black" stroke="black" points="452.92,-103.79 456.42,-113.79 459.92,-103.79 452.92,-103.79"/>
</g>
<!-- SafeMapModule -->
<g id="node6" class="node">
<title>SafeMapModule</title>
<polygon fill="#8dd3c7" stroke="black" points="318.09,-84.8 315.09,-88.8 294.09,-88.8 291.09,-84.8 207.91,-84.8 207.91,-48.8 318.09,-48.8 318.09,-84.8"/>
<text text-anchor="middle" x="263" y="-62.6" font-family="Times,serif" font-size="14.00">SafeMapModule</text>
</g>
<!-- SafeMapModule&#45;&gt;SafeWidgetModule -->
<g id="edge5" class="edge">
<title>SafeMapModule&#45;&gt;SafeWidgetModule</title>
<path fill="none" stroke="black" d="M263,-84.82C263,-102.17 263,-125.8 263,-125.8 263,-125.8 415.32,-125.8 415.32,-125.8"/>
<polygon fill="black" stroke="black" points="415.32,-129.3 425.32,-125.8 415.32,-122.3 415.32,-129.3"/>
</g>
<!-- SafeSummaryCardModule -->
<g id="node7" class="node">
<title>SafeSummaryCardModule</title>
<polygon fill="#8dd3c7" stroke="black" points="190.08,-84.8 187.08,-88.8 166.08,-88.8 163.08,-84.8 23.92,-84.8 23.92,-48.8 190.08,-48.8 190.08,-84.8"/>
<text text-anchor="middle" x="107" y="-62.6" font-family="Times,serif" font-size="14.00">SafeSummaryCardModule</text>
</g>
<!-- SafeSummaryCardModule&#45;&gt;SafeWidgetModule -->
<g id="edge6" class="edge">
<title>SafeSummaryCardModule&#45;&gt;SafeWidgetModule</title>
<path fill="none" stroke="black" d="M107,-85.08C107,-106.12 107,-137.8 107,-137.8 107,-137.8 415.09,-137.8 415.09,-137.8"/>
<polygon fill="black" stroke="black" points="415.09,-141.3 425.09,-137.8 415.09,-134.3 415.09,-141.3"/>
</g>
</g>
</svg>
