<?xml version="1.0" encoding="UTF-8" standalone="no"?>
<!DOCTYPE svg PUBLIC "-//W3C//DTD SVG 1.1//EN"
 "http://www.w3.org/Graphics/SVG/1.1/DTD/svg11.dtd">
<!-- Generated by graphviz version 3.0.0 (20220226.1711)
 -->
<!-- Title: dependencies Pages: 1 -->
<svg width="470pt" height="247pt"
 viewBox="0.00 0.00 470.00 246.80" xmlns="http://www.w3.org/2000/svg" xmlns:xlink="http://www.w3.org/1999/xlink">
<g id="graph0" class="graph" transform="scale(1 1) rotate(0) translate(4 242.8)">
<title>dependencies</title>
<polygon fill="white" stroke="transparent" points="-4,4 -4,-242.8 466,-242.8 466,4 -4,4"/>
<text text-anchor="middle" x="231" y="-8.2" font-family="sans-serif" font-size="14.00">dependencies</text>
<g id="clust1" class="cluster">
<title>cluster_PositionAttributesModule</title>
<polygon fill="none" stroke="black" stroke-dasharray="1,5" points="8,-32.8 8,-230.8 454,-230.8 454,-32.8 8,-32.8"/>
</g>
<g id="clust4" class="cluster">
<title>cluster_PositionAttributesModule_imports</title>
<polygon fill="none" stroke="black" points="224,-40.8 224,-92.8 446,-92.8 446,-40.8 224,-40.8"/>
</g>
<g id="clust5" class="cluster">
<title>cluster_PositionAttributesModule_exports</title>
<polygon fill="none" stroke="black" points="125,-170.8 125,-222.8 327,-222.8 327,-170.8 125,-170.8"/>
</g>
<g id="clust2" class="cluster">
<title>cluster_PositionAttributesModule_declarations</title>
<polygon fill="none" stroke="black" points="16,-40.8 16,-92.8 216,-92.8 216,-40.8 16,-40.8"/>
</g>
<!-- PositionAttributesComponent -->
<g id="node1" class="node">
<title>PositionAttributesComponent</title>
<polygon fill="#ffffb3" stroke="black" points="207.73,-84.8 24.27,-84.8 24.27,-48.8 207.73,-48.8 207.73,-84.8"/>
<text text-anchor="middle" x="116" y="-62.6" font-family="Times,serif" font-size="14.00">PositionAttributesComponent</text>
</g>
<!-- PositionAttributesModule -->
<g id="node2" class="node">
<title>PositionAttributesModule</title>
<polygon fill="#8dd3c7" stroke="black" points="306.95,-149.8 303.95,-153.8 282.95,-153.8 279.95,-149.8 145.05,-149.8 145.05,-113.8 306.95,-113.8 306.95,-149.8"/>
<text text-anchor="middle" x="226" y="-127.6" font-family="Times,serif" font-size="14.00">PositionAttributesModule</text>
</g>
<!-- PositionAttributesComponent&#45;&gt;PositionAttributesModule -->
<g id="edge1" class="edge">
<title>PositionAttributesComponent&#45;&gt;PositionAttributesModule</title>
<path fill="none" stroke="black" d="M176.44,-84.91C176.44,-84.91 176.44,-103.79 176.44,-103.79"/>
<polygon fill="black" stroke="black" points="172.94,-103.79 176.44,-113.79 179.94,-103.79 172.94,-103.79"/>
</g>
<!-- PositionAttributesComponent  -->
<g id="node4" class="node">
<title>PositionAttributesComponent </title>
<polygon fill="#fb8072" stroke="black" points="319.23,-214.8 132.77,-214.8 132.77,-178.8 319.23,-178.8 319.23,-214.8"/>
<text text-anchor="middle" x="226" y="-192.6" font-family="Times,serif" font-size="14.00">PositionAttributesComponent </text>
</g>
<!-- PositionAttributesModule&#45;&gt;PositionAttributesComponent  -->
<g id="edge3" class="edge">
<title>PositionAttributesModule&#45;&gt;PositionAttributesComponent </title>
<path fill="none" stroke="black" stroke-dasharray="5,2" d="M226,-149.91C226,-149.91 226,-168.79 226,-168.79"/>
<polygon fill="black" stroke="black" points="222.5,-168.79 226,-178.79 229.5,-168.79 222.5,-168.79"/>
</g>
<!-- PositionAttributesRoutingModule -->
<g id="node3" class="node">
<title>PositionAttributesRoutingModule</title>
<polygon fill="#8dd3c7" stroke="black" points="438.07,-84.8 435.07,-88.8 414.07,-88.8 411.07,-84.8 231.93,-84.8 231.93,-48.8 438.07,-48.8 438.07,-84.8"/>
<text text-anchor="middle" x="335" y="-62.6" font-family="Times,serif" font-size="14.00">PositionAttributesRoutingModule</text>
</g>
<!-- PositionAttributesRoutingModule&#45;&gt;PositionAttributesModule -->
<g id="edge2" class="edge">
<title>PositionAttributesRoutingModule&#45;&gt;PositionAttributesModule</title>
<path fill="none" stroke="black" d="M269.22,-84.91C269.22,-84.91 269.22,-103.79 269.22,-103.79"/>
<polygon fill="black" stroke="black" points="265.72,-103.79 269.22,-113.79 272.72,-103.79 265.72,-103.79"/>
</g>
</g>
</svg>
