<?xml version="1.0" encoding="UTF-8" standalone="no"?>
<!DOCTYPE svg PUBLIC "-//W3C//DTD SVG 1.1//EN"
 "http://www.w3.org/Graphics/SVG/1.1/DTD/svg11.dtd">
<!-- Generated by graphviz version 3.0.0 (20220226.1711)
 -->
<!-- Title: dependencies Pages: 1 -->
<svg width="336pt" height="247pt"
 viewBox="0.00 0.00 336.00 246.80" xmlns="http://www.w3.org/2000/svg" xmlns:xlink="http://www.w3.org/1999/xlink">
<g id="graph0" class="graph" transform="scale(1 1) rotate(0) translate(4 242.8)">
<title>dependencies</title>
<polygon fill="white" stroke="transparent" points="-4,4 -4,-242.8 332,-242.8 332,4 -4,4"/>
<text text-anchor="middle" x="164" y="-8.2" font-family="sans-serif" font-size="14.00">dependencies</text>
<g id="clust1" class="cluster">
<title>cluster_TabActionsModule</title>
<polygon fill="none" stroke="black" stroke-dasharray="1,5" points="8,-32.8 8,-230.8 320,-230.8 320,-32.8 8,-32.8"/>
</g>
<g id="clust2" class="cluster">
<title>cluster_TabActionsModule_declarations</title>
<polygon fill="none" stroke="black" points="150,-40.8 150,-92.8 312,-92.8 312,-40.8 150,-40.8"/>
</g>
<g id="clust4" class="cluster">
<title>cluster_TabActionsModule_imports</title>
<polygon fill="none" stroke="black" points="16,-40.8 16,-92.8 142,-92.8 142,-40.8 16,-40.8"/>
</g>
<g id="clust5" class="cluster">
<title>cluster_TabActionsModule_exports</title>
<polygon fill="none" stroke="black" points="81,-170.8 81,-222.8 247,-222.8 247,-170.8 81,-170.8"/>
</g>
<!-- TabActionsComponent -->
<g id="node1" class="node">
<title>TabActionsComponent</title>
<polygon fill="#ffffb3" stroke="black" points="304.15,-84.8 157.85,-84.8 157.85,-48.8 304.15,-48.8 304.15,-84.8"/>
<text text-anchor="middle" x="231" y="-62.6" font-family="Times,serif" font-size="14.00">TabActionsComponent</text>
</g>
<!-- TabActionsModule -->
<g id="node2" class="node">
<title>TabActionsModule</title>
<polygon fill="#8dd3c7" stroke="black" points="226.37,-149.8 223.37,-153.8 202.37,-153.8 199.37,-149.8 101.63,-149.8 101.63,-113.8 226.37,-113.8 226.37,-149.8"/>
<text text-anchor="middle" x="164" y="-127.6" font-family="Times,serif" font-size="14.00">TabActionsModule</text>
</g>
<!-- TabActionsComponent&#45;&gt;TabActionsModule -->
<g id="edge1" class="edge">
<title>TabActionsComponent&#45;&gt;TabActionsModule</title>
<path fill="none" stroke="black" d="M192.06,-84.91C192.06,-84.91 192.06,-103.79 192.06,-103.79"/>
<polygon fill="black" stroke="black" points="188.56,-103.79 192.06,-113.79 195.56,-103.79 188.56,-103.79"/>
</g>
<!-- TabActionsComponent  -->
<g id="node4" class="node">
<title>TabActionsComponent </title>
<polygon fill="#fb8072" stroke="black" points="239.15,-214.8 88.85,-214.8 88.85,-178.8 239.15,-178.8 239.15,-214.8"/>
<text text-anchor="middle" x="164" y="-192.6" font-family="Times,serif" font-size="14.00">TabActionsComponent </text>
</g>
<!-- TabActionsModule&#45;&gt;TabActionsComponent  -->
<g id="edge3" class="edge">
<title>TabActionsModule&#45;&gt;TabActionsComponent </title>
<path fill="none" stroke="black" stroke-dasharray="5,2" d="M164,-149.91C164,-149.91 164,-168.79 164,-168.79"/>
<polygon fill="black" stroke="black" points="160.5,-168.79 164,-178.79 167.5,-168.79 160.5,-168.79"/>
</g>
<!-- SafeIconModule -->
<g id="node3" class="node">
<title>SafeIconModule</title>
<polygon fill="#8dd3c7" stroke="black" points="133.8,-84.8 130.8,-88.8 109.8,-88.8 106.8,-84.8 24.2,-84.8 24.2,-48.8 133.8,-48.8 133.8,-84.8"/>
<text text-anchor="middle" x="79" y="-62.6" font-family="Times,serif" font-size="14.00">SafeIconModule</text>
</g>
<!-- SafeIconModule&#45;&gt;TabActionsModule -->
<g id="edge2" class="edge">
<title>SafeIconModule&#45;&gt;TabActionsModule</title>
<path fill="none" stroke="black" d="M117.61,-84.91C117.61,-84.91 117.61,-103.79 117.61,-103.79"/>
<polygon fill="black" stroke="black" points="114.11,-103.79 117.61,-113.79 121.11,-103.79 114.11,-103.79"/>
</g>
</g>
</svg>
