<?xml version="1.0" encoding="UTF-8" standalone="no"?>
<!DOCTYPE svg PUBLIC "-//W3C//DTD SVG 1.1//EN"
 "http://www.w3.org/Graphics/SVG/1.1/DTD/svg11.dtd">
<!-- Generated by graphviz version 3.0.0 (20220226.1711)
 -->
<!-- Title: dependencies Pages: 1 -->
<svg width="575pt" height="247pt"
 viewBox="0.00 0.00 575.00 246.80" xmlns="http://www.w3.org/2000/svg" xmlns:xlink="http://www.w3.org/1999/xlink">
<g id="graph0" class="graph" transform="scale(1 1) rotate(0) translate(4 242.8)">
<title>dependencies</title>
<polygon fill="white" stroke="transparent" points="-4,4 -4,-242.8 571,-242.8 571,4 -4,4"/>
<text text-anchor="middle" x="283.5" y="-8.2" font-family="sans-serif" font-size="14.00">dependencies</text>
<g id="clust1" class="cluster">
<title>cluster_SafeSummaryCardModule</title>
<polygon fill="none" stroke="black" stroke-dasharray="1,5" points="8,-32.8 8,-230.8 559,-230.8 559,-32.8 8,-32.8"/>
</g>
<g id="clust5" class="cluster">
<title>cluster_SafeSummaryCardModule_exports</title>
<polygon fill="none" stroke="black" points="166,-170.8 166,-222.8 374,-222.8 374,-170.8 166,-170.8"/>
</g>
<g id="clust2" class="cluster">
<title>cluster_SafeSummaryCardModule_declarations</title>
<polygon fill="none" stroke="black" points="347,-40.8 347,-92.8 551,-92.8 551,-40.8 347,-40.8"/>
</g>
<g id="clust4" class="cluster">
<title>cluster_SafeSummaryCardModule_imports</title>
<polygon fill="none" stroke="black" points="16,-40.8 16,-92.8 339,-92.8 339,-40.8 16,-40.8"/>
</g>
<!-- SafeSummaryCardComponent -->
<g id="node1" class="node">
<title>SafeSummaryCardComponent</title>
<polygon fill="#ffffb3" stroke="black" points="542.86,-84.8 355.14,-84.8 355.14,-48.8 542.86,-48.8 542.86,-84.8"/>
<text text-anchor="middle" x="449" y="-62.6" font-family="Times,serif" font-size="14.00">SafeSummaryCardComponent</text>
</g>
<!-- SafeSummaryCardModule -->
<g id="node2" class="node">
<title>SafeSummaryCardModule</title>
<polygon fill="#8dd3c7" stroke="black" points="353.08,-149.8 350.08,-153.8 329.08,-153.8 326.08,-149.8 186.92,-149.8 186.92,-113.8 353.08,-113.8 353.08,-149.8"/>
<text text-anchor="middle" x="270" y="-127.6" font-family="Times,serif" font-size="14.00">SafeSummaryCardModule</text>
</g>
<!-- SafeSummaryCardComponent&#45;&gt;SafeSummaryCardModule -->
<g id="edge1" class="edge">
<title>SafeSummaryCardComponent&#45;&gt;SafeSummaryCardModule</title>
<path fill="none" stroke="black" d="M360.38,-84.91C360.38,-104.14 360.38,-131.8 360.38,-131.8 360.38,-131.8 359.67,-131.8 359.67,-131.8"/>
<polygon fill="black" stroke="black" points="363.28,-128.3 353.28,-131.8 363.28,-135.3 363.28,-128.3"/>
</g>
<!-- SafeSummaryCardComponent  -->
<g id="node5" class="node">
<title>SafeSummaryCardComponent </title>
<polygon fill="#fb8072" stroke="black" points="365.86,-214.8 174.14,-214.8 174.14,-178.8 365.86,-178.8 365.86,-214.8"/>
<text text-anchor="middle" x="270" y="-192.6" font-family="Times,serif" font-size="14.00">SafeSummaryCardComponent </text>
</g>
<!-- SafeSummaryCardModule&#45;&gt;SafeSummaryCardComponent  -->
<g id="edge4" class="edge">
<title>SafeSummaryCardModule&#45;&gt;SafeSummaryCardComponent </title>
<path fill="none" stroke="black" stroke-dasharray="5,2" d="M270,-149.91C270,-149.91 270,-168.79 270,-168.79"/>
<polygon fill="black" stroke="black" points="266.5,-168.79 270,-178.79 273.5,-168.79 266.5,-168.79"/>
</g>
<!-- SafeButtonModule -->
<g id="node3" class="node">
<title>SafeButtonModule</title>
<polygon fill="#8dd3c7" stroke="black" points="331.05,-84.8 328.05,-88.8 307.05,-88.8 304.05,-84.8 208.95,-84.8 208.95,-48.8 331.05,-48.8 331.05,-84.8"/>
<text text-anchor="middle" x="270" y="-62.6" font-family="Times,serif" font-size="14.00">SafeButtonModule</text>
</g>
<!-- SafeButtonModule&#45;&gt;SafeSummaryCardModule -->
<g id="edge2" class="edge">
<title>SafeButtonModule&#45;&gt;SafeSummaryCardModule</title>
<path fill="none" stroke="black" d="M270,-84.91C270,-84.91 270,-103.79 270,-103.79"/>
<polygon fill="black" stroke="black" points="266.5,-103.79 270,-113.79 273.5,-103.79 266.5,-103.79"/>
</g>
<!-- SummaryCardItemModule -->
<g id="node4" class="node">
<title>SummaryCardItemModule</title>
<polygon fill="#8dd3c7" stroke="black" points="190.36,-84.8 187.36,-88.8 166.36,-88.8 163.36,-84.8 23.64,-84.8 23.64,-48.8 190.36,-48.8 190.36,-84.8"/>
<text text-anchor="middle" x="107" y="-62.6" font-family="Times,serif" font-size="14.00">SummaryCardItemModule</text>
</g>
<!-- SummaryCardItemModule&#45;&gt;SafeSummaryCardModule -->
<g id="edge3" class="edge">
<title>SummaryCardItemModule&#45;&gt;SafeSummaryCardModule</title>
<path fill="none" stroke="black" d="M180.64,-84.91C180.64,-104.14 180.64,-131.8 180.64,-131.8 180.64,-131.8 181.25,-131.8 181.25,-131.8"/>
<polygon fill="black" stroke="black" points="176.78,-135.3 186.78,-131.8 176.78,-128.3 176.78,-135.3"/>
</g>
</g>
</svg>
