<?xml version="1.0" encoding="UTF-8" standalone="no"?>
<!DOCTYPE svg PUBLIC "-//W3C//DTD SVG 1.1//EN"
 "http://www.w3.org/Graphics/SVG/1.1/DTD/svg11.dtd">
<!-- Generated by graphviz version 3.0.0 (20220226.1711)
 -->
<!-- Title: dependencies Pages: 1 -->
<svg width="575pt" height="247pt"
 viewBox="0.00 0.00 575.00 246.80" xmlns="http://www.w3.org/2000/svg" xmlns:xlink="http://www.w3.org/1999/xlink">
<g id="graph0" class="graph" transform="scale(1 1) rotate(0) translate(4 242.8)">
<title>dependencies</title>
<polygon fill="white" stroke="transparent" points="-4,4 -4,-242.8 571,-242.8 571,4 -4,4"/>
<text text-anchor="middle" x="283.5" y="-8.2" font-family="sans-serif" font-size="14.00">dependencies</text>
<g id="clust1" class="cluster">
<title>cluster_SafeSummaryCardModule</title>
<polygon fill="none" stroke="black" stroke-dasharray="1,5" points="8,-32.8 8,-230.8 559,-230.8 559,-32.8 8,-32.8"/>
</g>
<g id="clust4" class="cluster">
<title>cluster_SafeSummaryCardModule_imports</title>
<polygon fill="none" stroke="black" points="228,-40.8 228,-92.8 551,-92.8 551,-40.8 228,-40.8"/>
</g>
<g id="clust2" class="cluster">
<title>cluster_SafeSummaryCardModule_declarations</title>
<polygon fill="none" stroke="black" points="16,-40.8 16,-92.8 220,-92.8 220,-40.8 16,-40.8"/>
</g>
<g id="clust5" class="cluster">
<title>cluster_SafeSummaryCardModule_exports</title>
<polygon fill="none" stroke="black" points="215,-170.8 215,-222.8 423,-222.8 423,-170.8 215,-170.8"/>
</g>
<!-- SafeSummaryCardComponent -->
<g id="node1" class="node">
<title>SafeSummaryCardComponent</title>
<polygon fill="#ffffb3" stroke="black" points="211.86,-84.8 24.14,-84.8 24.14,-48.8 211.86,-48.8 211.86,-84.8"/>
<text text-anchor="middle" x="118" y="-62.6" font-family="Times,serif" font-size="14.00">SafeSummaryCardComponent</text>
</g>
<!-- SafeSummaryCardModule -->
<g id="node2" class="node">
<title>SafeSummaryCardModule</title>
<polygon fill="#8dd3c7" stroke="black" points="402.08,-149.8 399.08,-153.8 378.08,-153.8 375.08,-149.8 235.92,-149.8 235.92,-113.8 402.08,-113.8 402.08,-149.8"/>
<text text-anchor="middle" x="319" y="-127.6" font-family="Times,serif" font-size="14.00">SafeSummaryCardModule</text>
</g>
<!-- SafeSummaryCardComponent&#45;&gt;SafeSummaryCardModule -->
<g id="edge1" class="edge">
<title>SafeSummaryCardComponent&#45;&gt;SafeSummaryCardModule</title>
<path fill="none" stroke="black" d="M118,-84.91C118,-104.14 118,-131.8 118,-131.8 118,-131.8 225.79,-131.8 225.79,-131.8"/>
<polygon fill="black" stroke="black" points="225.79,-135.3 235.79,-131.8 225.79,-128.3 225.79,-135.3"/>
</g>
<!-- SafeSummaryCardComponent  -->
<g id="node5" class="node">
<title>SafeSummaryCardComponent </title>
<polygon fill="#fb8072" stroke="black" points="414.86,-214.8 223.14,-214.8 223.14,-178.8 414.86,-178.8 414.86,-214.8"/>
<text text-anchor="middle" x="319" y="-192.6" font-family="Times,serif" font-size="14.00">SafeSummaryCardComponent </text>
</g>
<!-- SafeSummaryCardModule&#45;&gt;SafeSummaryCardComponent  -->
<g id="edge4" class="edge">
<title>SafeSummaryCardModule&#45;&gt;SafeSummaryCardComponent </title>
<path fill="none" stroke="black" stroke-dasharray="5,2" d="M319,-149.91C319,-149.91 319,-168.79 319,-168.79"/>
<polygon fill="black" stroke="black" points="315.5,-168.79 319,-178.79 322.5,-168.79 315.5,-168.79"/>
</g>
<!-- SafeButtonModule -->
<g id="node3" class="node">
<title>SafeButtonModule</title>
<polygon fill="#8dd3c7" stroke="black" points="543.05,-84.8 540.05,-88.8 519.05,-88.8 516.05,-84.8 420.95,-84.8 420.95,-48.8 543.05,-48.8 543.05,-84.8"/>
<text text-anchor="middle" x="482" y="-62.6" font-family="Times,serif" font-size="14.00">SafeButtonModule</text>
</g>
<!-- SafeButtonModule&#45;&gt;SafeSummaryCardModule -->
<g id="edge2" class="edge">
<title>SafeButtonModule&#45;&gt;SafeSummaryCardModule</title>
<path fill="none" stroke="black" d="M482,-84.91C482,-104.14 482,-131.8 482,-131.8 482,-131.8 412.41,-131.8 412.41,-131.8"/>
<polygon fill="black" stroke="black" points="412.41,-128.3 402.41,-131.8 412.41,-135.3 412.41,-128.3"/>
</g>
<!-- SummaryCardItemModule -->
<g id="node4" class="node">
<title>SummaryCardItemModule</title>
<polygon fill="#8dd3c7" stroke="black" points="402.36,-84.8 399.36,-88.8 378.36,-88.8 375.36,-84.8 235.64,-84.8 235.64,-48.8 402.36,-48.8 402.36,-84.8"/>
<text text-anchor="middle" x="319" y="-62.6" font-family="Times,serif" font-size="14.00">SummaryCardItemModule</text>
</g>
<!-- SummaryCardItemModule&#45;&gt;SafeSummaryCardModule -->
<g id="edge3" class="edge">
<title>SummaryCardItemModule&#45;&gt;SafeSummaryCardModule</title>
<path fill="none" stroke="black" d="M319,-84.91C319,-84.91 319,-103.79 319,-103.79"/>
<polygon fill="black" stroke="black" points="315.5,-103.79 319,-113.79 322.5,-103.79 315.5,-103.79"/>
</g>
</g>
</svg>
