<?xml version="1.0" encoding="UTF-8" standalone="no"?>
<!DOCTYPE svg PUBLIC "-//W3C//DTD SVG 1.1//EN"
 "http://www.w3.org/Graphics/SVG/1.1/DTD/svg11.dtd">
<!-- Generated by graphviz version 3.0.0 (20220226.1711)
 -->
<!-- Title: dependencies Pages: 1 -->
<svg width="408pt" height="247pt"
 viewBox="0.00 0.00 408.00 246.80" xmlns="http://www.w3.org/2000/svg" xmlns:xlink="http://www.w3.org/1999/xlink">
<g id="graph0" class="graph" transform="scale(1 1) rotate(0) translate(4 242.8)">
<title>dependencies</title>
<polygon fill="white" stroke="transparent" points="-4,4 -4,-242.8 404,-242.8 404,4 -4,4"/>
<text text-anchor="middle" x="200" y="-8.2" font-family="sans-serif" font-size="14.00">dependencies</text>
<g id="clust1" class="cluster">
<title>cluster_EditNotificationModalModule</title>
<polygon fill="none" stroke="black" stroke-dasharray="1,5" points="8,-32.8 8,-230.8 392,-230.8 392,-32.8 8,-32.8"/>
</g>
<g id="clust5" class="cluster">
<title>cluster_EditNotificationModalModule_exports</title>
<polygon fill="none" stroke="black" points="86,-170.8 86,-222.8 314,-222.8 314,-170.8 86,-170.8"/>
</g>
<g id="clust2" class="cluster">
<title>cluster_EditNotificationModalModule_declarations</title>
<polygon fill="none" stroke="black" points="160,-40.8 160,-92.8 384,-92.8 384,-40.8 160,-40.8"/>
</g>
<g id="clust4" class="cluster">
<title>cluster_EditNotificationModalModule_imports</title>
<polygon fill="none" stroke="black" points="16,-40.8 16,-92.8 152,-92.8 152,-40.8 16,-40.8"/>
</g>
<!-- EditNotificationModalComponent -->
<g id="node1" class="node">
<title>EditNotificationModalComponent</title>
<polygon fill="#ffffb3" stroke="black" points="376.36,-84.8 167.64,-84.8 167.64,-48.8 376.36,-48.8 376.36,-84.8"/>
<text text-anchor="middle" x="272" y="-62.6" font-family="Times,serif" font-size="14.00">EditNotificationModalComponent</text>
</g>
<!-- EditNotificationModalModule -->
<g id="node2" class="node">
<title>EditNotificationModalModule</title>
<polygon fill="#8dd3c7" stroke="black" points="293.58,-149.8 290.58,-153.8 269.58,-153.8 266.58,-149.8 106.42,-149.8 106.42,-113.8 293.58,-113.8 293.58,-149.8"/>
<text text-anchor="middle" x="200" y="-127.6" font-family="Times,serif" font-size="14.00">EditNotificationModalModule</text>
</g>
<!-- EditNotificationModalComponent&#45;&gt;EditNotificationModalModule -->
<g id="edge1" class="edge">
<title>EditNotificationModalComponent&#45;&gt;EditNotificationModalModule</title>
<path fill="none" stroke="black" d="M230.56,-84.91C230.56,-84.91 230.56,-103.79 230.56,-103.79"/>
<polygon fill="black" stroke="black" points="227.06,-103.79 230.56,-113.79 234.06,-103.79 227.06,-103.79"/>
</g>
<!-- EditNotificationModalComponent  -->
<g id="node4" class="node">
<title>EditNotificationModalComponent </title>
<polygon fill="#fb8072" stroke="black" points="306.36,-214.8 93.64,-214.8 93.64,-178.8 306.36,-178.8 306.36,-214.8"/>
<text text-anchor="middle" x="200" y="-192.6" font-family="Times,serif" font-size="14.00">EditNotificationModalComponent </text>
</g>
<!-- EditNotificationModalModule&#45;&gt;EditNotificationModalComponent  -->
<g id="edge3" class="edge">
<title>EditNotificationModalModule&#45;&gt;EditNotificationModalComponent </title>
<path fill="none" stroke="black" stroke-dasharray="5,2" d="M200,-149.91C200,-149.91 200,-168.79 200,-168.79"/>
<polygon fill="black" stroke="black" points="196.5,-168.79 200,-178.79 203.5,-168.79 196.5,-168.79"/>
</g>
<!-- SafeModalModule -->
<g id="node3" class="node">
<title>SafeModalModule</title>
<polygon fill="#8dd3c7" stroke="black" points="144.48,-84.8 141.48,-88.8 120.48,-88.8 117.48,-84.8 23.52,-84.8 23.52,-48.8 144.48,-48.8 144.48,-84.8"/>
<text text-anchor="middle" x="84" y="-62.6" font-family="Times,serif" font-size="14.00">SafeModalModule</text>
</g>
<!-- SafeModalModule&#45;&gt;EditNotificationModalModule -->
<g id="edge2" class="edge">
<title>SafeModalModule&#45;&gt;EditNotificationModalModule</title>
<path fill="none" stroke="black" d="M125.47,-84.91C125.47,-84.91 125.47,-103.79 125.47,-103.79"/>
<polygon fill="black" stroke="black" points="121.97,-103.79 125.47,-113.79 128.97,-103.79 121.97,-103.79"/>
</g>
</g>
</svg>
