<?xml version="1.0" encoding="UTF-8" standalone="no"?>
<!DOCTYPE svg PUBLIC "-//W3C//DTD SVG 1.1//EN"
 "http://www.w3.org/Graphics/SVG/1.1/DTD/svg11.dtd">
<!-- Generated by graphviz version 3.0.0 (20220226.1711)
 -->
<!-- Title: dependencies Pages: 1 -->
<svg width="874pt" height="247pt"
 viewBox="0.00 0.00 874.00 246.80" xmlns="http://www.w3.org/2000/svg" xmlns:xlink="http://www.w3.org/1999/xlink">
<g id="graph0" class="graph" transform="scale(1 1) rotate(0) translate(4 242.8)">
<title>dependencies</title>
<polygon fill="white" stroke="transparent" points="-4,4 -4,-242.8 870,-242.8 870,4 -4,4"/>
<text text-anchor="middle" x="433" y="-8.2" font-family="sans-serif" font-size="14.00">dependencies</text>
<g id="clust1" class="cluster">
<title>cluster_SafeRolesModule</title>
<polygon fill="none" stroke="black" stroke-dasharray="1,5" points="8,-32.8 8,-230.8 858,-230.8 858,-32.8 8,-32.8"/>
</g>
<g id="clust2" class="cluster">
<title>cluster_SafeRolesModule_declarations</title>
<polygon fill="none" stroke="black" points="348,-40.8 348,-92.8 850,-92.8 850,-40.8 348,-40.8"/>
</g>
<g id="clust6" class="cluster">
<title>cluster_SafeRolesModule_imports</title>
<polygon fill="none" stroke="black" points="16,-40.8 16,-92.8 340,-92.8 340,-40.8 16,-40.8"/>
</g>
<g id="clust7" class="cluster">
<title>cluster_SafeRolesModule_exports</title>
<polygon fill="none" stroke="black" points="346,-170.8 346,-222.8 504,-222.8 504,-170.8 346,-170.8"/>
</g>
<!-- SafeAddRoleComponent -->
<g id="node1" class="node">
<title>SafeAddRoleComponent</title>
<polygon fill="#ffffb3" stroke="black" points="842.26,-84.8 685.74,-84.8 685.74,-48.8 842.26,-48.8 842.26,-84.8"/>
<text text-anchor="middle" x="764" y="-62.6" font-family="Times,serif" font-size="14.00">SafeAddRoleComponent</text>
</g>
<!-- SafeRolesModule -->
<g id="node4" class="node">
<title>SafeRolesModule</title>
<polygon fill="#8dd3c7" stroke="black" points="483.32,-149.8 480.32,-153.8 459.32,-153.8 456.32,-149.8 366.68,-149.8 366.68,-113.8 483.32,-113.8 483.32,-149.8"/>
<text text-anchor="middle" x="425" y="-127.6" font-family="Times,serif" font-size="14.00">SafeRolesModule</text>
</g>
<!-- SafeAddRoleComponent&#45;&gt;SafeRolesModule -->
<g id="edge1" class="edge">
<title>SafeAddRoleComponent&#45;&gt;SafeRolesModule</title>
<path fill="none" stroke="black" d="M764,-85.08C764,-106.12 764,-137.8 764,-137.8 764,-137.8 493.28,-137.8 493.28,-137.8"/>
<polygon fill="black" stroke="black" points="493.28,-134.3 483.28,-137.8 493.28,-141.3 493.28,-134.3"/>
</g>
<!-- SafeEditRoleComponent -->
<g id="node2" class="node">
<title>SafeEditRoleComponent</title>
<polygon fill="#ffffb3" stroke="black" points="667.98,-84.8 512.02,-84.8 512.02,-48.8 667.98,-48.8 667.98,-84.8"/>
<text text-anchor="middle" x="590" y="-62.6" font-family="Times,serif" font-size="14.00">SafeEditRoleComponent</text>
</g>
<!-- SafeEditRoleComponent&#45;&gt;SafeRolesModule -->
<g id="edge2" class="edge">
<title>SafeEditRoleComponent&#45;&gt;SafeRolesModule</title>
<path fill="none" stroke="black" d="M590,-84.82C590,-102.17 590,-125.8 590,-125.8 590,-125.8 493.17,-125.8 493.17,-125.8"/>
<polygon fill="black" stroke="black" points="493.17,-122.3 483.17,-125.8 493.17,-129.3 493.17,-122.3"/>
</g>
<!-- SafeRolesComponent -->
<g id="node3" class="node">
<title>SafeRolesComponent</title>
<polygon fill="#ffffb3" stroke="black" points="494.1,-84.8 355.9,-84.8 355.9,-48.8 494.1,-48.8 494.1,-84.8"/>
<text text-anchor="middle" x="425" y="-62.6" font-family="Times,serif" font-size="14.00">SafeRolesComponent</text>
</g>
<!-- SafeRolesComponent&#45;&gt;SafeRolesModule -->
<g id="edge3" class="edge">
<title>SafeRolesComponent&#45;&gt;SafeRolesModule</title>
<path fill="none" stroke="black" d="M425,-84.91C425,-84.91 425,-103.79 425,-103.79"/>
<polygon fill="black" stroke="black" points="421.5,-103.79 425,-113.79 428.5,-103.79 421.5,-103.79"/>
</g>
<!-- SafeRolesComponent  -->
<g id="node7" class="node">
<title>SafeRolesComponent </title>
<polygon fill="#fb8072" stroke="black" points="495.6,-214.8 354.4,-214.8 354.4,-178.8 495.6,-178.8 495.6,-214.8"/>
<text text-anchor="middle" x="425" y="-192.6" font-family="Times,serif" font-size="14.00">SafeRolesComponent </text>
</g>
<!-- SafeRolesModule&#45;&gt;SafeRolesComponent  -->
<g id="edge6" class="edge">
<title>SafeRolesModule&#45;&gt;SafeRolesComponent </title>
<path fill="none" stroke="black" stroke-dasharray="5,2" d="M425,-149.91C425,-149.91 425,-168.79 425,-168.79"/>
<polygon fill="black" stroke="black" points="421.5,-168.79 425,-178.79 428.5,-168.79 421.5,-168.79"/>
</g>
<!-- SafeButtonModule -->
<g id="node5" class="node">
<title>SafeButtonModule</title>
<polygon fill="#8dd3c7" stroke="black" points="332.05,-84.8 329.05,-88.8 308.05,-88.8 305.05,-84.8 209.95,-84.8 209.95,-48.8 332.05,-48.8 332.05,-84.8"/>
<text text-anchor="middle" x="271" y="-62.6" font-family="Times,serif" font-size="14.00">SafeButtonModule</text>
</g>
<!-- SafeButtonModule&#45;&gt;SafeRolesModule -->
<g id="edge4" class="edge">
<title>SafeButtonModule&#45;&gt;SafeRolesModule</title>
<path fill="none" stroke="black" d="M271,-84.82C271,-102.17 271,-125.8 271,-125.8 271,-125.8 356.78,-125.8 356.78,-125.8"/>
<polygon fill="black" stroke="black" points="356.78,-129.3 366.78,-125.8 356.78,-122.3 356.78,-129.3"/>
</g>
<!-- SafeConfirmModalModule -->
<g id="node6" class="node">
<title>SafeConfirmModalModule</title>
<polygon fill="#8dd3c7" stroke="black" points="192.42,-84.8 189.42,-88.8 168.42,-88.8 165.42,-84.8 23.58,-84.8 23.58,-48.8 192.42,-48.8 192.42,-84.8"/>
<text text-anchor="middle" x="108" y="-62.6" font-family="Times,serif" font-size="14.00">SafeConfirmModalModule</text>
</g>
<!-- SafeConfirmModalModule&#45;&gt;SafeRolesModule -->
<g id="edge5" class="edge">
<title>SafeConfirmModalModule&#45;&gt;SafeRolesModule</title>
<path fill="none" stroke="black" d="M108,-85.08C108,-106.12 108,-137.8 108,-137.8 108,-137.8 356.49,-137.8 356.49,-137.8"/>
<polygon fill="black" stroke="black" points="356.49,-141.3 366.49,-137.8 356.49,-134.3 356.49,-141.3"/>
</g>
</g>
</svg>
