<?xml version="1.0" encoding="UTF-8" standalone="no"?>
<!DOCTYPE svg PUBLIC "-//W3C//DTD SVG 1.1//EN"
 "http://www.w3.org/Graphics/SVG/1.1/DTD/svg11.dtd">
<!-- Generated by graphviz version 3.0.0 (20220226.1711)
 -->
<!-- Title: dependencies Pages: 1 -->
<svg width="874pt" height="247pt"
 viewBox="0.00 0.00 874.00 246.80" xmlns="http://www.w3.org/2000/svg" xmlns:xlink="http://www.w3.org/1999/xlink">
<g id="graph0" class="graph" transform="scale(1 1) rotate(0) translate(4 242.8)">
<title>dependencies</title>
<polygon fill="white" stroke="transparent" points="-4,4 -4,-242.8 870,-242.8 870,4 -4,4"/>
<text text-anchor="middle" x="433" y="-8.2" font-family="sans-serif" font-size="14.00">dependencies</text>
<g id="clust1" class="cluster">
<title>cluster_SafeRolesModule</title>
<polygon fill="none" stroke="black" stroke-dasharray="1,5" points="8,-32.8 8,-230.8 858,-230.8 858,-32.8 8,-32.8"/>
</g>
<g id="clust6" class="cluster">
<title>cluster_SafeRolesModule_imports</title>
<polygon fill="none" stroke="black" points="526,-40.8 526,-92.8 850,-92.8 850,-40.8 526,-40.8"/>
</g>
<g id="clust7" class="cluster">
<title>cluster_SafeRolesModule_exports</title>
<polygon fill="none" stroke="black" points="353,-170.8 353,-222.8 511,-222.8 511,-170.8 353,-170.8"/>
</g>
<g id="clust2" class="cluster">
<title>cluster_SafeRolesModule_declarations</title>
<polygon fill="none" stroke="black" points="16,-40.8 16,-92.8 518,-92.8 518,-40.8 16,-40.8"/>
</g>
<!-- SafeAddRoleComponent -->
<g id="node1" class="node">
<title>SafeAddRoleComponent</title>
<polygon fill="#ffffb3" stroke="black" points="510.26,-84.8 353.74,-84.8 353.74,-48.8 510.26,-48.8 510.26,-84.8"/>
<text text-anchor="middle" x="432" y="-62.6" font-family="Times,serif" font-size="14.00">SafeAddRoleComponent</text>
</g>
<!-- SafeRolesModule -->
<g id="node4" class="node">
<title>SafeRolesModule</title>
<polygon fill="#8dd3c7" stroke="black" points="490.32,-149.8 487.32,-153.8 466.32,-153.8 463.32,-149.8 373.68,-149.8 373.68,-113.8 490.32,-113.8 490.32,-149.8"/>
<text text-anchor="middle" x="432" y="-127.6" font-family="Times,serif" font-size="14.00">SafeRolesModule</text>
</g>
<!-- SafeAddRoleComponent&#45;&gt;SafeRolesModule -->
<g id="edge1" class="edge">
<title>SafeAddRoleComponent&#45;&gt;SafeRolesModule</title>
<path fill="none" stroke="black" d="M432,-84.91C432,-84.91 432,-103.79 432,-103.79"/>
<polygon fill="black" stroke="black" points="428.5,-103.79 432,-113.79 435.5,-103.79 428.5,-103.79"/>
</g>
<!-- SafeEditRoleComponent -->
<g id="node2" class="node">
<title>SafeEditRoleComponent</title>
<polygon fill="#ffffb3" stroke="black" points="335.98,-84.8 180.02,-84.8 180.02,-48.8 335.98,-48.8 335.98,-84.8"/>
<text text-anchor="middle" x="258" y="-62.6" font-family="Times,serif" font-size="14.00">SafeEditRoleComponent</text>
</g>
<!-- SafeEditRoleComponent&#45;&gt;SafeRolesModule -->
<g id="edge2" class="edge">
<title>SafeEditRoleComponent&#45;&gt;SafeRolesModule</title>
<path fill="none" stroke="black" d="M258,-84.82C258,-102.17 258,-125.8 258,-125.8 258,-125.8 363.58,-125.8 363.58,-125.8"/>
<polygon fill="black" stroke="black" points="363.58,-129.3 373.58,-125.8 363.58,-122.3 363.58,-129.3"/>
</g>
<!-- SafeRolesComponent -->
<g id="node3" class="node">
<title>SafeRolesComponent</title>
<polygon fill="#ffffb3" stroke="black" points="162.1,-84.8 23.9,-84.8 23.9,-48.8 162.1,-48.8 162.1,-84.8"/>
<text text-anchor="middle" x="93" y="-62.6" font-family="Times,serif" font-size="14.00">SafeRolesComponent</text>
</g>
<!-- SafeRolesComponent&#45;&gt;SafeRolesModule -->
<g id="edge3" class="edge">
<title>SafeRolesComponent&#45;&gt;SafeRolesModule</title>
<path fill="none" stroke="black" d="M93,-85.08C93,-106.12 93,-137.8 93,-137.8 93,-137.8 363.72,-137.8 363.72,-137.8"/>
<polygon fill="black" stroke="black" points="363.72,-141.3 373.72,-137.8 363.72,-134.3 363.72,-141.3"/>
</g>
<!-- SafeRolesComponent  -->
<g id="node7" class="node">
<title>SafeRolesComponent </title>
<polygon fill="#fb8072" stroke="black" points="502.6,-214.8 361.4,-214.8 361.4,-178.8 502.6,-178.8 502.6,-214.8"/>
<text text-anchor="middle" x="432" y="-192.6" font-family="Times,serif" font-size="14.00">SafeRolesComponent </text>
</g>
<!-- SafeRolesModule&#45;&gt;SafeRolesComponent  -->
<g id="edge6" class="edge">
<title>SafeRolesModule&#45;&gt;SafeRolesComponent </title>
<path fill="none" stroke="black" stroke-dasharray="5,2" d="M432,-149.91C432,-149.91 432,-168.79 432,-168.79"/>
<polygon fill="black" stroke="black" points="428.5,-168.79 432,-178.79 435.5,-168.79 428.5,-168.79"/>
</g>
<!-- SafeButtonModule -->
<g id="node5" class="node">
<title>SafeButtonModule</title>
<polygon fill="#8dd3c7" stroke="black" points="842.05,-84.8 839.05,-88.8 818.05,-88.8 815.05,-84.8 719.95,-84.8 719.95,-48.8 842.05,-48.8 842.05,-84.8"/>
<text text-anchor="middle" x="781" y="-62.6" font-family="Times,serif" font-size="14.00">SafeButtonModule</text>
</g>
<!-- SafeButtonModule&#45;&gt;SafeRolesModule -->
<g id="edge4" class="edge">
<title>SafeButtonModule&#45;&gt;SafeRolesModule</title>
<path fill="none" stroke="black" d="M781,-85.08C781,-106.12 781,-137.8 781,-137.8 781,-137.8 500.41,-137.8 500.41,-137.8"/>
<polygon fill="black" stroke="black" points="500.41,-134.3 490.41,-137.8 500.41,-141.3 500.41,-134.3"/>
</g>
<!-- SafeConfirmModalModule -->
<g id="node6" class="node">
<title>SafeConfirmModalModule</title>
<polygon fill="#8dd3c7" stroke="black" points="702.42,-84.8 699.42,-88.8 678.42,-88.8 675.42,-84.8 533.58,-84.8 533.58,-48.8 702.42,-48.8 702.42,-84.8"/>
<text text-anchor="middle" x="618" y="-62.6" font-family="Times,serif" font-size="14.00">SafeConfirmModalModule</text>
</g>
<!-- SafeConfirmModalModule&#45;&gt;SafeRolesModule -->
<g id="edge5" class="edge">
<title>SafeConfirmModalModule&#45;&gt;SafeRolesModule</title>
<path fill="none" stroke="black" d="M618,-84.82C618,-102.17 618,-125.8 618,-125.8 618,-125.8 500.34,-125.8 500.34,-125.8"/>
<polygon fill="black" stroke="black" points="500.34,-122.3 490.34,-125.8 500.34,-129.3 500.34,-122.3"/>
</g>
</g>
</svg>
