<?xml version="1.0" encoding="UTF-8" standalone="no"?>
<!DOCTYPE svg PUBLIC "-//W3C//DTD SVG 1.1//EN"
 "http://www.w3.org/Graphics/SVG/1.1/DTD/svg11.dtd">
<!-- Generated by graphviz version 3.0.0 (20220226.1711)
 -->
<!-- Title: dependencies Pages: 1 -->
<svg width="533pt" height="247pt"
 viewBox="0.00 0.00 533.00 246.80" xmlns="http://www.w3.org/2000/svg" xmlns:xlink="http://www.w3.org/1999/xlink">
<g id="graph0" class="graph" transform="scale(1 1) rotate(0) translate(4 242.8)">
<title>dependencies</title>
<polygon fill="white" stroke="transparent" points="-4,4 -4,-242.8 529,-242.8 529,4 -4,4"/>
<text text-anchor="middle" x="262.5" y="-8.2" font-family="sans-serif" font-size="14.00">dependencies</text>
<g id="clust1" class="cluster">
<title>cluster_SafeRecordSummaryModule</title>
<polygon fill="none" stroke="black" stroke-dasharray="1,5" points="8,-32.8 8,-230.8 517,-230.8 517,-32.8 8,-32.8"/>
</g>
<g id="clust5" class="cluster">
<title>cluster_SafeRecordSummaryModule_exports</title>
<polygon fill="none" stroke="black" points="195,-170.8 195,-222.8 415,-222.8 415,-170.8 195,-170.8"/>
</g>
<g id="clust4" class="cluster">
<title>cluster_SafeRecordSummaryModule_imports</title>
<polygon fill="none" stroke="black" points="242,-40.8 242,-92.8 509,-92.8 509,-40.8 242,-40.8"/>
</g>
<g id="clust2" class="cluster">
<title>cluster_SafeRecordSummaryModule_declarations</title>
<polygon fill="none" stroke="black" points="16,-40.8 16,-92.8 234,-92.8 234,-40.8 16,-40.8"/>
</g>
<!-- SafeRecordSummaryComponent -->
<g id="node1" class="node">
<title>SafeRecordSummaryComponent</title>
<polygon fill="#ffffb3" stroke="black" points="225.58,-84.8 24.42,-84.8 24.42,-48.8 225.58,-48.8 225.58,-84.8"/>
<text text-anchor="middle" x="125" y="-62.6" font-family="Times,serif" font-size="14.00">SafeRecordSummaryComponent</text>
</g>
<!-- SafeRecordSummaryModule -->
<g id="node2" class="node">
<title>SafeRecordSummaryModule</title>
<polygon fill="#8dd3c7" stroke="black" points="394.8,-149.8 391.8,-153.8 370.8,-153.8 367.8,-149.8 215.2,-149.8 215.2,-113.8 394.8,-113.8 394.8,-149.8"/>
<text text-anchor="middle" x="305" y="-127.6" font-family="Times,serif" font-size="14.00">SafeRecordSummaryModule</text>
</g>
<!-- SafeRecordSummaryComponent&#45;&gt;SafeRecordSummaryModule -->
<g id="edge1" class="edge">
<title>SafeRecordSummaryComponent&#45;&gt;SafeRecordSummaryModule</title>
<path fill="none" stroke="black" d="M220.44,-84.91C220.44,-84.91 220.44,-103.79 220.44,-103.79"/>
<polygon fill="black" stroke="black" points="216.94,-103.79 220.44,-113.79 223.94,-103.79 216.94,-103.79"/>
</g>
<!-- SafeRecordSummaryComponent  -->
<g id="node5" class="node">
<title>SafeRecordSummaryComponent </title>
<polygon fill="#fb8072" stroke="black" points="407.08,-214.8 202.92,-214.8 202.92,-178.8 407.08,-178.8 407.08,-214.8"/>
<text text-anchor="middle" x="305" y="-192.6" font-family="Times,serif" font-size="14.00">SafeRecordSummaryComponent </text>
</g>
<!-- SafeRecordSummaryModule&#45;&gt;SafeRecordSummaryComponent  -->
<g id="edge4" class="edge">
<title>SafeRecordSummaryModule&#45;&gt;SafeRecordSummaryComponent </title>
<path fill="none" stroke="black" stroke-dasharray="5,2" d="M305,-149.91C305,-149.91 305,-168.79 305,-168.79"/>
<polygon fill="black" stroke="black" points="301.5,-168.79 305,-178.79 308.5,-168.79 301.5,-168.79"/>
</g>
<!-- SafeButtonModule -->
<g id="node3" class="node">
<title>SafeButtonModule</title>
<polygon fill="#8dd3c7" stroke="black" points="501.05,-84.8 498.05,-88.8 477.05,-88.8 474.05,-84.8 378.95,-84.8 378.95,-48.8 501.05,-48.8 501.05,-84.8"/>
<text text-anchor="middle" x="440" y="-62.6" font-family="Times,serif" font-size="14.00">SafeButtonModule</text>
</g>
<!-- SafeButtonModule&#45;&gt;SafeRecordSummaryModule -->
<g id="edge2" class="edge">
<title>SafeButtonModule&#45;&gt;SafeRecordSummaryModule</title>
<path fill="none" stroke="black" d="M386.69,-84.91C386.69,-84.91 386.69,-103.79 386.69,-103.79"/>
<polygon fill="black" stroke="black" points="383.19,-103.79 386.69,-113.79 390.19,-103.79 383.19,-103.79"/>
</g>
<!-- SafeDateModule -->
<g id="node4" class="node">
<title>SafeDateModule</title>
<polygon fill="#8dd3c7" stroke="black" points="360.36,-84.8 357.36,-88.8 336.36,-88.8 333.36,-84.8 249.64,-84.8 249.64,-48.8 360.36,-48.8 360.36,-84.8"/>
<text text-anchor="middle" x="305" y="-62.6" font-family="Times,serif" font-size="14.00">SafeDateModule</text>
</g>
<!-- SafeDateModule&#45;&gt;SafeRecordSummaryModule -->
<g id="edge3" class="edge">
<title>SafeDateModule&#45;&gt;SafeRecordSummaryModule</title>
<path fill="none" stroke="black" d="M305,-84.91C305,-84.91 305,-103.79 305,-103.79"/>
<polygon fill="black" stroke="black" points="301.5,-103.79 305,-113.79 308.5,-103.79 301.5,-103.79"/>
</g>
</g>
</svg>
