<?xml version="1.0" encoding="UTF-8" standalone="no"?>
<!DOCTYPE svg PUBLIC "-//W3C//DTD SVG 1.1//EN"
 "http://www.w3.org/Graphics/SVG/1.1/DTD/svg11.dtd">
<!-- Generated by graphviz version 3.0.0 (20220226.1711)
 -->
<!-- Title: dependencies Pages: 1 -->
<svg width="1314pt" height="247pt"
 viewBox="0.00 0.00 1314.00 246.80" xmlns="http://www.w3.org/2000/svg" xmlns:xlink="http://www.w3.org/1999/xlink">
<g id="graph0" class="graph" transform="scale(1 1) rotate(0) translate(4 242.8)">
<title>dependencies</title>
<polygon fill="white" stroke="transparent" points="-4,4 -4,-242.8 1310,-242.8 1310,4 -4,4"/>
<text text-anchor="middle" x="653" y="-8.2" font-family="sans-serif" font-size="14.00">dependencies</text>
<g id="clust1" class="cluster">
<title>cluster_TabDisplayModule</title>
<polygon fill="none" stroke="black" stroke-dasharray="1,5" points="8,-32.8 8,-230.8 1298,-230.8 1298,-32.8 8,-32.8"/>
</g>
<g id="clust2" class="cluster">
<title>cluster_TabDisplayModule_declarations</title>
<polygon fill="none" stroke="black" points="1128,-40.8 1128,-92.8 1290,-92.8 1290,-40.8 1128,-40.8"/>
</g>
<g id="clust5" class="cluster">
<title>cluster_TabDisplayModule_exports</title>
<polygon fill="none" stroke="black" points="551,-170.8 551,-222.8 717,-222.8 717,-170.8 551,-170.8"/>
</g>
<g id="clust4" class="cluster">
<title>cluster_TabDisplayModule_imports</title>
<polygon fill="none" stroke="black" points="16,-40.8 16,-92.8 1120,-92.8 1120,-40.8 16,-40.8"/>
</g>
<!-- TabDisplayComponent -->
<g id="node1" class="node">
<title>TabDisplayComponent</title>
<polygon fill="#ffffb3" stroke="black" points="1282.15,-84.8 1135.85,-84.8 1135.85,-48.8 1282.15,-48.8 1282.15,-84.8"/>
<text text-anchor="middle" x="1209" y="-62.6" font-family="Times,serif" font-size="14.00">TabDisplayComponent</text>
</g>
<!-- TabDisplayModule -->
<g id="node2" class="node">
<title>TabDisplayModule</title>
<polygon fill="#8dd3c7" stroke="black" points="696.37,-149.8 693.37,-153.8 672.37,-153.8 669.37,-149.8 571.63,-149.8 571.63,-113.8 696.37,-113.8 696.37,-149.8"/>
<text text-anchor="middle" x="634" y="-127.6" font-family="Times,serif" font-size="14.00">TabDisplayModule</text>
</g>
<!-- TabDisplayComponent&#45;&gt;TabDisplayModule -->
<g id="edge1" class="edge">
<title>TabDisplayComponent&#45;&gt;TabDisplayModule</title>
<path fill="none" stroke="black" d="M1209,-85.09C1209,-107.01 1209,-140.8 1209,-140.8 1209,-140.8 706.63,-140.8 706.63,-140.8"/>
<polygon fill="black" stroke="black" points="706.63,-137.3 696.63,-140.8 706.63,-144.3 706.63,-137.3"/>
</g>
<!-- TabDisplayComponent  -->
<g id="node10" class="node">
<title>TabDisplayComponent </title>
<polygon fill="#fb8072" stroke="black" points="709.15,-214.8 558.85,-214.8 558.85,-178.8 709.15,-178.8 709.15,-214.8"/>
<text text-anchor="middle" x="634" y="-192.6" font-family="Times,serif" font-size="14.00">TabDisplayComponent </text>
</g>
<!-- TabDisplayModule&#45;&gt;TabDisplayComponent  -->
<g id="edge9" class="edge">
<title>TabDisplayModule&#45;&gt;TabDisplayComponent </title>
<path fill="none" stroke="black" stroke-dasharray="5,2" d="M634,-149.91C634,-149.91 634,-168.79 634,-168.79"/>
<polygon fill="black" stroke="black" points="630.5,-168.79 634,-178.79 637.5,-168.79 630.5,-168.79"/>
</g>
<!-- SafeAggregationBuilderModule -->
<g id="node3" class="node">
<title>SafeAggregationBuilderModule</title>
<polygon fill="#8dd3c7" stroke="black" points="1112.4,-84.8 1109.4,-88.8 1088.4,-88.8 1085.4,-84.8 915.6,-84.8 915.6,-48.8 1112.4,-48.8 1112.4,-84.8"/>
<text text-anchor="middle" x="1014" y="-62.6" font-family="Times,serif" font-size="14.00">SafeAggregationBuilderModule</text>
</g>
<!-- SafeAggregationBuilderModule&#45;&gt;TabDisplayModule -->
<g id="edge2" class="edge">
<title>SafeAggregationBuilderModule&#45;&gt;TabDisplayModule</title>
<path fill="none" stroke="black" d="M1014,-84.91C1014,-104.14 1014,-131.8 1014,-131.8 1014,-131.8 706.75,-131.8 706.75,-131.8"/>
<polygon fill="black" stroke="black" points="706.75,-128.3 696.75,-131.8 706.75,-135.3 706.75,-128.3"/>
</g>
<!-- SafeButtonModule -->
<g id="node4" class="node">
<title>SafeButtonModule</title>
<polygon fill="#8dd3c7" stroke="black" points="898.05,-84.8 895.05,-88.8 874.05,-88.8 871.05,-84.8 775.95,-84.8 775.95,-48.8 898.05,-48.8 898.05,-84.8"/>
<text text-anchor="middle" x="837" y="-62.6" font-family="Times,serif" font-size="14.00">SafeButtonModule</text>
</g>
<!-- SafeButtonModule&#45;&gt;TabDisplayModule -->
<g id="edge3" class="edge">
<title>SafeButtonModule&#45;&gt;TabDisplayModule</title>
<path fill="none" stroke="black" d="M837,-84.83C837,-101.2 837,-122.8 837,-122.8 837,-122.8 706.56,-122.8 706.56,-122.8"/>
<polygon fill="black" stroke="black" points="706.56,-119.3 696.56,-122.8 706.56,-126.3 706.56,-119.3"/>
</g>
<!-- SafeChartModule -->
<g id="node5" class="node">
<title>SafeChartModule</title>
<polygon fill="#8dd3c7" stroke="black" points="757.53,-84.8 754.53,-88.8 733.53,-88.8 730.53,-84.8 642.47,-84.8 642.47,-48.8 757.53,-48.8 757.53,-84.8"/>
<text text-anchor="middle" x="700" y="-62.6" font-family="Times,serif" font-size="14.00">SafeChartModule</text>
</g>
<!-- SafeChartModule&#45;&gt;TabDisplayModule -->
<g id="edge4" class="edge">
<title>SafeChartModule&#45;&gt;TabDisplayModule</title>
<path fill="none" stroke="black" d="M669.33,-84.91C669.33,-84.91 669.33,-103.79 669.33,-103.79"/>
<polygon fill="black" stroke="black" points="665.83,-103.79 669.33,-113.79 672.83,-103.79 665.83,-103.79"/>
</g>
<!-- SafeGridModule -->
<g id="node6" class="node">
<title>SafeGridModule</title>
<polygon fill="#8dd3c7" stroke="black" points="624.09,-84.8 621.09,-88.8 600.09,-88.8 597.09,-84.8 513.91,-84.8 513.91,-48.8 624.09,-48.8 624.09,-84.8"/>
<text text-anchor="middle" x="569" y="-62.6" font-family="Times,serif" font-size="14.00">SafeGridModule</text>
</g>
<!-- SafeGridModule&#45;&gt;TabDisplayModule -->
<g id="edge5" class="edge">
<title>SafeGridModule&#45;&gt;TabDisplayModule</title>
<path fill="none" stroke="black" d="M597.81,-84.91C597.81,-84.91 597.81,-103.79 597.81,-103.79"/>
<polygon fill="black" stroke="black" points="594.31,-103.79 597.81,-113.79 601.31,-103.79 594.31,-103.79"/>
</g>
<!-- SafeIconModule -->
<g id="node7" class="node">
<title>SafeIconModule</title>
<polygon fill="#8dd3c7" stroke="black" points="495.8,-84.8 492.8,-88.8 471.8,-88.8 468.8,-84.8 386.2,-84.8 386.2,-48.8 495.8,-48.8 495.8,-84.8"/>
<text text-anchor="middle" x="441" y="-62.6" font-family="Times,serif" font-size="14.00">SafeIconModule</text>
</g>
<!-- SafeIconModule&#45;&gt;TabDisplayModule -->
<g id="edge6" class="edge">
<title>SafeIconModule&#45;&gt;TabDisplayModule</title>
<path fill="none" stroke="black" d="M441,-84.83C441,-101.2 441,-122.8 441,-122.8 441,-122.8 561.6,-122.8 561.6,-122.8"/>
<polygon fill="black" stroke="black" points="561.6,-126.3 571.6,-122.8 561.6,-119.3 561.6,-126.3"/>
</g>
<!-- SafePaletteControlModule -->
<g id="node8" class="node">
<title>SafePaletteControlModule</title>
<polygon fill="#8dd3c7" stroke="black" points="368.8,-84.8 365.8,-88.8 344.8,-88.8 341.8,-84.8 203.2,-84.8 203.2,-48.8 368.8,-48.8 368.8,-84.8"/>
<text text-anchor="middle" x="286" y="-62.6" font-family="Times,serif" font-size="14.00">SafePaletteControlModule</text>
</g>
<!-- SafePaletteControlModule&#45;&gt;TabDisplayModule -->
<g id="edge7" class="edge">
<title>SafePaletteControlModule&#45;&gt;TabDisplayModule</title>
<path fill="none" stroke="black" d="M286,-84.91C286,-104.14 286,-131.8 286,-131.8 286,-131.8 561.38,-131.8 561.38,-131.8"/>
<polygon fill="black" stroke="black" points="561.38,-135.3 571.38,-131.8 561.38,-128.3 561.38,-135.3"/>
</g>
<!-- SafeQueryBuilderModule -->
<g id="node9" class="node">
<title>SafeQueryBuilderModule</title>
<polygon fill="#8dd3c7" stroke="black" points="185.91,-84.8 182.91,-88.8 161.91,-88.8 158.91,-84.8 24.09,-84.8 24.09,-48.8 185.91,-48.8 185.91,-84.8"/>
<text text-anchor="middle" x="105" y="-62.6" font-family="Times,serif" font-size="14.00">SafeQueryBuilderModule</text>
</g>
<!-- SafeQueryBuilderModule&#45;&gt;TabDisplayModule -->
<g id="edge8" class="edge">
<title>SafeQueryBuilderModule&#45;&gt;TabDisplayModule</title>
<path fill="none" stroke="black" d="M105,-85.09C105,-107.01 105,-140.8 105,-140.8 105,-140.8 561.5,-140.8 561.5,-140.8"/>
<polygon fill="black" stroke="black" points="561.5,-144.3 571.5,-140.8 561.5,-137.3 561.5,-144.3"/>
</g>
</g>
</svg>
