<?xml version="1.0" encoding="UTF-8" standalone="no"?>
<!DOCTYPE svg PUBLIC "-//W3C//DTD SVG 1.1//EN"
 "http://www.w3.org/Graphics/SVG/1.1/DTD/svg11.dtd">
<!-- Generated by graphviz version 2.47.0 (20210316.0004)
 -->
<!-- Title: dependencies Pages: 1 -->
<svg width="1089pt" height="284pt"
 viewBox="0.00 0.00 1089.00 284.00" xmlns="http://www.w3.org/2000/svg" xmlns:xlink="http://www.w3.org/1999/xlink">
<g id="graph0" class="graph" transform="scale(1 1) rotate(0) translate(4 280)">
<title>dependencies</title>
<polygon fill="white" stroke="transparent" points="-4,4 -4,-280 1085,-280 1085,4 -4,4"/>
<text text-anchor="start" x="519.51" y="-42.4" font-family="sans-serif" font-weight="bold" font-size="14.00">Legend</text>
<polygon fill="#ffffb3" stroke="transparent" points="306.5,-10 306.5,-30 326.5,-30 326.5,-10 306.5,-10"/>
<text text-anchor="start" x="330.13" y="-15.4" font-family="sans-serif" font-size="14.00"> &#160;Declarations</text>
<polygon fill="#8dd3c7" stroke="transparent" points="419.5,-10 419.5,-30 439.5,-30 439.5,-10 419.5,-10"/>
<text text-anchor="start" x="443.23" y="-15.4" font-family="sans-serif" font-size="14.00"> &#160;Module</text>
<polygon fill="#80b1d3" stroke="transparent" points="505.5,-10 505.5,-30 525.5,-30 525.5,-10 505.5,-10"/>
<text text-anchor="start" x="529.28" y="-15.4" font-family="sans-serif" font-size="14.00"> &#160;Bootstrap</text>
<polygon fill="#fdb462" stroke="transparent" points="602.5,-10 602.5,-30 622.5,-30 622.5,-10 602.5,-10"/>
<text text-anchor="start" x="626.17" y="-15.4" font-family="sans-serif" font-size="14.00"> &#160;Providers</text>
<polygon fill="#fb8072" stroke="transparent" points="698.5,-10 698.5,-30 718.5,-30 718.5,-10 698.5,-10"/>
<text text-anchor="start" x="722.23" y="-15.4" font-family="sans-serif" font-size="14.00"> &#160;Exports</text>
<g id="clust1" class="cluster">
<title>cluster_SafeChooseRecordModalModule</title>
<polygon fill="none" stroke="black" stroke-dasharray="1,5" points="8,-70 8,-268 1073,-268 1073,-70 8,-70"/>
</g>
<g id="clust2" class="cluster">
<title>cluster_SafeChooseRecordModalModule_declarations</title>
<polygon fill="none" stroke="black" points="823,-78 823,-130 1065,-130 1065,-78 823,-78"/>
</g>
<g id="clust4" class="cluster">
<title>cluster_SafeChooseRecordModalModule_imports</title>
<polygon fill="none" stroke="black" points="16,-78 16,-130 815,-130 815,-78 16,-78"/>
</g>
<g id="clust5" class="cluster">
<title>cluster_SafeChooseRecordModalModule_exports</title>
<polygon fill="none" stroke="black" points="388,-208 388,-260 632,-260 632,-208 388,-208"/>
</g>
<!-- SafeChooseRecordModalComponent -->
<g id="node1" class="node">
<title>SafeChooseRecordModalComponent</title>
<polygon fill="#ffffb3" stroke="black" points="1056.68,-122 831.32,-122 831.32,-86 1056.68,-86 1056.68,-122"/>
<text text-anchor="middle" x="944" y="-99.8" font-family="Times,serif" font-size="14.00">SafeChooseRecordModalComponent</text>
</g>
<!-- SafeChooseRecordModalModule -->
<g id="node2" class="node">
<title>SafeChooseRecordModalModule</title>
<polygon fill="#8dd3c7" stroke="black" points="611.89,-187 608.89,-191 587.89,-191 584.89,-187 408.11,-187 408.11,-151 611.89,-151 611.89,-187"/>
<text text-anchor="middle" x="510" y="-164.8" font-family="Times,serif" font-size="14.00">SafeChooseRecordModalModule</text>
</g>
<!-- SafeChooseRecordModalComponent&#45;&gt;SafeChooseRecordModalModule -->
<g id="edge1" class="edge">
<title>SafeChooseRecordModalComponent&#45;&gt;SafeChooseRecordModalModule</title>
<path fill="none" stroke="black" d="M944,-122.11C944,-141.34 944,-169 944,-169 944,-169 621.75,-169 621.75,-169"/>
<polygon fill="black" stroke="black" points="621.75,-165.5 611.75,-169 621.75,-172.5 621.75,-165.5"/>
</g>
<!-- SafeChooseRecordModalComponent  -->
<g id="node7" class="node">
<title>SafeChooseRecordModalComponent </title>
<polygon fill="#fb8072" stroke="black" points="624.18,-252 395.82,-252 395.82,-216 624.18,-216 624.18,-252"/>
<text text-anchor="middle" x="510" y="-229.8" font-family="Times,serif" font-size="14.00">SafeChooseRecordModalComponent </text>
</g>
<!-- SafeChooseRecordModalModule&#45;&gt;SafeChooseRecordModalComponent  -->
<g id="edge6" class="edge">
<title>SafeChooseRecordModalModule&#45;&gt;SafeChooseRecordModalComponent </title>
<path fill="none" stroke="black" stroke-dasharray="5,2" d="M510,-187.11C510,-187.11 510,-205.99 510,-205.99"/>
<polygon fill="black" stroke="black" points="506.5,-205.99 510,-215.99 513.5,-205.99 506.5,-205.99"/>
</g>
<!-- SafeApplicationDropdownModule -->
<g id="node3" class="node">
<title>SafeApplicationDropdownModule</title>
<polygon fill="#8dd3c7" stroke="black" points="807.39,-122 804.39,-126 783.39,-126 780.39,-122 596.61,-122 596.61,-86 807.39,-86 807.39,-122"/>
<text text-anchor="middle" x="702" y="-99.8" font-family="Times,serif" font-size="14.00">SafeApplicationDropdownModule</text>
</g>
<!-- SafeApplicationDropdownModule&#45;&gt;SafeChooseRecordModalModule -->
<g id="edge2" class="edge">
<title>SafeApplicationDropdownModule&#45;&gt;SafeChooseRecordModalModule</title>
<path fill="none" stroke="black" d="M604.25,-122.11C604.25,-122.11 604.25,-140.99 604.25,-140.99"/>
<polygon fill="black" stroke="black" points="600.75,-140.99 604.25,-150.99 607.75,-140.99 600.75,-140.99"/>
</g>
<!-- SafeCoreGridModule -->
<g id="node4" class="node">
<title>SafeCoreGridModule</title>
<polygon fill="#8dd3c7" stroke="black" points="578.79,-122 575.79,-126 554.79,-126 551.79,-122 441.21,-122 441.21,-86 578.79,-86 578.79,-122"/>
<text text-anchor="middle" x="510" y="-99.8" font-family="Times,serif" font-size="14.00">SafeCoreGridModule</text>
</g>
<!-- SafeCoreGridModule&#45;&gt;SafeChooseRecordModalModule -->
<g id="edge3" class="edge">
<title>SafeCoreGridModule&#45;&gt;SafeChooseRecordModalModule</title>
<path fill="none" stroke="black" d="M510,-122.11C510,-122.11 510,-140.99 510,-140.99"/>
<polygon fill="black" stroke="black" points="506.5,-140.99 510,-150.99 513.5,-140.99 506.5,-140.99"/>
</g>
<!-- SafeRecordDropdownModule -->
<g id="node5" class="node">
<title>SafeRecordDropdownModule</title>
<polygon fill="#8dd3c7" stroke="black" points="423.22,-122 420.22,-126 399.22,-126 396.22,-122 238.78,-122 238.78,-86 423.22,-86 423.22,-122"/>
<text text-anchor="middle" x="331" y="-99.8" font-family="Times,serif" font-size="14.00">SafeRecordDropdownModule</text>
</g>
<!-- SafeRecordDropdownModule&#45;&gt;SafeChooseRecordModalModule -->
<g id="edge4" class="edge">
<title>SafeRecordDropdownModule&#45;&gt;SafeChooseRecordModalModule</title>
<path fill="none" stroke="black" d="M415.83,-122.11C415.83,-122.11 415.83,-140.99 415.83,-140.99"/>
<polygon fill="black" stroke="black" points="412.33,-140.99 415.83,-150.99 419.33,-140.99 412.33,-140.99"/>
</g>
<!-- SafeResourceDropdownModule -->
<g id="node6" class="node">
<title>SafeResourceDropdownModule</title>
<polygon fill="#8dd3c7" stroke="black" points="220.38,-122 217.38,-126 196.38,-126 193.38,-122 23.62,-122 23.62,-86 220.38,-86 220.38,-122"/>
<text text-anchor="middle" x="122" y="-99.8" font-family="Times,serif" font-size="14.00">SafeResourceDropdownModule</text>
</g>
<!-- SafeResourceDropdownModule&#45;&gt;SafeChooseRecordModalModule -->
<g id="edge5" class="edge">
<title>SafeResourceDropdownModule&#45;&gt;SafeChooseRecordModalModule</title>
<path fill="none" stroke="black" d="M122,-122.11C122,-141.34 122,-169 122,-169 122,-169 398.06,-169 398.06,-169"/>
<polygon fill="black" stroke="black" points="398.06,-172.5 408.06,-169 398.06,-165.5 398.06,-172.5"/>
</g>
</g>
</svg>
