<?xml version="1.0" encoding="UTF-8" standalone="no"?>
<!DOCTYPE svg PUBLIC "-//W3C//DTD SVG 1.1//EN"
 "http://www.w3.org/Graphics/SVG/1.1/DTD/svg11.dtd">
<!-- Generated by graphviz version 3.0.0 (20220226.1711)
 -->
<!-- Title: dependencies Pages: 1 -->
<svg width="1089pt" height="247pt"
 viewBox="0.00 0.00 1089.00 246.80" xmlns="http://www.w3.org/2000/svg" xmlns:xlink="http://www.w3.org/1999/xlink">
<g id="graph0" class="graph" transform="scale(1 1) rotate(0) translate(4 242.8)">
<title>dependencies</title>
<polygon fill="white" stroke="transparent" points="-4,4 -4,-242.8 1085,-242.8 1085,4 -4,4"/>
<text text-anchor="middle" x="540.5" y="-8.2" font-family="sans-serif" font-size="14.00">dependencies</text>
<g id="clust1" class="cluster">
<title>cluster_SafeChooseRecordModalModule</title>
<polygon fill="none" stroke="black" stroke-dasharray="1,5" points="8,-32.8 8,-230.8 1073,-230.8 1073,-32.8 8,-32.8"/>
</g>
<g id="clust2" class="cluster">
<title>cluster_SafeChooseRecordModalModule_declarations</title>
<polygon fill="none" stroke="black" points="823,-40.8 823,-92.8 1065,-92.8 1065,-40.8 823,-40.8"/>
</g>
<g id="clust5" class="cluster">
<title>cluster_SafeChooseRecordModalModule_exports</title>
<polygon fill="none" stroke="black" points="388,-170.8 388,-222.8 632,-222.8 632,-170.8 388,-170.8"/>
</g>
<g id="clust4" class="cluster">
<title>cluster_SafeChooseRecordModalModule_imports</title>
<polygon fill="none" stroke="black" points="16,-40.8 16,-92.8 815,-92.8 815,-40.8 16,-40.8"/>
</g>
<!-- SafeChooseRecordModalComponent -->
<g id="node1" class="node">
<title>SafeChooseRecordModalComponent</title>
<polygon fill="#ffffb3" stroke="black" points="1056.69,-84.8 831.31,-84.8 831.31,-48.8 1056.69,-48.8 1056.69,-84.8"/>
<text text-anchor="middle" x="944" y="-62.6" font-family="Times,serif" font-size="14.00">SafeChooseRecordModalComponent</text>
</g>
<!-- SafeChooseRecordModalModule -->
<g id="node2" class="node">
<title>SafeChooseRecordModalModule</title>
<polygon fill="#8dd3c7" stroke="black" points="611.91,-149.8 608.91,-153.8 587.91,-153.8 584.91,-149.8 408.09,-149.8 408.09,-113.8 611.91,-113.8 611.91,-149.8"/>
<text text-anchor="middle" x="510" y="-127.6" font-family="Times,serif" font-size="14.00">SafeChooseRecordModalModule</text>
</g>
<!-- SafeChooseRecordModalComponent&#45;&gt;SafeChooseRecordModalModule -->
<g id="edge1" class="edge">
<title>SafeChooseRecordModalComponent&#45;&gt;SafeChooseRecordModalModule</title>
<path fill="none" stroke="black" d="M944,-84.91C944,-104.14 944,-131.8 944,-131.8 944,-131.8 621.75,-131.8 621.75,-131.8"/>
<polygon fill="black" stroke="black" points="621.75,-128.3 611.75,-131.8 621.75,-135.3 621.75,-128.3"/>
</g>
<!-- SafeChooseRecordModalComponent  -->
<g id="node7" class="node">
<title>SafeChooseRecordModalComponent </title>
<polygon fill="#fb8072" stroke="black" points="624.19,-214.8 395.81,-214.8 395.81,-178.8 624.19,-178.8 624.19,-214.8"/>
<text text-anchor="middle" x="510" y="-192.6" font-family="Times,serif" font-size="14.00">SafeChooseRecordModalComponent </text>
</g>
<!-- SafeChooseRecordModalModule&#45;&gt;SafeChooseRecordModalComponent  -->
<g id="edge6" class="edge">
<title>SafeChooseRecordModalModule&#45;&gt;SafeChooseRecordModalComponent </title>
<path fill="none" stroke="black" stroke-dasharray="5,2" d="M510,-149.91C510,-149.91 510,-168.79 510,-168.79"/>
<polygon fill="black" stroke="black" points="506.5,-168.79 510,-178.79 513.5,-168.79 506.5,-168.79"/>
</g>
<!-- SafeApplicationDropdownModule -->
<g id="node3" class="node">
<title>SafeApplicationDropdownModule</title>
<polygon fill="#8dd3c7" stroke="black" points="807.41,-84.8 804.41,-88.8 783.41,-88.8 780.41,-84.8 596.59,-84.8 596.59,-48.8 807.41,-48.8 807.41,-84.8"/>
<text text-anchor="middle" x="702" y="-62.6" font-family="Times,serif" font-size="14.00">SafeApplicationDropdownModule</text>
</g>
<!-- SafeApplicationDropdownModule&#45;&gt;SafeChooseRecordModalModule -->
<g id="edge2" class="edge">
<title>SafeApplicationDropdownModule&#45;&gt;SafeChooseRecordModalModule</title>
<path fill="none" stroke="black" d="M604.25,-84.91C604.25,-84.91 604.25,-103.79 604.25,-103.79"/>
<polygon fill="black" stroke="black" points="600.75,-103.79 604.25,-113.79 607.75,-103.79 600.75,-103.79"/>
</g>
<!-- SafeCoreGridModule -->
<g id="node4" class="node">
<title>SafeCoreGridModule</title>
<polygon fill="#8dd3c7" stroke="black" points="578.8,-84.8 575.8,-88.8 554.8,-88.8 551.8,-84.8 441.2,-84.8 441.2,-48.8 578.8,-48.8 578.8,-84.8"/>
<text text-anchor="middle" x="510" y="-62.6" font-family="Times,serif" font-size="14.00">SafeCoreGridModule</text>
</g>
<!-- SafeCoreGridModule&#45;&gt;SafeChooseRecordModalModule -->
<g id="edge3" class="edge">
<title>SafeCoreGridModule&#45;&gt;SafeChooseRecordModalModule</title>
<path fill="none" stroke="black" d="M510,-84.91C510,-84.91 510,-103.79 510,-103.79"/>
<polygon fill="black" stroke="black" points="506.5,-103.79 510,-113.79 513.5,-103.79 506.5,-103.79"/>
</g>
<!-- SafeRecordDropdownModule -->
<g id="node5" class="node">
<title>SafeRecordDropdownModule</title>
<polygon fill="#8dd3c7" stroke="black" points="423.24,-84.8 420.24,-88.8 399.24,-88.8 396.24,-84.8 238.76,-84.8 238.76,-48.8 423.24,-48.8 423.24,-84.8"/>
<text text-anchor="middle" x="331" y="-62.6" font-family="Times,serif" font-size="14.00">SafeRecordDropdownModule</text>
</g>
<!-- SafeRecordDropdownModule&#45;&gt;SafeChooseRecordModalModule -->
<g id="edge4" class="edge">
<title>SafeRecordDropdownModule&#45;&gt;SafeChooseRecordModalModule</title>
<path fill="none" stroke="black" d="M415.83,-84.91C415.83,-84.91 415.83,-103.79 415.83,-103.79"/>
<polygon fill="black" stroke="black" points="412.33,-103.79 415.83,-113.79 419.33,-103.79 412.33,-103.79"/>
</g>
<!-- SafeResourceDropdownModule -->
<g id="node6" class="node">
<title>SafeResourceDropdownModule</title>
<polygon fill="#8dd3c7" stroke="black" points="220.4,-84.8 217.4,-88.8 196.4,-88.8 193.4,-84.8 23.6,-84.8 23.6,-48.8 220.4,-48.8 220.4,-84.8"/>
<text text-anchor="middle" x="122" y="-62.6" font-family="Times,serif" font-size="14.00">SafeResourceDropdownModule</text>
</g>
<!-- SafeResourceDropdownModule&#45;&gt;SafeChooseRecordModalModule -->
<g id="edge5" class="edge">
<title>SafeResourceDropdownModule&#45;&gt;SafeChooseRecordModalModule</title>
<path fill="none" stroke="black" d="M122,-84.91C122,-104.14 122,-131.8 122,-131.8 122,-131.8 398.06,-131.8 398.06,-131.8"/>
<polygon fill="black" stroke="black" points="398.06,-135.3 408.06,-131.8 398.06,-128.3 398.06,-135.3"/>
</g>
</g>
</svg>
