<?xml version="1.0" encoding="UTF-8" standalone="no"?>
<!DOCTYPE svg PUBLIC "-//W3C//DTD SVG 1.1//EN"
 "http://www.w3.org/Graphics/SVG/1.1/DTD/svg11.dtd">
<!-- Generated by graphviz version 3.0.0 (20220226.1711)
 -->
<!-- Title: dependencies Pages: 1 -->
<svg width="354pt" height="312pt"
 viewBox="0.00 0.00 354.00 311.80" xmlns="http://www.w3.org/2000/svg" xmlns:xlink="http://www.w3.org/1999/xlink">
<g id="graph0" class="graph" transform="scale(1 1) rotate(0) translate(4 307.8)">
<title>dependencies</title>
<polygon fill="white" stroke="transparent" points="-4,4 -4,-307.8 350,-307.8 350,4 -4,4"/>
<text text-anchor="middle" x="173" y="-8.2" font-family="sans-serif" font-size="14.00">dependencies</text>
<g id="clust1" class="cluster">
<title>cluster_SafePaletteControlModule</title>
<polygon fill="none" stroke="black" stroke-dasharray="1,5" points="8,-32.8 8,-295.8 338,-295.8 338,-32.8 8,-32.8"/>
</g>
<g id="clust2" class="cluster">
<title>cluster_SafePaletteControlModule_declarations</title>
<polygon fill="none" stroke="black" points="71,-105.8 71,-157.8 275,-157.8 275,-105.8 71,-105.8"/>
</g>
<g id="clust3" class="cluster">
<title>cluster_SafePaletteControlModule_SafePaletteControlComponent_providers</title>
<polygon fill="none" stroke="black" points="16,-40.8 16,-92.8 330,-92.8 330,-40.8 16,-40.8"/>
</g>
<g id="clust5" class="cluster">
<title>cluster_SafePaletteControlModule_exports</title>
<polygon fill="none" stroke="black" points="70,-235.8 70,-287.8 276,-287.8 276,-235.8 70,-235.8"/>
</g>
<!-- SafePaletteControlComponent -->
<g id="node1" class="node">
<title>SafePaletteControlComponent</title>
<polygon fill="#ffffb3" stroke="black" points="266.58,-149.8 79.42,-149.8 79.42,-113.8 266.58,-113.8 266.58,-149.8"/>
<text text-anchor="middle" x="173" y="-127.6" font-family="Times,serif" font-size="14.00">SafePaletteControlComponent</text>
</g>
<!-- SafePaletteControlModule -->
<g id="node2" class="node">
<title>SafePaletteControlModule</title>
<polygon fill="#8dd3c7" stroke="black" points="255.8,-214.8 252.8,-218.8 231.8,-218.8 228.8,-214.8 90.2,-214.8 90.2,-178.8 255.8,-178.8 255.8,-214.8"/>
<text text-anchor="middle" x="173" y="-192.6" font-family="Times,serif" font-size="14.00">SafePaletteControlModule</text>
</g>
<!-- SafePaletteControlComponent&#45;&gt;SafePaletteControlModule -->
<g id="edge1" class="edge">
<title>SafePaletteControlComponent&#45;&gt;SafePaletteControlModule</title>
<path fill="none" stroke="black" d="M173,-149.91C173,-149.91 173,-168.79 173,-168.79"/>
<polygon fill="black" stroke="black" points="169.5,-168.79 173,-178.79 176.5,-168.79 169.5,-168.79"/>
</g>
<!-- SafePaletteControlComponent  -->
<g id="node4" class="node">
<title>SafePaletteControlComponent </title>
<polygon fill="#fb8072" stroke="black" points="268.08,-279.8 77.92,-279.8 77.92,-243.8 268.08,-243.8 268.08,-279.8"/>
<text text-anchor="middle" x="173" y="-257.6" font-family="Times,serif" font-size="14.00">SafePaletteControlComponent </text>
</g>
<!-- SafePaletteControlModule&#45;&gt;SafePaletteControlComponent  -->
<g id="edge3" class="edge">
<title>SafePaletteControlModule&#45;&gt;SafePaletteControlComponent </title>
<path fill="none" stroke="black" stroke-dasharray="5,2" d="M173,-214.91C173,-214.91 173,-233.79 173,-233.79"/>
<polygon fill="black" stroke="black" points="169.5,-233.79 173,-243.79 176.5,-233.79 169.5,-233.79"/>
</g>
<!-- CONTROL_VALUE_ACCESSOR -->
<g id="node3" class="node">
<title>CONTROL_VALUE_ACCESSOR</title>
<ellipse fill="#fdb462" stroke="black" cx="173" cy="-66.8" rx="148.85" ry="18"/>
<text text-anchor="middle" x="173" y="-62.6" font-family="Times,serif" font-size="14.00">CONTROL_VALUE_ACCESSOR</text>
</g>
<!-- CONTROL_VALUE_ACCESSOR&#45;&gt;SafePaletteControlComponent -->
<g id="edge2" class="edge">
<title>CONTROL_VALUE_ACCESSOR&#45;&gt;SafePaletteControlComponent</title>
<path fill="none" stroke="black" d="M173,-84.91C173,-84.91 173,-103.79 173,-103.79"/>
<polygon fill="black" stroke="black" points="169.5,-103.79 173,-113.79 176.5,-103.79 169.5,-103.79"/>
</g>
</g>
</svg>
