<?xml version="1.0" encoding="UTF-8" standalone="no"?>
<!DOCTYPE svg PUBLIC "-//W3C//DTD SVG 1.1//EN"
 "http://www.w3.org/Graphics/SVG/1.1/DTD/svg11.dtd">
<!-- Generated by graphviz version 2.47.0 (20210316.0004)
 -->
<!-- Title: dependencies Pages: 1 -->
<svg width="696pt" height="284pt"
 viewBox="0.00 0.00 696.00 284.00" xmlns="http://www.w3.org/2000/svg" xmlns:xlink="http://www.w3.org/1999/xlink">
<g id="graph0" class="graph" transform="scale(1 1) rotate(0) translate(4 280)">
<title>dependencies</title>
<polygon fill="white" stroke="transparent" points="-4,4 -4,-280 692,-280 692,4 -4,4"/>
<text text-anchor="start" x="323.01" y="-42.4" font-family="sans-serif" font-weight="bold" font-size="14.00">Legend</text>
<polygon fill="#ffffb3" stroke="transparent" points="110,-10 110,-30 130,-30 130,-10 110,-10"/>
<text text-anchor="start" x="133.63" y="-15.4" font-family="sans-serif" font-size="14.00"> &#160;Declarations</text>
<polygon fill="#8dd3c7" stroke="transparent" points="223,-10 223,-30 243,-30 243,-10 223,-10"/>
<text text-anchor="start" x="246.73" y="-15.4" font-family="sans-serif" font-size="14.00"> &#160;Module</text>
<polygon fill="#80b1d3" stroke="transparent" points="309,-10 309,-30 329,-30 329,-10 309,-10"/>
<text text-anchor="start" x="332.78" y="-15.4" font-family="sans-serif" font-size="14.00"> &#160;Bootstrap</text>
<polygon fill="#fdb462" stroke="transparent" points="406,-10 406,-30 426,-30 426,-10 406,-10"/>
<text text-anchor="start" x="429.67" y="-15.4" font-family="sans-serif" font-size="14.00"> &#160;Providers</text>
<polygon fill="#fb8072" stroke="transparent" points="502,-10 502,-30 522,-30 522,-10 502,-10"/>
<text text-anchor="start" x="525.73" y="-15.4" font-family="sans-serif" font-size="14.00"> &#160;Exports</text>
<g id="clust1" class="cluster">
<title>cluster_DashboardsModule</title>
<polygon fill="none" stroke="black" stroke-dasharray="1,5" points="8,-70 8,-268 680,-268 680,-70 8,-70"/>
</g>
<g id="clust6" class="cluster">
<title>cluster_DashboardsModule_exports</title>
<polygon fill="none" stroke="black" points="231,-208 231,-260 397,-260 397,-208 231,-208"/>
</g>
<g id="clust2" class="cluster">
<title>cluster_DashboardsModule_declarations</title>
<polygon fill="none" stroke="black" points="324,-78 324,-130 672,-130 672,-78 324,-78"/>
</g>
<g id="clust5" class="cluster">
<title>cluster_DashboardsModule_imports</title>
<polygon fill="none" stroke="black" points="16,-78 16,-130 316,-130 316,-78 16,-78"/>
</g>
<!-- AddDashboardComponent -->
<g id="node1" class="node">
<title>AddDashboardComponent</title>
<polygon fill="#ffffb3" stroke="black" points="664.08,-122 497.92,-122 497.92,-86 664.08,-86 664.08,-122"/>
<text text-anchor="middle" x="581" y="-99.8" font-family="Times,serif" font-size="14.00">AddDashboardComponent</text>
</g>
<!-- DashboardsModule -->
<g id="node3" class="node">
<title>DashboardsModule</title>
<polygon fill="#8dd3c7" stroke="black" points="376.64,-187 373.64,-191 352.64,-191 349.64,-187 251.36,-187 251.36,-151 376.64,-151 376.64,-187"/>
<text text-anchor="middle" x="314" y="-164.8" font-family="Times,serif" font-size="14.00">DashboardsModule</text>
</g>
<!-- AddDashboardComponent&#45;&gt;DashboardsModule -->
<g id="edge1" class="edge">
<title>AddDashboardComponent&#45;&gt;DashboardsModule</title>
<path fill="none" stroke="black" d="M581,-122.11C581,-141.34 581,-169 581,-169 581,-169 386.94,-169 386.94,-169"/>
<polygon fill="black" stroke="black" points="386.94,-165.5 376.94,-169 386.94,-172.5 386.94,-165.5"/>
</g>
<!-- DashboardsComponent -->
<g id="node2" class="node">
<title>DashboardsComponent</title>
<polygon fill="#ffffb3" stroke="black" points="479.92,-122 332.08,-122 332.08,-86 479.92,-86 479.92,-122"/>
<text text-anchor="middle" x="406" y="-99.8" font-family="Times,serif" font-size="14.00">DashboardsComponent</text>
</g>
<!-- DashboardsComponent&#45;&gt;DashboardsModule -->
<g id="edge2" class="edge">
<title>DashboardsComponent&#45;&gt;DashboardsModule</title>
<path fill="none" stroke="black" d="M354.55,-122.11C354.55,-122.11 354.55,-140.99 354.55,-140.99"/>
<polygon fill="black" stroke="black" points="351.05,-140.99 354.55,-150.99 358.05,-140.99 351.05,-140.99"/>
</g>
<!-- DashboardsComponent  -->
<g id="node6" class="node">
<title>DashboardsComponent </title>
<polygon fill="#fb8072" stroke="black" points="389.42,-252 238.58,-252 238.58,-216 389.42,-216 389.42,-252"/>
<text text-anchor="middle" x="314" y="-229.8" font-family="Times,serif" font-size="14.00">DashboardsComponent </text>
</g>
<!-- DashboardsModule&#45;&gt;DashboardsComponent  -->
<g id="edge5" class="edge">
<title>DashboardsModule&#45;&gt;DashboardsComponent </title>
<path fill="none" stroke="black" stroke-dasharray="5,2" d="M314,-187.11C314,-187.11 314,-205.99 314,-205.99"/>
<polygon fill="black" stroke="black" points="310.5,-205.99 314,-215.99 317.5,-205.99 310.5,-205.99"/>
</g>
<!-- DashboardsRoutingModule -->
<g id="node4" class="node">
<title>DashboardsRoutingModule</title>
<polygon fill="#8dd3c7" stroke="black" points="308.25,-122 305.25,-126 284.25,-126 281.25,-122 137.75,-122 137.75,-86 308.25,-86 308.25,-122"/>
<text text-anchor="middle" x="223" y="-99.8" font-family="Times,serif" font-size="14.00">DashboardsRoutingModule</text>
</g>
<!-- DashboardsRoutingModule&#45;&gt;DashboardsModule -->
<g id="edge3" class="edge">
<title>DashboardsRoutingModule&#45;&gt;DashboardsModule</title>
<path fill="none" stroke="black" d="M279.78,-122.11C279.78,-122.11 279.78,-140.99 279.78,-140.99"/>
<polygon fill="black" stroke="black" points="276.28,-140.99 279.78,-150.99 283.28,-140.99 276.28,-140.99"/>
</g>
<!-- FormsModule -->
<g id="node5" class="node">
<title>FormsModule</title>
<polygon fill="#8dd3c7" stroke="black" points="119.83,-122 116.83,-126 95.83,-126 92.83,-122 24.17,-122 24.17,-86 119.83,-86 119.83,-122"/>
<text text-anchor="middle" x="72" y="-99.8" font-family="Times,serif" font-size="14.00">FormsModule</text>
</g>
<!-- FormsModule&#45;&gt;DashboardsModule -->
<g id="edge4" class="edge">
<title>FormsModule&#45;&gt;DashboardsModule</title>
<path fill="none" stroke="black" d="M72,-122.11C72,-141.34 72,-169 72,-169 72,-169 241.05,-169 241.05,-169"/>
<polygon fill="black" stroke="black" points="241.05,-172.5 251.05,-169 241.05,-165.5 241.05,-172.5"/>
</g>
</g>
</svg>
