<?xml version="1.0" encoding="UTF-8" standalone="no"?>
<!DOCTYPE svg PUBLIC "-//W3C//DTD SVG 1.1//EN"
 "http://www.w3.org/Graphics/SVG/1.1/DTD/svg11.dtd">
<!-- Generated by graphviz version 3.0.0 (20220226.1711)
 -->
<!-- Title: dependencies Pages: 1 -->
<svg width="246pt" height="247pt"
 viewBox="0.00 0.00 246.00 246.80" xmlns="http://www.w3.org/2000/svg" xmlns:xlink="http://www.w3.org/1999/xlink">
<g id="graph0" class="graph" transform="scale(1 1) rotate(0) translate(4 242.8)">
<title>dependencies</title>
<polygon fill="white" stroke="transparent" points="-4,4 -4,-242.8 242,-242.8 242,4 -4,4"/>
<text text-anchor="middle" x="119" y="-8.2" font-family="sans-serif" font-size="14.00">dependencies</text>
<g id="clust1" class="cluster">
<title>cluster_SafeEditorSettingsModule</title>
<polygon fill="none" stroke="black" stroke-dasharray="1,5" points="8,-32.8 8,-230.8 230,-230.8 230,-32.8 8,-32.8"/>
</g>
<g id="clust5" class="cluster">
<title>cluster_SafeEditorSettingsModule_exports</title>
<polygon fill="none" stroke="black" points="16,-170.8 16,-222.8 222,-222.8 222,-170.8 16,-170.8"/>
</g>
<g id="clust2" class="cluster">
<title>cluster_SafeEditorSettingsModule_declarations</title>
<polygon fill="none" stroke="black" points="18,-40.8 18,-92.8 220,-92.8 220,-40.8 18,-40.8"/>
</g>
<!-- SafeEditorSettingsComponent -->
<g id="node1" class="node">
<title>SafeEditorSettingsComponent</title>
<polygon fill="#ffffb3" stroke="black" points="212.32,-84.8 25.68,-84.8 25.68,-48.8 212.32,-48.8 212.32,-84.8"/>
<text text-anchor="middle" x="119" y="-62.6" font-family="Times,serif" font-size="14.00">SafeEditorSettingsComponent</text>
</g>
<!-- SafeEditorSettingsModule -->
<g id="node2" class="node">
<title>SafeEditorSettingsModule</title>
<polygon fill="#8dd3c7" stroke="black" points="201.04,-149.8 198.04,-153.8 177.04,-153.8 174.04,-149.8 36.96,-149.8 36.96,-113.8 201.04,-113.8 201.04,-149.8"/>
<text text-anchor="middle" x="119" y="-127.6" font-family="Times,serif" font-size="14.00">SafeEditorSettingsModule</text>
</g>
<!-- SafeEditorSettingsComponent&#45;&gt;SafeEditorSettingsModule -->
<g id="edge1" class="edge">
<title>SafeEditorSettingsComponent&#45;&gt;SafeEditorSettingsModule</title>
<path fill="none" stroke="black" d="M119,-84.91C119,-84.91 119,-103.79 119,-103.79"/>
<polygon fill="black" stroke="black" points="115.5,-103.79 119,-113.79 122.5,-103.79 115.5,-103.79"/>
</g>
<!-- SafeEditorSettingsComponent  -->
<g id="node3" class="node">
<title>SafeEditorSettingsComponent </title>
<polygon fill="#fb8072" stroke="black" points="213.82,-214.8 24.18,-214.8 24.18,-178.8 213.82,-178.8 213.82,-214.8"/>
<text text-anchor="middle" x="119" y="-192.6" font-family="Times,serif" font-size="14.00">SafeEditorSettingsComponent </text>
</g>
<!-- SafeEditorSettingsModule&#45;&gt;SafeEditorSettingsComponent  -->
<g id="edge2" class="edge">
<title>SafeEditorSettingsModule&#45;&gt;SafeEditorSettingsComponent </title>
<path fill="none" stroke="black" stroke-dasharray="5,2" d="M119,-149.91C119,-149.91 119,-168.79 119,-168.79"/>
<polygon fill="black" stroke="black" points="115.5,-168.79 119,-178.79 122.5,-168.79 115.5,-168.79"/>
</g>
</g>
</svg>
