<?xml version="1.0" encoding="UTF-8" standalone="no"?>
<!DOCTYPE svg PUBLIC "-//W3C//DTD SVG 1.1//EN"
 "http://www.w3.org/Graphics/SVG/1.1/DTD/svg11.dtd">
<!-- Generated by graphviz version 3.0.0 (20220226.1711)
 -->
<!-- Title: dependencies Pages: 1 -->
<svg width="927pt" height="247pt"
 viewBox="0.00 0.00 927.00 246.80" xmlns="http://www.w3.org/2000/svg" xmlns:xlink="http://www.w3.org/1999/xlink">
<g id="graph0" class="graph" transform="scale(1 1) rotate(0) translate(4 242.8)">
<title>dependencies</title>
<polygon fill="white" stroke="transparent" points="-4,4 -4,-242.8 923,-242.8 923,4 -4,4"/>
<text text-anchor="middle" x="459.5" y="-8.2" font-family="sans-serif" font-size="14.00">dependencies</text>
<g id="clust1" class="cluster">
<title>cluster_UserRolesModule</title>
<polygon fill="none" stroke="black" stroke-dasharray="1,5" points="8,-32.8 8,-230.8 911,-230.8 911,-32.8 8,-32.8"/>
</g>
<g id="clust7" class="cluster">
<title>cluster_UserRolesModule_imports</title>
<polygon fill="none" stroke="black" points="715,-40.8 715,-92.8 903,-92.8 903,-40.8 715,-40.8"/>
</g>
<g id="clust2" class="cluster">
<title>cluster_UserRolesModule_declarations</title>
<polygon fill="none" stroke="black" points="16,-40.8 16,-92.8 707,-92.8 707,-40.8 16,-40.8"/>
</g>
<g id="clust8" class="cluster">
<title>cluster_UserRolesModule_exports</title>
<polygon fill="none" stroke="black" points="353,-170.8 353,-222.8 513,-222.8 513,-170.8 353,-170.8"/>
</g>
<!-- UserAppRolesComponent -->
<g id="node1" class="node">
<title>UserAppRolesComponent</title>
<polygon fill="#ffffb3" stroke="black" points="698.77,-84.8 535.23,-84.8 535.23,-48.8 698.77,-48.8 698.77,-84.8"/>
<text text-anchor="middle" x="617" y="-62.6" font-family="Times,serif" font-size="14.00">UserAppRolesComponent</text>
</g>
<!-- UserRolesModule -->
<g id="node5" class="node">
<title>UserRolesModule</title>
<polygon fill="#8dd3c7" stroke="black" points="491.88,-149.8 488.88,-153.8 467.88,-153.8 464.88,-149.8 374.12,-149.8 374.12,-113.8 491.88,-113.8 491.88,-149.8"/>
<text text-anchor="middle" x="433" y="-127.6" font-family="Times,serif" font-size="14.00">UserRolesModule</text>
</g>
<!-- UserAppRolesComponent&#45;&gt;UserRolesModule -->
<g id="edge1" class="edge">
<title>UserAppRolesComponent&#45;&gt;UserRolesModule</title>
<path fill="none" stroke="black" d="M617,-84.82C617,-102.17 617,-125.8 617,-125.8 617,-125.8 501.98,-125.8 501.98,-125.8"/>
<polygon fill="black" stroke="black" points="501.98,-122.3 491.98,-125.8 501.98,-129.3 501.98,-122.3"/>
</g>
<!-- UserBackRolesComponent -->
<g id="node2" class="node">
<title>UserBackRolesComponent</title>
<polygon fill="#ffffb3" stroke="black" points="517.42,-84.8 348.58,-84.8 348.58,-48.8 517.42,-48.8 517.42,-84.8"/>
<text text-anchor="middle" x="433" y="-62.6" font-family="Times,serif" font-size="14.00">UserBackRolesComponent</text>
</g>
<!-- UserBackRolesComponent&#45;&gt;UserRolesModule -->
<g id="edge2" class="edge">
<title>UserBackRolesComponent&#45;&gt;UserRolesModule</title>
<path fill="none" stroke="black" d="M433,-84.91C433,-84.91 433,-103.79 433,-103.79"/>
<polygon fill="black" stroke="black" points="429.5,-103.79 433,-113.79 436.5,-103.79 429.5,-103.79"/>
</g>
<!-- UserGroupsComponent -->
<g id="node3" class="node">
<title>UserGroupsComponent</title>
<polygon fill="#ffffb3" stroke="black" points="330.49,-84.8 181.51,-84.8 181.51,-48.8 330.49,-48.8 330.49,-84.8"/>
<text text-anchor="middle" x="256" y="-62.6" font-family="Times,serif" font-size="14.00">UserGroupsComponent</text>
</g>
<!-- UserGroupsComponent&#45;&gt;UserRolesModule -->
<g id="edge3" class="edge">
<title>UserGroupsComponent&#45;&gt;UserRolesModule</title>
<path fill="none" stroke="black" d="M256,-84.82C256,-102.17 256,-125.8 256,-125.8 256,-125.8 364.06,-125.8 364.06,-125.8"/>
<polygon fill="black" stroke="black" points="364.06,-129.3 374.06,-125.8 364.06,-122.3 364.06,-129.3"/>
</g>
<!-- UserRolesComponent -->
<g id="node4" class="node">
<title>UserRolesComponent</title>
<polygon fill="#ffffb3" stroke="black" points="163.66,-84.8 24.34,-84.8 24.34,-48.8 163.66,-48.8 163.66,-84.8"/>
<text text-anchor="middle" x="94" y="-62.6" font-family="Times,serif" font-size="14.00">UserRolesComponent</text>
</g>
<!-- UserRolesComponent&#45;&gt;UserRolesModule -->
<g id="edge4" class="edge">
<title>UserRolesComponent&#45;&gt;UserRolesModule</title>
<path fill="none" stroke="black" d="M94,-85.08C94,-106.12 94,-137.8 94,-137.8 94,-137.8 363.95,-137.8 363.95,-137.8"/>
<polygon fill="black" stroke="black" points="363.95,-141.3 373.95,-137.8 363.95,-134.3 363.95,-141.3"/>
</g>
<!-- UserRolesComponent  -->
<g id="node7" class="node">
<title>UserRolesComponent </title>
<polygon fill="#fb8072" stroke="black" points="504.66,-214.8 361.34,-214.8 361.34,-178.8 504.66,-178.8 504.66,-214.8"/>
<text text-anchor="middle" x="433" y="-192.6" font-family="Times,serif" font-size="14.00">UserRolesComponent </text>
</g>
<!-- UserRolesModule&#45;&gt;UserRolesComponent  -->
<g id="edge6" class="edge">
<title>UserRolesModule&#45;&gt;UserRolesComponent </title>
<path fill="none" stroke="black" stroke-dasharray="5,2" d="M433,-149.91C433,-149.91 433,-168.79 433,-168.79"/>
<polygon fill="black" stroke="black" points="429.5,-168.79 433,-178.79 436.5,-168.79 429.5,-168.79"/>
</g>
<!-- SafeGraphQLSelectModule -->
<g id="node6" class="node">
<title>SafeGraphQLSelectModule</title>
<polygon fill="#8dd3c7" stroke="black" points="895.28,-84.8 892.28,-88.8 871.28,-88.8 868.28,-84.8 722.72,-84.8 722.72,-48.8 895.28,-48.8 895.28,-84.8"/>
<text text-anchor="middle" x="809" y="-62.6" font-family="Times,serif" font-size="14.00">SafeGraphQLSelectModule</text>
</g>
<!-- SafeGraphQLSelectModule&#45;&gt;UserRolesModule -->
<g id="edge5" class="edge">
<title>SafeGraphQLSelectModule&#45;&gt;UserRolesModule</title>
<path fill="none" stroke="black" d="M809,-85.08C809,-106.12 809,-137.8 809,-137.8 809,-137.8 502.16,-137.8 502.16,-137.8"/>
<polygon fill="black" stroke="black" points="502.16,-134.3 492.16,-137.8 502.16,-141.3 502.16,-134.3"/>
</g>
</g>
</svg>
