<?xml version="1.0" encoding="UTF-8" standalone="no"?>
<!DOCTYPE svg PUBLIC "-//W3C//DTD SVG 1.1//EN"
 "http://www.w3.org/Graphics/SVG/1.1/DTD/svg11.dtd">
<!-- Generated by graphviz version 3.0.0 (20220226.1711)
 -->
<!-- Title: dependencies Pages: 1 -->
<svg width="480pt" height="247pt"
 viewBox="0.00 0.00 480.00 246.80" xmlns="http://www.w3.org/2000/svg" xmlns:xlink="http://www.w3.org/1999/xlink">
<g id="graph0" class="graph" transform="scale(1 1) rotate(0) translate(4 242.8)">
<title>dependencies</title>
<polygon fill="white" stroke="transparent" points="-4,4 -4,-242.8 476,-242.8 476,4 -4,4"/>
<text text-anchor="middle" x="236" y="-8.2" font-family="sans-serif" font-size="14.00">dependencies</text>
<g id="clust1" class="cluster">
<title>cluster_SafeButtonModule</title>
<polygon fill="none" stroke="black" stroke-dasharray="1,5" points="8,-32.8 8,-230.8 464,-230.8 464,-32.8 8,-32.8"/>
</g>
<g id="clust5" class="cluster">
<title>cluster_SafeButtonModule_exports</title>
<polygon fill="none" stroke="black" points="174,-170.8 174,-222.8 338,-222.8 338,-170.8 174,-170.8"/>
</g>
<g id="clust4" class="cluster">
<title>cluster_SafeButtonModule_imports</title>
<polygon fill="none" stroke="black" points="184,-40.8 184,-92.8 456,-92.8 456,-40.8 184,-40.8"/>
</g>
<g id="clust2" class="cluster">
<title>cluster_SafeButtonModule_declarations</title>
<polygon fill="none" stroke="black" points="16,-40.8 16,-92.8 176,-92.8 176,-40.8 16,-40.8"/>
</g>
<!-- SafeButtonComponent -->
<g id="node1" class="node">
<title>SafeButtonComponent</title>
<polygon fill="#ffffb3" stroke="black" points="168.32,-84.8 23.68,-84.8 23.68,-48.8 168.32,-48.8 168.32,-84.8"/>
<text text-anchor="middle" x="96" y="-62.6" font-family="Times,serif" font-size="14.00">SafeButtonComponent</text>
</g>
<!-- SafeButtonModule -->
<g id="node2" class="node">
<title>SafeButtonModule</title>
<polygon fill="#8dd3c7" stroke="black" points="317.05,-149.8 314.05,-153.8 293.05,-153.8 290.05,-149.8 194.95,-149.8 194.95,-113.8 317.05,-113.8 317.05,-149.8"/>
<text text-anchor="middle" x="256" y="-127.6" font-family="Times,serif" font-size="14.00">SafeButtonModule</text>
</g>
<!-- SafeButtonComponent&#45;&gt;SafeButtonModule -->
<g id="edge1" class="edge">
<title>SafeButtonComponent&#45;&gt;SafeButtonModule</title>
<path fill="none" stroke="black" d="M96,-84.91C96,-104.14 96,-131.8 96,-131.8 96,-131.8 184.6,-131.8 184.6,-131.8"/>
<polygon fill="black" stroke="black" points="184.6,-135.3 194.6,-131.8 184.6,-128.3 184.6,-135.3"/>
</g>
<!-- SafeButtonComponent  -->
<g id="node5" class="node">
<title>SafeButtonComponent </title>
<polygon fill="#fb8072" stroke="black" points="329.82,-214.8 182.18,-214.8 182.18,-178.8 329.82,-178.8 329.82,-214.8"/>
<text text-anchor="middle" x="256" y="-192.6" font-family="Times,serif" font-size="14.00">SafeButtonComponent </text>
</g>
<!-- SafeButtonModule&#45;&gt;SafeButtonComponent  -->
<g id="edge4" class="edge">
<title>SafeButtonModule&#45;&gt;SafeButtonComponent </title>
<path fill="none" stroke="black" stroke-dasharray="5,2" d="M256,-149.91C256,-149.91 256,-168.79 256,-168.79"/>
<polygon fill="black" stroke="black" points="252.5,-168.79 256,-178.79 259.5,-168.79 252.5,-168.79"/>
</g>
<!-- SafeIconModule -->
<g id="node3" class="node">
<title>SafeIconModule</title>
<polygon fill="#8dd3c7" stroke="black" points="447.8,-84.8 444.8,-88.8 423.8,-88.8 420.8,-84.8 338.2,-84.8 338.2,-48.8 447.8,-48.8 447.8,-84.8"/>
<text text-anchor="middle" x="393" y="-62.6" font-family="Times,serif" font-size="14.00">SafeIconModule</text>
</g>
<!-- SafeIconModule&#45;&gt;SafeButtonModule -->
<g id="edge2" class="edge">
<title>SafeIconModule&#45;&gt;SafeButtonModule</title>
<path fill="none" stroke="black" d="M393,-84.91C393,-104.14 393,-131.8 393,-131.8 393,-131.8 327.29,-131.8 327.29,-131.8"/>
<polygon fill="black" stroke="black" points="327.29,-128.3 317.29,-131.8 327.29,-135.3 327.29,-128.3"/>
</g>
<!-- SafeSpinnerModule -->
<g id="node4" class="node">
<title>SafeSpinnerModule</title>
<polygon fill="#8dd3c7" stroke="black" points="319.98,-84.8 316.98,-88.8 295.98,-88.8 292.98,-84.8 192.02,-84.8 192.02,-48.8 319.98,-48.8 319.98,-84.8"/>
<text text-anchor="middle" x="256" y="-62.6" font-family="Times,serif" font-size="14.00">SafeSpinnerModule</text>
</g>
<!-- SafeSpinnerModule&#45;&gt;SafeButtonModule -->
<g id="edge3" class="edge">
<title>SafeSpinnerModule&#45;&gt;SafeButtonModule</title>
<path fill="none" stroke="black" d="M256,-84.91C256,-84.91 256,-103.79 256,-103.79"/>
<polygon fill="black" stroke="black" points="252.5,-103.79 256,-113.79 259.5,-103.79 252.5,-103.79"/>
</g>
</g>
</svg>
