<?xml version="1.0" encoding="UTF-8" standalone="no"?>
<!DOCTYPE svg PUBLIC "-//W3C//DTD SVG 1.1//EN"
 "http://www.w3.org/Graphics/SVG/1.1/DTD/svg11.dtd">
<!-- Generated by graphviz version 3.0.0 (20220226.1711)
 -->
<!-- Title: dependencies Pages: 1 -->
<svg width="1465pt" height="247pt"
 viewBox="0.00 0.00 1465.00 246.80" xmlns="http://www.w3.org/2000/svg" xmlns:xlink="http://www.w3.org/1999/xlink">
<g id="graph0" class="graph" transform="scale(1 1) rotate(0) translate(4 242.8)">
<title>dependencies</title>
<polygon fill="white" stroke="transparent" points="-4,4 -4,-242.8 1461,-242.8 1461,4 -4,4"/>
<text text-anchor="middle" x="728.5" y="-8.2" font-family="sans-serif" font-size="14.00">dependencies</text>
<g id="clust1" class="cluster">
<title>cluster_SafePipelineModule</title>
<polygon fill="none" stroke="black" stroke-dasharray="1,5" points="8,-32.8 8,-230.8 1449,-230.8 1449,-32.8 8,-32.8"/>
</g>
<g id="clust2" class="cluster">
<title>cluster_SafePipelineModule_declarations</title>
<polygon fill="none" stroke="black" points="469,-40.8 469,-92.8 1441,-92.8 1441,-40.8 469,-40.8"/>
</g>
<g id="clust8" class="cluster">
<title>cluster_SafePipelineModule_imports</title>
<polygon fill="none" stroke="black" points="16,-40.8 16,-92.8 461,-92.8 461,-40.8 16,-40.8"/>
</g>
<g id="clust9" class="cluster">
<title>cluster_SafePipelineModule_exports</title>
<polygon fill="none" stroke="black" points="168,-170.8 168,-222.8 1158,-222.8 1158,-170.8 168,-170.8"/>
</g>
<!-- SafeAddFieldStageComponent -->
<g id="node1" class="node">
<title>SafeAddFieldStageComponent</title>
<polygon fill="#ffffb3" stroke="black" points="1433.2,-84.8 1242.8,-84.8 1242.8,-48.8 1433.2,-48.8 1433.2,-84.8"/>
<text text-anchor="middle" x="1338" y="-62.6" font-family="Times,serif" font-size="14.00">SafeAddFieldStageComponent</text>
</g>
<!-- SafePipelineModule -->
<g id="node6" class="node">
<title>SafePipelineModule</title>
<polygon fill="#8dd3c7" stroke="black" points="708.31,-149.8 705.31,-153.8 684.31,-153.8 681.31,-149.8 577.69,-149.8 577.69,-113.8 708.31,-113.8 708.31,-149.8"/>
<text text-anchor="middle" x="643" y="-127.6" font-family="Times,serif" font-size="14.00">SafePipelineModule</text>
</g>
<!-- SafeAddFieldStageComponent&#45;&gt;SafePipelineModule -->
<g id="edge1" class="edge">
<title>SafeAddFieldStageComponent&#45;&gt;SafePipelineModule</title>
<path fill="none" stroke="black" d="M1338,-84.91C1338,-104.14 1338,-131.8 1338,-131.8 1338,-131.8 718.38,-131.8 718.38,-131.8"/>
<polygon fill="black" stroke="black" points="718.38,-128.3 708.38,-131.8 718.38,-135.3 718.38,-128.3"/>
</g>
<!-- SafeExpressionsComponent -->
<g id="node2" class="node">
<title>SafeExpressionsComponent</title>
<polygon fill="#ffffb3" stroke="black" points="1224.87,-84.8 1051.13,-84.8 1051.13,-48.8 1224.87,-48.8 1224.87,-84.8"/>
<text text-anchor="middle" x="1138" y="-62.6" font-family="Times,serif" font-size="14.00">SafeExpressionsComponent</text>
</g>
<!-- SafeExpressionsComponent&#45;&gt;SafePipelineModule -->
<g id="edge2" class="edge">
<title>SafeExpressionsComponent&#45;&gt;SafePipelineModule</title>
<path fill="none" stroke="black" d="M1100.46,-84.82C1100.46,-102.17 1100.46,-125.8 1100.46,-125.8 1100.46,-125.8 718.54,-125.8 718.54,-125.8"/>
<polygon fill="black" stroke="black" points="718.54,-122.3 708.54,-125.8 718.54,-129.3 718.54,-122.3"/>
</g>
<!-- SafeFieldDropdownComponent -->
<g id="node3" class="node">
<title>SafeFieldDropdownComponent</title>
<polygon fill="#ffffb3" stroke="black" points="1033.37,-84.8 838.63,-84.8 838.63,-48.8 1033.37,-48.8 1033.37,-84.8"/>
<text text-anchor="middle" x="936" y="-62.6" font-family="Times,serif" font-size="14.00">SafeFieldDropdownComponent</text>
</g>
<!-- SafeFieldDropdownComponent&#45;&gt;SafePipelineModule -->
<g id="edge3" class="edge">
<title>SafeFieldDropdownComponent&#45;&gt;SafePipelineModule</title>
<path fill="none" stroke="black" d="M888.12,-85.04C888.12,-100.37 888.12,-119.8 888.12,-119.8 888.12,-119.8 718.37,-119.8 718.37,-119.8"/>
<polygon fill="black" stroke="black" points="718.37,-116.3 708.37,-119.8 718.37,-123.3 718.37,-116.3"/>
</g>
<!-- SafeGroupStageComponent -->
<g id="node4" class="node">
<title>SafeGroupStageComponent</title>
<polygon fill="#ffffb3" stroke="black" points="820.58,-84.8 647.42,-84.8 647.42,-48.8 820.58,-48.8 820.58,-84.8"/>
<text text-anchor="middle" x="734" y="-62.6" font-family="Times,serif" font-size="14.00">SafeGroupStageComponent</text>
</g>
<!-- SafeGroupStageComponent&#45;&gt;SafePipelineModule -->
<g id="edge4" class="edge">
<title>SafeGroupStageComponent&#45;&gt;SafePipelineModule</title>
<path fill="none" stroke="black" d="M677.81,-84.91C677.81,-84.91 677.81,-103.79 677.81,-103.79"/>
<polygon fill="black" stroke="black" points="674.31,-103.79 677.81,-113.79 681.31,-103.79 674.31,-103.79"/>
</g>
<!-- SafePipelineComponent -->
<g id="node5" class="node">
<title>SafePipelineComponent</title>
<polygon fill="#ffffb3" stroke="black" points="629.09,-84.8 476.91,-84.8 476.91,-48.8 629.09,-48.8 629.09,-84.8"/>
<text text-anchor="middle" x="553" y="-62.6" font-family="Times,serif" font-size="14.00">SafePipelineComponent</text>
</g>
<!-- SafePipelineComponent&#45;&gt;SafePipelineModule -->
<g id="edge5" class="edge">
<title>SafePipelineComponent&#45;&gt;SafePipelineModule</title>
<path fill="none" stroke="black" d="M603.44,-84.91C603.44,-84.91 603.44,-103.79 603.44,-103.79"/>
<polygon fill="black" stroke="black" points="599.94,-103.79 603.44,-113.79 606.94,-103.79 599.94,-103.79"/>
</g>
<!-- SafeAddFieldStageComponent  -->
<g id="node10" class="node">
<title>SafeAddFieldStageComponent </title>
<polygon fill="#fb8072" stroke="black" points="1149.7,-214.8 956.3,-214.8 956.3,-178.8 1149.7,-178.8 1149.7,-214.8"/>
<text text-anchor="middle" x="1053" y="-192.6" font-family="Times,serif" font-size="14.00">SafeAddFieldStageComponent </text>
</g>
<!-- SafePipelineModule&#45;&gt;SafeAddFieldStageComponent  -->
<g id="edge9" class="edge">
<title>SafePipelineModule&#45;&gt;SafeAddFieldStageComponent </title>
<path fill="none" stroke="black" stroke-dasharray="5,2" d="M708.34,-137.8C810.08,-137.8 994.79,-137.8 994.79,-137.8 994.79,-137.8 994.79,-168.78 994.79,-168.78"/>
<polygon fill="black" stroke="black" points="991.29,-168.78 994.79,-178.78 998.29,-168.78 991.29,-168.78"/>
</g>
<!-- SafeExpressionsComponent  -->
<g id="node11" class="node">
<title>SafeExpressionsComponent </title>
<polygon fill="#fb8072" stroke="black" points="937.87,-214.8 760.13,-214.8 760.13,-178.8 937.87,-178.8 937.87,-214.8"/>
<text text-anchor="middle" x="849" y="-192.6" font-family="Times,serif" font-size="14.00">SafeExpressionsComponent </text>
</g>
<!-- SafePipelineModule&#45;&gt;SafeExpressionsComponent  -->
<g id="edge10" class="edge">
<title>SafePipelineModule&#45;&gt;SafeExpressionsComponent </title>
<path fill="none" stroke="black" stroke-dasharray="5,2" d="M708.52,-143.8C747.9,-143.8 790.43,-143.8 790.43,-143.8 790.43,-143.8 790.43,-168.56 790.43,-168.56"/>
<polygon fill="black" stroke="black" points="786.93,-168.56 790.43,-178.56 793.93,-168.56 786.93,-168.56"/>
</g>
<!-- SafeFieldDropdownComponent  -->
<g id="node12" class="node">
<title>SafeFieldDropdownComponent </title>
<polygon fill="#fb8072" stroke="black" points="742.37,-214.8 543.63,-214.8 543.63,-178.8 742.37,-178.8 742.37,-214.8"/>
<text text-anchor="middle" x="643" y="-192.6" font-family="Times,serif" font-size="14.00">SafeFieldDropdownComponent </text>
</g>
<!-- SafePipelineModule&#45;&gt;SafeFieldDropdownComponent  -->
<g id="edge11" class="edge">
<title>SafePipelineModule&#45;&gt;SafeFieldDropdownComponent </title>
<path fill="none" stroke="black" stroke-dasharray="5,2" d="M643,-149.91C643,-149.91 643,-168.79 643,-168.79"/>
<polygon fill="black" stroke="black" points="639.5,-168.79 643,-178.79 646.5,-168.79 639.5,-168.79"/>
</g>
<!-- SafeGroupStageComponent  -->
<g id="node13" class="node">
<title>SafeGroupStageComponent </title>
<polygon fill="#fb8072" stroke="black" points="526.08,-214.8 349.92,-214.8 349.92,-178.8 526.08,-178.8 526.08,-214.8"/>
<text text-anchor="middle" x="438" y="-192.6" font-family="Times,serif" font-size="14.00">SafeGroupStageComponent </text>
</g>
<!-- SafePipelineModule&#45;&gt;SafeGroupStageComponent  -->
<g id="edge12" class="edge">
<title>SafePipelineModule&#45;&gt;SafeGroupStageComponent </title>
<path fill="none" stroke="black" stroke-dasharray="5,2" d="M577.69,-143.8C540.65,-143.8 501.62,-143.8 501.62,-143.8 501.62,-143.8 501.62,-168.56 501.62,-168.56"/>
<polygon fill="black" stroke="black" points="498.12,-168.56 501.62,-178.56 505.12,-168.56 498.12,-168.56"/>
</g>
<!-- SafePipelineComponent  -->
<g id="node14" class="node">
<title>SafePipelineComponent </title>
<polygon fill="#fb8072" stroke="black" points="331.59,-214.8 176.41,-214.8 176.41,-178.8 331.59,-178.8 331.59,-214.8"/>
<text text-anchor="middle" x="254" y="-192.6" font-family="Times,serif" font-size="14.00">SafePipelineComponent </text>
</g>
<!-- SafePipelineModule&#45;&gt;SafePipelineComponent  -->
<g id="edge13" class="edge">
<title>SafePipelineModule&#45;&gt;SafePipelineComponent </title>
<path fill="none" stroke="black" stroke-dasharray="5,2" d="M577.59,-137.8C483.64,-137.8 321.69,-137.8 321.69,-137.8 321.69,-137.8 321.69,-168.78 321.69,-168.78"/>
<polygon fill="black" stroke="black" points="318.19,-168.78 321.69,-178.78 325.19,-168.78 318.19,-168.78"/>
</g>
<!-- SafeButtonModule -->
<g id="node7" class="node">
<title>SafeButtonModule</title>
<polygon fill="#8dd3c7" stroke="black" points="453.05,-84.8 450.05,-88.8 429.05,-88.8 426.05,-84.8 330.95,-84.8 330.95,-48.8 453.05,-48.8 453.05,-84.8"/>
<text text-anchor="middle" x="392" y="-62.6" font-family="Times,serif" font-size="14.00">SafeButtonModule</text>
</g>
<!-- SafeButtonModule&#45;&gt;SafePipelineModule -->
<g id="edge6" class="edge">
<title>SafeButtonModule&#45;&gt;SafePipelineModule</title>
<path fill="none" stroke="black" d="M401.49,-85.04C401.49,-100.37 401.49,-119.8 401.49,-119.8 401.49,-119.8 567.64,-119.8 567.64,-119.8"/>
<polygon fill="black" stroke="black" points="567.64,-123.3 577.64,-119.8 567.64,-116.3 567.64,-123.3"/>
</g>
<!-- SafeIconModule -->
<g id="node8" class="node">
<title>SafeIconModule</title>
<polygon fill="#8dd3c7" stroke="black" points="312.8,-84.8 309.8,-88.8 288.8,-88.8 285.8,-84.8 203.2,-84.8 203.2,-48.8 312.8,-48.8 312.8,-84.8"/>
<text text-anchor="middle" x="258" y="-62.6" font-family="Times,serif" font-size="14.00">SafeIconModule</text>
</g>
<!-- SafeIconModule&#45;&gt;SafePipelineModule -->
<g id="edge7" class="edge">
<title>SafeIconModule&#45;&gt;SafePipelineModule</title>
<path fill="none" stroke="black" d="M258,-84.82C258,-102.17 258,-125.8 258,-125.8 258,-125.8 567.69,-125.8 567.69,-125.8"/>
<polygon fill="black" stroke="black" points="567.69,-129.3 577.69,-125.8 567.69,-122.3 567.69,-129.3"/>
</g>
<!-- SafeQueryBuilderModule -->
<g id="node9" class="node">
<title>SafeQueryBuilderModule</title>
<polygon fill="#8dd3c7" stroke="black" points="185.91,-84.8 182.91,-88.8 161.91,-88.8 158.91,-84.8 24.09,-84.8 24.09,-48.8 185.91,-48.8 185.91,-84.8"/>
<text text-anchor="middle" x="105" y="-62.6" font-family="Times,serif" font-size="14.00">SafeQueryBuilderModule</text>
</g>
<!-- SafeQueryBuilderModule&#45;&gt;SafePipelineModule -->
<g id="edge8" class="edge">
<title>SafeQueryBuilderModule&#45;&gt;SafePipelineModule</title>
<path fill="none" stroke="black" d="M180.95,-84.91C180.95,-104.14 180.95,-131.8 180.95,-131.8 180.95,-131.8 567.78,-131.8 567.78,-131.8"/>
<polygon fill="black" stroke="black" points="567.78,-135.3 577.78,-131.8 567.78,-128.3 567.78,-135.3"/>
</g>
</g>
</svg>
