<?xml version="1.0" encoding="UTF-8" standalone="no"?>
<!DOCTYPE svg PUBLIC "-//W3C//DTD SVG 1.1//EN"
 "http://www.w3.org/Graphics/SVG/1.1/DTD/svg11.dtd">
<!-- Generated by graphviz version 3.0.0 (20220226.1711)
 -->
<!-- Title: dependencies Pages: 1 -->
<svg width="1465pt" height="247pt"
 viewBox="0.00 0.00 1465.00 246.80" xmlns="http://www.w3.org/2000/svg" xmlns:xlink="http://www.w3.org/1999/xlink">
<g id="graph0" class="graph" transform="scale(1 1) rotate(0) translate(4 242.8)">
<title>dependencies</title>
<polygon fill="white" stroke="transparent" points="-4,4 -4,-242.8 1461,-242.8 1461,4 -4,4"/>
<text text-anchor="middle" x="728.5" y="-8.2" font-family="sans-serif" font-size="14.00">dependencies</text>
<g id="clust1" class="cluster">
<title>cluster_SafePipelineModule</title>
<polygon fill="none" stroke="black" stroke-dasharray="1,5" points="8,-32.8 8,-230.8 1449,-230.8 1449,-32.8 8,-32.8"/>
</g>
<g id="clust8" class="cluster">
<title>cluster_SafePipelineModule_imports</title>
<polygon fill="none" stroke="black" points="996,-40.8 996,-92.8 1441,-92.8 1441,-40.8 996,-40.8"/>
</g>
<g id="clust9" class="cluster">
<title>cluster_SafePipelineModule_exports</title>
<polygon fill="none" stroke="black" points="310,-170.8 310,-222.8 1300,-222.8 1300,-170.8 310,-170.8"/>
</g>
<g id="clust2" class="cluster">
<title>cluster_SafePipelineModule_declarations</title>
<polygon fill="none" stroke="black" points="16,-40.8 16,-92.8 988,-92.8 988,-40.8 16,-40.8"/>
</g>
<!-- SafeAddFieldStageComponent -->
<g id="node1" class="node">
<title>SafeAddFieldStageComponent</title>
<polygon fill="#ffffb3" stroke="black" points="980.2,-84.8 789.8,-84.8 789.8,-48.8 980.2,-48.8 980.2,-84.8"/>
<text text-anchor="middle" x="885" y="-62.6" font-family="Times,serif" font-size="14.00">SafeAddFieldStageComponent</text>
</g>
<!-- SafePipelineModule -->
<g id="node6" class="node">
<title>SafePipelineModule</title>
<polygon fill="#8dd3c7" stroke="black" points="850.31,-149.8 847.31,-153.8 826.31,-153.8 823.31,-149.8 719.69,-149.8 719.69,-113.8 850.31,-113.8 850.31,-149.8"/>
<text text-anchor="middle" x="785" y="-127.6" font-family="Times,serif" font-size="14.00">SafePipelineModule</text>
</g>
<!-- SafeAddFieldStageComponent&#45;&gt;SafePipelineModule -->
<g id="edge1" class="edge">
<title>SafeAddFieldStageComponent&#45;&gt;SafePipelineModule</title>
<path fill="none" stroke="black" d="M820.03,-84.91C820.03,-84.91 820.03,-103.79 820.03,-103.79"/>
<polygon fill="black" stroke="black" points="816.53,-103.79 820.03,-113.79 823.53,-103.79 816.53,-103.79"/>
</g>
<!-- SafeExpressionsComponent -->
<g id="node2" class="node">
<title>SafeExpressionsComponent</title>
<polygon fill="#ffffb3" stroke="black" points="771.87,-84.8 598.13,-84.8 598.13,-48.8 771.87,-48.8 771.87,-84.8"/>
<text text-anchor="middle" x="685" y="-62.6" font-family="Times,serif" font-size="14.00">SafeExpressionsComponent</text>
</g>
<!-- SafeExpressionsComponent&#45;&gt;SafePipelineModule -->
<g id="edge2" class="edge">
<title>SafeExpressionsComponent&#45;&gt;SafePipelineModule</title>
<path fill="none" stroke="black" d="M745.89,-84.91C745.89,-84.91 745.89,-103.79 745.89,-103.79"/>
<polygon fill="black" stroke="black" points="742.39,-103.79 745.89,-113.79 749.39,-103.79 742.39,-103.79"/>
</g>
<!-- SafeFieldDropdownComponent -->
<g id="node3" class="node">
<title>SafeFieldDropdownComponent</title>
<polygon fill="#ffffb3" stroke="black" points="580.37,-84.8 385.63,-84.8 385.63,-48.8 580.37,-48.8 580.37,-84.8"/>
<text text-anchor="middle" x="483" y="-62.6" font-family="Times,serif" font-size="14.00">SafeFieldDropdownComponent</text>
</g>
<!-- SafeFieldDropdownComponent&#45;&gt;SafePipelineModule -->
<g id="edge3" class="edge">
<title>SafeFieldDropdownComponent&#45;&gt;SafePipelineModule</title>
<path fill="none" stroke="black" d="M536.07,-85.04C536.07,-100.37 536.07,-119.8 536.07,-119.8 536.07,-119.8 709.6,-119.8 709.6,-119.8"/>
<polygon fill="black" stroke="black" points="709.6,-123.3 719.6,-119.8 709.6,-116.3 709.6,-123.3"/>
</g>
<!-- SafeGroupStageComponent -->
<g id="node4" class="node">
<title>SafeGroupStageComponent</title>
<polygon fill="#ffffb3" stroke="black" points="367.58,-84.8 194.42,-84.8 194.42,-48.8 367.58,-48.8 367.58,-84.8"/>
<text text-anchor="middle" x="281" y="-62.6" font-family="Times,serif" font-size="14.00">SafeGroupStageComponent</text>
</g>
<!-- SafeGroupStageComponent&#45;&gt;SafePipelineModule -->
<g id="edge4" class="edge">
<title>SafeGroupStageComponent&#45;&gt;SafePipelineModule</title>
<path fill="none" stroke="black" d="M342.87,-84.82C342.87,-102.17 342.87,-125.8 342.87,-125.8 342.87,-125.8 709.76,-125.8 709.76,-125.8"/>
<polygon fill="black" stroke="black" points="709.76,-129.3 719.76,-125.8 709.76,-122.3 709.76,-129.3"/>
</g>
<!-- SafePipelineComponent -->
<g id="node5" class="node">
<title>SafePipelineComponent</title>
<polygon fill="#ffffb3" stroke="black" points="176.09,-84.8 23.91,-84.8 23.91,-48.8 176.09,-48.8 176.09,-84.8"/>
<text text-anchor="middle" x="100" y="-62.6" font-family="Times,serif" font-size="14.00">SafePipelineComponent</text>
</g>
<!-- SafePipelineComponent&#45;&gt;SafePipelineModule -->
<g id="edge5" class="edge">
<title>SafePipelineComponent&#45;&gt;SafePipelineModule</title>
<path fill="none" stroke="black" d="M100,-84.91C100,-104.14 100,-131.8 100,-131.8 100,-131.8 709.63,-131.8 709.63,-131.8"/>
<polygon fill="black" stroke="black" points="709.63,-135.3 719.63,-131.8 709.63,-128.3 709.63,-135.3"/>
</g>
<!-- SafeAddFieldStageComponent  -->
<g id="node10" class="node">
<title>SafeAddFieldStageComponent </title>
<polygon fill="#fb8072" stroke="black" points="1291.7,-214.8 1098.3,-214.8 1098.3,-178.8 1291.7,-178.8 1291.7,-214.8"/>
<text text-anchor="middle" x="1195" y="-192.6" font-family="Times,serif" font-size="14.00">SafeAddFieldStageComponent </text>
</g>
<!-- SafePipelineModule&#45;&gt;SafeAddFieldStageComponent  -->
<g id="edge9" class="edge">
<title>SafePipelineModule&#45;&gt;SafeAddFieldStageComponent </title>
<path fill="none" stroke="black" stroke-dasharray="5,2" d="M850.25,-137.8C950.75,-137.8 1131.93,-137.8 1131.93,-137.8 1131.93,-137.8 1131.93,-168.78 1131.93,-168.78"/>
<polygon fill="black" stroke="black" points="1128.43,-168.78 1131.93,-178.78 1135.43,-168.78 1128.43,-168.78"/>
</g>
<!-- SafeExpressionsComponent  -->
<g id="node11" class="node">
<title>SafeExpressionsComponent </title>
<polygon fill="#fb8072" stroke="black" points="1079.87,-214.8 902.13,-214.8 902.13,-178.8 1079.87,-178.8 1079.87,-214.8"/>
<text text-anchor="middle" x="991" y="-192.6" font-family="Times,serif" font-size="14.00">SafeExpressionsComponent </text>
</g>
<!-- SafePipelineModule&#45;&gt;SafeExpressionsComponent  -->
<g id="edge10" class="edge">
<title>SafePipelineModule&#45;&gt;SafeExpressionsComponent </title>
<path fill="none" stroke="black" stroke-dasharray="5,2" d="M850.34,-143.8C893.15,-143.8 941.21,-143.8 941.21,-143.8 941.21,-143.8 941.21,-168.56 941.21,-168.56"/>
<polygon fill="black" stroke="black" points="937.71,-168.56 941.21,-178.56 944.71,-168.56 937.71,-168.56"/>
</g>
<!-- SafeFieldDropdownComponent  -->
<g id="node12" class="node">
<title>SafeFieldDropdownComponent </title>
<polygon fill="#fb8072" stroke="black" points="884.37,-214.8 685.63,-214.8 685.63,-178.8 884.37,-178.8 884.37,-214.8"/>
<text text-anchor="middle" x="785" y="-192.6" font-family="Times,serif" font-size="14.00">SafeFieldDropdownComponent </text>
</g>
<!-- SafePipelineModule&#45;&gt;SafeFieldDropdownComponent  -->
<g id="edge11" class="edge">
<title>SafePipelineModule&#45;&gt;SafeFieldDropdownComponent </title>
<path fill="none" stroke="black" stroke-dasharray="5,2" d="M785,-149.91C785,-149.91 785,-168.79 785,-168.79"/>
<polygon fill="black" stroke="black" points="781.5,-168.79 785,-178.79 788.5,-168.79 781.5,-168.79"/>
</g>
<!-- SafeGroupStageComponent  -->
<g id="node13" class="node">
<title>SafeGroupStageComponent </title>
<polygon fill="#fb8072" stroke="black" points="668.08,-214.8 491.92,-214.8 491.92,-178.8 668.08,-178.8 668.08,-214.8"/>
<text text-anchor="middle" x="580" y="-192.6" font-family="Times,serif" font-size="14.00">SafeGroupStageComponent </text>
</g>
<!-- SafePipelineModule&#45;&gt;SafeGroupStageComponent  -->
<g id="edge12" class="edge">
<title>SafePipelineModule&#45;&gt;SafeGroupStageComponent </title>
<path fill="none" stroke="black" stroke-dasharray="5,2" d="M719.73,-143.8C678.58,-143.8 633.18,-143.8 633.18,-143.8 633.18,-143.8 633.18,-168.56 633.18,-168.56"/>
<polygon fill="black" stroke="black" points="629.68,-168.56 633.18,-178.56 636.68,-168.56 629.68,-168.56"/>
</g>
<!-- SafePipelineComponent  -->
<g id="node14" class="node">
<title>SafePipelineComponent </title>
<polygon fill="#fb8072" stroke="black" points="473.59,-214.8 318.41,-214.8 318.41,-178.8 473.59,-178.8 473.59,-214.8"/>
<text text-anchor="middle" x="396" y="-192.6" font-family="Times,serif" font-size="14.00">SafePipelineComponent </text>
</g>
<!-- SafePipelineModule&#45;&gt;SafePipelineComponent  -->
<g id="edge13" class="edge">
<title>SafePipelineModule&#45;&gt;SafePipelineComponent </title>
<path fill="none" stroke="black" stroke-dasharray="5,2" d="M719.83,-137.8C617.25,-137.8 429.68,-137.8 429.68,-137.8 429.68,-137.8 429.68,-168.78 429.68,-168.78"/>
<polygon fill="black" stroke="black" points="426.18,-168.78 429.68,-178.78 433.18,-168.78 426.18,-168.78"/>
</g>
<!-- SafeButtonModule -->
<g id="node7" class="node">
<title>SafeButtonModule</title>
<polygon fill="#8dd3c7" stroke="black" points="1433.05,-84.8 1430.05,-88.8 1409.05,-88.8 1406.05,-84.8 1310.95,-84.8 1310.95,-48.8 1433.05,-48.8 1433.05,-84.8"/>
<text text-anchor="middle" x="1372" y="-62.6" font-family="Times,serif" font-size="14.00">SafeButtonModule</text>
</g>
<!-- SafeButtonModule&#45;&gt;SafePipelineModule -->
<g id="edge6" class="edge">
<title>SafeButtonModule&#45;&gt;SafePipelineModule</title>
<path fill="none" stroke="black" d="M1372,-84.91C1372,-104.14 1372,-131.8 1372,-131.8 1372,-131.8 860.34,-131.8 860.34,-131.8"/>
<polygon fill="black" stroke="black" points="860.34,-128.3 850.34,-131.8 860.34,-135.3 860.34,-128.3"/>
</g>
<!-- SafeIconModule -->
<g id="node8" class="node">
<title>SafeIconModule</title>
<polygon fill="#8dd3c7" stroke="black" points="1292.8,-84.8 1289.8,-88.8 1268.8,-88.8 1265.8,-84.8 1183.2,-84.8 1183.2,-48.8 1292.8,-48.8 1292.8,-84.8"/>
<text text-anchor="middle" x="1238" y="-62.6" font-family="Times,serif" font-size="14.00">SafeIconModule</text>
</g>
<!-- SafeIconModule&#45;&gt;SafePipelineModule -->
<g id="edge7" class="edge">
<title>SafeIconModule&#45;&gt;SafePipelineModule</title>
<path fill="none" stroke="black" d="M1237.6,-84.82C1237.6,-102.17 1237.6,-125.8 1237.6,-125.8 1237.6,-125.8 860.33,-125.8 860.33,-125.8"/>
<polygon fill="black" stroke="black" points="860.33,-122.3 850.33,-125.8 860.33,-129.3 860.33,-122.3"/>
</g>
<!-- SafeQueryBuilderModule -->
<g id="node9" class="node">
<title>SafeQueryBuilderModule</title>
<polygon fill="#8dd3c7" stroke="black" points="1165.91,-84.8 1162.91,-88.8 1141.91,-88.8 1138.91,-84.8 1004.09,-84.8 1004.09,-48.8 1165.91,-48.8 1165.91,-84.8"/>
<text text-anchor="middle" x="1085" y="-62.6" font-family="Times,serif" font-size="14.00">SafeQueryBuilderModule</text>
</g>
<!-- SafeQueryBuilderModule&#45;&gt;SafePipelineModule -->
<g id="edge8" class="edge">
<title>SafeQueryBuilderModule&#45;&gt;SafePipelineModule</title>
<path fill="none" stroke="black" d="M1041.99,-85.04C1041.99,-100.37 1041.99,-119.8 1041.99,-119.8 1041.99,-119.8 860.18,-119.8 860.18,-119.8"/>
<polygon fill="black" stroke="black" points="860.18,-116.3 850.18,-119.8 860.18,-123.3 860.18,-116.3"/>
</g>
</g>
</svg>
