<?xml version="1.0" encoding="UTF-8" standalone="no"?>
<!DOCTYPE svg PUBLIC "-//W3C//DTD SVG 1.1//EN"
 "http://www.w3.org/Graphics/SVG/1.1/DTD/svg11.dtd">
<!-- Generated by graphviz version 2.47.0 (20210316.0004)
 -->
<!-- Title: dependencies Pages: 1 -->
<svg width="676pt" height="284pt"
 viewBox="0.00 0.00 676.00 284.00" xmlns="http://www.w3.org/2000/svg" xmlns:xlink="http://www.w3.org/1999/xlink">
<g id="graph0" class="graph" transform="scale(1 1) rotate(0) translate(4 280)">
<title>dependencies</title>
<polygon fill="white" stroke="transparent" points="-4,4 -4,-280 672,-280 672,4 -4,4"/>
<text text-anchor="start" x="313.01" y="-42.4" font-family="sans-serif" font-weight="bold" font-size="14.00">Legend</text>
<polygon fill="#ffffb3" stroke="transparent" points="100,-10 100,-30 120,-30 120,-10 100,-10"/>
<text text-anchor="start" x="123.63" y="-15.4" font-family="sans-serif" font-size="14.00"> &#160;Declarations</text>
<polygon fill="#8dd3c7" stroke="transparent" points="213,-10 213,-30 233,-30 233,-10 213,-10"/>
<text text-anchor="start" x="236.73" y="-15.4" font-family="sans-serif" font-size="14.00"> &#160;Module</text>
<polygon fill="#80b1d3" stroke="transparent" points="299,-10 299,-30 319,-30 319,-10 299,-10"/>
<text text-anchor="start" x="322.78" y="-15.4" font-family="sans-serif" font-size="14.00"> &#160;Bootstrap</text>
<polygon fill="#fdb462" stroke="transparent" points="396,-10 396,-30 416,-30 416,-10 396,-10"/>
<text text-anchor="start" x="419.67" y="-15.4" font-family="sans-serif" font-size="14.00"> &#160;Providers</text>
<polygon fill="#fb8072" stroke="transparent" points="492,-10 492,-30 512,-30 512,-10 492,-10"/>
<text text-anchor="start" x="515.73" y="-15.4" font-family="sans-serif" font-size="14.00"> &#160;Exports</text>
<g id="clust1" class="cluster">
<title>cluster_SafeSearchResourceGridModalModule</title>
<polygon fill="none" stroke="black" stroke-dasharray="1,5" points="8,-70 8,-268 660,-268 660,-70 8,-70"/>
</g>
<g id="clust5" class="cluster">
<title>cluster_SafeSearchResourceGridModalModule_exports</title>
<polygon fill="none" stroke="black" points="229,-208 229,-260 469,-260 469,-208 229,-208"/>
</g>
<g id="clust4" class="cluster">
<title>cluster_SafeSearchResourceGridModalModule_imports</title>
<polygon fill="none" stroke="black" points="260,-78 260,-130 652,-130 652,-78 260,-78"/>
</g>
<g id="clust2" class="cluster">
<title>cluster_SafeSearchResourceGridModalModule_declarations</title>
<polygon fill="none" stroke="black" points="16,-78 16,-130 252,-130 252,-78 16,-78"/>
</g>
<!-- SafeResourceGridModalComponent -->
<g id="node1" class="node">
<title>SafeResourceGridModalComponent</title>
<polygon fill="#ffffb3" stroke="black" points="244.5,-122 23.5,-122 23.5,-86 244.5,-86 244.5,-122"/>
<text text-anchor="middle" x="134" y="-99.8" font-family="Times,serif" font-size="14.00">SafeResourceGridModalComponent</text>
</g>
<!-- SafeSearchResourceGridModalModule -->
<g id="node2" class="node">
<title>SafeSearchResourceGridModalModule</title>
<polygon fill="#8dd3c7" stroke="black" points="467.3,-187 464.3,-191 443.3,-191 440.3,-187 230.7,-187 230.7,-151 467.3,-151 467.3,-187"/>
<text text-anchor="middle" x="349" y="-164.8" font-family="Times,serif" font-size="14.00">SafeSearchResourceGridModalModule</text>
</g>
<!-- SafeResourceGridModalComponent&#45;&gt;SafeSearchResourceGridModalModule -->
<g id="edge1" class="edge">
<title>SafeResourceGridModalComponent&#45;&gt;SafeSearchResourceGridModalModule</title>
<path fill="none" stroke="black" d="M237.42,-122.11C237.42,-122.11 237.42,-140.99 237.42,-140.99"/>
<polygon fill="black" stroke="black" points="233.92,-140.99 237.42,-150.99 240.92,-140.99 233.92,-140.99"/>
</g>
<!-- SafeResourceGridModalComponent  -->
<g id="node5" class="node">
<title>SafeResourceGridModalComponent </title>
<polygon fill="#fb8072" stroke="black" points="461,-252 237,-252 237,-216 461,-216 461,-252"/>
<text text-anchor="middle" x="349" y="-229.8" font-family="Times,serif" font-size="14.00">SafeResourceGridModalComponent </text>
</g>
<!-- SafeSearchResourceGridModalModule&#45;&gt;SafeResourceGridModalComponent  -->
<g id="edge4" class="edge">
<title>SafeSearchResourceGridModalModule&#45;&gt;SafeResourceGridModalComponent </title>
<path fill="none" stroke="black" stroke-dasharray="5,2" d="M349,-187.11C349,-187.11 349,-205.99 349,-205.99"/>
<polygon fill="black" stroke="black" points="345.5,-205.99 349,-215.99 352.5,-205.99 345.5,-205.99"/>
</g>
<!-- SafeResourceDropdownModule -->
<g id="node3" class="node">
<title>SafeResourceDropdownModule</title>
<polygon fill="#8dd3c7" stroke="black" points="644.38,-122 641.38,-126 620.38,-126 617.38,-122 447.62,-122 447.62,-86 644.38,-86 644.38,-122"/>
<text text-anchor="middle" x="546" y="-99.8" font-family="Times,serif" font-size="14.00">SafeResourceDropdownModule</text>
</g>
<!-- SafeResourceDropdownModule&#45;&gt;SafeSearchResourceGridModalModule -->
<g id="edge2" class="edge">
<title>SafeResourceDropdownModule&#45;&gt;SafeSearchResourceGridModalModule</title>
<path fill="none" stroke="black" d="M457.61,-122.11C457.61,-122.11 457.61,-140.99 457.61,-140.99"/>
<polygon fill="black" stroke="black" points="454.11,-140.99 457.61,-150.99 461.11,-140.99 454.11,-140.99"/>
</g>
<!-- SafeResourceGridModule -->
<g id="node4" class="node">
<title>SafeResourceGridModule</title>
<polygon fill="#8dd3c7" stroke="black" points="430.17,-122 427.17,-126 406.17,-126 403.17,-122 267.83,-122 267.83,-86 430.17,-86 430.17,-122"/>
<text text-anchor="middle" x="349" y="-99.8" font-family="Times,serif" font-size="14.00">SafeResourceGridModule</text>
</g>
<!-- SafeResourceGridModule&#45;&gt;SafeSearchResourceGridModalModule -->
<g id="edge3" class="edge">
<title>SafeResourceGridModule&#45;&gt;SafeSearchResourceGridModalModule</title>
<path fill="none" stroke="black" d="M349,-122.11C349,-122.11 349,-140.99 349,-140.99"/>
<polygon fill="black" stroke="black" points="345.5,-140.99 349,-150.99 352.5,-140.99 345.5,-140.99"/>
</g>
</g>
</svg>
