<?xml version="1.0" encoding="UTF-8" standalone="no"?>
<!DOCTYPE svg PUBLIC "-//W3C//DTD SVG 1.1//EN"
 "http://www.w3.org/Graphics/SVG/1.1/DTD/svg11.dtd">
<!-- Generated by graphviz version 2.47.0 (20210316.0004)
 -->
<!-- Title: dependencies Pages: 1 -->
<svg width="1108pt" height="284pt"
 viewBox="0.00 0.00 1108.00 284.00" xmlns="http://www.w3.org/2000/svg" xmlns:xlink="http://www.w3.org/1999/xlink">
<g id="graph0" class="graph" transform="scale(1 1) rotate(0) translate(4 280)">
<title>dependencies</title>
<polygon fill="white" stroke="transparent" points="-4,4 -4,-280 1104,-280 1104,4 -4,4"/>
<text text-anchor="start" x="529.01" y="-42.4" font-family="sans-serif" font-weight="bold" font-size="14.00">Legend</text>
<polygon fill="#ffffb3" stroke="transparent" points="316,-10 316,-30 336,-30 336,-10 316,-10"/>
<text text-anchor="start" x="339.63" y="-15.4" font-family="sans-serif" font-size="14.00"> &#160;Declarations</text>
<polygon fill="#8dd3c7" stroke="transparent" points="429,-10 429,-30 449,-30 449,-10 429,-10"/>
<text text-anchor="start" x="452.73" y="-15.4" font-family="sans-serif" font-size="14.00"> &#160;Module</text>
<polygon fill="#80b1d3" stroke="transparent" points="515,-10 515,-30 535,-30 535,-10 515,-10"/>
<text text-anchor="start" x="538.78" y="-15.4" font-family="sans-serif" font-size="14.00"> &#160;Bootstrap</text>
<polygon fill="#fdb462" stroke="transparent" points="612,-10 612,-30 632,-30 632,-10 612,-10"/>
<text text-anchor="start" x="635.67" y="-15.4" font-family="sans-serif" font-size="14.00"> &#160;Providers</text>
<polygon fill="#fb8072" stroke="transparent" points="708,-10 708,-30 728,-30 728,-10 708,-10"/>
<text text-anchor="start" x="731.73" y="-15.4" font-family="sans-serif" font-size="14.00"> &#160;Exports</text>
<g id="clust1" class="cluster">
<title>cluster_SafeSearchResourceGridModalModule</title>
<polygon fill="none" stroke="black" stroke-dasharray="1,5" points="8,-70 8,-268 1092,-268 1092,-70 8,-70"/>
</g>
<g id="clust5" class="cluster">
<title>cluster_SafeSearchResourceGridModalModule_exports</title>
<polygon fill="none" stroke="black" points="426,-208 426,-260 666,-260 666,-208 426,-208"/>
</g>
<g id="clust4" class="cluster">
<title>cluster_SafeSearchResourceGridModalModule_imports</title>
<polygon fill="none" stroke="black" points="260,-78 260,-130 1084,-130 1084,-78 260,-78"/>
</g>
<g id="clust2" class="cluster">
<title>cluster_SafeSearchResourceGridModalModule_declarations</title>
<polygon fill="none" stroke="black" points="16,-78 16,-130 252,-130 252,-78 16,-78"/>
</g>
<!-- SafeResourceGridModalComponent -->
<g id="node1" class="node">
<title>SafeResourceGridModalComponent</title>
<polygon fill="#ffffb3" stroke="black" points="244.5,-122 23.5,-122 23.5,-86 244.5,-86 244.5,-122"/>
<text text-anchor="middle" x="134" y="-99.8" font-family="Times,serif" font-size="14.00">SafeResourceGridModalComponent</text>
</g>
<!-- SafeSearchResourceGridModalModule -->
<g id="node2" class="node">
<title>SafeSearchResourceGridModalModule</title>
<polygon fill="#8dd3c7" stroke="black" points="664.3,-187 661.3,-191 640.3,-191 637.3,-187 427.7,-187 427.7,-151 664.3,-151 664.3,-187"/>
<text text-anchor="middle" x="546" y="-164.8" font-family="Times,serif" font-size="14.00">SafeSearchResourceGridModalModule</text>
</g>
<!-- SafeResourceGridModalComponent&#45;&gt;SafeSearchResourceGridModalModule -->
<g id="edge1" class="edge">
<title>SafeResourceGridModalComponent&#45;&gt;SafeSearchResourceGridModalModule</title>
<path fill="none" stroke="black" d="M134,-122.11C134,-141.34 134,-169 134,-169 134,-169 417.66,-169 417.66,-169"/>
<polygon fill="black" stroke="black" points="417.66,-172.5 427.66,-169 417.66,-165.5 417.66,-172.5"/>
</g>
<!-- SafeResourceGridModalComponent  -->
<g id="node7" class="node">
<title>SafeResourceGridModalComponent </title>
<polygon fill="#fb8072" stroke="black" points="658,-252 434,-252 434,-216 658,-216 658,-252"/>
<text text-anchor="middle" x="546" y="-229.8" font-family="Times,serif" font-size="14.00">SafeResourceGridModalComponent </text>
</g>
<!-- SafeSearchResourceGridModalModule&#45;&gt;SafeResourceGridModalComponent  -->
<g id="edge6" class="edge">
<title>SafeSearchResourceGridModalModule&#45;&gt;SafeResourceGridModalComponent </title>
<path fill="none" stroke="black" stroke-dasharray="5,2" d="M546,-187.11C546,-187.11 546,-205.99 546,-205.99"/>
<polygon fill="black" stroke="black" points="542.5,-205.99 546,-215.99 549.5,-205.99 542.5,-205.99"/>
</g>
<!-- SafeApplicationDropdownModule -->
<g id="node3" class="node">
<title>SafeApplicationDropdownModule</title>
<polygon fill="#8dd3c7" stroke="black" points="1076.39,-122 1073.39,-126 1052.39,-126 1049.39,-122 865.61,-122 865.61,-86 1076.39,-86 1076.39,-122"/>
<text text-anchor="middle" x="971" y="-99.8" font-family="Times,serif" font-size="14.00">SafeApplicationDropdownModule</text>
</g>
<!-- SafeApplicationDropdownModule&#45;&gt;SafeSearchResourceGridModalModule -->
<g id="edge2" class="edge">
<title>SafeApplicationDropdownModule&#45;&gt;SafeSearchResourceGridModalModule</title>
<path fill="none" stroke="black" d="M971,-122.11C971,-141.34 971,-169 971,-169 971,-169 674.39,-169 674.39,-169"/>
<polygon fill="black" stroke="black" points="674.39,-165.5 664.39,-169 674.39,-172.5 674.39,-165.5"/>
</g>
<!-- SafeRecordDropdownModule -->
<g id="node4" class="node">
<title>SafeRecordDropdownModule</title>
<polygon fill="#8dd3c7" stroke="black" points="847.22,-122 844.22,-126 823.22,-126 820.22,-122 662.78,-122 662.78,-86 847.22,-86 847.22,-122"/>
<text text-anchor="middle" x="755" y="-99.8" font-family="Times,serif" font-size="14.00">SafeRecordDropdownModule</text>
</g>
<!-- SafeRecordDropdownModule&#45;&gt;SafeSearchResourceGridModalModule -->
<g id="edge3" class="edge">
<title>SafeRecordDropdownModule&#45;&gt;SafeSearchResourceGridModalModule</title>
<path fill="none" stroke="black" d="M662.43,-104C656.84,-104 653.41,-104 653.41,-104 653.41,-104 653.41,-140.89 653.41,-140.89"/>
<polygon fill="black" stroke="black" points="649.91,-140.89 653.41,-150.89 656.91,-140.89 649.91,-140.89"/>
</g>
<!-- SafeResourceDropdownModule -->
<g id="node5" class="node">
<title>SafeResourceDropdownModule</title>
<polygon fill="#8dd3c7" stroke="black" points="644.38,-122 641.38,-126 620.38,-126 617.38,-122 447.62,-122 447.62,-86 644.38,-86 644.38,-122"/>
<text text-anchor="middle" x="546" y="-99.8" font-family="Times,serif" font-size="14.00">SafeResourceDropdownModule</text>
</g>
<!-- SafeResourceDropdownModule&#45;&gt;SafeSearchResourceGridModalModule -->
<g id="edge4" class="edge">
<title>SafeResourceDropdownModule&#45;&gt;SafeSearchResourceGridModalModule</title>
<path fill="none" stroke="black" d="M546,-122.11C546,-122.11 546,-140.99 546,-140.99"/>
<polygon fill="black" stroke="black" points="542.5,-140.99 546,-150.99 549.5,-140.99 542.5,-140.99"/>
</g>
<!-- SafeResourceGridModule -->
<g id="node6" class="node">
<title>SafeResourceGridModule</title>
<polygon fill="#8dd3c7" stroke="black" points="430.17,-122 427.17,-126 406.17,-126 403.17,-122 267.83,-122 267.83,-86 430.17,-86 430.17,-122"/>
<text text-anchor="middle" x="349" y="-99.8" font-family="Times,serif" font-size="14.00">SafeResourceGridModule</text>
</g>
<!-- SafeResourceGridModule&#45;&gt;SafeSearchResourceGridModalModule -->
<g id="edge5" class="edge">
<title>SafeResourceGridModule&#45;&gt;SafeSearchResourceGridModalModule</title>
<path fill="none" stroke="black" d="M430.32,-104C435.65,-104 438.95,-104 438.95,-104 438.95,-104 438.95,-140.89 438.95,-140.89"/>
<polygon fill="black" stroke="black" points="435.45,-140.89 438.95,-150.89 442.45,-140.89 435.45,-140.89"/>
</g>
</g>
</svg>
